<?xml version="1.0" encoding="utf-8"?>
<!-- Generator: Adobe Illustrator 18.0.0, SVG Export Plug-In . SVG Version: 6.00 Build 0)  -->
<!DOCTYPE svg PUBLIC "-//W3C//DTD SVG 1.1//EN" "http://www.w3.org/Graphics/SVG/1.1/DTD/svg11.dtd">
<svg version="1.1" xmlns="http://www.w3.org/2000/svg" xmlns:xlink="http://www.w3.org/1999/xlink" x="0px" y="0px"
	 viewBox="0 0 300 100" style="enable-background:new 0 0 300 100;" xml:space="preserve">
<style type="text/css">
	.st0{fill-rule:evenodd;clip-rule:evenodd;}
	.st1{fill-rule:evenodd;clip-rule:evenodd;fill:#C038F9;}
	.st2{fill:none;}
	.st3{fill-rule:evenodd;clip-rule:evenodd;fill:#231F20;}
</style>
<g id="Layer_2">
</g>
<g id="Layer_1">
	<g>
		<path class="st0" d="M52.7,52H42v-0.7c2.8,0,3.4-1.2,3.4-2.3V28.2h-2.8c-2.8,0-4.6-0.8-5.5,4.1h-0.7l0-5.7h21.7l0,5.7h-0.7
			c-0.8-4.9-2.6-4.1-5.5-4.1h-2.8V49c0,1.1,0.6,2.3,3.4,2.3V52L52.7,52z"/>
		<path class="st0" d="M73,41.5V35c0-0.8-0.4-1.8-2.6-1.8v-0.6h8.1v0.6c-2.1,0-2.6,0.9-2.6,1.8v14.7c0,0.8,0.4,1.8,2.6,1.8V52h-8.1
			v-0.6c2.1,0,2.6-0.9,2.6-1.8v-7h-8.9v7c0,0.8,0.4,1.8,2.6,1.8V52h-8.1v-0.6c2.1,0,2.6-0.9,2.6-1.8V35c0-0.8-0.4-1.8-2.6-1.8v-0.6
			h8.1v0.6c-2.1,0-2.6,0.9-2.6,1.8v6.5H73L73,41.5z"/>
		<path class="st0" d="M79.5,52v-0.6c2.1,0,2.6-0.9,2.6-1.8V35c0-0.8-0.4-1.8-2.6-1.8v-0.6H95v4.2h-0.6c-0.3-1.6-1.3-3-3.3-3h-4.7
			c-0.7,0-1.3,0.4-1.3,1.1v6.3h2.1c2,0,3.6-0.5,3.6-2.8h0.4v6.8h-0.4c0-2.3-1.7-2.8-3.6-2.8H85v7.2c0,0.5,0.2,1.1,0.8,1.1h3.9
			c2.3,0,3.5,0,5.1-3.7h0.8L95.3,52H79.5L79.5,52z"/>
		<path class="st0" d="M143.7,41.5V35c0-0.8-0.4-1.8-2.6-1.8v-0.6h8.1v0.6c-2.1,0-2.6,0.9-2.6,1.8v14.7c0,0.8,0.4,1.8,2.6,1.8V52
			h-8.1v-0.6c2.1,0,2.6-0.9,2.6-1.8v-7h-8.9v7c0,0.8,0.4,1.8,2.6,1.8V52h-8.1v-0.6c2.1,0,2.6-0.9,2.6-1.8V35c0-0.8-0.4-1.8-2.6-1.8
			v-0.6h8.1v0.6c-2.1,0-2.6,0.9-2.6,1.8v6.5H143.7L143.7,41.5z"/>
		<path class="st0" d="M166.2,49.8l-5.8-7.1c2.7-0.4,5.3-1.8,5.3-4.9c0-3.4-2.9-5.1-7.8-5.1h-7.7v0.6c2,0,2.5,0.9,2.5,1.8v14.7
			c0,0.8-0.4,1.8-2.5,1.8V52h8v-0.6c-2.1,0-2.6-0.9-2.6-1.8v-6.6l1.6-0.1l7,9h4.7v-0.6C167.6,51.4,166.9,50.8,166.2,49.8z M155.6,42
			v-6.8c0-1.4,0.3-1.4,2.2-1.4c2.6,0,4.7,1.2,4.7,4C162.5,41,159.9,41.8,155.6,42z"/>
		<path class="st0" d="M175.2,49.7c0,0.8,0.4,1.8,2.9,1.8V52h-8.7v-0.6c2.4,0,2.9-0.9,2.9-1.8V35c0-0.8-0.4-1.8-2.9-1.8v-0.6h8.7
			v0.6c-2.4,0-2.9,0.9-2.9,1.8V49.7L175.2,49.7z"/>
		<path class="st0" d="M178.7,46.1h0.7c0.9,2.7,3,5.2,6.1,5.2c2.4,0,4-2,3.3-4.3c-1.2-4.1-9.2-4.3-9.2-9.9c0-2.9,2.3-4.9,5.2-4.9
			c3.1,0,4.5,2.2,5.2,0h0.6l0.6,6.2h-0.7c-0.7-2.7-2.6-5-5.3-5c-1.8,0-3.1,1-3.1,2.8c0,1.7,1.8,2.9,3.1,3.7c4,2.4,6.7,3.7,6.7,7.2
			c0,2.6-2.2,5.4-6.2,5.4c-3,0-5.1-2.1-5.4,0h-0.6L178.7,46.1L178.7,46.1z"/>
		<path class="st0" d="M205.5,52h-8.1v-0.6c2.1,0,2.6-0.9,2.6-1.8V33.9h-2.1c-2.2,0-3.5,0-4.2,3.7h-0.7l0.2-5h16.6l0.2,5h-0.7
			c-0.6-3.7-2-3.7-4.2-3.7h-2.1v15.8c0,0.8,0.4,1.8,2.6,1.8V52L205.5,52z"/>
		<path class="st0" d="M216.7,49.7c0,0.8,0.4,1.8,2.9,1.8V52h-8.7v-0.6c2.4,0,2.9-0.9,2.9-1.8V35c0-0.8-0.4-1.8-2.9-1.8v-0.6h8.7
			v0.6c-2.4,0-2.9,0.9-2.9,1.8V49.7L216.7,49.7z"/>
		<path class="st0" d="M238,48.6l-7.1-16.3h-0.6l-5.9,14.1c-1.2,2.8-2,5-3.8,5.1V52h5.8v-0.6c-1,0-2-0.3-2-1.2
			c0-1.1,1.2-3.4,1.6-4.5h7.7l1,2.5c1.1,2.6,1.1,3.2-1.3,3.3V52h7.5v-0.6C239.1,51.6,238.5,49.8,238,48.6z M226.9,44.5l3.4-8l3.4,8
			H226.9z"/>
		<path class="st0" d="M259.1,52.4h-0.4l-13-16.1v13.4c0,0.8,0.4,1.8,2.8,1.8V52h-7v-0.6c2.4,0,2.8-0.9,2.8-1.8V34.8l-0.2-0.3
			c-0.9-1-1.2-1.3-2.6-1.3v-0.6h5l11.3,14.1V35c0-0.8-0.4-1.8-2.8-1.8v-0.6h7v0.6c-2.4,0-2.8,0.9-2.8,1.8V52.4L259.1,52.4z"/>
		<path class="st0" d="M14.8,73.5h0.9c1.2,3.6,3.9,6.8,7.9,6.8c3.1,0,5.2-2.7,4.3-5.7c-1.6-5.4-12.1-5.6-12.1-12.9
			c0-3.8,3-6.4,6.8-6.4c4.1,0,5.9,2.8,6.8,0h0.8l0.8,8.2h-1c-0.9-3.6-3.4-6.6-7-6.6c-2.3,0-4,1.3-4,3.7c0,2.2,2.4,3.8,4.1,4.8
			c5.2,3.1,8.8,4.8,8.8,9.4c0,3.5-2.9,7-8.1,7c-4,0-6.8-2.8-7.1,0h-0.8L14.8,73.5L14.8,73.5z"/>
		<path class="st0" d="M37,71.5c0-5.3,2.1-8.8,6.9-8.8c3.3,0,5.5,2.2,6.3,5.4h0.7l-0.3-6.6H50c-1,2.4-2.4,0-6.4,0
			c-5.9,0-10,4.2-10,10c0,5.8,4.1,10,10,10c4,0,5.5-2.4,6.4,0h0.6l0.3-6.6h-0.7c-0.8,3.2-3,5.4-6.3,5.4C39.1,80.4,37,76.8,37,71.5
			L37,71.5z"/>
		<path class="st0" d="M58.5,78.9c0,0.8,0.4,1.8,2.9,1.8v0.6h-8.7v-0.6c2.4,0,2.9-0.9,2.9-1.8V64.3c0-0.8-0.4-1.8-2.9-1.8v-0.6h8.7
			v0.6c-2.4,0-2.9,0.9-2.9,1.8V78.9L58.5,78.9z"/>
		<path class="st0" d="M97.2,81.7h-0.4l-13-16.1v13.4c0,0.8,0.4,1.8,2.8,1.8v0.6h-7v-0.6c2.4,0,2.8-0.9,2.8-1.8V64.1l-0.2-0.3
			c-0.9-1-1.2-1.3-2.6-1.3v-0.6h5L95.9,76V64.3c0-0.8-0.4-1.8-2.8-1.8v-0.6h7v0.6c-2.4,0-2.8,0.9-2.8,1.8V81.7L97.2,81.7z"/>
		<path class="st0" d="M175.6,78.2c0,1.1,0.6,2.3,3.4,2.3v0.7h-10.7v-0.7c2.8,0,3.4-1.2,3.4-2.3V59.4l-9.8,21.8h-0.5l-9.6-21v17.9
			c0,1.1,0.6,2.3,3.7,2.3v0.7h-9.1v-0.7c3.1,0,3.7-1.2,3.7-2.3V58.9c0-1.1-0.6-2.3-3.6-2.3v-0.7h7.6l8.9,19.4l8.5-19.4h7.6v0.7
			c-2.8,0-3.4,1.2-3.4,2.3L175.6,78.2L175.6,78.2z"/>
		<path class="st0" d="M188.6,61.5c-5.7-0.1-9.6,4.3-9.6,10.1c0,6.2,4.4,10.1,9.6,10.1c5.8,0,9.6-4.4,9.6-10.1
			C198.2,65.4,193.7,61.3,188.6,61.5z M188.6,80.6c-3.4,0.3-6.3-3-6.3-9c0-5.6,1.9-8.8,6.3-9c4.5-0.1,6.3,4.4,6.3,9
			C195,74.7,193.8,80.2,188.6,80.6z"/>
		<path class="st0" d="M215.9,81.7h-0.4l-13-16.1v13.4c0,0.8,0.4,1.8,2.8,1.8v0.6h-7v-0.6c2.4,0,2.8-0.9,2.8-1.8V64.1l-0.2-0.3
			c-0.9-1-1.2-1.3-2.6-1.3v-0.6h5L214.6,76V64.3c0-0.8-0.4-1.8-2.8-1.8v-0.6h7v0.6c-2.4,0-2.8,0.9-2.8,1.8V81.7L215.9,81.7z"/>
		<path class="st0" d="M225.5,78.9c0,0.8,0.4,1.8,2.9,1.8v0.6h-8.7v-0.6c2.4,0,2.9-0.9,2.9-1.8V64.3c0-0.8-0.4-1.8-2.9-1.8v-0.6h8.7
			v0.6c-2.4,0-2.9,0.9-2.9,1.8V78.9L225.5,78.9z"/>
		<path class="st0" d="M241.8,81.3h-8.1v-0.6c2.1,0,2.6-0.9,2.6-1.8V63.1h-2.1c-2.2,0-3.5,0-4.2,3.7h-0.7l0.2-5H246l0.2,5h-0.7
			c-0.6-3.7-2-3.7-4.2-3.7h-2.1v15.8c0,0.8,0.4,1.8,2.6,1.8V81.3L241.8,81.3z"/>
		<path class="st0" d="M256.9,61.5c-5.7-0.1-9.6,4.3-9.6,10.1c0,6.2,4.4,10.1,9.6,10.1c5.8,0,9.6-4.4,9.6-10.1
			C266.5,65.4,262,61.3,256.9,61.5z M256.9,80.6c-3.4,0.3-6.3-3-6.3-9c0-5.6,1.9-8.8,6.3-9c4.5-0.1,6.3,4.4,6.3,9
			C263.3,74.7,262.1,80.2,256.9,80.6z"/>
		<path class="st0" d="M282.4,79.1l-5.8-7.1c2.8-0.4,5.3-1.8,5.3-4.9c0-3.4-2.9-5.1-7.8-5.1h-7.7v0.6c2,0,2.5,0.9,2.5,1.8v14.7
			c0,0.8-0.4,1.8-2.5,1.8v0.6h8v-0.6c-2.1,0-2.6-0.9-2.6-1.8v-6.6l1.6-0.1l7,9h4.7v-0.6C283.9,80.6,283.2,80.1,282.4,79.1z
			 M271.9,71.3v-6.8c0-1.4,0.3-1.4,2.2-1.4c2.6,0,4.7,1.1,4.7,4C278.7,70.2,276.1,71.1,271.9,71.3z"/>
		<path class="st0" d="M62.3,81.3v-0.6c2.1,0,2.6-0.9,2.6-1.8V64.3c0-0.8-0.4-1.8-2.6-1.8v-0.6h15.5v4.2h-0.6c-0.3-1.6-1.3-3-3.3-3
			h-4.7c-0.7,0-1.3,0.4-1.3,1.1v6.3h2.1c2,0,3.6-0.5,3.6-2.8h0.4v6.8h-0.4c0-2.3-1.7-2.8-3.6-2.8h-2.1v7.2c0,0.5,0.2,1.1,0.8,1.1
			h3.9c2.3,0,3.5,0,5.1-3.7h0.8l-0.3,4.9H62.3L62.3,81.3z"/>
		<path class="st0" d="M118.8,81.3v-0.6c2.1,0,2.6-0.9,2.6-1.8V64.3c0-0.8-0.4-1.8-2.6-1.8v-0.6h15.5v4.2h-0.6c-0.3-1.6-1.3-3-3.3-3
			h-4.7c-0.7,0-1.3,0.4-1.3,1.1v6.3h2.1c2,0,3.6-0.5,3.6-2.8h0.4v6.8H130c0-2.3-1.7-2.8-3.6-2.8h-2.1v7.2c0,0.5,0.2,1.1,0.8,1.1h3.9
			c2.3,0,3.5,0,5.1-3.7h0.8l-0.3,4.9H118.8L118.8,81.3z"/>
		<path class="st0" d="M103.3,71.5c0-5.3,2.1-8.8,6.9-8.8c3.3,0,5.5,2.2,6.3,5.4h0.7l-0.3-6.6h-0.6c-1,2.4-2.4,0-6.4,0
			c-5.9,0-10,4.2-10,10c0,5.8,4.1,10,10,10c4,0,5.5-2.4,6.4,0h0.6l0.3-6.6h-0.7c-0.8,3.2-3,5.4-6.3,5.4
			C105.4,80.4,103.3,76.8,103.3,71.5L103.3,71.5z"/>
		<path class="st0" d="M109.8,39.2c0-6.8,2.7-11.4,8.9-11.4c4.3,0,7.1,2.8,8.2,7h0.9l-0.3-8.5h-0.8c-1.2,3.1-3.1,0-8.3,0
			c-7.6,0-12.9,5.4-12.9,13c0,7.5,5.3,13,12.9,13c5.2,0,7.1-3.1,8.3,0h0.8l0.3-8.5h-0.9c-1.1,4.2-3.9,7-8.2,7
			C112.5,50.6,109.8,46,109.8,39.2L109.8,39.2z"/>
	</g>
</g>
</svg>
