<?xml version="1.0" encoding="utf-8"?>
<!-- Generator: Adobe Illustrator 18.0.0, SVG Export Plug-In . SVG Version: 6.00 Build 0)  -->
<!DOCTYPE svg PUBLIC "-//W3C//DTD SVG 1.1//EN" "http://www.w3.org/Graphics/SVG/1.1/DTD/svg11.dtd">
<svg version="1.1" xmlns="http://www.w3.org/2000/svg" xmlns:xlink="http://www.w3.org/1999/xlink" x="0px" y="0px"
	 viewBox="0 0 300 100" style="enable-background:new 0 0 300 100;" xml:space="preserve">
<style type="text/css">
	.st0{fill-rule:evenodd;clip-rule:evenodd;}
	.st1{fill-rule:evenodd;clip-rule:evenodd;fill:#C038F9;}
	.st2{fill:none;}
	.st3{fill-rule:evenodd;clip-rule:evenodd;fill:#231F20;}
</style>
<g id="Layer_2">
	<g>
		<g>
			<path d="M4,57.8v-27l-4-1.4v-0.9h13.5v0.9c0,0-4,1.4-3.9,1.4v27c0,4.5-1.2,6.6-1.6,7.4c-2.4,4.3-5,5.9-6.8,7.4l-1-0.6
				c0.5-0.6,2.1-4.4,2.6-5.8C3,65.3,4,62.3,4,57.8z"/>
			<path d="M24.3,38.5c0,0.3,0,7.8,0,13c0,5,0.4,7.1,3.4,7.1c0.4,0,2.3,0,4-2.1c1.3-1.6,1.3-3,1.4-5.8c0.2-4.6,0-9.4,0-9.7L29.8,40
				V39l8.8-0.5c0,0.3-0.2,13.6,0,19.2l3.6,0.9v0.9c-1.9,0-8.6,0.8-8.6,0.8l-0.3-3.1c-1,1.3-3.5,3.3-6.7,3.4
				c-5.5,0.1-7.7-1.4-7.7-7.4c0-4.7,0-12.2,0-12.2s-3.2-1.2-3.2-1.2v-0.9C16.6,38.9,24.4,38.5,24.3,38.5z"/>
			<path d="M52.8,38.9v0.9l-2.6,1.2c-0.1,0,5.1,12.8,5.1,12.8s5.5-13.2,5.5-13.2l-2.6-0.8v-0.9h8.2v0.9L64,40.6c0,0-9.2,20-9.2,20
				h-2.1c0,0-8.6-19.4-8.6-19.5L41,39.8v-0.9H52.8z"/>
			<path d="M78.7,58.8c1.5,0,3.7-0.6,7-3.7l1,1.3c-2.1,2.5-4.5,4.4-8.4,4.4c-7.2,0.1-11.9-3.8-11.6-12.1c0.4-6.8,5-11,11.5-10.7
				c6.1,0.3,9.1,5.5,8.7,10.9H72.7C72.6,53,72.9,58.6,78.7,58.8z M81.7,47.1c0-3.5-1-7.2-3.6-7.4c-3.6-0.3-4.9,4.1-5.3,7.4H81.7z"/>
			<path d="M88.3,40.1v-0.9l8.4-0.9l0.5,3.4c0.8-1.1,2.8-3.9,7.6-3.9c7.5,0.1,7.1,3.8,7.1,9.4v10.6l3.7,1.2v0.9h-12.8V59l3.4-1.2
				c0,0.1,0-9,0-9c0-3.7,0-5.4-0.5-6.7c-0.7-1.6-1.5-2.3-3.5-2.3c-1.4,0-3.5,1.4-4.4,3.8c-0.5,1.4-0.7,2.2-0.7,4.7v9.5l3.1,1.2v0.9
				H88.5V59l3.3-1.2V41L88.3,40.1z"/>
			<path d="M116.5,40v-0.9l9-0.8v19.4l3.3,1.2v0.9h-12V59l3.3-1.2V40.9L116.5,40z M125.5,30.1c0,1.6-1.5,3.1-3.1,3.1
				c-1.7,0-3.1-1.6-3.1-3.1c0-1.6,1.5-3.1,3.1-3.1C124,27,125.5,28.5,125.5,30.1z"/>
			<path d="M130.2,26.7v-0.9l9-0.8c0,0,0,32.8,0,32.7l3.5,1.3v0.9h-12.3V59c0,0,3.5-1.3,3.4-1.3c0,0.1,0-30.1,0-30.1L130.2,26.7z"/>
			<path d="M156,58.8c1.5,0,3.7-0.6,7-3.7l1,1.3c-2.1,2.5-4.5,4.4-8.4,4.4c-7.2,0.1-11.9-3.8-11.6-12.1c0.4-6.8,5-11,11.5-10.7
				c6.1,0.3,9.1,5.5,8.7,10.9H150C149.9,53,150.2,58.6,156,58.8z M159,47.1c0-3.5-1-7.2-3.6-7.4c-3.6-0.3-4.9,4.1-5.3,7.4H159z"/>
			<path d="M172,57.8v-27l-4-1.4v-0.9h13.5v0.9c0,0-4,1.4-3.9,1.4v27c0,4.5-1.2,6.6-1.6,7.4c-2.4,4.3-5,5.9-6.8,7.4l-1-0.6
				c0.5-0.6,2.1-4.4,2.6-5.8C170.9,65.3,172,62.3,172,57.8z"/>
			<path d="M190.8,38.5c0,0.3,0,7.8,0,13c0,5,0.4,7.1,3.4,7.1c0.4,0,2.3,0,4-2.1c1.3-1.6,1.3-3,1.4-5.8c0.2-4.6,0-9.4,0-9.7
				l-3.3-1.1V39l8.8-0.5c0,0.3-0.2,13.6,0,19.2l3.6,0.9v0.9c-1.9,0-8.6,0.8-8.6,0.8l-0.3-3.1c-1,1.3-3.5,3.3-6.7,3.4
				c-5.5,0.1-7.7-1.4-7.7-7.4c0-4.7,0-12.2,0-12.2s-3.2-1.2-3.2-1.2v-0.9C183,38.9,190.8,38.5,190.8,38.5z"/>
			<path d="M225.6,39.5l-0.7,5.2l-1.2-0.1l-0.6-3c-1-0.6-2.5-1.4-4.6-1.6c-2.4-0.2-4.6,0.9-4.4,2.9c0.2,2.5,3.3,2.7,6,3.6
				c3.4,1,7,2.9,6.1,8.2c-0.5,3.2-3.6,6.1-8.7,6c-1.9,0-4.7-0.5-7.5-2l0.9-6.1l1.3,0.2c-0.1,0,0.4,3.8,0.4,3.8
				c2.2,1.6,3.3,2.1,5.2,2.2c2.3,0.1,4.6-0.8,4.9-3.4c0.3-2.7-3.8-3.9-6.1-4.5c-2.9-0.9-6.5-1.9-5.9-7.3c0.4-3.8,4.1-5.3,8.1-5.3
				C221.9,38.2,224.3,39,225.6,39.5z"/>
			<path d="M238.1,32.6v6.2h5.2v1.9h-5.2v11.1c0,3.2-0.1,5.2,1.2,6.1c1.1,0.9,3,0.4,4.5-0.3l0.4,1.4c-2.4,1.8-8.5,2.4-10.4-0.3
				c-1.4-1.9-1-4.6-1.1-8.9v-9.1H229v-1.9h3.7V34L238.1,32.6z"/>
			<path d="M245.3,40v-0.9l9-0.8v19.4l3.3,1.2v0.9h-12V59l3.3-1.2V40.9L245.3,40z M254.3,30.1c0,1.6-1.5,3.1-3.1,3.1
				c-1.7,0-3.1-1.6-3.1-3.1c0-1.6,1.5-3.1,3.1-3.1C252.9,27,254.3,28.5,254.3,30.1z"/>
			<path d="M275.6,44.9l-1.1-3.4c-0.9-1.2-2-1.8-3.8-1.7c-4.1,0.3-5.4,6.2-5.5,9c-0.2,4.7,1.1,9.9,5.3,9.9c2.5,0,4.1-1.1,6.7-3.5
				l1,1.2c-2.4,3.3-5.1,4.3-7.6,4.3c-7.6,0-11.7-4.6-11.3-12.2c0.3-6.4,5.3-10.6,11.5-10.6c5,0.1,6.5,1.7,6.5,1.7l-0.6,5.3
				L275.6,44.9z"/>
			<path d="M291.4,58.8c1.5,0,3.7-0.6,7-3.7l1,1.3c-2.1,2.5-4.5,4.4-8.4,4.4c-7.2,0.1-11.9-3.8-11.6-12.1c0.4-6.8,5-11,11.5-10.7
				c6.1,0.3,9.1,5.5,8.7,10.9h-14.2C285.3,53,285.6,58.6,291.4,58.8z M294.4,47.1c0-3.5-1-7.2-3.6-7.4c-3.6-0.3-4.9,4.1-5.3,7.4
				H294.4z"/>
		</g>
		<g>
			<path d="M17.9,67v9.6h-1.2V67H17.9z"/>
			<path d="M25.8,76.6V67h1.4l3.1,4.9c0.7,1.1,1.3,2.1,1.7,3.1l0,0c-0.1-1.3-0.1-2.4-0.1-3.9v-4H33v9.6h-1.3l-3-4.9
				c-0.7-1.1-1.3-2.2-1.8-3.2l0,0c0.1,1.2,0.1,2.4,0.1,4v4.1H25.8z"/>
			<path d="M40.8,67H46v1h-3.9v3.2h3.6v1h-3.6v4.3h-1.2V67z"/>
			<path d="M61.6,71.7c0,3.3-2,5.1-4.5,5.1c-2.5,0-4.3-2-4.3-4.9c0-3,1.9-5,4.5-5C59.9,66.8,61.6,68.8,61.6,71.7z M54.2,71.8
				c0,2,1.1,3.9,3.1,3.9c2,0,3.1-1.8,3.1-4c0-1.9-1-3.9-3.1-3.9C55.2,67.8,54.2,69.7,54.2,71.8z"/>
			<path d="M68.9,67.1c0.6-0.1,1.5-0.2,2.4-0.2c1.3,0,2.2,0.2,2.8,0.8c0.5,0.4,0.8,1.1,0.8,1.8c0,1.3-0.8,2.1-1.8,2.4v0
				c0.7,0.3,1.2,0.9,1.4,1.9c0.3,1.3,0.5,2.3,0.7,2.6h-1.3c-0.2-0.3-0.4-1.1-0.6-2.3c-0.3-1.3-0.8-1.8-1.9-1.9h-1.2v4.2h-1.2V67.1z
				 M70.2,71.5h1.3c1.3,0,2.2-0.7,2.2-1.8c0-1.2-0.9-1.8-2.2-1.8c-0.6,0-1,0.1-1.2,0.1V71.5z"/>
			<path d="M90.4,72.3c-0.1-1.3-0.2-2.9-0.1-4.1h0c-0.3,1.1-0.7,2.3-1.2,3.6l-1.7,4.7h-0.9l-1.6-4.6c-0.5-1.4-0.8-2.6-1.1-3.7h0
				c0,1.2-0.1,2.8-0.2,4.2l-0.3,4.1H82l0.7-9.6h1.6l1.6,4.6c0.4,1.2,0.7,2.2,1,3.2h0c0.2-1,0.6-2,1-3.2l1.7-4.6h1.6l0.6,9.6h-1.2
				L90.4,72.3z"/>
			<path d="M100.8,73.5l-1,3h-1.3l3.3-9.6h1.5l3.3,9.6h-1.3l-1-3H100.8z M104,72.6l-0.9-2.8c-0.2-0.6-0.4-1.2-0.5-1.8h0
				c-0.1,0.6-0.3,1.2-0.5,1.7l-0.9,2.8H104z"/>
			<path d="M114.4,68h-2.9V67h7.1V68h-2.9v8.5h-1.3V68z"/>
			<path d="M126.6,67v9.6h-1.2V67H126.6z"/>
			<path d="M142.7,71.7c0,3.3-2,5.1-4.5,5.1c-2.5,0-4.3-2-4.3-4.9c0-3,1.9-5,4.5-5C141,66.8,142.7,68.8,142.7,71.7z M135.2,71.8
				c0,2,1.1,3.9,3.1,3.9c2,0,3.1-1.8,3.1-4c0-1.9-1-3.9-3.1-3.9C136.2,67.8,135.2,69.7,135.2,71.8z"/>
			<path d="M150,76.6V67h1.4l3.1,4.9c0.7,1.1,1.3,2.1,1.7,3.1l0,0c-0.1-1.3-0.1-2.4-0.1-3.9v-4h1.2v9.6h-1.3l-3-4.9
				c-0.7-1.1-1.3-2.2-1.8-3.2l0,0c0.1,1.2,0.1,2.4,0.1,4v4.1H150z"/>
			<path d="M188.1,72.1h-3.7v3.5h4.2v1h-5.4V67h5.2v1h-3.9v3h3.7V72.1z"/>
			<path d="M201.1,76.6l-1.2-2.1c-0.5-0.8-0.8-1.3-1.1-1.9h0c-0.3,0.6-0.5,1.1-1,1.9l-1.2,2.1h-1.4l2.9-4.9l-2.8-4.7h1.4l1.3,2.2
				c0.4,0.6,0.6,1.1,0.9,1.6h0c0.3-0.6,0.5-1,0.9-1.6L201,67h1.4l-2.9,4.7l3,4.9H201.1z"/>
			<path d="M215.9,76.2c-0.5,0.2-1.4,0.5-2.5,0.5c-2.7,0-4.7-1.7-4.7-4.9c0-3,2-5,5-5c1.2,0,1.9,0.3,2.3,0.4l-0.3,1
				c-0.5-0.2-1.1-0.4-1.9-0.4c-2.2,0-3.7,1.4-3.7,4c0,2.3,1.4,3.9,3.7,3.9c0.8,0,1.5-0.2,2-0.4L215.9,76.2z"/>
			<path d="M224.4,67v4h4.6v-4h1.3v9.6h-1.3v-4.5h-4.6v4.5h-1.2V67H224.4z"/>
			<path d="M240.1,73.5l-1,3h-1.3l3.3-9.6h1.5l3.3,9.6h-1.3l-1-3H240.1z M243.3,72.6l-0.9-2.8c-0.2-0.6-0.4-1.2-0.5-1.8h0
				c-0.1,0.6-0.3,1.2-0.5,1.7l-0.9,2.8H243.3z"/>
			<path d="M253,76.6V67h1.4l3.1,4.9c0.7,1.1,1.3,2.1,1.7,3.1l0,0c-0.1-1.3-0.1-2.4-0.1-3.9v-4h1.2v9.6H259l-3-4.9
				c-0.7-1.1-1.3-2.2-1.8-3.2l0,0c0.1,1.2,0.1,2.4,0.1,4v4.1H253z"/>
			<path d="M275.4,76.1c-0.6,0.2-1.7,0.5-2.9,0.5c-1.5,0-2.6-0.4-3.6-1.3c-0.8-0.8-1.3-2.1-1.3-3.6c0-2.9,2-5,5.2-5
				c1.1,0,2,0.2,2.4,0.4l-0.3,1c-0.5-0.2-1.2-0.4-2.1-0.4c-2.3,0-3.9,1.5-3.9,3.9c0,2.4,1.5,3.9,3.7,3.9c0.8,0,1.4-0.1,1.7-0.3v-2.9
				h-2v-1h3.2V76.1z"/>
			<path d="M287.9,72.1h-3.7v3.5h4.2v1H283V67h5.2v1h-3.9v3h3.7V72.1z"/>
		</g>
	</g>
</g>
<g id="Layer_1">
</g>
</svg>
