<?xml version="1.0" encoding="utf-8"?>
<!-- Generator: Adobe Illustrator 18.0.0, SVG Export Plug-In . SVG Version: 6.00 Build 0)  -->
<!DOCTYPE svg PUBLIC "-//W3C//DTD SVG 1.1//EN" "http://www.w3.org/Graphics/SVG/1.1/DTD/svg11.dtd">
<svg version="1.1" xmlns="http://www.w3.org/2000/svg" xmlns:xlink="http://www.w3.org/1999/xlink" x="0px" y="0px"
	 viewBox="0 0 300 100" style="enable-background:new 0 0 300 100;" xml:space="preserve">
<style type="text/css">
	.st0{fill-rule:evenodd;clip-rule:evenodd;}
	.st1{fill-rule:evenodd;clip-rule:evenodd;fill:#C038F9;}
	.st2{fill:none;}
	.st3{fill-rule:evenodd;clip-rule:evenodd;fill:#231F20;}
</style>
<g id="Layer_2">
</g>
<g id="Layer_1">
	<g>
		<path d="M103.5,24.2c-0.5,1.5-2,2.8-3.5,3.1c-2.5,0.3-5.2-0.3-6.5-2.6l-0.3,0.3L79.3,38.4c-0.1-3.4,2.2-5.9,4.3-8.4
			c0.5-0.7,1.3-0.9,1.7-1.5c-2.9,0.5-5.2,2.8-7.3,5c-2.8,3.8-3.8,8.7-3.2,13.5c-0.1,4.6,3.2,8.6,7.1,10.8c4.3,2,10.5,2,14.3-1
			c3.2-2.6,5.4-5.9,5.3-9.9c-0.7,1.7-2.2,3.3-3.7,4.5l0.3-19c1.5-0.4,2.8-1.4,4-2.5C103.5,28.5,104.4,26.3,103.5,24.2L103.5,24.2z
			 M212.6,25.8c1.1-0.2,2.1-0.7,3-1.2c0,2.1-1,4.5-3.1,5.5c-2.2,1.3-5.5,0.7-8,0.3c-0.6,0-1.2,0.3-1.3,0.9c0,0.6,0,1.2,0.3,1.7
			c-0.9-0.3-1.9-0.8-2.3-1.8c-0.6-1.5-0.6-3.7,0.4-5.1c1.5-1.5,3.7-2.3,5.7-1.6C209,24.9,210.5,26.5,212.6,25.8L212.6,25.8z
			 M229.5,24.6c-0.1,0.4-0.4,0.7-0.7,0.9c-2.9,1-5.8-0.7-8.8-0.2c-2.5,0.7-4,3.4-4.5,5.7l-0.5,20.7c-4.2-0.6-8.6-0.2-11.4,3.2
			c-1.4,1.6-0.9,4.4-0.2,6.2c1.1,1.7,2.9,2.5,5,2.1c1.3-0.5,2.7-1.6,3.2-2.9c-0.6,0.8-1.5,1.2-2.3,1.5c-1.4,0.5-3,0.1-4-1
			c-0.8-0.9-0.7-2.4-0.3-3.5c0.4-0.9,1.3-1.4,2.2-1.5c4.8-0.2,8.8,2.1,12.9,3.6l5.4-5.8l-1-0.9L223,54l-6.3-2.1l0.4-19.3l0.5-0.9
			c0.5-0.7,1.3-0.7,2.1-0.6c3.1,0.7,6.6,0.8,8.8-1.9C229.5,28,229.8,26.2,229.5,24.6L229.5,24.6z M248.7,25.2
			c-2.3,0-4.2,2.2-4.9,4.1l-1.3-1c-0.1,2.5,0,4.9-0.2,7.3l-4.5-4.6c-1.2,1.7-2.4,3.6-4.3,5l-0.2,12.5c1.2,1.3,2.7,2.6,3.6,4l5.3-5.1
			l0,1.2l3.5,3.6l4.5-4.3l-0.9-1.1c-0.3,0.7-1.1,0.8-1.6,1c-0.4-0.2-0.6-0.7-0.8-1l0.2-17.2c-0.1-0.9,0.3-1.7,1-2.3
			c0.9-0.8,2.1-1.6,3.3-1.2C250.7,25.2,249.7,25.1,248.7,25.2L248.7,25.2z M149.3,28l-3.2-3.6l-3.5,3.3l3.2,3.5L149.3,28L149.3,28z
			 M34.3,27.5c-4.3,0.4-7.4-1.9-11-2.8c-4-0.8-7.5,0.5-10.4,2.9c-2.4,1.7-3.4,4.3-3.4,6.9c1.8-2.1,4.1-3.2,6.7-3.2
			c-3.8,4-6.1,8.7-6.1,14.3c0.1,5.3,3.2,10.3,7.9,12.9c4.7,1.9,10.9,1.6,14.7-1.8c3.3-2.5,5.3-6,5-10.1c-0.5,2.5-2,5-4.5,6.1
			l0.3-19.2c1.5-0.5,2.9-1.3,4.2-2.5c1.7-1.5,2.2-3.7,1.8-6c-0.8,0.9-1.7,1.6-2.8,1.9L34.3,27.5L34.3,27.5z M107.6,29.5
			c-0.7,0-1.3-0.4-2-0.8l-0.3,20.2l3.6,3.6l4.9-4.4c0.4,1.9,2.2,3.5,3.8,4.6l4.4-4.3l3.7,4.1l4.7-4.7l-0.8-0.8
			c-0.9,1.7-1.8,0.2-2.7-0.4l0.2-11.2l-3.7-3.9c-0.5,2.2-2.8,3.8-4.9,4.2l0.5,1c0.7-0.1,1.4-0.3,2.1-0.7c2.2,1.1,0.8,3.8,1.1,5.6
			c-1.6-1-4.1-1.2-5.7-0.2c-1.8,1-2.6,2.9-2.7,4.8l-1.9,1.9l-1.5-1.6c0.1-5.7,0-11.5,0.4-17.1c0.5-1.4,1.7-3.1,3.3-3.4
			C111.1,25.5,108.8,27.3,107.6,29.5L107.6,29.5z M43.1,30.4l-1.8-1.2L41,49l2.4,2.9c0.8-1.1,1.7-2.1,2.7-3.1l0.1-9.6l1.9-2l1.5,1.5
			l-0.2,12.6c-0.3,1.4-1.2,2.6-2.4,3.7c1,0.3,2,0,2.9-0.2c1.8-0.6,3.3-2.4,3.7-4.2l0.4-13.5l-3.9-4.1l-4,4l0.1-7.2
			c0.3-1.1,1.6-1.9,2.4-2.4C46.5,26.9,44.4,28.4,43.1,30.4L43.1,30.4z M293.1,34.7l-3.2-3.3c-1.1,1.1-2.2,2.5-3.3,3.3l-3.3-2.9
			l-3.2,3.5l2,1.6L281.7,48l3.9,4.1l4.5-4.3l-0.9-1l-1.4,1.2c-0.4-0.5-0.8-0.7-1.2-1.2l0.2-11c0.9,0.7,1.6,1.7,2.5,2.4L293.1,34.7
			L293.1,34.7z M207.2,37.2c-1.5,0.3-2.9,1-4,2.2c-0.9,1.6-1.4,3.6-1.1,5.4c1.2-1.1,2.5-1.9,4.1-1.9c0.4,0.1,0.8,0.4,0.9,0.8
			c0.3,3-0.6,5.8-1.7,8.2l1.6-0.3c7.4-3.1,5.2-12.1,5.8-19c0-0.8,0.4-1.6,1.2-2.1C210.5,30.4,207.7,34.1,207.2,37.2L207.2,37.2z
			 M264.5,35.4l-7.1-3.9c-1.4,2.3-3.8,4.1-6.3,4.6L251,48.6l5.3,3.5c1-1.2,2.1-2.4,3.3-3.4c0.9-0.1,1.8,0.4,2.4,1.2
			c0.3,1.2,0.3,2.8-0.6,3.7c-0.7,0.5-1.6,0.6-2.5,0.4c-1.9-1-4.2-2.5-6.5-1.2c-1.4,0.7-2.6,2.1-2.9,3.6c1-0.7,2.4-0.8,3.6-0.5
			c1.9,1,4.5,1.5,6.4,0.1c2.6-1.8,7-3.9,6.4-7.8c-0.3-0.8-1-1.4-1.7-1.8L264.5,35.4L264.5,35.4z M279.1,36.9l-4.9-4.8l-6.1,5.8
			l-0.2,9.4c1.6,1.4,3.3,2.9,4.8,4.6l4.5-4.4l-1-1.1c-0.4,0.3-0.7,0.7-1.1,1l-2.5-2l0-2.6L279.1,36.9L279.1,36.9z M184.1,35.4
			L180,31l-5.4,5.1l0-1.3l-3.4-3.5c-1.1,1.2-2.1,2.5-3.3,3.7l2,1.9l-0.1,10.3l-1.1,1.4l3.5,3.7c0.8-1.7,4.7-3,2.4-5l0.1-8.5l3.1-3
			c0.5,0.1,0.9,0.8,1.4,1.2l-0.2,11.7l3.6,3.9c1.5-1.6,3-3.3,4.7-4.7c-0.3-0.3-0.6-0.7-1-0.8l-0.9,0.9l-1.3-1.4L184.1,35.4
			L184.1,35.4z M232.4,37.1l-4.9-5c-1.8,1.9-3.7,4-5.8,5.7l-0.1,9.4l4.5,4.7l4.7-4.3l-1.1-1.1l-1.2,1.1l-2.4-2.2l0-2.5L232.4,37.1
			L232.4,37.1z M167,35.7l-6.4-4.3c-1.9,2.7-4.8,4.1-7.7,4.9l-0.2,12.4c2,1.1,4.1,2.3,5.9,3.8c2.2-2.6,5.2-3.9,8.2-4.7L167,35.7
			L167,35.7z M148.9,35.4l-3.5-3.6l-3.3,3.3l-3.2-3.1l-3,3.1l-3-3l-3.3,3.5l1.7,1.8l-0.2,11.2l3.8,4l4.3-4.3l-0.8-1l-1.2,1l-1.2-1.1
			l0.2-10.7l2.6,2.2l3.3-3.1l1.9,1.9l-0.2,11l3.7,3.9c1.4-1.5,3-2.9,4.4-4.4l-0.8-0.9c-0.3,0.4-0.7,0.6-1.1,1l-1.5-1.3L148.9,35.4
			L148.9,35.4z M62.4,31.4L56.7,37l-0.3,9.4l4.6,4.8c1.5-1.5,2.9-3.1,4.6-4.3l-1-1.1l-0.7,0.7c-1.3,0.5-2-1.1-3-1.7l0-2.5l6.4-6
			C65.6,34.6,63.9,33,62.4,31.4L62.4,31.4z M199.4,38.3l-7.8-0.1l-4,4.2l7.7,0.1L199.4,38.3L199.4,38.3z M85.8,51.4
			c-3.9-2.4-6.3-6.5-6-11.1l6.3-5.8L85.8,51.4L85.8,51.4z M63,38.2l0.1,0.2l-1.7,1.7l0-3C62.1,37,62.6,37.6,63,38.2L63,38.2z
			 M24.5,31.9c-2.8,2.6-5.5,5.2-8.3,7.8c-0.2-3.2,1.2-6,3.1-8.5C21.1,30.6,22.9,31.2,24.5,31.9L24.5,31.9z M96.1,32.7l-0.4,19.5
			l0,0.2c-2.2,0.8-5.2,0.7-7.2-0.6l3.2-3.2l0.2-16.6C93.1,32.5,94.6,32.7,96.1,32.7L96.1,32.7z M31.6,33.3l-0.4,19.5l0,0.2
			c-2.2,0.8-5.2,0.7-7.2-0.6l3.2-3.2l0.2-16.6C28.6,33.1,30.1,33.3,31.6,33.3L31.6,33.3z M21.3,51c-3.5-1.9-4.4-5.7-5-9.2l5.2-4.8
			L21.3,51L21.3,51z M122.1,43.3l0,3.1l-2,1.5c-0.8-1.3-3.6-2-2.2-4.1c0.2-0.6,0.7-1.2,1.3-1.5C120.3,42.1,121.4,42.5,122.1,43.3
			L122.1,43.3z M161.9,47.9l-4-2.3l0.2-10.3l3.9,2.4L161.9,47.9L161.9,47.9z M227.8,38.7l0.2,0.4l-1.6,1.7l0-3.1
			C227.2,37.6,227.5,38.2,227.8,38.7L227.8,38.7z M242.3,44.9c-0.9,0.9-1.8,1.9-2.8,2.8l-1.5-1.3l0.1-9.1l2-2l2.2,2.2L242.3,44.9
			L242.3,44.9z M259.7,46.7c-1.2,2.5-2.7-0.6-4.1-0.9l0.1-10l4.1,2.3L259.7,46.7L259.7,46.7z M273.1,40.8l0-3.6l1.7,1.8L273.1,40.8
			L273.1,40.8z"/>
		<polygon points="10.3,65.9 293,65.9 293,66.5 10.3,66.5 10.3,65.9 		"/>
		<path d="M14.6,74.8v-0.7c0-0.3-0.2-0.5-0.5-0.5c-0.6,0-0.6,0.6-0.5,1.4v1.5c0,1.2,0.1,1.5,0.5,1.5c0.4,0,0.5-0.4,0.5-0.9v-0.6h1.5
			v0.6c0,1.3-0.5,2-2,2c-1.3,0-2-0.7-2-2.4v-2.1c0-1.8,0.9-2.2,2-2.2c1.5,0,2,0.9,2,1.9v0.5H14.6L14.6,74.8z"/>
		<polygon points="20.1,79 20.1,70.6 21.5,70.6 21.5,79 20.1,79 		"/>
		<path d="M28.6,79c-0.1-0.2-0.1-0.4-0.1-0.7h0c-0.3,0.5-0.8,0.8-1.3,0.8c-1.2,0-1.7-0.6-1.7-1.9c0-1.4,1-1.8,2.2-2.3
			c0.6-0.3,0.8-0.5,0.7-1.1c-0.1-0.3-0.3-0.3-0.7-0.3c-0.7,0-0.8,0.3-0.8,0.9h-1.4c0-1.2,0.4-2,2.2-2c2,0,2.1,1,2.1,1.9v3.7
			c0,0.3,0,0.6,0.1,0.9H28.6L28.6,79z M28.4,75.6c-0.4,0.2-0.8,0.5-1.2,0.8C27,76.6,27,76.9,27,77.2c0,0.5,0.1,0.8,0.7,0.8
			c0.9,0,0.7-1.1,0.7-1.7V75.6L28.4,75.6z"/>
		<path d="M35.4,73.8L35.4,73.8c0.2-0.5,0.4-0.7,0.6-0.9c0.4-0.3,0.7-0.3,0.9-0.3v1.7c-0.8-0.1-1.4,0.1-1.4,1.1V79H34v-6.3h1.4V73.8
			L35.4,73.8z"/>
		<path d="M40.6,71.9v-1.3h1.5v1.3H40.6L40.6,71.9z M40.6,79v-6.3h1.5V79H40.6L40.6,79z"/>
		<path d="M46.2,76c0-2.2,0-3.6,2.2-3.6c2.2,0,2.2,1.4,2.2,3.6c0,2.2-0.3,3.1-2.2,3.1C46.5,79.2,46.2,78.2,46.2,76L46.2,76z
			 M47.6,76.9c0,0.8,0.1,1.1,0.8,1.1c0.7,0,0.7-0.3,0.7-1.1v-2.1c0-0.6,0-1.2-0.7-1.2c-0.8,0-0.8,0.6-0.8,1.2V76.9L47.6,76.9z"/>
		<path d="M56,73.3L56,73.3c0.3-0.7,1-0.8,1.3-0.8c0.8,0,1.5,0.5,1.5,1.6V79h-1.5v-4.2c0-0.6-0.1-1-0.6-1c-0.5,0-0.7,0.5-0.7,1.2V79
			h-1.5v-6.3H56V73.3L56,73.3z"/>
		<polygon points="63,79 63,70.6 64.5,70.6 64.5,79 63,79 		"/>
		<path d="M68.6,74.8c-0.1-1.5,0.7-2.3,2.1-2.3c2,0,2.2,1.1,2.2,2.8v0.9H70V77c0,0.8,0.3,1,0.8,1c0.5,0,0.7-0.4,0.7-1.2h1.5
			c0.1,1.4-0.5,2.3-2,2.3c-1.7,0-2.4-0.8-2.3-2.7V74.8L68.6,74.8z M71.5,75v-0.5c0-0.6-0.2-0.8-0.8-0.8c-0.7,0-0.7,0.6-0.7,1.1V75
			H71.5L71.5,75z"/>
		<path d="M79.7,78.3L79.7,78.3c-0.3,0.6-0.7,0.8-1.3,0.8c-1.2,0-1.5-1.1-1.5-2.1v-2.3c0-1.7,0.6-2.2,1.5-2.2c0.6,0,1,0.2,1.3,0.8h0
			c0-0.2,0-0.4,0-0.6v-2.2h1.5V79h-1.5V78.3L79.7,78.3z M79.7,75c0-0.5,0-1.4-0.7-1.4c-0.7,0-0.6,0.6-0.7,1.2v2.1
			c0,0.6,0.2,1.1,0.6,1.1c0.5,0,0.7-0.4,0.7-1.1V75L79.7,75z"/>
		<path d="M86.7,79.7c0,0.1,0.1,0.2,0.2,0.3C87,80,87.1,80,87.3,80c0.6,0,0.7-0.5,0.7-1v-0.7l0,0c-0.3,0.6-0.7,0.8-1.3,0.8
			c-1.2,0-1.5-1.1-1.5-2.1v-2.3c0-1.7,0.6-2.2,1.5-2.3c0.7,0,1.1,0.2,1.3,0.8h0v-0.7h1.5v6.1c0,1.3-0.4,2.3-2.4,2.3
			c-1,0-1.8-0.4-1.8-1.4H86.7L86.7,79.7z M87.3,73.6c-0.7,0-0.6,0.6-0.7,1.2v2.1c0,0.6,0.2,1.1,0.6,1.1c0.5,0,0.7-0.4,0.7-1.1V75
			C88,74.5,87.9,73.6,87.3,73.6L87.3,73.6z"/>
		<path d="M93.4,74.8c-0.1-1.5,0.7-2.3,2.1-2.3c2,0,2.2,1.1,2.2,2.8v0.9h-2.9V77c0,0.8,0.3,1,0.8,1c0.5,0,0.7-0.4,0.7-1.2h1.5
			c0.1,1.4-0.5,2.3-2,2.3c-1.7,0-2.4-0.8-2.3-2.7V74.8L93.4,74.8z M96.3,75v-0.5c0-0.6-0.2-0.8-0.8-0.8c-0.7,0-0.7,0.6-0.7,1.1V75
			H96.3L96.3,75z"/>
		<path d="M103.2,73.8L103.2,73.8c0.2-0.5,0.4-0.7,0.6-0.9c0.4-0.3,0.7-0.3,0.9-0.3v1.7c-0.8-0.1-1.4,0.1-1.4,1.1V79h-1.5v-6.3h1.4
			V73.8L103.2,73.8z"/>
		<polygon points="107.9,79 107.9,77.5 109.3,77.5 109.3,79 107.9,79 		"/>
		<path d="M116.2,74.8v-0.7c0-0.3-0.2-0.5-0.5-0.5c-0.6,0-0.6,0.6-0.5,1.4v1.5c0,1.2,0.1,1.5,0.5,1.5c0.4,0,0.5-0.4,0.5-0.9v-0.6
			h1.5v0.6c0,1.3-0.5,2-2,2c-1.3,0-2-0.7-2-2.4v-2.1c0-1.8,0.9-2.2,2-2.2c1.5,0,2,0.9,2,1.9v0.5H116.2L116.2,74.8z"/>
		<path d="M121.4,76c0-2.2,0-3.6,2.2-3.6c2.2,0,2.2,1.4,2.2,3.6c0,2.2-0.3,3.1-2.2,3.1C121.7,79.2,121.4,78.2,121.4,76L121.4,76z
			 M122.9,76.9c0,0.8,0.1,1.1,0.8,1.1c0.7,0,0.7-0.3,0.7-1.1v-2.1c0-0.6,0-1.2-0.7-1.2c-0.8,0-0.8,0.6-0.8,1.2V76.9L122.9,76.9z"/>
		<path d="M131.3,73.3L131.3,73.3c0.3-0.7,0.9-0.8,1.4-0.8c0.5,0,1.3,0.2,1.4,0.8c0.3-0.5,0.8-0.8,1.5-0.8c1.1,0,1.5,0.7,1.5,1.3V79
			h-1.5v-4.3c0-0.6-0.1-1.1-0.7-1.1c-0.6,0-0.7,0.5-0.7,1.2V79h-1.5v-4.3c0-0.6,0-1-0.7-1c-0.7,0-0.7,0.5-0.7,1.2V79h-1.5v-6.3h1.5
			V73.3L131.3,73.3z"/>
		<polygon points="146.4,79 146.4,71.2 154.1,71.2 154.1,79 146.4,79 		"/>
		<path d="M165,75.3V79h-1.6v-8.4h3c1.4,0,2.4,0.5,2.4,2c0,0.9-0.2,1.9-1.3,2v0c0.9,0.1,1.2,0.7,1.2,1.5c0,0.3,0,2.4,0.3,2.7V79
			h-1.7c-0.2-0.5-0.2-1.6-0.2-2.1c0-0.5,0-1.2-0.5-1.4c-0.4-0.1-0.9-0.1-1.3-0.1H165L165,75.3z M165,74.1h1.2c0.5,0,0.9-0.4,0.9-1.2
			c0-0.9-0.4-1.1-1-1.1H165V74.1L165,74.1z"/>
		<polygon points="173,79 173,70.6 177.4,70.6 177.4,71.8 174.5,71.8 174.5,73.9 177.2,73.9 177.2,75.1 174.5,75.1 174.5,77.7 
			177.4,77.7 177.4,79 173,79 		"/>
		<path d="M180.6,79l2-8.4h2.1l1.9,8.4H185l-0.4-2.1h-1.8l-0.4,2.1H180.6L180.6,79z M183,75.6h1.3l-0.4-2.4
			c-0.1-0.4-0.1-0.8-0.2-1.2c0-0.2,0-0.4-0.1-0.6h0c0,0.2,0,0.4-0.1,0.6c0,0.4-0.1,0.8-0.2,1.2L183,75.6L183,75.6z"/>
		<polygon points="190.2,79 190.2,70.6 191.8,70.6 191.8,77.7 194.7,77.7 194.7,79 190.2,79 		"/>
		<path d="M205.6,79H204v-8.4h2.5l0.8,3.9c0.1,0.6,0.2,1.3,0.3,1.9h0c0.1-0.8,0.1-1.4,0.2-1.9l0.8-3.9h2.5V79h-1.6v-2.6
			c0-1.7,0-3.3,0.1-5h0l-1.7,7.7h-1l-1.6-7.7h-0.1c0.1,1.7,0.1,3.3,0.1,5V79L205.6,79z"/>
		<polygon points="215.4,79 215.4,70.6 217,70.6 217,79 215.4,79 		"/>
		<path d="M224.4,73.1c0-0.8-0.1-1.5-0.9-1.5c-0.5,0-0.9,0.2-0.9,0.8c0,0.6,0.4,0.9,0.9,1.2c0.5,0.3,1.5,1,1.9,1.4
			c0.5,0.5,0.7,1,0.7,1.8c0,1.6-1.1,2.4-2.6,2.4c-1.9,0-2.6-1.1-2.6-2.6V76h1.6v0.5c0,0.8,0.2,1.4,1,1.4c0.7,0,1-0.3,1-1
			c0-0.5-0.2-0.8-0.6-1.1c-0.8-0.6-1.8-1.1-2.5-1.9c-0.3-0.4-0.4-0.8-0.4-1.3c0-1.4,0.8-2.2,2.5-2.2c2.5,0,2.4,1.9,2.4,2.8H224.4
			L224.4,73.1z"/>
		<path d="M233.3,73.1c0-0.8-0.1-1.5-0.9-1.5c-0.5,0-0.9,0.2-0.9,0.8c0,0.6,0.4,0.9,0.9,1.2c0.5,0.3,1.5,1,1.9,1.4
			c0.5,0.5,0.7,1,0.7,1.8c0,1.6-1.1,2.4-2.6,2.4c-1.9,0-2.6-1.1-2.6-2.6V76h1.6v0.5c0,0.8,0.2,1.4,1,1.4c0.7,0,1-0.3,1-1
			c0-0.5-0.2-0.8-0.6-1.1c-0.8-0.6-1.8-1.1-2.5-1.9c-0.3-0.4-0.4-0.8-0.4-1.3c0-1.4,0.8-2.2,2.5-2.2c2.5,0,2.4,1.9,2.4,2.8H233.3
			L233.3,73.1z"/>
		<polygon points="239.1,79 239.1,70.6 240.6,70.6 240.6,79 239.1,79 		"/>
		<path d="M248.1,73.1c0-0.8-0.1-1.5-0.9-1.5c-0.5,0-0.9,0.2-0.9,0.8c0,0.6,0.4,0.9,0.9,1.2c0.5,0.3,1.5,1,1.9,1.4
			c0.5,0.5,0.7,1,0.7,1.8c0,1.6-1.1,2.4-2.6,2.4c-1.9,0-2.6-1.1-2.6-2.6V76h1.6v0.5c0,0.8,0.2,1.4,1,1.4c0.7,0,1-0.3,1-1
			c0-0.5-0.2-0.8-0.6-1.1c-0.8-0.6-1.8-1.1-2.5-1.9c-0.3-0.4-0.4-0.8-0.4-1.3c0-1.4,0.8-2.2,2.5-2.2c2.5,0,2.4,1.9,2.4,2.8H248.1
			L248.1,73.1z"/>
		<path d="M257,73.1c0-0.8-0.1-1.5-0.9-1.5c-0.5,0-0.9,0.2-0.9,0.8c0,0.6,0.4,0.9,0.9,1.2c0.5,0.3,1.5,1,1.9,1.4
			c0.5,0.5,0.7,1,0.7,1.8c0,1.6-1.1,2.4-2.6,2.4c-1.9,0-2.6-1.1-2.6-2.6V76h1.6v0.5c0,0.8,0.2,1.4,1,1.4c0.7,0,1-0.3,1-1
			c0-0.5-0.2-0.8-0.6-1.1c-0.8-0.6-1.8-1.1-2.5-1.9c-0.3-0.4-0.4-0.8-0.4-1.3c0-1.4,0.8-2.2,2.5-2.2c2.5,0,2.4,1.9,2.4,2.8H257
			L257,73.1z"/>
		<polygon points="262.7,79 262.7,70.6 264.3,70.6 264.3,79 262.7,79 		"/>
		<path d="M268.5,79v-8.4h3.2c1.5,0,2,1.2,2,2.4c0,0.7-0.2,1.5-0.8,2c-0.5,0.4-1.2,0.5-1.8,0.5h-1.1V79H268.5L268.5,79z M270.1,74.2
			h0.8c0.7,0,1.1-0.3,1.1-1.3c0-1-0.4-1.1-1.3-1.1h-0.7V74.2L270.1,74.2z"/>
		<path d="M277.4,79v-8.4h3.2c1.5,0,2,1.2,2,2.4c0,0.7-0.2,1.5-0.8,2c-0.5,0.4-1.2,0.5-1.8,0.5H279V79H277.4L277.4,79z M279,74.2
			h0.8c0.7,0,1.1-0.3,1.1-1.3c0-1-0.4-1.1-1.3-1.1H279V74.2L279,74.2z"/>
		<polygon points="286.3,79 286.3,70.6 287.9,70.6 287.9,79 286.3,79 		"/>
	</g>
</g>
</svg>
