<?xml version="1.0" encoding="utf-8"?>
<!-- Generator: Adobe Illustrator 18.0.0, SVG Export Plug-In . SVG Version: 6.00 Build 0)  -->
<!DOCTYPE svg PUBLIC "-//W3C//DTD SVG 1.1//EN" "http://www.w3.org/Graphics/SVG/1.1/DTD/svg11.dtd">
<svg version="1.1" xmlns="http://www.w3.org/2000/svg" xmlns:xlink="http://www.w3.org/1999/xlink" x="0px" y="0px"
	 viewBox="0 0 300 100" style="enable-background:new 0 0 300 100;" xml:space="preserve">
<style type="text/css">
	.st0{fill-rule:evenodd;clip-rule:evenodd;}
	.st1{fill-rule:evenodd;clip-rule:evenodd;fill:#C038F9;}
	.st2{fill:none;}
	.st3{fill-rule:evenodd;clip-rule:evenodd;fill:#231F20;}
</style>
<g id="Layer_2">
	<g>
		<path d="M5,39.1h22.1l0.5,9.4h-1.5c-1.4-7.5-3.2-7.8-10.4-7.8c-2.2,0-2.7,0.1-2.7,1.4v8.7h1.3c3.2,0,4.6-1.4,4.9-5h1.6v12h-1.6
			c0-3.3-1.3-5.3-4.2-5.3h-2v9.9c0,1.3,0.5,1.4,2.7,1.4c8.5,0,9-0.8,11-8.1h1.5l-0.7,9.8H5v-1.6h2c1.4,0,2-0.4,2-1.9V42.6
			c0-1.5-0.6-1.9-2-1.9H5V39.1z"/>
		<path d="M30.9,44.2h9.8c4.2,0,6.7,1,8.3,2.8c1.7,2.1,2.7,4.7,2.7,8.1c0,2.9-1,5.9-2.8,7.7c-2.1,2-4.2,2.7-8.3,2.7h-9.6v-1.3h1.6
			c1.1,0,1.7-0.3,1.7-1.5V47c0-1.2-0.5-1.5-1.7-1.5h-1.6V44.2z M37.4,63c0,1,0.4,1.1,2.2,1.1c4,0,5.4-0.5,6.6-2
			c1.4-1.8,1.7-4.1,1.7-7.3c0-7.2-2.2-9.3-7.9-9.3c-2.3,0-2.6,0.3-2.6,1.3V63z"/>
		<path d="M68,44.2h8.2v1.3c-3,0.1-3.3,1.4-3.3,4.2v7.9c0,5.5-2.7,8.3-8.1,8.3c-4.4,0-8.3-1.9-8.3-6.2V47c0-1.2-0.5-1.5-1.6-1.5
			h-1.7v-1.3h9.8v1.3h-1.6c-1.1,0-1.6,0.3-1.6,1.5v11.1c0,2.4,0.2,3.7,1.5,4.9c1.2,1.1,2.5,1.5,4.4,1.5c3.2,0,5.8-2.3,5.8-5.8v-9
			c0-2.7-0.3-4.1-3.4-4.2V44.2z"/>
		<path d="M91.5,44h1l0.4,8.5h-1.2c-1-3.9-2.9-7.4-6.7-7.4c-4.4,0-6.3,4.3-6.3,9.8c0,2.2,0.1,4.5,1.1,6.5c1,2,3,3.2,5.2,3.2
			c4.3,0,6.3-2.9,6.9-6.6l1.4,0.2c-0.7,4.8-3.5,7.7-8.6,7.7c-2.7,0-5.3-1.2-7.2-3.2c-1.8-2-2.6-4.7-2.6-7.3
			c0-7.3,5.2-11.6,10.1-11.6c1.7,0,3.7,0.6,5.1,2L91.5,44z"/>
		<path d="M92.8,64.2c1.6,0,2.5-0.9,3.1-2.3l7.1-18.1h1.2l7.8,19.1c0.4,1.1,1,1.3,2.6,1.3v1.3h-9v-1.3h0.7c1.8,0,2.3-0.3,2.3-0.8
			c0-0.3-0.1-0.7-0.4-1.4l-1.4-3.5h-8L98,60.8c-0.3,0.8-0.4,1.4-0.4,1.7c0,1.4,1.2,1.6,3,1.7v1.3h-7.8V64.2z M106.2,57l-3.5-8.6
			L99.3,57H106.2z"/>
		<path d="M116.9,64.2h1.9c1.1,0,1.6-0.3,1.6-1.5V47.3c0-1.3-0.3-1.8-1.4-1.8c-3,0-4.4,2.4-5.1,6.9h-1.2l0.5-8.2h17.6l0.5,8.2h-1.2
			c-0.7-4.5-2-6.9-5.1-6.9c-1.1,0-1.4,0.4-1.4,1.8v15.3c0,1.2,0.5,1.5,1.6,1.5h1.9v1.3h-10.3V64.2z"/>
		<path d="M133.3,64.2h1.6c1.1,0,1.6-0.3,1.6-1.5V47c0-1.2-0.5-1.5-1.6-1.5h-1.6v-1.3h9.8v1.3h-1.6c-1.1,0-1.6,0.3-1.6,1.5v15.6
			c0,1.2,0.5,1.5,1.6,1.5h1.6v1.3h-9.8V64.2z"/>
		<path d="M154.8,65.9c-6.1,0-10.2-5.4-10.2-11.1c0-4.4,3.3-11.1,10.1-11.1c6.1,0,10.2,5.4,10.2,11.1
			C164.9,59.2,161.6,65.9,154.8,65.9z M154.8,45.1c-5.3,0-6.3,5.5-6.3,9.8c0,3,0.3,9.8,6.4,9.8c5.3,0,6.3-5.5,6.3-9.8
			C161.1,51.9,160.8,45.1,154.8,45.1z"/>
		<path d="M179.8,44.2h8.3v1.3c-1.4,0.1-2.5,0.4-2.9,1.2c-0.4,0.8-0.6,1.8-0.6,3.4v15.9h-1.2l-13.1-18.1h-0.1v12.8
			c0,2.4,0.3,3.4,3.4,3.5v1.3h-8.3v-1.3c2.6-0.1,3.4-1.1,3.4-3.5V46.5c-0.6-0.9-1.4-1-3-1h-0.4v-1.3h6.1l11.6,15.9h0.1V49.7
			c0-2.7-0.3-4.1-3.4-4.2V44.2z"/>
		<path d="M219.7,39.1h8.9v1.6c-2.4,0.1-3.1,1.3-4,4.4l-6.2,20.8h-1.6l-5.9-18.3h-0.1l-5.3,18.3h-1.6L196,42.3
			c-0.5-1.4-0.7-1.6-2.5-1.6H193v-1.6h10.3v1.6h-2c-0.9,0-1.2,0.3-1.2,0.8c0,0.4,0.3,1.3,0.6,2.3l4.9,15.3h0.1l4.4-14.6l-1-2.8
			c-0.3-0.8-0.8-1-2.1-1h-1.1v-1.6h10.6v1.6h-1.1c-1.8,0-2,0.5-2,1.2c0,0.9,0.4,2,0.8,3.4l4.4,13.8h0.1l4.2-14.6
			c0.2-0.7,0.4-1.4,0.4-2c0-1.5-1.7-1.8-3.5-1.8V39.1z"/>
		<path d="M229.2,44.2H247l0.4,7.6h-1.2c-1.1-6-2.6-6.3-8.4-6.3c-1.8,0-2.2,0.1-2.2,1.1v7h1.1c2.6,0,3.7-1.1,3.9-4h1.3v9.7h-1.3
			c0-2.6-1.1-4.3-3.4-4.3h-1.6v8c0,1,0.4,1.1,2.2,1.1c6.9,0,7.3-0.6,8.8-6.5h1.2l-0.6,7.9h-18.1v-1.3h1.6c1.1,0,1.7-0.3,1.7-1.5V47
			c0-1.2-0.5-1.5-1.7-1.5h-1.6V44.2z"/>
		<path d="M250.2,44.2H268l0.4,7.6h-1.2c-1.1-6-2.6-6.3-8.4-6.3c-1.8,0-2.2,0.1-2.2,1.1v7h1.1c2.6,0,3.7-1.1,3.9-4h1.3v9.7h-1.3
			c0-2.6-1.1-4.3-3.4-4.3h-1.6v8c0,1,0.4,1.1,2.2,1.1c6.9,0,7.3-0.6,8.8-6.5h1.2l-0.6,7.9h-18.1v-1.3h1.6c1.1,0,1.7-0.3,1.7-1.5V47
			c0-1.2-0.5-1.5-1.7-1.5h-1.6V44.2z"/>
		<path d="M283.1,44.2h9.1v1.3c-2.2,0.1-3.7,1.1-5.3,2.6l-4.2,4.2l7.1,10.3c0.7,1,1.2,1.4,1.7,1.4c0.4,0.1,1.2,0.1,1.8,0.1v1.3h-10
			v-1.3h1.6c0.9,0,1.4-0.1,1.4-0.6c0-0.4-0.4-1-0.7-1.5l-5.2-7.5l-3.4,3.6v4.5c0,1.2,0.5,1.5,1.6,1.5h1.6v1.3h-9.8v-1.3h1.6
			c1.1,0,1.7-0.3,1.7-1.5V47c0-1.2-0.5-1.5-1.7-1.5h-1.6v-1.3h9.8v1.3h-1.6c-1.1,0-1.6,0.3-1.6,1.5v9l7.8-7.8c0.5-0.5,1-1.2,1-1.7
			c0-0.6-0.5-0.9-2.1-0.9h-0.6V44.2z"/>
	</g>
</g>
<g id="Layer_1">
</g>
</svg>
