<?xml version="1.0" encoding="utf-8"?>
<!-- Generator: Adobe Illustrator 18.0.0, SVG Export Plug-In . SVG Version: 6.00 Build 0)  -->
<!DOCTYPE svg PUBLIC "-//W3C//DTD SVG 1.1//EN" "http://www.w3.org/Graphics/SVG/1.1/DTD/svg11.dtd">
<svg version="1.1" xmlns="http://www.w3.org/2000/svg" xmlns:xlink="http://www.w3.org/1999/xlink" x="0px" y="0px"
	 viewBox="0 0 300 100" style="enable-background:new 0 0 300 100;" xml:space="preserve">
<style type="text/css">
	.st0{fill-rule:evenodd;clip-rule:evenodd;}
	.st1{fill-rule:evenodd;clip-rule:evenodd;fill:#C038F9;}
	.st2{fill:none;}
	.st3{fill-rule:evenodd;clip-rule:evenodd;fill:#231F20;}
</style>
<g id="Layer_2">
	<g>
		<g>
			<path d="M16.8,65.2h-4.9V21h4.9V65.2z"/>
			<path d="M22.5,19.1L57,55.2V21h4.9v46.2l-34.5-36v34h-4.9V19.1z"/>
			<path d="M68.7,21H77c6.6,0,12,0.9,17.2,5.3c5,4.3,7.3,10.3,7.3,16.8c0,6.4-2.3,12.1-7.2,16.5c-5.3,4.7-10.5,5.6-17.5,5.6h-8.2V21
				z M77.2,60.6c5.4,0,9.9-0.8,13.9-4.6c3.6-3.4,5.5-8,5.5-12.9c0-5-1.9-9.9-5.7-13.2c-4-3.6-8.5-4.3-13.7-4.3h-3.6v35H77.2z"/>
			<path d="M98,21h5.7l11.2,19.7L126.2,21h5.7l-14.5,25.2v19h-4.9v-19L98,21z"/>
			<path d="M155.6,32.4c-2.1-1.8-4.8-2.9-7.6-2.9c-2.1,0-4.9,1.2-4.9,3.7c0,2.6,3.1,3.6,5.1,4.2l2.9,0.9c6.2,1.8,10.9,4.9,10.9,12.1
				c0,4.4-1.1,8.9-4.6,11.9c-3.5,2.9-8.1,4.2-12.5,4.2c-5.6,0-11-1.9-15.5-5l4.9-9.3c2.9,2.5,6.3,4.6,10.2,4.6
				c2.7,0,5.6-1.3,5.6-4.5c0-3.2-4.5-4.3-7-5c-7.2-2.1-12-3.9-12-12.5c0-9,6.4-14.8,15.2-14.8c4.5,0,9.9,1.4,13.8,3.6L155.6,32.4z"
				/>
			<path d="M186.2,65.2h-11.5V30.7h-9.5V21h30.5v9.7h-9.5V65.2z"/>
			<path d="M208.7,57.5l-3,7.7h-12.2l17-44.2H223l16.6,44.2h-12.2l-2.9-7.7H208.7z M216.8,34.7h-0.1l-4.7,14.1h9.5L216.8,34.7z"/>
			<path d="M278.2,65.2h-14.3l-10.8-17H253v17h-11.5V21h17.2c8.7,0,15.4,4.2,15.4,13.6c0,6.1-3.4,11.4-9.7,12.5L278.2,65.2z
				 M253,40.8h1.1c3.7,0,8-0.7,8-5.5c0-4.8-4.2-5.5-8-5.5H253V40.8z"/>
		</g>
		<g>
			<path d="M147.2,78.3l-0.8,1.9h-1.2l3.8-8.3l3.8,8.3h-1.2l-0.8-1.9H147.2z M149,74.3l-1.4,3.1h2.7L149,74.3z"/>
			<path d="M157.8,76.2c0-2.2,1.7-4.1,4-4.1c1.7,0,2.7,0.8,3.4,1.6l-0.8,0.7c0,0-0.8-1.3-2.6-1.3c-1.8,0-2.9,1.5-2.9,3.1
				c0,1.9,1.3,3.2,3.1,3.2c1.5,0,2.5-1.1,2.5-2.3h-1.9v-1h3c0,0,0,0.4,0,0.7c0,2.2-1.6,3.7-3.6,3.7
				C159.6,80.4,157.8,78.6,157.8,76.2z"/>
			<path d="M169,78.3l-0.8,1.9H167l3.8-8.3l3.8,8.3h-1.2l-0.8-1.9H169z M170.8,74.3l-1.4,3.1h2.7L170.8,74.3z"/>
			<path d="M177.5,80.3h-1V72l6,6.1v-5.9h1v8.4l-6-6.1V80.3z"/>
			<path d="M186.5,80.3h-1V72l6,6.1v-5.9h1v8.4l-6-6.1V80.3z"/>
			<path d="M194.5,72.2h4.1v1h-3v2.2h2.9v1h-2.9v2.9h3v1h-4.1V72.2z"/>
			<path d="M203.9,80.3h-1.1v-7h-1.8v-1h4.6v1h-1.8V80.3z"/>
			<path d="M211.7,80.3h-1.1v-7h-1.8v-1h4.6v1h-1.8V80.3z"/>
			<path d="M221.3,76.2c0-2.4,1.8-4.2,4.1-4.2c0.7,0,1.5,0.2,2.1,0.6v1.1c0,0-0.8-0.6-2-0.6c-1.8,0-3.1,1.3-3.1,3.2
				c0,1.8,1.1,3.1,3.1,3.1c0.8,0,1.5-0.3,2.1-0.7v1.2c-0.2,0.2-1.2,0.6-2.1,0.6C223,80.4,221.3,78.6,221.3,76.2z"/>
			<path d="M229,76.2c0-2.4,1.9-4.2,4.2-4.2c2.5,0,4.2,1.9,4.2,4.3c0,2.3-1.8,4.1-4.2,4.1C230.8,80.4,229,78.5,229,76.2z
				 M233.3,73.1c-1.9,0-3.1,1.4-3.1,3.1c0,1.8,1.3,3.1,3,3.1c1.9,0,3.1-1.2,3.1-3.1C236.3,74.5,235.1,73.1,233.3,73.1z"/>
			<path d="M239.6,80.3h-1.1l1.6-8.3l2.9,6.3l2.8-6.2l1.6,8.2h-1.1l-1-5.1l-2.4,5.4l-2.5-5.4L239.6,80.3z"/>
			<path d="M250.2,76.9v3.4h-1.1v-8.1c0,0,1.2,0,2,0c1.4,0,2.5,0.9,2.5,2.3c0,1.5-1.1,2.4-2.2,2.4C251,76.9,250.2,76.9,250.2,76.9z
				 M250.2,73.2v2.7c0,0,0.7,0,0.8,0c1.1,0,1.6-0.6,1.6-1.4c0-0.7-0.6-1.3-1.5-1.3C250.7,73.2,250.2,73.2,250.2,73.2z"/>
			<path d="M256.6,78.3l-0.8,1.9h-1.2l3.8-8.3l3.8,8.3H261l-0.8-1.9H256.6z M258.4,74.3l-1.4,3.1h2.7L258.4,74.3z"/>
			<path d="M264.8,80.3h-1V72l6,6.1v-5.9h1v8.4l-6-6.1V80.3z"/>
			<path d="M272.2,72.2h1.3l1.9,3.5l1.8-3.5h1.2l-2.6,4.6v3.5h-1.1v-3.5L272.2,72.2z"/>
		</g>
	</g>
</g>
<g id="Layer_1">
</g>
</svg>
