<?xml version="1.0" encoding="utf-8"?>
<!-- Generator: Adobe Illustrator 18.0.0, SVG Export Plug-In . SVG Version: 6.00 Build 0)  -->
<!DOCTYPE svg PUBLIC "-//W3C//DTD SVG 1.1//EN" "http://www.w3.org/Graphics/SVG/1.1/DTD/svg11.dtd">
<svg version="1.1" xmlns="http://www.w3.org/2000/svg" xmlns:xlink="http://www.w3.org/1999/xlink" x="0px" y="0px"
	 viewBox="0 0 300 100" style="enable-background:new 0 0 300 100;" xml:space="preserve">
<style type="text/css">
	.st0{fill-rule:evenodd;clip-rule:evenodd;}
	.st1{fill-rule:evenodd;clip-rule:evenodd;fill:#C038F9;}
	.st2{fill:none;}
	.st3{fill-rule:evenodd;clip-rule:evenodd;fill:#231F20;}
</style>
<g id="Layer_2">
	<g>
		<path d="M1,53.2v-1.5c0-15.8,6.7-23.8,15.7-23.8c2.6,0,4.6,0.6,6.3,1.4v7.2c-2.1-1.2-3.9-2.1-6.1-2.1c-5.2,0-9,5.5-9,17v2.1
			c0,13.1,4.1,17.3,8.5,17.3c0.6,0,0.9-0.1,1.6-0.3V56.1h-5.1V50h11.3v25c-2.9,1.3-5.1,2-8.1,2C7.8,77,1,69.8,1,53.2z"/>
		<path d="M29.1,57.2v-1.7c0-13.7,4.3-19.9,10.4-19.9c6.1,0,10.4,6.3,10.4,19.9v1.7c0,13.7-4.3,19.9-10.4,19.9
			C33.4,77.2,29.1,70.9,29.1,57.2z M44.2,57.2v-1.7c0-10.5-1.9-14.7-4.6-14.7c-2.7,0-4.6,4.2-4.6,14.7v1.7c0,10.5,1.9,14.7,4.6,14.7
			C42.2,71.9,44.2,67.7,44.2,57.2z"/>
		<path d="M57.3,41.5h-5.5v-5.4h16.6v5.4H63v35.1h-5.7V41.5z"/>
		<path d="M71.8,36.1h5.7v17.4h8V36.1h5.7v40.5h-5.7V59h-8v17.7h-5.7V36.1z"/>
		<path d="M102.4,36h6.1l8,40.7h-5.7l-1.6-9h-7.6l-1.6,9h-5.6L102.4,36z M108.3,62.4l-3-16.3l-3,16.3H108.3z"/>
		<path d="M119.7,36.1h5.8l5.7,17.2l5.7-17.2h5.8v40.5h-5.5V49l-6,17.8h-0.2l-6-17.8v27.6h-5.4V36.1z"/>
		<path d="M149.5,74.9v-7.2c3,1.9,5.5,2.8,7.9,2.8c2.9,0,5.1-1.7,5.1-5v-0.1c0-2.8-0.9-4.8-5.3-10.1c-5.9-7.1-8.1-10.2-8.1-15.6
			v-0.1c0-7.1,4.8-11.8,11.1-11.8c3.2,0,5.3,0.6,7.5,1.7v7.2c-2.6-1.6-4.5-2.4-6.7-2.4c-2.8,0-5,1.9-5,4.9v0.1
			c0,2.7,0.9,4.1,5.3,9.4c6.4,7.6,8.1,10.9,8.1,16.3v0.1c0,7.1-5,11.9-11.3,11.9C154.8,77.1,152,76.2,149.5,74.9z"/>
		<path d="M172.7,57v-1.3c0-14,5.2-19.9,11.5-19.9c2,0,3,0.3,4.5,1v5.9c-1.4-0.9-2.6-1.3-3.9-1.3c-3.5,0-6.3,3.8-6.3,14.3v1.4
			c0,10.9,2.7,14.3,6.3,14.3c1.2,0,2.5-0.4,4-1.3v5.6c-1.4,0.9-3,1.2-4.9,1.2C177.5,76.9,172.7,70.9,172.7,57z"/>
		<path d="M192.2,36.1h5.7v17.4h8V36.1h5.7v40.5H206V59h-8v17.7h-5.7V36.1z"/>
		<path d="M215.8,57.2v-1.7c0-13.7,4.3-19.9,10.4-19.9c6.1,0,10.4,6.3,10.4,19.9v1.7c0,13.7-4.3,19.9-10.4,19.9
			C220,77.2,215.8,70.9,215.8,57.2z M230.8,57.2v-1.7c0-10.5-1.9-14.7-4.6-14.7c-2.7,0-4.6,4.2-4.6,14.7v1.7
			c0,10.5,1.9,14.7,4.6,14.7C228.9,71.9,230.8,67.7,230.8,57.2z"/>
		<path d="M239.8,57.2v-1.7c0-13.7,4.3-19.9,10.4-19.9c6.1,0,10.4,6.3,10.4,19.9v1.7c0,13.7-4.3,19.9-10.4,19.9
			C244.1,77.2,239.8,70.9,239.8,57.2z M254.9,57.2v-1.7c0-10.5-1.9-14.7-4.6-14.7c-2.7,0-4.6,4.2-4.6,14.7v1.7
			c0,10.5,1.9,14.7,4.6,14.7C253,71.9,254.9,67.7,254.9,57.2z"/>
		<path d="M264.7,36.1h5.7v35.1h8.3v5.4h-14V36.1z"/>
		<path d="M282,75.2v-6c2.5,1.6,4.6,2.4,6.6,2.4c2.4,0,4.3-1.4,4.3-4.2v-0.1c0-2.3-0.8-4-4.5-8.5c-5-6-6.8-8.5-6.8-13.1v-0.1
			c0-6,4.1-9.9,9.3-9.9c2.7,0,4.5,0.5,6.3,1.4v6c-2.2-1.3-3.8-2-5.6-2c-2.3,0-4.2,1.6-4.2,4.1v0.1c0,2.3,0.8,3.5,4.5,7.9
			c5.4,6.4,6.8,9.1,6.8,13.7v0.1c0,6-4.2,10-9.5,10C286.5,77,284.1,76.3,282,75.2z"/>
	</g>
</g>
<g id="Layer_1">
</g>
</svg>
