<?xml version="1.0" encoding="utf-8"?>
<!-- Generator: Adobe Illustrator 18.0.0, SVG Export Plug-In . SVG Version: 6.00 Build 0)  -->
<!DOCTYPE svg PUBLIC "-//W3C//DTD SVG 1.1//EN" "http://www.w3.org/Graphics/SVG/1.1/DTD/svg11.dtd">
<svg version="1.1" xmlns="http://www.w3.org/2000/svg" xmlns:xlink="http://www.w3.org/1999/xlink" x="0px" y="0px"
	 viewBox="0 0 300 100" style="enable-background:new 0 0 300 100;" xml:space="preserve">
<style type="text/css">
	.st0{fill-rule:evenodd;clip-rule:evenodd;}
	.st1{fill-rule:evenodd;clip-rule:evenodd;fill:#C038F9;}
	.st2{fill:none;}
	.st3{fill-rule:evenodd;clip-rule:evenodd;fill:#231F20;}
</style>
<g id="Layer_2">
	<g>
		<path d="M19.4,83.8C5.5,83.8,0,69,0,52.1c0-16.8,6.7-31.3,20.3-31.3c14.8,0,19,16.3,19,30.4C39.3,74.4,31.1,83.8,19.4,83.8
			L19.4,83.8z M19.9,73.4c5.1,0,7-9.1,7-21.6c0-10.9-1.6-20.5-7.1-20.5c-5.3,0-7.5,9.7-7.4,20.8C12.2,64.3,14.5,73.4,19.9,73.4
			L19.9,73.4z"/>
		<path d="M43.6,51.9c0-4.8-0.2-9.1-0.4-13.4h10.4l0.6,5.2h0.2c2.3-3.3,6-5.9,10.6-5.9c5,0,8.2,2.3,9.8,6.1H75
			c1.1-1.7,2.8-3.4,4.6-4.5c1.8-1.1,3.9-1.6,6.2-1.6c8,0,11.6,6.4,11.6,17.1V83H85.4V56.8c0-5-0.5-9.1-4.1-9.1c-2.1,0-3.7,1.5-4.5,4
			c-0.3,0.6-0.4,1.9-0.4,3.2V83H64.5V55.1c0-3.3-0.3-7.5-4-7.5c-1.8,0-3.6,1.3-4.5,4c-0.3,0.7-0.5,2-0.5,3.4v28H43.6V51.9z"/>
		<path d="M133,72.8c0,3.6,0.2,7.2,0.6,10.2H123l-0.6-4.4h-0.3c-2.4,3.5-5.9,5.1-9.8,5.1c-6.7,0-11.8-5.7-11.8-13.5
			c0-11.8,10.3-16.5,20.4-16.6v-1c0-3.6-2-6.1-6.3-6.1c-3.6,0-6.4,1-9.1,2.6l-2.2-8.1c2.6-1.4,7.7-3.4,14-3.4
			c13.6,0,15.8,9.5,15.8,18.6V72.8z M121.3,61.3c-3.9,0.1-9.5,1.5-9.5,7.7c0,4.4,2.5,6,4.3,6c2,0,4.1-1.1,4.9-3.8
			c0.2-0.5,0.3-1.3,0.3-2.1V61.3z"/>
		<path d="M138.7,19.9h11.9v23.2h0.2c1.1-1.6,2.4-2.7,3.8-3.7c1.7-1,3.8-1.6,6-1.6c8.2,0,11.4,6.9,11.4,18.2V83h-11.9V56
			c0-4.4-0.8-8.2-4.4-8.2c-2,0-3.7,1.2-4.6,4.2c-0.2,0.7-0.5,2.4-0.5,3.4V83h-11.9V19.9z"/>
		<path d="M207.8,72.8c0,3.6,0.2,7.2,0.6,10.2h-10.7l-0.6-4.4h-0.3c-2.4,3.5-5.9,5.1-9.8,5.1c-6.7,0-11.8-5.7-11.8-13.5
			c0-11.8,10.3-16.5,20.4-16.6v-1c0-3.6-2-6.1-6.3-6.1c-3.6,0-6.4,1-9.1,2.6l-2.2-8.1c2.6-1.4,7.7-3.4,14-3.4
			c13.6,0,15.8,9.5,15.8,18.6V72.8z M196,61.3c-3.9,0.1-9.5,1.5-9.5,7.7c0,4.4,2.5,6,4.3,6c2,0,4.1-1.1,4.9-3.8
			c0.2-0.5,0.3-1.3,0.3-2.1V61.3z"/>
		<path d="M215.9,83.6c-1.9,0-3.4-1.5-3.4-3.9c0-2.3,1.5-3.9,3.4-3.9c2,0,3.4,1.6,3.4,3.9C219.4,82,218.2,83.6,215.9,83.6
			L215.9,83.6z"/>
		<path d="M239.9,82.2c-1.1,0.7-3.1,1.2-5.4,1.2c-7.1,0-11.9-5.7-11.9-16.5c0-9.4,4.7-17,12.9-17c1.8,0,3.6,0.5,4.6,1.1l-1,4.2
			c-0.7-0.3-2-0.9-3.7-0.9c-5.3,0-7.5,6.2-7.5,12.6c0,7.6,2.9,12.2,7.7,12.2c1.3,0,2.6-0.3,3.7-0.9L239.9,82.2z"/>
		<path d="M251,83.6c-5.9,0-10.6-5.3-10.6-16.8c0-11.9,5.3-16.9,10.9-16.9c5.9,0,10.5,5.4,10.5,16.8C261.9,79.3,256.1,83.6,251,83.6
			L251,83.6z M251.3,79.5c4.4,0,5.4-7.6,5.4-12.7c0-5.1-0.9-12.7-5.5-12.7c-4.6,0-5.5,7.7-5.5,12.7
			C245.7,72.1,246.6,79.5,251.3,79.5L251.3,79.5z"/>
		<path d="M265.7,58.8c0-3.8-0.2-5.8-0.3-8.4h4.6l0.3,4h0.1c1.4-2.6,3.8-4.5,7.3-4.5c3,0,5.7,1.4,6.9,4.9h0.1c0.9-1.6,2-2.9,3.2-3.7
			c1.3-0.8,2.8-1.2,4.5-1.2c4.4,0,7.9,3.2,7.9,11.5V83h-5.2V62.6c0-4.2-0.6-8.4-4.5-8.4c-2.2,0-4,1.8-4.8,4.9
			c-0.2,0.8-0.2,1.8-0.2,2.9v21h-5.2V61.6c0-3.6-0.6-7.4-4.4-7.4c-2.2,0-4.2,1.8-4.9,5.3c-0.1,0.8-0.2,1.8-0.2,2.8V83h-5.2V58.8z"/>
	</g>
</g>
<g id="Layer_1">
</g>
</svg>
