<?xml version="1.0" encoding="utf-8"?>
<!-- Generator: Adobe Illustrator 18.0.0, SVG Export Plug-In . SVG Version: 6.00 Build 0)  -->
<!DOCTYPE svg PUBLIC "-//W3C//DTD SVG 1.1//EN" "http://www.w3.org/Graphics/SVG/1.1/DTD/svg11.dtd">
<svg version="1.1" xmlns="http://www.w3.org/2000/svg" xmlns:xlink="http://www.w3.org/1999/xlink" x="0px" y="0px"
	 viewBox="0 0 300 100" style="enable-background:new 0 0 300 100;" xml:space="preserve">
<style type="text/css">
	.st0{fill-rule:evenodd;clip-rule:evenodd;}
	.st1{fill-rule:evenodd;clip-rule:evenodd;fill:#C038F9;}
	.st2{fill:none;}
	.st3{fill-rule:evenodd;clip-rule:evenodd;fill:#231F20;}
</style>
<g id="Layer_2">
	<g>
		<path d="M62.3,16.1c3.6,9.6,4.3,19.8,7.3,29.2c1.1,0.2,1.9,0,2-1.1c0.5-7.8,3.1-15.2,4.6-22.9c0.3-1.6,0.8-3.2,1.3-5
			c7.7,0,15.4,0,23.3,0c1.2,2.5,0.2,5.3,0.7,8c-1.5,0.5-2.6,0.9-3.9,1.4c0,12,0,23.9,0,36c1.2,0.4,2.3,0.8,3.6,1.3c0,2.6,0,5.1,0,8
			c-7.1,0-14.1,0-21.4,0c0-2.7,0-5.3,0-8.1c1-0.3,2-0.6,3.3-1c0-10.3,0-20.7,0-31.1c-0.2,0-0.3,0-0.5-0.1C79.8,42.8,77,54.9,74.3,67
			c-0.9,4.1-0.9,4.1-4.9,4.2c-1.9,0-3.8,0-5.9,0c-3.4-14.1-6.7-28.1-10-42c-0.3,0-0.5,0.1-0.8,0.1c0,10.8,0,21.6,0,32.6
			c1.6,0.3,3,0.5,4.6,0.7c0,2.7,0,5.2,0,8.3c-6,0.6-12.2,0.1-18.3,0.3c-1.3-2.7-0.2-5.3-0.8-7.5c1.1-2.3,4-0.8,4.8-3.1
			c0.6-1.7,0.3-3.4,0.3-5.1c0-9.8,0-19.7,0-29.3c-1.1-2.2-3.4-0.6-4.8-2.1c0-2.3,0-4.9,0-8c3.9-0.4,8-0.1,11.9-0.2
			C54.3,16.1,58.2,16.1,62.3,16.1z"/>
		<path d="M222.3,37.1c-0.1-0.4-0.2-0.8-0.2-1.2C222,29,222,29,228.7,29c4.5,0,8.9,0,13.6,0c0,3,0,5.5,0,8.3c-1,1.1-4.7,0.4-3.5,3.7
			c2.1,5.7,2.6,11.9,5.9,17.8c2-6.1,3.8-11.7,5.5-17.3c0.7-2.2,0-2.8-3.5-4.1c0-2.4,0-5,0-8.1c5.6-0.2,11.3,0,17.1-0.1
			c1.1,2.2,0.5,4.4,0.6,6.4c0.1,0.8,0,1.7-0.8,2.3c-4.8,3.5-4.8,9.4-6.9,14.3c-3.5,8.3-5.5,17.3-9.5,25.5c-2.6,5.4-6.9,7.8-12.6,7.9
			c-3.8,0.1-7.6,0.2-11.1-2.1c0-3.3,0-6.7,0-10.4c3.4-0.4,6.3-0.9,8.1,3c0.4,0.8,2,1.8,3.9,0.9c1.8-0.8,1.9-2,2-3.5
			c0.1-2.4-1-4.6-1.8-6.7c-3.2-8.3-6.3-16.5-8.6-25.1C226.5,39.8,224.9,38.3,222.3,37.1z"/>
		<path d="M142.4,70.9c0-2.6-0.9-5.5,0.2-6.7c2.9-3.2,2.3-6.8,2.4-10.5c0-3.6,0.1-7.3,0-10.9c0-2,0.2-3.7-1.9-5.5
			c-2-1.8-0.4-5.1-0.7-8.1c5.2,0,9.9,0,14.7,0c1.5,1.5,0.1,3.7,1.2,5.5c0.2,0.3,0.4,0.2,0.8-0.3c3.9-5.3,9.3-7.2,15-5.1
			c4.7,1.8,6.5,6,6.9,10.5c0.4,5.1-0.1,10.3,0.2,15.4c0.1,2.7-1.5,6.1,2.3,7.8c0.5,2.5,0.3,5,0,8.2c-3.8,0-7.6,0.1-11.4,0
			c-3-0.1-3.6-0.7-3.7-4c-0.1-6.2,0-12.4,0-18.6c0-1.5,0.1-3,0-4.5c-0.3-2.8-2.3-4.8-4.9-5c-2.8-0.2-5.4,2-5.4,5
			c-0.2,5.8,0,11.5,0,17.1c1.3,1.6,3,0.7,4.7,1.5c0.7,2.4,0.3,5.1,0.2,8.2C156,70.9,149.5,70.9,142.4,70.9z"/>
		<path d="M197.5,54.2c0.7,3.9,1.1,7.7,5.7,9.1c3,0.9,6.2,0.6,7.4-1.9c2.2-4.5,5.5-4.7,9.8-3.6c0,3.2,0,6.6,0,10.6
			c-6,2.6-12.2,4.3-19.5,3.2c-6.9-1-11.3-4.4-14-10.3c-1.9-4.2-2.8-9-2-13.6c0.8-5,1.8-9.8,5.7-13.7c3.2-3.2,6.7-5.1,11.2-5
			c2.9,0.1,5.9-0.4,8.8,0.7c8,2.9,10.6,9.1,11.3,16.8c0,0.4,0,0.9,0,1.3c0,5.2-0.3,5.5-5.4,5.5c-6,0.1-12,0.1-18,0.2
			C198.5,53.4,198.3,53.6,197.5,54.2z M210,45.4c-0.2-5.7-1.5-7.4-5.4-7.5c-4.9-0.2-5.4,0.4-6.4,7.5C202.1,45.4,206.1,45.4,210,45.4
			z"/>
		<path d="M102.5,50.6c-0.1-5-0.1-9.2,2.3-13c2.5-3.9,5.7-6.7,10.2-7.8c8.2-2.1,15.7-1.2,21.5,5.6c3,3.5,3.7,8,4.5,12.3
			c0.8,4.3,0,8.7-1.6,12.5C137,65.9,133,70.5,126,71.4c-3.1,0.4-5.9,0.9-9.2,0.1c-8.8-2.3-13.9-8.1-14.2-17.1
			C102.5,52.8,102.5,51.3,102.5,50.6z M128.2,49.7c-0.1-1.9,0.5-5.2-1.3-8.1c-1.6-2.7-3.6-3.9-6.8-3.7c-3.1,0.2-4,2.8-4.5,4.7
			c-1.2,4.6-2.4,9.3-0.4,14.3c1.6,4.1,2.8,5.7,6.4,5.5c3.8-0.2,6.2-2.5,6.5-6.4C128.4,54.3,128.2,52.6,128.2,49.7z"/>
	</g>
</g>
<g id="Layer_1">
</g>
</svg>
