<?xml version="1.0" encoding="utf-8"?>
<!-- Generator: Adobe Illustrator 18.0.0, SVG Export Plug-In . SVG Version: 6.00 Build 0)  -->
<!DOCTYPE svg PUBLIC "-//W3C//DTD SVG 1.1//EN" "http://www.w3.org/Graphics/SVG/1.1/DTD/svg11.dtd">
<svg version="1.1" xmlns="http://www.w3.org/2000/svg" xmlns:xlink="http://www.w3.org/1999/xlink" x="0px" y="0px"
	 viewBox="0 0 300 100" style="enable-background:new 0 0 300 100;" xml:space="preserve">
<style type="text/css">
	.st0{fill-rule:evenodd;clip-rule:evenodd;}
	.st1{fill-rule:evenodd;clip-rule:evenodd;fill:#C038F9;}
	.st2{fill:none;}
	.st3{fill-rule:evenodd;clip-rule:evenodd;fill:#231F20;}
</style>
<g id="Layer_2">
</g>
<g id="Layer_1">
	<g>
		<path d="M84.4,30.7c-1.5,14.1-3.1,28.2-4.6,42.3c-1.8,0.7-2.3,0-2.5-1.6c-1.4-13.3-2.9-26.6-4.5-39.8c0,13.8,0,27.6,0,41.5
			c-0.9,0-1.7,0-2.6,0c0-16.5,0-33,0-49.6c1.4,0,2.7,0,4.2,0c1.4,12.5,2.7,25,4.1,37.5c0.1,0,0.3,0,0.4,0c1.4-12.5,2.7-25,4.1-37.6
			c1.3,0,2.6,0,4.1,0c0,16.5,0,33,0,49.7c-0.7,0-1.4,0.1-2.3,0.1c0-14.3,0-28.4,0-42.5C84.6,30.7,84.5,30.7,84.4,30.7z"/>
		<path d="M166.6,58c0-11.5,0-23,0-34.6c0.9,0,1.6,0,2.5,0c0,16.6,0,33.1,0,49.8c-0.7,0-1.4,0.1-2.3,0.1
			c-2.5-12.1-4.9-24.2-7.4-36.2c-0.1,0-0.2,0-0.3,0c0,12,0,24,0,36.1c-0.9,0-1.7,0-2.6,0c0-16.6,0-33.1,0-49.8
			c0.8,0,1.5-0.1,2.4-0.1c2.4,11.6,4.8,23.2,7.2,34.8C166.3,58,166.5,58,166.6,58z"/>
		<path d="M202,48c1.9,0.9,2.4,2.9,2.4,5.2c0,4.4,0,8.7,0.1,13.1c0.1,2.3,0.4,4.6,0.7,6.9c-0.6,0-1.5,0-2.8,0c-0.2-1-0.5-2-0.5-3.1
			c-0.1-5.5-0.1-11.1-0.2-16.6c-0.1-3.9-1-4.7-5.2-4.3c0,7.9,0,15.8,0,23.9c-1,0-1.8,0-2.7,0c0-16.5,0-33,0-49.7
			c2.4,0,4.7-0.2,6.9,0.1c2.3,0.3,3.8,2.2,3.9,5.1c0.2,4.7,0.3,9.5-0.1,14.2C204.6,44.5,203,46.1,202,48z M196.6,25.8
			c0,6.9,0,13.6,0,20.3c4,0.5,5.4-0.6,5.5-4.4c0.1-3.7,0.1-7.5,0-11.2C202.2,26.1,201.3,25.3,196.6,25.8z"/>
		<path d="M116,73.1c-3.1,0.3-3.2,0.3-3.3-2.9c-0.2-5.6-0.1-11.2-0.2-16.8c-0.1-3.9-1.1-4.7-5.3-4.2c0,7.9,0,15.8,0,23.9
			c-0.9,0-1.7,0.1-2.6,0.1c0-16.7,0-33.2,0-49.9c2.2,0,4.4-0.2,6.5,0c2.5,0.2,4.2,2.1,4.3,5c0.2,4.8,0.3,9.7-0.1,14.5
			c-0.1,1.7-1.7,3.3-2.7,5.1c2.2,1,2.5,3.4,2.4,6c0,4.5,0,9,0.1,13.5C115.4,69.3,115.8,71.1,116,73.1z M107.4,46.1
			c4.1,0.4,5.5-0.7,5.6-4.4c0.1-3.8,0.1-7.6,0-11.4c0-4.2-1.1-5-5.6-4.4C107.4,32.5,107.4,39.3,107.4,46.1z"/>
		<path d="M209,48c0-6.4-0.1-12.7,0-19.1c0.1-4.7,2.6-6.8,6.7-6.2c2.4,0.4,3.5,1.9,4,4c0.3,1.6,0.4,3.2,0.4,4.9c0,11,0,22.1,0,33.1
			c0,1.5-0.1,3.1-0.3,4.6c-0.5,3.2-2.1,4.5-5.2,4.6c-3,0-4.6-1.3-5.3-4.4c-0.2-1-0.3-2-0.3-3C209,60.3,209,54.1,209,48
			C209,48,209,48,209,48z M211.8,48.3C211.8,48.3,211.8,48.3,211.8,48.3c0,5.9,0,11.8,0,17.7c0,1.2-0.1,2.5,0.4,3.4
			c0.4,0.8,1.6,1.6,2.4,1.6c0.8,0,1.9-0.9,2.3-1.7c0.5-0.9,0.5-2.1,0.5-3.2c0-12,0-24,0-36c0-1.2,0-2.4-0.5-3.4
			c-0.4-0.7-1.4-1.5-2.2-1.5c-0.8,0-1.9,0.7-2.4,1.4c-0.5,0.9-0.5,2.1-0.5,3.2C211.7,36,211.8,42.2,211.8,48.3z"/>
		<path d="M22.1,23.3c0.8,0,1.5,0,2.5,0c0,7.5,0,15,0,22.6c2,0,3.8,0,5.8,0c0-7.6,0-15,0-22.5c1,0,1.7,0,2.6,0c0,16.6,0,33.1,0,49.8
			c-0.8,0-1.6,0-2.5,0c0-8.2,0-16.2,0-24.5c-1.9,0-3.7,0-5.7,0c0,8,0,16.2,0,24.5c-1,0.1-1.7,0.1-2.6,0.2
			C22.1,56.6,22.1,40.1,22.1,23.3z"/>
		<path d="M276.8,40.5c-0.6,0-1.4,0-2.4,0c0-3.3,0-6.5,0-9.8c0-1.2,0.1-2.4-0.4-3.4c-0.4-0.9-1.6-2-2.3-1.9c-1,0.1-2,1.1-2.6,2
			c-0.5,0.7-0.3,1.8-0.3,2.7c0,12.1,0,24.3,0,36.4c0,0.8,0,1.6,0.2,2.3c0.2,1.5,1,2.4,2.6,2.4c1.6,0,2.6-0.8,2.7-2.4
			c0.2-3.2,0.2-6.4,0.2-9.6c0-1.7,0-3.4,0-5.2c0.9,0,1.7,0,2.3,0c0,5.2,0.2,10.4-0.1,15.6c-0.2,2.9-2.1,4.1-5,4.2
			c-2.9,0.1-4.5-1.1-5.2-3.9c-0.3-1-0.4-2-0.4-3c0-12.4,0-24.9,0-37.3c0-1.1,0.1-2.2,0.4-3.2c0.8-2.8,2.6-4,5.4-3.8
			c2.8,0.2,4.7,1.5,4.9,4.4C277,31.4,276.8,35.9,276.8,40.5z"/>
		<path d="M137.9,40.5c-1,0-1.7,0-2.7,0c0-3,0-6,0-9c0-1.4-0.1-2.8-0.3-4.2c-0.2-1.5-1.2-2.4-2.6-2c-1,0.3-2,1.2-2.5,2.2
			c-0.5,0.9-0.3,2.1-0.3,3.2c0,11.7,0,23.3,0,35c0,1.1-0.2,2.3,0.3,3.2c0.5,0.9,1.5,2,2.5,2.2c1.4,0.4,2.6-0.6,2.7-2.2
			c0.2-2.9,0.2-5.7,0.2-8.6c0-2,0-4,0-6.2c0.9-0.1,1.6-0.1,3-0.2c-0.3,5.6-0.3,11-0.9,16.3c-0.3,2.6-2.2,3.6-5,3.6
			c-2.7,0-4.3-1.1-5-3.6c-0.3-1.2-0.5-2.4-0.5-3.7c0-12.2,0-24.4,0-36.6c0-1.2,0.1-2.3,0.4-3.4c0.8-2.8,2.5-4,5.3-3.9
			c2.8,0.1,4.4,1.4,5,4.3c0.2,0.8,0.3,1.7,0.3,2.5C138,33,137.9,36.6,137.9,40.5z"/>
		<path d="M154.3,73.1c-1,0-1.8,0-2.8,0c-0.4-4.4-0.8-8.7-1.3-13.3c-1.8,0-3.5,0-5.5,0c-0.4,4.4-0.8,8.8-1.2,13.3
			c-0.9,0-1.6,0.1-2.8,0.2c1.8-16.7,3.6-33.3,5.5-49.9c0.9,0,1.7,0,2.7,0C150.6,39.8,152.4,56.4,154.3,73.1z M149.9,57.2
			c-0.8-7.6-1.5-14.9-2.3-22.2c-0.1,0-0.2,0-0.3,0c-0.8,7.4-1.6,14.7-2.4,22.2C146.7,57.2,148.1,57.2,149.9,57.2z"/>
		<path d="M66.9,73.1c-1,0-1.8,0-2.8,0c-0.4-4.5-0.8-8.8-1.3-13.3c-1.9,0-3.5,0-5.5,0c-0.4,4.4-0.8,8.8-1.3,13.3c-0.9,0-1.7,0-2.8,0
			C55.1,56.5,57,40,58.8,23.4c0.9-0.1,1.6-0.1,2.7-0.2C63.3,39.9,65.1,56.4,66.9,73.1z M60.3,35c-0.1,0-0.2,0-0.3,0
			c-0.8,7.4-1.6,14.7-2.4,22.2c1.8,0,3.3,0,5,0C61.8,49.6,61,42.3,60.3,35z"/>
		<path d="M224.5,54.1c0.9,0,1.6,0,2.6,0c0,3.4,0,6.7,0,10c0,1.4,0,2.8,0.1,4.2c0.2,1.8,1,2.9,3,2.9c2,0,2.5-1.3,2.7-3.1
			c1.1-8.9-1.1-16.9-5.7-24.4c-3.3-5.5-3.1-11.4-2.2-17.4c0.3-2.4,2.5-3.9,4.9-3.9c2.5,0,4.5,1.4,4.7,3.9c0.4,3.8,0.4,7.7,0.6,11.7
			c-1.1,0-1.9,0-2.9,0c0-2.6,0-5.2,0-7.7c0-0.9,0.2-2-0.2-2.8c-0.5-1-1.5-2.1-2.4-2.3c-0.6-0.1-2.1,1.3-2.2,2
			c-0.4,4.5-1,9.2,1.3,13.5c1.6,3.1,3.1,6.3,4.6,9.4c3.2,6.2,2.5,12.9,1.8,19.4c-0.3,3-1.9,4.1-4.4,4.2c-3.1,0.1-5-1.1-5.9-3.8
			c-0.2-0.6-0.4-1.2-0.4-1.8C224.5,63.6,224.5,58.9,224.5,54.1z"/>
		<path d="M182,49c0,8,0,16,0,24.1c-0.9,0.1-1.7,0.1-2.6,0.1c0-16.7,0-33.2,0-49.8c2.2,0,4.4-0.2,6.6,0.1c2.5,0.4,4.1,2.4,4.2,5.4
			c0.2,5,0.1,9.9,0,14.9c-0.1,2.4-1.8,4.2-4.2,4.7C184.9,48.8,183.5,48.8,182,49z M182.1,46.2c4.2,0.6,5.5-0.4,5.6-4.3
			c0.1-4,0.1-7.9,0-11.9c-0.1-3.9-1.7-5-5.5-4C182.1,32.8,182.1,39.5,182.1,46.2z"/>
		<path d="M239.2,23.2c1.6,0,3.1,0,4.5,0c3.9,0.1,6.1,1.8,6.3,5.7c0.2,5,0.2,9.9,0,14.9c-0.1,2.4-1.8,4.2-4.2,4.7
			c-1.3,0.3-2.6,0.3-4.1,0.5c0,8,0,16,0,24.1c-0.9,0.1-1.7,0.1-2.6,0.1C239.2,56.6,239.2,40.1,239.2,23.2z M241.9,26
			c0,6.8,0,13.5,0,20.3c4.2,0.5,5.5-0.4,5.5-4.4c0.1-3.8,0.1-7.6,0-11.4C247.4,26.3,246.2,25.4,241.9,26z"/>
		<path d="M253.2,23.3c3.5,0,6.8,0,10.3,0c0.1,0.7,0.1,1.3,0.2,2.2c-2.7,0-5.2,0-7.9,0c0,6.8,0,13.3,0,20.1c2.4,0,4.7,0,7.1,0
			c0,0.9,0,1.5,0,2.4c-2.4,0-4.7,0-7.1,0c0,7.7,0,15.1,0,22.7c2.7,0,5.3,0,8.1,0c0.1,0.8,0.1,1.5,0.2,2.3c-3.7,0-7.2,0-10.9,0
			C253.2,56.6,253.2,40.1,253.2,23.3z"/>
		<path d="M41.1,70.8c2.8,0,5.3,0,8.1,0c0.1,0.8,0.1,1.4,0.2,2.2c-3.7,0-7.2,0-10.9,0c0-16.5,0-33,0-49.7c3.4,0,6.8,0,10.3,0
			c0.1,0.6,0.1,1.2,0.2,2.1c-2.7,0-5.2,0-7.9,0c0,6.8,0,13.3,0,20.1c2.4,0,4.7,0,7.1,0c0,0.9,0,1.5,0,2.4c-2.4,0-4.7,0-7.1,0
			C41.1,55.7,41.1,63.1,41.1,70.8z"/>
		<path d="M95.3,70.8c2.8,0,5.3,0,8,0c0.1,0.8,0.2,1.4,0.2,2.2c-3.7,0-7.2,0-10.9,0c0-16.5,0-33,0-49.7c3.4,0,6.9,0,10.4,0
			c0,0.6,0.1,1.2,0.1,2.1c-2.6,0-5.1,0-7.8,0c0,6.8,0,13.3,0,20.1c2.3,0,4.6,0,7.1,0c0,0.9,0,1.5,0,2.4c-2.3,0-4.6,0-7.1,0
			C95.3,55.7,95.3,63.1,95.3,70.8z"/>
		<path d="M12.6,25.6c-2.3,0-4.2,0-6.2,0c-0.1-0.8-0.1-1.4-0.2-2.2c5.2,0,10.2,0,15.3,0c0,0.7,0,1.3,0,2.2c-2,0-4,0-6.3,0
			c0,16,0,31.7,0,47.5c-0.9,0.1-1.6,0.1-2.7,0.2C12.6,57.4,12.6,41.6,12.6,25.6z"/>
		<path d="M283.5,25.6c-2.3,0-4.2,0-6.2,0c-0.1-0.8-0.1-1.4-0.2-2.2c5.2,0,10.2,0,15.3,0c0,0.7,0,1.4,0,2.2c-2.1,0-4.1,0-6.3,0
			c0,15.9,0,31.6,0,47.5c-0.9,0.1-1.6,0.1-2.7,0.2C283.5,57.4,283.5,41.6,283.5,25.6z"/>
		<path d="M120.1,23.3c0.8,0,1.5,0,2.4,0c0,16.6,0,33.1,0,49.8c-0.7,0-1.5,0.1-2.4,0.1C120.1,56.6,120.1,40.1,120.1,23.3z"/>
	</g>
</g>
</svg>
