<?xml version="1.0" encoding="utf-8"?>
<!-- Generator: Adobe Illustrator 18.0.0, SVG Export Plug-In . SVG Version: 6.00 Build 0)  -->
<!DOCTYPE svg PUBLIC "-//W3C//DTD SVG 1.1//EN" "http://www.w3.org/Graphics/SVG/1.1/DTD/svg11.dtd">
<svg version="1.1" xmlns="http://www.w3.org/2000/svg" xmlns:xlink="http://www.w3.org/1999/xlink" x="0px" y="0px"
	 viewBox="0 0 300 100" style="enable-background:new 0 0 300 100;" xml:space="preserve">
<style type="text/css">
	.st0{fill-rule:evenodd;clip-rule:evenodd;}
	.st1{fill-rule:evenodd;clip-rule:evenodd;fill:#C038F9;}
	.st2{fill:none;}
	.st3{fill-rule:evenodd;clip-rule:evenodd;fill:#231F20;}
</style>
<g id="Layer_2">
	<g>
		<g>
			<path d="M5.2,43.2H4.6l0.1-4.9h19.8l0.1,4.9h-0.6c-0.2-1.3-0.5-2.3-0.9-2.9c-0.4-0.6-0.8-1-1.3-1.1S20.4,39,19.3,39H16v14.4
				c0,1.6,0,2.6,0.1,3.1c0.1,0.5,0.3,0.9,0.6,1.1c0.3,0.2,1,0.4,1.9,0.4h1v0.7H9.4v-0.7h1.1c0.9,0,1.5-0.1,1.8-0.3s0.6-0.6,0.6-1
				s0.1-1.5,0.1-3.3V39h-3c-1.3,0-2.2,0.1-2.6,0.2c-0.5,0.1-0.9,0.5-1.3,1.1C5.8,40.9,5.5,41.9,5.2,43.2z"/>
			<path d="M35.1,50.8h-8.2v3.8c0,1.2,0,2,0.1,2.4c0.1,0.4,0.2,0.7,0.5,0.8c0.3,0.2,0.7,0.3,1.4,0.3h0.4v0.5h-7.1v-0.5h0.4
				c0.7,0,1.1-0.1,1.4-0.3s0.4-0.4,0.5-0.8c0.1-0.4,0.1-1.2,0.1-2.5v-7.7c0-1.2,0-2.1-0.1-2.4c-0.1-0.4-0.2-0.6-0.5-0.8
				c-0.2-0.1-0.7-0.2-1.5-0.2h-0.3V43h7.1v0.5H29c-0.8,0-1.3,0.1-1.5,0.2c-0.2,0.1-0.4,0.4-0.5,0.7c-0.1,0.3-0.1,1.2-0.1,2.5V50h8.2
				v-3.1c0-1.2,0-2.1-0.1-2.4c-0.1-0.4-0.2-0.6-0.5-0.8c-0.2-0.1-0.7-0.2-1.5-0.2h-0.4V43h7.1v0.5h-0.2c-0.8,0-1.3,0.1-1.5,0.2
				c-0.2,0.1-0.4,0.4-0.5,0.7c-0.1,0.3-0.1,1.2-0.1,2.5v7.7c0,1.2,0,2,0.1,2.4c0.1,0.4,0.2,0.7,0.5,0.8c0.3,0.2,0.7,0.3,1.4,0.3h0.4
				v0.5h-7.1v-0.5h0.5c0.7,0,1.1-0.1,1.4-0.3s0.4-0.4,0.5-0.8c0.1-0.4,0.1-1.2,0.1-2.5V50.8z"/>
			<path d="M51.2,53.8h0.6l-0.3,4.9h-13v-0.5h0.3c0.8,0,1.3-0.1,1.5-0.3c0.2-0.2,0.4-0.5,0.4-0.8c0.1-0.3,0.1-1.1,0.1-2.4v-7.7
				c0-1.2,0-2-0.1-2.4c-0.1-0.4-0.2-0.6-0.5-0.8c-0.2-0.2-0.7-0.2-1.5-0.2V43H50l0.4,3.9h-0.5c-0.2-1.1-0.5-1.9-0.9-2.3
				c-0.4-0.5-0.8-0.7-1.3-0.9c-0.5-0.1-1.3-0.2-2.4-0.2h-2.2v6.6h1.7c0.8,0,1.3-0.1,1.6-0.2c0.3-0.1,0.5-0.3,0.6-0.6
				c0.1-0.3,0.1-0.8,0.1-1.6h0.5v5.4h-0.5c0-0.9-0.1-1.5-0.2-1.8c-0.1-0.3-0.4-0.5-0.6-0.6c-0.3-0.1-0.8-0.1-1.4-0.1h-1.7v3.7
				c0,1.9,0.1,3,0.4,3.3c0.2,0.3,0.9,0.5,1.9,0.5h1.2c0.8,0,1.5-0.1,2-0.3c0.5-0.2,1-0.6,1.5-1.3S50.9,54.9,51.2,53.8z"/>
			<path d="M73.5,51h0.6v7.1h-0.6c-0.2-0.8-0.5-1.5-1-2.1c-1.8,2-4.1,3-6.9,3c-2.9,0-5.3-0.9-7.2-2.8c-1.9-1.9-2.8-4.3-2.8-7.4
				c0-2,0.4-3.9,1.3-5.7s2.1-3.1,3.6-4c1.5-0.9,3.2-1.3,5.1-1.3c1.5,0,2.9,0.3,4.1,0.9s2.2,1.3,2.8,2.1c0.4-0.9,0.7-1.7,0.8-2.6h0.7
				l0.2,7.7h-0.6c-0.5-2.7-1.4-4.6-2.8-5.7s-3-1.6-4.7-1.6c-2.1,0-3.8,0.9-5.1,2.6c-1.3,1.7-1.9,4.2-1.9,7.4c0,3.1,0.7,5.4,2.1,7
				c1.4,1.6,3.1,2.4,5.1,2.4c1.1,0,2.2-0.3,3.3-0.8c1.1-0.5,2-1.4,2.7-2.7S73.4,52.2,73.5,51z"/>
			<path d="M75.2,50.7c0-2.4,0.8-4.4,2.4-5.8c1.6-1.5,3.6-2.2,6.1-2.2c2.4,0,4.5,0.7,6.1,2.2c1.6,1.4,2.5,3.4,2.5,5.9
				c0,2.4-0.8,4.4-2.4,5.9c-1.6,1.5-3.6,2.3-6.2,2.3c-2.5,0-4.5-0.8-6.1-2.3C76,55.2,75.2,53.2,75.2,50.7z M77.9,50.8
				c0,2.5,0.5,4.4,1.5,5.7c1,1.3,2.5,1.9,4.5,1.9c1.8,0,3.2-0.6,4.2-1.9c1-1.3,1.5-3.1,1.5-5.7c0-2.4-0.5-4.3-1.5-5.6
				c-1-1.3-2.5-1.9-4.4-1.9c-1.9,0-3.3,0.6-4.3,1.9C78.4,46.4,77.9,48.3,77.9,50.8z"/>
			<path d="M101.6,55.9l5.7-13h4.8v0.5h-0.6c-0.8,0-1.3,0.1-1.5,0.2c-0.2,0.1-0.4,0.4-0.5,0.7c-0.1,0.3-0.1,1.2-0.1,2.5v7.7
				c0,1.2,0,2,0.1,2.4c0.1,0.4,0.2,0.7,0.5,0.8c0.3,0.2,0.7,0.3,1.4,0.3h0.7v0.5h-7.5v-0.5h0.6c0.7,0,1.1-0.1,1.4-0.3
				s0.4-0.4,0.5-0.8c0.1-0.4,0.1-1.2,0.1-2.5v-10L101,58.6h-0.5l-6.3-14.1v9.2c0,1.3,0,2.1,0.1,2.6c0.1,0.5,0.3,0.9,0.7,1.2
				c0.4,0.3,1,0.5,1.7,0.6v0.5h-5.6v-0.5c0.7,0,1.2-0.2,1.6-0.5c0.4-0.3,0.7-0.7,0.8-1.2c0.1-0.5,0.1-1.4,0.1-2.7v-6.8
				c0-1.2,0-2.1-0.1-2.4c-0.1-0.4-0.2-0.6-0.5-0.8c-0.2-0.1-0.7-0.2-1.5-0.2h-0.4V43h4.8L101.6,55.9z"/>
			<path d="M120.7,55.9l5.7-13h4.8v0.5h-0.6c-0.8,0-1.3,0.1-1.5,0.2c-0.2,0.1-0.4,0.4-0.5,0.7c-0.1,0.3-0.1,1.2-0.1,2.5v7.7
				c0,1.2,0,2,0.1,2.4c0.1,0.4,0.2,0.7,0.5,0.8c0.3,0.2,0.7,0.3,1.4,0.3h0.7v0.5h-7.5v-0.5h0.6c0.7,0,1.1-0.1,1.4-0.3
				s0.4-0.4,0.5-0.8c0.1-0.4,0.1-1.2,0.1-2.5v-10l-6.2,14.1h-0.5l-6.3-14.1v9.2c0,1.3,0,2.1,0.1,2.6c0.1,0.5,0.3,0.9,0.7,1.2
				c0.4,0.3,1,0.5,1.7,0.6v0.5h-5.6v-0.5c0.7,0,1.2-0.2,1.6-0.5c0.4-0.3,0.7-0.7,0.8-1.2c0.1-0.5,0.1-1.4,0.1-2.7v-6.8
				c0-1.2,0-2.1-0.1-2.4c-0.1-0.4-0.2-0.6-0.5-0.8c-0.2-0.1-0.7-0.2-1.5-0.2h-0.4V43h4.8L120.7,55.9z"/>
			<path d="M142.4,53.8h0.6l-0.3,4.9h-13v-0.5h0.3c0.8,0,1.3-0.1,1.5-0.3c0.2-0.2,0.4-0.5,0.4-0.8s0.1-1.1,0.1-2.4v-7.7
				c0-1.2,0-2-0.1-2.4c-0.1-0.4-0.2-0.6-0.5-0.8c-0.2-0.2-0.7-0.2-1.5-0.2V43h11.2l0.4,3.9H141c-0.2-1.1-0.5-1.9-0.9-2.3
				c-0.4-0.5-0.8-0.7-1.3-0.9c-0.5-0.1-1.3-0.2-2.4-0.2h-2.2v6.6h1.7c0.8,0,1.3-0.1,1.6-0.2c0.3-0.1,0.5-0.3,0.6-0.6
				c0.1-0.3,0.1-0.8,0.1-1.6h0.5v5.4h-0.5c0-0.9-0.1-1.5-0.2-1.8c-0.1-0.3-0.4-0.5-0.6-0.6s-0.8-0.1-1.4-0.1h-1.7v3.7
				c0,1.9,0.1,3,0.4,3.3c0.2,0.3,0.9,0.5,1.9,0.5h1.2c0.8,0,1.5-0.1,2-0.3c0.5-0.2,1-0.6,1.5-1.3S142.1,54.9,142.4,53.8z"/>
			<path d="M159,58.6h-4.2c-0.7-0.5-1.9-1.9-3.4-4.1c-0.5-0.7-1-1.4-1.5-2c-0.5-0.7-0.9-1-1.1-1.2c-0.2-0.1-0.5-0.2-0.9-0.2h-0.6
				v3.5c0,1.2,0,2,0.1,2.4c0.1,0.4,0.2,0.7,0.5,0.8c0.2,0.2,0.7,0.3,1.4,0.3h0.8v0.5h-7.5v-0.5h0.5c0.7,0,1.1-0.1,1.4-0.3
				c0.3-0.2,0.4-0.4,0.5-0.8c0.1-0.4,0.1-1.2,0.1-2.5v-7.7c0-1.2,0-2.1-0.1-2.4c-0.1-0.4-0.2-0.6-0.5-0.8c-0.2-0.1-0.8-0.2-1.5-0.2
				h-0.3V43l2.2-0.1c1.5-0.1,2.7-0.1,3.6-0.1c1.5,0,2.7,0.1,3.6,0.4c0.9,0.3,1.7,0.7,2.3,1.4c0.6,0.6,0.9,1.4,0.9,2.3
				c0,1-0.4,1.9-1.1,2.6c-0.8,0.7-1.9,1.2-3.3,1.4c0.7,0.3,1.7,1.5,3.2,3.4c1.2,1.6,2.1,2.6,2.8,3.1c0.7,0.5,1.5,0.8,2.4,0.8V58.6z
				 M147.1,50.5c0.6,0,1.2,0,1.8-0.1c0.6,0,1.2-0.1,1.6-0.3c0.5-0.1,0.8-0.3,1.1-0.6c0.3-0.3,0.5-0.6,0.7-1c0.2-0.4,0.2-1,0.2-1.6
				c0-1.1-0.3-2-0.8-2.6s-1.8-1-3.6-1c-0.3,0-0.6,0-1,0V50.5z"/>
			<path d="M170.3,52.7h0.5v5.5h-0.5c-0.1-0.6-0.4-1.2-0.8-1.7c-1.4,1.6-3.1,2.3-5.3,2.3c-2.3,0-4.1-0.7-5.6-2.2
				c-1.4-1.4-2.2-3.3-2.2-5.7c0-1.5,0.3-3,1-4.4c0.7-1.4,1.6-2.4,2.8-3c1.2-0.7,2.5-1,3.9-1c1.2,0,2.2,0.2,3.2,0.7
				c1,0.5,1.7,1,2.1,1.6c0.3-0.7,0.5-1.3,0.6-2h0.5l0.1,5.9h-0.5c-0.3-2.1-1.1-3.6-2.1-4.4c-1.1-0.8-2.3-1.2-3.6-1.2
				c-1.6,0-2.9,0.7-3.9,2s-1.5,3.2-1.5,5.7c0,2.4,0.5,4.2,1.6,5.4c1.1,1.3,2.4,1.9,3.9,1.9c0.8,0,1.7-0.2,2.6-0.6
				c0.9-0.4,1.6-1.1,2.1-2.1C169.9,54.6,170.2,53.7,170.3,52.7z"/>
			<path d="M171.1,43.5V43h7.2v0.5h-0.3c-0.8,0-1.3,0.1-1.5,0.2c-0.2,0.1-0.4,0.4-0.5,0.7c-0.1,0.3-0.1,1.2-0.1,2.5v7.7
				c0,1.2,0,2,0.1,2.4c0.1,0.4,0.2,0.7,0.5,0.8c0.3,0.2,0.7,0.3,1.4,0.3h0.5v0.5h-7.2v-0.5h0.5c0.7,0,1.1-0.1,1.4-0.3
				c0.3-0.2,0.4-0.4,0.5-0.8c0.1-0.4,0.1-1.2,0.1-2.5v-7.7c0-1.2,0-2.1-0.1-2.4c-0.1-0.4-0.2-0.6-0.5-0.8s-0.8-0.2-1.5-0.2H171.1z"
				/>
			<path d="M187.2,52.9h-6l-0.4,1c-0.6,1.4-0.9,2.4-0.9,2.8c0,0.5,0.2,0.8,0.5,1.1c0.3,0.2,0.7,0.4,1.2,0.4v0.5H177v-0.5
				c0.7-0.1,1.2-0.4,1.5-0.7c0.3-0.4,0.7-1.2,1.2-2.4c0-0.1,0.2-0.6,0.6-1.3l4.6-10.9h0.5l5.2,12.5l0.7,1.6c0.2,0.4,0.4,0.7,0.7,0.9
				c0.3,0.2,0.7,0.3,1.2,0.4v0.5H187v-0.5c0.8,0,1.3-0.1,1.5-0.2c0.3-0.1,0.4-0.3,0.4-0.7c0-0.2-0.2-0.7-0.5-1.5L187.2,52.9z
				 M187,52.3l-2.8-6.7l-2.8,6.7H187z"/>
			<path d="M205.2,54l-0.1,4.6h-13.3v-0.5h0.5c0.7,0,1.1-0.1,1.4-0.3c0.3-0.2,0.4-0.4,0.5-0.8c0.1-0.4,0.1-1.2,0.1-2.5v-7.7
				c0-1.2,0-2.1-0.1-2.4c-0.1-0.4-0.2-0.6-0.5-0.8c-0.2-0.1-0.8-0.2-1.5-0.2h-0.3V43h7.5v0.5h-0.7c-0.8,0-1.3,0.1-1.5,0.2
				c-0.2,0.1-0.4,0.4-0.5,0.7c-0.1,0.3-0.1,1.2-0.1,2.5v8.2c0,1.1,0,1.8,0.1,2.1c0.1,0.3,0.2,0.5,0.5,0.7c0.3,0.2,0.9,0.2,1.8,0.2
				h1.2c1,0,1.7-0.1,2.1-0.3c0.5-0.2,0.9-0.5,1.3-1.1c0.4-0.6,0.8-1.5,1.2-2.7H205.2z"/>
			<path d="M222.7,50.4h-8.5l-0.6,1.4c-0.9,2.1-1.3,3.4-1.3,4c0,0.7,0.2,1.2,0.7,1.5c0.5,0.3,1,0.5,1.8,0.5v0.8h-6.7v-0.8
				c1-0.2,1.7-0.5,2.2-1c0.5-0.5,1.1-1.7,1.8-3.4c0.1-0.2,0.3-0.8,0.8-1.9l6.5-15.5h0.6l7.5,17.8l1,2.3c0.2,0.5,0.5,0.9,0.9,1.2
				c0.4,0.3,1,0.5,1.8,0.6v0.8h-8.8v-0.8c1.1,0,1.8-0.1,2.2-0.2c0.4-0.2,0.6-0.5,0.6-0.9c0-0.2-0.3-1-0.8-2.2L222.7,50.4z
				 M222.4,49.6l-4-9.5l-3.9,9.5H222.4z"/>
			<path d="M235.4,51.3v3.3c0,1.2,0,2,0.1,2.4c0.1,0.4,0.2,0.7,0.5,0.8c0.3,0.2,0.7,0.3,1.4,0.3h0.5v0.5h-7.2v-0.5h0.4
				c0.7,0,1.1-0.1,1.4-0.3c0.3-0.2,0.4-0.4,0.5-0.8c0.1-0.4,0.1-1.2,0.1-2.5v-7.7c0-1.2,0-2.1-0.1-2.4c-0.1-0.4-0.2-0.6-0.5-0.8
				s-0.8-0.2-1.5-0.2h-0.3V43l2-0.1c1.6-0.1,2.8-0.1,3.7-0.1c1.6,0,2.9,0.1,3.7,0.4c0.9,0.3,1.6,0.7,2.2,1.4
				c0.6,0.6,0.8,1.5,0.8,2.5c0,0.9-0.2,1.6-0.6,2.3c-0.4,0.7-0.9,1.2-1.6,1.5c-0.7,0.3-2,0.5-3.8,0.5H235.4z M235.4,50.7h1.1
				c0.9,0,1.6-0.1,2.2-0.3c0.6-0.2,1-0.6,1.4-1.1c0.4-0.6,0.6-1.3,0.6-2.1c0-1.3-0.3-2.2-1-2.8c-0.6-0.6-1.7-0.9-3.1-0.9
				c-0.5,0-0.9,0-1.2,0V50.7z"/>
			<path d="M246.4,51.3v3.3c0,1.2,0,2,0.1,2.4c0.1,0.4,0.2,0.7,0.5,0.8c0.3,0.2,0.7,0.3,1.4,0.3h0.5v0.5h-7.2v-0.5h0.4
				c0.7,0,1.1-0.1,1.4-0.3s0.4-0.4,0.5-0.8c0.1-0.4,0.1-1.2,0.1-2.5v-7.7c0-1.2,0-2.1-0.1-2.4c-0.1-0.4-0.2-0.6-0.5-0.8
				c-0.2-0.1-0.8-0.2-1.5-0.2h-0.3V43l2-0.1c1.6-0.1,2.8-0.1,3.7-0.1c1.6,0,2.9,0.1,3.7,0.4c0.9,0.3,1.6,0.7,2.2,1.4
				c0.6,0.6,0.8,1.5,0.8,2.5c0,0.9-0.2,1.6-0.6,2.3c-0.4,0.7-0.9,1.2-1.6,1.5c-0.7,0.3-2,0.5-3.8,0.5H246.4z M246.4,50.7h1.1
				c0.9,0,1.6-0.1,2.2-0.3c0.6-0.2,1-0.6,1.4-1.1c0.4-0.6,0.6-1.3,0.6-2.1c0-1.3-0.3-2.2-1-2.8c-0.6-0.6-1.7-0.9-3.1-0.9
				c-0.5,0-0.9,0-1.2,0V50.7z"/>
			<path d="M265.4,53.8h0.6l-0.3,4.9h-13v-0.5h0.3c0.8,0,1.3-0.1,1.5-0.3c0.2-0.2,0.4-0.5,0.4-0.8c0.1-0.3,0.1-1.1,0.1-2.4v-7.7
				c0-1.2,0-2-0.1-2.4c-0.1-0.4-0.2-0.6-0.5-0.8c-0.2-0.2-0.7-0.2-1.5-0.2V43h11.2l0.4,3.9H264c-0.2-1.1-0.5-1.9-0.9-2.3
				c-0.4-0.5-0.8-0.7-1.3-0.9c-0.5-0.1-1.3-0.2-2.4-0.2h-2.2v6.6h1.7c0.8,0,1.3-0.1,1.6-0.2c0.3-0.1,0.5-0.3,0.6-0.6
				c0.1-0.3,0.1-0.8,0.1-1.6h0.5v5.4h-0.5c0-0.9-0.1-1.5-0.2-1.8c-0.1-0.3-0.4-0.5-0.6-0.6s-0.8-0.1-1.4-0.1h-1.7v3.7
				c0,1.9,0.1,3,0.4,3.3c0.2,0.3,0.9,0.5,1.9,0.5h1.2c0.8,0,1.5-0.1,2-0.3c0.5-0.2,1-0.6,1.5-1.3C264.8,55.8,265.1,54.9,265.4,53.8z
				"/>
			<path d="M274.5,52.9h-6l-0.4,1c-0.6,1.4-0.9,2.4-0.9,2.8c0,0.5,0.2,0.8,0.5,1.1c0.3,0.2,0.7,0.4,1.2,0.4v0.5h-4.7v-0.5
				c0.7-0.1,1.2-0.4,1.5-0.7c0.3-0.4,0.7-1.2,1.2-2.4c0-0.1,0.2-0.6,0.6-1.3l4.6-10.9h0.5l5.2,12.5l0.7,1.6c0.2,0.4,0.4,0.7,0.7,0.9
				c0.3,0.2,0.7,0.3,1.2,0.4v0.5h-6.2v-0.5c0.8,0,1.3-0.1,1.5-0.2c0.3-0.1,0.4-0.3,0.4-0.7c0-0.2-0.2-0.7-0.5-1.5L274.5,52.9z
				 M274.4,52.3l-2.8-6.7l-2.8,6.7H274.4z"/>
			<path d="M292.1,54l-0.1,4.6h-13.3v-0.5h0.5c0.7,0,1.1-0.1,1.4-0.3c0.3-0.2,0.4-0.4,0.5-0.8c0.1-0.4,0.1-1.2,0.1-2.5v-7.7
				c0-1.2,0-2.1-0.1-2.4c-0.1-0.4-0.2-0.6-0.5-0.8c-0.2-0.1-0.8-0.2-1.5-0.2h-0.3V43h7.5v0.5h-0.7c-0.8,0-1.3,0.1-1.5,0.2
				c-0.2,0.1-0.4,0.4-0.5,0.7c-0.1,0.3-0.1,1.2-0.1,2.5v8.2c0,1.1,0,1.8,0.1,2.1c0.1,0.3,0.2,0.5,0.5,0.7c0.3,0.2,0.9,0.2,1.8,0.2
				h1.2c1,0,1.7-0.1,2.1-0.3c0.5-0.2,0.9-0.5,1.3-1.1c0.4-0.6,0.8-1.5,1.2-2.7H292.1z"/>
		</g>
		<g>
			<path d="M182.7,72.4v-8.8h1.8l2.1,6.2c0.2,0.6,0.3,1,0.4,1.3c0.1-0.3,0.3-0.8,0.5-1.4l2.1-6.1h1.6v8.8h-1.1V65l-2.6,7.4h-1.1
				l-2.5-7.5v7.5H182.7z"/>
			<path d="M196.9,70.3l1.1,0.1c-0.2,0.7-0.5,1.2-1,1.5s-1.1,0.5-1.8,0.5c-0.9,0-1.7-0.3-2.2-0.9s-0.8-1.4-0.8-2.4
				c0-1.1,0.3-1.9,0.8-2.5c0.6-0.6,1.3-0.9,2.2-0.9c0.9,0,1.5,0.3,2.1,0.9s0.8,1.4,0.8,2.5c0,0.1,0,0.2,0,0.3h-4.8
				c0,0.7,0.2,1.2,0.6,1.6c0.4,0.4,0.8,0.6,1.3,0.6c0.4,0,0.7-0.1,1-0.3C196.5,71.1,196.7,70.8,196.9,70.3z M193.3,68.6h3.6
				c0-0.5-0.2-0.9-0.4-1.2c-0.3-0.4-0.8-0.6-1.3-0.6c-0.5,0-0.9,0.2-1.3,0.5C193.5,67.6,193.3,68,193.3,68.6z"/>
			<path d="M199,72.4V66h1v0.9c0.2-0.3,0.5-0.6,0.8-0.8s0.7-0.3,1.1-0.3c0.5,0,0.9,0.1,1.2,0.3s0.5,0.5,0.6,0.8
				c0.5-0.7,1.2-1.1,2-1.1c0.6,0,1.1,0.2,1.5,0.5c0.3,0.3,0.5,0.9,0.5,1.6v4.4h-1.1v-4c0-0.4,0-0.7-0.1-0.9
				c-0.1-0.2-0.2-0.3-0.4-0.5c-0.2-0.1-0.4-0.2-0.6-0.2c-0.4,0-0.8,0.1-1.1,0.4c-0.3,0.3-0.4,0.8-0.4,1.4v3.7h-1.1v-4.1
				c0-0.5-0.1-0.8-0.3-1.1c-0.2-0.2-0.5-0.4-0.9-0.4c-0.3,0-0.6,0.1-0.8,0.2c-0.3,0.2-0.4,0.4-0.6,0.7c-0.1,0.3-0.2,0.8-0.2,1.3v3.3
				H199z"/>
			<path d="M209,74.8V66h1v0.8c0.2-0.3,0.5-0.6,0.8-0.7c0.3-0.2,0.6-0.2,1.1-0.2c0.5,0,1,0.1,1.4,0.4c0.4,0.3,0.7,0.7,0.9,1.2
				c0.2,0.5,0.3,1.1,0.3,1.7c0,0.7-0.1,1.2-0.4,1.8s-0.6,0.9-1,1.2c-0.4,0.3-0.9,0.4-1.4,0.4c-0.4,0-0.7-0.1-1-0.2
				c-0.3-0.2-0.5-0.3-0.7-0.6v3.1H209z M209.9,69.2c0,0.8,0.2,1.4,0.5,1.8s0.7,0.6,1.2,0.6c0.5,0,0.9-0.2,1.2-0.6
				c0.3-0.4,0.5-1,0.5-1.9c0-0.8-0.2-1.4-0.5-1.8c-0.3-0.4-0.7-0.6-1.2-0.6c-0.5,0-0.9,0.2-1.2,0.6
				C210.1,67.8,209.9,68.4,209.9,69.2z"/>
			<path d="M215.5,72.4v-8.8h1.1v3.2c0.5-0.6,1.1-0.9,1.9-0.9c0.5,0,0.9,0.1,1.2,0.3c0.3,0.2,0.6,0.4,0.7,0.8
				c0.2,0.3,0.2,0.8,0.2,1.4v4h-1.1v-4c0-0.5-0.1-0.9-0.4-1.2c-0.2-0.2-0.6-0.4-1-0.4c-0.3,0-0.6,0.1-0.9,0.2
				c-0.3,0.2-0.5,0.4-0.6,0.7c-0.1,0.3-0.2,0.7-0.2,1.2v3.5H215.5z"/>
			<path d="M222,64.8v-1.2h1.1v1.2H222z M222,72.4V66h1.1v6.4H222z"/>
			<path d="M224,70.5l1.1-0.2c0.1,0.4,0.2,0.8,0.5,1c0.3,0.2,0.7,0.3,1.2,0.3c0.5,0,0.9-0.1,1.1-0.3c0.2-0.2,0.4-0.4,0.4-0.7
				c0-0.2-0.1-0.4-0.3-0.6c-0.1-0.1-0.5-0.2-1.1-0.4c-0.8-0.2-1.3-0.4-1.6-0.5s-0.5-0.3-0.7-0.6c-0.2-0.3-0.2-0.5-0.2-0.9
				c0-0.3,0.1-0.5,0.2-0.8c0.1-0.2,0.3-0.4,0.5-0.6c0.2-0.1,0.4-0.2,0.7-0.3c0.3-0.1,0.6-0.1,0.9-0.1c0.5,0,0.9,0.1,1.3,0.2
				c0.4,0.1,0.7,0.3,0.8,0.6c0.2,0.2,0.3,0.6,0.4,1l-1.1,0.1c0-0.3-0.2-0.6-0.4-0.8s-0.6-0.3-1-0.3c-0.5,0-0.9,0.1-1.1,0.2
				c-0.2,0.2-0.3,0.4-0.3,0.6c0,0.1,0,0.3,0.1,0.4c0.1,0.1,0.2,0.2,0.4,0.3c0.1,0,0.4,0.1,1,0.3c0.8,0.2,1.3,0.4,1.6,0.5
				s0.5,0.3,0.7,0.6c0.2,0.2,0.3,0.6,0.3,0.9c0,0.4-0.1,0.7-0.3,1c-0.2,0.3-0.5,0.6-0.9,0.7c-0.4,0.2-0.8,0.3-1.3,0.3
				c-0.8,0-1.5-0.2-1.9-0.5S224.1,71.2,224,70.5z"/>
			<path d="M230.6,72.4v-1.2h1.2v1.2c0,0.5-0.1,0.8-0.2,1.1c-0.2,0.3-0.4,0.5-0.8,0.6l-0.3-0.5c0.2-0.1,0.4-0.2,0.5-0.4
				c0.1-0.2,0.2-0.5,0.2-0.8H230.6z"/>
			<path d="M238.7,72.4v-7.8h-2.9v-1h7v1h-2.9v7.8H238.7z"/>
			<path d="M246.5,70.3l1.1,0.1c-0.2,0.7-0.5,1.2-1,1.5s-1.1,0.5-1.8,0.5c-0.9,0-1.7-0.3-2.2-0.9s-0.8-1.4-0.8-2.4
				c0-1.1,0.3-1.9,0.8-2.5c0.6-0.6,1.3-0.9,2.2-0.9c0.9,0,1.5,0.3,2.1,0.9s0.8,1.4,0.8,2.5c0,0.1,0,0.2,0,0.3h-4.8
				c0,0.7,0.2,1.2,0.6,1.6c0.4,0.4,0.8,0.6,1.3,0.6c0.4,0,0.7-0.1,1-0.3C246.1,71.1,246.3,70.8,246.5,70.3z M242.9,68.6h3.6
				c0-0.5-0.2-0.9-0.4-1.2c-0.3-0.4-0.8-0.6-1.3-0.6c-0.5,0-0.9,0.2-1.3,0.5C243.2,67.6,243,68,242.9,68.6z"/>
			<path d="M248.7,72.4V66h1v0.9c0.5-0.7,1.1-1.1,2-1.1c0.4,0,0.7,0.1,1.1,0.2c0.3,0.1,0.6,0.3,0.7,0.5c0.2,0.2,0.3,0.5,0.3,0.8
				c0,0.2,0.1,0.6,0.1,1.1v3.9h-1.1v-3.9c0-0.4,0-0.8-0.1-1c-0.1-0.2-0.2-0.4-0.4-0.5c-0.2-0.1-0.5-0.2-0.8-0.2
				c-0.5,0-0.9,0.1-1.2,0.4c-0.3,0.3-0.5,0.8-0.5,1.7v3.5H248.7z"/>
			<path d="M255.2,72.4V66h1v0.9c0.5-0.7,1.1-1.1,2-1.1c0.4,0,0.7,0.1,1.1,0.2c0.3,0.1,0.6,0.3,0.7,0.5c0.2,0.2,0.3,0.5,0.3,0.8
				c0,0.2,0.1,0.6,0.1,1.1v3.9h-1.1v-3.9c0-0.4,0-0.8-0.1-1c-0.1-0.2-0.2-0.4-0.4-0.5c-0.2-0.1-0.5-0.2-0.8-0.2
				c-0.5,0-0.9,0.1-1.2,0.4c-0.3,0.3-0.5,0.8-0.5,1.7v3.5H255.2z"/>
			<path d="M266.1,70.3l1.1,0.1c-0.2,0.7-0.5,1.2-1,1.5s-1.1,0.5-1.8,0.5c-0.9,0-1.7-0.3-2.2-0.9c-0.5-0.6-0.8-1.4-0.8-2.4
				c0-1.1,0.3-1.9,0.8-2.5c0.6-0.6,1.3-0.9,2.2-0.9c0.9,0,1.5,0.3,2.1,0.9s0.8,1.4,0.8,2.5c0,0.1,0,0.2,0,0.3h-4.8
				c0,0.7,0.2,1.2,0.6,1.6s0.8,0.6,1.3,0.6c0.4,0,0.7-0.1,1-0.3C265.7,71.1,265.9,70.8,266.1,70.3z M262.5,68.6h3.6
				c0-0.5-0.2-0.9-0.4-1.2c-0.3-0.4-0.8-0.6-1.3-0.6c-0.5,0-0.9,0.2-1.3,0.5S262.6,68,262.5,68.6z"/>
			<path d="M267.8,70.5l1.1-0.2c0.1,0.4,0.2,0.8,0.5,1c0.3,0.2,0.7,0.3,1.2,0.3c0.5,0,0.9-0.1,1.1-0.3c0.2-0.2,0.4-0.4,0.4-0.7
				c0-0.2-0.1-0.4-0.3-0.6c-0.1-0.1-0.5-0.2-1.1-0.4c-0.8-0.2-1.3-0.4-1.6-0.5c-0.3-0.1-0.5-0.3-0.7-0.6c-0.2-0.3-0.2-0.5-0.2-0.9
				c0-0.3,0.1-0.5,0.2-0.8s0.3-0.4,0.5-0.6c0.2-0.1,0.4-0.2,0.7-0.3c0.3-0.1,0.6-0.1,0.9-0.1c0.5,0,0.9,0.1,1.3,0.2
				c0.4,0.1,0.7,0.3,0.8,0.6c0.2,0.2,0.3,0.6,0.4,1l-1.1,0.1c0-0.3-0.2-0.6-0.4-0.8c-0.2-0.2-0.6-0.3-1-0.3c-0.5,0-0.9,0.1-1.1,0.2
				c-0.2,0.2-0.3,0.4-0.3,0.6c0,0.1,0,0.3,0.1,0.4c0.1,0.1,0.2,0.2,0.4,0.3c0.1,0,0.4,0.1,1,0.3c0.8,0.2,1.3,0.4,1.6,0.5
				s0.5,0.3,0.7,0.6c0.2,0.2,0.3,0.6,0.3,0.9c0,0.4-0.1,0.7-0.3,1s-0.5,0.6-0.9,0.7c-0.4,0.2-0.8,0.3-1.3,0.3
				c-0.8,0-1.5-0.2-1.9-0.5C268.2,71.7,268,71.2,267.8,70.5z"/>
			<path d="M273.7,70.5l1.1-0.2c0.1,0.4,0.2,0.8,0.5,1c0.3,0.2,0.7,0.3,1.2,0.3c0.5,0,0.9-0.1,1.1-0.3c0.2-0.2,0.4-0.4,0.4-0.7
				c0-0.2-0.1-0.4-0.3-0.6c-0.1-0.1-0.5-0.2-1.1-0.4c-0.8-0.2-1.3-0.4-1.6-0.5c-0.3-0.1-0.5-0.3-0.7-0.6s-0.2-0.5-0.2-0.9
				c0-0.3,0.1-0.5,0.2-0.8s0.3-0.4,0.5-0.6c0.2-0.1,0.4-0.2,0.7-0.3c0.3-0.1,0.6-0.1,0.9-0.1c0.5,0,0.9,0.1,1.3,0.2
				c0.4,0.1,0.7,0.3,0.8,0.6c0.2,0.2,0.3,0.6,0.4,1l-1.1,0.1c0-0.3-0.2-0.6-0.4-0.8c-0.2-0.2-0.6-0.3-1-0.3c-0.5,0-0.9,0.1-1.1,0.2
				c-0.2,0.2-0.3,0.4-0.3,0.6c0,0.1,0,0.3,0.1,0.4c0.1,0.1,0.2,0.2,0.4,0.3c0.1,0,0.4,0.1,1,0.3c0.8,0.2,1.3,0.4,1.6,0.5
				s0.5,0.3,0.7,0.6c0.2,0.2,0.3,0.6,0.3,0.9c0,0.4-0.1,0.7-0.3,1s-0.5,0.6-0.9,0.7c-0.4,0.2-0.8,0.3-1.3,0.3
				c-0.8,0-1.5-0.2-1.9-0.5C274.1,71.7,273.8,71.2,273.7,70.5z"/>
			<path d="M284.3,70.3l1.1,0.1c-0.2,0.7-0.5,1.2-1,1.5s-1.1,0.5-1.8,0.5c-0.9,0-1.7-0.3-2.2-0.9s-0.8-1.4-0.8-2.4
				c0-1.1,0.3-1.9,0.8-2.5s1.3-0.9,2.2-0.9c0.9,0,1.5,0.3,2.1,0.9c0.5,0.6,0.8,1.4,0.8,2.5c0,0.1,0,0.2,0,0.3h-4.8
				c0,0.7,0.2,1.2,0.6,1.6s0.8,0.6,1.3,0.6c0.4,0,0.7-0.1,1-0.3C283.9,71.1,284.1,70.8,284.3,70.3z M280.8,68.6h3.6
				c0-0.5-0.2-0.9-0.4-1.2c-0.3-0.4-0.8-0.6-1.3-0.6c-0.5,0-0.9,0.2-1.3,0.5C281,67.6,280.8,68,280.8,68.6z"/>
			<path d="M290.8,70.3l1.1,0.1c-0.2,0.7-0.5,1.2-1,1.5s-1.1,0.5-1.8,0.5c-0.9,0-1.7-0.3-2.2-0.9c-0.5-0.6-0.8-1.4-0.8-2.4
				c0-1.1,0.3-1.9,0.8-2.5c0.6-0.6,1.3-0.9,2.2-0.9c0.9,0,1.5,0.3,2.1,0.9s0.8,1.4,0.8,2.5c0,0.1,0,0.2,0,0.3h-4.8
				c0,0.7,0.2,1.2,0.6,1.6c0.4,0.4,0.8,0.6,1.3,0.6c0.4,0,0.7-0.1,1-0.3C290.5,71.1,290.7,70.8,290.8,70.3z M287.3,68.6h3.6
				c0-0.5-0.2-0.9-0.4-1.2c-0.3-0.4-0.8-0.6-1.3-0.6c-0.5,0-0.9,0.2-1.3,0.5S287.3,68,287.3,68.6z"/>
		</g>
	</g>
</g>
<g id="Layer_1">
</g>
</svg>
