<?xml version="1.0" encoding="utf-8"?>
<!-- Generator: Adobe Illustrator 18.0.0, SVG Export Plug-In . SVG Version: 6.00 Build 0)  -->
<!DOCTYPE svg PUBLIC "-//W3C//DTD SVG 1.1//EN" "http://www.w3.org/Graphics/SVG/1.1/DTD/svg11.dtd">
<svg version="1.1" xmlns="http://www.w3.org/2000/svg" xmlns:xlink="http://www.w3.org/1999/xlink" x="0px" y="0px"
	 viewBox="0 0 300 100" style="enable-background:new 0 0 300 100;" xml:space="preserve">
<style type="text/css">
	.st0{fill-rule:evenodd;clip-rule:evenodd;}
	.st1{fill-rule:evenodd;clip-rule:evenodd;fill:#C038F9;}
	.st2{fill:none;}
	.st3{fill-rule:evenodd;clip-rule:evenodd;fill:#231F20;}
</style>
<g id="Layer_2">
</g>
<g id="Layer_1">
	<g>
		<path d="M59.3,19.9c0,22.2,0,44.2,0,66.7c1.7-2.5,2.3-4.7,2.8-7.2c0.8-4.5,0.5-9.1,0.5-13.6c0.1-12.3,0-24.6,0-36.8
			c0-2.2-0.2-4.2-1.3-6.5c5.3-3.4,10.5-6.9,15.7-10.2c0.9,0.2,0.7,0.8,0.7,1.6c-2.4,1.9-2.8,4.5-2.8,7.5c0.1,14.3,0,28.7,0,43
			c0,6.2-1.9,11.7-5.8,16.6c-1.2,1.4-2.7,2.5-4.2,3.5c-4.8,3.3-9.8,6.5-14.7,9.7c-0.3,0.2-0.7,0.1-1.2,0.1
			c-4.4-2.9-8.9-5.8-13.4-8.9c-1.8-1.3-3.6-1.8-5.7-1.4c-1.5,2-1.5,2.1,0.1,4.8c-2.4-0.5-2.5-2.5-3.2-4.2c0.2-0.3,0.5-0.7,0.5-1.1
			c0.5-3.7,3.3-5.4,6.3-6.4c5.6-1.7,11.5-0.1,15.7,2.8c2.2,1.5,4.5,3.1,6.7,4.6c0.2,0.1,0.4,0,0.8,0c0-9,0-18.1,0-27
			c-0.5-1.4-2-1-2.9-1.7c-1.8,0.5-3.6,1-5.2,2.8c0-6,3.8-8.3,8.1-10.2c0.3-1,0.2-1.9,0-2.8c-0.7-1-1.7-1.3-2.7-1.7
			c-2,0.3-3.8,1-5.2,2.8c-0.4-4.4,1.8-8,8-10.1c0-5.2,0-10.5,0-15.9c-4.3-1.2-8.5-2.7-12.9-3.5c-2.7-0.5-5.6-0.5-8.5,0.4
			c-2.7,0.9-4.9,2.3-6.2,5c0,0.9,0,1.9,0,2.9c0.7,1,1.5,1.8,2.7,2.7c1.2,0,2.6,0,4,0c0.3,1-0.1,1.2-0.8,1.2c-1.5,0-3,0-4.4,0
			c-1.2-0.5-2.3-1.1-3.2-2c-0.8-0.7-1.3-1.7-1.6-2.6c-1.7-5,0.7-11.3,5.3-14c3-1.8,6.3-3.1,9.9-2.9c3,0.2,6.1-0.2,9.2,0.7
			c1.7,0.5,3.4,1.1,5,1.9c6.8,3.5,12.8,2.8,19.7-1c0.3,0.3,0.6,0.5,1,0.9c-1.8,2-4.3,3.1-6.4,4.5c-1.2,0.8-2.6,1.4-3.7,2.3
			C64.4,18.8,62,19.4,59.3,19.9z"/>
		<path d="M184.5,46.1c-1.3-1.4-2.8-2.9-4.3-4.5c2.5-2.3,5.5-3.5,8.1-5.4c1.8,1.6,4.1,2.4,5.6,4.1c0.7,0.9,0,1.9,0.8,2.8
			c3.4-2.2,6.8-4.5,10.4-6.8c2.7,1.8,5.6,3.7,8.4,5.6c0.1,1.6-1.7,1.2-2,2.5c0,9.7,0,19.5,0,29.4c1.3,1.5,3,2.3,4.7,3.5
			c-2.3,2.4-5.5,3.6-8.1,5.9c-2-1.7-4.5-2.6-6.3-4.6c0-11.2,0-22.4,0-33.5c-0.6-1.2-1.7-1.4-2.7-2c-1.5,1-3.1,2.1-4.8,3.2
			c0,9.6,0,19.2,0,28.8c1.1,0.7,2.1,1.4,3.2,2.2c-2.2,2.4-5.4,3.6-7.9,5.8c-2.6-1.8-5.3-3.5-7.9-5.3c0.2-1.7,2.1-1.4,2.7-2.8
			C184.5,65.5,184.5,55.9,184.5,46.1z"/>
		<path d="M116.2,46.1c-1.1-1.6-3.3-2.1-4.8-3.8c2.6-1.8,5.2-3.5,8-5.3c2.1,1.4,4.3,2.8,6.5,4.2c0,10.9,0,21.7,0,32.3
			c0.9,1.5,2.6,1.5,3.3,3c1.4-1.5,3.3-1.8,4.2-3.5c0-9.1,0-18.3,0-27.6c-1.3-0.9-2.6-1.9-4.1-2.9c2.5-2.2,5.5-3.6,8.3-5.6
			c2.5,1.7,5.1,3.5,7.6,5.1c0,1.6-1.4,1.5-2,2.3c0,9.7,0,19.4,0,29.2c1.7,1.3,3.3,2.6,5.2,4.1c-2.5,2-4.9,3.6-7.6,5
			c-2.8-1.8-5.5-3.6-8.4-5.6c-3,1.9-6.1,3.9-9.2,6c-3.2-2.1-6.3-4.2-9.5-6.4c0.4-1.2,1.8-1.1,2.5-2.2
			C116.2,65.2,116.2,55.7,116.2,46.1z"/>
		<path d="M81.3,47.6c6-3.9,12-7.8,18-11.7c3.1,1.9,6,3.7,8.8,5.9c0,10.4,0,20.7,0,31.4c-5.2,3.4-10.6,6.8-16.1,10.4
			c-3.5-2.2-7-4.3-10.7-6.6C81.3,67.4,81.3,57.7,81.3,47.6z M98.4,76.8c0-10.3,0-20.3,0-30.2c-1.9-1.3-3.8-2.5-5.5-3.6
			c-1.1,0.1-1.5,0.6-1.9,1.2c0,9.2,0,18.3,0,27.6C93.2,73.7,95.7,75.2,98.4,76.8z"/>
		<path d="M244.5,73.2c1.8,1.4,3.6,2.8,5.7,4.4c-2.5,1.7-4.9,3.3-7.3,4.9c-2.9-1.1-4.9-3.4-7.5-5.1c-3.4,1-5.8,4-9.2,5.4
			c-2.7-1.4-5.3-3.2-7.1-5.9c-3.2-4.7-2-9.4,0.5-13.9c1.7-3.1,4.2-5.6,6.2-8.4c-2.4-4.2-4.8-8.4-7.2-12.5c2.9-1.9,5.8-3.9,8.7-5.8
			c5.5,1.6,10.6,4.4,16.1,5c1.6-0.7,2.5-2.3,4.3-1.2c0.6,0.8-0.3,1.5-0.6,2c-2,3.3-2.7,6.9-2.6,10.7
			C244.5,59.4,244.5,66.2,244.5,73.2z M234.9,60.4c-2.7-1.2-5.2-2.4-7.8-3.5c-2.1,5.6-2.1,6.7-1.8,12.6c2.5,4.8,2.5,4.9,5.4,7.3
			c1.7-0.4,2.8-1.8,4.2-2.4C234.9,69.7,234.9,65.2,234.9,60.4z M222,43.2c-0.2,0.1-0.3,0.3-0.5,0.4c2.1,3.7,4.3,7.3,6.4,11
			c2.3,1,4.5,1.9,6.9,2.9c0-3.2,0-6.2,0-9.3C230.6,46.5,226.3,44.9,222,43.2z"/>
		<path d="M257.9,8.7c2.2,1.4,4.3,2.8,6.5,4.2c0,20.3,0,40.5,0,60.7c1.4,1.7,3.2,2.5,4.9,3.6c-2.2,2.5-5.5,3.5-7.9,5.8
			c-3.2-2.1-6.4-4.3-9.7-6.4c0.8-1.2,2.6-1.3,3.2-3c0-18.4,0-37,0-55.5c-1.2-1.7-3.2-2.4-5.1-3.8C252.5,12.3,255.1,10.6,257.9,8.7z"
			/>
		<path d="M164,74.6c1.5,1,2.7,1.8,4.1,2.7c-2.6,2.3-5.8,3.5-8.3,5.7c-2.8-2-5.5-3.8-8.2-5.8c1.1-0.5,1.9-1.1,2.7-2
			c0-9.5,0-19.1,0-28.8c-1.5-1.7-3.9-2.5-5.4-4.5c2.4-1.5,4.6-2.9,7.2-4.5c2.9,0.4,4.7,3,7.6,4.4c3.3-1.2,5.8-3.9,9.2-5.5
			c2.1,2.4,4.3,4.9,6.7,7.6c-2.9,4.1-5.9,8.2-8.8,12.3c-0.5-0.4-0.7-0.7-1.1-1c0.1-0.3,0.3-0.5,0.4-0.8c1.4-2.8,1.2-4.2-0.8-6.5
			c-0.7-0.8-1.5-1.5-2.2-2.2c-0.6-0.7-1.2-1.4-1.7-2c-1.7,0.8-1.4,2-1.4,3.1c0,6,0,11.9,0,17.9C164,68,164,71.2,164,74.6z"/>
		<path d="M103.4,25.7c0,1.5,0,2.7,0,3.9c0.3,0.4,0.8,0.9,1.4,1.6c-1.8,0-3.5,0-5.5,0c0.5-0.6,0.9-1.2,1.4-1.7c0-1,0-2,0-3.1
			c0-1.8,0-3.7,0-5.3c-0.1-1-1-1.2-1.3-2c2.6-0.3,5.2-0.1,7.7-0.2c0.6,0.6,1.2,1.1,1.7,1.6c0.3,1.3,0.2,2.4,0.1,3.4
			c-0.4,0.9-1.2,1.1-1.9,1.6c0.6,1.1,1.1,2.2,1.8,3.3c0.6,0.9,1,1.8,2.1,2.4c-1.1,0.7-2.1,0.1-2.8,0.2
			C105.5,30.2,105.7,27.3,103.4,25.7z M106.5,22.7c-0.6-1.4-1.1-2.8-3-3c-0.1,1.8-0.8,3.6,0.6,5.3C105.4,24.7,106.2,24.1,106.5,22.7
			z"/>
		<path d="M128.8,23.1c0,1.3,0,2.7,0,3.9c-1.7,5-5.7,4.5-9.6,4.3c-1.8-0.8-3-2.3-4.1-3.9c-0.9-5.7,1.2-9.5,9.5-8.4
			C126.4,19.8,127.8,21.2,128.8,23.1z M126,24.3c-1.8-3.7-1.8-3.7-4.7-4.6c-3.4,0.9-3.8,3.5-3.5,6.3c1,2.2,1.7,4.4,4.5,4.7
			C125.9,29.2,126,28.9,126,24.3z"/>
		<path d="M164.5,20.8c-0.4-0.5-0.8-1-1.5-1.8c2.1,0,3.9,0,5.7,0c4.2,0,5.4,0.8,7.4,4.5c0.4,2.6-0.2,4.8-2.2,6.5
			c-1,0.8-2.1,1.4-3.4,1.4c-2.4,0-4.8,0-7.2,0c-0.1-1,0.8-1.1,1.1-1.9C164.5,26.8,164.5,24,164.5,20.8z M166.9,29.8
			c0.6,0.3,1.1,0.5,1.5,0.7c1.8-0.5,3.8-0.4,4.5-2.6c0.5-6-0.2-7.4-5.3-7.9c-0.2,0.2-0.6,0.5-0.6,0.7
			C166.9,23.6,166.9,26.6,166.9,29.8z"/>
		<path d="M199.1,22.3c0,2.6,0,4.8,0,7.6c0,0.2,1,0.4,1.3,1.3c-1.3,0-2.6,0-3.8,0c-0.2-0.9,0.8-0.9,1.1-1.8c0-2.7,0-5.7,0-8.8
			c-0.4-0.4-0.8-0.9-1.4-1.6c1.4,0,2.6,0,3.9,0c2.4,2.2,4.1,5.3,7.1,7.5c0-1.9,0-3.7,0-5.5c0.2-0.9-1-1-1-2c1.2,0,2.5,0,3.7,0
			c0.1,0.9-0.8,1-1.2,2.2c0,2.9,0,6.4,0,10.4C204.5,29.3,202.7,25.1,199.1,22.3z"/>
		<path d="M188.6,23.1c0,1.4,0,2.6,0,3.8c-0.1,0.1-0.2,0.2-0.3,0.2c-0.2-0.4-0.5-0.7-0.7-1.1c-0.7-0.3-1.3-0.2-2.1-0.1
			c-0.6,1.1-0.1,2.4-0.4,3.8c0.3,0.3,0.6,0.6,1,1c1.1-0.3,2-0.6,3-0.8c0.5-0.6,0.5-1.6,1.5-1.8c0.4,1,0.2,2,0.1,3.3
			c-3,0-6.1,0-9.6,0c0.6-0.8,1.1-1.3,1.5-1.9c0-2.9,0-5.7,0-8.7c-0.4-0.4-0.8-1-1.4-1.7c3,0,5.8,0,8.8,0c0.5,0.9,0.2,2,0.1,3.1
			c-1.1-0.1-1.1-1.1-1.6-1.7c-0.9-0.3-1.9-0.5-3-0.9c0,1.6,0,3.1,0,4.5C186.8,25.2,187.5,23.7,188.6,23.1z"/>
		<path d="M85.4,20.7c-0.5-0.6-0.9-1-1.3-1.4c0.3-0.1,0.5-0.3,0.7-0.3c2.9,0.3,6.2-1,8.8,1.7c0,1.1,0,2.2,0,3.4
			c-0.4,0.7-1,1.1-1.8,1.7c-1,0-2.1,0.1-3.4,0.2c-0.6,1.1-0.1,2.4-0.3,3.6c0.5,0.5,0.9,1,1.5,1.7c-1.9,0-3.6,0-5.3,0
			c-0.1-0.8,0.8-0.9,1.1-1.8C85.4,26.8,85.4,23.8,85.4,20.7z M88,19.6c0.6,2-0.8,3.9,1,5.4c1.3-0.3,2.1-1.1,2.3-2.2
			C90.9,21.2,90.2,20,88,19.6z"/>
		<path d="M238,19.7c-1.7,1.3-0.8,2.9-1.1,4.3c0.7,0.8,1.5,0.5,2.3,0.4c0.6-0.3,0.3-1.6,1.5-1.2c0,0.1,0.3,0.2,0.3,0.4
			c0,1.1,0,2.3,0,3.9c-1.2-1.3-2.2-2.1-3.8-1.5c-0.5,0.9-0.2,1.9-0.2,2.8c0.4,0.8,1,1.3,1.7,1.7c1.9,0,2.8-1.5,3.8-2.8
			c1,1.3,0.3,2.4,0.6,3.5c-3.4,0-6.4,0-9.5,0c-0.1-0.9,0.8-1,1.1-1.8c0-2.7,0-5.7,0-8.7c-0.4-0.5-0.8-1-1.4-1.7c3,0,5.8,0,8.8,0
			c0.3,1,0.4,2.1,0,3.2c-0.8-0.3-1.1-0.9-1.3-1.7C240,20.4,239.1,20,238,19.7z"/>
		<path d="M227.2,19.4c0,1.5,0,2.5,0,4c-1.4-1.9-2.4-3.8-4.7-3.7c-1.7,0.1-3,1-3.9,2.3c-0.6,1.8-0.4,3.7-0.1,5.5
			c1.8,2.1,1.8,2.1,4.3,3.1c1.8-0.3,3-1.4,4.3-2.8c0.3,0.7,0.6,1.2,0.9,1.8c-2.5,2.5-5.7,1.5-8.9,1.7c-1.6-1.1-3.1-2.2-3.6-4.4
			c-0.8-3.5,0.6-6.9,3.9-7.8C221.8,18.6,224.5,18.7,227.2,19.4z"/>
		<path d="M140.6,27.7c1.2-2.5,1.5-4.9,2.8-6.8c-0.5-0.6-0.9-1.2-1.5-1.8c1.6,0,3,0,5.4,0c-2.3,0.8-2.8,2.1-3.3,3.5
			c-1,2.7-2.3,5.4-3.4,8.1c-0.1,0.3-0.2,0.6-0.9,0.6c-2.5-3.7-3.6-8.4-6.7-12.2c1.9,0,3.6,0,5.6,0c-0.5,0.5-0.8,1-1.2,1.5
			C138.3,22.8,139.3,25,140.6,27.7z"/>
		<path d="M152.9,20.8c-0.5-0.6-0.9-1-1.4-1.7c1.9,0,3.6,0,5.3,0c0.1,0.9-0.8,1-1.1,1.8c0,2.7,0,5.7,0,8.8c0.3,0.4,0.8,0.9,1.4,1.6
			c-1.8,0-3.5,0-5.5,0c0.5-0.6,0.9-1.1,1.3-1.7C152.9,26.7,152.9,23.9,152.9,20.8z"/>
	</g>
</g>
</svg>
