<?xml version="1.0" encoding="utf-8"?>
<!-- Generator: Adobe Illustrator 18.0.0, SVG Export Plug-In . SVG Version: 6.00 Build 0)  -->
<!DOCTYPE svg PUBLIC "-//W3C//DTD SVG 1.1//EN" "http://www.w3.org/Graphics/SVG/1.1/DTD/svg11.dtd">
<svg version="1.1" xmlns="http://www.w3.org/2000/svg" xmlns:xlink="http://www.w3.org/1999/xlink" x="0px" y="0px"
	 viewBox="0 0 300 100" style="enable-background:new 0 0 300 100;" xml:space="preserve">
<style type="text/css">
	.st0{fill-rule:evenodd;clip-rule:evenodd;}
	.st1{fill-rule:evenodd;clip-rule:evenodd;fill:#C038F9;}
	.st2{fill:none;}
	.st3{fill-rule:evenodd;clip-rule:evenodd;fill:#231F20;}
</style>
<g id="Layer_2">
</g>
<g id="Layer_1">
	<g>
		<path d="M224,20.1c-13.6,0-24.7,15.8-24.7,35.2s11.1,35.2,24.7,35.2c13.6,0,24.7-15.8,24.7-35.2S237.7,20.1,224,20.1z M235.2,35.2
			c-0.6,6.4-1.1,12.7-1.7,19.1c-0.3,3.3-0.6,6.6-0.4,9.9c0.1,1.8,0.2,3.5,0.3,5.2c0.1,0.9,0.1,1.8,0.2,2.7c0,0.5,0.3,2,0.1,2.4
			c0,0-0.7,0.3-0.9,0.3c-0.2,0-0.7-0.3-0.9-0.3c-0.3,0-0.8,0.3-1,0c-0.3-0.3-0.7-0.7-0.8-0.2c-0.6-0.4-1.5,0-2.1,0.2
			c-0.3,0.1-1,0.6-1.3,0.4c0.1,0-0.1-1.1-0.6-0.4c0.9,0.3-0.6,0.9-0.6,1.4c0,0-0.9,0.2-1,0.1c-0.3-0.1-0.4-0.6-0.4-0.8
			c-0.1-0.3,0.1-0.3,0-0.5c-0.1-0.2-0.3-0.4-0.4-0.7c0.1-0.4-0.7-1.1-0.9-1.3c0,0,0.1,0,0.1-0.1c0,0,0,0,0,0
			c-0.3-0.2-0.1-0.5-0.5-0.8c0,0,0.1,0,0.1-0.1c0,0-0.1,0-0.1,0c0.1-0.2,0-0.2,0-0.3c0.2-0.2,0.1-0.1,0.1-0.3c0,0,0.1,0,0.2,0
			c-0.1-0.2,0-0.2,0-0.5c0,0,0,0.1,0.1,0.1c0,0,0,0,0,0c0.1-0.1,0-0.2,0.2-0.2c0,0,0,0,0,0c0-0.3,0-0.5,0.2-0.7c0,0-0.1-0.1-0.1-0.1
			c0.1-0.2,0.1-0.2,0.3-0.5c0,0,0-0.3,0-0.3c-4.9,0.4-10-0.1-14.9,0c0.6-0.1,0.7-0.5,0.3-0.9c-0.3-0.3,0-0.6,0.1-0.9
			c-0.8-0.9-0.2-0.3,0.3-0.6c0.7-0.4-0.1-0.5,0.1-1.1c-0.1,0-0.1,0-0.2,0c-0.1-1.1,0.3,0,0.4,0c0.8,0.1,0.1-0.3,0-0.8
			c-0.2-0.9,1.1-0.7,0.7-1.2c-0.1-0.1-0.4,0.2-0.7-0.2c-0.3-0.4,0.8,0,0.9,0c0.2-0.1,0-0.6,0-0.8c0.1-0.2,0.4-0.3,0.4-0.4
			c0,0-0.1-0.4,0-0.6c0.1-0.2,0.5-0.6,0.5-0.2c0,0.6,0.4-0.2,0.5-0.4c0,0,0.3-0.4,0.3-0.4c-0.1,0.1,0-0.3,0.1-0.3
			c0.1-0.1,0.5,0,0.6-0.1c0.5-0.7-0.4-0.1-0.4-0.6c0-0.5,0.4,0.1,0.5,0.1c0.3-0.1,1.1-0.9,0.3-1.1c0.1,0.2,0,0.3,0,0.5
			c-0.3,0-0.8,0.1-0.9-0.3c-0.2-0.5,0.7-0.6,0.9-0.6c0.3-0.3,0.4,0.1,0.5,0c0.1-0.1,0.1-0.5,0.1-0.5c0.3-0.3,0.6-0.1,0.4-0.7
			c0,0.1-1.1-0.4-0.4-0.6c0.3-0.1,0.1-0.3,0-0.4c-0.1-0.1-0.6,0.2-0.9-0.2c-0.1-0.2-0.1-0.5,0.1-0.7c0,0.1,0.7,0.9,0.8,0.6
			c0.1-0.2-0.6-0.5-0.7-0.6c0.2-0.1,0.5-0.3,0.6-0.5c0.3-0.6-0.5,0.1-0.4,0.1c-0.3,0-0.9,0.4-0.8-0.3c0.1-0.7,0.9-0.2,0.5-0.8
			c-0.2-0.3-0.9,0-0.5-0.8c0.2-0.4,0.7-0.4,0.7-0.9c0-0.3-0.3-0.6-0.6-0.4c-0.1,0.1,0.2,0.6-0.2,0.6c-0.6,0.1-0.2-0.6-0.1-0.7
			c0.1-0.1,0.4-0.5,0.4-0.6c0-0.3-0.4-0.3-0.4-0.5c-0.1-0.8,0.1,0,0.5-0.3c0.3-0.2,0.3-0.7,0.3-0.9c0-0.2,0.3-0.3,0.1-0.5
			c-0.1-0.2-0.3,0.4-0.3,0.4c-0.2-0.2-0.4-0.7-0.3-1c0.1-0.2,1.1-1,0.3-0.8c0.1,0-1,1.1-0.8,0.2c0-0.1,1.2-0.2,0.4-0.7
			c-0.3-0.2-0.3,0.9-0.7,0.4c-0.1-0.1,0.4-0.3,0.4-0.5c0-0.2-0.5-0.4-0.3-0.6c0.2-0.3,0.8,0,0.7-0.5c-0.1-0.4-0.8-0.2-0.7-0.6
			c0.1-0.4,1.7,0.6,1.4,0c-0.1-0.2-1.4-0.3-0.7-0.8c0.1-0.1,1,0.4,1.1,0c0-0.1-0.6-0.4-0.6-0.7c0-0.4,1-0.5,0.1-0.7
			c-0.5-0.1,0.1-0.4,0.3-0.5c0.2,0.6,0.6,0.3,0.2-0.1c0.4,0,1,0,0.9-0.6c-0.1-0.2-0.6,0.1-0.7-0.3c-0.1-0.7,0.8,0,0.9-0.1
			c0.7-0.4-0.4-0.4-0.6-0.5c-0.5-0.3,0.1-0.5,0.5-0.1c0-0.7,0.5-0.7,0.8-1c0.2-0.2-0.4-0.5,0.5-0.4c0.1,0-0.3,0.5,0.2,0.3
			c-0.3,0.1,0.3-0.6,0.3-0.6c0.4-0.7,0.1-0.2,0.2-0.9c0-0.1,0.3-0.3,0.3-0.4c0-0.3-0.3-0.4-0.3-0.7c0-0.2,0-0.4,0-0.6
			c0.1-0.4,0.3,0.1,0.3,0.1c-0.2,0,0.2,0.9,0.5,0c0.2-0.5-1-0.1-0.6-0.9c0.4-0.6,0.2,0.3,0.2,0.2c0.7,0.4,0.4,0.1,0.4-0.4
			c0-0.1-0.1-0.8,0-0.8c0.3-0.3,0.4,0.4,0.6,0.4c0.4,0.2,0.8-0.3,0.9-0.5c0.3-0.5,0.3-0.6-0.2-0.9c2.9,0,5.8,0,8.7,0
			c1.6,0,3.2-0.1,4.7-0.1c0.7,0,1.9-0.2,2.4,0.1C235.2,33.8,235.2,34.4,235.2,35.2z"/>
		<g>
			<g>
				<path d="M22.1,48.6h6.7v4.3h0.1c0.7-1.6,1.8-2.8,3.2-3.7c1.4-0.9,3-1.3,4.8-1.3c0.4,0,0.8,0,1.2,0.1c0.4,0.1,0.8,0.2,1.2,0.3
					v6.5c-0.6-0.1-1.1-0.3-1.7-0.4c-0.5-0.1-1.1-0.1-1.6-0.1c-1.6,0-2.8,0.3-3.8,0.9c-1,0.6-1.7,1.2-2.2,2c-0.5,0.8-0.8,1.5-1,2.2
					c-0.2,0.8-0.3,1.3-0.3,1.7v14.4h-6.7V48.6z"/>
				<path d="M46.6,64.5c0.2,2,1,3.6,2.4,4.7c1.3,1.1,3,1.7,4.9,1.7c1.7,0,3.1-0.3,4.2-1c1.1-0.7,2.1-1.6,3-2.6l4.8,3.7
					c-1.6,1.9-3.3,3.3-5.3,4.2c-1.9,0.8-4,1.2-6.1,1.2c-2,0-3.9-0.3-5.7-1c-1.8-0.7-3.4-1.6-4.7-2.9c-1.3-1.2-2.4-2.7-3.1-4.5
					c-0.8-1.7-1.2-3.7-1.2-5.8c0-2.1,0.4-4.1,1.2-5.8c0.8-1.7,1.8-3.2,3.1-4.5c1.3-1.2,2.9-2.2,4.7-2.9c1.8-0.7,3.7-1,5.7-1
					c1.9,0,3.6,0.3,5.1,1c1.6,0.7,2.9,1.6,4,2.8c1.1,1.2,2,2.8,2.6,4.6c0.6,1.8,0.9,3.9,0.9,6.3v1.9H46.6z M60.5,59.4
					c0-2-0.7-3.6-1.9-4.7c-1.2-1.1-2.9-1.7-5-1.7c-2,0-3.6,0.6-4.8,1.7c-1.2,1.2-1.9,2.7-2.2,4.7H60.5z"/>
				<path d="M68.7,54.4v-5.7h5.6v-7.8H81v7.8h7.4v5.7H81v11.8c0,1.3,0.3,2.4,0.8,3.2c0.5,0.8,1.5,1.2,3,1.2c0.6,0,1.3-0.1,2-0.2
					c0.7-0.1,1.3-0.3,1.7-0.6v5.7c-0.7,0.3-1.6,0.6-2.6,0.7c-1,0.1-1.9,0.2-2.7,0.2c-1.8,0-3.3-0.2-4.4-0.6c-1.1-0.4-2-1-2.7-1.8
					c-0.7-0.8-1.1-1.8-1.3-3c-0.2-1.2-0.4-2.6-0.4-4.2V54.4H68.7z"/>
				<path d="M98.8,52.4h0.1c0.5-1.1,1.5-2.1,2.8-3.1c1.3-0.9,3-1.4,5.1-1.4c1.8,0,3.3,0.3,4.6,0.9c1.3,0.6,2.3,1.4,3.1,2.4
					c0.8,1,1.3,2.1,1.7,3.4c0.3,1.3,0.5,2.6,0.5,4v17h-6.7V62c0-0.7,0-1.6-0.1-2.5c-0.1-0.9-0.3-1.8-0.6-2.6c-0.3-0.8-0.8-1.5-1.5-2
					c-0.7-0.5-1.6-0.8-2.8-0.8c-1.1,0-2.1,0.2-2.8,0.6c-0.8,0.4-1.4,0.9-1.9,1.5c-0.5,0.6-0.9,1.4-1.1,2.2c-0.2,0.8-0.3,1.7-0.3,2.6
					v14.7h-6.7V33.1h6.7V52.4z"/>
				<path d="M121.8,39.5c0-1.1,0.4-2,1.2-2.8c0.8-0.8,1.8-1.2,3.1-1.2c1.2,0,2.3,0.4,3.1,1.2c0.8,0.8,1.3,1.7,1.3,2.9
					c0,1.2-0.4,2.1-1.3,2.9c-0.8,0.8-1.9,1.2-3.1,1.2c-1.2,0-2.3-0.4-3.1-1.2C122.2,41.5,121.8,40.6,121.8,39.5z M122.8,48.6h6.7v27
					h-6.7V48.6z"/>
				<path d="M135.6,48.6h6.4V53h0.1c0.6-1.3,1.6-2.5,2.9-3.5c1.3-1,3.1-1.5,5.3-1.5c1.8,0,3.3,0.3,4.6,0.9c1.3,0.6,2.3,1.4,3.1,2.4
					c0.8,1,1.3,2.1,1.7,3.4c0.3,1.3,0.5,2.6,0.5,4v17h-6.7V62c0-0.7,0-1.6-0.1-2.5c-0.1-0.9-0.3-1.8-0.6-2.6c-0.3-0.8-0.8-1.5-1.5-2
					c-0.7-0.5-1.6-0.8-2.8-0.8c-1.1,0-2.1,0.2-2.8,0.6c-0.8,0.4-1.4,0.9-1.9,1.5c-0.5,0.6-0.9,1.4-1.1,2.2c-0.2,0.8-0.3,1.7-0.3,2.6
					v14.7h-6.7V48.6z"/>
				<path d="M166.2,33.1h6.7v26.7l10.4-11.2h8.7l-11.6,12.3l12.3,14.7h-8.9L173,61.8h-0.1v13.8h-6.7V33.1z"/>
			</g>
			<g>
				<path d="M23.5,81.5h1.6v1h0c0.1-0.3,0.4-0.6,0.7-0.8c0.3-0.2,0.8-0.4,1.3-0.4c1,0,1.7,0.4,2,1.2c0.2-0.4,0.5-0.7,0.9-0.9
					c0.4-0.2,0.8-0.3,1.3-0.3c0.4,0,0.8,0.1,1.1,0.2c0.3,0.1,0.5,0.3,0.7,0.6c0.2,0.3,0.3,0.6,0.4,0.9c0.1,0.3,0.1,0.7,0.1,1.1V88
					H32v-3.7c0-0.2,0-0.4-0.1-0.6c0-0.2-0.1-0.3-0.2-0.5c-0.1-0.1-0.2-0.3-0.4-0.3c-0.2-0.1-0.4-0.1-0.6-0.1c-0.3,0-0.5,0-0.6,0.1
					c-0.2,0.1-0.3,0.2-0.4,0.4c-0.1,0.2-0.2,0.3-0.2,0.5c-0.1,0.2-0.1,0.4-0.1,0.6V88h-1.6v-3.9c0-0.4-0.1-0.7-0.3-1
					c-0.2-0.2-0.5-0.4-0.9-0.4c-0.3,0-0.5,0-0.7,0.1c-0.2,0.1-0.3,0.2-0.5,0.4c-0.1,0.2-0.2,0.3-0.3,0.5c-0.1,0.2-0.1,0.4-0.1,0.6
					V88h-1.6V81.5z"/>
				<path d="M45.4,79.2c0-0.3,0.1-0.5,0.3-0.7c0.2-0.2,0.4-0.3,0.7-0.3c0.3,0,0.6,0.1,0.8,0.3c0.2,0.2,0.3,0.4,0.3,0.7
					c0,0.3-0.1,0.5-0.3,0.7c-0.2,0.2-0.5,0.3-0.8,0.3c-0.3,0-0.5-0.1-0.7-0.3C45.5,79.7,45.4,79.5,45.4,79.2z M45.7,81.5h1.6V88
					h-1.6V81.5z"/>
				<path d="M62.9,83.3c-0.3-0.4-0.7-0.7-1.3-0.7c-0.2,0-0.4,0.1-0.6,0.2c-0.2,0.1-0.3,0.3-0.3,0.5c0,0.2,0.1,0.3,0.3,0.4
					c0.2,0.1,0.4,0.2,0.7,0.2c0.3,0.1,0.5,0.1,0.9,0.2c0.3,0.1,0.6,0.2,0.9,0.3c0.3,0.1,0.5,0.3,0.7,0.6c0.2,0.2,0.3,0.6,0.3,1
					c0,0.4-0.1,0.7-0.3,1c-0.2,0.3-0.4,0.5-0.7,0.6C63,87.9,62.7,88,62.3,88c-0.3,0.1-0.7,0.1-1,0.1c-0.5,0-1-0.1-1.4-0.2
					c-0.4-0.1-0.8-0.4-1.1-0.8l1.1-1c0.2,0.2,0.4,0.4,0.7,0.6c0.2,0.1,0.5,0.2,0.9,0.2c0.1,0,0.2,0,0.4,0c0.1,0,0.2-0.1,0.4-0.1
					c0.1-0.1,0.2-0.1,0.3-0.2c0.1-0.1,0.1-0.2,0.1-0.3c0-0.2-0.1-0.4-0.3-0.5c-0.2-0.1-0.4-0.2-0.7-0.3c-0.3-0.1-0.5-0.1-0.9-0.2
					c-0.3-0.1-0.6-0.2-0.9-0.3c-0.3-0.1-0.5-0.3-0.7-0.6c-0.2-0.2-0.3-0.6-0.3-1c0-0.4,0.1-0.7,0.2-0.9c0.1-0.3,0.3-0.5,0.6-0.7
					c0.2-0.2,0.5-0.3,0.8-0.4c0.3-0.1,0.6-0.1,1-0.1c0.4,0,0.9,0.1,1.3,0.2c0.4,0.1,0.8,0.4,1,0.8L62.9,83.3z"/>
				<path d="M79.1,83.3c-0.3-0.4-0.7-0.7-1.3-0.7c-0.2,0-0.4,0.1-0.6,0.2s-0.3,0.3-0.3,0.5c0,0.2,0.1,0.3,0.3,0.4
					c0.2,0.1,0.4,0.2,0.7,0.2c0.3,0.1,0.5,0.1,0.9,0.2c0.3,0.1,0.6,0.2,0.9,0.3c0.3,0.1,0.5,0.3,0.7,0.6c0.2,0.2,0.3,0.6,0.3,1
					c0,0.4-0.1,0.7-0.3,1c-0.2,0.3-0.4,0.5-0.7,0.6c-0.3,0.2-0.6,0.3-0.9,0.4c-0.3,0.1-0.7,0.1-1,0.1c-0.5,0-1-0.1-1.4-0.2
					s-0.8-0.4-1.1-0.8l1.1-1c0.2,0.2,0.4,0.4,0.7,0.6c0.2,0.1,0.5,0.2,0.9,0.2c0.1,0,0.2,0,0.4,0c0.1,0,0.2-0.1,0.4-0.1
					c0.1-0.1,0.2-0.1,0.3-0.2c0.1-0.1,0.1-0.2,0.1-0.3c0-0.2-0.1-0.4-0.3-0.5c-0.2-0.1-0.4-0.2-0.7-0.3c-0.3-0.1-0.5-0.1-0.9-0.2
					c-0.3-0.1-0.6-0.2-0.9-0.3c-0.3-0.1-0.5-0.3-0.7-0.6c-0.2-0.2-0.3-0.6-0.3-1c0-0.4,0.1-0.7,0.2-0.9c0.1-0.3,0.3-0.5,0.6-0.7
					c0.2-0.2,0.5-0.3,0.8-0.4c0.3-0.1,0.6-0.1,1-0.1c0.4,0,0.9,0.1,1.3,0.2c0.4,0.1,0.8,0.4,1,0.8L79.1,83.3z"/>
				<path d="M91.7,79.2c0-0.3,0.1-0.5,0.3-0.7c0.2-0.2,0.4-0.3,0.7-0.3c0.3,0,0.6,0.1,0.8,0.3c0.2,0.2,0.3,0.4,0.3,0.7
					c0,0.3-0.1,0.5-0.3,0.7c-0.2,0.2-0.5,0.3-0.8,0.3c-0.3,0-0.5-0.1-0.7-0.3C91.8,79.7,91.7,79.5,91.7,79.2z M91.9,81.5h1.6V88
					h-1.6V81.5z"/>
				<path d="M109.1,83.3c-0.3-0.4-0.7-0.7-1.3-0.7c-0.2,0-0.4,0.1-0.6,0.2s-0.3,0.3-0.3,0.5c0,0.2,0.1,0.3,0.3,0.4
					c0.2,0.1,0.4,0.2,0.7,0.2c0.3,0.1,0.5,0.1,0.9,0.2c0.3,0.1,0.6,0.2,0.9,0.3c0.3,0.1,0.5,0.3,0.7,0.6c0.2,0.2,0.3,0.6,0.3,1
					c0,0.4-0.1,0.7-0.3,1c-0.2,0.3-0.4,0.5-0.7,0.6c-0.3,0.2-0.6,0.3-0.9,0.4c-0.3,0.1-0.7,0.1-1,0.1c-0.5,0-1-0.1-1.4-0.2
					s-0.8-0.4-1.1-0.8l1.1-1c0.2,0.2,0.4,0.4,0.7,0.6c0.2,0.1,0.5,0.2,0.9,0.2c0.1,0,0.2,0,0.4,0c0.1,0,0.2-0.1,0.4-0.1
					c0.1-0.1,0.2-0.1,0.3-0.2c0.1-0.1,0.1-0.2,0.1-0.3c0-0.2-0.1-0.4-0.3-0.5c-0.2-0.1-0.4-0.2-0.7-0.3c-0.3-0.1-0.5-0.1-0.9-0.2
					c-0.3-0.1-0.6-0.2-0.9-0.3c-0.3-0.1-0.5-0.3-0.7-0.6c-0.2-0.2-0.3-0.6-0.3-1c0-0.4,0.1-0.7,0.2-0.9c0.1-0.3,0.3-0.5,0.6-0.7
					c0.2-0.2,0.5-0.3,0.8-0.4c0.3-0.1,0.6-0.1,1-0.1c0.4,0,0.9,0.1,1.3,0.2c0.4,0.1,0.8,0.4,1,0.8L109.1,83.3z"/>
				<path d="M125.4,83.3c-0.3-0.4-0.7-0.7-1.3-0.7c-0.2,0-0.4,0.1-0.6,0.2c-0.2,0.1-0.3,0.3-0.3,0.5c0,0.2,0.1,0.3,0.3,0.4
					c0.2,0.1,0.4,0.2,0.7,0.2c0.3,0.1,0.5,0.1,0.9,0.2c0.3,0.1,0.6,0.2,0.9,0.3c0.3,0.1,0.5,0.3,0.7,0.6c0.2,0.2,0.3,0.6,0.3,1
					c0,0.4-0.1,0.7-0.3,1c-0.2,0.3-0.4,0.5-0.7,0.6c-0.3,0.2-0.6,0.3-0.9,0.4c-0.3,0.1-0.7,0.1-1,0.1c-0.5,0-1-0.1-1.4-0.2
					c-0.4-0.1-0.8-0.4-1.1-0.8l1.1-1c0.2,0.2,0.4,0.4,0.7,0.6c0.2,0.1,0.5,0.2,0.9,0.2c0.1,0,0.2,0,0.4,0c0.1,0,0.2-0.1,0.4-0.1
					c0.1-0.1,0.2-0.1,0.3-0.2c0.1-0.1,0.1-0.2,0.1-0.3c0-0.2-0.1-0.4-0.3-0.5c-0.2-0.1-0.4-0.2-0.7-0.3c-0.3-0.1-0.5-0.1-0.9-0.2
					c-0.3-0.1-0.6-0.2-0.9-0.3c-0.3-0.1-0.5-0.3-0.7-0.6c-0.2-0.2-0.3-0.6-0.3-1c0-0.4,0.1-0.7,0.2-0.9c0.1-0.3,0.3-0.5,0.6-0.7
					c0.2-0.2,0.5-0.3,0.8-0.4c0.3-0.1,0.6-0.1,1-0.1c0.4,0,0.9,0.1,1.3,0.2c0.4,0.1,0.8,0.4,1,0.8L125.4,83.3z"/>
				<path d="M137.9,79.2c0-0.3,0.1-0.5,0.3-0.7c0.2-0.2,0.4-0.3,0.7-0.3s0.6,0.1,0.8,0.3c0.2,0.2,0.3,0.4,0.3,0.7
					c0,0.3-0.1,0.5-0.3,0.7c-0.2,0.2-0.5,0.3-0.8,0.3s-0.5-0.1-0.7-0.3C138,79.7,137.9,79.5,137.9,79.2z M138.2,81.5h1.6V88h-1.6
					V81.5z"/>
				<path d="M151.9,81.5h1.6v1h0c0.2-0.4,0.6-0.7,1-0.9c0.4-0.2,0.8-0.3,1.3-0.3c0.5,0,0.9,0.1,1.3,0.3c0.4,0.2,0.7,0.4,1,0.7
					c0.3,0.3,0.5,0.7,0.6,1.1c0.1,0.4,0.2,0.9,0.2,1.3c0,0.5-0.1,0.9-0.2,1.3c-0.2,0.4-0.4,0.8-0.6,1.1c-0.3,0.3-0.6,0.6-1,0.7
					c-0.4,0.2-0.8,0.3-1.3,0.3c-0.3,0-0.6,0-0.8-0.1c-0.2-0.1-0.4-0.1-0.6-0.2s-0.3-0.2-0.5-0.3c-0.1-0.1-0.2-0.2-0.3-0.3h0v3.9
					h-1.6V81.5z M157.3,84.7c0-0.3,0-0.5-0.1-0.7c-0.1-0.2-0.2-0.4-0.4-0.6c-0.2-0.2-0.4-0.3-0.6-0.4c-0.2-0.1-0.5-0.2-0.8-0.2
					c-0.3,0-0.6,0.1-0.8,0.2c-0.2,0.1-0.4,0.3-0.6,0.4c-0.2,0.2-0.3,0.4-0.4,0.6c-0.1,0.2-0.1,0.5-0.1,0.7c0,0.3,0,0.5,0.1,0.7
					c0.1,0.2,0.2,0.4,0.4,0.6c0.2,0.2,0.4,0.3,0.6,0.4c0.2,0.1,0.5,0.2,0.8,0.2c0.3,0,0.6-0.1,0.8-0.2c0.2-0.1,0.4-0.3,0.6-0.4
					c0.2-0.2,0.3-0.4,0.4-0.6C157.3,85.2,157.3,85,157.3,84.7z"/>
				<path d="M170.7,81.5h1.6v1h0c0.2-0.4,0.6-0.7,1-0.9c0.4-0.2,0.8-0.3,1.3-0.3c0.5,0,0.9,0.1,1.3,0.3c0.4,0.2,0.7,0.4,1,0.7
					c0.3,0.3,0.5,0.7,0.6,1.1c0.1,0.4,0.2,0.9,0.2,1.3c0,0.5-0.1,0.9-0.2,1.3c-0.2,0.4-0.4,0.8-0.6,1.1c-0.3,0.3-0.6,0.6-1,0.7
					c-0.4,0.2-0.8,0.3-1.3,0.3c-0.3,0-0.6,0-0.8-0.1c-0.2-0.1-0.4-0.1-0.6-0.2s-0.3-0.2-0.5-0.3c-0.1-0.1-0.2-0.2-0.3-0.3h0v3.9
					h-1.6V81.5z M176.1,84.7c0-0.3,0-0.5-0.1-0.7c-0.1-0.2-0.2-0.4-0.4-0.6c-0.2-0.2-0.4-0.3-0.6-0.4c-0.2-0.1-0.5-0.2-0.8-0.2
					c-0.3,0-0.6,0.1-0.8,0.2c-0.2,0.1-0.4,0.3-0.6,0.4c-0.2,0.2-0.3,0.4-0.4,0.6c-0.1,0.2-0.1,0.5-0.1,0.7c0,0.3,0,0.5,0.1,0.7
					c0.1,0.2,0.2,0.4,0.4,0.6c0.2,0.2,0.4,0.3,0.6,0.4c0.2,0.1,0.5,0.2,0.8,0.2c0.3,0,0.6-0.1,0.8-0.2c0.2-0.1,0.4-0.3,0.6-0.4
					c0.2-0.2,0.3-0.4,0.4-0.6C176,85.2,176.1,85,176.1,84.7z"/>
				<path d="M189.2,79.2c0-0.3,0.1-0.5,0.3-0.7c0.2-0.2,0.4-0.3,0.7-0.3s0.6,0.1,0.8,0.3c0.2,0.2,0.3,0.4,0.3,0.7
					c0,0.3-0.1,0.5-0.3,0.7c-0.2,0.2-0.5,0.3-0.8,0.3s-0.5-0.1-0.7-0.3C189.3,79.7,189.2,79.5,189.2,79.2z M189.5,81.5h1.6V88h-1.6
					V81.5z"/>
			</g>
		</g>
		<circle cx="142.2" cy="24.6" r="4.5"/>
		<circle cx="162.6" cy="13.5" r="5.3"/>
		<ellipse cx="187.4" cy="23.8" rx="6.6" ry="6.4"/>
	</g>
</g>
</svg>
