<?xml version="1.0" encoding="utf-8"?>
<!-- Generator: Adobe Illustrator 18.0.0, SVG Export Plug-In . SVG Version: 6.00 Build 0)  -->
<!DOCTYPE svg PUBLIC "-//W3C//DTD SVG 1.1//EN" "http://www.w3.org/Graphics/SVG/1.1/DTD/svg11.dtd">
<svg version="1.1" xmlns="http://www.w3.org/2000/svg" xmlns:xlink="http://www.w3.org/1999/xlink" x="0px" y="0px"
	 viewBox="0 0 300 100" style="enable-background:new 0 0 300 100;" xml:space="preserve">
<style type="text/css">
	.st0{fill-rule:evenodd;clip-rule:evenodd;}
	.st1{fill-rule:evenodd;clip-rule:evenodd;fill:#C038F9;}
	.st2{fill:none;}
	.st3{fill-rule:evenodd;clip-rule:evenodd;fill:#231F20;}
</style>
<g id="Layer_2">
</g>
<g id="Layer_1">
	<g>
		<g>
			<path d="M51.2,39.1h8.6c1.2,0,2.3,0.1,3.4,0.3c1.1,0.2,2,0.6,2.8,1.1c0.8,0.5,1.4,1.3,1.9,2.2c0.5,0.9,0.7,2,0.7,3.4
				c0,1.3-0.2,2.5-0.7,3.4c-0.4,0.9-1,1.6-1.8,2.2c-0.8,0.5-1.7,0.9-2.7,1.2s-2.2,0.3-3.4,0.3h-3.7v9h-5.1V39.1z M56.3,48.9h3.4
				c0.5,0,0.9,0,1.3-0.1c0.4-0.1,0.8-0.2,1.1-0.4c0.3-0.2,0.6-0.5,0.8-0.8c0.2-0.4,0.3-0.8,0.3-1.4c0-0.6-0.1-1.1-0.4-1.4
				c-0.3-0.4-0.6-0.6-1-0.8c-0.4-0.2-0.9-0.3-1.4-0.4c-0.5-0.1-1-0.1-1.5-0.1h-2.6V48.9z"/>
			<path d="M70.1,39.1h8.6c1,0,2,0.1,3,0.2c1,0.1,1.9,0.4,2.7,0.8c0.8,0.4,1.5,1,2,1.8c0.5,0.8,0.8,1.8,0.8,3c0,1.3-0.4,2.4-1.1,3.2
				c-0.7,0.9-1.7,1.5-2.9,1.8v0.1c0.8,0.1,1.5,0.3,2.1,0.6c0.6,0.3,1.2,0.7,1.6,1.2c0.4,0.5,0.8,1.1,1,1.7c0.2,0.7,0.4,1.3,0.4,2.1
				c0,1.2-0.3,2.2-0.8,3.1c-0.5,0.8-1.2,1.5-2,2c-0.8,0.5-1.8,0.9-2.8,1.1c-1,0.2-2.1,0.3-3.1,0.3h-9.5V39.1z M75.2,48.4h3.7
				c0.4,0,0.8,0,1.2-0.1c0.4-0.1,0.7-0.2,1-0.4c0.3-0.2,0.5-0.5,0.7-0.8c0.2-0.3,0.3-0.7,0.3-1.2c0-0.5-0.1-0.9-0.3-1.2
				c-0.2-0.3-0.5-0.6-0.8-0.7c-0.3-0.2-0.7-0.3-1.1-0.4c-0.4-0.1-0.8-0.1-1.2-0.1h-3.5V48.4z M75.2,57.9h4.6c0.4,0,0.8,0,1.2-0.1
				c0.4-0.1,0.8-0.2,1.1-0.5c0.3-0.2,0.6-0.5,0.8-0.8c0.2-0.3,0.3-0.8,0.3-1.3c0-0.5-0.1-1-0.4-1.3c-0.3-0.3-0.6-0.6-1-0.8
				c-0.4-0.2-0.9-0.3-1.3-0.4c-0.5-0.1-0.9-0.1-1.3-0.1h-3.9V57.9z"/>
			<path d="M101.1,44.8c-0.4-0.5-1-0.9-1.7-1.2c-0.7-0.2-1.4-0.4-2-0.4c-0.4,0-0.8,0-1.1,0.1c-0.4,0.1-0.8,0.2-1.1,0.4
				c-0.3,0.2-0.6,0.4-0.8,0.7c-0.2,0.3-0.3,0.7-0.3,1.1c0,0.7,0.3,1.2,0.8,1.6c0.5,0.4,1.2,0.7,2,0.9c0.8,0.3,1.6,0.5,2.6,0.8
				s1.8,0.6,2.6,1.1c0.8,0.5,1.5,1.1,2,1.9c0.5,0.8,0.8,1.9,0.8,3.2c0,1.3-0.2,2.4-0.7,3.4c-0.5,1-1.1,1.8-1.9,2.4
				c-0.8,0.6-1.8,1.1-2.8,1.4c-1.1,0.3-2.2,0.5-3.4,0.5c-1.5,0-2.9-0.2-4.2-0.7c-1.3-0.5-2.5-1.2-3.6-2.2l3.6-4
				c0.5,0.7,1.2,1.2,2,1.6c0.8,0.4,1.6,0.6,2.5,0.6c0.4,0,0.8,0,1.3-0.1c0.4-0.1,0.8-0.2,1.1-0.4c0.3-0.2,0.6-0.4,0.8-0.8
				c0.2-0.3,0.3-0.7,0.3-1.1c0-0.7-0.3-1.2-0.8-1.6c-0.5-0.4-1.2-0.7-2-1c-0.8-0.3-1.7-0.6-2.6-0.8c-0.9-0.3-1.8-0.7-2.6-1.1
				c-0.8-0.5-1.5-1.1-2-1.9c-0.5-0.8-0.8-1.8-0.8-3.1c0-1.2,0.2-2.3,0.7-3.3c0.5-0.9,1.1-1.7,2-2.3c0.8-0.6,1.8-1.1,2.8-1.4
				c1.1-0.3,2.2-0.5,3.3-0.5c1.3,0,2.6,0.2,3.8,0.6c1.2,0.4,2.3,1,3.3,1.9L101.1,44.8z"/>
			<path d="M114.1,39.1h6.9l9.8,16.1h0.1V39.1h5.1v23.1h-6.7l-10.1-16.4h-0.1v16.4h-5.1V39.1z"/>
			<path d="M139.3,39.1H155v4.7h-10.6v4.3h10v4.7h-10v4.7h11.2v4.7h-16.3V39.1z"/>
			<path d="M156.3,39.1h5.5l3.7,14.8h0.1l4.8-14.8h4.7l4.8,15.2h0.1l3.9-15.2h5.2l-6.8,23.1h-4.5l-5.1-16h-0.1l-5.1,16h-4.4
				L156.3,39.1z"/>
			<path d="M202.1,44.8c-0.4-0.5-1-0.9-1.7-1.2c-0.7-0.2-1.4-0.4-2-0.4c-0.4,0-0.8,0-1.1,0.1c-0.4,0.1-0.8,0.2-1.1,0.4
				c-0.3,0.2-0.6,0.4-0.8,0.7c-0.2,0.3-0.3,0.7-0.3,1.1c0,0.7,0.3,1.2,0.8,1.6c0.5,0.4,1.2,0.7,2,0.9c0.8,0.3,1.6,0.5,2.6,0.8
				s1.8,0.6,2.6,1.1c0.8,0.5,1.5,1.1,2,1.9c0.5,0.8,0.8,1.9,0.8,3.2c0,1.3-0.2,2.4-0.7,3.4c-0.5,1-1.1,1.8-1.9,2.4
				c-0.8,0.6-1.8,1.1-2.8,1.4c-1.1,0.3-2.2,0.5-3.4,0.5c-1.5,0-2.9-0.2-4.2-0.7c-1.3-0.5-2.5-1.2-3.6-2.2l3.6-4
				c0.5,0.7,1.2,1.2,2,1.6c0.8,0.4,1.6,0.6,2.5,0.6c0.4,0,0.8,0,1.3-0.1c0.4-0.1,0.8-0.2,1.1-0.4c0.3-0.2,0.6-0.4,0.8-0.8
				c0.2-0.3,0.3-0.7,0.3-1.1c0-0.7-0.3-1.2-0.8-1.6c-0.5-0.4-1.2-0.7-2-1c-0.8-0.3-1.7-0.6-2.6-0.8c-0.9-0.3-1.8-0.7-2.6-1.1
				c-0.8-0.5-1.5-1.1-2-1.9c-0.5-0.8-0.8-1.8-0.8-3.1c0-1.2,0.2-2.3,0.7-3.3c0.5-0.9,1.1-1.7,2-2.3c0.8-0.6,1.8-1.1,2.8-1.4
				c1.1-0.3,2.2-0.5,3.3-0.5c1.3,0,2.6,0.2,3.8,0.6c1.2,0.4,2.3,1,3.3,1.9L202.1,44.8z"/>
			<path d="M208.1,39.1h5.1v8.6h9.9v-8.6h5.1v23.1H223v-10h-9.9v10h-5.1V39.1z"/>
			<path d="M230.3,50.7c0-1.8,0.3-3.5,0.9-5c0.6-1.5,1.5-2.8,2.6-3.8c1.1-1.1,2.4-1.9,3.9-2.4c1.5-0.6,3.2-0.8,5-0.8s3.5,0.3,5,0.8
				c1.5,0.6,2.8,1.4,3.9,2.4c1.1,1.1,2,2.3,2.6,3.8c0.6,1.5,0.9,3.2,0.9,5c0,1.8-0.3,3.5-0.9,5c-0.6,1.5-1.5,2.8-2.6,3.8
				c-1.1,1.1-2.4,1.9-3.9,2.4c-1.5,0.6-3.2,0.8-5,0.8s-3.5-0.3-5-0.8c-1.5-0.6-2.8-1.4-3.9-2.4c-1.1-1.1-2-2.3-2.6-3.8
				C230.6,54.2,230.3,52.5,230.3,50.7z M235.6,50.7c0,1.1,0.2,2.1,0.5,3c0.3,0.9,0.8,1.7,1.5,2.3c0.6,0.7,1.4,1.2,2.3,1.5
				c0.9,0.4,1.9,0.6,3,0.6s2.1-0.2,3-0.6c0.9-0.4,1.6-0.9,2.3-1.5c0.6-0.7,1.1-1.4,1.5-2.3c0.3-0.9,0.5-1.9,0.5-3
				c0-1.1-0.2-2.1-0.5-3c-0.3-0.9-0.8-1.7-1.5-2.4c-0.6-0.7-1.4-1.2-2.3-1.5c-0.9-0.4-1.9-0.6-3-0.6s-2.1,0.2-3,0.6
				c-0.9,0.4-1.6,0.9-2.3,1.5c-0.6,0.7-1.1,1.5-1.5,2.4C235.7,48.6,235.6,49.6,235.6,50.7z"/>
			<path d="M277.2,53.3c0,1.4-0.2,2.6-0.6,3.8c-0.4,1.2-1,2.2-1.8,3c-0.8,0.8-1.8,1.5-3.1,2c-1.2,0.5-2.6,0.7-4.2,0.7
				c-1.6,0-3-0.2-4.2-0.7s-2.2-1.1-3.1-2c-0.8-0.8-1.4-1.8-1.8-3c-0.4-1.2-0.6-2.4-0.6-3.8V39.1h5.1v14c0,0.7,0.1,1.4,0.3,2
				c0.2,0.6,0.5,1.1,1,1.6c0.4,0.4,0.9,0.8,1.5,1c0.6,0.3,1.2,0.4,1.9,0.4c0.7,0,1.3-0.1,1.9-0.4c0.6-0.2,1.1-0.6,1.5-1
				c0.4-0.4,0.7-1,1-1.6c0.2-0.6,0.3-1.3,0.3-2v-14h5.1V53.3z"/>
			<path d="M280.2,39.1h8.9c1.2,0,2.3,0.1,3.3,0.3c1.1,0.2,2,0.6,2.8,1.1c0.8,0.5,1.4,1.3,1.9,2.2c0.5,0.9,0.7,2,0.7,3.4
				c0,1.6-0.4,3-1.3,4.2c-0.8,1.1-2.1,1.9-3.7,2.2l5.9,9.8h-6.1l-4.8-9.2h-2.5v9.2h-5.1V39.1z M285.3,48.7h3c0.5,0,0.9,0,1.5,0
				c0.5,0,1-0.1,1.4-0.3c0.4-0.2,0.8-0.4,1-0.8c0.3-0.3,0.4-0.8,0.4-1.5c0-0.6-0.1-1.1-0.4-1.4c-0.2-0.3-0.5-0.6-0.9-0.8
				c-0.4-0.2-0.8-0.3-1.3-0.4c-0.5-0.1-0.9-0.1-1.4-0.1h-3.3V48.7z"/>
		</g>
		<g>
			<path d="M0,51.5c0-12,9.8-21.8,21.8-21.8c12,0,21.8,9.8,21.8,21.8c0,12-9.8,21.8-21.8,21.8C9.8,73.4,0,63.6,0,51.5z M34.3,51.7
				h2.4l-5.3-12.1h-3.5l5.3,12.1h-2.4v3.2c0,1.9-0.8,2.8-3.4,2.7v6.2h3.4v-6.2h1.1c1,0,2.4-0.8,2.4-2.4V51.7z M17.7,39.6
				c-5.3,0-9.7,3.7-9.7,9.2c0,4.6,2.8,7.9,6.9,8.6v6.4h8.7v-6.2h1.2c1.4-0.1,2.4-1.1,2.4-2.4v-3.6h2.4l-5.4-12.1
				C24.1,39.6,21,39.6,17.7,39.6z M22.4,50.1c1.2,0,2.2-1,2.2-2.2c0-1.2-1-2.2-2.2-2.2c-1.2,0-2.2,1-2.2,2.2
				C20.2,49.1,21.2,50.1,22.4,50.1z"/>
		</g>
	</g>
</g>
</svg>
