<?xml version="1.0" encoding="utf-8"?>
<!-- Generator: Adobe Illustrator 18.0.0, SVG Export Plug-In . SVG Version: 6.00 Build 0)  -->
<!DOCTYPE svg PUBLIC "-//W3C//DTD SVG 1.1//EN" "http://www.w3.org/Graphics/SVG/1.1/DTD/svg11.dtd">
<svg version="1.1" xmlns="http://www.w3.org/2000/svg" xmlns:xlink="http://www.w3.org/1999/xlink" x="0px" y="0px"
	 viewBox="0 0 300 100" style="enable-background:new 0 0 300 100;" xml:space="preserve">
<style type="text/css">
	.st0{fill-rule:evenodd;clip-rule:evenodd;}
	.st1{fill-rule:evenodd;clip-rule:evenodd;fill:#C038F9;}
	.st2{fill:none;}
	.st3{fill-rule:evenodd;clip-rule:evenodd;fill:#231F20;}
</style>
<g id="Layer_2">
	<g>
		<g>
			<path d="M29.6,68.3V1.6h29.7l13.2,41.6L85.8,1.6h29.7v66.8H93.4V47.9l0.3-10.4L95,25.5h-0.2L81.1,68.3H64L50.3,25.5h-0.2l1,9.8
				l0.5,10.4v22.6H29.6z"/>
			<path d="M122.5,68.3V1.6h36.2c21.6,0,32,8.8,32,22.5c0,14.4-9.6,23.5-31.2,23.5h-12.4v20.8H122.5z M157.4,32c5.7,0,9.9-2,9.9-7.8
				c0-6.2-7.9-7-13.1-7h-7V32H157.4z"/>
			<path d="M194.2,68.3V1.6H230c16.9,0,30.3,3.5,30.3,16.8c0,6.9-5,11.9-9.8,14.6c8.1,1.9,12.5,8.1,12.5,15.3
				c0,14.9-12.8,20.1-32.3,20.1H194.2z M218.8,17.1v11.1H229c4.9,0,8.4-1.9,8.4-5.8c0-5.2-4.8-5.3-10-5.3H218.8z M218.8,40.4v12.3
				h10.7c6,0,10.6-1.1,10.6-6.1c0-5.8-5.7-6.2-13.6-6.2H218.8z"/>
		</g>
		<g>
			<path d="M9,78.6h2.8L16.1,91l4.2-12.4h2.8v14.7h-1.9v-8.7c0-0.3,0-0.8,0-1.5c0-0.7,0-1.4,0-2.2L17,93.3h-2l-4.2-12.4v0.4
				c0,0.4,0,0.9,0,1.6c0,0.7,0,1.3,0,1.6v8.7H9V78.6z"/>
			<path d="M25.9,78.6h1.8v2h-1.8V78.6z M25.9,82.6h1.8v10.7h-1.8V82.6z"/>
			<path d="M31.5,89.9c0.1,0.6,0.2,1.1,0.5,1.4c0.5,0.6,1.3,0.9,2.4,0.9c0.7,0,1.3-0.1,1.8-0.4c0.5-0.3,0.8-0.7,0.8-1.3
				c0-0.5-0.2-0.8-0.6-1c-0.3-0.1-0.8-0.3-1.6-0.5l-1.5-0.4c-0.9-0.2-1.6-0.5-2.1-0.8c-0.8-0.5-1.2-1.2-1.2-2c0-1,0.4-1.8,1.1-2.5
				c0.7-0.6,1.7-0.9,3-0.9c1.6,0,2.8,0.5,3.5,1.4c0.5,0.6,0.7,1.2,0.7,1.9h-1.7c0-0.4-0.2-0.8-0.4-1.1c-0.4-0.5-1.2-0.7-2.2-0.7
				c-0.7,0-1.2,0.1-1.6,0.4c-0.4,0.3-0.5,0.6-0.5,1c0,0.5,0.2,0.8,0.7,1.1c0.3,0.2,0.7,0.3,1.2,0.4l1.2,0.3c1.3,0.3,2.2,0.6,2.6,0.9
				c0.7,0.5,1,1.2,1,2.2c0,1-0.4,1.8-1.1,2.5c-0.7,0.7-1.8,1-3.3,1c-1.6,0-2.8-0.4-3.4-1.1s-1-1.6-1.1-2.7H31.5z"/>
			<path d="M41.7,89.9c0.1,0.6,0.2,1.1,0.5,1.4c0.5,0.6,1.3,0.9,2.4,0.9c0.7,0,1.3-0.1,1.8-0.4c0.5-0.3,0.8-0.7,0.8-1.3
				c0-0.5-0.2-0.8-0.6-1c-0.3-0.1-0.8-0.3-1.6-0.5l-1.5-0.4c-0.9-0.2-1.6-0.5-2.1-0.8c-0.8-0.5-1.2-1.2-1.2-2c0-1,0.4-1.8,1.1-2.5
				c0.7-0.6,1.7-0.9,3-0.9c1.6,0,2.8,0.5,3.5,1.4c0.5,0.6,0.7,1.2,0.7,1.9h-1.7c0-0.4-0.2-0.8-0.4-1.1c-0.4-0.5-1.2-0.7-2.2-0.7
				c-0.7,0-1.2,0.1-1.6,0.4c-0.4,0.3-0.5,0.6-0.5,1c0,0.5,0.2,0.8,0.7,1.1c0.3,0.2,0.7,0.3,1.2,0.4l1.2,0.3c1.3,0.3,2.2,0.6,2.6,0.9
				c0.7,0.5,1,1.2,1,2.2c0,1-0.4,1.8-1.1,2.5c-0.7,0.7-1.8,1-3.3,1c-1.6,0-2.8-0.4-3.4-1.1S40,91,40,89.9H41.7z"/>
			<path d="M50.9,78.6h1.8v2h-1.8V78.6z M50.9,82.6h1.8v10.7h-1.8V82.6z"/>
			<path d="M56.5,89.9c0.1,0.6,0.2,1.1,0.5,1.4c0.5,0.6,1.3,0.9,2.4,0.9c0.7,0,1.3-0.1,1.8-0.4c0.5-0.3,0.8-0.7,0.8-1.3
				c0-0.5-0.2-0.8-0.6-1c-0.3-0.1-0.8-0.3-1.6-0.5l-1.5-0.4c-0.9-0.2-1.6-0.5-2.1-0.8c-0.8-0.5-1.2-1.2-1.2-2c0-1,0.4-1.8,1.1-2.5
				c0.7-0.6,1.7-0.9,3-0.9c1.6,0,2.8,0.5,3.5,1.4c0.5,0.6,0.7,1.2,0.7,1.9h-1.7c0-0.4-0.2-0.8-0.4-1.1c-0.4-0.5-1.2-0.7-2.2-0.7
				c-0.7,0-1.2,0.1-1.6,0.4c-0.4,0.3-0.5,0.6-0.5,1c0,0.5,0.2,0.8,0.7,1.1c0.3,0.2,0.7,0.3,1.2,0.4l1.2,0.3c1.3,0.3,2.2,0.6,2.6,0.9
				c0.7,0.5,1,1.2,1,2.2c0,1-0.4,1.8-1.1,2.5c-0.7,0.7-1.8,1-3.3,1c-1.6,0-2.8-0.4-3.4-1.1s-1-1.6-1.1-2.7H56.5z"/>
			<path d="M66.7,89.9c0.1,0.6,0.2,1.1,0.5,1.4c0.5,0.6,1.3,0.9,2.4,0.9c0.7,0,1.3-0.1,1.8-0.4c0.5-0.3,0.8-0.7,0.8-1.3
				c0-0.5-0.2-0.8-0.6-1c-0.3-0.1-0.8-0.3-1.6-0.5l-1.5-0.4c-0.9-0.2-1.6-0.5-2.1-0.8c-0.8-0.5-1.2-1.2-1.2-2c0-1,0.4-1.8,1.1-2.5
				c0.7-0.6,1.7-0.9,3-0.9c1.6,0,2.8,0.5,3.5,1.4c0.5,0.6,0.7,1.2,0.7,1.9h-1.7c0-0.4-0.2-0.8-0.4-1.1c-0.4-0.5-1.2-0.7-2.2-0.7
				c-0.7,0-1.2,0.1-1.6,0.4c-0.4,0.3-0.5,0.6-0.5,1c0,0.5,0.2,0.8,0.7,1.1c0.3,0.2,0.7,0.3,1.2,0.4l1.2,0.3c1.3,0.3,2.2,0.6,2.6,0.9
				c0.7,0.5,1,1.2,1,2.2c0,1-0.4,1.8-1.1,2.5c-0.7,0.7-1.8,1-3.3,1c-1.6,0-2.8-0.4-3.4-1.1c-0.7-0.7-1-1.6-1.1-2.7H66.7z"/>
			<path d="M75.9,78.6h1.8v2h-1.8V78.6z M75.9,82.6h1.8v10.7h-1.8V82.6z"/>
			<path d="M80.3,82.6H82V84c0.4-0.5,0.8-0.9,1.2-1.1c0.6-0.4,1.3-0.6,2.1-0.6c1.2,0,2.2,0.5,3.1,1.4c0.8,0.9,1.3,2.3,1.3,4
				c0,2.3-0.6,4-1.8,5c-0.8,0.6-1.7,0.9-2.7,0.9c-0.8,0-1.5-0.2-2-0.5c-0.3-0.2-0.7-0.5-1.1-1v5.5h-1.8V82.6z M87,91
				c0.6-0.7,0.8-1.8,0.8-3.2c0-0.9-0.1-1.6-0.4-2.2c-0.5-1.2-1.3-1.8-2.6-1.8c-1.2,0-2.1,0.6-2.6,1.9c-0.2,0.7-0.4,1.5-0.4,2.5
				c0,0.8,0.1,1.5,0.4,2.1c0.5,1.1,1.3,1.7,2.6,1.7C85.8,92.1,86.5,91.7,87,91z"/>
			<path d="M91.6,82.6h1.8V84c0.4-0.5,0.8-0.9,1.2-1.1c0.6-0.4,1.3-0.6,2.1-0.6c1.2,0,2.2,0.5,3.1,1.4c0.8,0.9,1.3,2.3,1.3,4
				c0,2.3-0.6,4-1.8,5c-0.8,0.6-1.7,0.9-2.7,0.9c-0.8,0-1.5-0.2-2-0.5c-0.3-0.2-0.7-0.5-1.1-1v5.5h-1.8V82.6z M98.4,91
				c0.6-0.7,0.8-1.8,0.8-3.2c0-0.9-0.1-1.6-0.4-2.2c-0.5-1.2-1.3-1.8-2.6-1.8c-1.2,0-2.1,0.6-2.6,1.9c-0.2,0.7-0.4,1.5-0.4,2.5
				c0,0.8,0.1,1.5,0.4,2.1c0.5,1.1,1.3,1.7,2.6,1.7C97.2,92.1,97.9,91.7,98.4,91z"/>
			<path d="M103.2,78.6h1.8v2h-1.8V78.6z M103.2,82.6h1.8v10.7h-1.8V82.6z"/>
			<path d="M113.8,78.6h6.6c1.3,0,2.3,0.4,3.1,1.1c0.8,0.7,1.2,1.8,1.2,3.1c0,1.1-0.4,2.1-1.1,3c-0.7,0.8-1.8,1.3-3.3,1.3h-4.6v6.2
				h-2V78.6z M121.5,80.6c-0.4-0.2-1-0.3-1.8-0.3h-3.9v5.1h3.9c0.9,0,1.6-0.2,2.2-0.6c0.6-0.4,0.8-1,0.8-2
				C122.7,81.7,122.3,81,121.5,80.6z"/>
			<path d="M128.9,82.6v7.1c0,0.5,0.1,1,0.3,1.3c0.3,0.6,0.9,1,1.7,1c1.2,0,2.1-0.6,2.5-1.7c0.2-0.6,0.4-1.4,0.4-2.5v-5.3h1.8v10.7
				h-1.7l0-1.6c-0.2,0.4-0.5,0.7-0.9,1c-0.7,0.6-1.5,0.8-2.5,0.8c-1.5,0-2.5-0.5-3.1-1.5c-0.3-0.5-0.4-1.3-0.4-2.2v-7.3H128.9z"/>
			<path d="M138.3,78.5h1.7v5.3c0.4-0.5,0.9-0.9,1.4-1.2c0.5-0.3,1.1-0.4,1.8-0.4c1.3,0,2.4,0.5,3.3,1.4c0.8,0.9,1.2,2.3,1.2,4.1
				c0,1.7-0.4,3.1-1.2,4.2s-2,1.7-3.4,1.7c-0.8,0-1.5-0.2-2.1-0.6c-0.3-0.2-0.7-0.6-1.1-1.1v1.4h-1.7V78.5z M145.2,90.9
				c0.5-0.8,0.7-1.8,0.7-3.1c0-1.1-0.2-2.1-0.7-2.8c-0.5-0.7-1.2-1.1-2.1-1.1c-0.8,0-1.5,0.3-2.2,0.9c-0.6,0.6-0.9,1.6-0.9,3
				c0,1,0.1,1.8,0.4,2.4c0.5,1.2,1.4,1.8,2.7,1.8C143.9,92,144.7,91.6,145.2,90.9z"/>
			<path d="M149.9,78.6h1.8v14.7h-1.8V78.6z"/>
			<path d="M154.4,78.6h1.8v2h-1.8V78.6z M154.4,82.6h1.8v10.7h-1.8V82.6z"/>
			<path d="M166,83.1c0.8,0.6,1.2,1.6,1.4,3h-1.7c-0.1-0.7-0.4-1.2-0.7-1.6c-0.4-0.4-1-0.7-1.8-0.7c-1.1,0-2,0.6-2.5,1.7
				c-0.3,0.7-0.5,1.6-0.5,2.7c0,1.1,0.2,2,0.7,2.7c0.5,0.7,1.2,1.1,2.1,1.1c0.7,0,1.3-0.2,1.8-0.7c0.4-0.5,0.7-1.1,0.9-1.9h1.7
				c-0.2,1.4-0.7,2.5-1.5,3.1c-0.8,0.7-1.8,1-3.1,1c-1.4,0-2.5-0.5-3.3-1.5c-0.8-1-1.2-2.3-1.2-3.8c0-1.9,0.5-3.3,1.4-4.4
				c0.9-1,2.1-1.6,3.5-1.6C164.2,82.2,165.2,82.5,166,83.1z"/>
			<path d="M175,78.6h6.3c1.7,0,3,0.5,3.7,1.5c0.4,0.6,0.6,1.3,0.6,2.1c0,0.9-0.3,1.7-0.8,2.3c-0.3,0.3-0.7,0.6-1.2,0.9
				c0.8,0.3,1.3,0.6,1.7,1c0.7,0.6,1,1.5,1,2.6c0,0.9-0.3,1.8-0.9,2.6c-0.9,1.1-2.3,1.7-4.3,1.7H175V78.6z M180.6,84.8
				c0.8,0,1.5-0.1,2-0.3c0.7-0.4,1.1-1,1.1-2c0-1-0.4-1.6-1.2-1.9c-0.4-0.2-1.1-0.3-2-0.3H177v4.5H180.6z M181.3,91.6
				c1.2,0,2.1-0.4,2.6-1.1c0.3-0.4,0.5-1,0.5-1.6c0-1.1-0.5-1.8-1.4-2.2c-0.5-0.2-1.2-0.3-2-0.3h-4v5.2H181.3z"/>
			<path d="M188.5,82.6h1.7v1.8c0.1-0.4,0.5-0.8,1-1.3c0.5-0.5,1.2-0.8,1.9-0.8c0,0,0.1,0,0.2,0s0.2,0,0.4,0v1.9c-0.1,0-0.2,0-0.3,0
				c-0.1,0-0.2,0-0.3,0c-0.9,0-1.6,0.3-2.1,0.9c-0.5,0.6-0.7,1.3-0.7,2v6.2h-1.8V82.6z"/>
			<path d="M203,83.6c0.9,0.9,1.4,2.3,1.4,4.1c0,1.7-0.4,3.1-1.3,4.3c-0.8,1.1-2.1,1.7-3.9,1.7c-1.5,0-2.6-0.5-3.5-1.5
				c-0.9-1-1.3-2.3-1.3-4c0-1.8,0.5-3.2,1.4-4.3c0.9-1.1,2.1-1.6,3.7-1.6C200.9,82.2,202.1,82.7,203,83.6z M201.9,90.7
				c0.4-0.9,0.7-1.9,0.7-3c0-1-0.2-1.8-0.5-2.4c-0.5-1-1.4-1.5-2.6-1.5c-1.1,0-1.9,0.4-2.4,1.3c-0.5,0.8-0.7,1.8-0.7,3
				c0,1.1,0.2,2.1,0.7,2.8c0.5,0.8,1.3,1.1,2.4,1.1C200.7,92.1,201.5,91.6,201.9,90.7z"/>
			<path d="M212.4,86.8c0.4-0.1,0.7-0.2,0.8-0.5c0.1-0.2,0.1-0.4,0.1-0.7c0-0.6-0.2-1.1-0.7-1.3s-1.1-0.4-1.9-0.4
				c-0.9,0-1.6,0.3-2,0.8c-0.2,0.3-0.4,0.7-0.4,1.3h-1.7c0-1.3,0.5-2.2,1.3-2.8c0.8-0.5,1.8-0.8,2.9-0.8c1.3,0,2.3,0.2,3.1,0.7
				c0.8,0.5,1.2,1.2,1.2,2.2v6.2c0,0.2,0,0.3,0.1,0.5c0.1,0.1,0.2,0.2,0.5,0.2c0.1,0,0.2,0,0.3,0c0.1,0,0.2,0,0.3,0v1.3
				c-0.3,0.1-0.5,0.1-0.6,0.1c-0.1,0-0.3,0-0.6,0c-0.6,0-1.1-0.2-1.3-0.7c-0.1-0.2-0.3-0.6-0.3-1c-0.4,0.5-0.9,0.9-1.6,1.2
				c-0.7,0.4-1.4,0.5-2.3,0.5c-1,0-1.8-0.3-2.4-0.9c-0.6-0.6-0.9-1.4-0.9-2.3c0-1,0.3-1.8,0.9-2.3c0.6-0.5,1.4-0.9,2.4-1L212.4,86.8
				z M208.6,91.6c0.4,0.3,0.8,0.4,1.3,0.4c0.6,0,1.2-0.1,1.8-0.4c1-0.5,1.5-1.3,1.5-2.4v-1.4c-0.2,0.1-0.5,0.3-0.8,0.4
				s-0.7,0.2-1,0.2l-1.1,0.1c-0.7,0.1-1.1,0.2-1.5,0.4c-0.6,0.3-0.8,0.8-0.8,1.5C208,90.9,208.2,91.3,208.6,91.6z"/>
			<path d="M223.9,82.9c0.3,0.2,0.7,0.6,1.1,1v-5.4h1.7v14.7h-1.6v-1.5c-0.4,0.7-0.9,1.1-1.5,1.4c-0.6,0.3-1.2,0.4-2,0.4
				c-1.2,0-2.2-0.5-3.1-1.5c-0.9-1-1.3-2.3-1.3-4c0-1.6,0.4-2.9,1.2-4.1c0.8-1.1,1.9-1.7,3.4-1.7C222.7,82.4,223.4,82.5,223.9,82.9z
				 M219.9,90.9c0.5,0.8,1.3,1.2,2.3,1.2c0.8,0,1.5-0.4,2-1.1c0.5-0.7,0.8-1.7,0.8-3.1c0-1.4-0.3-2.4-0.8-3c-0.6-0.6-1.2-1-2-1
				c-0.9,0-1.6,0.3-2.2,1c-0.6,0.7-0.8,1.7-0.8,3.1C219.2,89.2,219.4,90.1,219.9,90.9z"/>
			<path d="M236.5,83.1c0.8,0.6,1.2,1.6,1.4,3h-1.7c-0.1-0.7-0.4-1.2-0.7-1.6c-0.4-0.4-1-0.7-1.8-0.7c-1.1,0-2,0.6-2.5,1.7
				c-0.3,0.7-0.5,1.6-0.5,2.7c0,1.1,0.2,2,0.7,2.7c0.5,0.7,1.2,1.1,2.1,1.1c0.7,0,1.3-0.2,1.8-0.7c0.4-0.5,0.7-1.1,0.9-1.9h1.7
				c-0.2,1.4-0.7,2.5-1.5,3.1c-0.8,0.7-1.8,1-3.1,1c-1.4,0-2.5-0.5-3.3-1.5c-0.8-1-1.2-2.3-1.2-3.8c0-1.9,0.5-3.3,1.4-4.4
				c0.9-1,2.1-1.6,3.5-1.6C234.7,82.2,235.7,82.5,236.5,83.1z"/>
			<path d="M245.4,86.8c0.4-0.1,0.7-0.2,0.8-0.5c0.1-0.2,0.1-0.4,0.1-0.7c0-0.6-0.2-1.1-0.7-1.3c-0.4-0.3-1.1-0.4-1.9-0.4
				c-0.9,0-1.6,0.3-2,0.8c-0.2,0.3-0.4,0.7-0.4,1.3h-1.7c0-1.3,0.5-2.2,1.3-2.8c0.8-0.5,1.8-0.8,2.9-0.8c1.3,0,2.3,0.2,3.1,0.7
				c0.8,0.5,1.2,1.2,1.2,2.2v6.2c0,0.2,0,0.3,0.1,0.5c0.1,0.1,0.2,0.2,0.5,0.2c0.1,0,0.2,0,0.3,0c0.1,0,0.2,0,0.3,0v1.3
				c-0.3,0.1-0.5,0.1-0.6,0.1c-0.1,0-0.3,0-0.6,0c-0.6,0-1.1-0.2-1.3-0.7c-0.1-0.2-0.3-0.6-0.3-1c-0.4,0.5-0.9,0.9-1.6,1.2
				c-0.7,0.4-1.4,0.5-2.3,0.5c-1,0-1.8-0.3-2.4-0.9c-0.6-0.6-0.9-1.4-0.9-2.3c0-1,0.3-1.8,0.9-2.3c0.6-0.5,1.4-0.9,2.4-1L245.4,86.8
				z M241.6,91.6c0.4,0.3,0.8,0.4,1.3,0.4c0.6,0,1.2-0.1,1.8-0.4c1-0.5,1.5-1.3,1.5-2.4v-1.4c-0.2,0.1-0.5,0.3-0.8,0.4
				c-0.3,0.1-0.7,0.2-1,0.2l-1.1,0.1c-0.7,0.1-1.1,0.2-1.5,0.4c-0.6,0.3-0.8,0.8-0.8,1.5C241,90.9,241.2,91.3,241.6,91.6z"/>
			<path d="M252.1,89.9c0.1,0.6,0.2,1.1,0.5,1.4c0.5,0.6,1.3,0.9,2.4,0.9c0.7,0,1.3-0.1,1.8-0.4c0.5-0.3,0.8-0.7,0.8-1.3
				c0-0.5-0.2-0.8-0.6-1c-0.3-0.1-0.8-0.3-1.6-0.5l-1.5-0.4c-0.9-0.2-1.6-0.5-2.1-0.8c-0.8-0.5-1.2-1.2-1.2-2c0-1,0.4-1.8,1.1-2.5
				c0.7-0.6,1.7-0.9,3-0.9c1.6,0,2.8,0.5,3.5,1.4c0.5,0.6,0.7,1.2,0.7,1.9h-1.7c0-0.4-0.2-0.8-0.4-1.1c-0.4-0.5-1.2-0.7-2.2-0.7
				c-0.7,0-1.2,0.1-1.6,0.4c-0.4,0.3-0.5,0.6-0.5,1c0,0.5,0.2,0.8,0.7,1.1c0.3,0.2,0.7,0.3,1.2,0.4l1.2,0.3c1.3,0.3,2.2,0.6,2.6,0.9
				c0.7,0.5,1,1.2,1,2.2c0,1-0.4,1.8-1.1,2.5c-0.7,0.7-1.8,1-3.3,1c-1.6,0-2.8-0.4-3.4-1.1s-1-1.6-1.1-2.7H252.1z"/>
			<path d="M261.6,79.6h1.8v3h1.7V84h-1.7v7c0,0.4,0.1,0.6,0.4,0.7c0.1,0.1,0.4,0.1,0.7,0.1c0.1,0,0.2,0,0.3,0c0.1,0,0.2,0,0.4,0
				v1.4c-0.2,0.1-0.4,0.1-0.6,0.1c-0.2,0-0.5,0-0.7,0c-0.8,0-1.4-0.2-1.7-0.6c-0.3-0.4-0.5-1-0.5-1.7V84h-1.4v-1.5h1.4V79.6z"/>
			<path d="M266.9,78.6h1.8v2h-1.8V78.6z M266.9,82.6h1.8v10.7h-1.8V82.6z"/>
			<path d="M271.5,82.6h1.7v1.5c0.5-0.6,1-1.1,1.6-1.3c0.6-0.3,1.2-0.4,1.9-0.4c1.5,0,2.5,0.5,3.1,1.6c0.3,0.6,0.4,1.4,0.4,2.5v6.9
				h-1.8v-6.7c0-0.7-0.1-1.2-0.3-1.6c-0.3-0.7-0.9-1-1.7-1c-0.4,0-0.8,0-1,0.1c-0.5,0.1-0.9,0.4-1.3,0.9c-0.3,0.4-0.5,0.7-0.6,1.1
				c-0.1,0.4-0.1,0.9-0.1,1.6v5.6h-1.8V82.6z"/>
			<path d="M288.8,83c0.3,0.2,0.7,0.6,1,1v-1.3h1.7v9.7c0,1.4-0.2,2.4-0.6,3.2c-0.7,1.5-2.1,2.2-4.2,2.2c-1.1,0-2.1-0.3-2.9-0.8
				c-0.8-0.5-1.2-1.3-1.3-2.4h1.8c0.1,0.5,0.3,0.8,0.5,1.1c0.4,0.4,1,0.6,1.9,0.6c1.4,0,2.3-0.5,2.7-1.5c0.3-0.6,0.4-1.6,0.3-3.1
				c-0.4,0.5-0.8,1-1.3,1.2c-0.5,0.3-1.2,0.4-2,0.4c-1.2,0-2.2-0.4-3-1.2c-0.9-0.8-1.3-2.2-1.3-4.1c0-1.8,0.4-3.2,1.3-4.2
				c0.9-1,1.9-1.5,3.2-1.5C287.5,82.4,288.2,82.6,288.8,83z M289,84.9c-0.5-0.6-1.2-1-2.1-1c-1.3,0-2.1,0.6-2.6,1.8
				c-0.2,0.6-0.4,1.5-0.4,2.5c0,1.2,0.2,2.1,0.7,2.8c0.5,0.6,1.1,0.9,2,0.9c1.3,0,2.2-0.6,2.7-1.7c0.3-0.7,0.4-1.4,0.4-2.3
				C289.8,86.5,289.6,85.6,289,84.9z"/>
		</g>
	</g>
</g>
<g id="Layer_1">
</g>
</svg>
