<?xml version="1.0" encoding="utf-8"?>
<!-- Generator: Adobe Illustrator 18.0.0, SVG Export Plug-In . SVG Version: 6.00 Build 0)  -->
<!DOCTYPE svg PUBLIC "-//W3C//DTD SVG 1.1//EN" "http://www.w3.org/Graphics/SVG/1.1/DTD/svg11.dtd">
<svg version="1.1" xmlns="http://www.w3.org/2000/svg" xmlns:xlink="http://www.w3.org/1999/xlink" x="0px" y="0px"
	 viewBox="0 0 300 100" style="enable-background:new 0 0 300 100;" xml:space="preserve">
<style type="text/css">
	.st0{fill-rule:evenodd;clip-rule:evenodd;}
	.st1{fill-rule:evenodd;clip-rule:evenodd;fill:#C038F9;}
	.st2{fill:none;}
	.st3{fill-rule:evenodd;clip-rule:evenodd;fill:#231F20;}
</style>
<g id="Layer_2">
</g>
<g id="Layer_1">
	<g>
		<path class="st0" d="M32.6,7.3l-8.7,0H10.6c-0.9,0-8.1,0.1-8.1,0.1L2.3,19L1,19L1.1,6l0-5.4C5.6,0.8,22.1,1,39.3,1
			c20,0,32.9-0.2,37.9-0.4l-0.1,5.9l0.1,13.2l-1.4,0c0-1.1-0.2-5.5-0.2-5.9c0-0.2-0.3-6.1-0.3-6.5l-5.7-0.1l-17.2,0l-6.6,0l0,81.6
			c0,0.1,0.1,5.3,0.1,6.4c0.7,0.1,7,0.5,8.2,0.5l0.4,0v2.2c-0.3,0-0.8,0-1.1,0c-3.6,0-9.5-0.5-13.6-0.5c-4.1,0-9.8,0.4-14.1,0.5
			c-0.1,0-1,0-1.3,0l0-2.4c0,0,0.3,0,0.7,0c1.8-0.1,6.2-0.4,7.4-0.5l0.2,0L32.6,7.3L32.6,7.3z M109.8,98.2c-3.4,0-9.1-0.6-13.3-0.6
			c-4.2,0-10,0.6-14.1,0.6c-0.4,0-1-0.1-1.3-0.1v-2.3c0.8,0,4.5-0.4,5.5-0.4c1.2-0.1,2.3-0.1,2.8-0.3c0,0,0-2.8,0-7.1
			c0-15,0.1-57.3,0-76.4c0-2,0-7.1,0-7.9c-0.8-0.1-1.9-0.2-2.6-0.3c-1-0.1-5-0.4-5.6-0.5l0-2.3c4,0,9.8,0.4,14.6,0.4
			c4.6,0,10.7-0.4,15.4-0.4l0,2.4c-0.7,0.1-2.5,0.2-2.6,0.2c-1.4,0.1-5.2,0.6-6.1,0.6c0,1.4,0,4.1,0,7.4c0,17.1,0,62,0,77.1
			c0,2,0,3.8,0,4.9c0,1.2,0,1.8,0,1.9c0,0.1,2.4,0.3,3,0.3c1.1,0.1,5.4,0.3,5.5,0.3h0.3l0,2.3C110.8,98.1,110.1,98.2,109.8,98.2
			L109.8,98.2z M139.9,33.1c0,0-2.2,11.9-5.3,28.8c-1.7,9.1-5.1,31.8-5.3,33.3c2,0.3,5.9,0.6,6.9,0.6c0.2,0,0.7,0,1,0l0,2.3
			c-0.4,0.1-1.5,0.1-1.5,0.1c-3.7-0.1-6.4-0.4-10.5-0.4c-1.1,0-6.7,0.3-8.6,0.4c-0.8,0-2-0.1-2.2,0l0-2.3c0.2,0,0.6-0.1,0.8-0.1
			c1.8-0.1,4.5-0.4,6.9-0.7c0.2-1.1,2.2-12.3,2.8-16.3c2.5-13.1,9.8-57.1,10.7-63c0.8-6.4,1.7-14.4,1.8-15.2c1.9,0,5.3,0,5.3,0
			s6.5,20.1,7.5,23c1,2.9,20.8,53.7,20.8,53.7s9.3-21.9,17.5-45.4c1.7-4.8,3.9-11,5.5-16c2.4-7.3,5-15.4,5-15.4h5.1
			c0,0,1.3,9,1.7,13c1.3,11.6,9.8,58.9,12.8,74.4c0.7,3.9,1.3,7.3,1.3,7.3c0.9,0.1,4.3,0.4,6.3,0.6c0.4,0,1.6,0.1,1.8,0.1l0,2.3
			c0,0-0.9,0-1.4,0c-4.6,0-11.6-0.4-16-0.4c-3.9,0-7.6,0.3-11.5,0.4c-0.7,0-1.3,0-2,0v-2.3c0,0,0.5,0,0.8,0c1.9-0.1,6.9-0.6,7.4-0.6
			c0-0.8-0.3-3.8-0.7-6.8c-0.3-2.1-0.8-5.7-1.3-9.3c-1.1-6.9-6.2-35.7-7.8-43.7c-0.3-1.3-0.4-2-0.4-2S179.2,74,176,82.1
			c-0.3,0.8-0.5,1.3-0.6,1.5c-3.1,7.7-5.6,14.6-5.6,14.6l-4.5,0l-24.8-63.7L139.9,33.1L139.9,33.1z M297.2,19.6l-1.3,0l0-0.7
			c-0.1-1.7-0.4-6.5-0.8-10.6c0-0.4-0.1-0.6-0.1-0.6c-0.8,0-4-0.1-4-0.2c-0.1,0-2.6-0.1-2.7-0.1c0,0-8.4-0.1-17-0.1
			c-5.9,0-11.7,0-15.2,0c-0.9,0-4,0.1-4,0.1l0,38.4l24.6,0.1c0.1,0,6.5-0.2,6.7-0.2c0.4,0,4.8-0.3,5-0.3c0,0,0.1-0.4,0.2-0.7
			c0.4-2.3,0.8-4.5,0.9-6.3c0,0,0.1-0.7,0.1-1.2l1.4,0c0,0.2,0.1,0.6,0.1,1.2c0,2.3-0.2,7.1-0.2,10.3c0,4.5,0.1,8.6,0.2,10.7
			c0,0.6,0,1.5,0,1.5h-1.5c0-0.2-0.1-0.4-0.1-0.7c-0.3-2.6-0.5-4.5-0.9-7.1c0-0.1-0.1-0.6-0.1-0.9c-0.8-0.1-2.9-0.1-4-0.2
			c-0.5,0-6.5-0.1-13.2-0.1c-2.8,0-7.7,0.1-9.9,0.1c-2.5,0-6.6,0.2-9.2,0.3l0,34.8l0.1,4.5l15,0.3l21.3,0c0.1,0,4.9-0.2,6.4-0.2
			c0.3,0,1,0,1,0c0.1-1.1,0.3-3.4,0.5-5.6c0-0.3,0.5-6,0.5-7.6l1.3,0c0,1.5-0.3,19.7-0.3,19.7c-2.4,0-9.8,0-18.9-0.1
			c-5.5-0.1-11.7-0.1-17.7-0.2c-4.9-0.1-9.8-0.2-14.2-0.2c-6.3,0-12.5,0.4-14.9,0.4c-0.5,0-1.5,0-1.7,0v-2.3h0.4
			c1.5,0,5.8-0.3,8.1-0.7c0-0.5,0.1-6.1,0.1-6.3c0,0,0-72.1,0-75.3c0-3.5-0.1-9.3-0.1-9.8c-1.3-0.2-1.7-0.2-2-0.3
			c-1.4-0.2-4.1-0.4-5.5-0.5c-0.4,0-0.9,0-1.1-0.1c0,0,0-2.3,0-2.3c0.3,0,1,0,2.2,0c2.5,0,7.2,0.4,12.9,0.4c3.6,0,9.4-0.2,13.5-0.2
			c5.9,0,10.4-0.1,16.1-0.1c9.3-0.1,17.3-0.1,20.5-0.1c0.9,0,1.4,0,1.4,0c0,0.2,0,0.4,0,0.6c0,0.7,0,2,0,3.6
			C297,9.5,297.2,17.2,297.2,19.6L297.2,19.6z"/>
	</g>
</g>
</svg>
