<?xml version="1.0" encoding="utf-8"?>
<!-- Generator: Adobe Illustrator 18.0.0, SVG Export Plug-In . SVG Version: 6.00 Build 0)  -->
<!DOCTYPE svg PUBLIC "-//W3C//DTD SVG 1.1//EN" "http://www.w3.org/Graphics/SVG/1.1/DTD/svg11.dtd">
<svg version="1.1" xmlns="http://www.w3.org/2000/svg" xmlns:xlink="http://www.w3.org/1999/xlink" x="0px" y="0px"
	 viewBox="0 0 300 100" style="enable-background:new 0 0 300 100;" xml:space="preserve">
<style type="text/css">
	.st0{fill-rule:evenodd;clip-rule:evenodd;}
	.st1{fill-rule:evenodd;clip-rule:evenodd;fill:#C038F9;}
	.st2{fill:none;}
	.st3{fill-rule:evenodd;clip-rule:evenodd;fill:#231F20;}
</style>
<g id="Layer_2">
	<g>
		<path d="M125,16.6c0,0-11.8,0-11.8,0c-17.4,0-31.5,14.1-31.5,31.5c0,17.4,14.1,31.5,31.5,31.5l22.1,0c5.6,0,10.1-4.5,10.1-10
			l0-19.2l15.3,24.1c2.1,3.1,5.6,5.2,9.6,5.2c6.4,0,11.6-5.2,11.6-11.6l0-17.7l15.3,24.1c2.1,3.1,5.6,5.2,9.6,5.2
			c6.4,0,11.6-5.2,11.6-11.6l0-51.5h-7.9v51.5c0,2-1.6,3.7-3.7,3.7c-1.3,0-2.4-0.6-3.1-1.6l-27.2-42.8c-0.3-0.4-0.7-0.6-1.1-0.6
			c-0.8,0-1.4,0.6-1.4,1.4l0,40c0,2-1.6,3.7-3.7,3.7c-1.3,0-2.4-0.6-3.1-1.6L140,27.3c-0.3-0.4-0.7-0.6-1.1-0.6
			c-0.8,0-1.4,0.6-1.4,1.4l0,41.5c0,1.2-1,2.2-2.2,2.2l-22.1,0c-13.1,0-23.7-10.6-23.7-23.7c0-13.1,10.6-23.7,23.7-23.7l11.8,0V16.6
			z"/>
		<path d="M126.2,61.7c0.6,0,1.1-0.5,1.1-1.1l0-32.4c0-6.4,5.2-11.6,11.6-11.6c4,0,7.6,2.1,9.7,5.2l15.2,23.9l0-17.6
			c0-6.4,5.2-11.6,11.6-11.6c4,0,7.6,2.1,9.7,5.2l15.2,23.9V16.6h7.9l0,51.5c0,0.8-0.6,1.4-1.4,1.4c-0.5,0-0.9-0.2-1.1-0.6L178.4,26
			c-0.7-1-1.8-1.6-3.1-1.6c-2,0-3.7,1.6-3.7,3.7l0,40c0,0.8-0.6,1.4-1.4,1.4c-0.5,0-0.9-0.2-1.1-0.6L141.9,26
			c-0.7-1-1.8-1.6-3.1-1.6c-2,0-3.7,1.6-3.7,3.7l0,40.3c0,0.6-0.5,1.1-1.1,1.1l-20.9,0c-11.8,0-21.4-9.6-21.4-21.4
			s9.6-21.4,21.4-21.4c0,0,11.8,0,11.8,0c0,0,0,7.9,0,7.9l-11.8,0c-7.5,0-13.5,6-13.5,13.5s6,13.6,13.5,13.6L126.2,61.7z"/>
	</g>
</g>
<g id="Layer_1">
</g>
</svg>
