<?xml version="1.0" encoding="utf-8"?>
<!-- Generator: Adobe Illustrator 18.0.0, SVG Export Plug-In . SVG Version: 6.00 Build 0)  -->
<!DOCTYPE svg PUBLIC "-//W3C//DTD SVG 1.1//EN" "http://www.w3.org/Graphics/SVG/1.1/DTD/svg11.dtd">
<svg version="1.1" xmlns="http://www.w3.org/2000/svg" xmlns:xlink="http://www.w3.org/1999/xlink" x="0px" y="0px"
	 viewBox="0 0 300 100" style="enable-background:new 0 0 300 100;" xml:space="preserve">
<style type="text/css">
	.st0{fill-rule:evenodd;clip-rule:evenodd;}
	.st1{fill-rule:evenodd;clip-rule:evenodd;fill:#C038F9;}
	.st2{fill:none;}
	.st3{fill-rule:evenodd;clip-rule:evenodd;fill:#231F20;}
</style>
<g id="Layer_2">
</g>
<g id="Layer_1">
	<g>
		<path d="M254.8,89.9c-15,0-30,0-45,0c0,0-0.1,0-0.1-0.1c0,0-0.1-0.1-0.1-0.1c0-26.5,0-52.9,0-79.4c0-0.2,0-0.4,0-0.6
			c15.1,0,30.1,0,45.1,0C254.8,36.4,254.8,63.1,254.8,89.9z M245.2,45.2c-0.9-0.8-1.7-1.6-2.6-2.3c-2.3-1.8-4.9-2.8-7.8-3.1
			c-1.7-0.2-3.4-0.1-5.1,0.3c-3.7,0.9-6.7,2.9-8.8,6.1c-2.1,3.1-2.7,6.5-2.3,10.2c0.2,1.8,0.8,3.5,1.7,5.1c1.2,2.2,2.9,4,5,5.3
			c1.9,1.2,3.9,1.9,6.1,2.2c1.9,0.2,3.7,0,5.4-0.5c1.5-0.4,2.9-1.1,4.2-1.9c1.6-1,2.9-2.3,4.2-3.7c-1.9-1.4-3.8-2.7-5.6-4
			c-0.4,0.3-0.8,0.6-1.1,0.9c-1,0.8-2.2,1.4-3.4,1.8c-1,0.3-1.9,0.4-2.9,0.2c-1.7-0.3-3-1.2-4-2.6c-0.9-1.3-1.5-2.8-1.7-4.4
			c-0.2-1.7,0.4-3.3,1.3-4.7c0.8-1.1,1.8-2.1,3.1-2.6c2.2-0.8,4.4-0.6,6.3,0.7c0.8,0.6,1.6,1.3,2.5,2
			C241.5,48.7,243.3,47,245.2,45.2z"/>
		<path d="M104.5,89.6c-0.2-9.1-0.1-69.5,0.1-70.5c0,0,0-0.1,0.1-0.1c0,0,0.1,0,0.1,0c14.6,0,29.2,0,43.8,0c0.2,0,0.3,0,0.5,0
			c0,23.6,0,47.1,0,70.6C148.4,89.7,105.8,89.8,104.5,89.6z M121.6,68.4c0-5.1,0-10.1,0-15.3c1.4,1.8,2.7,3.4,4,5
			c2.5,3.2,5,6.4,7.5,9.7c0.3,0.4,0.7,0.6,1.3,0.6c1.9,0,3.7,0,5.6,0c0.2,0,0.3,0,0.5,0c0.3,0,0.5-0.2,0.5-0.5c0-0.2,0-0.3,0-0.5
			c0-8.8,0-17.7,0-26.5c0-0.2,0-0.5-0.1-0.7c-2-0.1-7.2-0.1-8,0.1c0,4.8,0,9.6,0,14.6c-4-5-8-9.9-11.8-14.8c-2.4,0-4.7,0-7,0
			c-0.1,1.4-0.1,27.4,0,28.2C116.5,68.4,118.9,68.4,121.6,68.4z"/>
		<path d="M201.7,89.7c-14.9,0-29.6,0-44.4,0c-0.2-0.8-0.2-61.6-0.1-63.4c0.8-0.1,42.4-0.2,44.4-0.1C201.8,27,201.9,87.4,201.7,89.7
			z M193.8,40.1c-0.2-0.1-0.3-0.1-0.4-0.1c-2.4,0-4.8,0-7.2,0c-0.5,0-0.7,0.3-0.9,0.6c-1.7,2.8-3.3,5.6-5,8.3
			c-0.2,0.4-0.5,0.8-0.8,1.2c-2.1-3.4-4.1-6.8-6.1-10.1c-2.8-0.2-7.6-0.1-8.3,0.1c0.2,0.4,0.4,0.7,0.6,1.1c1.4,2.3,2.7,4.5,4.1,6.8
			c1.8,2.9,3.5,5.9,5.3,8.8c0.3,0.5,0.4,0.9,0.4,1.4c0,3.1,0,6.1,0,9.2c0,0.3,0,0.7,0,1c1.4,0.2,6.9,0.1,7.7-0.1c0.1-3,0.1-6,0.2-9
			c0-0.4,0-0.8,0-1.2c0-0.4,0.1-0.6,0.3-1c0.8-1.3,1.6-2.6,2.4-3.9c2.3-3.8,4.6-7.5,6.9-11.3C193.1,41.3,193.5,40.7,193.8,40.1z"/>
		<path d="M86.8,68.7c-2.2,0-4.3,0-6.5,0c-2-5.3-4.1-10.6-6.1-15.9c-0.1,0-0.1,0-0.2,0c-1.8,5.3-3.7,10.6-5.5,15.9
			c-2.1,0-4.1,0-6.2,0c-0.6-1.6-1.1-3.2-1.7-4.9c-1.3-3.7-2.5-7.3-3.8-11c-1.2-3.3-2.3-6.7-3.5-10c-0.3-0.9-0.6-1.8-1-2.7
			c0.8-0.2,5.9-0.2,8-0.1c1.9,5.3,3.5,10.8,5.4,16.4c0.2-0.6,0.4-1,0.5-1.4c1.7-5,3.4-10,5-15c0,0,0-0.1,0.1-0.2
			c0.9-0.1,1.8,0,2.8-0.1c0.9,0,1.9,0,2.9,0c1.2,2.7,2.2,5.5,3.3,8.2c1.1,2.7,2.2,5.5,3.3,8.5c1.8-5.7,3.4-11.1,5.1-16.5
			c2.4,0,4.6,0,7,0c-0.5,1.6-1,3.2-1.5,4.8c-1.3,3.9-2.5,7.8-3.8,11.7c-1,3-1.9,6-2.8,8.9C87.5,66.5,87.2,67.6,86.8,68.7z"/>
		<path d="M97.1,89.6c-15,0-29.9,0-44.9,0c0-4.6,0-9.1,0-13.6c0,0,0,0,0,0c0,0,0.1-0.1,0.1-0.1c14.9,0,29.8,0,44.7,0
			C97.2,76.7,97.2,87.7,97.1,89.6z"/>
	</g>
</g>
</svg>
