<?xml version="1.0" encoding="utf-8"?>
<!-- Generator: Adobe Illustrator 18.0.0, SVG Export Plug-In . SVG Version: 6.00 Build 0)  -->
<!DOCTYPE svg PUBLIC "-//W3C//DTD SVG 1.1//EN" "http://www.w3.org/Graphics/SVG/1.1/DTD/svg11.dtd">
<svg version="1.1" xmlns="http://www.w3.org/2000/svg" xmlns:xlink="http://www.w3.org/1999/xlink" x="0px" y="0px"
	 viewBox="0 0 300 100" style="enable-background:new 0 0 300 100;" xml:space="preserve">
<style type="text/css">
	.st0{fill-rule:evenodd;clip-rule:evenodd;}
	.st1{fill-rule:evenodd;clip-rule:evenodd;fill:#C038F9;}
	.st2{fill:none;}
	.st3{fill-rule:evenodd;clip-rule:evenodd;fill:#231F20;}
</style>
<g id="Layer_2">
</g>
<g id="Layer_1">
	<g>
		<path d="M42.5,66.9c5.6,8.2,14.2,12,23.9,12c7.2,0,16.8-2.4,16.8-10.1c0-6.2-5.8-8-16.3-10.4l-8.8-2c-12.7-2.9-23.8-7.6-23.8-22.1
			C34.3,17.6,50.2,9.6,65,9.6c13.6,0,24.8,5,33,15.9l-12.3,9.3c-3.8-7.2-11.1-11.4-20.8-11.4c-8.6,0-15,3.2-15,8.8
			c0,6.6,7.4,8.1,16.3,10.1l9.7,2.1c11.8,2.6,22.9,7.3,22.9,22.3c0,19.3-18.2,26-34.7,26C51,92.7,37.4,87.1,29.9,76L42.5,66.9z"/>
		<path d="M103.5,16H117v74.7h-13.6V16z"/>
		<path d="M172.3,81.3c0,5.8,1.3,8.2,2.1,9.4H160c-0.9-1.3-1.3-3.7-1.3-5.1c-5.2,4.2-11.3,6.4-18.3,6.4c-10.7,0-19.1-6.8-19.1-17.7
			c0-11,8.8-15.9,17.1-17.6l5.7-1.1c4.9-1,11.2-2.1,14.7-3.3v-1.7c0-5.6-4.8-7.1-10.7-7.1c-7.9,0-10.4,2.3-10.4,8.4L124,51.5
			c0-13.2,11.7-18.3,24-18.3c12.1,0,24.2,2.4,24.2,18.4V81.3z M158.7,62.6c-1.8,0.9-4,1.6-6.4,2l-7.4,1.6c-5.1,1-9.3,2.4-9.3,7.8
			c0,4.2,3.9,7,8.8,7c6.3,0,14.4-3.1,14.4-10.3V62.6z"/>
		<path d="M183.7,28.8l13.6-14.2v19.9h12.1v9.8h-12.1v28.5c0,4.4,0.1,8.8,7.6,8.1l0.7,12.6c-3.2,0.7-2.8,0.5-7,0
			c-11.3-1.3-14.9-7-14.9-15.6V44.3h-8.2v-9.8h8.2V28.8z"/>
		<path d="M222.2,65.8c0.2,8.3,8,15.7,15.3,15.7c10.7,0,12-6.4,13.3-8.3l12.4,0.1c-2.5,11.6-10.6,19.7-25.9,19.7
			c-18.2,0-29.4-13.7-29.4-30.5s10.6-29.5,28.8-29.5c18.8,0,27,12.6,27,32.7H222.2z M249.5,55.4c0-3-3.7-11.1-12.8-11.1
			c-7.9,0-13.1,5.1-14.6,11.1H249.5z"/>
	</g>
</g>
</svg>
