<?xml version="1.0" encoding="utf-8"?>
<!-- Generator: Adobe Illustrator 18.0.0, SVG Export Plug-In . SVG Version: 6.00 Build 0)  -->
<!DOCTYPE svg PUBLIC "-//W3C//DTD SVG 1.1//EN" "http://www.w3.org/Graphics/SVG/1.1/DTD/svg11.dtd">
<svg version="1.1" xmlns="http://www.w3.org/2000/svg" xmlns:xlink="http://www.w3.org/1999/xlink" x="0px" y="0px"
	 viewBox="0 0 300 100" style="enable-background:new 0 0 300 100;" xml:space="preserve">
<style type="text/css">
	.st0{fill-rule:evenodd;clip-rule:evenodd;}
	.st1{fill-rule:evenodd;clip-rule:evenodd;fill:#C038F9;}
	.st2{fill:none;}
	.st3{fill-rule:evenodd;clip-rule:evenodd;fill:#231F20;}
</style>
<g id="Layer_2">
	<g>
		<path d="M263.8,61c-1.2,0.9-3.2,2.7-4.3,3.8l-4-3.6V61c0.5-0.1,0.6-0.6,0.6-1.2V50c-0.9-0.7-2.8-2.3-3.9-3.3l-1.3,1.2v11.9l1,0.9
			c0.2,0.2,0.4,0.4,0.8,0.4c0.4,0,0.7-0.2,1.2-0.5l0.4,0.4c-1.1,0.8-3.1,2.5-4.4,3.8l-4-3.6V61c0.4-0.1,0.6-0.4,0.6-1v-9.9
			c-1-0.7-3-2.5-3.9-3.3l-1.3,1.1v11.9l0.9,0.8c0.3,0.3,0.6,0.5,0.9,0.5c0.4,0,0.7-0.1,1.1-0.5l0.4,0.4c-1.3,1-3.1,2.6-4.4,3.8
			l-4-3.6v-0.2c0.4-0.1,0.6-0.5,0.6-1.2V48.1l-1-0.8c-0.3-0.2-0.5-0.3-0.7-0.3c-0.3,0-0.7,0.2-1.1,0.6l-0.4-0.5
			c1.2-0.8,3.1-2.5,4.4-3.8l3.5,3.3l3.8-3.3c1.8,1.5,3.9,3.2,5.1,3.9l4.5-3.9c1.7,1.4,4.8,3.8,6.3,4.8v0.2c-0.4,0.1-0.7,0.5-0.7,1.2
			v10.5l0.8,0.8c0.3,0.3,0.6,0.6,1,0.6c0.4,0,0.8-0.2,1.2-0.6L263.8,61z"/>
		<path d="M234.2,38.1l-1.5,1.3c-1.2,1.1-2.2,1.6-3.1,1.6c-0.7,0-1.4-0.3-2.1-1c-0.3-0.2-0.5-0.4-0.9-0.4c-0.4,0-0.7,0.2-1.1,0.5
			l-0.4-0.4l4.4-3.8l2.2,2c0.3,0.2,0.6,0.4,0.9,0.4c0.4,0,0.8-0.2,1-0.5L234.2,38.1z"/>
		<path d="M235.1,61c-1.1,0.9-3.3,2.8-4.4,3.9l-4-3.6v-0.2c0.4-0.1,0.6-0.5,0.6-1v-12l-0.9-0.7c-0.3-0.2-0.4-0.4-0.8-0.4
			c-0.4,0-0.8,0.2-1.2,0.5L224,47c1.1-0.8,3.1-2.5,4.4-3.8l4,3.5v0.2c-0.3,0.1-0.7,0.4-0.7,1.1v11.9l1,0.9c0.3,0.2,0.6,0.4,0.9,0.4
			c0.4,0,0.7-0.2,1-0.5L235.1,61z"/>
		<path d="M157.4,61c-1.1,0.8-3,2.5-4.4,3.9l-4-3.6V61c0.4-0.1,0.6-0.5,0.6-1.2v-19l-1.1-0.8c-0.2-0.2-0.5-0.3-0.7-0.3
			c-0.5,0-0.8,0.3-1.1,0.6l-0.4-0.5c1.3-1,3.3-2.7,4.5-3.9l4,3.5v0.1c-0.4,0.1-0.7,0.7-0.7,1.3v18.9l1.1,1c0.3,0.2,0.6,0.3,0.9,0.3
			c0.3,0,0.7-0.2,1-0.5L157.4,61z"/>
		<path d="M113.9,61c-1.2,0.9-3.4,2.7-4.4,3.8l-4-3.6v-0.2c0.4-0.1,0.6-0.5,0.6-1.3v-9.7c-1-0.8-2.9-2.4-3.9-3.3l-1.3,1.1v11.9
			l1.2,1c0.5,0.4,1.2,0.3,1.8-0.2l0.4,0.4c-1.2,0.9-3.2,2.7-4.4,3.8l-4-3.6v-0.2c0.4-0.2,0.6-0.5,0.6-1.1V48.1l-1.1-0.8
			C95.2,47.1,95,47,94.8,47c-0.5,0-0.8,0.3-1.2,0.5L93.2,47c1.1-0.8,2.8-2.3,4.4-3.8l3.5,3.3l3.8-3.3c1.3,1.1,4.7,3.7,6.3,4.8v0.2
			c-0.6,0.2-0.7,0.6-0.7,0.9v10.8l1.3,1.2c0.2,0.2,0.9,0.3,1.7-0.4L113.9,61z"/>
		<path d="M293.7,59.5c-2.7,1.3-6.2,3.6-8.2,5.4c-1.2-0.9-2.7-1.9-4.5-1.9c-1.7,0-2.2,0.6-2.2,1.2c0,0.4,0.5,0.3,0.5,0.8
			c0,0.2-0.2,0.5-0.6,0.5c-0.4,0-0.8-0.4-0.8-1.1c0-1.1,0.7-2.6,2.7-4.8l3.5-3.8l-4.4-2.3v-0.2c0.4-0.1,0.5-0.4,0.5-0.8v-3.3
			c0-0.3-0.2-0.7-0.5-0.9V48c2.9-1.4,6.1-3.2,8-4.8c0.5,0.6,1.9,1.3,3.3,1.3c1.2,0,1.3-0.4,1.3-0.8c0-0.2-0.2-0.3-0.2-0.5
			c0-0.3,0.2-0.4,0.4-0.4c0.4,0,0.6,0.3,0.6,0.9c0,1.8-1.7,3.9-4.4,3.9c-2,0-3.2-0.6-4-1.6l-0.2,0.1V51l2.7,1.3l1.2-1.2l5.2,2.6V54
			c-0.3,0.1-0.4,0.4-0.4,0.7v3.8c0,0.5,0.2,0.7,0.4,0.8V59.5z M288.8,61.4v-5.5l-2.6-1.2l-5.4,5.7l0.1,0c0.9-0.5,2.1-0.7,3.9-0.7
			C286.2,59.8,287.9,60.5,288.8,61.4L288.8,61.4z"/>
		<path d="M278.5,50.2l-8.7,5.5v3.4c1.1,0.4,3.4,1.6,4.5,2.2l2.2-2.1c0.1-0.6,0.3-1.3,1-1.3c0.3,0,0.5,0.3,0.5,0.5
			c0,0.3-0.2,0.6-0.3,0.7l-5.6,5.6c-1.6-1-5.3-3-7.2-3.8v-0.2c0.4-0.1,0.6-0.5,0.6-1V49.1c0-0.5-0.2-0.9-0.6-1V48
			c2.5-1.2,5.9-3.1,8.5-4.8C274.8,45.5,277.1,48.5,278.5,50.2z M274.3,51.9c-1.2-1.5-3.2-4.2-4.4-5.9l-0.1,0v8.8L274.3,51.9z"/>
		<path d="M224.7,36.8c0,2.9-2,4.3-4.4,4.7v18.6c1.4-1,2.4-2.3,3-3.7c0.1-0.1,0.1-0.2,0.1-0.3c0-0.2-0.2-0.3-0.2-0.6
			c0-0.3,0.1-0.6,0.4-0.6c0.3,0,0.5,0.2,0.5,0.6c0,4.5-3.2,10.1-12.3,10.1c-6.5,0-11.9-4.9-11.9-11.7c0-9.1,7.6-12.3,12.7-13.5
			c-1.7-0.3-4.1-0.7-6.4-0.7c-4.3,0-5.6,2-6,3.5l-0.4-0.2c0.1-2.1,1.9-7.7,7.5-7.7c5.5,0,8.9,2.3,13.2,2.3c2.8,0,3.3-1.3,3.6-2.6
			l0.5,0.2C224.6,35.4,224.7,36.5,224.7,36.8z M219.6,60.6v-19c-0.2,0-0.4,0-0.7,0c-0.9,0-1.7-0.2-2.8-0.4c-1.3,0.6-2.6,2.1-2.6,4.2
			c0,4.1,2.3,5.1,2.3,9.2c0,3.3-2.7,5.7-5,6.8c1.2,0.5,2.6,0.6,3.9,0.6C216.4,62.1,218.5,61.3,219.6,60.6z M215.1,41l-0.7-0.1
			c-4.5,0.8-9.7,4.8-9.7,11.4c0,4.3,2.3,7.3,5.6,8.8c1-0.7,2-1.9,2-4.1c0-3.9-2.5-6-2.5-9.5C209.7,45,211.5,42.6,215.1,41z"/>
		<path d="M186.6,59.5c-2.7,1.3-6.2,3.6-8.2,5.4c-1.2-0.9-2.7-1.9-4.5-1.9c-1.7,0-2.2,0.6-2.2,1.2c0,0.4,0.5,0.3,0.5,0.8
			c0,0.2-0.2,0.5-0.6,0.5c-0.4,0-0.8-0.4-0.8-1.1c0-1.1,0.7-2.6,2.7-4.8l3.5-3.8l-4.4-2.3v-0.3c0.4-0.1,0.5-0.4,0.5-0.8v-3.3
			c0-0.4-0.1-0.7-0.5-0.9V48c2.9-1.4,6.1-3.2,8-4.8c0.5,0.6,1.9,1.3,3.3,1.3c1.2,0,1.3-0.4,1.3-0.8c0-0.2-0.2-0.3-0.2-0.5
			c0-0.3,0.2-0.4,0.4-0.4c0.4,0,0.6,0.3,0.6,0.9c0,1.8-1.7,3.9-4.4,3.9c-2,0-3.2-0.6-4-1.6l-0.2,0.1V51l2.7,1.3l1.2-1.2l5.2,2.6v0.3
			c-0.3,0.1-0.4,0.4-0.4,0.7v3.7c0,0.5,0.2,0.7,0.4,0.8V59.5z M181.7,61.4v-5.5l-2.6-1.2l-5.4,5.7l0.1,0c0.9-0.5,2.1-0.7,3.9-0.7
			C179.1,59.8,180.7,60.5,181.7,61.4L181.7,61.4z"/>
		<path d="M171.6,50.2l-8.7,5.5v3.4c1.1,0.4,3.4,1.6,4.5,2.2l2.2-2.1c0.1-0.6,0.3-1.3,1-1.3c0.3,0,0.5,0.3,0.5,0.5
			c0,0.3-0.1,0.6-0.3,0.7l-5.7,5.6c-1.6-1-5.3-3-7.2-3.8v-0.2c0.3-0.1,0.6-0.5,0.6-1V49.1c0-0.5-0.2-0.9-0.6-1V48
			c2.5-1.2,5.9-3.1,8.5-4.8C167.9,45.5,170.1,48.5,171.6,50.2z M167.4,51.9c-1.2-1.5-3.2-4.2-4.4-5.9l-0.1,0v8.8L167.4,51.9z"/>
		<path d="M147,50.2l-8.7,5.5v3.4c1.1,0.4,3.4,1.6,4.5,2.2l2.2-2.1c0.1-0.7,0.3-1.3,1-1.3c0.3,0,0.4,0.3,0.4,0.5
			c0,0.3-0.1,0.6-0.3,0.7l-5.7,5.6c-1.6-1-5.3-3-7.2-3.8v-0.2c0.3-0.1,0.6-0.5,0.6-1V49.1c0-0.5-0.2-0.9-0.6-1V48
			c2.5-1.2,5.9-3.1,8.5-4.8C143.4,45.5,145.6,48.5,147,50.2z M142.8,51.9c-1.2-1.5-3.2-4.2-4.4-5.9l-0.1,0v8.8L142.8,51.9z"/>
		<path d="M131.7,63.3c-0.1,4.7-2.3,8.1-6.6,8.1c-3.4,0-5.5-1.8-8.6-1.8c-1.8,0-2.8,0.6-3.3,1.2l-0.5-0.4c0.7-3.2,2.8-5.2,5.9-5.2
			c3.4,0,5.5,2.2,9,2.2c1.6,0,2.6-0.8,3.1-2l0-0.1c-0.5,0.2-1.1,0.3-1.6,0.3c-1.8,0-3.5-1.2-3.8-3.3c-0.9,0.6-2.6,2-3.5,2.7
			c-2.1-1.4-5.4-3.2-7.1-3.9v-0.2c0.4-0.1,0.6-0.5,0.6-0.9V49.2c0-0.6-0.2-1-0.7-1V48c3-1.2,6.3-3.2,8.5-4.8c1.9,1.5,5,3.6,7,4.8
			v0.2c-0.3,0.1-0.5,0.4-0.5,1v11.7c0,1.5,0.4,2.2,1.4,2.2c0.2,0,0.4,0,0.6,0L131.7,63.3z M125.1,61.4V50c-1.2-0.8-3.9-2.7-5.3-3.8
			l-0.2,0.1v12.6c1.5,0.7,4.1,2.3,4.9,2.9L125.1,61.4z"/>
		<path d="M94.9,61.4c-1.3,2.1-2.5,3.8-4.4,3.8c-1.5,0-2.5-0.8-3.1-2.5L85,55.5h-9.5l-1.4,4c1.5,0.1,2.9,1,3.3,1
			c0.4,0,0.8-0.3,1.3-1.1l0.6,0.4l-3.2,5.1c-0.9-0.7-2.2-1.5-4-1.5c-2.5,0-4,0.7-5.1,1.5l-0.4-0.1c0.5-2.7,2.7-5,6.6-5.2l6.6-19.4
			l-0.2-0.7c-0.5-1.4-1.4-2.1-2.3-2.1c-1,0-1.5,0.5-1.9,0.8L75,37.9c0.3-1.5,1.7-3.2,3.8-3.2c1.8,0,3,0.9,3.7,1.9h0.1
			c0.3-0.8,0.9-1.5,1.5-1.6l0.1,0.2c-0.2,0.2-0.5,0.9-0.5,1.7c0,0.4,0.1,0.8,0.2,1.2l7.8,23.1c0.2,0.5,0.6,0.8,1,0.8
			c0.6,0,1-0.4,1.5-1.1L94.9,61.4z M84,52.7l-3.8-11.1h-0.1l-3.8,11.1H84z"/>
		<path d="M58,59.5c-2.7,1.3-6.2,3.6-8.2,5.4c-1.2-0.9-2.7-1.9-4.5-1.9c-1.7,0-2.2,0.6-2.2,1.2c0,0.4,0.5,0.3,0.5,0.8
			c0,0.2-0.2,0.5-0.6,0.5c-0.4,0-0.8-0.4-0.8-1.1c0-1.1,0.7-2.6,2.7-4.8l3.5-3.8L44,53.5v-0.3c0.4-0.1,0.5-0.4,0.5-0.8v-3.3
			c0-0.3-0.2-0.7-0.5-0.9V48c2.9-1.4,6.1-3.2,8-4.8c0.5,0.6,1.9,1.3,3.3,1.3c1.2,0,1.3-0.4,1.3-0.8c0-0.2-0.2-0.3-0.2-0.5
			c0-0.3,0.2-0.4,0.4-0.4c0.4,0,0.6,0.3,0.6,0.9c0,1.8-1.4,3.9-4.4,3.9c-2,0-3.2-0.6-4-1.6l-0.2,0.1V51l2.7,1.3l1.2-1.2l5.2,2.6v0.3
			c-0.3,0.1-0.4,0.4-0.4,0.7v3.6c0,0.5,0.2,0.7,0.4,0.8V59.5z M53.1,61.4v-5.5l-2.6-1.2l-5.4,5.7l0.1,0c0.9-0.5,2.1-0.7,3.9-0.7
			C50.5,59.8,52.1,60.5,53.1,61.4L53.1,61.4z"/>
		<path d="M41.5,60c-2.5,1-6.5,3.3-8.4,4.8c-2.2-1.4-5.1-3.6-7.1-4.8v-0.3c0.4-0.1,0.6-0.6,0.6-1.1v-9.2c0-0.9-0.2-1.2-0.6-1.3V48
			c2.9-1.2,5.8-2.8,8.4-4.8c1.8,1.4,5.1,3.6,7,4.8v0.2c-0.4,0.2-0.5,0.5-0.5,1v9.7c0,0.5,0.3,0.8,0.6,1V60z M36.5,61.8v-12
			c-1.6-0.9-3.9-2.6-5.2-3.6L31,46.4v11.9c1.7,0.9,3.9,2.5,5.3,3.6L36.5,61.8z"/>
		<path d="M25.3,58l-3.6,6.8c-1.4-1.2-3.4-2-6.1-2c-4,0-9,1-10.4,1.9l-0.5-0.5c1.6-1.4,3.2-4.9,3.2-9.1c0-4.5-2.6-6.6-2.6-11.1
			c0-4.6,2-7.1,5.8-9l0.4,0.4c-1.4,1.1-2.1,2.5-2.2,4.2l6.5-5.4c1.2,1.2,3.1,2.5,4.9,2.5c1.3,0,2-0.3,2-0.9c0-0.3-0.3-0.4-0.3-0.6
			c0-0.3,0.2-0.4,0.5-0.4c0.4,0,0.6,0.4,0.6,0.9c0,2.5-2.5,4.5-5.1,4.5c-0.9,0-1.6-0.1-2.2-0.3v18.6c0.4,0,0.7-0.1,1-0.1
			c2.5,0,4.7,1,5.2,1c0.9,0,1.2-0.6,1.9-1.9L25.3,58z M15.8,58.7v-19c-1-0.4-1.8-1.1-2.6-2l-3.6,2.9c0,5.5,2.9,8,2.9,12.4
			c0,3.1-2.2,6.3-3.9,8l0.1,0C10.9,59.7,13.8,59,15.8,58.7z"/>
		<path d="M297.3,63.9"/>
	</g>
</g>
<g id="Layer_1">
</g>
</svg>
