<?xml version="1.0" encoding="utf-8"?>
<!-- Generator: Adobe Illustrator 18.0.0, SVG Export Plug-In . SVG Version: 6.00 Build 0)  -->
<!DOCTYPE svg PUBLIC "-//W3C//DTD SVG 1.1//EN" "http://www.w3.org/Graphics/SVG/1.1/DTD/svg11.dtd">
<svg version="1.1" xmlns="http://www.w3.org/2000/svg" xmlns:xlink="http://www.w3.org/1999/xlink" x="0px" y="0px"
	 viewBox="0 0 300 100" style="enable-background:new 0 0 300 100;" xml:space="preserve">
<style type="text/css">
	.st0{fill-rule:evenodd;clip-rule:evenodd;}
	.st1{fill-rule:evenodd;clip-rule:evenodd;fill:#C038F9;}
	.st2{fill:none;}
	.st3{fill-rule:evenodd;clip-rule:evenodd;fill:#231F20;}
</style>
<g id="Layer_2">
	<g>
		<g>
			<g>
				<path d="M100.1,59.4h-4.8L84.9,42.9v16.4h-5.9V30.5h4.8L94.2,47V30.5h5.9V59.4z"/>
				<path d="M127,59.4h-19.8V30.5H127v5.8h-13.9v5.4h12.1v5.6h-12.1v6.2H127V59.4z"/>
				<path d="M157.1,59.4h-7.1l-6.2-9.8l-6.2,9.8h-7l9.8-14.8l-9.3-14h7.1l5.7,9l5.7-9h7l-9.3,14L157.1,59.4z"/>
				<path d="M182.1,36.4H174v23h-5.9v-23H160v-5.8h22.1V36.4z"/>
			</g>
			<g>
				<path d="M96.7,92.9c-1.3,1.6-2.5,2.7-3.8,3.4c-1.4,0.8-3,1.2-4.9,1.2c-4,0-6.9-1.5-8.9-4.6c-1.6-2.6-2.4-6-2.4-10.2
					c0-4.2,0.8-7.6,2.4-10.2c1.9-3.1,4.9-4.6,8.8-4.6c1.9,0,3.5,0.4,4.9,1.2c1.2,0.7,2.5,1.8,3.8,3.4l-1.6,1.3
					c-1.1-1.3-2.1-2.3-3.1-2.8c-1.1-0.6-2.4-1-4-1c-6.1,0-9.2,4.2-9.2,12.7c0,8.5,3.1,12.7,9.2,12.7c1.6,0,2.9-0.3,4-1
					c1-0.6,2-1.5,3.1-2.8L96.7,92.9z"/>
				<path d="M105.4,97.1h-2.1V68.2h2.1V97.1z"/>
				<path d="M131.4,70.3h-9.2v26.8h-2.1V70.3h-9.2v-2.1h20.4V70.3z"/>
				<path d="M155.7,68.2l-9.4,19.3v9.5h-2.1v-9.6l-9.4-19.3h2.3l8.1,16.7l8.1-16.7H155.7z"/>
			</g>
		</g>
		<polygon points="202.5,77.3 200.1,77.3 200.1,13.8 134.9,13.8 134.9,11.4 202.5,11.4 		"/>
		<polygon points="213,66.4 210.5,66.4 210.5,2.9 145.3,2.9 145.3,0.4 213,0.4 		"/>
	</g>
</g>
<g id="Layer_1">
</g>
</svg>
