<?xml version="1.0" encoding="utf-8"?>
<!-- Generator: Adobe Illustrator 18.0.0, SVG Export Plug-In . SVG Version: 6.00 Build 0)  -->
<!DOCTYPE svg PUBLIC "-//W3C//DTD SVG 1.1//EN" "http://www.w3.org/Graphics/SVG/1.1/DTD/svg11.dtd">
<svg version="1.1" xmlns="http://www.w3.org/2000/svg" xmlns:xlink="http://www.w3.org/1999/xlink" x="0px" y="0px"
	 viewBox="0 0 300 100" style="enable-background:new 0 0 300 100;" xml:space="preserve">
<style type="text/css">
	.st0{fill-rule:evenodd;clip-rule:evenodd;}
	.st1{fill-rule:evenodd;clip-rule:evenodd;fill:#C038F9;}
	.st2{fill:none;}
	.st3{fill-rule:evenodd;clip-rule:evenodd;fill:#231F20;}
</style>
<g id="Layer_2">
	<g id="tw9HHo_1_">
		<g>
			<path d="M31.9,34.3c-0.4-0.7-1.3-0.1-1.2-1.2c1.5-0.4,3.1-0.1,4.6-0.2c0.6,0.6,0.4,1.2,0.4,1.8c0,7.1,0,14.2,0,21.3
				c0,0.7-0.2,1.5,0.3,2.3c0.8-0.5,0.6-1.1,0.6-1.7c0-6.5,0-13,0-19.5c0-0.8,0-1.5,0-2.3c1.3-0.3,2.4-0.1,3.7-0.2c0,8,0,15.7,0,23.5
				c1-1.5,0.8-3.1,0.9-4.7c0-1.6,0-3.2,0-4.9c0-1.7,0-3.4,0-5.1c0-1.6,0-3.2,0-4.9c0-1.7,0.2-3.4-0.4-5.2c1.9-1,3.7-0.3,5.5-0.5
				c0,1.2-0.9,0.8-1.3,1.4c0,0.7,0,1.6,0,2.5c0,6.4,0,12.8,0,19.2c0,1-0.1,2-0.4,3c-0.7,2.4-3.2,3.7-5.2,2.8
				c-0.3-0.1-0.6-0.2-0.9-0.3c-0.4,0.1-0.7,0.3-1.1,0.3c-2.8,0.7-5.3-1.1-5.4-4c-0.1-3.2,0-6.5,0-9.7c0-4.5,0-9,0-13.5
				C32,34.5,31.9,34.4,31.9,34.3z"/>
			<path d="M281.7,60.6c0,0.2-0.1,0.5-0.1,0.8c-1.6,0.4-3.1,0.1-4.7,0.1c-0.7-0.6-0.4-1.3-0.4-2c0-7,0-13.9,0-20.9
				c0-0.7,0.4-1.6-0.8-2.1c0,8.3,0,16.6,0,24.9c-1.8,0-3.4,0-5,0c-0.3-1.1,0.9-0.6,1.2-1.4c0-8.8,0-17.9,0-26.9
				c4.5-0.9,6.5-0.3,8.1,2.6c0.3,0.3,0.5-0.3,1,0.1c0.7,0.8,1.2,1.9,1.2,3.3c0,6.7,0,13.4,0,20.2C282.2,59.8,282.4,60.4,281.7,60.6
				c-0.1-0.5-0.9-0.3-1.1-0.8c0-7.7,0-15.4,0-23.1c-0.5,2.3-0.4,22.3-0.1,24C281,60.6,281.3,60.6,281.7,60.6z"/>
			<path d="M243.6,61.1c-0.1,0.3-0.4,0.5-0.7,0.5c-1.5,0-3.1,0-4.8,0c0-8.4,0-16.6,0-24.8c-0.8,1.5-0.5,3.1-0.6,4.6
				c0,1.7,0,3.4,0,5.1c0,1.6,0,3.2,0,4.9c0,1.7,0,3.4,0,5.1c0,1.6,0,3.2,0,5c-1.9,0.2-3.6,0.3-5.3,0c0.1-1,1-0.6,1.4-1
				c-0.3-2.4-0.2-25.7,0.1-27.4c2-0.4,4-0.4,5.9,0.3c1.6,1.1,2.2,2.5,2.1,4.4c-0.1,7.5,0,15,0,22.4
				C242.3,60.9,243.2,60.6,243.6,61.1L243.6,61.1z"/>
			<path d="M245.7,61.5c0.1-0.8,0.8-0.8,1.3-1.1c0-3.4,0-6.8,0-10.2c0-1.8-0.1-3.7,0.2-5.5c0.2-1.3-0.2-2.6-0.2-3.9
				c0-2.2,0-4.5,0-6.7c-0.5-0.2-0.9-0.4-1.4-0.6c0.2-0.2,0.3-0.5,0.5-0.5c2-0.3,4-0.4,6,0c1.9,0.4,3.4,1.7,3.3,4.1
				c-0.1,6.7,0,13.4,0,20.2c0,3-1.4,4.4-4.4,4.4C249.2,61.6,247.4,61.8,245.7,61.5z M251.6,36.8c-0.2,0-0.4,0-0.6,0c0,7,0,14,0,21
				c0.1,0,0.4,0,0.4,0C251.8,50.7,251.4,43.8,251.6,36.8z"/>
			<path d="M16.7,61.1c-0.1,0.2-0.2,0.4-0.3,0.8c-1.6-0.5-3.3,0.2-5.1-0.4c0-8.2,0-16.4,0-24.7c-0.2,0-0.3,0-0.5,0
				c-0.1,8.2,0,16.4-0.1,24.7c-1,0.3-1.9,0.2-2.8,0.2c-0.8,0-1.8,0.9-2.5-0.2c0.3-0.6,1-0.2,1.5-1c0-8.9,0-18,0-27.4
				c3-0.3,5.9-0.7,7.9,2.3c0.3,1.2,0.7,2.5,0.2,3.9c0.7,2.4-0.2,4.8,0.2,7.3c0.4,2.2,0.1,4.5,0.1,6.7c0,2.5,0,4.9,0,7.4
				C15.8,60.9,16.2,61,16.7,61.1L16.7,61.1z"/>
			<path d="M60.5,48.7c-0.4,2.1-0.1,4.2-0.2,6.3c-0.1,2.1,0,4.3,0,6.5c-1.8,0-3.4,0-5,0c0-0.8,0.8-0.3,1.1-0.9c0-8.7,0-17.7,0-26.5
				c-0.3-0.5-1.2-0.2-1.3-1.1c1.7-0.5,3.3-0.2,5.2-0.3c0,2.2-0.1,4.2,0,6.2c0.1,1.9-0.3,3.9,0.4,5.8c0.7-1.9,0.3-3.9,0.4-5.8
				c0.1-2,0-4,0-6.2c1.8,0.1,3.5-0.2,5.1,0.2c0,1-0.9,0.5-1.2,1.1c0,8.7,0,17.6,0,26.5c0.1,0.6,1.1,0,1.2,0.9c-1.6,0-3.2,0-5,0
				c0-4.3-0.1-8.6-0.1-12.9C60.9,48.7,60.7,48.7,60.5,48.7z"/>
			<path d="M192.6,36c0,6.8,0,13.6,0,20.4c0,1-0.1,2-0.5,2.9c-0.5,1.2-1.5,2.1-2.8,2.2c-2.1,0.2-4.2,0.2-6.3,0
				c-0.1-1.1,0.8-0.7,1.2-1.2c0-8.6,0-17.3,0-25.7c-0.2-0.8-1-0.6-1.2-1.1c0-0.3,0.1-0.5,0.4-0.5c1.8,0,3.5-0.1,5.3,0
				C190.7,33,191.8,34.4,192.6,36L192.6,36z M188.5,57.8c0.4-0.4,0.3-0.7,0.3-1.1c0-1.6,0-3.2,0-4.9c0-4.5,0-8.9,0-13.4
				c0-0.6,0.2-1.4-0.9-1.8c0,7,0,13.8,0,20.6C188,57.6,188.1,57.7,188.5,57.8z"/>
			<path d="M73.8,61.5c-1.8,0.4-3.4-0.1-5,0.4c-0.2-1.2,1-0.6,1.2-1.5c0-5.9,0-12,0-18.2c0-1.4,0.1-2.8,0-4.2
				c-0.2-2.3,0.7-4,2.8-5.2c0.8-0.1,1.7-0.2,2.5,0c1.8,0.5,3.1,2.3,3.1,4.4c0,7,0,14.1,0,21.1c0,0.8,0,1.5,0,1.9
				c0.2,1,1.1,0.5,1.3,1.3c-1.6,0.3-3.2,0.1-4.8,0.1c-0.5-0.8-0.3-1.6-0.3-2.3c0-2.3,0-4.6,0-6.9c0-0.6,0.2-1.3-0.7-1.7
				c-0.3,1.9-0.1,3.6-0.1,5.4C73.8,57.8,73.8,59.6,73.8,61.5z M74.6,46.7c0-1.7,0.1-3.3,0-5c-0.1-1.7,0.3-3.4-0.4-5.3
				C73.6,38.3,73.6,45,74.6,46.7z"/>
			<path d="M113.7,62.1c-0.6-0.8-0.5-1.7-0.5-2.7c0-7,0-13.9,0-20.9c0-0.6,0.1-1.2-0.2-1.8c-0.9,0.3-0.7,1-0.7,1.5
				c0,2.6-0.1,5.3,0,7.9c0.1,4.7-0.2,9.4,0.2,14.1c0,0.5-0.1,0.9-0.5,1.3c-1.5,0-3,0-4.5,0c-0.1-0.9,0.8-0.4,1.2-0.8
				c0-9.2,0-18.3,0-27.6c2-0.4,3.8-0.6,5.6,0.1c1.8,0.7,2.8,2,2.8,4.1c0,5,0,10,0,15.1c0,2.7,0,5.4,0,7.8c0.4,0.7,0.9,0.7,1.3,0.9
				c-0.2,0.2-0.2,0.4-0.3,0.4C116.5,61.9,115,61.4,113.7,62.1L113.7,62.1z"/>
			<path d="M180.5,60.7c0,0.2,0,0.5-0.1,0.8c-1.6,0.4-3.2,0.1-4.7,0.2c-0.6-0.6-0.3-1.2-0.3-1.8c0-7,0-13.9,0-20.9
				c0-0.7,0.3-1.6-0.8-2.3c-0.2,2.9-0.1,5.6-0.1,8.3c0,2.7,0,5.4,0,8.1c0,2.8,0,5.5,0,8.5c-1.8,0.2-3.4,0.3-5,0
				c-0.1-1,0.8-0.6,1.3-1.1c0-9,0-18.1,0-27.3c1.8-0.2,3.4-0.2,5.1,0.1c2,0.4,2.6,1.9,3.3,3.4l0,0c0,8-0.1,16.1,0,24.2
				C179.8,60.7,180.2,60.7,180.5,60.7L180.5,60.7z"/>
			<path d="M87.8,62.1c-2.5-1.5-3.1-3.9-3.7-6.2c-0.4-1.9-0.7-3.9-0.6-6c0.1-5.3,0-10.5,0-15.3c-0.1-1.2-1.4-0.5-1.2-1.7
				c1.5-0.4,3.1-0.1,4.6-0.1c0.6,0.6,0.4,1.2,0.4,1.8c0,5.8,0,11.6,0,17.4c0,0.8-0.2,1.7,0.3,2.6c0.7-0.8,0.5-1.5,0.5-2.2
				c0-5.6,0-11.3,0-16.9c0-0.8-0.2-1.7,0.2-2.5c2.4-0.4,3.4-0.3,4.9,0.1c0.1,0.9-0.9,0.4-1.3,1.1c-0.1,0.2,0,0.9,0,1.5
				c0,4.7,0,9.4,0,14.2c0,2.4-0.4,4.8-1,7.1C90.4,59,89.5,60.8,87.8,62.1z"/>
			<path d="M145.7,37.1c0.9-0.1,1.3-1,2.2-1.3c0.2,1-0.6,1.7-0.7,2.8c0.4,0.9,1.8,1.5,1.1,3.2c-0.2,0.5-1.1,0.6-1.6,1.1
				c-0.2,1.1,0.1,2.2,0.3,3.1c-0.6,1.1-1.7,1.5-2.4,2.1c-0.4,0.5-0.3,1-0.3,1.4c-0.1,4.1,0.3,8.2-0.4,12.2c-0.2,1.1,0.2,2.1,0.6,3.1
				c-1.5,0.3-2,0.2-2.4-1.1c-0.4-1.2-0.8-2.3-1-3.5c-0.2-1.2-0.7-2.4-0.6-3.4c-0.4-0.4-0.7-0.3-1.1-0.3c-0.5,2.3-0.8,4.7-1,7.4
				c-0.5,0.7-1.5,1.2-2.7,1.1c-0.2-1,0.9-0.8,1.1-1.7c-0.5-2.1-0.4-4.6-1.3-6.9c-0.3-0.6-1.1-0.2-1.4-0.9c0-0.8,0-1.7,0-2.6
				c0-0.6-0.7-0.6-0.9-1.2c0-0.5,0-1.1,0-1.7c-0.1-0.5-0.6-0.4-0.8-0.8c0.3-0.5,0.6-1,1.5-1.1c-0.2,1.1-0.6,2.2-0.2,3.5
				c2.2-0.9,4.5-1.8,7-1.8c0.4-1.2,0.1-2.5,0.2-3.7c0.1-1.2-0.6-2.2-0.3-3.3c-1.1-0.9-2.2-0.9-3.4-0.4c-2.4,0.9-4.4,2.4-6.4,3.9
				c0,0-0.2-0.2-0.4-0.3c0.5-1.2,2-1.5,2.4-2.8c1.3-0.1,1.3-0.1,2.3-1.4c1.8-0.1,3.5-0.8,5.4,0c0.8-0.9,1.5-1.7,2.3-2.6
				c0.2-0.7,0.7-0.9,1.3-1.2C144.7,37.9,145.4,37.8,145.7,37.1z"/>
			<path d="M208.8,34.2c-0.4-0.6-1.2-0.2-1.3-0.8c0.2-0.7,0.6-0.6,1-0.6c1.4,0,2.8,0,4.2,0c2.9,0.1,4.5,1.7,4.6,4.6
				c0,3.7,0,7.4,0,11c-1.4,2.2-1.8,2.6-4.5,3.1c0,2.9,0,5.8,0,8.7c0,0.8,1.2,0.2,1.2,1.1c-1.5,0.4-3.8,0.5-6.3,0.1
				c-0.2-1,1-0.5,1.2-1.2C208.8,51.6,208.8,42.9,208.8,34.2z M213,36.7c-0.1,0.1-0.3,0.1-0.3,0.2c0,3.5,0,6.9,0,10.4
				c0,0.1,0.2,0.1,0.3,0.2c0.1-0.1,0.3-0.1,0.3-0.2c0.1-3.5,0.2-6.9,0-10.4C213.4,36.9,213.1,36.8,213,36.7z"/>
			<path d="M259.9,34.3c-0.4-0.6-1.1-0.2-1.2-0.9c0.1-0.1,0.3-0.4,0.5-0.4c2.6,0,5.2,0,8,0c0.5,1.7,0.2,3.4,0.2,5.2
				c-1,0-0.7-0.9-1.1-1.3c-0.6,0.1-1.2-0.4-1.9-0.1c-0.1,0.1-0.2,0.1-0.2,0.2c-0.3,2.5-0.1,5.1-0.2,7.5c0.7,0.6,1.4,0.4,2,0.3
				c0.5-0.3,0.5-1,1.2-1.2c0.3,2.1,0.1,4.1,0.1,6.2c-1,0.1-0.7-0.9-1.3-1.1c-0.5-0.1-1.1-0.2-2,0.1c0,2.9,0,5.9,0,8.8
				c0.7,0.4,1.4,0.3,2,0.2c0.6-0.2,0.1-1.2,0.9-1.2c0.1,0.1,0.4,0.2,0.4,0.2c0,1.5,0,3.1,0,4.7c-2.9,0-5.7,0-8.6,0
				c-0.1-0.9,0.9-0.7,1.2-1.3C259.9,51.7,259.9,43,259.9,34.3z"/>
			<path d="M27.4,50c-0.9-0.2-0.5-0.9-0.9-1.2c-0.6-0.2-1.4-0.2-2.3,0c-0.2,1.5,0,3-0.1,4.5c0,1.5,0,2.9,0,4.3
				c0.8,0.6,1.6,0.2,2.1,0.3c0.8-0.3,0.4-1.1,1-1.3c0.3,0,0.5,0.1,0.5,0.4c0,1.5,0,2.9,0,4.3c-1.9,0.6-7.5,0.6-9.2,0
				c0.6-0.2,1-0.4,1.5-0.6c0.4-1.5,0.6-22.1,0.2-26.4c-0.3-0.7-1.1-0.3-1.5-0.9c0.2-0.2,0.4-0.5,0.6-0.5c2.7,0,5.4,0,8,0
				c0.7,1.9,0.7,3.9-0.1,5.3c-0.6-0.3-0.2-1-0.9-1.4c0,0-0.2-0.1-0.5-0.1c-0.5,0-0.9,0-1.5,0c-0.4,1.4-0.2,2.8-0.2,4.1
				c0,1.3,0,2.6,0,3.9c0.9,0.3,1.7,0.2,2.4,0.1c0.5-0.3,0.2-1.1,0.7-1.3C27.9,43.7,28,47.6,27.4,50z"/>
			<path d="M225.7,57.8c0.8,0,1.5,0,2.2,0c0.6-0.2,0.1-1.3,1.1-1.3c0.4,1.6,0.1,3.3,0.2,5c-3,0-5.8,0-8.6,0
				c-0.3-1.2,0.9-0.5,1.1-1.4c0-8.5,0-17.3,0-25.9c-0.3-0.6-1.2-0.1-1.2-1c0.1-0.1,0.2-0.3,0.3-0.3c2.7,0,5.4,0,8.2,0
				c0.4,1.8,0.3,3.6,0.1,5.3c-1.1,0-0.5-1-0.6-1.1c-1.2-0.7-1.9-0.7-2.9-0.2c-0.1,2.4,0,4.9-0.1,7.3c0.9,0.8,1.7,0.5,2.4,0.5
				c0.6-0.3,0.2-1.1,0.7-1.2c0.8,0.1,0.9,4.3,0.3,6.4c-0.9,0.1-0.4-0.9-1-1.2c-0.6-0.2-1.4-0.1-2.2,0
				C225.7,51.7,225.7,54.6,225.7,57.8z"/>
			<path d="M197.1,34.5c-0.3-0.7-1.1-0.6-1.3-1.2c1.6-0.6,6.8-0.6,8.7,0c0.1,1.6,0.4,3.2-0.3,5c-0.7-0.3-0.4-1-1.1-1.6
				c-0.4-0.3-1.2-0.2-2.1,0c-0.3,2.6,0,5.2-0.2,7.7c0.8,0.6,1.6,0.2,2.1,0.3c0.7-0.4,0.5-1.1,0.9-1.5c0.4,0.1,0.6,0.3,0.6,0.6
				c0,2,0,4,0,5.9c-1.3,0.3-0.7-0.9-1.3-1.2c-0.6-0.1-1.4-0.1-2.2,0c0,3.1,0,6.1,0,9.1c0.8,0.2,1.6,0.1,2.2,0.1
				c0.6-0.2,0.1-1.2,0.8-1.3c0.1,0.1,0.4,0.2,0.4,0.2c0,1.5,0,3,0,4.7c-2.9,0-5.7,0-8.5,0c-0.4-1.2,0.9-0.6,1.1-1.4
				C197.1,51.8,197.1,43.1,197.1,34.5z"/>
			<path d="M96.9,34.3c-0.3-0.7-1.3-0.1-1.2-1.1c0.1-0.1,0.2-0.3,0.3-0.3c2.7,0,5.4,0,8.2,0c0.3,1.8,0.3,3.6,0,5.4
				c-1.1-0.1-0.5-1.1-1.1-1.4c-0.7-0.3-1.5-0.4-2.3,0.2c0,2.5,0,5,0,7.6c0.7,0.4,1.5,0.2,2.1,0.2c0.8-0.1,0.1-1.4,1.1-1.3
				c0.5,1.7,0.5,4.8,0,6.4c-0.9,0-0.3-0.9-1-1.3c-0.1,0-0.5,0-0.9,0c-0.4,0-0.8,0-1.4,0c-0.1,3.1,0,6.1,0,9c0.8,0.6,1.6,0.2,2.1,0.3
				c0.9-0.1,0.3-1.3,1.3-1.3c0.4,1.6,0.1,3.2,0.1,5c-3,0-5.8,0-8.7,0c-0.1-0.1-0.2-0.3-0.2-0.1c0.5-1,1.1-0.2,1.5-0.8
				C96.9,52,96.9,43.1,96.9,34.3z"/>
			<path d="M291.9,60.7c0,0.2,0,0.5-0.1,0.9c-2.2,0.1-4.4,0.1-6.6,0c0-1.1,1.1-0.7,1.5-1.3c0-7.7,0-15.5,0-23.2
				c-0.6-0.7-1.2-0.5-1.8-0.5c-0.6,0.4,0,1.3-0.7,1.6c-0.3,0.1-0.5-0.1-0.5-0.3c0-1.6,0-3.2,0-4.9c3.3,0,6.4,0,9.6,0
				c0.1,1.8,0.2,3.5,0,5.3c-0.9-0.2-0.7-1-1-1.4c-0.5-0.3-1-0.3-1.4-0.1c-0.4,0.4-0.6,19.8-0.2,23.7C291,60.8,291.5,60.7,291.9,60.7
				L291.9,60.7z"/>
			<path d="M167,60.7c0,0.2,0,0.5-0.1,0.8c-2.2,0-4.4,0-6.6,0c0-1,1.2-0.5,1.4-1.2l-0.2-26.2c-0.6-0.2-1-0.4-1.4-0.6
				c0.2-0.2,0.3-0.5,0.5-0.5c2.1-0.3,4.1-0.1,6.1-0.1c0.3,1.2-0.9,0.7-1.1,1.3c0,8.7,0,17.5,0,26.2C166.2,60.8,166.6,60.7,167,60.7
				L167,60.7z"/>
			<path d="M46.2,62c-1.7,2.1-3.6,2.5-6,1.5c-1.8,0.8-3.6,0.9-5.4-0.7c2.7-0.5,5.2-0.1,7.6-0.2c1.4-0.5,2.3-1.5,3-3
				c0-8,0-16.3,0-24.8c1-0.2,1.9-0.4,2.7,0.1c0.2,1.1-1,0.7-1.1,1.3c-0.3,0.8-0.2,1.6-0.2,2.5c0,6.5,0,13,0,19.5
				C46.9,59.4,46.8,60.7,46.2,62z"/>
			<path d="M192.6,36.1c0-0.2,0.2-0.4,0.6-0.4c1,0.9,1.2,2.3,1.2,3.7c0,3.7,0,7.4,0,11.1c0,2.5-0.1,5.1,0,7.6
				c0.1,2.3-0.6,4.1-2.7,5.3c-2.9,0.5-6.2,0.3-7.5-0.3c1.2-1.2,1.6-1.2,4.3-0.7c1.3-0.2,2.5-0.7,3.4-1.8c0.6-0.7,1-1.5,1-2.5
				c0-7,0-14.1,0-21.1C193,36.6,193,36.2,192.6,36.1L192.6,36.1z"/>
			<path d="M255.8,35.8c1.4,0.8,1.7,2.1,1.7,3.4c0,6.6,0,13.1,0,19.7c0,1-0.3,1.8-0.6,2.6c-1.1,1.6-2.5,2.3-4.4,2.2
				c-1.6-0.1-3.2,0-4.7,0c-0.5-0.3-0.5-0.7-0.4-1.1c0.1-0.2,0.2-0.2,0.3-0.2c1.1-0.1,2.1-0.3,3.2,0.1c1,0.4,1.9-0.3,3.1-0.5
				c0.5-0.5,1-1,1.3-1.4c0.7-1.7,0.8-3.3,0.8-4.8c0-5.4,0-10.8,0-16.2C256.1,38.2,256.2,37,255.8,35.8z"/>
			<path d="M92.4,34.8c2-0.2,2-0.2,3.2,0.6c-0.6,0.2-1.1,0.4-1.6,0.6c-0.4,0.7-0.2,1.5-0.2,2.2c0,5.3,0,10.6-0.1,16
				c0,2.7-0.8,5.3-2.2,7.7c-0.5,0.8-1.2,1.4-1.7,2C89,64,88.5,63.7,88.2,63c3-2.8,4.1-6.3,4.1-10.3c0-5.1,0-10.2,0-15.3
				C92.4,36.6,92.4,35.8,92.4,34.8z"/>
			<path d="M217.8,35.7c1,0.8,1.3,1.8,1.3,3c0,3.4,0,6.8,0,10.2c0,2.7-0.9,3.8-3.7,4.4c-0.1,0-0.3,0.1-0.4,0.2
				c-0.7,2.1-0.4,4.4-0.5,6.4c-0.4,0.4-0.6,0.3-1.1,0.2c-0.1-2.5,0.1-5.2-0.4-7.4c0.6-0.9,1.1-0.8,1.6-0.9c2-0.5,3-1.7,3-3.8
				c0-3.7,0-7.4,0-11.1C217.6,36.6,217.5,36.2,217.8,35.7z"/>
			<path d="M66.8,60.2c-0.6,0.1-0.9,0.1-1.3-0.3c0-8.2,0-16.6,0-25.1c1-0.3,2-0.4,3,0.1c-0.5,1-0.5,1-1.7,1.5
				C66.8,44.2,66.8,52.1,66.8,60.2z"/>
			<path d="M167.1,60.7c-0.1-0.5-0.6-0.4-0.9-0.7c0-8.4,0-16.9,0-25.4c0.9-0.3,1.8,0.1,2.6-0.1c0.2,0.3,0.2,0.6,0.1,0.9
				c-0.3,0.5-0.9,0.2-1.3,0.8c0,4.2,0,8.6,0,13c0,3.3,0,6.6,0,10C167.5,59.6,167.9,60.3,167.1,60.7L167.1,60.7z"/>
			<path d="M16.7,61.2c0-0.6-0.3-1-1-1c0-3.9,0-7.7,0-11.5c0-2.8,0-5.6,0-8.4c0-1.5,0.2-3-0.5-4.8c1.4,0.9,1.9,2,1.9,3.3
				c0,7,0,14.1,0,21.1C17.2,60.4,17.2,60.9,16.7,61.2L16.7,61.2z"/>
			<path d="M243.7,61.2c0.3-0.9-0.8-0.8-1-1.5c0-5.9,0-12,0-18c0-2,0.1-4-0.5-6.3c1.7,1.3,1.9,2.7,1.9,4.3c0,5,0,9.9,0,14.9
				c0,1.8,0,3.6,0,5.3C244.1,60.4,244.2,60.9,243.7,61.2L243.7,61.2z"/>
			<path d="M119.2,60.4c-0.6,0-1-0.1-1.4-0.6c0-0.8,0-1.7,0-2.6c0-5.9,0-11.7,0-17.6c0-1.3-0.2-2.5-0.4-4c1.4,0.8,1.8,2.1,1.8,3.3
				C119.3,46.1,119.2,53.2,119.2,60.4z"/>
			<path d="M80.3,60.3c-0.6-0.1-0.8-0.1-1.3-0.2c-0.2-8.1,0-16.2-0.1-24.6c1.3,0.9,1.4,2.1,1.4,3.3c0,5.1,0,10.2,0,15.3
				C80.3,56.1,80.3,58.1,80.3,60.3z"/>
			<path d="M179.2,36.6c0-0.2,0-0.5,0-0.7c1.4,0.8,1.8,1.3,1.8,3c0,2.7,0,5.4,0,8.1c0,4,0,8,0,12.1c0,0.6,0.3,1.3-0.5,1.6l0.1,0
				c-0.1-0.6-0.8-0.3-1-1.1c0-0.4,0-1,0-1.6c0-6.4,0-12.8,0-19.1C179.5,38.1,179.9,37.2,179.2,36.6L179.2,36.6z"/>
			<path d="M291.9,60.7c-0.1-0.5-0.6-0.4-0.9-0.8c0-7.4,0-14.9,0-22.9c0.6,1,0.9,1.6,1.4,2.3c0,6.6,0,13.4,0,20.2
				C292.4,60,292.5,60.5,291.9,60.7L291.9,60.7z"/>
			<path d="M260.4,63.4c-0.1-0.3-0.1-0.7,0.2-1.2c1.2-0.4,2.4,0,3.7,0.1c1.2,0.1,2.4,0,3.6,0c0.6-1.5,0-3,0.5-4.2
				c0.6-0.4,0.9,0.1,1.2,0.3c0,1.7,0,3.3,0,4.9c-1.5,0.9-3.1,0.6-4.5,0.4C263.5,63.6,262,64.3,260.4,63.4z"/>
			<path d="M196.9,63.4c0.7-1.5,1.5-1.4,2.4-1.3c1.8,0.4,3.6,0.2,5.5,0.1c0.6-1.2,0-2.5,0.5-3.9c0.1-0.1,0.3-0.4,0.9-0.3
				c0.4,1.7,0.2,3.5,0.2,5.4C203.3,64,200.3,64,196.9,63.4z"/>
			<path d="M20.7,63.9c-0.3-0.6-0.3-0.8-0.1-1.3c2.4-0.4,4.9,0.1,7.5-0.2c0.4-1.2,0-2.6,0.2-3.7c0.4-0.5,0.7-0.4,1.2-0.2
				c0.4,1.7,0.1,3.4,0.2,5.3c-1.7,0.3-3.2,0.1-4.7,0.1C23.6,63.9,22.1,63.9,20.7,63.9z"/>
			<path d="M105.6,58c0.9,1.1,1.1,2.9,0.5,5.8c-2.8,0-5.6,0-8.4,0c-0.4-0.3-0.6-0.5-0.5-1.1c2.4-0.4,5,0,7.6-0.3
				C105,61,104.9,59.5,105.6,58z"/>
			<path d="M126.4,39.2c0.2-0.1,0.4-0.2,0.6-0.4c1.9,0.7,4,0.9,5.5,2.6c0.1,0.4-0.5,0.6-0.6,0.9c-1.6,0-2.8-1.1-4.5-0.9
				c-1.4-1.3-3.3-1.9-5-3.4C124,38,125.1,39,126.4,39.2z"/>
			<path d="M231.2,63.7c-3.1-0.3-6.1,0.1-9-0.3c-0.1,0-0.2-0.2-0.3-0.5c1.2-0.8,2.6-0.3,3.9-0.4c1.3-0.1,2.6,0.2,3.7-0.4
				c0.7-1.3-0.6-3.2,1.4-4.2C231.4,59.8,231.1,61.6,231.2,63.7z"/>
			<path d="M149.5,52.3c-1-1.2-1.8-2.3-2.6-3.3c0.1-0.5,0.6-0.5,0.8-0.7c1,0.3,1.2,1.8,2.6,1.5c0.6,0.6,0.9,1.4,1.7,1.9
				c0.3-0.1,0.5-0.1,0.9-0.2c0.7,1.3,1.4,2.5,2.1,3.8c-0.1,0.1-0.1,0.1-0.2,0.2c-0.5-0.4-0.9-0.8-1.4-1.2c-0.2,0.1-0.4,0.2-0.6,0.2
				c-1-0.7-1.3-2-2.3-2.5C150.1,51.9,149.9,52.2,149.5,52.3z"/>
			<path d="M150,41.2c-0.1-0.5-0.2-0.8-0.2-1c2.3-2.6,5.2-3.9,8.7-4.5c-0.6,0.9-1.6,0.8-2,1.6c0.2,0.1,0.4,0.3,0.7,0.5
				C154.5,38.3,152.8,40.4,150,41.2z"/>
			<path d="M145.7,37.1c-0.3,0.7-1,0.9-1.6,1.2c-0.5,0.3-1.1,0.5-1.3,1.2c-0.7-0.1-1.3-0.3-1.6-1.2c-0.2-0.5-0.8-0.7-1.3-0.7
				c-0.8,0-1.5-0.3-2.1-0.8c0.7-0.6,1.5-0.6,2.3-1c0.9,0.5,1.9,0.4,2.8,0.1C144.2,35.8,144.7,37,145.7,37.1z"/>
			<path d="M227.4,57.2c-0.4,0.3-0.7,0.3-1.1,0.1c-0.4-2.3-0.2-4.6-0.2-7c0-0.7,0.2-1.2,1.1-1.2C228.3,51.8,227.7,54.4,227.4,57.2z"
				/>
			<path d="M24.6,57.2c0-2.7,0-5.2,0-7.8c0.4-0.4,0.7-0.4,1.2-0.2c0.4,2.6,0.1,5.2,0.1,7.7C25.6,57.5,25.2,57.5,24.6,57.2z"/>
			<path d="M202.8,57.3c-0.6,0.1-0.9,0.2-1.3-0.2c0-2.5,0-5.1,0-7.7c0.3-0.3,0.6-0.3,1.2-0.1C203,51.8,202.8,54.5,202.8,57.3z"/>
			<path d="M264.5,49.2c0.6-0.2,0.9-0.2,1.3,0.2c0.2,2.4,0.1,5,0,7.5c-0.4,0.5-0.7,0.5-1.3,0.2C264.4,54.7,264.4,52,264.5,49.2z"/>
			<path d="M125.6,56.1c0.9-1.5,1.7-2.8,2.1-4.4c0.8-0.7,1.6-1.4,2.4-2.1c0.8,0,0.7,0.5,0.6,1c-0.3,1.1-1.9,3.4-2.9,4.1
				C127.1,55.1,126.4,55.6,125.6,56.1z"/>
			<path d="M102.5,57.4c-0.3,0-0.4,0.1-0.6,0.1c-0.1,0-0.3-0.1-0.5-0.2c0.4-2.7-0.2-5.4,0.4-8.3C103.2,50.6,103.4,53.6,102.5,57.4z"
				/>
			<path d="M155.3,44.6c-0.4,0.3-0.7,0.7-1.2,1.1c-0.8-0.1-1.7-0.5-2.8,0c-0.7,0.3-1.7,0.1-2.5,0c-0.4,0-0.8-0.4-0.8-1
				C150.5,43.7,152.9,43.7,155.3,44.6z"/>
			<path d="M28.4,45.1c0.4-0.3,0.7-0.3,1-0.1c0.3,0.3,0.3,0.7,0.3,1c0.1,5,0.1,5-0.7,6.1C28.1,51.1,28,49.4,28.4,45.1z"/>
			<path d="M268.4,44.9c0.5-0.1,0.8-0.1,1.1,0.3c0,2,0,4.2,0,6.3c-0.2,0.3-0.6,0.4-1,0.3C268.1,51.3,268,48.1,268.4,44.9z"/>
			<path d="M229.8,45.1c0.6-0.3,0.9-0.4,1.3,0c0.3,2,0.1,4.2,0.1,6.3c-0.4,0.5-0.7,0.4-1.2,0.2C229.5,49.6,229.8,47.4,229.8,45.1z"
				/>
			<path d="M206.5,51.6c-0.5,0.3-0.8,0.3-1.3,0c-0.3-2.1-0.1-4.3-0.1-6.4c0.4-0.5,0.7-0.5,1.3-0.2C206.7,47.2,206.5,49.4,206.5,51.6
				z"/>
			<path d="M25.9,44.2c-0.5,0.2-0.8,0.2-1.2-0.1c0-2.1,0-4.2,0-6.4c0.3-0.4,0.7-0.4,1.2,0C26.1,39.8,26.1,42.1,25.9,44.2z"/>
			<path d="M122.9,47.5c2.7-0.7,4.5-3.1,7.6-2.5C128.3,46.9,126.1,48.2,122.9,47.5z"/>
			<path d="M264.6,37.6c0.5-0.2,0.8-0.2,1.2,0.1c0.2,1.9,0.1,3.9,0,5.8c-0.4,0.6-0.8,0.4-1.3,0.4C264.6,41.8,264.6,39.7,264.6,37.6z
				"/>
			<path d="M202.8,37.6c0.1,2.2,0.2,4.2,0,6.1c-0.4,0.4-0.7,0.3-1.2,0.2c-0.4-2-0.1-4-0.2-6C201.7,37.4,202.1,37.4,202.8,37.6z"/>
			<path d="M294.7,40.6c-1-2.2-0.9-4-0.7-5.8c0.2-0.2,0.4-0.5,0.8-0.4c0.4,0.1,0.7,0.4,0.8,0.7C295.8,36.2,295.5,38.8,294.7,40.6z"
				/>
			<path d="M293.9,63.1c-0.3,0.2-0.4,0.4-0.6,0.4c-2.1,0.1-4.1,0.2-6.1,0.3c-0.5-0.5-0.5-0.9-0.3-1.4c0.1-0.1,0.1-0.2,0.2-0.2
				c1.9,0.2,3.8,0.1,5.6,0C293,62.2,293.6,62.4,293.9,63.1z"/>
			<path d="M283.6,63.2c-2.1,0.8-3.7,0.9-5.5,0.2c0-0.1-0.1-0.3-0.1-0.4c0-0.1,0-0.3,0.1-0.4c0.1-0.1,0.2-0.3,0.3-0.3
				c1.3,0,2.5-0.1,3.8-0.1C282.9,62.1,283.6,62.2,283.6,63.2z"/>
			<path d="M105.5,51.9c-1-3.9-0.8-5.8,0.6-7c0.6,1.1,0.2,2.3,0.3,3.4c0,1.1,0,2.3,0,3.2C106.1,51.9,105.8,51.8,105.5,51.9z"/>
			<path d="M139.4,32.5c0.3,0,0.6,0.2,0.9,0c0.5-0.1,0.4,0.6,0.8,0.7c0.3,0.1,0.6,0.2,0.6,0.5c0.1,0.6-0.2,0.9-0.5,1.2
				c-1.4,0.1-2.8,0.1-4.3,0.2c-0.1,0.2-0.3,0.4-0.4,0.7c-0.5-0.5-0.5-0.5-0.1-1.5C138.1,34.7,138.2,34.6,139.4,32.5z"/>
			<path d="M170.3,62.6c2.4-0.4,4.2-0.9,6.1,0.1c-0.4,1.4-1.7,1-2.4,1C172.9,63.9,171.6,64.3,170.3,62.6z"/>
			<path d="M226.2,37.5c0.4,0,0.6,0,1-0.1c0.9,2.1,0.4,4.2,0.2,6.3c-0.4,0.4-0.7,0.4-1.1,0.1C226.2,41.8,226.2,39.7,226.2,37.5z"/>
			<path d="M102.3,37.2c0.9,2.6,0.8,4.8,0,7.1c-0.9,0-0.8-0.5-0.9-1C101.3,39.7,101.4,38.4,102.3,37.2z"/>
			<path d="M206.4,40.1c-0.6,0.1-0.9,0.2-1.3-0.3c0-1.7-0.3-3.6,0.1-5.4c0.6-0.2,0.9,0,1.2,0.4C206.4,36.5,206.4,38.2,206.4,40.1z"
				/>
			<path d="M229.7,34.8c0.4-0.3,0.6-0.6,1-0.5c0.6,0.3,0.8,3,0.2,5.8c-0.8,0.2-1-0.4-1.1-1c-0.1-0.5-0.1-0.9-0.1-1.4
				C229.7,36.7,229.7,35.7,229.7,34.8z"/>
			<path d="M277.2,62.2c0.4,0.4,0.4,0.7,0.4,1c0,0.2-0.2,0.4-0.3,0.8c-1.7-0.7-3.6,0.5-5.5-0.9C273.6,61.7,275.5,62.5,277.2,62.2z"
				/>
			<path d="M209.5,63.8c-0.4-0.4-0.6-0.6-0.5-1.1c1.8-0.7,3.8,0,5.7-0.4c0.4-0.1,1.1-0.1,1.5,0.7c-1,1-2.2,0.4-3.3,0.5
				C211.8,63.7,210.6,63.7,209.5,63.8z"/>
			<path d="M269.5,40c-0.5,0.2-0.8,0.3-1.3-0.1c-0.2-1.7-0.2-3.6,0-5.4c0.5-0.2,0.8,0.1,1.3,0.3C269.7,36.5,269.7,38.2,269.5,40z"/>
			<path d="M113.7,62c0.1,0.5,0.9,0.3,1,0.9c-0.9,1.1-0.9,1.1-5.2,0.9c-0.4-0.2-0.4-0.6-0.3-1.1C110.5,62,112.2,62.9,113.7,62
				L113.7,62z"/>
			<path d="M29.7,40c-0.5,0.3-0.8,0.3-1.3,0c-0.2-1.6-0.1-3.4-0.1-5c0.2-0.1,0.3-0.3,0.4-0.3c0.2,0,0.4,0,0.8,0
				C29.9,36.5,29.7,38.2,29.7,40z"/>
			<path d="M7.1,63.8C7,63.3,6.9,63,7.2,62.6c1.6,0,3.3,0,5.1,0c0.1,0.1,0.2,0.2,0.2,0.4c0,0.2,0,0.4-0.1,0.8
				C10.7,64,9,63.9,7.1,63.8z"/>
			<path d="M13.1,63.7c-0.1-0.4-0.2-0.7,0.1-1.1c1.6,0,3.4,0,5.1,0c0.1,0.2,0.2,0.3,0.2,0.4c0,0.2,0,0.4-0.1,0.8
				C16.6,64,14.8,64.1,13.1,63.7z"/>
			<path d="M120.6,62.7c-0.7,1.4-1.2,1.5-5.3,1c-0.3-0.3-0.4-0.6,0-1.2C117,62.5,118.8,62.3,120.6,62.7z"/>
			<path d="M162,63.4c0-0.3,0-0.5,0-0.9c2.2-0.1,4.3-0.2,6.3-0.3c0.5,0.3,0.7,0.6,0.4,1.2C166.6,63.4,164.4,63.4,162,63.4z"/>
			<path d="M104.9,34.9c0.5-0.3,0.8-0.3,1.2-0.2c0.5,0.9,0.2,2,0.2,3.1c0,0.8,0.5,1.8-0.7,2.5C104.6,38.6,105,36.7,104.9,34.9z"/>
			<path d="M75.4,62.5c0.4,0.5,0.4,0.8,0.1,1.2c-1.8,0.1-3.7,0.6-5.4-0.6C71.8,62.2,73.6,62.6,75.4,62.5z"/>
			<path d="M81.5,63.8c-1.8-0.3-3.8,0.6-5.7-0.9c2.1-0.7,3.8-0.3,5.5-0.4C81.7,62.8,81.8,63.1,81.5,63.8z"/>
			<path d="M234,63.3c-0.3-0.4-0.2-0.7,0.1-1.1c1.2,0.1,2.5,0.4,3.7,0c0.6-0.2,1.2,0.1,1.5,0.7C238.2,63.9,237.7,64,234,63.3z"/>
			<path d="M62.3,63c2.1-0.8,4.5-0.7,5.9,0c-0.2,0.8-1,0.7-1.5,0.7C65.4,63.6,63.9,64,62.3,63z"/>
			<path d="M61.9,62.5c0.4,0.4,0.3,0.7,0.2,1.2c-1.8-0.2-3.6,0.1-5.3-0.3c-0.1-0.5,0-0.8,0.4-0.8C58.7,62.5,60.4,62.5,61.9,62.5z"/>
			<path d="M245.9,62.9c-1.9,1.3-3.6,0.5-5.2,0.7c-0.4,0-0.8-0.1-0.7-0.7C241.3,62.3,243.4,62.2,245.9,62.9z"/>
		</g>
	</g>
</g>
<g id="Layer_1">
</g>
</svg>
