<?xml version="1.0" encoding="utf-8"?>
<!-- Generator: Adobe Illustrator 18.0.0, SVG Export Plug-In . SVG Version: 6.00 Build 0)  -->
<!DOCTYPE svg PUBLIC "-//W3C//DTD SVG 1.1//EN" "http://www.w3.org/Graphics/SVG/1.1/DTD/svg11.dtd">
<svg version="1.1" xmlns="http://www.w3.org/2000/svg" xmlns:xlink="http://www.w3.org/1999/xlink" x="0px" y="0px"
	 viewBox="0 0 300 100" style="enable-background:new 0 0 300 100;" xml:space="preserve">
<style type="text/css">
	.st0{fill-rule:evenodd;clip-rule:evenodd;}
	.st1{fill-rule:evenodd;clip-rule:evenodd;fill:#C038F9;}
	.st2{fill:none;}
	.st3{fill-rule:evenodd;clip-rule:evenodd;fill:#231F20;}
</style>
<g id="Layer_2">
</g>
<g id="Layer_1">
	<g>
		<path d="M58.7,16c0-0.7-0.3-0.9-1.1-0.9c0,0-0.1,0-0.1,0l-1.7,0c-1.6,0-2.1,0.4-2.6,1.5c-0.3,0.7-0.3,1.4-0.8,1.4
			c-0.2,0-0.3-0.2-0.3-0.5c0-0.4,0.1-0.8,0.2-1.3l0.2-1.9c0-0.5,0.2-0.7,0.8-0.7c0.4,0,1.5,0.2,3.4,0.2h6.5c1.8,0,3.1-0.1,3.8-0.1
			c0.5,0,0.6,0.1,0.7,0.6c0.1,1.7,0.2,2.6,0.2,2.6c0,0.3-0.1,0.4-0.4,0.4c-0.5,0-0.4-0.8-0.7-1.4c-0.5-0.7-1.2-0.9-2.5-0.9h-2.1
			c-0.7,0-0.9,0.2-0.9,0.9v11.4c0,1.3,0.2,1.9,1.2,2.3c0.9,0.4,1.8,0,1.8,0.7c0,0.3-0.2,0.5-0.6,0.5c-0.5,0-1.5-0.2-3-0.2
			c-2.2,0-3.6,0.2-4.2,0.2c-0.4,0-0.5-0.1-0.5-0.4c0-0.6,0.8-0.4,1.6-0.7c0.9-0.3,1.2-0.9,1.2-2.3V16z"/>
		<path d="M74,21.1h7.3c0.6,0,0.6-0.2,0.6-0.8v-3.2c0-1.3-0.1-2-1-2.3c-0.8-0.3-1.6-0.1-1.6-0.7c0-0.2,0.2-0.4,0.6-0.4
			c0.4,0,1.3,0.2,2.8,0.2c1.7,0,2.7-0.1,3.1-0.1c0.3,0,0.5,0.1,0.5,0.3c0,0.5-0.8,0.3-1.4,0.8c-0.6,0.5-0.6,1.1-0.6,2.1v10.3
			c0,1.4,0.3,1.9,1.3,2.3c0.7,0.3,1.7,0.1,1.7,0.7c0,0.3-0.2,0.4-0.6,0.4c-0.4,0-1.4-0.1-3-0.1c-2,0-3.1,0.1-3.3,0.1
			c-0.3,0-0.4-0.1-0.4-0.4c0-0.5,0.7-0.4,1.3-0.9c0.6-0.5,0.6-1.2,0.6-2.1v-4.1c0-0.6-0.1-0.8-0.6-0.8H74c-0.7,0-0.7,0.1-0.7,0.8
			v4.1c0,1.4,0.3,1.9,1.3,2.3c0.7,0.3,1.7,0.1,1.7,0.7c0,0.3-0.2,0.4-0.6,0.4c-0.4,0-1.4-0.1-3-0.1c-2,0-3.1,0.1-3.3,0.1
			c-0.3,0-0.4-0.1-0.4-0.4c0-0.5,0.7-0.4,1.3-0.9c0.6-0.5,0.6-1.2,0.6-2.1V17.1c0-1.3-0.1-2-1-2.3c-0.8-0.3-1.6-0.1-1.6-0.7
			c0-0.2,0.2-0.4,0.6-0.4c0.4,0,1.3,0.2,2.8,0.2c1.7,0,2.7-0.1,3.1-0.1c0.3,0,0.5,0.1,0.5,0.3c0,0.5-0.8,0.3-1.4,0.8
			c-0.6,0.5-0.6,1.1-0.6,2.1v3.3C73.3,21,73.4,21.1,74,21.1z"/>
		<path d="M90.4,17.1c0-1.3,0-2-1-2.3c-0.8-0.3-1.6-0.1-1.6-0.7c0-0.3,0.2-0.4,0.6-0.4c0.3,0,1.3,0.1,3,0.1c3.8,0,6.4-0.1,8.1-0.1
			c0.4,0,0.4,0.1,0.4,0.6c0,0.1,0,0.3,0,0.5c0,0.9,0.2,1.6,0.2,2.1c0,0.4-0.1,0.6-0.4,0.6c-0.4,0-0.3-0.6-0.6-1.3
			c-0.6-1.4-1.7-1.5-3.9-1.5c-1.7,0-2.3,0.1-2.3,1.2v4.3c0,0.9,0.1,1,0.9,1H95c1.2,0,1.9-0.1,2.4-0.9c0.4-0.6,0.4-1.3,0.8-1.3
			c0.2,0,0.3,0.2,0.3,0.6c0,0.4-0.1,1.1-0.1,2.1c0,1.2,0.1,2,0.1,2.3c0,0.4-0.1,0.6-0.4,0.6c-0.4,0-0.3-0.5-0.6-1.3
			c-0.4-1-0.9-1.1-2.4-1.1h-1.5c-0.8,0-0.9,0.3-0.9,1.1v3.9c0,1.9,0.3,2.3,2,2.3c2.5,0,4.3-0.7,5.2-2c0.5-0.7,0.6-1.3,0.9-1.3
			c0.1,0,0.2,0.1,0.2,0.4c0,0.5-0.3,1.6-0.9,2.6c-0.7,1.2-1.6,1.5-3.1,1.5c-1,0-2.5-0.2-4.6-0.2c-2.3,0-3.5,0.1-3.7,0.1
			c-0.3,0-0.5-0.1-0.5-0.4c0-0.5,0.7-0.4,1.3-0.9c0.6-0.5,0.6-1.2,0.6-2.1V17.1z"/>
		<path d="M47.4,64.6c1.1,2.7,2.4,4.3,4.2,4.9c1.6,0.5,3.1,0.4,3.1,1.5c0,0.8-0.5,1.1-1.6,1.1c-1,0-3.5-0.4-7.2-0.4
			c-4.8,0-7.4,0.4-7.9,0.4c-0.7,0-1.1-0.4-1.1-1c0-0.4,0.3-0.9,0.9-1.1c2-0.8,3.2-1.3,3.2-3.2c0-0.6-0.2-1.5-0.6-2.6l-2.5-6.1
			c-0.9-2.2-1.7-2.4-4-2.4H22.9c-2.3,0-3.2,0.4-4.1,2.6L17,62.7c-0.5,1.3-1,2.4-1,3.5c0,1.7,0.8,2.7,2.5,3.3
			c1.8,0.7,3.8,0.3,3.8,1.7c0,0.7-0.5,1-1.5,1c-1.1,0-3.4-0.4-6.5-0.4c-3.8,0-5.8,0.4-6.2,0.4c-0.6,0-1.1-0.4-1.1-1
			c0-1.1,1.3-1.1,2.7-2c1.4-1,2.4-2.8,3.6-5.4l16.7-36.7c0.3-0.6,0.6-0.9,1-0.9c0.5,0,0.8,0.3,1.1,1L47.4,64.6z M28.8,36.9
			c-0.3,0-0.7,0.3-1,0.9l-5.7,12.7c-0.3,0.6-0.4,1-0.4,1.3c0,0.8,0.8,1,2.3,1h9.4c1,0,1.7-0.3,1.7-0.8c0-0.3-0.1-0.8-0.4-1.5
			l-5.1-12.5C29.4,37.2,29.1,36.9,28.8,36.9z"/>
		<path d="M60.2,42.7c0-2.8-0.2-4.2-2.1-4.9c-2-0.6-3.5-0.2-3.5-1.3c0-0.6,0.3-0.9,1.1-0.9c1,0,2.9,0.2,5.6,0.2
			c3.9,0,7.6-0.3,10.9-0.3c12.5,0,20,6.7,20,17.6c0,5.6-1.8,10.4-5.2,13.9c-3.5,3.6-7.9,4.9-13.9,4.9c-3.7,0-7-0.3-10.1-0.3
			c-3.4,0-5.4,0.3-5.9,0.3c-0.7,0-1-0.3-1-0.9c0-1.1,1.6-0.8,2.9-1.9c1.2-1.1,1.3-2.5,1.3-4.6V42.7z M73.1,70.2
			c8.6,0,13.6-5.3,13.6-14.6c0-11.2-6.4-18.3-16.6-18.3c-3.7,0-4.6,0.6-4.6,3.3V64C65.5,68.9,67,70.2,73.1,70.2z"/>
		<path d="M108.1,72.2c-0.2,0.5-0.5,0.7-0.9,0.7c-0.3,0-0.6-0.3-0.8-0.9L93.3,41.1c-0.7-1.7-1.6-2.8-2.8-3.3
			c-1.2-0.5-2.1-0.5-2.1-1.3c0-0.5,0.6-0.8,1.9-0.8c1.1,0,2.7,0.3,5.1,0.3c2.5,0,4.6-0.4,6.2-0.4c1.3,0,1.9,0.2,1.9,0.9
			c0,1-0.9,0.8-2.4,1c-1.4,0.2-2.3,1-2.3,2.2c0,0.7,0.3,1.8,0.9,3.2l8.5,20.4c0.3,0.6,0.5,0.9,0.7,0.9c0.3,0,0.6-0.3,0.8-0.8
			l7.4-17.5c0.9-2.2,1.3-4,1.3-5.3c0-1.9-0.7-2.6-2.4-3.2c-0.4-0.1-0.7-0.1-1.1-0.1c-0.1,0-0.3,0-0.4,0c-0.7,0-1.3-0.1-1.3-0.8
			s0.8-0.9,2.3-0.9c1.8,0,3.6,0.2,5.4,0.2c2.4,0,3.8-0.2,4.1-0.2c0.7,0,1.1,0.4,1.1,0.7c0,0.8-0.8,0.7-1.6,1
			c-1.3,0.6-2.3,2.2-3.5,4.9L108.1,72.2z"/>
		<path d="M154.4,40.3c3.3,3.3,5.1,7.9,5.1,13.1c0,5-1.8,9.6-4.7,13c-3.7,4.2-8.6,6.4-14.1,6.4c-5.6,0-10.5-2-13.9-5.4
			c-3.2-3.3-5.1-8.1-5.1-13.3c0-3.9,1.1-7.7,3.2-10.9c3.6-5.4,9.1-8.3,15.7-8.3C146.3,34.9,150.9,36.7,154.4,40.3z M153.9,55.8
			c0-5.4-1.6-10.3-4.4-14.1c-2.4-3.2-5.7-4.9-9.7-4.9c-7.6,0-12.4,5.5-12.4,14.5c0,5.8,1.5,10.8,4.7,15c2.1,2.7,5.5,4.4,9.3,4.4
			C148.9,70.8,153.9,65.1,153.9,55.8z"/>
		<path d="M190.6,66c2.2-1.9,2.7-3.5,3.6-3.5c0.4,0,0.6,0.4,0.6,0.9c0,0.9-0.8,2.4-2.5,4.1c-3.5,3.5-8.1,5.4-13.3,5.4
			c-10.3,0-17.4-7.2-17.4-18.1c0-6.1,2.2-11.4,6.2-15.2c3.1-2.9,7.1-4.4,11.8-4.4c2.2,0,4.5,0.5,6.8,1.3c1.6,0.6,2.6,1.3,3.5,1.3
			c1.1,0,1.3-1.9,2.1-1.9c1.2,0,0.8,1.2,1.1,3.8c0.4,3,1.1,5,1.1,6.1c0,0.7-0.4,1.1-0.9,1.1c-0.7,0-0.9-0.9-1.5-2
			c-3.1-5.2-7.4-7.8-12.9-7.8c-6.8,0-11.9,5.9-11.9,14.9c0,10.7,6.1,17.8,14.1,17.8C184.7,69.7,187.7,68.5,190.6,66z"/>
		<path d="M226.9,66c0.9,2.2,2,3.5,3.4,4c1.3,0.4,2.5,0.3,2.5,1.2c0,0.6-0.4,0.9-1.3,0.9c-0.8,0-2.8-0.4-5.9-0.4
			c-3.9,0-6,0.4-6.4,0.4c-0.6,0-0.9-0.3-0.9-0.8c0-0.4,0.3-0.7,0.7-0.9c1.7-0.7,2.6-1.1,2.6-2.6c0-0.5-0.2-1.2-0.5-2.1l-2-5
			c-0.7-1.8-1.4-2-3.3-2H207c-1.9,0-2.6,0.3-3.3,2.1l-1.4,3.6c-0.4,1-0.8,1.9-0.8,2.8c0,1.3,0.6,2.2,2,2.7c1.5,0.6,3.1,0.3,3.1,1.4
			c0,0.6-0.4,0.8-1.2,0.8c-0.9,0-2.7-0.4-5.3-0.4c-3.1,0-4.7,0.4-5.1,0.4c-0.5,0-0.9-0.3-0.9-0.8c0-0.9,1.1-0.9,2.2-1.7
			c1.1-0.8,1.9-2.3,2.9-4.4l13.6-29.8c0.2-0.5,0.5-0.7,0.8-0.7c0.4,0,0.6,0.3,0.9,0.8L226.9,66z M211.8,43.4c-0.3,0-0.6,0.3-0.8,0.7
			l-4.7,10.3c-0.2,0.5-0.3,0.8-0.3,1.1c0,0.6,0.6,0.8,1.9,0.8h7.7c0.8,0,1.3-0.3,1.3-0.7c0-0.3-0.1-0.7-0.3-1.2l-4.1-10.2
			C212.3,43.7,212,43.4,211.8,43.4z"/>
		<path d="M243,40.4c0-1.5-0.7-2-2.3-2c-0.1,0-0.2,0-0.3,0l-3.7,0.1c-3.5,0.1-4.6,0.8-5.7,3.3c-0.7,1.6-0.6,3-1.7,3
			c-0.4,0-0.7-0.4-0.7-1c0-0.8,0.3-1.7,0.4-2.7l0.4-4c0.1-1.1,0.4-1.4,1.7-1.4c0.9,0,3.3,0.4,7.4,0.4h14c3.8,0,6.6-0.3,8.2-0.3
			c1.1,0,1.3,0.2,1.4,1.2c0.3,3.7,0.5,5.6,0.5,5.7c0,0.6-0.3,0.9-0.8,0.9c-1,0-0.8-1.8-1.6-3.1c-1-1.6-2.6-1.9-5.4-1.9h-4.4
			c-1.6,0-1.9,0.5-1.9,1.9v24.4c0,2.7,0.4,4,2.6,4.9c1.9,0.8,3.9,0.1,3.9,1.4c0,0.6-0.5,1-1.3,1c-1.1,0-3.3-0.4-6.5-0.4
			c-4.7,0-7.7,0.4-8.9,0.4c-0.8,0-1.1-0.3-1.1-0.9c0-1.3,1.7-0.9,3.4-1.4c2-0.6,2.6-2,2.6-5V40.4z"/>
		<path d="M269.1,42.9c0-2.8-0.1-4.2-2.2-5c-1.7-0.6-3.4-0.3-3.4-1.4c0-0.6,0.5-0.8,1.3-0.8c0.6,0,2.7,0.3,6.4,0.3
			c8.1,0,13.9-0.3,17.4-0.3c0.8,0,0.8,0.2,0.8,1.2c0,0.3-0.1,0.7-0.1,1c0,1.9,0.4,3.5,0.4,4.6c0,0.9-0.3,1.3-0.8,1.3
			c-0.9,0-0.7-1.3-1.3-2.9c-1.2-2.9-3.7-3.2-8.5-3.2c-3.6,0-4.9,0.2-4.9,2.6v9.2c0,1.9,0.3,2.1,2,2.1h2.8c2.6,0,4.1-0.3,5.1-1.9
			c0.8-1.4,0.8-2.8,1.7-2.8c0.4,0,0.6,0.5,0.6,1.3c0,0.8-0.2,2.3-0.2,4.5c0,2.6,0.3,4.3,0.3,4.9c0,0.9-0.3,1.3-0.8,1.3
			c-0.9,0-0.6-1-1.2-2.8c-0.8-2.2-2-2.4-5.1-2.4h-3.2c-1.7,0-1.9,0.7-1.9,2.4v8.4c0,4,0.6,4.9,4.4,4.9c5.3,0,9.2-1.6,11.2-4.3
			c1.1-1.5,1.3-2.7,2-2.7c0.3,0,0.5,0.3,0.5,0.8c0,1.1-0.6,3.4-1.9,5.5c-1.6,2.6-3.5,3.3-6.7,3.3c-2.1,0-5.4-0.4-9.9-0.4
			c-4.9,0-7.6,0.3-8,0.3c-0.7,0-1-0.3-1-0.9c0-1.1,1.6-0.8,2.9-1.9c1.2-1.1,1.3-2.5,1.3-4.6V42.9z"/>
	</g>
</g>
</svg>
