<?xml version="1.0" encoding="utf-8"?>
<!-- Generator: Adobe Illustrator 18.0.0, SVG Export Plug-In . SVG Version: 6.00 Build 0)  -->
<!DOCTYPE svg PUBLIC "-//W3C//DTD SVG 1.1//EN" "http://www.w3.org/Graphics/SVG/1.1/DTD/svg11.dtd">
<svg version="1.1" xmlns="http://www.w3.org/2000/svg" xmlns:xlink="http://www.w3.org/1999/xlink" x="0px" y="0px"
	 viewBox="0 0 300 100" style="enable-background:new 0 0 300 100;" xml:space="preserve">
<style type="text/css">
	.st0{fill-rule:evenodd;clip-rule:evenodd;}
	.st1{fill-rule:evenodd;clip-rule:evenodd;fill:#C038F9;}
	.st2{fill:none;}
	.st3{fill-rule:evenodd;clip-rule:evenodd;fill:#231F20;}
</style>
<g id="Layer_2">
	<g>
		<path d="M277.4,60.8c-0.9,0.9-2.2,2.3-3.3,3.6c-1.6-1.2-3.2-2.3-4.1-3V37.2c0-1.2-0.6-1.7-1.1-2v-0.1l5.6-4.1l0.1,0.1v28.4
			C275.9,60.3,276.4,60.6,277.4,60.8L277.4,60.8"/>
		<path d="M251.4,43.3c-0.9,2-2.3,3.2-4.2,3.2c-1.8,0-2.5-0.5-3.8-1.8l-0.4,0.4v13.8c2.1,1.2,2.9,1.6,3.5,1.6c0.5,0,1-0.3,1.6-0.9
			l0.3,0.3c-1.6,1.6-3.1,3.1-4.4,4.5c-1.9-1.3-3.7-2.6-5.6-3.9V46.1c-0.7-0.6-1.7-1.4-2.6-1.7l0-0.1l3.1-3.4
			c1.5,1.3,2.6,2.2,4.2,3.4c1.3-1.2,2.3-2.1,3.5-3.3c1,1.3,2.9,2.1,4.8,2.2L251.4,43.3"/>
		<path d="M203.5,30.5c-1.2,2.7-2.7,4.3-4.6,4.3c-0.9,0-2.8-0.9-4.1-0.9c-1.5,0-2.6,0.5-3.5,2l-0.2-0.2c0.4-3.7,2.6-5.5,5.2-5.5
			c1.6,0,3.2,1,4.6,1c0.9,0,1.6-0.2,2.5-0.9L203.5,30.5"/>
		<path d="M221.8,30.8c-0.3,1.7-1.6,3.2-3,3.9v24.7c1.3,0.3,2,0.6,3,1.3l-3.6,3.8c-1.3-1.2-2.9-1.8-4.5-1.8c-2.3,0-4,0.8-5.1,1.6
			l0-0.2c0.7-3.2,3.2-5,5.3-5.2V48.1h-8.4v11.7c0.3,0.1,0.5,0.2,0.8,0.2c0.5,0,1.1-0.6,1.5-1.2l0.4,0.3c-1.1,1.3-3,3.5-4.4,5.4
			c-2.1-1.4-3.8-1.9-6.5-1.9c-2.3,0-4.3,0.6-5.8,1.5l-0.1-0.2c1.3-3.3,3.8-5.4,8.2-5.4c2,0,3.5,0.4,5.4,1.2V29.7h0.6v14.2h8.4v-9
			c-1.4-0.3-2.6-0.9-3.5-1.8c1.1-1.1,2.4-2.5,3.5-3.6c1.2,1,2.7,1.8,4.6,1.8c1.1,0,2.3-0.2,3.3-0.6L221.8,30.8"/>
		<path d="M203.3,34.8c-0.5,0.9-0.7,2.1-0.7,4.9v10.4c0,3.3-2.4,6.1-5.8,7.1l-0.2-0.1c0.6-0.6,1-1.5,1-2.6v-6.4h-1.2
			c-1.8,0-2.5,0.9-2.7,1.9h-0.1c-0.5-0.4-1.1-1.2-1.1-2.6c0-2.1,1.6-3.5,4-3.5h1.1v-2.3c0-3.9,2.4-5.9,5.5-6.8L203.3,34.8"/>
		<path d="M179.6,34.9c-0.7,0.8-1.5,1.6-2.5,2.8c-0.8-0.7-2-1.5-3.1-2.4c0.8-0.9,1.7-1.8,2.6-2.9C177.5,33.2,178.5,34.1,179.6,34.9"
			/>
		<path d="M182.2,60.8c0,0-1.2,1.3-3.1,3.7c-1.2-1-2.8-2.1-4.1-3V45.5c-0.9-0.7-1.4-1-1.8-1.1l0-0.1l3-3.4c1.2,0.9,2.2,1.6,3.4,2.5
			v16C180.8,60.3,181.6,60.6,182.2,60.8L182.2,60.8"/>
		<path d="M173,60.7c0,0-0.9,1-3.1,3.7c-1.4-1.1-2.6-2-4.1-3V46.3l-3.6-2.2l-1.8,1.5v15.1c0.7,0.4,1.3,0.8,1.3,0.8
			c-0.8,0.8-2.4,2.3-3.1,3c-1.1-0.9-2.7-2.1-2.7-2.1V46.2l-3.2-2.2l-2.2,1.8v14.9c0.4,0.3,0.9,0.6,1.3,0.8c-1.1,1-2.2,2.1-3.1,3.1
			c-1-0.8-2-1.6-2.7-2.1V46.2c-1.5-1.3-2-1.6-2.7-1.7l0-0.1c1.1-1.1,2.3-2.3,3.2-3.4c1.4,1.1,3,2.4,4.6,3.6c1.3-1,2.8-2.2,4.6-3.6
			c1.4,1,3.4,2.4,5,3.6c1.5-1.2,3-2.4,4.5-3.7c1.3,0.9,4.2,2.6,5.4,3.4v15.2C171.2,60.1,172.1,60.5,173,60.7L173,60.7"/>
		<path d="M123,34.9c-0.7,0.8-1.5,1.6-2.5,2.8c-0.8-0.7-2-1.5-3.1-2.4c0.8-0.9,1.7-1.8,2.6-2.9C120.9,33.2,122,34.1,123,34.9"/>
		<path d="M125.7,60.8c0,0-1.2,1.3-3.1,3.7c-1.2-1-2.8-2.1-4.1-3V45.5c-0.9-0.7-1.4-1-1.8-1.1l0-0.1l3-3.4c1.2,0.9,2.2,1.6,3.4,2.5
			v16C124.2,60.3,125.1,60.6,125.7,60.8L125.7,60.8"/>
		<path d="M87.4,30.4c-1.2,2.7-2.7,4.3-4.7,4.3c-0.9,0-2.8-0.9-4.1-0.9c-1.5,0-2.6,0.5-3.5,2l-0.2-0.1c0.4-3.7,2.7-5.5,5.3-5.5
			c1.6,0,3.2,1,4.6,1c0.9,0,1.6-0.3,2.3-0.8L87.4,30.4"/>
		<path d="M51.1,60.9c-0.9,0.9-2,2.2-3.2,3.6c-1.4-1.1-3.2-2.4-4.1-3V46.9c-1.2-0.9-2.4-1.8-3.7-2.7c-0.7,0.6-1.2,1-1.8,1.6v14.8
			c0.4,0.3,0.7,0.5,1.2,0.8l-3.1,3.1c-1.2-1-2.2-1.7-2.7-2.1V37.3c0-1.1-0.3-1.8-0.9-2.2V35l5.4-4l0.1,0v14l4.6-4
			c1.7,1.3,3.5,2.5,5.4,3.6v14.9C49.4,60.2,50.3,60.6,51.1,60.9L51.1,60.9"/>
		<path d="M289,60.3V44.5l-3-2.9c-1,0.6-1.8,1-2.5,1.5v14.8c1.3,1,3.6,2.5,4.7,3.1L289,60.3 M293.5,58.1c-3.5,1.9-6.1,4.1-8.5,6.4
			c-1.9-1.4-4.2-3-6.1-4.3V44.9c2-1.1,4.2-2.3,6.7-3.8l-5.2-5.2c-1-1-1.7-1.5-2.5-1.8l0-0.1c1.6-1.1,2.9-2.1,3.9-3.1
			c2,2.1,6.5,6.6,11.7,11.9V58.1z"/>
		<path d="M260.6,59.9v-7.5c-0.7-0.2-1.5-0.4-2.6-0.4c-2.3,0-3,1.8-3,4.1c0,2.5,0.9,4.4,2.6,5.5L260.6,59.9 M260.6,51.8v-4.7
			c-1.7-1.2-2.9-2.1-4.9-3.4l-0.3,0.2v8c0.8-0.2,1.9-0.4,2.4-0.4C259,51.4,259.8,51.6,260.6,51.8z M267.5,61.1l-2.8,3.3
			c-1.5-1.2-2.7-2.1-4.6-3.5c-2,1.1-3,1.9-5.7,3.6c-2.3-1.3-4-3.6-4-6.8c0-2.5,1.6-4.7,4.8-5.8c-1.4-1-2-1.3-3.2-1.9V45
			c2.7-1.4,4.3-2.3,6.9-4c2.1,1.4,3.7,2.4,6.3,4.1v14.7C266.4,60.7,267,61,267.5,61.1L267.5,61.1z"/>
		<path d="M231.8,49.9c-1.2-1.9-2.6-4.4-3.6-6.1l-0.4,0.2v8.3L231.8,49.9 M235.9,48l-8,4.9v5.8c2.1,1.3,2.9,1.8,3.6,1.8
			c0.6,0,1.1-0.5,2.2-1.6l0.4,0.4c-1.7,1.6-3.4,3.3-5.1,5.2c-1.8-1.3-3.8-2.7-5.5-3.9V46.3c2.3-1.4,6.2-3.9,8.1-5.3
			C232.7,43.1,234.1,45.3,235.9,48z"/>
		<path d="M136.4,59.9v-7.5c-0.7-0.2-1.5-0.4-2.6-0.4c-2.3,0-3,1.8-3,4.1c0,2.5,0.9,4.4,2.6,5.5L136.4,59.9 M136.4,51.8v-4.7
			c-1.7-1.2-2.9-2.1-4.9-3.4l-0.2,0.2v8c0.8-0.2,1.9-0.4,2.4-0.4C134.8,51.4,135.6,51.6,136.4,51.8z M143.3,61.1l-2.8,3.3
			c-1.5-1.2-2.7-2.1-4.6-3.5c-2,1.1-3,1.9-5.7,3.6c-2.3-1.3-4-3.6-4-6.8c0-2.5,1.6-4.7,4.8-5.8c-1.4-1-2-1.3-3.2-1.9V45
			c2.7-1.4,4.3-2.3,6.9-4c2.1,1.4,3.7,2.4,6.3,4.1v14.7C142.2,60.7,142.8,61,143.3,61.1L143.3,61.1z"/>
		<path d="M108,58.8V48.1h-5.7v11.4c1.5,0.8,2.1,1.2,3,1.2c0.5,0,0.9-0.4,1.3-0.7C106.6,60,107.5,59.2,108,58.8 M94.6,43.9v-8.7
			c0,0-2.6-1.9-3.9-2.8l-2,1.2v10.3H94.6z M101.7,59.3V33.5l-2.1,1.2v24C100.5,58.8,101,59,101.7,59.3z M108,43.9v-8.6
			c-2-0.4-3.3-1.5-4.4-2.9l-1.3,0.8v10.7H108z M116.5,60.5c0,0-2.5,2.4-4.1,4c-1.4-1.3-3.5-2.9-5.3-4.3c-1.3,1-4.6,3.4-5.7,4.3
			c-1.5-1.1-3.5-2-6.5-2c-2,0-3.4,0.7-4.5,1.4l-0.1-0.2c0.6-1.7,2.2-3.8,4.3-4.8V48.1h-5.9v11.6c0,3.1-2,4.9-5.2,4.9
			c-2.2,0-4.4-1.1-6.5-1.1c-2.2,0-3.1,0.6-4,1.6L72.8,65c0.2-3.5,2-5.6,5.4-5.6c2.2,0,4.6,1.1,7,1.1c2.1,0,2.9-0.7,2.9-2.8V33.8
			c-1,0.6-1.4,0.9-2.2,1.3v16.8c0,3.6-3.1,5.4-6.7,5.8l0-0.1c0.9-0.6,1.7-2,1.7-4v-5.5h-0.8c-1.8,0-2.5,0.9-2.7,1.9l-0.1,0
			c-0.5-0.4-1.1-1.2-1.1-2.6c0-2.1,1.7-3.5,4-3.5H81v-2.5c0-3.2,2-5.1,4.9-6.8l9.1-5.3c1.8,1.3,4,2.9,5.8,4.1l7-4
			c1.2,1.4,2.5,2.5,4.8,2.5c1.2,0,2.3-0.2,2.9-0.4l0.1,0.1c-0.2,1.6-1.1,3-2.6,3.8v23.3C114.5,59.7,115.6,60.4,116.5,60.5
			L116.5,60.5z"/>
		<path d="M61.2,49.9c-1.2-1.9-2.6-4.4-3.6-6.1L57.2,44v8.3L61.2,49.9 M65.3,48l-8,4.9v5.8c2.1,1.3,2.9,1.8,3.6,1.8
			c0.6,0,1.1-0.5,2.2-1.6l0.4,0.4c-1.7,1.6-3.4,3.3-5,5.2c-1.8-1.3-3.8-2.7-5.6-3.9V46.3c2.3-1.4,6.1-3.9,8.1-5.3
			C62,43.1,63.5,45.3,65.3,48z"/>
		<path d="M15.6,55.4V43.7c-1.3,0.6-2.7,1.2-4,1.8c-0.3,1.3-0.4,2.5-0.4,3.9c0,3,0.5,5.4,1.9,7.5C13.8,56.3,14.9,55.8,15.6,55.4
			 M32.1,56c-1.5,5.3-5.8,9.3-13,9.3c-8.2,0-13.3-5.7-13.3-13.8C5.8,45.7,9.7,40.3,16,38l0.2,0.1c-1.8,2.1-3.4,3.8-4.4,6.6l8.7-3.8
			v10.7c0,0.5,0.3,1.1,0.5,1.4V53c-2,1.1-6,3.3-7.7,4.2c2,2.5,4.8,4,8.6,4c1,0,1.8-0.1,2.9-0.4V38.5c-1.9-0.1-4.6-1-6.7-1.6
			c-2.5-0.7-5.2-1.4-7.1-1.4c-2.5,0-4.2,0.7-4.2,2.8c0,0.7,0.3,1.4,0.6,2l-0.3,0c-1.1-0.8-1.9-2.1-1.9-3.8c0-4.4,3.8-6,7.8-6
			c1.6,0,4.1,0.7,6.7,1.5c1.8,0.6,4.9,1.6,6.7,1.6c1.6,0,2.4-0.7,2.4-1.9c0-1-0.3-1.6-1.1-2.2l0.3-0.2c1.9,0.6,3.3,2.2,3.3,4.5
			c0,3-1.7,4.7-6.1,4.7v22.3c3-0.9,5-3,6.6-4.9L32.1,56z"/>
	</g>
</g>
<g id="Layer_1">
</g>
</svg>
