<?xml version="1.0" encoding="utf-8"?>
<!-- Generator: Adobe Illustrator 18.0.0, SVG Export Plug-In . SVG Version: 6.00 Build 0)  -->
<!DOCTYPE svg PUBLIC "-//W3C//DTD SVG 1.1//EN" "http://www.w3.org/Graphics/SVG/1.1/DTD/svg11.dtd">
<svg version="1.1" xmlns="http://www.w3.org/2000/svg" xmlns:xlink="http://www.w3.org/1999/xlink" x="0px" y="0px"
	 viewBox="0 0 300 100" style="enable-background:new 0 0 300 100;" xml:space="preserve">
<style type="text/css">
	.st0{fill-rule:evenodd;clip-rule:evenodd;}
	.st1{fill-rule:evenodd;clip-rule:evenodd;fill:#C038F9;}
	.st2{fill:none;}
	.st3{fill-rule:evenodd;clip-rule:evenodd;fill:#231F20;}
</style>
<g id="Layer_2">
</g>
<g id="Layer_1">
	<g id="j8DNZ1_1_">
		<g>
			<path d="M168.4,58.7c-1.5-0.3-2.4-1.1-2.5-2.5c-0.1-1.9,0.2-3.9,2-5c1.4-0.8,3.1-1.2,4.8-1.5c1.2-0.2,2.4,0.1,4,0.2
				c0.1-3.4,0.8-6.8-1.9-9.9c-1.1,0.1-2.2,0.1-3.2,0.2c2.1-3.4,3.8-4.6,7-4.7c2.6,1.7,3.3,4.3,3.4,7.3c0.1,4.8-0.1,9.6-0.1,14.4
				c0,2.7,0,5.4,0,8.2c0.5,0.1,0.8,0.1,1.4,0.2c0-8.8,0-17.5,0-26.1c1.6-1.5,2.9-2.7,4.4-4.1c2.3,1.7,4.7,3.6,7,5.4
				c0,5.9,0,11.7,0,17.6c-2,1.7-4.2,3.6-6.4,5.5c-1.4-0.7-2-2.6-3.9-2.3c-0.3,1.7-0.5,3.5,0.4,5.3c-1.1,1.7-2.3,3.5-3.5,5.3
				c-2.4-1.2-4.8-2.3-7.6-1.5c-0.3,0.4-0.7,0.9-1.2,1.5c0.5,0.6,0.9,1.2,1.2,1.6c1.8,0,2.3-2.2,4.1-2.1c-1.1,2-1.1,2-4,2.9
				c-0.7-0.5-1.6-1.1-2.3-1.7c-0.5-4.9,0.6-6.5,5.3-8.4c0-3.9,0-7.8,0-12.4c-0.9,1.6-1.5,2.7-2.1,3.9c-2.4-0.5-4.6-2.1-7.3-0.5
				c0,0.6,0.1,1.2,0.1,1.6c1.7,1.2,2.6-1.1,4.2-0.6C170.9,58.2,169.4,58.2,168.4,58.7z M189.2,44c-1.7-1.2-3.2-2.2-4.9-3.5
				c0,2.9,0,5.3,0,7.8c0.6,0.2,1.1,0.5,1.6,0.7c0,1.8,0,3.3,0,5c-0.5,0.2-1,0.4-1.6,0.7c0,2,0,4.1,0,5.9c1.5-0.3,2.9-0.5,4.5-0.8
				C188.9,54.7,189,49.5,189.2,44z"/>
			<path d="M88.3,58.2c-0.9,4-3.1,7.1-6.7,8.9c-4.3,2-11.3,0.9-14.1-5.6c-2.5-5.9-1.4-14.7,5-19c-3.2-0.9-6.1-1.9-9.1,0.8
				c0.1,0.7,0.3,1.5,0.6,2.7c1.6-1,2.9-1.8,4.6-2.8c-0.2,0.8-0.2,1.3-0.5,1.5c-1.2,0.9-2.5,1.7-4,1.7c-2.1-1.9-2.4-4.3-0.7-6.4
				c1.6-2,3.8-3.1,6.3-3.3c3.9-0.3,7.4,0.8,11,2.1c1.2,0.4,2.5,0.9,3.7,1.2c0.9,0.2,1.9,0.4,2.7-1.1c-0.4-0.3-0.8-0.8-1.2-1.1
				c-1.2,0.3-2.1,0.4-3.4,0.7c2.5-1.7,3.2-1.6,5.1,0.2c0.4,4.1-1.1,5.8-6.1,6.9c-0.2,5.5-0.3,11-0.5,16.7
				C84.2,61.8,86,59.4,88.3,58.2L88.3,58.2z M80.8,45.2c-2.4-0.8-4.8-1.7-7.1-2.5c-0.4,0.3-0.7,0.6-0.9,0.8
				c-4,4.6-3.7,10.2-0.9,15.2c1.6,3,5.1,4,8.6,3.1C80.5,56.5,80.7,51,80.8,45.2z"/>
			<path d="M26.7,56.8c-1.3,3.8-2.9,6.7-5.8,8.7C15.7,69.2,8.1,67,5.4,61C3,55.6,3.5,50.4,6.7,45.4c0.9-1.3,2.1-2.4,3.1-3.5
				c-3.8-2-6.7-1.6-8.8,1.3c0.1,0.2,0.1,0.5,0.2,0.8c0.1,0.2,0.4,0.4,0.8,0.9c1.4-0.7,2.8-1.5,4.2-2.2c-0.7,2.1-2.4,2.4-4,3
				c-2.7-2-3-4.5-0.7-6.9c2.2-2.3,5.1-3.4,8.2-2.9c3,0.5,6,1.4,9,2.2c1.3,0.3,2.5,0.9,3.8,1.1c0.7,0.1,1.5-0.2,2.5-0.3
				c-1-2.9-3-1-4.5-1.3c2.9-1.8,4.4-1.4,5.5,1.6c-0.6,3.6-3.1,5.1-6.6,5.5c0,5.6,0,11.1,0,16.8C22.1,60.7,24.2,59,26.7,56.8z
				 M11.5,42.1c-0.5,0.4-0.8,0.7-1.1,1c-3.3,4-3.2,8.4-1.6,13c1.5,4.3,4.9,6.1,9.7,5.1c0-5.6,0-11.2,0-16.8
				C16.1,43.7,13.8,42.9,11.5,42.1z"/>
			<path d="M234.5,75.1c-2.2-1.9-2.2-1.9-2-5.2c1.7-2.7,4.5-3.4,7.5-2.9c2.5,0.4,4.9,1.4,7.3,2.1c2.1,0.6,2.1,0.6,4.2-0.6
				c0.4-1-0.1-1.6-1-2c-0.5-0.2-1.1-0.3-1.6-0.4c-2.1-0.4-3.6-1.4-4.5-3.7c-1.7,1.3-3.3,2.5-4.8,3.7c-1.4-1.1-2.6-2.1-3.6-2.8
				c0.3-1.8,0.7-3.3,0.8-4.9c0.1-2.4,0-4.7,0-7.2c-0.5-0.4-1.1-0.8-1.6-1.2c1.2-1.2,2.4-2.3,3.4-3.3c1,0.9,2.1,1.9,2.9,2.6
				c0,4-0.1,7.7,0,11.5c0,0.5,0.6,1,0.9,1.5c1.8-0.5,2.2-1.6,2.2-3c0-2.6,0-5.3,0-8.1c-0.3-0.4-0.7-0.8-1.2-1.4c1-1.1,2-2.2,3.1-3.3
				c1.3,1.1,2.4,2,3.4,2.8c-0.2,1.2-0.6,2.4-0.6,3.5c-0.1,2.1,0,4.2-0.1,6.2c-0.2,2.3,0.5,4.1,2.6,5.1c0.2,0.1,0.4,0.3,0.7,0.5
				c1.6,3.9,0.2,6.9-3.8,8.1c-1.9,0.6-3.9,0.6-5.9,0.1c-1.8-0.5-3.6-1-5.5-1.4c-1.2-0.3-2.4-0.3-3.3,0.9c0.3,1.5,1.7,1.2,2.6,1.8
				c0.9-0.4,1.8-0.8,2.7-1.2C239.5,75.1,238.9,75.4,234.5,75.1z"/>
			<path d="M119.5,61.5c0.6,0.3,1.3,0.7,2.1,1.1c-1.2,1.4-2.1,2.5-3.1,3.6c-1.4-1.1-2.6-2.2-3.7-3.1c0.6-3.9,0.2-7.7,0.3-11.6
				c-0.6-0.3-1.1-0.6-1.6-0.7c-0.3-0.1-0.7-0.1-1-0.1c-0.2,0.3-0.6,0.5-0.6,0.7c-0.2,3.1-0.3,6.2-0.4,9.3c0.6,0.6,1.2,1.2,1.9,2
				c-1,1.1-2,2.1-3.2,3.4c-1.3-1.2-2.5-2.3-3.7-3.4c0.9-4,0.5-7.9,0.6-11.9c-1.3-0.1-2.1-0.2-3.2-0.3c-0.4,3.4-0.1,6.7-0.4,10.6
				c0.4,0.3,1,0.8,1.9,1.4c-1.3,0.9-2.6,1.9-3.8,2.8c-0.6-0.7-1.7-1.9-2.8-3.2c0.1-3.2,0.3-6.8,0.4-10.6c-0.6-0.4-1.2-0.8-1.8-1.3
				c1-1.2,2-2.5,3.2-4c1.3,1.4,2.6,2.7,4,4.2c0.9-0.8,1.6-1.4,2.2-2.1c0.6-0.6,1.1-1.3,1.9-2.1c1.4,1.5,2.6,2.7,3.8,4
				c2-0.7,2.8-2.7,4.4-3.6c1.2,1.2,2.4,2.4,3.6,3.7C118.9,53.8,119.9,57.5,119.5,61.5z"/>
			<path d="M36.1,64c0.4-3.9,0.2-7.4,0.3-11.1c-0.8-0.6-1.7-1.2-2.7-1.9c-1.2,2-0.7,3.8-0.8,5.5c-0.1,1.7,0,3.4,0,5.2
				c0.5,0.6,1.1,1.2,1.9,2.1c-1,0.9-2,2-3.3,3.2c-1.3-1.1-2.4-2.1-3.3-3c0.1-3.6,0.1-6.9,0.1-10.1c0-3.3,0-6.6,0-10
				c-0.5-0.3-1-0.5-1.6-0.8c1.1-1.4,2.2-2.8,3.4-4.3c1.3,1.5,2.4,2.7,3.3,3.8c-0.1,2.3-0.2,4.4-0.4,7c1.3-1.1,2.2-1.9,3-2.6
				c1.9,1,3.7,1.9,5.6,2.9c0,3.9,0,8.1,0,12.5c0.2,0.2,0.5,0.5,1.1,1c-1.1,1.1-2.2,2.3-3.4,3.5C37.8,66.2,37,64.8,36.1,64z"/>
			<path d="M264,46.7c1,0.9,2.1,1.8,3,2.6c-0.3,1-1,1.9-1,2.9c-0.1,2.9,0,5.8,0,9.1c0.6,0.3,1.3,0.6,1.8,0.8c-1,1.1-2,2.3-3.2,3.6
				c-1.1-1.2-2.1-2.3-3.2-3.5c-1.6,1.2-3.1,2.3-4.8,3.6c-1.3-0.9-2.5-1.8-3.8-2.7c1.7-4,0.7-8,1.1-11.9c-0.7-0.4-1.3-0.8-1.6-1.1
				c1.1-1.2,2.2-2.4,3.5-3.8c1,1.1,1.9,2.1,3,3.2c0,3.9,0,7.8,0,11.8c0,0.3,0.4,0.6,0.8,1.1c0.7-0.6,1.3-1.1,1.9-1.6
				c-0.5-3.8,0.7-7.6-0.7-11.4C261.7,48.6,262.8,47.7,264,46.7z"/>
			<path d="M143.5,46.4c2.3,1,4.3,1.9,6.5,2.8c-1.9,2.8-4.8,3.1-8.3,2.2c0,1.7,0.8,2.8,1.9,3.9c1.3-0.9,2.6-1.7,3.9-2.6
				c3.2,2.3,3.9,4.4,2.6,7.9c-0.9,2.2-2.1,4.2-4.2,5.5c-2.3,1.4-3.7,1.4-5.5-0.5c-0.6-0.6-1-1.4-1.5-2.1c-0.1,0.1-0.3,0.3-0.4,0.4
				c-0.4-0.1-0.7-0.1-1.1-0.2c-0.5,0-0.9,0-1.6,0c-0.3,0.6-0.6,1.2-0.9,1.7c0.7,1.2,1.5,0.9,2.3,0.6c0.7-0.2,1.3-0.4,2.2-0.6
				c-1.3,2.2-2.1,2.4-4.7,1.2c-0.9-2.4-0.6-3.6,1.1-5c1.9-1.6,4.4-2,6.3-0.8c0.7,0.4,1.3,1.1,1.9,1.6c0.5,0.4,0.9,0.8,1.5,1.4
				c1.3-2,0.6-3.8,0-5.5c-0.4-1.1-1-2.1-3-1.8c-0.5,0.7-1.3,1.7-2.1,2.8c-2-1.9-2.9-3.8-2.7-6.3c0.1-1.4,0.6-2.5,1.7-3.4
				C140.8,48.6,142.2,47.5,143.5,46.4z"/>
			<path d="M227.3,53.1c0.7-1.1,0.7-1.1,0.5-2.7c-1.5-0.1-1.5-0.1-2.6,0.6c-1.9-0.5-3.5-0.9-5.2-1.4c1.1-1.1,2.2-2.3,3.4-3.6
				c3.3,1.9,6.7,2.8,10.2,3.3l-0.1-0.1c-0.2,0.7-0.5,1.4-0.5,2.2c-0.1,3.1,0,6.2,0,9.4c0.5,0.4,1,0.8,1.5,1.3
				c-1.1,1.4-2.2,2.8-3.5,4.3c-1.2-0.9-2.3-1.8-3.5-2.7c-1.3,0.9-2.6,1.8-4,2.7c-1.6-1.1-3.3-2.2-4.9-3.3c0-1.3,0-2.6,0-4
				c2.3-2.1,4.5-4.3,6.7-6.4c0.1,0.1,0.2,0.2,0.3,0.3c-0.5,0.9-1.1,1.7-1.6,2.6c0,1.6,0,3.2,0,4.7c1.6,1.9,1.6,1.9,3.8,1.9
				c0-2.5,0-5,0-7.6C227.9,53.9,227.5,53.5,227.3,53.1L227.3,53.1z"/>
			<path d="M286.4,50c2.5-1.1,5.1-2.3,7.9-3.6c1.3,2,2.6,3.9,4.1,6.2c-2.4,1.4-4.6,2.8-7,4.3c0,1.5,0,3,0,4.5c2.7,2.2,4.6,0,6.6-1.3
				c0,0.3,0.1,0.6,0,0.7c-1.9,1.9-3.7,3.7-5.8,5.7c-2-1.1-4-2.2-5.9-3.2C286.4,58.8,286.4,54.5,286.4,50z M291.4,55.3
				c0.8-0.5,1.5-0.9,2.4-1.4c-0.8-1-1.5-1.9-2.4-3.2C291.4,52.5,291.4,53.8,291.4,55.3z"/>
			<path d="M135,53.5c-2.4,1.5-4.6,2.9-6.9,4.3c-0.1,0.9-0.2,1.7-0.2,2.5c-0.1,2.6,1.6,3.8,4,2.5c1-0.5,1.8-1.2,2.4-1.5
				c-1.7,1.7-3.6,3.7-5.7,5.8c-1.7-1-3.7-2.1-5.6-3.2c0-4.4,0-8.6,0-13c2.5-1.1,5.2-2.3,8-3.6C132.2,49.4,133.5,51.4,135,53.5z
				 M130.4,54.8c-0.8-1-1.4-1.9-2.4-3.1c0,1.8,0,3,0,4.5C128.9,55.6,129.6,55.2,130.4,54.8z"/>
			<path d="M213.5,46c1.6,1.4,3.2,2.7,4.9,4.1c-1.2,1.3-2.2,2.5-3.2,3.6c-1.4-1.2-2.8-2.4-4.6-3.9c-0.6,3.8-0.2,7-0.4,10.1
				c2.7,2.9,3.7,3,7.2,0.2c0.1,0.2,0.2,0.3,0.2,0.5c0,0.3,0,0.6-0.1,1c-2.1,1.4-4.3,2.9-6.6,4.4c-1.8-1.1-3.7-2.3-5.4-3.4
				c0-4.3,0-8.5,0-13C208,48.5,210.7,47.3,213.5,46z"/>
			<path d="M55.5,62.1c-1.7,1.8-3.4,3.7-5,5.5c-2.2-1.3-4.2-2.4-5.9-3.4c0-4.4,0-8.6,0-13c2.4-1.1,5-2.3,7.9-3.6
				c1.4,2.1,2.8,4.1,4.2,6.1c-2.5,1.6-4.8,3-7.2,4.4c0,1.4,0,2.7,0,4.3c0.6,0.4,1.2,0.9,2,1.4C52.8,63.3,54.2,62.7,55.5,62.1
				L55.5,62.1z M52,55.1c-0.9-1.1-1.6-2-2.5-3.3c0,1.8,0,3.2,0,4.8C50.4,56,51.1,55.6,52,55.1z"/>
			<path d="M90.1,51.8c-0.8-0.3-1.2-0.4-1.7-0.6c1.1-1.4,2.2-2.8,3.4-4.3c1.3,1.4,2.4,2.6,3.4,3.7c-0.1,2-0.2,3.7-0.2,5.5
				c0,1.7,0,3.4,0,5.3c0.4,0.5,0.9,1.2,1.5,2c-1.1,1-2.1,2.1-3.3,3.2c-1.1-1-2.3-2.1-3.4-3.1C90.4,59.4,90,55.6,90.1,51.8z"/>
			<path d="M272.8,66.1c-1-0.9-2.1-2-3.2-3c0-3.8,0-7.4,0-11.4c-0.2-0.2-0.6-0.7-1.1-1.3c0.9-1.2,1.9-2.4,2.9-3.7
				c1.2,1.4,2.4,2.7,3.4,3.9c-0.1,3.3-0.3,6.8-0.5,10.6c0.6,0.5,1.2,1,1.9,1.6C275.3,63.9,274.2,64.8,272.8,66.1z"/>
			<path d="M277.6,63.2c1-3.8,0.5-7.4,0.6-11.2c-0.7-0.5-1.3-1-2.1-1.5c1.2-1.1,2.4-2.3,3.8-3.6c1.1,1.2,2.2,2.5,3.3,3.6
				c-1,3.7-0.4,7.2-0.6,10.8c0.6,0.6,1.1,1.1,1.7,1.6c-1.1,1.1-2.2,2.2-3.4,3.4C279.9,65.3,278.8,64.3,277.6,63.2z"/>
			<path d="M196,50.3c1.2-1.5,2.2-2.7,3.4-4.2c1.2,1.3,2.3,2.5,3.4,3.8c-0.9,3.5-0.3,7.1-0.5,10.7c0.6,0.6,1.1,1.2,1.8,2
				c-1.1,1-2.1,2.1-3.4,3.3c-1.1-1.1-2.2-2.2-3.2-3.1c0-3.9,0-7.5,0-11.4C197.2,51.1,196.7,50.7,196,50.3z"/>
			<path d="M162.6,51.9c-0.8,1.1-1.5,2.3-2.3,3.4c-2.6-0.8-4.9-1.8-7.9-1.3c1.3-1.2,2.2-2.2,3-2.9C158,51.4,160.3,51.7,162.6,51.9
				L162.6,51.9z"/>
			<path d="M91.8,45.3c-0.7-1.2-1.4-2.3-2-3.3c-0.2,0.2-0.5,0.5-0.7,0.7c1-1,2.1-2.1,3.3-3.3c1.1,0.9,2.3,1.7,3.6,2.7
				C94.6,43.2,94.1,45.1,91.8,45.3z"/>
			<path d="M200.3,38.9c1,0.8,2,1.7,3.1,2.7c-1.5,1-1.9,3.4-4.3,3c-0.8-0.9-1.6-1.7-2.4-2.6C197.9,41.1,199,40.1,200.3,38.9z"/>
			<path d="M226.3,52.4c0.3,0.2,0.7,0.5,1,0.7l0.1-0.1c-0.4-0.1-0.8-0.3-1.2-0.4L226.3,52.4z"/>
			<path d="M88.4,58.2C88.4,58.2,88.3,58.2,88.4,58.2L88.4,58.2z"/>
			<path d="M56.1,61.7c0-0.1,0-0.1,0-0.2C56.1,61.5,56.1,61.5,56.1,61.7L56.1,61.7z"/>
			<path d="M225.5,52.4c0.3,0,0.5,0,0.8,0l-0.2,0.2c-0.1,0.1-0.2,0.1-0.4,0C225.6,52.6,225.6,52.5,225.5,52.4z"/>
			<path d="M55.5,62.2c0.2-0.2,0.4-0.4,0.6-0.5L56,61.6C55.9,61.8,55.7,62,55.5,62.2L55.5,62.2z"/>
			<path d="M162.6,52c0.1-0.1,0.2-0.1,0.2-0.1C162.8,51.8,162.7,51.9,162.6,52L162.6,52z"/>
			<path d="M233.6,49.2c0-0.1,0-0.1,0.1-0.2C233.6,49,233.6,49.1,233.6,49.2L233.6,49.2z"/>
			<path d="M74.7,49.3c1.7-1.4,3-2.4,4.3-3.4c0,3.4,0,6.8,0,10.2c-1.5,1.2-2.9,2.3-4.3,3.4C74.7,56.1,74.7,52.7,74.7,49.3z"/>
			<path d="M12.4,58.8c0-3.1,0-6.2,0-9.7c1.3-1.2,2.8-2.5,4.5-4.1c0,3.5,0,6.7,0,9.9C15.7,56.7,14.2,57.9,12.4,58.8L12.4,58.8z"/>
			<polygon points="12.4,58.7 12.3,58.9 12.4,58.8 			"/>
		</g>
	</g>
</g>
</svg>
