<?xml version="1.0" encoding="utf-8"?>
<!-- Generator: Adobe Illustrator 18.0.0, SVG Export Plug-In . SVG Version: 6.00 Build 0)  -->
<!DOCTYPE svg PUBLIC "-//W3C//DTD SVG 1.1//EN" "http://www.w3.org/Graphics/SVG/1.1/DTD/svg11.dtd">
<svg version="1.1" xmlns="http://www.w3.org/2000/svg" xmlns:xlink="http://www.w3.org/1999/xlink" x="0px" y="0px"
	 viewBox="0 0 300 100" style="enable-background:new 0 0 300 100;" xml:space="preserve">
<style type="text/css">
	.st0{fill-rule:evenodd;clip-rule:evenodd;}
	.st1{fill-rule:evenodd;clip-rule:evenodd;fill:#C038F9;}
	.st2{fill:none;}
	.st3{fill-rule:evenodd;clip-rule:evenodd;fill:#231F20;}
</style>
<g id="Layer_2">
</g>
<g id="Layer_1">
	<g>
		<path d="M1.1,69.2l4.4-7.9c2.1,2.8,5.6,4.2,8.7,4.2c3.2,0,5.3-2.4,5.3-5.8c0-9.4-16.9-9.4-16.9-25.4c0-8,5.4-14.8,14.8-14.8
			c4.5,0,8.6,1.5,11.5,4.3L25,31.5c-2.1-2.1-4.5-3.1-7.3-3.1c-2.9,0-4.9,2.1-4.9,5.3c0,8.3,16.9,9.4,16.9,25.3
			c0,8.9-5.8,15.4-14.9,15.4C8.9,74.4,4.5,72.6,1.1,69.2z"/>
		<path d="M36.8,73.5V38.9h-6.4v-8.5H53v8.5h-6.3v34.6H36.8z"/>
		<path d="M71.5,73.5l-1.1-7h-7.5l-1.1,7h-10L61,30.3h11.3l9.2,43.1H71.5z M66.6,41.1L64,57.9h5.2L66.6,41.1z"/>
		<path d="M87.3,73.5V38.9h-6.4v-8.5h22.6v8.5h-6.3v34.6H87.3z"/>
		<path d="M107.7,73.5V30.3H128v8.5h-10.5v8.4h10.1v8.5h-10.1v9.1H128v8.5H107.7z"/>
		<path d="M134,73.5V20.4h10v53.1H134z"/>
		<path d="M177.3,73.5V50.4l-6.7,23.1h-3.2L161,50.4v23.1h-9.8V30.3h12.2l5.6,19.7l5.8-19.7h12.1v43.1H177.3z"/>
		<path d="M192.4,73.5V30.3h13c9,0,13.1,6.6,13.1,14c0,7.4-4.1,14-13.1,14h-3.2v15.1H192.4z M208.5,44.3c0-3.3-1.6-5.4-4.3-5.4h-2.1
			v10.9h2.1C206.9,49.8,208.5,47.7,208.5,44.3z"/>
		<path d="M237.1,73.5l-1.1-7h-7.5l-1.1,7h-10l9.2-43.1h11.3l9.2,43.1H237.1z M232.2,41.1l-2.6,16.9h5.2L232.2,41.1z"/>
		<path d="M248,51.9c0-13.1,4.5-22.3,14.7-22.3c7.8,0,10.3,6.2,11.8,11.1l-7.8,2.8c-0.7-3.3-1.7-5.3-4-5.3c-3.5,0-4.7,5.5-4.7,13.6
			c0,8.1,1.2,13.6,4.7,13.6c2.5,0,3.6-2.7,4.1-6.1l7.8,2.8c-1.2,5.1-3.8,12-11.8,12C252.6,74.2,248,64.9,248,51.9z"/>
		<path d="M283,73.5V38.9h-6.4v-8.5h22.6v8.5h-6.3v34.6H283z"/>
	</g>
</g>
</svg>
