<?xml version="1.0" encoding="utf-8"?>
<!-- Generator: Adobe Illustrator 18.0.0, SVG Export Plug-In . SVG Version: 6.00 Build 0)  -->
<!DOCTYPE svg PUBLIC "-//W3C//DTD SVG 1.1//EN" "http://www.w3.org/Graphics/SVG/1.1/DTD/svg11.dtd">
<svg version="1.1" xmlns="http://www.w3.org/2000/svg" xmlns:xlink="http://www.w3.org/1999/xlink" x="0px" y="0px"
	 viewBox="0 0 300 100" style="enable-background:new 0 0 300 100;" xml:space="preserve">
<style type="text/css">
	.st0{fill-rule:evenodd;clip-rule:evenodd;}
	.st1{fill-rule:evenodd;clip-rule:evenodd;fill:#C038F9;}
	.st2{fill:none;}
	.st3{fill-rule:evenodd;clip-rule:evenodd;fill:#231F20;}
</style>
<g id="Layer_2">
	<g>
		<g>
			<path d="M0.7,42.6H0l0.1-5.1h20.6l0.1,5.1h-0.7c-0.2-1.4-0.6-2.4-1-3c-0.4-0.6-0.9-1-1.3-1.1c-0.5-0.1-1.3-0.2-2.5-0.2H12v15
				c0,1.7,0,2.8,0.1,3.3s0.3,0.9,0.6,1.2c0.3,0.3,1,0.4,1.9,0.4h1v0.7H5.1v-0.7h1.1c0.9,0,1.5-0.1,1.9-0.3c0.3-0.2,0.6-0.6,0.7-1.1
				s0.1-1.6,0.1-3.4v-15H5.7c-1.4,0-2.3,0.1-2.8,0.2c-0.5,0.1-0.9,0.5-1.3,1.2C1.3,40.3,0.9,41.3,0.7,42.6z"/>
			<path d="M31.9,50.6h-8.5v3.9c0,1.3,0,2.1,0.1,2.5c0.1,0.4,0.2,0.7,0.5,0.9c0.3,0.2,0.8,0.3,1.5,0.3h0.4v0.6h-7.4v-0.6h0.4
				c0.7,0,1.2-0.1,1.5-0.3s0.4-0.5,0.5-0.8c0.1-0.4,0.1-1.2,0.1-2.6v-8c0-1.3,0-2.1-0.1-2.5c-0.1-0.4-0.2-0.6-0.5-0.8
				C20.2,43,19.6,43,18.8,43h-0.3v-0.6h7.4V43h-0.3c-0.8,0-1.3,0.1-1.6,0.2c-0.2,0.1-0.4,0.4-0.5,0.7s-0.1,1.2-0.1,2.6v3.2h8.5v-3.2
				c0-1.3,0-2.1-0.1-2.5c-0.1-0.4-0.2-0.6-0.5-0.8C31.1,43,30.5,43,29.7,43h-0.4v-0.6h7.4V43h-0.2c-0.8,0-1.3,0.1-1.6,0.2
				c-0.2,0.1-0.4,0.4-0.5,0.7c-0.1,0.4-0.1,1.2-0.1,2.6v8c0,1.3,0,2.1,0.1,2.5c0.1,0.4,0.2,0.7,0.5,0.9c0.3,0.2,0.8,0.3,1.5,0.3h0.4
				v0.6h-7.4v-0.6h0.6c0.7,0,1.2-0.1,1.4-0.3s0.4-0.5,0.5-0.8c0.1-0.4,0.1-1.2,0.1-2.6V50.6z"/>
			<path d="M48.7,53.7h0.6l-0.3,5.1H35.4v-0.6h0.3c0.8,0,1.3-0.1,1.6-0.3c0.2-0.2,0.4-0.5,0.5-0.8s0.1-1.2,0.1-2.6v-8
				c0-1.2,0-2.1-0.1-2.5c-0.1-0.4-0.2-0.7-0.5-0.8C37,43,36.5,43,35.7,43v-0.6h11.7l0.4,4.1h-0.6c-0.3-1.1-0.6-2-0.9-2.4
				c-0.4-0.5-0.8-0.8-1.3-0.9C44.4,43,43.6,43,42.4,43h-2.3v6.9h1.7c0.8,0,1.4-0.1,1.7-0.2c0.3-0.1,0.5-0.3,0.6-0.6
				c0.1-0.3,0.2-0.8,0.2-1.6h0.6V53h-0.6c0-0.9-0.1-1.5-0.2-1.8c-0.2-0.3-0.4-0.5-0.7-0.6c-0.3-0.1-0.8-0.1-1.5-0.1h-1.8v3.9
				c0,1.9,0.1,3.1,0.4,3.4c0.2,0.3,0.9,0.5,2,0.5h1.2c0.9,0,1.6-0.1,2.1-0.3c0.6-0.2,1.1-0.7,1.6-1.4C48,55.8,48.4,54.9,48.7,53.7z"
				/>
			<path d="M71.9,50.8h0.7v7.4h-0.7c-0.2-0.8-0.5-1.6-1-2.2c-1.9,2.1-4.3,3.2-7.2,3.2c-3.1,0-5.6-1-7.5-2.9
				c-1.9-1.9-2.9-4.5-2.9-7.7c0-2.1,0.4-4.1,1.3-5.9c0.9-1.9,2.2-3.2,3.8-4.1c1.6-0.9,3.4-1.3,5.3-1.3c1.6,0,3,0.3,4.3,1
				s2.3,1.4,2.9,2.2c0.4-0.9,0.7-1.8,0.8-2.8h0.7l0.2,8.1h-0.7c-0.5-2.9-1.4-4.9-2.9-6c-1.4-1.1-3.1-1.7-4.9-1.7
				c-2.2,0-4,0.9-5.3,2.7c-1.3,1.8-2,4.4-2,7.8c0,3.2,0.7,5.6,2.1,7.3s3.2,2.5,5.3,2.5c1.1,0,2.3-0.3,3.5-0.8s2.1-1.5,2.8-2.8
				C71.4,53.3,71.8,52,71.9,50.8z"/>
			<path d="M73.7,50.5c0-2.5,0.8-4.6,2.5-6.1c1.7-1.5,3.8-2.3,6.3-2.3c2.6,0,4.7,0.8,6.4,2.3c1.7,1.5,2.6,3.6,2.6,6.2
				c0,2.5-0.8,4.6-2.5,6.2c-1.6,1.6-3.8,2.4-6.5,2.4c-2.6,0-4.7-0.8-6.4-2.4C74.5,55.2,73.7,53.1,73.7,50.5z M76.5,50.6
				c0,2.6,0.5,4.6,1.6,5.9c1,1.3,2.6,2,4.7,2c1.8,0,3.3-0.7,4.4-2c1.1-1.3,1.6-3.3,1.6-5.9c0-2.5-0.5-4.5-1.6-5.8
				c-1.1-1.4-2.6-2-4.6-2c-2,0-3.5,0.7-4.5,2S76.5,48,76.5,50.6z"/>
			<path d="M101.3,55.9l6-13.5h5V43h-0.6c-0.8,0-1.3,0.1-1.6,0.2c-0.2,0.1-0.4,0.4-0.5,0.7s-0.1,1.2-0.1,2.6v8c0,1.3,0,2.1,0.1,2.5
				c0.1,0.4,0.2,0.7,0.5,0.9c0.3,0.2,0.8,0.3,1.5,0.3h0.7v0.6h-7.8v-0.6h0.6c0.7,0,1.2-0.1,1.4-0.3s0.4-0.5,0.5-0.8
				c0.1-0.4,0.1-1.2,0.1-2.6V44.1l-6.5,14.7H100l-6.5-14.7v9.6c0,1.3,0,2.2,0.1,2.7s0.3,0.9,0.7,1.2c0.4,0.4,1,0.6,1.8,0.6v0.6h-5.8
				v-0.6c0.7,0,1.3-0.2,1.7-0.6c0.4-0.3,0.7-0.8,0.8-1.3c0.1-0.5,0.1-1.4,0.1-2.8v-7.1c0-1.3,0-2.1-0.1-2.5
				c-0.1-0.4-0.2-0.6-0.5-0.8C92.1,43,91.6,43,90.7,43h-0.4v-0.6h5L101.3,55.9z"/>
			<path d="M121.2,55.9l6-13.5h5V43h-0.6c-0.8,0-1.3,0.1-1.6,0.2c-0.2,0.1-0.4,0.4-0.5,0.7c-0.1,0.4-0.1,1.2-0.1,2.6v8
				c0,1.3,0,2.1,0.1,2.5c0.1,0.4,0.2,0.7,0.5,0.9c0.3,0.2,0.8,0.3,1.5,0.3h0.7v0.6h-7.8v-0.6h0.6c0.7,0,1.2-0.1,1.4-0.3
				s0.4-0.5,0.5-0.8c0.1-0.4,0.1-1.2,0.1-2.6V44.1l-6.5,14.7H120l-6.5-14.7v9.6c0,1.3,0,2.2,0.1,2.7c0.1,0.5,0.3,0.9,0.7,1.2
				c0.4,0.4,1,0.6,1.8,0.6v0.6h-5.8v-0.6c0.7,0,1.3-0.2,1.7-0.6c0.4-0.3,0.7-0.8,0.8-1.3c0.1-0.5,0.1-1.4,0.1-2.8v-7.1
				c0-1.3,0-2.1-0.1-2.5c-0.1-0.4-0.2-0.6-0.5-0.8c-0.2-0.1-0.8-0.2-1.6-0.2h-0.4v-0.6h5L121.2,55.9z"/>
			<path d="M143.8,53.7h0.6l-0.3,5.1h-13.5v-0.6h0.3c0.8,0,1.3-0.1,1.6-0.3c0.2-0.2,0.4-0.5,0.5-0.8s0.1-1.2,0.1-2.6v-8
				c0-1.2,0-2.1-0.1-2.5c-0.1-0.4-0.2-0.7-0.5-0.8c-0.2-0.2-0.8-0.2-1.6-0.2v-0.6h11.7l0.4,4.1h-0.6c-0.3-1.1-0.6-2-0.9-2.4
				c-0.4-0.5-0.8-0.8-1.3-0.9c-0.5-0.1-1.3-0.2-2.5-0.2h-2.3v6.9h1.7c0.8,0,1.4-0.1,1.7-0.2c0.3-0.1,0.5-0.3,0.6-0.6
				c0.1-0.3,0.2-0.8,0.2-1.6h0.6V53h-0.6c0-0.9-0.1-1.5-0.2-1.8c-0.2-0.3-0.4-0.5-0.7-0.6c-0.3-0.1-0.8-0.1-1.5-0.1h-1.8v3.9
				c0,1.9,0.1,3.1,0.4,3.4c0.2,0.3,0.9,0.5,2,0.5h1.2c0.9,0,1.6-0.1,2.1-0.3c0.6-0.2,1.1-0.7,1.6-1.4
				C143.1,55.8,143.5,54.9,143.8,53.7z"/>
			<path d="M161.1,58.8h-4.4c-0.8-0.5-2-2-3.6-4.3c-0.5-0.7-1-1.4-1.6-2.1c-0.6-0.7-0.9-1.1-1.1-1.2c-0.2-0.1-0.5-0.2-1-0.2h-0.7
				v3.6c0,1.3,0,2.1,0.1,2.5c0.1,0.4,0.2,0.7,0.5,0.9c0.3,0.2,0.8,0.3,1.5,0.3h0.8v0.6h-7.8v-0.6h0.5c0.7,0,1.2-0.1,1.5-0.3
				c0.3-0.2,0.4-0.5,0.5-0.8c0.1-0.4,0.1-1.2,0.1-2.6v-8c0-1.3,0-2.1-0.1-2.5c-0.1-0.4-0.2-0.6-0.5-0.8c-0.2-0.1-0.8-0.2-1.6-0.2
				h-0.3v-0.6l2.3-0.1c1.6-0.1,2.8-0.1,3.7-0.1c1.6,0,2.8,0.1,3.8,0.4c1,0.3,1.8,0.8,2.4,1.4c0.6,0.7,0.9,1.4,0.9,2.4
				c0,1.1-0.4,2-1.2,2.7c-0.8,0.8-1.9,1.2-3.5,1.4c0.7,0.3,1.8,1.5,3.3,3.6c1.2,1.7,2.2,2.8,2.9,3.3c0.7,0.5,1.5,0.8,2.5,0.8V58.8z
				 M148.7,50.3c0.6,0,1.2,0,1.9-0.1c0.6,0,1.2-0.1,1.7-0.3c0.5-0.1,0.9-0.4,1.2-0.6s0.5-0.6,0.7-1.1c0.2-0.5,0.3-1,0.3-1.7
				c0-1.1-0.3-2.1-0.9-2.8c-0.6-0.7-1.8-1-3.8-1c-0.3,0-0.6,0-1,0V50.3z"/>
			<path d="M172.9,52.6h0.5v5.7h-0.5c-0.1-0.7-0.4-1.2-0.8-1.7c-1.4,1.6-3.3,2.4-5.5,2.4c-2.4,0-4.3-0.7-5.8-2.2
				c-1.5-1.5-2.3-3.5-2.3-5.9c0-1.6,0.3-3.1,1-4.6c0.7-1.4,1.7-2.5,2.9-3.2c1.2-0.7,2.6-1,4.1-1c1.2,0,2.3,0.3,3.3,0.8
				c1,0.5,1.7,1.1,2.2,1.7c0.3-0.7,0.6-1.4,0.6-2.1h0.5l0.1,6.2h-0.5c-0.4-2.2-1.1-3.7-2.2-4.6c-1.1-0.9-2.4-1.3-3.8-1.3
				c-1.7,0-3.1,0.7-4.1,2.1s-1.5,3.4-1.5,6c0,2.5,0.5,4.3,1.7,5.6c1.1,1.3,2.5,2,4.1,2c0.9,0,1.8-0.2,2.7-0.6
				c0.9-0.4,1.6-1.1,2.2-2.2C172.5,54.6,172.8,53.6,172.9,52.6z"/>
			<path d="M173.7,43v-0.6h7.5V43h-0.3c-0.8,0-1.3,0.1-1.6,0.2c-0.2,0.1-0.4,0.4-0.5,0.7c-0.1,0.4-0.1,1.2-0.1,2.6v8
				c0,1.3,0,2.1,0.1,2.5c0.1,0.4,0.2,0.7,0.5,0.9c0.3,0.2,0.8,0.3,1.5,0.3h0.5v0.6h-7.5v-0.6h0.5c0.7,0,1.2-0.1,1.5-0.3
				c0.3-0.2,0.4-0.5,0.5-0.8c0.1-0.4,0.1-1.2,0.1-2.6v-8c0-1.3,0-2.1-0.1-2.5c-0.1-0.4-0.2-0.6-0.5-0.8c-0.2-0.1-0.8-0.2-1.6-0.2
				H173.7z"/>
			<path d="M190.5,52.7h-6.2l-0.4,1c-0.6,1.5-0.9,2.5-0.9,2.9c0,0.5,0.2,0.9,0.5,1.1c0.3,0.3,0.8,0.4,1.3,0.4v0.6h-4.9v-0.6
				c0.7-0.1,1.3-0.4,1.6-0.8c0.4-0.4,0.8-1.2,1.3-2.5c0-0.1,0.2-0.6,0.6-1.4l4.8-11.3h0.5l5.5,13l0.7,1.7c0.2,0.4,0.4,0.7,0.7,0.9
				c0.3,0.2,0.7,0.4,1.3,0.4v0.6h-6.4v-0.6c0.8,0,1.3-0.1,1.6-0.2c0.3-0.1,0.4-0.3,0.4-0.7c0-0.2-0.2-0.7-0.6-1.6L190.5,52.7z
				 M190.3,52.2l-2.9-7l-2.9,7H190.3z"/>
			<path d="M209.3,54l-0.1,4.8h-13.9v-0.6h0.5c0.7,0,1.2-0.1,1.5-0.3c0.3-0.2,0.4-0.5,0.5-0.8c0.1-0.4,0.1-1.2,0.1-2.6v-8
				c0-1.3,0-2.1-0.1-2.5c-0.1-0.4-0.2-0.6-0.5-0.8c-0.2-0.1-0.8-0.2-1.6-0.2h-0.4v-0.6h7.9V43h-0.7c-0.8,0-1.3,0.1-1.6,0.2
				c-0.3,0.1-0.4,0.4-0.5,0.7c-0.1,0.4-0.1,1.2-0.1,2.6v8.6c0,1.2,0,1.9,0.1,2.2c0.1,0.3,0.2,0.5,0.5,0.7c0.3,0.2,0.9,0.2,1.8,0.2
				h1.2c1,0,1.8-0.1,2.2-0.3c0.5-0.2,0.9-0.6,1.4-1.2c0.4-0.6,0.8-1.5,1.2-2.8H209.3z"/>
			<path d="M227.6,50.2h-8.9l-0.6,1.5c-0.9,2.1-1.3,3.5-1.3,4.2c0,0.7,0.2,1.2,0.7,1.6c0.5,0.4,1.1,0.5,1.8,0.5v0.8h-6.9V58
				c1-0.2,1.8-0.5,2.3-1.1c0.5-0.6,1.1-1.8,1.8-3.6c0.1-0.2,0.3-0.8,0.8-2l6.8-16.2h0.7l7.8,18.6l1.1,2.4c0.2,0.6,0.6,1,1,1.3
				c0.4,0.3,1,0.5,1.8,0.6v0.8h-9.2V58c1.1,0,1.9-0.1,2.3-0.2c0.4-0.2,0.6-0.5,0.6-1c0-0.3-0.3-1-0.8-2.3L227.6,50.2z M227.3,49.4
				l-4.1-10l-4.1,10H227.3z"/>
			<path d="M240.9,51.1v3.4c0,1.3,0,2.1,0.1,2.5c0.1,0.4,0.2,0.7,0.5,0.9c0.3,0.2,0.8,0.3,1.5,0.3h0.5v0.6H236v-0.6h0.4
				c0.7,0,1.2-0.1,1.5-0.3c0.3-0.2,0.4-0.5,0.5-0.8c0.1-0.4,0.1-1.2,0.1-2.6v-8c0-1.3,0-2.1-0.1-2.5c-0.1-0.4-0.2-0.6-0.5-0.8
				c-0.2-0.1-0.8-0.2-1.6-0.2H236v-0.6l2.1-0.1c1.6-0.1,2.9-0.1,3.8-0.1c1.7,0,3,0.1,3.9,0.4c0.9,0.3,1.7,0.7,2.2,1.4
				c0.6,0.7,0.9,1.5,0.9,2.6c0,0.9-0.2,1.7-0.6,2.4c-0.4,0.7-1,1.2-1.7,1.6c-0.7,0.4-2.1,0.5-3.9,0.5H240.9z M240.9,50.5h1.2
				c0.9,0,1.7-0.1,2.3-0.3c0.6-0.2,1.1-0.6,1.4-1.2c0.4-0.6,0.6-1.3,0.6-2.2c0-1.4-0.3-2.3-1-3c-0.7-0.6-1.7-0.9-3.2-0.9
				c-0.5,0-1,0-1.3,0V50.5z"/>
			<path d="M252.3,51.1v3.4c0,1.3,0,2.1,0.1,2.5c0.1,0.4,0.2,0.7,0.5,0.9c0.3,0.2,0.8,0.3,1.5,0.3h0.5v0.6h-7.5v-0.6h0.4
				c0.7,0,1.2-0.1,1.5-0.3c0.3-0.2,0.4-0.5,0.5-0.8c0.1-0.4,0.1-1.2,0.1-2.6v-8c0-1.3,0-2.1-0.1-2.5c-0.1-0.4-0.2-0.6-0.5-0.8
				c-0.2-0.1-0.8-0.2-1.6-0.2h-0.3v-0.6l2.1-0.1c1.6-0.1,2.9-0.1,3.8-0.1c1.7,0,3,0.1,3.9,0.4c0.9,0.3,1.7,0.7,2.2,1.4
				c0.6,0.7,0.9,1.5,0.9,2.6c0,0.9-0.2,1.7-0.6,2.4c-0.4,0.7-1,1.2-1.7,1.6c-0.7,0.4-2.1,0.5-3.9,0.5H252.3z M252.3,50.5h1.2
				c0.9,0,1.7-0.1,2.3-0.3c0.6-0.2,1.1-0.6,1.4-1.2c0.4-0.6,0.6-1.3,0.6-2.2c0-1.4-0.3-2.3-1-3c-0.7-0.6-1.7-0.9-3.2-0.9
				c-0.5,0-1,0-1.3,0V50.5z"/>
			<path d="M272.2,53.7h0.6l-0.3,5.1h-13.5v-0.6h0.3c0.8,0,1.3-0.1,1.6-0.3c0.2-0.2,0.4-0.5,0.5-0.8s0.1-1.2,0.1-2.6v-8
				c0-1.2,0-2.1-0.1-2.5c-0.1-0.4-0.2-0.7-0.5-0.8c-0.2-0.2-0.8-0.2-1.6-0.2v-0.6h11.7l0.4,4.1h-0.6c-0.3-1.1-0.6-2-0.9-2.4
				c-0.4-0.5-0.8-0.8-1.3-0.9c-0.5-0.1-1.3-0.2-2.5-0.2h-2.3v6.9h1.7c0.8,0,1.4-0.1,1.7-0.2c0.3-0.1,0.5-0.3,0.6-0.6
				c0.1-0.3,0.2-0.8,0.2-1.6h0.6V53h-0.6c0-0.9-0.1-1.5-0.2-1.8c-0.2-0.3-0.4-0.5-0.7-0.6c-0.3-0.1-0.8-0.1-1.5-0.1h-1.8v3.9
				c0,1.9,0.1,3.1,0.4,3.4c0.2,0.3,0.9,0.5,2,0.5h1.2c0.9,0,1.6-0.1,2.1-0.3c0.6-0.2,1.1-0.7,1.6-1.4
				C271.5,55.8,271.9,54.9,272.2,53.7z"/>
			<path d="M281.7,52.7h-6.2l-0.4,1c-0.6,1.5-0.9,2.5-0.9,2.9c0,0.5,0.2,0.9,0.5,1.1c0.3,0.3,0.8,0.4,1.3,0.4v0.6H271v-0.6
				c0.7-0.1,1.3-0.4,1.6-0.8c0.4-0.4,0.8-1.2,1.3-2.5c0-0.1,0.2-0.6,0.6-1.4l4.8-11.3h0.5l5.5,13l0.7,1.7c0.2,0.4,0.4,0.7,0.7,0.9
				c0.3,0.2,0.7,0.4,1.3,0.4v0.6h-6.4v-0.6c0.8,0,1.3-0.1,1.6-0.2c0.3-0.1,0.4-0.3,0.4-0.7c0-0.2-0.2-0.7-0.6-1.6L281.7,52.7z
				 M281.5,52.2l-2.9-7l-2.9,7H281.5z"/>
			<path d="M300,54l-0.1,4.8H286v-0.6h0.5c0.7,0,1.2-0.1,1.5-0.3c0.3-0.2,0.4-0.5,0.5-0.8c0.1-0.4,0.1-1.2,0.1-2.6v-8
				c0-1.3,0-2.1-0.1-2.5c-0.1-0.4-0.2-0.6-0.5-0.8c-0.2-0.1-0.8-0.2-1.6-0.2H286v-0.6h7.9V43h-0.7c-0.8,0-1.3,0.1-1.6,0.2
				c-0.3,0.1-0.4,0.4-0.5,0.7s-0.1,1.2-0.1,2.6v8.6c0,1.2,0,1.9,0.1,2.2c0.1,0.3,0.2,0.5,0.5,0.7c0.3,0.2,0.9,0.2,1.8,0.2h1.2
				c1,0,1.8-0.1,2.2-0.3c0.5-0.2,0.9-0.6,1.4-1.2c0.4-0.6,0.8-1.5,1.2-2.8H300z"/>
		</g>
		<g>
			<path d="M185.8,73.1V64h1.8l2.2,6.5c0.2,0.6,0.3,1.1,0.4,1.4c0.1-0.3,0.3-0.8,0.5-1.5l2.2-6.4h1.6v9.2h-1.2v-7.7l-2.7,7.7h-1.1
				l-2.7-7.8v7.8H185.8z"/>
			<path d="M200.6,71l1.2,0.1c-0.2,0.7-0.5,1.2-1,1.6s-1.1,0.6-1.9,0.6c-1,0-1.7-0.3-2.3-0.9c-0.6-0.6-0.9-1.4-0.9-2.5
				c0-1.1,0.3-2,0.9-2.6s1.3-0.9,2.2-0.9c0.9,0,1.6,0.3,2.2,0.9c0.6,0.6,0.8,1.5,0.8,2.6c0,0.1,0,0.2,0,0.3h-5
				c0,0.7,0.2,1.3,0.6,1.7c0.4,0.4,0.8,0.6,1.4,0.6c0.4,0,0.8-0.1,1.1-0.3C200.2,71.8,200.5,71.5,200.6,71z M196.9,69.2h3.7
				c-0.1-0.6-0.2-1-0.4-1.3c-0.4-0.4-0.8-0.7-1.4-0.7c-0.5,0-1,0.2-1.3,0.5C197.2,68.1,197,68.6,196.9,69.2z"/>
			<path d="M202.9,73.1v-6.7h1v0.9c0.2-0.3,0.5-0.6,0.8-0.8c0.3-0.2,0.7-0.3,1.2-0.3c0.5,0,0.9,0.1,1.2,0.3s0.5,0.5,0.7,0.9
				c0.5-0.8,1.2-1.2,2.1-1.2c0.7,0,1.2,0.2,1.5,0.5c0.4,0.4,0.5,0.9,0.5,1.7v4.6h-1.1v-4.2c0-0.5,0-0.8-0.1-1s-0.2-0.4-0.4-0.5
				c-0.2-0.1-0.4-0.2-0.7-0.2c-0.5,0-0.9,0.2-1.2,0.5c-0.3,0.3-0.5,0.8-0.5,1.5v3.9h-1.1v-4.3c0-0.5-0.1-0.9-0.3-1.1
				s-0.5-0.4-0.9-0.4c-0.3,0-0.6,0.1-0.9,0.3c-0.3,0.2-0.5,0.4-0.6,0.7c-0.1,0.3-0.2,0.8-0.2,1.4v3.5H202.9z"/>
			<path d="M213.3,75.7v-9.2h1v0.9c0.2-0.3,0.5-0.6,0.8-0.8c0.3-0.2,0.7-0.3,1.1-0.3c0.6,0,1.1,0.1,1.5,0.4s0.8,0.7,1,1.2
				c0.2,0.5,0.3,1.1,0.3,1.8c0,0.7-0.1,1.3-0.4,1.8c-0.2,0.5-0.6,1-1.1,1.3s-1,0.4-1.5,0.4c-0.4,0-0.7-0.1-1-0.2
				c-0.3-0.2-0.5-0.4-0.7-0.6v3.2H213.3z M214.3,69.9c0,0.9,0.2,1.5,0.5,1.9c0.3,0.4,0.8,0.6,1.3,0.6c0.5,0,0.9-0.2,1.3-0.6
				c0.4-0.4,0.5-1.1,0.5-2c0-0.8-0.2-1.5-0.5-1.9s-0.8-0.6-1.3-0.6c-0.5,0-0.9,0.2-1.3,0.7C214.5,68.3,214.3,69,214.3,69.9z"/>
			<path d="M220.1,73.1V64h1.1v3.3c0.5-0.6,1.2-0.9,2-0.9c0.5,0,0.9,0.1,1.3,0.3s0.6,0.5,0.8,0.8s0.2,0.8,0.2,1.5v4.2h-1.1v-4.2
				c0-0.6-0.1-1-0.4-1.2c-0.2-0.3-0.6-0.4-1-0.4c-0.3,0-0.6,0.1-0.9,0.3c-0.3,0.2-0.5,0.4-0.6,0.7c-0.1,0.3-0.2,0.7-0.2,1.2v3.6
				H220.1z"/>
			<path d="M226.9,65.3V64h1.1v1.3H226.9z M226.9,73.1v-6.7h1.1v6.7H226.9z"/>
			<path d="M229,71.2l1.1-0.2c0.1,0.4,0.2,0.8,0.5,1c0.3,0.2,0.7,0.4,1.2,0.4c0.5,0,0.9-0.1,1.2-0.3c0.3-0.2,0.4-0.5,0.4-0.7
				c0-0.3-0.1-0.5-0.3-0.6c-0.2-0.1-0.5-0.2-1.2-0.4c-0.8-0.2-1.4-0.4-1.7-0.5s-0.6-0.4-0.7-0.6s-0.2-0.6-0.2-0.9
				c0-0.3,0.1-0.6,0.2-0.8c0.1-0.3,0.3-0.5,0.6-0.6c0.2-0.1,0.4-0.2,0.7-0.3c0.3-0.1,0.6-0.1,1-0.1c0.5,0,1,0.1,1.4,0.2
				c0.4,0.2,0.7,0.4,0.9,0.6c0.2,0.3,0.3,0.6,0.4,1l-1.1,0.2c-0.1-0.3-0.2-0.6-0.4-0.8c-0.2-0.2-0.6-0.3-1-0.3
				c-0.5,0-0.9,0.1-1.1,0.3s-0.3,0.4-0.3,0.6c0,0.1,0,0.3,0.1,0.4c0.1,0.1,0.2,0.2,0.4,0.3c0.1,0,0.4,0.1,1,0.3
				c0.8,0.2,1.4,0.4,1.7,0.5c0.3,0.1,0.6,0.3,0.7,0.6c0.2,0.3,0.3,0.6,0.3,1c0,0.4-0.1,0.7-0.3,1.1c-0.2,0.3-0.5,0.6-0.9,0.8
				c-0.4,0.2-0.9,0.3-1.4,0.3c-0.9,0-1.5-0.2-2-0.5S229.1,71.9,229,71.2z"/>
			<path d="M235.8,73.1v-1.3h1.3v1.3c0,0.5-0.1,0.9-0.3,1.1c-0.2,0.3-0.4,0.5-0.8,0.7l-0.3-0.5c0.2-0.1,0.4-0.3,0.5-0.5
				c0.1-0.2,0.2-0.5,0.2-0.9H235.8z"/>
			<path d="M244.3,73.1V65h-3V64h7.3V65h-3v8.1H244.3z"/>
			<path d="M252.4,71l1.2,0.1c-0.2,0.7-0.5,1.2-1,1.6s-1.1,0.6-1.9,0.6c-1,0-1.7-0.3-2.3-0.9c-0.6-0.6-0.9-1.4-0.9-2.5
				c0-1.1,0.3-2,0.9-2.6c0.6-0.6,1.3-0.9,2.2-0.9c0.9,0,1.6,0.3,2.2,0.9c0.6,0.6,0.8,1.5,0.8,2.6c0,0.1,0,0.2,0,0.3h-5
				c0,0.7,0.2,1.3,0.6,1.7c0.4,0.4,0.8,0.6,1.4,0.6c0.4,0,0.8-0.1,1.1-0.3C252,71.8,252.2,71.5,252.4,71z M248.7,69.2h3.7
				c-0.1-0.6-0.2-1-0.4-1.3c-0.4-0.4-0.8-0.7-1.4-0.7c-0.5,0-1,0.2-1.3,0.5C249,68.1,248.8,68.6,248.7,69.2z"/>
			<path d="M254.7,73.1v-6.7h1v0.9c0.5-0.7,1.2-1.1,2.1-1.1c0.4,0,0.8,0.1,1.1,0.2c0.3,0.1,0.6,0.3,0.8,0.6c0.2,0.2,0.3,0.5,0.4,0.8
				c0,0.2,0.1,0.6,0.1,1.1v4.1H259v-4c0-0.5,0-0.8-0.1-1c-0.1-0.2-0.2-0.4-0.5-0.5c-0.2-0.1-0.5-0.2-0.8-0.2c-0.5,0-0.9,0.2-1.2,0.5
				c-0.3,0.3-0.5,0.9-0.5,1.7v3.6H254.7z"/>
			<path d="M261.5,73.1v-6.7h1v0.9c0.5-0.7,1.2-1.1,2.1-1.1c0.4,0,0.8,0.1,1.1,0.2c0.3,0.1,0.6,0.3,0.8,0.6c0.2,0.2,0.3,0.5,0.4,0.8
				c0,0.2,0.1,0.6,0.1,1.1v4.1h-1.1v-4c0-0.5,0-0.8-0.1-1s-0.2-0.4-0.5-0.5c-0.2-0.1-0.5-0.2-0.8-0.2c-0.5,0-0.9,0.2-1.2,0.5
				c-0.3,0.3-0.5,0.9-0.5,1.7v3.6H261.5z"/>
			<path d="M272.9,71l1.2,0.1c-0.2,0.7-0.5,1.2-1,1.6s-1.1,0.6-1.9,0.6c-1,0-1.7-0.3-2.3-0.9c-0.6-0.6-0.9-1.4-0.9-2.5
				c0-1.1,0.3-2,0.9-2.6c0.6-0.6,1.3-0.9,2.2-0.9c0.9,0,1.6,0.3,2.2,0.9s0.8,1.5,0.8,2.6c0,0.1,0,0.2,0,0.3h-5
				c0,0.7,0.2,1.3,0.6,1.7s0.8,0.6,1.4,0.6c0.4,0,0.8-0.1,1.1-0.3C272.5,71.8,272.7,71.5,272.9,71z M269.2,69.2h3.7
				c-0.1-0.6-0.2-1-0.4-1.3c-0.4-0.4-0.8-0.7-1.4-0.7c-0.5,0-1,0.2-1.3,0.5S269.2,68.6,269.2,69.2z"/>
			<path d="M274.7,71.2l1.1-0.2c0.1,0.4,0.2,0.8,0.5,1c0.3,0.2,0.7,0.4,1.2,0.4c0.5,0,0.9-0.1,1.2-0.3c0.3-0.2,0.4-0.5,0.4-0.7
				c0-0.3-0.1-0.5-0.3-0.6c-0.2-0.1-0.5-0.2-1.2-0.4c-0.8-0.2-1.4-0.4-1.7-0.5c-0.3-0.2-0.6-0.4-0.7-0.6c-0.2-0.3-0.2-0.6-0.2-0.9
				c0-0.3,0.1-0.6,0.2-0.8c0.1-0.3,0.3-0.5,0.6-0.6c0.2-0.1,0.4-0.2,0.7-0.3s0.6-0.1,1-0.1c0.5,0,1,0.1,1.4,0.2
				c0.4,0.2,0.7,0.4,0.9,0.6c0.2,0.3,0.3,0.6,0.4,1l-1.1,0.2c-0.1-0.3-0.2-0.6-0.4-0.8c-0.2-0.2-0.6-0.3-1-0.3
				c-0.5,0-0.9,0.1-1.1,0.3c-0.2,0.2-0.3,0.4-0.3,0.6c0,0.1,0,0.3,0.1,0.4c0.1,0.1,0.2,0.2,0.4,0.3c0.1,0,0.4,0.1,1,0.3
				c0.8,0.2,1.4,0.4,1.7,0.5c0.3,0.1,0.6,0.3,0.7,0.6c0.2,0.3,0.3,0.6,0.3,1c0,0.4-0.1,0.7-0.3,1.1c-0.2,0.3-0.5,0.6-0.9,0.8
				c-0.4,0.2-0.9,0.3-1.4,0.3c-0.9,0-1.5-0.2-2-0.5C275.1,72.4,274.8,71.9,274.7,71.2z"/>
			<path d="M280.8,71.2l1.1-0.2c0.1,0.4,0.2,0.8,0.5,1c0.3,0.2,0.7,0.4,1.2,0.4c0.5,0,0.9-0.1,1.2-0.3s0.4-0.5,0.4-0.7
				c0-0.3-0.1-0.5-0.3-0.6c-0.2-0.1-0.5-0.2-1.2-0.4c-0.8-0.2-1.4-0.4-1.7-0.5c-0.3-0.2-0.6-0.4-0.7-0.6c-0.2-0.3-0.2-0.6-0.2-0.9
				c0-0.3,0.1-0.6,0.2-0.8c0.1-0.3,0.3-0.5,0.6-0.6c0.2-0.1,0.4-0.2,0.7-0.3s0.6-0.1,1-0.1c0.5,0,1,0.1,1.4,0.2
				c0.4,0.2,0.7,0.4,0.9,0.6c0.2,0.3,0.3,0.6,0.4,1l-1.1,0.2c-0.1-0.3-0.2-0.6-0.4-0.8c-0.2-0.2-0.6-0.3-1-0.3
				c-0.5,0-0.9,0.1-1.1,0.3c-0.2,0.2-0.3,0.4-0.3,0.6c0,0.1,0,0.3,0.1,0.4c0.1,0.1,0.2,0.2,0.4,0.3c0.1,0,0.4,0.1,1,0.3
				c0.8,0.2,1.4,0.4,1.7,0.5c0.3,0.1,0.6,0.3,0.7,0.6c0.2,0.3,0.3,0.6,0.3,1c0,0.4-0.1,0.7-0.3,1.1s-0.5,0.6-0.9,0.8
				c-0.4,0.2-0.9,0.3-1.4,0.3c-0.9,0-1.5-0.2-2-0.5C281.2,72.4,280.9,71.9,280.8,71.2z"/>
			<path d="M291.9,71l1.2,0.1c-0.2,0.7-0.5,1.2-1,1.6s-1.1,0.6-1.9,0.6c-1,0-1.7-0.3-2.3-0.9c-0.6-0.6-0.9-1.4-0.9-2.5
				c0-1.1,0.3-2,0.9-2.6c0.6-0.6,1.3-0.9,2.2-0.9c0.9,0,1.6,0.3,2.2,0.9s0.8,1.5,0.8,2.6c0,0.1,0,0.2,0,0.3h-5
				c0,0.7,0.2,1.3,0.6,1.7s0.8,0.6,1.4,0.6c0.4,0,0.8-0.1,1.1-0.3C291.5,71.8,291.7,71.5,291.9,71z M288.2,69.2h3.7
				c-0.1-0.6-0.2-1-0.4-1.3c-0.4-0.4-0.8-0.7-1.4-0.7c-0.5,0-1,0.2-1.3,0.5S288.2,68.6,288.2,69.2z"/>
			<path d="M298.7,71l1.2,0.1c-0.2,0.7-0.5,1.2-1,1.6c-0.5,0.4-1.1,0.6-1.9,0.6c-1,0-1.7-0.3-2.3-0.9c-0.6-0.6-0.9-1.4-0.9-2.5
				c0-1.1,0.3-2,0.9-2.6c0.6-0.6,1.3-0.9,2.2-0.9c0.9,0,1.6,0.3,2.2,0.9c0.6,0.6,0.8,1.5,0.8,2.6c0,0.1,0,0.2,0,0.3h-5
				c0,0.7,0.2,1.3,0.6,1.7c0.4,0.4,0.8,0.6,1.4,0.6c0.4,0,0.8-0.1,1.1-0.3C298.3,71.8,298.5,71.5,298.7,71z M295,69.2h3.7
				c-0.1-0.6-0.2-1-0.4-1.3c-0.4-0.4-0.8-0.7-1.4-0.7c-0.5,0-1,0.2-1.3,0.5C295.2,68.1,295,68.6,295,69.2z"/>
		</g>
	</g>
</g>
<g id="Layer_1">
</g>
</svg>
