<?xml version="1.0" encoding="utf-8"?>
<!-- Generator: Adobe Illustrator 18.0.0, SVG Export Plug-In . SVG Version: 6.00 Build 0)  -->
<!DOCTYPE svg PUBLIC "-//W3C//DTD SVG 1.1//EN" "http://www.w3.org/Graphics/SVG/1.1/DTD/svg11.dtd">
<svg version="1.1" xmlns="http://www.w3.org/2000/svg" xmlns:xlink="http://www.w3.org/1999/xlink" x="0px" y="0px"
	 viewBox="0 0 300 100" style="enable-background:new 0 0 300 100;" xml:space="preserve">
<style type="text/css">
	.st0{fill-rule:evenodd;clip-rule:evenodd;}
	.st1{fill-rule:evenodd;clip-rule:evenodd;fill:#C038F9;}
	.st2{fill:none;}
	.st3{fill-rule:evenodd;clip-rule:evenodd;fill:#231F20;}
</style>
<g id="Layer_2">
</g>
<g id="Layer_1">
	<g id="CuWm27_1_">
		<g>
			<path d="M63,13.2c5.3,1.9,8.7,5.7,9.7,11.2c0.7,3.9,0.7,8,1,12.1c-3.8,0-7.3,0-10.9,0c-0.1-2.3-0.1-4.6-0.3-6.9
				c-0.2-1.6-0.4-3.2-0.9-4.8c-0.7-2.2-2.2-2.9-5.3-2.9c-2.4,0-3.9,0.8-4.4,3c-0.6,2.4-1.1,4.9-1.1,7.4c-0.1,11.6,0,23.2,0.1,34.8
				c0,1.7,0.4,3.4,0.8,5.1c0.7,2.4,2,3.2,4.7,3.3c2.5,0.1,4.3-0.8,5-3c0.6-1.9,0.9-4,1-6c0.2-2.4,0-4.8,0-7.5c2,0,3.8,0,5.5,0
				c1.7,0,3.5,0,5.1,0c0,3.7,0.2,7.3,0,10.9c-0.5,7-5.3,14.5-14.4,15.3c-0.2,0-3.6,0-3.8,0c-8.4-1.3-13.4-6.3-14.4-14.6
				c-0.4-3.7-0.3-7.5-0.5-11.3c0-0.5,0.1-27.6,0.2-30.3c0.2-6.1,2.4-11.3,7.8-14.5C52.5,11.9,61.4,12.6,63,13.2z"/>
			<path d="M233.2,84.3c-3.7,0-7.2,0-10.8,0c-0.7-4.1-2.6-15.5-2.6-15.5c-2.3,0-8.9,0-11.2,0c0,0-1.8,9.4-2.5,13.5
				c-0.1,0.7-0.2,1.3-0.4,2.1c-3.5,0-6.9,0-10.5,0c0.9-5.4,1.7-10.7,2.6-15.9c2.9-17.8,9.4-55.3,9.4-55.3c4,0.1,9.4,0.1,13.5,0.1
				C224.9,36.9,229,60.5,233.2,84.3z M218.2,58.7c-1.4-9.1-2.7-18-4-26.9c-0.2,0-0.4,0-0.5,0c-1.3,8.9-2.5,17.8-3.8,26.9
				C212.6,58.7,215.2,58.7,218.2,58.7z"/>
			<path d="M111.9,84.3c-3.7,0-7.2,0-10.8,0c-0.7-4.1-2.6-15.5-2.6-15.5c-2.3,0-8.9,0-11.2,0c0,0-1.8,9.4-2.5,13.5
				c-0.1,0.7-0.2,1.3-0.4,2.1c-3.5,0-6.9,0-10.5,0c0.9-5.4,1.7-10.7,2.6-15.9c2.9-17.8,9.4-55.3,9.4-55.3c4,0.1,9.4,0.1,13.5,0.1
				C103.7,36.9,107.8,60.5,111.9,84.3z M96.9,58.7c-1.4-9.1-2.7-18-4-26.9c-0.2,0-0.4,0-0.5,0c-1.3,8.9-2.5,17.8-3.8,26.9
				C91.3,58.7,93.9,58.7,96.9,58.7z"/>
			<path d="M126.2,54.7c0,2.5,0,4.4,0,6.3c0,7.2,0,14.5,0,21.7c0,1.3-0.3,1.7-1.7,1.7c-2.9-0.1-5.9,0-8.9,0c0-23.7,0-47.4,0-71
				c0.1-0.1,0.2-0.2,0.3-0.2c6.4,0,12.8-0.2,19.2,0.2c7.2,0.5,11.3,4.2,12.9,11.2c1.5,6.5,1.4,13.1-0.2,19.6
				c-1.6,6.3-5.8,9.8-12.3,10.3C132.4,54.9,129.4,54.7,126.2,54.7z M126.2,44.9c2.1,0,4.1,0.1,6,0c3.3-0.3,5-1.9,5.7-5.1
				c0.8-3.9,0.6-7.8-0.1-11.7c-0.4-1.9-1.3-3.5-3.3-4.3c-2.7-1-5.4-0.6-8.2-0.6C126.2,30.4,126.2,37.6,126.2,44.9z"/>
			<path d="M167.1,13.2c11.2,0,22.1,0,33.3,0c0,3.2,0,6.4,0,9.8c-3.7,0-7.5,0-11.4,0c0,20.5,0,40.8,0,61.3c-3.6,0-7,0-10.7,0
				c0-20.4,0-40.7,0-61.2c-3.8,0-7.5,0-11.2,0C167.1,19.7,167.1,16.6,167.1,13.2z"/>
			<path d="M236.9,13.2c3.5,0,6.9,0,10.5,0c0,20.4,0,40.7,0,61.2c6,0,11.7,0,17.7,0c0,3.3,0,6.5,0,9.8c-9.3,0-18.7,0-28.1,0
				C236.9,60.6,236.9,37,236.9,13.2z"/>
			<path d="M163.2,84.3c-3.5,0-6.9,0-10.4,0c0-23.7,0-47.3,0-71c3.5,0,6.9,0,10.4,0C163.2,36.9,163.2,60.5,163.2,84.3z"/>
		</g>
	</g>
</g>
</svg>
