<?xml version="1.0" encoding="utf-8"?>
<!-- Generator: Adobe Illustrator 18.0.0, SVG Export Plug-In . SVG Version: 6.00 Build 0)  -->
<!DOCTYPE svg PUBLIC "-//W3C//DTD SVG 1.1//EN" "http://www.w3.org/Graphics/SVG/1.1/DTD/svg11.dtd">
<svg version="1.1" xmlns="http://www.w3.org/2000/svg" xmlns:xlink="http://www.w3.org/1999/xlink" x="0px" y="0px"
	 viewBox="0 0 300 100" style="enable-background:new 0 0 300 100;" xml:space="preserve">
<style type="text/css">
	.st0{fill-rule:evenodd;clip-rule:evenodd;}
	.st1{fill-rule:evenodd;clip-rule:evenodd;fill:#C038F9;}
	.st2{fill:none;}
	.st3{fill-rule:evenodd;clip-rule:evenodd;fill:#231F20;}
</style>
<g id="Layer_2">
	<g>
		<path d="M0,38.5h23l0.5,9.8H22c-1.4-7.8-3.3-8.1-10.8-8.1c-2.3,0-2.8,0.2-2.8,1.5v9.1h1.4c3.3,0,4.8-1.4,5.1-5.2h1.7v12.5h-1.7
			c0-3.4-1.4-5.6-4.3-5.6H8.4v10.3c0,1.3,0.5,1.5,2.8,1.5c8.9,0,9.4-0.8,11.4-8.5h1.5L23.4,66H0v-1.7h2.1c1.5,0,2.1-0.4,2.1-1.9
			V42.2c0-1.5-0.6-1.9-2.1-1.9H0V38.5z"/>
		<path d="M26.9,43.9h10.2c4.4,0,7,1,8.6,2.9c1.8,2.1,2.8,4.9,2.8,8.4c0,3-1,6.2-2.9,8c-2.1,2.1-4.4,2.8-8.7,2.8h-10v-1.4h1.7
			c1.2,0,1.7-0.3,1.7-1.6V46.8c0-1.2-0.5-1.6-1.7-1.6h-1.7V43.9z M33.7,63.4c0,1.1,0.4,1.2,2.3,1.2c4.2,0,5.7-0.5,6.9-2.1
			c1.4-1.8,1.8-4.2,1.8-7.6c0-7.5-2.3-9.7-8.3-9.7c-2.4,0-2.7,0.3-2.7,1.4V63.4z"/>
		<path d="M65.5,43.9h8.6v1.4c-3.2,0.1-3.5,1.5-3.5,4.3v8.2c0,5.7-2.8,8.7-8.4,8.7c-4.6,0-8.7-1.9-8.7-6.4V46.8
			c0-1.2-0.5-1.6-1.7-1.6h-1.7v-1.4h10.2v1.4h-1.7c-1.2,0-1.7,0.3-1.7,1.6v11.5c0,2.5,0.2,3.9,1.6,5.1c1.3,1.1,2.6,1.5,4.6,1.5
			c3.3,0,6-2.4,6-6v-9.3c0-2.8-0.3-4.2-3.6-4.3V43.9z"/>
		<path d="M90.1,43.6h1.1l0.4,8.9h-1.2c-1-4.1-3-7.7-7-7.7c-4.6,0-6.5,4.5-6.5,10.2c0,2.2,0.2,4.7,1.2,6.7c1,2.1,3.1,3.4,5.5,3.4
			c4.4,0,6.5-3,7.1-6.9l1.4,0.2c-0.7,5-3.7,8-9,8c-2.9,0-5.6-1.3-7.5-3.4c-1.9-2.1-2.7-4.8-2.7-7.6c0-7.6,5.4-12.1,10.6-12.1
			c1.7,0,3.8,0.7,5.3,2.1L90.1,43.6z"/>
		<path d="M91.4,64.6c1.7,0,2.6-0.9,3.2-2.4l7.4-18.8h1.2l8.1,19.9c0.5,1.1,1,1.3,2.7,1.3V66h-9.4v-1.4h0.8c1.8,0,2.4-0.3,2.4-0.8
			c0-0.3-0.1-0.7-0.4-1.5l-1.4-3.6h-8.3l-0.8,2.4c-0.3,0.9-0.5,1.4-0.5,1.7c0,1.4,1.3,1.7,3.1,1.7V66h-8.1V64.6z M105.3,57.2l-3.6-9
			l-3.5,9H105.3z"/>
		<path d="M116.5,64.6h2c1.2,0,1.7-0.3,1.7-1.6v-16c0-1.4-0.3-1.8-1.5-1.8c-3.2,0-4.6,2.5-5.3,7.2h-1.2l0.5-8.6h18.3l0.5,8.6h-1.2
			c-0.7-4.7-2.1-7.2-5.3-7.2c-1.2,0-1.5,0.5-1.5,1.8v16c0,1.2,0.5,1.6,1.7,1.6h2V66h-10.8V64.6z"/>
		<path d="M133.6,64.6h1.7c1.2,0,1.7-0.3,1.7-1.6V46.8c0-1.2-0.5-1.6-1.7-1.6h-1.7v-1.4h10.2v1.4h-1.7c-1.2,0-1.7,0.3-1.7,1.6v16.3
			c0,1.2,0.5,1.6,1.7,1.6h1.7V66h-10.2V64.6z"/>
		<path d="M156,66.5c-6.4,0-10.6-5.6-10.6-11.5c0-4.6,3.4-11.5,10.5-11.5c6.4,0,10.6,5.6,10.6,11.5C166.5,59.5,163.1,66.5,156,66.5z
			 M155.9,44.8c-5.6,0-6.6,5.7-6.6,10.2c0,3.1,0.3,10.2,6.7,10.2c5.6,0,6.6-5.7,6.6-10.2C162.6,51.8,162.2,44.8,155.9,44.8z"/>
		<path d="M182,43.9h8.7v1.4c-1.5,0.1-2.6,0.4-3,1.2c-0.4,0.8-0.6,1.9-0.6,3.5v16.5h-1.2l-13.6-18.8h-0.1V61c0,2.5,0.3,3.5,3.6,3.7
			V66h-8.7v-1.4c2.7-0.1,3.6-1.1,3.6-3.6V46.3c-0.7-0.9-1.4-1-3.1-1h-0.5v-1.4h6.3l12.1,16.5h0.1V49.6c0-2.8-0.3-4.2-3.6-4.3V43.9z"
			/>
		<path d="M223.5,38.5h9.3v1.7c-2.5,0.1-3.2,1.3-4.2,4.5l-6.4,21.6h-1.7l-6.1-19.1h-0.1l-5.6,19.1H207l-8.1-24.5
			c-0.5-1.4-0.7-1.7-2.6-1.7h-0.6v-1.7h10.7v1.7h-2.1c-0.9,0-1.3,0.3-1.3,0.8c0,0.4,0.3,1.3,0.6,2.4l5.1,15.9h0.1l4.6-15.2l-1-2.9
			c-0.3-0.8-0.8-1-2.2-1H209v-1.7h11v1.7h-1.2c-1.8,0-2.1,0.6-2.1,1.3c0,0.9,0.4,2.1,0.9,3.6l4.6,14.3h0.1l4.4-15.2
			c0.2-0.8,0.4-1.5,0.4-2.1c0-1.6-1.8-1.8-3.6-1.9V38.5z"/>
		<path d="M233.5,43.9H252l0.4,7.9h-1.2c-1.1-6.3-2.7-6.5-8.7-6.5c-1.8,0-2.3,0.1-2.3,1.2v7.3h1.1c2.7,0,3.9-1.2,4.1-4.2h1.4v10.1
			h-1.4c0-2.7-1.1-4.5-3.5-4.5h-1.7v8.3c0,1.1,0.4,1.2,2.3,1.2c7.1,0,7.6-0.6,9.2-6.8h1.2l-0.6,8.2h-18.9v-1.4h1.7
			c1.2,0,1.7-0.3,1.7-1.6V46.8c0-1.2-0.5-1.6-1.7-1.6h-1.7V43.9z"/>
		<path d="M255.3,43.9h18.5l0.4,7.9h-1.2c-1.1-6.3-2.7-6.5-8.7-6.5c-1.8,0-2.3,0.1-2.3,1.2v7.3h1.1c2.7,0,3.9-1.2,4.1-4.2h1.4v10.1
			h-1.4c0-2.7-1.1-4.5-3.5-4.5h-1.7v8.3c0,1.1,0.4,1.2,2.3,1.2c7.1,0,7.6-0.6,9.2-6.8h1.2l-0.6,8.2h-18.9v-1.4h1.7
			c1.2,0,1.7-0.3,1.7-1.6V46.8c0-1.2-0.5-1.6-1.7-1.6h-1.7V43.9z"/>
		<path d="M289.6,43.9h9.4v1.4c-2.3,0.1-3.9,1.1-5.5,2.7l-4.4,4.3l7.4,10.7c0.7,1.1,1.3,1.4,1.7,1.5c0.5,0.1,1.3,0.1,1.9,0.1V66
			h-10.4v-1.4h1.7c1,0,1.4-0.1,1.4-0.6c0-0.5-0.4-1-0.8-1.6l-5.4-7.8l-3.6,3.7v4.7c0,1.2,0.5,1.6,1.7,1.6h1.7V66h-10.2v-1.4h1.7
			c1.2,0,1.7-0.3,1.7-1.6V46.8c0-1.2-0.5-1.6-1.7-1.6h-1.7v-1.4h10.2v1.4H285c-1.2,0-1.7,0.3-1.7,1.6v9.4l8.1-8.2
			c0.5-0.5,1-1.3,1-1.8c0-0.6-0.6-1-2.2-1h-0.6V43.9z"/>
	</g>
</g>
<g id="Layer_1">
</g>
</svg>
