<?xml version="1.0" encoding="utf-8"?>
<!-- Generator: Adobe Illustrator 18.0.0, SVG Export Plug-In . SVG Version: 6.00 Build 0)  -->
<!DOCTYPE svg PUBLIC "-//W3C//DTD SVG 1.1//EN" "http://www.w3.org/Graphics/SVG/1.1/DTD/svg11.dtd">
<svg version="1.1" xmlns="http://www.w3.org/2000/svg" xmlns:xlink="http://www.w3.org/1999/xlink" x="0px" y="0px"
	 viewBox="0 0 300 100" style="enable-background:new 0 0 300 100;" xml:space="preserve">
<style type="text/css">
	.st0{fill-rule:evenodd;clip-rule:evenodd;}
	.st1{fill-rule:evenodd;clip-rule:evenodd;fill:#C038F9;}
	.st2{fill:none;}
	.st3{fill-rule:evenodd;clip-rule:evenodd;fill:#231F20;}
</style>
<g id="Layer_2">
</g>
<g id="Layer_1">
	<g>
		<path class="st0" d="M281.2,47.1c2.2-1.9,4-2.9,5.2-2.9c1.8,0,3.1,1.6,4.4,1.6c0.6,0,1.1-0.5,1.4-1l0.5,0.4
			c-1.5,2-2.6,3.8-3.7,5.5c-1.4-1.9-3.8-3.3-5.4-3.3c-1.7,0-1.9,1.1-1.3,2.1c1.2,1.7,4.2,3.4,6.4,5.2c1.8,1.4,2.9,2.8,2.9,4.9
			c0,2.6-3.1,5.3-5.3,9c-2.2-1.2-5.1-2.5-7.4-2.5c-1.6,0-2.5,0.8-2.9,1.8l-0.3-0.1c0.7-3.7,2-6.7,4.6-6.7c2,0,4.3,1.5,6.9,3.5
			c0.4,0.3,0.7,0.2,0.9-0.2c0.4-0.8,0.2-2.4-1.6-3.9c-2-1.7-4.1-2.6-5.7-3.8c-2.3-1.7-2.9-3.1-2.9-4.4
			C278,50.5,278.9,49.1,281.2,47.1"/>
		<polyline class="st0" points="220.5,44 223.8,37.8 226.8,40.1 221.5,44.8 220.5,44 		"/>
		<path class="st0" d="M226.1,59.8c0,3,0.7,4.1,2.1,4.1c0.8,0,1.2-0.4,1.2-0.4l0.3,0.7c-1.5,1.1-4.2,3.2-5.4,4.3c-3.2-2.9-4-4-4-8.7
			v-8.7c0-1.5-0.6-2.2-1.9-2.8v-0.1c1.3-0.8,3.8-2.2,5.7-3.5c1.6,1.8,2,3,2,5.9V59.8"/>
		<path d="M268.6,67.9c-0.8,0.5-1.5,0.5-2.4,0.1c-3.4-1.8-4.7-4.5-4.7-9v-8.3c0-0.5,0.1-0.8,0.6-1.1l8.8-4.8
			c0.4-0.2,0.6-0.1,0.8,0.2l4.2,6.8c0.2,0.4,0.2,0.6-0.2,0.9c-2.9,2.1-7,4.9-8.8,6.1l-0.1-1.2c1.2-0.7,3.2-2,4.2-2.9
			c0.3-0.3,0.4-0.5,0.1-0.9l-3.2-5.1c-0.4-0.6-0.9-0.3-0.9,0.3v8.7c0,3.7,1.4,6.1,4,6.1c2.6,0,4.3-2.2,5.1-3.7l0.1,0v2
			C274.1,64,271.1,66.4,268.6,67.9"/>
		<path class="st0" d="M96.8,44.4c-1.8-2.5-5.4-6.1-8.9-6.1c-2.3,0-3.4,1.4-3.4,2.6c0,1.6,1.4,2.7,4.8,4.9
			c6.9,4.4,12.2,7.5,12.2,13.4c0,6.1-6.6,8.3-8.5,12.9h-0.1C88.5,65.9,81,64.7,78,67.5l-0.2-0.2c0.4-2.8,2.1-7.8,6.1-7.8
			c3.7,0,8.7,5,11.7,6.2c0.4,0.2,0.8,0.1,1.1-0.3c0.4-0.5,0.6-1.2,0.6-2.4c0-8.3-17.2-10.6-17.2-17.2c0-1.6,1.4-4.4,3.4-6.8
			c2.6-3.2,5.3-4.7,8.2-4.7c4.5,0,6.7,3.3,8.6,3.3c0.8,0,1.3-0.4,1.8-1.1l0.5,0.5C100.5,39.2,97.9,42.7,96.8,44.4"/>
		<path class="st0" d="M96.2,63.1c0-7.4-17.4-9.6-17.4-17.4l-0.2,0C77.4,54.4,94.5,56.7,96,63.2L96.2,63.1"/>
		<path class="st0" d="M155.9,57.9c0,3.7,0.7,5.2,2.5,5.2c0.9,0,1.6-0.6,1.6-0.6l0.3,0.7c-1.5,1.4-4,4-5.1,5.2
			c-2.3-1.7-4-3.5-4.5-5.6l-0.2-0.5V45.2c0-2.3-0.4-3.3-2-3.7v-0.1c2.4-1.4,5-2.9,7.3-4.5l0.2,0.1V57.9"/>
		<path class="st0" d="M145.8,57.9c0,4,0.9,5.4,2.6,5.4c1.6,0,2.6-1.7,2.6-1.7l0.4,1c-1.4,1.3-5,4.7-6.2,5.9
			c-3.7-2.5-4.8-4.5-4.8-9.2V45.2c0-2.3-0.4-3.3-2-3.7v-0.1c2.4-1.4,5-2.9,7.3-4.5l0.1,0.1V57.9"/>
		<polyline class="st0" points="158.7,48.1 159.9,45.7 136.3,45.7 137.2,48.1 158.7,48.1 		"/>
		<path d="M176.6,67.9c-3.4-1.8-4.7-4.5-4.7-9v-8.3c0-0.5,0.1-0.8,0.6-1.1l8.8-4.8c0.4-0.2,0.6-0.1,0.8,0.2l4.2,6.8
			c0.2,0.4,0.2,0.6-0.2,0.9c-2.9,2.1-6.9,4.9-8.8,6.1l-0.1-1.2c1.2-0.7,3.2-2,4.2-2.9c0.3-0.3,0.4-0.5,0.1-0.9l-3.2-5.1
			c-0.3-0.5-0.9-0.3-0.9,0.3v8.7c0,3.7,1.5,6.2,4.1,6.2c2.6,0,4.7-2.5,5.5-4l0.1,0v2c-2.3,2.1-5.7,4.7-8.2,6.1
			C178.2,68.4,177.5,68.4,176.6,67.9"/>
		<path class="st0" d="M166.9,58.4c0,3.7,1,4.8,2.8,4.8c0.9,0,1.6-0.6,1.6-0.6l0.3,0.7c-1.4,1.3-4.2,4-5.3,5.2
			c-3.8-2.8-4.9-4.2-4.9-9.2V43c0-2.3-0.4-3.3-2-3.7v-0.1c2.4-1.4,5-2.9,7.3-4.5l0.2,0.1V58.4"/>
		<path class="st0" d="M130.5,53.6c-2.8,2-7.8,4.7-10.1,6.1c-0.3,0.2-0.5,0.5-0.5,0.9c0,3.4,1,6,3.3,7.2c0.7,0.4,1.3,0.3,1.9-0.1
			l5.5-4.5l-0.3-1.1c-0.5,0.9-1.3,1.6-2.4,1.6c-1.7,0-2.5-2.1-2.5-5.1c0-0.3,0-0.5,0.3-0.7c1.2-0.9,3.6-2.4,4.9-3.1L130.5,53.6"/>
		<path class="st0" d="M135.4,58.9c0,2.2,0.1,3.1,0.7,4c0.4,0.6,0.9,0.9,1.5,0.9c0.7,0,1-0.4,1-0.4l0.3,0.7c-1.3,1-3.9,3.3-5.1,4.4
			c-2.2-2-3.4-3.3-3.7-5.6V52.5c0-0.9-0.2-1.6-0.9-2.1c-0.8-0.7-2.4-1.7-3.3-2.2c-0.6-0.3-0.9,0-0.9,0.6v3.6c0,0.8-0.3,1.4-0.9,1.7
			l-3.5,1.8c-0.2,0.1-0.4,0-0.4-0.2v-5c0-0.4,0.1-0.6,0.4-0.8l8-5.1c0.3-0.2,0.4-0.2,0.8,0c1.6,1,4.2,2.9,5.7,4.1
			c0.3,0.2,0.4,0.5,0.4,0.8V58.9"/>
		<path d="M110.7,67.9c-0.8,0.5-1.5,0.5-2.4,0.1c-3.4-1.8-4.7-4.5-4.7-9v-8.3c0-0.5,0.1-0.8,0.6-1.1l8.8-4.8
			c0.4-0.2,0.6-0.1,0.8,0.2l4.2,6.8c0.2,0.4,0.2,0.6-0.2,0.9c-2.9,2.1-7,4.9-8.8,6.1l-0.1-1.2c1.2-0.7,3.2-2,4.2-2.9
			c0.3-0.3,0.4-0.5,0.1-0.9l-3.2-5.1c-0.4-0.6-0.9-0.3-0.9,0.3v8.7c0,3.7,1.4,6.1,4,6.1c2.6,0,4.3-2.2,5.1-3.7l0.1,0v2
			C116.2,64,113.1,66.4,110.7,67.9"/>
		<path d="M62.5,67.9c-3.4-1.8-4.7-4.5-4.7-9v-8.3c0-0.5,0.1-0.8,0.6-1.1l8.8-4.8c0.4-0.2,0.6-0.1,0.8,0.2l4.2,6.8
			c0.2,0.4,0.2,0.6-0.2,0.9c-2.9,2.1-6.9,4.9-8.8,6.1l-0.1-1.2c1.2-0.7,3.2-2,4.2-2.9c0.3-0.3,0.4-0.5,0.1-0.9l-3.3-5.1
			c-0.3-0.5-0.9-0.3-0.9,0.3v8.7c0,3.7,1.5,6.2,4.1,6.2c2.6,0,4.7-2.5,5.5-4l0.1,0v2c-2.3,2.1-5.7,4.7-8.2,6.1
			C64,68.4,63.3,68.4,62.5,67.9"/>
		<path d="M44,59.6c0,3.5,0.5,4.4,2.4,6l-4.3,3.8c-2.8-2.6-3.6-4-3.6-8.9V47.3c0-2.3-0.3-3.4-1.9-3.7v-0.1c2.3-1.4,4.9-3.3,7.2-5
			l0.1,0.1v9.5c0,0.5,0.3,0.8,0.9,0.4c1.6-0.9,3.9-2.3,5.3-3.3c0.2-0.1,0.3-0.2,0.6-0.1c2.7,1.3,3.8,3.3,3.8,5.3v10.3
			c0,5-0.8,6.6-9.2,14.7l-1-0.7c4-2.7,4.4-6,4.4-11.7V53c0-1.2-0.1-2-0.3-2.8c-0.3-0.8-0.8-1.4-1.6-1.4c-1,0-2.2,1.1-2.9,1.9V59.6"
			/>
		<path class="st0" d="M10.5,44c-0.1-1,0.2-2,1-2.9c0.9-0.9,2.1-1.3,4.2-1.3c3.9,0,10.6,2.9,16.6,2.9c5.2,0,8.7-5.1,10.1-7.7
			l-0.6-1.6l-0.1,0c-0.3,2.2-2.2,5-6.5,5c-4,0-12-3.1-16.1-3.1c-6,0-8.9,4.4-9.4,8L10.5,44L10.5,44"/>
		<rect x="30" y="41.7" width="1.3" height="25.9"/>
		<path class="st0" d="M20.7,42l0.7,0.4c-2.8,2-5,5.9-5,10.6c0,8,4.6,14.5,12.1,14.5c4.3,0,7-2.2,8.3-4.4l0.1,0l0.1,1.9
			c-2.1,1.9-6.6,5.2-12.2,5.2c-8.8,0-14.1-6-14.1-13.9C10.8,49,15.9,44.4,20.7,42"/>
		<path class="st0" d="M27.8,41.7l-3.3,1.8c-2,1.1-2.5,2.3-2.5,4.6c0,2,0.6,5.5,0.6,8.2c0,2.8-0.6,3.7-3,4.7l0.4,0.8
			c1.6-0.7,4.3-2.1,6.1-3.2c1.5-0.9,1.7-1.4,1.7-2.9v-8.9c0-2.9,0.1-3.8,0.6-4.6L27.8,41.7"/>
		<path class="st0" d="M246.9,60.3c0,2.8,0.9,3.9,2.1,3.9c0.7,0,1.1-0.4,1.1-0.4l0.3,0.7c-1.3,0.9-4.1,3-5.3,4
			c-3.3-3.1-3.9-4.2-3.9-8.9V53c0-1.2-0.1-2-0.3-2.8c-0.3-0.8-0.8-1.4-1.6-1.4c-1,0-2.2,1-2.8,1.8v9.7c0,2.8,0.9,3.9,2.1,3.9
			c0.7,0,1.1-0.4,1.1-0.4l0.3,0.7c-1.3,0.9-4.1,3-5.3,4c-3.3-3.1-3.9-4.1-3.9-8.8v-8.5c0-1.5-0.6-2.2-1.9-2.8v-0.1
			c1.3-0.8,3.8-2.2,5.7-3.5c0.8,1.1,1.4,2.4,1.7,3.6c0.1,0.4,0.5,0.5,0.9,0.3c1.7-0.9,4-2.4,5.5-3.5c0.2-0.1,0.3-0.2,0.6-0.1
			c1.8,0.8,2.9,2.1,3.4,3.3c0.2,0.4,0.5,0.5,0.9,0.3c1.7-1,4-2.5,5.6-3.5c0.2-0.1,0.3-0.2,0.6-0.1c3,1.4,3.8,3,3.8,6.8v8.4
			c0,2.8,0.9,3.9,2.1,3.9c0.7,0,1.1-0.4,1.1-0.4l0.3,0.7c-1.3,0.9-4.1,3-5.3,4c-3.3-3.1-3.9-4.2-3.9-8.9V53c0-1.2-0.1-2-0.3-2.8
			c-0.3-0.8-0.8-1.4-1.6-1.4c-1,0-2.2,1-2.8,1.8V60.3"/>
		<path class="st0" d="M191.9,44c-0.1-1,0.2-2,1-2.9c0.9-0.9,2.1-1.3,4.2-1.3c3.9,0,10.6,2.9,16.6,2.9c5.2,0,8.7-5.1,10.1-7.7
			l-0.6-1.6l-0.1,0c-0.3,2.2-2.2,5-6.5,5c-4,0-12-3.1-16.1-3.1c-6,0-8.9,4.4-9.4,8L191.9,44L191.9,44"/>
		<rect x="211.4" y="41.7" width="1.3" height="25.9"/>
		<path class="st0" d="M202.1,42l0.7,0.4c-2.8,2-5,5.9-5,10.6c0,8,4.6,14.5,12.1,14.5c4.3,0,7-2.2,8.3-4.4l0.1,0l0.1,1.9
			c-2.1,1.9-6.6,5.2-12.2,5.2c-8.7,0-14.1-6-14.1-13.9C192.2,49,197.3,44.4,202.1,42"/>
		<path class="st0" d="M209.2,41.7l-3.3,1.8c-2,1.1-2.5,2.3-2.5,4.6c0,2,0.6,5.5,0.6,8.2c0,2.8-0.6,3.7-3,4.7l0.4,0.8
			c1.6-0.7,4.3-2.1,6.1-3.2c1.5-0.9,1.7-1.4,1.7-2.9v-8.9c0-2.9,0.1-3.8,0.6-4.6L209.2,41.7"/>
	</g>
</g>
</svg>
