<?xml version="1.0" encoding="utf-8"?>
<!-- Generator: Adobe Illustrator 18.0.0, SVG Export Plug-In . SVG Version: 6.00 Build 0)  -->
<!DOCTYPE svg PUBLIC "-//W3C//DTD SVG 1.1//EN" "http://www.w3.org/Graphics/SVG/1.1/DTD/svg11.dtd">
<svg version="1.1" xmlns="http://www.w3.org/2000/svg" xmlns:xlink="http://www.w3.org/1999/xlink" x="0px" y="0px"
	 viewBox="0 0 300 100" style="enable-background:new 0 0 300 100;" xml:space="preserve">
<style type="text/css">
	.st0{fill-rule:evenodd;clip-rule:evenodd;}
	.st1{fill-rule:evenodd;clip-rule:evenodd;fill:#C038F9;}
	.st2{fill:none;}
	.st3{fill-rule:evenodd;clip-rule:evenodd;fill:#231F20;}
</style>
<g id="Layer_2">
	<g>
		<g>
			<path d="M52.6,61.7c0,1.3-0.1,2.6-0.4,3.8s-0.7,2.2-1.2,3.1c-0.5,0.9-1.1,1.6-1.8,2.1c-0.7,0.5-1.5,0.8-2.5,0.8
				c-1.1,0-2-0.4-2.7-1.2c-0.7-0.8-1.3-1.6-1.7-2.4l2.7-3.6c0.2,0.4,0.5,0.8,0.9,1c0.3,0.3,0.7,0.4,1,0.4c0.2,0,0.4-0.1,0.7-0.2
				c0.3-0.1,0.5-0.4,0.8-0.7c0.2-0.4,0.4-0.8,0.6-1.5c0.2-0.6,0.3-1.4,0.3-2.5v-30h3.4V61.7z"/>
			<path d="M59.6,30.9h2.9l5.4,40.3h-3.4l-1-8.7h-4.7l-1,8.7h-3.4L59.6,30.9z M61.1,42.5L61.1,42.5l-1.8,14.6h3.4L61.1,42.5z"/>
			<path d="M80.4,62.2c0,1.2-0.1,2.4-0.4,3.6c-0.3,1.1-0.7,2.1-1.2,3c-0.5,0.8-1.1,1.5-1.7,2c-0.7,0.5-1.4,0.8-2.1,0.8
				c-0.7,0-1.3-0.2-2-0.5c-0.7-0.3-1.3-0.8-1.8-1.6c-0.5-0.7-1-1.7-1.3-2.9c-0.3-1.2-0.5-2.7-0.5-4.6V39.9c0-1.3,0.1-2.5,0.4-3.7
				c0.3-1.1,0.7-2.1,1.1-2.9s1.1-1.5,1.8-2c0.7-0.5,1.4-0.7,2.3-0.7c0.8,0,1.5,0.2,2.2,0.7c0.7,0.5,1.3,1.1,1.8,2
				c0.5,0.8,0.9,1.9,1.2,3.1c0.3,1.2,0.4,2.5,0.4,3.9v2.3H77v-1.9c0-1.1-0.2-2.1-0.6-2.9c-0.4-0.8-0.9-1.2-1.5-1.2
				c-0.9,0-1.4,0.4-1.7,1.3c-0.3,0.9-0.4,2-0.4,3.4v20.6c0,1.2,0.2,2.1,0.5,2.9c0.3,0.8,0.8,1.2,1.6,1.2c0.2,0,0.5-0.1,0.7-0.2
				c0.3-0.1,0.5-0.3,0.7-0.6c0.2-0.3,0.4-0.7,0.5-1.2c0.1-0.5,0.2-1.2,0.2-2v-2h3.4V62.2z"/>
			<path d="M83.2,30.9h3.4v18.4h0.1l5-18.4h3.4l-4.7,16.1l5.6,24.1h-3.6l-3.9-17.9l-1.9,5.8v12h-3.4V30.9z"/>
			<path d="M108.7,42.5h-3.4v-1.3c0-1.3-0.2-2.5-0.6-3.4c-0.4-1-1-1.4-1.9-1.4c-0.5,0-0.9,0.2-1.2,0.5c-0.3,0.3-0.5,0.7-0.7,1.2
				c-0.2,0.5-0.3,1-0.4,1.6s-0.1,1.3-0.1,1.9c0,0.8,0,1.5,0.1,2c0,0.5,0.1,1,0.3,1.4c0.1,0.4,0.3,0.7,0.6,1c0.3,0.3,0.6,0.6,1.1,0.9
				l2.6,1.8c0.8,0.5,1.4,1.1,1.9,1.7c0.5,0.7,0.8,1.4,1.1,2.3c0.3,0.9,0.4,1.9,0.5,3.1c0.1,1.2,0.1,2.5,0.1,3.9
				c0,1.7-0.1,3.3-0.3,4.7c-0.2,1.4-0.5,2.7-1,3.7c-0.5,1-1.1,1.9-1.8,2.5c-0.8,0.6-1.7,0.9-2.8,0.9c-0.8,0-1.6-0.2-2.3-0.7
				c-0.7-0.5-1.3-1.2-1.9-2c-0.5-0.9-0.9-1.9-1.2-3c-0.3-1.2-0.5-2.4-0.5-3.8v-2.1h3.4v1.8c0,1.1,0.2,2,0.6,2.9
				c0.4,0.8,1,1.3,1.9,1.3c0.6,0,1-0.1,1.4-0.4c0.3-0.3,0.6-0.7,0.7-1.2c0.2-0.5,0.3-1.1,0.3-1.9c0-0.8,0.1-1.6,0.1-2.5
				c0-1.1,0-1.9-0.1-2.6c0-0.7-0.1-1.2-0.3-1.6c-0.1-0.4-0.3-0.8-0.6-1c-0.3-0.3-0.6-0.5-1-0.8l-2.5-1.7c-1.5-1-2.5-2.4-3-4
				c-0.5-1.7-0.8-3.8-0.8-6.3c0-1.5,0.1-2.9,0.4-4.3c0.2-1.4,0.6-2.5,1.1-3.5c0.5-1,1.1-1.8,1.8-2.3c0.7-0.6,1.6-0.9,2.6-0.9
				c0.9,0,1.6,0.3,2.3,0.8c0.7,0.5,1.3,1.2,1.8,2.1s0.9,1.8,1.2,2.9c0.3,1.1,0.4,2.2,0.4,3.3V42.5z"/>
			<path d="M111,40.4c0-1.6,0.2-3.1,0.5-4.3c0.3-1.2,0.8-2.3,1.3-3.1c0.6-0.8,1.2-1.4,1.9-1.8c0.7-0.4,1.4-0.6,2.1-0.6
				c0.7,0,1.4,0.2,2.1,0.6c0.7,0.4,1.3,1,1.9,1.8c0.6,0.8,1,1.8,1.3,3.1c0.3,1.2,0.5,2.7,0.5,4.3v21.3c0,1.7-0.2,3.1-0.5,4.3
				c-0.3,1.2-0.8,2.2-1.3,3.1c-0.6,0.8-1.2,1.4-1.9,1.8c-0.7,0.4-1.4,0.6-2.1,0.6c-0.7,0-1.4-0.2-2.1-0.6c-0.7-0.4-1.3-1-1.9-1.8
				c-0.5-0.8-1-1.8-1.3-3.1c-0.3-1.2-0.5-2.7-0.5-4.3V40.4z M114.5,61.7c0,1.4,0.2,2.4,0.7,3.1s1,1,1.6,1c0.6,0,1.2-0.3,1.6-1
				c0.5-0.7,0.7-1.7,0.7-3.1V40.4c0-1.4-0.2-2.4-0.7-3.1c-0.5-0.7-1-1-1.6-1c-0.6,0-1.2,0.3-1.6,1c-0.5,0.7-0.7,1.7-0.7,3.1V61.7z"
				/>
			<path d="M125.5,30.9h3.3l5.2,24.3h0.1V30.9h3.4v40.3h-3.2L129,47h-0.1v24.2h-3.4V30.9z"/>
			<path d="M146.8,30.9h10.2v5.4h-6.8v12.2h5.9V54h-5.9v17.2h-3.4V30.9z"/>
			<path d="M159.3,30.9h5.5c4,0,6.1,3.9,6.1,11.8c0,2.3-0.2,4.3-0.7,6c-0.4,1.7-1.2,3-2.3,4l3.7,18.4H168L164.8,54h-2.1v17.2h-3.4
				V30.9z M162.7,48.9h2c0.6,0,1.1-0.1,1.4-0.4c0.4-0.3,0.6-0.7,0.8-1.2c0.2-0.5,0.3-1.2,0.4-2c0.1-0.8,0.1-1.7,0.1-2.7
				c0-1,0-1.9-0.1-2.7s-0.2-1.4-0.4-2c-0.2-0.5-0.5-1-0.9-1.2c-0.4-0.3-0.9-0.4-1.5-0.4h-1.8V48.9z"/>
			<path d="M173.6,30.9h10.2v5.4h-6.8v11.8h5.9v5.4h-5.9v11.8h6.8v5.8h-10.2V30.9z"/>
			<path d="M186.1,30.9h10.2v5.4h-6.8v11.8h5.9v5.4h-5.9v11.8h6.8v5.8h-10.2V30.9z"/>
			<path d="M204.8,30.9h5.2c0.9,0,1.8,0.2,2.5,0.6c0.7,0.4,1.4,1.1,2,2.2c0.6,1.1,1,2.3,1.2,3.7c0.2,1.4,0.3,3.3,0.3,5.7
				c0,1.8-0.1,3.3-0.2,4.6c-0.1,1.3-0.4,2.4-0.8,3.5c-0.5,1.3-1.1,2.3-1.9,3.1c-0.8,0.7-1.8,1.1-3.1,1.1h-1.8v15.7h-3.4V30.9z
				 M208.2,50h1.7c0.7,0,1.2-0.2,1.6-0.5c0.4-0.3,0.7-0.8,0.8-1.4c0.2-0.6,0.3-1.3,0.3-2.1c0-0.8,0.1-1.8,0.1-2.8
				c0-0.9,0-1.8-0.1-2.7c0-0.8-0.1-1.6-0.3-2.2c-0.2-0.6-0.4-1.1-0.8-1.5c-0.4-0.4-0.9-0.5-1.6-0.5h-1.8V50z"/>
			<path d="M218.5,30.9h5.5c4,0,6.1,3.9,6.1,11.8c0,2.3-0.2,4.3-0.7,6c-0.4,1.7-1.2,3-2.3,4l3.7,18.4h-3.6L224,54H222v17.2h-3.4
				V30.9z M222,48.9h2c0.6,0,1.1-0.1,1.4-0.4c0.4-0.3,0.6-0.7,0.8-1.2c0.2-0.5,0.3-1.2,0.4-2c0.1-0.8,0.1-1.7,0.1-2.7
				c0-1,0-1.9-0.1-2.7s-0.2-1.4-0.4-2c-0.2-0.5-0.5-1-0.9-1.2c-0.4-0.3-0.9-0.4-1.5-0.4H222V48.9z"/>
			<path d="M232.9,30.9h10.2v5.4h-6.8v11.8h5.9v5.4h-5.9v11.8h6.8v5.8h-10.2V30.9z"/>
			<path d="M256.4,42.5H253v-1.3c0-1.3-0.2-2.5-0.6-3.4c-0.4-1-1-1.4-1.9-1.4c-0.5,0-0.9,0.2-1.2,0.5c-0.3,0.3-0.5,0.7-0.7,1.2
				c-0.2,0.5-0.3,1-0.4,1.6s-0.1,1.3-0.1,1.9c0,0.8,0,1.5,0.1,2c0,0.5,0.1,1,0.3,1.4c0.1,0.4,0.3,0.7,0.6,1c0.3,0.3,0.6,0.6,1.1,0.9
				l2.6,1.8c0.8,0.5,1.4,1.1,1.9,1.7c0.5,0.7,0.8,1.4,1.1,2.3c0.3,0.9,0.4,1.9,0.5,3.1c0.1,1.2,0.1,2.5,0.1,3.9
				c0,1.7-0.1,3.3-0.3,4.7c-0.2,1.4-0.5,2.7-1,3.7c-0.5,1-1.1,1.9-1.8,2.5c-0.8,0.6-1.7,0.9-2.8,0.9c-0.8,0-1.6-0.2-2.3-0.7
				c-0.7-0.5-1.3-1.2-1.9-2c-0.5-0.9-0.9-1.9-1.2-3s-0.5-2.4-0.5-3.8v-2.1h3.4v1.8c0,1.1,0.2,2,0.6,2.9c0.4,0.8,1,1.3,1.9,1.3
				c0.6,0,1-0.1,1.4-0.4c0.3-0.3,0.6-0.7,0.7-1.2c0.2-0.5,0.3-1.1,0.3-1.9c0-0.8,0.1-1.6,0.1-2.5c0-1.1,0-1.9-0.1-2.6
				c0-0.7-0.1-1.2-0.3-1.6s-0.3-0.8-0.6-1c-0.3-0.3-0.6-0.5-1-0.8l-2.5-1.7c-1.5-1-2.5-2.4-3-4c-0.5-1.7-0.8-3.8-0.8-6.3
				c0-1.5,0.1-2.9,0.4-4.3c0.2-1.4,0.6-2.5,1.1-3.5c0.5-1,1.1-1.8,1.8-2.3c0.7-0.6,1.6-0.9,2.6-0.9c0.9,0,1.6,0.3,2.3,0.8
				c0.7,0.5,1.3,1.2,1.8,2.1s0.9,1.8,1.2,2.9c0.3,1.1,0.4,2.2,0.4,3.3V42.5z"/>
			<path d="M270.1,42.5h-3.4v-1.3c0-1.3-0.2-2.5-0.6-3.4c-0.4-1-1-1.4-1.9-1.4c-0.5,0-0.9,0.2-1.2,0.5c-0.3,0.3-0.5,0.7-0.7,1.2
				c-0.2,0.5-0.3,1-0.4,1.6c-0.1,0.6-0.1,1.3-0.1,1.9c0,0.8,0,1.5,0.1,2c0,0.5,0.1,1,0.3,1.4c0.1,0.4,0.3,0.7,0.6,1
				c0.3,0.3,0.6,0.6,1.1,0.9l2.6,1.8c0.8,0.5,1.4,1.1,1.9,1.7c0.5,0.7,0.8,1.4,1.1,2.3c0.3,0.9,0.4,1.9,0.5,3.1
				c0.1,1.2,0.1,2.5,0.1,3.9c0,1.7-0.1,3.3-0.3,4.7c-0.2,1.4-0.5,2.7-1,3.7c-0.5,1-1.1,1.9-1.8,2.5c-0.8,0.6-1.7,0.9-2.8,0.9
				c-0.8,0-1.6-0.2-2.3-0.7c-0.7-0.5-1.3-1.2-1.9-2c-0.5-0.9-0.9-1.9-1.2-3c-0.3-1.2-0.5-2.4-0.5-3.8v-2.1h3.4v1.8
				c0,1.1,0.2,2,0.6,2.9c0.4,0.8,1,1.3,1.9,1.3c0.6,0,1-0.1,1.4-0.4c0.3-0.3,0.6-0.7,0.7-1.2c0.2-0.5,0.3-1.1,0.3-1.9
				c0-0.8,0.1-1.6,0.1-2.5c0-1.1,0-1.9-0.1-2.6c0-0.7-0.1-1.2-0.3-1.6s-0.3-0.8-0.6-1c-0.3-0.3-0.6-0.5-1-0.8l-2.5-1.7
				c-1.5-1-2.5-2.4-3-4c-0.5-1.7-0.8-3.8-0.8-6.3c0-1.5,0.1-2.9,0.4-4.3c0.2-1.4,0.6-2.5,1.1-3.5c0.5-1,1.1-1.8,1.8-2.3
				c0.7-0.6,1.6-0.9,2.6-0.9c0.9,0,1.6,0.3,2.3,0.8c0.7,0.5,1.3,1.2,1.8,2.1s0.9,1.8,1.2,2.9c0.3,1.1,0.4,2.2,0.4,3.3V42.5z"/>
		</g>
		<rect x="42.2" y="90.9" width="232.4" height="3.6"/>
		<rect x="42.2" y="4.4" width="232.4" height="3.6"/>
	</g>
</g>
<g id="Layer_1">
</g>
</svg>
