<?xml version="1.0" encoding="utf-8"?>
<!-- Generator: Adobe Illustrator 18.0.0, SVG Export Plug-In . SVG Version: 6.00 Build 0)  -->
<!DOCTYPE svg PUBLIC "-//W3C//DTD SVG 1.1//EN" "http://www.w3.org/Graphics/SVG/1.1/DTD/svg11.dtd">
<svg version="1.1" xmlns="http://www.w3.org/2000/svg" xmlns:xlink="http://www.w3.org/1999/xlink" x="0px" y="0px"
	 viewBox="0 0 300 100" style="enable-background:new 0 0 300 100;" xml:space="preserve">
<style type="text/css">
	.st0{fill-rule:evenodd;clip-rule:evenodd;}
	.st1{fill-rule:evenodd;clip-rule:evenodd;fill:#C038F9;}
	.st2{fill:none;}
	.st3{fill-rule:evenodd;clip-rule:evenodd;fill:#231F20;}
</style>
<g id="Layer_2">
	<g>
		<g>
			<g>
				<path d="M60.9,50.3c0-4.7,3-8.1,7-9.1c-3.3-1.2-5.7-4.2-5.7-8.1c0-5.8,4.9-9.5,11-9.5c6.2,0,11,3.7,11,9.5
					c0,3.9-2.5,6.9-5.7,8.1c3.9,1.1,7,4.5,7,9.1c0,6.2-5.3,10.3-12.3,10.3C66.2,60.6,60.9,56.5,60.9,50.3z M81,49.9
					c0-4-3.3-6.9-7.9-6.9c-4.5,0-7.8,2.8-7.8,6.9c0,4.1,3.3,6.9,7.8,6.9C77.7,56.9,81,54,81,49.9z M79.7,33.3c0-3.6-2.9-6-6.6-6
					c-3.7,0-6.6,2.4-6.6,6c0,3.5,2.9,5.9,6.6,5.9C76.9,39.2,79.7,36.8,79.7,33.3z"/>
				<path d="M92.6,51.7c1,3,3,5.1,6.6,5.1c5.3,0,9.1-6,9.1-13.8c0-0.4-0.1-1.2-0.1-1.6c-1.2,3.6-4.9,6.2-9.1,6.2
					c-7,0-11.7-5.4-11.7-12c0-6.6,4.7-12.1,12.1-12.1c4.7,0,8.5,2.3,10.7,6.9c1.5,3.2,2.1,6.8,2.1,11c0,11.7-5.4,19.2-13.2,19.2
					c-6.3,0-9.8-3.4-11.2-8.9H92.6z M99.5,27.5c-4.5,0-7.7,3.3-7.7,8.1c0,4.8,3.2,8.2,7.7,8.2c4.6,0,7.8-3.3,7.8-8.2
					C107.3,30.9,104.2,27.5,99.5,27.5z"/>
				<path d="M116,54c1.7,0,3.1,1.4,3.1,3.2s-1.4,3.2-3.1,3.2c-1.8,0-3.2-1.3-3.2-3.2S114.2,54,116,54z"/>
				<path d="M130.3,39.7h2.4c3.8,0,6.7-2.2,6.7-6c0-3.5-2.5-6.1-6.6-6.1s-6.6,2.6-7.1,6.4h-4.5c0.9-6.1,5.3-10.4,11.7-10.4
					c6.9,0,11,4.1,11,9.8c0,4-2.3,7.2-5.6,8.2c3.9,1.1,6.3,4.3,6.3,8.4c0,5.9-4.3,10.6-11.5,10.6c-7,0-11.9-4.3-12.5-10.8h4.5
					c0.6,4.2,3.4,6.8,7.9,6.8c4.3,0,7.2-2.6,7.2-6.6c0-4-3.2-6.4-7.3-6.4h-2.5V39.7z"/>
				<path d="M163.9,38.9l11.6-14.8h11l-12.6,15.8l13.1,20.2H176l-9.1-13.8l-3,3.8v10h-9.4v-36h9.4V38.9z"/>
				<path d="M199.4,48.9v11.2h-9.3v-36h15.8c7.8,0,13.1,4.4,13.1,12.4c0,8-5.3,12.4-13.1,12.4H199.4z M204.9,32h-5.4v9h5.4
					c3.4,0,4.9-1.8,4.9-4.5C209.8,33.8,208.3,32,204.9,32z"/>
				<path d="M238.8,23.5c9,0,14.2,5.3,15.5,12.7H245c-0.9-2.6-2.9-4.4-6.2-4.4c-5,0-7.8,4.4-7.8,10.3c0,5.9,2.8,10.3,7.8,10.3
					c3.3,0,5.2-1.8,6.2-4.5h9.4c-1.3,7.4-6.6,12.7-15.5,12.7c-10.1,0-17.3-7.7-17.3-18.6S228.8,23.5,238.8,23.5z"/>
				<path d="M274.2,23.5c9,0,14.2,5.3,15.5,12.7h-9.4c-0.9-2.6-2.9-4.4-6.2-4.4c-5,0-7.8,4.4-7.8,10.3c0,5.9,2.8,10.3,7.8,10.3
					c3.3,0,5.2-1.8,6.2-4.5h9.4c-1.3,7.4-6.6,12.7-15.5,12.7c-10.1,0-17.3-7.7-17.3-18.6S264.1,23.5,274.2,23.5z"/>
			</g>
			<g>
				<path d="M15.9,76c0.5,1.5,1.8,2.2,3.4,2.2c1.7,0,3-0.9,3-2.3c0-1-0.6-1.7-2.1-2.1l-2.4-0.6c-1.9-0.5-3.2-1.4-3.2-3.5
					c0-2.3,1.9-3.8,4.4-3.8c2.8,0,4.4,1.4,4.9,3.5h-1.7c-0.4-1.2-1.4-2.1-3.2-2.1c-1.6,0-2.8,0.8-2.8,2.2c0,1.1,0.7,1.7,2.1,2.1
					l2.3,0.6c2.1,0.5,3.3,1.7,3.3,3.6c0,2.4-2,3.9-4.6,3.9c-2.7,0-4.7-1.3-5.2-3.7H15.9z"/>
				<path d="M30.2,79.7c-2.7,0-4.5-2.1-4.5-5c0-3,1.8-5,4.5-5c2.6,0,4.5,2.1,4.5,5C34.6,77.7,32.8,79.7,30.2,79.7z M30.2,71.1
					c-1.7,0-2.8,1.5-2.8,3.6c0,2.1,1,3.6,2.8,3.6c1.7,0,2.8-1.5,2.8-3.6C33,72.6,31.9,71.1,30.2,71.1z"/>
				<path d="M44.6,79.5h-1.7v-1.2c-0.5,0.8-1.6,1.4-2.8,1.4c-2.2,0-3.4-1.4-3.4-3.5v-6.4h1.7v6.1c0,1.4,0.7,2.3,2.1,2.3
					c1.1,0,2.1-0.8,2.4-1.8v-6.6h1.7V79.5z"/>
				<path d="M47.9,71.2h-1.6v-1.4h1.6v-2.6h1.6v2.6h2.3v1.4h-2.3v5.7c0,0.9,0.5,1.4,1.3,1.4c0.5,0,0.9-0.2,1.3-0.4v1.5
					c-0.4,0.2-0.9,0.3-1.5,0.3c-1.6,0-2.7-0.9-2.7-2.6V71.2z"/>
				<path d="M54.4,65.3h1.6v5.7c0.6-0.8,1.6-1.4,2.9-1.4c2.2,0,3.4,1.4,3.4,3.5v6.4h-1.7v-6.1c0-1.4-0.7-2.3-2.1-2.3
					c-1.1,0-2.1,0.8-2.5,1.8v6.6h-1.6V65.3z"/>
				<path d="M72.8,76.6c-0.3,1.8-1.7,3.1-3.9,3.1c-2.6,0-4.5-2-4.5-5c0-2.9,1.8-5.1,4.4-5.1c2.7,0,4.1,1.9,4.1,4.8V75H66
					c0,2.1,1.2,3.3,2.8,3.3c1.2,0,2.1-0.6,2.4-1.7H72.8z M66.1,73.8h5.2c0-1.4-0.8-2.7-2.4-2.7C67.4,71,66.3,72.1,66.1,73.8z"/>
				<path d="M80.1,71.5c-0.3-0.2-0.7-0.3-1.1-0.3c-1,0-1.9,0.7-2.3,1.8v6.5h-1.6v-9.7h1.6v1.3c0.4-0.8,1.3-1.5,2.4-1.5
					c0.4,0,0.8,0.1,0.9,0.2V71.5z"/>
				<path d="M82.1,69.8h1.6v1.2c0.6-0.8,1.6-1.4,2.9-1.4c2.2,0,3.4,1.4,3.4,3.5v6.4h-1.7v-6.1c0-1.4-0.7-2.3-2.1-2.3
					c-1.1,0-2.1,0.8-2.5,1.8v6.6h-1.6V69.8z"/>
				<path d="M103,65.9c2.8,0,4.7,1.6,5.2,4.1h-1.7c-0.5-1.6-1.7-2.6-3.5-2.6c-2.6,0-4.3,2.2-4.3,5.4c0,3.2,1.7,5.4,4.3,5.4
					c1.9,0,3-1,3.5-2.6h1.7c-0.5,2.5-2.4,4.2-5.2,4.2c-3.4,0-6-2.7-6-6.9S99.6,65.9,103,65.9z"/>
				<path d="M115.9,79.5v-0.7c-0.4,0.4-1.4,0.9-2.6,0.9c-2,0-3.6-1.2-3.6-3.1c0-1.8,1.6-3,3.7-3c1,0,2,0.4,2.4,0.8v-1.2
					c0-1.2-0.7-2.1-2.1-2.1c-1,0-1.7,0.4-2,1.3h-1.6c0.3-1.6,1.8-2.8,3.6-2.8c2.3,0,3.7,1.3,3.7,3.4v6.5H115.9z M115.9,76.1
					c-0.3-0.7-1.3-1.2-2.3-1.2c-1.2,0-2.3,0.5-2.3,1.7c0,1.2,1.1,1.7,2.3,1.7c1,0,2-0.5,2.3-1.2V76.1z"/>
				<path d="M121.9,79.5h-1.6V65.3h1.6V79.5z"/>
				<path d="M125.7,68c-0.6,0-1-0.5-1-1c0-0.6,0.5-1,1-1c0.6,0,1.1,0.5,1.1,1C126.7,67.5,126.2,68,125.7,68z M126.5,79.5h-1.6v-9.7
					h1.6V79.5z"/>
				<path d="M134.3,66.8c-0.3-0.2-0.7-0.3-1-0.3c-1,0-1.6,0.6-1.6,1.8v1.5h2.2v1.4h-2.2v8.3H130v-8.3h-1.6v-1.4h1.6v-1.6
					c0-1.9,1.3-3.1,3-3.1c0.5,0,0.9,0.1,1.3,0.2V66.8z"/>
				<path d="M139.3,79.7c-2.7,0-4.5-2.1-4.5-5c0-3,1.8-5,4.5-5c2.6,0,4.5,2.1,4.5,5C143.8,77.7,142,79.7,139.3,79.7z M139.3,71.1
					c-1.7,0-2.8,1.5-2.8,3.6c0,2.1,1,3.6,2.8,3.6c1.7,0,2.8-1.5,2.8-3.6C142.1,72.6,141.1,71.1,139.3,71.1z"/>
				<path d="M151,71.5c-0.3-0.2-0.7-0.3-1.1-0.3c-1,0-1.9,0.7-2.3,1.8v6.5H146v-9.7h1.6v1.3c0.4-0.8,1.3-1.5,2.4-1.5
					c0.4,0,0.8,0.1,0.9,0.2V71.5z"/>
				<path d="M153,69.8h1.6v1.2c0.6-0.8,1.6-1.4,2.9-1.4c2.2,0,3.4,1.4,3.4,3.5v6.4h-1.7v-6.1c0-1.4-0.7-2.3-2.1-2.3
					c-1.1,0-2.1,0.8-2.5,1.8v6.6H153V69.8z"/>
				<path d="M164.5,68c-0.6,0-1-0.5-1-1c0-0.6,0.5-1,1-1c0.6,0,1.1,0.5,1.1,1C165.6,67.5,165.1,68,164.5,68z M165.4,79.5h-1.6v-9.7
					h1.6V79.5z"/>
				<path d="M173.8,79.5v-0.7c-0.4,0.4-1.4,0.9-2.6,0.9c-2,0-3.6-1.2-3.6-3.1c0-1.8,1.6-3,3.7-3c1,0,2,0.4,2.4,0.8v-1.2
					c0-1.2-0.7-2.1-2.1-2.1c-1,0-1.7,0.4-2,1.3H168c0.3-1.6,1.8-2.8,3.6-2.8c2.3,0,3.7,1.3,3.7,3.4v6.5H173.8z M173.8,76.1
					c-0.3-0.7-1.3-1.2-2.3-1.2c-1.2,0-2.3,0.5-2.3,1.7c0,1.2,1.1,1.7,2.3,1.7c1,0,2-0.5,2.3-1.2V76.1z"/>
				<path d="M184.8,74.2v5.4h-1.7V66.1h5c2.7,0,4.4,1.4,4.4,4c0,2.6-1.7,4-4.4,4H184.8z M188.1,67.6h-3.3v5h3.3c1.8,0,2.8-1,2.8-2.5
					C190.8,68.6,189.9,67.6,188.1,67.6z"/>
				<path d="M202.3,79.5h-1.7v-1.2c-0.5,0.8-1.6,1.4-2.8,1.4c-2.2,0-3.4-1.4-3.4-3.5v-6.4h1.7v6.1c0,1.4,0.7,2.3,2.1,2.3
					c1.1,0,2.1-0.8,2.4-1.8v-6.6h1.7V79.5z"/>
				<path d="M206.8,79.5h-1.7V65.3h1.7V71c0.5-0.7,1.5-1.3,2.7-1.3c2.8,0,4.4,2.3,4.4,5c0,2.8-1.5,5-4.4,5c-1.2,0-2.3-0.6-2.7-1.3
					V79.5z M206.8,76.7c0.5,1,1.5,1.6,2.5,1.6c1.9,0,3-1.5,3-3.6c0-2.1-1.1-3.6-3-3.6c-1,0-2,0.6-2.5,1.6V76.7z"/>
				<path d="M217.8,79.5h-1.6V65.3h1.6V79.5z"/>
				<path d="M221.5,68c-0.6,0-1-0.5-1-1c0-0.6,0.5-1,1-1c0.6,0,1.1,0.5,1.1,1C222.6,67.5,222.1,68,221.5,68z M222.4,79.5h-1.6v-9.7
					h1.6V79.5z"/>
				<path d="M229,69.6c2.2,0,3.6,1.3,3.9,3.1h-1.7c-0.2-1-1-1.7-2.2-1.7c-1.7,0-2.8,1.5-2.8,3.6c0,2.1,1.1,3.6,2.8,3.6
					c1.2,0,2-0.6,2.2-1.7h1.7c-0.3,1.9-1.7,3.1-3.9,3.1c-2.6,0-4.4-2-4.4-5C224.6,71.7,226.4,69.6,229,69.6z"/>
				<path d="M241.7,73.9v5.7H240V66.1h5c2.7,0,4.4,1.4,4.4,3.9c0,2.2-1.3,3.5-3.4,3.8l4,5.7h-2l-3.8-5.7H241.7z M241.7,72.4h3.2
					c1.8,0,2.7-0.9,2.7-2.4c0-1.5-1-2.4-2.7-2.4h-3.2V72.4z"/>
				<path d="M257.4,79.5v-0.7c-0.4,0.4-1.4,0.9-2.6,0.9c-2,0-3.6-1.2-3.6-3.1c0-1.8,1.6-3,3.7-3c1,0,2,0.4,2.4,0.8v-1.2
					c0-1.2-0.7-2.1-2.1-2.1c-1,0-1.7,0.4-2,1.3h-1.6c0.3-1.6,1.8-2.8,3.6-2.8c2.3,0,3.7,1.3,3.7,3.4v6.5H257.4z M257.4,76.1
					c-0.3-0.7-1.3-1.2-2.3-1.2c-1.2,0-2.3,0.5-2.3,1.7c0,1.2,1.1,1.7,2.3,1.7c1,0,2-0.5,2.3-1.2V76.1z"/>
				<path d="M268.2,78.4c-0.5,0.7-1.5,1.3-2.7,1.3c-2.8,0-4.4-2.3-4.4-5c0-2.7,1.5-5,4.4-5c1.2,0,2.3,0.6,2.7,1.3v-5.6h1.7v14.2
					h-1.7V78.4z M268.2,72.7c-0.5-1-1.5-1.6-2.5-1.6c-1.9,0-3,1.5-3,3.6c0,2.1,1.1,3.6,3,3.6c1,0,2-0.6,2.5-1.6V72.7z"/>
				<path d="M273.6,68c-0.6,0-1-0.5-1-1c0-0.6,0.5-1,1-1c0.6,0,1.1,0.5,1.1,1C274.6,67.5,274.1,68,273.6,68z M274.4,79.5h-1.6v-9.7
					h1.6V79.5z"/>
				<path d="M281.1,79.7c-2.7,0-4.5-2.1-4.5-5c0-3,1.8-5,4.5-5c2.6,0,4.5,2.1,4.5,5C285.5,77.7,283.7,79.7,281.1,79.7z M281.1,71.1
					c-1.7,0-2.8,1.5-2.8,3.6c0,2.1,1,3.6,2.8,3.6c1.7,0,2.8-1.5,2.8-3.6C283.9,72.6,282.8,71.1,281.1,71.1z"/>
			</g>
		</g>
		<path d="M36.7,62.2c-11.1,0-20.1-9-20.1-20.1S25.6,22,36.7,22s20.1,9,20.1,20.1S47.8,62.2,36.7,62.2z M36.7,32.5
			c-5.3,0-9.6,4.3-9.6,9.6s4.3,9.6,9.6,9.6s9.6-4.3,9.6-9.6S42,32.5,36.7,32.5z"/>
	</g>
</g>
<g id="Layer_1">
</g>
</svg>
