<?xml version="1.0" encoding="utf-8"?>
<!-- Generator: Adobe Illustrator 18.0.0, SVG Export Plug-In . SVG Version: 6.00 Build 0)  -->
<!DOCTYPE svg PUBLIC "-//W3C//DTD SVG 1.1//EN" "http://www.w3.org/Graphics/SVG/1.1/DTD/svg11.dtd">
<svg version="1.1" xmlns="http://www.w3.org/2000/svg" xmlns:xlink="http://www.w3.org/1999/xlink" x="0px" y="0px"
	 viewBox="0 0 300 100" style="enable-background:new 0 0 300 100;" xml:space="preserve">
<style type="text/css">
	.st0{fill-rule:evenodd;clip-rule:evenodd;}
	.st1{fill-rule:evenodd;clip-rule:evenodd;fill:#C038F9;}
	.st2{fill:none;}
	.st3{fill-rule:evenodd;clip-rule:evenodd;fill:#231F20;}
</style>
<g id="Layer_2">
</g>
<g id="Layer_1">
	<g>
		<path class="st0" d="M286.8,43.7c2.3-2,4.3-3.1,5.5-3.1c1.9,0,3.2,1.6,4.6,1.6c0.7,0,1.2-0.6,1.5-1.1l0.5,0.4
			c-1.5,2.1-2.8,4.1-3.8,5.8c-1.5-2-4-3.5-5.7-3.5c-1.8,0-2,1.2-1.3,2.2c1.3,1.7,4.4,3.6,6.7,5.4c1.9,1.5,3.1,3,3.1,5.1
			c0,2.8-3.3,5.6-5.6,9.5c-2.3-1.2-5.4-2.6-7.8-2.6c-1.7,0-2.7,0.8-3,1.9l-0.3-0.1c0.7-3.9,2.1-7.1,4.8-7.1c2.1,0,4.5,1.6,7.2,3.6
			c0.4,0.3,0.7,0.2,0.9-0.2c0.4-0.9,0.3-2.5-1.6-4.1c-2.1-1.8-4.3-2.8-6-4c-2.5-1.8-3-3.2-3-4.7C283.3,47.3,284.3,45.8,286.8,43.7"
			/>
		<polyline class="st0" points="222.9,40.4 226.4,34 229.5,36.3 223.9,41.3 222.9,40.4 		"/>
		<path class="st0" d="M228.7,57.1c0,3.2,0.8,4.3,2.2,4.3c0.8,0,1.3-0.4,1.3-0.4l0.3,0.7c-1.6,1.1-4.4,3.4-5.7,4.5
			c-3.4-3-4.2-4.2-4.2-9.1V48c0-1.6-0.6-2.3-2-2.9v-0.1c1.4-0.8,4-2.3,6-3.6c1.7,1.9,2.1,3.1,2.1,6.2V57.1"/>
		<path d="M273.5,65.6c-0.9,0.5-1.6,0.5-2.5,0.1c-3.6-1.9-4.9-4.7-4.9-9.5v-8.8c0-0.5,0.1-0.9,0.6-1.2l9.3-5
			c0.4-0.2,0.6-0.1,0.8,0.2l4.4,7.2c0.2,0.4,0.2,0.7-0.2,0.9c-3.1,2.2-7.3,5.1-9.3,6.4l-0.1-1.3c1.3-0.8,3.4-2.1,4.5-3.1
			c0.3-0.3,0.4-0.6,0.1-1l-3.4-5.4c-0.4-0.6-1-0.3-1,0.3v9.2c0,3.9,1.4,6.4,4.2,6.4c2.7,0,4.6-2.3,5.4-3.9l0.1,0v2.1
			C279.3,61.5,276.1,64,273.5,65.6"/>
		<path class="st0" d="M92.6,40.9c-1.9-2.7-5.7-6.4-9.4-6.4c-2.5,0-3.6,1.5-3.6,2.8c0,1.7,1.4,2.8,5.1,5.2
			c7.2,4.7,12.9,7.9,12.9,14.1c0,6.5-6.9,8.8-9,13.6h-0.1c-4.5-6.6-12.4-7.9-15.6-5L72.6,65c0.4-2.9,2.2-8.2,6.5-8.2
			c3.9,0,9.1,5.2,12.3,6.6c0.5,0.2,0.9,0.1,1.2-0.3c0.4-0.5,0.7-1.3,0.7-2.6c0-8.7-18.1-11.2-18.1-18.2c0-1.6,1.5-4.6,3.6-7.2
			c2.7-3.4,5.5-4.9,8.6-4.9c4.7,0,7,3.5,9,3.5c0.8,0,1.4-0.4,1.9-1.1l0.5,0.5C96.6,35.4,93.9,39.1,92.6,40.9"/>
		<path class="st0" d="M92,60.6c0-7.7-18.3-10.2-18.3-18.3l-0.2,0c-1.3,9.1,16.7,11.4,18.3,18.3L92,60.6"/>
		<path class="st0" d="M154.9,55.1c0,3.9,0.8,5.5,2.6,5.5c1,0,1.7-0.6,1.7-0.6l0.3,0.7c-1.5,1.5-4.2,4.2-5.4,5.5
			c-2.4-1.8-4.3-3.7-4.7-5.9l-0.2-0.5V41.7c0-2.4-0.4-3.5-2.1-3.9v-0.1c2.5-1.4,5.2-3.1,7.6-4.7l0.2,0.1V55.1"/>
		<path class="st0" d="M144.2,55.1c0,4.3,0.9,5.6,2.8,5.6c1.7,0,2.7-1.8,2.7-1.8l0.4,1c-1.5,1.3-5.3,5-6.5,6.2
			c-3.9-2.6-5.1-4.7-5.1-9.7V41.7c0-2.4-0.4-3.5-2.1-3.9v-0.1c2.5-1.4,5.2-3.1,7.6-4.7l0.2,0.1V55.1"/>
		<polyline class="st0" points="157.8,44.7 159.1,42.2 134.2,42.2 135.2,44.7 157.8,44.7 		"/>
		<path d="M176.7,65.6c-3.6-1.9-4.9-4.7-4.9-9.5v-8.8c0-0.5,0.1-0.9,0.6-1.2l9.2-5c0.4-0.2,0.6-0.1,0.8,0.2l4.4,7.2
			c0.2,0.4,0.2,0.7-0.2,0.9c-3.1,2.2-7.3,5.1-9.3,6.4l-0.1-1.3c1.3-0.8,3.4-2.1,4.5-3.1c0.3-0.3,0.4-0.6,0.1-1l-3.4-5.4
			c-0.3-0.5-1-0.3-1,0.3v9.2c0,3.9,1.6,6.5,4.3,6.5c2.7,0,4.9-2.6,5.8-4.2l0.1,0v2.1c-2.4,2.2-6,4.9-8.6,6.5
			C178.3,66.1,177.6,66.1,176.7,65.6"/>
		<path class="st0" d="M166.4,55.6c0,3.9,1,5.1,2.9,5.1c1,0,1.7-0.6,1.7-0.6l0.3,0.7c-1.5,1.4-4.4,4.2-5.6,5.5
			c-4-2.9-5.2-4.5-5.2-9.7V39.4c0-2.4-0.4-3.5-2.1-3.9v-0.1c2.5-1.4,5.3-3.1,7.7-4.7l0.2,0.1V55.6"/>
		<path class="st0" d="M128.1,50.6c-2.9,2.1-8.2,5-10.6,6.4c-0.4,0.2-0.5,0.5-0.5,1c0,3.6,1,6.3,3.5,7.6c0.8,0.4,1.4,0.4,2-0.1
			l5.8-4.7l-0.4-1.2c-0.5,0.9-1.4,1.7-2.6,1.7c-1.8,0-2.7-2.2-2.7-5.3c0-0.3,0-0.5,0.3-0.7c1.3-0.9,3.8-2.5,5.2-3.2L128.1,50.6"/>
		<path class="st0" d="M133.3,56.1c0,2.3,0.1,3.2,0.7,4.2c0.4,0.6,1,1,1.5,1c0.7,0,1.1-0.4,1.1-0.4l0.3,0.7c-1.3,1-4.1,3.4-5.4,4.6
			c-2.3-2.1-3.6-3.5-3.9-5.9V49.4c0-1-0.2-1.7-0.9-2.3c-0.9-0.7-2.5-1.8-3.5-2.3c-0.6-0.3-1,0-1,0.6v3.8c0,0.9-0.3,1.4-0.9,1.7
			l-3.6,1.9c-0.3,0.1-0.4,0-0.4-0.3v-5.3c0-0.4,0.1-0.6,0.4-0.8l8.4-5.4c0.3-0.2,0.5-0.2,0.8,0c1.7,1,4.4,3,6,4.3
			c0.3,0.2,0.4,0.6,0.4,0.9V56.1"/>
		<path d="M107.3,65.6c-0.9,0.5-1.6,0.5-2.5,0.1c-3.6-1.9-4.9-4.7-4.9-9.5v-8.8c0-0.5,0.1-0.9,0.6-1.2l9.2-5
			c0.4-0.2,0.6-0.1,0.8,0.2l4.4,7.2c0.2,0.4,0.2,0.7-0.2,0.9c-3.1,2.2-7.3,5.1-9.3,6.4l-0.1-1.3c1.3-0.8,3.3-2.1,4.5-3.1
			c0.3-0.3,0.4-0.6,0.1-1l-3.4-5.4c-0.4-0.6-1-0.3-1,0.3v9.2c0,3.9,1.4,6.4,4.2,6.4c2.7,0,4.6-2.3,5.4-3.9l0.1,0v2.1
			C113,61.5,109.9,64,107.3,65.6"/>
		<path d="M56.5,65.6c-3.6-1.9-4.9-4.7-4.9-9.5v-8.8c0-0.5,0.1-0.9,0.6-1.2l9.2-5c0.4-0.2,0.6-0.1,0.8,0.2l4.4,7.2
			c0.2,0.4,0.2,0.7-0.2,0.9c-3.1,2.2-7.3,5.1-9.3,6.4l-0.1-1.3c1.3-0.8,3.4-2.1,4.5-3.1c0.3-0.3,0.4-0.6,0.1-1l-3.4-5.4
			c-0.3-0.5-1-0.3-1,0.3v9.2c0,3.9,1.6,6.5,4.3,6.5c2.7,0,4.9-2.6,5.8-4.2l0.1,0v2.1c-2.4,2.2-6,4.9-8.6,6.5
			C58.2,66.1,57.4,66.1,56.5,65.6"/>
		<path d="M37.1,56.8c0,3.6,0.5,4.7,2.5,6.3l-4.5,4c-2.9-2.8-3.8-4.2-3.8-9.4V43.9c0-2.4-0.3-3.6-2-3.9V40c2.4-1.5,5.2-3.4,7.6-5.2
			l0.2,0.1v10c0,0.5,0.3,0.8,0.9,0.5c1.7-1,4.1-2.5,5.6-3.5c0.2-0.1,0.4-0.2,0.6-0.1c2.8,1.3,4,3.5,4,5.6v10.8c0,5.2-0.9,7-9.6,15.5
			l-1.1-0.7c4.2-2.8,4.7-6.3,4.7-12.3V49.9c0-1.3-0.1-2.1-0.3-2.9c-0.3-0.9-0.8-1.5-1.7-1.5c-1.1,0-2.3,1.1-3,2V56.8"/>
		<path class="st0" d="M1.9,40.4c-0.1-1.1,0.2-2.2,1-3c0.9-1,2.2-1.4,4.4-1.4c4.1,0,11.2,3,17.5,3c5.5,0,9.2-5.3,10.6-8.1l-0.6-1.7
			l-0.1,0c-0.3,2.3-2.4,5.2-6.8,5.2c-4.2,0-12.6-3.2-17-3.2c-6.3,0-9.4,4.6-9.9,8.4L1.9,40.4L1.9,40.4"/>
		<rect x="22.4" y="38" width="1.3" height="27.3"/>
		<path class="st0" d="M12.6,38.3l0.7,0.4c-2.9,2.1-5.2,6.2-5.2,11.2c0,8.4,4.9,15.3,12.7,15.3c4.5,0,7.4-2.3,8.8-4.6l0.1,0l0.1,2
			c-2.2,2-6.9,5.5-12.9,5.5c-9.2,0-14.8-6.3-14.8-14.6C2.1,45.7,7.5,40.9,12.6,38.3"/>
		<path class="st0" d="M20,38l-3.5,1.9c-2.1,1.2-2.6,2.4-2.6,4.8c0,2.1,0.6,5.8,0.6,8.7c0,3-0.6,3.9-3.1,5l0.4,0.8
			c1.7-0.8,4.5-2.2,6.4-3.4c1.5-1,1.8-1.5,1.8-3.1v-9.4c0-3,0.1-4,0.7-4.8L20,38"/>
		<path class="st0" d="M250.6,57.6c0,3,1,4.1,2.2,4.1c0.7,0,1.2-0.4,1.2-0.4l0.3,0.7c-1.3,0.9-4.3,3.1-5.6,4.2
			c-3.4-3.3-4.1-4.4-4.1-9.4v-7c0-1.3-0.1-2.1-0.3-2.9c-0.3-0.9-0.8-1.5-1.7-1.5c-1,0-2.3,1.1-3,1.9v10.2c0,3,1,4.1,2.2,4.1
			c0.7,0,1.2-0.4,1.2-0.4l0.3,0.7c-1.3,0.9-4.3,3.1-5.6,4.2c-3.4-3.3-4.1-4.4-4.1-9.3V48c0-1.6-0.6-2.3-2-2.9v-0.1
			c1.4-0.8,4-2.3,6-3.6c0.9,1.2,1.5,2.5,1.8,3.8c0.1,0.5,0.5,0.5,0.9,0.3c1.8-1,4.2-2.6,5.8-3.7c0.2-0.1,0.4-0.2,0.6-0.1
			c1.9,0.9,3,2.2,3.6,3.5c0.2,0.5,0.6,0.5,1,0.3c1.8-1.1,4.2-2.6,5.9-3.7c0.2-0.1,0.3-0.2,0.6-0.1c3.2,1.5,4,3.2,4,7.1v8.8
			c0,3,1,4.1,2.2,4.1c0.7,0,1.2-0.4,1.2-0.4l0.3,0.7c-1.3,0.9-4.3,3.1-5.6,4.2c-3.4-3.3-4.1-4.4-4.1-9.4v-7c0-1.3-0.1-2.1-0.3-2.9
			c-0.3-0.9-0.8-1.5-1.7-1.5c-1,0-2.3,1.1-3,1.9V57.6"/>
		<path class="st0" d="M192.8,40.4c-0.1-1.1,0.2-2.2,1-3c0.9-1,2.2-1.4,4.4-1.4c4.1,0,11.2,3,17.5,3c5.5,0,9.2-5.3,10.6-8.1
			l-0.6-1.7l-0.1,0c-0.3,2.3-2.4,5.2-6.8,5.2c-4.2,0-12.6-3.2-17-3.2c-6.3,0-9.4,4.6-9.9,8.4L192.8,40.4L192.8,40.4"/>
		<rect x="213.3" y="38" width="1.3" height="27.3"/>
		<path class="st0" d="M203.5,38.3l0.7,0.4c-2.9,2.1-5.2,6.2-5.2,11.2c0,8.4,4.9,15.3,12.7,15.3c4.5,0,7.4-2.3,8.8-4.6l0.1,0l0.1,2
			c-2.2,2-6.9,5.5-12.9,5.5c-9.2,0-14.8-6.3-14.8-14.6C193.1,45.7,198.5,40.9,203.5,38.3"/>
		<path class="st0" d="M211,38l-3.5,1.9c-2.1,1.2-2.6,2.4-2.6,4.8c0,2.1,0.6,5.8,0.6,8.7c0,3-0.6,3.9-3.1,5l0.4,0.8
			c1.7-0.8,4.5-2.2,6.4-3.4c1.5-1,1.8-1.5,1.8-3.1v-9.4c0-3,0.1-4,0.6-4.8L211,38"/>
	</g>
</g>
</svg>
