<?xml version="1.0" encoding="utf-8"?>
<!-- Generator: Adobe Illustrator 18.0.0, SVG Export Plug-In . SVG Version: 6.00 Build 0)  -->
<!DOCTYPE svg PUBLIC "-//W3C//DTD SVG 1.1//EN" "http://www.w3.org/Graphics/SVG/1.1/DTD/svg11.dtd">
<svg version="1.1" xmlns="http://www.w3.org/2000/svg" xmlns:xlink="http://www.w3.org/1999/xlink" x="0px" y="0px"
	 viewBox="0 0 300 100" style="enable-background:new 0 0 300 100;" xml:space="preserve">
<style type="text/css">
	.st0{fill-rule:evenodd;clip-rule:evenodd;}
	.st1{fill-rule:evenodd;clip-rule:evenodd;fill:#C038F9;}
	.st2{fill:none;}
	.st3{fill-rule:evenodd;clip-rule:evenodd;fill:#231F20;}
</style>
<g id="Layer_2">
	<g>
		<g>
			<path d="M6.5,67H1V17.7h5.5V67z"/>
			<path d="M12.9,15.6l38.4,40.3V17.7h5.5v51.5L18.4,29v38h-5.5V15.6z"/>
			<path d="M64.4,17.7h9.3c7.4,0,13.4,1,19.2,6c5.6,4.8,8.2,11.4,8.2,18.8c0,7.2-2.6,13.5-8,18.4C87.2,66,81.3,67,73.6,67h-9.2V17.7
				z M73.9,61.9c6,0,11.1-0.8,15.6-5.1c4.1-3.8,6.1-9,6.1-14.5c0-5.6-2.2-11.1-6.4-14.8c-4.5-4-9.5-4.8-15.3-4.8h-4v39.1H73.9z"/>
			<path d="M97.1,17.7h6.3l12.6,22l12.6-22h6.3l-16.2,28.1V67h-5.5V45.8L97.1,17.7z"/>
			<path d="M161.4,30.4c-2.4-2-5.4-3.3-8.5-3.3c-2.4,0-5.5,1.4-5.5,4.1c0,2.9,3.5,4,5.7,4.7l3.3,1c6.9,2,12.2,5.5,12.2,13.5
				c0,4.9-1.2,9.9-5.1,13.3c-3.9,3.3-9,4.6-14,4.6c-6.2,0-12.3-2.1-17.3-5.6l5.5-10.3c3.2,2.8,7,5.1,11.4,5.1c3,0,6.2-1.5,6.2-5
				c0-3.6-5-4.8-7.8-5.6c-8-2.3-13.3-4.4-13.3-13.9c0-10,7.1-16.5,17-16.5c5,0,11.1,1.6,15.4,4.1L161.4,30.4z"/>
			<path d="M195.5,67h-12.8V28.5h-10.6V17.7h34v10.9h-10.6V67z"/>
			<path d="M220.7,58.4l-3.4,8.6h-13.6l19-49.3h14L255.2,67h-13.7l-3.2-8.6H220.7z M229.7,32.9h-0.1l-5.3,15.7h10.7L229.7,32.9z"/>
			<path d="M298.3,67h-16l-12.1-19h-0.1v19h-12.8V17.7h19.2c9.7,0,17.1,4.6,17.1,15.2c0,6.8-3.8,12.7-10.8,13.9L298.3,67z
				 M270.1,39.8h1.2c4.2,0,8.9-0.8,8.9-6.1c0-5.4-4.7-6.1-8.9-6.1h-1.2V39.8z"/>
		</g>
		<g>
			<path d="M152.1,81.7l-0.9,2.1h-1.4l4.2-9.3l4.3,9.3H157l-0.9-2.1H152.1z M154.1,77.1l-1.5,3.5h3L154.1,77.1z"/>
			<path d="M163.8,79.2c0-2.5,1.9-4.6,4.4-4.6c1.9,0,3,0.9,3.8,1.8l-0.9,0.8c0,0-0.9-1.4-2.9-1.4c-2,0-3.2,1.7-3.2,3.5
				c0,2.1,1.4,3.6,3.4,3.6c1.7,0,2.8-1.2,2.8-2.6h-2.1v-1.1h3.4c0,0,0,0.5,0,0.7c0,2.4-1.8,4.1-4,4.1
				C165.9,84,163.8,81.9,163.8,79.2z"/>
			<path d="M176.4,81.7l-0.9,2.1h-1.4l4.2-9.3l4.3,9.3h-1.4l-0.9-2.1H176.4z M178.4,77.1l-1.5,3.5h3L178.4,77.1z"/>
			<path d="M185.9,83.8h-1.2v-9.2l6.7,6.8v-6.6h1.1v9.4l-6.7-6.8V83.8z"/>
			<path d="M195.9,83.8h-1.2v-9.2l6.7,6.8v-6.6h1.1v9.4l-6.7-6.8V83.8z"/>
			<path d="M204.8,74.8h4.6v1.1h-3.4v2.4h3.3v1.1h-3.3v3.3h3.4v1.1h-4.6V74.8z"/>
			<path d="M215.3,83.8h-1.2v-7.9h-2v-1.2h5.2v1.2h-2V83.8z"/>
			<path d="M224,83.8h-1.2v-7.9h-2v-1.2h5.2v1.2h-2V83.8z"/>
			<path d="M234.7,79.3c0-2.7,2-4.7,4.6-4.7c0.8,0,1.7,0.2,2.4,0.6v1.3c0,0-0.9-0.7-2.3-0.7c-2,0-3.4,1.4-3.4,3.6
				c0,2,1.3,3.5,3.4,3.5c0.9,0,1.7-0.4,2.3-0.7v1.3c-0.2,0.2-1.4,0.6-2.4,0.6C236.7,84,234.7,82,234.7,79.3z"/>
			<path d="M243.4,79.3c0-2.7,2.1-4.7,4.7-4.7c2.8,0,4.7,2.1,4.7,4.8c0,2.6-2,4.6-4.7,4.6C245.3,84,243.4,81.9,243.4,79.3z
				 M248.1,75.8c-2.1,0-3.4,1.6-3.4,3.5c0,2.1,1.4,3.5,3.4,3.5c2.1,0,3.4-1.4,3.4-3.5C251.5,77.3,250.2,75.8,248.1,75.8z"/>
			<path d="M255.2,83.8H254l1.8-9.2l3.2,7l3.1-7l1.8,9.2h-1.2l-1.1-5.7l-2.7,6l-2.8-6L255.2,83.8z"/>
			<path d="M267,80v3.8h-1.2v-9c0,0,1.3,0,2.3,0c1.6,0,2.8,1,2.8,2.6c0,1.7-1.2,2.7-2.4,2.7C267.9,80,267,80,267,80z M267,75.9v3
				c0,0,0.8,0,0.9,0c1.2,0,1.7-0.7,1.7-1.6c0-0.8-0.6-1.5-1.7-1.5C267.6,75.9,267,75.9,267,75.9z"/>
			<path d="M274.2,81.7l-0.9,2.1h-1.4l4.2-9.3l4.3,9.3H279l-0.9-2.1H274.2z M276.2,77.1l-1.5,3.5h3L276.2,77.1z"/>
			<path d="M283.3,83.8h-1.2v-9.2l6.7,6.8v-6.6h1.1v9.4l-6.7-6.8V83.8z"/>
			<path d="M291.6,74.8h1.4l2.1,3.9l2-3.9h1.4l-2.9,5.1v3.9h-1.2v-3.9L291.6,74.8z"/>
		</g>
	</g>
</g>
<g id="Layer_1">
</g>
</svg>
