<?xml version="1.0" encoding="utf-8"?>
<!-- Generator: Adobe Illustrator 18.0.0, SVG Export Plug-In . SVG Version: 6.00 Build 0)  -->
<!DOCTYPE svg PUBLIC "-//W3C//DTD SVG 1.1//EN" "http://www.w3.org/Graphics/SVG/1.1/DTD/svg11.dtd">
<svg version="1.1" xmlns="http://www.w3.org/2000/svg" xmlns:xlink="http://www.w3.org/1999/xlink" x="0px" y="0px"
	 viewBox="0 0 300 100" style="enable-background:new 0 0 300 100;" xml:space="preserve">
<style type="text/css">
	.st0{fill-rule:evenodd;clip-rule:evenodd;}
	.st1{fill-rule:evenodd;clip-rule:evenodd;fill:#C038F9;}
	.st2{fill:none;}
	.st3{fill-rule:evenodd;clip-rule:evenodd;fill:#231F20;}
</style>
<g id="Layer_2">
	<g id="tw9HHo_1_">
		<g>
			<path d="M27.5,33.8c-0.4-0.7-1.4-0.1-1.2-1.2c1.6-0.4,3.2-0.1,4.8-0.2c0.6,0.6,0.4,1.3,0.4,1.9c0,7.3,0,14.7,0,22
				c0,0.8-0.2,1.6,0.3,2.4c0.8-0.5,0.6-1.2,0.6-1.7c0-6.7,0-13.4,0-20.1c0-0.8,0-1.6,0-2.4c1.3-0.4,2.5-0.1,3.9-0.2
				c0,8.2,0,16.2,0,24.3c1-1.6,0.9-3.2,0.9-4.9c0-1.7,0-3.4,0-5c0-1.8,0-3.5,0-5.3c0-1.7,0-3.4,0-5c0-1.7,0.3-3.5-0.4-5.4
				c1.9-1,3.8-0.3,5.7-0.5c0,1.2-0.9,0.8-1.4,1.5c0,0.7,0,1.6,0,2.6c0,6.6,0,13.3,0,19.9c0,1-0.1,2-0.4,3.1
				c-0.7,2.5-3.3,3.8-5.4,2.9c-0.3-0.1-0.6-0.2-1-0.3c-0.4,0.1-0.7,0.3-1.1,0.4c-2.9,0.8-5.5-1.1-5.6-4.1c-0.1-3.4,0-6.7,0-10.1
				c0-4.6,0-9.3,0-13.9C27.6,34.1,27.5,33.9,27.5,33.8z"/>
			<path d="M285.5,61c0,0.2-0.1,0.5-0.1,0.8c-1.6,0.4-3.3,0.1-4.9,0.2c-0.7-0.6-0.4-1.4-0.4-2.1c0-7.2,0-14.4,0-21.5
				c0-0.7,0.4-1.6-0.9-2.2c0,8.6,0,17.1,0,25.7c-1.8,0-3.5,0-5.1,0c-0.4-1.2,0.9-0.6,1.2-1.5c0-9.1,0-18.5,0-27.8
				c4.6-1,6.7-0.3,8.3,2.7c0.3,0.3,0.5-0.3,1.1,0.1c0.7,0.8,1.2,1.9,1.2,3.4c0,6.9,0,13.9,0,20.8C286,60.2,286.1,60.8,285.5,61
				c-0.1-0.5-0.9-0.3-1.1-0.9c0-8,0-15.9,0-23.9c-0.5,2.4-0.5,23-0.1,24.7C284.7,61,285.1,61,285.5,61z"/>
			<path d="M246.1,61.5c-0.1,0.3-0.4,0.5-0.7,0.5c-1.6,0-3.2,0-5,0c0-8.7,0-17.2,0-25.6c-0.8,1.6-0.5,3.2-0.6,4.8
				c-0.1,1.8,0,3.5,0,5.3c0,1.7,0,3.3,0,5c0,1.8,0,3.5,0,5.3c0,1.7,0,3.3,0,5.1c-1.9,0.2-3.7,0.3-5.5,0c0.1-1,1.1-0.6,1.5-1.1
				c-0.3-2.4-0.2-26.6,0.1-28.3c2.1-0.4,4.1-0.4,6.1,0.3c1.7,1.1,2.2,2.6,2.2,4.5c-0.1,7.7,0,15.5,0,23.2
				C244.8,61.3,245.7,61,246.1,61.5L246.1,61.5z"/>
			<path d="M248.2,62c0.1-0.8,0.8-0.8,1.3-1.1c0-3.5,0-7,0-10.5c0-1.9-0.1-3.8,0.2-5.7c0.2-1.3-0.2-2.7-0.2-4c0-2.3,0-4.6,0-6.9
				c-0.5-0.2-0.9-0.4-1.4-0.6c0.2-0.2,0.3-0.5,0.5-0.5c2.1-0.3,4.2-0.4,6.2,0c1.9,0.4,3.5,1.8,3.4,4.2c-0.1,6.9,0,13.9,0,20.8
				c0,3.1-1.4,4.6-4.5,4.6C251.9,62.1,250.1,62.2,248.2,62z M254.3,36.4c-0.2,0-0.4,0-0.6,0c0,7.2,0,14.4,0,21.6c0.1,0,0.4,0,0.4,0
				C254.6,50.8,254.2,43.6,254.3,36.4z"/>
			<path d="M11.7,61.5c-0.1,0.2-0.2,0.4-0.4,0.8c-1.7-0.5-3.4,0.2-5.3-0.5c0-8.5,0-17,0-25.5c-0.2,0-0.3,0-0.5,0
				c-0.1,8.5,0,16.9-0.1,25.5c-1,0.4-2,0.2-2.9,0.2c-0.9,0-1.8,1-2.6-0.3c0.3-0.6,1.1-0.2,1.6-1.1c0-9.2,0-18.6,0-28.3
				c3.1-0.3,6-0.7,8.1,2.4c0.3,1.3,0.7,2.6,0.2,4.1c0.7,2.5-0.3,5,0.2,7.5c0.4,2.2,0.1,4.6,0.1,6.9c0,2.6,0,5.1,0,7.6
				C10.8,61.2,11.3,61.4,11.7,61.5L11.7,61.5z"/>
			<path d="M57,48.7c-0.4,2.2-0.1,4.4-0.2,6.5c-0.1,2.2,0,4.4,0,6.8c-1.9,0-3.5,0-5.1,0c0-0.9,0.8-0.3,1.2-1c0-9,0-18.2,0-27.3
				c-0.3-0.6-1.2-0.2-1.4-1.1c1.8-0.5,3.4-0.2,5.3-0.3c0,2.3-0.1,4.3,0,6.4c0.1,2-0.3,4,0.4,6c0.7-2,0.4-4,0.4-6
				c0.1-2.1,0-4.1,0-6.4c1.9,0.1,3.6-0.3,5.2,0.2c0,1-0.9,0.5-1.3,1.2c0,9,0,18.1,0,27.3c0.1,0.7,1.1,0,1.2,0.9c-1.6,0-3.3,0-5.1,0
				c0-4.5-0.1-8.9-0.1-13.3C57.5,48.7,57.3,48.7,57,48.7z"/>
			<path d="M193.4,35.6c0,7,0,14,0,21c0,1.1-0.1,2.1-0.5,3c-0.5,1.2-1.6,2.1-2.9,2.3c-2.2,0.2-4.4,0.2-6.5,0
				c-0.1-1.1,0.9-0.7,1.2-1.3c0-8.8,0-17.8,0-26.6c-0.2-0.9-1.1-0.6-1.3-1.2c0-0.3,0.2-0.5,0.4-0.5c1.8,0,3.7-0.1,5.5,0
				C191.4,32.5,192.6,33.9,193.4,35.6L193.4,35.6z M189.2,58.1c0.4-0.4,0.3-0.8,0.3-1.2c0-1.7,0-3.3,0-5c0-4.6,0-9.2,0-13.8
				c0-0.6,0.3-1.4-0.9-1.8c0,7.2,0,14.3,0,21.3C188.6,57.8,188.8,58,189.2,58.1z"/>
			<path d="M70.7,61.9c-1.9,0.4-3.5-0.1-5.1,0.4c-0.2-1.2,1-0.6,1.3-1.5c0-6.1,0-12.4,0-18.8c0-1.4,0.1-2.9,0-4.3
				c-0.2-2.4,0.7-4.2,2.9-5.3c0.9-0.1,1.7-0.2,2.6,0c1.9,0.5,3.2,2.3,3.2,4.5c0,7.3,0,14.5,0,21.8c0,0.8,0,1.6,0,2
				c0.2,1.1,1.2,0.5,1.4,1.4c-1.7,0.3-3.3,0.1-4.9,0.1c-0.5-0.8-0.3-1.6-0.3-2.4c0-2.4,0-4.8,0-7.2c0-0.6,0.2-1.3-0.7-1.8
				c-0.3,1.9-0.1,3.8-0.1,5.6C70.7,58.1,70.7,59.9,70.7,61.9z M71.6,46.6c0-1.7,0.1-3.5,0-5.2c-0.1-1.7,0.3-3.5-0.4-5.5
				C70.6,38,70.6,44.9,71.6,46.6z"/>
			<path d="M112,62.5c-0.7-0.8-0.5-1.8-0.5-2.7c0-7.2,0-14.4,0-21.5c0-0.6,0.1-1.3-0.2-1.9c-0.9,0.3-0.7,1-0.7,1.6
				c0,2.7-0.1,5.4,0,8.1c0.1,4.9-0.3,9.7,0.2,14.6c0,0.5-0.1,0.9-0.5,1.4c-1.5,0-3.1,0-4.6,0c-0.1-0.9,0.8-0.4,1.2-0.9
				c0-9.5,0-18.9,0-28.5c2-0.4,3.9-0.6,5.7,0.1c1.9,0.7,2.9,2.1,2.8,4.2c0,5.2,0,10.4,0,15.6c0,2.8,0,5.6,0,8.1
				c0.4,0.7,0.9,0.7,1.3,0.9c-0.2,0.2-0.2,0.4-0.3,0.4C114.9,62.3,113.3,61.8,112,62.5L112,62.5z"/>
			<path d="M180.9,61c0,0.2,0,0.5-0.1,0.8c-1.6,0.4-3.3,0.1-4.9,0.2c-0.6-0.6-0.4-1.3-0.4-1.9c0-7.2,0-14.4,0-21.6
				c0-0.7,0.3-1.6-0.8-2.4c-0.2,3-0.1,5.8-0.1,8.6c0,2.8,0,5.6,0,8.4c0,2.9,0,5.7,0,8.8c-1.8,0.2-3.5,0.3-5.2,0
				c-0.1-1,0.8-0.6,1.3-1.1c0-9.3,0-18.7,0-28.2c1.9-0.2,3.5-0.2,5.3,0.1c2.1,0.4,2.7,2,3.4,3.5l0-0.1c0,8.3-0.1,16.6,0,25
				C180.2,61.1,180.6,61.1,180.9,61L180.9,61z"/>
			<path d="M85.2,62.6c-2.6-1.5-3.2-4-3.8-6.4c-0.5-2-0.7-4.1-0.7-6.2c0.1-5.4,0-10.9,0-15.8c-0.2-1.2-1.5-0.6-1.3-1.7
				c1.6-0.4,3.2-0.1,4.8-0.2c0.6,0.6,0.4,1.3,0.4,1.9c0,6,0,12,0,18c0,0.8-0.2,1.7,0.4,2.7c0.8-0.8,0.5-1.6,0.5-2.3
				c0-5.8,0-11.7,0-17.5c0-0.9-0.2-1.7,0.2-2.6c2.5-0.4,3.5-0.3,5.1,0.2c0.1,0.9-0.9,0.4-1.4,1.2c-0.1,0.2,0,0.9,0,1.5
				c0,4.9,0,9.7,0,14.6c0,2.5-0.4,4.9-1,7.3C87.9,59.3,87,61.2,85.2,62.6z"/>
			<path d="M145,36.7c0.9-0.1,1.4-1,2.3-1.3c0.2,1.1-0.6,1.8-0.7,2.9c0.4,0.9,1.9,1.5,1.1,3.3c-0.2,0.5-1.1,0.6-1.6,1.2
				c-0.2,1.1,0.1,2.2,0.3,3.2c-0.6,1.1-1.7,1.5-2.5,2.2c-0.4,0.5-0.3,1-0.3,1.5c-0.1,4.2,0.3,8.5-0.5,12.6c-0.2,1.1,0.3,2.2,0.6,3.2
				c-1.6,0.4-2,0.2-2.5-1.1c-0.4-1.2-0.8-2.4-1-3.7c-0.2-1.3-0.7-2.4-0.6-3.6c-0.4-0.5-0.7-0.3-1.1-0.3c-0.5,2.4-0.8,4.8-1,7.6
				c-0.5,0.8-1.5,1.2-2.8,1.1c-0.2-1,1-0.8,1.1-1.7c-0.5-2.2-0.4-4.7-1.3-7.1c-0.3-0.6-1.1-0.2-1.4-0.9c0-0.8,0-1.8,0-2.7
				c0-0.6-0.7-0.6-0.9-1.3c0-0.5,0-1.1,0-1.8c-0.1-0.5-0.7-0.4-0.8-0.8c0.3-0.5,0.6-1.1,1.6-1.1c-0.2,1.2-0.6,2.3-0.2,3.7
				c2.3-1,4.6-1.9,7.3-1.8c0.4-1.3,0.1-2.5,0.2-3.8c0.1-1.2-0.6-2.3-0.3-3.4c-1.2-1-2.2-0.9-3.5-0.5c-2.5,0.9-4.5,2.5-6.6,4
				c0,0-0.2-0.2-0.4-0.4c0.5-1.2,2-1.6,2.4-2.8c1.3-0.1,1.3-0.1,2.4-1.4c1.8-0.1,3.7-0.8,5.6,0c0.8-0.9,1.6-1.8,2.3-2.7
				c0.2-0.7,0.7-0.9,1.3-1.2C144,37.6,144.7,37.5,145,36.7z"/>
			<path d="M210.1,33.7c-0.4-0.6-1.2-0.2-1.4-0.8c0.2-0.7,0.7-0.6,1-0.6c1.4,0,2.9,0,4.3,0c3,0.1,4.7,1.8,4.7,4.8
				c0,3.8,0,7.6,0,11.3c-1.4,2.3-1.9,2.6-4.6,3.2c0,3,0,6,0,9c0,0.8,1.3,0.2,1.2,1.1c-1.6,0.4-3.9,0.5-6.5,0.1c-0.2-1,1-0.5,1.2-1.2
				C210.1,51.7,210.1,42.7,210.1,33.7z M214.5,36.3c-0.1,0.1-0.4,0.2-0.4,0.2c0,3.6,0,7.2,0,10.7c0,0.1,0.2,0.2,0.4,0.2
				c0.1-0.1,0.3-0.1,0.4-0.2c0.1-3.6,0.2-7.2,0-10.7C214.9,36.5,214.6,36.4,214.5,36.3z"/>
			<path d="M262.9,33.8c-0.4-0.7-1.1-0.3-1.3-0.9c0.2-0.1,0.3-0.4,0.5-0.4c2.7,0,5.4,0,8.2,0c0.5,1.7,0.2,3.5,0.2,5.4
				c-1.1,0-0.8-0.9-1.1-1.4c-0.6,0.1-1.3-0.4-2-0.1c-0.1,0.1-0.2,0.1-0.2,0.2c-0.3,2.6-0.1,5.2-0.2,7.8c0.7,0.6,1.4,0.4,2.1,0.4
				c0.5-0.3,0.5-1,1.3-1.2c0.3,2.1,0.1,4.2,0.1,6.4c-1,0.1-0.8-0.9-1.4-1.1c-0.6-0.1-1.2-0.2-2.1,0.2c0,3,0,6.1,0,9.1
				c0.8,0.5,1.4,0.3,2,0.2c0.7-0.3,0.1-1.2,0.9-1.3c0.1,0.1,0.4,0.2,0.4,0.2c0,1.6,0,3.2,0,4.9c-3,0-5.9,0-8.9,0
				c-0.1-0.9,0.9-0.7,1.2-1.3C262.9,51.8,262.9,42.8,262.9,33.8z"/>
			<path d="M22.9,50c-0.9-0.2-0.5-0.9-1-1.3c-0.6-0.2-1.4-0.2-2.4,0c-0.2,1.5,0,3.1-0.1,4.7c0,1.5,0,3,0,4.5
				c0.8,0.6,1.6,0.2,2.2,0.3c0.8-0.3,0.4-1.2,1-1.4c0.3,0,0.5,0.1,0.5,0.4c0,1.5,0,3,0,4.5c-1.9,0.6-7.8,0.7-9.5,0.1
				c0.6-0.3,1.1-0.4,1.6-0.6c0.4-1.5,0.6-22.8,0.2-27.3c-0.3-0.7-1.2-0.3-1.6-0.9c0.2-0.2,0.4-0.5,0.6-0.5c2.8,0,5.6,0,8.3,0
				c0.8,1.9,0.7,4.1-0.1,5.4c-0.6-0.3-0.2-1.1-0.9-1.5c0,0-0.2-0.1-0.5-0.1c-0.5,0-0.9,0-1.6,0c-0.4,1.4-0.2,2.9-0.2,4.2
				c0,1.3,0,2.7,0,4c1,0.3,1.7,0.2,2.5,0.1c0.5-0.3,0.2-1.1,0.7-1.3C23.4,43.5,23.5,47.6,22.9,50z"/>
			<path d="M227.6,58.1c0.9,0,1.6,0,2.3,0c0.7-0.2,0.1-1.3,1.2-1.3c0.4,1.7,0.1,3.4,0.2,5.2c-3.1,0-6,0-8.9,0
				c-0.3-1.2,1-0.6,1.2-1.4c0-8.8,0-17.9,0-26.8c-0.3-0.6-1.3-0.2-1.3-1c0.1-0.1,0.2-0.3,0.3-0.3c2.8,0,5.6,0,8.5,0
				c0.4,1.8,0.3,3.7,0.1,5.5c-1.2,0-0.6-1.1-0.6-1.1c-1.2-0.7-2-0.7-3-0.2c-0.1,2.5,0,5.1-0.1,7.5c0.9,0.8,1.7,0.5,2.4,0.5
				c0.6-0.3,0.3-1.1,0.7-1.3c0.8,0.1,0.9,4.4,0.3,6.6c-0.9,0.1-0.4-0.9-1-1.3c-0.6-0.2-1.4-0.1-2.3,0
				C227.6,51.8,227.6,54.8,227.6,58.1z"/>
			<path d="M198.1,34c-0.4-0.8-1.2-0.6-1.4-1.2c1.7-0.6,7.1-0.7,9,0c0.2,1.7,0.4,3.4-0.3,5.2c-0.8-0.3-0.4-1.1-1.1-1.6
				c-0.4-0.3-1.2-0.2-2.1,0c-0.3,2.7,0,5.3-0.2,8c0.8,0.7,1.6,0.3,2.2,0.3c0.7-0.4,0.5-1.1,0.9-1.5c0.4,0.1,0.7,0.3,0.7,0.6
				c0,2.1,0,4.1,0,6.1c-1.3,0.3-0.7-0.9-1.3-1.2c-0.7-0.2-1.4-0.1-2.3,0c0,3.2,0,6.3,0,9.4c0.8,0.2,1.6,0.1,2.3,0.1
				c0.7-0.2,0.1-1.2,0.9-1.3c0.1,0.1,0.4,0.2,0.4,0.2c0,1.6,0,3.1,0,4.9c-3,0-5.9,0-8.8,0c-0.4-1.2,0.9-0.6,1.2-1.4
				C198.1,51.9,198.1,42.9,198.1,34z"/>
			<path d="M94.6,33.8c-0.3-0.7-1.4-0.2-1.3-1.1c0.1-0.1,0.2-0.3,0.3-0.3c2.8,0,5.6,0,8.5,0c0.3,1.9,0.4,3.7,0,5.6
				c-1.1-0.1-0.5-1.2-1.1-1.5c-0.8-0.3-1.5-0.4-2.4,0.2c0,2.5,0,5.2,0,7.8c0.7,0.5,1.5,0.2,2.2,0.2c0.8-0.1,0.1-1.4,1.1-1.3
				c0.5,1.7,0.5,5,0,6.6c-0.9,0-0.3-1-1.1-1.3c-0.1,0-0.5,0-0.9,0c-0.4,0-0.8,0-1.4,0c-0.1,3.2,0,6.3,0,9.3c0.8,0.6,1.6,0.2,2.2,0.3
				c0.9-0.1,0.3-1.4,1.4-1.3c0.5,1.7,0.1,3.3,0.1,5.2c-3.1,0-6,0-9,0c-0.1-0.1-0.2-0.3-0.3-0.2c0.5-1,1.1-0.2,1.5-0.9
				C94.6,52.1,94.6,42.9,94.6,33.8z"/>
			<path d="M296,61c0,0.2,0,0.5-0.1,1c-2.3,0.1-4.5,0.1-6.8,0c0-1.2,1.2-0.7,1.5-1.3c0-8,0-16,0-23.9c-0.6-0.7-1.2-0.6-1.8-0.5
				c-0.6,0.4,0,1.3-0.7,1.6c-0.3,0.1-0.5-0.1-0.5-0.3c0-1.7,0-3.3,0-5.1c3.4,0,6.6,0,9.9,0c0.1,1.9,0.2,3.6-0.1,5.4
				c-0.9-0.2-0.7-1.1-1-1.5c-0.6-0.3-1-0.3-1.5-0.1c-0.5,0.4-0.6,20.5-0.2,24.5C295.1,61.2,295.6,61.1,296,61L296,61z"/>
			<path d="M167,61c0,0.2,0,0.5-0.1,0.9c-2.3,0-4.5,0-6.8,0c0-1.1,1.2-0.5,1.5-1.2l-0.2-27c-0.6-0.2-1-0.4-1.5-0.6
				c0.2-0.2,0.4-0.5,0.5-0.5c2.1-0.3,4.2-0.1,6.3-0.1c0.3,1.3-0.9,0.7-1.2,1.4c0,9,0,18,0,27C166.1,61.2,166.6,61.1,167,61L167,61z"
				/>
			<path d="M42.2,62.4c-1.7,2.2-3.7,2.6-6.2,1.5c-1.9,0.8-3.7,0.9-5.5-0.7c2.8-0.5,5.4-0.1,7.9-0.2c1.5-0.5,2.3-1.5,3.1-3.1
				c0-8.3,0-16.9,0-25.6c1.1-0.2,2-0.4,2.8,0.1c0.2,1.2-1,0.7-1.2,1.3c-0.3,0.8-0.2,1.7-0.2,2.6c0,6.7,0,13.4,0,20.1
				C43,59.8,42.8,61.1,42.2,62.4z"/>
			<path d="M193.4,35.7c0-0.3,0.2-0.4,0.6-0.5c1.1,1,1.3,2.3,1.3,3.8c0,3.8,0,7.7,0,11.5c0,2.6-0.1,5.3,0,7.9
				c0.1,2.4-0.6,4.2-2.8,5.4c-3,0.5-6.4,0.4-7.8-0.3c1.2-1.2,1.7-1.3,4.5-0.7c1.4-0.2,2.6-0.7,3.5-1.8c0.6-0.8,1-1.6,1-2.6
				c0-7.3,0-14.5,0-21.8C193.8,36.2,193.8,35.8,193.4,35.7L193.4,35.7z"/>
			<path d="M258.8,35.4c1.5,0.8,1.7,2.1,1.7,3.5c0,6.8,0,13.5,0,20.3c0,1-0.3,1.9-0.6,2.7c-1.1,1.7-2.6,2.3-4.6,2.2
				c-1.7-0.1-3.3,0-4.9,0c-0.5-0.3-0.6-0.7-0.4-1.1c0.1-0.2,0.2-0.2,0.4-0.2c1.1-0.1,2.2-0.3,3.3,0.1c1,0.4,2-0.3,3.2-0.5
				c0.5-0.5,1-1.1,1.4-1.4c0.7-1.8,0.8-3.4,0.8-5c0-5.6,0-11.2,0-16.7C259,37.9,259.1,36.6,258.8,35.4z"/>
			<path d="M89.9,34.3c2.1-0.2,2.1-0.2,3.3,0.7c-0.6,0.3-1.1,0.5-1.7,0.7c-0.4,0.7-0.2,1.5-0.2,2.3c0,5.5,0,11-0.1,16.5
				c0,2.8-0.8,5.5-2.2,7.9c-0.5,0.8-1.2,1.5-1.8,2.1c-0.9,0.1-1.4-0.2-1.7-0.9c3.1-2.9,4.2-6.5,4.3-10.6c0-5.3,0-10.5,0-15.8
				C90,36.2,89.9,35.3,89.9,34.3z"/>
			<path d="M219.5,35.3c1,0.8,1.3,1.9,1.3,3.1c0,3.5,0,7,0,10.5c0,2.8-1,3.9-3.8,4.6c-0.1,0-0.3,0.1-0.4,0.2
				c-0.7,2.2-0.4,4.5-0.6,6.6c-0.4,0.4-0.6,0.3-1.1,0.2c-0.1-2.6,0.1-5.3-0.4-7.6c0.7-0.9,1.2-0.8,1.6-0.9c2.1-0.5,3.1-1.8,3.1-3.9
				c0-3.8,0-7.6,0-11.5C219.3,36.2,219.2,35.7,219.5,35.3z"/>
			<path d="M63.6,60.5c-0.7,0.1-1,0.1-1.3-0.3c0-8.5,0-17.2,0-25.9c1.1-0.3,2-0.4,3.1,0.1c-0.5,1-0.5,1-1.7,1.6
				C63.6,44.1,63.6,52.3,63.6,60.5z"/>
			<path d="M167.1,61.1c-0.1-0.5-0.6-0.4-1-0.8c0-8.7,0-17.4,0-26.2c0.9-0.4,1.8,0.1,2.7-0.1c0.3,0.3,0.2,0.6,0.1,0.9
				c-0.3,0.5-0.9,0.2-1.4,0.8c0,4.3,0,8.9,0,13.4c0,3.4,0,6.9,0,10.3C167.5,60,167.9,60.7,167.1,61.1L167.1,61.1z"/>
			<path d="M11.8,61.6c0-0.7-0.3-1-1-1.1c0-4.1,0-8,0-11.9c0-2.9,0-5.8,0-8.6c0-1.6,0.2-3.1-0.5-4.9c1.4,1,2,2.1,2,3.4
				c0,7.3,0,14.5,0,21.8C12.3,60.8,12.3,61.3,11.8,61.6L11.8,61.6z"/>
			<path d="M246.2,61.6c0.3-0.9-0.8-0.8-1.1-1.5c0-6.1,0-12.3,0-18.6c0-2,0.1-4.1-0.5-6.5c1.8,1.3,2,2.8,2,4.4c0,5.1,0,10.2,0,15.3
				c0,1.8,0,3.7,0,5.5C246.6,60.8,246.7,61.3,246.2,61.6L246.2,61.6z"/>
			<path d="M117.7,60.8c-0.6,0-1-0.1-1.5-0.6c0-0.8,0-1.8,0-2.7c0-6.1,0-12.1,0-18.2c0-1.3-0.2-2.6-0.4-4.1c1.5,0.9,1.8,2.1,1.9,3.4
				C117.7,46,117.7,53.4,117.7,60.8z"/>
			<path d="M77.5,60.7c-0.6-0.1-0.9-0.1-1.3-0.2c-0.2-8.4,0-16.8-0.2-25.4c1.4,0.9,1.5,2.1,1.5,3.4c0,5.3,0,10.5,0,15.8
				C77.5,56.4,77.5,58.4,77.5,60.7z"/>
			<path d="M179.6,36.2c0-0.2,0-0.5,0-0.7c1.5,0.9,1.8,1.3,1.8,3.1c0,2.8,0,5.6,0,8.4c0,4.2,0,8.3,0,12.5c0,0.6,0.3,1.3-0.5,1.7
				l0.1,0c-0.1-0.6-0.9-0.4-1.1-1.1c0-0.4,0-1.1,0-1.7c0-6.6,0-13.2,0-19.8C179.9,37.7,180.3,36.8,179.6,36.2L179.6,36.2z"/>
			<path d="M296,61.1c-0.1-0.5-0.6-0.4-0.9-0.8c0-7.6,0-15.4,0-23.7c0.6,1.1,1,1.6,1.4,2.4c0,6.8,0,13.9,0,20.9
				C296.5,60.3,296.6,60.9,296,61.1L296,61.1z"/>
			<path d="M263.4,63.9c-0.1-0.3-0.1-0.7,0.2-1.2c1.2-0.4,2.5,0,3.8,0.1c1.2,0.1,2.5,0,3.7,0c0.6-1.6,0-3.1,0.5-4.4
				c0.7-0.4,0.9,0.1,1.2,0.3c0,1.7,0,3.4,0,5.1c-1.5,0.9-3.2,0.6-4.7,0.4C266.7,64.1,265.1,64.8,263.4,63.9z"/>
			<path d="M197.9,63.9c0.7-1.5,1.6-1.5,2.5-1.3c1.9,0.4,3.8,0.3,5.7,0.1c0.6-1.3,0-2.6,0.6-4.1c0.1-0.1,0.3-0.4,1-0.3
				c0.4,1.8,0.2,3.7,0.2,5.6C204.5,64.5,201.4,64.5,197.9,63.9z"/>
			<path d="M15.9,64.4c-0.3-0.6-0.4-0.9-0.1-1.3c2.4-0.4,5.1,0.1,7.7-0.2c0.4-1.3,0-2.6,0.3-3.8c0.4-0.5,0.7-0.5,1.2-0.2
				c0.4,1.7,0.1,3.5,0.2,5.5c-1.7,0.3-3.3,0.1-4.8,0.1C18.9,64.4,17.4,64.4,15.9,64.4z"/>
			<path d="M103.5,58.3c1,1.2,1.1,3,0.5,6c-2.9,0-5.8,0-8.7,0c-0.4-0.3-0.7-0.6-0.5-1.2c2.5-0.4,5.1,0,7.9-0.3
				C103,61.4,102.8,59.9,103.5,58.3z"/>
			<path d="M125,38.9c0.2-0.1,0.4-0.2,0.6-0.4c1.9,0.7,4.1,0.9,5.6,2.7c0.1,0.4-0.5,0.6-0.6,1c-1.6,0-2.9-1.1-4.7-0.9
				c-1.4-1.3-3.4-2-5.1-3.6C122.6,37.6,123.7,38.7,125,38.9z"/>
			<path d="M233.3,64.2c-3.2-0.3-6.3,0.1-9.3-0.3c-0.1,0-0.2-0.2-0.4-0.6c1.3-0.9,2.7-0.3,4-0.4c1.3-0.1,2.7,0.2,3.9-0.4
				c0.8-1.4-0.6-3.3,1.5-4.3C233.5,60.2,233.2,62.1,233.3,64.2z"/>
			<path d="M148.9,52.5c-1-1.2-1.9-2.4-2.7-3.4c0.1-0.6,0.6-0.5,0.9-0.7c1,0.3,1.3,1.9,2.7,1.5c0.6,0.6,1,1.5,1.7,1.9
				c0.3-0.1,0.6-0.1,0.9-0.2c0.7,1.3,1.5,2.6,2.2,3.9c-0.1,0.1-0.1,0.1-0.2,0.2c-0.5-0.4-1-0.8-1.4-1.2c-0.2,0.1-0.4,0.2-0.6,0.2
				c-1.1-0.7-1.4-2-2.4-2.6C149.6,52,149.4,52.3,148.9,52.5z"/>
			<path d="M149.5,40.9c-0.1-0.5-0.2-0.8-0.2-1.1c2.4-2.7,5.4-4.1,9-4.7c-0.6,0.9-1.7,0.8-2.1,1.6c0.2,0.1,0.4,0.3,0.7,0.6
				C154.1,38,152.3,40.1,149.5,40.9z"/>
			<path d="M145,36.7c-0.3,0.8-1,0.9-1.6,1.2c-0.6,0.3-1.1,0.5-1.3,1.2c-0.8-0.1-1.4-0.3-1.6-1.2c-0.2-0.6-0.8-0.7-1.3-0.7
				c-0.8,0-1.5-0.3-2.1-0.8c0.7-0.6,1.6-0.7,2.4-1c1,0.5,1.9,0.4,2.9,0.1C143.4,35.4,143.9,36.6,145,36.7z"/>
			<path d="M229.3,57.4c-0.5,0.3-0.8,0.3-1.1,0.1c-0.5-2.4-0.2-4.8-0.2-7.2c0-0.7,0.2-1.2,1.2-1.3C230.3,51.8,229.7,54.6,229.3,57.4
				z"/>
			<path d="M20,57.5c0-2.7,0-5.4,0-8c0.4-0.4,0.7-0.4,1.3-0.2c0.4,2.6,0.1,5.4,0.1,7.9C20.9,57.8,20.6,57.8,20,57.5z"/>
			<path d="M203.9,57.5c-0.6,0.1-0.9,0.2-1.3-0.2c0-2.6,0-5.2,0-8c0.3-0.4,0.6-0.4,1.3-0.1C204.2,51.9,204,54.7,203.9,57.5z"/>
			<path d="M267.7,49.3c0.6-0.2,0.9-0.2,1.3,0.2c0.2,2.5,0.1,5.2,0,7.8c-0.4,0.5-0.7,0.5-1.4,0.2C267.6,54.8,267.6,52.1,267.7,49.3z
				"/>
			<path d="M124.3,56.3c0.9-1.5,1.8-2.9,2.2-4.5c0.8-0.7,1.7-1.4,2.5-2.1c0.8,0,0.7,0.6,0.6,1c-0.3,1.2-2,3.5-3,4.2
				C125.8,55.4,125,55.8,124.3,56.3z"/>
			<path d="M100.3,57.6c-0.3,0-0.5,0.1-0.6,0.1c-0.1,0-0.3-0.1-0.5-0.2c0.4-2.7-0.2-5.6,0.4-8.5C101.1,50.6,101.3,53.8,100.3,57.6z"
				/>
			<path d="M154.9,44.5c-0.4,0.3-0.8,0.7-1.2,1.1c-0.9-0.1-1.8-0.5-2.9,0c-0.7,0.3-1.7,0.1-2.6,0c-0.5,0-0.9-0.4-0.8-1
				C150,43.5,152.5,43.6,154.9,44.5z"/>
			<path d="M23.9,45c0.4-0.3,0.7-0.3,1-0.1c0.3,0.3,0.3,0.7,0.3,1.1c0.1,5.2,0.1,5.2-0.7,6.3C23.6,51.1,23.4,49.5,23.9,45z"/>
			<path d="M271.7,44.8c0.5-0.1,0.8-0.1,1.1,0.3c0,2.1,0,4.3,0,6.6c-0.2,0.3-0.6,0.4-1,0.3C271.4,51.4,271.3,48.1,271.7,44.8z"/>
			<path d="M231.8,45c0.6-0.3,0.9-0.4,1.4,0c0.3,2.1,0.1,4.4,0.1,6.5c-0.4,0.5-0.8,0.4-1.3,0.2C231.6,49.6,231.9,47.3,231.8,45z"/>
			<path d="M207.8,51.7c-0.5,0.3-0.8,0.3-1.3,0c-0.3-2.2-0.1-4.4-0.1-6.6c0.4-0.5,0.8-0.5,1.3-0.2C208,47.1,207.8,49.4,207.8,51.7z"
				/>
			<path d="M21.3,44.1c-0.5,0.2-0.8,0.2-1.2-0.1c0-2.1,0-4.4,0-6.6c0.4-0.4,0.7-0.4,1.3,0C21.5,39.5,21.5,41.8,21.3,44.1z"/>
			<path d="M121.4,47.5c2.8-0.8,4.6-3.2,7.8-2.5C127,46.9,124.8,48.2,121.4,47.5z"/>
			<path d="M267.8,37.2c0.5-0.2,0.8-0.2,1.3,0.1c0.2,2,0.1,4.1,0,6c-0.5,0.6-0.8,0.4-1.3,0.4C267.8,41.6,267.8,39.4,267.8,37.2z"/>
			<path d="M203.9,37.2c0.1,2.2,0.2,4.3,0,6.3c-0.4,0.4-0.7,0.3-1.2,0.2c-0.4-2-0.1-4.2-0.2-6.2C202.9,37,203.3,37,203.9,37.2z"/>
			<path d="M298.9,40.4c-1.1-2.2-0.9-4.1-0.7-6c0.2-0.2,0.4-0.5,0.8-0.5c0.4,0.1,0.7,0.4,0.8,0.8C300,35.8,299.7,38.4,298.9,40.4z"
				/>
			<path d="M298,63.6c-0.3,0.2-0.5,0.4-0.6,0.4c-2.1,0.1-4.3,0.2-6.3,0.3c-0.5-0.5-0.5-1-0.3-1.4c0.1-0.1,0.1-0.2,0.2-0.2
				c1.9,0.2,3.9,0.2,5.8,0C297.2,62.7,297.7,62.8,298,63.6z"/>
			<path d="M287.4,63.7c-2.1,0.9-3.8,0.9-5.6,0.2c-0.1-0.1-0.1-0.3-0.1-0.4c0-0.2,0-0.3,0.1-0.4c0.1-0.1,0.2-0.3,0.3-0.3
				c1.3,0,2.6-0.1,3.9-0.1C286.7,62.6,287.4,62.6,287.4,63.7z"/>
			<path d="M103.5,52c-1-4-0.9-6,0.6-7.3c0.6,1.1,0.3,2.3,0.3,3.5c0.1,1.2,0,2.4,0,3.3C104.1,52,103.8,51.9,103.5,52z"/>
			<path d="M138.5,32c0.3,0,0.6,0.2,0.9,0c0.5-0.1,0.4,0.6,0.8,0.7c0.3,0.1,0.6,0.2,0.6,0.6c0.1,0.6-0.2,0.9-0.6,1.3
				c-1.5,0.1-2.9,0.2-4.5,0.2c-0.1,0.2-0.3,0.4-0.4,0.7c-0.5-0.6-0.5-0.6-0.1-1.5C137.2,34.2,137.3,34.1,138.5,32z"/>
			<path d="M170.4,63.1c2.4-0.4,4.3-0.9,6.3,0.1c-0.4,1.5-1.7,1-2.5,1.1C173.1,64.4,171.7,64.8,170.4,63.1z"/>
			<path d="M228.2,37.1c0.4,0,0.6-0.1,1-0.1c0.9,2.2,0.4,4.4,0.2,6.5c-0.4,0.4-0.7,0.4-1.2,0.1C228.2,41.5,228.2,39.4,228.2,37.1z"
				/>
			<path d="M100.2,36.9c1,2.7,0.8,5,0,7.3c-0.9,0-0.9-0.5-0.9-1C99.1,39.4,99.3,38,100.2,36.9z"/>
			<path d="M207.7,39.8c-0.6,0.1-0.9,0.2-1.3-0.3c0-1.7-0.3-3.7,0.1-5.6c0.6-0.2,0.9,0,1.2,0.4C207.7,36.1,207.7,37.9,207.7,39.8z"
				/>
			<path d="M231.8,34.4c0.4-0.3,0.6-0.6,1-0.5c0.7,0.3,0.8,3.1,0.2,6c-0.9,0.2-1.1-0.4-1.2-1.1c-0.1-0.5-0.1-1-0.1-1.4
				C231.8,36.3,231.8,35.3,231.8,34.4z"/>
			<path d="M280.8,62.6c0.4,0.4,0.5,0.7,0.4,1c0,0.2-0.2,0.4-0.3,0.8c-1.7-0.8-3.8,0.5-5.7-0.9C277.1,62.1,279.1,63,280.8,62.6z"/>
			<path d="M210.9,64.3c-0.4-0.4-0.7-0.6-0.5-1.2c1.9-0.7,4,0,5.9-0.4c0.4-0.1,1.1-0.1,1.5,0.7c-1,1.1-2.3,0.4-3.4,0.5
				C213.2,64.2,212.1,64.2,210.9,64.3z"/>
			<path d="M272.9,39.7c-0.5,0.2-0.8,0.3-1.3-0.1c-0.2-1.8-0.2-3.7,0-5.6c0.6-0.2,0.9,0.1,1.3,0.3C273.1,36.1,273,37.9,272.9,39.7z"
				/>
			<path d="M111.9,62.5c0.1,0.5,0.9,0.3,1,0.9c-0.9,1.2-0.9,1.2-5.4,0.9c-0.4-0.3-0.4-0.6-0.3-1.1C108.7,62.5,110.5,63.4,111.9,62.5
				L111.9,62.5z"/>
			<path d="M25.2,39.7c-0.5,0.3-0.8,0.3-1.3,0c-0.2-1.7-0.2-3.5-0.1-5.2c0.2-0.1,0.3-0.3,0.5-0.3c0.2,0,0.5,0,0.8,0
				C25.4,36.1,25.2,37.9,25.2,39.7z"/>
			<path d="M1.9,64.3C1.7,63.8,1.6,63.5,2,63c1.7,0,3.4,0,5.2,0c0.1,0.1,0.2,0.3,0.2,0.4c0,0.2,0,0.5-0.1,0.8
				C5.6,64.5,3.8,64.4,1.9,64.3z"/>
			<path d="M8,64.2c-0.1-0.4-0.2-0.7,0.1-1.2c1.7,0,3.5,0,5.2,0c0.1,0.2,0.2,0.3,0.3,0.4c0,0.2,0,0.4-0.1,0.8
				C11.7,64.5,9.8,64.5,8,64.2z"/>
			<path d="M119.1,63.1c-0.7,1.4-1.2,1.5-5.5,1.1c-0.3-0.3-0.4-0.6,0-1.2C115.3,62.9,117.2,62.7,119.1,63.1z"/>
			<path d="M161.9,63.9c0-0.4,0-0.6,0-1c2.2-0.1,4.5-0.2,6.5-0.3c0.6,0.3,0.7,0.7,0.4,1.2C166.6,63.9,164.4,63.9,161.9,63.9z"/>
			<path d="M102.9,34.5c0.5-0.3,0.8-0.4,1.3-0.2c0.5,1,0.2,2.1,0.2,3.2c0,0.8,0.5,1.9-0.7,2.6C102.6,38.2,102.9,36.3,102.9,34.5z"/>
			<path d="M72.4,62.9c0.4,0.5,0.4,0.8,0.1,1.2c-1.8,0.1-3.8,0.7-5.6-0.7C68.7,62.6,70.5,63,72.4,62.9z"/>
			<path d="M78.7,64.3c-1.9-0.3-3.9,0.7-5.9-1c2.1-0.7,4-0.3,5.7-0.4C79,63.2,79,63.6,78.7,64.3z"/>
			<path d="M236.2,63.8c-0.3-0.4-0.2-0.7,0.1-1.1c1.3,0.1,2.5,0.4,3.9,0c0.6-0.2,1.2,0.1,1.6,0.7C240.6,64.4,240,64.5,236.2,63.8z"
				/>
			<path d="M58.9,63.5c2.2-0.8,4.7-0.8,6.1,0c-0.2,0.9-1.1,0.7-1.5,0.7C62.1,64,60.6,64.5,58.9,63.5z"/>
			<path d="M58.5,63c0.4,0.4,0.3,0.7,0.2,1.2c-1.8-0.2-3.7,0.1-5.5-0.3c-0.1-0.5,0-0.8,0.4-0.8C55.2,63,56.9,63,58.5,63z"/>
			<path d="M248.4,63.4c-2,1.3-3.7,0.5-5.4,0.7c-0.4,0-0.8-0.1-0.8-0.7C243.8,62.7,246,62.7,248.4,63.4z"/>
		</g>
	</g>
</g>
<g id="Layer_1">
</g>
</svg>
