<?xml version="1.0" encoding="utf-8"?>
<!-- Generator: Adobe Illustrator 18.0.0, SVG Export Plug-In . SVG Version: 6.00 Build 0)  -->
<!DOCTYPE svg PUBLIC "-//W3C//DTD SVG 1.1//EN" "http://www.w3.org/Graphics/SVG/1.1/DTD/svg11.dtd">
<svg version="1.1" xmlns="http://www.w3.org/2000/svg" xmlns:xlink="http://www.w3.org/1999/xlink" x="0px" y="0px"
	 viewBox="0 0 300 100" style="enable-background:new 0 0 300 100;" xml:space="preserve">
<style type="text/css">
	.st0{fill-rule:evenodd;clip-rule:evenodd;}
	.st1{fill-rule:evenodd;clip-rule:evenodd;fill:#C038F9;}
	.st2{fill:none;}
	.st3{fill-rule:evenodd;clip-rule:evenodd;fill:#231F20;}
</style>
<g id="Layer_2">
	<g>
		<g>
			<path d="M94.9,30h-20h-4.4H16.3v50.3c0,3,2.4,5.4,5.4,5.4h19.6h26.9h26.6c3,0,5.4-2.4,5.4-5.4v-8.8v-6.1v-30
				C100.3,32.5,97.9,30,94.9,30z M99.1,80.3c0,2.3-1.9,4.2-4.2,4.2H69.5H40.2H21.8c-2.3,0-4.2-1.9-4.2-4.2v-49h53.1h4.9h19.3
				c2.3,0,4.2,1.9,4.2,4.2v30.8v6.3V80.3z"/>
			<path d="M93.7,32.4H76.2l3.1,5.9l9.8-5.2l1.7,3.3l-10,5.2l11.4,21.7c1.2,2.3,3.1,4.2,6,3.2V36.9C98.3,34.4,96.2,32.4,93.7,32.4z"
				/>
			<path d="M82.3,69.1L70.7,47l-4.9,2.6L64,46.3c6.6-4.3,7.4-8.7,6.8-13.9H18.5v46.4c0,2.5,2,4.6,4.6,4.6h16.3
				c-0.5-0.7-0.9-1.4-1.3-2.2c-5.6-10.7-1.2-23.5,9.4-29.1c4.7-2.4,14.1-5,17.3,1.1c1.5,2.8,0.1,6.1-2.7,7.5c-3.9,2-5.6-0.3-7.9-3
				c-1.9-2.2-4.3-3.4-7.1-2c-5.7,3-2.7,11.6-0.5,15.9c2.5,4.7,6.7,10.1,11.7,11.6h5.8c0.6-0.2,1.3-0.5,2-0.8
				c4.7-2.4,5.9-7.4,6.9-12.2l2.5,0.4c-0.5,4.7-2.1,9-4.9,12.6h23.2c2.5,0,4.6-2,4.6-4.6v-5.6c-0.3,0.2-0.6,0.4-0.9,0.5
				C89.8,77.6,84.4,73.1,82.3,69.1z M32,59.3c-1.3,0.9-2.2,0-2.9-1l-3.2-4.7l-1.1,0.7L24.6,54c0.8-1.2,0.6-2.8,0-3.9l0.5-0.3
				l1.8,2.5l2-1.4l0.3,0.5l-2,1.4l3,4.4c0.5,0.7,1,1.7,1.9,1c0.6-0.4,0.7-1,0.8-1.6l0.4,0.1C33.2,57.6,32.9,58.7,32,59.3z
				 M38.6,54.4L38.3,54c0.9-0.8,0.8-0.9-0.1-2.2l-1.8-2.6c-0.7-1-1.5-1.7-2.4-1c-0.8,0.5-1.1,1.5-1.3,2.3l2.4,3.5
				c0.9,1.4,1,1.4,2.1,0.9l0.3,0.4l-3.2,2.2L34,57.1c0.9-0.8,0.8-0.9-0.1-2.2l-4.6-6.6c-0.9-1.3-1-1.1-2.1-0.4l-0.3-0.4l1.9-2.6
				l3.5,5c0.2-1,0.9-2.3,1.8-2.9c1.5-1.1,2.6-0.2,3.6,1.3l1.8,2.6c0.9,1.4,1,1.4,2.1,0.9l0.3,0.4L38.6,54.4z M45.4,50
				c-2,1.4-4.6,0.8-6-1.2c-1.3-1.8-1.3-4.6,0.7-6c1.8-1.2,4.1-0.6,5.3,1.1l-4.9,3.4c1,1.4,2.9,3.2,4.7,2c1-0.7,1.4-1.8,1.5-3
				l0.4,0.1C47.1,47.8,46.6,49.2,45.4,50z"/>
			<path d="M40.4,43.2c-1.2,0.9-0.9,2.4-0.2,3.4l3.4-2.3C42.9,43.3,41.6,42.4,40.4,43.2z"/>
		</g>
		<g>
			<path d="M113.4,72.3c0,6.1,0,6.4,4.4,7v1.9h-14.4v-1.9c4.4-0.5,4.4-0.9,4.4-7V58.5c-0.2-3.4-0.3-4.6-4.2-4.6v-1.5l9.9-3.8v6.4
				c2.5-3.3,6.4-5.9,10.7-5.9c3.7,0,6.4,2.6,7.7,5.9c3.1-3,6.4-5.9,11-5.9c2.8,0,5.4,1,6.9,3.5c1.4,2.4,1.4,6,1.4,8.9v10.9
				c0,6.1,0,6.4,4.3,7v1.9h-14.4v-1.9c4.4-0.5,4.4-0.9,4.4-7V60.8c0-3.5,0.1-8.4-4.7-8.4c-3.3,0-6.3,2.4-8.4,4.7v15.3
				c0,6.1,0,6.4,4.4,7v1.9h-14.4v-1.9c4.3-0.5,4.3-0.9,4.3-7V60.8c0-3.5-0.1-8.4-4.9-8.4c-3.3,0-6.3,2.4-8.2,4.7V72.3z"/>
			<path d="M172.1,72.3c0,6.1,0,6.4,4.4,7v1.9h-14.4v-1.9c4.4-0.5,4.4-1,4.4-7V58.5c-0.2-3.4-0.3-4.6-4.2-4.6v-1.5l9.9-3.8V72.3z
				 M168.5,41.9c-2.4,0-4.3-1.9-4.3-4.2c0-2.4,1.9-4.3,4.2-4.3c2.4,0,4.3,1.9,4.3,4.3C172.7,39.9,170.8,41.9,168.5,41.9z"/>
			<path d="M191.5,72.3c0,6.1,0,6.4,4.3,7v1.9h-14.2v-1.9c4.2-0.5,4.2-0.9,4.2-7V58.5c-0.2-3.4-0.3-4.6-4.2-4.6v-1.5l9.9-3.8v7.6
				c2.4-3,6.3-7.6,10.6-7.6c2.1,0,4,1.5,4,3.7c0,2-1.4,3.6-3.5,3.6c-2.3,0-3.1-1.7-5.2-1.7c-2.3,0-4.8,3-5.9,4.8V72.3z"/>
			<path d="M215.5,72.3c0,6.1,0,6.4,4.3,7v1.9h-14.2v-1.9c4.2-0.5,4.2-0.9,4.2-7V58.5c-0.2-3.4-0.3-4.6-4.2-4.6v-1.5l9.9-3.8v7.6
				c2.4-3,6.3-7.6,10.6-7.6c2.1,0,4,1.5,4,3.7c0,2-1.4,3.6-3.5,3.6c-2.3,0-3.1-1.7-5.2-1.7c-2.3,0-4.8,3-5.9,4.8V72.3z"/>
			<path d="M228.2,65.9c0-8.4,5.5-17,14.6-17c9,0,14.3,8.8,14.3,16.9c0,8.2-6.1,16-14.7,16C234.2,81.8,228.2,73.9,228.2,65.9z
				 M250.6,64.7c0-4.7-1.5-13.6-7.8-13.6c-6.5,0-8.1,8.5-8.1,13.5c0,4.6,1.5,15.2,7.7,15.2C249.1,79.7,250.6,69.6,250.6,64.7z"/>
			<path d="M269.1,72.3c0,6.1,0,6.4,4.3,7v1.9h-14.2v-1.9c4.2-0.5,4.2-0.9,4.2-7V58.5c-0.2-3.4-0.3-4.6-4.2-4.6v-1.5l9.9-3.8v7.6
				c2.4-3,6.3-7.6,10.6-7.6c2.1,0,4,1.5,4,3.7c0,2-1.4,3.6-3.5,3.6c-2.3,0-3.1-1.7-5.2-1.7c-2.3,0-4.8,3-5.9,4.8V72.3z"/>
		</g>
	</g>
</g>
<g id="Layer_1">
</g>
</svg>
