<?xml version="1.0" encoding="utf-8"?>
<!-- Generator: Adobe Illustrator 18.0.0, SVG Export Plug-In . SVG Version: 6.00 Build 0)  -->
<!DOCTYPE svg PUBLIC "-//W3C//DTD SVG 1.1//EN" "http://www.w3.org/Graphics/SVG/1.1/DTD/svg11.dtd">
<svg version="1.1" xmlns="http://www.w3.org/2000/svg" xmlns:xlink="http://www.w3.org/1999/xlink" x="0px" y="0px"
	 viewBox="0 0 300 100" style="enable-background:new 0 0 300 100;" xml:space="preserve">
<style type="text/css">
	.st0{fill-rule:evenodd;clip-rule:evenodd;}
	.st1{fill-rule:evenodd;clip-rule:evenodd;fill:#C038F9;}
	.st2{fill:none;}
	.st3{fill-rule:evenodd;clip-rule:evenodd;fill:#231F20;}
</style>
<g id="Layer_2">
</g>
<g id="Layer_1">
	<g>
		<path d="M288.5,56.3c0-0.2,0-0.4,0-0.5c0-3.5,0-7.1,0-10.6c0-1.3-0.5-1.8-1.8-1.8c-0.2,0-0.5,0-0.6-0.2c-0.3-0.3,0-0.7,0.4-0.7
			c2,0,4.1,0,6.1,0c0.3,0,0.5,0.1,0.5,0.4c0,0.3-0.2,0.4-0.5,0.5c-1.2,0.1-1.7,0.6-1.7,1.8c0,6,0,12,0,18c0,0.4,0.1,0.8,0.1,1.3
			c0,0.3-0.1,0.5-0.4,0.5c-0.3,0.1-0.5,0.1-0.8-0.2c-1.1-1.4-2.1-2.8-3.3-4.1c-3.3-3.9-6.5-7.7-9.8-11.6c-0.2-0.2-0.4-0.4-0.7-0.7
			c0,0.3-0.1,0.5-0.1,0.6c0,4.4,0,8.8,0,13.2c0,1.1,0.4,1.6,1.5,1.7c0.2,0,0.4,0.1,0.6,0.1c0.3,0,0.5,0.1,0.5,0.4
			c0,0.4-0.3,0.4-0.5,0.4c-1.1,0-2.1,0-3.2,0c-3.4,0-6.9,0-10.3,0c-0.2,0-0.4,0-0.5,0c-0.2-0.1-0.4-0.2-0.4-0.4
			c0-0.2,0.2-0.4,0.3-0.4c1.4-0.3,1.6-0.6,1.1-1.9c-0.4-1-0.8-2-1.1-3c-0.1-0.3-0.3-0.5-0.7-0.5c-2.2,0-4.3,0-6.5,0
			c-0.2,0-0.5,0.1-0.6,0.3c-0.5,1.3-1,2.6-1.5,4c-0.2,0.8-0.1,1,0.7,1.1c0.3,0,0.5,0.1,0.5,0.5c0,0.4-0.3,0.4-0.5,0.4
			c-1.7,0-3.3,0-5,0c-0.3,0-0.5,0-0.5-0.4c0-0.3,0.2-0.4,0.5-0.5c0.9-0.1,1.4-0.7,1.7-1.5c1-2.4,2-4.8,3-7.2c1.5-3.6,3-7.3,4.5-10.9
			c0.2-0.6,0.4-1.1,0.6-1.7c0.1-0.5,0.5-0.5,0.9-0.5c0.2,0,0.4,0.2,0.5,0.3c1.1,2.6,2.1,5.3,3.1,7.9c1.5,3.7,3,7.4,4.5,11.2
			c0.2,0.6,0.5,1.1,0.8,1.6c0.6,0.8,2.2,1.1,3,0.5c0.3-0.2,0.4-0.6,0.5-0.9c0.1-0.3,0.1-0.7,0.1-1.1c0-5.1,0-10.2,0-15.3
			c0-0.3,0-0.6-0.1-1c-0.1-1.3-0.8-1.9-2.1-2c-0.1,0-0.1,0-0.2,0c-0.3,0-0.4-0.2-0.4-0.5c0-0.3,0.2-0.4,0.4-0.4c1.6,0,3.3,0,4.9,0
			c0.3,0,0.6,0.3,0.8,0.5c2.3,2.7,4.6,5.4,6.9,8.1c1.4,1.6,2.7,3.2,4.1,4.8c0.1,0.2,0.3,0.3,0.4,0.5
			C288.4,56.3,288.4,56.3,288.5,56.3z M263,56.3c-1-2.6-1.9-5-2.8-7.5c-0.1,0-0.1,0-0.2,0c-0.9,2.5-1.9,4.9-2.8,7.5
			C259.2,56.3,261,56.3,263,56.3z"/>
		<path d="M42.1,54.1c-1.4,0-2.8,0-4.3,0c-0.4,0-0.6,0.1-0.6,0.6c0,2.5,0,5,0.1,7.5c0,1.1,0.5,1.5,1.5,1.6c0.2,0,0.5,0.2,0.5,0.3
			c0.1,0.3-0.1,0.5-0.6,0.5c-1.7,0-3.3,0-5,0c-0.7,0-1.3,0-2,0c-0.3,0-0.6,0-0.6-0.4c0-0.4,0.2-0.5,0.5-0.5c0.9,0,1.4-0.5,1.5-1.4
			c0-1,0.1-2.1,0.1-3.1c0-4.4,0-8.7,0-13.1c0-0.4,0-0.9-0.1-1.3c-0.1-0.9-0.6-1.4-1.5-1.5c-0.3,0-0.5-0.1-0.5-0.5
			c0-0.4,0.3-0.4,0.6-0.4c2.3,0,4.7,0,7,0c0.3,0,0.6,0,0.6,0.4c0,0.4-0.3,0.5-0.6,0.5c-1,0-1.5,0.5-1.5,1.4c0,2.3,0,4.5-0.1,6.8
			c0,0.4,0.2,0.6,0.6,0.6c2.9,0,5.7,0,8.6,0c0.4,0,0.6-0.2,0.6-0.6c0-2.1,0-4.2,0-6.3c0-1.2-0.4-1.7-1.6-1.9c-0.3,0-0.4-0.2-0.4-0.5
			c0-0.3,0.2-0.4,0.5-0.4c1.4,0,2.8,0,4.2,0c0.9,0,1.8,0,2.8,0c0.3,0,0.6,0,0.6,0.5c0,0.4-0.3,0.4-0.6,0.5c-1,0-1.5,0.6-1.5,1.7
			c0,3,0,5.9,0,8.9c0,2.7,0,5.3,0,8c0,1.4,0.3,1.8,1.7,2c0.1,0,0.3,0.2,0.4,0.4c0.1,0.3-0.2,0.4-0.4,0.4c-1.1,0-2.1,0-3.2,0
			c-1.3,0-2.5,0-3.8,0c-0.3,0-0.6,0-0.6-0.4c0-0.4,0.3-0.4,0.6-0.5c1-0.2,1.2-0.5,1.4-1.4c0-0.2,0-0.4,0-0.6c0-2.3,0-4.5,0-6.8
			c0-0.8,0-0.8-0.8-0.8C44.8,54.1,43.5,54.1,42.1,54.1z"/>
		<path d="M147,56.3c0-0.2,0-0.4,0-0.6c0-3.4,0-6.9,0-10.3c0-1.5-0.5-2-2-2.1c-0.3,0-0.6,0-0.6-0.5c0-0.4,0.3-0.4,0.6-0.4
			c2,0,3.9,0,5.9,0c0.3,0,0.6,0,0.6,0.4c0,0.5-0.3,0.5-0.6,0.5c-0.9,0-1.5,0.5-1.5,1.4c0,6.6,0,13.1,0,19.7c0,0.2-0.2,0.4-0.3,0.5
			c-0.3,0.1-0.6,0.3-0.9-0.1c-1.3-1.7-2.6-3.4-4-5c-3-3.6-6.1-7.2-9.2-10.9c-0.2-0.2-0.3-0.4-0.4-0.6c-0.1,0-0.1,0.1-0.2,0.1
			c0,0.2-0.1,0.4-0.1,0.6c0,4.3,0,8.6,0,12.9c0,1.3,0.4,1.8,1.7,1.9c0.1,0,0.3,0,0.4,0c0.2,0.1,0.4,0.2,0.4,0.4
			c0.1,0.3-0.1,0.4-0.4,0.4c-2.1,0-4.1,0-6.2,0c-0.1,0-0.4-0.2-0.4-0.4c-0.1-0.3,0.1-0.4,0.4-0.4c1.3-0.2,1.6-0.6,1.6-1.8
			c0-5.5,0-11,0-16.5c0-1.2-0.6-1.9-1.6-2.2c-0.2,0-0.5,0-0.7,0c-0.3,0-0.4-0.2-0.4-0.5c0-0.3,0.2-0.4,0.4-0.4c1.6,0,3.3,0,4.9,0
			c0.2,0,0.5,0.2,0.7,0.4c2.4,2.9,4.8,5.7,7.3,8.6c1.3,1.5,2.5,3,3.8,4.5c0.1,0.1,0.2,0.3,0.3,0.5C146.8,56.4,146.9,56.3,147,56.3z"
			/>
		<path d="M158,48.4c0,0.2-0.1,0.4-0.1,0.6c0,4.2,0,8.5,0,12.7c0,0.2,0,0.4,0.1,0.6c0.1,0.8,0.5,1.2,1.3,1.3c0.3,0.1,0.6,0,0.9,0.1
			c0.1,0,0.3,0.2,0.3,0.4c0,0.1-0.2,0.4-0.3,0.4c-2.1,0-4.2,0-6.4,0c-0.1,0-0.3-0.2-0.3-0.4c0-0.2,0.2-0.3,0.3-0.4c0,0,0,0,0,0
			c1.5,0,1.7-1,1.7-2.1c0-5.3,0-10.6,0-15.9c0-0.3,0-0.7-0.1-1c-0.2-1-0.9-1.6-1.9-1.7c-0.1,0-0.2,0-0.3,0c-0.3,0-0.5-0.1-0.5-0.4
			c0-0.3,0.2-0.5,0.5-0.5c1.6,0,3.2,0,4.8,0c0.2,0,0.5,0.2,0.7,0.4c2.5,2.9,5,5.9,7.5,8.8c1.2,1.4,2.4,2.8,3.6,4.3
			c0.1,0.1,0.2,0.3,0.3,0.5c0.1,0,0.1-0.1,0.2-0.1c0-0.2,0-0.3,0-0.5c0-3.6,0-7.1,0-10.7c0-1.2-0.5-1.7-1.8-1.8
			c-0.2,0-0.5,0-0.6-0.1c-0.1-0.1-0.1-0.4-0.1-0.5c0-0.1,0.3-0.3,0.4-0.3c2.1,0,4.1,0,6.2,0c0.3,0,0.4,0.1,0.4,0.4
			c0,0.3-0.1,0.4-0.4,0.5c-1.3,0.1-1.7,0.5-1.7,1.9c0,6,0,12,0,18c0,0.4,0,0.8,0.1,1.1c0,0.3-0.1,0.6-0.5,0.6
			c-0.3,0.1-0.6,0.1-0.8-0.3c-0.6-0.9-1.3-1.8-2-2.6c-3.6-4.3-7.3-8.7-11-13c-0.2-0.2-0.4-0.4-0.6-0.7C158.1,48.4,158,48.4,158,48.4
			z"/>
		<path d="M99.8,50.9c0,3.4,0,6.8,0,10.2c0,0.5,0.1,0.9,0.2,1.4c0.2,0.9,0.8,1.3,1.8,1.3c0.2,0,0.5,0.1,0.6,0.2
			c0.2,0.3,0,0.7-0.4,0.7c-2.9,0-5.9,0-8.8,0c-0.3,0-0.5-0.1-0.5-0.5c0-0.3,0.2-0.4,0.5-0.5c0.3,0,0.7-0.1,1-0.2
			c0.6-0.2,0.9-0.7,1-1.3c0.1-0.4,0.1-0.8,0.1-1.1c0-6.9,0-13.8,0-20.7c0-0.9,0-0.9-0.9-0.9c-1.5,0-3.1,0-4.6,0.1
			c-1.4,0-2.2,0.8-2.7,2c-0.1,0.4-0.2,0.8-0.4,1.1c-0.1,0.3-0.2,0.5-0.5,0.4c-0.3,0-0.5-0.2-0.5-0.6c0-1.2,0.1-2.3,0.1-3.5
			c0-0.7,0-1.3,0.1-2c0-0.6,0.4-0.9,0.9-0.6c0.5,0.3,1,0.3,1.5,0.3c6.1,0,12.2,0,18.3,0c0.5,0,1-0.2,1.5-0.3c0.6-0.2,0.9,0,0.9,0.6
			c0.1,1.8,0.1,3.5,0.2,5.3c0,0.3,0,0.5-0.4,0.6c-0.3,0.1-0.5,0-0.6-0.3c-0.2-0.6-0.3-1.1-0.6-1.6c-0.5-1-1.3-1.5-2.4-1.5
			c-1.7,0-3.3,0-5-0.1c-0.5,0-0.6,0.3-0.6,0.7C99.8,43.8,99.8,47.4,99.8,50.9z"/>
		<path d="M20.8,50.9c0,3.5,0,6.9,0,10.4c0,0.5,0.1,1,0.3,1.4c0.3,0.8,0.9,1.1,1.7,1.1c0.2,0,0.5,0.1,0.6,0.3
			c0.2,0.4-0.1,0.6-0.5,0.6c-1.2,0-2.4,0-3.7,0c-1.7,0-3.3,0-5,0c-0.3,0-0.6,0-0.6-0.5c0-0.3,0.2-0.4,0.5-0.5c1.5-0.1,1.9-0.5,2.1-2
			c0-0.3,0-0.6,0-0.9c0-6.8,0-13.5,0-20.3c0-1,0-1-1-1c-1.5,0-3,0-4.5,0.1c-1.3,0-2.1,0.7-2.6,1.8c-0.2,0.4-0.3,0.9-0.4,1.3
			c-0.1,0.3-0.2,0.5-0.5,0.4c-0.3,0-0.5-0.2-0.5-0.5c0.1-1.3,0.1-2.6,0.1-4c0-0.5,0.1-1,0.1-1.5c0-0.6,0.4-0.9,0.9-0.6
			C8.4,37.1,9,37,9.7,37c6,0,12,0,18,0c0.5,0,1-0.2,1.5-0.3c0.6-0.2,0.9,0,0.9,0.6c0.1,1.8,0.1,3.5,0.2,5.3c0,0.2-0.1,0.5-0.3,0.6
			c-0.3,0.2-0.6,0.1-0.7-0.3c-0.2-0.6-0.4-1.2-0.7-1.8c-0.5-0.8-1.2-1.3-2.2-1.3c-1.7,0-3.3,0-5-0.1c-0.5,0-0.6,0.2-0.6,0.7
			C20.8,43.8,20.8,47.4,20.8,50.9z"/>
		<path d="M178.8,53.4c0-2.7,0-5.4,0-8.1c0-1.2-0.6-1.9-1.8-2c-0.3,0-0.6-0.1-0.6-0.5c0-0.4,0.3-0.4,0.6-0.4c3.9,0,7.9,0,11.8,0
			c0.9,0,1.7,0,2.6,0c0.4,0,0.9-0.1,1.2-0.3c0.6-0.3,0.9-0.1,1,0.6c0.1,1.4,0.1,2.7,0.2,4.1c0,0.1,0,0.3,0,0.4
			c-0.1,0.1-0.2,0.3-0.4,0.3c-0.1,0-0.4-0.1-0.4-0.3c-0.2-0.5-0.3-1-0.5-1.5c-0.4-0.9-1.2-1.4-2.2-1.4c-2.3,0-4.6,0-6.8,0
			c-0.5,0-0.6,0.2-0.6,0.7c0,2.1,0,4.1,0,6.2c0,0.5,0.2,0.7,0.6,0.6c1.7,0,3.4,0,5.1,0c1.2,0,1.8-0.6,1.9-1.8c0-0.3,0-0.6,0.5-0.6
			c0.4,0,0.5,0.3,0.5,0.6c0,2,0,4,0,6c0,0.3,0,0.6-0.4,0.6c-0.4,0-0.5-0.2-0.5-0.6c0-0.2,0-0.4-0.1-0.6c-0.1-1-0.7-1.5-1.7-1.6
			c-1.8,0-3.6,0-5.4,0c-0.3,0-0.5,0.2-0.5,0.5c0,2.6,0,5.1,0,7.7c0,0.3,0.1,0.5,0.4,0.5c2.3,0,4.7,0,7,0c1.1,0,2-0.7,2.6-1.6
			c0.5-0.7,0.8-1.5,1.2-2.2c0.2-0.3,0.3-0.5,0.7-0.4c0.4,0.1,0.3,0.4,0.3,0.6c-0.3,1.9-0.6,3.9-0.9,5.8c-0.1,0.4-0.5,0.6-0.8,0.3
			c-0.6-0.4-1.2-0.4-1.9-0.4c-4.7,0-9.5,0-14.2,0c-0.2,0-0.3,0-0.5,0c-0.3,0-0.5-0.1-0.5-0.4c0-0.3,0.2-0.4,0.4-0.4c0,0,0.1,0,0.1,0
			c1.5-0.1,2.2-0.8,2.2-2.2c0-1.8,0-3.6,0-5.4C178.8,55.3,178.8,54.4,178.8,53.4z"/>
		<path d="M57.4,53.4c0-2.7,0-5.4,0-8.1c0-1.3-0.5-1.9-1.8-2.1c-0.4,0-0.6-0.1-0.6-0.5c0-0.4,0.3-0.4,0.6-0.4c4.7,0,9.3,0,14,0
			c0.6,0,1.2,0,1.7-0.3c0.5-0.3,0.8-0.1,0.8,0.5c0.1,1.5,0.1,2.9,0.2,4.4c0,0.3,0.1,0.5-0.3,0.6c-0.4,0.1-0.5-0.1-0.6-0.4
			c-0.1-0.5-0.3-1-0.6-1.4c-0.4-0.8-1.1-1.2-2-1.2c-2.4,0-4.7,0-7.1,0c-0.4,0-0.5,0.1-0.5,0.5c0,2.2,0,4.4,0,6.5
			c0,0.3,0.2,0.5,0.5,0.5c1.8,0,3.6,0,5.4,0c1.1,0,1.6-0.7,1.7-1.7c0-0.2,0.1-0.5,0.2-0.6c0.3-0.2,0.7,0,0.7,0.4c0,2.1,0,4.2,0,6.3
			c0,0.3-0.1,0.5-0.5,0.5c-0.3,0-0.5-0.2-0.4-0.5c0-0.1,0-0.2,0-0.4c-0.1-1.3-0.7-2-2.1-2c-1.6,0-3.2,0-4.8,0
			c-0.5,0-0.7,0.2-0.7,0.7c0,2.5,0,4.9,0,7.4c0,0.5,0.2,0.7,0.7,0.7c2.1,0,4.2,0,6.3,0c1.1,0,2.1-0.4,2.8-1.4c0.6-0.8,1-1.7,1.5-2.6
			c0.2-0.3,0.3-0.5,0.7-0.4c0.4,0.1,0.3,0.4,0.3,0.6c-0.3,1.9-0.6,3.7-0.9,5.6c-0.1,0.7-0.4,0.7-1,0.5c-0.5-0.2-1-0.3-1.5-0.3
			c-4.8,0-9.6,0-14.5,0c-0.2,0-0.4,0-0.5,0c-0.2-0.1-0.4-0.3-0.4-0.4c0-0.2,0.2-0.3,0.4-0.4c0,0,0.2,0,0.2,0
			c1.4-0.1,2.1-0.8,2.1-2.1c0-1.9,0-3.8,0-5.8C57.4,55.1,57.4,54.3,57.4,53.4z"/>
		<path d="M238.9,64.7c-2.5,0-4.9,0-7.4,0c-0.2,0-0.4,0-0.5,0c-0.1-0.1-0.2-0.2-0.2-0.4c0-0.1,0.1-0.3,0.2-0.4c0,0,0.1,0,0.2,0
			c1.7,0.1,2.3-1,2.3-2.5c0-5.3,0-10.7,0-16c0-1.2-0.5-1.9-1.7-2c-0.3,0-0.6-0.1-0.6-0.5c0-0.4,0.3-0.4,0.6-0.4c4.4,0,8.9,0,13.3,0
			c0.4,0,0.7,0,1.1,0c0.4,0,0.7-0.1,1-0.3c0.7-0.3,1-0.2,1,0.6c0.1,1.5,0.2,3,0.2,4.5c0,0.1-0.2,0.4-0.3,0.4c-0.2,0-0.5-0.1-0.5-0.2
			c-0.2-0.4-0.3-1-0.5-1.4c-0.4-0.9-1.2-1.4-2.2-1.4c-2.3,0-4.6,0-6.9,0c-0.4,0-0.6,0.2-0.6,0.6c0,2.1,0,4.3,0,6.4
			c0,0.4,0.2,0.6,0.6,0.6c1.7,0,3.5,0,5.2,0c1.2,0,1.8-0.6,1.8-1.8c0-0.3,0-0.6,0.5-0.6c0.5,0,0.5,0.3,0.5,0.6c0,2,0,4,0,6
			c0,0.3,0,0.6-0.5,0.6c-0.4,0-0.5-0.3-0.5-0.6c0-0.3-0.1-0.7-0.1-1c-0.2-0.7-0.8-1.2-1.7-1.2c-1.8,0-3.5,0-5.3,0
			c-0.5,0-0.5,0.3-0.5,0.6c0,1.5,0,3,0,4.5c0,1,0,1.9,0,2.9c0,0.5,0.2,0.6,0.7,0.6c2.1,0,4.2,0,6.3,0c1.2,0,2.2-0.4,2.8-1.4
			c0.5-0.8,1-1.7,1.4-2.5c0.2-0.3,0.3-0.5,0.7-0.4c0.4,0.1,0.3,0.4,0.3,0.6c-0.3,1.9-0.6,3.8-0.9,5.7c-0.1,0.6-0.4,0.7-0.9,0.5
			c-0.5-0.2-1-0.4-1.5-0.4C243.8,64.7,241.4,64.7,238.9,64.7z"/>
		<path d="M118.4,42.4c2.3,0,4.7,0,7,0c0.4,0,0.9-0.1,1.3-0.3c0.6-0.2,0.9-0.1,1,0.5c0.1,0.9,0.1,1.8,0.2,2.7c0,0.6,0.1,1.2,0.1,1.8
			c0,0.3,0,0.5-0.4,0.5c-0.3,0-0.5,0-0.6-0.3c-0.1-0.5-0.3-1-0.5-1.5c-0.4-0.9-1.2-1.3-2.1-1.3c-2.3,0-4.6,0-6.9,0
			c-0.4,0-0.6,0.1-0.6,0.6c0,2.1,0,4.3,0,6.4c0,0.4,0.1,0.6,0.5,0.6c1.8,0,3.5,0,5.3,0c1,0,1.6-0.6,1.7-1.6c0-0.1,0-0.3,0.1-0.4
			c0.1-0.2,0.3-0.3,0.5-0.4c0.1,0.2,0.3,0.3,0.4,0.5c0,0,0,0.1,0,0.1c0,2,0,4,0,6c0,0.3,0,0.6-0.4,0.6c-0.3,0-0.5-0.1-0.5-0.4
			c0-0.2,0-0.4,0-0.6c-0.1-1.1-0.7-1.8-1.9-1.8c-1.7,0-3.4,0-5.1,0c-0.4,0-0.5,0.1-0.5,0.5c0,2.5,0,5.1,0,7.6c0,0.4,0.1,0.5,0.5,0.5
			c2.2,0,4.4,0,6.5,0c1.1,0,2-0.5,2.6-1.4c0.5-0.8,1-1.7,1.4-2.5c0.2-0.3,0.2-0.5,0.7-0.4c0.4,0.1,0.3,0.4,0.3,0.7
			c-0.3,1.9-0.6,3.7-0.8,5.6c-0.1,0.6-0.5,0.8-0.9,0.5c-0.5-0.3-1.1-0.4-1.7-0.4c-4.8,0-9.6,0-14.5,0c-0.2,0-0.4,0-0.5,0
			c-0.2-0.1-0.4-0.3-0.4-0.4c0-0.1,0.2-0.3,0.4-0.4c0.1-0.1,0.3,0,0.4,0c1.1-0.1,1.7-0.7,1.8-1.8c0-0.4,0.1-0.9,0.1-1.3
			c0-4.9,0-9.8,0-14.7c0-0.3,0-0.6,0-0.9c-0.1-1.3-0.6-1.7-1.9-1.9c-0.2,0-0.4-0.2-0.5-0.3c-0.1-0.3,0-0.6,0.4-0.6
			c0.7,0,1.4,0,2.1,0C114.8,42.4,116.6,42.4,118.4,42.4z"/>
		<path d="M204.7,65.2c-1.4-0.2-2.8-0.5-4.1-0.7c-0.4-0.1-0.7-0.2-1.1-0.2c-0.5-0.1-1,0-1.4,0.4c-0.4,0.4-0.9,0.2-1-0.3
			c-0.3-1.8-0.6-3.7-0.9-5.5c-0.1-0.3,0-0.5,0.3-0.6c0.3-0.1,0.5,0,0.7,0.4c0.4,1.2,1.1,2.2,2,3c1.2,1,2.6,1.4,4.1,1.5
			c0.9,0,1.8,0,2.6-0.2c1.3-0.3,2.3-1.1,2.6-2.4c0.3-1.4-0.1-2.6-1.2-3.6c-0.6-0.5-1.2-0.9-1.9-1.2c-1.5-0.8-3.1-1.5-4.7-2.3
			c-0.9-0.5-1.7-1-2.5-1.7c-2.4-2.1-2.5-6.6,1-8.6c1.6-0.9,3.3-1.2,5.1-1.1c1.4,0.1,2.7,0.4,4.1,0.8c0.7,0.2,1.3,0.2,1.8-0.4
			c0.1-0.1,0.4-0.2,0.6-0.1c0.1,0,0.2,0.3,0.3,0.4c0.1,1.7,0.2,3.4,0.2,5.1c0,0.2-0.2,0.4-0.3,0.5c-0.2-0.1-0.4-0.2-0.5-0.4
			c-0.2-0.3-0.3-0.7-0.5-1c-0.9-1.8-2.5-2.8-4.4-2.9c-1-0.1-2-0.1-3,0.1c-1.1,0.2-1.8,0.8-2.1,1.9c-0.2,1.1,0.1,2.1,1,2.8
			c0.5,0.4,1.1,0.7,1.6,1c1.6,0.8,3.2,1.6,4.9,2.4c1.2,0.6,2.2,1.4,3.1,2.4c2.3,2.7,2.1,8-2.7,9.8c-1.2,0.5-2.4,0.7-3.7,0.6
			C204.7,65.1,204.7,65.2,204.7,65.2z"/>
		<path d="M222.5,65.1c-1.7,0.1-3.3-0.3-4.9-0.7c-0.6-0.1-1.2-0.2-1.7,0.4c-0.4,0.4-0.8,0.1-0.9-0.4c-0.3-1.6-0.6-3.2-0.8-4.8
			c0-0.2-0.1-0.4-0.1-0.6c-0.1-0.3-0.1-0.5,0.3-0.6c0.3-0.1,0.5,0,0.7,0.3c0.2,0.5,0.4,1.1,0.7,1.5c1.2,2,3.1,2.8,5.4,3
			c0.9,0.1,1.8,0,2.7-0.2c2.7-0.7,3.5-3.8,1.5-5.8c-0.6-0.6-1.3-1-2-1.4c-1.5-0.8-3.1-1.5-4.7-2.3c-1-0.5-1.9-1.1-2.7-1.9
			c-2-1.9-2.4-6.1,0.8-8.2c1.6-1.1,3.4-1.4,5.3-1.3c1.4,0.1,2.8,0.4,4.1,0.8c0.7,0.2,1.3,0.2,1.8-0.4c0.1-0.1,0.4-0.2,0.6-0.1
			c0.1,0,0.2,0.3,0.2,0.4c0.1,1.7,0.2,3.3,0.2,5c0,0.3,0.1,0.6-0.3,0.7c-0.4,0.1-0.5-0.2-0.6-0.5c-1.2-3.3-3.7-4.1-7-3.9
			c-0.4,0-0.8,0.1-1.2,0.3c-2,0.7-2.4,3.1-0.9,4.5c0.5,0.5,1.1,0.8,1.7,1.1c1.4,0.7,2.9,1.4,4.3,2.1c1.2,0.6,2.4,1.3,3.3,2.2
			c3.1,3,2.5,8.5-2.2,10.3C225.1,64.9,223.8,65.1,222.5,65.1z"/>
	</g>
</g>
</svg>
