<?xml version="1.0" encoding="utf-8"?>
<!-- Generator: Adobe Illustrator 18.0.0, SVG Export Plug-In . SVG Version: 6.00 Build 0)  -->
<!DOCTYPE svg PUBLIC "-//W3C//DTD SVG 1.1//EN" "http://www.w3.org/Graphics/SVG/1.1/DTD/svg11.dtd">
<svg version="1.1" xmlns="http://www.w3.org/2000/svg" xmlns:xlink="http://www.w3.org/1999/xlink" x="0px" y="0px"
	 viewBox="0 0 300 100" style="enable-background:new 0 0 300 100;" xml:space="preserve">
<style type="text/css">
	.st0{fill-rule:evenodd;clip-rule:evenodd;}
	.st1{fill-rule:evenodd;clip-rule:evenodd;fill:#C038F9;}
	.st2{fill:none;}
	.st3{fill-rule:evenodd;clip-rule:evenodd;fill:#231F20;}
</style>
<g id="Layer_2">
	<g>
		<g>
			<g id="ejakwA.tif">
				<g>
					<path d="M58.8,66.8c0.1-0.7,0.4-1.3,0.4-2c0.1-4.8,0.1-9.6,0.2-14.4c0-2,0.3-4,0.4-6c1.8,0,3.4,0,5.3,0
						c2.1,6.1,4.2,12.3,6.5,18.8c2.3-6.5,4.4-12.7,6.5-18.9c1.8,0,3.5,0,5.3,0c0.1,0.6,0.2,1.1,0.3,1.6c0.1,0.5,0,1,0,1.4
						c0.2,8.6,0.4,17.2,0.6,25.7c0,0.9,0,1.7,0,2.7c-1.8,0-3.4,0-5.2,0c0-6.4,0-12.8,0-19.2c-2.2,4-3.2,8.3-5,12.5c-1.6,0-3.2,0-5,0
						c-1.5-4.2-3-8.4-4.5-12.7c-0.1,0-0.2,0-0.4,0.1c0,6.4,0,12.8,0,19.4c-1.9,0.1-3.6,0.1-5.4,0.1C58.8,72.9,58.8,69.9,58.8,66.8z"
						/>
					<path d="M256.8,76.5c-0.2-0.1-0.3-0.4-0.5-0.4c-3.6-1.1-5.1-3.7-5.3-7.2c-0.2-2.9-0.1-5.8-0.1-8.7c0-2.8,0-5.6,0-8.4
						c0-1.9,0.5-3.8,1.8-5.3c1.6-1.9,3.9-2.5,6.2-2.7c2.5-0.2,4.9,0.2,7.5,1.1c-0.2,1.3-0.4,2.6-0.7,4.2c-0.8-0.1-1.4-0.1-2.1-0.2
						c-1.3-0.1-2.5-0.3-3.8-0.3c-2.2,0.1-3.3,1.3-3.6,3.5c0,0.2,0,0.5,0,0.7c0,4.9,0,9.8,0,14.7c0,1.8,0.6,3.3,2.8,4.3
						c1.9-0.1,4.1-0.3,6.6-0.4c0.2,1.2,0.5,2.5,0.8,4c-1,0.4-2,0.8-3,1.2C261.3,76.5,259.1,76.5,256.8,76.5z"/>
					<path d="M109.8,44.3c3.9,0,7.4-0.1,10.9,0c1.2,0,2.5,0.4,3.7,0.9c1.9,0.7,2.9,2.3,3.2,4.2c0.5,3,0.6,6,0.1,9.1
						c-0.3,1.5-1,2.7-2.1,3.7c-0.5,0.5-1.1,0.8-1.7,1.3c1.9,4.1,3.7,8.2,5.7,12.5c-2.1,0.1-4,0-6.1,0.1c-1.8-4-3.5-7.9-5.2-11.9
						c-0.9,0-1.8,0-2.9,0c0,1.9,0,3.9,0,5.9c0,1.9,0,3.8,0,5.9c-1.8,0-3.4,0-5.3,0C109.8,65.4,109.9,55,109.8,44.3z M115.3,59.1
						c2.2,0,4.1,0,5.7,0c1.1-0.7,1.4-1.4,1.4-2.4c0-2,0-4,0-5.8c-1.7-2-3.6-2.4-7.1-1.5C115.3,52.6,115.3,55.7,115.3,59.1z"/>
					<path d="M107.3,76c-2,0-3.6,0-5.5,0c-0.5-2.2-1-4.4-1.5-6.7c-2.3,0-4.5,0-6.7,0c-1.1,2-0.7,4.5-1.7,6.7c-1.7,0-3.3,0-5.3,0
						c0.9-5.4,2.4-10.6,3.5-15.9c1.1-5.2,2.4-10.4,3.7-15.7c2,0,3.9,0,6.1,0C102.4,54.8,104.8,65.3,107.3,76z M96.9,51.2
						c-0.9,4.3-2,8.6-2.5,13c1.8,0,3.2,0,5,0C98.9,59.7,97.8,55.5,96.9,51.2z"/>
					<path d="M236,44.4c2,0,3.9,0,6.1,0c2.4,10.5,4.9,21,7.4,31.5c-1.9,0-3.6,0-5.5,0c-0.5-2.2-1-4.4-1.5-6.7c-2.3,0-4.5,0-6.9,0
						c-0.5,2.2-0.9,4.4-1.4,6.7c-1.8,0-3.5,0-5.4,0c1-5.5,2.4-10.7,3.5-15.9C233.4,54.8,234.8,49.6,236,44.4z M239.3,50.7
						c-1.1,2.4-1.2,4.6-1.6,6.7c-0.4,2.2-1.2,4.4-1,6.7c1.7,0,3.2,0,4.8,0C241.1,59.7,239.9,55.5,239.3,50.7z"/>
					<path d="M197.6,64c0,4.1,0,7.9,0,11.9c-1.8,0.3-3.4,0.1-5.1,0.1c-0.4-1.8-0.6-26.7-0.2-31.6c0.7,0,1.5-0.1,2.3-0.1
						c2.3,0,4.6-0.1,7,0c1.2,0,2.4,0.2,3.5,0.5c2.6,0.7,4.1,2.4,4.5,5.1c0.4,2.6,0.5,5.2,0.1,7.9c-0.6,3.7-3,6-6.7,6.3
						C201.3,64,199.6,64,197.6,64z M202.9,59.1c1-0.6,1.5-1.3,1.5-2.3c0-2.1,0-4.2,0-6.1c-1.8-2.7-4.3-1.5-6.6-1.7c0,3.4,0,6.7,0,10
						C199.5,59.1,201.1,59.1,202.9,59.1z"/>
					<path d="M169.1,57.5c0,1.7,0,3.2,0,4.7c-2.9,0.4-5.9,0-8.9,0.2c0,2.8,0,5.6,0,8.6c3.2,0,6.5,0,9.8,0c0,1.7,0,3.1,0,4.6
						c0,0-0.1,0.1-0.1,0.1c-0.1,0-0.1,0.1-0.2,0.1c-4.9,0-9.8,0-14.7,0c-0.4-1.7-0.6-26-0.2-31.4c1.7-0.4,11.3-0.5,15.2-0.2
						c0,1.5,0,2.9,0,4.7c-1.6,0-3.2,0-4.8,0c-1.6,0-3.2,0-4.9,0c-0.5,1.4-0.2,2.9-0.2,4.3c-0.1,1.3,0,2.7,0,4.2
						C163.1,57.5,165.9,57.5,169.1,57.5z"/>
					<path d="M275.8,49.1c0,3,0,5.7,0,8.5c3,0,5.8,0,8.8,0c0.5,1.6,0.1,3.1,0.3,4.8c-3.1,0-6.1,0-9.1,0c0,3,0,5.8,0,8.7
						c3.2,0,6.4,0,9.7,0c0.5,1.6,0.2,3.1,0.2,4.6c-1.9,0.4-10.4,0.5-15.1,0.2c-0.4-1.7-0.5-27.7-0.2-31.4c1.8-0.3,12.1-0.4,15.2-0.1
						c0,1.5,0,2.9,0,4.6c-1.7,0-3.2,0-4.8,0C279.2,49.1,277.6,49.1,275.8,49.1z"/>
					<path d="M177.9,75.6c0-8.7,0-17.5,0-26.4c-1,0-2,0-2.9-0.1c-0.9,0-1.8,0-2.7,0c-0.4-1.6-0.2-3-0.1-4.5c1.9-0.4,14-0.4,17.2-0.1
						c0,1.5,0,2.9,0,4.6c-1.9,0-3.7,0-5.7,0c0,9,0,17.8,0,26.6C181.5,76.2,179.5,76.1,177.9,75.6z"/>
					<path d="M213,75.9c0-10.6,0-21,0-31.6c0.9,0,1.8,0,2.7,0c0.8,0,1.6,0,2.2,0c0.3,0.2,0.3,0.3,0.4,0.3c0,0.1,0.1,0.2,0.1,0.2
						c0,8.7,0,17.3,0,26.2c2.9,0.3,5.7,0,8.6,0.2c0,1.6,0,3,0,4.7C222.3,75.9,217.8,75.9,213,75.9z"/>
					<path d="M151.6,75.9c-2.1,0-4,0-6.2,0c-2.3-5.3-4.7-10.7-7.1-16.1c2.3-5.1,4.6-10.2,6.9-15.3c2-0.4,4-0.1,6.2-0.2
						c-2.5,5.4-4.9,10.5-7.3,15.6C146.6,65.1,149.1,70.4,151.6,75.9z"/>
					<path d="M137.8,75.9c-1.8,0-3.3,0-4.9,0c-0.5-1.7-0.7-24.7-0.2-31.4c0.8-0.5,1.7-0.2,2.5-0.3c0.8-0.1,1.6,0,2.4,0
						C138,46.1,138.2,67.8,137.8,75.9z"/>
				</g>
			</g>
			<polygon points="22.6,54.3 53.9,21.5 53.9,75.1 0,75.1 0,32.4 			"/>
		</g>
		<g>
			<path d="M294.8,44.4c0.8,0,1.5,0.2,2.3,0.6c0.7,0.4,1.3,1,1.7,1.7c0.4,0.7,0.6,1.5,0.6,2.3c0,0.8-0.2,1.6-0.6,2.3
				c-0.4,0.7-1,1.3-1.7,1.7c-0.7,0.4-1.5,0.6-2.3,0.6s-1.6-0.2-2.3-0.6c-0.7-0.4-1.3-1-1.7-1.7c-0.4-0.7-0.6-1.5-0.6-2.3
				c0-0.8,0.2-1.6,0.6-2.3c0.4-0.7,1-1.3,1.7-1.7C293.3,44.6,294.1,44.4,294.8,44.4z M294.8,45.1c-0.6,0-1.3,0.2-1.9,0.5
				c-0.6,0.3-1.1,0.8-1.4,1.4c-0.3,0.6-0.5,1.3-0.5,1.9c0,0.7,0.2,1.3,0.5,1.9c0.3,0.6,0.8,1.1,1.4,1.4s1.2,0.5,1.9,0.5
				c0.7,0,1.3-0.2,1.9-0.5c0.6-0.3,1.1-0.8,1.4-1.4c0.3-0.6,0.5-1.2,0.5-1.9c0-0.7-0.2-1.3-0.5-1.9c-0.3-0.6-0.8-1.1-1.4-1.4
				C296.1,45.3,295.5,45.1,294.8,45.1z M292.8,51.5v-4.9h1.7c0.6,0,1,0,1.3,0.1c0.3,0.1,0.5,0.3,0.6,0.5c0.2,0.2,0.2,0.5,0.2,0.7
				c0,0.4-0.1,0.7-0.4,0.9c-0.3,0.3-0.6,0.4-1,0.5c0.2,0.1,0.3,0.2,0.4,0.3c0.2,0.2,0.4,0.5,0.7,1l0.6,1h-1l-0.4-0.8
				c-0.3-0.6-0.6-1-0.8-1.2c-0.1-0.1-0.4-0.2-0.6-0.2h-0.5v2.1H292.8z M293.6,48.7h1c0.5,0,0.8-0.1,0.9-0.2c0.2-0.1,0.3-0.3,0.3-0.5
				c0-0.1,0-0.3-0.1-0.4c-0.1-0.1-0.2-0.2-0.3-0.3c-0.1-0.1-0.4-0.1-0.8-0.1h-0.9V48.7z"/>
		</g>
	</g>
</g>
<g id="Layer_1">
</g>
</svg>
