<?xml version="1.0" encoding="utf-8"?>
<!-- Generator: Adobe Illustrator 18.0.0, SVG Export Plug-In . SVG Version: 6.00 Build 0)  -->
<!DOCTYPE svg PUBLIC "-//W3C//DTD SVG 1.1//EN" "http://www.w3.org/Graphics/SVG/1.1/DTD/svg11.dtd">
<svg version="1.1" xmlns="http://www.w3.org/2000/svg" xmlns:xlink="http://www.w3.org/1999/xlink" x="0px" y="0px"
	 viewBox="0 0 300 100" style="enable-background:new 0 0 300 100;" xml:space="preserve">
<style type="text/css">
	.st0{fill-rule:evenodd;clip-rule:evenodd;}
	.st1{fill-rule:evenodd;clip-rule:evenodd;fill:#C038F9;}
	.st2{fill:none;}
	.st3{fill-rule:evenodd;clip-rule:evenodd;fill:#231F20;}
</style>
<g id="Layer_2">
	<g>
		<path d="M13.7,54.2c0,2.4,0,2.7,1.3,2.8l0.7,0.1c0.1,0.1,0.1,0.5,0,0.6c-1.3,0-2-0.1-2.9-0.1c-0.9,0-1.7,0-3.1,0.1
			c-0.1-0.1-0.2-0.4,0-0.6l0.8-0.1c1.3-0.1,1.4-0.4,1.4-2.8V44.2c0-0.7,0-0.7-0.7-0.7H10c-1,0-2.2,0-2.8,0.6c-0.5,0.5-0.8,1-1,1.6
			c-0.2,0.1-0.5,0-0.6-0.2c0.4-1,0.7-2.5,0.9-3.3c0.1,0,0.4-0.1,0.4,0c0.1,0.7,0.9,0.7,1.9,0.7h9.1c1.2,0,1.4,0,1.8-0.6
			c0.1,0,0.4,0,0.4,0.1c-0.2,0.9-0.4,2.7-0.3,3.4c-0.1,0.2-0.5,0.2-0.6,0c-0.1-0.6-0.2-1.4-0.6-1.6c-0.5-0.4-1.4-0.6-2.6-0.6h-1.6
			c-0.7,0-0.7,0-0.7,0.8V54.2z"/>
		<path d="M27.5,50.3c-1.1,0-1.1,0-1.1,0.7v3.2c0,2.4,0.1,2.7,1.4,2.8l0.7,0.1c0.1,0.1,0.1,0.5,0,0.6c-1.2,0-2-0.1-2.9-0.1
			c-1,0-1.7,0-2.6,0.1c-0.1-0.1-0.2-0.4,0-0.6l0.4-0.1c1.3-0.2,1.3-0.4,1.3-2.8v-8.1c0-2.4-0.2-2.7-1.3-2.8l-0.6,0
			c-0.1-0.1-0.1-0.5,0-0.6c1.1,0,1.9,0.1,2.8,0.1c0.9,0,1.6,0,2.6-0.1c0.1,0.1,0.2,0.5,0,0.6l-0.4,0c-1.3,0.1-1.3,0.5-1.3,2.8v2.6
			c0,0.7,0,0.7,1.1,0.7h6.4c1.1,0,1.1,0,1.1-0.7v-2.6c0-2.4,0-2.7-1.4-2.8l-0.4,0c-0.1-0.1-0.1-0.5,0-0.6c1,0,1.8,0.1,2.7,0.1
			c0.9,0,1.6,0,2.7-0.1c0.1,0.1,0.2,0.5,0,0.6l-0.5,0c-1.3,0.1-1.3,0.5-1.3,2.8v8.1c0,2.4,0,2.7,1.3,2.8l0.5,0.1
			c0.1,0.1,0.1,0.5,0,0.6c-1.1,0-1.8-0.1-2.7-0.1c-0.9,0-1.7,0-2.7,0.1c-0.1-0.1-0.2-0.4,0-0.6l0.4-0.1c1.4-0.2,1.4-0.4,1.4-2.8
			v-3.2c0-0.7,0-0.7-1.1-0.7H27.5z"/>
		<path d="M44,46.1c0-2.3,0-2.7-1.4-2.8l-0.4,0c-0.1-0.1-0.1-0.5,0-0.6c1,0,1.7,0.1,2.7,0.1h4.2c1.4,0,2.8,0,3-0.1
			c0.1,0.4,0.3,2,0.4,3c-0.1,0.1-0.4,0.2-0.6,0c-0.3-1.1-0.5-1.8-1.7-2.1c-0.5-0.1-1.2-0.1-2.2-0.1h-1.6c-0.7,0-0.7,0-0.7,0.9v4.5
			c0,0.6,0.1,0.6,0.7,0.6h1.3c0.9,0,1.6,0,1.9-0.1c0.3-0.1,0.4-0.2,0.5-0.8l0.2-0.9c0.1-0.1,0.5-0.1,0.6,0c0,0.5-0.1,1.4-0.1,2.3
			c0,0.8,0.1,1.7,0.1,2.2c-0.1,0.2-0.5,0.2-0.6,0l-0.2-0.9c-0.1-0.4-0.2-0.7-0.7-0.9c-0.3-0.1-0.9-0.1-1.7-0.1h-1.3
			c-0.7,0-0.7,0-0.7,0.6v3.2c0,1.2,0.1,2,0.4,2.3c0.3,0.3,0.7,0.5,2.7,0.5c1.7,0,2.4-0.1,2.9-0.3c0.4-0.2,1-1,1.6-2.2
			c0.2-0.1,0.5,0,0.6,0.2c-0.2,0.8-0.7,2.5-1,3.1c-2,0-4-0.1-6-0.1h-2c-1,0-1.7,0-3.1,0.1c-0.1-0.1-0.2-0.4,0-0.6l0.7-0.1
			c1.3-0.1,1.4-0.4,1.4-2.8V46.1z"/>
		<path d="M70.9,50.3c-1.1,0-1.1,0-1.1,0.7v3.2c0,2.4,0.1,2.7,1.4,2.8l0.7,0.1c0.1,0.1,0.1,0.5,0,0.6c-1.2,0-2-0.1-2.9-0.1
			c-1,0-1.7,0-2.6,0.1c-0.1-0.1-0.2-0.4,0-0.6l0.4-0.1c1.3-0.2,1.3-0.4,1.3-2.8v-8.1c0-2.4-0.2-2.7-1.3-2.8l-0.6,0
			c-0.1-0.1-0.1-0.5,0-0.6c1.1,0,1.9,0.1,2.8,0.1c0.9,0,1.6,0,2.6-0.1c0.1,0.1,0.2,0.5,0,0.6l-0.4,0c-1.3,0.1-1.3,0.5-1.3,2.8v2.6
			c0,0.7,0,0.7,1.1,0.7h6.4c1.1,0,1.1,0,1.1-0.7v-2.6c0-2.4,0-2.7-1.4-2.8l-0.4,0c-0.1-0.1-0.1-0.5,0-0.6c1,0,1.8,0.1,2.7,0.1
			c0.9,0,1.6,0,2.7-0.1c0.1,0.1,0.2,0.5,0,0.6l-0.5,0c-1.3,0.1-1.3,0.5-1.3,2.8v8.1c0,2.4,0,2.7,1.3,2.8l0.5,0.1
			c0.1,0.1,0.1,0.5,0,0.6c-1.1,0-1.8-0.1-2.7-0.1c-0.9,0-1.7,0-2.7,0.1c-0.1-0.1-0.2-0.4,0-0.6l0.4-0.1c1.4-0.2,1.4-0.4,1.4-2.8
			v-3.2c0-0.7,0-0.7-1.1-0.7H70.9z"/>
		<path d="M98.1,48.4c0-1.4,0-4-0.4-4.7c-0.2-0.3-0.6-0.4-1.1-0.5l-0.6,0c-0.1-0.2-0.1-0.4,0-0.5c0.9,0,1.7,0.1,2.6,0.1
			c0.9,0,1.6,0,2.4-0.1c0.2,0.1,0.2,0.4,0,0.5l-0.5,0c-0.6,0-1,0.2-1.1,0.5c-0.3,0.7-0.3,3.3-0.3,4.6V51c0,2-0.3,4-1.6,5.4
			c-1,1.1-2.6,1.6-4.3,1.6c-1.6,0-3.1-0.3-4.2-1.2c-1.2-1-1.8-2.6-1.8-5.3v-5.3c0-2.3,0-2.7-1.3-2.8l-0.6,0c-0.1-0.1-0.1-0.5,0-0.5
			c1.1,0,1.9,0.1,2.8,0.1c0.9,0,1.7,0,2.8-0.1c0.1,0.1,0.2,0.4,0,0.5l-0.5,0c-1.3,0.1-1.3,0.5-1.3,2.8V51c0,3.6,1.1,6,4.6,6
			c3.3,0,4.5-2.6,4.5-6V48.4z"/>
		<path d="M107.4,49.1c0,0.6,0.1,0.6,0.7,0.6h1.5c0.9,0,1.6,0,1.9-0.1c0.2-0.1,0.4-0.2,0.6-0.8l0.2-0.9c0.1-0.1,0.5-0.1,0.6,0
			c0,0.5-0.1,1.4-0.1,2.3c0,0.8,0.1,1.7,0.1,2.2c-0.1,0.1-0.4,0.1-0.6,0l-0.2-0.9c-0.1-0.4-0.3-0.7-0.7-0.9
			c-0.3-0.1-0.9-0.1-1.7-0.1h-1.5c-0.7,0-0.7,0-0.7,0.6v3.1c0,2.4,0,2.7,1.4,2.8l0.8,0.1c0.1,0.1,0.1,0.5,0,0.6
			c-1.3,0-2.1-0.1-3-0.1c-1,0-1.8,0-2.8,0.1c-0.1-0.1-0.2-0.4,0-0.6l0.6-0.1c1.3-0.2,1.3-0.4,1.3-2.8v-8.1c0-2.4,0-2.7-1.3-2.8
			l-0.4,0c-0.1-0.1-0.1-0.5,0-0.6c0.9,0,1.7,0.1,2.6,0.1h4.1c1.4,0,2.7,0,3-0.1c0,1,0,2.1,0.1,3c-0.1,0.1-0.4,0.2-0.5,0.1
			c-0.2-1-0.4-1.8-1.6-2.1c-0.5-0.1-1.2-0.1-2.2-0.1H108c-0.7,0-0.7,0-0.7,0.9V49.1z"/>
		<path d="M120.8,49.1c0,0.6,0.1,0.6,0.7,0.6h1.5c0.9,0,1.6,0,1.9-0.1c0.2-0.1,0.4-0.2,0.6-0.8l0.2-0.9c0.1-0.1,0.5-0.1,0.6,0
			c0,0.5-0.1,1.4-0.1,2.3c0,0.8,0.1,1.7,0.1,2.2c-0.1,0.1-0.4,0.1-0.6,0l-0.2-0.9c-0.1-0.4-0.3-0.7-0.7-0.9
			c-0.3-0.1-0.9-0.1-1.7-0.1h-1.5c-0.7,0-0.7,0-0.7,0.6v3.1c0,2.4,0,2.7,1.4,2.8l0.8,0.1c0.1,0.1,0.1,0.5,0,0.6
			c-1.3,0-2.1-0.1-3-0.1c-1,0-1.8,0-2.8,0.1c-0.1-0.1-0.2-0.4,0-0.6l0.6-0.1c1.3-0.2,1.3-0.4,1.3-2.8v-8.1c0-2.4,0-2.7-1.3-2.8
			l-0.4,0c-0.1-0.1-0.1-0.5,0-0.6c0.9,0,1.7,0.1,2.6,0.1h4.1c1.4,0,2.7,0,3-0.1c0,1,0,2.1,0.1,3c-0.1,0.1-0.4,0.2-0.5,0.1
			c-0.2-1-0.4-1.8-1.6-2.1c-0.5-0.1-1.2-0.1-2.2-0.1h-1.4c-0.7,0-0.7,0-0.7,0.9V49.1z"/>
		<path d="M132.9,46.2c0-2.4,0-2.8-1.4-2.9l-0.6,0c-0.1-0.1-0.1-0.5,0-0.6c1.1,0,1.9,0.1,2.8,0.1c0.9,0,1.7,0,2.8-0.1
			c0.1,0.1,0.2,0.5,0,0.6l-0.6,0c-1.3,0.1-1.4,0.5-1.4,2.9v8c0,2.4,0,2.7,1.4,2.9l0.6,0.1c0.1,0.1,0.1,0.5,0,0.6
			c-1.1,0-1.9-0.1-2.8-0.1c-0.9,0-1.7,0-2.8,0.1c-0.1-0.1-0.2-0.4,0-0.6l0.6-0.1c1.3-0.2,1.4-0.5,1.4-2.9V46.2z"/>
		<path d="M154.8,53.8c0,0.7,0,3.3,0.1,3.9c0,0.1-0.2,0.2-0.4,0.2c-0.3-0.4-0.9-1.2-2.9-3.4l-5.2-5.9c-0.6-0.7-2.1-2.5-2.6-3h0
			c-0.1,0.3-0.1,0.8-0.1,1.5V52c0,1.1,0,4,0.4,4.7c0.1,0.2,0.6,0.4,1.1,0.4l0.7,0.1c0.1,0.2,0.1,0.4,0,0.6c-1,0-1.8-0.1-2.6-0.1
			c-0.9,0-1.6,0-2.3,0.1c-0.2-0.1-0.2-0.4,0-0.6l0.6-0.1c0.5-0.1,0.9-0.2,1-0.4c0.3-0.8,0.3-3.6,0.3-4.6v-6.5c0-0.6,0-1.1-0.5-1.6
			c-0.3-0.3-0.9-0.5-1.4-0.5l-0.4,0c-0.1-0.1-0.1-0.5,0-0.6c0.9,0.1,2.1,0.1,2.5,0.1c0.4,0,0.7,0,1-0.1c0.4,1.1,3.1,4.1,3.8,4.9
			l2.2,2.5c1.6,1.7,2.7,3,3.7,4.1h0c0.1-0.1,0.1-0.5,0.1-0.9v-4.8c0-1.1,0-4-0.4-4.7c-0.1-0.2-0.5-0.3-1.4-0.4l-0.4,0
			c-0.2-0.1-0.1-0.5,0-0.6c1,0,1.8,0.1,2.7,0.1c1,0,1.6,0,2.3-0.1c0.2,0.1,0.2,0.4,0,0.6l-0.3,0c-0.7,0.1-1.2,0.3-1.3,0.5
			c-0.4,0.8-0.3,3.6-0.3,4.6V53.8z"/>
		<path d="M172.5,55.3c0,0.9,0.1,1.4,0.5,1.6c0.1,0.1,0.1,0.2,0,0.3c-0.3,0-0.7,0.1-1.1,0.2c-1.2,0.3-2.8,0.6-4,0.6
			c-2.7,0-5.1-0.7-6.9-2.5c-1.3-1.3-2.1-3.1-2.1-5.1c0-1.9,0.6-3.8,2-5.3c1.5-1.6,3.7-2.6,7.1-2.6c1.3,0,2.5,0.2,2.9,0.3
			c0.4,0.1,1.1,0.2,1.4,0.2c0,0.7,0.1,1.9,0.3,3.3c-0.1,0.2-0.5,0.2-0.6,0.1c-0.6-2.4-2.3-3.2-4.6-3.2c-4.4,0-6.3,3.1-6.3,6.5
			c0,4.3,2.2,7.7,6.7,7.7c1.4,0,2.2-0.3,2.5-0.7c0.1-0.2,0.2-0.6,0.2-1.3v-0.9c0-1.9-0.1-2-1.5-2.2l-1-0.1c-0.2-0.1-0.2-0.5,0-0.6
			c0.7,0,1.9,0.1,3.2,0.1c0.9,0,1.6,0,2.4-0.1c0.2,0.1,0.2,0.4,0,0.6l-0.4,0c-0.9,0.1-1,0.7-1,1.9V55.3z"/>
		<path d="M184.5,54.2c0,2.4,0,2.7,1.3,2.8l0.7,0.1c0.1,0.1,0.1,0.5,0,0.6c-1.3,0-2-0.1-2.9-0.1c-0.9,0-1.7,0-3.1,0.1
			c-0.1-0.1-0.2-0.4,0-0.6l0.8-0.1c1.3-0.1,1.4-0.4,1.4-2.8V44.2c0-0.7,0-0.7-0.7-0.7h-1.2c-1,0-2.2,0-2.8,0.6c-0.5,0.5-0.8,1-1,1.6
			c-0.2,0.1-0.5,0-0.6-0.2c0.4-1,0.7-2.5,0.9-3.3c0.1,0,0.4-0.1,0.4,0c0.1,0.7,0.9,0.7,1.9,0.7h9.1c1.2,0,1.4,0,1.8-0.6
			c0.1,0,0.4,0,0.4,0.1c-0.2,0.9-0.4,2.7-0.3,3.4c-0.1,0.2-0.5,0.2-0.6,0c-0.1-0.6-0.2-1.4-0.6-1.6c-0.5-0.4-1.4-0.6-2.6-0.6h-1.6
			c-0.7,0-0.7,0-0.7,0.8V54.2z"/>
		<path d="M191.9,50.3c0-4.5,3.4-7.9,8-7.9c5.2,0,7.8,3.8,7.8,7.7c0,4.5-3.5,7.8-7.8,7.8C194.9,58,191.9,54.4,191.9,50.3z
			 M205.4,50.8c0-3.7-1.6-7.7-5.9-7.7c-2.3,0-5.4,1.6-5.4,6.5c0,3.3,1.6,7.6,6,7.6C202.9,57.3,205.4,55.2,205.4,50.8z"/>
		<path d="M223.9,53.8c0,0.7,0,3.3,0.1,3.9c0,0.1-0.2,0.2-0.4,0.2c-0.3-0.4-0.9-1.2-2.9-3.4l-5.2-5.9c-0.6-0.7-2.1-2.5-2.6-3h0
			c-0.1,0.3-0.1,0.8-0.1,1.5V52c0,1.1,0,4,0.4,4.7c0.1,0.2,0.6,0.4,1.1,0.4l0.7,0.1c0.1,0.2,0.1,0.4,0,0.6c-1,0-1.8-0.1-2.6-0.1
			c-0.9,0-1.6,0-2.3,0.1c-0.2-0.1-0.2-0.4,0-0.6l0.6-0.1c0.5-0.1,0.9-0.2,1-0.4c0.3-0.8,0.3-3.6,0.3-4.6v-6.5c0-0.6,0-1.1-0.5-1.6
			c-0.3-0.3-0.9-0.5-1.4-0.5l-0.4,0c-0.1-0.1-0.1-0.5,0-0.6c0.9,0.1,2.1,0.1,2.5,0.1c0.4,0,0.7,0,1-0.1c0.4,1.1,3.1,4.1,3.8,4.9
			l2.2,2.5c1.6,1.7,2.7,3,3.7,4.1h0c0.1-0.1,0.1-0.5,0.1-0.9v-4.8c0-1.1,0-4-0.4-4.7c-0.1-0.2-0.5-0.3-1.4-0.4l-0.4,0
			c-0.2-0.1-0.1-0.5,0-0.6c1,0,1.8,0.1,2.7,0.1c1,0,1.6,0,2.3-0.1c0.2,0.1,0.2,0.4,0,0.6l-0.3,0c-0.7,0.1-1.2,0.3-1.3,0.5
			c-0.4,0.8-0.3,3.6-0.3,4.6V53.8z"/>
		<path d="M241.4,54.2c0,2.4,0,2.7,1.5,2.8l0.6,0.1c0.1,0.1,0.1,0.5,0,0.6c-1.3,0-2-0.1-2.9-0.1c-0.9,0-1.8,0-2.7,0.1
			c-0.1-0.1-0.2-0.4,0-0.6l0.5-0.1c1.3-0.2,1.3-0.4,1.3-2.8v-8.3c0-1.9,0-2.3-1.1-2.4l-0.8-0.1c-0.2-0.1-0.1-0.5,0-0.6
			c1.2-0.2,2.6-0.2,4.5-0.2c1.9,0,3.3,0.2,4.3,0.9c1,0.7,1.8,1.8,1.8,3.4c0,2.1-1.3,3.1-2.2,3.6c-1,0.5-2.2,0.7-3.1,0.7
			c-0.2-0.1-0.2-0.4,0-0.4c2.4-0.4,3.3-1.8,3.3-3.8c0-2.2-1.3-3.6-3.6-3.6c-1.2,0-1.2,0.1-1.2,0.8V54.2z"/>
		<path d="M250,50.3c0-4.5,3.4-7.9,8-7.9c5.2,0,7.8,3.8,7.8,7.7c0,4.5-3.5,7.8-7.8,7.8C253.1,58,250,54.4,250,50.3z M263.6,50.8
			c0-3.7-1.6-7.7-5.9-7.7c-2.3,0-5.4,1.6-5.4,6.5c0,3.3,1.6,7.6,6,7.6C261,57.3,263.6,55.2,263.6,50.8z"/>
		<path d="M271.9,58c-1.9,0-3.1-0.6-3.5-0.8c-0.3-0.5-0.6-2.1-0.6-3.1c0.1-0.2,0.4-0.2,0.5-0.1c0.3,1.1,1.3,3.4,3.9,3.4
			c1.9,0,2.8-1.2,2.8-2.6c0-1-0.2-2.1-1.8-3.1l-2.1-1.4c-1.1-0.7-2.4-2-2.4-3.9c0-2.1,1.7-3.9,4.6-3.9c0.7,0,1.5,0.1,2.1,0.3
			c0.3,0.1,0.6,0.1,0.8,0.1c0.2,0.5,0.4,1.8,0.4,2.7c-0.1,0.1-0.4,0.2-0.6,0.1c-0.3-1.1-0.9-2.5-3.1-2.5c-2.2,0-2.7,1.5-2.7,2.5
			c0,1.3,1.1,2.2,1.9,2.8l1.8,1.1c1.4,0.9,2.8,2.2,2.8,4.3C276.7,56.3,274.8,58,271.9,58z"/>
		<path d="M286.6,54.2c0,2.4,0,2.7,1.3,2.8l0.7,0.1c0.1,0.1,0.1,0.5,0,0.6c-1.3,0-2-0.1-2.9-0.1c-0.9,0-1.7,0-3.1,0.1
			c-0.1-0.1-0.2-0.4,0-0.6l0.8-0.1c1.3-0.1,1.4-0.4,1.4-2.8V44.2c0-0.7,0-0.7-0.7-0.7h-1.2c-1,0-2.2,0-2.8,0.6c-0.5,0.5-0.8,1-1,1.6
			c-0.2,0.1-0.5,0-0.6-0.2c0.4-1,0.7-2.5,0.9-3.3c0.1,0,0.4-0.1,0.4,0c0.1,0.7,0.9,0.7,1.9,0.7h9.1c1.2,0,1.4,0,1.8-0.6
			c0.1,0,0.4,0,0.4,0.1c-0.2,0.9-0.4,2.7-0.3,3.4c-0.1,0.2-0.5,0.2-0.6,0c-0.1-0.6-0.2-1.4-0.6-1.6c-0.5-0.4-1.4-0.6-2.6-0.6h-1.6
			c-0.7,0-0.7,0-0.7,0.8V54.2z"/>
	</g>
</g>
<g id="Layer_1">
</g>
</svg>
