<?xml version="1.0" encoding="utf-8"?>
<!-- Generator: Adobe Illustrator 18.0.0, SVG Export Plug-In . SVG Version: 6.00 Build 0)  -->
<!DOCTYPE svg PUBLIC "-//W3C//DTD SVG 1.1//EN" "http://www.w3.org/Graphics/SVG/1.1/DTD/svg11.dtd">
<svg version="1.1" xmlns="http://www.w3.org/2000/svg" xmlns:xlink="http://www.w3.org/1999/xlink" x="0px" y="0px"
	 viewBox="0 0 300 100" style="enable-background:new 0 0 300 100;" xml:space="preserve">
<style type="text/css">
	.st0{fill-rule:evenodd;clip-rule:evenodd;}
	.st1{fill-rule:evenodd;clip-rule:evenodd;fill:#C038F9;}
	.st2{fill:none;}
	.st3{fill-rule:evenodd;clip-rule:evenodd;fill:#231F20;}
</style>
<g id="Layer_2">
	<g>
		<g>
			<path d="M87.8,16.8H65.5h-4.9H0V73C0,76.3,2.7,79,6.1,79H28h30.1h29.8c3.3,0,6.1-2.7,6.1-6.1v-9.8v-6.8V22.8
				C93.9,19.5,91.2,16.8,87.8,16.8z M92.5,73c0,2.6-2.1,4.7-4.7,4.7H59.4H26.7H6.1c-2.6,0-4.7-2.1-4.7-4.7V18.2h59.4h5.5h21.6
				c2.6,0,4.7,2.1,4.7,4.7v34.5v7.1V73z"/>
			<path d="M86.5,19.4H66.9l3.5,6.6l11-5.8l2,3.7l-11.1,5.8L84.9,54c1.4,2.6,3.5,4.6,6.7,3.6V24.5C91.6,21.7,89.3,19.4,86.5,19.4z"
				/>
			<path d="M73.7,60.4L60.8,35.7l-5.5,2.9l-1.9-3.7c7.4-4.8,8.3-9.7,7.7-15.6H2.4v51.8c0,2.8,2.3,5.1,5.1,5.1h18.2
				c-0.5-0.8-1-1.6-1.5-2.4C18,62,22.9,47.6,34.7,41.4c5.2-2.7,15.8-5.6,19.4,1.2c1.7,3.2,0.1,6.8-3,8.4c-4.3,2.3-6.3-0.3-8.8-3.3
				c-2.1-2.4-4.8-3.8-7.9-2.2c-6.4,3.4-3.1,13-0.5,17.8c2.8,5.3,7.4,11.3,13.1,13h6.4c0.7-0.2,1.4-0.5,2.2-0.9
				c5.2-2.7,6.5-8.3,7.7-13.6l2.8,0.5c-0.5,5.2-2.4,10.1-5.5,14h26c2.8,0,5.1-2.3,5.1-5.1V65c-0.3,0.2-0.7,0.4-1,0.6
				C82.1,70,76.1,64.9,73.7,60.4z M17.5,49.5c-1.4,1-2.4,0-3.2-1.2l-3.6-5.2l-1.2,0.8l-0.3-0.4c0.8-1.3,0.7-3.1,0-4.4l0.5-0.4l2,2.8
				l2.3-1.6l0.4,0.5l-2.3,1.6l3.4,4.9c0.5,0.7,1.2,1.8,2.2,1.2c0.6-0.4,0.7-1.1,0.9-1.8l0.5,0.1C18.8,47.6,18.5,48.8,17.5,49.5z
				 M24.9,44l-0.3-0.5c1-0.9,0.9-1-0.1-2.5l-2-3c-0.8-1.1-1.6-1.9-2.7-1.1c-0.8,0.6-1.2,1.7-1.4,2.6l2.7,3.9c1.1,1.5,1.1,1.6,2.3,1
				l0.3,0.5L20,47.4L19.7,47c1-0.9,0.9-1-0.1-2.5l-5.1-7.3c-1-1.4-1.2-1.2-2.4-0.5l-0.3-0.5l2.2-2.9l3.9,5.6c0.3-1.2,1-2.6,2-3.2
				c1.7-1.2,2.9-0.2,4,1.5l2,3c1.1,1.5,1.1,1.6,2.3,1l0.3,0.5L24.9,44z M32.5,39.1c-2.3,1.6-5.2,0.9-6.7-1.3
				c-1.4-2.1-1.5-5.2,0.8-6.8c2-1.4,4.6-0.6,5.9,1.3L27,36c1.1,1.6,3.2,3.6,5.2,2.2c1.1-0.7,1.6-2,1.6-3.3l0.5,0.1
				C34.4,36.6,33.8,38.1,32.5,39.1z"/>
			<path d="M26.9,31.5c-1.4,1-1,2.7-0.2,3.9l3.8-2.6C29.7,31.6,28.3,30.5,26.9,31.5z"/>
		</g>
		<g>
			<path d="M108.5,64c0,6.8,0,7.2,4.9,7.8v2.1H97.2v-2.1c4.9-0.6,4.9-1,4.9-7.8V48.5c-0.2-3.8-0.3-5.2-4.7-5.2v-1.7l11-4.2v7.1
				c2.8-3.7,7.2-6.6,12-6.6c4.1,0,7.2,2.9,8.6,6.6c3.5-3.4,7.2-6.6,12.3-6.6c3.1,0,6,1.1,7.7,4c1.6,2.7,1.5,6.7,1.5,9.9V64
				c0,6.8,0,7.2,4.8,7.8v2.1h-16.1v-2.1c4.9-0.6,4.9-1,4.9-7.8V51.1c0-3.9,0.1-9.4-5.3-9.4c-3.7,0-7.1,2.7-9.4,5.3V64
				c0,6.8,0,7.2,4.9,7.8v2.1h-16.1v-2.1c4.8-0.6,4.8-1,4.8-7.8V51.1c0-3.9-0.1-9.4-5.5-9.4c-3.7,0-7.1,2.7-9.2,5.3V64z"/>
			<path d="M174.2,64c0,6.8,0,7.2,4.9,7.8v2.1H163v-2.2c4.9-0.6,4.9-1.1,4.9-7.8V48.5c-0.2-3.8-0.3-5.2-4.7-5.2v-1.7l11-4.2V64z
				 M170.1,30c-2.7,0-4.8-2.1-4.8-4.8c0-2.7,2.1-4.8,4.8-4.8c2.7,0,4.8,2.2,4.8,4.8C174.8,27.8,172.7,30,170.1,30z"/>
			<path d="M195.8,64c0,6.8,0,7.2,4.8,7.8v2.1h-15.9v-2.1c4.8-0.6,4.8-1,4.8-7.8V48.5c-0.2-3.8-0.3-5.2-4.7-5.2v-1.7l11-4.2v8.5
				c2.7-3.4,7.1-8.5,11.8-8.5c2.4,0,4.5,1.7,4.5,4.2c0,2.2-1.5,4-3.9,4c-2.5,0-3.5-1.9-5.8-1.9c-2.5,0-5.4,3.3-6.6,5.3V64z"/>
			<path d="M222.6,64c0,6.8,0,7.2,4.8,7.8v2.1h-15.9v-2.1c4.8-0.6,4.8-1,4.8-7.8V48.5c-0.2-3.8-0.3-5.2-4.7-5.2v-1.7l11-4.2v8.5
				c2.7-3.4,7.1-8.5,11.8-8.5c2.4,0,4.5,1.7,4.5,4.2c0,2.2-1.5,4-3.9,4c-2.5,0-3.5-1.9-5.8-1.9c-2.5,0-5.4,3.3-6.6,5.3V64z"/>
			<path d="M236.9,56.9c0-9.4,6.2-19,16.3-19c10,0,16,9.8,16,18.9c0,9.2-6.8,17.9-16.4,17.9C243.6,74.7,236.9,65.7,236.9,56.9z
				 M261.9,55.5c0-5.3-1.7-15.2-8.7-15.2c-7.3,0-9.1,9.5-9.1,15c0,5.1,1.7,17,8.6,17C260.3,72.3,261.9,61,261.9,55.5z"/>
			<path d="M282.6,64c0,6.8,0,7.2,4.8,7.8v2.1h-15.9v-2.1c4.8-0.6,4.8-1,4.8-7.8V48.5c-0.2-3.8-0.3-5.2-4.7-5.2v-1.7l11-4.2v8.5
				c2.7-3.4,7.1-8.5,11.8-8.5c2.4,0,4.5,1.7,4.5,4.2c0,2.2-1.5,4-3.9,4c-2.5,0-3.5-1.9-5.8-1.9c-2.5,0-5.4,3.3-6.6,5.3V64z"/>
		</g>
	</g>
</g>
<g id="Layer_1">
</g>
</svg>
