<?xml version="1.0" encoding="utf-8"?>
<!-- Generator: Adobe Illustrator 18.0.0, SVG Export Plug-In . SVG Version: 6.00 Build 0)  -->
<!DOCTYPE svg PUBLIC "-//W3C//DTD SVG 1.1//EN" "http://www.w3.org/Graphics/SVG/1.1/DTD/svg11.dtd">
<svg version="1.1" xmlns="http://www.w3.org/2000/svg" xmlns:xlink="http://www.w3.org/1999/xlink" x="0px" y="0px"
	 viewBox="0 0 300 100" style="enable-background:new 0 0 300 100;" xml:space="preserve">
<style type="text/css">
	.st0{fill-rule:evenodd;clip-rule:evenodd;}
	.st1{fill-rule:evenodd;clip-rule:evenodd;fill:#C038F9;}
	.st2{fill:none;}
	.st3{fill-rule:evenodd;clip-rule:evenodd;fill:#231F20;}
</style>
<g id="Layer_2">
	<g>
		<path d="M264.5,61.2c-1.2,0.9-3.3,2.7-4.4,3.9l-4.1-3.7v-0.2c0.5-0.2,0.6-0.7,0.6-1.3V50c-0.9-0.7-2.9-2.4-3.9-3.3l-1.3,1.2V60
			l1,0.9c0.2,0.2,0.4,0.4,0.8,0.4c0.4,0,0.7-0.2,1.2-0.5l0.4,0.5c-1.1,0.8-3.2,2.5-4.5,3.9l-4.1-3.7v-0.2c0.4-0.2,0.6-0.4,0.6-1.1
			V50c-1-0.8-3-2.5-3.9-3.4l-1.3,1.1V60l0.9,0.8c0.3,0.3,0.6,0.5,0.9,0.5c0.4,0,0.7-0.1,1.1-0.5l0.4,0.5c-1.3,1-3.2,2.7-4.5,3.9
			l-4.1-3.6v-0.2c0.5-0.1,0.6-0.5,0.6-1.2V48l-1.1-0.8c-0.3-0.2-0.5-0.3-0.8-0.3c-0.3,0-0.7,0.2-1.1,0.6l-0.4-0.5
			c1.2-0.8,3.1-2.6,4.5-3.9l3.6,3.4l3.9-3.4c1.8,1.5,3.9,3.3,5.2,4l4.6-4c1.7,1.4,4.9,3.9,6.5,4.9V48c-0.5,0.2-0.8,0.5-0.8,1.2v10.7
			l0.8,0.8c0.3,0.3,0.6,0.6,1,0.6c0.5,0,0.8-0.2,1.2-0.6L264.5,61.2z"/>
		<path d="M234.2,37.8l-1.5,1.4c-1.2,1.1-2.2,1.6-3.1,1.6c-0.7,0-1.4-0.3-2.2-1c-0.3-0.2-0.5-0.5-0.9-0.5c-0.4,0-0.8,0.2-1.1,0.5
			l-0.4-0.5l4.5-3.9l2.3,2c0.3,0.2,0.6,0.4,0.9,0.4c0.4,0,0.8-0.2,1.1-0.5L234.2,37.8z"/>
		<path d="M235.1,61.2c-1.2,0.9-3.4,2.8-4.5,3.9l-4.1-3.7v-0.2c0.4-0.1,0.6-0.5,0.6-1.1V48l-0.9-0.8c-0.3-0.2-0.4-0.4-0.8-0.4
			c-0.4,0-0.8,0.2-1.2,0.5l-0.4-0.5c1.1-0.8,3.2-2.5,4.5-3.9l4.1,3.5v0.2c-0.3,0.1-0.8,0.4-0.8,1.1V60l1.1,0.9
			c0.3,0.2,0.6,0.4,0.9,0.4c0.4,0,0.7-0.2,1.1-0.5L235.1,61.2z"/>
		<path d="M155.8,61.2c-1.1,0.8-3.1,2.5-4.5,3.9l-4.1-3.7v-0.2c0.4-0.1,0.6-0.5,0.6-1.2V40.6l-1.1-0.8c-0.2-0.2-0.5-0.3-0.7-0.3
			c-0.5,0-0.8,0.3-1.1,0.6l-0.5-0.5c1.4-1,3.3-2.7,4.6-4l4.1,3.5v0.2c-0.4,0.1-0.8,0.7-0.8,1.3V60l1.1,1c0.3,0.2,0.6,0.3,0.9,0.3
			c0.3,0,0.7-0.3,1-0.5L155.8,61.2z"/>
		<path d="M111.3,61.2c-1.2,0.9-3.4,2.8-4.5,3.9l-4.1-3.6v-0.2c0.4-0.1,0.6-0.5,0.6-1.4V50c-1-0.8-2.9-2.4-3.9-3.4l-1.3,1.1V60
			l1.2,1.1c0.5,0.4,1.2,0.3,1.8-0.2l0.4,0.4c-1.3,0.9-3.3,2.7-4.5,3.9L93,61.5v-0.2c0.4-0.2,0.6-0.5,0.6-1.1V48l-1.1-0.8
			c-0.3-0.2-0.4-0.3-0.6-0.3c-0.5,0-0.9,0.3-1.2,0.5l-0.5-0.5c1.1-0.8,2.9-2.3,4.5-3.9l3.6,3.4l3.9-3.4c1.4,1.2,4.8,3.8,6.5,4.9v0.2
			c-0.6,0.2-0.8,0.6-0.8,0.9v11l1.3,1.2c0.2,0.2,0.9,0.3,1.7-0.4L111.3,61.2z"/>
		<path d="M295.1,59.7c-2.8,1.3-6.4,3.6-8.4,5.5c-1.2-1-2.7-1.9-4.6-1.9c-1.7,0-2.2,0.6-2.2,1.2c0,0.4,0.5,0.3,0.5,0.8
			c0,0.2-0.2,0.5-0.6,0.5c-0.4,0-0.8-0.4-0.8-1.1c0-1.1,0.7-2.6,2.7-4.9l3.5-3.9l-4.5-2.3v-0.2c0.4-0.1,0.5-0.4,0.5-0.8V49
			c0-0.4-0.2-0.7-0.5-0.9v-0.3c2.9-1.4,6.3-3.3,8.2-4.9c0.5,0.6,1.9,1.4,3.4,1.4c1.2,0,1.4-0.4,1.4-0.8c0-0.2-0.2-0.3-0.2-0.5
			c0-0.3,0.2-0.5,0.4-0.5c0.4,0,0.6,0.3,0.6,0.9c0,1.8-1.7,4-4.5,4c-2,0-3.2-0.6-4.1-1.6l-0.2,0.1v5l2.8,1.3l1.2-1.2l5.3,2.7v0.2
			c-0.3,0.1-0.5,0.4-0.5,0.7v3.8c0,0.5,0.2,0.7,0.5,0.8V59.7z M290.1,61.6V56l-2.6-1.2l-5.5,5.8l0.1,0c0.9-0.5,2.2-0.7,4-0.7
			C287.4,59.9,289.1,60.7,290.1,61.6L290.1,61.6z"/>
		<path d="M279.5,50.2l-8.8,5.6v3.5c1.1,0.4,3.5,1.6,4.6,2.3l2.2-2.1c0.1-0.6,0.3-1.3,1-1.3c0.3,0,0.5,0.3,0.5,0.5
			c0,0.3-0.2,0.6-0.3,0.7l-5.8,5.7c-1.7-1.1-5.4-3-7.4-3.9V61c0.4-0.2,0.6-0.5,0.6-1V49.1c0-0.5-0.2-0.9-0.6-1v-0.2
			c2.6-1.2,6-3.2,8.7-4.9C275.8,45.3,278,48.4,279.5,50.2z M275.2,51.9c-1.2-1.5-3.3-4.3-4.5-6.1l-0.1,0v9L275.2,51.9z"/>
		<path d="M224.5,36.5c0,3-2,4.4-4.5,4.8v19c1.4-1,2.5-2.4,3.1-3.8c0.1-0.1,0.1-0.3,0.1-0.3c0-0.2-0.2-0.3-0.2-0.6
			c0-0.3,0.1-0.6,0.4-0.6c0.3,0,0.5,0.3,0.5,0.6c0,4.5-3.3,10.4-12.6,10.4c-6.6,0-12.1-5-12.1-12c0-9.3,7.7-12.6,13-13.8
			c-1.8-0.3-4.2-0.7-6.5-0.7c-4.4,0-5.7,2.1-6.1,3.6l-0.5-0.2c0.1-2.1,1.9-7.9,7.6-7.9c5.6,0,9.1,2.3,13.5,2.3
			c2.9,0,3.4-1.3,3.6-2.6l0.5,0.2C224.4,35,224.5,36.1,224.5,36.5z M219.3,60.8V41.4c-0.2,0-0.5,0-0.7,0c-0.9,0-1.8-0.2-2.8-0.4
			c-1.4,0.7-2.6,2.1-2.6,4.3c0,4.2,2.4,5.2,2.4,9.4c0,3.3-2.8,5.8-5.1,6.9c1.2,0.5,2.6,0.6,4,0.6C216.1,62.3,218.3,61.5,219.3,60.8z
			 M214.7,40.8l-0.8-0.2c-4.6,0.9-9.9,4.9-9.9,11.7c0,4.4,2.4,7.5,5.7,9c1-0.7,2.1-2,2.1-4.2c0-3.9-2.5-6.1-2.5-9.7
			C209.3,44.8,211,42.4,214.7,40.8z"/>
		<path d="M185.6,59.7c-2.8,1.3-6.4,3.6-8.4,5.5c-1.2-1-2.7-1.9-4.6-1.9c-1.7,0-2.2,0.6-2.2,1.2c0,0.4,0.5,0.3,0.5,0.8
			c0,0.2-0.2,0.5-0.6,0.5c-0.4,0-0.8-0.4-0.8-1.1c0-1.1,0.7-2.6,2.7-4.9l3.5-3.9l-4.5-2.3v-0.3c0.4-0.1,0.5-0.4,0.5-0.8V49
			c0-0.5-0.2-0.7-0.5-0.9v-0.3c2.9-1.4,6.3-3.3,8.2-4.9c0.5,0.6,1.9,1.4,3.4,1.4c1.2,0,1.4-0.4,1.4-0.8c0-0.2-0.2-0.3-0.2-0.5
			c0-0.3,0.2-0.5,0.4-0.5c0.4,0,0.6,0.3,0.6,0.9c0,1.8-1.7,4-4.5,4c-2,0-3.2-0.6-4.1-1.6l-0.2,0.1v5l2.8,1.3l1.2-1.2l5.3,2.7v0.3
			c-0.3,0.1-0.5,0.4-0.5,0.7v3.8c0,0.5,0.2,0.7,0.5,0.8V59.7z M180.6,61.6V56l-2.6-1.2l-5.5,5.8l0.1,0c0.9-0.5,2.2-0.7,4-0.7
			C177.9,59.9,179.6,60.7,180.6,61.6L180.6,61.6z"/>
		<path d="M170.3,50.2l-8.8,5.6v3.5c1.1,0.4,3.5,1.6,4.6,2.3l2.2-2.1c0.2-0.6,0.3-1.3,1-1.3c0.3,0,0.5,0.3,0.5,0.5
			c0,0.3-0.1,0.6-0.3,0.7l-5.8,5.7c-1.7-1.1-5.4-3-7.4-3.9V61c0.3-0.1,0.6-0.5,0.6-1V49.1c0-0.5-0.2-0.9-0.6-1v-0.2
			c2.6-1.2,6-3.2,8.7-4.9C166.5,45.3,168.8,48.4,170.3,50.2z M166,51.9c-1.2-1.5-3.3-4.3-4.5-6.1l-0.1,0v9L166,51.9z"/>
		<path d="M145.2,50.2l-8.9,5.6v3.5c1.1,0.4,3.5,1.6,4.6,2.3l2.2-2.1c0.2-0.7,0.3-1.3,1.1-1.3c0.3,0,0.5,0.3,0.5,0.5
			c0,0.3-0.1,0.6-0.3,0.7l-5.8,5.8c-1.7-1.1-5.4-3.1-7.4-3.9V61c0.3-0.1,0.6-0.5,0.6-1V49.1c0-0.5-0.2-0.9-0.6-1v-0.2
			c2.6-1.2,6-3.2,8.7-4.9C141.5,45.3,143.7,48.4,145.2,50.2z M140.9,51.9c-1.2-1.5-3.3-4.3-4.5-6.1l-0.1,0v9L140.9,51.9z"/>
		<path d="M129.6,63.5c-0.1,4.8-2.3,8.2-6.8,8.2c-3.5,0-5.6-1.8-8.8-1.8c-1.8,0-2.9,0.6-3.4,1.3l-0.5-0.4c0.7-3.3,2.9-5.4,6-5.4
			c3.4,0,5.6,2.2,9.2,2.2c1.7,0,2.7-0.8,3.1-2l0-0.1c-0.5,0.2-1.1,0.3-1.6,0.3c-1.9,0-3.6-1.3-3.9-3.4c-0.9,0.6-2.7,2-3.6,2.8
			c-2.2-1.4-5.6-3.2-7.3-4v-0.2c0.4-0.1,0.6-0.5,0.6-0.9V49.1c0-0.6-0.2-1-0.7-1.1v-0.2c3.1-1.2,6.5-3.2,8.7-4.9
			c1.9,1.5,5.1,3.7,7.1,4.9V48c-0.3,0.1-0.5,0.4-0.5,1.1V61c0,1.5,0.4,2.3,1.4,2.3c0.2,0,0.4,0,0.6,0L129.6,63.5z M122.8,61.6V50
			c-1.2-0.8-4-2.8-5.4-3.9l-0.2,0.2V59c1.5,0.7,4.2,2.4,5,3L122.8,61.6z"/>
		<path d="M92,61.6c-1.3,2.2-2.6,3.8-4.5,3.8c-1.5,0-2.6-0.9-3.1-2.5l-2.5-7.3h-9.7l-1.4,4.1c1.6,0.1,3,1.1,3.4,1.1
			c0.4,0,0.8-0.3,1.3-1.1l0.6,0.4l-3.2,5.2c-0.9-0.8-2.3-1.6-4.1-1.6c-2.5,0-4.1,0.7-5.2,1.6L63,65c0.6-2.7,2.8-5.1,6.7-5.4
			l6.8-19.8l-0.2-0.7c-0.5-1.4-1.4-2.2-2.4-2.2c-1,0-1.6,0.5-1.9,0.8l-0.3-0.3c0.3-1.6,1.7-3.3,3.9-3.3c1.8,0,3.1,0.9,3.8,2h0.1
			c0.3-0.8,0.9-1.5,1.6-1.6l0.1,0.2c-0.2,0.2-0.5,0.9-0.5,1.7c0,0.4,0.1,0.8,0.2,1.2l8,23.6c0.2,0.6,0.6,0.8,1,0.8
			c0.6,0,1-0.4,1.6-1.1L92,61.6z M80.8,52.7L77,41.3h-0.1L73,52.7H80.8z"/>
		<path d="M54.2,59.7c-2.8,1.3-6.4,3.6-8.4,5.5c-1.2-1-2.7-1.9-4.6-1.9c-1.7,0-2.2,0.6-2.2,1.2c0,0.4,0.5,0.3,0.5,0.8
			c0,0.2-0.3,0.5-0.6,0.5c-0.4,0-0.8-0.4-0.8-1.1c0-1.1,0.7-2.6,2.7-4.9l3.5-3.9l-4.5-2.3v-0.3c0.4-0.1,0.5-0.4,0.5-0.8V49
			c0-0.4-0.2-0.7-0.5-0.9v-0.3c2.9-1.4,6.3-3.3,8.2-4.9c0.5,0.6,1.9,1.4,3.4,1.4c1.2,0,1.4-0.4,1.4-0.8c0-0.2-0.2-0.3-0.2-0.5
			c0-0.3,0.2-0.5,0.4-0.5c0.4,0,0.6,0.3,0.6,0.9c0,1.8-1.5,4-4.5,4c-2,0-3.2-0.6-4.1-1.6L45,46v5l2.8,1.3l1.2-1.2l5.3,2.7v0.3
			c-0.3,0.1-0.5,0.4-0.5,0.7v3.7c0,0.5,0.2,0.7,0.5,0.8V59.7z M49.2,61.6V56l-2.6-1.2l-5.5,5.8l0.1,0c0.9-0.5,2.2-0.7,4-0.7
			C46.6,59.9,48.3,60.7,49.2,61.6L49.2,61.6z"/>
		<path d="M37.5,60.2c-2.5,1-6.6,3.4-8.6,4.9c-2.2-1.5-5.2-3.7-7.2-4.9V60c0.5-0.2,0.6-0.6,0.6-1.1v-9.4c0-0.9-0.2-1.2-0.6-1.3v-0.2
			c3-1.2,6-2.8,8.6-4.9c1.9,1.5,5.2,3.7,7.2,4.9v0.2c-0.4,0.2-0.5,0.5-0.5,1V59c0,0.5,0.3,0.9,0.6,1V60.2z M32.3,62V49.7
			c-1.6-0.9-4-2.6-5.3-3.6l-0.2,0.2v12.2c1.7,0.9,3.9,2.6,5.4,3.7L32.3,62z"/>
		<path d="M20.9,58.1l-3.6,7c-1.4-1.2-3.5-2-6.2-2c-4.1,0-9.1,1.1-10.6,2L0,64.5c1.6-1.4,3.3-5,3.3-9.3c0-4.6-2.6-6.8-2.6-11.3
			c0-4.7,2.1-7.3,6-9.2l0.5,0.4c-1.4,1.2-2.1,2.5-2.2,4.3l6.7-5.5c1.2,1.2,3.2,2.5,5,2.5c1.4,0,2-0.3,2-0.9c0-0.3-0.3-0.4-0.3-0.6
			c0-0.3,0.2-0.5,0.5-0.5c0.4,0,0.6,0.4,0.6,0.9c0,2.5-2.6,4.6-5.2,4.6c-0.9,0-1.6-0.1-2.3-0.3v19.1c0.4,0,0.7-0.1,1-0.1
			c2.5,0,4.8,1.1,5.3,1.1c0.9,0,1.2-0.6,1.9-2L20.9,58.1z M11.2,58.8V39.4c-1-0.4-1.8-1.1-2.7-2.1l-3.7,3c0,5.6,2.9,8.1,2.9,12.6
			c0,3.2-2.2,6.4-3.9,8.1l0.2,0C6.2,59.8,9.1,59.1,11.2,58.8z"/>
		<path d="M298.7,64.2"/>
	</g>
</g>
<g id="Layer_1">
</g>
</svg>
