<?xml version="1.0" encoding="utf-8"?>
<!-- Generator: Adobe Illustrator 18.0.0, SVG Export Plug-In . SVG Version: 6.00 Build 0)  -->
<!DOCTYPE svg PUBLIC "-//W3C//DTD SVG 1.1//EN" "http://www.w3.org/Graphics/SVG/1.1/DTD/svg11.dtd">
<svg version="1.1" xmlns="http://www.w3.org/2000/svg" xmlns:xlink="http://www.w3.org/1999/xlink" x="0px" y="0px"
	 viewBox="0 0 300 100" style="enable-background:new 0 0 300 100;" xml:space="preserve">
<style type="text/css">
	.st0{fill-rule:evenodd;clip-rule:evenodd;}
	.st1{fill-rule:evenodd;clip-rule:evenodd;fill:#C038F9;}
	.st2{fill:none;}
	.st3{fill-rule:evenodd;clip-rule:evenodd;fill:#231F20;}
</style>
<g id="Layer_2">
</g>
<g id="Layer_1">
	<g>
		<path class="st3" d="M7.1,44.9c0.6-1.6,1.4-2.9,2.4-3.8c0.1-0.1,0.3-0.1,0.4-0.1c0.1,0,0.5,0,1.1,0c0.3,0,0.6,0,0.8,0.1
			c0.2,0,0.5,0.1,0.8,0.3c0.3,0.1,0.6,0.3,0.9,0.5l-4.4,3.5l1,0.8v11.6c-1.1-0.5-2-1.4-2.7-2.5c-0.9-1.5-1.3-3.5-1.3-6
			C6.2,48,6.5,46.5,7.1,44.9L7.1,44.9z M6.7,40.5c0.3,0,0.6,0,1,0.1c0.4,0.1,0.8,0.2,1.1,0.3c-2.4,1.1-4.3,2.8-5.6,5.3
			c-1.1,2.2-1.7,4.5-1.7,7.1c0,3.2,1.1,5.9,3.3,8.1c2.2,2.3,4.9,3.4,8,3.4c3,0,5.6-1.2,7.7-3.5c2.1-2.3,3.1-5.1,3.1-8.2
			c-0.3,0.7-0.6,1.2-1,1.7c-0.4,0.4-0.9,0.9-1.5,1.5c-0.4,0.4-0.8,0.7-1.2,0.8c-0.3,0.2-0.8,0.4-1.3,0.6V42.1
			c0.7-0.3,1.2-0.6,1.7-0.9c0.4-0.3,0.9-0.7,1.4-1.3c1.3-1.4,2-3,2.1-4.7c-0.9,0.6-1.7,1-2.5,1.3c-0.7,0.3-1.6,0.5-2.5,0.6
			c-0.1,0-0.3,0-0.6,0c-1,0-2.5-0.4-4.5-1.2c-2-0.8-3.6-1.2-4.7-1.2c-2.3,0-4.1,1.1-5.5,3.2c-1.2,1.9-1.9,4.2-1.9,6.8
			c0.2-0.8,0.6-1.6,1.3-2.3c0.5-0.5,1-1,1.7-1.4C5.3,40.7,6,40.5,6.7,40.5L6.7,40.5z M27.7,64.5l3.8-4.2l-1.9-2V47.1l1.1-0.7l3,2.3
			v14.8c0,0.8-0.1,1.5-0.2,2.1c-0.1,0.6-0.3,1.1-0.7,1.5c-0.2,0.3-0.6,0.7-1.1,1.3c-0.5,0.6-1.1,1.1-1.8,1.4c1.4-0.1,2.6-0.5,3.5-1
			c0.9-0.5,1.9-1.3,2.8-2.4c0.7-0.8,1.3-1.6,1.6-2.4c0.4-0.8,0.6-1.7,0.7-2.6V44.9L37.4,45l-4.1-2.7l-2.9,2.4l-0.9-0.5V36l-0.9-1.9
			l-3.8,3.7v21.2l-1.2,1.4L27.7,64.5L27.7,64.5z M40.5,59.8l6.9,4.4l6.6-6.9l-3.6,2.5l-4.4-3.1v-2.9l7.8-5.9l-5-6.7l-8,5.6v12.2
			L40.5,59.8L40.5,59.8z M63.6,38.1v8.1c-0.6,0.1-1,0.2-1.4,0.3c-0.4,0.1-0.7,0.4-1.1,0.7c-1.1,0.9-1.7,2-1.7,3.4c0,0.3,0,0.5,0,0.7
			c0,0.2,0.1,0.4,0.1,0.6c0.4-0.3,0.8-0.6,1.2-0.7c0.4-0.1,0.9-0.2,1.4-0.2c0.3,0,0.5,0,0.7,0.1c0.2,0.1,0.4,0.2,0.8,0.3v7.9l5.9,6
			l5.5-5.6l6.6,5.6l9.6-9.3V40.2l-5.9-4.6l-4.4,4l-6-4l-5.3,4.5v-2.6c0-0.9-0.6-1.8-1.9-2.9c-0.4-0.3-0.7-0.5-1.1-0.8
			c-0.3-0.3-0.5-0.7-0.6-1.2C66,32.1,66,31.7,66,31.4c0-1,0.3-1.8,1-2.3C66.6,29,66.4,29,66.2,29c-1.3,0-2.4,0.5-3.4,1.6
			c-1,1.1-1.5,2.3-1.5,3.6c0,0.2,0,0.5,0.1,0.8C61.7,36.4,62.4,37.4,63.6,38.1L63.6,38.1z M92.4,60l5.3,3.7l3.9-3.7l4.6,3.2l4-4.3
			h-1.4l-1.8-1.8V44.6l-0.9,0.2l-4.5-3.7l-8.5,5.9v12.4L92.4,60L92.4,60z M118.1,41.9c-0.5-0.2-1-0.5-1.5-1l-7,5v8.4l0.6,0.5h4.2
			l-5.4,9.4c0.8-0.7,1.5-1.2,1.9-1.4c0.6-0.3,1.3-0.5,2.1-0.5c0.9,0,1.7,0.1,2.2,0.3c0.6,0.2,1.2,0.6,1.8,1.1l6.9-5.4v-8.5l-0.5-0.5
			h-4.6v-0.4l4.1-7.2c-0.4,0.3-0.8,0.4-1,0.5c-0.3,0-0.7,0.1-1.2,0.1h-0.9C119.1,42.2,118.6,42.1,118.1,41.9L118.1,41.9z M129,63.9
			l3.8-4.2l-1.9-2V46.5l1-0.7l3.1,2.3v14.7c0,0.9-0.1,1.6-0.2,2.1c-0.1,0.6-0.3,1.1-0.7,1.5c-0.2,0.3-0.5,0.7-0.9,1.3
			c-0.5,0.6-1.1,1.1-1.9,1.5c1.3-0.1,2.5-0.4,3.5-1c1-0.5,2-1.3,2.9-2.3c0.7-0.8,1.2-1.6,1.6-2.4c0.4-0.8,0.6-1.7,0.7-2.6V44.3
			l-1.2,0.1l-4.1-2.7l-2.9,2.4l-0.9-0.5v-8.1l-0.8-1.9l-3.9,3.7v21.3l-1.2,1.3L129,63.9L129,63.9z M149.8,38.4l-3.9-3.1l-3.1,3.4
			l3.3,3L149.8,38.4L149.8,38.4z M143.7,48.2v11.7l-0.8,1.3h1.5l3.4,2.8l3.5-3.2l4.5,3.7l4-4.4l-1.2-1.6v-11l1-0.5l2.3,2.5v10.8
			l4,3.5l3.9-4.4h-1.8l-1-1.7V45.9l0.5-1.1l-1,0.2l-4-3.1l-3.9,4l-4.5-3.6l-3.7,4.2h1.5l1.2,1.5v10.8l-2.5,0.9l-1.6-1.3V46.3
			l0.5-0.7l-4.5-3.3l-3.7,3.9l1.2,0.4L143.7,48.2L143.7,48.2z M221.2,59.5l-1.2-1.6v-11l1-0.5l2.3,2.5v10.8l4,3.4l3.9-4.4h-1.8
			l-1-1.7V45.4l0.5-1l-1,0.2l-4-3.1l-3.9,4l-4.5-3.6l-3.7,4.2h1.5l1.3,1.5v10.8l-1.6,2.1l4.8,3.1L221.2,59.5L221.2,59.5z
			 M170.5,59.6c0.6,0,1.1,0.1,1.6,0.2c0.5,0.1,0.9,0.4,1.4,0.8c0.5,0.4,0.8,0.7,1,1c0.2,0.3,0.4,0.8,0.5,1.4l-2.2,2.9l-2.4,3.2
			c0.6-0.3,1.1-0.6,1.6-0.6c0.4-0.1,1.1-0.1,1.9-0.1c1,0.1,1.8,0.3,2.5,0.7c0.7,0.4,1.3,0.9,1.9,1.7c1.4-0.5,3-1.7,4.8-3.4
			c1.8-1.8,2.7-3.2,2.7-4.4c0-0.2-0.2-0.8-0.6-1.9c-0.4-1-0.6-2.1-0.6-3.3V44.3l-6-3.7l-7.5,5.3v12.8L170.5,59.6L170.5,59.6z
			 M185.4,44.9h2.5v15l-0.6,1.2h1.5l3.1,2.4l4.1-4.6h-1.8l-1.2-1.3V45.2l2.5-3.1H193v-8.2l-5.1,4.8v3.3L185.4,44.9L185.4,44.9z
			 M196.3,59.6l5.3,3.8l9.3-6.5V44.2l-0.9,0.2l-4.5-3.8l-8.5,5.9v12.4L196.3,59.6L196.3,59.6z M240,38.2v4c-0.7,0-1.4,0.1-1.9,0.2
			c-0.5,0.2-1,0.5-1.5,0.9c-0.5,0.5-0.8,1-0.8,1.6c-0.1,0.6-0.1,1.4-0.1,2.4c0,0.4,0,0.7,0,0.8c0.6-1,1.5-1.4,2.6-1.2
			c0.7,0.1,1.3,0.4,1.8,0.9v6.7c-1.3,0.7-2.5,1.6-3.4,2.7c-1.1,1.3-1.8,2.6-2.2,4c0.6-0.5,1.1-0.8,1.6-1c0.4-0.2,1-0.4,1.8-0.7
			c0.3-0.1,0.6-0.2,1-0.3c0.4-0.1,0.8-0.2,1.3-0.2V72l5.6-4.6l1.9,1.4v-7.3l2.4,0.8l8.1-5.6v-19l-5.2-4.2l-5.3,4.5v-2.4l-1-0.9v3.8
			l-0.9,0.6v-4l-4.4-3.4L236,37c0.4-0.3,0.9-0.4,1.3-0.4c0.4,0,0.7,0.1,1.1,0.2C239.2,37,239.7,37.5,240,38.2L240,38.2z M258.8,60
			l5.3,3.7l9.4-6.5V44.6l-0.9,0.2l-4.5-3.7l-8.5,5.9v12.4L258.8,60L258.8,60z M283.6,41.7c-0.4-0.2-1-0.5-1.6-0.9l-7,4.9V54l0.6,0.5
			h4.2l-5.4,9.4c0.6-0.5,1.1-0.9,1.5-1.2c0.7-0.5,1.6-0.7,2.6-0.7c0.9,0,1.6,0.1,2.2,0.3c0.6,0.2,1.2,0.6,1.8,1.1l6.9-5.4v-8.5
			l-0.5-0.5h-4.6v-0.4l4.1-7.2c-0.4,0.3-0.8,0.4-1,0.5c-0.3,0-0.7,0.1-1.2,0.1h-0.9C284.5,42,284,41.9,283.6,41.7L283.6,41.7z
			 M289.4,45.1h2.5v15l-0.6,1.2h1.5l3.1,2.4L300,59h-1.8l-1.2-1.2V45.4l2.5-3.1h-2.5V34l-5.1,4.8v3.3L289.4,45.1L289.4,45.1z
			 M98.3,45.5l3.4,2.5v10l-1.1,1.2l-2.3-2V45.5L98.3,45.5z M181.7,63.1c0.7,0.5,1,1.1,1,1.9c0,0.3,0,0.6-0.1,0.8
			c-0.2,0.3-0.3,0.4-0.4,0.5c-0.2,0.2-0.5,0.4-0.9,0.4c-0.4,0.1-0.9-0.1-1.5-0.5c-0.6-0.4-1.5-0.6-2.7-0.6c-0.8,0-1.5,0.1-2.1,0.2
			c-0.6,0.1-1.3,0.4-2,0.7l6.3-7.8v1c0,0.6,0,1,0.1,1.4c0.1,0.4,0.3,0.7,0.7,1.1C180.7,62.5,181.2,62.8,181.7,63.1L181.7,63.1z
			 M176.1,44.9l3.3,2.4v9.7l-0.9,1l-2.3-2.3V44.9L176.1,44.9z M46.1,52.5v-6.3l3.1,4L46.1,52.5L46.1,52.5z M119.9,45.4l-2.9,5.2
			h-2.2v-5.6c0.9,0.5,1.8,0.8,2.8,0.8C118.4,45.8,119.2,45.6,119.9,45.4L119.9,45.4z M202.1,45l3.4,2.5v10l-1.1,1.2l-2.3-2V45
			L202.1,45z M115.6,53.7h3.1v5.6c-0.6-0.2-1.1-0.3-1.4-0.4c-0.3,0-0.9-0.1-1.9-0.1c-0.6,0-1.2,0.1-1.6,0.2c-0.5,0.1-1,0.3-1.6,0.6
			L115.6,53.7L115.6,53.7z M245.7,42l0.9-0.7v24.6l-0.9-0.5V42L245.7,42z M247.5,40.6l2.6-1.7l1.9,1.4v16.2
			c-0.9-0.5-1.4-0.8-1.5-0.8c-0.1,0-0.4-0.1-0.9-0.3c-0.7-0.2-1.4-0.3-2.1-0.5V40.6L247.5,40.6z M17.3,42.5c0.3,0,0.5,0,0.7-0.1
			v15.7c-1.1,0.5-2.3,0.8-3.5,0.8c-0.7,0-1.4-0.1-2.2-0.3c-0.7-0.2-1.3-0.4-1.7-0.7l4.9-4.9V42.3c0.2,0.1,0.4,0.2,0.7,0.2
			c0.2,0,0.4,0,0.5,0C16.8,42.5,17,42.5,17.3,42.5L17.3,42.5z M264.7,45.5l3.4,2.5v10l-1,1.2l-2.3-2V45.5L264.7,45.5z M69.5,41.4
			l1.6-1.2l3.3,3.4v15.5l-1.3,1.4l-3.6-3.4V41.4L69.5,41.4z M284.3,45.5c0.4-0.1,0.7-0.2,1.1-0.3l-2.9,5.2h-2.2v-5.6
			c0.9,0.5,1.8,0.8,2.8,0.8C283.5,45.5,283.9,45.5,284.3,45.5L284.3,45.5z M281,53.5h3.1v5.6c-0.6-0.2-1.1-0.3-1.4-0.4
			c-0.3,0-0.9-0.1-1.9-0.1c-0.6,0-1.2,0.1-1.6,0.2c-0.5,0.1-1,0.3-1.6,0.6L281,53.5L281,53.5z M80.9,41.4l1.6-1.2l3.4,3.4v15.5
			l-1.4,1.4l-3.5-3.4V41.4L80.9,41.4z"/>
	</g>
</g>
</svg>
