<?xml version="1.0" encoding="utf-8"?>
<!-- Generator: Adobe Illustrator 18.0.0, SVG Export Plug-In . SVG Version: 6.00 Build 0)  -->
<!DOCTYPE svg PUBLIC "-//W3C//DTD SVG 1.1//EN" "http://www.w3.org/Graphics/SVG/1.1/DTD/svg11.dtd">
<svg version="1.1" xmlns="http://www.w3.org/2000/svg" xmlns:xlink="http://www.w3.org/1999/xlink" x="0px" y="0px"
	 viewBox="0 0 300 100" style="enable-background:new 0 0 300 100;" xml:space="preserve">
<style type="text/css">
	.st0{fill-rule:evenodd;clip-rule:evenodd;}
	.st1{fill-rule:evenodd;clip-rule:evenodd;fill:#C038F9;}
	.st2{fill:none;}
	.st3{fill-rule:evenodd;clip-rule:evenodd;fill:#231F20;}
</style>
<g id="Layer_2">
</g>
<g id="Layer_1">
	<g>
		<path d="M20.2,33.3c-0.1,0-0.2,0-0.3,0.1c-0.1,0-0.3,0.1-0.6,0.1c-0.5,0.1-1.3,0.2-2.2,0.2H5.2c-0.4,0-1.6-0.1-2.5-0.2
			c-0.5,0-0.8-0.2-1-0.3c-0.1-0.1-0.3-0.1-0.4-0.1c-0.3,0-0.5,0.4-0.6,0.8c0,0-0.7,3-0.7,3.4c0,0.4,0.2,0.6,0.4,0.6
			c0.4,0,0.5-0.4,0.6-0.5c0.1-0.2,0.2-0.4,0.5-0.9c0.4-0.7,1.1-0.9,3-0.9c0.8,0,1.5,0,2.3,0c0.7,0,1.4,0,2.1,0v13.1
			c0,3,0,5.5-0.2,6.8c-0.1,0.9-0.3,1.4-0.7,1.5C7.7,57,7.4,57,7.2,57c-0.4,0-0.5,0.2-0.5,0.5c0,0.4,0.3,0.5,0.8,0.5
			c0.7,0,1.9,0,2.6-0.1c0.3,0,0.5,0,0.5,0c0,0,0.2,0,0.4,0c0.7,0,2.2,0.1,3.5,0.1c0.7,0,0.8-0.4,0.8-0.5c0-0.2-0.2-0.5-0.5-0.5
			c-0.3,0-0.9-0.1-1.4-0.1c-0.7-0.1-0.9-0.6-1-1.5c-0.2-1.3-0.2-3.9-0.2-6.8V35.5c0.6,0,1.2,0,1.7,0c0.7,0,1.3,0,2,0
			c3.1,0.1,3.6,0.8,3.6,1.5c0,0.1,0,0.1,0,0.2c0,0,0,0.1,0,0.2c0,0.3,0.1,0.8,0.5,0.8c0.1,0,0.5,0,0.5-0.7c0-0.1,0-0.5,0-1
			c0-0.8,0.1-1.9,0.1-2.5C20.6,33.8,20.6,33.3,20.2,33.3z"/>
		<path d="M49.4,57c-0.3,0-0.9-0.1-1.4-0.1c-0.7-0.1-0.9-0.6-1-1.5c-0.2-1.3-0.2-3.9-0.2-6.8V43c0-4.9,0-5.8,0.1-6.8
			c0.1-1.1,0.3-1.4,0.9-1.5c0.4-0.1,0.6-0.1,0.7-0.1c0.3,0,0.5-0.2,0.5-0.5c0-0.4-0.3-0.5-0.8-0.5c-0.7,0-1.9,0-2.6,0.1
			c-0.3,0-0.5,0-0.5,0c0,0-0.2,0-0.4,0c-0.7,0-2.1-0.1-3.2-0.1c-0.5,0-0.8,0.2-0.8,0.5c0,0.3,0.2,0.5,0.5,0.5c0.3,0,0.8,0,1,0.1
			c0.8,0.2,1.1,0.5,1.1,1.5c0.1,1,0.1,1.9,0.1,6.8v0.6H30.4V43c0-4.9,0-5.8,0.1-6.8c0.1-1.1,0.3-1.4,0.9-1.5
			c0.4-0.1,0.6-0.1,0.7-0.1c0.3,0,0.5-0.2,0.5-0.5c0-0.4-0.3-0.5-0.8-0.5c-0.7,0-1.9,0-2.6,0.1c-0.3,0-0.5,0-0.5,0c0,0-0.2,0-0.4,0
			c-0.7,0-2.1-0.1-3.2-0.1c-0.2,0-0.8,0-0.8,0.5c0,0.3,0.2,0.5,0.5,0.5c0.3,0,0.8,0,1,0.1c0.8,0.2,1.1,0.5,1.1,1.5
			c0.1,1,0.1,1.9,0.1,6.8v5.6c0,3,0,5.5-0.2,6.8c-0.1,0.9-0.3,1.4-0.7,1.5C26,57,25.7,57,25.5,57c-0.4,0-0.5,0.2-0.5,0.5
			c0,0.4,0.3,0.5,0.8,0.5c0.7,0,1.9,0,2.6-0.1c0.3,0,0.5,0,0.5,0c0,0,0.2,0,0.4,0c0.7,0,2.2,0.1,3.5,0.1c0.7,0,0.8-0.4,0.8-0.5
			c0-0.2-0.2-0.5-0.5-0.5c-0.3,0-0.9-0.1-1.4-0.1c-0.7-0.1-0.9-0.6-1-1.5c-0.2-1.3-0.2-3.9-0.2-6.8v-3.2h13.2v3.2c0,3,0,5.5-0.2,6.8
			c-0.1,0.9-0.3,1.4-0.7,1.5C42.5,57,42.1,57,41.9,57c-0.4,0-0.5,0.2-0.5,0.5c0,0.4,0.3,0.5,0.8,0.5c0.7,0,1.9,0,2.6-0.1
			c0.3,0,0.5,0,0.5,0c0,0,0.2,0,0.4,0c0.7,0,2.2,0.1,3.5,0.1c0.7,0,0.8-0.4,0.8-0.5C49.9,57.2,49.8,57,49.4,57z"/>
		<path d="M69.4,53.2c-0.4,0-0.5,0.4-0.6,0.7c-0.3,1.4-0.6,1.9-1.4,2.1c-0.8,0.2-1.8,0.3-2.8,0.3c-1.3,0-2.1-0.1-2.5-0.3
			c-0.6-0.2-0.8-0.7-0.9-2.1c0-0.5,0-2.5,0-4c0-0.6,0-1.1,0-1.4v-2.7c0.7,0,3.6,0.1,4.4,0.2c1.1,0.1,1.3,0.5,1.4,0.9
			c0.1,0.2,0.1,0.5,0.1,0.8c0,0.6,0.3,0.8,0.5,0.8c0.4,0,0.5-0.5,0.5-0.7c0-0.2,0-0.3,0-0.5c0-0.4,0-0.9,0.1-1.6
			c0.1-0.6,0.1-1.1,0.2-1.4c0-0.2,0.1-0.3,0.1-0.4c0-0.5-0.4-0.5-0.4-0.5c-0.2,0-0.4,0.2-0.6,0.4c-0.2,0.3-0.5,0.4-1.4,0.4
			c-0.5,0-2.9,0.1-4.9,0.1c0,0,0,0,0,0v-8.7c0,0,0,0,0,0c0.7,0,3.7,0,4.2,0.1c1.5,0.1,1.9,0.5,2,1c0.1,0.2,0.1,0.6,0.1,0.9
			c0,0.6,0.4,0.7,0.5,0.7c0.2,0,0.5-0.1,0.5-0.8c0-0.6,0.1-1.1,0.1-1.5l0-0.4c0-0.5,0.1-0.9,0.2-1.1c0-0.2,0.1-0.3,0.1-0.4
			c0-0.5-0.3-0.6-0.4-0.6c-0.2,0-0.3,0.1-0.5,0.2c0,0-0.3,0.1-1.3,0.2c-0.7,0-7,0-7.2,0c-2-0.1-2.8-0.1-3.6-0.1
			c-0.2,0-0.8,0-0.8,0.5c0,0.4,0.4,0.4,0.7,0.5c0.1,0,0.2,0,0.3,0c0.2,0,0.4,0,0.6,0.1c0.8,0.2,1.1,0.5,1.1,1.5
			c0.1,1,0.1,1.9,0.1,6.8v5.6c0,2.9,0,4.5-0.1,5.7c-0.1,2.5-0.5,2.6-0.9,2.7c-0.1,0-0.3,0.1-0.4,0.1l-0.2,0
			c-0.5,0.1-0.6,0.3-0.6,0.5c0,0.4,0.3,0.5,0.8,0.5h0c0.5,0,0.9,0,1.4,0c0.3,0,0.7,0,1,0c0.8,0,1.8,0,2.7,0.1c0.4,0,0.8,0,1.2,0
			c0.3,0,0.6,0,1,0c0.9,0,1.9,0.1,3.7,0.1c1.2,0,1.7,0,2-1c0.2-0.7,0.4-2.8,0.4-3.1C69.8,53.7,69.8,53.2,69.4,53.2z"/>
		<path d="M106.5,51.7c-0.5,0-0.5,0.4-0.6,0.7c-0.1,0.5-0.5,1.9-1.1,2.5c-1.3,1.3-3.3,1.5-5.3,1.5c-5.5,0-11.1-4.2-11.1-11.3
			c0-2.7,0.3-5.7,2.8-8.1c1.5-1.5,3.9-2.2,7.1-2.2c2.8,0,5.2,0.9,6.1,1.7c0.7,0.6,1.2,1.8,1.2,3c0,0.4,0,0.9,0.5,0.9
			c0.5,0,0.5-0.6,0.6-0.9c0-0.2,0-0.6,0-1.1c0-0.7,0-1.5,0.1-2.1c0-0.7,0.1-1.1,0.1-1.4c0-0.2,0-0.3,0-0.4c0-0.5-0.3-0.6-0.5-0.6
			c-0.3,0-0.7-0.1-1-0.1c-0.8-0.1-1.5-0.2-2.4-0.3c-1.9-0.3-3.9-0.4-4.6-0.4c-4.3,0-7.5,1.1-9.8,3.5C86,39.2,85,42.9,85,45.4
			c0,4,1.3,7.2,3.9,9.6c2.6,2.4,6,3.5,10.6,3.5c1.9,0,4.4-0.2,5.8-0.8c0.6-0.3,0.8-0.4,1-1.1c0.3-1.1,0.7-3.9,0.7-4.1
			C107,51.8,106.7,51.7,106.5,51.7z"/>
		<path d="M136.7,57.5c0-0.2-0.2-0.5-0.5-0.5c-0.3,0-0.9-0.1-1.4-0.1c-0.7-0.1-0.9-0.6-1-1.5c-0.2-1.3-0.2-3.9-0.2-6.8V43
			c0-4.9,0-5.8,0.1-6.8c0.1-1.1,0.3-1.4,0.9-1.5c0.4-0.1,0.6-0.1,0.7-0.1c0.3,0,0.5-0.2,0.5-0.5c0-0.5-0.6-0.5-0.8-0.5
			c-0.7,0-1.9,0-2.6,0.1c-0.3,0-0.5,0-0.5,0c0,0-0.2,0-0.4,0c-0.7,0-2.1-0.1-3.2-0.1c-0.5,0-0.8,0.2-0.8,0.5c0,0.3,0.2,0.5,0.5,0.5
			c0.3,0,0.8,0,1,0.1c0.8,0.2,1.1,0.5,1.1,1.5c0.1,1,0.1,1.9,0.1,6.8v0.6h-13.2V43c0-4.9,0-5.8,0.1-6.8c0.1-1.1,0.3-1.4,0.9-1.5
			c0.4-0.1,0.6-0.1,0.7-0.1c0.3,0,0.5-0.2,0.5-0.5c0-0.4-0.3-0.5-0.8-0.5c-0.7,0-1.9,0-2.6,0.1c-0.3,0-0.5,0-0.5,0c0,0-0.2,0-0.4,0
			c-0.7,0-2.1-0.1-3.2-0.1c-0.2,0-0.8,0-0.8,0.5c0,0.3,0.2,0.5,0.5,0.5c0.3,0,0.8,0,1,0.1c0.8,0.2,1.1,0.5,1.1,1.5
			c0.1,1,0.1,1.9,0.1,6.8v5.6c0,3,0,5.5-0.2,6.8c-0.1,0.9-0.3,1.4-0.7,1.5c-0.3,0.1-0.7,0.1-0.9,0.1c-0.4,0-0.5,0.2-0.5,0.5
			c0,0.4,0.3,0.5,0.8,0.5c0.7,0,1.9,0,2.6-0.1c0.3,0,0.5,0,0.5,0c0,0,0.2,0,0.4,0c0.7,0,2.2,0.1,3.5,0.1c0.7,0,0.8-0.4,0.8-0.5
			c0-0.2-0.2-0.5-0.5-0.5c-0.3,0-0.9-0.1-1.4-0.1c-0.7-0.1-0.9-0.6-1-1.5c-0.2-1.3-0.2-3.9-0.2-6.8v-3.2h13.2v3.2c0,3,0,5.5-0.2,6.8
			c-0.1,0.9-0.3,1.4-0.7,1.5c-0.3,0.1-0.7,0.1-0.9,0.1c-0.4,0-0.5,0.2-0.5,0.5c0,0.4,0.3,0.5,0.8,0.5c0.7,0,1.9,0,2.6-0.1
			c0.3,0,0.5,0,0.5,0c0,0,0.2,0,0.4,0c0.7,0,2.2,0.1,3.5,0.1C136.6,58,136.7,57.6,136.7,57.5z"/>
		<path d="M150.9,57.5c0-0.2-0.2-0.5-0.5-0.5c-0.3,0-0.9-0.1-1.4-0.1c-0.7-0.1-0.9-0.6-1-1.5c-0.2-1.3-0.2-3.9-0.2-6.8l0-0.7
			l3.8,0.1c0.1,0,0.1,0,0.2,0.1c0.3,0.3,0.7,0.9,1.2,1.6c0.7,0.9,1.5,2.1,2.3,3.1l0.4,0.5c1.6,2.1,2.6,3.5,4,4.2
			c0.9,0.5,1.7,0.6,3.5,0.6h2.2c0.4,0,1,0,1-0.5c0-0.3-0.3-0.5-0.6-0.5c-0.2,0-0.6,0-1.2-0.1c-0.8-0.1-2.1-0.5-3.7-2.2
			c-1.6-1.7-3.5-4.1-5.6-6.9l-0.8-1c2.5-2.4,3.7-4.7,3.7-7.3c0-2.3-1.4-3.9-2.3-4.5c-1.8-1.3-4-1.4-6-1.4c-0.6,0-1.8,0-2.7,0.1
			c-0.5,0-0.9,0-1.1,0c0,0-0.2,0-0.4,0c-0.7,0-2.1-0.1-3.2-0.1c-0.2,0-0.8,0-0.8,0.5c0,0.3,0.2,0.5,0.5,0.5c0.3,0,0.8,0,1,0.1
			c0.8,0.2,1.1,0.5,1.1,1.5c0.1,1,0.1,1.9,0.1,6.8v5.6c0,3,0,5.5-0.2,6.8c-0.1,0.9-0.3,1.4-0.7,1.5c-0.3,0.1-0.7,0.1-0.9,0.1
			c-0.4,0-0.5,0.2-0.5,0.5c0,0.4,0.3,0.5,0.8,0.5c0.8,0,2.3-0.1,2.8-0.1l0.1,0c0,0,0.2,0,0.4,0c0.7,0,2.2,0.1,3.5,0.1
			C150.8,58,150.9,57.6,150.9,57.5z M147.8,45.7V35.4c0-0.1,0-0.1,0.1-0.1c0.3-0.1,1.1-0.2,2-0.2c3.3,0,5.2,2.3,5.2,6
			c0,2.1-0.7,3.9-1.8,4.6c-0.7,0.5-1.6,0.6-2.2,0.6c-1.5,0-2.8-0.2-3.2-0.5C147.9,45.8,147.8,45.8,147.8,45.7z"/>
		<path d="M178.2,58.4c7.5,0,12.9-5.6,12.9-13.2c0-7.3-5.1-12.1-12.7-12.1c-9.3,0-12.7,7.8-12.7,12.7
			C165.7,51.9,169.6,58.4,178.2,58.4z M169.2,44.8c0-6.3,3.3-10.1,9-10.1c4.5,0,9.3,3.6,9.3,11.4c0,10.1-7,10.6-8.5,10.6
			C173.3,56.7,169.2,51.8,169.2,44.8z"/>
		<path d="M220,33.5c-0.9,0-1.6,0-2.1,0.1c-0.3,0-0.5,0-0.6,0c-0.1,0-0.4,0-0.7,0c-0.7,0-1.7-0.1-2.6-0.1c-0.3,0-0.9,0-0.9,0.5
			c0,0.2,0.1,0.5,0.7,0.5c0.2,0,0.7,0,1.3,0.1c0.7,0.2,1,0.6,1,2.7l0.3,15.3c-0.5-0.6-1.3-1.5-2.3-2.5c-1.4-1.6-3.2-3.5-4.8-5.2
			c-4.9-5.2-9.6-10.3-10.1-10.9c-0.1-0.1-0.2-0.2-0.3-0.3c-0.4-0.5-0.7-0.8-1-0.8c-0.6,0-0.6,0.7-0.6,1.9c0,2.9,0,3.5,0,4.6
			c0,1.2,0,2.9,0,8.9v4.7c0,2.8-0.2,3.6-0.8,3.8c-0.4,0.1-0.9,0.2-1.2,0.2c-0.4,0-0.5,0.2-0.5,0.5c0,0.5,0.6,0.5,0.8,0.5
			c1,0,1.9,0,2.5-0.1c0.3,0,0.4,0,0.5,0c0.1,0,0.2,0,0.5,0c0.6,0,1.6,0.1,2.9,0.1c0.2,0,0.8,0,0.8-0.5c0-0.2-0.2-0.5-0.5-0.5
			c-0.1,0-0.8,0-1.5-0.2c-0.6-0.2-1-0.8-1-3.4L199.4,39c1.4,1.6,4.6,5.1,7.8,8.5c3.4,3.6,7.9,8.3,8.3,8.6c1.8,1.8,2.1,2.1,2.5,2.1
			c0.5,0,0.6-0.4,0.6-2.5l0.1-18.5c0-2.3,0.3-2.4,0.9-2.6l0.1,0c0.3-0.1,0.5-0.1,0.7-0.1c0.5-0.1,0.6-0.3,0.6-0.5
			C220.9,33.5,220.3,33.5,220,33.5z"/>
		<path d="M234.5,57c-0.2,0-0.8-0.1-1.3-0.1c-0.7-0.1-0.9-0.6-1-1.5c-0.2-1.3-0.2-3.9-0.2-6.8V43c0-4.9,0-5.8,0.1-6.8
			c0.1-1.1,0.3-1.4,0.9-1.5c0.4-0.1,0.6-0.1,0.7-0.1c0.3,0,0.5-0.2,0.5-0.5c0-0.4-0.3-0.5-0.8-0.5c-0.7,0-1.9,0-2.6,0.1
			c-0.3,0-0.5,0-0.5,0c0,0-0.2,0-0.5,0c-0.7,0-1.9-0.1-2.7-0.1c-0.5,0-0.8,0.2-0.8,0.5c0,0.3,0.2,0.5,0.5,0.5c0.2,0,0.6,0,0.9,0.1
			c0.4,0.1,0.8,0.3,0.9,1.5c0.1,1,0.1,1.9,0.1,6.8v5.6c0,3,0,5.5-0.2,6.8c-0.1,1-0.3,1.5-0.7,1.5c-0.3,0.1-0.6,0.1-0.8,0.1
			c-0.6,0-0.6,0.4-0.6,0.5c0,0.4,0.3,0.5,0.8,0.5c0.7,0,1.9,0,2.6-0.1c0.3,0,0.5,0,0.5,0c0,0,0.2,0,0.4,0c0.7,0,2.2,0.1,3.5,0.1
			c0.7,0,0.8-0.3,0.8-0.5C235.2,57.4,235.1,57,234.5,57z"/>
		<path d="M260.8,51.7c-0.5,0-0.5,0.4-0.6,0.7c-0.1,0.5-0.5,1.9-1.1,2.5c-1.3,1.3-3.3,1.5-5.3,1.5c-5.5,0-11.1-4.2-11.1-11.3
			c0-2.7,0.3-5.7,2.8-8.1c1.5-1.5,3.9-2.2,7.1-2.2c2.8,0,5.2,0.9,6.1,1.7c0.7,0.6,1.2,1.8,1.2,3c0,0.4,0,0.9,0.5,0.9
			c0.5,0,0.5-0.6,0.6-0.9c0-0.2,0-0.6,0-1.1c0-0.7,0-1.5,0.1-2.1c0-0.7,0.1-1.1,0.1-1.4c0-0.2,0-0.3,0-0.4c0-0.5-0.3-0.6-0.5-0.6
			c-0.3,0-0.6-0.1-1-0.1c-0.8-0.1-1.5-0.2-2.4-0.3c-1.9-0.3-3.9-0.4-4.6-0.4c-4.3,0-7.5,1.1-9.8,3.5c-2.7,2.7-3.6,6.3-3.6,8.8
			c0,4,1.3,7.2,3.9,9.6c2.6,2.4,6,3.5,10.6,3.5c1.9,0,4.4-0.2,5.8-0.8c0.6-0.3,0.8-0.4,1-1.1c0.3-1.1,0.7-3.9,0.7-4.1
			C261.3,51.8,260.9,51.7,260.8,51.7z"/>
		<path d="M280.5,53c-0.3,0-0.5,0.2-0.6,0.6c-0.1,0.6-0.4,1.3-0.8,1.8c-0.7,0.8-1.9,0.8-3.6,0.8c-2.5,0-3.2-0.2-3.6-0.6
			c-0.5-0.5-0.6-2.9-0.6-7V43c0-4.9,0-5.8,0.1-6.8c0.1-1.1,0.3-1.4,1-1.5c0.4-0.1,0.8-0.1,1-0.1c0.3,0,0.5-0.2,0.5-0.5
			c0-0.5-0.6-0.5-0.8-0.5c-0.7,0-2,0-2.8,0.1c-0.3,0-0.5,0-0.6,0c0,0-0.2,0-0.4,0c-0.7,0-2.1-0.1-3.2-0.1c-0.5,0-0.8,0.2-0.8,0.5
			c0,0.3,0.2,0.5,0.5,0.5c0.3,0,0.8,0,1,0.1c0.8,0.2,1.1,0.5,1.1,1.5c0.1,1,0.1,1.9,0.1,6.8v5.6c0,3,0,5.5-0.2,6.8
			c-0.1,0.9-0.3,1.4-0.7,1.5c-0.3,0.1-0.7,0.1-0.9,0.1c-0.4,0-0.5,0.2-0.5,0.5c0,0.4,0.3,0.5,0.8,0.5c0.6,0,1.2,0,1.7-0.1
			c2.1-0.1,4,0,5.9,0.1c1.4,0,2.7,0.1,4,0.1c1.7,0,2-0.1,2.3-1.1c0.3-0.9,0.5-2.9,0.5-3.2C281,53.5,281,53,280.5,53z"/>
		<path d="M298.4,53.2c-0.4,0-0.5,0.4-0.6,0.7c-0.3,1.4-0.6,1.9-1.4,2.1c-0.8,0.2-1.8,0.3-2.8,0.3c-1.3,0-2.1-0.1-2.5-0.3
			c-0.6-0.2-0.8-0.7-0.9-2.1c0-0.5,0-2.5,0-4l0-4.1c0.7,0,3.6,0.1,4.4,0.2c1.1,0.1,1.3,0.5,1.4,0.9c0.1,0.2,0.1,0.5,0.1,0.8
			c0,0.6,0.3,0.8,0.5,0.8c0.4,0,0.5-0.5,0.5-0.7c0-0.1,0-0.3,0-0.5c0-0.4,0-1,0.1-1.6c0.1-0.6,0.1-1.1,0.2-1.4
			c0-0.2,0.1-0.3,0.1-0.4c0-0.5-0.4-0.5-0.4-0.5c-0.2,0-0.4,0.2-0.6,0.4c-0.2,0.3-0.5,0.4-1.4,0.4c-0.5,0-2.9,0.1-4.9,0.1
			c0,0,0,0,0,0v-8.7c0,0,0,0,0,0c0.7,0,3.7,0,4.2,0.1c1.5,0.1,1.9,0.5,2,1c0.1,0.2,0.1,0.6,0.1,0.9c0,0.6,0.4,0.7,0.5,0.7
			c0.2,0,0.5-0.1,0.5-0.8c0-0.6,0.1-1,0.1-1.4l0-0.5c0-0.5,0.1-0.9,0.2-1.1c0-0.2,0.1-0.3,0.1-0.4c0-0.5-0.3-0.6-0.4-0.6
			c-0.2,0-0.3,0.1-0.5,0.2c0,0-0.3,0.1-1.3,0.2c-0.7,0-7,0-7.2,0c-2-0.1-2.8-0.1-3.6-0.1c-0.2,0-0.8,0-0.8,0.5
			c0,0.4,0.4,0.4,0.7,0.5c0.1,0,0.2,0,0.3,0c0.2,0,0.4,0,0.6,0.1c0.8,0.2,1.1,0.5,1.1,1.5c0.1,1,0.1,1.9,0.1,6.8v5.6
			c0,2.8,0,4.4-0.1,5.7c-0.1,2.5-0.5,2.6-0.9,2.7c-0.1,0-0.3,0-0.5,0.1l-0.2,0c-0.5,0.1-0.6,0.3-0.6,0.5c0,0.4,0.3,0.5,0.8,0.5h0
			c0.5,0,0.9,0,1.4,0c0.3,0,0.7,0,1,0c0.8,0,1.8,0,2.7,0.1c0.4,0,0.8,0,1.2,0c0.3,0,0.6,0,1,0c0.9,0,1.9,0.1,3.7,0.1
			c1.2,0,1.7,0,2-1c0.2-0.7,0.4-2.8,0.4-3.1C298.8,53.7,298.8,53.2,298.4,53.2z"/>
		<path d="M97.8,66.5c-0.5,0-0.9,0.1-1.4,0.4c-0.4,0.3-0.8,0.6-1,1.2c-0.3,0.5-0.4,1.1-0.4,1.6c0,0.7,0.2,1.4,0.7,2
			c0.5,0.7,1.2,1,2.1,1c0.5,0,1-0.1,1.5-0.4c0.4-0.3,0.8-0.7,1-1.2c0.2-0.5,0.4-1.1,0.4-1.6c0-0.7-0.2-1.4-0.7-2
			C99.4,66.9,98.7,66.5,97.8,66.5z M99.1,71.7c-0.3,0.3-0.6,0.5-1,0.5c-0.5,0-1-0.3-1.3-0.9c-0.3-0.6-0.5-1.3-0.5-2.2
			c0-0.5,0.1-1,0.2-1.3c0.1-0.3,0.3-0.6,0.5-0.7c0.2-0.1,0.5-0.2,0.7-0.2c0.5,0,0.8,0.2,1.1,0.6c0.4,0.6,0.7,1.4,0.7,2.4
			C99.5,70.8,99.3,71.4,99.1,71.7z"/>
		<path d="M105.3,63.5c-0.5,0-0.9,0.1-1.3,0.4c-0.4,0.2-0.7,0.6-0.9,1c-0.2,0.4-0.3,0.9-0.3,1.5v0.4h-1.1v0.5h1.1V71
			c0,0.4,0,0.7-0.1,0.8c-0.1,0.1-0.1,0.3-0.3,0.3c-0.1,0.1-0.3,0.1-0.5,0.1h-0.3v0.2h3.5v-0.2h-0.5c-0.3,0-0.5-0.1-0.6-0.3
			c-0.1-0.1-0.2-0.5-0.2-1v-3.8h1.5v-0.5h-1.5v-0.4c0-0.9,0-1.5,0.1-1.7c0.1-0.2,0.2-0.4,0.3-0.5c0.1-0.1,0.3-0.2,0.5-0.2
			c0.2,0,0.3,0,0.4,0.1c0.1,0.1,0.3,0.2,0.4,0.5c0.2,0.2,0.3,0.4,0.4,0.4c0.1,0.1,0.2,0.1,0.3,0.1c0.1,0,0.2-0.1,0.4-0.2
			c0.1-0.1,0.2-0.2,0.2-0.4c0-0.2-0.1-0.4-0.4-0.6C106.1,63.6,105.7,63.5,105.3,63.5z"/>
		<path d="M114.5,64.1h0.3c0.2,0,0.4,0.1,0.6,0.2c0.1,0.1,0.2,0.2,0.3,0.3c0.1,0.1,0.1,0.4,0.1,0.9v2.5h-4v-2.5c0-0.4,0-0.7,0.1-0.8
			c0.1-0.1,0.1-0.2,0.3-0.3c0.2-0.1,0.4-0.1,0.6-0.1h0.3v-0.2h-3.7v0.2h0.3c0.2,0,0.4,0.1,0.6,0.2c0.1,0.1,0.2,0.2,0.3,0.3
			c0.1,0.1,0.1,0.4,0.1,0.9V71c0,0.5-0.1,0.8-0.2,1c-0.2,0.2-0.4,0.3-0.8,0.3h-0.3v0.2h3.7v-0.2h-0.3c-0.2,0-0.4-0.1-0.6-0.2
			c-0.1-0.1-0.2-0.2-0.3-0.3c-0.1-0.1-0.1-0.4-0.1-0.9v-2.6h4V71c0,0.5-0.1,0.8-0.2,1c-0.2,0.2-0.4,0.3-0.8,0.3h-0.3v0.2h3.7v-0.2
			h-0.3c-0.2,0-0.4-0.1-0.6-0.2c-0.1-0.1-0.2-0.2-0.3-0.3c-0.1-0.1-0.1-0.4-0.1-0.9v-5.5c0-0.4,0-0.7,0.1-0.8c0-0.1,0.1-0.2,0.3-0.3
			c0.2-0.1,0.4-0.1,0.6-0.1h0.3v-0.2h-3.7V64.1z"/>
		<path d="M120.9,64.6c0.1-0.1,0.2-0.3,0.2-0.5c0-0.2-0.1-0.3-0.2-0.5c-0.1-0.1-0.3-0.2-0.5-0.2c-0.2,0-0.3,0.1-0.5,0.2
			s-0.2,0.3-0.2,0.5c0,0.2,0.1,0.3,0.2,0.5c0.1,0.1,0.3,0.2,0.5,0.2C120.6,64.8,120.7,64.7,120.9,64.6z"/>
		<path d="M121,71.9c-0.1-0.1-0.1-0.4-0.1-0.7v-4.7h-0.3l-1.7,0.7l0.1,0.2c0.2-0.1,0.3-0.1,0.4-0.1c0.1,0,0.2,0,0.3,0.1
			c0.1,0.1,0.1,0.1,0.1,0.3c0,0.2,0.1,0.6,0.1,1.2v2.2c0,0.4,0,0.6-0.1,0.7c-0.1,0.1-0.1,0.2-0.2,0.3c-0.1,0.1-0.3,0.1-0.6,0.1v0.2
			h2.8v-0.2c-0.3,0-0.5,0-0.6-0.1C121.1,72.1,121.1,72,121,71.9z"/>
		<path d="M128.4,66.9c0,0-0.1,0-0.3,0h-1.2c-0.4-0.3-0.9-0.4-1.4-0.4c-0.7,0-1.2,0.2-1.7,0.6c-0.4,0.4-0.6,0.9-0.6,1.5
			c0,0.4,0.1,0.7,0.3,1c0.2,0.3,0.5,0.6,0.8,0.7c-0.4,0.4-0.7,0.6-0.8,0.8c-0.1,0.2-0.2,0.4-0.2,0.5c0,0.1,0,0.2,0.1,0.4
			c0.1,0.1,0.2,0.2,0.5,0.4c-0.4,0.4-0.6,0.6-0.6,0.7c-0.2,0.3-0.4,0.5-0.4,0.7c0,0.1-0.1,0.2-0.1,0.3c0,0.2,0.2,0.4,0.5,0.7
			c0.6,0.4,1.2,0.6,2.1,0.6c1.1,0,1.9-0.3,2.6-0.9c0.4-0.4,0.7-0.9,0.7-1.3c0-0.3-0.1-0.6-0.4-0.9c-0.2-0.2-0.5-0.4-0.9-0.4
			c-0.3,0-0.8-0.1-1.7-0.1c-0.5,0-0.8,0-0.9,0c-0.2,0-0.3-0.1-0.4-0.1c-0.1-0.1-0.1-0.1-0.1-0.2c0-0.1,0-0.2,0.1-0.3
			c0.1-0.1,0.2-0.3,0.4-0.4c0.3,0.1,0.6,0.1,0.9,0.1c0.7,0,1.3-0.2,1.7-0.6c0.4-0.4,0.6-0.8,0.6-1.4c0-0.5-0.1-0.9-0.4-1.2h0.8
			c0.2,0,0.3,0,0.3,0c0,0,0.1,0,0.1-0.1c0,0,0-0.1,0-0.2C128.5,67.1,128.5,67,128.4,66.9C128.5,67,128.4,67,128.4,66.9z M124.1,72.5
			c0.5,0.1,1.2,0.1,2.2,0.1c0.7,0,1.1,0.1,1.3,0.2c0.2,0.1,0.3,0.2,0.3,0.5c0,0.3-0.2,0.6-0.5,0.9c-0.4,0.3-0.9,0.4-1.7,0.4
			c-0.8,0-1.4-0.1-1.8-0.4c-0.2-0.2-0.4-0.3-0.4-0.5c0-0.2,0.1-0.3,0.2-0.5C123.8,72.9,123.9,72.7,124.1,72.5z M126.3,70
			c-0.2,0.2-0.5,0.4-0.8,0.4c-0.3,0-0.6-0.1-0.8-0.4c-0.3-0.4-0.4-0.9-0.4-1.6c0-0.5,0.1-0.9,0.3-1.1c0.2-0.2,0.5-0.4,0.8-0.4
			c0.3,0,0.6,0.1,0.8,0.4c0.3,0.4,0.4,0.9,0.4,1.6C126.6,69.3,126.5,69.7,126.3,70z"/>
		<path d="M134.5,71.9c-0.1-0.1-0.1-0.4-0.1-0.8v-2.1c0-0.7,0-1.2-0.1-1.5c-0.1-0.4-0.3-0.7-0.5-0.9c-0.2-0.2-0.5-0.3-0.8-0.3
			c-0.3,0-0.5,0.1-0.8,0.2c-0.3,0.1-0.6,0.5-1.1,1v-4.2h-0.3l-1.7,0.7l0.1,0.2c0.2-0.1,0.3-0.1,0.4-0.1c0.1,0,0.2,0,0.3,0.1
			c0.1,0.1,0.1,0.2,0.1,0.3c0,0.2,0,0.6,0,1.2v5.2c0,0.4,0,0.6-0.1,0.7c-0.1,0.1-0.1,0.2-0.2,0.2c-0.1,0.1-0.4,0.1-0.6,0.1v0.2h2.9
			v-0.2c-0.3,0-0.5,0-0.6-0.1c-0.1-0.1-0.2-0.1-0.2-0.2c0-0.1-0.1-0.3-0.1-0.7v-3.1c0.3-0.3,0.6-0.6,0.8-0.7
			c0.2-0.1,0.4-0.2,0.6-0.2c0.2,0,0.4,0,0.5,0.1c0.1,0.1,0.2,0.2,0.3,0.4c0.1,0.2,0.1,0.6,0.1,1.2v2.1c0,0.3,0,0.5,0,0.6
			c0,0.2-0.1,0.3-0.2,0.4c-0.1,0.1-0.3,0.1-0.6,0.1h-0.1v0.2h2.8v-0.2c-0.3,0-0.5,0-0.6-0.1C134.6,72.1,134.5,72,134.5,71.9z"/>
		<path d="M140.2,67.2c-0.4-0.4-1-0.6-1.6-0.6c-0.8,0-1.4,0.3-1.9,0.8c-0.5,0.6-0.8,1.3-0.8,2.3c0,0.9,0.2,1.6,0.7,2.2
			c0.5,0.5,1.1,0.8,1.8,0.8c0.6,0,1.2-0.2,1.6-0.7c0.4-0.5,0.7-1,0.8-1.6l-0.2-0.1c-0.2,0.5-0.4,0.9-0.7,1.1c-0.3,0.2-0.6,0.3-1,0.3
			c-0.6,0-1.1-0.2-1.5-0.7c-0.4-0.5-0.6-1.2-0.6-2h4C140.9,68.2,140.7,67.6,140.2,67.2z M136.9,68.5c0-0.5,0.2-0.9,0.5-1.1
			c0.3-0.3,0.6-0.4,0.9-0.4c0.2,0,0.4,0.1,0.7,0.2c0.2,0.1,0.4,0.3,0.5,0.6c0.1,0.2,0.1,0.4,0.1,0.8H136.9z"/>
		<path d="M145,66.5c-0.5,0-1,0.4-1.5,1.3v-1.3h-0.3l-1.8,0.7l0.1,0.2c0.2-0.1,0.3-0.1,0.4-0.1c0.1,0,0.2,0,0.3,0.1
			c0.1,0.1,0.1,0.2,0.2,0.3c0,0.1,0,0.5,0,1.2v2.2c0,0.3,0,0.5,0,0.6c0,0.1-0.1,0.3-0.2,0.3c-0.1,0.1-0.4,0.1-0.7,0.1v0.2h3v-0.2
			c-0.3,0-0.5,0-0.6-0.1c-0.1-0.1-0.2-0.2-0.3-0.3c-0.1-0.2-0.1-0.4-0.1-0.7v-2.8c0.2-0.4,0.4-0.7,0.6-0.9c0.1-0.1,0.2-0.1,0.2-0.1
			c0.1,0,0.2,0.1,0.4,0.2c0.2,0.1,0.3,0.2,0.5,0.2c0.2,0,0.3-0.1,0.4-0.2c0.1-0.1,0.2-0.3,0.2-0.4c0-0.2-0.1-0.3-0.2-0.5
			C145.4,66.6,145.2,66.5,145,66.5z"/>
		<path d="M155.7,71.5c-0.2,0.2-0.4,0.3-0.6,0.4c-0.2,0.1-0.6,0.1-1.1,0.1h-1.5c-0.2,0-0.4,0-0.5-0.1c-0.1,0-0.1-0.1-0.2-0.2
			c0-0.1-0.1-0.3-0.1-0.7v-2.8h1.9c0.4,0,0.6,0,0.8,0.1c0.2,0.1,0.3,0.2,0.4,0.3c0.1,0.1,0.1,0.4,0.2,0.8h0.2v-3h-0.2
			c0,0.5-0.1,0.8-0.4,1c-0.2,0.1-0.5,0.2-1,0.2h-1.9v-3.4h2.4c0.4,0,0.7,0,0.9,0.1c0.2,0.1,0.4,0.2,0.5,0.4c0.1,0.2,0.2,0.5,0.3,0.9
			h0.2l-0.1-1.9h-6.6v0.2h0.3c0.4,0,0.6,0.1,0.8,0.3c0.1,0.1,0.2,0.5,0.2,1V71c0,0.4,0,0.7-0.1,0.8c0,0.1-0.1,0.2-0.3,0.3
			c-0.2,0.1-0.4,0.1-0.6,0.1h-0.3v0.2h6.6l0.7-2.2h-0.3C156.3,70.9,156,71.3,155.7,71.5z"/>
		<path d="M163.2,71.8c-0.1,0-0.2,0-0.2-0.1c-0.1-0.1-0.1-0.2-0.2-0.3c0-0.1,0-0.6,0-1.2v-6.7h-0.3l-1.7,0.7l0.1,0.2
			c0.2-0.1,0.3-0.1,0.4-0.1c0.1,0,0.2,0,0.3,0.1c0.1,0.1,0.1,0.2,0.1,0.3c0,0.2,0,0.6,0,1.2V67c-0.3-0.3-0.8-0.5-1.3-0.5
			c-0.8,0-1.5,0.3-2,1c-0.5,0.7-0.8,1.5-0.8,2.3c0,0.8,0.2,1.5,0.7,2c0.5,0.5,1,0.8,1.7,0.8c0.3,0,0.6-0.1,0.9-0.2
			c0.3-0.1,0.5-0.3,0.8-0.6v0.8h0.3l1.7-0.7l-0.1-0.2C163.5,71.8,163.3,71.8,163.2,71.8z M161.7,71.4c-0.4,0.4-0.7,0.6-1.1,0.6
			c-0.5,0-0.9-0.2-1.2-0.7c-0.4-0.5-0.6-1.1-0.6-2c0-0.8,0.2-1.5,0.6-1.9c0.3-0.3,0.6-0.5,1-0.5c0.2,0,0.4,0.1,0.6,0.2
			c0.2,0.1,0.4,0.3,0.5,0.5c0.1,0.2,0.2,0.5,0.2,0.8V71.4z"/>
		<path d="M169.8,71.8c-0.1,0-0.2,0-0.2-0.1c-0.1-0.1-0.1-0.2-0.2-0.3c0-0.1,0-0.6,0-1.2v-3.5h-2v0.2c0.4,0,0.6,0.1,0.7,0.2
			c0.1,0.1,0.2,0.3,0.2,0.7v3.3c-0.3,0.3-0.6,0.5-0.8,0.7s-0.4,0.2-0.6,0.2c-0.3,0-0.5-0.1-0.7-0.3c-0.2-0.2-0.3-0.5-0.3-1.1v-3.9
			h-2v0.2c0.3,0,0.5,0,0.6,0.1c0.1,0.1,0.2,0.1,0.3,0.2c0.1,0.1,0.1,0.3,0.1,0.6v2.6c0,0.5,0,1,0.1,1.3c0.1,0.3,0.3,0.5,0.5,0.7
			c0.2,0.2,0.5,0.3,0.8,0.3c0.3,0,0.6-0.1,0.8-0.2c0.3-0.1,0.6-0.5,1.1-1v1.2h0.3l1.7-0.7l-0.1-0.2
			C170.1,71.8,169.9,71.8,169.8,71.8z"/>
		<path d="M174.9,71.3c-0.3,0.3-0.7,0.4-1.1,0.4c-0.6,0-1-0.3-1.4-0.8c-0.3-0.5-0.5-1.1-0.5-1.8c0-0.7,0.2-1.2,0.5-1.6
			c0.3-0.3,0.6-0.5,1-0.5c0.3,0,0.5,0.1,0.6,0.2c0.1,0.1,0.2,0.3,0.3,0.6c0,0.2,0.1,0.4,0.1,0.5c0.1,0.2,0.3,0.2,0.6,0.2
			c0.2,0,0.3,0,0.4-0.1c0.1-0.1,0.2-0.2,0.2-0.4c0-0.3-0.2-0.6-0.6-0.9c-0.4-0.3-0.8-0.5-1.4-0.5c-0.8,0-1.4,0.3-2,0.9
			c-0.5,0.6-0.8,1.3-0.8,2.2c0,0.9,0.2,1.7,0.7,2.2c0.5,0.6,1.1,0.8,1.7,0.8c0.6,0,1.1-0.2,1.5-0.6c0.5-0.4,0.8-1,0.9-1.8l-0.2-0.1
			C175.4,70.7,175.2,71.1,174.9,71.3z"/>
		<path d="M181.4,71.8c-0.1,0-0.1,0-0.2-0.1c0,0-0.1-0.1-0.1-0.3c0-0.1,0-0.5,0-1v-2c0-0.6,0-0.9-0.1-1.1c-0.1-0.3-0.3-0.5-0.6-0.6
			c-0.3-0.2-0.8-0.3-1.3-0.3c-0.7,0-1.2,0.2-1.6,0.5c-0.4,0.3-0.6,0.6-0.6,1c0,0.2,0,0.3,0.1,0.4c0.1,0.1,0.2,0.2,0.4,0.2
			c0.2,0,0.3-0.1,0.4-0.2c0.1-0.1,0.1-0.3,0.1-0.4l0-0.4c0-0.2,0.1-0.4,0.2-0.5c0.2-0.1,0.4-0.2,0.6-0.2c0.4,0,0.6,0.1,0.8,0.3
			c0.2,0.2,0.3,0.6,0.3,1.2v0.2c-1,0.4-1.7,0.7-2.1,0.9c-0.4,0.3-0.7,0.5-0.9,0.8c-0.1,0.2-0.2,0.5-0.2,0.7c0,0.4,0.1,0.8,0.4,1.1
			c0.3,0.3,0.6,0.4,1,0.4c0.3,0,0.5-0.1,0.7-0.2c0.2-0.1,0.5-0.3,1.1-0.8c0,0.3,0.1,0.6,0.2,0.7c0.1,0.1,0.3,0.2,0.5,0.2
			c0.4,0,0.9-0.3,1.4-0.9v-0.4c-0.3,0.3-0.4,0.4-0.5,0.5C181.5,71.8,181.4,71.8,181.4,71.8z M180,71.2c-0.5,0.4-0.9,0.6-1.3,0.6
			c-0.2,0-0.4-0.1-0.6-0.3s-0.3-0.5-0.3-0.8c0-0.2,0.1-0.5,0.2-0.7c0.1-0.2,0.4-0.4,0.7-0.6c0.2-0.1,0.6-0.3,1.2-0.5V71.2z"/>
		<path d="M185.3,71.7c-0.1,0.1-0.3,0.1-0.4,0.1c-0.2,0-0.3-0.1-0.4-0.2c-0.1-0.1-0.2-0.4-0.2-0.8v-3.8h1.4v-0.4h-1.4v-1.9h-0.2
			c-0.2,0.4-0.3,0.7-0.4,0.9c-0.2,0.3-0.4,0.6-0.6,0.8c-0.2,0.2-0.5,0.4-0.7,0.5v0.2h0.9V71c0,0.4,0,0.7,0.1,0.9
			c0.1,0.2,0.2,0.4,0.4,0.5c0.2,0.1,0.4,0.2,0.6,0.2c0.3,0,0.6-0.1,0.8-0.3c0.3-0.2,0.5-0.5,0.6-0.9h-0.2
			C185.5,71.5,185.4,71.6,185.3,71.7z"/>
		<path d="M187.4,63.7c-0.1,0.1-0.2,0.3-0.2,0.5c0,0.2,0.1,0.3,0.2,0.5c0.1,0.1,0.3,0.2,0.5,0.2c0.2,0,0.3-0.1,0.5-0.2
			c0.1-0.1,0.2-0.3,0.2-0.5c0-0.2-0.1-0.3-0.2-0.5c-0.1-0.1-0.3-0.2-0.5-0.2C187.7,63.5,187.5,63.6,187.4,63.7z"/>
		<path d="M188.4,71.9c-0.1-0.1-0.1-0.4-0.1-0.7v-4.7h-0.3l-1.7,0.7l0.1,0.2c0.2-0.1,0.3-0.1,0.4-0.1c0.1,0,0.2,0,0.3,0.1
			c0.1,0.1,0.1,0.1,0.1,0.3c0,0.2,0.1,0.6,0.1,1.2v2.2c0,0.4,0,0.6-0.1,0.7c-0.1,0.1-0.1,0.2-0.2,0.3c-0.1,0.1-0.3,0.1-0.6,0.1v0.2
			h2.8v-0.2c-0.3,0-0.5,0-0.6-0.1C188.6,72.1,188.5,72,188.4,71.9z"/>
		<path d="M192.9,66.5c-0.5,0-0.9,0.1-1.4,0.4c-0.4,0.3-0.8,0.6-1,1.2c-0.3,0.5-0.4,1.1-0.4,1.6c0,0.7,0.2,1.4,0.7,2
			c0.5,0.7,1.2,1,2.1,1c0.5,0,1-0.1,1.5-0.4c0.4-0.3,0.8-0.7,1-1.2c0.2-0.5,0.4-1.1,0.4-1.6c0-0.7-0.2-1.4-0.7-2
			C194.5,66.9,193.8,66.5,192.9,66.5z M194.1,71.7c-0.3,0.3-0.6,0.5-1,0.5c-0.5,0-1-0.3-1.3-0.9c-0.3-0.6-0.5-1.3-0.5-2.2
			c0-0.5,0.1-1,0.2-1.3c0.1-0.3,0.3-0.6,0.5-0.7c0.2-0.1,0.5-0.2,0.7-0.2c0.5,0,0.8,0.2,1.1,0.6c0.4,0.6,0.7,1.4,0.7,2.4
			C194.5,70.8,194.4,71.4,194.1,71.7z"/>
		<path d="M201.9,71.9c-0.1-0.1-0.1-0.4-0.1-0.7v-2.5c0-0.5,0-0.9-0.1-1.2c-0.1-0.4-0.3-0.6-0.5-0.8c-0.2-0.2-0.5-0.2-0.8-0.2
			c-0.6,0-1.3,0.4-1.9,1.2v-1.2h-0.3l-1.7,0.7l0.1,0.2c0.2-0.1,0.3-0.1,0.4-0.1c0.1,0,0.2,0,0.3,0.1c0.1,0.1,0.1,0.2,0.1,0.3
			c0,0.2,0,0.6,0,1.3v2.2c0,0.4-0.1,0.7-0.2,0.9c-0.1,0.1-0.3,0.2-0.6,0.2h-0.1v0.2h2.9v-0.2c-0.3,0-0.5,0-0.6-0.1
			c-0.1-0.1-0.2-0.1-0.2-0.3c0-0.1-0.1-0.3-0.1-0.7v-3.1c0.5-0.5,1-0.8,1.5-0.8c0.3,0,0.6,0.1,0.7,0.4c0.1,0.2,0.2,0.6,0.2,1.1v2.4
			c0,0.3,0,0.5,0,0.6c0,0.2-0.1,0.3-0.2,0.4c-0.1,0.1-0.3,0.1-0.6,0.1h-0.1v0.2h2.9v-0.2c-0.3,0-0.5,0-0.6-0.1
			C202,72.1,202,72,201.9,71.9z"/>
	</g>
</g>
</svg>
