<?xml version="1.0" encoding="utf-8"?>
<!-- Generator: Adobe Illustrator 18.0.0, SVG Export Plug-In . SVG Version: 6.00 Build 0)  -->
<!DOCTYPE svg PUBLIC "-//W3C//DTD SVG 1.1//EN" "http://www.w3.org/Graphics/SVG/1.1/DTD/svg11.dtd">
<svg version="1.1" xmlns="http://www.w3.org/2000/svg" xmlns:xlink="http://www.w3.org/1999/xlink" x="0px" y="0px"
	 viewBox="0 0 300 100" style="enable-background:new 0 0 300 100;" xml:space="preserve">
<style type="text/css">
	.st0{fill-rule:evenodd;clip-rule:evenodd;}
	.st1{fill-rule:evenodd;clip-rule:evenodd;fill:#C038F9;}
	.st2{fill:none;}
	.st3{fill-rule:evenodd;clip-rule:evenodd;fill:#231F20;}
</style>
<g id="Layer_2">
	<g>
		<g>
			<path d="M11.6,56.4V30.8l-3.8-1.3v-0.9h12.8v0.9c0,0-3.8,1.3-3.7,1.3v25.6c0,4.2-1.1,6.2-1.5,7c-2.2,4.1-4.7,5.6-6.5,7.1l-1-0.6
				c0.4-0.6,2-4.1,2.4-5.5C10.6,63.6,11.6,60.7,11.6,56.4z"/>
			<path d="M30.9,38.1c0,0.2,0,7.4,0,12.4c0,4.8,0.4,6.8,3.2,6.8c0.3,0,2.2,0,3.8-2c1.2-1.5,1.2-2.8,1.3-5.5c0.1-4.3,0-9,0-9.2
				l-3.1-1v-1l8.4-0.4c0,0.2-0.1,12.9,0,18.2l3.4,0.9v0.9c-1.8,0-8.2,0.8-8.2,0.8l-0.3-3c-1,1.2-3.3,3.1-6.4,3.2
				c-5.2,0-7.3-1.3-7.3-7.1c0-4.5,0-11.5,0-11.5s-3.1-1.1-3.1-1.1v-0.9C23.5,38.5,30.9,38.1,30.9,38.1z"/>
			<path d="M57.9,38.5v0.9l-2.5,1.1c-0.1,0,4.9,12.2,4.9,12.2s5.2-12.5,5.2-12.5l-2.4-0.7v-0.9h7.8v0.9l-2.3,0.8c0,0-8.8,19-8.8,19
				h-2c0,0-8.2-18.5-8.2-18.5l-3-1.3v-0.9H57.9z"/>
			<path d="M82.5,57.4c1.4,0,3.5-0.5,6.6-3.5l1,1.2c-2,2.3-4.2,4.1-8,4.2c-6.8,0.1-11.3-3.6-11-11.5c0.3-6.4,4.8-10.4,10.9-10.1
				c5.8,0.3,8.6,5.2,8.3,10.3H76.8C76.7,51.9,76.9,57.2,82.5,57.4z M85.3,46.2c0-3.3-0.9-6.9-3.4-7.1c-3.4-0.3-4.6,3.9-5,7.1H85.3z"
				/>
			<path d="M91.6,39.6v-0.9l8-0.8l0.4,3.2c0.8-1,2.6-3.7,7.2-3.7c7.1,0.1,6.8,3.6,6.8,8.9v10.1l3.5,1.1v0.9h-12.1v-0.9l3.2-1.1
				c0,0,0-8.5,0-8.5c0-3.5,0-5.1-0.4-6.3c-0.6-1.5-1.4-2.1-3.3-2.1c-1.3,0-3.3,1.3-4.1,3.6c-0.5,1.3-0.6,2.1-0.6,4.4v9l3,1.1v0.9
				H91.8v-0.9l3.1-1.1V40.5L91.6,39.6z"/>
			<path d="M118.3,39.5v-0.9l8.5-0.7v18.5l3.1,1.1v0.9h-11.3v-0.9l3.1-1.1v-16L118.3,39.5z M126.9,30.1c0,1.5-1.4,3-3,3
				c-1.6,0-3-1.5-3-3c0-1.5,1.4-3,3-3C125.5,27.2,126.9,28.7,126.9,30.1z"/>
			<path d="M131.3,26.9V26l8.6-0.7c0,0,0,31.1,0,31l3.3,1.2v0.9h-11.6v-0.9c0,0,3.3-1.2,3.2-1.2c0,0,0-28.6,0-28.6L131.3,26.9z"/>
			<path d="M155.9,57.4c1.4,0,3.5-0.5,6.6-3.5l1,1.2c-2,2.3-4.2,4.1-8,4.2c-6.8,0.1-11.3-3.6-11-11.5c0.3-6.4,4.8-10.4,10.9-10.1
				c5.8,0.3,8.6,5.2,8.3,10.3h-13.5C150.1,51.9,150.3,57.2,155.9,57.4z M158.7,46.2c0-3.3-0.9-6.9-3.4-7.1c-3.4-0.3-4.6,3.9-5,7.1
				H158.7z"/>
			<path d="M171,56.4V30.8l-3.8-1.3v-0.9H180v0.9c0,0-3.8,1.3-3.7,1.3v25.6c0,4.2-1.1,6.2-1.5,7c-2.2,4.1-4.7,5.6-6.5,7.1l-1-0.6
				c0.4-0.6,2-4.1,2.4-5.5C170,63.6,171,60.7,171,56.4z"/>
			<path d="M188.9,38.1c0,0.2,0,7.4,0,12.4c0,4.8,0.4,6.8,3.2,6.8c0.3,0,2.2,0,3.8-2c1.2-1.5,1.2-2.8,1.3-5.5c0.1-4.3,0-9,0-9.2
				l-3.1-1v-1l8.4-0.4c0,0.2-0.1,12.9,0,18.2l3.4,0.9v0.9c-1.8,0-8.2,0.8-8.2,0.8l-0.3-3c-1,1.2-3.3,3.1-6.4,3.2
				c-5.2,0-7.3-1.3-7.3-7.1c0-4.5,0-11.5,0-11.5s-3.1-1.1-3.1-1.1v-0.9C181.5,38.5,188.9,38.1,188.9,38.1z"/>
			<path d="M221.9,39l-0.6,5l-1.1-0.1l-0.5-2.8c-1-0.6-2.4-1.3-4.3-1.5c-2.2-0.2-4.3,0.9-4.2,2.7c0.2,2.4,3.1,2.6,5.7,3.4
				c3.2,1,6.6,2.7,5.8,7.8c-0.5,3-3.4,5.8-8.2,5.7c-1.8,0-4.4-0.4-7.2-1.9l0.8-5.8l1.2,0.1c0,0,0.3,3.6,0.3,3.6c2.1,1.5,3.1,2,4.9,2
				c2.2,0,4.3-0.7,4.6-3.2c0.3-2.6-3.6-3.7-5.8-4.3c-2.8-0.8-6.2-1.8-5.6-6.9c0.4-3.6,3.9-5.1,7.7-5.1
				C218.4,37.8,220.7,38.6,221.9,39z"/>
			<path d="M233.8,32.6v5.9h5v1.8h-5v10.5c0,3,0,4.9,1.1,5.8c1,0.8,2.9,0.4,4.2-0.3l0.4,1.3c-2.2,1.7-8.1,2.2-9.9-0.2
				c-1.3-1.8-1-4.4-1-8.4v-8.7h-3.5v-1.8h3.5v-4.6L233.8,32.6z"/>
			<path d="M240.6,39.5v-0.9l8.5-0.7v18.5l3.1,1.1v0.9H241v-0.9l3.1-1.1v-16L240.6,39.5z M249.2,30.1c0,1.5-1.4,3-3,3
				c-1.6,0-3-1.5-3-3c0-1.5,1.4-3,3-3C247.8,27.2,249.2,28.7,249.2,30.1z"/>
			<path d="M269.4,44.2l-1-3.2c-0.9-1.1-1.9-1.7-3.6-1.6c-3.9,0.2-5.1,5.9-5.2,8.6c-0.2,4.4,1,9.4,5,9.4c2.4,0,3.9-1,6.3-3.3l1,1.1
				c-2.3,3.1-4.8,4.1-7.2,4.1c-7.2,0-11.1-4.4-10.7-11.6c0.3-6.1,5-10.1,10.9-10c4.7,0,6.2,1.6,6.2,1.6l-0.5,5.1L269.4,44.2z"/>
			<path d="M284.4,57.4c1.4,0,3.5-0.5,6.6-3.5l1,1.2c-2,2.3-4.2,4.1-8,4.2c-6.8,0.1-11.3-3.6-11-11.5c0.3-6.4,4.8-10.4,10.9-10.1
				c5.8,0.3,8.6,5.2,8.3,10.3h-13.5C278.6,51.9,278.8,57.2,284.4,57.4z M287.2,46.2c0-3.3-0.9-6.9-3.4-7.1c-3.4-0.3-4.6,3.9-5,7.1
				H287.2z"/>
		</g>
		<g>
			<path d="M24.8,65.1v9.1h-1.2v-9.1H24.8z"/>
			<path d="M32.2,74.2v-9.1h1.3l2.9,4.6c0.7,1.1,1.2,2,1.6,3l0,0C38,71.5,38,70.4,38,69v-3.8h1.1v9.1h-1.2L35,69.6
				c-0.6-1-1.2-2.1-1.7-3l0,0c0.1,1.1,0.1,2.2,0.1,3.8v3.9H32.2z"/>
			<path d="M46.5,65.1h4.9v1h-3.7v3h3.4v1h-3.4v4.1h-1.2V65.1z"/>
			<path d="M66.3,69.6c0,3.1-1.9,4.8-4.2,4.8c-2.4,0-4.1-1.9-4.1-4.6c0-2.9,1.8-4.8,4.2-4.8C64.7,65,66.3,66.9,66.3,69.6z
				 M59.2,69.7c0,1.9,1.1,3.7,2.9,3.7c1.9,0,2.9-1.7,2.9-3.8c0-1.8-0.9-3.7-2.9-3.7C60.2,66,59.2,67.7,59.2,69.7z"/>
			<path d="M73.2,65.3c0.6-0.1,1.4-0.2,2.3-0.2c1.3,0,2.1,0.2,2.6,0.7c0.5,0.4,0.7,1,0.7,1.7c0,1.2-0.8,2-1.7,2.3v0
				c0.7,0.2,1.1,0.9,1.3,1.8c0.3,1.3,0.5,2.1,0.7,2.5h-1.2c-0.1-0.3-0.4-1-0.6-2.2c-0.3-1.3-0.8-1.7-1.8-1.8h-1.1v3.9h-1.2V65.3z
				 M74.4,69.4h1.2c1.3,0,2.1-0.7,2.1-1.7c0-1.2-0.9-1.7-2.1-1.7c-0.6,0-1,0.1-1.2,0.1V69.4z"/>
			<path d="M93.6,70.2c-0.1-1.3-0.1-2.8-0.1-3.9h0c-0.3,1.1-0.7,2.2-1.1,3.5l-1.6,4.4h-0.9l-1.5-4.3c-0.4-1.3-0.8-2.5-1.1-3.5h0
				c0,1.1-0.1,2.7-0.2,4l-0.2,3.9h-1.1l0.6-9.1h1.5l1.6,4.4c0.4,1.1,0.7,2.1,0.9,3.1h0c0.2-0.9,0.6-1.9,1-3.1l1.6-4.4h1.5l0.6,9.1
				h-1.1L93.6,70.2z"/>
			<path d="M103.5,71.4l-0.9,2.9h-1.2l3.1-9.1h1.4l3.1,9.1h-1.3l-1-2.9H103.5z M106.5,70.5l-0.9-2.6c-0.2-0.6-0.3-1.1-0.5-1.7h0
				c-0.1,0.5-0.3,1.1-0.5,1.6l-0.9,2.6H106.5z"/>
			<path d="M116.4,66.1h-2.8v-1h6.7v1h-2.8v8.1h-1.2V66.1z"/>
			<path d="M128,65.1v9.1h-1.2v-9.1H128z"/>
			<path d="M143.2,69.6c0,3.1-1.9,4.8-4.2,4.8c-2.4,0-4.1-1.9-4.1-4.6c0-2.9,1.8-4.8,4.2-4.8C141.6,65,143.2,66.9,143.2,69.6z
				 M136.1,69.7c0,1.9,1.1,3.7,2.9,3.7c1.9,0,2.9-1.7,2.9-3.8c0-1.8-0.9-3.7-2.9-3.7C137.1,66,136.1,67.7,136.1,69.7z"/>
			<path d="M150.1,74.2v-9.1h1.3l2.9,4.6c0.7,1.1,1.2,2,1.6,3l0,0c-0.1-1.2-0.1-2.3-0.1-3.7v-3.8h1.1v9.1h-1.2l-2.9-4.6
				c-0.6-1-1.2-2.1-1.7-3l0,0c0.1,1.1,0.1,2.2,0.1,3.8v3.9H150.1z"/>
			<path d="M186.3,70h-3.5v3.3h3.9v1h-5.1v-9.1h4.9v1h-3.7V69h3.5V70z"/>
			<path d="M198.6,74.2l-1.2-2c-0.5-0.8-0.8-1.3-1.1-1.8h0c-0.3,0.5-0.5,1-1,1.8l-1.1,2H193l2.8-4.6l-2.7-4.5h1.4l1.2,2.1
				c0.3,0.6,0.6,1.1,0.8,1.5h0c0.3-0.5,0.5-1,0.8-1.5l1.2-2.1h1.4l-2.8,4.4l2.8,4.7H198.6z"/>
			<path d="M212.8,74c-0.4,0.2-1.3,0.4-2.4,0.4c-2.6,0-4.5-1.6-4.5-4.6c0-2.9,1.9-4.8,4.8-4.8c1.1,0,1.9,0.2,2.2,0.4l-0.3,1
				c-0.4-0.2-1.1-0.4-1.8-0.4c-2.1,0-3.6,1.4-3.6,3.8c0,2.2,1.3,3.7,3.5,3.7c0.7,0,1.4-0.1,1.9-0.4L212.8,74z"/>
			<path d="M220.8,65.1V69h4.4v-3.8h1.2v9.1h-1.2V70h-4.4v4.3h-1.2v-9.1H220.8z"/>
			<path d="M235.7,71.4l-0.9,2.9h-1.2l3.1-9.1h1.4l3.1,9.1h-1.3l-1-2.9H235.7z M238.7,70.5l-0.9-2.6c-0.2-0.6-0.3-1.1-0.5-1.7h0
				c-0.1,0.5-0.3,1.1-0.5,1.6l-0.9,2.6H238.7z"/>
			<path d="M247.9,74.2v-9.1h1.3l2.9,4.6c0.7,1.1,1.2,2,1.6,3l0,0c-0.1-1.2-0.1-2.3-0.1-3.7v-3.8h1.1v9.1h-1.2l-2.9-4.6
				c-0.6-1-1.2-2.1-1.7-3l0,0c0.1,1.1,0.1,2.2,0.1,3.8v3.9H247.9z"/>
			<path d="M269.2,73.8c-0.5,0.2-1.6,0.5-2.8,0.5c-1.4,0-2.5-0.4-3.4-1.2c-0.8-0.8-1.3-2-1.3-3.4c0-2.7,1.9-4.7,4.9-4.7
				c1.1,0,1.9,0.2,2.3,0.4l-0.3,1c-0.5-0.2-1.1-0.4-2-0.4c-2.2,0-3.7,1.4-3.7,3.7c0,2.3,1.4,3.7,3.5,3.7c0.8,0,1.3-0.1,1.6-0.2v-2.7
				h-1.9v-0.9h3V73.8z"/>
			<path d="M281.1,70h-3.5v3.3h3.9v1h-5.1v-9.1h4.9v1h-3.7V69h3.5V70z"/>
		</g>
	</g>
</g>
<g id="Layer_1">
</g>
</svg>
