<?xml version="1.0" encoding="utf-8"?>
<!-- Generator: Adobe Illustrator 18.0.0, SVG Export Plug-In . SVG Version: 6.00 Build 0)  -->
<!DOCTYPE svg PUBLIC "-//W3C//DTD SVG 1.1//EN" "http://www.w3.org/Graphics/SVG/1.1/DTD/svg11.dtd">
<svg version="1.1" xmlns="http://www.w3.org/2000/svg" xmlns:xlink="http://www.w3.org/1999/xlink" x="0px" y="0px"
	 viewBox="0 0 300 100" style="enable-background:new 0 0 300 100;" xml:space="preserve">
<style type="text/css">
	.st0{fill-rule:evenodd;clip-rule:evenodd;}
	.st1{fill-rule:evenodd;clip-rule:evenodd;fill:#C038F9;}
	.st2{fill:none;}
	.st3{fill-rule:evenodd;clip-rule:evenodd;fill:#231F20;}
</style>
<g id="Layer_2">
	<g>
		<g>
			<path d="M32.8,62.8c0,1.4-0.1,2.8-0.4,4.1c-0.3,1.3-0.7,2.4-1.3,3.4c-0.6,1-1.2,1.8-2,2.3s-1.7,0.9-2.7,0.9c-1.2,0-2.2-0.4-3-1.3
				c-0.8-0.9-1.4-1.8-1.9-2.6l2.9-3.9c0.3,0.5,0.6,0.8,0.9,1.1c0.4,0.3,0.7,0.5,1.1,0.5c0.2,0,0.5-0.1,0.8-0.2
				c0.3-0.1,0.6-0.4,0.8-0.8c0.3-0.4,0.5-0.9,0.7-1.6c0.2-0.7,0.3-1.6,0.3-2.7V29.2h3.7V62.8z"/>
			<path d="M40.5,29.2h3.1l5.8,43.9h-3.7l-1.1-9.4h-5.1l-1.1,9.4h-3.7L40.5,29.2z M42.1,41.9L42.1,41.9l-1.9,15.9h3.7L42.1,41.9z"/>
			<path d="M63.2,63.4c0,1.4-0.2,2.7-0.5,3.9c-0.3,1.2-0.7,2.3-1.3,3.2c-0.5,0.9-1.2,1.7-1.9,2.2c-0.7,0.6-1.5,0.8-2.3,0.8
				c-0.7,0-1.4-0.2-2.2-0.5c-0.7-0.3-1.4-0.9-2-1.7c-0.6-0.8-1.1-1.9-1.5-3.2c-0.4-1.3-0.6-3-0.6-5V39c0-1.4,0.1-2.8,0.4-4
				c0.3-1.2,0.7-2.3,1.2-3.2c0.5-0.9,1.2-1.6,1.9-2.1c0.7-0.5,1.6-0.8,2.5-0.8c0.9,0,1.7,0.3,2.4,0.8c0.7,0.5,1.4,1.2,1.9,2.2
				s1,2,1.3,3.3c0.3,1.3,0.5,2.7,0.5,4.2v2.5h-3.7v-2.1c0-1.2-0.2-2.3-0.6-3.2s-1-1.4-1.7-1.4c-0.9,0-1.5,0.5-1.9,1.5
				c-0.3,1-0.5,2.2-0.5,3.7v22.5c0,1.3,0.2,2.3,0.5,3.2c0.3,0.9,0.9,1.3,1.8,1.3c0.2,0,0.5-0.1,0.8-0.2c0.3-0.1,0.5-0.4,0.8-0.7
				c0.2-0.3,0.4-0.8,0.6-1.4c0.1-0.6,0.2-1.3,0.2-2.2v-2.2h3.7V63.4z"/>
			<path d="M66.3,29.2H70v20.1h0.1l5.5-20.1h3.7l-5.1,17.6l6.1,26.3h-4l-4.3-19.5L70,60v13.1h-3.7V29.2z"/>
			<path d="M94.1,41.9h-3.7v-1.4c0-1.4-0.2-2.7-0.6-3.7c-0.4-1.1-1.1-1.6-2-1.6c-0.5,0-0.9,0.2-1.3,0.5c-0.3,0.3-0.6,0.8-0.8,1.3
				c-0.2,0.5-0.3,1.1-0.4,1.8c-0.1,0.7-0.1,1.4-0.1,2.1c0,0.9,0,1.6,0.1,2.2c0,0.6,0.1,1.1,0.3,1.5c0.1,0.4,0.4,0.8,0.6,1.1
				c0.3,0.3,0.7,0.7,1.2,1l2.9,1.9c0.8,0.5,1.5,1.2,2,1.9c0.5,0.7,0.9,1.6,1.2,2.5c0.3,1,0.5,2.1,0.6,3.3c0.1,1.3,0.1,2.7,0.1,4.3
				c0,1.8-0.1,3.6-0.3,5.2c-0.2,1.6-0.6,2.9-1.1,4.1c-0.5,1.1-1.2,2-2,2.7c-0.8,0.7-1.8,1-3.1,1c-0.9,0-1.8-0.3-2.5-0.8
				c-0.8-0.5-1.5-1.3-2-2.2c-0.6-0.9-1-2-1.3-3.3c-0.3-1.3-0.5-2.7-0.5-4.1v-2.3h3.7v2c0,1.2,0.2,2.2,0.6,3.1c0.4,0.9,1.1,1.4,2,1.4
				c0.6,0,1.1-0.2,1.5-0.5c0.4-0.3,0.6-0.7,0.8-1.3c0.2-0.6,0.3-1.2,0.3-2.1c0-0.8,0.1-1.7,0.1-2.7c0-1.2,0-2.1-0.1-2.8
				c-0.1-0.7-0.2-1.3-0.3-1.8c-0.2-0.5-0.4-0.8-0.7-1.1c-0.3-0.3-0.7-0.6-1.1-0.9l-2.7-1.8c-1.6-1.1-2.7-2.6-3.3-4.4
				c-0.6-1.8-0.8-4.1-0.8-6.9c0-1.6,0.1-3.2,0.4-4.7c0.3-1.5,0.7-2.8,1.2-3.8c0.5-1.1,1.2-1.9,2-2.6c0.8-0.6,1.8-1,2.8-1
				c0.9,0,1.8,0.3,2.6,0.9c0.8,0.6,1.4,1.3,2,2.3c0.6,0.9,1,2,1.3,3.2c0.3,1.2,0.4,2.4,0.4,3.6V41.9z"/>
			<path d="M96.6,39.6c0-1.8,0.2-3.3,0.6-4.7c0.4-1.4,0.9-2.5,1.5-3.4c0.6-0.9,1.3-1.6,2-2c0.7-0.5,1.5-0.7,2.3-0.7s1.5,0.2,2.3,0.7
				c0.7,0.5,1.4,1.1,2,2c0.6,0.9,1.1,2,1.5,3.4c0.4,1.4,0.6,2.9,0.6,4.7v23.2c0,1.8-0.2,3.4-0.6,4.7c-0.4,1.3-0.9,2.4-1.5,3.3
				c-0.6,0.9-1.3,1.6-2,2c-0.7,0.5-1.5,0.7-2.3,0.7s-1.5-0.2-2.3-0.7c-0.7-0.5-1.4-1.1-2-2c-0.6-0.9-1.1-2-1.5-3.3
				c-0.4-1.3-0.6-2.9-0.6-4.7V39.6z M100.4,62.8c0,1.5,0.3,2.6,0.8,3.4c0.5,0.7,1.1,1.1,1.8,1.1s1.3-0.4,1.8-1.1
				c0.5-0.7,0.8-1.8,0.8-3.4V39.6c0-1.5-0.3-2.6-0.8-3.4c-0.5-0.7-1.1-1.1-1.8-1.1s-1.3,0.4-1.8,1.1c-0.5,0.7-0.8,1.8-0.8,3.4V62.8z
				"/>
			<path d="M112.4,29.2h3.6l5.7,26.5h0.1V29.2h3.7v43.9h-3.5l-5.7-26.4h-0.1v26.4h-3.7V29.2z"/>
			<path d="M135.7,29.2h11.2v5.9h-7.4v13.3h6.5v5.9h-6.5v18.8h-3.7V29.2z"/>
			<path d="M149.3,29.2h6c4.4,0,6.6,4.3,6.6,12.9c0,2.5-0.2,4.7-0.7,6.6c-0.5,1.8-1.3,3.3-2.5,4.4l4,20.1h-4l-3.5-18.8H153v18.8
				h-3.7V29.2z M153,48.9h2.1c0.7,0,1.2-0.2,1.6-0.5c0.4-0.3,0.7-0.8,0.9-1.3c0.2-0.6,0.3-1.3,0.4-2.1c0.1-0.8,0.1-1.8,0.1-2.9
				c0-1.1,0-2.1-0.1-2.9c-0.1-0.8-0.2-1.6-0.5-2.2c-0.2-0.6-0.6-1-1-1.3c-0.4-0.3-1-0.4-1.7-0.4H153V48.9z"/>
			<path d="M164.9,29.2h11.2v5.9h-7.4v12.9h6.5V54h-6.5v12.9h7.4v6.3h-11.2V29.2z"/>
			<path d="M178.5,29.2h11.2v5.9h-7.4v12.9h6.5V54h-6.5v12.9h7.4v6.3h-11.2V29.2z"/>
			<path d="M198.9,29.2h5.6c1,0,1.9,0.2,2.7,0.7c0.8,0.5,1.5,1.3,2.1,2.4c0.6,1.2,1.1,2.5,1.3,4c0.2,1.5,0.4,3.6,0.4,6.3
				c0,1.9-0.1,3.6-0.2,5c-0.1,1.4-0.4,2.7-0.9,3.9c-0.5,1.4-1.2,2.6-2.1,3.4c-0.9,0.8-2,1.2-3.4,1.2h-1.9v17.2h-3.7V29.2z
				 M202.7,50.1h1.8c0.8,0,1.3-0.2,1.8-0.6c0.4-0.4,0.7-0.9,0.9-1.5c0.2-0.6,0.3-1.4,0.3-2.3c0-0.9,0.1-1.9,0.1-3c0-1,0-2-0.1-2.9
				c0-0.9-0.1-1.7-0.3-2.4c-0.2-0.7-0.5-1.2-0.9-1.6c-0.4-0.4-1-0.6-1.7-0.6h-1.9V50.1z"/>
			<path d="M213.9,29.2h6c4.4,0,6.6,4.3,6.6,12.9c0,2.5-0.2,4.7-0.7,6.6c-0.5,1.8-1.3,3.3-2.5,4.4l4,20.1h-4l-3.5-18.8h-2.2v18.8
				h-3.7V29.2z M217.6,48.9h2.1c0.7,0,1.2-0.2,1.6-0.5c0.4-0.3,0.7-0.8,0.9-1.3c0.2-0.6,0.3-1.3,0.4-2.1c0.1-0.8,0.1-1.8,0.1-2.9
				c0-1.1,0-2.1-0.1-2.9s-0.2-1.6-0.5-2.2c-0.2-0.6-0.6-1-1-1.3c-0.4-0.3-1-0.4-1.7-0.4h-1.9V48.9z"/>
			<path d="M229.6,29.2h11.2v5.9h-7.4v12.9h6.5V54h-6.5v12.9h7.4v6.3h-11.2V29.2z"/>
			<path d="M255.3,41.9h-3.7v-1.4c0-1.4-0.2-2.7-0.6-3.7c-0.4-1.1-1.1-1.6-2-1.6c-0.5,0-0.9,0.2-1.3,0.5c-0.3,0.3-0.6,0.8-0.8,1.3
				c-0.2,0.5-0.3,1.1-0.4,1.8c-0.1,0.7-0.1,1.4-0.1,2.1c0,0.9,0,1.6,0.1,2.2c0,0.6,0.1,1.1,0.3,1.5c0.1,0.4,0.4,0.8,0.6,1.1
				c0.3,0.3,0.7,0.7,1.2,1l2.9,1.9c0.8,0.5,1.5,1.2,2,1.9c0.5,0.7,0.9,1.6,1.2,2.5c0.3,1,0.5,2.1,0.6,3.3c0.1,1.3,0.1,2.7,0.1,4.3
				c0,1.8-0.1,3.6-0.3,5.2c-0.2,1.6-0.6,2.9-1.1,4.1c-0.5,1.1-1.2,2-2,2.7c-0.8,0.7-1.8,1-3.1,1c-0.9,0-1.8-0.3-2.5-0.8
				c-0.8-0.5-1.5-1.3-2-2.2c-0.6-0.9-1-2-1.3-3.3c-0.3-1.3-0.5-2.7-0.5-4.1v-2.3h3.7v2c0,1.2,0.2,2.2,0.6,3.1c0.4,0.9,1.1,1.4,2,1.4
				c0.6,0,1.1-0.2,1.5-0.5c0.4-0.3,0.6-0.7,0.8-1.3c0.2-0.6,0.3-1.2,0.3-2.1c0-0.8,0.1-1.7,0.1-2.7c0-1.2,0-2.1-0.1-2.8
				c-0.1-0.7-0.2-1.3-0.3-1.8c-0.2-0.5-0.4-0.8-0.7-1.1c-0.3-0.3-0.7-0.6-1.1-0.9l-2.7-1.8c-1.6-1.1-2.7-2.6-3.3-4.4
				c-0.6-1.8-0.8-4.1-0.8-6.9c0-1.6,0.1-3.2,0.4-4.7c0.3-1.5,0.7-2.8,1.2-3.8c0.5-1.1,1.2-1.9,2-2.6c0.8-0.6,1.8-1,2.8-1
				c0.9,0,1.8,0.3,2.6,0.9c0.8,0.6,1.4,1.3,2,2.3c0.6,0.9,1,2,1.3,3.2c0.3,1.2,0.4,2.4,0.4,3.6V41.9z"/>
			<path d="M270.2,41.9h-3.7v-1.4c0-1.4-0.2-2.7-0.6-3.7c-0.4-1.1-1.1-1.6-2-1.6c-0.5,0-0.9,0.2-1.3,0.5c-0.3,0.3-0.6,0.8-0.8,1.3
				c-0.2,0.5-0.3,1.1-0.4,1.8c-0.1,0.7-0.1,1.4-0.1,2.1c0,0.9,0,1.6,0.1,2.2c0,0.6,0.1,1.1,0.3,1.5c0.1,0.4,0.4,0.8,0.6,1.1
				c0.3,0.3,0.7,0.7,1.2,1l2.9,1.9c0.8,0.5,1.5,1.2,2,1.9c0.5,0.7,0.9,1.6,1.2,2.5c0.3,1,0.5,2.1,0.6,3.3c0.1,1.3,0.1,2.7,0.1,4.3
				c0,1.8-0.1,3.6-0.3,5.2c-0.2,1.6-0.6,2.9-1.1,4.1c-0.5,1.1-1.2,2-2,2.7c-0.8,0.7-1.9,1-3.1,1c-0.9,0-1.8-0.3-2.5-0.8
				c-0.8-0.5-1.5-1.3-2-2.2c-0.6-0.9-1-2-1.3-3.3s-0.5-2.7-0.5-4.1v-2.3h3.7v2c0,1.2,0.2,2.2,0.6,3.1c0.4,0.9,1.1,1.4,2,1.4
				c0.6,0,1.1-0.2,1.5-0.5c0.4-0.3,0.6-0.7,0.8-1.3c0.2-0.6,0.3-1.2,0.3-2.1c0-0.8,0.1-1.7,0.1-2.7c0-1.2,0-2.1-0.1-2.8
				c-0.1-0.7-0.2-1.3-0.3-1.8c-0.2-0.5-0.4-0.8-0.7-1.1c-0.3-0.3-0.7-0.6-1.1-0.9l-2.7-1.8c-1.6-1.1-2.7-2.6-3.3-4.4
				c-0.6-1.8-0.8-4.1-0.8-6.9c0-1.6,0.1-3.2,0.4-4.7c0.3-1.5,0.7-2.8,1.2-3.8c0.5-1.1,1.2-1.9,2-2.6c0.8-0.6,1.8-1,2.8-1
				c0.9,0,1.8,0.3,2.6,0.9c0.8,0.6,1.4,1.3,2,2.3c0.6,0.9,1,2,1.3,3.2c0.3,1.2,0.4,2.4,0.4,3.6V41.9z"/>
		</g>
		<rect x="21.6" y="94.6" width="253.6" height="4"/>
		<rect x="21.6" y="0.3" width="253.6" height="4"/>
	</g>
</g>
<g id="Layer_1">
</g>
</svg>
