<?xml version="1.0" encoding="utf-8"?>
<!-- Generator: Adobe Illustrator 18.0.0, SVG Export Plug-In . SVG Version: 6.00 Build 0)  -->
<!DOCTYPE svg PUBLIC "-//W3C//DTD SVG 1.1//EN" "http://www.w3.org/Graphics/SVG/1.1/DTD/svg11.dtd">
<svg version="1.1" xmlns="http://www.w3.org/2000/svg" xmlns:xlink="http://www.w3.org/1999/xlink" x="0px" y="0px"
	 viewBox="0 0 300 100" style="enable-background:new 0 0 300 100;" xml:space="preserve">
<style type="text/css">
	.st0{fill-rule:evenodd;clip-rule:evenodd;}
	.st1{fill-rule:evenodd;clip-rule:evenodd;fill:#C038F9;}
	.st2{fill:none;}
	.st3{fill-rule:evenodd;clip-rule:evenodd;fill:#231F20;}
</style>
<g id="Layer_2">
</g>
<g id="Layer_1">
	<g>
		<g>
			<path d="M117,23.6c0-2.7,1.4-4.2,4.1-4.2c0.7,0,1.7,0.1,2.5,0.8c1,0.8,1.2,2.2,1.2,3.2h-2.5c0-0.6,0-1.8-1.3-1.8
				c-0.3,0-0.7,0.1-1,0.4c-0.4,0.4-0.4,1-0.4,1.3v4.4c0,0.6,0,1.9,1.4,1.9c1,0,1.4-0.9,1.4-2.1h2.6c0,0.8,0,0.9-0.1,1.4
				c-0.1,0.5-0.3,1.3-1.2,2.1c-0.8,0.7-2,0.8-2.5,0.8c-1.3,0-2.3-0.3-3-1c-0.5-0.5-1.1-1.1-1.1-3.5V23.6z"/>
			<path d="M129.7,19.7h7.8v2.1h-5.3v2.5h3.6v2.1h-3.6v2.7h5.6v2.2h-8.2V19.7z"/>
			<path d="M142.5,19.7h2.4l3,5.4c0.1,0.2,0.3,0.6,0.4,0.8c0,0.1,0.2,0.5,0.3,0.6h0.1l-0.1-1.2c0-0.8,0-0.9,0-1.3v-4.3h2.3v11.6
				h-2.1l-3.1-5.6c-0.3-0.5-0.3-0.5-0.9-1.9h-0.1c0,0.3,0.1,1.8,0.1,2.1v5.4h-2.3V19.7z"/>
			<path d="M163.5,19.7v2.1h-2.9v9.5H158v-9.5h-3v-2.1H163.5z"/>
			<path d="M168.2,19.7h7.8v2.1h-5.3v2.5h3.6v2.1h-3.6v2.7h5.6v2.2h-8.2V19.7z"/>
			<path d="M183.3,31.3h-2.5V19.7h3.8c1.9,0,4.3,0.3,4.3,3.4c0,1.5-0.6,2.6-2.2,3.1l2.5,5.2h-2.8l-2.2-4.8h-0.9V31.3z M183.3,24.7
				c1.4,0,1.7,0,2-0.1c0.8-0.3,0.9-0.9,0.9-1.6c0-0.8-0.3-1.2-0.8-1.4c-0.4-0.1-0.7-0.1-2.1-0.1V24.7z"/>
			<path d="M199.7,19.7h7.7v2.1h-5.2v2.5h3.4v2.2h-3.4v4.8h-2.6V19.7z"/>
			<path d="M211,23.8c0-1.2,0.2-2.3,1-3.2c0.7-0.8,1.8-1.1,2.9-1.1c1.2,0,2.3,0.3,3.1,1.1c0.6,0.7,1,1.7,1,3.6V27
				c0,1.6-0.3,2.7-1,3.5c-1,1-2.4,1.2-3.1,1.2c-1.1,0-3-0.4-3.6-2.4c-0.3-0.8-0.3-1.8-0.3-2.3V23.8z M213.6,27.4
				c0,1.2,0.2,2.1,1.4,2.1c1.4,0,1.4-1.3,1.4-2.1v-4c0-0.8,0-1.8-1.3-1.8c-1.4,0-1.4,1.3-1.4,1.8V27.4z"/>
			<path d="M226.2,31.3h-2.5V19.7h3.8c1.9,0,4.3,0.3,4.3,3.4c0,1.5-0.6,2.6-2.2,3.1l2.5,5.2h-2.8l-2.2-4.8h-0.9V31.3z M226.2,24.7
				c1.4,0,1.7,0,2-0.1c0.8-0.3,0.9-0.9,0.9-1.6c0-0.8-0.3-1.2-0.8-1.4c-0.4-0.1-0.7-0.1-2.1-0.1V24.7z"/>
			<path d="M116.4,57.2v-1.5h2V41.3h-2v-1.5h8v1.5h-2.1v14.3h2.1v1.6H116.4z"/>
			<path d="M127.2,39.8h3.7l4.5,8.1c0.2,0.4,0.4,0.8,0.6,1.2c0.1,0.1,0.3,0.8,0.4,0.9h0.1l-0.1-1.8c-0.1-1.2-0.1-1.3-0.1-2v-6.5h3.5
				v17.4h-3.1l-4.6-8.5c-0.4-0.7-0.4-0.8-1.3-2.9h-0.1c0,0.5,0.1,2.7,0.1,3.2v8.2h-3.5V39.8z"/>
			<path d="M148,57.2l-5.3-17.4h3.8l2.7,9.4c0.4,1.4,0.7,2.4,0.8,3h0.1c0.3-1,0.5-2.1,0.8-3.1l2.6-9.2h3.8l-5.2,17.4H148z"/>
			<path d="M160,39.8h11.7V43h-7.9v3.7h5.4v3.2h-5.4V54h8.4v3.3H160V39.8z"/>
			<path d="M183.9,44.5c-0.5-1-1.7-1.9-3-1.9c-2,0-2,1.5-2,1.7c0,1.2,1.1,1.7,2.2,2.1l2.2,0.8c1,0.4,2.3,1.1,3,2
				c0.2,0.3,1,1.4,1,3.1c0,0.8,0,3.1-2.5,4.6c-1,0.6-2.5,0.9-3.3,0.9c-3.1,0-4.9-0.7-6.4-3.5l3-2c0.6,1.5,1.8,2.4,3.3,2.4
				c0.8,0,2.3-0.4,2.3-2c0-1.3-0.7-1.6-3.3-2.6c-2.6-1-4.9-2.2-4.9-5.6c0-2.9,2.1-4.9,5.7-4.9c2.6,0,4.4,1,5.8,3.1L183.9,44.5z"/>
			<path d="M201.9,39.8V43h-4.3v14.3h-4V43h-4.4v-3.2H201.9z"/>
			<path d="M203.7,57.2v-1.5h2V41.3h-2v-1.5h8v1.5h-2.1v14.3h2.1v1.6H203.7z"/>
			<path d="M214.8,46.2c0-1.5,0-3.8,1.8-5.4c1.3-1.2,2.9-1.4,4.6-1.4c3.3,0,5.7,2,5.7,5.4h-3.8c-0.1-1.5-0.9-2.3-2.2-2.3
				c-2,0-2.1,1.7-2.1,2.7v5.5c0,2.3,0.4,3.7,2.3,3.7c2,0,2-1.6,2-2.3V51h-2v-2.9h5.8v9.3h-1.7l-0.5-1.2h-0.2c-0.5,0.6-1.3,1.5-4,1.5
				c-1.8,0-3.4-0.5-4.5-1.9c-1-1.2-1.2-2.7-1.2-4.8V46.2z"/>
			<path d="M239.6,39.8l5,17.4h-3.7l-0.9-3.5h-5.3l-0.9,3.5H230l4.9-17.4H239.6z M237.3,42.9L237.3,42.9l-2,7.9h3.9L237.3,42.9z"/>
			<path d="M258.2,39.8V43h-4.3v14.3h-4V43h-4.4v-3.2H258.2z"/>
			<path d="M260.1,57.2v-1.5h2V41.3h-2v-1.5h8v1.5H266v14.3h2.1v1.6H260.1z"/>
			<path d="M275.3,57.2L270,39.8h3.8l2.7,9.4c0.4,1.4,0.7,2.4,0.8,3h0.1c0.3-1,0.5-2.1,0.8-3.1l2.6-9.2h3.8l-5.2,17.4H275.3z"/>
			<path d="M287.7,39.8h11.7V43h-7.9v3.7h5.4v3.2h-5.4V54h8.4v3.3h-12.3V39.8z"/>
			<path d="M121.5,82.4h-3.8V65h5.6c2.8,0,6.4,0.4,6.4,5.1c0,2.2-0.9,3.9-3.3,4.6l3.8,7.7h-4.2l-3.3-7.1h-1.3V82.4z M121.5,72.5
				c2.2,0,2.5,0,3-0.2c1.2-0.4,1.3-1.4,1.3-2.3c0-1.2-0.4-1.8-1.1-2.1c-0.6-0.2-1.1-0.2-3.2-0.2V72.5z"/>
			<path d="M134.1,65h11.7v3.2h-7.9v3.7h5.4V75h-5.4v4.1h8.4v3.3h-12.3V65z"/>
			<path d="M150.5,65h5.7c2.6,0,3.9,0.5,4.9,1.4c1.1,1,1.6,2.4,1.6,4.1c0,2.7-1.5,4-2.3,4.5c-1.3,0.8-2.6,0.8-4,0.9l-2.1,0.1v6.5
				h-3.8V65z M154.4,73c1.8,0,2.5,0,3-0.2c0.3-0.1,1.4-0.6,1.4-2.4c0-1.7-0.6-2-1.2-2.3c-0.6-0.2-0.9-0.2-3.2-0.2V73z"/>
			<path d="M165.5,71.1c0-1.8,0.3-3.5,1.5-4.8c1.1-1.2,2.7-1.7,4.4-1.7c1.8,0,3.4,0.4,4.6,1.7c1,1,1.5,2.6,1.5,5.4v4.2
				c0,2.4-0.4,4-1.5,5.2c-1.4,1.6-3.5,1.7-4.7,1.7c-1.7,0-4.5-0.6-5.4-3.6c-0.4-1.2-0.5-2.8-0.5-3.5V71.1z M169.4,76.6
				c0,1.8,0.4,3.1,2.1,3.1c2.1,0,2.1-1.9,2.1-3.1v-6.1c0-1.2,0-2.7-2-2.7c-2.1,0-2.1,2-2.1,2.7V76.6z"/>
			<path d="M185.7,82.4h-3.8V65h5.6c2.8,0,6.4,0.4,6.4,5.1c0,2.2-0.9,3.9-3.3,4.6l3.8,7.7h-4.2l-3.3-7.1h-1.3V82.4z M185.7,72.5
				c2.2,0,2.5,0,3-0.2c1.2-0.4,1.3-1.4,1.3-2.3c0-1.2-0.4-1.8-1.1-2.1c-0.6-0.2-1.1-0.2-3.2-0.2V72.5z"/>
			<path d="M209.6,65v3.2h-4.3v14.3h-4V68.2h-4.4V65H209.6z"/>
			<path d="M212.5,82.4v-1.5h2V66.5h-2V65h8v1.5h-2.1v14.3h2.1v1.6H212.5z"/>
			<path d="M224.1,65h3.7l4.5,8.1c0.2,0.4,0.4,0.8,0.6,1.2c0.1,0.1,0.3,0.8,0.4,0.9h0.1l-0.1-1.8c-0.1-1.2-0.1-1.3-0.1-2V65h3.5
				v17.4h-3.1l-4.6-8.5c-0.4-0.7-0.4-0.8-1.3-2.9h-0.1c0,0.5,0.1,2.7,0.1,3.2v8.2h-3.5V65z"/>
			<path d="M241.1,71.4c0-1.5,0-3.8,1.8-5.4c1.3-1.2,2.9-1.4,4.6-1.4c3.3,0,5.7,2,5.7,5.4h-3.8c-0.1-1.5-0.9-2.3-2.2-2.3
				c-2,0-2.1,1.7-2.1,2.7V76c0,2.3,0.4,3.7,2.3,3.7c2,0,2-1.6,2-2.3v-1.2h-2v-2.9h5.8v9.3h-1.7l-0.5-1.2h-0.2
				c-0.5,0.6-1.3,1.5-4,1.5c-1.8,0-3.4-0.5-4.5-1.9c-1-1.2-1.2-2.7-1.2-4.8V71.4z"/>
		</g>
		<g>
			<path d="M1.4,51C1.4,51,1.4,51,1.4,51C1.4,51,1.4,51,1.4,51c12.7,31.7,67,61.9,104.6,0v0C68.4-10.9,14.1,19.3,1.4,51z M95.2,51
				c-29.6,48.7-72.3,25-82.3,0c0,0,0,0,0,0c0,0,0,0,0,0C22.9,26,65.6,2.3,95.2,51L95.2,51z"/>
			<path d="M66.3,59.7c-2.7,3.9-7.2,6.5-12.4,6.5c-8.2,0-14.9-6.7-14.9-14.9C39,43,45.7,36.3,54,36.3c5,0,9.4,2.4,12.1,6.2l7.1-5
				c-4.3-6-11.3-9.9-19.2-9.9c-13,0-23.6,10.6-23.6,23.6c0,13,10.6,23.6,23.6,23.6c8.1,0,15.3-4.1,19.5-10.4L66.3,59.7z"/>
			<path d="M61.4,56.4c-1.6,2.5-4.5,4.1-7.7,4.1c-5.1,0-9.2-4.1-9.2-9.2c0-5.1,4.1-9.2,9.2-9.2c3.1,0,5.9,1.5,7.5,3.9l-7.5,5.3
				L61.4,56.4z"/>
		</g>
	</g>
</g>
</svg>
