<?xml version="1.0" encoding="utf-8"?>
<!-- Generator: Adobe Illustrator 18.0.0, SVG Export Plug-In . SVG Version: 6.00 Build 0)  -->
<!DOCTYPE svg PUBLIC "-//W3C//DTD SVG 1.1//EN" "http://www.w3.org/Graphics/SVG/1.1/DTD/svg11.dtd">
<svg version="1.1" xmlns="http://www.w3.org/2000/svg" xmlns:xlink="http://www.w3.org/1999/xlink" x="0px" y="0px"
	 viewBox="0 0 300 100" style="enable-background:new 0 0 300 100;" xml:space="preserve">
<style type="text/css">
	.st0{fill-rule:evenodd;clip-rule:evenodd;}
	.st1{fill-rule:evenodd;clip-rule:evenodd;fill:#C038F9;}
	.st2{fill:none;}
	.st3{fill-rule:evenodd;clip-rule:evenodd;fill:#231F20;}
</style>
<g id="Layer_2">
</g>
<g id="Layer_1">
	<g>
		<path class="st0" d="M254.8,36.2h-9.6l-8.1,21.1c0.1-1.1,0.2-2.3,0.2-3.6c0-17.1-16.5-17.5-16.5-17.5h-16v13.2
			c-2.3-8.2-10-13.9-19.1-13.9c-6.6,0-12.5,3-16,7.8v-7.1h-24.4v8.4h7.4v27.9h9.7V44.6h6.4c-1.8,2.9-2.8,6.3-2.8,10
			c0,10.9,8.8,19.2,19.8,19.2c9.1,0,16.7-5.7,19.1-13.9v12.6H222c0,0,7-0.3,11.5-6.1l-2.3,6.1h9.9l2.4-6.2h13l2.3,6.2h9.9
			L254.8,36.2z M185.7,64.3c-5.7,0-10.3-4.3-10.3-9.6c0-5.3,4.6-9.6,10.3-9.6s10.3,4.3,10.3,9.6C196,60,191.4,64.3,185.7,64.3z
			 M217.9,64.7c-1.8,0-2.8-0.3-2.8-0.3V44.5c0.7,0,1.5-0.2,2.9-0.2c1.5,0,9,0.3,9,10.1S219.8,64.7,217.9,64.7z M246.2,59l3.7-9.8h0
			l3.7,9.8H246.2z"/>
		<polygon class="st0" points="281.1,36.2 274.7,45.8 268.2,36.2 256.6,36.2 269.3,55.1 269.3,72.5 280.1,72.5 280.1,55.1 
			292.7,36.2 281.1,36.2 		"/>
		<path class="st0" d="M125.2,35.9H115l-9,23c-0.2-6.9-6.9-8.9-10.6-9.9c-5.3-1.4-4.9-3-4.9-3.6c0-0.6,0.6-2.7,3.6-2.7
			c3,0,6.8,2.7,6.8,2.7l3.9-7.3c0,0-4.7-3.6-11.8-3.6c-5.1,0-12.9,2-12.9,12.6c0,0-1.1,8.8,11.5,10.2c0,0,4.5,0.6,3.7,4.1
			c-0.8,3.5-4.1,2.7-4.8,2.7c-0.7,0-3.3,0-8-3.7l-4.3,7.5c0,0,4.9,5.1,14.1,5.1c4.2,0,7.4-1.4,9.7-3.5l-1.2,3h10.4l2.4-6.2h12.8
			l2.4,6.2h10.3L125.2,35.9z M116.4,58.5l3.7-9.2l3.4,9.2H116.4z"/>
		<path class="st1" d="M63.4,73.2C63.4,73.2,63.4,73.2,63.4,73.2c-0.1,0-0.1,0-0.1,0H63.4L63.4,73.2z"/>
		<path class="st0" d="M69.5,35.9v22.9c0,0,0,5.3-6.1,5.4c-6,0-6.1-5.4-6.1-5.4V35.9H29.4c-0.2-0.2-0.5-0.4-0.8-0.4H16.9
			c-0.7,0-1.2,0.5-1.2,1.2c0,0.2,0,0.4,0.2,0.6c-0.3,0.4-0.6,0.7-0.8,0.8c-0.1,0.1-0.7,0.4-1.4,0.9h-2.1c-0.7,0-1.2,0.5-1.2,1.2
			c0,0.4,0.2,0.8,0.5,1c-0.4,0.4-0.8,0.9-1.2,1.3H8.4c-0.7,0-1.2,0.5-1.2,1.2c0,0.7,0.5,1.2,1.2,1.2h0.3c-0.1,0.4-0.1,0.7-0.1,1.1
			l0,0h-2c-0.7,0-1.2,0.5-1.2,1.2c0,0.7,0.5,1.2,1.2,1.2h2.7l-0.4,1.1H5.1c-0.7,0-1.2,0.5-1.2,1.2c0,0.7,0.5,1.2,1.2,1.2h5.2
			c0.3,0.4,0.6,0.8,0.9,1.1H4.8c-0.7,0-1.2,0.5-1.2,1.2c0,0.7,0.5,1.2,1.2,1.2h8.3c0.4,0.3,0.9,0.6,1.7,0.8c0.3,0.1,0.5,0.2,0.7,0.3
			H5.1c-0.7,0-1.2,0.5-1.2,1.2c0,0.7,0.5,1.2,1.2,1.2h12.1c0,0.4,0,0.7,0,1.1H6.6c-0.7,0-1.2,0.5-1.2,1.2c0,0.7,0.5,1.2,1.2,1.2
			h10.3c0,0.4,0,0.8,0.1,1.1H8.4c-0.7,0-1.2,0.5-1.2,1.2c0,0.7,0.5,1.2,1.2,1.2h10.3c0.3,0.4,0.6,0.7,0.9,1.1h-7.9
			c-0.7,0-1.2,0.5-1.2,1.2c0,0.7,0.5,1.2,1.2,1.2h9.3c0.2,0.4,0.4,0.8,0.5,1.1h-4.5c-0.7,0-1.2,0.5-1.2,1.2c0,0.7,0.5,1.2,1.2,1.2
			h11.7c0.3,0,0.6-0.1,0.9-0.3h29.2c1.4,0.3,3,0.5,4.7,0.5c15.1,0,16.4-12.6,16.4-12.6V35.9H69.5z M50,67.5H35.2
			c-0.2-0.2-0.5-0.4-0.8-0.4h-8.6c0.2-0.4,0.4-0.7,0.7-1.1h11.2c0.3,0,0.6-0.1,0.9-0.4h10.2C49.1,66.2,49.5,66.9,50,67.5z M48,64
			h-9.5c-0.2-0.2-0.5-0.3-0.8-0.3H26.9c0.1-0.3,0.3-0.7,0.4-1.1h12.2c0.3,0,0.7-0.1,0.9-0.4h7C47.5,62.6,47.7,63.3,48,64z
			 M38.5,42.8c-0.2-0.2-0.5-0.3-0.8-0.3H25.5c-0.1-0.3-0.2-0.7-0.3-1.1h9.2c0.4,0,0.7-0.2,0.9-0.4h11.9v1.8H38.5z M47.2,48v1.8h-5.4
			c-0.2-0.2-0.5-0.3-0.8-0.3H25.5c0.4-0.3,0.7-0.7,1-1.1h13c0.4,0,0.7-0.2,0.9-0.4H47.2z M41,51.9c0.3,0,0.7-0.1,0.9-0.4h5.3v1.8
			h-5.3c-0.2-0.2-0.5-0.3-0.8-0.3H22.4c0-0.3,0.1-0.7,0.3-1.1H41z M28.6,37.9c0.4,0,0.7-0.2,0.9-0.4h17.6v1.8h-12
			c-0.2-0.2-0.5-0.3-0.8-0.3H23.7c-0.1-0.2-0.2-0.6-0.2-1.1H28.6z M23.4,41.4c0.1,0.2,0.2,0.6,0.3,1.1H22c-0.2-0.3-0.4-0.6-0.7-1.1
			H23.4z M20.9,37.9c0,0.3,0.1,0.7,0.3,1.1h-0.9c-0.1-0.4-0.2-0.8-0.2-1.1H20.9z M16.8,53.1c-0.2-0.3-0.4-0.7-0.4-1.1h3.3
			c0.3,0.3,0.6,0.7,0.7,1.1H16.8z M19.3,56.6c-0.4-0.3-0.9-0.7-1.2-1.1h23c0.3,0,0.7-0.1,0.9-0.4h5.2v1.9h-5.4
			c-0.2-0.2-0.5-0.3-0.8-0.3H19.3z M22.3,59H41c0.3,0,0.7-0.1,0.9-0.4h5.3v1.9h-6.8c-0.2-0.2-0.5-0.3-0.8-0.3H26.1
			c-0.9-0.2-2.1-0.4-3.4-0.5C22.7,59.6,22.6,59.4,22.3,59z M29.5,71c-0.2-0.2-0.5-0.4-0.9-0.4H25c0-0.3,0-0.7,0-1.1h9.3
			c0.3,0,0.6-0.1,0.9-0.4h16.3c0.7,0.7,1.6,1.3,2.6,1.8H29.5z"/>
	</g>
</g>
</svg>
