<?xml version="1.0" encoding="utf-8"?>
<!-- Generator: Adobe Illustrator 18.0.0, SVG Export Plug-In . SVG Version: 6.00 Build 0)  -->
<!DOCTYPE svg PUBLIC "-//W3C//DTD SVG 1.1//EN" "http://www.w3.org/Graphics/SVG/1.1/DTD/svg11.dtd">
<svg version="1.1" xmlns="http://www.w3.org/2000/svg" xmlns:xlink="http://www.w3.org/1999/xlink" x="0px" y="0px"
	 viewBox="0 0 300 100" style="enable-background:new 0 0 300 100;" xml:space="preserve">
<style type="text/css">
	.st0{fill-rule:evenodd;clip-rule:evenodd;}
	.st1{fill-rule:evenodd;clip-rule:evenodd;fill:#C038F9;}
	.st2{fill:none;}
	.st3{fill-rule:evenodd;clip-rule:evenodd;fill:#231F20;}
</style>
<g id="Layer_2">
</g>
<g id="Layer_1">
	<g>
		<path d="M48.2,14.6c0,25.3,0,50.3,0,75.9c1.9-2.8,2.7-5.4,3.2-8.2c0.9-5.2,0.6-10.4,0.6-15.5c0.1-14,0-28,0-41.9
			c0-2.5-0.3-4.8-1.5-7.4c6-3.9,12-7.8,17.9-11.7c1,0.2,0.8,1,0.8,1.8c-2.7,2.1-3.2,5.2-3.2,8.6c0.1,16.3,0,32.7,0,49
			c0,7.1-2.2,13.3-6.6,18.8c-1.3,1.6-3.1,2.8-4.8,4c-5.5,3.8-11.2,7.4-16.8,11c-0.3,0.2-0.8,0.1-1.4,0.1c-5-3.3-10.2-6.6-15.2-10.1
			c-2.1-1.5-4.1-2.1-6.5-1.6c-1.7,2.3-1.7,2.3,0.2,5.4c-2.7-0.5-2.8-2.8-3.7-4.7c0.2-0.3,0.5-0.8,0.6-1.3c0.6-4.3,3.7-6.2,7.2-7.2
			c6.4-1.9,13.1-0.2,17.9,3.2c2.5,1.8,5.1,3.5,7.7,5.2c0.2,0.1,0.5,0,0.9,0c0-10.3,0-20.6,0-30.7c-0.6-1.6-2.3-1.2-3.3-1.9
			c-2,0.6-4.1,1.1-5.9,3.2c0-6.8,4.3-9.4,9.2-11.6c0.3-1.1,0.2-2.2,0-3.2c-0.8-1.2-1.9-1.5-3.1-2c-2.2,0.4-4.3,1.2-5.9,3.1
			c-0.4-5,2.1-9.1,9.1-11.5c0-6,0-12,0-18.1c-4.9-1.4-9.7-3.1-14.7-4c-3.1-0.5-6.4-0.6-9.6,0.5c-3.1,1-5.5,2.6-7,5.7
			c0,1,0,2.2,0,3.3c0.8,1.1,1.7,2.1,3.1,3.1c1.3,0,3,0,4.5,0c0.3,1.1-0.2,1.4-0.9,1.4c-1.7,0-3.4,0-5,0c-1.4-0.5-2.6-1.2-3.6-2.3
			c-0.9-0.8-1.5-1.9-1.9-2.9c-1.9-5.7,0.8-12.8,6.1-15.9c3.5-2.1,7.1-3.5,11.3-3.2c3.5,0.2,7-0.2,10.4,0.8c2,0.6,3.9,1.3,5.7,2.2
			c7.7,3.9,14.6,3.2,22.4-1.2c0.3,0.3,0.7,0.6,1.2,1c-2.1,2.3-4.8,3.5-7.3,5.1c-1.4,0.9-2.9,1.6-4.2,2.6
			C53.9,13.3,51.2,14.1,48.2,14.6z"/>
		<path d="M190.7,44.5c-1.5-1.6-3.1-3.3-4.9-5.1c2.9-2.6,6.2-4,9.2-6.1c2,1.8,4.6,2.7,6.4,4.6c0.8,1,0,2.2,0.9,3.2
			c3.9-2.5,7.7-5.1,11.8-7.8c3.1,2.1,6.4,4.2,9.6,6.3c0.1,1.8-2,1.3-2.3,2.8c0,11,0,22.2,0,33.5c1.5,1.7,3.5,2.7,5.4,3.9
			c-2.7,2.7-6.3,4.1-9.3,6.7c-2.2-1.9-5.1-2.9-7.2-5.3c0-12.7,0-25.5,0-38.1c-0.7-1.3-1.9-1.6-3-2.2c-1.7,1.2-3.5,2.4-5.4,3.6
			c0,10.9,0,21.9,0,32.8c1.2,0.8,2.4,1.6,3.7,2.5c-2.5,2.8-6.1,4.1-8.9,6.6c-3-2-6-4-9-6c0.2-1.9,2.4-1.6,3-3.2
			C190.7,66.5,190.7,55.6,190.7,44.5z"/>
		<path d="M113,44.4c-1.2-1.9-3.7-2.4-5.4-4.4c3-2,6-4,9.1-6.1c2.4,1.6,4.9,3.1,7.4,4.8c0,12.4,0,24.8,0,36.8
			c1.1,1.7,2.9,1.7,3.8,3.4c1.6-1.7,3.7-2.1,4.8-4c0-10.4,0-20.8,0-31.4c-1.5-1-3-2.1-4.7-3.3c2.9-2.5,6.3-4.1,9.4-6.4
			c2.9,1.9,5.9,3.9,8.7,5.8c0,1.8-1.6,1.7-2.3,2.6c0,11,0,22.1,0,33.2c1.9,1.5,3.8,3,5.9,4.6c-2.9,2.3-5.6,4.1-8.7,5.7
			c-3.1-2.1-6.2-4.1-9.5-6.4c-3.4,2.2-6.9,4.5-10.5,6.8c-3.6-2.4-7.2-4.8-10.8-7.2c0.5-1.4,2-1.2,2.8-2.5
			C113,66.2,113,55.4,113,44.4z"/>
		<path d="M73.2,46.2c6.9-4.5,13.6-8.9,20.5-13.3c3.5,2.2,6.9,4.2,10,6.7c0,11.9,0,23.6,0,35.7c-5.9,3.8-12,7.8-18.3,11.8
			c-4-2.5-8-4.9-12.2-7.5C73.2,68.7,73.2,57.6,73.2,46.2z M92.6,79.4c0-11.8,0-23.1,0-34.4c-2.2-1.5-4.3-2.9-6.2-4.1
			c-1.2,0.2-1.7,0.7-2.2,1.3c0,10.5,0,20.9,0,31.5C86.7,75.9,89.6,77.6,92.6,79.4z"/>
		<path d="M259,75.2c2,1.5,4.1,3.2,6.5,5c-2.9,1.9-5.6,3.8-8.3,5.6c-3.3-1.3-5.5-3.8-8.5-5.8c-3.9,1.2-6.6,4.5-10.5,6.1
			c-3.1-1.6-6.1-3.7-8.1-6.7c-3.6-5.4-2.3-10.7,0.6-15.9c1.9-3.5,4.8-6.4,7.1-9.6c-2.7-4.8-5.5-9.5-8.2-14.3c3.3-2.2,6.6-4.4,10-6.6
			c6.2,1.8,12,5,18.3,5.7c1.8-0.8,2.9-2.7,4.9-1.4c0.7,0.9-0.4,1.7-0.7,2.2c-2.3,3.8-3,7.8-3,12.2C259.1,59.6,259,67.3,259,75.2z
			 M248.1,60.7c-3.1-1.4-6-2.7-8.9-4c-2.4,6.3-2.4,7.7-2,14.4c2.8,5.5,2.9,5.6,6.1,8.3c1.9-0.5,3.1-2,4.8-2.8
			C248.1,71.2,248.1,66.2,248.1,60.7z M233.5,41.2c-0.2,0.1-0.4,0.3-0.5,0.4c2.4,4.2,4.9,8.3,7.3,12.5c2.6,1.1,5.2,2.1,7.8,3.3
			c0-3.7,0-7.1,0-10.6C243.2,44.9,238.3,43,233.5,41.2z"/>
		<path d="M274.3,1.8c2.5,1.6,4.9,3.2,7.4,4.8c0,23.1,0,46.2,0,69.1c1.6,1.9,3.6,2.8,5.5,4.1c-2.5,2.9-6.2,4-9,6.6
			c-3.7-2.4-7.3-4.9-11.1-7.3c0.9-1.4,3-1.5,3.7-3.4c0-20.9,0-42.1,0-63.2c-1.4-1.9-3.7-2.7-5.8-4.3C268.2,5.9,271.1,3.9,274.3,1.8z
			"/>
		<path d="M167.3,76.8c1.7,1.1,3.1,2,4.7,3.1c-2.9,2.6-6.6,4-9.5,6.5c-3.2-2.3-6.2-4.4-9.3-6.6c1.2-0.6,2.2-1.2,3-2.3
			c0-10.8,0-21.7,0-32.8c-1.7-1.9-4.4-2.8-6.1-5.1c2.7-1.7,5.3-3.4,8.2-5.2c3.3,0.5,5.4,3.5,8.6,5c3.7-1.3,6.6-4.4,10.5-6.2
			c2.4,2.8,4.9,5.6,7.6,8.7c-3.3,4.7-6.7,9.3-10,14c-0.5-0.5-0.8-0.8-1.2-1.1c0.2-0.3,0.4-0.6,0.5-0.9c1.6-3.2,1.4-4.8-0.9-7.4
			c-0.8-0.9-1.7-1.7-2.5-2.5c-0.7-0.8-1.3-1.6-1.9-2.3c-1.9,0.9-1.5,2.3-1.6,3.6c0,6.8,0,13.6,0,20.4
			C167.3,69.3,167.3,73,167.3,76.8z"/>
		<path d="M98.4,21.2c0,1.7,0,3,0,4.5c0.4,0.4,0.9,1,1.6,1.8c-2.1,0-4,0-6.3,0c0.6-0.7,1-1.3,1.6-2c0-1.1,0-2.3,0-3.5
			c0-2.1,0-4.2,0-6c-0.1-1.1-1.1-1.4-1.5-2.3c3-0.3,5.9-0.1,8.8-0.2c0.7,0.6,1.4,1.3,1.9,1.8c0.3,1.4,0.2,2.7,0.1,3.9
			c-0.5,1-1.4,1.3-2.1,1.8c0.7,1.3,1.3,2.6,2,3.7c0.7,1,1.2,2.1,2.4,2.7c-1.2,0.8-2.4,0.1-3.1,0.3C100.7,26.3,101,23,98.4,21.2z
			 M101.9,17.8c-0.7-1.6-1.2-3.2-3.5-3.4c-0.1,2.1-0.9,4.1,0.7,6C100.6,20.1,101.5,19.4,101.9,17.8z"/>
		<path d="M127.3,18.3c0,1.5,0,3,0,4.5c-1.9,5.7-6.5,5.1-10.9,4.8c-2.1-0.9-3.4-2.6-4.6-4.4c-1-6.5,1.3-10.8,10.8-9.6
			C124.6,14.5,126.1,16.1,127.3,18.3z M124.1,19.6c-2.1-4.2-2.1-4.2-5.3-5.3c-3.9,1.1-4.3,4-3.9,7.2c1.1,2.5,2,5,5.1,5.3
			C123.9,25.1,124.1,24.8,124.1,19.6z"/>
		<path d="M167.9,15.6c-0.5-0.6-0.9-1.2-1.7-2.1c2.4,0,4.5,0,6.5,0c4.8,0,6.2,0.9,8.4,5.2c0.5,3-0.2,5.5-2.5,7.4
			c-1.1,0.9-2.3,1.6-3.8,1.6c-2.7,0-5.4,0-8.1,0c-0.1-1.1,0.9-1.3,1.2-2.1C167.9,22.5,167.9,19.2,167.9,15.6z M170.6,25.8
			c0.7,0.3,1.3,0.6,1.7,0.8c2-0.6,4.4-0.5,5.1-2.9c0.5-6.8-0.3-8.4-6.1-9c-0.2,0.3-0.7,0.6-0.7,0.9
			C170.6,18.8,170.6,22.2,170.6,25.8z"/>
		<path d="M207.3,17.3c0,3,0,5.5,0,8.7c0,0.2,1.2,0.5,1.5,1.5c-1.5,0-2.9,0-4.4,0c-0.2-1,1-1.1,1.2-2c0-3.1,0-6.5,0-10
			c-0.4-0.5-0.9-1-1.6-1.8c1.6,0,3,0,4.5,0c2.8,2.5,4.7,6.1,8,8.5c0-2.2,0-4.3,0-6.3c0.2-1-1.1-1.2-1.2-2.3c1.4,0,2.8,0,4.2,0
			c0.1,1-1,1.2-1.4,2.6c0,3.3,0,7.3,0,11.8C213.5,25.2,211.4,20.5,207.3,17.3z"/>
		<path d="M195.4,18.2c0,1.6,0,3,0,4.3c-0.1,0.1-0.2,0.2-0.3,0.3c-0.3-0.4-0.5-0.8-0.8-1.3c-0.7-0.3-1.5-0.2-2.4-0.1
			c-0.7,1.3-0.1,2.7-0.4,4.3c0.3,0.3,0.7,0.7,1.1,1.1c1.2-0.3,2.3-0.6,3.4-0.9c0.6-0.7,0.6-1.8,1.7-2c0.5,1.1,0.2,2.3,0.1,3.8
			c-3.5,0-6.9,0-11,0c0.7-0.9,1.2-1.5,1.7-2.1c0-3.3,0-6.5,0-9.9c-0.4-0.5-0.9-1.1-1.6-1.9c3.4,0,6.6,0,10,0c0.6,1,0.3,2.2,0.2,3.5
			c-1.3-0.1-1.2-1.3-1.8-1.9c-1.1-0.3-2.1-0.6-3.5-1c0,1.9,0,3.5,0,5.2C193.4,20.7,194.1,18.9,195.4,18.2z"/>
		<path d="M77.9,15.5c-0.6-0.6-1-1.1-1.4-1.6c0.3-0.1,0.5-0.4,0.8-0.3c3.4,0.3,7.1-1.2,10.1,1.9c0,1.2,0,2.5,0,3.9
			c-0.4,0.8-1.1,1.3-2,2c-1.1,0.1-2.4,0.1-3.9,0.2c-0.7,1.3-0.2,2.7-0.3,4.1c0.5,0.6,1,1.2,1.7,2c-2.1,0-4.1,0-6,0
			c-0.2-1,0.9-1.1,1.2-2C77.9,22.4,77.9,19,77.9,15.5z M80.8,14.2c0.7,2.3-0.9,4.4,1.2,6.2c1.5-0.4,2.4-1.2,2.6-2.5
			C84.1,16,83.3,14.7,80.8,14.2z"/>
		<path d="M251.7,14.4c-1.9,1.5-0.9,3.4-1.2,4.9c0.8,0.9,1.7,0.5,2.6,0.5c0.7-0.3,0.3-1.8,1.7-1.3c0.1,0.1,0.3,0.3,0.3,0.5
			c0,1.3,0,2.6,0,4.4c-1.4-1.5-2.5-2.4-4.3-1.7c-0.6,1-0.2,2.2-0.3,3.2c0.4,0.9,1.1,1.5,1.9,2c2.1,0,3.2-1.7,4.4-3.2
			c1.1,1.4,0.3,2.7,0.7,4c-3.8,0-7.3,0-10.8,0c-0.1-1,0.9-1.1,1.2-2.1c0-3.1,0-6.5,0-9.9c-0.5-0.5-0.9-1.1-1.6-1.9c3.4,0,6.7,0,10,0
			c0.4,1.2,0.5,2.4,0,3.7c-0.9-0.4-1.3-1-1.5-1.9C253.9,15.1,252.8,14.8,251.7,14.4z"/>
		<path d="M239.3,14.1c0,1.7,0,2.8,0,4.5c-1.6-2.2-2.7-4.4-5.4-4.2c-1.9,0.1-3.4,1.1-4.5,2.6c-0.7,2.1-0.5,4.2-0.1,6.3
			c2,2.4,2,2.4,4.8,3.6c2-0.3,3.4-1.6,4.8-3.2c0.4,0.8,0.7,1.4,1,2.1c-2.9,2.9-6.5,1.7-10.1,1.9c-1.8-1.3-3.5-2.5-4.1-5.1
			c-0.9-3.9,0.7-7.9,4.5-8.8C233.2,13.1,236.2,13.2,239.3,14.1z"/>
		<path d="M140.7,23.5c1.3-2.9,1.7-5.5,3.2-7.7c-0.6-0.7-1.1-1.3-1.7-2.1c1.8,0,3.4,0,6.1,0c-2.6,0.9-3.2,2.4-3.8,4
			c-1.2,3.1-2.6,6.1-3.9,9.2c-0.2,0.4-0.3,0.7-1.1,0.7c-2.9-4.2-4.1-9.6-7.6-13.9c2.1,0,4.1,0,6.4,0c-0.5,0.6-0.9,1.1-1.4,1.7
			C138.1,17.9,139.3,20.4,140.7,23.5z"/>
		<path d="M154.7,15.6c-0.5-0.6-1-1.2-1.6-2c2.2,0,4.1,0,6.1,0c0.1,1-0.9,1.1-1.2,2c0,3.1,0,6.5,0,10c0.4,0.4,0.9,1,1.6,1.8
			c-2.1,0-3.9,0-6.2,0c0.5-0.7,1-1.3,1.5-1.9C154.7,22.4,154.7,19.1,154.7,15.6z"/>
	</g>
</g>
</svg>
