<?xml version="1.0" encoding="utf-8"?>
<!-- Generator: Adobe Illustrator 18.0.0, SVG Export Plug-In . SVG Version: 6.00 Build 0)  -->
<!DOCTYPE svg PUBLIC "-//W3C//DTD SVG 1.1//EN" "http://www.w3.org/Graphics/SVG/1.1/DTD/svg11.dtd">
<svg version="1.1" xmlns="http://www.w3.org/2000/svg" xmlns:xlink="http://www.w3.org/1999/xlink" x="0px" y="0px"
	 viewBox="0 0 300 100" style="enable-background:new 0 0 300 100;" xml:space="preserve">
<style type="text/css">
	.st0{fill-rule:evenodd;clip-rule:evenodd;}
	.st1{fill-rule:evenodd;clip-rule:evenodd;fill:#C038F9;}
	.st2{fill:none;}
	.st3{fill-rule:evenodd;clip-rule:evenodd;fill:#231F20;}
</style>
<g id="Layer_2">
	<g>
		<g>
			<path d="M27.1,76.3h-3L8,57.7v18.5H4.7V52.2h2.8l16.3,18.7V52.2h3.2V76.3z"/>
			<path d="M42.6,69.8c0,4.5-1.8,7.8-6.6,7.8c-0.4,0-0.7,0-1.1-0.1l-0.6-3.2h0.9c3.7,0,4-1.8,4-5.6V52.2h3.5V69.8z"/>
			<path d="M73,57.5c-2-1.9-4-2.5-5.7-2.5c-2.2,0-3.8,1.2-3.8,2.9C63.6,62.4,74,62.4,74,70c0,3.8-2.9,6.5-6.7,6.5
				c-2.6,0-4.7-0.7-6.7-2.2V70c1.8,2.3,4,3.5,6.4,3.5c2.7,0,3.9-1.7,3.9-3c0-5-10.4-5.5-10.4-12.2c0-3.9,2.9-6.4,7.3-6.4
				c1.8,0,3.7,0.6,5.4,1.7V57.5z"/>
			<path d="M91.8,52.2c5.3,0,7.7,3.1,7.7,6.9c0,3.8-2.5,6.7-8.1,6.7h-3.6v10.4h-3.5V52.2H91.8z M87.8,62.7h3.9
				c2.6,0,4.2-1.4,4.2-3.8c0-1.8-1-3.7-4.1-3.7h-4.1V62.7z"/>
			<path d="M120.2,51.8c7.9,0,13,5.7,13,12.4c0,6.5-4.9,12.4-13,12.4c-7.9,0-12.9-5.8-12.9-12.4C107.3,57.5,112.4,51.8,120.2,51.8z"
				/>
			<path d="M160.8,55.3h-8.3v21H149v-21h-8.3v-3.1h20.1V55.3z"/>
			<path d="M174.2,73.2H185v3.1h-14.3V52.2h3.5V73.2z"/>
			<path d="M198.2,76.3h-3.5V52.2h3.5V76.3z"/>
			<path d="M231.4,74.6c-3.2,1.4-5.8,2-9.2,2c-7.4,0-12.8-5.2-12.8-12.2c0-7.1,5.6-12.5,12.9-12.5c2.8,0,4.8,0.5,8.6,2v3.5
				c-2.8-1.6-5.8-2.4-8.7-2.4c-5.2,0-9.3,4-9.3,9.2c0,5.4,4,9.1,9.8,9.1c1.9,0,3.6-0.4,5.2-1v-4.9h-4.6v-3.1h8.1V74.6z"/>
			<path d="M263.5,76.3h-3.5V65.8h-13.5v10.5h-3.5V52.2h3.5v10.5h13.5V52.2h3.5V76.3z"/>
			<path d="M293.7,55.3h-8.3v21h-3.5v-21h-8.3v-3.1h20.1V55.3z"/>
		</g>
		<path d="M105.8,51.1c8.3-8.6,21.4-8.2,29.4,0.7c1.8,2,4.8-1,3-3c-9.4-10.6-25.5-10.8-35.3-0.7C101,50.1,103.9,53.1,105.8,51.1
			L105.8,51.1z"/>
		<path d="M98.9,44.8c11.6-13.3,31.6-12.9,42.6,0.9c1.7,2.1,4.7-0.9,3-3c-12.4-15.4-35.7-15.8-48.6-0.9
			C94.1,43.8,97.1,46.8,98.9,44.8L98.9,44.8z"/>
		<path d="M92.8,39.2c14.2-18.1,41-18.1,55.2,0.1c1.7,2.1,4.6-0.9,3-3c-15.5-19.8-45.6-19.8-61.1-0.1C88.2,38.4,91.2,41.4,92.8,39.2
			L92.8,39.2z"/>
	</g>
</g>
<g id="Layer_1">
</g>
</svg>
