<?xml version="1.0" encoding="utf-8"?>
<!-- Generator: Adobe Illustrator 18.0.0, SVG Export Plug-In . SVG Version: 6.00 Build 0)  -->
<!DOCTYPE svg PUBLIC "-//W3C//DTD SVG 1.1//EN" "http://www.w3.org/Graphics/SVG/1.1/DTD/svg11.dtd">
<svg version="1.1" xmlns="http://www.w3.org/2000/svg" xmlns:xlink="http://www.w3.org/1999/xlink" x="0px" y="0px"
	 viewBox="0 0 300 100" style="enable-background:new 0 0 300 100;" xml:space="preserve">
<style type="text/css">
	.st0{fill-rule:evenodd;clip-rule:evenodd;}
	.st1{fill-rule:evenodd;clip-rule:evenodd;fill:#C038F9;}
	.st2{fill:none;}
	.st3{fill-rule:evenodd;clip-rule:evenodd;fill:#231F20;}
</style>
<g id="Layer_2">
	<g>
		<path d="M283.2,62.4c-1,1-2.3,2.4-3.4,3.8c-1.7-1.3-3.3-2.4-4.3-3.1V37.8c0-1.2-0.6-1.8-1.2-2.1v-0.1l5.8-4.3l0.1,0.1V61
			C281.6,61.9,282.2,62.2,283.2,62.4L283.2,62.4"/>
		<path d="M256.1,44.1c-0.9,2-2.4,3.4-4.4,3.4c-1.8,0-2.6-0.5-4-1.9l-0.4,0.4v14.3c2.2,1.2,3,1.7,3.7,1.7c0.6,0,1-0.3,1.6-0.9
			l0.3,0.3c-1.7,1.6-3.2,3.3-4.5,4.7c-1.9-1.4-3.8-2.7-5.8-4V47.1c-0.7-0.6-1.7-1.5-2.7-1.7l0-0.1l3.2-3.6c1.6,1.3,2.7,2.3,4.4,3.5
			c1.4-1.2,2.4-2.2,3.6-3.5c1.1,1.3,3,2.1,5,2.2L256.1,44.1"/>
		<path d="M206.3,30.8c-1.2,2.8-2.8,4.5-4.8,4.5c-1,0-2.9-1-4.3-1c-1.5,0-2.7,0.5-3.6,2.1l-0.2-0.2c0.4-3.9,2.7-5.7,5.4-5.7
			c1.7,0,3.4,1,4.8,1c0.9,0,1.7-0.2,2.6-0.9L206.3,30.8"/>
		<path d="M225.4,31.1c-0.3,1.7-1.7,3.3-3.1,4v25.7c1.4,0.4,2.1,0.7,3.1,1.4l-3.7,4c-1.4-1.3-3.1-1.8-4.7-1.8
			c-2.4,0-4.1,0.8-5.3,1.6l0-0.2c0.8-3.3,3.4-5.2,5.5-5.4V49.1h-8.7v12.2c0.3,0.1,0.5,0.2,0.8,0.2c0.5,0,1.1-0.6,1.5-1.3l0.4,0.3
			c-1.1,1.4-3.1,3.6-4.5,5.6c-2.2-1.4-3.9-2-6.8-2c-2.4,0-4.5,0.6-6,1.6l-0.1-0.2c1.4-3.4,4-5.7,8.5-5.7c2,0,3.6,0.4,5.6,1.3V30h0.6
			v14.8h8.7v-9.4c-1.5-0.3-2.7-0.9-3.6-1.8c1.2-1.1,2.5-2.6,3.6-3.8c1.3,1.1,2.9,1.8,4.8,1.8c1.2,0,2.4-0.2,3.5-0.7L225.4,31.1"/>
		<path d="M206,35.3c-0.5,0.9-0.7,2.2-0.7,5.1v10.9c0,3.5-2.6,6.3-6,7.4l-0.2-0.1c0.7-0.6,1.1-1.6,1.1-2.7v-6.7h-1.2
			c-1.9,0-2.6,0.9-2.8,2H196c-0.5-0.4-1.1-1.2-1.1-2.7c0-2.1,1.7-3.7,4.1-3.7h1.1v-2.4c0-4,2.5-6.1,5.8-7.1L206,35.3"/>
		<path d="M181.4,35.4c-0.8,0.8-1.6,1.7-2.6,3c-0.9-0.8-2.1-1.6-3.3-2.5c0.9-0.9,1.8-1.9,2.7-3C179.2,33.7,180.3,34.6,181.4,35.4"/>
		<path d="M184.1,62.3c0,0-1.2,1.4-3.3,3.8c-1.3-1-3-2.2-4.3-3.1V46.5c-0.9-0.7-1.4-1-1.9-1.1l0-0.1l3.1-3.5
			c1.2,0.9,2.3,1.7,3.6,2.6V61C182.6,61.8,183.5,62.2,184.1,62.3L184.1,62.3"/>
		<path d="M174.5,62.3c0,0-0.9,1-3.3,3.9c-1.4-1.1-2.8-2.1-4.3-3.1V47.2l-3.7-2.3l-1.9,1.6v15.7c0.7,0.4,1.4,0.8,1.4,0.8
			c-0.9,0.8-2.5,2.4-3.3,3.1c-1.2-0.9-2.8-2.2-2.8-2.2V47.1l-3.3-2.3l-2.3,1.9v15.5c0.4,0.3,0.9,0.6,1.3,0.8c-1.1,1-2.3,2.1-3.2,3.2
			c-1-0.8-2.1-1.7-2.8-2.2V47.1c-1.5-1.4-2.1-1.7-2.9-1.7l0-0.1c1.1-1.1,2.4-2.4,3.3-3.6c1.5,1.2,3.1,2.5,4.8,3.8
			c1.4-1.1,2.9-2.3,4.8-3.8c1.5,1.1,3.6,2.5,5.2,3.8c1.6-1.3,3.1-2.5,4.6-3.8c1.4,0.9,4.4,2.7,5.6,3.6V61
			C172.7,61.7,173.6,62.1,174.5,62.3L174.5,62.3"/>
		<path d="M122.5,35.4c-0.8,0.8-1.6,1.7-2.6,3c-0.9-0.8-2.1-1.6-3.3-2.5c0.9-0.9,1.8-1.9,2.7-3C120.3,33.7,121.4,34.6,122.5,35.4"/>
		<path d="M125.2,62.3c0,0-1.2,1.4-3.3,3.8c-1.3-1-3-2.2-4.3-3.1V46.5c-0.9-0.7-1.4-1-1.9-1.1l0-0.1l3.1-3.5
			c1.2,0.9,2.3,1.7,3.6,2.6V61C123.7,61.8,124.6,62.2,125.2,62.3L125.2,62.3"/>
		<path d="M85.4,30.7c-1.2,2.8-2.8,4.5-4.9,4.5c-1,0-2.9-1-4.3-1c-1.5,0-2.7,0.5-3.6,2.1l-0.2-0.1c0.4-3.9,2.8-5.8,5.5-5.8
			c1.7,0,3.4,1,4.8,1c0.9,0,1.7-0.3,2.4-0.8L85.4,30.7"/>
		<path d="M47.6,62.4c-1,1-2.1,2.3-3.3,3.7C42.8,65,41,63.7,40,63V47.9c-1.2-1-2.5-1.9-3.8-2.8c-0.7,0.6-1.2,1.1-1.8,1.6v15.5
			c0.4,0.3,0.8,0.5,1.3,0.8l-3.2,3.2c-1.2-1-2.3-1.7-2.9-2.2V37.9c0-1.1-0.3-1.9-1-2.3v-0.1l5.7-4.1l0.1,0v14.6l4.8-4.2
			c1.8,1.3,3.6,2.6,5.6,3.7V61C45.8,61.7,46.8,62.2,47.6,62.4L47.6,62.4"/>
		<path d="M295.3,61.9V45.4l-3.1-3c-1.1,0.7-1.8,1.1-2.6,1.5v15.5c1.4,1,3.7,2.6,4.9,3.2L295.3,61.9 M300,59.5
			c-3.6,2-6.4,4.3-8.9,6.7c-2-1.5-4.4-3.2-6.3-4.4V45.8c2.1-1.1,4.4-2.4,7-3.9l-5.4-5.4c-1-1-1.8-1.6-2.6-1.9l0-0.1
			c1.6-1.2,3-2.2,4.1-3.2c2.1,2.1,6.7,6.9,12.1,12.4V59.5z"/>
		<path d="M265.8,61.4v-7.8c-0.7-0.2-1.5-0.4-2.7-0.4c-2.3,0-3.1,1.8-3.1,4.3c0,2.6,0.9,4.6,2.7,5.8L265.8,61.4 M265.8,53V48
			c-1.8-1.3-3-2.2-5.1-3.6l-0.3,0.2V53c0.9-0.2,1.9-0.4,2.5-0.4C264.1,52.6,264.9,52.7,265.8,53z M273,62.7l-3,3.5
			c-1.6-1.2-2.8-2.1-4.8-3.7c-2,1.2-3.1,2-5.9,3.7c-2.4-1.4-4.1-3.8-4.1-7.1c0-2.6,1.7-4.9,5-6.1c-1.5-1.1-2.1-1.4-3.3-2v-5.1
			c2.8-1.4,4.5-2.4,7.2-4.2c2.2,1.4,3.8,2.5,6.5,4.3v15.3C271.8,62.3,272.4,62.5,273,62.7L273,62.7z"/>
		<path d="M235.8,51c-1.2-2-2.7-4.6-3.7-6.4l-0.4,0.2v8.7L235.8,51 M240,49l-8.3,5.2v6c2.2,1.3,3,1.9,3.7,1.9c0.6,0,1.1-0.6,2.2-1.7
			l0.4,0.4c-1.8,1.7-3.6,3.4-5.3,5.4c-1.8-1.3-3.9-2.8-5.8-4V47.2c2.4-1.4,6.4-4.1,8.4-5.5C236.7,43.9,238.2,46.2,240,49z"/>
		<path d="M136.4,61.4v-7.8c-0.7-0.2-1.5-0.4-2.7-0.4c-2.3,0-3.1,1.8-3.1,4.3c0,2.6,0.9,4.6,2.7,5.8L136.4,61.4 M136.4,53V48
			c-1.8-1.3-3.1-2.2-5.2-3.6l-0.2,0.2V53c0.9-0.2,1.9-0.4,2.5-0.4C134.7,52.6,135.6,52.7,136.4,53z M143.7,62.7l-3,3.5
			c-1.6-1.2-2.8-2.1-4.8-3.7c-2,1.2-3.1,2-5.9,3.7c-2.4-1.4-4.1-3.8-4.1-7.1c0-2.6,1.7-4.9,5-6.1c-1.5-1.1-2.1-1.4-3.3-2v-5.1
			c2.8-1.4,4.5-2.4,7.2-4.2c2.2,1.4,3.8,2.5,6.5,4.3v15.3C142.5,62.3,143.1,62.5,143.7,62.7L143.7,62.7z"/>
		<path d="M106.9,60.3V49.1h-5.9V61c1.5,0.8,2.2,1.3,3.1,1.3c0.5,0,1-0.4,1.4-0.7C105.4,61.5,106.4,60.7,106.9,60.3 M92.9,44.7v-9
			c0,0-2.7-1.9-4.1-2.9l-2.1,1.2v10.8H92.9z M100.3,60.8V33.9l-2.2,1.3v25C99,60.3,99.5,60.5,100.3,60.8z M106.9,44.7v-8.9
			c-2-0.4-3.4-1.6-4.6-3l-1.4,0.8v11.1H106.9z M115.7,62c0,0-2.6,2.5-4.3,4.1c-1.5-1.4-3.7-3-5.5-4.4c-1.4,1-4.8,3.5-5.9,4.5
			c-1.5-1.1-3.7-2.1-6.7-2.1c-2.1,0-3.5,0.7-4.7,1.5l-0.1-0.2c0.6-1.8,2.3-3.9,4.5-5V49.1h-6.2v12c0,3.2-2.1,5.1-5.4,5.1
			c-2.3,0-4.5-1.2-6.8-1.2c-2.3,0-3.3,0.6-4.1,1.7l-0.3-0.1c0.2-3.6,2.1-5.9,5.7-5.9c2.3,0,4.8,1.1,7.3,1.1c2.2,0,3-0.7,3-3V34.3
			c-1.1,0.6-1.5,0.9-2.2,1.3v17.5c0,3.8-3.2,5.6-6.9,6l0-0.1c1-0.6,1.7-2.1,1.7-4.1v-5.8h-0.8c-1.9,0-2.6,1-2.8,2l-0.1,0
			c-0.5-0.4-1.2-1.2-1.2-2.7c0-2.1,1.7-3.7,4.2-3.7h0.7v-2.6c0-3.3,2.1-5.3,5.1-7.1l9.5-5.5c1.8,1.3,4.2,3,6.1,4.3l7.3-4.2
			c1.3,1.5,2.6,2.6,5,2.6c1.3,0,2.4-0.2,3-0.5l0.1,0.1c-0.3,1.6-1.1,3.1-2.7,4v24.3C113.6,61.2,114.8,61.9,115.7,62L115.7,62z"/>
		<path d="M58.1,51c-1.2-2-2.7-4.6-3.7-6.4L54,44.9v8.7L58.1,51 M62.3,49L54,54.2v6c2.2,1.3,3,1.9,3.7,1.9c0.6,0,1.1-0.6,2.2-1.7
			l0.4,0.4c-1.8,1.7-3.5,3.4-5.2,5.4c-1.8-1.3-4-2.8-5.8-4V47.2c2.4-1.4,6.4-4.1,8.4-5.5C59,43.9,60.5,46.2,62.3,49z"/>
		<path d="M10.6,56.7V44.5c-1.3,0.6-2.8,1.2-4.2,1.8c-0.3,1.3-0.5,2.6-0.5,4c0,3.1,0.5,5.6,2,7.8C8.8,57.7,9.9,57.1,10.6,56.7
			 M27.8,57.4c-1.6,5.5-6,9.6-13.5,9.6C5.7,67,0.5,61,0.5,52.6c0-6,4-11.6,10.5-14.1l0.2,0.1c-1.9,2.2-3.5,4-4.5,6.8l9-4v11.1
			c0,0.5,0.3,1.2,0.5,1.5v0.1c-2.1,1.1-6.3,3.5-8.1,4.4c2.1,2.6,5,4.2,9,4.2c1,0,1.9-0.1,3-0.4V39.1c-2-0.2-4.8-1-6.9-1.6
			C10.7,36.7,7.9,36,5.9,36c-2.6,0-4.4,0.7-4.4,2.9c0,0.8,0.3,1.5,0.7,2.1l-0.3,0c-1.1-0.9-2-2.2-2-3.9c0-4.6,3.9-6.3,8.1-6.3
			c1.7,0,4.3,0.7,7,1.5c1.9,0.6,5.1,1.6,7,1.6c1.7,0,2.5-0.8,2.5-2c0-1.1-0.3-1.6-1.1-2.2l0.3-0.2c1.9,0.7,3.4,2.3,3.4,4.6
			c0,3.1-1.8,4.9-6.4,4.9v23.2c3.1-0.9,5.2-3.1,6.8-5.2L27.8,57.4z"/>
	</g>
</g>
<g id="Layer_1">
</g>
</svg>
