<?xml version="1.0" encoding="utf-8"?>
<!-- Generator: Adobe Illustrator 18.0.0, SVG Export Plug-In . SVG Version: 6.00 Build 0)  -->
<!DOCTYPE svg PUBLIC "-//W3C//DTD SVG 1.1//EN" "http://www.w3.org/Graphics/SVG/1.1/DTD/svg11.dtd">
<svg version="1.1" xmlns="http://www.w3.org/2000/svg" xmlns:xlink="http://www.w3.org/1999/xlink" x="0px" y="0px"
	 viewBox="0 0 300 100" style="enable-background:new 0 0 300 100;" xml:space="preserve">
<style type="text/css">
	.st0{fill-rule:evenodd;clip-rule:evenodd;}
	.st1{fill-rule:evenodd;clip-rule:evenodd;fill:#C038F9;}
	.st2{fill:none;}
	.st3{fill-rule:evenodd;clip-rule:evenodd;fill:#231F20;}
</style>
<g id="Layer_2">
</g>
<g id="Layer_1">
	<g>
		<g>
			<path d="M55.2,52.5c-1.1-1.4-2.8-2.2-4.6-2.2c-3.2,0-5.3,2.4-5.3,5.6c0,3.2,2.2,5.5,5.4,5.5c1.7,0,3.4-0.8,4.5-2.1v6.2
				c-1.7,0.5-3,0.9-4.6,0.9c-2.8,0-5.5-1.1-7.5-3c-2.2-2-3.2-4.6-3.2-7.6c0-2.7,1-5.4,3-7.3c2-2,4.8-3.2,7.6-3.2
				c1.7,0,3.2,0.4,4.8,1V52.5z"/>
			<path d="M63.3,62.4l-1.4,3.5h-5.5l7.7-20.1h5.7l7.6,20.1h-5.6l-1.3-3.5H63.3z M66.9,52L66.9,52l-2.2,6.4H69L66.9,52z"/>
			<path d="M83.9,61.5h6.2v4.4H78.7V45.8h5.2V61.5z"/>
			<path d="M96.8,65.9h-5.2V45.8h5.2V65.9z"/>
			<path d="M105.1,50.2v3.4h5.7V58h-5.7v7.9h-5.2V45.8h11.5v4.4H105.1z"/>
			<path d="M134.7,55.5c0,6.5-4.7,11.1-11.1,11.1s-11.1-4.6-11.1-11.1c0-6.1,5.3-10.3,11.1-10.3S134.7,49.4,134.7,55.5z M118,55.5
				c0,3.5,2.6,6,5.7,6c3.1,0,5.7-2.5,5.7-6c0-2.8-2.6-5.3-5.7-5.3C120.5,50.2,118,52.7,118,55.5z"/>
			<path d="M153.5,65.9h-6.5l-4.9-7.7h-0.1v7.7h-5.2V45.8h7.8c4,0,7,1.9,7,6.2c0,2.8-1.5,5.2-4.4,5.7L153.5,65.9z M142.1,54.8h0.5
				c1.7,0,3.6-0.3,3.6-2.5c0-2.2-1.9-2.5-3.6-2.5h-0.5V54.8z"/>
			<path d="M154.2,45.8h5.2l9.5,12.3h0.1V45.8h5.2v20.1H169l-9.5-12.3h-0.1v12.3h-5.2V45.8z"/>
			<path d="M182.5,65.9h-5.2V45.8h5.2V65.9z"/>
			<path d="M190.8,62.4l-1.4,3.5h-5.5l7.7-20.1h5.7l7.6,20.1h-5.6l-1.3-3.5H190.8z M194.4,52L194.4,52l-2.2,6.4h4.3L194.4,52z"/>
			<path d="M214.6,58.8L214.6,58.8l4.3-13h4.1l3.9,13h0.1l3.8-13h5.4l-6.4,20.1h-5.3L221,54.2h-0.1L217,65.9h-5.3l-6-20.1h5.4
				L214.6,58.8z"/>
			<path d="M239.2,62.4l-1.4,3.5h-5.5l7.7-20.1h5.7l7.6,20.1h-5.6l-1.3-3.5H239.2z M242.8,52L242.8,52l-2.2,6.4h4.3L242.8,52z"/>
			<path d="M260.1,65.9h-5.2V50.2h-4.3v-4.4h13.8v4.4h-4.3V65.9z"/>
			<path d="M278.3,52.5c-1.1-1.4-2.8-2.2-4.6-2.2c-3.2,0-5.3,2.4-5.3,5.6c0,3.2,2.2,5.5,5.4,5.5c1.7,0,3.4-0.8,4.5-2.1v6.2
				c-1.7,0.5-3,0.9-4.6,0.9c-2.8,0-5.5-1.1-7.5-3c-2.2-2-3.2-4.6-3.2-7.6c0-2.7,1-5.4,3-7.3c2-2,4.8-3.2,7.6-3.2
				c1.7,0,3.2,0.4,4.8,1V52.5z"/>
			<path d="M292.4,53.6v-7.7h5.2v20.1h-5.2v-8.2h-7.5v8.2h-5.2V45.8h5.2v7.7H292.4z"/>
		</g>
		<path d="M21.2,37.7c0.3,2.1,0.7,4.4,2.3,6.4c1.7-1.6,3.4-3,5.3-4.6c-0.4,2.1-0.7,4-1.1,6.3c2-0.4,3.4-0.7,5.4-1
			c-1,1.9-1.9,3.3-2.7,4.7c2,1.7,4.3,1.3,6.8,1.6c-1.4,0.7-2.3,1.1-3.3,1.6c-0.9,0.4-1.6,1.1-2.8,2c1.9,1.3,3.4,2.3,5.1,3.4
			c-1.9,0.1-3.7,0.4-6,0.6c1,2.4,1.9,4.3,2.8,6.3c-1.9-0.7-3.7-1.4-6-2.3c0.1,2.6,0.3,4.6,0.4,6.8c-1.4-1.6-2.7-3.1-4-4.6
			c-0.1,0-0.4,0.1-0.6,0.1c-0.7,1.9-1.3,3.8-2,6c-0.7-2.1-1.4-4-2.1-6c-2.3,1-3,3.1-4.6,4.6c0.1-2.3,0.1-4.4,0.3-6.5
			c-2.6,0-4.1,1.4-6.3,2.4c1.1-2.3,2.1-4.3,3.3-6.4c-2.1-1.3-4.1-0.4-6.4-1c1.9-1.1,3.6-2.3,5.3-3.4c-1.6-2-3.8-2.4-6.1-3.7
			c2.7-0.6,5.1,0,7.4-1.7c-1.1-1.7-2.3-3.4-3.6-5.3c2,0.6,3.7,1.1,5.6,1.7c0.9-2.3-0.4-4.1-0.6-6.4c1.9,1.6,3.6,3.1,5.7,4.8
			c0.9-2.6,1.6-4.7,2.3-6.7C20.9,37.7,21.1,37.7,21.2,37.7z M20.5,62.6c4.8,0,8.4-3.4,8.4-8.1s-3.6-8.4-8.3-8.4
			c-4.6,0-8.1,3.6-8.3,8.1C12.4,59,15.8,62.6,20.5,62.6z"/>
		<path d="M23.6,55.6c1.6,0,2.8,0,4.3,0c0.1,3.3-3,6.3-6.7,6.4c-4.1,0.3-8-3.1-8.3-7.1c-0.3-4.1,2.8-7.8,7.1-8.3
			c4-0.3,7.7,2.6,8,6.4c-1.4,0-2.8,0-4.4,0c-0.3-0.3-0.7-0.7-1.3-1.1c-1.3-0.9-2.7-0.7-3.7,0.4c-0.9,1-1,2.6-0.3,3.6
			c0.7,1.1,2.4,1.6,3.7,0.9C22.7,56.5,23.1,56.1,23.6,55.6z"/>
	</g>
</g>
</svg>
