<?xml version="1.0" encoding="utf-8"?>
<!-- Generator: Adobe Illustrator 18.0.0, SVG Export Plug-In . SVG Version: 6.00 Build 0)  -->
<!DOCTYPE svg PUBLIC "-//W3C//DTD SVG 1.1//EN" "http://www.w3.org/Graphics/SVG/1.1/DTD/svg11.dtd">
<svg version="1.1" xmlns="http://www.w3.org/2000/svg" xmlns:xlink="http://www.w3.org/1999/xlink" x="0px" y="0px"
	 viewBox="0 0 300 100" style="enable-background:new 0 0 300 100;" xml:space="preserve">
<style type="text/css">
	.st0{fill-rule:evenodd;clip-rule:evenodd;}
	.st1{fill-rule:evenodd;clip-rule:evenodd;fill:#C038F9;}
	.st2{fill:none;}
	.st3{fill-rule:evenodd;clip-rule:evenodd;fill:#231F20;}
</style>
<g id="Layer_2">
</g>
<g id="Layer_1">
	<g>
		<path d="M294.4,56.5c0-0.2,0-0.4,0-0.6c0-3.7,0-7.4,0-11.1c0-1.3-0.5-1.8-1.9-1.9c-0.2,0-0.5,0-0.7-0.2c-0.3-0.3,0-0.8,0.4-0.8
			c2.1,0,4.3,0,6.4,0c0.3,0,0.5,0.1,0.5,0.5c0,0.3-0.2,0.5-0.5,0.5c-1.3,0.1-1.7,0.6-1.7,1.9c0,6.3,0,12.5,0,18.8
			c0,0.4,0.1,0.9,0.1,1.3c0,0.3-0.1,0.5-0.5,0.5c-0.3,0.1-0.6,0.2-0.8-0.2c-1.1-1.4-2.2-2.9-3.4-4.3c-3.4-4-6.8-8.1-10.2-12.1
			c-0.2-0.2-0.4-0.4-0.7-0.8c-0.1,0.3-0.1,0.5-0.1,0.7c0,4.6,0,9.1,0,13.7c0,1.1,0.4,1.6,1.5,1.8c0.2,0,0.4,0.1,0.6,0.1
			c0.3,0,0.6,0.1,0.5,0.5c0,0.4-0.3,0.4-0.5,0.4c-1.1,0-2.2,0-3.3,0c-3.6,0-7.1,0-10.7,0c-0.2,0-0.4,0-0.5,0
			c-0.2-0.1-0.4-0.3-0.4-0.4c0-0.2,0.2-0.4,0.4-0.4c1.5-0.3,1.7-0.6,1.1-2c-0.4-1-0.8-2.1-1.2-3.1c-0.1-0.4-0.3-0.5-0.7-0.5
			c-2.2,0-4.5,0-6.7,0c-0.2,0-0.6,0.1-0.6,0.3c-0.5,1.4-1.1,2.7-1.5,4.1c-0.3,0.8-0.1,1,0.8,1.2c0.3,0,0.5,0.1,0.5,0.5
			c0,0.4-0.3,0.4-0.6,0.4c-1.7,0-3.5,0-5.2,0c-0.3,0-0.5,0-0.6-0.4c0-0.3,0.2-0.5,0.5-0.5c1-0.1,1.5-0.7,1.8-1.5
			c1-2.5,2.1-5,3.1-7.5c1.6-3.8,3.1-7.6,4.7-11.4c0.2-0.6,0.4-1.2,0.6-1.8c0.1-0.5,0.6-0.5,0.9-0.5c0.2,0,0.4,0.2,0.5,0.3
			c1.1,2.7,2.2,5.5,3.3,8.2c1.6,3.9,3.1,7.8,4.7,11.6c0.2,0.6,0.5,1.2,0.9,1.7c0.6,0.9,2.3,1.1,3.1,0.5c0.3-0.2,0.5-0.6,0.6-1
			c0.1-0.4,0.1-0.8,0.1-1.1c0-5.3,0-10.6,0-15.9c0-0.3,0-0.7-0.1-1c-0.1-1.3-0.8-2-2.2-2.1c-0.1,0-0.1,0-0.2,0
			c-0.3,0-0.5-0.2-0.5-0.5c0-0.3,0.2-0.4,0.5-0.4c1.7,0,3.4,0,5.1,0c0.3,0,0.6,0.3,0.8,0.5c2.4,2.8,4.8,5.6,7.2,8.5
			c1.4,1.7,2.8,3.4,4.3,5c0.1,0.2,0.3,0.3,0.5,0.5C294.3,56.5,294.3,56.5,294.4,56.5z M267.9,56.5c-1-2.7-2-5.2-2.9-7.8
			c-0.1,0-0.1,0-0.2,0c-1,2.6-1.9,5.1-3,7.8C263.9,56.5,265.8,56.5,267.9,56.5z"/>
		<path d="M37.8,54.3c-1.5,0-3,0-4.4,0c-0.4,0-0.6,0.1-0.6,0.6c0,2.6,0,5.2,0.1,7.8c0,1.1,0.5,1.5,1.6,1.7c0.2,0,0.5,0.2,0.6,0.3
			c0.2,0.3-0.1,0.5-0.6,0.5c-1.7,0-3.4,0-5.2,0c-0.7,0-1.4,0-2.1,0c-0.3,0-0.6,0-0.6-0.5c0-0.4,0.2-0.5,0.6-0.5
			c1-0.1,1.5-0.6,1.5-1.5c0-1.1,0.1-2.2,0.1-3.2c0-4.5,0-9.1,0-13.6c0-0.5,0-0.9-0.1-1.4c-0.1-0.9-0.6-1.5-1.5-1.6
			c-0.3,0-0.6-0.1-0.6-0.5c0-0.4,0.3-0.5,0.6-0.5c2.4,0,4.8,0,7.3,0c0.3,0,0.6,0,0.6,0.5c0,0.5-0.3,0.5-0.6,0.5
			c-1,0-1.5,0.5-1.6,1.5c0,2.4,0,4.7-0.1,7.1c0,0.4,0.2,0.6,0.6,0.6c3,0,6,0,8.9,0c0.4,0,0.6-0.2,0.6-0.6c0-2.2,0-4.4,0-6.6
			c0-1.3-0.4-1.7-1.7-1.9c-0.3,0-0.4-0.2-0.4-0.5c0-0.3,0.2-0.5,0.5-0.5c1.5,0,2.9,0,4.4,0c1,0,1.9,0,2.9,0c0.3,0,0.6,0,0.6,0.5
			c0,0.4-0.3,0.5-0.6,0.5c-1.1,0-1.6,0.6-1.6,1.8c0,3.1,0,6.2,0,9.3c0,2.8,0,5.5,0,8.3c0,1.5,0.4,1.9,1.8,2.1c0.2,0,0.4,0.3,0.4,0.4
			c0.1,0.3-0.2,0.4-0.5,0.4c-1.1,0-2.2,0-3.3,0c-1.3,0-2.6,0-4,0c-0.3,0-0.6,0-0.6-0.4c0-0.4,0.3-0.5,0.6-0.5c1-0.2,1.3-0.5,1.5-1.5
			c0-0.2,0-0.5,0-0.7c0-2.4,0-4.7,0-7.1c0-0.8,0-0.8-0.9-0.8C40.7,54.3,39.3,54.3,37.8,54.3z"/>
		<path d="M147,56.5c0-0.2,0-0.4,0-0.6c0-3.6,0-7.2,0-10.8c0-1.6-0.5-2.1-2.1-2.1c-0.3,0-0.6,0-0.6-0.5c0-0.5,0.3-0.5,0.6-0.5
			c2,0,4.1,0,6.1,0c0.3,0,0.6,0,0.7,0.5c0,0.5-0.3,0.5-0.7,0.5c-1,0-1.5,0.5-1.5,1.5c0,6.8,0,13.7,0,20.5c0,0.2-0.2,0.4-0.3,0.5
			c-0.3,0.1-0.6,0.3-0.9-0.1c-1.4-1.8-2.7-3.5-4.1-5.2c-3.2-3.8-6.4-7.5-9.5-11.3c-0.2-0.2-0.3-0.4-0.5-0.6c-0.1,0-0.1,0.1-0.2,0.1
			c0,0.2-0.1,0.4-0.1,0.6c0,4.5,0,9,0,13.4c0,1.4,0.5,1.8,1.8,2c0.2,0,0.3,0,0.5,0c0.2,0.1,0.4,0.2,0.4,0.4c0.1,0.3-0.1,0.4-0.4,0.4
			c-2.1,0-4.3,0-6.4,0c-0.1,0-0.4-0.2-0.4-0.4c-0.1-0.3,0.1-0.4,0.4-0.5c1.3-0.2,1.7-0.6,1.7-1.9c0-5.7,0-11.5,0-17.2
			c0-1.2-0.6-2-1.6-2.2c-0.2-0.1-0.5,0-0.7-0.1c-0.3,0-0.5-0.2-0.5-0.5c0-0.3,0.2-0.4,0.5-0.4c1.7,0,3.4,0,5.1,0
			c0.2,0,0.5,0.2,0.7,0.5c2.5,3,5,6,7.6,8.9c1.3,1.6,2.7,3.1,4,4.7c0.1,0.1,0.2,0.3,0.3,0.5C146.9,56.6,146.9,56.5,147,56.5z"/>
		<path d="M158.5,48.3c0,0.2-0.1,0.4-0.1,0.6c0,4.4,0,8.8,0,13.3c0,0.2,0,0.5,0.1,0.7c0.1,0.9,0.5,1.2,1.3,1.4
			c0.3,0.1,0.6,0,0.9,0.1c0.2,0,0.4,0.3,0.4,0.4c0,0.1-0.2,0.4-0.3,0.4c-2.2,0-4.4,0-6.6,0c-0.1,0-0.3-0.2-0.3-0.4
			c0-0.2,0.2-0.3,0.3-0.5c0,0,0,0,0.1,0c1.6,0,1.8-1,1.8-2.1c0-5.5,0-11,0-16.5c0-0.3,0-0.7-0.1-1c-0.2-1-0.9-1.7-1.9-1.7
			c-0.1,0-0.2,0-0.3,0c-0.3,0-0.5-0.1-0.5-0.5c0-0.3,0.2-0.5,0.5-0.5c1.7,0,3.3,0,5,0c0.2,0,0.5,0.2,0.7,0.4
			c2.6,3.1,5.2,6.1,7.8,9.2c1.2,1.5,2.5,3,3.7,4.4c0.1,0.2,0.2,0.3,0.3,0.5c0.1,0,0.1-0.1,0.2-0.1c0-0.2,0-0.4,0-0.5
			c0-3.7,0-7.4,0-11.1c0-1.3-0.5-1.8-1.9-1.9c-0.2,0-0.5,0-0.6-0.1c-0.1-0.1-0.1-0.4-0.1-0.5c0.1-0.1,0.3-0.3,0.4-0.3
			c2.1,0,4.3,0,6.4,0c0.3,0,0.4,0.1,0.5,0.4c0,0.3-0.1,0.5-0.5,0.5c-1.4,0.1-1.7,0.6-1.7,1.9c0,6.2,0,12.5,0,18.7
			c0,0.4,0.1,0.8,0.1,1.2c0,0.4-0.1,0.6-0.5,0.7c-0.4,0.1-0.6,0.1-0.9-0.3c-0.6-0.9-1.3-1.8-2-2.7c-3.8-4.5-7.6-9-11.4-13.5
			c-0.2-0.2-0.4-0.5-0.6-0.7C158.6,48.3,158.5,48.3,158.5,48.3z"/>
		<path d="M97.9,50.9c0,3.5,0,7.1,0,10.6c0,0.5,0.1,1,0.2,1.4c0.2,0.9,0.8,1.3,1.8,1.4c0.2,0,0.5,0.1,0.6,0.2c0.2,0.3,0,0.7-0.4,0.7
			c-3.1,0-6.1,0-9.2,0c-0.3,0-0.5-0.2-0.5-0.5c0-0.3,0.2-0.5,0.5-0.5c0.4,0,0.7-0.1,1.1-0.2c0.6-0.2,0.9-0.7,1-1.3
			c0.1-0.4,0.1-0.8,0.1-1.2c0-7.2,0-14.4,0-21.5c0-0.9,0-0.9-0.9-0.9c-1.6,0-3.2,0-4.8,0.1c-1.4,0-2.3,0.8-2.8,2.1
			c-0.1,0.4-0.3,0.8-0.4,1.2c-0.1,0.3-0.2,0.5-0.5,0.5c-0.3,0-0.5-0.2-0.5-0.6c0.1-1.2,0.1-2.4,0.1-3.6c0-0.7,0-1.4,0.1-2
			c0-0.6,0.4-0.9,1-0.6c0.5,0.3,1,0.3,1.6,0.3c6.3,0,12.7,0,19,0c0.5,0,1.1-0.2,1.6-0.3c0.6-0.2,0.9,0,1,0.6
			c0.1,1.8,0.1,3.7,0.2,5.5c0,0.3,0,0.6-0.4,0.6c-0.3,0.1-0.5,0-0.6-0.4c-0.2-0.6-0.4-1.2-0.6-1.7c-0.5-1-1.3-1.6-2.5-1.6
			c-1.7-0.1-3.5,0-5.2-0.1c-0.6,0-0.6,0.3-0.6,0.8C97.9,43.6,97.9,47.2,97.9,50.9z"/>
		<path d="M15.7,50.9c0,3.6,0,7.2,0,10.8c0,0.5,0.1,1,0.3,1.5c0.3,0.8,0.9,1.1,1.8,1.1c0.2,0,0.5,0.1,0.6,0.3
			c0.2,0.4-0.1,0.6-0.5,0.6c-1.3,0-2.5,0-3.8,0c-1.7,0-3.4,0-5.2,0c-0.3,0-0.6,0-0.6-0.5c0-0.3,0.2-0.4,0.5-0.5
			c1.6-0.1,2-0.5,2.2-2.1c0-0.3,0-0.6,0-0.9c0-7,0-14.1,0-21.1c0-1.1,0-1.1-1.1-1.1c-1.5,0-3.1,0-4.6,0.1c-1.3,0-2.2,0.7-2.7,1.9
			C2.3,41.6,2.1,42,2,42.5c-0.1,0.3-0.2,0.5-0.5,0.4c-0.3,0-0.5-0.2-0.5-0.6c0.1-1.4,0.1-2.7,0.2-4.1c0-0.5,0.1-1,0.1-1.6
			c0-0.6,0.4-0.9,0.9-0.6c0.6,0.4,1.3,0.4,1.9,0.4c6.3,0,12.5,0,18.8,0c0.5,0,1.1-0.2,1.6-0.3c0.6-0.2,1,0,1,0.6
			c0.1,1.8,0.1,3.7,0.2,5.5c0,0.2-0.1,0.5-0.3,0.6C25,43,24.7,43,24.6,42.5c-0.2-0.6-0.4-1.3-0.7-1.9c-0.5-0.9-1.3-1.4-2.3-1.4
			c-1.7,0-3.5,0-5.2-0.1c-0.5,0-0.7,0.2-0.6,0.7C15.7,43.5,15.7,47.2,15.7,50.9z"/>
		<path d="M180.1,53.5c0-2.8,0-5.6,0-8.4c0-1.3-0.6-2-1.9-2.1c-0.3,0-0.6-0.1-0.6-0.5c0-0.5,0.3-0.5,0.7-0.5c4.1,0,8.2,0,12.3,0
			c0.9,0,1.8,0,2.7,0c0.4,0,0.9-0.1,1.3-0.3c0.7-0.3,1-0.1,1,0.6c0.1,1.4,0.1,2.9,0.2,4.3c0,0.1,0,0.3,0,0.4
			c-0.1,0.2-0.3,0.3-0.4,0.4c-0.1,0-0.4-0.1-0.4-0.3c-0.2-0.5-0.3-1-0.6-1.5c-0.5-1-1.2-1.4-2.3-1.4c-2.4,0-4.7,0-7.1,0
			c-0.5,0-0.7,0.2-0.7,0.7c0,2.2,0,4.3,0,6.5c0,0.5,0.2,0.7,0.7,0.7c1.8,0,3.5,0,5.3,0c1.3,0,1.9-0.6,2-1.9c0-0.3,0-0.6,0.5-0.6
			c0.5,0,0.5,0.3,0.5,0.6c0,2.1,0,4.2,0,6.3c0,0.3,0,0.6-0.4,0.6c-0.4,0-0.5-0.2-0.5-0.6c0-0.2,0-0.5-0.1-0.7
			c-0.2-1-0.7-1.6-1.7-1.6c-1.9-0.1-3.7,0-5.6,0c-0.4,0-0.5,0.2-0.5,0.5c0,2.7,0,5.3,0,8c0,0.3,0.1,0.5,0.4,0.5c2.4,0,4.8,0,7.3,0
			c1.2,0,2.1-0.7,2.7-1.7c0.5-0.7,0.9-1.5,1.3-2.3c0.2-0.3,0.3-0.5,0.7-0.4c0.4,0.1,0.3,0.4,0.3,0.7c-0.3,2-0.6,4-0.9,6
			c-0.1,0.4-0.5,0.6-0.9,0.3c-0.6-0.4-1.3-0.4-2-0.4c-4.9,0-9.9,0-14.8,0c-0.2,0-0.3,0-0.5,0c-0.3,0-0.5-0.1-0.5-0.4
			c0-0.3,0.2-0.4,0.5-0.4c0,0,0.1,0,0.1,0c1.5-0.1,2.2-0.8,2.3-2.3c0-1.9,0-3.7,0-5.6C180.1,55.5,180.1,54.5,180.1,53.5z"/>
		<path d="M53.7,53.5c0-2.8,0-5.6,0-8.4c0-1.3-0.6-2-1.9-2.1c-0.4,0-0.6-0.1-0.6-0.6c0-0.4,0.3-0.4,0.6-0.4c4.8,0,9.7,0,14.5,0
			c0.6,0,1.2,0,1.8-0.3c0.5-0.3,0.8-0.1,0.9,0.5c0.1,1.5,0.1,3.1,0.2,4.6c0,0.3,0.1,0.5-0.3,0.6c-0.4,0.1-0.5-0.1-0.6-0.5
			c-0.2-0.5-0.3-1-0.6-1.5c-0.4-0.8-1.1-1.3-2.1-1.3c-2.5,0-4.9,0-7.4,0c-0.4,0-0.5,0.2-0.5,0.5c0,2.3,0,4.5,0,6.8
			c0,0.3,0.2,0.5,0.5,0.5c1.9,0,3.8,0,5.6,0c1.1,0,1.7-0.7,1.8-1.8c0-0.2,0.1-0.5,0.2-0.6c0.3-0.3,0.7,0,0.8,0.4c0,2.2,0,4.4,0,6.5
			c0,0.3-0.1,0.5-0.5,0.5c-0.3,0-0.5-0.2-0.5-0.5c0-0.1,0-0.2,0-0.4c-0.1-1.4-0.8-2-2.2-2.1c-1.7,0-3.3,0-5,0
			c-0.5,0-0.7,0.2-0.7,0.7c0,2.6,0,5.1,0,7.7c0,0.5,0.2,0.7,0.7,0.7c2.2,0,4.4,0,6.5,0c1.2,0,2.2-0.4,2.9-1.4c0.6-0.8,1-1.8,1.5-2.7
			c0.2-0.3,0.3-0.5,0.7-0.4c0.4,0.1,0.3,0.4,0.3,0.7c-0.3,1.9-0.6,3.9-0.9,5.8c-0.1,0.7-0.4,0.8-1.1,0.5c-0.5-0.2-1.1-0.4-1.6-0.4
			c-5,0-10,0-15.1,0c-0.2,0-0.4,0-0.6,0c-0.2-0.1-0.4-0.3-0.4-0.4c0-0.2,0.2-0.3,0.4-0.4c0,0,0.2,0,0.3,0c1.4-0.1,2.2-0.8,2.2-2.2
			c0-2,0-4,0-6C53.7,55.3,53.7,54.4,53.7,53.5z"/>
		<path d="M242.7,65.2c-2.6,0-5.1,0-7.7,0c-0.2,0-0.4,0-0.5,0c-0.1-0.1-0.3-0.3-0.3-0.4c0-0.1,0.1-0.3,0.2-0.4c0,0,0.1,0,0.2,0
			c1.7,0.1,2.4-1,2.4-2.6c0-5.6,0-11.1,0-16.7c0-1.3-0.6-2-1.8-2.1c-0.3,0-0.6-0.1-0.6-0.5c0-0.5,0.3-0.5,0.7-0.5
			c4.6,0,9.2,0,13.9,0c0.4,0,0.8,0,1.1,0c0.4,0,0.8-0.1,1.1-0.3c0.7-0.3,1-0.2,1.1,0.6c0.1,1.5,0.2,3.1,0.2,4.6
			c0,0.1-0.2,0.4-0.3,0.4c-0.2,0-0.5-0.1-0.6-0.3c-0.2-0.5-0.3-1-0.5-1.5c-0.4-1-1.2-1.5-2.3-1.5c-2.4,0-4.8,0-7.2,0
			c-0.4,0-0.6,0.2-0.6,0.6c0,2.2,0,4.4,0,6.6c0,0.4,0.2,0.6,0.6,0.6c1.8,0,3.6,0,5.4,0c1.2,0,1.8-0.6,1.9-1.8c0-0.3,0-0.6,0.5-0.6
			c0.5,0,0.5,0.3,0.5,0.7c0,2.1,0,4.1,0,6.2c0,0.3,0,0.6-0.5,0.6c-0.5,0-0.5-0.3-0.5-0.6c0-0.3-0.1-0.7-0.1-1
			c-0.2-0.8-0.8-1.2-1.7-1.2c-1.8,0-3.7,0-5.5,0c-0.5,0-0.5,0.3-0.5,0.7c0,1.6,0,3.1,0,4.7c0,1,0,2,0,3c0,0.5,0.2,0.7,0.7,0.7
			c2.2,0,4.4,0,6.5,0c1.2,0,2.2-0.5,2.9-1.5c0.6-0.8,1-1.7,1.5-2.6c0.2-0.3,0.3-0.5,0.7-0.4c0.4,0.1,0.3,0.4,0.3,0.7
			c-0.3,2-0.6,3.9-0.9,5.9c-0.1,0.6-0.4,0.7-1,0.5c-0.5-0.2-1.1-0.4-1.6-0.4C247.8,65.2,245.3,65.2,242.7,65.2z"/>
		<path d="M117.2,42c2.4,0,4.8,0,7.3,0c0.5,0,0.9-0.1,1.3-0.3c0.6-0.2,0.9-0.1,1,0.5c0.1,0.9,0.1,1.8,0.2,2.8c0,0.6,0.1,1.3,0.1,1.9
			c0,0.3,0,0.5-0.4,0.5c-0.3,0.1-0.5,0-0.6-0.4c-0.2-0.5-0.3-1-0.6-1.5c-0.4-0.9-1.2-1.4-2.2-1.4c-2.4,0-4.8,0-7.2,0
			c-0.4,0-0.6,0.1-0.6,0.6c0,2.2,0,4.4,0,6.6c0,0.4,0.1,0.6,0.6,0.6c1.8,0,3.7,0,5.5,0c1.1,0,1.6-0.6,1.8-1.7c0-0.1,0-0.3,0.1-0.4
			c0.1-0.2,0.3-0.3,0.5-0.4c0.1,0.2,0.3,0.3,0.4,0.5c0,0,0,0.1,0,0.2c0,2.1,0,4.1,0,6.2c0,0.3,0,0.6-0.5,0.7c-0.3,0-0.5-0.1-0.5-0.4
			c0-0.2,0-0.4,0-0.6c-0.1-1.2-0.8-1.9-1.9-1.9c-1.8,0-3.6,0-5.3,0c-0.4,0-0.5,0.2-0.5,0.6c0,2.6,0,5.3,0,7.9c0,0.4,0.1,0.6,0.5,0.6
			c2.3,0,4.5,0,6.8,0c1.1,0,2.1-0.5,2.7-1.4c0.6-0.8,1-1.7,1.5-2.6c0.2-0.3,0.3-0.6,0.7-0.4c0.4,0.1,0.4,0.4,0.3,0.7
			c-0.3,1.9-0.6,3.9-0.9,5.8c-0.1,0.6-0.5,0.8-1,0.5c-0.5-0.4-1.1-0.4-1.7-0.4c-5,0-10,0-15.1,0c-0.2,0-0.4,0.1-0.5,0
			c-0.2-0.1-0.4-0.3-0.4-0.4c0-0.1,0.2-0.3,0.4-0.4c0.1-0.1,0.3,0,0.5,0c1.1-0.1,1.8-0.7,1.9-1.9c0-0.4,0.1-0.9,0.1-1.4
			c0-5.1,0-10.2,0-15.3c0-0.3,0-0.6,0-0.9c-0.1-1.3-0.6-1.8-1.9-2c-0.2,0-0.4-0.2-0.5-0.3c-0.1-0.3,0-0.6,0.5-0.6c0.7,0,1.5,0,2.2,0
			C113.5,42,115.4,42,117.2,42z"/>
		<path d="M207.1,65.8c-1.4-0.2-2.9-0.5-4.3-0.7c-0.4-0.1-0.7-0.2-1.1-0.2c-0.5-0.1-1-0.1-1.4,0.4c-0.4,0.4-0.9,0.3-1-0.3
			c-0.3-1.9-0.6-3.8-1-5.8c-0.1-0.3,0-0.5,0.3-0.6c0.4-0.1,0.6,0,0.7,0.4c0.4,1.2,1.1,2.3,2.1,3.1c1.2,1,2.7,1.5,4.3,1.6
			c0.9,0,1.9,0,2.7-0.2c1.3-0.3,2.3-1.1,2.7-2.5c0.3-1.5-0.1-2.7-1.2-3.7c-0.6-0.5-1.3-0.9-2-1.3c-1.6-0.8-3.3-1.6-4.9-2.4
			c-0.9-0.5-1.8-1.1-2.6-1.7c-2.5-2.2-2.6-6.8,1-9c1.6-0.9,3.4-1.3,5.3-1.2c1.5,0.1,2.9,0.4,4.2,0.8c0.7,0.2,1.4,0.3,1.9-0.4
			c0.1-0.1,0.4-0.2,0.6-0.1c0.1,0,0.3,0.3,0.3,0.4c0.1,1.8,0.2,3.5,0.2,5.3c0,0.2-0.2,0.4-0.3,0.6c-0.2-0.1-0.4-0.2-0.5-0.4
			c-0.2-0.3-0.3-0.7-0.5-1c-1-1.9-2.6-2.9-4.6-3c-1-0.1-2.1-0.1-3.1,0.1c-1.1,0.2-1.9,0.9-2.2,2c-0.3,1.2,0.1,2.2,1.1,3
			c0.5,0.4,1.1,0.7,1.7,1c1.7,0.8,3.4,1.6,5.1,2.5c1.2,0.6,2.3,1.4,3.2,2.5c2.4,2.9,2.1,8.3-2.8,10.2c-1.3,0.5-2.6,0.7-3.9,0.6
			C207.1,65.7,207.1,65.8,207.1,65.8z"/>
		<path d="M225.6,65.7c-1.7,0.1-3.4-0.4-5.1-0.7c-0.6-0.2-1.2-0.2-1.8,0.4c-0.4,0.4-0.8,0.2-0.9-0.4c-0.3-1.7-0.6-3.4-0.9-5
			c0-0.2-0.1-0.4-0.1-0.6c-0.1-0.3-0.1-0.5,0.3-0.6c0.3-0.1,0.6,0,0.7,0.3c0.2,0.5,0.5,1.1,0.8,1.6c1.3,2.1,3.3,3,5.6,3.1
			c0.9,0.1,1.9,0,2.8-0.2c2.8-0.7,3.7-4,1.6-6c-0.6-0.6-1.3-1-2.1-1.4c-1.6-0.8-3.3-1.6-4.9-2.4c-1-0.5-2-1.2-2.8-2
			c-2.1-2-2.5-6.3,0.9-8.6c1.7-1.1,3.5-1.5,5.5-1.4c1.5,0.1,2.9,0.4,4.3,0.8c0.7,0.2,1.4,0.3,1.9-0.4c0.1-0.1,0.4-0.2,0.6-0.1
			c0.1,0,0.2,0.3,0.3,0.4c0.1,1.7,0.2,3.5,0.2,5.2c0,0.3,0.1,0.6-0.3,0.7c-0.4,0.1-0.5-0.2-0.6-0.5c-1.3-3.4-3.9-4.2-7.3-4
			c-0.4,0-0.9,0.1-1.3,0.3c-2,0.7-2.5,3.2-0.9,4.6c0.5,0.5,1.2,0.8,1.8,1.2c1.5,0.8,3,1.5,4.5,2.2c1.3,0.6,2.4,1.3,3.5,2.3
			c3.2,3.1,2.6,8.9-2.3,10.7C228.3,65.5,227,65.7,225.6,65.7z"/>
	</g>
</g>
</svg>
