<?xml version="1.0" encoding="utf-8"?>
<!-- Generator: Adobe Illustrator 18.0.0, SVG Export Plug-In . SVG Version: 6.00 Build 0)  -->
<!DOCTYPE svg PUBLIC "-//W3C//DTD SVG 1.1//EN" "http://www.w3.org/Graphics/SVG/1.1/DTD/svg11.dtd">
<svg version="1.1" xmlns="http://www.w3.org/2000/svg" xmlns:xlink="http://www.w3.org/1999/xlink" x="0px" y="0px"
	 viewBox="0 0 300 100" style="enable-background:new 0 0 300 100;" xml:space="preserve">
<style type="text/css">
	.st0{fill-rule:evenodd;clip-rule:evenodd;}
	.st1{fill-rule:evenodd;clip-rule:evenodd;fill:#C038F9;}
	.st2{fill:none;}
	.st3{fill-rule:evenodd;clip-rule:evenodd;fill:#231F20;}
</style>
<g id="Layer_2">
</g>
<g id="Layer_1">
	<g>
		<path d="M282.5,73.2c1-0.4,2-0.7,2.9-1.2c3.2-1.7,4.9-4.5,5-8.2c0.1-1.9-0.1-3.8-0.9-5.5c-1.1-2.4-3-3.8-5.3-4.7
			c-2.2-0.9-4.5-1.3-6.9-1.7c-3.5-0.5-7-0.9-10.4-1.7c-0.7-0.1-1.4-0.3-2-0.7c-0.6-0.3-1-0.8-1-1.5c0-0.8,0.3-1.3,0.9-1.7
			c1-0.6,2-0.7,3.1-0.8c2.5-0.2,5.1-0.3,7.6,0.2c0.4,0.1,0.8,0.2,1.2,0.3c1.3,0.4,2.2,1.2,2.3,2.7c0,0.4,0.2,0.4,0.5,0.4
			c3,0,6.1,0,9.1,0c0.4,0,0.5-0.1,0.4-0.5c-0.2-4.9-2.4-8-7-9.8c-2.4-0.9-4.9-1.3-7.4-1.5c-3-0.2-6-0.2-9.1,0.2
			c-2.4,0.3-4.7,0.9-6.9,2.1c-3.4,1.9-5.1,4.8-4.9,8.8c0.1,2.1,0.5,4.1,1.8,5.9c1.3,1.9,3.2,3,5.3,3.7c2,0.7,4.1,1,6.2,1.3
			c3.3,0.5,6.6,0.9,9.9,1.6c0.7,0.1,1.4,0.4,2.1,0.7c0.7,0.4,1.2,0.9,1.2,1.8c0,0.9-0.3,1.6-1.1,2.1c-0.9,0.5-1.8,0.7-2.8,0.8
			c-3.3,0.3-6.5,0.3-9.8-0.2c-0.3,0-0.6-0.1-0.9-0.2c-1.6-0.5-2.2-1.2-2.3-2.9c0-0.3-0.1-0.5-0.5-0.5c-3.1,0-6.2,0-9.3,0
			c-0.2,0-0.5-0.1-0.5,0.4c0.1,2.7,0.6,5.2,2.5,7.2c1.3,1.4,3,2.2,4.8,2.8c0.3,0.1,0.6,0.2,0.8,0.4c-0.2,0-0.5,0-0.7,0
			c-5.8,0-11.6,0-17.4,0c-0.7,0-0.7,0-0.4-0.7c4.1-11.4,8.1-22.7,12.2-34.1c0.1-0.2,0.2-0.3,0.1-0.5c-0.2,0-0.3,0-0.5,0
			c-3,0-5.9,0-8.9,0c-0.5,0-0.6,0.2-0.8,0.6c-2.6,8.4-5.3,16.9-7.9,25.3c0,0.1-0.1,0.3-0.2,0.5c-0.3-1.1-0.6-2-0.9-3
			c-2.3-7.7-4.6-15.3-6.9-23c-0.1-0.3-0.2-0.4-0.6-0.4c-3.5,0-7,0-10.5,0c-0.4,0-0.6,0.1-0.7,0.5c-2,6.9-4,13.7-6,20.5
			c-0.5,1.6-0.9,3.1-1.4,4.7c0,0.2-0.1,0.3-0.2,0.7c-0.3-1-0.6-1.8-0.9-2.6c-2.5-7.8-5-15.5-7.4-23.3c-0.1-0.4-0.2-0.5-0.6-0.5
			c-3.4,0-6.8,0-10.3,0c0.3,0.8,0.6,1.6,0.9,2.4c3.7,10.3,7.3,20.7,11,31c0.2,0.5,0.3,1,0.5,1.5c0.1,0.3,0.1,0.4-0.2,0.4
			c-6.8,0-13.5,0-20.3,0c0,0-0.1,0-0.2-0.1c1-0.4,2-0.7,2.9-1.1c4.1-2,6.9-5.1,8.2-9.5c0.1-0.4,0.1-0.5-0.4-0.5c-3,0-6.1,0-9.1,0
			c-0.3,0-0.5,0.1-0.6,0.4c-0.5,1.1-1.5,1.8-2.6,2.3c-1.8,0.8-3.7,1.2-5.6,1.3c-2.1,0.1-4.3-0.1-6.3-0.8c-2.1-0.7-3.6-2.1-4.5-4.2
			c-0.2-0.5-0.3-1-0.3-1.5c0-0.3,0-0.4,0.4-0.4c0.2,0,0.4,0,0.6,0c9.4,0,18.7,0,28.1,0c0.8,0,0.8,0,0.9-0.8c0.3-3.8-0.1-7.5-1.6-11
			c-2-4.5-5.4-7.5-10-9c-6.4-2-12.7-1.9-18.8,1.1c-5.4,2.6-8.5,7-9.4,13c-0.5,3.6-0.3,7.1,0.9,10.5c1.6,4.9,4.9,8,9.6,9.8
			c0.4,0.1,0.7,0.2,1.1,0.4c0,0,0,0,0.1,0.1c-0.2,0-0.3,0-0.5,0c-4.1,0-8.2,0-12.3,0c-0.5,0-0.6-0.1-0.6-0.6c0-10.6,0-21.2,0-31.8
			c0-5,0-10,0-15c0-0.5-0.1-0.6-0.6-0.6c-3,0-5.9,0-8.9,0c-0.5,0-0.6,0.2-0.6,0.7c0,9.8,0,19.7,0,29.5c0,0.2,0,0.5,0,0.7
			c-0.2,0-0.2-0.1-0.3-0.2c-5.2-8.7-10.3-17.5-15.5-26.2c-0.8-1.4-1.6-2.7-2.4-4.1c-0.1-0.2-0.3-0.3-0.6-0.3c-3.8,0-7.6,0-11.4,0
			c-0.3,0-0.4,0.1-0.4,0.4c0,0.3,0,0.6,0,0.8c0,15.4,0,30.8,0,46.2c0,0.5-0.1,0.6-0.6,0.6c-1.2,0-1.2,0-1.2-1.2c0-2.6,0-5.1,0-7.7
			c0-0.4-0.1-0.6-0.6-0.6c-2.1,0-4.3,0-6.4,0c-0.4,0-0.6-0.1-0.4-0.5c0.6-2.6,0.6-5.2-0.1-7.7c-1-3.8-3.6-6.2-7-7.8
			c-2.6-1.2-5.4-1.8-8.3-2.4c-3.7-0.8-7.5-1.4-11.2-2.6c-1.1-0.4-2.2-0.8-3.1-1.5c-1.8-1.3-2.3-4.1-1.1-5.8c0.8-1,1.9-1.5,3.1-1.7
			c2.4-0.5,4.8-0.6,7.2-0.5c1.4,0.1,2.8,0.2,4.2,0.6c2.7,0.8,4.4,2.6,4.9,5.4c0.1,0.4,0.2,0.5,0.6,0.5c3.2,0,6.5,0,9.7,0
			c0.4,0,0.6-0.1,0.5-0.6c-0.9-6.2-4.2-10.6-10.2-12.8c-2.9-1.1-5.9-1.5-8.9-1.6c-3.9-0.2-7.8,0.1-11.6,1.1c-2.3,0.6-4.5,1.5-6.4,3
			c-3.5,2.7-4.9,6.3-4.6,10.6c0.3,5.1,3,8.5,7.3,10.7c2.7,1.4,5.7,2.1,8.7,2.7c3.3,0.7,6.7,1.1,10,2c1.1,0.3,2.3,0.7,3.3,1.2
			c1.4,0.8,2.3,1.9,2.5,3.5c0.3,2.1,0,3.7-1.9,5c-0.6,0.4-1.2,0.6-1.9,0.8c-2.6,0.7-5.3,0.7-8,0.6c-1.7-0.1-3.4-0.3-5-0.8
			c-2.7-0.9-4.1-2.9-4.4-5.7c0-0.4-0.1-0.5-0.5-0.5c-3.3,0-6.6,0-9.9,0c-0.3,0-0.5,0-0.5,0.4c0.1,2.9,0.7,5.7,2.4,8.2
			c1.6,2.4,3.9,3.9,6.5,4.9c0.8,0.3,1.6,0.6,2.4,0.8c-0.1,0.1-0.3,0.1-0.4,0.1c-3.4,0-6.8,0-10.1,0c-0.4,0-0.5-0.1-0.5-0.5
			c0-2.8,0-5.6,0-8.4c0-0.4-0.1-0.6-0.5-0.6c-2.1,0-4.2,0-6.4,0c-0.5,0-0.5-0.1-0.4-0.5c0.4-1.4,0.6-2.8,0.6-4.2c0-11,0-22.1,0-33.1
			c0-0.5-0.2-0.6-0.6-0.6c-3.1,0-6.2,0-9.3,0c-0.5,0-0.6,0.1-0.6,0.6c0,10.4,0,20.7,0,31.1c0,4.3-2.3,6.9-5.7,7.9
			c-3.6,1.1-7.3,1.1-10.8-0.5c-2.8-1.2-4.3-3.5-4.3-6.7c0-10.6,0-21.1,0-31.7c0-0.6-0.2-0.7-0.7-0.7c-3.1,0-6.2,0-9.3,0
			c-0.4,0-0.5,0.1-0.5,0.5c0,11,0,22.1,0,33.1c0,3.9,1.2,7.4,4,10.1c2,2,4.4,3.1,7,3.9c0.2,0.1,0.3,0.1,0.5,0.2c-0.3,0-0.6,0-0.9,0
			c-6.6,0-13.2,0-19.8,0c-0.5,0-0.6-0.1-0.6-0.6c0-19.3,0-38.6,0-58c0-0.6,0.2-0.7,0.7-0.7c97.9,0,195.9,0,293.8,0
			c0.5,0,1.1-0.2,1.4,0.1c0.2,0.3,0.1,0.9,0.1,1.4c0,19,0,38.1,0,57.1c0,0.4,0,0.6-0.5,0.6c-4.9,0-9.7,0-14.6,0
			C282.8,73.2,282.7,73.3,282.5,73.2z M177.7,28.6c0.4,1.5,0.7,2.9,1.1,4.2c0.4,1.4,0.4,1.4,1.8,1.4c0.6,0,1.3,0.2,1.7-0.1
			c0.4-0.3,0.4-1,0.5-1.6c0.7-2.5,1.4-5,2.1-7.5c0.1-0.3,0.1-0.4-0.3-0.4c-0.7,0-1.4,0-2.2,0c-0.3,0-0.3,0.1-0.4,0.4
			c-0.2,0.8-0.4,1.6-0.6,2.4c-0.2,1-0.5,2-0.7,3c-0.5-1.8-1-3.6-1.4-5.4c-0.1-0.3-0.2-0.5-0.5-0.4c-0.7,0-1.4,0-2,0
			c-0.4,0-0.6,0.1-0.6,0.5c-0.4,1.8-0.8,3.6-1.3,5.5c-0.1-0.3-0.1-0.4-0.2-0.6c-0.4-1.7-0.8-3.4-1.2-5c0-0.2-0.1-0.4-0.3-0.3
			c-0.9,0-1.9,0-2.8,0c0,0.1,0,0.2,0,0.3c0.8,3,1.7,6,2.5,9c0.1,0.3,0.2,0.3,0.5,0.3c0.8,0,1.5,0,2.3,0c0.4,0,0.6-0.1,0.7-0.5
			C176.8,32,177.2,30.4,177.7,28.6z M205.8,34.2c-0.7-1.2-1.3-2.3-2-3.3c-0.2-0.3-0.2-0.5,0.2-0.7c0.3-0.1,0.4-0.3,0.6-0.6
			c0.5-0.8,0.6-1.7,0.5-2.7c-0.2-1.3-0.9-2-2.2-2.2c-2.2-0.3-4.4-0.1-6.6-0.1c-0.3,0-0.3,0.2-0.3,0.4c0,2.9,0,5.9,0,8.8
			c0,0.3,0.1,0.4,0.4,0.4c0.7,0,1.4,0,2.1,0c0.3,0,0.4-0.1,0.4-0.4c0-0.4,0-0.9,0-1.3c0-0.5-0.2-1.1,0.1-1.4c0.3-0.3,1,0,1.4-0.1
			c0.3,0,0.5,0.1,0.6,0.4c0.4,0.8,0.8,1.7,1.3,2.5c0.1,0.2,0.2,0.3,0.4,0.3C203.8,34.2,204.8,34.2,205.8,34.2z M279.5,34.2
			c-0.7-1.2-1.3-2.3-2-3.3c-0.2-0.3-0.3-0.5,0.2-0.6c0.3-0.1,0.5-0.4,0.7-0.7c0.4-0.7,0.5-1.4,0.4-2.2c-0.1-1.5-0.8-2.4-2.3-2.6
			c-2.2-0.2-4.4,0-6.6-0.1c-0.3,0-0.3,0.2-0.3,0.4c0,2.9,0,5.9,0,8.8c0,0.3,0.1,0.4,0.4,0.4c0.7,0,1.4,0,2,0c0.3,0,0.4-0.1,0.4-0.4
			c0-0.8,0-1.6,0-2.3c0-0.3,0.1-0.5,0.4-0.4c0.4,0,0.7,0,1.1,0c0.3,0,0.5,0.1,0.6,0.4c0.4,0.8,0.8,1.6,1.2,2.4
			c0.1,0.2,0.2,0.4,0.4,0.4C277.4,34.2,278.4,34.2,279.5,34.2z M238.7,34.2c-0.7-1.2-1.3-2.2-1.9-3.3c-0.2-0.3-0.3-0.5,0.2-0.7
			c0.3-0.1,0.6-0.4,0.7-0.8c0.4-0.8,0.5-1.7,0.3-2.6c-0.2-1.1-0.8-1.8-1.9-2.1c-0.4-0.1-0.8-0.1-1.2-0.1c-1.8,0-3.6,0-5.5,0
			c-0.4,0-0.5,0.1-0.5,0.5c0,1.4,0,2.8,0,4.1c0,1.5,0,3,0,4.5c0,0.4,0.1,0.5,0.5,0.5c0.6,0,1.3,0,1.9,0c0.4,0,0.5-0.1,0.5-0.5
			c0-0.4,0-0.7,0-1.1c0-0.5-0.2-1.2,0.1-1.5c0.3-0.3,1-0.1,1.5-0.1c0.3,0,0.4,0.1,0.5,0.3c0.4,0.8,0.9,1.7,1.3,2.5
			c0.1,0.2,0.2,0.4,0.4,0.4C236.7,34.2,237.6,34.2,238.7,34.2z M215,29.4C215,29.4,215,29.4,215,29.4c0,1.5,0,2.9,0,4.4
			c0,0.2,0,0.4,0.3,0.4c2,0,3.9,0.1,5.9-0.1c1.7-0.1,2.7-1.2,2.9-2.8c0.2-1.2,0.1-2.3,0.1-3.5c-0.2-1.9-1.1-2.9-3-3.1
			c-2-0.2-3.9,0-5.9-0.1c-0.3,0-0.3,0.2-0.3,0.4C215,26.5,215,27.9,215,29.4z M161.7,29.9c0.6-0.4,1.1-0.8,1.5-1.4
			c0.9-1.4,0.4-3.1-1.2-3.7c-1.1-0.4-2.1-0.3-3.2,0.2c-0.9,0.5-1.4,1.2-1.4,2.3c0,0.7,0.2,1.2,0.6,1.8c0.2,0.3,0.1,0.4-0.1,0.5
			c-0.3,0.2-0.6,0.4-0.9,0.6c-0.8,0.6-1,1.3-0.9,2.3c0.1,0.8,0.7,1.3,1.4,1.5c1.7,0.5,3.4,0.5,5.1,0.1c0.2,0,0.3-0.2,0.5,0
			c0.4,0.4,0.9,0.2,1.4,0.3c0.8,0,1.7,0,2.5,0c-0.5-0.5-1.1-1-1.6-1.3c-0.2-0.2-0.3-0.3,0-0.5c0.5-0.5,0.8-1.1,0.9-1.8
			c0.2-1.1,0.3-0.9-0.7-0.9c-0.2,0-0.5,0-0.7,0c-0.3,0-0.7-0.1-1,0c-0.3,0.1-0.2,0.6-0.3,0.8c0,0.1-0.1,0.1-0.1,0.2
			c-0.1,0.3-0.2,0.3-0.5,0.1C162.5,30.5,162.1,30.2,161.7,29.9z M190,24.6c-0.3,0-0.7,0-1,0c-2,0.2-3.4,1.2-3.9,3.1
			c-0.3,1.2-0.3,2.5,0,3.8c0.4,1.4,1.2,2.3,2.6,2.7c1.5,0.5,3,0.5,4.5,0c1.3-0.4,2.2-1.3,2.5-2.7c0.3-1,0.3-2.1,0.2-3.2
			c-0.3-1.9-1.3-3.1-3.1-3.5C191.2,24.5,190.6,24.5,190,24.6z M263.7,24.6c-0.3,0-0.7,0-1,0c-2.1,0.2-3.6,1.4-4,3.3
			c-0.3,1.2-0.2,2.3,0.1,3.5c0.4,1.4,1.3,2.3,2.6,2.7c1.4,0.4,2.9,0.4,4.4,0c1.5-0.4,2.3-1.4,2.7-2.9c0.3-1.1,0.3-2.3,0-3.4
			c-0.3-1.6-1.3-2.6-2.8-3C265,24.6,264.4,24.5,263.7,24.6z M239.5,29.4c0,1.5,0,2.9,0,4.4c0,0.3,0.1,0.5,0.4,0.4c2.4,0,4.8,0,7.2,0
			c0.4,0,0.5-0.1,0.4-0.5c0-0.4,0-0.9,0-1.3c0-0.4-0.1-0.5-0.5-0.5c-1.3,0-2.6,0-3.9,0c-0.9,0-0.9,0-0.9-0.9c0-0.4,0.1-0.5,0.5-0.5
			c1.4,0,2.7,0,4.1,0c0.3,0,0.5-0.1,0.4-0.4c0-0.5,0-0.9,0-1.4c0-0.4-0.1-0.5-0.5-0.5c-1.3,0-2.7,0-4,0c-0.4,0-0.6-0.1-0.5-0.5
			c0-0.1,0-0.2,0-0.3c-0.1-0.5,0.1-0.6,0.6-0.6c1.3,0,2.7,0,4,0c0.4,0,0.6-0.1,0.6-0.6c0-0.4,0-0.8,0-1.2c0-0.4-0.1-0.5-0.5-0.5
			c-2.4,0-4.8,0-7.1,0c-0.4,0-0.5,0.1-0.5,0.5C239.5,26.6,239.5,28,239.5,29.4z M252.3,24.7c-1.1,0-2.1,0-3,0
			c-0.4,0-0.5,0.1-0.5,0.5c0,1.3,0,2.6,0,3.9c0,1.6,0,3.1,0,4.7c0,0.4,0.1,0.5,0.5,0.5c0.7,0,1.4,0,2,0c0.3,0,0.4-0.1,0.4-0.4
			c0-0.6,0-1.3,0-1.9c0-0.5,0.1-0.7,0.7-0.7c1,0.1,2.1,0.1,3.1-0.1c1.3-0.2,2.2-1,2.4-2.3c0.1-0.5,0.1-1,0-1.6
			c-0.1-1.4-1-2.4-2.4-2.6C254.4,24.6,253.3,24.7,252.3,24.7z M284,24.7c-0.9,0-1.8,0-2.7,0c-0.6,0-1.4-0.3-1.7,0.1
			c-0.3,0.4-0.1,1.2-0.1,1.8c0,0,0,0,0,0.1c0,0.3,0.1,0.4,0.4,0.4c0.7,0,1.4,0,2.1,0c0.4,0,0.6,0.1,0.5,0.6c0,2.1,0,4.1,0,6.2
			c0,0.4,0.1,0.5,0.5,0.5c0.7,0,1.4,0,2,0c0.4,0,0.5-0.1,0.5-0.5c0-1.8,0-3.7,0-5.5c0-1.2,0-1.2,1.2-1.2c0.6,0,1.4,0.3,1.7-0.1
			c0.3-0.4,0.1-1.1,0.1-1.7c0-0.4-0.1-0.5-0.5-0.5C286.7,24.7,285.4,24.7,284,24.7z M206.6,29.4L206.6,29.4c0,1.5,0,2.9,0,4.4
			c0,0.3,0,0.4,0.4,0.4c2.2,0,4.5,0,6.7,0c0.3,0,0.4-0.1,0.4-0.4c0-0.5,0-1,0-1.5c0-0.4-0.1-0.5-0.5-0.5c-1.2,0-2.4,0-3.5,0
			c-0.4,0-0.5-0.1-0.5-0.5c0-2.1,0-4.1,0-6.2c0-0.3,0-0.5-0.4-0.5c-0.7,0-1.4,0-2,0c-0.4,0-0.5,0.1-0.5,0.5
			C206.7,26.6,206.6,28,206.6,29.4z"/>
		<path d="M150,84.9c-49.1,0-98.1,0-147.2,0C1.9,84.9,2,85,2,84.1c0-2.9,0-5.8,0-8.7c0-0.5,0.1-0.7,0.7-0.7c30.9,0,61.8,0,92.7,0
			c67.3,0,134.6,0,201.8,0c0.8,0,0.8,0,0.8,0.9c0,2.9,0,5.8,0,8.7c0,0.5-0.1,0.7-0.7,0.7c-16.8,0-33.5,0-50.3,0
			C214.7,84.9,182.3,84.9,150,84.9z"/>
		<path d="M140.5,73.2c-0.3,0.1-0.6,0.1-0.8,0.1c-5.9,0-11.7,0-17.6,0c-0.4,0-0.6-0.1-0.6-0.5c0-10.4,0-20.9,0-31.3
			c0-0.1,0-0.1,0-0.2c0,0,0.1,0,0.1,0C128,51.8,134.3,62.5,140.5,73.2z"/>
		<path d="M222.8,49.8c1.8,7.7,4.8,15.2,7.2,22.8c0.2,0.6,0.2,0.6-0.4,0.6c-4.5,0-8.9,0-13.4,0c-0.6,0-0.6,0-0.4-0.6
			c2.2-6.6,4.4-13.1,6.4-19.7C222.5,51.9,222.6,50.8,222.8,49.8z"/>
		<path d="M173.6,52.3c-3.1,0-6.2,0-9.4,0c-0.6,0-0.6-0.2-0.5-0.6c0.6-2.2,1.8-3.9,3.9-4.9c3.9-1.7,7.8-1.9,11.7-0.2
			c2.1,0.9,3.4,2.5,3.9,4.7c0,0.1,0,0.2,0.1,0.3c0.1,0.5,0,0.6-0.6,0.6C179.8,52.3,176.7,52.3,173.6,52.3z"/>
		<path d="M41.6,73.3c3.5-1.1,6.7-2.7,9.1-5.7c0.1,0,0.1,0.1,0.1,0.2c0,1.7,0,3.4,0,5c0,0.2,0,0.4-0.3,0.4
			C47.5,73.2,44.6,73.3,41.6,73.3z"/>
		<path d="M100.4,67.6c0,1.4,0,2.7,0,4c0,0.6,0.2,1.3-0.1,1.6c-0.3,0.3-1,0.1-1.6,0.1c-2.3,0-4.6,0-7,0
			C95.1,72.1,98.1,70.6,100.4,67.6z"/>
		<path d="M200.4,26.9c0.4,0,0.7,0,1.1,0c0.6,0,0.8,0.3,0.8,0.9c0,0.7-0.2,1-0.7,1c-0.8,0-1.5,0-2.3,0c-0.2,0-0.3-0.1-0.3-0.3
			c0-0.4,0-0.9,0-1.3c0-0.3,0.1-0.3,0.3-0.3C199.7,26.9,200.1,26.9,200.4,26.9z"/>
		<path d="M273.9,26.9c0.6,0,1,0,1.4,0c0.5,0,0.7,0.3,0.7,0.9c0,0.7-0.1,0.9-0.7,1c-0.8,0.1-1.6,0-2.4,0c-0.2,0-0.3-0.1-0.2-0.3
			c0-0.1,0-0.1,0-0.2c0-0.5-0.2-1.1,0.1-1.3C273,26.7,273.6,27,273.9,26.9z"/>
		<path d="M233.2,26.9c0.4,0,0.8,0,1.1,0c0.6,0,0.8,0.3,0.8,0.8c0,0.8-0.1,1.1-0.7,1.1c-0.8,0-1.5,0-2.3,0c-0.2,0-0.3-0.1-0.3-0.3
			c0,0,0-0.1,0-0.1c0-0.5-0.2-1.1,0.1-1.5C232.2,26.7,232.9,27,233.2,26.9z"/>
		<path d="M217.9,29.4c0-0.7,0-1.4,0-2.1c0-0.3,0.1-0.4,0.4-0.4c0.6,0,1.1,0,1.7,0c0.9,0,1.3,0.4,1.4,1.3c0.1,0.9,0.1,1.7,0,2.6
			c-0.1,0.6-0.5,1.1-1.1,1.1c-0.7,0.1-1.4,0-2,0.1c-0.3,0-0.3-0.2-0.3-0.4C217.9,30.9,217.9,30.2,217.9,29.4z"/>
		<path d="M161.1,32.2c-0.6,0.2-1.2,0.2-1.8,0c-0.2-0.1-0.4-0.2-0.4-0.4c0-0.4,0.3-0.5,0.5-0.7c0.2-0.2,0.3,0,0.5,0.1
			C160.2,31.6,160.6,31.9,161.1,32.2z"/>
		<path d="M161.2,27.2c0,0.5-0.5,1.3-0.8,1.1c-0.4-0.1-0.4-0.6-0.4-0.9c0-0.4,0.1-0.7,0.6-0.8C161,26.6,161.2,26.9,161.2,27.2z"/>
		<path d="M192.1,29.4c0,0.2,0,0.3,0,0.5c-0.1,1.8-0.9,2.4-2.6,2.2c-0.7-0.1-1.1-0.5-1.3-1.2c-0.3-1-0.3-1.9,0-2.9
			c0.2-0.6,0.6-1,1.2-1.1c0.6-0.1,1.1-0.1,1.7,0.1c0.8,0.3,1,0.9,1.1,1.6C192.1,28.8,192.1,29.1,192.1,29.4
			C192.1,29.4,192.1,29.4,192.1,29.4z"/>
		<path d="M261.5,29.4c0-0.2,0-0.3,0-0.5c0.1-1.6,0.7-2.2,2.3-2.1c1.1,0.1,1.6,0.6,1.8,1.7c0.1,0.8,0.1,1.5-0.1,2.3
			c-0.2,1-0.8,1.4-1.9,1.4c-1,0-1.7-0.4-2-1.3C261.5,30.3,261.5,29.9,261.5,29.4z"/>
		<path d="M253,26.9c0.5,0,0.8,0,1.2,0c0.6,0,0.8,0.3,0.9,1c0,0.7-0.2,1.1-0.8,1.1c-0.8,0.1-1.5,0-2.3,0c-0.2,0-0.3-0.1-0.2-0.3
			c0-0.1,0-0.3,0-0.4c0-0.5-0.2-1.1,0.1-1.4C252,26.7,252.6,27,253,26.9z"/>
	</g>
</g>
</svg>
