<?xml version="1.0" encoding="utf-8"?>
<!-- Generator: Adobe Illustrator 18.0.0, SVG Export Plug-In . SVG Version: 6.00 Build 0)  -->
<!DOCTYPE svg PUBLIC "-//W3C//DTD SVG 1.1//EN" "http://www.w3.org/Graphics/SVG/1.1/DTD/svg11.dtd">
<svg version="1.1" xmlns="http://www.w3.org/2000/svg" xmlns:xlink="http://www.w3.org/1999/xlink" x="0px" y="0px"
	 viewBox="0 0 300 100" style="enable-background:new 0 0 300 100;" xml:space="preserve">
<style type="text/css">
	.st0{fill-rule:evenodd;clip-rule:evenodd;}
	.st1{fill-rule:evenodd;clip-rule:evenodd;fill:#C038F9;}
	.st2{fill:none;}
	.st3{fill-rule:evenodd;clip-rule:evenodd;fill:#231F20;}
</style>
<g id="Layer_2">
</g>
<g id="Layer_1">
	<g>
		<g>
			<path d="M63.1,79h-2.6L23.8,24v51.8h8.5v2.2H12.6v-2.2h8.5V22.2h-8.5v-2.2h22.2l25.6,37.8V22.2h-8.3v-2.2h19.7v2.2h-8.7V79z"/>
			<path d="M95.1,43c0-2.6-5-3.6-6.7-3.6c-3.8,0-8.6,1.9-7.1,3.8c0.6,0.8,1.4,2.9,1.4,4.8c0,2.6-2.5,4.4-4.8,4.4
				c-2.8,0-5.3-1.5-5.3-4.7c0-7.7,9.9-10.4,16.1-10.4c4.3,0,9,0.7,12.9,2.7c2.8,1.4,3.7,3,3.7,6.2v26.9c0,1.3,1.2,1.9,2.4,1.9
				s2.7-1.5,3.5-2.3l1.2,1.4c-2.6,3.2-5.4,5.4-9.6,5.4c-4.4,0-7.3-2.7-7.9-7.2c-3.6,4.4-9.1,7.2-14.8,7.2c-6.1,0-10.5-3.3-10.5-9.8
				c0-12,16.2-14.5,25.3-14V43z M95.1,57.7c-6.3,0-14.7,0.8-14.7,9c0,4.4,1.8,7.8,6.6,7.8c3.5,0,6.2-2.7,7.4-6
				c0.6-1.5,0.7-3.3,0.7-5.3V57.7z"/>
			<path d="M120.4,27.4c3.6,0,7.3-0.4,10.9-0.6v12.3h9.6v3h-9.6v27.8c0,3.2,0.1,5.6,3.9,5.6c3.2,0,5.2-2.5,6.2-5.4l2,1
				c-2.1,5.7-6.5,8.3-12.3,8.3c-9.2,0-10.7-3.1-10.7-8.7V42.1h-6.5v-3h6.5V27.4z"/>
			<path d="M148.1,77.9v-2.5h7.4v-35h-7.4v-2.5c6,0.2,12.1-0.2,18.3-0.4v37.9h7.5v2.5H148.1z M160.2,25c-3.1,0-5.5-3.1-5.5-6.1
				c0-2.7,2.7-5.5,5.5-5.5c2.9,0,6,2.4,6,5.5C166.1,22.3,163.6,25,160.2,25z"/>
			<path d="M197.2,37.3c11.4,0,21.2,10,21.2,21.3c0,11.3-9.8,20.8-21.2,20.8c-11.4,0-21.2-9.5-21.2-20.8
				C176,47.3,185.8,37.3,197.2,37.3z M197.2,39.3c-9.9,0-9.2,7.9-9.2,19.3c0,13.1,0.2,18.8,9.2,18.8s9.2-5.7,9.2-18.8
				C206.4,47.2,207.1,39.3,197.2,39.3z"/>
			<path d="M236.3,47h0.2c3.2-6.3,7.8-9.7,15.1-9.7c13.4,0,12.3,9.4,12.3,19.4v18.7h6.4v2.5h-23.4v-2.5h6.4V57.2
				c0-9.4,1-16.3-5.8-16.3c-4.3,0-8.3,4.6-9.8,8.4c-1.3,3.3-1.3,8-1.3,12.7v13.3h6.4v2.5h-23.9v-2.5h6.9v-35h-6.9v-2.5
				c5.2,0.2,11.3-0.2,17.6-0.4V47z"/>
			<path d="M284.5,73c0,3.5-3.2,6.5-6.4,6.5c-3.2,0-6.6-2.9-6.6-6.5c0-3.6,3.3-6.5,6.6-6.5C281.3,66.5,284.5,69.3,284.5,73z"/>
		</g>
		<g>
			<path d="M80.8,30.6v-0.5h1.9V19c-2.5-0.1-3.3,1.1-3.6,3.4h-0.6l0.2-3.9H89l0.2,3.9h-0.6c-0.3-2.3-1.1-3.5-3.6-3.4v11.1h1.9v0.5
				H80.8z"/>
			<path d="M95.4,24.6v5.5h1.8v0.5h-5.9v-0.5H93V19h-1.8v-0.5h5.9V19h-1.8v5.2h4.8V19h-1.8v-0.5h5.9V19h-1.8v11.1h1.8v0.5h-5.9v-0.5
				h1.8v-5.5H95.4z"/>
			<path d="M110.4,19v5.2c1.7,0,2.7-0.3,2.7-2.2h0.5v5h-0.5c-0.2-2-0.8-2.4-2.7-2.4v5.5h2.6c2.3,0,2.9-1.4,3.2-3.4h0.5l-0.2,3.9
				h-10.3v-0.5h1.8V19h-1.8v-0.5h10l0.1,3.2h-0.5c-0.4-1.7-1.1-2.4-2-2.7c-0.5-0.1-1-0.1-1.6-0.1H110.4z"/>
		</g>
	</g>
</g>
</svg>
