<?xml version="1.0" encoding="utf-8"?>
<!-- Generator: Adobe Illustrator 18.0.0, SVG Export Plug-In . SVG Version: 6.00 Build 0)  -->
<!DOCTYPE svg PUBLIC "-//W3C//DTD SVG 1.1//EN" "http://www.w3.org/Graphics/SVG/1.1/DTD/svg11.dtd">
<svg version="1.1" xmlns="http://www.w3.org/2000/svg" xmlns:xlink="http://www.w3.org/1999/xlink" x="0px" y="0px"
	 viewBox="0 0 300 100" style="enable-background:new 0 0 300 100;" xml:space="preserve">
<style type="text/css">
	.st0{fill-rule:evenodd;clip-rule:evenodd;}
	.st1{fill-rule:evenodd;clip-rule:evenodd;fill:#C038F9;}
	.st2{fill:none;}
	.st3{fill-rule:evenodd;clip-rule:evenodd;fill:#231F20;}
</style>
<g id="Layer_2">
</g>
<g id="Layer_1">
	<g>
		<path d="M73.8,39.3c-1.3,1.4-1.2,3.1-1.1,4.9c0.1,5.5-0.1,10.9,0.1,16.4c0,0.2,0,0.4-0.5,0.7c-4.1-5.8-8.2-11.5-12.3-17.3
			c-0.5,0.5-0.3,0.9-0.3,1.3c0,3.5,0,6.9,0,10.4c0,1.2,0.3,2.3,0.2,3.5c-0.1,0.7,0.3,1.2,1.1,1.6c-1.2,0.6-2.2,0.3-3.6,0.3
			c1.4-0.9,1.3-2.1,1.3-3.2c0-4.6,0-9.2,0-13.8c0-0.7,0-1.4-0.2-2.1c-0.3-1-0.6-1.8-1.8-2c-0.3,0-0.3-0.3-0.3-0.6c1.1,0,2.1,0,3.2,0
			c4.1,5.1,7.6,10.7,11.8,15.8c0-4.8,0-9.7,0-14.3c-0.1-0.7-1-0.8-0.8-1.5C71.7,39.3,72.7,39.3,73.8,39.3z"/>
		<path d="M48.6,39.3c1.1,3.5,2.2,7,3.3,10.5c0.8,2.4,1.5,4.9,2.3,7.3c0.4,1.4,0.9,2.8,2.2,3.9c-1.5,0-2.8,0-4.2,0
			c0.5-1.1,0.1-2.1-0.2-3.1c-0.7-2.1-1.3-4.1-2-6.2c-1.5-0.5-2.9-0.2-4.5-0.2c-0.8,3.1-2.4,6-2.7,9.4c-0.7,0.2-1.4,0.2-2.4,0.1
			c2-1.7,2.1-4.1,2.8-6.2c1.5-4.7,2.9-9.4,4.3-14.1c0.2-0.5,0.4-1,0.6-1.5C48.5,39.3,48.5,39.3,48.6,39.3z M49.6,50.2
			c-0.6-1.9-0.9-3.7-1.9-5.3c-0.7,1.7-1.3,3.4-1.7,5.3C47.4,50.4,48.4,50.4,49.6,50.2z"/>
		<path d="M7.7,39.3c1,3,2,6,2.9,9.1c1.1,3.4,2.1,6.8,3.2,10.2c0.3,0.8,0.6,1.6,1.6,2.2c-1.4,0.5-2.6,0.2-3.7,0.3
			c-0.2-3.4-1.7-6.3-2.6-9.4c-1.6-0.2-2.9-0.2-4.6,0c-0.7,3.1-2.2,6-2.5,9.4c-0.6,0.1-1.3-0.1-2.1,0c1.9-2.5,2.3-5.5,3.2-8.2
			c1.3-4.1,2.5-8.2,3.8-12.3c0.1-0.4,0.4-0.8,0.5-1.2C7.5,39.3,7.6,39.3,7.7,39.3z M6.7,44.9c-0.5,1.8-1.4,3.3-1.6,5.1
			c1.2,0.6,2.4,0.1,3.7,0.4C8,48.5,7.8,46.6,6.7,44.9z"/>
		<path d="M94.1,39.3c2.3,7.2,4.2,14.5,7,21.6c-0.9,0.4-2,0.1-3.1,0.1c-0.2-3.3-1.7-6.2-2.5-9.3c-1.5-0.3-2.9-0.2-4.5-0.1
			c-0.8,3.2-2.3,6-2.6,9.4c-0.6,0.2-1.3,0.1-2.1,0c1.8-2.5,2.1-5.4,3-8.1c1.4-4.1,2.6-8.2,3.9-12.3c0.1-0.5,0.4-0.9,0.6-1.3
			C93.9,39.3,94,39.3,94.1,39.3z M91.5,50.2c1.2,0.1,2.2,0.3,3.5-0.2c-0.6-1.8-1.1-3.6-1.7-5.5C92.4,46.4,91.9,48.2,91.5,50.2z"/>
		<path d="M26.6,39.3c-0.2,0.7-0.2,1.4-0.7,2.1c-1.4-1.7-3.1-0.7-4.6-1c-0.6,0.6-0.5,1.1-0.5,1.6c0,5.3,0,10.7,0,16
			c0,1.1,0,2.1,1.2,2.8c-1.5,0-3,0-4.5,0c0-0.6,0.7-0.6,0.8-1.3c0-6.2,0-12.5,0-18.9c-1.2-0.4-2-0.5-3.6-0.3
			c-0.8,0.1-0.6,0.7-1.2,0.8c-0.3-0.7-0.6-1.4-0.9-2.1C17.3,39.3,22,39.3,26.6,39.3z"/>
		<path d="M32.9,39.3c-1.1,1.1-1.2,2.5-1.2,4c0.1,4.2,0,8.5,0,12.7c0,0.4,0,0.9,0,1.3c0.1,1.6,0.6,2.2,2.1,2.6c1,0.3,2,0.3,3,0.1
			c1.1-0.2,1.9-0.8,2.1-1.9c0.1-0.7,0.3-1.5,0.6-2.2c0.3,1.6,0.3,3.2,0.1,5c-3.8,0-7.5,0-11.2,0c0-0.6,0.7-0.5,0.8-1
			c0-6.4,0-12.9,0-19.3c-0.2-0.6-1.2-0.5-1.1-1.3C29.8,39.3,31.3,39.3,32.9,39.3z"/>
		<path d="M88.3,39.3c-0.3,0.7-0.6,1.3-0.8,2c-0.6,0.1-0.6-0.6-1-0.7c-1.3-0.1-2.6-0.2-3.7,0c-0.6,0.5-0.5,1.1-0.5,1.6
			c0,5.3,0,10.6,0,15.9c0,1.1,0.4,2,1.5,2.9c-1.8,0-3.2,0-4.7,0c1.2-0.9,1.1-2.1,1.1-3.3c0-5.1,0-10.1,0-15.2c0-0.6,0.1-1.2-0.3-1.8
			c-1.2-0.5-2.5-0.1-3.8-0.2c-0.5,0.1-0.6,0.7-1.2,0.7c-0.2-0.6-0.3-1.2-0.5-1.9C79,39.3,83.7,39.3,88.3,39.3z"/>
		<path d="M237.8,40.4c-0.3-0.5-0.8-0.5-0.9-1c0.1-0.2,0.3-0.2,0.5-0.2c2,0,4.1,0,6.1,0c3,0,4.7,1.7,4.8,4.7c0.1,2.5-1.1,4.4-2.8,6
			c0,0.1,0,0.2,0,0.3c1.4,2.8,2.8,5.7,4.7,8.3c0.4,0.5,0.8,1,1.4,1.4c0.9,0.6,1.8,0.7,2.7,0c0.2-0.2,0.5-0.4,0.8-0.2
			c0.3,0.4-0.1,0.6-0.3,0.8c-1.8,1.6-5.4,1.5-6.8-0.8c-1.4-2.3-2.8-4.6-4-7c-0.9-1.8-1.4-2-3.6-1.5c0,3-0.3,6,0.3,8.9
			c0.2,0.4,0.7,0.4,1,1c-1.6,0.1-3.1-0.1-4.6,0.4c-0.4-0.9,0.4-0.8,0.8-1.3C237.8,53.7,237.8,47,237.8,40.4z M240.3,49.8
			c3.7,0.7,5.7-1,5.7-4.1c0-0.7-0.2-1.4-0.3-2.1c-0.3-2.5-2.4-3.8-5.4-3.4C240.2,43.3,240.2,46.6,240.3,49.8z"/>
		<path d="M170.6,51.4c-0.2,3.1-0.5,6,0.1,9c0.3,0.3,0.8,0.2,1.1,0.7c-0.8,0.7-1.7,0.1-2.5,0.1c-0.8,0-1.6,0.5-2.4,0.1
			c0.1-0.6,0.6-0.4,0.9-0.8c0.4-0.9,0.5-18.9,0.1-20.2c-0.2-0.4-0.7-0.4-1.1-0.8c1.8,0,3.4,0,5,0c-0.2,0.5-0.7,0.4-0.9,0.8
			c-0.5,1.3-0.7,6.6-0.4,9.5c3.4-3.2,6.7-6.3,10-9.4c0.2-0.4-0.3-0.5-0.2-0.9c1.2-0.1,2.4-0.1,3.6,0c0,0.2,0,0.3,0,0.3
			c-1.6,0.5-2.8,1.6-3.9,2.7c-2,2.1-4.3,3.9-6.3,6c-0.3,0.3-0.6,0.6-0.8,1c0.4,0.9,1.3,1.5,2,2.1c2,2,4.1,3.9,6.2,5.8
			c0.9,0.8,1.8,1.6,2.7,2.5c0.6,0.6,1.4,0.8,2.2,1.1c-0.5,0.4-3.9,0.5-5.9,0.3c-0.2-0.3,0.2-0.5,0.3-0.9
			C177,57.5,174.2,54.2,170.6,51.4z"/>
		<path d="M107.1,61c0.1-0.5,0.7-0.3,0.9-0.7c0.3-0.9,0.4-18.9,0.1-20.1c-0.2-0.4-0.6-0.4-0.9-0.7c0.4-0.4,0.8-0.3,1.2-0.3
			c1.5,0,3,0.1,4.5,0c3.6-0.2,5.9,3.1,5.2,6.4c-0.1,0.6-0.2,1.2-0.6,1.7c-0.3,0.5-0.6,0.9-1,1.4c0.1,0.1,0.2,0.2,0.4,0.3
			c2.4,1.6,3.5,4.4,2.8,7.2c-0.2,0.6-0.3,1.3-0.6,1.9c-0.8,1.9-2.1,3.3-5.1,3.1c-2-0.2-4-0.2-6,0.1C107.6,61.3,107.3,61.4,107.1,61z
			 M110.8,50.1c-0.3,0.6-0.2,1-0.2,1.4c0,2.1-0.1,4.1,0.2,6.2c0.2,1.8,0.4,2.2,2.1,2.6c1.8,0.4,3.8,0.1,4.4-2.3
			c0.5-1.8,0.3-3.7-0.3-5.4c-0.3-0.9-0.9-1.8-1.9-2.1C113.6,50.1,112.2,50.1,110.8,50.1z M110.6,48.7c1.3,1.1,3.9,0.5,4.6-1
			c0.8-1.6,0.9-3.3,0.4-5.1c-0.6-2-3-3.1-5-2.2C110.5,43.2,110.5,46,110.6,48.7z"/>
		<path d="M141.3,39.1c0.5,0.1,0.6,0.5,0.7,0.9c2,6.1,3.9,12.1,5.9,18.2c0.3,1.1,0.6,2.2,1.8,2.9c-1.4,0.3-2.8-0.2-4,0.3
			c-0.3-0.6,0.3-0.7,0.3-1.1c-0.9-2.9-1.7-5.8-2.8-8.7c-1.6-0.2-3.1-0.1-4.8,0c-1,2.9-2,5.8-2.8,8.7c-0.1,0.3,0.4,0.5,0.3,0.9
			c-0.8,0-1.6,0.4-2.6-0.1c1.6-1,1.7-2.7,2.2-4.2c0.9-2.9,1.9-5.8,2.8-8.7c0.9-2.7,1.7-5.5,2.6-8.2
			C140.9,39.7,140.9,39.3,141.3,39.1z M142.8,50.4c-0.7-2.2-1.3-4.2-2-6.5c-0.9,2.3-1.5,4.3-2.1,6.5
			C140.1,50.6,141.3,50.5,142.8,50.4z"/>
		<path d="M195.9,39.4c0.3,0.9,0.9,1.7,0.7,2.7c-0.6,0.1-0.7-0.4-0.9-0.6c-0.6-0.6-1.2-1.2-2.1-1.4c-2-0.5-3.8,0.4-4.6,2.3
			c-0.8,1.9-0.1,4,1.6,5c0.8,0.5,1.7,0.9,2.6,1.2c4.4,1.7,5,5.4,4.1,9c-0.6,2.4-2.7,3.8-5.6,3.7c-1.6,0-3.1-0.1-4.7-0.1
			c-0.5-1.4-0.4-5.7,0.2-6.3c0.4,0.2,0.2,0.6,0.2,0.9c0.1,1.6,0.3,3.1,1.9,3.9c1.8,0.8,3.7,0.9,5.5-0.3c1.5-1.1,2.3-4.9-0.1-6.6
			c-0.7-0.5-1.5-0.8-2.3-1.2c-0.3-0.2-0.6-0.3-0.9-0.4c-4.1-1.6-4.6-5.7-3.6-8.7c1-2.8,2.8-3.6,5.5-3.5
			C194.3,38.9,195.1,39,195.9,39.4z"/>
		<path d="M164.2,40.4c-0.1,0.8,0.5,1.4,0.3,2.2c-0.5,0.2-0.6-0.2-0.9-0.5c-1.9-2-4.2-2.9-6.9-2.2c-2.8,0.6-4.6,2.4-5.4,5.1
			c-1.5,5-0.4,9.4,2.9,13.3c2.7,3.2,8.4,3.2,11.3,0.1c0.2-0.2,0.4-0.5,0.8-0.4c0,1.2-0.7,2.4-1.6,2.7c-3.1,1-6.2,1.2-9.4,0.5
			c-2.2-0.5-3.7-1.8-4.8-3.6c-1.5-2.5-2-5.3-1.7-8.3c0.2-2.4,0.9-4.6,2.3-6.5c2.1-2.8,4.8-4.2,8.3-3.8
			C161.8,39.2,162.8,39.5,164.2,40.4z"/>
		<path d="M132.4,55.6c0.3,1.9,0.2,3.7,0.1,5.5c-4.1,0-8.1-0.1-12.1,0.1c0-0.7,0.7-0.6,1-1.2c0.2-0.7,0.3-18.5,0-19.7
			c-0.2-0.5-0.8-0.4-1-1c1.6-0.2,3.2-0.2,4.9,0c-0.3,0.5-0.7,0.3-0.9,0.6c-0.5,0.5-0.5,1-0.5,1.5c0,5.1,0,10.3,0,15.4
			c0,0.2,0,0.5,0,0.7c0.3,2.2,0.7,2.5,3.1,2.9c0.6,0.1,1.1,0,1.7,0c2.1,0,3-0.9,3.1-3C132,56.8,131.7,56.2,132.4,55.6z"/>
		<path d="M212.9,38.6c0,1.1-0.3,1.8-0.9,2.7c-0.4-0.6-0.7-1.1-1.3-1.3c-1.2,0-2.4-0.2-3.8,0.2c0,6.8,0,13.4,0,20.1
			c0.2,0.4,0.9,0.3,1.1,0.9c-1.7,0.1-3.3-0.2-5,0.2c0.2-0.9,0.8-0.8,1-1c0.3-0.4,0.4-0.8,0.4-1.2c0-6.1,0-12.1,0-18.2
			c0-0.2,0-0.5-0.3-0.8c-1.5-0.6-3-0.3-4.4-0.1c-0.6,0.2-0.3,0.8-0.8,0.9c-0.5-0.7-0.7-1.5-0.8-2.4c1.1,0.8,2.3,0.5,3.4,0.5
			c2.6,0,5.3,0,7.9,0C210.7,39.2,211.8,39.4,212.9,38.6z"/>
		<path d="M299.5,65.8c-0.4,0.2-12.4,6.8-15.3,8.3l-10.6,0l5.8-3h-45.7c-0.8-1.3-9.9-24.8-10-25.9c0,0,0,0,0,0
			c-0.3,0.7-9.9,25.4-10.4,25.8h-89.4c0,0,0,0,0,0h-5.9l5.6,2.9l-10.3,0c-2.8-1.4-14.5-7.9-14.9-8.1C99,66,133.9,66,154.7,66
			c18.2,0,36.5,0.1,54.7,0c0.7,0,1.4,0.1,2.1-0.1c0.6-0.7,11.9-28.5,11.9-28.5s11.5,27.6,12,28.3c0.4,0.3,0.9,0.3,1.4,0.3
			C257.1,66,298.6,66.1,299.5,65.8z"/>
		<path d="M272.6,73c-0.2,0.1-8,4.4-9.9,5.3l-6.9,0l3.7-1.9h-29.4c-0.5-0.8-6.3-16-6.5-16.7c0,0,0,0,0,0c-0.2,0.5-6.4,16.4-6.7,16.6
			c0,0-54.3,0-54.3,0l-4.1-3.3c-0.1-0.1,56.9,0.2,57.3,0.1c0.4-0.4,7.7-18.3,7.7-18.3s7.4,17.8,7.7,18.3c0.3,0.2,0.6,0.2,0.9,0.2
			C245.3,73.1,272.1,73.1,272.6,73z"/>
	</g>
</g>
</svg>
