<?xml version="1.0" encoding="utf-8"?>
<!-- Generator: Adobe Illustrator 18.0.0, SVG Export Plug-In . SVG Version: 6.00 Build 0)  -->
<!DOCTYPE svg PUBLIC "-//W3C//DTD SVG 1.1//EN" "http://www.w3.org/Graphics/SVG/1.1/DTD/svg11.dtd">
<svg version="1.1" xmlns="http://www.w3.org/2000/svg" xmlns:xlink="http://www.w3.org/1999/xlink" x="0px" y="0px"
	 viewBox="0 0 300 100" style="enable-background:new 0 0 300 100;" xml:space="preserve">
<style type="text/css">
	.st0{fill-rule:evenodd;clip-rule:evenodd;}
	.st1{fill-rule:evenodd;clip-rule:evenodd;fill:#C038F9;}
	.st2{fill:none;}
	.st3{fill-rule:evenodd;clip-rule:evenodd;fill:#231F20;}
</style>
<g id="Layer_2">
</g>
<g id="Layer_1">
	<g>
		<path d="M250.4,15.1c-16,0-28.9,18.4-28.9,41.2s12.9,41.2,28.9,41.2s28.9-18.4,28.9-41.2S266.3,15.1,250.4,15.1z M263.4,32.7
			c-0.7,7.5-1.3,14.9-1.9,22.4c-0.3,3.9-0.7,7.7-0.4,11.6c0.1,2,0.3,4.1,0.4,6.1c0.1,1.1,0.1,2.1,0.2,3.2c0,0.6,0.4,2.4,0.2,2.8
			c0,0-0.9,0.3-1,0.3c-0.2,0-0.8-0.4-1.1-0.4c-0.4,0-0.9,0.3-1.2,0c-0.4-0.3-0.8-0.8-0.9-0.2c-0.7-0.5-1.8,0-2.5,0.2
			c-0.4,0.1-1.2,0.7-1.5,0.5c0.1,0-0.1-1.3-0.7-0.5c1.1,0.4-0.7,1-0.7,1.6c0,0-1,0.2-1.2,0.2c-0.3-0.2-0.4-0.7-0.5-1
			c-0.1-0.3,0.1-0.3,0-0.6c-0.1-0.3-0.4-0.5-0.5-0.8c0.2-0.5-0.8-1.3-1.1-1.5c0-0.1,0.1,0,0.1-0.1c0,0,0,0,0,0
			c-0.4-0.2-0.1-0.6-0.6-1c0,0,0.1,0,0.1-0.1c0,0-0.1,0-0.1,0c0.1-0.2,0-0.3,0-0.4c0.2-0.2,0.1-0.1,0.1-0.3c0,0,0.2,0,0.2-0.1
			c-0.1-0.2,0-0.3,0-0.6c0.1,0,0,0.1,0.1,0.1c0,0,0,0,0,0c0.1-0.2,0-0.2,0.2-0.3c0,0,0,0,0,0c0-0.3,0-0.6,0.2-0.8
			c0,0-0.1-0.1-0.1-0.1c0.1-0.2,0.2-0.3,0.3-0.6c0,0,0-0.4,0-0.4c-5.7,0.5-11.7-0.1-17.4,0c0.7-0.2,0.8-0.6,0.3-1
			c-0.4-0.3,0-0.7,0.1-1c-1-1.1-0.3-0.4,0.4-0.7c0.9-0.5-0.1-0.6,0.1-1.3c-0.1,0-0.2,0.1-0.2,0c-0.1-1.3,0.3,0,0.4,0
			c0.9,0.1,0.1-0.4,0-0.9c-0.2-1,1.3-0.8,0.8-1.4c-0.1-0.1-0.5,0.2-0.8-0.2c-0.3-0.4,1,0,1.1,0c0.2-0.1,0-0.7,0-0.9
			c0.1-0.3,0.4-0.3,0.5-0.5c0,0-0.1-0.5,0-0.7c0.1-0.2,0.6-0.7,0.6-0.2c0,0.7,0.5-0.3,0.6-0.5c0,0,0.4-0.5,0.4-0.5
			c-0.1,0.1,0-0.3,0.1-0.4c0.2-0.2,0.6,0,0.7-0.2c0.5-0.9-0.5-0.1-0.5-0.7c0-0.6,0.5,0.1,0.5,0.1c0.3-0.1,1.3-1.1,0.4-1.3
			c0.1,0.2,0,0.3,0,0.6c-0.3,0-1,0.1-1.1-0.3c-0.2-0.6,0.8-0.7,1-0.7c0.3-0.4,0.5,0.1,0.5,0c0.2-0.1,0.2-0.5,0.2-0.6
			c0.3-0.3,0.7-0.2,0.5-0.8c0,0.1-1.2-0.5-0.5-0.7c0.4-0.1,0.1-0.4,0-0.5c-0.1-0.1-0.7,0.3-1-0.2c-0.1-0.2-0.1-0.6,0.1-0.8
			c0.1,0.1,0.8,1.1,0.9,0.7c0.1-0.3-0.7-0.5-0.8-0.7c0.3-0.1,0.6-0.3,0.7-0.6c0.3-0.7-0.6,0.1-0.4,0.1c-0.4,0-1.1,0.4-0.9-0.4
			c0.2-0.8,1-0.2,0.6-1c-0.2-0.4-1,0-0.6-0.9c0.2-0.5,0.8-0.4,0.9-1.1c0-0.4-0.3-0.8-0.7-0.5c-0.1,0.1,0.3,0.7-0.3,0.8
			c-0.7,0.1-0.2-0.7-0.1-0.8c0.1-0.2,0.5-0.6,0.5-0.7c0-0.3-0.5-0.3-0.5-0.6c-0.2-0.9,0.2,0,0.6-0.3c0.3-0.2,0.4-0.8,0.4-1
			c0-0.2,0.4-0.3,0.2-0.6c-0.2-0.3-0.4,0.4-0.4,0.5c-0.3-0.3-0.5-0.8-0.4-1.2c0.1-0.3,1.3-1.1,0.4-0.9c0.1,0-1.2,1.3-1,0.3
			c0-0.1,1.4-0.2,0.5-0.8c-0.3-0.2-0.4,1-0.8,0.4c-0.1-0.1,0.5-0.4,0.4-0.5c0-0.2-0.5-0.4-0.4-0.7c0.2-0.4,1,0,0.9-0.6
			c-0.1-0.5-0.9-0.2-0.8-0.7c0.1-0.5,2,0.7,1.7,0c-0.1-0.2-1.6-0.4-0.8-1c0.2-0.1,1.2,0.5,1.2,0c0-0.2-0.7-0.5-0.7-0.9
			c0-0.4,1.1-0.6,0.1-0.9c-0.6-0.1,0.1-0.5,0.4-0.6c0.2,0.7,0.7,0.4,0.3-0.2c0.4,0,1.2,0,1-0.7c-0.1-0.3-0.7,0.1-0.8-0.4
			c-0.1-0.8,0.9,0,1.1-0.1c0.9-0.5-0.5-0.5-0.7-0.6c-0.6-0.4,0.1-0.6,0.6-0.1c0-0.8,0.5-0.8,0.9-1.2c0.2-0.2-0.5-0.6,0.6-0.4
			c0.1,0-0.4,0.6,0.2,0.4c-0.3,0.1,0.3-0.7,0.4-0.7c0.4-0.8,0.1-0.2,0.3-1.1c0-0.2,0.4-0.4,0.4-0.4c0-0.3-0.3-0.5-0.4-0.8
			c0-0.2,0-0.5,0.1-0.7c0.1-0.5,0.4,0.1,0.4,0.1c-0.3,0,0.3,1.1,0.6,0c0.2-0.6-1.2-0.1-0.7-1.1c0.4-0.8,0.3,0.3,0.2,0.3
			c0.8,0.4,0.4,0.1,0.4-0.5c0-0.1-0.1-0.9,0-1c0.4-0.3,0.5,0.4,0.7,0.5c0.5,0.2,0.9-0.3,1.1-0.6c0.3-0.6,0.3-0.7-0.2-1.1
			c3.4,0,6.8,0,10.1,0c1.8,0,3.7-0.1,5.5-0.1c0.8,0,2.2-0.2,2.9,0.2C263.5,31,263.5,31.9,263.4,32.7z"/>
		<g>
			<g>
				<path d="M14,48.5h7.9v5H22c0.9-1.8,2.1-3.3,3.8-4.3c1.6-1,3.5-1.5,5.6-1.5c0.5,0,1,0,1.4,0.1c0.5,0.1,0.9,0.2,1.4,0.3v7.6
					c-0.7-0.2-1.3-0.3-1.9-0.4c-0.6-0.1-1.3-0.2-1.9-0.2c-1.8,0-3.3,0.3-4.4,1c-1.1,0.7-2,1.5-2.6,2.3c-0.6,0.9-1,1.8-1.2,2.6
					c-0.2,0.9-0.3,1.5-0.3,2V80H14V48.5z"/>
				<path d="M42.8,67c0.3,2.4,1.2,4.2,2.8,5.5c1.6,1.3,3.5,2,5.7,2c2,0,3.6-0.4,5-1.2c1.3-0.8,2.5-1.8,3.5-3.1l5.7,4.3
					c-1.8,2.3-3.9,3.9-6.2,4.9c-2.3,1-4.7,1.4-7.2,1.4c-2.4,0-4.6-0.4-6.7-1.2c-2.1-0.8-3.9-1.9-5.5-3.4c-1.5-1.4-2.8-3.2-3.7-5.2
					c-0.9-2-1.3-4.3-1.3-6.8c0-2.5,0.4-4.8,1.3-6.8c0.9-2,2.1-3.8,3.7-5.2c1.5-1.4,3.4-2.6,5.5-3.4c2.1-0.8,4.3-1.2,6.7-1.2
					c2.2,0,4.2,0.4,6,1.2c1.8,0.8,3.4,1.9,4.7,3.3s2.3,3.2,3,5.4c0.7,2.1,1.1,4.6,1.1,7.3V67H42.8z M58.9,61.1
					c0-2.3-0.8-4.2-2.2-5.5c-1.4-1.3-3.4-2-5.9-2c-2.4,0-4.2,0.7-5.6,2c-1.4,1.4-2.2,3.2-2.5,5.5H58.9z"/>
				<path d="M68.5,55.2v-6.7h6.5v-9.1h7.9v9.1h8.7v6.7h-8.7V69c0,1.6,0.3,2.8,0.9,3.8c0.6,0.9,1.8,1.4,3.5,1.4
					c0.7,0,1.5-0.1,2.3-0.2c0.8-0.2,1.5-0.4,2-0.8v6.6c-0.8,0.4-1.9,0.7-3.1,0.8c-1.2,0.2-2.3,0.2-3.2,0.2c-2.1,0-3.8-0.2-5.2-0.7
					c-1.3-0.5-2.4-1.2-3.2-2.1c-0.8-0.9-1.3-2.1-1.6-3.5c-0.3-1.4-0.4-3-0.4-4.9V55.2H68.5z"/>
				<path d="M103.8,52.9h0.1c0.6-1.3,1.7-2.5,3.3-3.6c1.6-1.1,3.6-1.6,6-1.6c2.1,0,3.9,0.4,5.4,1.1c1.5,0.7,2.7,1.6,3.6,2.8
					c0.9,1.1,1.6,2.5,2,3.9c0.4,1.5,0.6,3,0.6,4.7V80h-7.9v-16c0-0.9,0-1.9-0.1-2.9c-0.1-1.1-0.3-2.1-0.7-3c-0.4-0.9-1-1.7-1.7-2.4
					c-0.8-0.6-1.9-1-3.2-1c-1.3,0-2.4,0.2-3.3,0.7c-0.9,0.4-1.6,1-2.2,1.8c-0.6,0.7-1,1.6-1.3,2.6c-0.3,1-0.4,2-0.4,3V80h-7.9V30.3
					h7.9V52.9z"/>
				<path d="M130.7,37.7c0-1.3,0.5-2.4,1.4-3.3c0.9-0.9,2.1-1.4,3.6-1.4c1.4,0,2.7,0.5,3.7,1.3c1,0.9,1.5,2,1.5,3.4
					c0,1.4-0.5,2.5-1.5,3.4c-1,0.9-2.2,1.3-3.7,1.3c-1.4,0-2.6-0.5-3.6-1.4C131.2,40.1,130.7,39,130.7,37.7z M131.8,48.5h7.9V80
					h-7.9V48.5z"/>
				<path d="M146.8,48.5h7.5v5.1h0.1c0.7-1.6,1.9-2.9,3.4-4.1c1.5-1.2,3.6-1.7,6.3-1.7c2.1,0,3.9,0.4,5.4,1.1
					c1.5,0.7,2.7,1.6,3.6,2.8c0.9,1.1,1.6,2.5,2,3.9c0.4,1.5,0.6,3,0.6,4.7V80h-7.9v-16c0-0.9,0-1.9-0.1-2.9c-0.1-1.1-0.3-2.1-0.7-3
					c-0.4-0.9-1-1.7-1.7-2.4c-0.8-0.6-1.9-1-3.2-1c-1.3,0-2.4,0.2-3.3,0.7c-0.9,0.4-1.6,1-2.2,1.8c-0.6,0.7-1,1.6-1.3,2.6
					c-0.3,1-0.4,2-0.4,3V80h-7.9V48.5z"/>
				<path d="M182.6,30.3h7.9v31.3l12.2-13.1h10.1l-13.6,14.3L213.7,80h-10.5l-12.6-16.1h-0.1V80h-7.9V30.3z"/>
			</g>
			<g>
				<path d="M15.7,86.9h1.8v1.2h0c0.2-0.4,0.4-0.7,0.8-1c0.4-0.3,0.9-0.4,1.5-0.4c1.2,0,2,0.5,2.4,1.4c0.3-0.5,0.6-0.8,1-1.1
					c0.4-0.2,0.9-0.3,1.5-0.3c0.5,0,0.9,0.1,1.3,0.3c0.4,0.2,0.6,0.4,0.9,0.7c0.2,0.3,0.4,0.6,0.5,1c0.1,0.4,0.1,0.8,0.1,1.3v4.6
					h-1.9v-4.3c0-0.2,0-0.5-0.1-0.7c0-0.2-0.1-0.4-0.2-0.6c-0.1-0.2-0.2-0.3-0.4-0.4c-0.2-0.1-0.4-0.1-0.7-0.1
					c-0.3,0-0.5,0.1-0.8,0.2c-0.2,0.1-0.4,0.3-0.5,0.4c-0.1,0.2-0.2,0.4-0.3,0.6c-0.1,0.2-0.1,0.5-0.1,0.7v4.1h-1.9V90
					c0-0.5-0.1-0.9-0.3-1.1c-0.2-0.3-0.5-0.4-1-0.4c-0.3,0-0.6,0.1-0.8,0.2c-0.2,0.1-0.4,0.2-0.5,0.4c-0.1,0.2-0.2,0.4-0.3,0.6
					c-0.1,0.2-0.1,0.5-0.1,0.7v4.2h-1.9V86.9z"/>
				<path d="M41.3,84.3c0-0.3,0.1-0.6,0.3-0.8c0.2-0.2,0.5-0.3,0.9-0.3s0.6,0.1,0.9,0.3c0.2,0.2,0.4,0.5,0.4,0.8
					c0,0.3-0.1,0.6-0.4,0.8c-0.2,0.2-0.5,0.3-0.9,0.3s-0.6-0.1-0.9-0.3C41.5,84.8,41.3,84.6,41.3,84.3z M41.6,86.9h1.9v7.6h-1.9
					V86.9z"/>
				<path d="M61.7,89c-0.4-0.5-0.9-0.8-1.5-0.8c-0.3,0-0.5,0.1-0.7,0.2c-0.2,0.1-0.4,0.3-0.4,0.6c0,0.2,0.1,0.4,0.3,0.5
					c0.2,0.1,0.5,0.2,0.8,0.3c0.3,0.1,0.6,0.2,1,0.2c0.4,0.1,0.7,0.2,1,0.4c0.3,0.2,0.6,0.4,0.8,0.7c0.2,0.3,0.3,0.7,0.3,1.2
					c0,0.5-0.1,0.8-0.3,1.2c-0.2,0.3-0.5,0.6-0.8,0.8c-0.3,0.2-0.7,0.3-1.1,0.4c-0.4,0.1-0.8,0.1-1.2,0.1c-0.6,0-1.1-0.1-1.6-0.3
					S57.4,94,57,93.5l1.3-1.2c0.2,0.3,0.5,0.5,0.8,0.7c0.3,0.2,0.6,0.3,1,0.3c0.1,0,0.3,0,0.4,0c0.1,0,0.3-0.1,0.4-0.2
					c0.1-0.1,0.2-0.2,0.3-0.3c0.1-0.1,0.1-0.2,0.1-0.4c0-0.3-0.1-0.5-0.3-0.6c-0.2-0.1-0.5-0.2-0.8-0.3c-0.3-0.1-0.6-0.2-1-0.2
					c-0.4-0.1-0.7-0.2-1-0.3c-0.3-0.2-0.6-0.4-0.8-0.6c-0.2-0.3-0.3-0.7-0.3-1.1c0-0.4,0.1-0.8,0.3-1.1c0.2-0.3,0.4-0.6,0.7-0.8
					c0.3-0.2,0.6-0.4,1-0.4c0.4-0.1,0.7-0.1,1.1-0.1c0.5,0,1,0.1,1.5,0.3s0.9,0.5,1.2,0.9L61.7,89z"/>
				<path d="M80.8,89c-0.4-0.5-0.9-0.8-1.5-0.8c-0.3,0-0.5,0.1-0.7,0.2c-0.2,0.1-0.4,0.3-0.4,0.6c0,0.2,0.1,0.4,0.3,0.5
					c0.2,0.1,0.5,0.2,0.8,0.3c0.3,0.1,0.6,0.2,1,0.2c0.4,0.1,0.7,0.2,1,0.4c0.3,0.2,0.6,0.4,0.8,0.7c0.2,0.3,0.3,0.7,0.3,1.2
					c0,0.5-0.1,0.8-0.3,1.2c-0.2,0.3-0.5,0.6-0.8,0.8c-0.3,0.2-0.7,0.3-1.1,0.4c-0.4,0.1-0.8,0.1-1.2,0.1c-0.6,0-1.1-0.1-1.6-0.3
					c-0.5-0.2-0.9-0.5-1.3-0.9l1.3-1.2c0.2,0.3,0.5,0.5,0.8,0.7c0.3,0.2,0.6,0.3,1,0.3c0.1,0,0.3,0,0.4,0c0.1,0,0.3-0.1,0.4-0.2
					c0.1-0.1,0.2-0.2,0.3-0.3c0.1-0.1,0.1-0.2,0.1-0.4c0-0.3-0.1-0.5-0.3-0.6c-0.2-0.1-0.5-0.2-0.8-0.3c-0.3-0.1-0.6-0.2-1-0.2
					c-0.4-0.1-0.7-0.2-1-0.3c-0.3-0.2-0.6-0.4-0.8-0.6c-0.2-0.3-0.3-0.7-0.3-1.1c0-0.4,0.1-0.8,0.3-1.1c0.2-0.3,0.4-0.6,0.7-0.8
					c0.3-0.2,0.6-0.4,1-0.4c0.4-0.1,0.7-0.1,1.1-0.1c0.5,0,1,0.1,1.5,0.3c0.5,0.2,0.9,0.5,1.2,0.9L80.8,89z"/>
				<path d="M95.5,84.3c0-0.3,0.1-0.6,0.3-0.8c0.2-0.2,0.5-0.3,0.9-0.3s0.6,0.1,0.9,0.3c0.2,0.2,0.4,0.5,0.4,0.8
					c0,0.3-0.1,0.6-0.4,0.8c-0.2,0.2-0.5,0.3-0.9,0.3s-0.6-0.1-0.9-0.3C95.6,84.8,95.5,84.6,95.5,84.3z M95.7,86.9h1.9v7.6h-1.9
					V86.9z"/>
				<path d="M115.9,89c-0.4-0.5-0.9-0.8-1.5-0.8c-0.3,0-0.5,0.1-0.7,0.2c-0.2,0.1-0.4,0.3-0.4,0.6c0,0.2,0.1,0.4,0.3,0.5
					c0.2,0.1,0.5,0.2,0.8,0.3c0.3,0.1,0.6,0.2,1,0.2c0.4,0.1,0.7,0.2,1,0.4c0.3,0.2,0.6,0.4,0.8,0.7c0.2,0.3,0.3,0.7,0.3,1.2
					c0,0.5-0.1,0.8-0.3,1.2c-0.2,0.3-0.5,0.6-0.8,0.8c-0.3,0.2-0.7,0.3-1.1,0.4c-0.4,0.1-0.8,0.1-1.2,0.1c-0.6,0-1.1-0.1-1.6-0.3
					c-0.5-0.2-0.9-0.5-1.3-0.9l1.3-1.2c0.2,0.3,0.5,0.5,0.8,0.7c0.3,0.2,0.6,0.3,1,0.3c0.1,0,0.3,0,0.4,0c0.1,0,0.3-0.1,0.4-0.2
					c0.1-0.1,0.2-0.2,0.3-0.3c0.1-0.1,0.1-0.2,0.1-0.4c0-0.3-0.1-0.5-0.3-0.6c-0.2-0.1-0.5-0.2-0.8-0.3c-0.3-0.1-0.6-0.2-1-0.2
					c-0.4-0.1-0.7-0.2-1-0.3c-0.3-0.2-0.6-0.4-0.8-0.6c-0.2-0.3-0.3-0.7-0.3-1.1c0-0.4,0.1-0.8,0.3-1.1s0.4-0.6,0.7-0.8
					c0.3-0.2,0.6-0.4,1-0.4c0.4-0.1,0.7-0.1,1.1-0.1c0.5,0,1,0.1,1.5,0.3c0.5,0.2,0.9,0.5,1.2,0.9L115.9,89z"/>
				<path d="M134.9,89c-0.4-0.5-0.9-0.8-1.5-0.8c-0.3,0-0.5,0.1-0.7,0.2c-0.2,0.1-0.4,0.3-0.4,0.6c0,0.2,0.1,0.4,0.3,0.5
					c0.2,0.1,0.5,0.2,0.8,0.3c0.3,0.1,0.6,0.2,1,0.2c0.4,0.1,0.7,0.2,1,0.4c0.3,0.2,0.6,0.4,0.8,0.7c0.2,0.3,0.3,0.7,0.3,1.2
					c0,0.5-0.1,0.8-0.3,1.2c-0.2,0.3-0.5,0.6-0.8,0.8c-0.3,0.2-0.7,0.3-1.1,0.4c-0.4,0.1-0.8,0.1-1.2,0.1c-0.6,0-1.1-0.1-1.6-0.3
					s-0.9-0.5-1.3-0.9l1.3-1.2c0.2,0.3,0.5,0.5,0.8,0.7c0.3,0.2,0.6,0.3,1,0.3c0.1,0,0.3,0,0.4,0c0.1,0,0.3-0.1,0.4-0.2
					c0.1-0.1,0.2-0.2,0.3-0.3c0.1-0.1,0.1-0.2,0.1-0.4c0-0.3-0.1-0.5-0.3-0.6c-0.2-0.1-0.5-0.2-0.8-0.3c-0.3-0.1-0.6-0.2-1-0.2
					c-0.4-0.1-0.7-0.2-1-0.3c-0.3-0.2-0.6-0.4-0.8-0.6c-0.2-0.3-0.3-0.7-0.3-1.1c0-0.4,0.1-0.8,0.3-1.1s0.4-0.6,0.7-0.8
					c0.3-0.2,0.6-0.4,1-0.4c0.4-0.1,0.7-0.1,1.1-0.1c0.5,0,1,0.1,1.5,0.3s0.9,0.5,1.2,0.9L134.9,89z"/>
				<path d="M149.6,84.3c0-0.3,0.1-0.6,0.3-0.8c0.2-0.2,0.5-0.3,0.9-0.3c0.4,0,0.6,0.1,0.9,0.3c0.2,0.2,0.4,0.5,0.4,0.8
					c0,0.3-0.1,0.6-0.4,0.8c-0.2,0.2-0.5,0.3-0.9,0.3c-0.4,0-0.6-0.1-0.9-0.3C149.7,84.8,149.6,84.6,149.6,84.3z M149.9,86.9h1.9
					v7.6h-1.9V86.9z"/>
				<path d="M165.9,86.9h1.8V88h0c0.3-0.5,0.6-0.8,1.1-1c0.5-0.2,1-0.3,1.5-0.3c0.6,0,1.1,0.1,1.6,0.3c0.5,0.2,0.9,0.5,1.2,0.9
					c0.3,0.4,0.6,0.8,0.7,1.3c0.2,0.5,0.3,1,0.3,1.6c0,0.6-0.1,1.1-0.3,1.6c-0.2,0.5-0.4,0.9-0.8,1.3c-0.3,0.4-0.7,0.6-1.2,0.9
					c-0.5,0.2-1,0.3-1.5,0.3c-0.4,0-0.7,0-1-0.1c-0.3-0.1-0.5-0.2-0.7-0.3c-0.2-0.1-0.4-0.2-0.5-0.4c-0.1-0.1-0.3-0.3-0.4-0.4h0v4.6
					h-1.9V86.9z M172.3,90.7c0-0.3-0.1-0.6-0.2-0.9c-0.1-0.3-0.2-0.5-0.4-0.7c-0.2-0.2-0.4-0.4-0.7-0.5c-0.3-0.1-0.6-0.2-0.9-0.2
					c-0.4,0-0.7,0.1-0.9,0.2c-0.3,0.1-0.5,0.3-0.7,0.5c-0.2,0.2-0.3,0.5-0.4,0.7c-0.1,0.3-0.2,0.6-0.2,0.9c0,0.3,0.1,0.6,0.2,0.9
					c0.1,0.3,0.2,0.5,0.4,0.7c0.2,0.2,0.4,0.4,0.7,0.5c0.3,0.1,0.6,0.2,0.9,0.2c0.4,0,0.7-0.1,0.9-0.2c0.3-0.1,0.5-0.3,0.7-0.5
					c0.2-0.2,0.3-0.5,0.4-0.7C172.2,91.3,172.3,91,172.3,90.7z"/>
				<path d="M187.9,86.9h1.8V88h0c0.3-0.5,0.6-0.8,1.1-1c0.5-0.2,1-0.3,1.5-0.3c0.6,0,1.1,0.1,1.6,0.3c0.5,0.2,0.9,0.5,1.2,0.9
					c0.3,0.4,0.6,0.8,0.7,1.3c0.2,0.5,0.3,1,0.3,1.6c0,0.6-0.1,1.1-0.3,1.6c-0.2,0.5-0.4,0.9-0.8,1.3c-0.3,0.4-0.7,0.6-1.2,0.9
					c-0.5,0.2-1,0.3-1.5,0.3c-0.4,0-0.7,0-1-0.1c-0.3-0.1-0.5-0.2-0.7-0.3s-0.4-0.2-0.5-0.4c-0.1-0.1-0.3-0.3-0.4-0.4h0v4.6h-1.9
					V86.9z M194.2,90.7c0-0.3-0.1-0.6-0.2-0.9c-0.1-0.3-0.2-0.5-0.4-0.7c-0.2-0.2-0.4-0.4-0.7-0.5c-0.3-0.1-0.6-0.2-0.9-0.2
					c-0.4,0-0.7,0.1-0.9,0.2c-0.3,0.1-0.5,0.3-0.7,0.5c-0.2,0.2-0.3,0.5-0.4,0.7c-0.1,0.3-0.2,0.6-0.2,0.9c0,0.3,0.1,0.6,0.2,0.9
					c0.1,0.3,0.2,0.5,0.4,0.7c0.2,0.2,0.4,0.4,0.7,0.5c0.3,0.1,0.6,0.2,0.9,0.2c0.4,0,0.7-0.1,0.9-0.2c0.3-0.1,0.5-0.3,0.7-0.5
					c0.2-0.2,0.3-0.5,0.4-0.7C194.2,91.3,194.2,91,194.2,90.7z"/>
				<path d="M209.6,84.3c0-0.3,0.1-0.6,0.3-0.8c0.2-0.2,0.5-0.3,0.9-0.3s0.6,0.1,0.9,0.3c0.2,0.2,0.4,0.5,0.4,0.8
					c0,0.3-0.1,0.6-0.4,0.8c-0.2,0.2-0.5,0.3-0.9,0.3s-0.6-0.1-0.9-0.3C209.8,84.8,209.6,84.6,209.6,84.3z M209.9,86.9h1.9v7.6h-1.9
					V86.9z"/>
			</g>
		</g>
		<circle cx="154.6" cy="20.3" r="5.2"/>
		<circle cx="178.4" cy="7.4" r="6.2"/>
		<ellipse cx="207.5" cy="19.4" rx="7.7" ry="7.5"/>
	</g>
</g>
</svg>
