<?xml version="1.0" encoding="utf-8"?>
<!-- Generator: Adobe Illustrator 18.0.0, SVG Export Plug-In . SVG Version: 6.00 Build 0)  -->
<!DOCTYPE svg PUBLIC "-//W3C//DTD SVG 1.1//EN" "http://www.w3.org/Graphics/SVG/1.1/DTD/svg11.dtd">
<svg version="1.1" xmlns="http://www.w3.org/2000/svg" xmlns:xlink="http://www.w3.org/1999/xlink" x="0px" y="0px"
	 viewBox="0 0 300 100" style="enable-background:new 0 0 300 100;" xml:space="preserve">
<style type="text/css">
	.st0{fill-rule:evenodd;clip-rule:evenodd;}
	.st1{fill-rule:evenodd;clip-rule:evenodd;fill:#C038F9;}
	.st2{fill:none;}
	.st3{fill-rule:evenodd;clip-rule:evenodd;fill:#231F20;}
</style>
<g id="Layer_2">
	<g>
		<polygon class="st0" points="224.4,32.9 240.7,68.5 247.9,53.9 255.1,68.5 271.1,32.9 262.9,32.9 254.3,52.3 251.2,45.8 257.2,33 
			249.6,32.9 247.9,37.6 245.6,32.9 238.3,32.9 244.2,45.5 241.2,52.2 232,32.9 224.4,32.9 224.4,32.9 		"/>
		<polygon class="st0" points="74.5,31.5 95.8,51.5 95.8,32.7 102.7,32.7 102.7,67.5 81.5,47.1 81.5,66.4 74.5,66.4 74.5,31.5 
			74.5,31.5 		"/>
		<path class="st0" d="M106.5,32.8h14.5c2.2,0,8.5,1.7,8.8,8.5c0.2,5.1-4,7.4-4,7.4c2.3,1.1,5.7,3.7,5.7,9c0,5.2-4.6,9-8.5,9h-16.5
			V32.8L106.5,32.8L106.5,32.8L106.5,32.8z M113.5,46.5h5.3c2.1-0.3,3.7-1.9,3.7-4.1c0-2.4-2.1-3.7-3.8-3.9h-5.2V46.5L113.5,46.5
			L113.5,46.5L113.5,46.5z M113.6,61.3c1.1,0,6.1,0,6.1,0c1.6-0.1,4.2-1.5,4.2-4.5c0-3-2.6-4.4-4-4.4h-6.3L113.6,61.3L113.6,61.3
			L113.6,61.3z"/>
		<path class="st0" d="M157.8,40.1c-7.3-4.8-17.1,0.1-17.8,9.1c-0.3,10.9,10.5,15.4,17.8,10.7c0,0.2,0,7,0,7
			c-12.9,4.8-24.7-4.3-24.7-17.4c0-11.1,12.3-21,24.7-16.1V40.1L157.8,40.1z"/>
		<path class="st0" d="M283.6,54.1c-10.3-6.8-9.4-6.1-10.2-7.3c-0.8-1.2-2.9-7.3,2-12.6c4.9-5.3,14.9-0.8,14.9-0.8v6.8
			c0,0-8.5-4.9-10.8-0.4c-2.4,4.5,6.4,7.2,6.4,7.2s5.9,3.4,6.4,7.2c0.5,3.8,0.1,11.3-5.9,12.7c0,0-5.8,3.2-13.6-0.9l0.1-7.6
			c0,0,3.3,3.7,8.1,3.4C285.8,61.7,287.2,56.5,283.6,54.1L283.6,54.1L283.6,54.1z"/>
		<polygon class="st0" points="203.8,32.6 203.8,66.7 222.5,66.7 222.6,61.1 211.2,61.1 211.2,52.9 222.6,52.9 222.6,46.6 
			211.2,46.6 211.2,38.9 222.6,38.9 222.6,32.6 203.8,32.6 203.8,32.6 		"/>
		<polygon class="st0" points="172.4,31.5 193.7,51.8 193.7,32.8 200.6,32.8 200.6,68 179.3,47.3 179.3,66.8 172.4,66.8 172.4,31.5 
					"/>
		<path class="st0" d="M56.3,52.7L39.1,64.2l5.8-13.8l2.8-6.4c1.1-2.1,3.2-3.4,5.5-3.4c2.2,0,4.1,1.1,5.4,3c1.3,1.9,1.3,5,0.1,6.9
			C58,51.3,57.2,52.1,56.3,52.7L56.3,52.7L56.3,52.7z"/>
		<path class="st0" d="M47.7,41.8L39.2,62l-0.4-2.2l-2.6-16.5c-0.1-1,0.3-1.9,1.1-2.4l1.2-0.7c0.1-0.3-0.3-0.3-0.5-0.4l-2.4,0
			c-0.2-2.4,0.9-4.5,2.9-5.8c1.6-1,4-1.3,5.7-0.5c2.3,0.9,3.8,3.3,3.9,5.8C48.2,40.1,48.1,41,47.7,41.8L47.7,41.8L47.7,41.8z"/>
		<path class="st0" d="M31.4,62L23,41.8c-0.9-2.2-0.5-5,1-6.8c1.7-1.8,4-2.6,6.4-2c2,0.5,3.9,2.4,4.4,4.5c0.2,0.8,0.2,1.7,0.2,2.6
			L31.4,62L31.4,62L31.4,62z"/>
		<path class="st0" d="M13.4,52c-1.7-1.5-2.5-3.5-2.2-5.8c0.3-2.3,2.1-4.6,4.3-5.3c2.3-0.7,4.7-0.1,6.4,1.5c0.7,0.7,1.1,1.4,1.5,2.2
			l8.1,19.6L13.4,52L13.4,52L13.4,52z"/>
		<path class="st0" d="M11.6,66.3c-2.2-0.3-4-1.5-5-3.5c-1.1-2.1-0.8-5,0.6-6.9c1.6-1.9,3.8-2.8,6.1-2.4c0.9,0.1,1.7,0.5,2.4,1
			l17.5,11.7L11.6,66.3L11.6,66.3z"/>
		<path class="st0" d="M59,66.3c2.2-0.3,4-1.5,5-3.5c1.1-2.1,0.8-5-0.6-6.9c-1.6-1.9-3.8-2.8-6.1-2.4c-0.9,0.1-1.7,0.5-2.4,1
			L37.4,66.3L59,66.3L59,66.3L59,66.3z"/>
	</g>
</g>
<g id="Layer_1">
</g>
</svg>
