<?xml version="1.0" encoding="utf-8"?>
<!-- Generator: Adobe Illustrator 18.0.0, SVG Export Plug-In . SVG Version: 6.00 Build 0)  -->
<!DOCTYPE svg PUBLIC "-//W3C//DTD SVG 1.1//EN" "http://www.w3.org/Graphics/SVG/1.1/DTD/svg11.dtd">
<svg version="1.1" xmlns="http://www.w3.org/2000/svg" xmlns:xlink="http://www.w3.org/1999/xlink" x="0px" y="0px"
	 viewBox="0 0 300 100" style="enable-background:new 0 0 300 100;" xml:space="preserve">
<style type="text/css">
	.st0{fill-rule:evenodd;clip-rule:evenodd;}
	.st1{fill-rule:evenodd;clip-rule:evenodd;fill:#C038F9;}
	.st2{fill:none;}
	.st3{fill-rule:evenodd;clip-rule:evenodd;fill:#231F20;}
</style>
<g id="Layer_2">
	<g>
		<g>
			<path d="M69.1,41.2l6.8-18.9h6.3L89,41.2h-6.2l-0.7-2.5h-6.2l-0.7,2.5H69.1z M79,28l-1.9,6.8H81L79,28z"/>
			<path d="M90.8,41.2V22.3h7.5l3.3,11.8l3.3-11.8h7.5v18.9h-5.6v-5.8l0.1-2.9l0.3-3.4h-0.1l-3.4,12.1h-4.3L96,29.1H96l0.3,2.8
				l0.1,2.9v6.4H90.8z"/>
			<path d="M116,41.2V22.3h15.4v4.4h-9.2v2.7h7.8v4.4h-7.8v3h9.6v4.4H116z"/>
			<path d="M140.7,34.6v6.6h-6.2V22.3h8.9c6.3,0,8.4,1.7,8.4,5.4c0,2.2-1,4-3.2,4.6c2,0.7,3.2,1.2,3.2,5c0,2.5-0.1,3.3,0.7,3.3v0.6
				h-6.3c-0.2-0.4-0.3-1.6-0.3-3.3c0-2.5-0.4-3.3-3.3-3.3H140.7z M140.7,30.5h2.4c1.9,0,2.9-0.5,2.9-1.8c0-1.3-1-2-2.5-2h-2.9V30.5z
				"/>
			<path d="M155.3,41.2V22.3h6.2v18.9H155.3z"/>
			<path d="M177.2,29.6c-0.2-2-1.4-3.1-3.4-3.1c-2.2,0-3.5,1.9-3.5,5.5c0,2.7,0.6,5.1,3.7,5.1c2,0,2.9-1.4,3.2-3.2h6
				c-0.6,4.9-4,7.8-9,7.8c-6.2,0-10-3.8-10-10c0-6.1,4.1-9.9,9.4-9.9c5.8,0,9,2.9,9.5,7.7H177.2z"/>
			<path d="M182.9,41.2l6.8-18.9h6.3l6.8,18.9h-6.2l-0.7-2.5h-6.2l-0.7,2.5H182.9z M192.8,28l-1.9,6.8h3.9L192.8,28z"/>
			<path d="M217.1,32.7l-0.2-4.3v-6h5.9v18.9H217L210.3,31l0.2,4.3v6h-5.9V22.3h5.8L217.1,32.7z"/>
			<path d="M70.3,69.3V50.5h9.1c5.4,0,8.1,2.5,8.1,6.4c0,4.1-2.4,6.6-7.8,6.6h-3.1v5.9H70.3z M79.1,59.1c1.4,0,2.5-0.6,2.5-2.2
				c0-1.8-2-2-3.3-2h-1.8v4.2H79.1z"/>
			<path d="M88.6,50.5h6.2v11.3c0,1.9,0.4,3.5,2.9,3.5c2.2,0,2.9-1.4,2.9-3.5V50.5h6.2v10.7c0,6.1-2.8,8.7-9.1,8.7
				c-5.9,0-9.1-2.2-9.1-8.7V50.5z"/>
			<path d="M109.4,69.3V50.5h9c4.2,0,7.6,1,7.6,4.7c0,1.9-1.3,3.4-2.5,4.1c2,0.5,3.1,2.3,3.1,4.3c0,4.2-3.2,5.7-8.1,5.7H109.4z
				 M115.6,54.9V58h2.6c1.2,0,2.1-0.6,2.1-1.7c0-1.5-1.2-1.5-2.5-1.5H115.6z M115.6,61.4v3.5h2.7c1.5,0,2.7-0.3,2.7-1.7
				c0-1.7-1.4-1.8-3.4-1.8H115.6z"/>
			<path d="M128.9,69.3V50.5h6.2v14.5h8.5v4.4H128.9z"/>
			<path d="M145.3,69.3V50.5h6.2v18.9H145.3z"/>
			<path d="M166.6,57.7c-0.2-2-1.4-3.1-3.4-3.1c-2.2,0-3.5,1.9-3.5,5.5c0,2.7,0.6,5.1,3.7,5.1c2,0,2.9-1.4,3.2-3.2h6
				c-0.6,4.9-4,7.8-9,7.8c-6.2,0-10-3.8-10-10c0-6.1,4.1-9.9,9.4-9.9c5.8,0,9,2.9,9.5,7.7H166.6z"/>
			<path d="M183,69.3V50.5h7.5l3.3,11.8l3.3-11.8h7.5v18.9h-5.6v-5.8l0.1-2.9l0.3-3.4h-0.1L196,69.3h-4.3l-3.4-12.1h-0.1l0.3,2.8
				l0.1,2.9v6.4H183z"/>
			<path d="M207.7,69.3V50.5h15.4v4.4h-9.2v2.7h7.8V62h-7.8v3h9.6v4.4H207.7z"/>
			<path d="M226.6,69.3V50.5h8.3c6.1,0,9.9,2.8,9.9,9.1c0,7.1-4,9.8-10,9.8H226.6z M232.8,64.9h1.3c2.9,0,4.5-1.5,4.5-5.1
				c0-3.9-1.3-5-4.6-5h-1.2V64.9z"/>
			<path d="M247.5,69.3V50.5h6.2v18.9H247.5z"/>
			<path d="M255.8,69.3l6.8-18.9h6.3l6.8,18.9h-6.2l-0.7-2.5h-6.2l-0.7,2.5H255.8z M265.6,56.1l-1.9,6.8h3.9L265.6,56.1z"/>
		</g>
		<g>
			<path d="M274.6,49.8h4.5v0.8h-1.8v4.7h-1v-4.7h-1.8V49.8z"/>
			<path d="M279.7,49.8h1.4l1.5,4.4h0l1.5-4.4h1.4v5.6h-0.9V51h0l-1.5,4.3h-0.8l-1.5-4.3h0v4.3h-0.9V49.8z"/>
		</g>
		<path d="M31.4,71.6C17.4,71.6,6,60.2,6,46.2s11.4-25.4,25.4-25.4s25.4,11.4,25.4,25.4S45.3,71.6,31.4,71.6z M31.4,36.5
			c-5.4,0-9.8,4.4-9.8,9.8S26,56,31.4,56s9.8-4.4,9.8-9.8S36.7,36.5,31.4,36.5z"/>
	</g>
</g>
<g id="Layer_1">
</g>
</svg>
