<?xml version="1.0" encoding="utf-8"?>
<!-- Generator: Adobe Illustrator 18.0.0, SVG Export Plug-In . SVG Version: 6.00 Build 0)  -->
<!DOCTYPE svg PUBLIC "-//W3C//DTD SVG 1.1//EN" "http://www.w3.org/Graphics/SVG/1.1/DTD/svg11.dtd">
<svg version="1.1" xmlns="http://www.w3.org/2000/svg" xmlns:xlink="http://www.w3.org/1999/xlink" x="0px" y="0px"
	 viewBox="0 0 300 100" style="enable-background:new 0 0 300 100;" xml:space="preserve">
<style type="text/css">
	.st0{fill-rule:evenodd;clip-rule:evenodd;}
	.st1{fill-rule:evenodd;clip-rule:evenodd;fill:#C038F9;}
	.st2{fill:none;}
	.st3{fill-rule:evenodd;clip-rule:evenodd;fill:#231F20;}
</style>
<g id="Layer_2">
</g>
<g id="Layer_1">
	<g>
		<path d="M20.6,57.1c-1-1.5-2.5-2.5-4.1-3.2c0.8-0.9,1.6-1.8,2.1-2.9c0.5-1.1,0.8-2.4,0.5-3.7C18.8,46.1,18,45,17,44.3
			c-1.1-0.7-2.3-1-3.6-1.1c-1.2-0.1-2.5,0-3.7,0c-1.2,0.1-2.5,0-3.7-0.1c-0.3,0-0.6,0-0.9,0c-0.2,0-0.4,0.1-0.5,0.2
			c-0.1,0.1-0.1,0.2-0.1,0.3c0,0.1,0,0.2,0,0.3c0.2,0.4,0.7,0.4,0.9,0.4c0.3,0,0.6,0,0.9,0.1c0.3,0.1,0.5,0.2,0.7,0.5
			c0.1,0.2,0.2,0.5,0.2,0.8c0,0.6,0,1.2,0,1.8c0,2.5,0.1,4.9,0,7.4l0,7.4c0,1.2,0,2.5-0.3,3.7c-0.1,0.3-0.2,0.6-0.4,0.7
			c-0.3,0.1-0.6,0.1-0.9,0.1c-0.2,0-0.3,0-0.5,0.2c-0.2,0.1-0.2,0.3-0.2,0.5c0,0.2,0.2,0.4,0.3,0.4C5.4,68,5.6,68,5.8,68
			c1.2,0,2.5-0.2,3.7-0.1l3,0.1c0.3,0,0.5,0,0.7,0c0.3,0,0.6,0,0.9,0c0.1,0,0.1,0,0.2,0c0.1,0,0.2,0,0.3,0c0.5,0,0.9-0.1,1.3-0.2
			c0.4-0.1,0.9-0.2,1.3-0.4c0.4-0.2,0.8-0.4,1.2-0.6l0.6-0.4l0.5-0.4c0.3-0.3,0.6-0.6,0.9-1c0.5-0.7,1-1.6,1.2-2.5
			c0.2-0.9,0.2-1.8,0.1-2.7C21.4,58.7,21.1,57.8,20.6,57.1z M10.6,64.1c0-0.5,0-0.9,0-1.4c0-0.9,0-1.7,0-2.5c0-1.6-0.1-2.9-0.1-3.8
			c0-0.9,0-1.4,0-1.4s0.5,0,1.4,0.1c0.5,0,1,0,1.6,0.2c0.6,0.1,1.3,0.4,1.9,0.8c1.3,0.9,2.3,2.4,2.7,4.3c0.2,0.9,0.3,2,0,2.9
			c-0.2,1-0.8,1.9-1.7,2.4c-0.9,0.5-1.9,0.7-2.9,0.6c-0.5,0-1-0.1-1.5-0.2c-0.4-0.1-1-0.3-1.2-0.7C10.6,65.1,10.6,64.6,10.6,64.1z
			 M10.4,53.3c0,0.1,0,0.1,0,0.2c0-0.4,0-0.7,0-1.1l0-1.1c0-0.7,0.1-1.5,0-2.2l0-4.3c0.2-0.1,0.6-0.1,0.9-0.2c0.4,0,0.7,0,1.1,0
			c0.3,0,0.7,0.1,1,0.2c0.3,0.1,0.6,0.3,0.9,0.5c1.1,0.9,1.5,2.4,1.6,3.8c0.1,0.7,0,1.4-0.2,2.1c-0.2,0.7-0.6,1.3-1.1,1.7
			c-0.3,0.2-0.6,0.3-0.9,0.3c-0.3,0-0.7,0.1-1.1,0.1c-0.7,0-1.4,0-2.2,0l-0.1,0c0,0,0,0,0,0c0,0,0,0,0-0.1V53.3z"/>
		<path d="M45.6,46.7c-0.5,0-1,0-1.5,0c-1,0.1-2,0-3,0c-0.5,0-1-0.1-1.5,0c-0.1,0-0.3,0.1-0.4,0.2c-0.1,0.1-0.2,0.3-0.2,0.4
			c0,0.4,0.3,0.6,0.6,0.6c0.5,0.1,1,0,1.4,0.2c0.4,0.2,0.3,0.8,0.4,1.2l0,3c0,2,0,4,0,5.9c0,2-0.1,4-1,5.8c-0.5,0.8-1.2,1.5-2.1,2
			c-0.9,0.4-1.9,0.5-2.8,0.5c-1.9,0-3.9-1-4.7-2.8c-0.8-1.8-0.8-3.8-0.8-5.8l0-5.9c0-1,0-2,0-3c0-0.5,0.1-1,0.6-1l0.7-0.1
			c0.3,0,0.6-0.1,0.7-0.5c0-0.1,0-0.3-0.1-0.5c-0.1-0.1-0.3-0.2-0.4-0.2c-0.3-0.1-0.5,0-0.8,0l-1.5,0c-1,0.1-2,0-3,0l-1.5,0
			c-0.2,0-0.6,0-0.8,0.4c-0.1,0.2-0.1,0.3,0,0.5c0.1,0.2,0.2,0.3,0.3,0.3c0.3,0.1,0.5,0.1,0.8,0.1c0.3,0,0.5,0,0.7,0.1
			c0.5,0.1,0.5,0.6,0.5,1.1l0,0l0.1,6.1v3c0,1,0,2,0.2,3.1c0.1,1,0.4,2,0.9,2.9c0.4,0.9,1.1,1.7,1.9,2.4c1.6,1.3,3.8,1.6,5.8,1.6
			c-0.3,0-0.5,0-0.8,0c0.3,0,0.5,0,0.8,0c1,0,2-0.1,3-0.3c1-0.3,1.9-0.7,2.7-1.3c1.7-1.2,2.5-3.1,2.9-5.1c0.4-2,0.3-4,0.3-6l0-5.9
			c0-0.5,0-1,0.2-1.4c0.2-0.4,0.7-0.3,1.3-0.4c0.3,0,0.6-0.3,0.6-0.6c0-0.1-0.1-0.3-0.2-0.4C45.9,46.8,45.8,46.7,45.6,46.7z"/>
		<path d="M54.5,54c-0.9-0.8-2-1.6-2.1-2.9c-0.1-0.6,0-1.3,0.4-1.8c0.3-0.5,0.9-0.9,1.5-1.1c0.6-0.2,1.3-0.2,1.9-0.1
			c0.7,0.1,1.3,0.3,1.8,0.6c0.6,0.4,0.8,1,0.9,1.7c0,0.2,0,0.3,0.1,0.5c0,0.2,0.2,0.4,0.4,0.5c0.2,0.1,0.5,0,0.6-0.2
			c0.1-0.2,0.1-0.4,0.1-0.6c0-0.7,0.1-1.4,0.1-2.1l0-1.1c0-0.1,0-0.4-0.1-0.6c-0.2-0.2-0.4-0.2-0.6-0.2c-0.3-0.1-0.7-0.1-1-0.2
			c-0.3-0.1-0.7-0.1-1.1-0.2c-0.7-0.1-1.4-0.1-2.1-0.1c-1.4,0.1-2.9,0.5-4,1.5c-1.1,0.9-1.7,2.4-1.7,3.8c0,1.4,0.5,2.8,1.4,3.9
			c0.9,1.1,1.9,2,3,2.8c1.1,0.8,2.1,1.6,2.9,2.6c0.8,0.9,1.1,2.3,0.8,3.4c-0.3,1.1-1.4,1.9-2.5,2.1c-1.1,0.2-2.2,0.1-3.2-0.4
			c-0.5-0.2-0.9-0.6-1.1-1c-0.3-0.4-0.4-0.9-0.5-1.3c0-0.2-0.1-0.5-0.1-0.7c0-0.2-0.1-0.6-0.4-0.7c-0.3-0.1-0.6,0-0.7,0.3
			c-0.1,0.2-0.1,0.5-0.1,0.7c0,0.9,0,1.7-0.1,2.4c0,0.4,0,0.7,0,1.1c0,0.4,0.4,0.6,0.7,0.7c1.2,0.5,2.1,0.6,2.8,0.6c0.7,0,1,0,1,0
			s-0.3,0-0.8,0c0.3,0,0.5,0,0.8,0c0.4,0,0.7,0,1.1-0.1c0,0,0,0,0,0c-0.7,0.1-1,0.1-1,0.1s0.4,0,1,0c0.7-0.1,1.6-0.2,2.8-0.7
			c1.1-0.5,2.3-1.6,3-3.3c0.6-1.6,0.5-3.8-0.8-5.6C58.4,56.8,56.4,55.5,54.5,54z M55.3,68.1c0,0-0.1,0-0.1,0
			C55.2,68.1,55.3,68.1,55.3,68.1z"/>
		<path d="M72.6,67.5c0-0.1,0-0.2-0.1-0.3c0,0,0,0,0,0c0,0,0-0.1-0.1-0.1c-0.1-0.1-0.3-0.1-0.4-0.1l-0.9-0.1c-0.3,0-0.6-0.1-0.8-0.3
			c-0.2-0.2-0.2-0.6-0.2-0.9c0-0.3-0.1-0.6-0.1-0.9c0-1.3,0-2.5,0-3.8l0-7.6c0-1.3,0-2.5,0-3.8c0-0.3,0-0.6,0.1-0.9
			c0-0.3,0.2-0.5,0.4-0.6c0.3-0.1,0.6-0.1,0.9-0.1c0.2,0,0.4-0.1,0.5-0.2c0.1-0.2,0.1-0.4,0.1-0.6c-0.2-0.4-0.7-0.4-1-0.4l-0.9,0
			l-1.9,0.1l-1.9-0.1l-0.9,0c-0.2,0-0.3,0-0.5,0.1c-0.2,0.1-0.3,0.3-0.3,0.5c0,0.2,0.1,0.4,0.3,0.5c0.2,0.1,0.4,0.1,0.5,0.1
			c0.3,0.1,0.7,0,0.9,0.2c0.2,0.1,0.3,0.4,0.3,0.7c0,0.3,0,0.6,0,0.9l0,3.8l0,7.6c0,1.3,0,2.5-0.1,3.8c0,0.3-0.1,0.6-0.1,0.9
			c0,0.3-0.1,0.6-0.2,0.8c-0.1,0.1-0.2,0.1-0.3,0.1l-0.5,0.1c-0.1,0-0.3,0-0.5,0.1c-0.2,0.1-0.3,0.3-0.3,0.5c0,0.2,0.1,0.4,0.3,0.5
			c0.2,0.1,0.3,0.1,0.5,0.1l0.9,0l1.9-0.1l2.6,0c0.4,0,0.8,0,1.2,0c0.1,0,0.2,0,0.3,0c-0.1,0-0.2,0-0.3,0c0.1,0,0.2,0,0.4-0.1
			c0,0,0,0,0,0c0,0,0,0,0.1,0c0.1,0,0.1-0.1,0.1-0.1c0,0,0,0,0,0c0,0,0-0.1,0.1-0.1C72.6,67.6,72.6,67.5,72.6,67.5
			C72.6,67.5,72.6,67.5,72.6,67.5z M72.5,67.3C72.5,67.3,72.5,67.3,72.5,67.3C72.5,67.3,72.5,67.3,72.5,67.3z M72.3,67.8
			C72.3,67.8,72.3,67.8,72.3,67.8C72.3,67.8,72.3,67.8,72.3,67.8C72.4,67.8,72.3,67.8,72.3,67.8z"/>
		<path d="M99.1,46.7c-0.4,0-0.7,0-1,0l-2,0.1l-2-0.1c-0.3,0-0.7,0-1,0c-0.2,0-0.4,0-0.5,0.1c-0.2,0.1-0.3,0.4-0.2,0.6
			c0,0.2,0.2,0.4,0.4,0.5c0.2,0.1,0.4,0,0.5,0.1l1,0.1c0.3,0.1,0.5,0.2,0.6,0.5c0.1,0.3,0.1,0.6,0.2,0.9c0,0.6,0,1.3,0.1,1.9
			l0.1,3.8l0.2,7.4l-6.1-6.1L83,50.1l-3.1-3.2c-0.1-0.1-0.3-0.3-0.4-0.4c-0.1-0.1-0.4-0.3-0.6-0.2c-0.2,0-0.4,0.2-0.5,0.4
			c-0.1,0.2-0.1,0.4-0.1,0.6c0,0.8,0,1.5,0,2.2l0,8.9l0,4.5c0,0.7,0,1.5,0,2.2c-0.1,0.7-0.1,1.6-0.9,1.6c-0.2,0-0.4,0-0.5,0
			c-0.2,0-0.4,0-0.6,0.1c-0.2,0.1-0.3,0.4-0.2,0.6c0.1,0.3,0.3,0.4,0.5,0.4c0.8,0,1.5,0,2.3,0c0.7,0,1.5,0,2.2,0l1.1,0
			c0.4,0,0.7,0.1,1.2-0.1c0.2-0.1,0.4-0.4,0.3-0.6c0-0.2-0.2-0.4-0.4-0.5c-0.4-0.1-0.8,0-1.1-0.1c-0.4,0-0.7-0.1-0.8-0.4
			c-0.2-0.3-0.2-0.7-0.2-1c-0.1-1.5-0.1-3-0.2-4.4l-0.3-8.6c2.3,2.4,4.5,4.7,6.8,7l7.3,7v0l0,0l1.1,1c0.1,0.1,0.2,0.1,0.3,0.2
			c0,0,0,0,0.1,0.1c0.1,0.1,0.1,0.1,0.2,0.2c0.1,0.1,0.1,0.1,0.2,0.2c0,0,0,0,0,0c0,0,0.1,0.1,0.1,0.1c0,0,0,0,0.1,0c0,0,0,0,0.1,0
			c0.1,0,0.1,0,0.2,0c0.1,0,0.2,0,0.2-0.1c0,0,0,0,0,0c0.1,0,0.1-0.1,0.1-0.2c0,0,0,0,0,0c0,0,0-0.1,0-0.1c0,0,0,0,0-0.1
			c0-0.1,0-0.2,0-0.3c0-0.1,0-0.1,0-0.2c0-0.1,0-0.2,0-0.4c0-0.1,0-0.3,0-0.4l0-2l0-4l0.1-8l0-2c0-0.7,0-1.4,0.2-1.9
			c0.1-0.3,0.4-0.4,0.7-0.4l0.5-0.1c0.2,0,0.4-0.1,0.5-0.2c0.2-0.2,0.2-0.4,0.1-0.6C99.5,46.9,99.3,46.7,99.1,46.7z M96.5,68
			C96.5,68,96.5,68,96.5,68C96.5,68,96.5,68,96.5,68z M96.6,68.1C96.6,68.1,96.6,68.1,96.6,68.1C96.6,68.1,96.6,68.1,96.6,68.1z
			 M97,68C97.1,68,97.1,68,97,68C97.1,68,97.1,68,97,68z"/>
		<path d="M115.9,63.7c-0.1,0.2-0.2,0.5-0.2,0.7c-0.1,0.5-0.2,0.9-0.5,1.3c-0.3,0.3-0.8,0.4-1.3,0.5c-0.5,0.1-0.9,0.1-1.4,0
			c-0.5,0-0.9,0-1.4-0.1c-0.5,0-0.9-0.1-1.3-0.3c-0.3-0.2-0.4-0.7-0.4-1.2c-0.1-0.5,0-0.9,0-1.4l0-5.5l2.2,0.1l1.2,0
			c0.4,0,0.8,0,1.1,0.2c0.3,0.1,0.4,0.4,0.5,0.8c0,0.2,0,0.4,0.1,0.6c0,0.2,0.1,0.5,0.4,0.5c0.2,0.1,0.5-0.1,0.6-0.3
			c0.1-0.2,0.1-0.4,0.1-0.6l0.1-1.2c0-0.8,0.2-1.5,0.3-2.3c0-0.2-0.2-0.5-0.4-0.5c-0.2,0-0.5,0.1-0.6,0.3c-0.2,0.4-0.5,0.4-0.9,0.4
			c-0.4,0-0.8,0-1.2,0l-1.2,0l-2.2,0l0-7.1l2.7,0c0.5,0,1,0,1.4,0.1c0.2,0,0.5,0.1,0.7,0.2c0.2,0.1,0.3,0.3,0.3,0.5l0,0l0,0
			c0.1,0.2,0.2,0.5,0.2,0.8c0,0.2,0,0.7,0.4,0.8c0.2,0.1,0.4,0,0.5-0.1c0.2-0.1,0.2-0.3,0.3-0.4c0.1-0.3,0-0.6,0.1-0.8
			c0-0.6,0-1.1,0.2-1.6l0.1-0.8c0.1-0.3-0.1-0.8-0.5-0.8c-1.1,0.4-2.2,0.2-3.3,0.3l-3.3,0c-1.1,0-2.2,0-3.3,0c-0.6,0-1.1,0-1.7,0
			c-0.1,0-0.3,0-0.5,0.1c-0.2,0.1-0.2,0.3-0.2,0.4c0,0.2,0.1,0.4,0.2,0.5c0.1,0.1,0.3,0.1,0.4,0.1L105,48c0.3,0.1,0.5,0.1,0.7,0.3
			c0.3,0.4,0.2,1,0.3,1.5l0,3.3c0,2.2,0,4.4,0,6.6l0,3.3c0,1.1,0.1,2.2-0.3,3.2c-0.1,0.2-0.2,0.4-0.5,0.5l-0.8,0.1
			c-0.3,0.1-0.5,0.5-0.3,0.8c0.2,0.3,0.6,0.3,0.8,0.3c1.1-0.1,2.2-0.1,3.3-0.1l3.3,0.1l1.8,0c0.4,0,0.9,0,1.5,0c0.3,0,0.6,0,0.9,0
			c0,0,0.1,0,0.1,0c0,0,0.1,0,0.1,0c0.1,0,0.2-0.1,0.2-0.1c0,0,0,0,0,0c0,0,0-0.1,0.1-0.1c0,0,0.1-0.1,0.1-0.1
			c0.2-0.3,0.2-0.8,0.3-1.2l0.2-1.4c0-0.4,0.3-1-0.1-1.4C116.4,63.4,116.1,63.5,115.9,63.7z"/>
		<path d="M126.4,54c-0.9-0.8-2-1.6-2.1-2.9c-0.1-0.6,0-1.3,0.4-1.8c0.3-0.5,0.9-0.9,1.5-1.1c0.6-0.2,1.3-0.2,1.9-0.1
			c0.7,0.1,1.3,0.3,1.8,0.6c0.6,0.4,0.8,1,0.9,1.7c0,0.2,0,0.3,0.1,0.5c0,0.2,0.2,0.4,0.4,0.5c0.2,0.1,0.5,0,0.6-0.2
			c0.1-0.2,0.1-0.4,0.1-0.6c0-0.7,0.1-1.4,0.1-2.1l0-1.1c0-0.1,0-0.4-0.1-0.6c-0.2-0.2-0.4-0.2-0.6-0.2c-0.3-0.1-0.7-0.1-1-0.2
			c-0.3-0.1-0.7-0.1-1.1-0.2c-0.7-0.1-1.4-0.1-2.1-0.1c-1.4,0.1-2.9,0.5-4,1.5c-1.1,0.9-1.7,2.4-1.7,3.8c0,1.4,0.5,2.8,1.4,3.9
			c0.9,1.1,1.9,2,3,2.8c1.1,0.8,2.1,1.6,2.9,2.6c0.8,0.9,1.1,2.3,0.8,3.4c-0.3,1.1-1.4,1.9-2.5,2.1c-1.1,0.2-2.2,0.1-3.2-0.4
			c-0.5-0.2-0.9-0.6-1.1-1c-0.3-0.4-0.4-0.9-0.5-1.3c0-0.2-0.1-0.5-0.1-0.7c0-0.2-0.1-0.6-0.4-0.7c-0.3-0.1-0.6,0-0.7,0.3
			c-0.1,0.2-0.1,0.5-0.1,0.7c0,0.9,0,1.7-0.1,2.4c0,0.4,0,0.7,0,1.1c0,0.4,0.4,0.6,0.7,0.7c1.2,0.5,2.1,0.6,2.8,0.6c0.7,0,1,0,1,0
			s-0.3,0-0.8,0c0.3,0,0.5,0,0.8,0c0.4,0,0.7,0,1.1-0.1c0,0,0,0,0,0c-0.7,0.1-1,0.1-1,0.1s0.4,0,1,0c0.7-0.1,1.6-0.2,2.8-0.7
			c1.1-0.5,2.3-1.6,3-3.3c0.6-1.6,0.5-3.8-0.8-5.6C130.3,56.8,128.3,55.5,126.4,54z M127.2,68.1c0,0-0.1,0-0.1,0
			C127.1,68.1,127.2,68.1,127.2,68.1z"/>
		<path d="M142,54c-0.9-0.8-2-1.6-2.1-2.9c-0.1-0.6,0-1.3,0.4-1.8c0.3-0.5,0.9-0.9,1.5-1.1c0.6-0.2,1.3-0.2,1.9-0.1
			c0.7,0.1,1.3,0.3,1.8,0.6c0.6,0.4,0.8,1,0.9,1.7c0,0.2,0,0.3,0.1,0.5c0,0.2,0.2,0.4,0.4,0.5c0.2,0.1,0.5,0,0.6-0.2
			c0.1-0.2,0.1-0.4,0.1-0.6c0-0.7,0.1-1.4,0.1-2.1l0-1.1c0-0.1,0-0.4-0.1-0.6c-0.2-0.2-0.4-0.2-0.6-0.2c-0.3-0.1-0.7-0.1-1-0.2
			c-0.3-0.1-0.7-0.1-1.1-0.2c-0.7-0.1-1.4-0.1-2.1-0.1c-1.4,0.1-2.9,0.5-4,1.5c-1.1,0.9-1.7,2.4-1.7,3.8c0,1.4,0.5,2.8,1.4,3.9
			c0.9,1.1,1.9,2,3,2.8c1.1,0.8,2.1,1.6,2.9,2.6c0.8,0.9,1.1,2.3,0.8,3.4c-0.3,1.1-1.4,1.9-2.5,2.1c-1.1,0.2-2.2,0.1-3.2-0.4
			c-0.5-0.2-0.9-0.6-1.1-1c-0.3-0.4-0.4-0.9-0.5-1.3c0-0.2-0.1-0.5-0.1-0.7c0-0.2-0.1-0.6-0.4-0.7c-0.3-0.1-0.6,0-0.7,0.3
			c-0.1,0.2-0.1,0.5-0.1,0.7c0,0.9,0,1.7-0.1,2.4c0,0.4,0,0.7,0,1.1c0,0.4,0.4,0.6,0.7,0.7c1.2,0.5,2.1,0.6,2.8,0.6c0.7,0,1,0,1,0
			s-0.3,0-0.8,0c0.3,0,0.5,0,0.8,0c0.4,0,0.7,0,1.1-0.1c0,0,0,0,0,0c-0.7,0.1-1,0.1-1,0.1s0.4,0,1,0c0.7-0.1,1.6-0.2,2.8-0.7
			c1.1-0.5,2.3-1.6,3-3.3c0.6-1.6,0.5-3.8-0.8-5.6C145.9,56.8,143.9,55.5,142,54z M142.9,68.1c0,0-0.1,0-0.1,0
			C142.8,68.1,142.8,68.1,142.9,68.1z"/>
		<path d="M172.5,67.3c0,0,0-0.1,0-0.1c-0.1-0.1-0.3-0.2-0.5-0.2c-0.4,0-0.8-0.1-1.3-0.1c-0.2,0-0.5-0.1-0.7-0.3
			c-0.2-0.2-0.3-0.5-0.3-0.7c-0.1-0.6-0.1-1.2-0.1-1.9c0-1.4,0-2.9,0-4.6c0-3.4,0-7.2,0-11.4c0-0.5,0-1.1,0-1.6c0-0.5,0-1.1,0.2-1.5
			c0.2-0.5,0.8-0.4,1.3-0.5c0.3,0,0.7-0.2,0.7-0.6c0-0.2-0.1-0.4-0.2-0.5c-0.1-0.1-0.3-0.1-0.4-0.2c-1.1,0-2.2,0.1-3.3,0.1
			c-1.1,0-2.2-0.1-3.3-0.1c-0.3,0-0.7,0.1-0.8,0.5c0,0.1,0,0.4,0.1,0.5c0.1,0.1,0.3,0.2,0.5,0.2c0.3,0,0.5,0,0.8,0.1
			c0.3,0.1,0.5,0.1,0.6,0.3c0.3,0.4,0.3,1,0.3,1.5c0,0.6,0,1.1,0,1.7c0,2.2,0.1,4.4,0,6.4c0,2.1,0,4.1,0,6c0,1.9,0,3.7-0.2,5.4
			c-0.1,0.4-0.2,0.8-0.5,1c-0.1,0.1-0.3,0.1-0.5,0.1c-0.2,0-0.4,0-0.6,0.1c-0.2,0-0.4,0.2-0.5,0.5c0,0.2,0.1,0.5,0.3,0.6
			c0.4,0.2,0.8,0.1,1.1,0.1c1.4,0,2.5-0.2,3.5-0.1c0.6,0,1.1,0,1.5,0c0.5,0,1,0,1.6,0c0.1,0,0.3,0,0.3,0c-0.1,0-0.1,0-0.1,0
			c-0.1,0-0.2,0-0.2,0s0.1,0,0.2,0c0.1,0,0.3,0,0.4-0.2c0,0,0,0,0,0c0,0,0.1-0.1,0.1-0.1C172.5,67.5,172.5,67.4,172.5,67.3
			C172.5,67.3,172.5,67.3,172.5,67.3z M172.2,67.8c0.1,0,0.1-0.1,0.1-0.1C172.3,67.8,172.3,67.8,172.2,67.8z"/>
		<path d="M197.8,46.7c-0.4,0-0.7,0-1,0l-2,0.1l-2-0.1c-0.3,0-0.7,0-1,0c-0.2,0-0.4,0-0.5,0.1c-0.2,0.1-0.3,0.4-0.2,0.6
			c0,0.2,0.2,0.4,0.4,0.5c0.2,0.1,0.4,0,0.5,0.1l1,0.1c0.3,0.1,0.5,0.2,0.6,0.5c0.1,0.3,0.1,0.6,0.2,0.9c0,0.6,0,1.3,0.1,1.9
			l0.1,3.8l0.2,7.4l-6.1-6.1l-6.2-6.4l-3.1-3.2c-0.1-0.1-0.3-0.3-0.4-0.4c-0.1-0.1-0.4-0.3-0.6-0.2c-0.2,0-0.4,0.2-0.5,0.4
			c-0.1,0.2-0.1,0.4-0.1,0.6c0,0.8,0,1.5,0,2.2l0,8.9l0,4.5c0,0.7,0,1.5,0,2.2c-0.1,0.7-0.1,1.6-0.9,1.6c-0.2,0-0.4,0-0.5,0
			c-0.2,0-0.4,0-0.6,0.1c-0.2,0.1-0.3,0.4-0.2,0.6c0.1,0.3,0.3,0.4,0.5,0.4c0.8,0,1.5,0,2.3,0c0.7,0,1.5,0,2.2,0l1.1,0
			c0.4,0,0.7,0.1,1.2-0.1c0.2-0.1,0.4-0.4,0.3-0.6c0-0.2-0.2-0.4-0.4-0.5c-0.4-0.1-0.8,0-1.1-0.1c-0.4,0-0.7-0.1-0.8-0.4
			c-0.2-0.3-0.2-0.7-0.2-1c-0.1-1.5-0.1-3-0.2-4.4l-0.3-8.6c2.3,2.4,4.5,4.7,6.8,7l7.3,7v0l0,0l1.1,1c0.1,0.1,0.2,0.1,0.3,0.2
			c0,0,0,0,0.1,0.1c0.1,0.1,0.1,0.1,0.2,0.2c0.1,0.1,0.1,0.1,0.2,0.2c0,0,0,0,0,0c0,0,0.1,0.1,0.1,0.1c0,0,0,0,0.1,0c0,0,0,0,0.1,0
			c0.1,0,0.1,0,0.2,0c0.1,0,0.2,0,0.2-0.1c0,0,0,0,0,0c0.1,0,0.1-0.1,0.1-0.2c0,0,0,0,0,0c0,0,0-0.1,0-0.1c0,0,0,0,0-0.1
			c0-0.1,0-0.2,0-0.3c0-0.1,0-0.1,0-0.2c0-0.1,0-0.2,0-0.4c0-0.1,0-0.3,0-0.4l0-2l0-4l0.1-8l0-2c0-0.7,0-1.4,0.2-1.9
			c0.1-0.3,0.4-0.4,0.7-0.4l0.5-0.1c0.2,0,0.4-0.1,0.5-0.2c0.2-0.2,0.2-0.4,0.1-0.6C198.3,46.9,198,46.7,197.8,46.7z M195.2,68
			C195.2,68,195.2,68,195.2,68C195.2,68,195.2,68,195.2,68z M195.4,68.1C195.4,68.1,195.4,68.1,195.4,68.1
			C195.4,68.1,195.4,68.1,195.4,68.1z M195.8,68C195.8,68,195.8,68,195.8,68C195.8,68,195.8,68,195.8,68z"/>
		<path d="M206.8,54c-0.9-0.8-2-1.6-2.1-2.9c-0.1-0.6,0-1.3,0.4-1.8c0.3-0.5,0.9-0.9,1.5-1.1c0.6-0.2,1.3-0.2,1.9-0.1
			c0.7,0.1,1.3,0.3,1.8,0.6c0.6,0.4,0.8,1,0.9,1.7c0,0.2,0,0.3,0.1,0.5c0,0.2,0.2,0.4,0.4,0.5c0.2,0.1,0.5,0,0.6-0.2
			c0.1-0.2,0.1-0.4,0.1-0.6c0-0.7,0.1-1.4,0.1-2.1l0-1.1c0-0.1,0-0.4-0.1-0.6c-0.2-0.2-0.4-0.2-0.6-0.2c-0.3-0.1-0.7-0.1-1-0.2
			c-0.3-0.1-0.7-0.1-1.1-0.2c-0.7-0.1-1.4-0.1-2.1-0.1c-1.4,0.1-2.9,0.5-4,1.5c-1.1,0.9-1.7,2.4-1.7,3.8c0,1.4,0.5,2.8,1.4,3.9
			c0.9,1.1,1.9,2,3,2.8c1.1,0.8,2.1,1.6,2.9,2.6c0.8,0.9,1.1,2.3,0.8,3.4c-0.3,1.1-1.4,1.9-2.5,2.1c-1.1,0.2-2.2,0.1-3.2-0.4
			c-0.5-0.2-0.9-0.6-1.1-1c-0.3-0.4-0.4-0.9-0.5-1.3c0-0.2-0.1-0.5-0.1-0.7c0-0.2-0.1-0.6-0.4-0.7c-0.3-0.1-0.6,0-0.7,0.3
			c-0.1,0.2-0.1,0.5-0.1,0.7c0,0.9,0,1.7-0.1,2.4c0,0.4,0,0.7,0,1.1c0,0.4,0.4,0.6,0.7,0.7c1.2,0.5,2.1,0.6,2.8,0.6c0.7,0,1,0,1,0
			s-0.3,0-0.8,0c0.3,0,0.5,0,0.8,0c0.4,0,0.7,0,1.1-0.1c0,0,0,0,0,0c-0.7,0.1-1,0.1-1,0.1s0.4,0,1,0c0.7-0.1,1.6-0.2,2.8-0.7
			c1.1-0.5,2.3-1.6,3-3.3c0.6-1.6,0.5-3.8-0.8-5.6C210.7,56.8,208.7,55.5,206.8,54z M207.6,68.1c0,0-0.1,0-0.1,0
			C207.5,68.1,207.6,68.1,207.6,68.1z"/>
		<path d="M224.9,67.5c0-0.1,0-0.2-0.1-0.3c0,0,0,0,0,0c0,0,0-0.1-0.1-0.1c-0.1-0.1-0.3-0.1-0.4-0.1h0l-0.9-0.1
			c-0.3,0-0.6-0.1-0.8-0.3c-0.2-0.2-0.2-0.6-0.2-0.9c0-0.3-0.1-0.6-0.1-0.9c0-1.3,0-2.5,0-3.8l0-7.6c0-1.3,0-2.5,0-3.8
			c0-0.3,0-0.6,0.1-0.9c0-0.3,0.2-0.5,0.4-0.6c0.3-0.1,0.6-0.1,0.9-0.1c0.2,0,0.4-0.1,0.5-0.2c0.1-0.2,0.1-0.4,0.1-0.6
			c-0.2-0.4-0.7-0.4-1-0.4l-0.9,0l-1.9,0.1l-1.9-0.1l-0.9,0c-0.2,0-0.3,0-0.5,0.1c-0.2,0.1-0.3,0.3-0.3,0.5c0,0.2,0.1,0.4,0.3,0.5
			c0.2,0.1,0.4,0.1,0.5,0.1c0.3,0.1,0.7,0,0.9,0.2c0.2,0.1,0.3,0.4,0.3,0.7c0,0.3,0,0.6,0,0.9l0,3.8l0,7.6c0,1.3,0,2.5-0.1,3.8
			c0,0.3-0.1,0.6-0.1,0.9c0,0.3-0.1,0.6-0.2,0.8c-0.1,0.1-0.2,0.1-0.3,0.1l-0.5,0.1c-0.1,0-0.3,0-0.5,0.1c-0.2,0.1-0.3,0.3-0.3,0.5
			c0,0.2,0.1,0.4,0.3,0.5c0.2,0.1,0.3,0.1,0.5,0.1l0.9,0l1.9-0.1l2.6,0c0.4,0,0.8,0,1.2,0c0.1,0,0.2,0,0.3,0c-0.1,0-0.2,0-0.3,0
			c0.1,0,0.2,0,0.4-0.1c0,0,0,0,0,0c0,0,0,0,0.1,0c0.1,0,0.1-0.1,0.1-0.1c0,0,0,0,0,0c0,0,0-0.1,0.1-0.1
			C224.8,67.6,224.9,67.5,224.9,67.5C224.9,67.5,224.9,67.5,224.9,67.5z M224.8,67.3C224.8,67.3,224.8,67.3,224.8,67.3
			C224.8,67.3,224.8,67.3,224.8,67.3z M224.6,67.8C224.6,67.8,224.6,67.8,224.6,67.8C224.6,67.8,224.6,67.8,224.6,67.8
			C224.6,67.8,224.6,67.8,224.6,67.8z"/>
		<path d="M248.8,50.3c-1-1.1-2.2-1.9-3.5-2.5c-1.3-0.6-2.7-0.9-4.2-1c-2.8-0.3-5.7-0.1-8.5-0.1l-2.1-0.1c-0.4,0-0.7,0-1.1,0
			c-0.2,0-0.4,0.1-0.5,0.3c-0.1,0.2-0.1,0.5,0,0.6c0.1,0.2,0.4,0.2,0.6,0.3l0.5,0c0.4,0,0.7,0.1,0.9,0.3c0.2,0.2,0.3,0.5,0.3,0.9
			l0,1.1c0,2.8,0.1,5.7,0.1,8.5l0,4.2c0,0.7,0,1.4-0.1,2.1c0,0.3-0.1,0.7-0.1,1c-0.1,0.3-0.2,0.7-0.5,0.7l-0.7,0.1
			c-0.3,0-0.6,0.2-0.7,0.5c0,0.1,0,0.3,0.1,0.4c0.1,0.1,0.3,0.2,0.4,0.2c0.3,0.1,0.5,0,0.8,0l1.5-0.1c0.5,0,1-0.1,1.5,0
			c1,0,2,0.1,2.9,0.1l0,0c1,0.1,2.1,0.1,2.9,0.1c1.4,0,2.8-0.1,4.2-0.5c1.4-0.4,2.7-1,3.8-1.9c1.1-0.9,2-2.1,2.7-3.3
			c0.7-1.3,1.1-2.7,1.2-4.1c0.1-1.4,0-2.9-0.4-4.3C250.5,52.6,249.8,51.4,248.8,50.3z M235,65.4L235,65.4c-0.1-0.3-0.2-0.7-0.2-1.1
			c0-0.4,0-0.8,0-1.2l0-2.3l0-4.7c0-1.6,0-3.1,0-4.7l0-2.3c0-0.2,0-0.4,0-0.6c0.1-0.1,0.3-0.2,0.5-0.2c0.4-0.1,0.8-0.1,1.2-0.1
			c-0.3,0-0.6,0-0.9,0.1c0.3,0,0.7-0.1,0.9-0.1c1.5,0,3,0.1,4.4,0.5c1.4,0.4,2.7,1.1,3.8,2.1c0.6,0.5,1.1,1,1.5,1.6
			c0.4,0.6,0.8,1.2,1,1.9c0.5,1.4,0.7,2.8,0.6,4.3c-0.1,1.5-0.4,2.9-1.1,4.2c-0.7,1.3-2,2.2-3.3,2.8c-1.3,0.6-2.8,0.8-4.3,0.8
			c-0.7,0-1.5-0.1-2.2-0.2C236.2,66.2,235.4,66,235,65.4L235,65.4z"/>
		<path d="M267,63.7c-0.1,0.2-0.2,0.5-0.2,0.7c-0.1,0.5-0.2,0.9-0.5,1.3c-0.3,0.3-0.8,0.4-1.3,0.5c-0.5,0.1-0.9,0.1-1.4,0
			c-0.5,0-0.9,0-1.4-0.1c-0.5,0-0.9-0.1-1.3-0.3c-0.3-0.2-0.4-0.7-0.4-1.2c-0.1-0.5,0-0.9,0-1.4l0-5.5l2.2,0.1l1.2,0
			c0.4,0,0.8,0,1.1,0.2c0.3,0.1,0.4,0.4,0.5,0.8c0,0.2,0,0.4,0.1,0.6c0,0.2,0.1,0.5,0.4,0.5c0.2,0.1,0.5-0.1,0.6-0.3
			c0.1-0.2,0.1-0.4,0.1-0.6l0.1-1.2c0-0.8,0.2-1.5,0.3-2.3c0-0.2-0.2-0.5-0.4-0.5c-0.2,0-0.5,0.1-0.6,0.3c-0.2,0.4-0.5,0.4-0.9,0.4
			c-0.4,0-0.8,0-1.2,0l-1.2,0l-2.2,0l0-7.1l2.7,0c0.5,0,1,0,1.4,0.1c0.2,0,0.5,0.1,0.7,0.2c0.2,0.1,0.3,0.3,0.3,0.5l0,0l0,0
			c0.1,0.2,0.2,0.5,0.2,0.8c0,0.2,0,0.7,0.4,0.8c0.2,0.1,0.4,0,0.5-0.1c0.2-0.1,0.2-0.3,0.3-0.4c0.1-0.3,0-0.6,0.1-0.8
			c0-0.6,0-1.1,0.2-1.6l0.1-0.8c0.1-0.3-0.1-0.8-0.5-0.8c-1.1,0.4-2.2,0.2-3.3,0.3l-3.3,0c-1.1,0-2.2,0-3.3,0c-0.6,0-1.1,0-1.7,0
			c-0.1,0-0.3,0-0.5,0.1c-0.2,0.1-0.2,0.3-0.2,0.4c0,0.2,0.1,0.4,0.2,0.5c0.1,0.1,0.3,0.1,0.4,0.1L256,48c0.3,0.1,0.5,0.1,0.7,0.3
			c0.3,0.4,0.2,1,0.3,1.5l0,3.3c0,2.2,0,4.4,0,6.6l0,3.3c0,1.1,0.1,2.2-0.3,3.2c-0.1,0.2-0.2,0.4-0.5,0.5l-0.8,0.1
			c-0.3,0.1-0.5,0.5-0.3,0.8c0.2,0.3,0.6,0.3,0.8,0.3c1.1-0.1,2.2-0.1,3.3-0.1l3.3,0.1l1.8,0c0.4,0,0.9,0,1.5,0c0.3,0,0.6,0,0.9,0
			c0,0,0.1,0,0.1,0c0,0,0.1,0,0.1,0c0.1,0,0.2-0.1,0.2-0.1c0,0,0,0,0,0c0,0,0-0.1,0.1-0.1c0,0,0.1-0.1,0.1-0.1
			c0.2-0.3,0.2-0.8,0.3-1.2l0.2-1.4c0-0.4,0.3-1-0.1-1.4C267.4,63.4,267.1,63.5,267,63.7z"/>
		<path d="M293.4,67.4C293.4,67.4,293.4,67.4,293.4,67.4C293.4,67.4,293.4,67.4,293.4,67.4c0-0.1,0-0.1,0-0.2c0,0,0,0,0,0
			c0-0.1,0-0.1-0.1-0.1c-0.1-0.1-0.3-0.1-0.5-0.1c-0.6,0-1.3-0.1-1.9-0.3c-1.2-0.5-2.1-1.5-3-2.4c-1.7-1.9-3.3-3.9-4.9-5.9
			c1-0.9,1.9-1.9,2.5-3.2c0.6-1.3,0.9-2.7,0.6-4.1c-0.3-1.4-1.2-2.6-2.5-3.3c-1.3-0.7-2.7-0.9-4.1-0.9c-1.4,0-2.8,0.1-4.2,0.1
			l-2.1-0.1l-1,0c-0.2,0-0.3,0-0.5,0c-0.2,0-0.4,0.1-0.5,0.3c-0.1,0.2-0.1,0.5,0.1,0.6c0.2,0.2,0.4,0.2,0.6,0.2c0.4,0,0.7,0,1,0.1
			c0.7,0.1,0.7,1,0.7,1.6l0,4.2l0,8.3c0,1.4,0,2.8-0.2,4.1c-0.1,0.8-0.9,0.4-1.6,0.8c-0.4,0.3-0.1,1,0.3,1c0.4,0.1,0.7,0,1.1,0
			l2.1-0.1l2.1,0.1l1,0c0.3,0,0.7,0.1,1.1-0.2c0.2-0.2,0.2-0.4,0.1-0.6c-0.1-0.2-0.3-0.3-0.5-0.3l-1.1-0.1c-0.3,0-0.7-0.1-0.8-0.4
			c-0.1-0.3-0.2-0.6-0.2-1c-0.1-0.7-0.1-1.4-0.1-2.1c0-1.3,0-2.7,0-4l1.6,0l0.9,0l0.4,0l0.2,0c0,0,0,0,0,0l0.1,0.1l2.5,3.2
			c0.9,1,1.7,2.1,2.5,3.2c0.4,0.5,0.9,1,1.5,1.4c0.6,0.4,1.2,0.6,1.9,0.7c1.4,0.1,2.7,0,4.1,0.1c0.2,0,0.3,0,0.5-0.1c0,0,0,0,0,0
			c0.1,0,0.1-0.1,0.2-0.1c0,0,0,0,0-0.1C293.3,67.6,293.4,67.6,293.4,67.4C293.4,67.5,293.4,67.5,293.4,67.4z M278.9,57.6
			c-0.3,0-0.7-0.1-1-0.1c-0.3-0.1-0.7-0.1-0.9-0.2c0,0,0-0.1,0-0.2l0-0.3l0-0.6l0-1.1l0-2.2l0-2.2c0-0.7,0-1.5-0.1-2.2
			c0.6-0.2,1.2-0.2,1.7-0.2c0.2,0,0.5,0,0.7,0.1c0.1,0,0.2,0,0.4,0.1c0.3,0.1,0.7,0.2,1,0.4c0.3,0.2,0.6,0.4,0.8,0.6
			c0.2,0.2,0.5,0.5,0.7,0.8c0.4,0.6,0.6,1.2,0.7,1.9c0.1,0.3,0.1,0.7,0.1,1c0,0.4,0,0.7,0,1c-0.1,0.7-0.2,1.4-0.5,2
			c-0.3,0.6-0.8,1.1-1.4,1.3C280.3,57.7,279.6,57.7,278.9,57.6z M293,67.9C293,67.9,293,67.9,293,67.9C293,67.9,293,67.9,293,67.9z
			 M293.2,67.8C293.2,67.8,293.2,67.7,293.2,67.8C293.2,67.7,293.2,67.8,293.2,67.8z M293.4,67.5C293.4,67.5,293.4,67.5,293.4,67.5
			c0,0.1,0,0.1,0,0.1C293.3,67.6,293.4,67.5,293.4,67.5z"/>
	</g>
</g>
</svg>
