<?xml version="1.0" encoding="utf-8"?>
<!-- Generator: Adobe Illustrator 18.0.0, SVG Export Plug-In . SVG Version: 6.00 Build 0)  -->
<!DOCTYPE svg PUBLIC "-//W3C//DTD SVG 1.1//EN" "http://www.w3.org/Graphics/SVG/1.1/DTD/svg11.dtd">
<svg version="1.1" xmlns="http://www.w3.org/2000/svg" xmlns:xlink="http://www.w3.org/1999/xlink" x="0px" y="0px"
	 viewBox="0 0 300 100" style="enable-background:new 0 0 300 100;" xml:space="preserve">
<style type="text/css">
	.st0{fill-rule:evenodd;clip-rule:evenodd;}
	.st1{fill-rule:evenodd;clip-rule:evenodd;fill:#C038F9;}
	.st2{fill:none;}
	.st3{fill-rule:evenodd;clip-rule:evenodd;fill:#231F20;}
</style>
<g id="Layer_2">
</g>
<g id="Layer_1">
	<g>
		<path d="M24.8,68.7c6.5,9.6,16.6,14,27.8,14c8.4,0,19.6-2.8,19.6-11.8c0-7.3-6.7-9.3-19-12.2l-10.2-2.3
			C28.1,53,15.2,47.5,15.2,30.6c0-19.4,18.5-28.8,35.7-28.8c15.8,0,28.9,5.8,38.5,18.5L75,31.2c-4.4-8.4-13-13.3-24.2-13.3
			c-10,0-17.5,3.8-17.5,10.2c0,7.6,8.7,9.5,19,11.8l11.3,2.5c13.7,3,26.7,8.5,26.7,26c0,22.5-21.2,30.3-40.4,30.3
			c-15.3,0-31.1-6.6-39.9-19.4L24.8,68.7z"/>
		<path d="M95.7,9.3h15.8v87H95.7V9.3z"/>
		<path d="M175.9,85.4c0,6.7,1.6,9.6,2.5,11h-16.7c-1-1.6-1.6-4.3-1.6-6c-6.1,4.9-13.2,7.5-21.4,7.5c-12.4,0-22.3-7.9-22.3-20.6
			c0-12.8,10.2-18.5,19.9-20.5l6.6-1.3c5.7-1.2,13.1-2.5,17.1-3.9v-1.9c0-6.5-5.6-8.3-12.4-8.3c-9.2,0-12.2,2.7-12.2,9.8l-15.8-0.6
			c0-15.4,13.6-21.4,28-21.4c14.1,0,28.2,2.8,28.2,21.5V85.4z M160.1,63.6c-2.1,1-4.7,1.8-7.5,2.3l-8.7,1.8
			c-6,1.2-10.9,2.8-10.9,9.1c0,4.9,4.5,8.2,10.2,8.2c7.4,0,16.8-3.6,16.8-12V63.6z"/>
		<path d="M189.3,24.2l15.8-16.5v23.2h14.1v11.4h-14.1v33.2c0,5.2,0.1,10.3,8.9,9.4l0.9,14.7c-3.8,0.8-3.3,0.6-8.2,0
			c-13.2-1.6-17.4-8.2-17.4-18.1V42.2h-9.6V30.8h9.6V24.2z"/>
		<path d="M234.1,67.4c0.3,9.7,9.3,18.3,17.9,18.3c12.4,0,14-7.5,15.5-9.7l14.5,0.2c-2.9,13.5-12.3,23-30.2,23
			c-21.2,0-34.3-16-34.3-35.5s12.3-34.3,33.5-34.3c21.9,0,31.5,14.6,31.5,38.1H234.1z M265.9,55.2c0-3.5-4.3-13-14.9-13
			c-9.2,0-15.3,6-17,13H265.9z"/>
	</g>
</g>
</svg>
