<?xml version="1.0" encoding="utf-8"?>
<!-- Generator: Adobe Illustrator 18.0.0, SVG Export Plug-In . SVG Version: 6.00 Build 0)  -->
<!DOCTYPE svg PUBLIC "-//W3C//DTD SVG 1.1//EN" "http://www.w3.org/Graphics/SVG/1.1/DTD/svg11.dtd">
<svg version="1.1" xmlns="http://www.w3.org/2000/svg" xmlns:xlink="http://www.w3.org/1999/xlink" x="0px" y="0px"
	 viewBox="0 0 300 100" style="enable-background:new 0 0 300 100;" xml:space="preserve">
<style type="text/css">
	.st0{fill-rule:evenodd;clip-rule:evenodd;}
	.st1{fill-rule:evenodd;clip-rule:evenodd;fill:#C038F9;}
	.st2{fill:none;}
	.st3{fill-rule:evenodd;clip-rule:evenodd;fill:#231F20;}
</style>
<g id="Layer_2">
</g>
<g id="Layer_1">
	<g>
		<g>
			<g>
				<path d="M39.2,39.7h-4.6v-4.2h13.8v4.2h-4.6v23.5h-4.7V39.7z"/>
				<path d="M51.3,35.5H56v11.3h5.5V35.5h4.6v27.7h-4.6V51H56v12.1h-4.7V35.5z"/>
				<path d="M70.8,35.5h12.7v4.3h-8.1v6.9h6.2v4.4h-6.2v7.7H84v4.4H70.8V35.5z"/>
				<path d="M97,39.7h-4.6v-4.2h13.8v4.2h-4.6v23.5H97V39.7z"/>
				<path d="M109.2,35.5h12.7v4.3h-8.1v6.9h6.2v4.4h-6.2v7.7h8.6v4.4h-13.2V35.5z"/>
				<path d="M130.4,48.8l-5-13.3h4.5l2.3,6.7c0.2,0.6,0.4,1.7,0.6,3.3c0.1-1.4,0.3-2.5,0.6-3.3l2.3-6.7h4.4l-5,13.2l5.6,14.6H136
					l-2.8-8.1c-0.3-0.8-0.5-1.9-0.6-3.2c-0.1,1.4-0.3,2.5-0.6,3.3l-2.8,8h-4.5L130.4,48.8z"/>
				<path d="M147.5,35.5h5.9l5,27.7h-4.5l-0.8-6h-5.2l-0.9,6h-4.5L147.5,35.5z M152.3,52.9L150.4,40l-1.8,12.9H152.3z"/>
				<path d="M164.1,55.3c0.5,2.8,1.4,4.2,3.1,4.2c1.7,0,2.7-1.1,2.7-2.8c0-2.5-2.5-4.4-6.1-7.7c-2.2-2-3.4-4.6-3.4-7.2
					c0-4.1,3-6.8,6.9-6.8c3.8,0,6.2,2.3,6.7,6.6l-4.2,0.6c-0.3-2.2-1.3-3.4-2.7-3.4c-1.4,0-2.4,1.1-2.4,2.8c0,2,1.4,3.3,3.3,5.1
					c3.6,3.3,6.3,5.4,6.3,9.8c0,4.1-2.8,7.1-7.1,7.1c-4.2,0-6.9-2.8-7.4-7.7L164.1,55.3z"/>
				<path d="M187.7,39.7h-4.6v-4.2H197v4.2h-4.6v23.5h-4.7V39.7z"/>
				<path d="M219.3,35.5h4.6v27.7h-4.6V35.5z"/>
				<path d="M228.7,35.5h5.2c2.8,0,4.9,0,6.6,1.3c1.4,1.1,2.4,3.2,2.4,5.8c0,2.7-1,4.7-3,6c2.5,1.6,3.6,3.7,3.6,6.7
					c0,2-0.5,3.8-1.5,5.2c-1.6,2.2-4.2,2.7-8.6,2.7h-4.7V35.5z M234,46.7c3,0,4.3-1.1,4.3-3.9c0-2.6-1.2-3.6-3.9-3.6
					c-0.3,0-0.7,0-1,0v7.5C233.6,46.7,233.8,46.7,234,46.7z M234.4,59.2c3.1,0,4.4-1.2,4.4-4.3c0-3-1.3-4.2-4.2-4.2
					c-0.4,0-0.8,0-1.3,0.1v8.4C233.8,59.2,234.1,59.2,234.4,59.2z"/>
				<path d="M254.2,63.7c-5.1,0-7.2-3-7.2-9.2V35.5h4.7v19.9c0,2.8,0.5,4.1,2.5,4.1c2,0,2.6-1.4,2.6-4.4V35.5h4.7v19.1
					C261.5,60.8,259.3,63.7,254.2,63.7z"/>
				<path d="M265.8,35.5h4.2l5.4,14.8c0.3,1,0.8,2.6,1.3,5h0.2c-0.4-2.4-0.6-4.3-0.6-5.6V35.5h4.1v27.7h-3.9l-5.8-16
					c-0.6-1.6-1-3.3-1.3-4.9h-0.2c0.4,2,0.6,4.1,0.6,6.3v14.6h-4.1V35.5z"/>
				<path d="M285,35.5h12.7v4.3h-8.1v6.9h6.2v4.4h-6.2v7.7h8.6v4.4H285V35.5z"/>
			</g>
			<g>
				<path d="M208.8,35.5c2.1,0,3.8,0.6,5,1.8c1.2,1.2,1.8,3,1.8,5.4c0,1.9-0.3,3.4-1,4.6c-0.7,1.2-1.8,1.9-3.2,2.3v0.1
					c1.3,0.2,2.2,0.7,2.8,1.4c0.6,0.7,1,1.8,1.1,3.4c0,0.5,0.1,1.1,0.1,1.7c0,0.6,0,1.3,0.1,2c0,1.5,0.1,2.6,0.2,3.4
					c0.1,0.8,0.4,1.3,0.9,1.6v0.2H211c-0.3-0.4-0.4-0.8-0.5-1.3c-0.1-0.5-0.1-1-0.1-1.6l-0.1-5.3c0-1.1-0.3-1.9-0.7-2.6
					c-0.4-0.6-1.2-0.9-2.3-0.9h-2.7v11.7h-5.1V35.5H208.8z M206.6,47.6c1.2,0,2.2-0.3,2.8-1c0.7-0.6,1-1.7,1-3.2
					c0-2.6-1.2-3.8-3.6-3.8h-2.4v8H206.6z"/>
			</g>
		</g>
		<path d="M1.2,35.5v32l6.9-4.3h21.7V35.5H1.2z M21.3,57.3l-5.7-3.9l-5.7,4l2-6.7l-5.6-4.2l7-0.2l2.2-6.6l2.3,6.6l7,0.1l-5.5,4.3
			L21.3,57.3z"/>
	</g>
</g>
</svg>
