<?xml version="1.0" encoding="utf-8"?>
<!-- Generator: Adobe Illustrator 18.0.0, SVG Export Plug-In . SVG Version: 6.00 Build 0)  -->
<!DOCTYPE svg PUBLIC "-//W3C//DTD SVG 1.1//EN" "http://www.w3.org/Graphics/SVG/1.1/DTD/svg11.dtd">
<svg version="1.1" xmlns="http://www.w3.org/2000/svg" xmlns:xlink="http://www.w3.org/1999/xlink" x="0px" y="0px"
	 viewBox="0 0 300 100" style="enable-background:new 0 0 300 100;" xml:space="preserve">
<style type="text/css">
	.st0{fill-rule:evenodd;clip-rule:evenodd;}
	.st1{fill-rule:evenodd;clip-rule:evenodd;fill:#C038F9;}
	.st2{fill:none;}
	.st3{fill-rule:evenodd;clip-rule:evenodd;fill:#231F20;}
</style>
<g id="Layer_2">
	<g>
		<g>
			<g>
				<path d="M2,64.9c1.2-0.9,2.6-1.3,4.3-1.3c0.9,0,2.1,0.2,2.8,0.4C9.3,64,9.4,64,9.5,64c0,0.4,0.1,1.4,0.2,2.3
					c-0.1,0.1-0.3,0.1-0.4,0c-0.2-1.1-1-2.3-3.2-2.3c-2.4,0-4.5,1.5-4.5,4.8c0,3.3,2.1,5.2,4.7,5.2c2,0,2.9-1.3,3.3-2.3
					c0.1-0.1,0.3,0,0.4,0.1c-0.1,0.8-0.5,1.9-0.8,2.2c-0.2,0-0.4,0.1-0.6,0.2c-0.3,0.1-1.5,0.4-2.5,0.4c-1.4,0-2.8-0.3-3.9-1.1
					C1,72.6,0,71.2,0,69.1C0,67.4,0.8,65.9,2,64.9z"/>
				<path d="M12,66.2c0-1.6,0-1.9-1-2l-0.3,0c-0.1-0.1-0.1-0.3,0-0.4c0.7,0,1.2,0,1.9,0h3c1,0,1.9,0,2.1,0c0.1,0.3,0.2,1.4,0.3,2.1
					c-0.1,0.1-0.3,0.1-0.4,0c-0.2-0.7-0.4-1.3-1.2-1.5c-0.3-0.1-0.8-0.1-1.5-0.1h-1.1c-0.5,0-0.5,0-0.5,0.6v3.2c0,0.4,0,0.4,0.5,0.4
					h0.9c0.7,0,1.2,0,1.3-0.1c0.2-0.1,0.3-0.2,0.4-0.6l0.1-0.6c0.1-0.1,0.3-0.1,0.4,0c0,0.4-0.1,1-0.1,1.6c0,0.6,0.1,1.2,0.1,1.5
					c-0.1,0.1-0.3,0.1-0.4,0l-0.1-0.6c-0.1-0.3-0.2-0.5-0.5-0.6c-0.2-0.1-0.6-0.1-1.2-0.1h-0.9c-0.5,0-0.5,0-0.5,0.4v2.2
					c0,0.8,0,1.4,0.3,1.6c0.2,0.2,0.5,0.4,1.9,0.4c1.2,0,1.7-0.1,2-0.2c0.3-0.2,0.7-0.7,1.1-1.5c0.1-0.1,0.3,0,0.4,0.1
					c-0.1,0.6-0.5,1.8-0.7,2.2c-1.4,0-2.8,0-4.2,0h-1.4c-0.7,0-1.2,0-2.2,0c-0.1,0-0.1-0.3,0-0.4l0.5,0c0.9-0.1,1-0.3,1-2V66.2z"/>
				<path d="M29.5,71.6c0,0.5,0,2.4,0,2.8c0,0.1-0.1,0.2-0.3,0.2c-0.2-0.3-0.6-0.8-2-2.4L23.6,68c-0.4-0.5-1.5-1.8-1.8-2.1h0
					c-0.1,0.2-0.1,0.6-0.1,1v3.5c0,0.7,0,2.8,0.3,3.3c0.1,0.2,0.4,0.3,0.8,0.3l0.5,0c0.1,0.1,0.1,0.3,0,0.4c-0.7,0-1.3,0-1.9,0
					c-0.7,0-1.1,0-1.6,0c-0.1-0.1-0.1-0.3,0-0.4l0.4,0c0.4,0,0.6-0.1,0.7-0.3C21,73,21,71.1,21,70.3v-4.6c0-0.4,0-0.8-0.3-1.1
					c-0.2-0.2-0.6-0.3-1-0.4l-0.3,0c-0.1-0.1-0.1-0.3,0-0.4c0.7,0,1.5,0,1.8,0c0.3,0,0.5,0,0.7,0c0.3,0.8,2.2,2.9,2.7,3.5l1.5,1.7
					c1.1,1.2,1.9,2.1,2.6,2.9h0c0.1-0.1,0.1-0.3,0.1-0.7v-3.4c0-0.7,0-2.8-0.3-3.3c-0.1-0.1-0.3-0.2-1-0.3l-0.3,0
					c-0.1-0.1-0.1-0.3,0-0.4c0.7,0,1.3,0,1.9,0c0.7,0,1.1,0,1.6,0c0.1,0.1,0.1,0.3,0,0.4l-0.2,0c-0.5,0.1-0.8,0.2-0.9,0.3
					c-0.3,0.6-0.2,2.5-0.2,3.3V71.6z"/>
				<path d="M36.9,71.9c0,1.7,0,1.9,1,2l0.5,0c0.1,0.1,0.1,0.3,0,0.4c-0.9,0-1.4,0-2.1,0s-1.2,0-2.2,0c-0.1,0-0.1-0.3,0-0.4l0.6,0
					c0.9-0.1,1-0.3,1-2v-7.1c0-0.5,0-0.5-0.5-0.5h-0.9c-0.7,0-1.6,0-1.9,0.4c-0.4,0.3-0.5,0.7-0.7,1.1c-0.1,0.1-0.3,0-0.4-0.1
					c0.3-0.7,0.5-1.7,0.6-2.4c0,0,0.3,0,0.3,0c0.1,0.5,0.6,0.5,1.3,0.5h6.4c0.9,0,1,0,1.2-0.4c0.1,0,0.3,0,0.3,0
					c-0.2,0.6-0.3,1.9-0.2,2.4c-0.1,0.1-0.3,0.1-0.4,0c0-0.4-0.2-1-0.4-1.2c-0.4-0.3-1-0.4-1.8-0.4h-1.1c-0.5,0-0.5,0-0.5,0.5V71.9z
					"/>
				<path d="M43.2,66.2c0-1.6,0-1.9-1-2l-0.3,0c-0.1-0.1-0.1-0.3,0-0.4c0.7,0,1.2,0,1.9,0h3c1,0,1.9,0,2.1,0
					c0.1,0.3,0.2,1.4,0.3,2.1c-0.1,0.1-0.3,0.1-0.4,0c-0.2-0.7-0.4-1.3-1.2-1.5c-0.3-0.1-0.8-0.1-1.5-0.1H45c-0.5,0-0.5,0-0.5,0.6
					v3.2c0,0.4,0,0.4,0.5,0.4H46c0.7,0,1.2,0,1.3-0.1c0.2-0.1,0.3-0.2,0.4-0.6l0.1-0.6c0.1-0.1,0.3-0.1,0.4,0c0,0.4-0.1,1-0.1,1.6
					c0,0.6,0.1,1.2,0.1,1.5c-0.1,0.1-0.3,0.1-0.4,0l-0.1-0.6c-0.1-0.3-0.2-0.5-0.5-0.6c-0.2-0.1-0.6-0.1-1.2-0.1h-0.9
					c-0.5,0-0.5,0-0.5,0.4v2.2c0,0.8,0,1.4,0.3,1.6c0.2,0.2,0.5,0.4,1.9,0.4c1.2,0,1.7-0.1,2-0.2c0.3-0.2,0.7-0.7,1.1-1.5
					c0.1-0.1,0.3,0,0.4,0.1c-0.1,0.6-0.5,1.8-0.7,2.2c-1.4,0-2.8,0-4.2,0h-1.4c-0.7,0-1.2,0-2.2,0c-0.1,0-0.1-0.3,0-0.4l0.5,0
					c0.9-0.1,1-0.3,1-2V66.2z"/>
				<path d="M52.2,66.2c0-1.5,0-1.8-0.7-1.9L51,64.3c-0.1-0.1-0.1-0.3,0-0.4c0.9-0.1,2-0.1,3.5-0.1c1,0,1.9,0.1,2.6,0.5
					c0.8,0.4,1.3,1.1,1.3,2.2c0,1.5-1.2,2.3-2,2.6c-0.1,0.1,0,0.3,0.1,0.4c1.3,2,2.1,3.3,3.2,4.2c0.3,0.2,0.7,0.4,1.1,0.4
					c0.1,0,0.1,0.2,0,0.2c-0.1,0-0.4,0.1-0.7,0.1c-1.3,0-2.2-0.4-3.3-2c-0.4-0.6-1.1-1.7-1.6-2.4c-0.2-0.3-0.5-0.5-1.1-0.5
					c-0.7,0-0.7,0-0.7,0.3v2c0,1.7,0,1.9,1,2l0.3,0c0.1,0.1,0.1,0.3,0,0.4c-0.7,0-1.3,0-1.9,0c-0.7,0-1.2,0-2,0
					c-0.1,0-0.1-0.3,0-0.4l0.4,0c0.9-0.1,1-0.3,1-2V66.2z M53.5,68.5c0,0.3,0,0.5,0,0.5c0,0,0.3,0.1,1.1,0.1c0.6,0,1.2-0.1,1.6-0.4
					c0.4-0.3,0.8-0.9,0.8-2c0-1.3-0.8-2.4-2.5-2.4c-1,0-1,0.1-1,0.5V68.5z"/>
				<path d="M82.8,68.7c-0.3,0-0.3,0-0.3,0.5v3.3c0,1.1,0,1.3,0.6,1.4l0.6,0c0.1,0.1,0.1,0.3,0,0.4c-0.7,0-1.2,0-1.7,0
					c-0.6,0-1,0-1.5,0c-0.1,0-0.1-0.3,0-0.4l0.4,0c0.6-0.1,0.6-0.2,0.6-1.4v-3.3c0-0.4,0-0.5-0.3-0.5h-0.6c-0.1-0.1-0.1-0.2,0-0.3
					l0.7-0.3c0.1-0.1,0.2-0.2,0.2-0.3c0-0.9,0.1-1.9,0.5-2.8c0.4-0.9,1.3-2,2.9-2c0.8,0,1.6,0.4,1.6,1c0,0.3-0.3,0.6-0.6,0.6
					c-0.2,0-0.3-0.1-0.4-0.2C85,64,84.6,63.6,84,63.6c-0.5,0-0.9,0.3-1.1,0.9c-0.3,0.7-0.3,1.9-0.3,2.7v0.5c0,0.4,0,0.4,0.3,0.4h1.8
					c0.2,0.2,0.1,0.6-0.1,0.7H82.8z"/>
				<path d="M91.6,71.1c0,2-1.4,3.4-3.3,3.4c-1.8,0-3.2-1.3-3.2-3.3c0-2,1.5-3.4,3.4-3.4C90.2,67.8,91.6,69.2,91.6,71.1z M88.2,68.3
					c-1,0-1.8,1-1.8,2.7c0,1.4,0.6,3,2,3c1.4,0,1.8-1.5,1.8-2.7C90.3,70,89.7,68.3,88.2,68.3z"/>
				<path d="M93.7,69.8c0-0.6,0-0.7-0.4-1l-0.1-0.1c-0.1-0.1-0.1-0.2,0-0.3c0.4-0.1,1.2-0.5,1.6-0.8c0.1,0,0.1,0,0.1,0.1v0.9
					c0,0.1,0,0.1,0,0.1c0.6-0.5,1.2-1,1.7-1c0.4,0,0.7,0.3,0.7,0.6c0,0.5-0.4,0.7-0.7,0.7c-0.2,0-0.2,0-0.3-0.1
					c-0.2-0.2-0.5-0.3-0.7-0.3c-0.3,0-0.4,0.1-0.6,0.3c-0.2,0.2-0.2,0.7-0.2,1.2v2.2c0,1.1,0,1.3,0.6,1.4l0.6,0
					c0.1,0.1,0.1,0.3,0,0.4c-0.7,0-1.2,0-1.8,0c-0.6,0-1,0-1.5,0c-0.1,0-0.1-0.3,0-0.4l0.3,0c0.6-0.1,0.6-0.2,0.6-1.4V69.8z"/>
				<path d="M102,66.3c0-1.7,0-2-1-2l-0.4,0c-0.1-0.1-0.1-0.3,0-0.4c0.8,0,1.3,0,2,0c0.6,0,1.2,0,2,0c0.1,0,0.1,0.3,0,0.4l-0.4,0
					c-0.9,0.1-1,0.3-1,2v5.6c0,1.7,0,1.9,1,2l0.4,0c0.1,0.1,0.1,0.3,0,0.4c-0.8,0-1.3,0-2,0c-0.7,0-1.2,0-2,0c-0.1,0-0.1-0.3,0-0.4
					l0.4,0c0.9-0.1,1-0.3,1-2V66.3z"/>
				<path d="M115.4,71.6c0,0.5,0,2.4,0,2.8c0,0.1-0.1,0.2-0.3,0.2c-0.2-0.3-0.6-0.8-2-2.4l-3.7-4.2c-0.4-0.5-1.5-1.8-1.8-2.1h0
					c-0.1,0.2-0.1,0.6-0.1,1v3.5c0,0.7,0,2.8,0.3,3.3c0.1,0.2,0.4,0.3,0.8,0.3l0.5,0c0.1,0.1,0.1,0.3,0,0.4c-0.7,0-1.3,0-1.9,0
					c-0.7,0-1.1,0-1.6,0c-0.1-0.1-0.1-0.3,0-0.4l0.4,0c0.4,0,0.6-0.1,0.7-0.3c0.2-0.6,0.2-2.5,0.2-3.3v-4.6c0-0.4,0-0.8-0.3-1.1
					c-0.2-0.2-0.6-0.3-1-0.4l-0.3,0c-0.1-0.1-0.1-0.3,0-0.4c0.7,0,1.5,0,1.8,0c0.3,0,0.5,0,0.7,0c0.3,0.8,2.2,2.9,2.7,3.5L112,69
					c1.1,1.2,1.9,2.1,2.6,2.9h0c0.1-0.1,0.1-0.3,0.1-0.7v-3.4c0-0.7,0-2.8-0.3-3.3c-0.1-0.1-0.3-0.2-1-0.3l-0.3,0
					c-0.1-0.1-0.1-0.3,0-0.4c0.7,0,1.3,0,1.9,0c0.7,0,1.1,0,1.6,0c0.1,0.1,0.1,0.3,0,0.4l-0.2,0c-0.5,0.1-0.8,0.2-0.9,0.3
					c-0.3,0.6-0.2,2.5-0.2,3.3V71.6z"/>
				<path d="M118.4,65.5c-0.4-0.9-0.6-1.2-1.3-1.3l-0.3,0c-0.1-0.1-0.1-0.3,0-0.4c0.5,0,1,0,1.6,0c0.7,0,1.3,0,1.9,0
					c0.1,0.1,0.1,0.3,0,0.4l-0.2,0c-0.6,0.1-0.7,0.2-0.7,0.3c0,0.2,0.3,1,0.8,2.2c0.7,1.8,1.5,3.7,2.3,5.5c0.5-1,1.2-2.7,1.5-3.5
					c0.5-1.1,1.2-2.9,1.5-3.6c0.1-0.3,0.1-0.5,0.1-0.6c0-0.1-0.2-0.2-0.7-0.3l-0.3,0c-0.1-0.1-0.1-0.3,0-0.4c0.4,0,1,0,1.6,0
					c0.5,0,1,0,1.5,0c0.1,0.1,0.1,0.3,0,0.4l-0.5,0c-0.4,0-0.6,0.2-0.8,0.6c-0.4,0.7-1.1,2-1.8,3.6l-0.9,2c-0.6,1.5-1.4,3.3-1.6,4.1
					c0,0-0.1,0-0.2,0c-0.1,0-0.2,0-0.2,0c-0.2-0.7-0.4-1.4-0.7-2.1L118.4,65.5z"/>
				<path d="M128.7,66.2c0-1.6,0-1.9-1-2l-0.3,0c-0.1-0.1-0.1-0.3,0-0.4c0.7,0,1.2,0,1.9,0h3c1,0,1.9,0,2.1,0
					c0.1,0.3,0.2,1.4,0.3,2.1c-0.1,0.1-0.3,0.1-0.4,0c-0.2-0.7-0.4-1.3-1.2-1.5c-0.3-0.1-0.8-0.1-1.5-0.1h-1.1c-0.5,0-0.5,0-0.5,0.6
					v3.2c0,0.4,0,0.4,0.5,0.4h0.9c0.7,0,1.2,0,1.3-0.1c0.2-0.1,0.3-0.2,0.4-0.6l0.1-0.6c0.1-0.1,0.3-0.1,0.4,0c0,0.4-0.1,1-0.1,1.6
					c0,0.6,0.1,1.2,0.1,1.5c-0.1,0.1-0.3,0.1-0.4,0l-0.1-0.6c-0.1-0.3-0.2-0.5-0.5-0.6c-0.2-0.1-0.6-0.1-1.2-0.1h-0.9
					c-0.5,0-0.5,0-0.5,0.4v2.2c0,0.8,0,1.4,0.3,1.6c0.2,0.2,0.5,0.4,1.9,0.4c1.2,0,1.7-0.1,2-0.2c0.3-0.2,0.7-0.7,1.1-1.5
					c0.1-0.1,0.3,0,0.4,0.1c-0.1,0.6-0.5,1.8-0.7,2.2c-1.4,0-2.8,0-4.2,0h-1.4c-0.7,0-1.2,0-2.2,0c-0.1,0-0.1-0.3,0-0.4l0.5,0
					c0.9-0.1,1-0.3,1-2V66.2z"/>
				<path d="M139,74.6c-1.3,0-2.2-0.4-2.5-0.6c-0.2-0.3-0.4-1.5-0.4-2.2c0.1-0.1,0.3-0.1,0.4,0c0.2,0.8,0.9,2.4,2.7,2.4
					c1.3,0,2-0.9,2-1.8c0-0.7-0.1-1.5-1.3-2.2l-1.5-1c-0.8-0.5-1.7-1.4-1.7-2.7c0-1.5,1.2-2.7,3.2-2.7c0.5,0,1.1,0.1,1.5,0.2
					c0.2,0,0.4,0.1,0.6,0.1c0.1,0.4,0.3,1.3,0.3,1.9c-0.1,0.1-0.3,0.1-0.4,0c-0.2-0.8-0.6-1.8-2.2-1.8c-1.6,0-1.9,1-1.9,1.8
					c0,0.9,0.8,1.6,1.3,2l1.3,0.8c1,0.6,2,1.5,2,3C142.4,73.4,141.1,74.6,139,74.6z"/>
				<path d="M148.3,71.9c0,1.7,0,1.9,1,2l0.5,0c0.1,0.1,0.1,0.3,0,0.4c-0.9,0-1.4,0-2.1,0s-1.2,0-2.2,0c-0.1,0-0.1-0.3,0-0.4l0.6,0
					c0.9-0.1,1-0.3,1-2v-7.1c0-0.5,0-0.5-0.5-0.5h-0.9c-0.7,0-1.6,0-1.9,0.4c-0.4,0.3-0.5,0.7-0.7,1.1c-0.1,0.1-0.3,0-0.4-0.1
					c0.3-0.7,0.5-1.7,0.6-2.4c0,0,0.3,0,0.3,0c0.1,0.5,0.6,0.5,1.3,0.5h6.4c0.9,0,1,0,1.2-0.4c0.1,0,0.3,0,0.3,0
					c-0.2,0.6-0.3,1.9-0.2,2.4c-0.1,0.1-0.3,0.1-0.4,0c0-0.4-0.2-1-0.4-1.2c-0.4-0.3-1-0.4-1.8-0.4h-1.1c-0.5,0-0.5,0-0.5,0.5V71.9z
					"/>
				<path d="M154.5,66.3c0-1.7,0-2-1-2l-0.4,0c-0.1-0.1-0.1-0.3,0-0.4c0.8,0,1.3,0,2,0c0.6,0,1.2,0,2,0c0.1,0,0.1,0.3,0,0.4l-0.4,0
					c-0.9,0.1-1,0.3-1,2v5.6c0,1.7,0,1.9,1,2l0.4,0c0.1,0.1,0.1,0.3,0,0.4c-0.8,0-1.3,0-2,0c-0.7,0-1.2,0-2,0c-0.1,0-0.1-0.3,0-0.4
					l0.4,0c0.9-0.1,1-0.3,1-2V66.3z"/>
				<path d="M167.6,72.7c0,0.6,0.1,1,0.4,1.1c0,0,0,0.1,0,0.2c-0.2,0-0.5,0.1-0.8,0.1c-0.8,0.2-2,0.4-2.8,0.4
					c-1.9,0-3.6-0.5-4.8-1.8c-1-1-1.5-2.2-1.5-3.6c0-1.3,0.4-2.7,1.4-3.8c1.1-1.1,2.6-1.9,5-1.9c0.9,0,1.7,0.2,2,0.2
					c0.3,0.1,0.8,0.2,1,0.1c0,0.5,0.1,1.3,0.2,2.3c0,0.1-0.3,0.1-0.4,0c-0.4-1.7-1.6-2.3-3.3-2.3c-3.1,0-4.4,2.2-4.4,4.6
					c0,3,1.6,5.4,4.8,5.4c1,0,1.6-0.2,1.7-0.5c0.1-0.1,0.2-0.4,0.2-0.9v-0.6c0-1.3,0-1.4-1-1.5l-0.7-0.1c-0.1-0.1-0.1-0.3,0-0.4
					c0.5,0,1.3,0,2.3,0c0.6,0,1.2,0,1.7,0c0.1,0.1,0.1,0.3,0,0.4l-0.3,0c-0.7,0.1-0.7,0.5-0.7,1.3V72.7z"/>
				<path d="M175.1,70.6c-0.1-0.3-0.2-0.4-0.7-0.4h-2.4c-0.4,0-0.5,0-0.6,0.4l-0.6,1.7c-0.2,0.7-0.3,1.1-0.3,1.3
					c0,0.2,0.1,0.3,0.5,0.3l0.5,0c0.1,0.1,0.1,0.3,0,0.4c-0.4,0-0.9,0-1.6,0c-0.5,0-1.1,0-1.5,0c-0.1-0.1-0.1-0.3,0-0.4l0.5,0
					c0.4,0,0.7-0.2,1-0.8c0.3-0.7,0.7-1.8,1.4-3.5l1.6-4.3c0.2-0.6,0.3-0.9,0.3-1.1c0.4-0.1,0.6-0.4,0.8-0.6c0.1,0,0.2,0,0.2,0.1
					c0.2,0.7,0.5,1.4,0.7,2.1l2.2,6.4c0.5,1.4,0.7,1.6,1.3,1.7l0.4,0c0.1,0.1,0.1,0.3,0,0.4c-0.7,0-1.2,0-1.9,0c-0.8,0-1.4,0-1.8,0
					c-0.1-0.1-0.1-0.3,0-0.4l0.5,0c0.3,0,0.6-0.1,0.6-0.3c0-0.2-0.1-0.5-0.2-0.8L175.1,70.6z M172,69.2c-0.1,0.4-0.1,0.4,0.3,0.4h2
					c0.5,0,0.5-0.1,0.3-0.5l-0.9-2.6c-0.1-0.4-0.3-0.8-0.4-1h0c0,0.1-0.2,0.5-0.4,0.9L172,69.2z"/>
				<path d="M182.5,71.9c0,1.7,0,1.9,1,2l0.5,0c0.1,0.1,0.1,0.3,0,0.4c-0.9,0-1.4,0-2.1,0c-0.6,0-1.2,0-2.2,0c-0.1,0-0.1-0.3,0-0.4
					l0.6,0c0.9-0.1,1-0.3,1-2v-7.1c0-0.5,0-0.5-0.5-0.5h-0.9c-0.7,0-1.6,0-1.9,0.4c-0.4,0.3-0.5,0.7-0.7,1.1c-0.1,0.1-0.3,0-0.4-0.1
					c0.3-0.7,0.5-1.7,0.6-2.4c0,0,0.3,0,0.3,0c0.1,0.5,0.6,0.5,1.3,0.5h6.4c0.9,0,1,0,1.2-0.4c0.1,0,0.3,0,0.3,0
					c-0.2,0.6-0.3,1.9-0.2,2.4c-0.1,0.1-0.3,0.1-0.4,0c0-0.4-0.2-1-0.4-1.2c-0.4-0.3-1-0.4-1.8-0.4H183c-0.5,0-0.5,0-0.5,0.5V71.9z"
					/>
				<path d="M188.7,66.3c0-1.7,0-2-1-2l-0.4,0c-0.1-0.1-0.1-0.3,0-0.4c0.8,0,1.3,0,2,0c0.6,0,1.2,0,2,0c0.1,0,0.1,0.3,0,0.4l-0.4,0
					c-0.9,0.1-1,0.3-1,2v5.6c0,1.7,0,1.9,1,2l0.4,0c0.1,0.1,0.1,0.3,0,0.4c-0.8,0-1.3,0-2,0c-0.7,0-1.2,0-2,0c-0.1,0-0.1-0.3,0-0.4
					l0.4,0c0.9-0.1,1-0.3,1-2V66.3z"/>
				<path d="M193.3,65.5c-0.4-0.9-0.6-1.2-1.3-1.3l-0.3,0c-0.1-0.1-0.1-0.3,0-0.4c0.5,0,1,0,1.6,0c0.7,0,1.3,0,1.9,0
					c0.1,0.1,0.1,0.3,0,0.4l-0.2,0c-0.6,0.1-0.7,0.2-0.7,0.3c0,0.2,0.3,1,0.8,2.2c0.7,1.8,1.5,3.7,2.3,5.5c0.5-1,1.2-2.7,1.5-3.5
					c0.5-1.1,1.2-2.9,1.5-3.6c0.1-0.3,0.1-0.5,0.1-0.6c0-0.1-0.2-0.2-0.7-0.3l-0.3,0c-0.1-0.1-0.1-0.3,0-0.4c0.4,0,1,0,1.6,0
					c0.5,0,1,0,1.5,0c0.1,0.1,0.1,0.3,0,0.4l-0.5,0c-0.4,0-0.6,0.2-0.8,0.6c-0.4,0.7-1.1,2-1.8,3.6l-0.9,2c-0.6,1.5-1.4,3.3-1.6,4.1
					c0,0-0.1,0-0.2,0c-0.1,0-0.2,0-0.2,0c-0.2-0.7-0.4-1.4-0.7-2.1L193.3,65.5z"/>
				<path d="M204.1,66.2c0-1.6,0-1.9-1-2l-0.3,0c-0.1-0.1-0.1-0.3,0-0.4c0.7,0,1.2,0,1.9,0h3c1,0,1.9,0,2.1,0
					c0.1,0.3,0.2,1.4,0.3,2.1c-0.1,0.1-0.3,0.1-0.4,0c-0.2-0.7-0.4-1.3-1.2-1.5c-0.3-0.1-0.8-0.1-1.5-0.1h-1.1c-0.5,0-0.5,0-0.5,0.6
					v3.2c0,0.4,0,0.4,0.5,0.4h0.9c0.7,0,1.2,0,1.3-0.1c0.2-0.1,0.3-0.2,0.4-0.6l0.1-0.6c0.1-0.1,0.3-0.1,0.4,0c0,0.4-0.1,1-0.1,1.6
					c0,0.6,0.1,1.2,0.1,1.5c-0.1,0.1-0.3,0.1-0.4,0l-0.1-0.6c-0.1-0.3-0.2-0.5-0.5-0.6c-0.2-0.1-0.6-0.1-1.2-0.1H206
					c-0.5,0-0.5,0-0.5,0.4v2.2c0,0.8,0,1.4,0.3,1.6c0.2,0.2,0.5,0.4,1.9,0.4c1.2,0,1.7-0.1,2-0.2c0.3-0.2,0.7-0.7,1.1-1.5
					c0.1-0.1,0.3,0,0.4,0.1c-0.1,0.6-0.5,1.8-0.7,2.2c-1.4,0-2.8,0-4.2,0h-1.4c-0.7,0-1.2,0-2.2,0c-0.1,0-0.1-0.3,0-0.4l0.5,0
					c0.9-0.1,1-0.3,1-2V66.2z"/>
				<path d="M216.2,66.2c0-1.5,0-1.8-0.7-1.9l-0.5-0.1c-0.1-0.1-0.1-0.3,0-0.4c0.9-0.1,2-0.1,3.5-0.1c1,0,1.9,0.1,2.6,0.5
					c0.8,0.4,1.3,1.1,1.3,2.2c0,1.5-1.2,2.3-2,2.6c-0.1,0.1,0,0.3,0.1,0.4c1.3,2,2.1,3.3,3.2,4.2c0.3,0.2,0.7,0.4,1.1,0.4
					c0.1,0,0.1,0.2,0,0.2c-0.1,0-0.4,0.1-0.7,0.1c-1.3,0-2.2-0.4-3.3-2c-0.4-0.6-1.1-1.7-1.6-2.4c-0.2-0.3-0.5-0.5-1.1-0.5
					c-0.7,0-0.7,0-0.7,0.3v2c0,1.7,0,1.9,1,2l0.3,0c0.1,0.1,0.1,0.3,0,0.4c-0.7,0-1.3,0-1.9,0c-0.7,0-1.2,0-2,0
					c-0.1,0-0.1-0.3,0-0.4l0.4,0c0.9-0.1,1-0.3,1-2V66.2z M217.5,68.5c0,0.3,0,0.5,0,0.5c0,0,0.3,0.1,1.1,0.1c0.6,0,1.2-0.1,1.6-0.4
					c0.4-0.3,0.8-0.9,0.8-2c0-1.3-0.8-2.4-2.5-2.4c-1,0-1,0.1-1,0.5V68.5z"/>
				<path d="M225.7,66.2c0-1.6,0-1.9-1-2l-0.3,0c-0.1-0.1-0.1-0.3,0-0.4c0.7,0,1.2,0,1.9,0h3c1,0,1.9,0,2.1,0
					c0.1,0.3,0.2,1.4,0.3,2.1c-0.1,0.1-0.3,0.1-0.4,0c-0.2-0.7-0.4-1.3-1.2-1.5c-0.3-0.1-0.8-0.1-1.5-0.1h-1.1c-0.5,0-0.5,0-0.5,0.6
					v3.2c0,0.4,0,0.4,0.5,0.4h0.9c0.7,0,1.2,0,1.3-0.1c0.2-0.1,0.3-0.2,0.4-0.6l0.1-0.6c0.1-0.1,0.3-0.1,0.4,0c0,0.4-0.1,1-0.1,1.6
					c0,0.6,0.1,1.2,0.1,1.5c-0.1,0.1-0.3,0.1-0.4,0l-0.1-0.6c-0.1-0.3-0.2-0.5-0.5-0.6c-0.2-0.1-0.6-0.1-1.2-0.1h-0.9
					c-0.5,0-0.5,0-0.5,0.4v2.2c0,0.8,0,1.4,0.3,1.6c0.2,0.2,0.5,0.4,1.9,0.4c1.2,0,1.7-0.1,2-0.2c0.3-0.2,0.7-0.7,1.1-1.5
					c0.1-0.1,0.3,0,0.4,0.1c-0.1,0.6-0.5,1.8-0.7,2.2c-1.4,0-2.8,0-4.2,0h-1.4c-0.7,0-1.2,0-2.2,0c-0.1,0-0.1-0.3,0-0.4l0.5,0
					c0.9-0.1,1-0.3,1-2V66.2z"/>
				<path d="M236.1,71.9c0,1.7,0,1.9,1,2l0.4,0c0.1,0.1,0.1,0.3,0,0.4c-0.9,0-1.4,0-2.1,0c-0.7,0-1.2,0-1.9,0c-0.1,0-0.1-0.3,0-0.4
					l0.3,0c0.9-0.1,1-0.3,1-2v-5.9c0-1.3,0-1.6-0.7-1.7l-0.6-0.1c-0.1-0.1-0.1-0.3,0-0.4c0.8-0.1,1.8-0.1,3.1-0.1
					c1.3,0,2.3,0.2,3,0.6c0.7,0.5,1.3,1.3,1.3,2.4c0,1.5-0.9,2.2-1.6,2.5c-0.7,0.3-1.5,0.5-2.2,0.5c-0.1,0-0.1-0.3,0-0.3
					c1.7-0.3,2.3-1.3,2.3-2.7c0-1.5-0.9-2.5-2.6-2.5c-0.8,0-0.9,0.1-0.9,0.6V71.9z"/>
				<path d="M241.4,69.2c0-3.2,2.4-5.6,5.6-5.6c3.7,0,5.5,2.6,5.5,5.4c0,3.2-2.4,5.5-5.5,5.5C243.5,74.6,241.4,72,241.4,69.2z
					 M251,69.5c0-2.6-1.2-5.4-4.2-5.4c-1.6,0-3.8,1.1-3.8,4.6c0,2.3,1.1,5.4,4.3,5.4C249.1,74.1,251,72.6,251,69.5z"/>
				<path d="M255,66.2c0-1.5,0-1.8-0.7-1.9l-0.5-0.1c-0.1-0.1-0.1-0.3,0-0.4c0.9-0.1,2-0.1,3.5-0.1c1,0,1.9,0.1,2.6,0.5
					c0.8,0.4,1.3,1.1,1.3,2.2c0,1.5-1.2,2.3-2,2.6c-0.1,0.1,0,0.3,0.1,0.4c1.3,2,2.1,3.3,3.2,4.2c0.3,0.2,0.7,0.4,1.1,0.4
					c0.1,0,0.1,0.2,0,0.2c-0.1,0-0.4,0.1-0.7,0.1c-1.3,0-2.2-0.4-3.3-2c-0.4-0.6-1.1-1.7-1.6-2.4c-0.2-0.3-0.5-0.5-1.1-0.5
					c-0.7,0-0.7,0-0.7,0.3v2c0,1.7,0,1.9,1,2l0.3,0c0.1,0.1,0.1,0.3,0,0.4c-0.7,0-1.3,0-1.9,0c-0.7,0-1.2,0-2,0
					c-0.1,0-0.1-0.3,0-0.4l0.4,0c0.9-0.1,1-0.3,1-2V66.2z M256.3,68.5c0,0.3,0,0.5,0,0.5c0,0,0.3,0.1,1.1,0.1c0.6,0,1.2-0.1,1.6-0.4
					c0.4-0.3,0.8-0.9,0.8-2c0-1.3-0.8-2.4-2.5-2.4c-1,0-1,0.1-1,0.5V68.5z"/>
				<path d="M267.5,71.9c0,1.7,0,1.9,1,2l0.5,0c0.1,0.1,0.1,0.3,0,0.4c-0.9,0-1.4,0-2.1,0s-1.2,0-2.2,0c-0.1,0-0.1-0.3,0-0.4l0.6,0
					c0.9-0.1,1-0.3,1-2v-7.1c0-0.5,0-0.5-0.5-0.5h-0.9c-0.7,0-1.6,0-1.9,0.4c-0.4,0.3-0.5,0.7-0.7,1.1c-0.1,0.1-0.3,0-0.4-0.1
					c0.3-0.7,0.5-1.7,0.6-2.4c0,0,0.3,0,0.3,0c0.1,0.5,0.6,0.5,1.3,0.5h6.4c0.9,0,1,0,1.2-0.4c0.1,0,0.3,0,0.3,0
					c-0.2,0.6-0.3,1.9-0.2,2.4c-0.1,0.1-0.3,0.1-0.4,0c0-0.4-0.2-1-0.4-1.2c-0.4-0.3-1-0.4-1.8-0.4H268c-0.5,0-0.5,0-0.5,0.5V71.9z"
					/>
				<path d="M273.7,66.3c0-1.7,0-2-1-2l-0.4,0c-0.1-0.1-0.1-0.3,0-0.4c0.8,0,1.3,0,2,0c0.6,0,1.2,0,2,0c0.1,0,0.1,0.3,0,0.4l-0.4,0
					c-0.9,0.1-1,0.3-1,2v5.6c0,1.7,0,1.9,1,2l0.4,0c0.1,0.1,0.1,0.3,0,0.4c-0.8,0-1.3,0-2,0c-0.7,0-1.2,0-2,0c-0.1,0-0.1-0.3,0-0.4
					l0.4,0c0.9-0.1,1-0.3,1-2V66.3z"/>
				<path d="M287.1,71.6c0,0.5,0,2.4,0,2.8c0,0.1-0.1,0.2-0.3,0.2c-0.2-0.3-0.6-0.8-2-2.4l-3.7-4.2c-0.4-0.5-1.5-1.8-1.8-2.1h0
					c-0.1,0.2-0.1,0.6-0.1,1v3.5c0,0.7,0,2.8,0.3,3.3c0.1,0.2,0.4,0.3,0.8,0.3l0.5,0c0.1,0.1,0.1,0.3,0,0.4c-0.7,0-1.3,0-1.9,0
					c-0.7,0-1.1,0-1.6,0c-0.1-0.1-0.1-0.3,0-0.4l0.4,0c0.4,0,0.6-0.1,0.7-0.3c0.2-0.6,0.2-2.5,0.2-3.3v-4.6c0-0.4,0-0.8-0.3-1.1
					c-0.2-0.2-0.6-0.3-1-0.4l-0.3,0c-0.1-0.1-0.1-0.3,0-0.4c0.7,0,1.5,0,1.8,0c0.3,0,0.5,0,0.7,0c0.3,0.8,2.2,2.9,2.7,3.5l1.5,1.7
					c1.1,1.2,1.9,2.1,2.6,2.9h0c0.1-0.1,0.1-0.3,0.1-0.7v-3.4c0-0.7,0-2.8-0.3-3.3c-0.1-0.1-0.3-0.2-1-0.3l-0.3,0
					c-0.1-0.1-0.1-0.3,0-0.4c0.7,0,1.3,0,1.9,0c0.7,0,1.1,0,1.6,0c0.1,0.1,0.1,0.3,0,0.4l-0.2,0c-0.5,0.1-0.8,0.2-0.9,0.3
					c-0.3,0.6-0.2,2.5-0.2,3.3V71.6z"/>
				<path d="M298.4,72.7c0,0.6,0.1,1,0.4,1.1c0,0,0,0.1,0,0.2c-0.2,0-0.5,0.1-0.8,0.1c-0.8,0.2-2,0.4-2.8,0.4
					c-1.9,0-3.6-0.5-4.8-1.8c-1-1-1.5-2.2-1.5-3.6c0-1.3,0.4-2.7,1.4-3.8c1.1-1.1,2.6-1.9,5-1.9c0.9,0,1.7,0.2,2,0.2
					c0.3,0.1,0.8,0.2,1,0.1c0,0.5,0.1,1.3,0.2,2.3c0,0.1-0.3,0.1-0.4,0c-0.4-1.7-1.6-2.3-3.3-2.3c-3.1,0-4.4,2.2-4.4,4.6
					c0,3,1.6,5.4,4.8,5.4c1,0,1.6-0.2,1.7-0.5c0.1-0.1,0.2-0.4,0.2-0.9v-0.6c0-1.3,0-1.4-1-1.5l-0.7-0.1c-0.1-0.1-0.1-0.3,0-0.4
					c0.5,0,1.3,0,2.3,0c0.6,0,1.2,0,1.7,0c0.1,0.1,0.1,0.3,0,0.4l-0.3,0c-0.7,0.1-0.7,0.5-0.7,1.3V72.7z"/>
			</g>
			<g>
				<path d="M110.3,55.9c0,0.5,0,2.4,0,2.8c0,0.1-0.1,0.2-0.3,0.2c-0.2-0.3-0.6-0.8-2-2.4l-3.7-4.2c-0.4-0.5-1.5-1.8-1.8-2.1h0
					c-0.1,0.2-0.1,0.6-0.1,1v3.5c0,0.7,0,2.8,0.3,3.3c0.1,0.2,0.4,0.3,0.8,0.3l0.5,0c0.1,0.1,0.1,0.3,0,0.4c-0.7,0-1.3,0-1.9,0
					c-0.7,0-1.1,0-1.6,0c-0.1-0.1-0.1-0.3,0-0.4l0.4,0c0.4,0,0.6-0.1,0.7-0.3c0.2-0.6,0.2-2.5,0.2-3.3v-4.6c0-0.4,0-0.8-0.3-1.1
					c-0.2-0.2-0.6-0.3-1-0.4l-0.3,0c-0.1-0.1-0.1-0.3,0-0.4c0.7,0,1.5,0,1.8,0c0.3,0,0.5,0,0.7,0c0.3,0.8,2.2,2.9,2.7,3.5l1.5,1.7
					c1.1,1.2,1.9,2.1,2.6,2.9h0c0.1-0.1,0.1-0.3,0.1-0.7v-3.4c0-0.7,0-2.8-0.3-3.3c-0.1-0.1-0.3-0.2-1-0.3l-0.3,0
					c-0.1-0.1-0.1-0.3,0-0.4c0.7,0,1.3,0,1.9,0c0.7,0,1.1,0,1.6,0c0.1,0.1,0.1,0.3,0,0.4l-0.2,0c-0.5,0.1-0.8,0.2-0.9,0.3
					c-0.3,0.6-0.2,2.5-0.2,3.3V55.9z"/>
				<path d="M113.2,54.6c-0.4,0-0.4,0-0.4,0.4c0,1.6,0.9,3,2.6,3c0.5,0,1-0.2,1.5-0.8c0.2,0,0.3,0,0.3,0.2c-0.5,1.1-1.7,1.5-2.5,1.5
					c-1,0-1.8-0.4-2.3-1c-0.5-0.6-0.7-1.4-0.7-2.1c0-1.9,1.3-3.6,3.2-3.6c1.4,0,2.3,0.9,2.3,1.9c0,0.2,0,0.3-0.1,0.4
					c0,0.1-0.3,0.1-0.9,0.1H113.2z M114.2,54.1c1.2,0,1.5-0.1,1.6-0.2c0,0,0.1-0.1,0.1-0.3c0-0.4-0.3-1-1.2-1
					c-0.9,0-1.7,0.9-1.8,1.4c0,0,0,0.1,0.1,0.1H114.2z"/>
				<path d="M118,53.9c-0.4-0.9-0.6-1-1-1.1l-0.3-0.1c-0.1-0.1-0.1-0.3,0-0.4c0.5,0,0.9,0,1.4,0c0.5,0,1,0,1.4,0
					c0.1,0.1,0.1,0.3,0,0.4l-0.4,0.1c-0.2,0-0.3,0.1-0.3,0.2c0,0.1,0.1,0.4,0.3,0.8l1,2.4c0.1,0.4,0.3,0.7,0.3,0.7
					c0,0,0.2-0.3,0.4-0.8l0.8-1.9c0.2-0.5,0.2-0.7,0.1-0.9c-0.1-0.3-0.4-0.5-0.7-0.6l-0.3-0.1c-0.1-0.1-0.1-0.3,0-0.4
					c0.4,0,0.9,0,1.3,0c0.5,0,1,0,1.5,0c0.1,0,0.1,0.3,0,0.4l-0.3,0.1c-0.6,0.1-0.6,0.2-0.4,0.7c0.2,0.5,1,2.5,1.2,3
					c0.1,0.2,0.2,0.4,0.2,0.4c0,0,0.1-0.2,0.2-0.4c0.2-0.5,0.8-2.1,1.1-2.8c0.1-0.4,0.2-0.6,0.2-0.7c0-0.1-0.1-0.2-0.3-0.2l-0.4-0.1
					c-0.1-0.1-0.1-0.3,0-0.4c0.5,0,0.9,0,1.3,0c0.3,0,0.7,0,1,0c0.1,0.1,0.1,0.3,0,0.4l-0.3,0.1c-0.4,0.1-0.5,0.3-0.9,1
					c-0.4,0.9-1.2,2.8-1.5,3.6c-0.2,0.6-0.4,1-0.5,1.4c-0.1,0-0.1,0.1-0.2,0.1c-0.1,0-0.1,0-0.2-0.1c-0.1-0.3-0.4-1.1-0.6-1.7
					l-0.8-1.8c-0.1-0.3-0.3-0.8-0.4-0.8c0,0-0.2,0.5-0.3,0.8l-0.8,2c-0.3,0.7-0.5,1.3-0.6,1.6c0,0-0.1,0.1-0.2,0.1
					c-0.1,0-0.1,0-0.2-0.1c-0.1-0.3-0.3-1-0.5-1.3L118,53.9z"/>
				<path d="M132.1,50.5c0-1.6,0-1.9-1-2l-0.3,0c-0.1-0.1-0.1-0.3,0-0.4c0.7,0,1.2,0,1.9,0h3c1,0,1.9,0,2.1,0
					c0.1,0.3,0.2,1.4,0.3,2.1c-0.1,0.1-0.3,0.1-0.4,0c-0.2-0.7-0.4-1.3-1.2-1.5c-0.3-0.1-0.8-0.1-1.5-0.1h-1.1c-0.5,0-0.5,0-0.5,0.6
					v3.2c0,0.4,0,0.4,0.5,0.4h0.9c0.7,0,1.2,0,1.3-0.1c0.2-0.1,0.3-0.2,0.4-0.6l0.1-0.6c0.1-0.1,0.3-0.1,0.4,0c0,0.4-0.1,1-0.1,1.6
					c0,0.6,0.1,1.2,0.1,1.5c-0.1,0.1-0.3,0.1-0.4,0l-0.1-0.6c-0.1-0.3-0.2-0.5-0.5-0.6c-0.2-0.1-0.6-0.1-1.2-0.1h-0.9
					c-0.5,0-0.5,0-0.5,0.4v2.2c0,0.8,0,1.4,0.3,1.6c0.2,0.2,0.5,0.4,1.9,0.4c1.2,0,1.7-0.1,2-0.2c0.3-0.2,0.7-0.7,1.1-1.5
					c0.1-0.1,0.3,0,0.4,0.1c-0.1,0.6-0.5,1.8-0.7,2.2c-1.4,0-2.8,0-4.2,0h-1.4c-0.7,0-1.2,0-2.2,0c-0.1,0-0.1-0.3,0-0.4l0.5,0
					c0.9-0.1,1-0.3,1-2V50.5z"/>
				<path d="M140.3,54.1c0-0.6,0-0.7-0.4-1l-0.1-0.1c-0.1-0.1-0.1-0.2,0-0.3c0.4-0.1,1.3-0.5,1.6-0.8c0.1,0,0.1,0,0.2,0.1
					c0,0.4,0,0.6,0,0.7c0,0.1,0.1,0.2,0.2,0.2c0.7-0.4,1.4-0.8,2.2-0.8c1.3,0,1.9,0.9,1.9,2v2.7c0,1.1,0,1.3,0.6,1.4l0.3,0
					c0.1,0.1,0.1,0.3,0,0.4c-0.5,0-0.9,0-1.5,0c-0.6,0-1,0-1.5,0c-0.1,0-0.1-0.3,0-0.4l0.3,0c0.6-0.1,0.6-0.2,0.6-1.4v-2.4
					c0-0.9-0.4-1.6-1.5-1.6c-0.6,0-1.1,0.3-1.3,0.6c-0.2,0.3-0.2,0.5-0.2,1v2.4c0,1.1,0,1.3,0.6,1.4l0.3,0c0.1,0.1,0.1,0.3,0,0.4
					c-0.4,0-0.9,0-1.4,0c-0.6,0-1,0-1.5,0c-0.1,0-0.1-0.3,0-0.4l0.3,0c0.6-0.1,0.6-0.2,0.6-1.4V54.1z"/>
				<path d="M153.7,52.7c0.2,0.1,0.1,0.6-0.1,0.6h-1.1c0,0.3,0,0.5,0,0.8c0,1.1-0.7,2.5-2.7,2.5c-0.3,0-0.5,0-0.7,0
					c-0.2,0.1-0.7,0.4-0.7,0.9c0,0.4,0.4,0.7,1.1,0.7c0.5,0,1.2,0,1.9,0c0.9,0,2.2,0.2,2.2,1.7c0,1.7-1.9,3-3.9,3
					c-1.9,0-2.6-1-2.6-1.8c0-0.3,0.1-0.5,0.2-0.6c0.3-0.3,0.7-0.7,1.1-1.1c0.1-0.1,0.3-0.3,0.1-0.4c-0.6-0.2-1.2-0.7-1.2-1.3
					c0-0.1,0.1-0.1,0.2-0.3c0.3-0.2,0.6-0.4,0.8-0.7c0.1-0.1,0.2-0.2,0.2-0.3c-0.5-0.3-1.2-0.9-1.2-1.9c0-1.4,1.2-2.4,2.6-2.4
					c0.6,0,1.2,0.2,1.5,0.3c0.5,0.2,0.6,0.3,1,0.3H153.7z M150.4,59.1c-0.5,0-1.1,0-1.4,0.2c-0.4,0.2-0.8,0.7-0.8,1.3
					c0,0.9,0.7,1.6,2.1,1.6c1.4,0,2.3-0.8,2.3-1.7c0-1-0.7-1.4-1.8-1.4H150.4z M151.4,54.6c0-1.1-0.4-2-1.4-2
					c-0.8,0-1.3,0.7-1.3,1.8c0,1.1,0.7,1.9,1.4,1.9C150.9,56.2,151.4,55.6,151.4,54.6z"/>
				<path d="M155.8,56.8c0,1.1,0,1.3,0.6,1.4l0.4,0c0.1,0.1,0.1,0.3,0,0.4c-0.5,0-1,0-1.5,0c-0.6,0-1,0-1.5,0c-0.1,0-0.1-0.3,0-0.4
					l0.4,0c0.6-0.1,0.6-0.2,0.6-1.4v-7.2c0-0.9,0-1-0.5-1.3l-0.2-0.1c-0.1,0-0.1-0.3,0-0.3c0.4-0.1,1.1-0.4,1.7-0.7
					c0.1,0,0.1,0,0.2,0.1c0,0.5,0,1.3,0,2V56.8z"/>
				<path d="M160.4,55.3c0.2-0.1,0.3-0.2,0.3-0.5l0-0.7c0-0.6-0.2-1.4-1.2-1.4c-0.4,0-1,0.2-1,0.7c0,0.3,0,0.4-0.2,0.5
					c-0.2,0.2-0.7,0.3-0.9,0.3c-0.1,0-0.2-0.1-0.2-0.2c0-0.8,1.8-1.9,2.9-1.9c1.1,0,1.7,0.7,1.6,1.9l-0.1,2.8c0,0.7,0.1,1.4,0.7,1.4
					c0.2,0,0.3,0,0.4-0.1c0.1,0,0.2-0.1,0.2-0.1c0.1,0,0.1,0.1,0.1,0.2c0,0.1-0.6,0.7-1.3,0.7c-0.4,0-0.8-0.1-1-0.5
					c-0.1-0.1-0.2-0.2-0.3-0.2c-0.1,0-0.3,0.1-0.6,0.3c-0.3,0.2-0.7,0.4-1.1,0.4c-0.5,0-0.8-0.1-1.1-0.4c-0.3-0.3-0.5-0.7-0.5-1.1
					c0-0.6,0.3-1,1.3-1.3L160.4,55.3z M159.4,58.1c0.3,0,0.8-0.2,1-0.4c0.2-0.2,0.2-0.4,0.2-0.7l0-0.9c0-0.2-0.1-0.2-0.2-0.2
					c-0.1,0-0.4,0.1-0.6,0.2c-0.9,0.3-1.4,0.6-1.4,1.2C158.4,57.5,158.6,58.1,159.4,58.1z"/>
				<path d="M164.1,54.1c0-0.6,0-0.7-0.4-1l-0.1-0.1c-0.1-0.1-0.1-0.2,0-0.3c0.4-0.1,1.3-0.5,1.6-0.8c0.1,0,0.1,0,0.2,0.1
					c0,0.4,0,0.6,0,0.7c0,0.1,0.1,0.2,0.2,0.2c0.7-0.4,1.4-0.8,2.2-0.8c1.3,0,1.9,0.9,1.9,2v2.7c0,1.1,0,1.3,0.6,1.4l0.3,0
					c0.1,0.1,0.1,0.3,0,0.4c-0.5,0-0.9,0-1.5,0c-0.6,0-1,0-1.5,0c-0.1,0-0.1-0.3,0-0.4l0.3,0c0.6-0.1,0.6-0.2,0.6-1.4v-2.4
					c0-0.9-0.4-1.6-1.5-1.6c-0.6,0-1.1,0.3-1.3,0.6c-0.2,0.3-0.2,0.5-0.2,1v2.4c0,1.1,0,1.3,0.6,1.4l0.3,0c0.1,0.1,0.1,0.3,0,0.4
					c-0.4,0-0.9,0-1.4,0c-0.6,0-1,0-1.5,0c-0.1,0-0.1-0.3,0-0.4l0.3,0c0.6-0.1,0.6-0.2,0.6-1.4V54.1z"/>
				<path d="M177.2,56.3c0,1.3,0,1.8,0.5,1.8c0.2,0,0.4-0.1,0.7-0.2c0.1,0,0.1,0.4,0,0.5c-0.7,0.1-1.6,0.3-2.1,0.5
					c-0.1,0-0.2,0-0.2-0.1v-0.3c0-0.2,0-0.4,0-0.5h-0.1c-0.7,0.5-1.2,0.7-2,0.7c-1.8,0-2.9-1.4-2.9-3c0-2.2,1.7-3.6,3.8-3.6
					c0.5,0,0.9,0.1,1.1,0.1c0.1,0,0.1-0.1,0.1-0.2v-2.4c0-0.9,0-1-0.5-1.3l-0.2-0.1c-0.1,0-0.1-0.3,0-0.3c0.4-0.1,1.1-0.4,1.7-0.7
					c0.1,0,0.1,0,0.2,0.1c0,0.5,0,1.3,0,2V56.3z M176,53.9c0-0.3-0.1-0.5-0.2-0.6c-0.2-0.3-0.7-0.7-1.3-0.7c-1.4,0-2.2,1.3-2.2,2.6
					c0,1.4,0.8,2.8,2.4,2.8c0.4,0,1-0.2,1.2-0.4c0.1-0.1,0.1-0.3,0.1-0.6V53.9z"/>
			</g>
		</g>
		<g>
			<polygon points="70.9,60.4 77,65.4 68.5,75.8 62.4,70.8 			"/>
			<rect x="71.4" y="60.6" transform="matrix(-0.7733 -0.634 0.634 -0.7733 94.77 156.3514)" width="7.9" height="1.2"/>
			<rect x="76.2" y="54.4" transform="matrix(0.634 -0.7733 0.7733 0.634 -16.7419 81.429)" width="3" height="7.9"/>
			<rect x="77.8" y="54.5" transform="matrix(0.7732 0.6341 -0.6341 0.7732 53.1764 -38.2092)" width="4.4" height="1.6"/>
			<path d="M92.7,20.4C82.4,20.4,74,28.7,74,39c0,10.3,8.4,18.7,18.7,18.7c1.6,0,3.2-0.2,4.7-0.6v-2.2c-1.5,0.4-3.1,0.7-4.7,0.7
				c-9.1,0-16.6-7.4-16.6-16.5c0-9.1,7.4-16.6,16.6-16.6s16.6,7.4,16.6,16.6c0,2-0.3,3.9-1,5.6h2.2c0.6-1.8,0.9-3.7,0.9-5.6
				C111.3,28.7,103,20.4,92.7,20.4z"/>
		</g>
	</g>
</g>
<g id="Layer_1">
</g>
</svg>
