<?xml version="1.0" encoding="utf-8"?>
<!-- Generator: Adobe Illustrator 18.0.0, SVG Export Plug-In . SVG Version: 6.00 Build 0)  -->
<!DOCTYPE svg PUBLIC "-//W3C//DTD SVG 1.1//EN" "http://www.w3.org/Graphics/SVG/1.1/DTD/svg11.dtd">
<svg version="1.1" xmlns="http://www.w3.org/2000/svg" xmlns:xlink="http://www.w3.org/1999/xlink" x="0px" y="0px"
	 viewBox="0 0 300 100" style="enable-background:new 0 0 300 100;" xml:space="preserve">
<style type="text/css">
	.st0{fill-rule:evenodd;clip-rule:evenodd;}
	.st1{fill-rule:evenodd;clip-rule:evenodd;fill:#C038F9;}
	.st2{fill:none;}
	.st3{fill-rule:evenodd;clip-rule:evenodd;fill:#231F20;}
</style>
<g id="Layer_2">
</g>
<g id="Layer_1">
	<g>
		<path d="M8.9,45.2H7.2c-2.3,0-3.7,1.2-3.8,4.4h-1v-5.4h17.4v5.4h-1c-0.1-3.2-1.5-4.4-3.8-4.4h-1.7v14.3c0,3.7,0,4.5,1.4,4.5h0.9
			v0.8H6.6V64h0.9c1.3,0,1.4-0.8,1.4-4.5V45.2L8.9,45.2z"/>
		<path d="M20.3,64.1H21c1.2,0,1.2-0.7,1.2-4.1v-9c0-3.4,0-4.1-1.2-4.1h-0.6v-0.8H28V47h-0.6c-1.2,0-1.2,0.7-1.2,4.1v3.7h6.3v-3.7
			c0-3.4,0-4.1-1.2-4.1h-0.6v-0.8h7.7V47h-0.6c-1.2,0-1.2,0.7-1.2,4.1v9c0,3.4,0,4.1,1.2,4.1h0.7v0.8h-7.7v-0.8h0.6
			c1.2,0,1.2-0.7,1.2-4.1v-4.3h-6.3v4.3c0,3.4,0,4.1,1.2,4.1H28v0.8h-7.7V64.1L20.3,64.1z"/>
		<path d="M38.8,64.1h0.7c1.2,0,1.2-0.7,1.2-4.1v-9c0-3.4,0-4.1-1.2-4.1h-0.6v-0.8h14v4.4h-0.9c-0.3-3-2-3.5-4-3.5h-3.3v7.6h2.2
			c1.7,0,3.2-0.4,3.2-2.9h0.9v6.6h-0.9c0-2.5-1.5-2.9-3.2-2.9h-2.2V64h2.9c2.4,0,4.6-0.4,4.7-3.7H53v4.6H38.8V64.1L38.8,64.1z"/>
		<path d="M69.3,48.9L66,57.2h6.3L69.3,48.9L69.3,48.9L69.3,48.9z M72.2,64c1.2,0,2.1,0,2.1-0.9c0-0.6-0.4-1.7-0.9-3l-0.7-1.9h-7.1
			l-0.7,1.9c-0.4,1-0.7,2-0.7,2.8c0,0.8,0.6,1.2,1.5,1.2h0.7v0.8h-6V64c1.4,0,1.9-0.8,2.8-3l5.4-13.6c0.4-1.1,0.9-2.2,1.2-3.5h2.5
			c0.4,1.5,0.8,2.8,1.3,4.1l5.1,13.9c0.3,0.9,0.8,2.1,1.8,2.1h0.6v0.8h-8.8V64L72.2,64z"/>
		<path d="M86.4,54.8h1.4c1.9,0,3.4-0.9,3.4-3.9c0-2.8-1.6-3.7-3.5-3.7h-1.4V54.8L86.4,54.8L86.4,54.8z M94.6,65.3H94
			c-2.6-0.2-2.9-3.3-2.9-6.2c0-1.8-0.3-3.4-2.6-3.4h-2.1v4.3c0,3.4,0,4.1,1.2,4.1h0.7v0.8h-7.7v-0.8h0.7c1.2,0,1.2-0.7,1.2-4.1v-9
			c0-3.4,0-4.1-1.2-4.1h-0.6v-0.8h8.7c3.5,0,6,1.3,6,4.4c0,2.6-2.1,4.1-4.2,4.5v0.1c3.3,0.5,3.9,2.3,3.9,5.2c0,1.4,0,3.4,0.8,3.4
			c0.4,0,0.8-0.4,1.1-0.9l0.6,0.4C96.9,64.6,95.8,65.2,94.6,65.3L94.6,65.3z"/>
		<path d="M97.7,64.1h0.7c1.2,0,1.2-0.7,1.2-4.1v-9c0-3.4,0-4.1-1.2-4.1h-0.6v-0.8h7.7V47h-0.6c-1.2,0-1.2,0.7-1.2,4.1v9
			c0,3.4,0,4.1,1.2,4.1h0.7v0.8h-7.7V64.1L97.7,64.1z"/>
		<path d="M106.3,63.6l6.2-10.6c1.1-1.9,2.5-4.1,3.3-5.8h-4c-2.1,0.1-3.8,0.7-3.9,3.9H107v-4.8h13.3v1.2l-6.9,11.8
			c-0.9,1.6-1.9,3.1-2.7,4.8h4.6c2.3,0,4-1,4.1-4.1h0.9v5h-14V63.6L106.3,63.6z"/>
		<path d="M129.5,64.5c3.4,0,3.7-4.3,3.7-9.1c0-5.7-0.7-8.9-3.7-8.9c-3,0-3.7,3.2-3.7,8.9C125.8,60.2,126.1,64.5,129.5,64.5
			L129.5,64.5L129.5,64.5z M129.9,65.3H129c-5.2-0.2-7.5-4.9-7.5-9.9c0-5.1,2.7-9.5,7.9-9.5c5.2,0,7.9,4.5,7.9,9.5
			C137.4,60.4,135.1,65,129.9,65.3L129.9,65.3z"/>
		<path d="M139.5,51.1c0-3.4,0-4.1-1.2-4.1h-0.7v-0.8h5.8c1.4,2.7,2.6,4.6,4.1,6.9l4.2,6.8h0v-8.9c0-3.4,0-4.1-1.2-4.1h-1v-0.8h5.3
			V47H154c-1.2,0-1.2,0.7-1.2,4.1v14h-2.5l-9.8-15.8h-0.1v10.8c0,3.4,0,4.1,1.2,4.1h0.9v0.8h-4.9v-0.8h0.7c1.2,0,1.2-0.7,1.2-4.1
			V51.1L139.5,51.1z"/>
		<path d="M161.7,50.5l-3,7.5h5.7L161.7,50.5L161.7,50.5L161.7,50.5z M164.4,64.1c1.1,0,1.9,0,1.9-0.8c0-0.5-0.4-1.5-0.8-2.7
			l-0.6-1.8h-6.4l-0.7,1.7c-0.3,0.9-0.6,1.8-0.6,2.5c0,0.7,0.5,1.1,1.3,1.1h0.7v0.8h-5.4v-0.8c1.3,0,1.7-0.7,2.6-2.7l4.9-12.3
			c0.4-1,0.8-2,1.1-3.1h2.2c0.3,1.3,0.7,2.5,1.1,3.7l4.6,12.5c0.3,0.8,0.7,1.9,1.7,1.9h0.5v0.8h-8V64.1L164.4,64.1z"/>
		<path d="M185.7,53.7h1.6c2.2,0,3.8-1,3.8-4.3c0-3.1-1.8-4.1-3.9-4.1h-1.5V53.7L185.7,53.7L185.7,53.7z M195.2,65.3h-1.4
			c-2.6-0.5-2.9-3.8-2.9-6.8c0-2-0.3-3.7-2.9-3.7h-2.3v4.8c0,3.7,0,4.5,1.4,4.5h0.7v0.8h-8.5V64h0.7c1.3,0,1.3-0.8,1.3-4.5v-10
			c0-3.7,0-4.5-1.4-4.5h-0.7v-0.8h9.6c3.9,0,6.7,1.5,6.7,4.8c0,2.9-2.3,4.6-4.6,5v0.1c3.7,0.6,4.3,2.6,4.3,5.8c0,1.5,0,3.8,0.9,3.8
			c0.5,0,0.9-0.4,1.2-1l0.7,0.4C197.4,64.4,196.4,65.1,195.2,65.3L195.2,65.3z"/>
		<path d="M197.6,64.1h0.7c1.2,0,1.2-0.7,1.2-4.1v-9c0-3.4,0-4.1-1.2-4.1h-0.6v-0.8h14v4.4h-0.9c-0.3-3-2-3.5-4-3.5h-3.3v7.6h2.2
			c1.7,0,3.2-0.4,3.2-2.9h0.9v6.6h-0.9c-0.1-2.5-1.5-2.9-3.2-2.9h-2.2V64h2.9c2.4,0,4.6-0.4,4.7-3.7h0.9v4.6h-14.3V64.1L197.6,64.1z
			"/>
		<path d="M218.6,55.2h0.9c2.1,0,3.9-1.4,3.9-4c0-2.6-1.4-4.1-3.5-4.1h-1.2V55.2L218.6,55.2L218.6,55.2z M212.8,64.1h0.7
			c1.2,0,1.2-0.7,1.2-4.1v-9c0-3.4,0-4.1-1.2-4.1h-0.6v-0.8h8.5c2.9,0,6.1,1.2,6.1,4.8c0,4.1-3.8,5.1-6.9,5.1c-0.7,0-1.4,0-1.9-0.1
			v4c0,3.4,0,4.1,1.2,4.1h0.9v0.8h-7.9V64.1L212.8,64.1z"/>
		<path d="M244.6,47H244c-1.2,0-1.2,0.7-1.2,4.1v7.8c0,3.7-2.2,6.2-5.9,6.4h-0.9c-4.3-0.2-6.5-2.7-6.5-6.5v-7.7c0-3.4,0-4.1-1.2-4.1
			h-0.6v-0.8h7.7V47h-0.6c-1.2,0-1.2,0.7-1.2,4.1v8.3c0,3.5,1.8,4.8,3.9,4.8c2.4,0,4.5-1.8,4.5-5.6v-7.5c0-3.4,0-4.1-1.2-4.1h-0.7
			v-0.8h4.9V47L244.6,47z"/>
		<path d="M250.4,54.6h1.7c2.3,0,3.4-1.5,3.4-3.8c0-1.8-0.6-3.6-3.3-3.6h-1.8V54.6L250.4,54.6L250.4,54.6z M250.4,64h1.8
			c2.2,0,3.8-0.8,3.8-3.8c0-3.5-1.2-4.6-3.7-4.6h-1.8V64L250.4,64L250.4,64z M244.6,64.1h0.7c1.2,0,1.2-0.7,1.2-4.1v-9
			c0-3.4,0-4.1-1.2-4.1h-0.6v-0.8h8.9c2.6,0,5.9,0.9,5.9,4.4c0,2.6-2.3,4.1-4.5,4.3v0.1c2.4,0.1,5.1,1.8,5.1,4.6
			c0,4.3-3.8,5.2-7.4,5.2h-7.9V64.1L244.6,64.1z"/>
		<path d="M260.7,64.1h0.7c1.2,0,1.2-0.7,1.2-4.1v-9c0-3.4,0-4.1-1.2-4.1h-0.6v-0.8h7.7V47h-0.6c-1.2,0-1.2,0.7-1.2,4.1V64h2.7
			c2.5,0,4.2-0.7,4.5-4h0.9v4.9h-13.8V64.1L260.7,64.1z"/>
		<path d="M274.6,64.1h0.7c1.2,0,1.2-0.7,1.2-4.1v-9c0-3.4,0-4.1-1.2-4.1h-0.6v-0.8h7.7V47h-0.6c-1.2,0-1.2,0.7-1.2,4.1v9
			c0,3.4,0,4.1,1.2,4.1h0.7v0.8h-7.7V64.1L274.6,64.1z"/>
		<path d="M296.2,51.2h-0.9c-0.3-2.2-1.4-4.6-3.8-4.6c-4.1,0-4.5,6-4.5,9.2c0,3.2,0.4,8.7,4.5,8.7c2.3,0,3.8-1.9,4.1-4.8h0.9v5.4
			h-0.8c0-0.3-0.3-0.5-0.7-0.5c-0.5,0-2.1,0.5-3.5,0.6h-0.9c-5.4-0.2-7.7-4.4-7.7-9.3c0-5.4,2.7-10.2,8.3-10.2c2,0,2.8,0.7,3.8,0.7
			c0.4,0,0.6-0.3,0.6-0.6h0.8V51.2L296.2,51.2z"/>
	</g>
</g>
</svg>
