<?xml version="1.0" encoding="utf-8"?>
<!-- Generator: Adobe Illustrator 18.0.0, SVG Export Plug-In . SVG Version: 6.00 Build 0)  -->
<!DOCTYPE svg PUBLIC "-//W3C//DTD SVG 1.1//EN" "http://www.w3.org/Graphics/SVG/1.1/DTD/svg11.dtd">
<svg version="1.1" xmlns="http://www.w3.org/2000/svg" xmlns:xlink="http://www.w3.org/1999/xlink" x="0px" y="0px"
	 viewBox="0 0 300 100" style="enable-background:new 0 0 300 100;" xml:space="preserve">
<style type="text/css">
	.st0{fill-rule:evenodd;clip-rule:evenodd;}
	.st1{fill-rule:evenodd;clip-rule:evenodd;fill:#C038F9;}
	.st2{fill:none;}
	.st3{fill-rule:evenodd;clip-rule:evenodd;fill:#231F20;}
</style>
<g id="Layer_2">
	<g>
		<path d="M4.2,53.2v-1.5c0-15.3,6.5-23.1,15.2-23.1c2.5,0,4.4,0.5,6.1,1.3v7c-2-1.2-3.8-2-5.9-2c-5,0-8.7,5.4-8.7,16.5v2
			c0,12.7,4,16.8,8.2,16.8c0.6,0,0.9-0.1,1.5-0.3V56h-5v-5.9h11v24.3c-2.8,1.3-5,1.9-7.8,1.9C10.9,76.3,4.2,69.3,4.2,53.2z"/>
		<path d="M31.5,57.1v-1.7c0-13.3,4.2-19.3,10.1-19.3c6,0,10.1,6.1,10.1,19.3v1.7c0,13.3-4.2,19.3-10.1,19.3
			C35.7,76.4,31.5,70.3,31.5,57.1z M46.1,57.1v-1.7c0-10.2-1.9-14.3-4.5-14.3c-2.6,0-4.5,4.1-4.5,14.3v1.7c0,10.2,1.9,14.3,4.5,14.3
			C44.2,71.4,46.1,67.3,46.1,57.1z"/>
		<path d="M58.8,41.8h-5.3v-5.2h16.1v5.2h-5.3v34.1h-5.5V41.8z"/>
		<path d="M72.9,36.6h5.6v16.9h7.8V36.6h5.5v39.3h-5.5V58.8h-7.8v17.1h-5.6V36.6z"/>
		<path d="M102.6,36.5h5.9l7.8,39.4h-5.6l-1.6-8.8h-7.4l-1.6,8.8h-5.4L102.6,36.5z M108.3,62.1l-2.9-15.8l-2.9,15.8H108.3z"/>
		<path d="M119.3,36.6h5.7l5.6,16.7l5.6-16.7h5.7v39.3h-5.3V49.1l-5.8,17.3h-0.2l-5.8-17.3v26.8h-5.3V36.6z"/>
		<path d="M148.3,74.2v-7c3,1.8,5.4,2.7,7.6,2.7c2.8,0,5-1.6,5-4.8V65c0-2.7-0.9-4.6-5.2-9.8c-5.8-6.9-7.8-9.9-7.8-15.2V40
			c0-6.9,4.7-11.5,10.7-11.5c3.2,0,5.2,0.6,7.2,1.7v7c-2.5-1.5-4.4-2.3-6.5-2.3c-2.7,0-4.8,1.8-4.8,4.8v0.1c0,2.6,0.9,4,5.2,9.1
			c6.2,7.4,7.8,10.5,7.8,15.8v0.1c0,6.9-4.9,11.5-11,11.5C153.4,76.4,150.7,75.5,148.3,74.2z"/>
		<path d="M170.8,56.9v-1.2c0-13.6,5.1-19.3,11.2-19.3c1.9,0,2.9,0.3,4.3,1V43c-1.4-0.8-2.5-1.3-3.8-1.3c-3.4,0-6.1,3.7-6.1,13.9
			v1.3c0,10.6,2.6,13.9,6.1,13.9c1.2,0,2.5-0.4,3.9-1.2V75c-1.4,0.8-2.9,1.2-4.8,1.2C175.5,76.2,170.8,70.3,170.8,56.9z"/>
		<path d="M189.7,36.6h5.6v16.9h7.8V36.6h5.5v39.3h-5.5V58.8h-7.8v17.1h-5.6V36.6z"/>
		<path d="M212.5,57.1v-1.7c0-13.3,4.2-19.3,10.1-19.3c6,0,10.1,6.1,10.1,19.3v1.7c0,13.3-4.2,19.3-10.1,19.3
			C216.7,76.4,212.5,70.3,212.5,57.1z M227.1,57.1v-1.7c0-10.2-1.9-14.3-4.5-14.3c-2.6,0-4.5,4.1-4.5,14.3v1.7
			c0,10.2,1.9,14.3,4.5,14.3C225.3,71.4,227.1,67.3,227.1,57.1z"/>
		<path d="M235.9,57.1v-1.7c0-13.3,4.2-19.3,10.1-19.3c6,0,10.1,6.1,10.1,19.3v1.7c0,13.3-4.2,19.3-10.1,19.3
			C240.1,76.4,235.9,70.3,235.9,57.1z M250.5,57.1v-1.7c0-10.2-1.9-14.3-4.5-14.3c-2.6,0-4.5,4.1-4.5,14.3v1.7
			c0,10.2,1.9,14.3,4.5,14.3C248.7,71.4,250.5,67.3,250.5,57.1z"/>
		<path d="M260.1,36.6h5.6v34.1h8v5.2h-13.6V36.6z"/>
		<path d="M276.8,74.5v-5.8c2.5,1.5,4.5,2.3,6.4,2.3c2.4,0,4.2-1.3,4.2-4v-0.1c0-2.2-0.7-3.9-4.3-8.2c-4.8-5.8-6.6-8.3-6.6-12.7
			v-0.1c0-5.8,3.9-9.6,9-9.6c2.6,0,4.3,0.5,6.1,1.4v5.8c-2.1-1.3-3.7-1.9-5.4-1.9c-2.2,0-4,1.5-4,4v0.1c0,2.2,0.7,3.4,4.3,7.6
			c5.2,6.2,6.6,8.8,6.6,13.3v0.1c0,5.8-4.1,9.7-9.2,9.7C281.1,76.3,278.9,75.6,276.8,74.5z"/>
	</g>
</g>
<g id="Layer_1">
</g>
</svg>
