<?xml version="1.0" encoding="utf-8"?>
<!-- Generator: Adobe Illustrator 18.0.0, SVG Export Plug-In . SVG Version: 6.00 Build 0)  -->
<!DOCTYPE svg PUBLIC "-//W3C//DTD SVG 1.1//EN" "http://www.w3.org/Graphics/SVG/1.1/DTD/svg11.dtd">
<svg version="1.1" xmlns="http://www.w3.org/2000/svg" xmlns:xlink="http://www.w3.org/1999/xlink" x="0px" y="0px"
	 viewBox="0 0 300 100" style="enable-background:new 0 0 300 100;" xml:space="preserve">
<style type="text/css">
	.st0{fill-rule:evenodd;clip-rule:evenodd;}
	.st1{fill-rule:evenodd;clip-rule:evenodd;fill:#C038F9;}
	.st2{fill:none;}
	.st3{fill-rule:evenodd;clip-rule:evenodd;fill:#231F20;}
</style>
<g id="Layer_2">
</g>
<g id="Layer_1">
	<g>
		<path class="st0" d="M59.3,18.9l-6.3,0h-9.7c-0.7,0-5.9,0.1-5.9,0.1l-0.1,8.4l-1,0l0.1-9.5l0-3.9c3.3,0.2,15.3,0.3,27.7,0.3
			c14.5,0,23.8-0.1,27.5-0.3l0,4.3l0.1,9.6l-1,0c0-0.8-0.2-4-0.2-4.3c0-0.1-0.2-4.4-0.2-4.7l-4.2-0.1l-12.5,0l-4.8,0l0,59.2
			c0,0.1,0.1,3.9,0.1,4.7c0.5,0.1,5.1,0.4,5.9,0.4l0.3,0v1.6c-0.2,0-0.6,0-0.8,0c-2.6,0-6.9-0.3-9.9-0.3c-3,0-7.1,0.3-10.2,0.3
			c-0.1,0-0.7,0-1,0l0-1.7c0,0,0.2,0,0.5,0c1.3-0.1,4.5-0.3,5.4-0.3l0.1,0L59.3,18.9L59.3,18.9z M115.3,84.8c-2.4,0-6.6-0.4-9.7-0.4
			c-3.1,0-7.2,0.4-10.2,0.4c-0.3,0-0.7-0.1-1-0.1V83c0.6,0,3.2-0.3,4-0.3c0.9-0.1,1.7-0.1,2-0.2c0,0,0-2,0-5.2
			c0-10.9,0.1-41.6,0-55.4c0-1.5,0-5.2,0-5.7c-0.6-0.1-1.3-0.1-1.9-0.2c-0.7,0-3.6-0.3-4.1-0.3l0-1.7c2.9,0,7.1,0.3,10.6,0.3
			c3.3,0,7.8-0.3,11.2-0.3l0,1.8c-0.5,0-1.8,0.1-1.9,0.1c-1,0.1-3.8,0.4-4.4,0.5c0,1,0,3,0,5.4c0,12.4,0,45,0,55.9
			c0,1.4,0,2.8,0,3.6c0,0.8,0,1.3,0,1.4c0,0.1,1.8,0.2,2.2,0.2c0.8,0.1,3.9,0.2,4,0.2h0.2l0,1.7C116,84.7,115.5,84.8,115.3,84.8
			L115.3,84.8z M137.2,37.5c0,0-1.6,8.7-3.8,20.9c-1.2,6.6-3.7,23.1-3.8,24.2c1.4,0.2,4.2,0.4,5,0.4c0.2,0,0.5,0,0.7,0l0,1.7
			c-0.3,0-1.1,0-1.1,0c-2.7-0.1-4.7-0.3-7.6-0.3c-0.8,0-4.8,0.2-6.3,0.3c-0.6,0-1.4,0-1.6,0l0-1.7c0.1,0,0.4-0.1,0.6-0.1
			c1.3-0.1,3.3-0.3,5-0.5c0.1-0.8,1.6-9,2.1-11.8c1.8-9.5,7.1-41.4,7.8-45.7c0.6-4.6,1.3-10.4,1.3-11.1c1.4,0,3.8,0,3.8,0
			s4.7,14.6,5.4,16.7c0.8,2.1,15.1,39,15.1,39s6.7-15.9,12.7-32.9c1.2-3.4,2.8-7.9,4-11.6c1.7-5.3,3.6-11.2,3.6-11.2h3.7
			c0,0,0.9,6.5,1.2,9.4c0.9,8.4,7.1,42.7,9.3,54c0.5,2.8,0.9,5.3,0.9,5.3c0.6,0,3.1,0.3,4.6,0.4c0.3,0,1.1,0.1,1.3,0.1l0,1.7
			c0,0-0.7,0-1,0c-3.3,0-8.4-0.3-11.6-0.3c-2.8,0-5.5,0.2-8.4,0.3c-0.5,0-1,0-1.5,0v-1.7c0,0,0.4,0,0.6,0c1.4-0.1,5-0.4,5.4-0.4
			c0-0.6-0.2-2.8-0.5-4.9c-0.2-1.5-0.6-4.2-0.9-6.8c-0.8-5-4.5-25.9-5.6-31.7c-0.2-1-0.3-1.5-0.3-1.5s-11.5,29.6-13.9,35.4
			c-0.2,0.6-0.4,1-0.4,1.1c-2.2,5.6-4.1,10.6-4.1,10.6l-3.3,0l-18-46.2L137.2,37.5L137.2,37.5z M251.3,27.8l-1,0l0-0.5
			c-0.1-1.2-0.3-4.7-0.6-7.7c0-0.3-0.1-0.5-0.1-0.5c-0.6,0-2.9-0.1-2.9-0.1c0,0-1.9-0.1-1.9-0.1c0,0-6.1,0-12.3-0.1
			c-4.3,0-8.5,0-11,0c-0.6,0-2.9,0.1-2.9,0.1l0,27.8l17.9,0.1c0.1,0,4.7-0.1,4.8-0.1c0.3,0,3.5-0.2,3.6-0.2c0,0,0-0.3,0.1-0.5
			c0.3-1.7,0.6-3.3,0.7-4.5c0,0,0.1-0.5,0.1-0.9l1,0c0,0.1,0.1,0.5,0,0.9c0,1.7-0.1,5.2-0.1,7.4c0,3.3,0.1,6.3,0.1,7.7
			c0,0.4,0,1.1,0,1.1h-1.1c0-0.2,0-0.3-0.1-0.5c-0.2-1.9-0.4-3.2-0.7-5.2c0-0.1-0.1-0.4-0.1-0.7c-0.6,0-2.1-0.1-2.9-0.1
			c-0.3,0-4.7,0-9.6-0.1c-2,0-5.6,0.1-7.2,0.1c-1.8,0-4.8,0.1-6.7,0.2l0,25.3l0.1,3.3l10.9,0.2l15.5,0c0.1,0,3.5-0.1,4.6-0.1
			c0.2,0,0.7,0,0.7,0c0.1-0.8,0.2-2.5,0.4-4c0-0.2,0.4-4.4,0.4-5.5l1,0c0,1.1-0.2,14.3-0.2,14.3c-1.7,0-7.1,0-13.7-0.1
			c-4-0.1-8.5-0.1-12.9-0.1c-3.6-0.1-7.1-0.2-10.3-0.2c-4.6,0-9.1,0.3-10.8,0.3c-0.4,0-1.1,0-1.3,0v-1.7h0.3c1.1,0,4.2-0.2,5.9-0.5
			c0-0.3,0.1-4.5,0.1-4.5c0,0,0-52.3,0-54.6c0-2.5,0-6.7,0-7.1c-0.9-0.1-1.3-0.2-1.5-0.2c-1-0.1-2.9-0.3-4-0.4c-0.3,0-0.6,0-0.8-0.1
			c0,0,0-1.6,0-1.7c0.2,0,0.7,0,1.6,0c1.8,0,5.2,0.3,9.4,0.3c2.6,0,6.8-0.1,9.8-0.2c4.3,0,7.6,0,11.7-0.1c6.8,0,12.6-0.1,14.8-0.1
			c0.7,0,1,0,1,0c0,0.1,0,0.3,0,0.4c0,0.5,0,1.4,0,2.6C251.2,20.5,251.3,26,251.3,27.8L251.3,27.8z"/>
	</g>
</g>
</svg>
