<?xml version="1.0" encoding="utf-8"?>
<!-- Generator: Adobe Illustrator 18.0.0, SVG Export Plug-In . SVG Version: 6.00 Build 0)  -->
<!DOCTYPE svg PUBLIC "-//W3C//DTD SVG 1.1//EN" "http://www.w3.org/Graphics/SVG/1.1/DTD/svg11.dtd">
<svg version="1.1" xmlns="http://www.w3.org/2000/svg" xmlns:xlink="http://www.w3.org/1999/xlink" x="0px" y="0px"
	 viewBox="0 0 300 100" style="enable-background:new 0 0 300 100;" xml:space="preserve">
<style type="text/css">
	.st0{fill-rule:evenodd;clip-rule:evenodd;}
	.st1{fill-rule:evenodd;clip-rule:evenodd;fill:#C038F9;}
	.st2{fill:none;}
	.st3{fill-rule:evenodd;clip-rule:evenodd;fill:#231F20;}
</style>
<g id="Layer_2">
	<g>
		<g>
			<path d="M71,44.7V24.2h8.1L82.8,37l3.6-12.8h8.1v20.6h-6.1v-6.3l0.1-3.2l0.3-3.7h-0.1l-3.7,13.2h-4.7l-3.7-13.2h-0.1l0.3,3
				l0.1,3.2v7H71z"/>
			<path d="M97.9,44.7V24.2h6.7v20.6H97.9z"/>
			<path d="M121.8,35.4l-0.3-4.7v-6.5h6.5v20.6h-6.3l-7.3-11.2l0.3,4.7v6.5h-6.5V24.2h6.3L121.8,35.4z"/>
			<path d="M145.1,35.4l-0.3-4.7v-6.5h6.5v20.6H145l-7.3-11.2l0.3,4.7v6.5h-6.5V24.2h6.3L145.1,35.4z"/>
			<path d="M154.8,44.7V24.2h16.8V29h-10v2.9h8.5v4.8h-8.5v3.2H172v4.8H154.8z"/>
			<path d="M185.4,30.2c-0.1-0.7-0.5-1.1-1-1.4c-0.5-0.3-1.1-0.4-1.7-0.4c-1.5,0-2.1,0.4-2.1,1.2c0,3.1,11.8,1.2,11.8,8.7
				c0,4.8-4,7.1-9.6,7.1c-5.4,0-9-3.2-9.1-6.9h6.5c0.1,0.7,0.5,1.3,1.1,1.6c0.5,0.3,1.3,0.5,1.9,0.5c1.7,0,2.8-0.5,2.8-1.5
				c0-3.1-11.8-1-11.8-8.8c0-4.4,3.8-6.6,8.9-6.6c5.7,0,8.3,2.9,8.8,6.5H185.4z"/>
			<path d="M215.5,34.4c0,7-4.7,10.9-10.8,10.9c-6.5,0-10.8-4-10.8-11c0-6.5,4.4-10.7,10.8-10.7C212,23.6,215.5,28.9,215.5,34.4z
				 M200.6,34.4c0,2.6,0.8,5.9,4,5.9c2.9,0,4.1-2.5,4.1-5.9c0-2.8-1.1-5.8-4.1-5.7C201.6,28.7,200.6,31.8,200.6,34.4z"/>
			<path d="M216.9,24.2h18.9v5.4h-6.1v15.2H223V29.6h-6.1V24.2z"/>
			<path d="M233.7,44.7l7.4-20.6h6.9l7.4,20.6h-6.7l-0.8-2.7h-6.7l-0.8,2.7H233.7z M244.4,30.4l-2.1,7.4h4.3L244.4,30.4z"/>
			<path d="M70.9,79V58.5h9.9c5.9,0,8.8,2.7,8.8,6.9c0,4.4-2.6,7.2-8.5,7.2h-3.4V79H70.9z M80.5,67.8c1.6,0,2.7-0.6,2.7-2.4
				c0-1.9-2.2-2.2-3.6-2.2h-1.9v4.6H80.5z"/>
			<path d="M91.1,58.5h6.7v12.3c0,2,0.4,3.8,3.2,3.8c2.4,0,3.1-1.5,3.1-3.8V58.5h6.7v11.6c0,6.6-3.1,9.5-9.9,9.5
				c-6.4,0-9.9-2.4-9.9-9.5V58.5z"/>
			<path d="M114.1,79V58.5h9.8c4.6,0,8.3,1.1,8.3,5.2c0,2.1-1.4,3.7-2.7,4.5c2.2,0.6,3.4,2.5,3.4,4.7c0,4.6-3.5,6.2-8.9,6.2H114.1z
				 M120.8,63.3v3.4h2.8c1.3,0,2.3-0.6,2.3-1.8c0-1.6-1.3-1.6-2.7-1.6H120.8z M120.8,70.4v3.8h2.9c1.7,0,2.9-0.3,2.9-1.9
				c0-1.8-1.6-1.9-3.7-1.9H120.8z"/>
			<path d="M135.5,79V58.5h6.7v15.8h9.3V79H135.5z"/>
			<path d="M153.7,79V58.5h6.7V79H153.7z"/>
			<path d="M176.6,66.3c-0.2-2.1-1.5-3.4-3.7-3.4c-2.4,0-3.8,2-3.8,6c0,2.9,0.6,5.6,4.1,5.6c2.2,0,3.2-1.5,3.5-3.5h6.5
				c-0.6,5.3-4.4,8.5-9.8,8.5c-6.8,0-10.9-4.2-10.9-10.9c0-6.7,4.5-10.8,10.3-10.8c6.3,0,9.8,3.1,10.3,8.4H176.6z"/>
			<path d="M199.5,71.9V79h-6.7V58.5h9.7c6.9,0,9.1,1.9,9.1,5.9c0,2.4-1.1,4.4-3.5,5c2.2,0.8,3.5,1.3,3.5,5.5c0,2.7-0.1,3.6,0.7,3.6
				V79h-6.8c-0.2-0.5-0.3-1.8-0.3-3.6c0-2.7-0.5-3.6-3.6-3.6H199.5z M199.5,67.3h2.7c2.1,0,3.2-0.5,3.2-1.9c0-1.5-1.1-2.1-2.7-2.1
				h-3.1V67.3z"/>
			<path d="M212.7,79l7.4-20.6h6.9l7.4,20.6h-6.7l-0.8-2.7H220l-0.8,2.7H212.7z M223.4,64.7l-2.1,7.4h4.3L223.4,64.7z"/>
			<path d="M235.6,79V58.5h9c6.6,0,10.7,3.1,10.7,9.9c0,7.7-4.3,10.7-10.9,10.7H235.6z M242.3,74.2h1.4c3.1,0,4.9-1.7,4.9-5.5
				c0-4.3-1.4-5.4-5-5.4h-1.3V74.2z"/>
			<path d="M257.3,79V58.5h6.7V79H257.3z"/>
			<path d="M288,68.6c0,7-4.7,10.9-10.8,10.9c-6.5,0-10.8-4-10.8-11c0-6.5,4.4-10.7,10.8-10.7C284.6,57.9,288,63.2,288,68.6z
				 M273.2,68.6c0,2.6,0.8,5.9,4,5.9c2.9,0,4.1-2.5,4.1-5.9c0-2.8-1.1-5.8-4.1-5.7C274.1,62.9,273.2,66,273.2,68.6z"/>
		</g>
		<path d="M296.4,63.6c-0.3-0.5-0.5-0.8-0.7-1c-0.1-0.1-0.2-0.2-0.4-0.3c0.4,0,0.8-0.2,1-0.5c0.3-0.3,0.4-0.6,0.4-1
			c0-0.3-0.1-0.5-0.2-0.7c-0.2-0.2-0.4-0.4-0.6-0.5c-0.3-0.1-0.7-0.1-1.3-0.1h-1.7v5h0.8v-2.1h0.5c0.3,0,0.5,0.1,0.6,0.2
			c0.2,0.2,0.5,0.5,0.8,1.2l0.4,0.8h1L296.4,63.6z M294.6,61.8h-1v-1.5h0.9c0.4,0,0.7,0,0.8,0.1c0.2,0.1,0.3,0.1,0.3,0.3
			c0.1,0.1,0.1,0.2,0.1,0.4c0,0.2-0.1,0.4-0.3,0.6C295.4,61.7,295,61.8,294.6,61.8z"/>
		<path d="M298.9,59.7c-0.4-0.7-1-1.3-1.7-1.7c-0.7-0.4-1.5-0.6-2.3-0.6c-0.8,0-1.5,0.2-2.3,0.6c-0.7,0.4-1.3,1-1.7,1.7
			c-0.4,0.7-0.6,1.5-0.6,2.3c0,0.8,0.2,1.6,0.6,2.3c0.4,0.7,1,1.3,1.7,1.7c0.7,0.4,1.5,0.6,2.3,0.6c0.8,0,1.6-0.2,2.3-0.6
			c0.7-0.4,1.3-1,1.7-1.7c0.4-0.7,0.6-1.5,0.6-2.3C299.5,61.2,299.3,60.4,298.9,59.7z M298.2,63.9c-0.3,0.6-0.8,1.1-1.4,1.4
			c-0.6,0.3-1.3,0.5-1.9,0.5c-0.7,0-1.3-0.2-1.9-0.5c-0.6-0.3-1.1-0.8-1.4-1.4c-0.3-0.6-0.5-1.3-0.5-1.9c0-0.7,0.2-1.3,0.5-1.9
			c0.4-0.6,0.8-1.1,1.5-1.4c0.6-0.3,1.3-0.5,1.9-0.5c0.6,0,1.3,0.2,1.9,0.5c0.6,0.3,1.1,0.8,1.4,1.4c0.3,0.6,0.5,1.3,0.5,1.9
			C298.7,62.7,298.5,63.3,298.2,63.9z"/>
		<path d="M296.4,63.6c-0.3-0.5-0.5-0.8-0.7-1c-0.1-0.1-0.2-0.2-0.4-0.3c0.4,0,0.8-0.2,1-0.5c0.3-0.3,0.4-0.6,0.4-1
			c0-0.3-0.1-0.5-0.2-0.7c-0.2-0.2-0.4-0.4-0.6-0.5c-0.3-0.1-0.7-0.1-1.3-0.1h-1.7v5h0.8v-2.1h0.5c0.3,0,0.5,0.1,0.6,0.2
			c0.2,0.2,0.5,0.5,0.8,1.2l0.4,0.8h1L296.4,63.6z M294.6,61.8h-1v-1.5h0.9c0.4,0,0.7,0,0.8,0.1c0.2,0.1,0.3,0.1,0.3,0.3
			c0.1,0.1,0.1,0.2,0.1,0.4c0,0.2-0.1,0.4-0.3,0.6C295.4,61.7,295,61.8,294.6,61.8z"/>
		<path d="M296.4,63.6c-0.3-0.5-0.5-0.8-0.7-1c-0.1-0.1-0.2-0.2-0.4-0.3c0.4,0,0.8-0.2,1-0.5c0.3-0.3,0.4-0.6,0.4-1
			c0-0.3-0.1-0.5-0.2-0.7c-0.2-0.2-0.4-0.4-0.6-0.5c-0.3-0.1-0.7-0.1-1.3-0.1h-1.7v5h0.8v-2.1h0.5c0.3,0,0.5,0.1,0.6,0.2
			c0.2,0.2,0.5,0.5,0.8,1.2l0.4,0.8h1L296.4,63.6z M294.6,61.8h-1v-1.5h0.9c0.4,0,0.7,0,0.8,0.1c0.2,0.1,0.3,0.1,0.3,0.3
			c0.1,0.1,0.1,0.2,0.1,0.4c0,0.2-0.1,0.4-0.3,0.6C295.4,61.7,295,61.8,294.6,61.8z"/>
		<path d="M27.9,78.7C12.5,78.7,0,66.2,0,50.8S12.5,23,27.9,23s27.9,12.5,27.9,27.9S43.2,78.7,27.9,78.7z M27.9,36.5
			c-7.9,0-14.4,6.4-14.4,14.4c0,7.9,6.4,14.4,14.4,14.4s14.4-6.4,14.4-14.4C42.2,42.9,35.8,36.5,27.9,36.5z"/>
	</g>
</g>
<g id="Layer_1">
</g>
</svg>
