<?xml version="1.0" encoding="utf-8"?>
<!-- Generator: Adobe Illustrator 18.0.0, SVG Export Plug-In . SVG Version: 6.00 Build 0)  -->
<!DOCTYPE svg PUBLIC "-//W3C//DTD SVG 1.1//EN" "http://www.w3.org/Graphics/SVG/1.1/DTD/svg11.dtd">
<svg version="1.1" xmlns="http://www.w3.org/2000/svg" xmlns:xlink="http://www.w3.org/1999/xlink" x="0px" y="0px"
	 viewBox="0 0 300 100" style="enable-background:new 0 0 300 100;" xml:space="preserve">
<style type="text/css">
	.st0{fill-rule:evenodd;clip-rule:evenodd;}
	.st1{fill-rule:evenodd;clip-rule:evenodd;fill:#C038F9;}
	.st2{fill:none;}
	.st3{fill-rule:evenodd;clip-rule:evenodd;fill:#231F20;}
</style>
<g id="Layer_2">
</g>
<g id="Layer_1">
	<g>
		<path d="M55.5,18.2c0-0.7-0.3-1-1.1-1c0,0-0.1,0-0.1,0l-1.8,0.1c-1.7,0-2.2,0.4-2.8,1.6c-0.3,0.8-0.3,1.5-0.8,1.5
			c-0.2,0-0.3-0.2-0.3-0.5c0-0.4,0.1-0.8,0.2-1.3l0.2-2c0-0.5,0.2-0.7,0.8-0.7c0.4,0,1.6,0.2,3.6,0.2h6.8c1.9,0,3.2-0.2,4-0.2
			c0.5,0,0.6,0.1,0.7,0.6c0.2,1.8,0.2,2.7,0.2,2.8c0,0.3-0.2,0.5-0.4,0.5c-0.5,0-0.4-0.9-0.8-1.5c-0.5-0.8-1.3-0.9-2.6-0.9H59
			c-0.8,0-0.9,0.2-0.9,0.9v11.8c0,1.3,0.2,1.9,1.3,2.4c0.9,0.4,1.9,0.1,1.9,0.7c0,0.3-0.2,0.5-0.7,0.5c-0.6,0-1.6-0.2-3.2-0.2
			c-2.3,0-3.7,0.2-4.3,0.2c-0.4,0-0.6-0.1-0.6-0.4c0-0.6,0.8-0.5,1.7-0.7c1-0.3,1.3-1,1.3-2.4V18.2z"/>
		<path d="M71.4,23.6H79c0.6,0,0.6-0.2,0.6-0.9v-3.3c0-1.4-0.1-2.1-1.1-2.4c-0.8-0.3-1.6-0.1-1.6-0.7c0-0.3,0.2-0.4,0.6-0.4
			c0.4,0,1.4,0.2,2.9,0.2c1.8,0,2.8-0.2,3.2-0.2c0.4,0,0.6,0.2,0.6,0.4c0,0.6-0.8,0.3-1.4,0.9c-0.6,0.5-0.6,1.1-0.6,2.2V30
			c0,1.4,0.3,2,1.3,2.4c0.8,0.3,1.8,0.2,1.8,0.7c0,0.3-0.2,0.4-0.6,0.4s-1.4-0.1-3.1-0.1c-2.1,0-3.3,0.1-3.5,0.1
			c-0.3,0-0.5-0.1-0.5-0.4c0-0.6,0.8-0.4,1.4-0.9c0.6-0.6,0.7-1.2,0.7-2.2v-4.3c0-0.6-0.1-0.9-0.6-0.9h-7.6c-0.7,0-0.7,0.2-0.7,0.9
			V30c0,1.4,0.3,2,1.3,2.4c0.8,0.3,1.8,0.2,1.8,0.7c0,0.3-0.2,0.4-0.6,0.4s-1.4-0.1-3.1-0.1c-2.1,0-3.3,0.1-3.5,0.1
			c-0.3,0-0.5-0.1-0.5-0.4c0-0.6,0.8-0.4,1.4-0.9c0.6-0.6,0.7-1.2,0.7-2.2V19.4c0-1.4-0.1-2.1-1.1-2.4c-0.8-0.3-1.6-0.1-1.6-0.7
			c0-0.3,0.2-0.4,0.6-0.4c0.4,0,1.4,0.2,2.9,0.2c1.8,0,2.8-0.2,3.2-0.2c0.4,0,0.6,0.2,0.6,0.4c0,0.6-0.8,0.3-1.4,0.9
			c-0.6,0.5-0.6,1.1-0.6,2.2v3.5C70.7,23.4,70.8,23.6,71.4,23.6z"/>
		<path d="M88.5,19.4c0-1.4,0-2.1-1.1-2.4c-0.8-0.3-1.7-0.1-1.7-0.7c0-0.3,0.2-0.4,0.6-0.4c0.3,0,1.3,0.1,3.1,0.1
			c3.9,0,6.7-0.2,8.5-0.2c0.4,0,0.4,0.1,0.4,0.6c0,0.2,0,0.3,0,0.5c0,0.9,0.2,1.7,0.2,2.2c0,0.5-0.1,0.7-0.4,0.7
			c-0.5,0-0.3-0.6-0.7-1.4c-0.6-1.4-1.8-1.5-4.1-1.5c-1.7,0-2.4,0.1-2.4,1.3v4.5c0,0.9,0.1,1,1,1h1.4c1.3,0,2-0.2,2.5-0.9
			c0.4-0.7,0.4-1.4,0.8-1.4c0.2,0,0.3,0.2,0.3,0.7c0,0.4-0.1,1.1-0.1,2.2c0,1.3,0.1,2.1,0.1,2.4c0,0.4-0.2,0.7-0.4,0.7
			c-0.4,0-0.3-0.5-0.6-1.4c-0.4-1.1-1-1.2-2.5-1.2h-1.6c-0.8,0-0.9,0.3-0.9,1.2V30c0,2,0.3,2.4,2.1,2.4c2.6,0,4.5-0.8,5.4-2.1
			c0.6-0.7,0.6-1.3,1-1.3c0.1,0,0.3,0.2,0.3,0.4c0,0.5-0.3,1.7-0.9,2.7c-0.8,1.3-1.7,1.6-3.3,1.6c-1,0-2.6-0.2-4.8-0.2
			c-2.4,0-3.7,0.2-3.9,0.2c-0.3,0-0.5-0.1-0.5-0.4c0-0.6,0.8-0.4,1.4-0.9c0.6-0.6,0.6-1.2,0.6-2.2V19.4z"/>
		<path d="M43.7,68.9c1.2,2.8,2.5,4.5,4.4,5.1c1.7,0.5,3.2,0.4,3.2,1.5c0,0.8-0.5,1.2-1.7,1.2c-1.1,0-3.6-0.5-7.6-0.5
			c-5,0-7.7,0.5-8.2,0.5c-0.7,0-1.2-0.4-1.2-1c0-0.5,0.3-0.9,0.9-1.2c2.1-0.9,3.3-1.4,3.3-3.4c0-0.7-0.2-1.6-0.7-2.7l-2.6-6.4
			c-0.9-2.3-1.8-2.5-4.2-2.5H18.2c-2.4,0-3.3,0.4-4.2,2.7l-1.9,4.6c-0.5,1.3-1.1,2.5-1.1,3.6c0,1.7,0.8,2.8,2.6,3.4
			c1.9,0.7,4,0.3,4,1.8c0,0.7-0.5,1.1-1.6,1.1c-1.2,0-3.5-0.5-6.8-0.5c-3.9,0-6,0.5-6.5,0.5c-0.7,0-1.1-0.4-1.1-1.1
			c0-1.1,1.4-1.2,2.8-2.1c1.5-1,2.5-2.9,3.7-5.6l17.4-38.2c0.3-0.6,0.6-0.9,1.1-0.9c0.5,0,0.8,0.3,1.1,1.1L43.7,68.9z M24.3,40
			c-0.3,0-0.7,0.3-1,0.9l-6,13.2c-0.3,0.6-0.4,1-0.4,1.4c0,0.8,0.8,1,2.4,1h9.8c1.1,0,1.7-0.3,1.7-0.9c0-0.3-0.1-0.9-0.4-1.5
			l-5.3-13.1C24.9,40.4,24.6,40,24.3,40z"/>
		<path d="M57,46.1c0-2.9-0.2-4.4-2.2-5.1c-2-0.6-3.6-0.2-3.6-1.3c0-0.6,0.3-0.9,1.1-0.9c1,0,3,0.2,5.9,0.2c4.1,0,7.9-0.3,11.3-0.3
			c13,0,20.8,7,20.8,18.4c0,5.9-1.8,10.8-5.4,14.5c-3.7,3.7-8.2,5.1-14.4,5.1c-3.8,0-7.3-0.3-10.6-0.3c-3.6,0-5.6,0.3-6.2,0.3
			c-0.7,0-1-0.3-1-0.9c0-1.2,1.7-0.8,3-2c1.3-1.2,1.3-2.6,1.3-4.8V46.1z M70.5,74.7c8.9,0,14.1-5.5,14.1-15.2c0-11.7-6.7-19-17.3-19
			c-3.9,0-4.8,0.6-4.8,3.4v24.3C62.5,73.4,64.1,74.7,70.5,74.7z"/>
		<path d="M106.9,76.8c-0.2,0.5-0.5,0.8-0.9,0.8c-0.3,0-0.6-0.3-0.9-0.9L91.5,44.5c-0.8-1.8-1.6-2.9-3-3.4c-1.3-0.5-2.2-0.5-2.2-1.3
			c0-0.5,0.6-0.9,1.9-0.9c1.1,0,2.9,0.3,5.3,0.3c2.6,0,4.7-0.4,6.4-0.4c1.4,0,2,0.2,2,0.9c0,1-1,0.8-2.5,1c-1.5,0.2-2.4,1.1-2.4,2.3
			c0,0.7,0.3,1.8,0.9,3.3l8.9,21.3c0.3,0.6,0.5,1,0.8,1c0.3,0,0.6-0.3,0.8-0.9l7.8-18.2c1-2.3,1.4-4.2,1.4-5.5
			c0-1.9-0.8-2.8-2.5-3.3c-0.4-0.1-0.8-0.1-1.2-0.1c-0.1,0-0.3,0-0.4,0c-0.8,0-1.3-0.1-1.3-0.8s0.8-0.9,2.4-0.9
			c1.8,0,3.8,0.2,5.7,0.2c2.5,0,3.9-0.2,4.3-0.2c0.7,0,1.1,0.4,1.1,0.8c0,0.9-0.8,0.7-1.7,1.1c-1.4,0.6-2.4,2.3-3.6,5.1L106.9,76.8z
			"/>
		<path d="M155.2,43.6c3.4,3.4,5.3,8.2,5.3,13.7c0,5.2-1.8,10-4.9,13.5c-3.8,4.4-9,6.6-14.7,6.6c-5.9,0-10.9-2-14.4-5.6
			c-3.3-3.4-5.3-8.4-5.3-13.9c0-4.1,1.1-8,3.3-11.3c3.7-5.6,9.4-8.7,16.3-8.7C146.7,38,151.5,39.8,155.2,43.6z M154.7,59.8
			c0-5.7-1.6-10.7-4.6-14.7c-2.5-3.3-5.9-5.1-10.1-5.1C132,40,127,45.7,127,55.1c0,6.1,1.6,11.2,4.9,15.6c2.2,2.9,5.7,4.6,9.7,4.6
			C149.4,75.4,154.7,69.4,154.7,59.8z"/>
		<path d="M192.9,70.3c2.3-2,2.8-3.7,3.7-3.7c0.4,0,0.6,0.4,0.6,0.9c0,0.9-0.8,2.5-2.6,4.3c-3.7,3.7-8.5,5.6-13.9,5.6
			c-10.8,0-18.1-7.5-18.1-18.9c0-6.3,2.3-11.9,6.5-15.8c3.2-3,7.4-4.6,12.3-4.6c2.3,0,4.7,0.5,7.1,1.4c1.6,0.6,2.7,1.4,3.7,1.4
			c1.2,0,1.3-2,2.2-2c1.2,0,0.9,1.3,1.2,4c0.4,3.1,1.1,5.2,1.1,6.3c0,0.7-0.4,1.1-0.9,1.1c-0.8,0-0.9-1-1.6-2.1
			c-3.2-5.4-7.8-8.1-13.5-8.1c-7.1,0-12.4,6.1-12.4,15.6c0,11.1,6.4,18.6,14.7,18.6C186.7,74.3,189.8,73,192.9,70.3z"/>
		<path d="M230.8,70.3c1,2.3,2,3.7,3.6,4.2c1.3,0.4,2.6,0.3,2.6,1.2c0,0.6-0.4,1-1.3,1c-0.9,0-3-0.4-6.1-0.4c-4,0-6.3,0.4-6.7,0.4
			c-0.6,0-1-0.3-1-0.8c0-0.4,0.3-0.8,0.8-1c1.7-0.7,2.7-1.1,2.7-2.7c0-0.5-0.2-1.3-0.5-2.2l-2.1-5.2c-0.8-1.9-1.5-2-3.4-2H210
			c-1.9,0-2.7,0.3-3.4,2.2l-1.5,3.7c-0.4,1.1-0.9,2-0.9,3c0,1.4,0.6,2.3,2.1,2.8c1.6,0.6,3.2,0.3,3.2,1.5c0,0.6-0.4,0.9-1.3,0.9
			c-1,0-2.9-0.4-5.6-0.4c-3.2,0-4.9,0.4-5.3,0.4c-0.5,0-0.9-0.3-0.9-0.9c0-0.9,1.1-1,2.3-1.7c1.2-0.8,2-2.4,3-4.6l14.1-31.1
			c0.2-0.5,0.5-0.8,0.9-0.8c0.4,0,0.6,0.3,0.9,0.9L230.8,70.3z M215,46.8c-0.3,0-0.6,0.3-0.8,0.8l-4.9,10.7
			c-0.2,0.5-0.3,0.8-0.3,1.1c0,0.6,0.6,0.8,1.9,0.8h8c0.9,0,1.4-0.3,1.4-0.7c0-0.3-0.1-0.7-0.3-1.2l-4.3-10.6
			C215.5,47.1,215.3,46.8,215,46.8z"/>
		<path d="M247.5,43.6c0-1.6-0.7-2-2.4-2c-0.1,0-0.2,0-0.3,0l-3.9,0.1c-3.7,0.1-4.8,0.8-5.9,3.4c-0.7,1.7-0.6,3.1-1.7,3.1
			c-0.4,0-0.7-0.4-0.7-1c0-0.9,0.3-1.8,0.4-2.9l0.4-4.2c0.1-1.1,0.4-1.5,1.7-1.5c0.9,0,3.4,0.4,7.7,0.4h14.6c4,0,6.8-0.3,8.5-0.3
			c1.1,0,1.3,0.2,1.5,1.2c0.3,3.9,0.5,5.9,0.5,5.9c0,0.6-0.3,1-0.9,1c-1.1,0-0.9-1.9-1.7-3.2c-1-1.6-2.7-2-5.6-2h-4.6
			c-1.6,0-1.9,0.5-1.9,2v25.4c0,2.9,0.4,4.2,2.7,5.1c2,0.8,4,0.1,4,1.5c0,0.6-0.5,1-1.4,1c-1.2,0-3.4-0.4-6.8-0.4
			c-4.9,0-8,0.4-9.3,0.4c-0.8,0-1.2-0.3-1.2-0.9c0-1.3,1.7-1,3.6-1.5c2.1-0.6,2.7-2.1,2.7-5.2V43.6z"/>
		<path d="M274.7,46.2c0-2.9-0.1-4.4-2.3-5.2c-1.8-0.6-3.6-0.3-3.6-1.5c0-0.6,0.5-0.8,1.3-0.8c0.6,0,2.8,0.3,6.7,0.3
			c8.4,0,14.4-0.3,18.2-0.3c0.8,0,0.9,0.2,0.9,1.2c0,0.3-0.1,0.7-0.1,1.1c0,2,0.4,3.6,0.4,4.8c0,1-0.3,1.4-0.8,1.4
			c-1,0-0.7-1.3-1.4-3c-1.3-3.1-3.8-3.3-8.8-3.3c-3.7,0-5.1,0.2-5.1,2.7v9.6c0,1.9,0.3,2.2,2.1,2.2h2.9c2.7,0,4.3-0.3,5.3-2
			c0.9-1.5,0.9-2.9,1.8-2.9c0.4,0,0.6,0.5,0.6,1.4c0,0.9-0.2,2.4-0.2,4.7c0,2.7,0.3,4.5,0.3,5.1c0,0.9-0.3,1.4-0.9,1.4
			c-0.9,0-0.6-1.1-1.3-2.9c-0.8-2.3-2.1-2.5-5.3-2.5h-3.3c-1.8,0-2,0.7-2,2.5v8.7c0,4.2,0.6,5.1,4.6,5.1c5.6,0,9.6-1.7,11.6-4.5
			c1.2-1.6,1.3-2.8,2-2.8c0.3,0,0.5,0.3,0.5,0.9c0,1.1-0.6,3.6-1.9,5.7c-1.7,2.7-3.7,3.4-7,3.4c-2.2,0-5.7-0.4-10.3-0.4
			c-5.1,0-7.9,0.3-8.3,0.3c-0.7,0-1-0.3-1-0.9c0-1.2,1.7-0.8,3-2c1.3-1.2,1.3-2.6,1.3-4.8V46.2z"/>
	</g>
</g>
</svg>
