<?xml version="1.0" encoding="utf-8"?>
<!-- Generator: Adobe Illustrator 18.0.0, SVG Export Plug-In . SVG Version: 6.00 Build 0)  -->
<!DOCTYPE svg PUBLIC "-//W3C//DTD SVG 1.1//EN" "http://www.w3.org/Graphics/SVG/1.1/DTD/svg11.dtd">
<svg version="1.1" xmlns="http://www.w3.org/2000/svg" xmlns:xlink="http://www.w3.org/1999/xlink" x="0px" y="0px"
	 viewBox="0 0 300 100" style="enable-background:new 0 0 300 100;" xml:space="preserve">
<style type="text/css">
	.st0{fill-rule:evenodd;clip-rule:evenodd;}
	.st1{fill-rule:evenodd;clip-rule:evenodd;fill:#C038F9;}
	.st2{fill:none;}
	.st3{fill-rule:evenodd;clip-rule:evenodd;fill:#231F20;}
</style>
<g id="Layer_2">
	<g>
		<path d="M44.3,21.5H68V29H52.3v16.3H66v7.5H52.3V69H68v8H44.3V21.5z"/>
		<path d="M88.5,73.4C88,74,87.5,74.5,87,75c-0.5,0.5-1,0.9-1.6,1.3s-1.2,0.7-1.9,0.9c-0.7,0.2-1.6,0.3-2.6,0.3
			c-3.3,0-5.6-1.2-6.9-3.7c-0.5-0.9-0.8-2-1-3.3c-0.2-1.3-0.3-3-0.3-5.2v-15c0-2.9,0.1-5,0.2-6.3c0.2-1.3,0.5-2.4,1-3.3
			c0.7-1,1.5-1.9,2.6-2.6c1.1-0.7,2.6-1,4.5-1c1.6,0,2.9,0.4,4.2,1.1c1.2,0.7,2.3,1.7,3.2,3h0.2V21.5h8V77h-8V73.4z M80.6,64.1
			c0,1.6,0.3,2.9,0.9,3.9c0.6,1,1.6,1.5,3,1.5c1.2,0,2.2-0.5,2.9-1.4c0.7-0.9,1.1-2.1,1.1-3.5V49.2c0-1.2-0.4-2.3-1.1-3.1
			c-0.8-0.8-1.7-1.2-2.8-1.2c-1.5,0-2.5,0.5-3.1,1.4c-0.5,0.9-0.8,2-0.8,3.3V64.1z"/>
		<path d="M129.2,37.5h-7.9v-1.8c0-1.8-0.4-3.4-1.3-4.7c-0.9-1.3-2.3-2-4.3-2c-1.1,0-2,0.2-2.7,0.6c-0.7,0.4-1.2,0.9-1.6,1.6
			c-0.4,0.7-0.7,1.4-0.8,2.3c-0.2,0.9-0.2,1.8-0.2,2.7c0,1.1,0,2,0.1,2.8c0.1,0.8,0.3,1.4,0.6,1.9c0.3,0.5,0.8,1,1.4,1.4
			c0.6,0.4,1.4,0.8,2.5,1.2l6.1,2.4c1.8,0.7,3.2,1.5,4.3,2.4c1.1,0.9,1.9,2,2.5,3.2c0.6,1.2,1,2.6,1.2,4.2c0.2,1.6,0.3,3.4,0.3,5.4
			c0,2.3-0.2,4.5-0.7,6.5c-0.5,2-1.2,3.7-2.3,5.1c-1.1,1.4-2.5,2.6-4.2,3.4c-1.8,0.8-3.9,1.2-6.5,1.2c-1.9,0-3.7-0.3-5.4-1
			c-1.7-0.7-3.1-1.6-4.3-2.8c-1.2-1.2-2.1-2.6-2.8-4.2c-0.7-1.6-1.1-3.4-1.1-5.2v-3h8v2.5c0,1.5,0.4,2.8,1.3,3.9
			c0.9,1.2,2.3,1.8,4.3,1.8c1.3,0,2.4-0.2,3.2-0.6c0.8-0.4,1.3-0.9,1.7-1.6c0.4-0.7,0.6-1.6,0.7-2.6c0.1-1,0.2-2.2,0.2-3.4
			c0-1.5-0.1-2.6-0.2-3.6c-0.1-0.9-0.3-1.7-0.7-2.3c-0.3-0.6-0.8-1-1.4-1.4c-0.6-0.4-1.4-0.8-2.4-1.2l-5.7-2.3
			c-3.4-1.4-5.7-3.3-6.9-5.6c-1.2-2.3-1.8-5.2-1.8-8.7c0-2.1,0.3-4.1,0.9-5.9c0.6-1.9,1.4-3.5,2.5-4.8c1.1-1.4,2.5-2.4,4.2-3.2
			c1.7-0.8,3.7-1.2,6-1.2c2,0,3.8,0.4,5.4,1.1c1.6,0.7,3,1.7,4.2,2.9c1.2,1.2,2.1,2.5,2.7,4c0.6,1.5,0.9,3,0.9,4.6V37.5z"/>
		<path d="M132.4,50.7c0-1.6,0.1-3.1,0.3-4.4c0.2-1.4,0.6-2.5,1.2-3.6c0.9-1.7,2.3-3.1,4.1-4.1c1.8-1,3.9-1.6,6.3-1.6
			c2.4,0,4.5,0.5,6.3,1.6c1.8,1,3.1,2.4,4.1,4.1c0.6,1,1,2.2,1.2,3.6c0.2,1.4,0.3,2.8,0.3,4.4v13c0,1.6-0.1,3.1-0.3,4.4
			c-0.2,1.4-0.6,2.5-1.2,3.6c-0.9,1.7-2.3,3.1-4.1,4.1c-1.8,1-3.9,1.6-6.3,1.6c-2.4,0-4.5-0.5-6.3-1.6c-1.8-1-3.1-2.4-4.1-4.1
			c-0.6-1-1-2.2-1.2-3.6c-0.2-1.4-0.3-2.8-0.3-4.4V50.7z M140.3,65c0,1.5,0.4,2.6,1.1,3.4c0.7,0.8,1.6,1.1,2.8,1.1
			c1.2,0,2.1-0.4,2.8-1.1c0.7-0.8,1.1-1.9,1.1-3.4V49.5c0-1.5-0.4-2.6-1.1-3.4c-0.7-0.8-1.6-1.1-2.8-1.1c-1.2,0-2.1,0.4-2.8,1.1
			c-0.7,0.8-1.1,1.9-1.1,3.4V65z"/>
		<path d="M184.9,77h-8v-3.8h-0.2c-0.8,1.2-1.8,2.3-3,3.1c-1.2,0.8-2.7,1.2-4.5,1.2c-1,0-2-0.2-3-0.5c-1-0.3-1.9-0.9-2.7-1.7
			c-0.8-0.8-1.4-1.8-1.9-3c-0.5-1.2-0.7-2.7-0.7-4.5V37.5h8v27.4c0,1.5,0.3,2.6,1,3.4c0.7,0.8,1.6,1.2,2.9,1.2
			c1.5,0,2.5-0.5,3.1-1.4c0.6-0.9,0.9-2.3,0.9-4.1V37.5h8V77z"/>
		<path d="M190.7,37.5h8v4.2c1.6-1.5,3.2-2.6,4.8-3.4c1.6-0.8,3.5-1.2,5.8-1.2v8.4c-0.8-0.3-1.6-0.5-2.4-0.5c-0.8,0-1.7,0.1-2.7,0.4
			c-1,0.3-1.8,0.8-2.6,1.4c-0.8,0.7-1.5,1.6-2,2.6s-0.8,2.4-0.8,4.1V77h-8V37.5z"/>
		<path d="M219,65.6c0,1.2,0.4,2.2,1.1,2.9c0.7,0.7,1.6,1,2.8,1c1.5,0,2.5-0.4,3-1.3c0.5-0.9,0.8-1.8,0.9-2.6h8
			c0,1.7-0.3,3.2-0.8,4.7c-0.5,1.5-1.3,2.7-2.4,3.7c-1,1.1-2.3,1.9-3.7,2.6c-1.5,0.6-3.1,0.9-4.9,0.9c-2.4,0-4.5-0.5-6.3-1.6
			c-1.8-1-3.1-2.4-4.1-4.1c-0.6-1-1-2.2-1.2-3.6c-0.2-1.4-0.3-2.8-0.3-4.4v-13c0-1.6,0.1-3.1,0.3-4.4c0.2-1.4,0.6-2.5,1.2-3.6
			c0.9-1.7,2.3-3.1,4.1-4.1c1.8-1,3.9-1.6,6.3-1.6c1.8,0,3.5,0.3,5,0.9c1.5,0.6,2.7,1.5,3.7,2.6c1,1.1,1.8,2.5,2.3,4
			c0.5,1.6,0.8,3.2,0.8,5.1h-8c0-1.6-0.4-2.8-1.1-3.5c-0.7-0.8-1.6-1.1-2.8-1.1s-2.1,0.4-2.8,1.1c-0.7,0.8-1.1,1.9-1.1,3.4V65.6z"/>
		<path d="M245.9,60.2v5.4c0,1.2,0.4,2.2,1.1,2.9c0.7,0.7,1.6,1,2.8,1c1.5,0,2.5-0.4,3-1.3c0.5-0.9,0.8-1.8,0.9-2.6h7.9
			c0,1.7-0.3,3.2-0.8,4.7c-0.5,1.5-1.3,2.7-2.4,3.7c-1,1.1-2.3,1.9-3.7,2.6c-1.5,0.6-3.1,0.9-4.9,0.9c-2.4,0-4.5-0.5-6.3-1.6
			c-1.8-1-3.1-2.4-4.1-4.1c-0.6-1-1-2.2-1.2-3.6c-0.2-1.4-0.3-2.8-0.3-4.4v-13c0-1.6,0.1-3.1,0.3-4.4c0.2-1.4,0.6-2.5,1.2-3.6
			c0.9-1.7,2.3-3.1,4.1-4.1c1.8-1,3.9-1.6,6.3-1.6c1.8,0,3.5,0.3,4.9,0.9c1.5,0.6,2.7,1.5,3.7,2.6c1,1.1,1.8,2.4,2.3,3.9
			c0.5,1.5,0.8,3.1,0.8,4.8v10.9H245.9z M245.9,54h7.8v-4.5c0-1.5-0.4-2.6-1.1-3.4c-0.7-0.8-1.6-1.1-2.8-1.1c-1.2,0-2.1,0.4-2.8,1.1
			c-0.7,0.8-1.1,1.9-1.1,3.4V54z"/>
	</g>
</g>
<g id="Layer_1">
</g>
</svg>
