<?xml version="1.0" encoding="utf-8"?>
<!-- Generator: Adobe Illustrator 18.0.0, SVG Export Plug-In . SVG Version: 6.00 Build 0)  -->
<!DOCTYPE svg PUBLIC "-//W3C//DTD SVG 1.1//EN" "http://www.w3.org/Graphics/SVG/1.1/DTD/svg11.dtd">
<svg version="1.1" xmlns="http://www.w3.org/2000/svg" xmlns:xlink="http://www.w3.org/1999/xlink" x="0px" y="0px"
	 viewBox="0 0 300 100" style="enable-background:new 0 0 300 100;" xml:space="preserve">
<style type="text/css">
	.st0{fill-rule:evenodd;clip-rule:evenodd;}
	.st1{fill-rule:evenodd;clip-rule:evenodd;fill:#C038F9;}
	.st2{fill:none;}
	.st3{fill-rule:evenodd;clip-rule:evenodd;fill:#231F20;}
</style>
<g id="Layer_2">
</g>
<g id="Layer_1">
	<g>
		<path d="M79,40.5c-1.2,1.3-1.1,2.9-1.1,4.6c0.1,5.1-0.1,10.2,0.1,15.3c0,0.2,0,0.4-0.4,0.7c-3.8-5.4-7.7-10.8-11.5-16.2
			c-0.4,0.4-0.3,0.9-0.3,1.2c0,3.3,0,6.5,0,9.8c0,1.1,0.3,2.1,0.2,3.2c0,0.6,0.3,1.1,1,1.5c-1.1,0.5-2,0.3-3.3,0.3
			c1.3-0.9,1.2-1.9,1.2-3c0-4.3,0-8.6,0-12.9c0-0.7,0-1.3-0.2-2C64.5,42,64.1,41.2,63,41c-0.3,0-0.3-0.3-0.3-0.5c1,0,2,0,3,0
			c3.8,4.8,7.1,10,11,14.8c0-4.5,0-9.1,0-13.4c-0.1-0.7-1-0.7-0.7-1.4C77.1,40.5,78,40.5,79,40.5z"/>
		<path d="M55.5,40.5c1,3.3,2.1,6.5,3.1,9.8c0.7,2.3,1.4,4.6,2.1,6.8c0.4,1.3,0.8,2.6,2.1,3.7c-1.4,0-2.6,0-3.9,0
			c0.5-1,0.1-1.9-0.2-2.9c-0.6-1.9-1.2-3.9-1.8-5.8c-1.4-0.4-2.7-0.2-4.2-0.2c-0.8,2.9-2.2,5.6-2.5,8.8c-0.6,0.2-1.3,0.2-2.2,0.1
			c1.9-1.6,2-3.8,2.6-5.8c1.4-4.4,2.7-8.8,4-13.2c0.1-0.5,0.4-0.9,0.6-1.4C55.3,40.5,55.4,40.5,55.5,40.5z M56.4,50.6
			c-0.6-1.8-0.9-3.4-1.7-4.9c-0.6,1.6-1.2,3.2-1.5,5C54.3,50.8,55.3,50.9,56.4,50.6z"/>
		<path d="M17.2,40.5c0.9,2.8,1.8,5.6,2.7,8.5c1,3.2,2,6.4,3,9.5c0.2,0.8,0.6,1.5,1.5,2.1c-1.3,0.4-2.4,0.2-3.5,0.2
			c-0.2-3.2-1.6-5.9-2.4-8.8c-1.5-0.2-2.7-0.2-4.3,0c-0.7,2.9-2,5.6-2.3,8.8c-0.5,0.1-1.2,0-2,0c1.8-2.4,2.1-5.1,3-7.7
			c1.2-3.8,2.4-7.7,3.6-11.5c0.1-0.4,0.3-0.7,0.5-1.1C17,40.5,17.1,40.5,17.2,40.5z M16.3,45.7c-0.4,1.7-1.3,3.1-1.5,4.8
			c1.1,0.6,2.2,0.1,3.5,0.4C17.5,49.1,17.3,47.3,16.3,45.7z"/>
		<path d="M98.1,40.5c2.2,6.7,3.9,13.6,6.6,20.2c-0.8,0.3-1.9,0.1-2.9,0.1c-0.2-3.1-1.5-5.8-2.4-8.7c-1.4-0.3-2.7-0.1-4.2-0.1
			c-0.8,3-2.2,5.7-2.4,8.8c-0.5,0.2-1.2,0.1-2,0c1.7-2.3,2-5,2.8-7.5c1.3-3.8,2.4-7.7,3.6-11.5c0.1-0.4,0.4-0.8,0.6-1.2
			C97.9,40.5,98,40.5,98.1,40.5z M95.6,50.7c1.1,0.1,2.1,0.3,3.2-0.2c-0.5-1.7-1-3.4-1.6-5.2C96.5,47.1,96,48.8,95.6,50.7z"/>
		<path d="M34.9,40.5c-0.2,0.6-0.2,1.3-0.6,2c-1.3-1.6-2.9-0.7-4.3-0.9c-0.6,0.5-0.5,1.1-0.5,1.5c0,5,0,10,0,15c0,1,0,2,1.1,2.6
			c-1.4,0-2.8,0-4.2,0c0-0.6,0.6-0.6,0.7-1.2c0-5.8,0-11.7,0-17.7c-1.1-0.4-1.9-0.4-3.4-0.3c-0.7,0.1-0.6,0.7-1.1,0.8
			c-0.3-0.6-0.5-1.3-0.8-1.9C26.2,40.5,30.5,40.5,34.9,40.5z"/>
		<path d="M40.7,40.5c-1.1,1-1.1,2.3-1.1,3.7c0.1,4,0,7.9,0,11.9c0,0.4,0,0.8,0,1.2c0.1,1.5,0.5,2,2,2.5c0.9,0.3,1.9,0.3,2.8,0.1
			c1-0.2,1.7-0.7,1.9-1.8c0.1-0.7,0.3-1.4,0.6-2.1c0.3,1.5,0.3,3,0.1,4.7c-3.5,0-7,0-10.5,0c0-0.5,0.6-0.5,0.8-0.9
			c0-6,0-12.1,0-18.1c-0.2-0.6-1.2-0.4-1-1.2C37.8,40.5,39.3,40.5,40.7,40.5z"/>
		<path d="M92.6,40.5c-0.3,0.6-0.5,1.2-0.8,1.8c-0.6,0.1-0.6-0.5-1-0.7c-1.2-0.1-2.4-0.2-3.5,0c-0.5,0.5-0.4,1-0.5,1.5
			c0,5,0,9.9,0,14.9c0,1.1,0.4,1.9,1.4,2.7c-1.7,0-3,0-4.4,0c1.1-0.8,1-2,1-3.1c0-4.7,0-9.5,0-14.2c0-0.5,0.1-1.1-0.2-1.7
			c-1.1-0.4-2.3-0.1-3.5-0.2c-0.4,0.1-0.5,0.7-1.1,0.6c-0.2-0.6-0.3-1.2-0.5-1.8C83.9,40.5,88.3,40.5,92.6,40.5z"/>
		<path d="M232.4,41.5c-0.3-0.5-0.8-0.5-0.8-0.9c0.1-0.2,0.3-0.2,0.4-0.2c1.9,0,3.8,0,5.7,0c2.8,0,4.4,1.6,4.5,4.4
			c0.1,2.4-1,4.1-2.7,5.6c0,0.1,0,0.2,0,0.3c1.3,2.7,2.7,5.3,4.4,7.8c0.4,0.5,0.8,1,1.3,1.3c0.8,0.5,1.7,0.6,2.5,0
			c0.2-0.2,0.4-0.4,0.8-0.2c0.2,0.4-0.1,0.6-0.3,0.8c-1.7,1.5-5,1.4-6.3-0.8c-1.3-2.2-2.6-4.3-3.7-6.6c-0.9-1.7-1.3-1.9-3.4-1.4
			c0,2.8-0.3,5.6,0.2,8.4c0.2,0.3,0.6,0.4,1,0.9c-1.5,0.1-2.9-0.1-4.3,0.4c-0.4-0.8,0.4-0.7,0.7-1.2
			C232.4,53.9,232.4,47.7,232.4,41.5z M234.8,50.3c3.5,0.7,5.3-1,5.3-3.9c0-0.7-0.2-1.3-0.3-2c-0.3-2.4-2.3-3.6-5.1-3.2
			C234.7,44.3,234.7,47.3,234.8,50.3z"/>
		<path d="M169.6,51.8c-0.1,2.9-0.4,5.6,0.1,8.4c0.3,0.3,0.8,0.2,1,0.6c-0.7,0.6-1.6,0-2.3,0.1c-0.7,0-1.5,0.5-2.3,0
			c0.1-0.5,0.6-0.4,0.8-0.7c0.4-0.8,0.4-17.7,0.1-18.9c-0.2-0.4-0.6-0.4-1-0.8c1.7,0,3.2,0,4.7,0c-0.1,0.5-0.7,0.4-0.8,0.7
			c-0.5,1.2-0.7,6.2-0.3,8.9c3.2-3,6.3-5.9,9.3-8.8c0.2-0.3-0.3-0.4-0.2-0.9c1.1-0.1,2.2-0.1,3.3,0c0,0.2,0,0.3,0,0.3
			c-1.5,0.4-2.6,1.5-3.7,2.5c-1.9,1.9-4.1,3.6-5.9,5.6c-0.3,0.3-0.6,0.5-0.8,0.9c0.4,0.9,1.2,1.4,1.9,2c1.9,1.8,3.9,3.7,5.8,5.5
			c0.8,0.8,1.7,1.5,2.6,2.3c0.6,0.5,1.4,0.7,2.1,1.1c-0.5,0.4-3.6,0.5-5.5,0.2c-0.2-0.3,0.2-0.4,0.2-0.8
			C175.6,57.5,172.9,54.4,169.6,51.8z"/>
		<path d="M110.1,60.8c0.1-0.4,0.6-0.3,0.8-0.7c0.3-0.9,0.3-17.7,0.1-18.8c-0.2-0.4-0.6-0.4-0.9-0.6c0.4-0.4,0.8-0.3,1.1-0.3
			c1.4,0,2.8,0.1,4.2,0c3.4-0.2,5.5,2.9,4.9,6c-0.1,0.6-0.2,1.1-0.5,1.6c-0.3,0.5-0.6,0.9-0.9,1.3c0.1,0.1,0.2,0.2,0.3,0.3
			c2.2,1.5,3.2,4.1,2.6,6.7c-0.1,0.6-0.3,1.2-0.5,1.7c-0.8,1.7-2,3.1-4.7,2.9c-1.8-0.2-3.7-0.2-5.6,0.1
			C110.7,61.1,110.3,61.2,110.1,60.8z M113.6,50.6c-0.3,0.5-0.2,0.9-0.2,1.3c0,1.9-0.1,3.9,0.2,5.8c0.2,1.7,0.3,2,1.9,2.4
			c1.7,0.4,3.6,0.1,4.2-2.1c0.5-1.7,0.3-3.4-0.3-5.1c-0.3-0.9-0.8-1.7-1.8-2C116.2,50.6,114.9,50.6,113.6,50.6z M113.4,49.3
			c1.2,1,3.6,0.5,4.3-0.9c0.7-1.5,0.8-3.1,0.3-4.7c-0.5-1.9-2.8-2.9-4.7-2.1C113.4,44.2,113.3,46.8,113.4,49.3z"/>
		<path d="M142.2,40.3c0.5,0.1,0.5,0.5,0.6,0.8c1.8,5.7,3.6,11.3,5.5,17c0.3,1,0.6,2.1,1.7,2.7c-1.3,0.3-2.6-0.2-3.8,0.2
			c-0.3-0.6,0.3-0.7,0.2-1c-0.8-2.7-1.6-5.4-2.7-8.1c-1.5-0.2-2.9-0.1-4.5,0c-1,2.7-1.8,5.4-2.6,8.2c-0.1,0.3,0.4,0.4,0.3,0.9
			c-0.8,0-1.5,0.4-2.5-0.1c1.5-1,1.6-2.5,2.1-3.9c0.9-2.7,1.7-5.4,2.6-8.1c0.8-2.6,1.6-5.1,2.4-7.7
			C141.8,40.8,141.8,40.5,142.2,40.3z M143.6,50.9c-0.6-2.1-1.2-3.9-1.9-6c-0.8,2.1-1.4,4-1.9,6C141,51,142.2,51,143.6,50.9z"/>
		<path d="M193.3,40.6c0.3,0.8,0.9,1.6,0.7,2.5c-0.5,0.1-0.6-0.4-0.9-0.6c-0.5-0.6-1.1-1.1-1.9-1.3c-1.9-0.5-3.5,0.4-4.3,2.2
			c-0.7,1.8-0.1,3.7,1.5,4.6c0.8,0.4,1.6,0.8,2.4,1.1c4.1,1.5,4.7,5,3.8,8.4c-0.6,2.2-2.6,3.5-5.2,3.5c-1.5,0-2.9-0.1-4.4-0.1
			c-0.5-1.4-0.3-5.4,0.2-5.9c0.4,0.2,0.2,0.6,0.2,0.9c0.1,1.5,0.3,2.9,1.8,3.6c1.7,0.8,3.5,0.9,5.1-0.3c1.4-1,2.1-4.6-0.1-6.2
			c-0.7-0.5-1.4-0.8-2.2-1.2c-0.3-0.1-0.6-0.3-0.9-0.4c-3.9-1.5-4.3-5.3-3.4-8.1c0.9-2.7,2.6-3.3,5.2-3.2
			C191.8,40.1,192.5,40.2,193.3,40.6z"/>
		<path d="M163.6,41.5c-0.1,0.7,0.5,1.3,0.3,2.1c-0.5,0.2-0.6-0.2-0.8-0.4c-1.8-1.9-3.9-2.7-6.4-2.1c-2.6,0.6-4.3,2.3-5,4.8
			c-1.4,4.6-0.4,8.8,2.7,12.4c2.5,3,7.9,3,10.6,0.1c0.2-0.2,0.4-0.5,0.7-0.4c0,1.1-0.7,2.2-1.5,2.5c-2.9,0.9-5.8,1.1-8.8,0.4
			c-2-0.5-3.5-1.7-4.5-3.4c-1.4-2.4-1.9-5-1.6-7.7c0.2-2.2,0.8-4.3,2.2-6.1c2-2.6,4.5-4,7.8-3.6C161.4,40.4,162.2,40.6,163.6,41.5z"
			/>
		<path d="M133.9,55.8c0.3,1.8,0.2,3.4,0.1,5.1c-3.9,0-7.6-0.1-11.4,0.1c0-0.7,0.7-0.6,0.9-1.2c0.2-0.6,0.3-17.3,0-18.5
			c-0.2-0.4-0.7-0.4-0.9-0.9c1.5-0.2,3-0.2,4.6,0c-0.2,0.5-0.7,0.3-0.9,0.5c-0.4,0.4-0.5,0.9-0.5,1.4c0,4.8,0,9.6,0,14.4
			c0,0.2,0,0.4,0,0.6c0.3,2,0.6,2.4,2.9,2.7c0.5,0.1,1.1,0,1.6,0c1.9,0,2.8-0.9,2.9-2.8C133.4,56.9,133.2,56.3,133.9,55.8z"/>
		<path d="M209.1,39.8c0,1-0.3,1.7-0.8,2.5c-0.3-0.6-0.6-1-1.2-1.2c-1.1,0-2.3-0.1-3.5,0.2c0,6.3,0,12.6,0,18.8
			c0.2,0.4,0.8,0.2,1,0.8c-1.5,0.1-3-0.2-4.6,0.2c0.2-0.8,0.8-0.7,0.9-1c0.3-0.4,0.4-0.7,0.4-1.1c0-5.7,0-11.3,0-17
			c0-0.2,0-0.4-0.2-0.7c-1.4-0.6-2.8-0.3-4.1-0.1c-0.5,0.2-0.3,0.7-0.7,0.8c-0.5-0.7-0.6-1.4-0.7-2.3c1,0.7,2.1,0.5,3.2,0.5
			c2.5,0,4.9,0,7.4,0C207.1,40.4,208.1,40.6,209.1,39.8z"/>
		<path d="M290.1,65.3c-0.4,0.2-11.6,6.4-14.3,7.8l-10,0l5.4-2.8h-42.7c-0.8-1.2-9.2-23.2-9.4-24.3c0,0,0,0,0,0
			c-0.3,0.7-9.3,23.8-9.7,24.1h-83.6c0,0,0,0,0,0h-5.5l5.3,2.7l-9.7,0c-2.6-1.3-13.6-7.3-13.9-7.5c0.7,0.2,33.4,0.2,52.8,0.2
			c17.1,0,34.1,0.1,51.2,0c0.6,0,1.3,0.1,1.9-0.1c0.5-0.6,11.2-26.6,11.2-26.6s10.8,25.9,11.2,26.5c0.4,0.3,0.8,0.2,1.3,0.2
			C250.5,65.5,289.3,65.5,290.1,65.3z"/>
		<path d="M265,72c-0.2,0.1-7.5,4.1-9.2,5l-6.4,0l3.5-1.8h-27.5c-0.5-0.8-5.9-15-6.1-15.6c0,0,0,0,0,0c-0.2,0.4-6,15.3-6.3,15.6
			c0,0-50.8,0-50.8,0l-3.8-3.1c-0.1-0.1,53.2,0.2,53.6,0.1c0.3-0.4,7.2-17.2,7.2-17.2s6.9,16.7,7.2,17.1c0.3,0.2,0.5,0.2,0.8,0.2
			C239.5,72.1,264.5,72.1,265,72z"/>
	</g>
</g>
</svg>
