<?xml version="1.0" encoding="utf-8"?>
<!-- Generator: Adobe Illustrator 18.0.0, SVG Export Plug-In . SVG Version: 6.00 Build 0)  -->
<!DOCTYPE svg PUBLIC "-//W3C//DTD SVG 1.1//EN" "http://www.w3.org/Graphics/SVG/1.1/DTD/svg11.dtd">
<svg version="1.1" xmlns="http://www.w3.org/2000/svg" xmlns:xlink="http://www.w3.org/1999/xlink" x="0px" y="0px"
	 viewBox="0 0 300 100" style="enable-background:new 0 0 300 100;" xml:space="preserve">
<style type="text/css">
	.st0{fill-rule:evenodd;clip-rule:evenodd;}
	.st1{fill-rule:evenodd;clip-rule:evenodd;fill:#C038F9;}
	.st2{fill:none;}
	.st3{fill-rule:evenodd;clip-rule:evenodd;fill:#231F20;}
</style>
<g id="Layer_2">
	<g>
		<path d="M290.6,60.2c-0.2,0.3-0.2,0.3-0.3,0.4c-0.1,0-0.1,0.1-0.2,0.1c-0.1,0-0.3,0.1-0.4,0.1c-0.1,0-0.3,0-0.4,0
			c-68.3,0-136.6,0-204.9,0.1c-0.1,0-0.1,0.1-0.3,0.1c-1.1,3.1-2.4,6.2-4.3,9C74.4,78,67,83.1,57.6,85.4C54.9,86,52.1,86,49.3,86
			c-10.7,0-19.5-4.3-26.5-12.1c-4.4-4.9-7.1-10.7-8.2-17.2c-0.3-1.9-0.7-3.7-0.8-5.6c-0.1-2,0.1-4.1,0.4-6.1c0.7-4,1.8-7.8,3.8-11.4
			c2-3.8,4.6-7.1,7.8-10c2.7-2.4,5.6-4.5,8.9-6c3.1-1.4,6.4-2.6,9.8-2.9c1.1-0.1,2.1-0.4,3.2-0.6c1.6-0.3,3.2-0.5,4.7,0.4
			c0,5,0,10,0,15.1c-1.2-1.1-2.3-2.2-3.5-3.1c-2.5-1.8-5.3-2.6-8.4-2.9c-3.5-0.4-6.8,0.1-10.1,1.4c-4.3,1.7-7.7,4.5-10,8.5
			c-2.8,4.7-3.7,9.9-3.1,15.2c0.5,5.4,2.4,10.3,6.5,14c3.6,3.2,7.7,5,12.5,5.1c4.5,0.2,8.8-0.7,12.4-3.5c1.2-0.9,2.2-2.1,3.3-3.2
			c0.4-0.4,0.7-0.8,1.2-1.4c0.4,2.5-0.2,4.8,0.7,7.1c2.4,0,4.8,0,7.3,0c0-1.2,0-2.3,0-3.3c-0.1-1.2-0.3-2.5-0.3-3.7
			C61,45.9,61,32,61,18.1c0-0.6,0-1.1,0-1.9c2.2,0.6,4,1.4,5.8,2.7c-0.1,1.9-0.2,3.7-0.3,5.5c0,0.7-0.1,1.5-0.1,2.2
			c0,11.3,0,22.5,0,33.8c0,2.7-0.1,5.4-0.8,8.1c-0.8,3.1-2.6,5-5.5,6c-0.7,0.2-1.4,0.5-2.1,0.7c0.3,2,0.7,3.8,1,5.7
			c0.9,0.7,1.7,0,2.5-0.2c3.9-0.9,7.3-2.7,9.5-6.2c1.3-2.1,2-4.4,2.5-6.8c0.5-2.7,0.5-5.4,0.5-8.1c0-11.1,0-22.2,0-33.3
			c0-0.7,0-1.5,0-2.2c2.6,1.4,6.6,6.5,8.3,10.8c-0.9,1.1-1.8,2.1-2.6,3.3c-1.2,1.7-1.9,3.6-1.8,5.8c0.1,1.9-0.2,3.8,0.5,5.7
			c1.2,3,2.9,5.6,6.3,6.5c0.2,0.1,0.4,0.2,0.6,0.5c-0.2,1-0.5,2-0.8,3.3c0.9,0,1.7,0,2.6,0c48.4,0,96.7,0,145.1,0
			c18.7,0,37.4,0,56.1,0C288.9,59.9,289.8,59.7,290.6,60.2z"/>
		<path d="M52.6,45.4c0,1.2,0,2.5,0,3.7c0.1,5.5-3.6,10.4-9.2,12c-2.7,0.8-5.3,0.6-8-0.1c-3.8-1.1-6.4-3.7-7.9-7.2
			c-2.3-5.3-2.3-10.9,0-16.2c1.9-4.4,5.2-7.3,10.2-7.9c4.6-0.6,8.5,0.5,11.7,3.9c2,2.1,3,4.6,3,7.5C52.6,42.6,52.6,44,52.6,45.4z"/>
		<path d="M264.6,55.5c-2.2,0.6-9.4,0.5-11.2,0.1c0.8-0.5,1.4-0.9,2.1-1.4c1-2.9,0.6-6,0.6-9.1c0-3,0.4-6-0.6-9.2
			c-0.5-0.3-1.2-0.7-2.1-1.2c0.4-0.2,0.7-0.4,0.9-0.4c2.6,0,5.1,0,7.9,0c0.1,0.8,0.2,1.6,0.3,2.6c0.6-0.5,1.1-1,1.6-1.4
			c2.1-1.6,4.3-2.4,6.9-1.6c1.3,0.4,2.3,1.3,3.1,2.4c0.2,0.3,0.5,0.7,0.7,1.2c0.7-0.7,1.3-1.4,2-1.9c2-1.6,4.3-2.5,6.9-1.7
			c2.3,0.7,3.5,2.4,3.8,4.8c0.5,3.8,0.3,7.6,0.3,11.4c0,1.3,0,2.6,0,4c0.8,0.5,1.5,0.9,2.2,1.3c-0.1,0.2-0.1,0.4-0.1,0.4
			c-3.6,0.4-7.1,0.1-10.7,0.2c0-0.4,0-0.6,0-0.6c1.7-0.8,2.2-2.2,2.1-4c-0.1-3.8,0-7.6-0.1-11.5c0-1.7-0.2-2-1.6-3.2
			c-2.2-0.3-3.2,1.4-4.5,2.8c0,4.6,0,9.2,0,13.8c0,0.4,0.3,0.8,0.5,1.2c0.6,0.3,1.1,0.6,2,1.2c-2.1,0.7-4,0.3-5.8,0.4
			c-1.8,0.1-3.6,0.1-5.4-0.1c0-0.3,0-0.5,0.1-0.6c1.6-0.6,2.1-1.7,2.1-3.4c-0.1-4.6,0-9.1,0-14c-0.4-0.4-0.9-0.9-1.2-1.2
			c-2.7-0.3-3.7,1.5-5,2.8c0,4.2,0,8.5,0,12.7C262.4,53.7,263.2,54.8,264.6,55.5z"/>
		<path d="M155.8,55.8c-3.6,0-7.1,0-10.8,0c0.3-1.1,1.5-1,2.1-2c0.2-5.6,0.1-11.6,0-17.7c-0.7-0.4-1.4-0.9-2.3-1.5
			c0.4-0.2,0.7-0.4,0.9-0.4c2.6,0,5.1,0,7.8,0c0.1,0.9,0.2,1.6,0.3,2.7c1.8-2.1,3.8-3.3,6.8-3.5c1.3,0.2,2.9,0.7,4,2.2
			c0.4,0.6,0.9,1.3,1,1.9c0.3,1.7,0.4,3.3,0.4,5c0.1,3.7,0,7.5,0,11.3c0.8,0.5,1.5,0.9,2.5,1.6c-2.1,0.7-4,0.3-5.8,0.3
			c-1.8,0-3.6,0.2-5.5-0.2c2.2-1.9,2.2-1.9,2.2-5.1c0-4.1,0-8.2,0-12.5c-0.6-0.5-1.3-1-1.9-1.5c-1.9,0.3-2.8,1.7-3.9,2.9
			c0,4.2,0,8.5,0,12.7c0,1.6,0.9,2.5,2.3,3.2C155.9,55.5,155.8,55.7,155.8,55.8z"/>
		<path d="M110,34.3c0,5.2,0,10,0,14.9c0,0.6-0.1,1.2,0,1.8c0.2,0.8,0.5,1.5,0.7,2.3c0.9,0,1.6,0.1,2.5,0.1c0.8-0.9,1.7-1.9,2.4-2.7
			c0-4.9,0-9.6,0-14.3c-0.3-0.3-0.7-0.7-1.1-1c-0.3-0.2-0.7-0.3-1.5-0.7c1.8-0.7,3.3-0.4,4.6-0.4c1.5-0.1,2.9,0,4.6,0
			c0,6.7,0,13.2,0,19.7c0.8,0.5,1.5,1,2.2,1.5c-0.2,0.2-0.3,0.4-0.3,0.4c-2.7,0-5.4,0-8.3,0c-0.1-0.8-0.2-1.6-0.3-2.4
			c-1,0.7-1.8,1.5-2.8,2.1c-1.9,1.2-4,1.3-6.1,0.4c-1.9-0.8-2.7-2.5-3-4.5c-0.6-3.8-0.3-7.6-0.4-11.4c0-1.2,0-2.4,0-3.7
			c-0.7-0.5-1.4-1-2.4-1.7c1.5-0.6,3-0.3,4.4-0.3C106.9,34.2,108.3,34.3,110,34.3z"/>
		<path d="M175.3,36.9c0.6,1.1,1.2,2.1,1.8,3c-0.9,2.5-1.6,3-3.6,2.8c-2.4-0.1-3.6-2.2-2.7-4.4c0.6-1.4,1.6-2.4,2.9-3.2
			c1.4-0.8,2.9-1.3,4.6-1.4c1.5-0.1,3-0.4,4.5,0c1.4,0.4,2.6,1,3.6,2c0.9,0.9,1.4,2,1.4,3.3c0,3.9,0,7.8,0,11.7c0,0.9,0,1.8,0.9,2.5
			c0.5-0.2,1.1-0.5,1.7-0.8c0.1,0.1,0.2,0.2,0.2,0.3c0,0.2,0,0.3,0,0.4c-1.7,2.5-4,3.2-7.3,2.5c-0.5-0.7-1.3-1.6-2.1-2.6
			c-1.2,0.7-2.5,1.5-3.9,2.3c-1.4,0.8-3,0.5-4.4,0.5c-1.5-0.6-2.3-1.7-2.8-3.1c-0.3-2.8,0.9-4.9,3.4-6.3c2.6-1.5,5.2-3,7.9-4.5
			c0.4-2.2,0.3-3.1-0.4-5.4C178.7,34.7,177.5,34.7,175.3,36.9z M181.4,44c-2.1,1-3.7,2.4-4.5,4c-1.2,2.3-0.7,3.5,2,4.5
			c0.8-0.5,1.7-1,2.5-1.4C181.4,48.5,181.4,46.4,181.4,44z"/>
		<path d="M99.8,44.9c0.2,3.2-0.7,6-2.6,8.3c-1.6,2-3.6,3.2-6.2,3.2c-1.3,0-2.7,0-3.9-0.2c-2.8-0.6-4.7-2.4-6-5
			c-2.9-5.5-1.1-12.1,2.3-15.2c1.3-1.2,2.8-1.9,4.6-2.2c3-0.6,5.4,0.3,7.8,1.8c1.5,1,2.5,2.5,3.1,4.1
			C99.5,41.4,100.1,43.2,99.8,44.9z M89.2,55c2.4-0.3,3.3-1.1,3.6-3.4c0.5-3.6,0.5-7.1,0.3-10.7c-0.1-2.1-0.2-4.3-2.4-5.6
			c-2.2-0.1-3.2,0.4-3.6,2c-0.3,1-0.5,2.1-0.5,3.2c-0.1,3.2,0,6.4,0,9.7C86.6,52.2,87.2,53.9,89.2,55z"/>
		<path d="M231.9,45.5c-0.2-3.1,0.5-5.5,2-7.7c2-3.2,5.1-4.5,8.6-4.2c4,0.3,7.1,2.3,8.7,6.4c1.5,4,1.4,7.8-0.6,11.6
			c-1.7,3.2-4.3,4.8-8,4.9c-2,0-4,0-5.7-1.2c-3-1.9-4.3-4.8-4.9-8.2C231.8,46.4,231.9,45.7,231.9,45.5z M241.1,35.2
			c-1.5,0.9-2.2,2.1-2.2,3.7c0,0.3,0,0.6,0,0.9c-0.6,3.9-0.6,7.9,0,11.8c0.3,1.8,1.2,2.9,2.8,3.4c1.3-0.2,2.2-1,2.9-2.1
			c0.1-0.9,0.4-1.9,0.5-2.9c0.1-3.3,0.1-6.6,0-9.9c0-0.8-0.2-1.6-0.4-2.4C244,35.7,243.4,35.3,241.1,35.2z"/>
		<path d="M190.4,24.9c1.7-0.4,6.7-0.4,9.2-0.1c0,9.5,0,19.1,0,28.3c0.6,1.3,1.5,2,2.9,2.2c-0.4,0.3-0.6,0.6-0.8,0.6
			c-3.5,0-6.9,0-10.4,0c-0.2,0-0.3-0.2-0.7-0.4c0.8-0.5,1.5-0.8,2.3-1.3c0.1-1.4,0.4-3,0.4-4.5c0.1-3.3,0.1-6.6,0-9.9
			c-0.1-4.4-0.3-8.8-0.5-13.4C192.2,25.9,191.3,25.4,190.4,24.9z"/>
		<path d="M230,40.2c-0.2,0.3-0.4,0.6-0.6,0.8c-0.2,0.3-0.5,0.5-0.9,0.8c-0.8,0-1.6,0-2.4,0c-1.5-0.7-2-2.2-2.2-3.7
			c-0.1-1-0.2-1.9-1.1-2.7c-1.1-0.4-2.1-0.1-2.7,1c-0.4,0.8-1,1.7-1.1,2.6c-0.2,3-0.4,6,0.9,8.9c0.5,1.1,1.1,2.2,1.9,3.2
			c1.9,2.4,4.4,2.4,7,0.6c0.4-0.3,0.9-0.7,1.6-1.3c-0.1,0.8,0,1.3-0.2,1.5c-1.1,1.2-2.2,2.4-3.5,3.3c-3.5,2.5-9.7,1.8-12.3-3
			c-1.2-2.2-1.6-4.4-1.7-6.9c-0.1-3.1,0.9-5.8,2.7-8.1c1.3-1.7,3.1-2.7,5.3-3.3c2-0.5,3.9-0.3,5.8,0.5C229.3,35.5,230.2,37,230,40.2
			z"/>
		<path d="M128.2,36.1c-0.9-0.5-1.6-0.9-2.3-1.3c1.2-0.7,4.5-0.8,8.8-0.4c0,1.3,0,2.7,0,4.4c1.2-1.3,2.1-2.4,3.1-3.4
			c1-1.2,2.4-1.6,3.9-1.9c0.6,0.2,1.2,0.4,1.7,0.6c1.9,2.8,1.4,4.8-1.5,6c-0.6-0.2-1.2-0.3-1.8-0.7c-0.5-0.3-0.9-0.7-1.3-1.1
			c-0.6,0-1.1,0-1.8,0c-0.4,0.7-1.1,1.3-1.3,2.1c-0.4,1.5-0.8,3.1-0.9,4.7c-0.1,2.7,0,5.4,0,8.1c0.6,1.4,1.6,1.9,3.1,2
			c-0.3,0.3-0.4,0.6-0.6,0.6c-3.7,0-7.5,0-11.3,0c0.3-1.1,1.5-0.9,2.2-2C128.8,48.2,128.6,42.2,128.2,36.1z"/>
		<path d="M270,72.1c-0.1-0.3-0.2-0.5-0.2-0.7c-0.2-2.3-0.4-4.5-0.5-6.7c0.8-0.6,1.5-0.4,2.3-0.3c0,1.7,0,3.4,0,5.5
			c1.2-2.1,2.1-3.9,3-5.5c1,0,1.8,0,2.5,0c0,1.8,0,3.4,0,5.3c1-2,1.9-3.7,2.8-5.4c0.8,0,1.4,0,2.3,0c-1.6,2.7-3.1,5.3-4.6,7.8
			c-0.5,0-0.8,0-1.2,0c-0.3,0-0.7-0.1-1.1-0.2c-0.4-1.6,0-3.3-0.3-5c-1,1.8-1.9,3.4-2.8,5.1C271.4,72.1,270.7,72.1,270,72.1z"/>
		<path d="M179.2,72c-0.7,0.1-1.3,0.1-1.9,0.2c-0.1-0.3-0.3-0.5-0.2-0.7c0.1-0.9,0.3-1.7,0.5-2.6c0.2-0.8,0.4-1.5,0.3-2.4
			c-1.1,1.7-2.2,3.5-3.3,5.2c-0.6,0-1.2,0-1.8,0c-0.2-1.7-0.5-3.3-0.8-5.4c-0.7,2.1-1.2,3.8-1.8,5.7c-0.6,0-1.2,0.1-2.1,0.1
			c0.9-2.7,1.7-5.2,2.6-7.8c1,0,1.9,0,2.9,0c1,1.5,0.2,3.2,0.8,5c1.2-1.8,2.2-3.4,3.2-5c1.1,0,2.1,0,3.2,0
			C180.2,67,179.7,69.5,179.2,72z"/>
		<path d="M210.6,54c-0.7,0.7-1.5,1.6-2.2,2.3c-3.6,0.2-5.1-0.9-5.3-3.5c-0.2-2.4,1.8-4.1,3.9-4C209.6,49,210.8,50.4,210.6,54z"/>
		<path d="M251.9,64.3c0.9,0,1.6,0,2.6,0c0.7,1.6,1.5,3.2,2.3,4.9c0.4-1.7,0.8-3.3,1.2-4.8c0.8,0,1.4,0,2.2,0c-0.7,2.6-1.3,5-2,7.6
			c-0.7,0.1-1.4,0.1-2.2,0.2c-0.9-1.9-1.7-3.7-2.6-5.7c-0.4,1.8-0.8,3.5-1.3,5.4c-0.6,0.1-1.2,0.1-2,0.2
			C250.4,69.4,251,66.8,251.9,64.3z"/>
		<path d="M85.6,72.3c-0.7-0.1-1.3-0.2-2-0.3c0.7-2.6,1.3-5,1.9-7.6c0.8,0,1.7,0,2.7,0c0.7,1.5,1.4,3.1,2.2,4.9
			c0.4-1.7,0.8-3.3,1.2-4.9c0.6,0,1.2,0,2.1,0c-0.7,2.7-1.3,5.2-1.9,7.7c-0.7,0-1.4,0-2.2,0c-0.8-1.7-1.6-3.4-2.6-5.5
			C86.5,68.7,86.1,70.3,85.6,72.3z"/>
		<path d="M104.2,66.2c0.1,3-0.8,4.7-2.8,5.5c-2.6,1.1-4.7,0.7-6.7-1.2c-0.7-1.4-0.5-2.9,0.5-4.2c0.9-1.2,2.2-1.9,3.8-2
			c1,0,2.1,0,3.2,0C102.8,64.9,103.5,65.5,104.2,66.2z M100.9,70.2c0.4-0.9,0.8-1.9,1.2-2.9c-0.4-0.6-0.7-1.1-1-1.6
			c-3.5-0.2-4.6,0.9-4.1,4.4c0.5,0.3,1.2,0.6,1.7,0.9C99.5,70.7,100.1,70.5,100.9,70.2z"/>
		<path d="M144.2,64.4c1,0,1.9,0,3,0c0.5,2.5,0.9,5.1,1.3,7.8c-0.9,0-1.5,0-2.3,0c-0.2-0.6-0.4-1.2-0.6-1.9c-0.8,0-1.7,0-2.6,0
			c-0.5,0.6-1.1,1.3-1.7,2c-0.6,0-1.1-0.1-2-0.1C141,69.4,142.6,66.9,144.2,64.4z"/>
		<path d="M128.8,67.4c0.3-1,0.6-1.9,0.9-3c0.6,0,1.3-0.1,2.3-0.2c-0.7,2.7-1.3,5.3-2,8c-0.8-0.1-1.4-0.1-2.2-0.2
			c0.3-1.2,0.5-2.1,0.7-3.2c-1.3,0-2.4,0-3.7,0c-0.3,1-0.5,1.9-0.9,3.1c-0.5,0.1-1.1,0.2-1.6,0.3c-0.7-0.6,0.3-5.2,1.6-7.8
			c0.6,0,1.2,0,1.9,0c-0.2,1-0.3,1.8-0.4,2.7C126.5,67.6,127.6,67.2,128.8,67.4z"/>
		<path d="M110.3,72.1c-0.3-1-0.5-1.9-0.7-2.8c-0.6-0.1-1-0.1-1.6-0.1c-0.4,1-0.7,2-1.1,3.1c-0.7,0-1.3-0.1-1.8-0.1
			c-0.1-0.3-0.2-0.4-0.2-0.4c0.6-2.4,1.2-4.8,1.9-7.2c1.8,0,3.4,0,5.6,0c0.3,0.3,0.8,0.9,1.3,1.4c-0.7,1.7-0.7,1.7-2.2,2.7
			c0.6,1.1,1,2.2,0.6,3.7C111.4,72.1,110.8,72.1,110.3,72.1z M108.2,68c1.1-0.3,1.9-0.5,2.7-0.8c-0.1-0.6-0.1-1-0.2-1.5
			c-0.8,0-1.4,0-2.2,0C108.4,66.4,108.3,67,108.2,68z"/>
		<path d="M138.7,70.8c-0.1,0.5-0.3,0.9-0.4,1.4c-2.1,0-4,0-6.3,0c0.6-2.6,1.2-5.1,1.9-7.7c2,0,3.9,0,6,0c0,0.3,0,0.6,0,1.2
			c-1.2,0-2.4,0-3.7,0c-0.2,0.6-0.4,1-0.7,1.7c1.3,0.1,2.5,0.1,3.7,0.2c-0.2,0.5-0.3,0.8-0.5,1.2c-1.1,0-2.2,0-3.3,0
			c-0.2,0.5-0.5,1-0.7,1.5C136,70.9,137.4,70.2,138.7,70.8z"/>
		<path d="M260.2,72.1c0.7-2.8,1.3-5.2,2-7.8c2-0.1,4-0.1,6.2,0c-0.2,0.5-0.3,0.9-0.5,1.3c-1.2,0-2.4,0-3.6,0
			c-0.2,0.5-0.4,1-0.7,1.6c1.3,0.1,2.3,0.1,3.5,0.2c0,0.4,0,0.7,0,1.2c-1.2,0-2.3,0-3.5,0c-0.2,0.6-0.4,1.2-0.7,1.8
			c1.3,0.1,2.5,0.1,3.9,0.2c-0.1,0.5-0.1,0.9-0.2,1.4C264.5,72.4,262.4,72.2,260.2,72.1z"/>
		<path d="M236,64.3c2.3,0.2,4.5-0.7,6.3,1c0.3,2.5-0.5,3.6-3,3.9c-0.7,0.1-1.4,0.1-2.2,0.1c-0.3,0.9-0.6,1.8-0.9,2.8
			c-0.7,0-1.3,0-2.1,0C234.7,69.5,235.4,67,236,64.3z M237.8,65.7c-0.1,0.7-0.1,1.3-0.2,2.3c1.1-0.3,1.8-0.5,2.7-0.7
			c-0.1-0.7-0.2-1.1-0.2-1.6C239.3,65.7,238.6,65.7,237.8,65.7z"/>
		<path d="M227.4,64.3c2.4,0.3,5-0.9,6.7,1.7c-0.7,2.7-1.4,3.1-5.6,3.3c-0.3,0.8-0.6,1.7-0.9,2.6c-0.7,0.5-1.3,0.5-2.2-0.1
			C226.1,69.4,226.7,66.9,227.4,64.3z M231.9,66.6c-1-1-1.9-1.2-2.6-0.6c-0.1,0.5-0.3,1.1-0.5,1.8c0.9,0,1.5,0,2.1,0
			C231.2,67.3,231.6,66.9,231.9,66.6z"/>
		<path d="M205,71.6c0.2-0.5,0.4-0.8,0.6-1.2c0.9,0.2,1.7,0.3,2.8,0.5c0.3-0.2,0.8-0.4,1.4-0.7c-0.1-0.3,0-0.6-0.1-0.7
			c-0.5-0.4-1.2-0.6-1.7-1c-0.6-0.4-1.2-1-1.8-1.4c0.7-2.3,1.3-2.8,3.2-2.8c1.1,0,2.2,0,3.5,0.1c-0.3,0.6-0.5,0.9-0.6,1.2
			c-1.3,0.4-2.6-0.4-3.8,0.7c0.9,1.5,3.5,1.2,3.7,3.4C211.2,72.2,209,72.9,205,71.6z"/>
		<path d="M220.9,64.5c-0.2,0.4-0.4,0.7-0.6,1c-1.1,0.1-2.2,0.2-3.3,0.3c-0.2,0-0.3,0.3-0.5,0.5c0.8,1.6,3.6,1,3.7,3.4
			c-1.1,2.5-3.5,3.2-7.2,1.9c0.1-0.3,0.3-0.7,0.5-1.2c0.9,0.1,1.8,0.3,2.9,0.4c0.3-0.2,0.8-0.5,1.3-0.7c-0.1-0.3-0.1-0.6-0.3-0.7
			c-0.5-0.3-1-0.5-1.5-0.8c-0.6-0.4-1.2-0.8-1.7-1.2c0-1.8,0.6-2.7,2.1-3C217.8,64.2,219.3,64.1,220.9,64.5z"/>
		<path d="M149.4,71.5c0.1-0.2,0.1-0.4,0.2-0.6c0.1-0.2,0.3-0.3,0.5-0.5c0.7,0.1,1.4,0.3,2.2,0.5c0.5-0.2,1.1-0.4,1.8-0.7
			c-0.5-1.9-2.8-1.4-3.5-3.4c0-0.2,0-0.9,0.4-1.3c0.5-0.5,1.3-1,2-1.1c1.3-0.2,2.6-0.1,4.1-0.1c-0.2,0.5-0.3,0.9-0.5,1.3
			c-0.6,0-1.3,0-1.9,0c-0.7,0-1.4-0.1-1.8,0.8c1.1,0.7,2.3,1.5,3.4,2.2c0,0.7,0,1.4,0,1.9C155.3,72.3,152.1,72.6,149.4,71.5z"/>
		<path d="M192.9,71.6c0.3-0.4,0.5-0.7,0.8-1.1c0.8,0.2,1.5,0.3,2.5,0.5c0.5-0.2,1-0.5,1.7-0.8c-0.7-1.6-2.8-1.3-3.5-3.1
			c0-0.2-0.1-0.9,0.3-1.2c0.5-0.6,1.2-1.1,2-1.3c1.3-0.2,2.6-0.3,4,0.1c-0.1,0.4-0.1,0.8-0.2,1c-1.3,0.5-2.6-0.4-3.8,0.7
			c0.7,1.4,2.6,1.3,3.4,2.8c0,0.4,0,1,0,1.5C199,72.2,196.2,72.6,192.9,71.6z"/>
		<path d="M192.9,64.3c-0.2,0.5-0.3,0.9-0.4,1.2c-1.2,0.6-2.7-0.4-3.9,0.9c1.2,0.8,2.4,1.6,3.5,2.4c0,0.8,0,1.3,0,2
			c-2.2,1.8-4.5,1.9-7.1,0.9c0.3-0.4,0.5-0.8,0.8-1.2c0.8,0.2,1.5,0.3,2.3,0.5c0.5-0.2,1.1-0.4,1.7-0.6c-0.1-0.3,0-0.6-0.1-0.7
			c-0.4-0.3-0.8-0.6-1.2-0.9c-0.7-0.4-1.3-0.8-2.2-1.4c0.2-0.7,0.1-1.5,0.5-1.8c0.6-0.6,1.4-1.1,2.2-1.2
			C190.3,64.2,191.5,64.3,192.9,64.3z"/>
		<path d="M288.9,64.3c-0.1,0.6-0.1,0.9-0.2,1.2c-1.3,0.6-2.6-0.4-3.8,0.8c0.7,1.5,2.8,1.2,3.4,2.9c-0.1,1.7-0.3,2.2-1.8,2.7
			c-1.7,0.6-3.4,0.6-5.2-0.3c0.2-0.4,0.4-0.7,0.6-1.2c0.8,0.2,1.6,0.3,2.5,0.5c0.5-0.2,1-0.5,1.7-0.8c-0.7-1.6-2.8-1.2-3.6-2.8
			c0.1-0.6,0.1-1.4,0.5-1.8c0.5-0.6,1.3-1,2-1.2C286.3,64.2,287.5,64.3,288.9,64.3z"/>
		<path d="M117.7,72.1c-0.6,0-1.2,0.1-1.7,0.1c-0.1-0.3-0.3-0.5-0.2-0.7c0.4-1.8,0.8-3.7,1.3-5.7c-0.8-0.1-1.5-0.2-2.4-0.3
			c0-0.3,0-0.7,0-1.2c2.6-0.1,5.1,0,7.8-0.1c0,0.5,0,0.8-0.1,1.3c-1,0.1-1.8,0.1-2.8,0.2C118.9,67.7,118.3,69.8,117.7,72.1z"/>
		<path d="M160.8,65.8c-1-0.1-1.8-0.2-2.7-0.3c0.2-0.5,0.3-0.8,0.5-1.2c2.4,0,4.8,0,7.3,0c0,0.3,0.1,0.6,0.1,1.1
			c-1,0.1-1.9,0.2-2.9,0.2c-0.6,2.1-1.1,4.2-1.7,6.2c-0.5,0.1-0.7,0.2-1,0.2c-0.3,0-0.6,0-0.9-0.1c-0.1-0.3-0.2-0.5-0.2-0.6
			C159.9,69.7,160.3,67.8,160.8,65.8z"/>
		<path d="M203,64.4c0.8,0,1.4,0,2,0c0.1,0.1,0.1,0.3,0.1,0.4c-0.6,2.4-1.2,4.8-1.7,7.1c-0.8,0.5-1.5,0.5-2.3-0.1
			C201.7,69.4,202.4,67,203,64.4z"/>
		<path d="M221.1,72.3c0.7-2.9,1.2-5.3,1.8-7.9c0.8,0,1.5,0,2.3,0c-0.6,2.5-1.2,5-1.9,7.6C222.7,72.1,222.1,72.2,221.1,72.3z"/>
		<path d="M183,72.3c-0.5-0.1-1.2-0.2-1.9-0.3c0.7-2.6,1.3-5,1.9-7.5c0.6,0,1.2-0.1,1.7-0.1C185.3,64.9,184.1,70.1,183,72.3z"/>
		<path d="M244.8,64.3c0.5,0,0.9,0,1.3,0c0.2,0,0.4,0.1,0.8,0.1c-0.6,2.5-1.3,5-1.9,7.5c-0.4,0.1-0.6,0.3-0.9,0.3
			c-0.3,0-0.7,0-1.3-0.1C243.3,69.4,244,67,244.8,64.3z"/>
	</g>
</g>
<g id="Layer_1">
</g>
</svg>
