<?xml version="1.0" encoding="utf-8"?>
<!-- Generator: Adobe Illustrator 18.0.0, SVG Export Plug-In . SVG Version: 6.00 Build 0)  -->
<!DOCTYPE svg PUBLIC "-//W3C//DTD SVG 1.1//EN" "http://www.w3.org/Graphics/SVG/1.1/DTD/svg11.dtd">
<svg version="1.1" xmlns="http://www.w3.org/2000/svg" xmlns:xlink="http://www.w3.org/1999/xlink" x="0px" y="0px"
	 viewBox="0 0 300 100" style="enable-background:new 0 0 300 100;" xml:space="preserve">
<style type="text/css">
	.st0{fill-rule:evenodd;clip-rule:evenodd;}
	.st1{fill-rule:evenodd;clip-rule:evenodd;fill:#C038F9;}
	.st2{fill:none;}
	.st3{fill-rule:evenodd;clip-rule:evenodd;fill:#231F20;}
</style>
<g id="Layer_2">
</g>
<g id="Layer_1">
	<g id="CuWm27_1_">
		<g>
			<path d="M77,20.8c4.3,1.6,7.1,4.6,7.9,9.1c0.6,3.2,0.5,6.5,0.8,9.9c-3.1,0-5.9,0-8.9,0c-0.1-1.9-0.1-3.8-0.3-5.6
				c-0.1-1.3-0.3-2.6-0.7-3.9c-0.6-1.8-1.8-2.4-4.4-2.3c-2,0-3.2,0.7-3.6,2.4c-0.5,2-0.9,4-0.9,6.1c-0.1,9.4,0,18.9,0.1,28.3
				c0,1.4,0.3,2.8,0.7,4.2c0.5,1.9,1.6,2.6,3.9,2.7c2,0.1,3.5-0.7,4.1-2.4c0.5-1.6,0.7-3.2,0.8-4.9c0.1-2,0-3.9,0-6.1
				c1.7,0,3.1,0,4.5,0c1.4,0,2.8,0,4.2,0c0,3,0.2,6,0,8.9c-0.4,5.7-4.3,11.8-11.8,12.5c-0.2,0-2.9,0-3.1,0c-6.8-1-11-5.1-11.7-11.9
				c-0.4-3-0.3-6.1-0.4-9.2c0-0.4,0.1-22.5,0.2-24.7c0.2-5,2-9.2,6.4-11.9C68.5,19.8,75.7,20.3,77,20.8z"/>
			<path d="M215.8,78.8c-3,0-5.9,0-8.8,0c-0.6-3.3-2.1-12.7-2.1-12.7c-1.8,0-7.3,0-9.1,0c0,0-1.5,7.7-2,11c-0.1,0.5-0.2,1.1-0.3,1.7
				c-2.9,0-5.7,0-8.5,0c0.7-4.4,1.4-8.7,2.1-13c2.4-14.5,7.7-45.1,7.7-45.1c3.2,0.1,7.7,0.1,11,0.1C209,40.1,212.4,59.4,215.8,78.8z
				 M203.5,57.9c-1.1-7.4-2.2-14.6-3.3-21.9c-0.1,0-0.3,0-0.4,0c-1,7.3-2.1,14.5-3.1,21.9C199,57.9,201.1,57.9,203.5,57.9z"/>
			<path d="M116.9,78.8c-3,0-5.9,0-8.8,0c-0.6-3.3-2.1-12.7-2.1-12.7c-1.8,0-7.3,0-9.1,0c0,0-1.5,7.7-2,11c-0.1,0.5-0.2,1.1-0.3,1.7
				c-2.9,0-5.7,0-8.5,0c0.7-4.4,1.4-8.7,2.1-13c2.4-14.5,7.7-45.1,7.7-45.1c3.2,0.1,7.7,0.1,11,0.1
				C110.2,40.1,113.5,59.4,116.9,78.8z M104.7,57.9c-1.1-7.4-2.2-14.6-3.3-21.9c-0.1,0-0.3,0-0.4,0c-1,7.3-2.1,14.5-3.1,21.9
				C100.1,57.9,102.2,57.9,104.7,57.9z"/>
			<path d="M128.5,54.6c0,2,0,3.6,0,5.2c0,5.9,0,11.8,0,17.7c0,1.1-0.3,1.4-1.4,1.4c-2.4-0.1-4.8,0-7.3,0c0-19.4,0-38.6,0-57.9
				c0.1-0.1,0.2-0.1,0.2-0.1c5.2,0,10.4-0.2,15.6,0.2c5.8,0.4,9.2,3.5,10.5,9.2c1.2,5.3,1.2,10.7-0.2,16c-1.3,5.1-4.8,8-10,8.4
				C133.6,54.8,131.1,54.6,128.5,54.6z M128.6,46.7c1.7,0,3.3,0.1,4.9,0c2.7-0.2,4.1-1.5,4.6-4.2c0.6-3.2,0.5-6.4-0.1-9.6
				c-0.3-1.6-1.1-2.9-2.7-3.5c-2.2-0.8-4.4-0.5-6.7-0.5C128.6,34.9,128.6,40.7,128.6,46.7z"/>
			<path d="M161.9,20.8c9.1,0,18.1,0,27.1,0c0,2.6,0,5.2,0,8c-3,0-6.1,0-9.3,0c0,16.7,0,33.3,0,49.9c-2.9,0-5.7,0-8.7,0
				c0-16.6,0-33.2,0-49.9c-3.1,0-6.1,0-9.1,0C161.9,26.1,161.9,23.5,161.9,20.8z"/>
			<path d="M218.8,20.8c2.9,0,5.6,0,8.5,0c0,16.6,0,33.2,0,49.9c4.9,0,9.6,0,14.4,0c0,2.7,0,5.3,0,8c-7.6,0-15.2,0-22.9,0
				C218.8,59.5,218.8,40.2,218.8,20.8z"/>
			<path d="M158.7,78.8c-2.9,0-5.6,0-8.5,0c0-19.3,0-38.6,0-57.9c2.8,0,5.6,0,8.5,0C158.7,40.1,158.7,59.4,158.7,78.8z"/>
		</g>
	</g>
</g>
</svg>
