<?xml version="1.0" encoding="utf-8"?>
<!-- Generator: Adobe Illustrator 18.0.0, SVG Export Plug-In . SVG Version: 6.00 Build 0)  -->
<!DOCTYPE svg PUBLIC "-//W3C//DTD SVG 1.1//EN" "http://www.w3.org/Graphics/SVG/1.1/DTD/svg11.dtd">
<svg version="1.1" xmlns="http://www.w3.org/2000/svg" xmlns:xlink="http://www.w3.org/1999/xlink" x="0px" y="0px"
	 viewBox="0 0 300 100" style="enable-background:new 0 0 300 100;" xml:space="preserve">
<style type="text/css">
	.st0{fill-rule:evenodd;clip-rule:evenodd;}
	.st1{fill-rule:evenodd;clip-rule:evenodd;fill:#C038F9;}
	.st2{fill:none;}
	.st3{fill-rule:evenodd;clip-rule:evenodd;fill:#231F20;}
</style>
<g id="Layer_2">
</g>
<g id="Layer_1">
	<g id="IEIqsH_1_">
		<g>
			<path d="M219.1,91.8c-0.4-2.9-0.2-5.8,0.5-8.8c2.8-12.3,5.5-24.6,8.2-36.9c0-0.1-0.1-0.2-0.3-0.5c-2.5-0.7-5.3,0.4-7.9-0.7
				c-0.2-0.1-0.3-0.4-0.5-0.8c3-0.7,6.1,0,9.2-0.4c1.2-5.6,2.5-11.2,3.8-17c2.8,0.2,5.3-0.5,7.9,0.7c-1.3,5.5-2.5,10.8-3.8,16.5
				c7.5,0,14.7,0,22.4,0c-1.6,8.2-3.5,15.9-5.1,23.7c-1.6,7.7-4.2,15.1-4.3,22.5c-0.1,1.6,2.5,1.7,3.6,1.4c3.4-1.8,3.9-5.8,7.1-8.8
				c-1,4.5-3.4,7.2-5.6,10c-1.1,1.3-7.3,5.5-11.9,0.6c-1.8-2.4-1.6-5.2-1-7.8c2.8-12.4,5.7-24.8,8.5-37.2c0.2-0.9,0.6-1.9-0.3-2.7
				c-3.8-0.5-7.6,0.3-11.4-0.5c-0.7-0.1-1.9,0.3-2.5,1.4c-3.1,14.1-6.3,28.4-9.4,42.3c0.1,1.9,0.7,2.1,1.5,2.7
				c1.9,0.5,3.2-0.2,4.3-1.6c1.2-1.5,2.5-2.9,3.2-4.7c0.3-0.7,0.4-1.6,1.5-1.5c-0.5,4-3.6,8.3-7.4,10.6
				C228.6,94.7,222.3,98.6,219.1,91.8z"/>
			<path d="M139.6,95.4c-7.3-0.9-9.8-8.2-8.8-15.6c1-7.3,2.3-14.5,4.8-21.4c1.7-4.6,3.6-9.2,7.4-12.5c3.7-3.2,8.2-3.5,12.7-2.6
				c1.5,0.3,2.7,1.3,3.5,2.6c0.4,0.7,0.6,1.5,1.5,1.8c0.5-1.3,0.9-2.5,1.4-3.8c2.6,0,5,0,7.7,0c-1.8,7.9-3.7,15.6-5.2,23.3
				c-1.5,7.7-4,15.2-4.5,22.6c1,1.9,2.2,1.9,3.7,1.7c1.5-1,2.7-2.4,3.8-4c0.9-1.3,0.9-3.4,3.3-4.4c-1.5,5-3.7,8.6-7.7,11.1
				c-0.8,0.5-11.3,4.9-11.3-6.4c-2.1,3.7-4.7,5.7-7.8,7C143.8,95.1,142.7,95.7,139.6,95.4z M157.3,46.2c-2.7-2.2-5-1.7-7.4-0.1
				c-1.8,1.2-2.7,3-3.6,4.8c-2,4-2.9,8.4-4.1,12.7c-1.6,6-2.7,12.1-3.6,18.3c-0.5,3.4-0.6,6.4,1.4,9.3c3.8,1.7,5.8,1.5,8.4-1.4
				c2-2.2,3.5-4.9,4.5-7.7c1.9-5.5,3-11.2,4.3-16.9c1-4.7,1.7-9.3,1.7-14.1C158.9,49.4,158.6,47.7,157.3,46.2z"/>
			<path d="M200.5,95c-4.2-1.4-4.4-5.3-3.7-9c1.6-7.7,3.4-15.4,5.1-23c0.7-3.3,1.6-6.6,2.1-9.9c0.3-1.7,0.3-3.6-0.1-5.3
				c-3.3-2.9-5-2.9-8.2-0.2c-2.9,2.5-4.6,5.7-5.8,9.3c-1.9,5.4-2.7,11-4,16.6c-1.5,6.5-2.9,13-4.4,19.4c-0.1,0.4-0.4,0.7-0.8,1.1
				c-2.2,0-4.5,0-7.2,0c0.3-4.1,1.8-7.9,2.4-11.9c0.6-4.2,2.1-8.1,2.7-12.3c0.6-4,1.8-7.9,2.7-11.9c0.9-4,1.8-7.9,2.7-12
				c-2-1.6-5.1,0.9-7.2-1.9c5.3,0,10.3,0,15.4,0c0.8,1.9-1.3,3.4-0.3,5.4c1.4-1.8,3-3.3,4.8-4.6c2.9-2.2,6.2-2.2,9.4-1.5
				c4.2,0.9,6.8,5.4,5.9,9.8c-1.3,6.1-2.6,12.2-4,18.3c-1.2,5.6-2.5,11.1-3.8,17c0.2,0.9,0.4,2,1.3,2.9c1,0.7,1.9,0.3,2.8,0.3
				c2.8-2.1,3.9-5.2,5.6-8.1c1.4,0.6,0.8,1.5,0.5,2.1c-1.8,3.8-3.9,7.2-7.9,9C206.1,94.7,203.5,96.1,200.5,95z"/>
			<path d="M109.2,93.6c-2-2.2-1.9-4.8-1.4-7.2c2.5-11.6,5.3-23.3,7.9-34.9c2.6-11.6,5.1-23.3,7.6-35c0.6-2.8,1.8-5.4,1.7-8.4
				c-2.1-1-4.4,0.1-6.9-0.9c2.7-1,5.2-0.4,7.5-0.5c2.4-0.1,4.9,0,7.2,0c1,2.3-0.1,4-0.5,5.8c-2.1,9.7-4.4,19.3-6.5,29
				c-2.2,9.9-4.4,19.8-6.6,29.8c-1,4.6-2.2,9.2-3.2,13.9c-0.4,1.7-0.4,3.5-0.1,5.2c0.5,0.8,1.1,1.4,2,1.3c1.3-0.1,2.4-0.7,3.2-1.7
				c0.9-1.2,1.6-2.5,2.4-3.8c0.6-0.9,0.7-2.1,1.8-2.6c0.7,0.5,0.5,1.2,0.2,1.8c-1.8,4.1-4.2,7.7-8.6,9.4
				C116.6,95,112.1,96.4,109.2,93.6z"/>
			<path d="M85.3,93.5c-2.1-2.4-1.9-5.3-1.3-8.1c2.8-13,5.8-25.9,8.7-38.9c0.1-0.2-0.1-0.5-0.3-1.1c-2.5-0.1-5.2-0.2-7.7-0.3
				c-0.2-1.4,0.6-1.4,1.2-1.4c2.3,0,4.7,0,7.3,0c1.3-5.7,2.6-11.3,3.9-17c2.6,0,5.2,0,7.9,0c-1.2,5.6-2.3,11-3.5,16.6
				c2.9,0.9,5.7-0.1,8.6,0.8c-2.8,2.3-5.8,0.6-8.7,1.4c-0.7,0.6-1,1.6-1.2,2.7c-1.8,8.1-3.5,16.2-5.3,24.2c-0.9,4.2-2,8.4-2.8,12.7
				c-0.3,1.7-0.5,3.5,0,5.1c0.9,1.5,2.1,1.4,3.4,1.2c3-1.9,4.3-5.1,6-8.6c0.3,1,0.6,1.5,0.5,1.7c-1.6,4.1-3.5,8-8,9.8
				C93.3,94.7,88.5,96.7,85.3,93.5z"/>
			<path d="M296.6,56.5c-1.8,0.8-3.3,1.3-4.5,0.5c-3.3-3.3-0.4-6.4,0.1-9.8c0.1-0.8-0.1-1.4-1.2-2.3c-1.9-1.1-3.7-1.3-5.5-0.2
				c-3.8,2.6-6.1,6.1-7.7,10.4c-2.6,7.3-4.6,14.8-6,22.4c-0.6,3.5-0.9,7.4,0.4,11c1.2,3.3,4.2,4.8,7.5,3.6c3.9-1.3,6.1-4.4,8.1-7.7
				c0.6-1,1.2-2.2,1.7-3.3c0.3-0.6,0.6-0.8,1.2-0.8c0.5,0.4,0.5,0.9,0.2,1.4c-1.6,2.8-2.7,6-5,8.4c-2.2,2.3-4.7,4.2-7.8,5
				c-0.4,0.1-3.2,0.3-6.9-0.5c-5.9-1.4-7.5-6-7.8-11.1c-0.4-6.1,1.1-12.1,2.8-18c1.4-4.9,2.9-9.9,5.7-14.3
				c4.1-6.4,11.7-9.7,19.1-7.9c3.2,0.8,4.7,2,6.9,5.6C298.8,50.2,297.6,55.9,296.6,56.5z"/>
			<path d="M54.8,93c2.8-0.4,5.3,0.3,7.8-0.3c0.7-2.7,1-32.6,0.2-38.4c-7.1,0-14.2,0-21.7,0c-8.7,12.5-17.6,25.4-26.7,38.6
				c3.4,0.6,6.7-0.6,9.8,0.7c-2.4,0.9-16.3,1-22.2,0.2c3.2-1.1,6-0.2,9-0.7C31.6,63,52.2,32.8,72.9,2.7c0.4,0.2,0.6,0.2,0.6,0.3
				c0.1,0.1,0.2,0.2,0.2,0.3c0,0.1,0,0.3,0,0.4c0,29.4,0.1,58.7,0.1,88.1c0,0.1,0.1,0.2,0.2,0.4c1.9,1.3,4.7-0.8,6.6,1.8
				c-8.6,0-16.9,0-25.3,0C55.2,94,55.1,93.6,54.8,93z M63.2,52.8c0-10.3,0-20.2,0-31c-7.3,10.7-14,20.6-20.7,30.4
				c0.4,0.3,0.6,0.6,0.8,0.6C49.8,52.8,56.2,52.8,63.2,52.8z"/>
			<path d="M19.1,51.9c0.7,1.3,1.4,0.2,2.1,0.7c-0.3,1.7-1.8,1.4-2.7,1.9c-0.9-0.4-1.4-0.9-1.8-1.7c0.3-4.3,2.1-8.3,2.1-12.7
				c-2.6-0.2-3.3,0.2-4,2.3c-0.7,2-1.4,4.1-1.6,6.3c-0.2,1.6-0.8,3.1-1.2,4.7c-0.6,0.5-1.2,0.5-2,0c0.7-8.9,4.9-17.4,4.7-26.8
				c0.8-0.1,2-0.3,3.4,0.4c-0.8,3.8-1.7,7.5-2.5,11.2c1.3,1.5,2-0.8,2.7-0.2c1.3,0.2,2.1,0.7,3,1.4C21.9,43.8,19.4,47.7,19.1,51.9z"
				/>
			<path d="M261.7,27.1c0.2,5.2-0.2,5.9-4.5,7.7c-1.3-0.3-2.6-0.7-3.5-2.1c-0.4-1.4-0.3-3-0.1-4.6C256.9,24.2,258.5,24,261.7,27.1z"
				/>
			<path d="M29.3,39c1.3-1.4,2.6-1,3.7,0c0.8,1.3,0.4,2.5,0.4,3c-1.6,4.3-6.1,4.4-8,7c-0.3,1.7,0.3,2.7,1,3.7
				c0.6,0.3,1.2,0.4,1.7,0.1c0.9-0.6,1.8-1.4,3-2.4c-1.4,2.9-1.4,2.9-4.4,4.1c-1,0.1-1.8-0.6-2.8-1.1c-0.3-1.2-1.2-2.4-1-3.8
				c0.6-3.8,1.5-7.5,4.7-10.1c0.6-0.5,1.2-0.7,1.9-0.6c-1.4,2.2-2.6,4.6-3.4,7.3c2.2,0.1,2.9-1.9,4.3-2.1c0.8-1.7,2.2-3.1,1-5.1
				C30.7,39,30,39,29.3,39z"/>
			<path d="M4.5,54.5c-0.9-0.5-1.6-1-2-1.9c0.9-4.1,1.8-8.3,2.8-12.5C4.9,39.5,4.5,39,4,38.5c0.5-0.4,1.4-0.3,1.7-1
				c1.1-1.2-0.2-4.1,2.9-4.3c0.4,1.7,0.2,3.1-0.4,4.5c0.4,0.8,1.3,0.3,1.8,0.8c-0.3,0.8-1.1,0.3-1.8,0.8c-1.4,4.1-2.4,8.6-2.9,13.1
				c1.3,0.7,1.4-0.8,2.2-0.7C7.3,53.3,7.4,53.3,4.5,54.5z"/>
		</g>
	</g>
</g>
</svg>
