<?xml version="1.0" encoding="utf-8"?>
<!-- Generator: Adobe Illustrator 18.0.0, SVG Export Plug-In . SVG Version: 6.00 Build 0)  -->
<!DOCTYPE svg PUBLIC "-//W3C//DTD SVG 1.1//EN" "http://www.w3.org/Graphics/SVG/1.1/DTD/svg11.dtd">
<svg version="1.1" xmlns="http://www.w3.org/2000/svg" xmlns:xlink="http://www.w3.org/1999/xlink" x="0px" y="0px"
	 viewBox="0 0 300 100" style="enable-background:new 0 0 300 100;" xml:space="preserve">
<style type="text/css">
	.st0{fill-rule:evenodd;clip-rule:evenodd;}
	.st1{fill-rule:evenodd;clip-rule:evenodd;fill:#C038F9;}
	.st2{fill:none;}
	.st3{fill-rule:evenodd;clip-rule:evenodd;fill:#231F20;}
</style>
<g id="Layer_2">
</g>
<g id="Layer_1">
	<path class="st0" d="M65,64.6l-0.4-0.4c-2,2.2-2.9,2.8-4.5,2.8c-1.1,0-2.5-0.7-4.3-2.5v-5.2l9.2-7l-6.3-6.2
		c-2.7,2.2-3.2,2.6-5.2,4.1c-1.1,0.8-1.7,1.2-2.4,1.5c0.1,0.8,0.2,1.9,0.2,2.6V66c-1.1,1-2.1,1.5-2.9,1.5c-1,0-1.8-0.6-1.8-1.7V50.1
		c-0.6-2-1.8-3.3-4.2-4.1l-5.8,4.7v-11c0-1.6,0.9-3,1.7-3.4v-0.2c-2.4,0-4,1.6-4.7,3.3l-1-2.1l-0.4,0.1v28.1
		c-2.3,1.2-4.8,2.6-7.5,2.6c-0.5,0-1,0-1.5-0.1V44c1.2,0.1,2,0.2,2.7,0.2c1.1,0,1.8-0.2,2.3-0.4l3.2-6.4l-0.5-0.1
		C29.6,39.6,29,40,26.4,40c-1.2,0-3.9-0.3-6.6-0.7c-2.6-0.3-5.2-0.6-6.5-0.6c-4,0-6.3,2.7-6.3,5.6c0,1.1,0.4,2.3,1.1,3.3l0.4-0.3
		c-0.5-0.6-0.8-1.5-0.8-2.1c0-1.2,0.9-2.2,3.3-2.2c1,0,4.4,0.3,7.5,0.6C15,45.3,12,47.2,8.4,49.9c-1.5,2-2.3,4.7-2.3,7.4
		c0,6.9,5.2,14.4,16.8,14.4c3.4-1.9,8.4-4.8,8.4-4.8L36,71l3.2-3.2l-2.5-2.6V51.9c1.1-1.5,2.3-2.1,3.3-2.1c1.1,0,2.1,0.8,2.4,2.1V68
		c0.4,1.4,2,2.6,3.6,3.1l5.7-4.3l6.6,4.5L65,64.6L65,64.6z M61,54.3l-5.2,4.2v-9l0.2-0.2L61,54.3L61,54.3z M22.6,67.9
		c-3.2-0.4-6-1.6-8-3.5c3.9-2.9,4.8-4.5,4.8-7.7v-13l0.1-0.1c1.3,0.1,2,0.2,3,0.3V67.9L22.6,67.9z M15.3,59.9c0,1.9-0.3,3.1-1.4,4
		c-2.4-2.4-3.6-5.9-3.6-9.8c0-2.1,0.4-3.8,1.1-5c1.3-1.1,2.8-2.2,3.8-2.8v4.9V59.9L15.3,59.9z"/>
	<path class="st0" d="M122.6,49.9l-7.3-4c-2.3,2.2-5.1,4-8.4,5.8c0.5,1.4,0.3,3.1,0.3,5.2c0,5.3,0.1,8.2-0.9,9.6l8.1,5
		c2.2-2.3,4.6-4.1,7.9-5.9c-0.3-0.8-0.3-1.7-0.3-2.4v-9.1C122,51.5,122.3,50.5,122.6,49.9L122.6,49.9L122.6,49.9z M104.3,55.5
		l-5.7-3.8c2.2-1.3,2.9-1.7,3.7-2.3c1.3-0.9,1.7-1.5,1.7-2.1c0-0.4-0.2-1.2-1.2-2.8c-1.3-1.9-2.5-3.8-5.1-7.3
		c-3.6,2.4-5.5,3.9-9.3,6.8c-1.6,1.2-2.7,3.2-2.7,5.6c0,0.8,0.1,5.1,0.1,7.9c0,2.2-0.4,3.3-2.7,5.3c-5.5,0-8.9,3.6-8.9,7.2
		c0,1.5,0.5,3.1,1.7,4.4l0.4-0.4c-0.7-0.8-1.3-2-1.3-3.4c0-1.9,1.4-4,5.8-4c4.8,0,9.4,3.3,12,4.9c3.8-3.2,6.2-4.5,11-6.1v-8.1
		C103.8,56.6,104,56,104.3,55.5L104.3,55.5L104.3,55.5z M91,39.3l-0.1-0.4c-2.7,0-4.2-0.3-5.6-0.6c-1.4-0.2-2.5-0.4-4.1-0.4
		c-4.2,0-7,2.2-7,5.7c0,1.5,0.3,2.3,1.3,3.4l0.4-0.4c-0.5-0.6-0.8-1.3-0.8-2c0-1.5,1.3-2.9,4.1-2.9c2.1,0,4,0.4,5.7,0.8
		c-3.6,2.6-5.7,4.5-5.7,10.1c-0.5-0.2-1.2-0.3-2.2-0.3c-2.7,0-4.1,1.8-4.1,3.5c0,0.8,0.2,1.6,0.7,2.2l0.5-0.2
		c-0.2-0.4-0.3-0.8-0.3-1.2c0-1.1,0.9-2,2.6-2c1.5,0,2.6,0.7,3,1.6c0,3.9-0.8,5.9-2.8,5.9v0.4c3.1,0,6.8-2.2,6.8-5.8v-7.2
		C83.3,43.5,86.7,40.8,91,39.3L91,39.3L91,39.3z M117.4,68.2l-0.2,0.2l-5.1-3V49.1l5.3,3V68.2L117.4,68.2z M99.4,49.3
		c0,1.4-1.3,2.1-5.6,4.8V50c0-2,0.1-3.2,0.2-4h-0.9c0.1,0.9,0.2,2,0.2,4v16.3c-2.7-1.6-6-3.3-9.4-3.5c3.3-1.9,6.5-4.4,6.5-8v-8
		c0-2.6,1-4.1,3.7-6.4c2.1,3.1,2.9,4.5,4.6,7.3C99.1,48.3,99.4,49,99.4,49.3L99.4,49.3L99.4,49.3z M98.6,57.3l-0.1,9.2
		c-1,0.5-1.6,0.8-2.5,1.5c-0.7-0.4-1.4-0.9-2.3-1.4V54.7L98.6,57.3L98.6,57.3z"/>
	<path class="st0" d="M192.3,66.8l-0.5-0.5l-2.2,1.9c-1.1,0-1.8-0.8-1.8-2c0-1.1,0.1-13.7,0.1-15.9c-0.8-1.7-1.9-2.9-4.3-3.8
		l-5.8,4.3c0-1.8-1-3.4-3-4.4l-3.4,2.9l1.8,1.9c0,0-0.1,11.3-0.1,13.1c0,1.9-1.4,3.2-1.4,3.2l5.3,3.9l2.8-3.5l-2.1-1.9V51.9
		c1-1.4,2.1-1.9,3-1.9c1.1,0,2,0.8,2.3,1.9c0.1,0.8,0.1,2.1,0.1,3.6c0,2.2,0,9.9-0.1,12.8c0.4,1.4,2.4,3.2,3.6,3.2L192.3,66.8
		L192.3,66.8z M169,65.9c-0.2-0.8-0.3-1.7-0.3-2.4V50l-7-3.9c-2.3,2.3-4.8,3.8-8.1,5.6c0.2,0.6,0.3,1.7,0.3,2.4v11.3
		c-1,1.1-2,1.7-2.9,1.7c-0.9,0-1.8-0.4-2.7-1.4c0-0.9,0.1-10.6,0.1-16.5h5V48l-5-0.2c0,0,0-4.7,0.1-5.6H148l-7,7.3
		c-3-0.5-5.2-1.5-8.5-3.8c-2.6,2.6-4.3,3.8-7.4,5.3c0.1,1.6,0.2,2.4,0.2,3.9c0,1.8,0,2.4-0.1,3.9l4.1,2.9l-3.8,4
		c-1.7,1.7-2.3,3.2-2.3,4.6c0,1.3,0.5,2.3,1.3,3.3l0.4-0.3c-0.5-0.8-0.8-1.7-0.8-2.5c0-1.3,0.7-2.5,2.7-2.5c2,0,4.2,1.3,6.3,3
		c2.4-2.3,4.2-3.7,6.9-5.1v-6.5c0-0.8,0.1-1.1,0.2-1.6l-4.1-2.8l5.2-5.7h2.5c0,5.8-0.1,13.3-0.1,14.1c0,1-0.2,2.3-0.9,3.3l5.8,4.3
		l5-4.5l7.2,4.7C163.7,69.1,165.9,67.3,169,65.9L169,65.9L169,65.9z M164.1,68.3l-0.2,0.2l-5.1-3.2v-16l5.4,3.2V68.3L164.1,68.3z
		 M137.6,52.7l-5.4,5.8l-2.4-1.7v-7.8C132.3,50.7,133.8,51.6,137.6,52.7L137.6,52.7L137.6,52.7z M135.5,68.2
		c-1.8-1.7-4.4-3.1-8.5-3.1l6.3-6.6l2.1,1.9L135.5,68.2L135.5,68.2z"/>
	<path class="st0" d="M257,49.7l-7.7-4c-2.4,2.2-4.7,3.8-7.8,5.3c0.2,0.6,0.4,2.9,0.4,4.4l0,10.6c-0.7,0.8-1.4,1.1-2.1,1.1
		c-0.7,0-1.5-0.3-2.5-1V40.5c0-1.5,0.9-3.2,2-3.2v-0.2c-2.4,0-4.5,1.1-5.1,2.9c-0.6-1-1.5-1.8-2.8-1.8l0,0.3c0.8,0,1.5,2.1,1.5,4.2
		v20.6c0,2-0.3,3-1,4.1l5.1,3.7l4.8-4.2l7.4,4.5c2.8-2.6,4.5-4.2,7.6-6c-0.2-0.9-0.3-2.8-0.3-3.6v-9.1
		C256.7,51.1,256.7,50.3,257,49.7L257,49.7L257,49.7z M229.5,39.7l-0.6-0.5l-2.1,2.2c0,0-5.4-1.8-9.9-4.3
		c-6.1,4.6-10.7,7.9-16.6,12.1c-1.4,2.1-2.2,4.8-2.2,7.9c0,8.2,7.5,14.6,17.1,14.6c6.2-2.6,10.6-6.3,13.9-10.7
		c0.2-0.9,0.3-2.2,0.3-2.9c0-6-4.1-9.3-8.3-10.3L229.5,39.7L229.5,39.7z M252.3,67.6l-0.4,0.2l-5.4-3.4V49.1l5.7,2.8L252.3,67.6
		L252.3,67.6z M222.7,45.2l-6.8,6.1v-9.4C218.3,42.9,220.5,44,222.7,45.2L222.7,45.2L222.7,45.2z M225.2,60.4c0,1.9-0.2,3.2-0.7,4.7
		c-1.8,1.9-4.6,2.9-7.7,2.9h-0.9V51.6c0.6-0.1,1.1-0.1,1.6-0.1C222.1,51.5,225.2,55.6,225.2,60.4L225.2,60.4L225.2,60.4z
		 M215.2,67.9c-3.4-0.2-6-1.4-8.1-3.1c3.2-2.2,5.1-3.3,5.1-6.6V41.7l1-0.8c0.7,0.2,1.3,0.5,2,0.8V67.9L215.2,67.9z M208.3,60.6
		c0,1.7-0.5,2.8-1.7,3.7c-2.6-2.6-3.9-6.1-3.9-9.7c0-5.4,1.9-7.4,4.4-9.3c0.4-0.3,0.8-0.6,1.2-0.8V60.6L208.3,60.6z"/>
	<path class="st0" d="M292.4,64.6l-0.4-0.4c-2,2-3.1,2.8-4.3,2.8c-1.1,0-2.2-0.7-4.5-2.5v-5.2l9-7.2c-2.1-1.8-6.5-6.1-6.5-6.1
		c-2.4,2.2-3.8,3.4-7.2,5.7c0.1,0.7,0.3,1.7,0.3,2.4v10.2c0,0.7-0.1,1.2-0.3,2l7.1,5L292.4,64.6L292.4,64.6z M275.1,65.8
		c-0.3-2.9-0.2-10.7-0.2-14.3c0-2.4-2-4.1-4.6-5.2l-5.2,4.4v-9.6c0-1.6,0.9-3.3,2.1-3.3v-0.3c-2.5,0-5.3,2-5.7,3.3
		c-0.6-1-1.9-1.5-3.2-1.5l-0.1,0.5c1.3,0,2.5,2.2,2.5,6c0,7.8-0.1,15.2-0.1,18.4c0,1-0.1,1.7-0.7,2.6l7.9,4.8
		C270.8,68.7,271.9,67.8,275.1,65.8L275.1,65.8z M288.2,54.3l-4.9,4v-9.1L288.2,54.3L288.2,54.3z M270.6,59.6c0,2.8-0.1,8.3-0.1,8.5
		l-0.2,0.2l-5.3-3.3v-13c0.8-1.3,2-1.9,3-1.9c1.2,0,2.1,0.9,2.6,2.1C270.6,52.6,270.6,56,270.6,59.6L270.6,59.6L270.6,59.6z"/>
</g>
</svg>
