<?xml version="1.0" encoding="utf-8"?>
<!-- Generator: Adobe Illustrator 18.0.0, SVG Export Plug-In . SVG Version: 6.00 Build 0)  -->
<!DOCTYPE svg PUBLIC "-//W3C//DTD SVG 1.1//EN" "http://www.w3.org/Graphics/SVG/1.1/DTD/svg11.dtd">
<svg version="1.1" xmlns="http://www.w3.org/2000/svg" xmlns:xlink="http://www.w3.org/1999/xlink" x="0px" y="0px"
	 viewBox="0 0 300 100" style="enable-background:new 0 0 300 100;" xml:space="preserve">
<style type="text/css">
	.st0{fill-rule:evenodd;clip-rule:evenodd;}
	.st1{fill-rule:evenodd;clip-rule:evenodd;fill:#C038F9;}
	.st2{fill:none;}
	.st3{fill-rule:evenodd;clip-rule:evenodd;fill:#231F20;}
</style>
<g id="Layer_2">
</g>
<g id="Layer_1">
	<g>
		<path d="M23.1,42.4V59c1.8-0.9,2.7-2,3.5-3.2l0.4,0.3c-1.6,3.2-4.1,6.7-9.4,6.7c-4.7,0-9.3-3.9-9.3-9.7c0-6.3,4.5-9.6,8.6-11.2
			c-1.7-0.4-3.3-0.8-5.1-0.8c-1.5,0-3,0.9-4.1,3.1l-0.5-0.3c1.8-3.9,5.1-6,7.5-6c4,0,5.8,1.7,9.6,1.7c1.5,0,2.9-0.8,3.5-2.2l0.5,0.3
			C26.9,40,25.5,41.6,23.1,42.4z M17.7,42c-3.6,1.8-5.3,5.4-5.3,9.5c0,3.7,1.5,5.9,3.3,7.1c0.9-0.6,1-0.7,1-2.9c0-7,0-1.6,0-8.6
			c0-2,0.5-2.4,1.7-3.3c0.8-0.6,1.3-0.9,1.7-1.2C19.5,42.4,18.6,42.2,17.7,42z M22.5,42.5c-0.5,0.2-1.1,0.2-1.7,0.2
			c-0.3,0.4-0.4,0.9-0.4,2.7c0,7,0,1.6,0,8.6c0,2-0.5,2.4-1.7,3.3c-1.2,0.9-2,1.3-2.5,1.5c1.1,0.5,2.1,0.7,3.4,0.7
			c1.1,0,2.1-0.1,2.9-0.4V42.5"/>
		<path d="M37,61.9h-0.2l-3-2.5v-0.2c0,0,0.4-0.2,0.4-0.5v-8.9c0,0-1-1-1.8-1.5l-1.2,1.2v8.6c0.1,0.2,0.7,1,1.7,1l0.1,0.3l-2.5,2.5
			h-0.2L27,59.4v-0.2c0,0,0.6-0.3,0.6-0.5V41.5c0-0.4-0.7-0.5-0.7-0.5v-0.3c2.5-1.4,5-3.4,5-3.4h0.2c0.4,0.5,1.3,1,1.9,1
			c1.1,0,1.7,0,2.7-1.4l0.4,0.3c-1,1.8-2.6,3.7-4.1,3.7c-0.9,0-1.2,0-1.9-0.6v8.3l0,0l3.1-3.3h0.2l3.2,2.7l1.2-1.2l0.3,0.3l-1.4,1.5
			v9.5c0,0,0.6,0.9,1.2,0.9c0.3,0,0.8-0.5,1-0.8l0.3,0.3L37,61.9"/>
		<path d="M44.5,54.9v2.4c0,0,1.8,1.5,2.5,2l2.3-2.1l0.4,0.4l-4.5,4.4h-0.3l-4.5-3.5v-0.2c0,0,0.6-0.2,0.6-0.3v-7.5
			c0-0.2-0.7-0.5-0.7-0.5v-0.2l6.1-4.5h0.2l3.8,5.4v0.3L44.5,54.9z M44.5,48.2L44.5,48.2l-0.1,5.9l2.7-1.9L44.5,48.2"/>
		<path d="M74.8,52.8c-1,0.8-1.4,1.7-1.4,3.3c0,0.1,0,0.3,0.1,0.4l-0.2,0.2c-1.1-0.5-1.8-1.2-1.8-2.1c0-1.1,1-1.6,1.8-1.8V42.2
			c-0.6-0.8-1.1-1.6-1.4-2.4c-0.4,0.3-0.9,0.5-0.9,2.6c0,6.4,0,18.9,0,18.9c0,0.2,0.8,0.4,0.8,0.4v0.2c-3.1,1.7-6.1,4.1-6.1,4.1
			h-0.3c-0.5-0.6-1.8-2.4-4-2.4c-2,0-2.8,1-3.2,2.4l-0.4-0.1c0-1.6,1.4-4.7,4.3-4.9v-8.3c-0.2-0.1-0.6-0.1-1.1-0.1
			c-1,0-1.9,0.3-2.1,1.4l-0.4,0c0-1.7,1.3-3.7,3-3.7c0.3,0,0.4,0,0.6,0v-2.7c-0.3-0.1-0.6-0.2-1.2-0.2c-1,0-1.9,0.3-2.1,1.4l-0.4,0
			c0-1.7,1.3-3.7,3-3.7c0.3,0,0.5,0,0.7,0V41c-2.6,0-3.7-1.8-4.5-4l0.4-0.3c1,1.5,1.7,1.5,2.8,1.5c0.7,0,1.5-0.3,2-0.6h0.2
			c0,0,0.9,0.6,1.2,0.9c1.2,0.9,1.6,1.1,1.6,3c0,6,0,17.2,0,20.4c0.8,0.6,1,1,1.4,1.5l0.1,0c0,0,0-12.1,0-19.1c0-2,0.6-2.5,1.8-3.4
			c2-1.5,5.2-3.8,5.2-3.8h0.3c0.4,1.8,5.1,5,5.1,8.7C79.5,49,77.1,51,74.8,52.8z M73.8,43L73.8,43l-0.1,9.7c0.1,0,0.1,0,0.2-0.1
			c1.6-0.8,2.5-2.2,2.5-4.1C76.5,46.4,75.1,44.8,73.8,43"/>
		<path d="M89.9,61.9h-0.2l-3-2.5v-0.2c0,0,0.4-0.2,0.4-0.5v-8.9c0,0-1-1-1.8-1.5l-1.2,1.2v8.6c0.1,0.2,0.7,1,1.7,1l0.1,0.3
			l-2.5,2.5h-0.2L80,59.4v-0.2c0,0,0.6-0.3,0.6-0.5V41.5c0-0.4-0.7-0.5-0.7-0.5v-0.3c2.5-1.4,5-3.4,5-3.4h0.2c0.4,0.5,1.3,1,1.9,1
			c1.1,0,1.7,0,2.7-1.4l0.4,0.3c-1,1.8-2.6,3.7-4.1,3.7c-0.9,0-1.2,0-1.9-0.6v8.3l0,0l3.1-3.3h0.2l3.2,2.7l1.2-1.2l0.3,0.3l-1.4,1.5
			v9.5c0,0,0.6,0.9,1.2,0.9c0.3,0,0.8-0.5,1-0.8l0.3,0.3L89.9,61.9"/>
		<path d="M96.3,43.5h-0.2c0,0-1.3-1.5-2.4-2.3V41c0,0,1.4-1,2.3-2.4h0.2c0,0,1.2,1.4,2.4,2.4v0.2C98.6,41.2,97.3,42.2,96.3,43.5z
			 M97.4,61.9h-0.2l-3.3-2.5v-0.2c0,0,0.6-0.2,0.6-0.5v-9.1c0,0-0.9-1-1.6-1.5l-0.5,0.5l-0.3-0.3l2.9-3h0.2l2.8,2.5l1.2-1.2l0.3,0.4
			L98,48.4v9.8c0,0,0.7,0.8,1.3,0.8c0.3,0,0.7-0.4,0.9-0.7l0.3,0.3L97.4,61.9"/>
		<path d="M104.4,61.9h-0.2l-3.3-2.5v-0.2c0,0,0.5-0.2,0.5-0.5V40.8l0-0.1l-0.9,0.5l-0.2-0.4c2.2-1.3,5.5-3.7,5.5-3.7l0.3,0.3
			c0,0-1.1,0.8-1.1,1.6v19.1c0,0,0.8,0.8,1.2,0.8c0.3,0,0.6-0.3,0.9-0.5l0.3,0.3L104.4,61.9"/>
		<path d="M116.3,61.9h-0.2l-2.7-2.5h-0.1l-2.4,2.5h-0.3c-2-0.6-3.5-2.3-3.5-4.8c0-3.6,2.8-5.5,6.3-5.8v-2.1l-1.3-1.1
			c-0.6,0.6-1.4,1.9-2.5,1.9c-1.3,0-1.9-0.9-2.2-1.5v-0.1l2.1-3h0.3c0.3,1.1,1.2,1.7,2.1,1.7c0.5,0,1.7-0.9,2.3-1.7h0.2l2.5,2.3
			l1-0.9l0.3,0.4l-1.4,1.4V58c0,0,0.8,1,1.4,1c0.3,0,0.6-0.3,0.9-0.6l0.3,0.3L116.3,61.9z M113.4,52c-2,0.4-2.7,1.6-2.7,3.7
			c0,2.1,0.8,3.4,1.8,3.4c0.5,0,0.9-0.4,0.9-0.4V52"/>
		<path d="M130,48.5v8.4c0,0.2,0.7,0.4,0.7,0.4v0.2l-6.5,4.4H124l-4.5-3.6v-0.2c0,0,0.6-0.2,0.6-0.4v-8c0-0.2-0.6-0.4-0.6-0.4V49
			l4.3-2.7c-1.4-1.6-3-3.3-3.7-4.1c-0.6-0.7-1-1.1-2.2-1.1v-0.3c0,0,1.2-0.9,2.4-1c-0.4-0.5-0.4-0.8-0.4-1.3c0-0.4,0.3-0.9,0.6-1.3
			h0.1c1.5,2.2,7.7,8.8,9.3,10.6l1.2-1.1l0.3,0.4L130,48.5z M126.4,49.4c0,0-0.9-1.1-2.2-2.6c-0.4,0.4-0.6,0.7-0.6,1.2v9.1l2.6,2.2
			l0.2-0.2V49.4"/>
		<path d="M135.9,54.9v2.4c0,0,1.8,1.5,2.5,2l2.3-2.1l0.4,0.4l-4.5,4.4h-0.3l-4.5-3.5v-0.2c0,0,0.6-0.2,0.6-0.3v-7.5
			c0-0.2-0.7-0.5-0.7-0.5v-0.2l6.1-4.5h0.2l3.8,5.4v0.3L135.9,54.9z M136,48.2L136,48.2l-0.1,5.9l2.7-1.9L136,48.2"/>
		<path d="M145.5,61.9h-0.2l-3.3-2.5v-0.2c0,0,0.5-0.2,0.5-0.5V40.8l0-0.1l-0.9,0.5l-0.2-0.4c2.2-1.3,5.5-3.7,5.5-3.7l0.3,0.3
			c0,0-1.1,0.8-1.1,1.6v19.1c0,0,0.8,0.8,1.2,0.8c0.3,0,0.6-0.3,0.9-0.5l0.3,0.3L145.5,61.9"/>
		<path d="M159.8,48.8v8.6c0,0.2,0.6,0.4,0.6,0.4V58l-5.4,3.9h-0.2c0,0-0.9-0.5-1.4-0.7l0,0v2.9l0,0l1-0.5l0.2,0.4
			c-2.9,1.9-5.2,3.5-5.2,3.5l-0.2-0.3c0,0,0.7-0.6,0.7-1.1v-5.6c-0.8,0.1-1.5,0.2-1.9,1.3l-0.3-0.1c0-1.6,0.7-2.9,2.2-3.6V49
			c0,0-0.8-0.8-1.2-0.8c-0.3,0-0.7,0.5-1,0.8l-0.3-0.3l3.1-3.3h0.2c0,0,2.6,1.7,3,2.9l2.7-2.9h0.2l3.2,2.8l1.2-1.2l0.3,0.4
			L159.8,48.8z M156.3,49.8c0,0-1.2-1.1-1.9-1.5l-1,1v8.8c1,0.3,1.7,0.4,2.9,1.5l0,0V49.8"/>
		<path d="M171.8,61.9h-0.2l-3-2.5v-0.2c0,0,0.4-0.2,0.4-0.5v-8.9c0,0-1-1-1.8-1.5l-1.2,1.2v8.6c0.1,0.2,0.7,1,1.7,1l0.1,0.3
			l-2.5,2.5h-0.2l-3.2-2.5v-0.2c0,0,0.6-0.3,0.6-0.5V41.5c0-0.4-0.7-0.5-0.7-0.5v-0.3c2.5-1.4,5-3.4,5-3.4h0.2c0.4,0.5,1.3,1,1.9,1
			c1.1,0,1.7,0,2.7-1.4l0.4,0.3c-1,1.8-2.6,3.7-4.1,3.7c-0.9,0-1.2,0-1.9-0.6v8.3l0,0l3.1-3.3h0.2l3.2,2.7l1.2-1.2l0.3,0.3l-1.4,1.5
			v9.5c0,0,0.6,0.9,1.2,0.9c0.3,0,0.8-0.5,1-0.8l0.3,0.3L171.8,61.9"/>
		<path d="M178.2,43.5H178c0,0-1.3-1.5-2.4-2.3V41c0,0,1.4-1,2.3-2.4h0.2c0,0,1.2,1.4,2.4,2.4v0.2C180.5,41.2,179.2,42.2,178.2,43.5
			z M179.3,61.9h-0.2l-3.3-2.5v-0.2c0,0,0.6-0.2,0.6-0.5v-9.1c0,0-0.9-1-1.6-1.5l-0.5,0.5l-0.3-0.3l2.9-3h0.2l2.8,2.5l1.2-1.2
			l0.3,0.4l-1.4,1.4v9.8c0,0,0.7,0.8,1.3,0.8c0.3,0,0.7-0.4,0.9-0.7l0.3,0.3L179.3,61.9"/>
		<path d="M191.5,61.9h-0.2l-2.7-2.5h-0.1l-2.4,2.5h-0.3c-2-0.6-3.5-2.3-3.5-4.8c0-3.6,2.8-5.5,6.3-5.8v-2.1l-1.3-1.1
			c-0.6,0.6-1.4,1.9-2.5,1.9c-1.3,0-1.9-0.9-2.2-1.5v-0.1l2.1-3h0.3c0.3,1.1,1.2,1.7,2.1,1.7c0.5,0,1.7-0.9,2.3-1.7h0.2l2.5,2.3
			l1-0.9l0.3,0.4l-1.4,1.4V58c0,0,0.8,1,1.4,1c0.3,0,0.6-0.3,0.9-0.6l0.3,0.3L191.5,61.9z M188.6,52c-2,0.4-2.7,1.6-2.7,3.7
			c0,2.1,0.8,3.4,1.8,3.4c0.5,0,0.9-0.4,0.9-0.4V52"/>
		<path d="M214.2,38.8v19.3c0,0.3,0.8,0.4,0.8,0.4v0.2c-3.1,1.7-8.9,6.2-8.9,6.2h-0.2c-0.5-0.6-2.5-2.8-4.5-2.8
			c-2.1,0-2.5,1.1-2.8,2.5l-0.4,0c0-1.8,0.9-5.3,4.4-5.3c2.7,0,4.1,1.8,5.7,3.2l1-0.8c-0.6-0.6-3-2.8-4.8-3.9v-0.2
			c0,0,0.7-0.2,0.7-0.4v-4.8c-0.3-0.1-0.5-0.1-1-0.1c-1,0-1.9,0.3-2.2,1.4l-0.3,0c0-1.7,1.4-3.7,3.1-3.7c0.3,0,0.3,0,0.5,0v-2.7
			c-0.2-0.1-0.5-0.1-1.1-0.1c-1,0-1.9,0.3-2.2,1.4l-0.3,0c0-1.7,1.4-3.7,3.1-3.7c0.3,0,0.4,0,0.6,0v-3.6c-2.6,0-3.7-1.9-4.5-4
			l0.3-0.3c0.9,1.5,1.7,1.5,2.8,1.5c0.7,0,1.5-0.3,1.9-0.7h0.2c0,0,0.9,0.6,1.2,0.9c1.2,0.9,1.6,1.1,1.6,3.1c0,7,0,17.9,0,17.9
			c0,1,0.6,1.5,1,1.8l0.6-0.4V41.2c0-0.3-0.7-0.4-0.7-0.4v-0.3c2.2-1.4,5.2-3.5,5.2-3.5l0.3,0.3C215.2,37.4,214.2,38.2,214.2,38.8"
			/>
		<path d="M227,61.9h-0.2l-3.1-2.5v-0.2c0,0,0.4-0.2,0.4-0.5v-8.9c0,0-1.1-1.2-1.9-1.6l-1.1,1.1v8.9c0,0,0.8,0.8,1.2,0.8
			c0.3,0,0.4-0.1,0.5-0.2l0.2,0.3l-2.5,2.7h-0.2l-3.3-2.6v-0.2c0,0,0.6-0.3,0.6-0.5V49c0,0-0.7-0.8-1.1-0.8c-0.3,0-0.5,0.2-0.8,0.4
			l-0.3-0.3l2.8-3h0.2c0,0,2.5,1.7,3.1,2.9l2.8-2.9h0.2l3.2,2.7l1.2-1.2l0.3,0.4l-1.4,1.4v9.5c0,0,0.6,0.9,1.2,0.9
			c0.3,0,0.6-0.3,0.9-0.6l0.3,0.3L227,61.9"/>
		<path d="M240.6,48.4v15.8l0,0l1-0.5l0.2,0.4c-2.9,1.9-5.2,3.5-5.2,3.5l-0.3-0.3c0,0,0.7-0.6,0.7-1.1v-7.5H237l-2.8,3.2H234l-4-3.3
			v-0.2c0,0,0.6-0.2,0.6-0.4v-7.7c0-0.2-0.7-0.4-0.7-0.4v-0.2l6.5-4.3h0.2l3.5,2.6l1.3-1.2l0.4,0.4L240.6,48.4z M237,50
			c0,0-2-1.6-2.7-2.1l-0.1,0.1v9.6c0,0,1,1.1,1.7,1.5l1.2-1.2V50"/>
		<path d="M253.5,61.9h-0.2l-2.9-2.5v-0.6h-0.1l-3,3.1h-0.2l-3.1-2.8l-1.1,1l-0.3-0.4l1.3-1.2V49c0,0-0.7-0.8-1-0.8
			c-0.3,0-0.3,0.2-0.6,0.4l-0.3-0.3l2.8-3h0.2l2.8,2.4V48c0,0-0.4,0.2-0.4,0.5v9c0,0,1.1,1.2,1.8,1.6l1.2-1.1v-8.9
			c0,0-1.1-0.9-1.3-0.9c-0.2,0-0.4,0.2-0.5,0.3l-0.2-0.3l2.7-2.8h0.2l2.7,2.3l0.9-0.8l0.3,0.4l-1.3,1.3V58c0,0,1,1.1,1.4,1.1
			c0.3,0,0.7-0.5,1-0.8l0.3,0.3L253.5,61.9"/>
		<path d="M259.8,43.5h-0.2c0,0-1.3-1.5-2.4-2.3V41c0,0,1.4-1,2.3-2.4h0.2c0,0,1.2,1.4,2.4,2.4v0.2
			C262.1,41.2,260.7,42.2,259.8,43.5z M260.9,61.9h-0.2l-3.3-2.5v-0.2c0,0,0.6-0.2,0.6-0.5v-9.1c0,0-0.9-1-1.6-1.5l-0.5,0.5
			l-0.3-0.3l2.9-3h0.2l2.8,2.5l1.2-1.2l0.3,0.4l-1.4,1.4v9.8c0,0,0.7,0.8,1.3,0.8c0.3,0,0.7-0.4,0.9-0.7l0.3,0.3L260.9,61.9"/>
		<path d="M271.6,49.6c-0.9,0-1.7-0.3-2.5-1.1h-0.1l-0.1,0.2v9.6c0,0,1.2,0.9,1.5,0.9c0.3,0,1.1-1,1.4-1.3l0.4,0.3l-3.8,3.7h-0.2
			l-3.4-2.6v-0.2c0,0,0.5-0.3,0.5-0.5v-9.5c0,0-0.8-0.8-1.2-0.9c-0.3,0-0.4,0.2-0.7,0.4l-0.3-0.3l2.8-3h0.2l2.7,2.4l1.8-2.4h0.3
			c0,0,0.9,1.2,2.1,1.2c0.7,0,1.4-0.2,1.9-0.9l0.4,0.2C274.8,47.1,273.1,49.6,271.6,49.6"/>
		<path d="M277.2,54.9v2.4c0,0,1.8,1.5,2.5,2l2.3-2.1l0.4,0.4l-4.5,4.4h-0.3l-4.5-3.5v-0.2c0,0,0.6-0.2,0.6-0.3v-7.5
			c0-0.2-0.7-0.5-0.7-0.5v-0.2l6.1-4.5h0.2l3.8,5.4v0.3L277.2,54.9z M277.3,48.2L277.3,48.2l-0.1,5.9l2.7-1.9L277.3,48.2"/>
		<path d="M290.6,49.6c-0.9,0-1.7-0.3-2.5-1.1h-0.1l-0.1,0.2v9.6c0,0,1.2,0.9,1.5,0.9c0.3,0,1.1-1,1.4-1.3l0.4,0.3l-3.8,3.7h-0.2
			l-3.4-2.6v-0.2c0,0,0.5-0.3,0.5-0.5v-9.5c0,0-0.8-0.8-1.2-0.9c-0.3,0-0.4,0.2-0.7,0.4l-0.3-0.3l2.8-3h0.2l2.7,2.4l1.8-2.4h0.3
			c0,0,0.9,1.2,2.1,1.2c0.7,0,1.4-0.2,1.9-0.9l0.4,0.2C293.8,47.1,292.1,49.6,290.6,49.6"/>
	</g>
</g>
</svg>
