<?xml version="1.0" encoding="utf-8"?>
<!-- Generator: Adobe Illustrator 18.0.0, SVG Export Plug-In . SVG Version: 6.00 Build 0)  -->
<!DOCTYPE svg PUBLIC "-//W3C//DTD SVG 1.1//EN" "http://www.w3.org/Graphics/SVG/1.1/DTD/svg11.dtd">
<svg version="1.1" xmlns="http://www.w3.org/2000/svg" xmlns:xlink="http://www.w3.org/1999/xlink" x="0px" y="0px"
	 viewBox="0 0 300 100" style="enable-background:new 0 0 300 100;" xml:space="preserve">
<style type="text/css">
	.st0{fill-rule:evenodd;clip-rule:evenodd;}
	.st1{fill-rule:evenodd;clip-rule:evenodd;fill:#C038F9;}
	.st2{fill:none;}
	.st3{fill-rule:evenodd;clip-rule:evenodd;fill:#231F20;}
</style>
<g id="Layer_2">
	<g>
		<g>
			<path d="M105.3,84.6c-0.1-0.3-0.4-0.5-0.3-0.7c0.1-0.7,0.8-0.5,1.3-1.2c0-2.1,0.1-4.5,0.1-6.8c0.4-0.1,0.7-0.1,1,0.2
				c0.1,2.2,0.1,4.5,0,6.8c0,0.9-0.8,1.2-1.4,1.6C105.8,84.6,105.5,84.6,105.3,84.6z"/>
			<path d="M7.7,18.9c-0.2-0.6-0.2-1,0-1.5c94.1,0,188.2,0,282.2,0c0.2,0.7,0.2,0.7,0.1,1.5C195.9,18.9,101.8,18.9,7.7,18.9z"/>
			<path d="M63.6,44.4c0.7-0.6,1.1-0.5,1.5-0.5c3.4,0,6.8,0,10.3,0.1c0.5,0,0.9,0,1.4,0.1c2.7,0.4,4.3,2,4.6,4.6
				c0.3,2.2-0.8,4.7-3.2,5.8c-0.5,0.2-1.1,0.4-1.8,0.7c2.1,3.7,3.8,7.6,7.3,10.8c-2.5,0.3-4.6,0.1-6.8,0.2c-2.2-3.2-3.7-6.7-5.2-10
				c-0.4-0.2-0.7-0.2-1-0.1c-0.4,0.5-0.5,6.4-0.1,8.3c0.3,0.7,1.2,0.7,1.3,1.5c-1.1,0.5-6.6,0.5-8.1,0.1c0-0.8,1-0.8,1.1-1.2
				c0.4-0.9,0.3-1.7,0.3-2.5c0-4.7,0-9.4,0-14.2C65.3,46.6,65.6,45,63.6,44.4z M70.5,53.7c2.8,0.4,4.2-0.1,4.9-1.5
				c0.8-1.5,0.6-4.4-0.3-5.4c-1-1.1-2.7-1.4-4.6-0.7C70.5,48.6,70.5,51.1,70.5,53.7z"/>
			<path d="M203,65.9c-1.3,0.3-2.3,0.2-3.5,0.1c-3.5-5.6-7.1-11.3-10.7-17c-0.4,0.4-0.3,0.8-0.3,1.2c0,4,0,8,0,12
				c0,1.4,0.2,2.6,1.6,3.3c0.1,0,0,0.2,0.1,0.5c-2,0.2-4,0.1-6.1,0c-0.1-1.1,0.9-1,1.1-1.3c0.5-0.9,0.5-1.6,0.5-2.3
				c0-5.6-0.1-11.2-0.2-16.8c-0.3-0.6-1.1-0.7-1.5-1.6c1.3-0.3,2.5-0.1,3.7-0.1c1.2,0,2.4,0,3.6,0c2.8,4.5,5.7,9,8.5,13.4
				c0.3-0.1,0.2-0.4,0.3-0.6c0-3.2,0-6.5,0-9.7c0-0.9-0.2-1.8-1.1-2.3c-0.2-0.1-0.4-0.3-0.3-0.8c1.9-0.1,3.8,0,5.9,0
				c-0.1,1-1.1,0.9-1.5,1.6C203,52.3,203,59.1,203,65.9z"/>
			<path d="M84.9,43.9c2.3,0,4.7,0,7.2,0c2.8,4.4,5.6,8.8,8.4,13.2c0.6-1.4,0.6-9.2,0.1-11.5c-0.2-0.7-1-0.7-1.2-1.4
				c1-0.5,4.2-0.6,5.8-0.1c-1.4,1.8-1.4,1.8-1.4,4.6c0,5.2,0,10.4,0,15.6c0,0.5,0,1,0,1.6c-1.2,0.3-2.3,0.2-3.5,0.1
				c-3.5-5.6-7.1-11.3-10.7-17c-0.1,0-0.2,0.1-0.2,0.1c0,5.1,0,10.2,0,14.9c0.4,1,1.2,1,1.5,1.7c-0.9,0.6-4.3,0.7-6.1,0.2
				c0.1-0.8,1-0.8,1.3-1.8c0.3-1.2,0.3-17,0-18.6C85.8,44.8,84.7,44.9,84.9,43.9z"/>
			<path d="M41.1,54.6c0.1,2-0.2,3.8-0.8,5.5c-1.2,3.3-3.4,5.3-6.9,5.9c-1.7,0.3-3.5,0.4-5.3,0c-3.5-0.7-5.9-2.9-6.8-6.4
				c-0.9-3.6-0.9-7.2,0.6-10.7c1.1-2.6,2.9-4.4,5.7-5c2.3-0.5,4.6-0.6,6.8,0c3.5,0.9,5.4,3.4,6.2,6.8C41,52,41.2,53.4,41.1,54.6z
				 M35.6,54.9c0-2.2-0.1-4.4-0.8-6.4c-0.6-1.8-1.9-2.7-3.7-2.8c-1.8-0.1-3.1,0.8-3.9,2.5c-0.3,0.6-0.5,1.3-0.6,2
				c-0.4,2.1-0.5,4.2-0.3,6.3c0.1,1.8,0.3,3.6,1.1,5.3c0.8,1.5,2,2.3,3.7,2.2c2-0.1,3.4-1.3,4-3.6C35.6,58.7,35.7,56.8,35.6,54.9z"
				/>
			<path d="M239.7,64.4c0.3,0.6,1.2,0.6,1.2,1.6c-2,0.2-4,0.1-6.1,0.1c0-1,0.9-1,1.1-1.5c0.5-0.7,0.5-1.4,0.5-2.1c0-5,0-10,0-15.1
				c0-0.6,0.1-1.3-0.3-2c-0.2-0.6-1.1-0.6-1.3-1.5c1.2-0.2,2.4-0.1,3.6-0.1c1.2,0,2.4,0,3.6,0c2.9,4.5,5.8,9,8.8,13.9
				c0-4.4,0.2-8.3-0.2-12.3c-0.3-0.6-1.1-0.6-1.3-1.2c1-0.5,4.6-0.6,6.1-0.1c0,0.8-0.9,0.7-1.2,1.2c-0.4,1-0.5,2.1-0.5,3.1
				c0,5.3,0,10.5,0,15.8c0,0.6,0.2,1.2-0.3,1.8c-1,0.1-2,0.2-3.2-0.2c-3.5-5.7-7.1-11.4-10.8-17.2C239.1,50.5,239.2,62.7,239.7,64.4
				z"/>
			<path d="M55.4,44c2.3,0,4.6,0,6.9,0c0.1,0.2,0.1,0.4,0,0.5c-1.3,0.7-1.5,1.8-1.5,3.1c0.1,3,0,6,0,9c0,1.2-0.1,2.3-0.2,3.5
				c-0.4,3.2-2.1,5.1-5.1,5.8c-2.6,0.6-5.3,0.7-7.9-0.2c-3-1-4.2-2.8-4.5-5.9c-0.3-4-0.2-8-0.2-12c0-0.8,0.1-1.5-0.3-2.5
				c-0.1-0.5-1.1-0.4-1.2-1.2c1.2-0.4,6.9-0.4,8.3,0c-0.1,0.7-0.9,0.7-1.2,1.2c-0.4,0.8-0.4,1.7-0.4,2.6c0,3.7,0,7.3,0,11
				c0,0.7,0.1,1.4,0.2,2.1c0.3,1.6,1,2.4,2.6,2.7c0.6,0.1,1.2,0.2,1.8,0.2c2.7-0.1,3.9-1.2,4-3.9c0.1-4.3,0-8.6,0-12.9
				c0-1.2-0.3-2.2-1.7-2.7C55.2,44.3,55.3,44.1,55.4,44z"/>
			<path d="M119.2,64.2c-0.5-2.1-1.1-4.2-1.6-6.4c-2,0-4,0-6.2,0c-0.6,2.1-1.4,4.2-1.6,6.2c0.2,1,1,1.1,1.1,1.8
				c-1.2,0.5-4.2,0.5-5.8,0.1c0-0.1-0.1-0.3,0-0.3c1.8-2.6,2.4-5.6,3.3-8.5c1.3-4,2.5-8,3.8-12c0.1-0.2,0.2-0.4,0.4-0.8
				c1.9-0.3,3.9-0.6,6.1-0.9c1,3.5,2,6.9,3,10.3c0.8,2.9,1.7,5.9,2.5,8.8c0.3,0.9,0.7,1.8,1.3,2.5c0.2,0.3,0.5,0.5,0.3,1.1
				c-1.2,0.2-2.5,0.1-3.7,0.1c-1.2,0-2.5,0-3.6,0C117.9,65.1,119,65,119.2,64.2z M112,55.4c1.7,0.2,3.3,0.3,4.9-0.1
				c-0.8-2.9-1.5-5.6-2.2-8.3C113.5,49.6,112.9,52.4,112,55.4z"/>
			<path d="M177.1,56c-1.3-0.3-2.5-0.5-3.8-0.2c0,2.7,0,5.3,0,8.1c2.9,0.3,5.6,0.6,7.7-2c0.4-0.5,0.8-1.1,1.7-0.9
				c0,1.7-0.5,3.3-0.8,5c-5.2,0-10.3,0-15.4,0c-0.1-1,0.9-0.9,1.1-1.4c0.5-0.8,0.5-1.5,0.5-2.3c0-5,0-9.9,0-14.9
				c0-0.7-0.1-1.4-0.5-2.2c-0.3-0.3-0.8-0.7-1.2-1c0.3-0.6,0.7-0.5,1.1-0.5c4.4,0,8.7,0,13.1,0.1c0.3,0,0.7,0,0.9,0.1
				c0.3,0.3,0.3,0.6,0.3,0.9c0,1.2,0,2.5,0,3.6c-0.7,0.5-1.1,0.1-1.5-0.3c-0.7-0.8-1.2-1.8-2.3-2.1c-1.5-0.3-3-0.2-4.6-0.1
				c0,2.5,0,5,0,7.5c1.2,0,2.5,0,3.4,0c1.2-0.4,1.5-1.5,2.5-1.7c0.2,0,0.3,0,0.6,0.1c0,1.9,0,3.8,0,5.7
				C178.8,57.5,178.8,57.5,177.1,56z"/>
			<path d="M263.8,53.4c1.1,0.3,2.2,0.2,3.3,0.1c0.7,0,1.1-0.5,1.6-1c0.4-0.4,0.7-1,1.6-0.7c0,1.9,0,3.8,0,5.7
				c-0.8,0.3-1.2-0.2-1.6-0.6c-1.4-1.5-3.1-1.3-5-1.1c0,2.7,0,5.3,0,8.1c2.7,0.1,5.4,0.7,7.5-1.8c0.4-0.5,0.8-1.4,1.9-1
				c0.2,1.7-0.6,3.2-0.7,4.8c-1.4,0.4-13.8,0.4-15.4,0.1c-0.1-0.9,1.1-0.9,1.3-1.6c0.2-6.3,0.3-12.6,0-18.9
				c-0.3-0.6-1.1-0.6-1.3-1.4c1.6-0.5,3.2-0.1,4.8-0.2c1.7-0.1,3.4,0,5.1,0c1.6,0,3.3,0,5.1,0c0.2,1.7,0.2,3.2,0,4.7
				c-0.7,0.3-1-0.1-1.3-0.5c-1.2-2-3-2.4-5.2-2.2c-0.6,0.1-1.2-0.1-1.9,0.2C263.8,48.5,263.8,50.9,263.8,53.4z"/>
			<path d="M151.1,65.6c-0.1-1.6-0.1-3.1,0-4.5c0.5-0.4,0.9-0.1,1.2,0.2c0.4,0.4,0.8,0.8,1.2,1.3c1.3,1.4,2.9,1.7,4.7,1.5
				c2.9-0.4,3.3-3.4,2-4.9c-0.6-0.7-1.3-1.2-2.1-1.6c-1.5-1-3.1-1.9-4.6-3c-1.7-1.4-2.4-3.1-2.3-5.3c0.2-2.4,1.4-3.9,3.5-4.9
				c1-0.5,2.1-0.7,3.2-0.7c2.3,0,4.6-0.1,6.8,0.6c0.4,1.7,0.3,3.3-0.1,4.5c-0.5,0.1-0.8-0.3-1.2-0.6c-0.6-0.6-1.2-1.1-1.9-1.6
				c-1.1-0.9-2.4-1-3.7-0.6c-1.1,0.3-1.8,1-2,2c-0.2,1,0.1,2,0.9,2.7c0.5,0.4,1,0.7,1.5,1c1.4,0.9,2.9,1.7,4.2,2.6
				c2.5,1.6,3.4,4,2.9,6.8c-0.4,2.4-2.1,4.6-5.4,5.1C157.2,66.5,154.2,66.4,151.1,65.6z"/>
			<path d="M12.7,70.7c0.8-0.6,0.8-1.4,0.8-2.2c0-7.1,0-14.1,0-21.2c0-0.7-0.1-1.3-0.4-1.9c-0.3-0.6-1-0.6-1.2-1.2
				c0.9-0.5,6.1-0.6,8.2-0.2c0.1,0.8-0.9,0.8-1.1,1.2c-0.4,1-0.3,1.8-0.3,2.6c0,5.6,0,11.2,0,16.8c0,0.9-0.1,1.9-0.3,2.8
				c-0.5,2.5-2,4.1-4.5,4.7c-2,0.5-3.9,0.8-5.7-0.4c-0.8-2.4,0-3.5,2.4-3.2C11.4,69.1,11.5,70.3,12.7,70.7z"/>
			<path d="M220.8,46c-0.9-0.3-2-0.6-3.1-0.1c-0.4,2.1-0.3,17.1,0.1,18.5c0.3,0.7,1.4,0.5,1.6,1.4c-1,0.5-6,0.6-9.1,0.3
				c-0.1-1.1,1.2-0.8,1.4-1.2c0.5-0.8,0.6-1.5,0.6-2.2c0-5.3,0-10.6,0-15.9c0-0.2-0.1-0.4-0.1-0.6c-2.4-0.6-3.2-0.3-4.6,1.5
				c-0.3,0.4-0.5,1.1-1.2,1.2c-0.5-1-0.6-1.9-0.3-4.6c1.2-0.4,15.2-0.5,17.5-0.1c0.3,1.5,0.2,3,0.1,4.7
				C222.1,48.3,222,46.8,220.8,46z"/>
			<path d="M142.4,60.9c-0.1,1.8-0.6,3.4-0.9,5.1c-4.8,0-9.6,0-14.5,0c0.5-0.9,0.5-0.9,1.2-1.5c0.4-0.8,0.5-1.7,0.5-2.6
				c0-4.7,0-9.4,0-14.2c0-0.8,0-1.5-0.4-2.3c-0.2-0.6-1.2-0.6-1.2-1.5c2.9,0,5.8,0,8.8,0c-0.1,1-1.4,0.8-1.7,1.6
				c-0.4,1.5-0.5,16-0.1,18.3c2.2,0.3,4.4,0.3,6.1-1.6C140.7,61.7,141.2,60.9,142.4,60.9z"/>
			<path d="M274.4,65.9c0.2-0.9,1.1-0.8,1.4-1.5c0.5-1.7,0.5-17.5,0-18.8c-0.3-0.8-1.2-0.8-1.4-1.5c1.3-0.3,7.5-0.3,8.9,0
				c0.1,0.5-0.3,0.6-0.6,0.7c-1.1,0.4-1.5,1.3-1.5,2.4c0,2.1,0,4.1,0,6.2c0,3.1,0,6.3,0,9.4c0,0.4,0,0.7,0.2,1.1
				c2.3,0.4,4.6,0.3,6.3-1.8c0.5-0.6,1-1.4,2.1-1.1c-0.2,1.7-0.6,3.3-1,4.9C287.5,66.2,275.9,66.2,274.4,65.9z"/>
			<path d="M233.4,44.4c-0.4,0.3-0.8,0.6-1.1,0.9c-0.4,0.8-0.5,1.6-0.5,2.3c0,5,0,9.9,0,14.9c0,0.7,0,1.3,0.4,1.9
				c0.2,0.6,1.2,0.5,1.3,1.3c-1,0.5-6.3,0.6-8.3,0.1c0-0.8,0.9-0.8,1.2-1.5c0.4-1.5,0.5-16.8,0-18.9c-0.3-0.6-1-0.6-1.2-1.2
				c0-0.4,0.2-0.4,0.5-0.4c2.3,0,4.6-0.1,6.9-0.1C232.9,43.8,233.4,43.7,233.4,44.4z"/>
			<path d="M20.1,28.1c0.6-0.3,1.1-0.2,1.7,0c0.4,1.3,0.1,2.8,0.2,4.2c0,1.4,0,2.8,0,4.1c-0.4,0.6-0.7,0.4-1.2,0.4c0-2,0-4,0-5.9
				c-1.5,1.8-1.9,4.1-3.1,5.9c-0.8,0.2-1-0.4-1.2-0.9c-0.7-1.7-1.4-3.4-2.2-5.3c-0.6,2.2,0,4.2-0.3,6c-0.3,0.4-0.6,0.3-0.9,0.2
				c-0.4-0.4-0.5-6-0.1-8.6c0.5-0.3,1-0.2,1.7-0.1c0.8,1.9,1.7,3.9,2.7,6.2C18.5,32.1,19.1,30,20.1,28.1z"/>
			<path d="M167.7,28.1c0.5-0.1,0.8-0.2,1.2,0.1c-0.6,2.8-1.6,5.5-2.3,8.3c-0.4,0.4-0.8,0.4-1.3,0.2c-0.9-1.9-1.2-4.1-2.1-6.2
				c-0.7,1-0.8,2.1-1.2,3.1c-0.4,1-0.5,2.2-1,3.1c-0.4,0.2-0.8,0.3-1.3-0.1c-0.8-2.7-1.6-5.5-2.4-8.2c0.5-0.5,0.8-0.3,1.2-0.2
				c0.6,2,1.2,4,1.7,6.1c0.1,0,0.2,0,0.3,0c0.6-2,1.2-4,1.8-5.9c0.5-0.3,0.9-0.3,1.4-0.1c0.9,1.9,1.2,4,2.1,6.4
				C166.5,32.1,167.1,30.1,167.7,28.1z"/>
			<path d="M56.8,36.5c-0.5,0.2-0.8,0.2-1.4,0c-0.8-2.7-1.6-5.5-2.4-8.2c0.3-0.5,0.7-0.3,1.1-0.4c0.9,2,1.1,4.2,2.1,6.5
				c0.7-2.3,1.3-4.3,1.9-6.3c0.6-0.3,0.9-0.3,1.4-0.1c0.8,1.9,1.2,4,2,6.3c0.9-2.2,1.2-4.3,1.9-6.2c0.4-0.3,0.8-0.2,1.3-0.1
				c-0.8,2.9-1.6,5.7-2.4,8.3c-0.5,0.4-0.8,0.4-1.3,0.2c-0.9-1.9-1.2-4.2-2.1-6.5C57.9,32.3,57.7,34.5,56.8,36.5z"/>
			<path d="M281.3,34.7c0.4-2.4-0.1-4.5,0.3-6.5c0.4-0.3,0.6-0.3,0.9-0.1c0.4,1.3,0.4,6.8,0.1,8.6c-0.1,0-0.3,0.1-0.5,0.1
				c-0.3,0-0.6,0-0.9,0c-1.5-2.2-3-4.3-4.5-6.5c-0.1,0-0.2,0.1-0.3,0.1c0,2.1,0,4.2,0,6.1c-0.5,0.4-0.8,0.3-1.2,0.2
				c0-2.8,0-5.6,0-8.4c0.5-0.4,1.1-0.3,1.7-0.1C278.2,30.1,279.7,32.3,281.3,34.7z"/>
			<path d="M225.5,32.3c0,2.7-1.8,4.6-4.5,4.6c-2.7,0-4.7-1.9-4.7-4.6c0-2.6,2-4.6,4.6-4.6C223.6,27.7,225.5,29.6,225.5,32.3z
				 M224.2,32.4c0-2-1.3-3.4-3.2-3.5c-1.9,0-3.3,1.4-3.3,3.4c0,1.9,1.4,3.3,3.1,3.4C222.7,35.8,224.1,34.3,224.2,32.4z"/>
			<path d="M235.4,36.3c-0.5,0.4-0.7,0.4-1,0.3c-0.4-0.4-0.5-6.3-0.1-8.5c0.4-0.3,0.9-0.2,1.5-0.1c1.4,2.1,2.9,4.3,4.4,6.4
				c0.1,0,0.2,0,0.3-0.1c0-2.1,0-4.2,0-6.1c0.5-0.4,0.7-0.4,1.1-0.1c0,2.7,0,5.5,0,8.3c-0.5,0.4-0.9,0.3-1.5,0.1
				c-1.4-2.1-2.9-4.2-4.4-6.4c-0.1,0-0.2,0-0.3,0.1C235.4,32.3,235.4,34.4,235.4,36.3z"/>
			<path d="M124.3,28.9c-1.3,0.4-2.6,0-4,0.3c-0.3,0.7-0.2,1.4-0.1,2.2c1.3,0.4,2.5,0,3.7,0.3c0.3,0.3,0.4,0.6,0.1,1.1
				c-1.2,0.4-2.5,0-3.8,0.3c-0.2,0.8-0.2,1.5-0.1,2.3c1.5,0.4,3-0.1,4.3,0.3c0.3,0.4,0.3,0.6,0.1,1.1c-1.8,0.1-3.6,0-5.4,0
				c-0.4-1.3-0.5-6.6-0.1-8.7c1.7-0.2,3.4-0.1,5.1-0.1C124.5,28.3,124.5,28.5,124.3,28.9z"/>
			<path d="M138.8,28c0.2,0.4,0.2,0.6,0.1,0.9c-1.2,0.4-2.6,0-4,0.3c-0.3,0.7-0.2,1.4-0.1,2.3c1.3,0,2.5,0,3.6,0
				c0.4,0.5,0.4,0.8,0.1,1.2c-1.1,0.3-2.3,0-3.5,0.2c-0.4,0.7-0.3,1.5-0.2,2.3c1.5,0.4,3-0.1,4.4,0.3c0.2,0.3,0.2,0.6,0,1
				c-1.8,0-3.7,0-5.6,0c-0.4-1.4-0.1-2.8-0.2-4.2c0-1.4,0-2.8,0-4.5C135.2,27.9,136.9,27.9,138.8,28z"/>
			<path d="M105.3,32.6c-0.3,1.5,0,2.7-0.3,3.9c-0.3,0.3-0.6,0.2-0.9,0.2c-0.4-0.4-0.4-6.1-0.1-8.5c0.3-0.3,0.6-0.2,1,0
				c0.4,1-0.1,2.1,0.3,3.2c1.4-0.9,2.3-2.2,3.5-3.2c0.5-0.2,1-0.2,1.6,0c-1.1,1.5-2.6,2.4-3.8,3.9c1.4,1.5,2.8,3,4.2,4.5
				c-0.7,0.4-1.2,0.2-1.7,0.1C107.9,35.4,106.7,34.1,105.3,32.6z"/>
			<path d="M78.9,36.8c-0.4-0.8-0.7-1.4-0.9-2c-1.3-0.3-2.6-0.1-3.9-0.1c-0.7,0.5-0.6,1.4-1.2,1.9c-0.3,0.2-0.7,0.2-1.3-0.1
				c1.2-2.7,2.4-5.5,3.6-8.2c0.4-0.3,0.8-0.4,1.4-0.1c1.1,2.7,2.3,5.5,3.5,8.2C79.8,37,79.3,36.6,78.9,36.8z M74.3,33.4
				c1.2,0.1,2,0.2,3-0.1c-0.4-1.2-0.7-2.3-1.5-3.4C75.2,31.1,74.8,32.1,74.3,33.4z"/>
			<path d="M93.8,28.2c0.3-0.3,0.7-0.3,1.1,0c0,1.9,0.1,3.9,0,5.9c-0.2,1.8-1.5,2.8-3.3,2.8c-1.8,0-3.1-0.9-3.4-2.7
				c-0.3-2-0.1-4-0.1-5.8c0.4-0.5,0.7-0.4,1.1-0.3c0.4,1.2,0.1,2.3,0.2,3.5c0,0.8,0,1.5,0.1,2.3c0.2,1.2,1,1.8,2,1.9
				c1.1,0,2-0.7,2.1-1.9c0.1-1.2,0-2.4,0.1-3.5C93.6,29.5,93.5,28.8,93.8,28.2z"/>
			<path d="M254.7,34.4c-0.1-0.9-0.7-1.1-1.3-1.3c-0.5-0.2-1.1-0.4-1.6-0.6c-0.9-0.5-1.2-1.2-1.2-2.2c0-1,0.5-1.7,1.3-2.2
				c1.3-0.7,2.8-0.5,4,0.6c0,0.4-0.3,0.6-0.8,0.8c-0.8-0.4-1.7-0.8-2.7-0.2c-0.5,0.5-0.5,1-0.2,1.6c0.5,0.6,1.3,0.7,2,1
				c1.5,0.6,2.2,1.4,2,2.7c-0.2,1.4-1.2,2.2-2.7,2.3c-1.4,0.1-1.9-0.1-3-1.1c0-0.4,0.3-0.6,0.7-0.8c0.7,0.4,1.5,1,2.5,0.6
				C254.2,35.4,254.5,35.1,254.7,34.4z"/>
			<path d="M186.8,35.8c0.2-0.4,0.4-0.6,0.9-0.8c0.7,0.3,1.5,1,2.5,0.6c0.5-0.2,0.9-0.5,1.1-1.1c0-0.8-0.5-1.1-1.2-1.4
				c-0.6-0.2-1.1-0.4-1.6-0.6c-1.1-0.5-1.6-1.5-1.4-2.6c0.2-1.1,0.8-1.8,1.9-2.1c1.3-0.4,2.2-0.1,3.4,0.8c0.1,0.4-0.3,0.6-0.6,0.9
				c-0.7-0.3-1.5-0.8-2.4-0.5c-0.5,0.2-0.8,0.5-0.9,1.1c0,0.7,0.5,1.1,1.1,1.4c0.5,0.2,1.1,0.4,1.7,0.6c1.1,0.5,1.6,1.2,1.5,2.3
				c-0.1,1.1-0.6,2-1.7,2.3C189.5,37.1,188,37.1,186.8,35.8z"/>
			<path d="M190.3,81.4c-0.4,0.1-0.6,0.1-0.9-0.1c0-1.7,0-3.5,0-5.3c0.5-0.4,0.8-0.1,1.2,0.2c1.1-0.6,2.3-0.8,3.4,0.2
				c0.5-0.2,0.9-0.5,1.3-0.6c1.4-0.4,2.5,0.4,2.6,1.8c0.1,1.2,0.2,2.5,0,3.6c-0.3,0.3-0.6,0.3-0.9,0.1c-0.5-1.3,0.2-2.8-0.4-4.1
				c-1.5-0.6-2.1-0.3-2.3,1.2c-0.1,1,0.2,2-0.2,2.9c-0.3,0.1-0.5,0.1-0.8,0c-0.6-1.3,0.4-3-0.7-4.3c-1.5-0.1-1.7,0.1-2,1.3
				C190.3,79.4,190.6,80.4,190.3,81.4z"/>
			<path d="M207.6,34.7c0.4,0.2,0.7,0.3,0.7,0.6c0,0.5-1,1.2-2,1.4c-2.3,0.5-4.4-0.6-5.2-2.6c-0.9-2.1-0.2-4.5,1.5-5.7
				c1.9-1.3,4-1.1,5.6,0.5c0,0.4-0.4,0.5-0.7,0.7c-2.5-1.1-3.8-0.9-4.9,0.6c-0.9,1.3-0.8,3.3,0.3,4.4C204.1,36,205.5,36,207.6,34.7z
				"/>
			<path d="M162.4,79.2c-1.5,0-2.8,0-4.2,0c0.6,1.7,1.2,1.8,3.3,0.8c0.2,0.1,0.4,0.2,0.5,0.5c-0.1,0.7-1.3,1.3-2.5,1.2
				c-1.7-0.1-2.9-1.5-2.8-3.2c0.1-1.7,1.4-2.8,3.1-2.8C161.5,75.8,162.3,76.7,162.4,79.2z M161.2,78.1c-0.1-0.9-0.6-1.3-1.4-1.3
				c-0.9,0-1.4,0.3-1.7,1.3C159.2,78.3,160.1,78.3,161.2,78.1z"/>
			<path d="M185.7,78.8c0,1.7-1.4,3-3,3c-1.7,0-3-1.3-3-3c0-1.7,1.3-3,3-3C184.4,75.8,185.7,77.1,185.7,78.8z M184.4,78.8
				c0-1.1-0.6-1.9-1.6-1.9c-1.1-0.1-1.9,0.7-1.9,1.8c0,1.1,0.8,2,1.8,1.9C183.7,80.6,184.4,79.9,184.4,78.8z"/>
			<path d="M121.9,81.8c-1.6,0-3.1-1.4-3.1-3c0-1.7,1.4-3,3.1-3c1.7,0,3,1.3,3,3C124.9,80.5,123.6,81.8,121.9,81.8z M123.7,78.8
				c0-1.1-0.7-2-1.8-2c-1,0-1.7,0.7-1.7,1.8c0,1.1,0.7,2,1.8,2C122.9,80.7,123.7,79.9,123.7,78.8z"/>
			<path d="M115.2,76.6c-0.6,1.4-2.1-0.7-2.7,0.9c0.3,0.6,0.9,0.6,1.5,0.8c1.1,0.4,1.6,1,1.5,1.9c-0.1,0.8-0.8,1.4-1.9,1.6
				c-1,0.1-1.9,0-2.5-0.9c-0.1-0.4,0.2-0.5,0.5-0.7c0.5-0.1,0.9,0.5,1.2,0.5c0.7,0.1,1-0.2,1.2-0.4c0.1-0.3,0-0.5-0.2-0.7
				c-0.7-0.5-1.7-0.4-2.4-1.1c-0.4-1.4-0.3-1.8,0.5-2.3C112.9,75.5,114.1,75.7,115.2,76.6z"/>
			<path d="M42.7,35.3c1.3,0.4,2.6,0,3.7,0.3c0.4,0.4,0.3,0.7,0.1,1.1c-1.6,0-3.2,0-4.9,0c0-2.9,0-5.7,0-8.4c0.2-0.3,0.5-0.3,1-0.2
				C42.7,30.4,42.5,32.9,42.7,35.3z"/>
			<path d="M151.7,77.3c-1.5-0.6-2.3-0.3-2.4,1.1c-0.1,0.9,0,1.9,0,2.6c-0.3,0.6-0.6,0.6-1.1,0.4c-0.1-1.7-0.1-3.5,0-5.5
				c1,0.3,1.9,0,2.8-0.1c1.2-0.2,2.1,0.6,2.2,1.8c0.1,1.3,0.1,2.6,0,3.7c-0.3,0.3-0.5,0.2-0.8,0.2C151.7,80.2,152.4,78.7,151.7,77.3
				z"/>
			<path d="M128.8,76c0.5-0.2,0.8-0.1,1.1,0.3c0.4-0.1,0.8-0.4,1.3-0.4c1.4-0.2,2.4,0.5,2.5,2c0.1,1.2,0,2.3,0,3.3
				c-0.3,0.5-0.6,0.4-0.9,0.3c-0.6-1.4,0.5-3.2-0.7-4.4c-0.7-0.3-1.2-0.2-1.7,0.2c-1,1.2-0.2,2.7-0.6,4c-0.2,0.3-0.4,0.3-0.7,0.2
				C128.5,81.2,128.4,78.3,128.8,76z"/>
			<path d="M176.5,76.7c-0.1,0.4-0.3,0.5-0.5,0.6c-1.9-0.5-2.7-0.3-3.1,0.8c-0.4,1.2,0.1,2,1.7,2.6c0.4-0.1,0.9-0.3,1.4-0.5
				c0.3,0.1,0.5,0.3,0.6,0.6c-1.4,1.2-3,1.2-4.2,0c-1-1.1-1-3.1,0-4.2C173.3,75.5,175,75.5,176.5,76.7z"/>
			<path d="M138.9,81.3c-0.6,0.3-0.8,0.3-1.2,0c-0.1-2.8,0-5.7,0-8.4c0.4-0.4,0.7-0.4,1.2-0.1C138.9,75.6,138.9,78.5,138.9,81.3z"/>
			<path d="M32.2,36.5c-0.4,0.3-0.7,0.2-1.1,0c0-2.7,0-5.5,0-8.3c0.3-0.4,0.7-0.3,1.1-0.2C32.2,30.9,32.2,33.7,32.2,36.5z"/>
			<path d="M264.8,28.1c0.5-0.1,0.8-0.2,1.1,0.1c0,2.7,0,5.5,0,8.2c-0.4,0.4-0.7,0.3-1.1,0.1C264.8,33.8,264.8,31,264.8,28.1z"/>
			<path d="M178.1,36.6c-0.2,0.1-0.4,0.1-0.7,0c-0.4-1.3-0.5-6.7-0.1-8.5c0.3-0.2,0.5-0.1,0.8-0.1C178.4,29.7,178.4,35.3,178.1,36.6
				z"/>
			<path d="M143,76.2c0.3-0.3,0.5-0.3,1-0.1c0.2,1.7,0,3.5,0.1,5.2c-0.4,0.4-0.7,0.4-1.1,0.1C143,79.7,143,77.9,143,76.2z"/>
			<path d="M147.8,32.6c0.2-0.3,0.4-0.5,0.6-0.8c0.2-0.2,0.4-0.4,0.8-0.4c0.5,0.2,0.7,0.5,0.9,1c0,0.7-0.4,1.1-1,1.3
				C148.4,33.7,148.1,33.2,147.8,32.6z"/>
		</g>
		<circle cx="167" cy="80.9" r="0.6"/>
		<circle cx="143.6" cy="74.7" r="0.6"/>
		<circle cx="106.8" cy="74.7" r="0.6"/>
	</g>
</g>
<g id="Layer_1">
</g>
</svg>
