<?xml version="1.0" encoding="utf-8"?>
<!-- Generator: Adobe Illustrator 18.0.0, SVG Export Plug-In . SVG Version: 6.00 Build 0)  -->
<!DOCTYPE svg PUBLIC "-//W3C//DTD SVG 1.1//EN" "http://www.w3.org/Graphics/SVG/1.1/DTD/svg11.dtd">
<svg version="1.1" xmlns="http://www.w3.org/2000/svg" xmlns:xlink="http://www.w3.org/1999/xlink" x="0px" y="0px"
	 viewBox="0 0 300 100" style="enable-background:new 0 0 300 100;" xml:space="preserve">
<style type="text/css">
	.st0{fill-rule:evenodd;clip-rule:evenodd;}
	.st1{fill-rule:evenodd;clip-rule:evenodd;fill:#C038F9;}
	.st2{fill:none;}
	.st3{fill-rule:evenodd;clip-rule:evenodd;fill:#231F20;}
</style>
<g id="Layer_2">
</g>
<g id="Layer_1">
	<g>
		<path d="M209,37.7c2,1.7,3.6,3.3,5.4,4.5c2.6,1.9,5.6,3,8.9,2.7c1.3-0.1,2.4-0.4,2.9-1.8c0-1.5-1-2.1-2.2-2.7
			c-1.7-0.7-3.4-1.4-5.1-2.2c-2.9-1.3-5.6-3-7.7-5.5c-2.7-3.2-3.4-6.9-2.8-10.9c1.2-8.9,8.5-13.7,15.1-14.8
			c6.9-1.1,13.5-0.6,19.7,2.8c1.4,0.7,2.7,1.7,4.2,2.7c-2.2,4.2-4.5,8.1-6.9,12c-3.7-2.4-7-5.6-12.1-4.8c-0.4,0.5-1,1.1-1.4,1.5
			c-0.1,1.8,0.8,2.7,1.9,3.2c1.6,0.8,3.2,1.5,4.8,2.2c3.4,1.5,6.5,3.4,9,6.7c0.3-1.2,0.5-2.2,0.7-3.3c1.4-8.6,6.3-14.8,13.6-19.1
			c3.8-2.3,8.1-3.3,12.6-3.4c6-0.1,11.5,1.3,16.5,4.7c7.7,5.4,11.7,12.7,11.9,22.1c0.2,7.7-2.5,14.2-7.7,19.6
			c-3.6,3.8-8,6.3-13.2,7.4c-7.4,1.6-14.5,0.8-21.1-3.2c-0.4-0.2-0.8-0.4-1.3-0.7c-0.5,2.5-1.1,4.9-4.1,6.2c-0.9,0-2.3,0.1-3.9,0.2
			c-0.1,0.8-0.3,1.5-0.4,2.6c-0.7,0.8-1.4,1.8-2.3,2.6c-7.5,7.4-15,14.8-22.5,22.2c-0.6,0.6-1.2,1.3-1.6,1.8c-1.1,0.4-1.9,0.7-2.7,1
			c-0.5-0.2-0.9-0.3-1.3-0.4c-3.1-0.8-3.5-4.8-1.3-6.9c2.5-2.4,4.9-4.9,7.3-7.3c5.7-5.6,11.5-11.2,17.2-16.9
			c1.2-1.2,2.5-1.9,4.1-1.8c0.5-5.8,0.5-6,5.8-8c-1.6-2.7-3.1-5.4-4.9-8.3c-0.2,0.6-0.3,1-0.4,1.4c-1.5,4.5-4.2,8.1-8.4,10.4
			c-5.3,2.9-10.8,3.8-16.8,3c-6.6-0.9-12.2-3.7-17.4-7.7c-0.3-0.3-0.6-0.6-1.2-1.1C203.2,46.2,206,42,209,37.7z M266.3,9.7
			c-0.7,0-1.3,0-1.9,0.1c-13.6,3.6-21.6,16.8-19.2,29.3c1,5.2,3.1,9.8,6.7,13.5c6.6,6.6,14.6,9.3,23.9,7.6
			c13.8-2.5,23.5-16.3,20.6-29.9c-2.2-10.8-9-17.4-19.4-20.6c-0.5-0.2-1.1,0-1.9,0c0.5,0.8,0.9,1.4,1.1,2.1
			c2.3,5.1,3.3,10.4,1.1,15.9c-0.8,1.9-1.7,3.7-2.5,5.5c-0.8,1.9-1.6,3.9-2.3,5.9c-0.4,1.1-0.6,2.3,0.1,3.5c1.3-0.3,1.2-1.2,1.4-2.1
			c0.9-4.7,3-8.8,6.5-12.1c1.4-1.4,3-2.4,5-3c4-1.1,7.4,0.3,8.6,4.6c0.5,1.8,0.5,3.5,0.3,5.5c-1.8-4.8-6-5.2-9.2-3.2
			c-3.7,2.3-6,5.6-7.1,9.5c0.8,0.9,1.4,1.6,1.9,2.1c-0.2,1.9-1.4,2.2-2.9,2.3c0.5,2,0.9,3.8,1.3,5.7c-2.8-1.2-3-1.4-4.9-5.8
			c-0.4,0.1-0.7,0.1-1.3,0.3c0.7,1.9,1.4,3.6,2.1,5.3c-0.3,3.8-1.5,5.6-4.3,6c-2.2-1.5-3.1-3.6-3-6.2c0.4-0.9,0.8-1.7,1.1-2.5
			c0.3-0.9,0.5-1.8,0.9-2.8c-0.5,0-0.9,0-1.1-0.1c-2.3,4.7-2.6,5.1-5.3,5.6c1-1.7,1.8-3.4,1.3-5.5c-1.2-0.4-2.4-0.8-2.4-2.6
			c0.6-0.5,1.2-1.1,2-1.8c-0.8-2.6-2.1-5-4-7.1c-1.3-1.4-2.9-2.6-4.7-3.3c-2.4-0.9-4.8-0.3-6.2,1.5c-0.5,0.7-0.9,1.5-1.5,2.5
			c0-1.4-0.1-2.5,0-3.7c0.4-3.6,2.4-7.7,8.2-6.7c0.9,0.1,1.7,0.5,2.5,0.8c2.2,1.1,4,2.7,5.4,4.6c2.3,3.1,4,6.4,4.5,10.3
			c0.1,0.8,0.2,1.6,1.3,1.6c0.7-0.8,0.4-1.7,0.3-2.5c-0.3-1.2-0.6-2.4-1.1-3.5c-1.1-2.7-2.3-5.3-3.5-8c-1.8-3.9-2-8-0.8-12.1
			C264.4,14.2,265.3,12.1,266.3,9.7z M219,92.4c0.3-0.2,0.6-0.4,0.8-0.7c8.2-8.2,16.4-16.3,24.5-24.5c0.6-0.6,1-1.4,1.4-2.2
			c0.1-0.3-0.1-0.7-0.2-1.3c-3.2,3-6.2,5.8-9.1,8.7c-5.3,5.3-10.6,10.6-15.9,15.9c-0.7,0.7-1.4,1.3-1.8,1.7
			c-1.7,0.5-2.6-0.4-3.6-1.3c-0.7,2,0.4,2.9,1.5,3.7c0.5,0,0.9,0.1,1.4,0.1C218.2,92.5,218.6,92.5,219,92.4z M253.2,60.3
			c0.3-3,0.3-3-0.8-4.1c-0.3,2.3-0.3,2.3-1.5,4.3c-1.5,1.1-3.1,1.1-5,0.7C248.8,63.6,250.7,63.3,253.2,60.3z"/>
		<path d="M184.7,7.8c6.1,0,11.9,0,17.8,0c0.1,0,0.1,0.1,0.2,0.2c0,0.1,0.1,0.1,0.1,0.2c0,0.2,0.1,0.4,0,0.5
			c-3.1,16.4-6.2,32.8-9.2,49.2c-1.9,0.6-14.5,0.6-18.6,0c-3.3-8.3-6-16.9-9.5-25.7c-1.6,9-3.1,17.5-4.6,26c-6.1,0-12.1,0-18.1,0
			c-0.1-0.1-0.2-0.1-0.2-0.2c0-0.1-0.1-0.2-0.1-0.3c0-0.3,0-0.5,0-0.8c3.1-16.3,6.1-32.6,9.3-49.1c1.9-0.3,4-0.1,6-0.1
			c2,0,4.1,0,6.1,0c2,0,4.1,0,6.4,0c1.6,4.2,3.2,8.5,4.7,12.8c1.5,4.3,2.9,8.6,4.5,13.2c0.2-0.4,0.5-0.7,0.6-1
			c1.2-6.5,2.5-12.9,3.7-19.4C184.1,11.5,184.3,9.8,184.7,7.8z"/>
		<path d="M134.3,58.3c-12.3,0-24.2,0-36.3,0c3.1-16.9,6.3-33.7,9.4-50.5c11.8,0,23.2,0,34.8,0c-0.8,4.4-1.6,8.7-2.4,13
			c-5.7,0.2-11.1,0-16.7,0.1c-0.4,1.8-0.7,3.3-1,4.9c1.8,0.8,3.4,0.4,5.1,0.4c1.8,0.1,3.5,0,5.3,0c1.7,0,3.3,0,5.3,0
			c-0.8,4.3-1.5,8.3-2.3,12.5c-5.3,0-10.4,0-15.6,0c-0.4,1.9-0.8,3.7-1.2,5.8c0.7,0.1,1.4,0.3,2,0.3c4.5,0,9,0,13.5,0
			c0.9,0,1.7,0,2.7,0C135.9,49.4,135.1,53.8,134.3,58.3z"/>
		<path d="M67.9,7.8c6.1,0,12,0,18.2,0c-0.1,3.1-0.9,5.9-1.5,8.8c-0.6,2.9-1.1,5.9-1.7,8.8c-0.5,2.8-1.1,5.7-1.6,8.5
			c-0.5,2.9-1,5.9-1.6,8.9c1.8,0.7,3.5,0.3,5.2,0.3c1.7,0.1,3.4,0,5,0c1.8,0,3.5,0,5.4,0c-0.9,5.1-1.9,10-2.8,14.9
			c-2.1,0.4-30.6,0.5-34.2,0.1c1.2-8.4,3.1-16.7,4.5-25.1C64.5,24.7,66.2,16.3,67.9,7.8z"/>
		<path d="M17.7,37.1c1.4-9.8,3.1-19.3,4.5-29c1.2-0.7,2.6-0.3,3.9-0.3c1.3-0.1,2.6,0,4.1,0c-0.5,3.5-1.1,6.9-1.6,10.2
			c1.3,0.7,2.5,0.5,3.8,0.2c0.6-3.5,1.2-6.9,1.8-10.3c2.7,0,5.1,0,7.8,0c-1.6,9.8-3.1,19.5-4.7,29.2c-2.7,0-5.2,0-7.9,0
			c0.4-3.8,1.4-7.5,1.6-11.4c-1.3,0-2.4,0-3.7,0c-0.6,3.9-1.3,7.6-1.9,11.4C22.9,37.1,20.4,37.1,17.7,37.1z"/>
		<path d="M41.4,37.1c0.8-4.9,1.6-9.8,2.4-14.6c0.8-4.8,1.5-9.7,2.3-14.6c4.9,0,9.6,0,14.4,0c-0.4,2.2-0.7,4.2-1.1,6.5
			c-2.1,0-4.1,0-6.4,0c-0.3,1.5-0.5,2.7-0.7,4.1c1.8,0.8,3.7,0,5.7,0.6c-0.3,1.8-0.5,3.7-0.8,5.8c-2,0.2-3.9,0.3-5.9,0.5
			c-0.3,1.6-0.5,2.8-0.8,4.2c2.1,0.8,4.2,0.1,6.3,0.6c-0.1,2.3-0.6,4.6-1.1,6.9C50.9,37.1,46.3,37.1,41.4,37.1z"/>
		<path d="M1.5,37.2c0.6-3.9,1.2-7.5,1.7-11.1C3.8,22.5,4.3,18.9,5,15c-1.8,0-3.3,0-5,0c0.4-2.5,0.7-4.7,1-6.9
			c1.9-0.5,13.8-0.7,18-0.2c-0.4,2.2-0.7,4.5-1.1,6.9c-1.6,0.1-3.2,0.2-5,0.3c-1.2,7.4-2.4,14.6-3.6,22.1c-1.3,0-2.6,0-3.9,0
			C4.2,37.2,2.9,37.2,1.5,37.2z"/>
		<path d="M82.7,64.5c1,0.3,1.7,0.5,2.5,0.7c0.6,1.5,0.8,2.9-0.2,4.2c-0.8,1.1-1.9,1.4-3.3,1.1C82,68.6,82.3,66.7,82.7,64.5z"/>
		<path d="M165.8,65c0.3,0.8,0.5,1.2,0.7,1.6c-0.7,3.6-1,3.9-3.8,3.8c-0.5-1.9,0.5-3.5,0.5-5.4C164.2,65,164.9,65,165.8,65z"/>
		<path d="M105.4,67.4c0.3-0.9,0.6-1.8,0.8-2.8c0.1,0,0.2,0,0.3,0c0.1,0.4,0.3,0.8,0.2,1.1c-0.7,1.5,0,3.5-1.5,5.2
			c-0.4-1.4-0.8-2.5-1.2-4c-0.5,1.4-0.8,2.6-1.2,3.7c-0.2-0.1-0.3-0.1-0.5-0.2c0.3-1.9,0.7-3.9,1.1-6.2c0.6,0.5,1,0.8,1.2,1.2
			c0.2,0.6,0.2,1.2,0.3,1.8C105,67.3,105.2,67.4,105.4,67.4z"/>
		<path d="M154.4,69.4c-0.7,0.5-1.1,0.8-1.6,1.2c-0.6-0.7,1.1-4.9,2.5-6c1.4,1.9,0.6,4,0.9,6.4C155.4,70.3,155,69.9,154.4,69.4z"/>
		<path d="M125.5,70.6c0.1-2.1-0.2-4.1,0.9-6.2c0.8,0.3,1.6,0.5,2.2,0.7c0.9,1.6-0.2,2.1-1,2.8c0.2,0.8,0.4,1.7,0.7,2.6
			c-1.6,0-0.9-1.5-1.6-2.3C126.3,69.1,125.9,69.9,125.5,70.6z"/>
		<path d="M157.6,71c-0.4-2.3,0.5-4,0.5-5.8c0-0.3,0.2-0.7,0.4-1c0.2,0.1,0.4,0.2,0.7,0.3c0.3,1,0.7,2.1,1.1,3.4
			c0.4-1.2,0.7-2.2,1.1-3.7c0.5,2.5-0.2,4.3-0.5,6.3c-1.1-0.8-1.1-0.8-1.6-3.3C157.7,68,158.7,69.6,157.6,71z"/>
		<path d="M144.3,68.2c0.3-1.4,0.6-2.4,0.8-3.4c0.8,2-0.1,3.9-0.3,5.8c-1.1-0.1-1.1-0.9-1.2-1.5c-0.1-0.7,0-1.5-1-1.8
			c-0.1,1.1-0.3,2.2-0.5,3.6c-1-0.8-0.8-1.7-0.5-2.3c0.6-1.3-0.3-3,1.5-4.1C143.4,65.6,143.8,66.7,144.3,68.2z"/>
		<path d="M140,70.8c-0.6-0.5-1-0.9-1.5-1.3c-0.7,0.4-1.3,0.8-2.1,1.3c1.5-5.4,1.5-5.4,3-6.1C140.2,66.6,140.3,68.5,140,70.8z"/>
		<path d="M97,68c0.7-1.1,0-2.5,1.2-3.5c0.4,2.2-0.5,4.1-0.6,6.1c-0.4-0.1-0.7-0.1-0.9-0.2c-0.4-1.1-0.7-2.1-1.1-3.3
			c-0.9,1.1,0,2.6-1.3,3.6c-0.6-2,0.5-3.7,0.4-5.5c0.4-0.1,0.6-0.1,1-0.2C96.2,65.9,96.5,66.9,97,68z"/>
		<path d="M214.1,64.5c0.7,0.1,0.9,0.1,1.4,0.2c0,1.8,0,3.7,0,5.6c-0.4-0.2-0.9-0.5-1.5-0.9c-0.6,0.4-1.1,0.8-2.2,1.5
			C212.7,68.5,213.3,66.6,214.1,64.5z"/>
		<path d="M120.6,70.2c-0.9-3.1-0.4-4.5,2.1-5.7c0.5,0.4,1,0.8,1.4,1.1C124.3,69.7,123.2,71,120.6,70.2z M121.5,69.8
			c1.6-0.5,1.7-1.8,1.8-3c0-0.8-0.3-1.4-1.4-1.2C121,66.8,120.7,68.2,121.5,69.8z"/>
		<path d="M208,65.5c0.6-0.3,1.1-0.6,1.7-1c0.5,0.2,0.9,0.4,1.5,0.7c0.4,1.3,0.4,2.6-0.1,3.9c-0.4,1.1-1.2,1.7-2.6,1.6
			C206.2,69.2,207.7,67.3,208,65.5z M210.1,65.3c-2.3,1.6-2.5,3-0.8,4.4C210.8,68.6,210.5,67.1,210.1,65.3z"/>
		<path d="M174.6,64.7c0.1,0.7,0.2,1.4,0.3,2.2c0.5,0,0.8,0,1.3,0c0.2-0.8,0.4-1.5,0.6-2.2c0.2,0,0.5,0,0.5,0.1
			c0.3,2-0.4,3.8-1.2,5.7c0-0.7-0.1-1.5-0.2-2.3c-0.5,0-0.9,0-1.4,0c-0.2,0.8-0.3,1.6-0.5,2.3c-0.2,0-0.5,0-0.5,0
			C173,68.4,173.8,66.6,174.6,64.7z"/>
		<path d="M90.1,70.6c-1.6-1.8-1.6-1.8-0.4-5.2c0.5-0.3,1.1-0.6,1.7-1c0.5,0.4,1,0.8,1.4,1.1c0,1.1,0,2.2,0,3.1
			C92.3,69.8,91.7,70.8,90.1,70.6z M91.7,65.3c-1.7,0.8-1.9,2.1-1.9,3.4c0,0.7,0.4,1.1,1.3,0.9C92.2,68.5,92.4,67.1,91.7,65.3z"/>
		<path d="M73,64.7c-0.2,1.9,0.1,4-1.1,5.8c-0.8,0-1.6,0-2.3,0c-0.8-2.1,0.2-3.9,0.4-5.9c0.9,0.3,0.7,1,0.6,1.5
			c-0.2,1.2-0.8,2.3-0.1,3.6c1.2,0.1,1.3-0.7,1.4-1.5C72,66.9,72,65.7,73,64.7z"/>
		<path d="M190.2,69.6c0.5,0,0.9,0,1.3,0c0.4-1.7,0.8-3.3,1.2-4.9c0.9,1.7-0.2,3.3-0.1,4.8c-0.9,1.4-1.9,1.5-3.3,0.7
			c-0.3-1.9,0.5-3.6,0.6-5.5c0.2,0,0.5,0.1,0.7,0.1C190.5,66.3,190.4,67.8,190.2,69.6z"/>
		<path d="M62.5,64.5c0.4,0.2,0.8,0.4,1.2,0.7c0.3,1.4,0.4,2.8-0.2,4.1c-0.5,1.1-1.4,1.5-2.7,1.2c-0.3-0.5-0.6-1.1-1-1.6
			C60.4,67.2,59.9,65.1,62.5,64.5z M61.7,69.9c1.6-1.1,1.2-2.5,1.6-3.7c-0.4-0.3-0.6-0.5-1-0.8c-1.4,0.8-1.3,2.2-1.6,3.4
			C61,69.2,61.3,69.5,61.7,69.9z"/>
		<path d="M186.5,64.4c0.5,0.4,1,0.7,1.4,1c0,0.1-0.1,0.2-0.1,0.4c-0.5-0.1-1.1-0.2-1.6-0.3c-0.9,1.2-0.9,1.2-1.2,3.4
			c0.2,0.2,0.4,0.5,0.7,0.9c0.4-0.3,0.8-0.6,1.2-0.8c-0.1-0.5-0.2-0.9-0.2-1.4c0.4,0,0.7,0.1,1,0.1c0,1.4,0,1.4-0.9,2.8
			c-0.7,0-1.4,0-2.1,0C183.8,67.2,184.2,66,186.5,64.4z"/>
		<path d="M79,64.5c0.9,0.1,1.5,0.2,2.4,0.2c-0.8,0.7-1.4,1.2-2.1,1.8c0.7,0.4,1.1,0.7,1.6,1c-0.6,0.3-1.1,0.6-1.8,1
			c0.4,0.6,0.8,1.1,1.3,1.9c-0.8,0.1-1.5,0.1-2.3,0.2C78.3,68.6,78.6,66.7,79,64.5z"/>
		<path d="M218.9,64.5c0.4,0.2,0.8,0.4,1.6,0.8c-0.8,0.3-1.4,0.5-2.1,0.8c0.4,1.3,1.9,2.1,1.3,3.6c-1.6,1.3-1.6,1.3-3.1-0.2
			c0.6,0.1,0.9,0.3,1.1,0.2c0.3,0,0.6-0.1,1-0.2c0.3-1.4-1-1.9-1.3-2.9C217.1,65.6,217.8,65,218.9,64.5z"/>
		<path d="M179.1,64.6c0.8,0,1.3,0.1,1.8,0.1c0.1,0.2,0.2,0.3,0.3,0.5c-0.7,0.3-1.4,0.6-2.4,0.9c0.9,0.8,1.3,1.1,1.6,1.3
			c-0.4,0.6-0.9,1.3-1.4,1.9c0.6,0.4,1,0.6,1.9,1.1c-1.3,0-2.1,0-2.9,0C178.4,68.5,178.8,66.6,179.1,64.6z"/>
		<path d="M74.9,65.1c0.3-0.1,0.8-0.4,1.4-0.7c0.3,0.4,0.6,0.7,0.9,1c-0.7,0.3-1.2,0.4-1.8,0.7c0.6,1.1,1.1,2,1.6,2.9
			c-0.5,1.5-1.4,1.9-3.2,1.3c0.9-0.4,1.5-0.7,2-1c0-0.3,0.1-0.5,0-0.6C75.1,67.6,74,66.8,74.9,65.1z"/>
		<path d="M135.8,70.5c-1.1,0-1.8,0-2.8,0c0.4-2,0.7-3.9,1-5.9c0.7,0,1.3,0,2.2,0c-0.7,0.7-1.2,1.2-1.8,1.7c0.4,0.5,0.7,0.8,1,1.1
			c-0.6,0.4-1.1,0.8-1.9,1.3C134.4,69.5,134.9,69.9,135.8,70.5z"/>
		<path d="M148.5,69.2c-0.6-1.1-1.1-2-1.8-3.1c0.5-0.6,1.1-1.1,1.7-1.8c0.6,0.4,0.9,0.7,1.5,1.1c-0.8,0.2-1.3,0.3-1.9,0.4
			c0.2,1.5,2,2.6,0.9,4.2c-1.1,0.5-1.1,0.5-2.6,0c0.6-0.2,0.8-0.3,1.1-0.4C147.8,69.6,148,69.5,148.5,69.2z"/>
		<path d="M108.3,69.2c0.7,0.4,1.1,0.6,2,1.1c-1.2,0.1-1.9,0.2-2.9,0.3c0.4-2.2,0.7-4.1,1.1-6c0.7,0,1.2,0,2.2,0
			c-0.8,0.6-1.2,0.9-1.9,1.4c0.3,0.5,0.6,0.9,0.9,1.5c0,0-0.1,0.2-0.3,0.4C109.1,68.4,108.8,68.8,108.3,69.2z"/>
		<path d="M115.2,68.4c0.5-1.3,1-2.5,1.6-4c0.3,1.9-0.7,4.8-2.1,6.5c-0.1-2.2-0.8-4-0.7-6c0.2,0,0.5-0.1,0.7-0.1
			c0.1,1.1,0.2,2.3,0.2,3.4C115,68.2,115.1,68.3,115.2,68.4z"/>
		<path d="M68.4,64.9c-1.1,0.8-2.3,1.5-2.4,3.3c0.3,0.5,0.8,1.3,1.4,2.2c-0.9,0.5-1.6,0.1-2.1-0.7c-0.7-1.2-0.3-2.4,0.2-3.5
			C66.2,65,67.1,64.5,68.4,64.9z"/>
		<path d="M197.4,70.5c0.1-1,0.2-2,0.3-3c0.2-0.9,0.4-1.9,0.7-2.9c0.7,0,1.3,0,2.1,0c-0.1,0.3-0.2,0.6-0.3,0.6
			c-0.8,0.1-1.3,0.5-1.3,1.5c0.3,0.1,0.7,0.3,1.2,0.6c-0.5,0.3-0.9,0.6-1.3,0.9c-0.3,0.7-0.7,1.6-1,2.4
			C197.7,70.6,197.6,70.6,197.4,70.5z"/>
		<path d="M204.4,69c0.5,0.4,1,0.8,1.5,1.3c-0.3,0.2-0.5,0.4-0.7,0.4c-0.6-0.1-1.1-0.4-1.6-0.5c-0.6-3.9,0.1-5.2,2.7-5.2
			C204.5,66.6,204.5,66.6,204.4,69z"/>
		<path d="M57.4,66.5c0.5,0.4,0.8,0.6,1.1,0.8c-0.7,1.1-1.3,2.2-2,3.3c-0.1,0-0.2-0.1-0.3-0.1c0.3-1.9,0.7-3.9,1-5.9
			c0.7,0,1.2,0,2.1,0C58.5,65.3,58.1,65.8,57.4,66.5z"/>
		<path d="M170.7,70.5c-0.8-1.9,0.8-3.8-0.9-5.8c1.1,0,1.9,0,2.5,0C171.8,66.7,171.3,68.6,170.7,70.5z"/>
		<path d="M224.4,64.5c-2.2,1.9-1.6,4.2-2.4,6.4c-1.2-2.2,1-4.2-0.8-6.2C222.3,64.7,223.1,64.6,224.4,64.5z"/>
		<path d="M196.3,70.5c-0.7,0-1.5,0-2.3,0c0.6-2,0.3-4,1.7-5.8c-0.2,1.5-0.3,3-0.5,4.8c0.4,0.2,0.8,0.4,1.3,0.6
			C196.5,70.2,196.4,70.3,196.3,70.5z"/>
		<path d="M112.8,70.5c-0.2,0-0.4,0.1-0.9,0.1c-0.5-2-0.2-4-0.3-6.5c1.3,1.3,0.8,2.4,0.9,3.3C112.8,68.4,113.6,69.4,112.8,70.5z"/>
		<path d="M131.3,64.8c-0.1,1.5-0.3,2.9-0.4,4.5c0.3,0.2,0.7,0.4,1.2,0.8c-0.6,0.8-1.4,0.5-2.3,0.3C130.1,68.5,130,66.5,131.3,64.8z
			"/>
	</g>
</g>
</svg>
