<?xml version="1.0" encoding="utf-8"?>
<!-- Generator: Adobe Illustrator 18.0.0, SVG Export Plug-In . SVG Version: 6.00 Build 0)  -->
<!DOCTYPE svg PUBLIC "-//W3C//DTD SVG 1.1//EN" "http://www.w3.org/Graphics/SVG/1.1/DTD/svg11.dtd">
<svg version="1.1" xmlns="http://www.w3.org/2000/svg" xmlns:xlink="http://www.w3.org/1999/xlink" x="0px" y="0px"
	 viewBox="0 0 300 100" style="enable-background:new 0 0 300 100;" xml:space="preserve">
<style type="text/css">
	.st0{fill-rule:evenodd;clip-rule:evenodd;}
	.st1{fill-rule:evenodd;clip-rule:evenodd;fill:#C038F9;}
	.st2{fill:none;}
	.st3{fill-rule:evenodd;clip-rule:evenodd;fill:#231F20;}
</style>
<g id="Layer_2">
	<g>
		<g>
			<path d="M128.4,67.7V33.4h6.8l8.1,24.3c0.8,2.3,1.3,4,1.6,5.1c0.4-1.3,1-3.1,1.8-5.5l8.2-23.9h6.1v34.4h-4.4V39l-10,28.8h-4.1
				l-9.9-29.3v29.3H128.4z"/>
			<path d="M166.9,55.3c0-4.6,1.3-8,3.8-10.2c2.1-1.8,4.7-2.8,7.8-2.8c3.4,0,6.2,1.1,8.4,3.4c2.2,2.2,3.3,5.3,3.3,9.3
				c0,3.2-0.5,5.7-1.4,7.6c-1,1.8-2.4,3.3-4.2,4.3c-1.8,1-3.8,1.5-6,1.5c-3.5,0-6.3-1.1-8.5-3.4C168,62.7,166.9,59.5,166.9,55.3z
				 M171.3,55.3c0,3.2,0.7,5.6,2.1,7.2s3.1,2.4,5.3,2.4c2.1,0,3.8-0.8,5.2-2.4c1.4-1.6,2.1-4,2.1-7.3c0-3.1-0.7-5.4-2.1-7
				c-1.4-1.6-3.1-2.4-5.2-2.4c-2.1,0-3.9,0.8-5.3,2.4S171.3,52.1,171.3,55.3z"/>
			<path d="M195.7,67.7V42.8h3.8v3.5c1.8-2.7,4.5-4.1,7.9-4.1c1.5,0,2.9,0.3,4.1,0.8c1.3,0.5,2.2,1.2,2.8,2.1
				c0.6,0.9,1.1,1.9,1.3,3.1c0.2,0.8,0.2,2.1,0.2,4.1v15.3h-4.2V52.6c0-1.7-0.2-3-0.5-3.9c-0.3-0.9-0.9-1.5-1.7-2
				c-0.8-0.5-1.8-0.8-2.9-0.8c-1.8,0-3.3,0.6-4.7,1.7c-1.3,1.1-2,3.3-2,6.5v13.6H195.7z"/>
			<path d="M239.9,59.7l4.4,0.5c-0.7,2.5-2,4.5-3.8,5.9c-1.9,1.4-4.2,2.1-7.1,2.1c-3.6,0-6.5-1.1-8.7-3.4c-2.1-2.2-3.2-5.4-3.2-9.4
				c0-4.2,1.1-7.4,3.2-9.8s5-3.5,8.4-3.5c3.3,0,6,1.1,8.2,3.4c2.1,2.3,3.2,5.5,3.2,9.6c0,0.3,0,0.6,0,1.1h-18.6
				c0.2,2.7,0.9,4.8,2.3,6.3c1.4,1.5,3.1,2.2,5.2,2.2c1.5,0,2.9-0.4,4-1.2C238.4,62.8,239.3,61.5,239.9,59.7z M226,52.9h13.9
				c-0.2-2.1-0.7-3.7-1.6-4.7c-1.3-1.6-3.1-2.4-5.2-2.4c-1.9,0-3.6,0.6-4.9,1.9C226.9,49,226.2,50.7,226,52.9z"/>
			<path d="M249.8,77.3l-0.5-4c0.9,0.2,1.7,0.4,2.4,0.4c0.9,0,1.7-0.2,2.3-0.5c0.6-0.3,1-0.8,1.4-1.3c0.3-0.4,0.7-1.5,1.3-3.1
				c0.1-0.2,0.2-0.6,0.4-1l-9.4-24.9h4.5l5.2,14.4c0.7,1.8,1.3,3.8,1.8,5.8c0.5-1.9,1.1-3.8,1.7-5.7l5.3-14.5h4.2L261,68.1
				c-1,2.7-1.8,4.6-2.4,5.6c-0.8,1.4-1.6,2.4-2.6,3.1c-1,0.6-2.1,1-3.5,1C251.7,77.8,250.8,77.7,249.8,77.3z"/>
		</g>
		<path d="M23.7,4.2V94h89.8V4.2H23.7z M53.4,55.7V38.4c0-3.4,2.8-6.1,6.1-6.1c2.2,0,4,1.1,5.1,2.8l8.1,12.7l0-9.3
			c0-3.4,2.7-6.1,6.1-6.1c2.2,0,4,1.1,5.1,2.8l8.1,12.7V32.3h4.2l0,27.4c0,0.4-0.3,0.7-0.7,0.7c-0.2,0-0.4-0.1-0.6-0.3L80.6,37.4
			c-0.4-0.5-1-0.9-1.6-0.9c-1.1,0-2,0.9-2,2v21.3c0,0.4-0.3,0.7-0.7,0.7c-0.2,0-0.4-0.1-0.6-0.3L61.2,37.4c-0.4-0.5-0.9-0.9-1.6-0.9
			c-1.1,0-2,0.9-2,2l0,21.4c0,0.3-0.3,0.6-0.6,0.6H45.9c-6.3,0-11.4-5.1-11.4-11.4c0-6.3,5.1-11.4,11.4-11.4c0,0,6.3,0,6.3,0
			c0,0,0,4.2,0,4.2l-6.3,0c-4,0-7.2,3.2-7.2,7.2s3.2,7.2,7.2,7.2h6.9C53.1,56.3,53.4,56,53.4,55.7z M101.9,59.7
			c0,3.4-2.8,6.2-6.1,6.2c-2.1,0-4-1.1-5.1-2.8l-8.1-12.8v9.4c0,3.4-2.7,6.2-6.1,6.2c-2.1,0-4-1.1-5.1-2.8L63,50.3l0,10.2
			c0,3-2.4,5.3-5.4,5.3H45.9c-9.3,0-16.8-7.5-16.8-16.8c0-9.3,7.5-16.8,16.8-16.8c0,0,6.3,0,6.3,0v4.2h-6.3c-7,0-12.6,5.6-12.6,12.6
			s5.6,12.6,12.6,12.6l11.8,0c0.7,0,1.2-0.5,1.2-1.2V38.4c0-0.4,0.3-0.7,0.7-0.7c0.2,0,0.5,0.1,0.6,0.3l14.5,22.8
			c0.4,0.5,1,0.9,1.6,0.9c1.1,0,2-0.9,2-2V38.4c0-0.4,0.3-0.7,0.7-0.7c0.2,0,0.5,0.1,0.6,0.3l14.5,22.8c0.4,0.5,0.9,0.9,1.6,0.9
			c1.1,0,2-0.9,2-2V32.3h4.2V59.7z"/>
	</g>
</g>
<g id="Layer_1">
</g>
</svg>
