<?xml version="1.0" encoding="utf-8"?>
<!-- Generator: Adobe Illustrator 18.0.0, SVG Export Plug-In . SVG Version: 6.00 Build 0)  -->
<!DOCTYPE svg PUBLIC "-//W3C//DTD SVG 1.1//EN" "http://www.w3.org/Graphics/SVG/1.1/DTD/svg11.dtd">
<svg version="1.1" xmlns="http://www.w3.org/2000/svg" xmlns:xlink="http://www.w3.org/1999/xlink" x="0px" y="0px"
	 viewBox="0 0 300 100" style="enable-background:new 0 0 300 100;" xml:space="preserve">
<style type="text/css">
	.st0{fill-rule:evenodd;clip-rule:evenodd;}
	.st1{fill-rule:evenodd;clip-rule:evenodd;fill:#C038F9;}
	.st2{fill:none;}
	.st3{fill-rule:evenodd;clip-rule:evenodd;fill:#231F20;}
</style>
<g id="Layer_2">
	<path d="M289.9,40.4v-10H255v9.4c-1.4-5.9-6.3-10.4-16-10.4c-9.5,0-16.5,4.1-16.5,12.1c0,14.5,21.9,10.6,21.9,16.3
		c0,1.8-2.1,2.8-5.2,2.8c-1.2,0-2.5-0.3-3.5-1c-1.1-0.6-1.8-1.6-2.1-3h-11.9c0.2,5,3.7,9.4,9.5,11.5h-21c7.4-2.6,12.4-9.1,12.4-19
		c0-10-6.4-19.8-20-19.8c-11.8,0-19.9,7.8-19.9,19.7c0,9.9,4.7,16.5,12.2,19.1h-34.2V56.6h6.3c10.9,0,15.8-5.2,15.8-13.4
		c0-7.8-5.3-12.8-16.2-12.8h-18.3v37.8h-1.9V30.4h-11.9v12.1l0.5,8.7l-13.6-20.8h-11.7v37.8h-2.5V30.4H95.2v12.1l0.5,8.7L82.1,30.4
		H70.5v37.8h-3V30.4H55v37.8h-2.4V30.4h-15l-6.7,23.7l-6.7-23.7h-15v45L285.8,76v-7.8h-7.1V40.4H289.9z M202.6,38.7
		c5.5-0.2,7.6,5.3,7.6,10.5c0,6.3-2.1,10.9-7.5,10.9c-6,0-7.4-6.1-7.4-10.9C195.3,44.4,197,38.7,202.6,38.7z M160.8,39.3h3.5
		c2.6,0,6.7,0.5,6.7,4c0,3.3-2.1,4.4-5,4.4h-5.2V39.3z M121.1,47.7l13.4,20.5h-12.9V56.4L121.1,47.7z M81.9,47.7l13.4,20.5H82.4
		V56.4L81.9,47.7z M42.1,44h0.1l-0.6,6.9l-0.2,5.9v11.4h-6.2L42.1,44z M19.6,44l6.9,24.2h-6.2V55.6L20,49.6L19.5,44H19.6z
		 M247.2,68.2c5.6-1.8,9.1-5.8,9.1-11.9c0-13.8-21.9-10.3-21.9-16c0-1.4,1.2-2.2,4-2.2c1.2,0,2.3,0.2,3.2,0.7
		c0.9,0.5,1.6,1.3,1.8,2.6h11.8c0-0.4-0.1-0.7-0.2-1.1h11.1v27.8H247.2z"/>
</g>
<g id="Layer_1">
</g>
</svg>
