<?xml version="1.0" encoding="utf-8"?>
<!-- Generator: Adobe Illustrator 18.0.0, SVG Export Plug-In . SVG Version: 6.00 Build 0)  -->
<!DOCTYPE svg PUBLIC "-//W3C//DTD SVG 1.1//EN" "http://www.w3.org/Graphics/SVG/1.1/DTD/svg11.dtd">
<svg version="1.1" xmlns="http://www.w3.org/2000/svg" xmlns:xlink="http://www.w3.org/1999/xlink" x="0px" y="0px"
	 viewBox="0 0 300 100" style="enable-background:new 0 0 300 100;" xml:space="preserve">
<style type="text/css">
	.st0{fill-rule:evenodd;clip-rule:evenodd;}
	.st1{fill-rule:evenodd;clip-rule:evenodd;fill:#C038F9;}
	.st2{fill:none;}
	.st3{fill-rule:evenodd;clip-rule:evenodd;fill:#231F20;}
</style>
<g id="Layer_2">
	<g id="Layer_2_1_">
		<g>
			<path d="M121.4,18.8c0,3.7,0.1,4.3,2.1,4.5l1.2,0.1c0.2,0.1,0.1,0.7-0.1,0.9c-2-0.1-3.3-0.1-4.7-0.1c-1.5,0-2.7,0-5,0.1
				c-0.2-0.1-0.3-0.7,0-0.9l1.3-0.1c2-0.2,2.2-0.7,2.2-4.5V2.7c0-1.1,0-1.2-1.1-1.2h-2c-1.6,0-3.5,0.1-4.5,0.9
				c-0.9,0.7-1.2,1.6-1.6,2.4c-0.3,0.2-0.7,0-1-0.2c0.5-1.6,1.1-3.9,1.4-5.3c0.1-0.1,0.5-0.1,0.6,0c0.2,1.2,1.4,1.1,3.1,1.1H128
				c1.9,0,2.2-0.1,2.8-1c0.2-0.1,0.5,0,0.6,0.1C131,1,130.8,3.9,130.9,5c-0.1,0.3-0.7,0.3-1,0.1c-0.1-0.9-0.3-2.2-0.9-2.7
				c-0.9-0.6-2.2-0.9-4.2-0.9h-2.6c-1.1,0-1.1,0-1.1,1.2v16.1H121.4z"/>
			<path d="M143.8,12c-1.7,0-1.8,0.1-1.8,1.2v5.1c0,3.7,0.2,4.3,2.2,4.5l1.1,0.1c0.2,0.1,0.1,0.7-0.1,0.9c-1.9-0.1-3.2-0.1-4.6-0.1
				c-1.6,0-2.8,0.1-4.2,0.1c-0.2-0.1-0.3-0.6-0.1-0.9l0.6-0.1c2-0.3,2.1-0.7,2.1-4.5v-13c0-3.7-0.2-4.4-2.1-4.6l-1-0.1
				c-0.2-0.1-0.1-0.7,0.1-0.9c1.8,0,3,0.1,4.6,0.1c1.4,0,2.7,0,4.2-0.1c0.2,0.1,0.3,0.7,0.1,0.9l-0.6,0.1c-2.1,0.2-2.1,0.7-2.1,4.6
				v4.2c0,1.1,0.1,1.2,1.8,1.2h10.3c1.7,0,1.8,0,1.8-1.2V5.3c0-3.7-0.1-4.4-2.2-4.6l-0.6-0.1c-0.2-0.1-0.1-0.7,0.1-0.9
				c1.7,0.1,2.9,0.1,4.4,0.1c1.4,0,2.7,0,4.3-0.1c0.2,0.1,0.3,0.7,0.1,0.9l-0.7,0.1c-2.1,0.2-2.1,0.7-2.1,4.6v13
				c0,3.7,0.1,4.3,2.1,4.5l0.9,0.1c0.2,0.1,0.1,0.7-0.1,0.9c-1.7-0.1-3-0.1-4.4-0.1c-1.5,0-2.8,0-4.4,0.1c-0.2-0.1-0.3-0.6-0.1-0.9
				l0.6-0.1c2.2-0.3,2.1-0.7,2.2-4.5v-5.1c0-1.1-0.1-1.2-1.8-1.2C154.3,12,143.8,12,143.8,12z"/>
			<path d="M170.3,5.8c0-3.7-0.1-4.3-2.2-4.6h-0.5c-0.2-0.1-0.1-0.7,0.1-0.9c1.6,0.1,2.8,0.1,4.3,0.1h6.7c2.3,0,4.5,0,4.9-0.1
				c0.2,0.6,0.4,3.2,0.5,4.8c-0.1,0.2-0.7,0.3-0.9,0.1c-0.5-1.7-0.9-3-2.8-3.4c-0.7-0.2-1.9-0.2-3.5-0.2h-2.6
				c-1.1,0-1.1,0.1-1.1,1.5v7.2c0,1,0.1,1,1.2,1h2.1c1.5,0,2.7-0.1,3.1-0.2c0.4-0.1,0.6-0.3,0.9-1.3l0.3-1.5c0.2-0.2,0.7-0.2,1,0
				c0,0.9-0.1,2.2-0.1,3.6c0,1.3,0.1,2.7,0.1,3.4c-0.1,0.2-0.7,0.2-1,0l-0.3-1.4c-0.1-0.6-0.4-1.2-1.1-1.4c-0.5-0.1-1.4-0.2-2.8-0.2
				h-2.1c-1.1,0-1.2,0-1.2,1v5.1c0,1.9,0.1,3.1,0.6,3.7c0.4,0.4,1.2,0.9,4.4,0.9c2.8,0,3.8-0.1,4.6-0.5c0.6-0.3,1.6-1.6,2.6-3.5
				c0.2-0.2,0.7-0.1,0.9,0.2c-0.2,1.3-1.2,4-1.6,5c-3.2-0.1-6.4-0.1-9.6-0.1H172c-1.6,0-2.8,0-4.9,0.1c-0.2-0.1-0.3-0.6-0.1-0.9
				l1.2-0.1c2-0.2,2.2-0.7,2.2-4.5v-13H170.3z"/>
			<path d="M27.9,49.3c-1.7,0-1.8,0.1-1.8,1.2v5.1c0,3.7,0.2,4.3,2.2,4.5l1.1,0.1c0.2,0.1,0.1,0.7-0.1,0.9c-1.9-0.1-3.2-0.1-4.6-0.1
				c-1.6,0-2.8,0.1-4.2,0.1c-0.2-0.1-0.3-0.6-0.1-0.9l0.6-0.1c2-0.3,2.1-0.7,2.1-4.5v-13c0-3.7-0.2-4.4-2.1-4.6h-1
				c-0.2-0.1-0.1-0.7,0.1-0.9c1.8,0,3,0.1,4.6,0.1c1.4,0,2.7,0,4.2-0.1c0.2,0.1,0.3,0.7,0.1,0.9l-0.6,0.1c-2.1,0.2-2.1,0.7-2.1,4.6
				v4.2c0,1.1,0.1,1.2,1.8,1.2h10.1c1.7,0,1.8,0,1.8-1.2v-4.2c0-3.7-0.1-4.4-2.2-4.6L37.2,38c-0.2-0.1-0.1-0.7,0.1-0.9
				c1.7,0.1,2.9,0.1,4.4,0.1c1.4,0,2.7,0,4.3-0.1c0.2,0.1,0.3,0.7,0.1,0.9l-0.7,0.1c-2.1,0.2-2.1,0.7-2.1,4.6v12.9
				c0,3.7,0.1,4.3,2.1,4.5l0.9,0.1c0.2,0.1,0.1,0.7-0.1,0.9c-1.8-0.1-3.1-0.1-4.5-0.1c-1.5,0-2.8,0-4.4,0.1
				c-0.2-0.1-0.3-0.6-0.1-0.9l0.6-0.1c2.2-0.3,2.1-0.7,2.2-4.5v-5.1c0-1.1-0.1-1.2-1.8-1.2C38.1,49.3,27.9,49.3,27.9,49.3z"/>
			<path d="M71.7,46.2c0-2.2-0.1-6.4-0.6-7.5c-0.2-0.4-0.9-0.6-1.8-0.7l-0.9-0.1c-0.2-0.2-0.1-0.7,0.1-0.9c1.4,0.1,2.7,0.1,4,0.1
				c1.5,0,2.4,0,3.7-0.1c0.3,0.2,0.2,0.6,0.1,0.9L75.5,38c-0.9,0.1-1.6,0.4-1.8,0.9c-0.5,1.2-0.5,5.3-0.5,7.3v4
				c0,3.1-0.5,6.4-2.6,8.6c-1.6,1.7-4.2,2.7-6.8,2.7c-2.4,0-5-0.4-6.7-2c-1.9-1.6-2.8-4.2-2.8-8.5v-8.5c0-3.7-0.1-4.4-2.1-4.6
				l-0.9-0.1c-0.2-0.1-0.1-0.7,0.1-0.9c1.8,0.1,3,0.1,4.5,0.1s2.7,0,4.5-0.1c0.2,0.1,0.3,0.7,0.1,0.9l-0.9,0.1
				c-2.1,0.2-2.1,0.7-2.1,4.6v7.8c0,5.8,1.8,9.6,7.3,9.6c5.2,0,7.2-4,7.2-9.6v-4H71.7z"/>
			<path d="M86.4,47.3c0,1,0.1,1,1.2,1H90c1.5,0,2.7-0.1,3.1-0.2c0.4-0.1,0.6-0.3,0.9-1.3l0.3-1.5c0.2-0.2,0.7-0.2,1,0
				c0,0.9-0.1,2.3-0.1,3.6s0.1,2.7,0.1,3.5c-0.1,0.2-0.6,0.2-1,0l-0.3-1.4c-0.1-0.6-0.4-1.2-1.2-1.4c-0.5-0.1-1.4-0.2-2.8-0.2h-2.4
				c-1.1,0-1.2,0-1.2,1v5.1c0,3.7,0.1,4.4,2.2,4.5l1.2,0.1c0.2,0.1,0.1,0.7-0.1,0.9c-2.1-0.1-3.3-0.1-4.8-0.1c-1.6,0-2.8,0-4.5,0.1
				c-0.2-0.1-0.3-0.6-0.1-0.9l0.9-0.1c2.1-0.2,2.1-0.7,2.1-4.5v-13c0-3.7-0.1-4.3-2.1-4.6l-0.5-0.1c-0.2-0.1-0.1-0.7,0.1-0.9
				c1.5,0.1,2.8,0.1,4.2,0.1h6.6c2.3,0,4.4,0,4.9-0.1c0,1.7,0,3.4,0.1,4.8c-0.1,0.2-0.6,0.3-0.9,0.1c-0.3-1.6-0.7-2.9-2.6-3.4
				c-0.7-0.2-2-0.2-3.5-0.2h-2.2c-1.1,0-1.1,0.1-1.1,1.5v7.6H86.4z"/>
			<path d="M107.3,47.3c0,1,0.1,1,1.2,1h2.4c1.5,0,2.7-0.1,3.1-0.2c0.4-0.1,0.6-0.3,0.9-1.3l0.3-1.5c0.2-0.2,0.7-0.2,1,0
				c0,0.9-0.1,2.3-0.1,3.6s0.1,2.7,0.1,3.5c-0.1,0.2-0.6,0.2-1,0l-0.3-1.4c-0.1-0.6-0.4-1.2-1.2-1.4c-0.5-0.1-1.4-0.2-2.8-0.2h-2.4
				c-1.1,0-1.2,0-1.2,1v5.1c0,3.7,0.1,4.4,2.2,4.5l1.2,0.1c0.2,0.1,0.1,0.7-0.1,0.9c-2.1-0.1-3.3-0.1-4.8-0.1c-1.6,0-2.8,0-4.5,0.1
				c-0.2-0.1-0.3-0.6-0.1-0.9l0.9-0.1c2.1-0.2,2.1-0.7,2.1-4.5v-13c0-3.7-0.1-4.3-2.1-4.6l-0.5-0.1c-0.2-0.1-0.1-0.7,0.1-0.9
				c1.5,0.1,2.8,0.1,4.2,0.1h6.6c2.3,0,4.4,0,4.9-0.1c0,1.7,0,3.4,0.1,4.8c-0.1,0.2-0.6,0.3-0.9,0.1c-0.3-1.6-0.7-2.9-2.6-3.4
				c-0.7-0.2-2-0.2-3.5-0.2h-2.2c-1.1,0-1.1,0.1-1.1,1.5v7.6H107.3z"/>
			<path d="M126.2,42.7c0-3.8-0.1-4.5-2.2-4.6l-0.9-0.1c-0.2-0.1-0.1-0.7,0.1-0.9c1.8,0.1,3,0.1,4.6,0.1c1.5,0,2.7,0,4.5-0.1
				c0.2,0.1,0.3,0.7,0.1,0.9l-0.9,0.1c-2.1,0.2-2.2,0.7-2.2,4.6v12.8c0,3.8,0.1,4.4,2.2,4.6l0.9,0.1c0.2,0.1,0.1,0.7-0.1,0.9
				c-1.8-0.1-3-0.1-4.5-0.1s-2.8,0-4.6,0.1c-0.2-0.1-0.3-0.6-0.1-0.9l0.9-0.1c2.1-0.2,2.2-0.7,2.2-4.6V42.7z"/>
			<path d="M160,54.8c0,1.1,0,5.3,0.1,6.3c-0.1,0.2-0.3,0.4-0.6,0.4c-0.4-0.6-1.5-1.9-4.6-5.4l-8.3-9.5c-1-1.1-3.4-4-4.2-4.9h-0.1
				c-0.1,0.4-0.2,1.3-0.2,2.3v7.9c0,1.7,0.1,6.4,0.6,7.5c0.2,0.4,1,0.6,1.8,0.6l1.1,0.1c0.2,0.3,0.2,0.7-0.1,0.9
				c-1.6-0.1-2.9-0.1-4.2-0.1c-1.5,0-2.4,0-3.7,0.1c-0.2-0.2-0.3-0.6-0.1-0.9l1-0.1c0.9-0.1,1.4-0.3,1.6-0.7
				c0.5-1.3,0.4-5.6,0.4-7.5V41.4c0-1,0-1.8-0.7-2.6c-0.5-0.5-1.4-0.7-2.2-0.9l-0.6-0.1c-0.2-0.2-0.2-0.7,0.1-0.9
				c1.5,0.1,3.4,0.1,4,0.1c0.5,0,1.2,0,1.7-0.1c0.7,1.8,5,6.6,6.2,7.9l3.5,3.9c2.4,2.8,4.3,4.8,6,6.5h0.1c0.1-0.2,0.1-0.7,0.1-1.5
				v-7.7c0-1.7,0-6.4-0.7-7.5c-0.2-0.3-0.7-0.5-2.2-0.7l-0.6-0.1c-0.2-0.2-0.2-0.7,0.1-0.9c1.7,0.1,2.9,0.1,4.3,0.1
				c1.6,0,2.4,0,3.7-0.1c0.3,0.2,0.3,0.6,0.1,0.9l-0.5,0.1c-1.2,0.2-1.9,0.4-2,0.7c-0.6,1.3-0.5,5.8-0.5,7.5v8.6H160z"/>
			<path d="M188.4,57.2c0,1.5,0.2,2.3,0.9,2.6c0.1,0.1,0.1,0.3,0,0.4c-0.4,0-1.1,0.1-1.8,0.3c-1.9,0.5-4.5,1-6.4,1
				c-4.3,0-8.2-1.2-11-3.9c-2.1-2.1-3.3-5-3.3-8.2c0-3.1,1-6.2,3.2-8.5c2.4-2.6,6-4.2,11.4-4.2c2,0,3.9,0.4,4.6,0.5
				c0.6,0.1,1.8,0.4,2.2,0.3c0,1.2,0.2,3.1,0.5,5.2c-0.1,0.3-0.7,0.3-1,0.1c-1-3.8-3.7-5.1-7.3-5.1c-6.9,0-10,5-10,10.3
				c0,6.9,3.5,12.4,10.8,12.4c2.2,0,3.5-0.4,3.9-1.1c0.2-0.2,0.3-0.9,0.3-2v-1.5c0-3-0.1-3.2-2.3-3.5l-1.6-0.2
				c-0.3-0.1-0.2-0.7,0-0.9c1.1,0.1,3,0.1,5.1,0.1c1.4,0,2.7,0,3.8-0.1c0.2,0.1,0.3,0.6,0,0.9l-0.5,0.1c-1.5,0.1-1.5,1.2-1.5,3V57.2
				z"/>
			<path d="M207,55.5c0,3.7,0.1,4.3,2.1,4.5l1.2,0.1c0.2,0.1,0.1,0.7-0.1,0.9c-2-0.1-3.3-0.1-4.7-0.1c-1.5,0-2.7,0-5,0.1
				c-0.2-0.1-0.3-0.7,0-0.9l1.3-0.1c2-0.2,2.2-0.7,2.2-4.5V39.5c0-1.1,0-1.2-1.1-1.2h-2c-1.6,0-3.5,0.1-4.5,0.9
				c-0.9,0.7-1.2,1.6-1.6,2.4c-0.3,0.2-0.7,0-1-0.2c0.5-1.6,1.1-3.9,1.4-5.3c0.1-0.1,0.5-0.1,0.6,0c0.2,1.2,1.4,1.1,3.1,1.1h14.6
				c1.9,0,2.2-0.1,2.8-1c0.2-0.1,0.5,0,0.6,0.1c-0.4,1.5-0.6,4.4-0.5,5.4c-0.1,0.3-0.7,0.3-1,0.1c-0.1-0.9-0.3-2.2-0.9-2.7
				c-0.9-0.6-2.2-0.9-4.2-0.9H208c-1.1,0-1.1,0-1.1,1.2v16.1H207z"/>
			<path d="M220.2,49.3c0-7.2,5.4-12.7,12.8-12.7c8.3,0,12.5,6,12.5,12.4c0,7.2-5.5,12.6-12.5,12.6C225,61.5,220.2,55.7,220.2,49.3z
				 M241.8,50c0-6-2.7-12.4-9.5-12.4c-3.7,0-8.6,2.6-8.6,10.4c0,5.3,2.6,12.2,9.7,12.2C237.8,60.3,241.8,57.1,241.8,50z"/>
			<path d="M272.2,54.8c0,1.1,0,5.3,0.1,6.3c-0.1,0.2-0.3,0.4-0.6,0.4c-0.4-0.6-1.5-1.9-4.6-5.4l-8.3-9.5c-1-1.1-3.4-4-4.2-4.9h-0.2
				c-0.1,0.4-0.2,1.3-0.2,2.3v7.9c0,1.7,0.1,6.4,0.6,7.5c0.2,0.4,1,0.6,1.8,0.6l1.1,0.1c0.2,0.3,0.2,0.7-0.1,0.9
				c-1.6-0.1-2.9-0.1-4.2-0.1c-1.5,0-2.4,0-3.7,0.1c-0.2-0.2-0.3-0.6-0.1-0.9l1-0.1c0.9-0.1,1.4-0.3,1.6-0.7
				c0.5-1.3,0.4-5.6,0.4-7.5V41.4c0-1,0-1.8-0.7-2.6c-0.5-0.5-1.4-0.7-2.2-0.9l-0.6-0.1c-0.2-0.2-0.2-0.7,0.1-0.9
				c1.5,0.1,3.4,0.1,4,0.1c0.5,0,1.2,0,1.7-0.1c0.7,1.8,5,6.6,6.2,7.9l3.5,3.9c2.4,2.8,4.3,4.8,6,6.5h0.1c0.1-0.2,0.1-0.7,0.1-1.5
				v-7.7c0-1.7,0-6.4-0.7-7.5c-0.2-0.3-0.7-0.5-2.2-0.7l-0.6-0.1c-0.2-0.2-0.2-0.7,0.1-0.9c1.7,0.1,2.9,0.1,4.3,0.1
				c1.6,0,2.4,0,3.7-0.1c0.3,0.2,0.3,0.6,0.1,0.9l-0.5,0.1c-1.2,0.2-1.9,0.4-2,0.7c-0.6,1.3-0.5,5.8-0.5,7.5L272.2,54.8L272.2,54.8z
				"/>
			<path d="M107.9,92.8c0,3.7,0.1,4.3,2.3,4.5l1,0.1c0.2,0.2,0.1,0.7-0.1,0.9c-2-0.1-3.2-0.1-4.7-0.1s-2.8,0-4.4,0.1
				c-0.2-0.1-0.3-0.6-0.1-0.9l0.7-0.1c2.1-0.3,2.1-0.7,2.1-4.5V79.5c0-3.1-0.1-3.7-1.7-3.8l-1.3-0.1c-0.2-0.2-0.2-0.7,0.1-0.9
				c1.9-0.2,4.2-0.3,7.1-0.3c3,0,5.2,0.4,6.9,1.5s2.9,2.9,2.9,5.4c0,3.3-2,5-3.6,5.8c-1.6,0.7-3.5,1.1-5,1.1c-0.2-0.1-0.2-0.6,0-0.7
				c3.8-0.7,5.3-2.9,5.3-6.1c0-3.5-2-5.8-5.8-5.8c-1.9,0-1.9,0.1-1.9,1.3C107.9,76.8,107.9,92.8,107.9,92.8z"/>
			<path d="M122.8,86.5c0-7.2,5.4-12.7,12.8-12.7c8.3,0,12.5,6,12.5,12.4c0,7.2-5.5,12.6-12.5,12.6C127.6,98.8,122.8,93,122.8,86.5z
				 M144.5,87.3c0-6-2.7-12.4-9.5-12.4c-3.7,0-8.6,2.6-8.6,10.4c0,5.3,2.6,12.2,9.7,12.2C140.3,97.6,144.5,94.4,144.5,87.3z"/>
			<path d="M159.4,98.8c-3,0-4.9-1-5.6-1.3c-0.4-0.7-0.9-3.3-1-5c0.2-0.2,0.7-0.3,0.9-0.1c0.5,1.8,2,5.3,6.2,5.3c3,0,4.5-2,4.5-4.2
				c0-1.6-0.3-3.3-3-5l-3.4-2.2c-1.8-1.2-3.8-3.2-3.8-6.2c0-3.4,2.7-6.2,7.3-6.2c1.1,0,2.4,0.2,3.3,0.4c0.4,0.1,1,0.2,1.3,0.2
				c0.3,0.9,0.6,2.9,0.6,4.4c-0.1,0.2-0.7,0.3-0.9,0.1c-0.4-1.7-1.5-4-4.9-4c-3.5,0-4.3,2.3-4.3,3.9c0,2.1,1.7,3.5,3.1,4.5l2.9,1.8
				c2.2,1.4,4.5,3.5,4.5,6.9C167.1,96,164.1,98.8,159.4,98.8z"/>
			<path d="M184.5,92.8c0,3.7,0.1,4.3,2.1,4.5l1.2,0.1c0.2,0.1,0.1,0.7-0.1,0.9c-2-0.1-3.3-0.1-4.7-0.1c-1.5,0-2.7,0-5,0.1
				c-0.2-0.1-0.3-0.7,0-0.9l1.3-0.1c2-0.2,2.2-0.7,2.2-4.5V76.7c0-1.1,0-1.2-1.1-1.2h-2c-1.6,0-3.5,0.1-4.5,0.9
				c-0.9,0.7-1.2,1.6-1.6,2.4c-0.3,0.2-0.7,0-1-0.2c0.5-1.6,1.1-3.9,1.4-5.3c0.1-0.1,0.5-0.1,0.6,0c0.2,1.2,1.4,1.1,3.1,1.1h14.6
				c1.9,0,2.2-0.1,2.8-1c0.2-0.1,0.5,0,0.6,0.1c-0.4,1.5-0.6,4.4-0.5,5.4c-0.1,0.3-0.7,0.3-1,0.1c-0.1-0.9-0.3-2.2-0.9-2.7
				c-0.9-0.6-2.2-0.9-4.2-0.9h-2.6c-1.1,0-1.1,0-1.1,1.2v16.1H184.5z"/>
		</g>
	</g>
</g>
<g id="Layer_1">
</g>
</svg>
