<?xml version="1.0" encoding="utf-8"?>
<!-- Generator: Adobe Illustrator 18.0.0, SVG Export Plug-In . SVG Version: 6.00 Build 0)  -->
<!DOCTYPE svg PUBLIC "-//W3C//DTD SVG 1.1//EN" "http://www.w3.org/Graphics/SVG/1.1/DTD/svg11.dtd">
<svg version="1.1" xmlns="http://www.w3.org/2000/svg" xmlns:xlink="http://www.w3.org/1999/xlink" x="0px" y="0px"
	 viewBox="0 0 300 100" style="enable-background:new 0 0 300 100;" xml:space="preserve">
<style type="text/css">
	.st0{fill-rule:evenodd;clip-rule:evenodd;}
	.st1{fill-rule:evenodd;clip-rule:evenodd;fill:#C038F9;}
	.st2{fill:none;}
	.st3{fill-rule:evenodd;clip-rule:evenodd;fill:#231F20;}
</style>
<g id="Layer_2">
</g>
<g id="Layer_1">
	<g>
		<g>
			<path d="M56.5,86.2h-2.9L13.4,25.8v56.8h9.3V85H1v-2.4h9.3V23.9H1v-2.4h24.3L53.5,63V23.9h-9.1v-2.4H66v2.4h-9.5V86.2z"/>
			<path d="M91.6,46.6c0-2.9-5.4-4-7.3-4c-4.2,0-9.4,2.1-7.8,4.2c0.7,0.9,1.6,3.2,1.6,5.3c0,2.9-2.8,4.9-5.3,4.9
				c-3.1,0-5.8-1.7-5.8-5.2c0-8.4,10.9-11.4,17.6-11.4c4.8,0,9.9,0.8,14.2,3c3.1,1.6,4.1,3.3,4.1,6.8v29.5c0,1.4,1.3,2.1,2.7,2.1
				c1.3,0,3-1.7,3.9-2.6l1.3,1.6c-2.9,3.5-5.9,5.9-10.5,5.9c-4.9,0-8-3-8.6-7.9c-4,4.9-10,7.9-16.2,7.9c-6.7,0-11.5-3.7-11.5-10.8
				c0-13.2,17.7-16,27.7-15.4V46.6z M91.6,62.8c-6.9,0-16.1,0.9-16.1,9.9c0,4.9,2,8.5,7.2,8.5c3.9,0,6.8-3,8.1-6.5
				c0.7-1.7,0.8-3.7,0.8-5.8V62.8z"/>
			<path d="M119.3,29.5c4,0,8-0.4,12-0.7v13.5h10.5v3.3h-10.5v30.5c0,3.5,0.1,6.1,4.3,6.1c3.5,0,5.7-2.8,6.8-5.9l2.2,1.1
				c-2.3,6.2-7.1,9.1-13.5,9.1c-10.1,0-11.8-3.4-11.8-9.5V45.7h-7.1v-3.3h7.1V29.5z"/>
			<path d="M149.8,85v-2.8h8.1V43.8h-8.1v-2.8c6.5,0.2,13.3-0.2,20.1-0.4v41.6h8.2V85H149.8z M163,26.9c-3.4,0-6-3.4-6-6.7
				c0-3,3-6,6-6c3.2,0,6.5,2.7,6.5,6C169.5,24,166.7,26.9,163,26.9z"/>
			<path d="M203.7,40.4c12.5,0,23.3,11,23.3,23.4c0,12.4-10.8,22.8-23.3,22.8c-12.5,0-23.3-10.4-23.3-22.8
				C180.4,51.4,191.1,40.4,203.7,40.4z M203.7,42.6c-10.9,0-10.1,8.6-10.1,21.2c0,14.4,0.2,20.6,10.1,20.6c9.9,0,10.1-6.2,10.1-20.6
				C213.8,51.3,214.5,42.6,203.7,42.6z"/>
			<path d="M246.6,51h0.2c3.5-6.9,8.5-10.6,16.5-10.6c14.7,0,13.5,10.3,13.5,21.3v20.5h7V85h-25.7v-2.8h7v-20
				c0-10.3,1.1-17.9-6.3-17.9c-4.8,0-9.1,5.1-10.8,9.2c-1.4,3.7-1.4,8.8-1.4,14v14.6h7V85h-26.3v-2.8h7.5V43.8h-7.5v-2.8
				c5.7,0.2,12.4-0.2,19.3-0.4V51z"/>
			<path d="M299.5,79.5c0,3.9-3.5,7.1-7,7.1c-3.5,0-7.2-3.2-7.2-7.1c0-4,3.7-7.1,7.2-7.1C295.9,72.4,299.5,75.6,299.5,79.5z"/>
		</g>
		<g>
			<path d="M75.9,33.1v-0.5h2.1V20.3c-2.8-0.1-3.6,1.2-4,3.7h-0.6l0.2-4.2h11.3l0.2,4.2h-0.6c-0.4-2.5-1.2-3.9-4-3.7v12.2h2.1v0.5
				H75.9z"/>
			<path d="M91.9,26.5v6.1h2v0.5h-6.5v-0.5h2V20.3h-2v-0.5h6.5v0.5h-2V26h5.3v-5.7h-2v-0.5h6.5v0.5h-2v12.2h2v0.5h-6.5v-0.5h2v-6.1
				H91.9z"/>
			<path d="M108.4,20.3V26c1.9,0,2.9-0.3,3-2.4h0.6v5.5h-0.6c-0.2-2.2-0.9-2.7-3-2.6v6.1h2.8c2.6,0,3.1-1.5,3.5-3.8h0.6l-0.2,4.3
				h-11.3v-0.5h2V20.3h-2v-0.5h10.9l0.1,3.6h-0.6c-0.4-1.9-1.2-2.6-2.2-2.9c-0.5-0.1-1.1-0.2-1.7-0.2H108.4z"/>
		</g>
	</g>
</g>
</svg>
