<?xml version="1.0" encoding="utf-8"?>
<!-- Generator: Adobe Illustrator 18.0.0, SVG Export Plug-In . SVG Version: 6.00 Build 0)  -->
<!DOCTYPE svg PUBLIC "-//W3C//DTD SVG 1.1//EN" "http://www.w3.org/Graphics/SVG/1.1/DTD/svg11.dtd">
<svg version="1.1" xmlns="http://www.w3.org/2000/svg" xmlns:xlink="http://www.w3.org/1999/xlink" x="0px" y="0px"
	 viewBox="0 0 300 100" style="enable-background:new 0 0 300 100;" xml:space="preserve">
<style type="text/css">
	.st0{fill-rule:evenodd;clip-rule:evenodd;}
	.st1{fill-rule:evenodd;clip-rule:evenodd;fill:#C038F9;}
	.st2{fill:none;}
	.st3{fill-rule:evenodd;clip-rule:evenodd;fill:#231F20;}
</style>
<g id="Layer_2">
	<g>
		<g>
			<path d="M23.1,75.1H20L3.4,56v19.2H0V50.3h2.8l16.9,19.3V50.3h3.4V75.1z"/>
			<path d="M39.1,68.5c0,4.6-1.9,8.1-6.9,8.1c-0.4,0-0.7,0-1.1-0.1l-0.7-3.3h0.9c3.8,0,4.1-1.9,4.1-5.8V50.3h3.6V68.5z"/>
			<path d="M70.5,55.7c-2.1-2-4.2-2.6-5.8-2.6c-2.3,0-3.9,1.2-3.9,3c0,4.8,10.8,4.7,10.8,12.6c0,3.9-3,6.7-7,6.7
				c-2.7,0-4.9-0.7-7-2.3v-4.5c1.8,2.3,4.1,3.6,6.6,3.6c2.8,0,4-1.8,4-3.1c0-5.1-10.8-5.7-10.8-12.6c0-4,3-6.6,7.6-6.6
				c1.9,0,3.8,0.6,5.5,1.8V55.7z"/>
			<path d="M90,50.3c5.4,0,7.9,3.2,7.9,7.2c0,3.9-2.6,7-8.4,7h-3.7v10.8h-3.6V50.3H90z M85.8,61.2h4c2.7,0,4.4-1.4,4.4-3.9
				c0-1.8-1-3.8-4.2-3.8h-4.2V61.2z"/>
			<path d="M119.3,49.9c8.2,0,13.4,5.8,13.4,12.8c0,6.7-5,12.8-13.5,12.8c-8.1,0-13.3-6-13.3-12.8C105.9,55.8,111.2,49.9,119.3,49.9
				z"/>
			<path d="M161.2,53.5h-8.6v21.7H149V53.5h-8.6v-3.2h20.8V53.5z"/>
			<path d="M175,71.9h11.2v3.2h-14.8V50.3h3.6V71.9z"/>
			<path d="M199.9,75.1h-3.6V50.3h3.6V75.1z"/>
			<path d="M234.1,73.4c-3.3,1.5-6,2-9.5,2c-7.6,0-13.2-5.3-13.2-12.6c0-7.3,5.8-12.9,13.4-12.9c2.9,0,5,0.5,8.9,2.1v3.6
				c-2.9-1.6-5.9-2.4-8.9-2.4c-5.4,0-9.6,4.1-9.6,9.5c0,5.5,4.2,9.4,10.1,9.4c1.9,0,3.7-0.4,5.4-1v-5.1h-4.8v-3.2h8.4V73.4z"/>
			<path d="M267.3,75.1h-3.6V64.3h-13.9v10.8h-3.6V50.3h3.6v10.8h13.9V50.3h3.6V75.1z"/>
			<path d="M298.4,53.5h-8.6v21.7h-3.6V53.5h-8.6v-3.2h20.8V53.5z"/>
		</g>
		<path d="M104.4,49.2c8.6-8.9,22.1-8.5,30.3,0.7c1.9,2.1,4.9-1,3.1-3.1c-9.7-10.9-26.3-11.2-36.5-0.7
			C99.4,48.1,102.5,51.2,104.4,49.2L104.4,49.2z"/>
		<path d="M97.2,42.6c11.9-13.8,32.7-13.3,44,0.9c1.8,2.2,4.8-0.9,3.1-3.1c-12.8-15.9-36.8-16.3-50.2-0.9
			C92.3,41.6,95.4,44.7,97.2,42.6L97.2,42.6z"/>
		<path d="M91,36.9c14.7-18.7,42.4-18.6,57,0.1c1.7,2.2,4.8-0.9,3.1-3.1c-16-20.4-47.1-20.4-63.1-0.1C86.2,36,89.3,39.1,91,36.9
			L91,36.9z"/>
	</g>
</g>
<g id="Layer_1">
</g>
</svg>
