<?xml version="1.0" encoding="utf-8"?>
<!-- Generator: Adobe Illustrator 18.0.0, SVG Export Plug-In . SVG Version: 6.00 Build 0)  -->
<!DOCTYPE svg PUBLIC "-//W3C//DTD SVG 1.1//EN" "http://www.w3.org/Graphics/SVG/1.1/DTD/svg11.dtd">
<svg version="1.1" xmlns="http://www.w3.org/2000/svg" xmlns:xlink="http://www.w3.org/1999/xlink" x="0px" y="0px"
	 viewBox="0 0 300 100" style="enable-background:new 0 0 300 100;" xml:space="preserve">
<style type="text/css">
	.st0{fill-rule:evenodd;clip-rule:evenodd;}
	.st1{fill-rule:evenodd;clip-rule:evenodd;fill:#C038F9;}
	.st2{fill:none;}
	.st3{fill-rule:evenodd;clip-rule:evenodd;fill:#231F20;}
</style>
<g id="Layer_2">
	<g>
		<g>
			<g>
				<path d="M88.3,58.5h-4.4l-9.7-15.1v15.1h-5.4V32h4.4l9.6,15.1V32h5.4V58.5z"/>
				<path d="M112.9,58.5H94.7V32h18.2v5.4h-12.8v5h11.1v5.1h-11.1v5.7h12.8V58.5z"/>
				<path d="M140.6,58.5h-6.5l-5.7-9l-5.7,9h-6.5l9-13.6L116.8,32h6.5l5.2,8.3l5.2-8.3h6.5l-8.5,12.9L140.6,58.5z"/>
				<path d="M163.6,37.4h-7.4v21.2h-5.4V37.4h-7.4V32h20.3V37.4z"/>
			</g>
			<g>
				<path d="M85,89.3c-1.2,1.4-2.3,2.5-3.5,3.1c-1.3,0.7-2.8,1.1-4.5,1.1c-3.6,0-6.4-1.4-8.2-4.3c-1.5-2.4-2.2-5.5-2.2-9.3
					c0-3.9,0.7-7,2.2-9.3c1.8-2.8,4.5-4.3,8.1-4.3c1.7,0,3.2,0.4,4.5,1.1c1.1,0.6,2.3,1.7,3.5,3.1l-1.4,1.2c-1-1.2-2-2.1-2.8-2.6
					c-1-0.6-2.2-0.9-3.7-0.9c-5.6,0-8.4,3.9-8.4,11.7c0,7.8,2.8,11.7,8.4,11.7c1.4,0,2.7-0.3,3.7-0.9c0.9-0.5,1.8-1.4,2.8-2.6
					L85,89.3z"/>
				<path d="M93.1,93.2h-1.9V66.7h1.9V93.2z"/>
				<path d="M117,68.6h-8.4v24.6h-1.9V68.6h-8.4v-1.9H117V68.6z"/>
				<path d="M139.4,66.7l-8.6,17.8v8.7h-1.9v-8.8l-8.6-17.7h2.1l7.5,15.3l7.4-15.3H139.4z"/>
			</g>
		</g>
		<polygon points="182.4,75 180.2,75 180.2,16.6 120.2,16.6 120.2,14.4 182.4,14.4 		"/>
		<polygon points="192,65 189.8,65 189.8,6.6 129.8,6.6 129.8,4.4 192,4.4 		"/>
	</g>
</g>
<g id="Layer_1">
</g>
</svg>
