<?xml version="1.0" encoding="utf-8"?>
<!-- Generator: Adobe Illustrator 18.0.0, SVG Export Plug-In . SVG Version: 6.00 Build 0)  -->
<!DOCTYPE svg PUBLIC "-//W3C//DTD SVG 1.1//EN" "http://www.w3.org/Graphics/SVG/1.1/DTD/svg11.dtd">
<svg version="1.1" xmlns="http://www.w3.org/2000/svg" xmlns:xlink="http://www.w3.org/1999/xlink" x="0px" y="0px"
	 viewBox="0 0 300 100" style="enable-background:new 0 0 300 100;" xml:space="preserve">
<style type="text/css">
	.st0{fill-rule:evenodd;clip-rule:evenodd;}
	.st1{fill-rule:evenodd;clip-rule:evenodd;fill:#C038F9;}
	.st2{fill:none;}
	.st3{fill-rule:evenodd;clip-rule:evenodd;fill:#231F20;}
</style>
<g id="Layer_2">
	<path d="M299.9,38.6V27.9h-37.2V38c-1.5-6.3-6.7-11.1-17-11.1c-10.2,0-17.6,4.3-17.6,13c0,15.5,23.4,11.3,23.4,17.4
		c0,1.9-2.2,3-5.5,3c-1.3,0-2.7-0.3-3.8-1c-1.1-0.7-1.9-1.7-2.2-3.2h-12.7c0.2,5.3,4,10.1,10.1,12.3h-22.4
		c7.9-2.7,13.3-9.8,13.3-20.3c0-10.7-6.8-21.2-21.3-21.2c-12.6,0-21.3,8.3-21.3,21c0,10.6,5,17.6,13,20.4H162V55.9h6.7
		c11.7,0,16.9-5.5,16.9-14.3c0-8.3-5.6-13.7-17.3-13.7h-19.6v40.4h-2V27.9h-12.7v12.9l0.5,9.3l-14.5-22.2h-12.5v40.4h-2.7V27.9H92
		v12.9l0.5,9.3L78,27.9H65.5v40.4h-3.2V27.9H49.1v40.4h-2.6V27.9H30.4l-7.2,25.3l-7.2-25.3H0V76l295.5,0.6v-8.3H288V38.6H299.9z
		 M206.7,36.8c5.9-0.2,8.1,5.7,8.1,11.2c0,6.7-2.3,11.7-8,11.7c-6.4,0-8-6.5-8-11.7C198.9,42.8,200.7,36.8,206.7,36.8z M162,37.4
		h3.8c2.8,0,7.1,0.5,7.1,4.3c0,3.5-2.3,4.7-5.4,4.7H162V37.4z M119.7,46.4L134,68.3h-13.8V55.7L119.7,46.4z M77.8,46.4l14.3,21.9
		H78.3V55.7L77.8,46.4z M35.3,42.5h0.1l-0.7,7.3l-0.2,6.3v12.2h-6.6L35.3,42.5z M11.2,42.5l7.3,25.8H12V54.8l-0.3-6.3l-0.6-6H11.2z
		 M254.4,68.3c6-2,9.8-6.2,9.8-12.7c0-14.8-23.4-11-23.4-17.1c0-1.5,1.3-2.3,4.2-2.3c1.3,0,2.5,0.2,3.4,0.7c1,0.5,1.7,1.4,1.9,2.8
		H263c-0.1-0.4-0.1-0.8-0.2-1.1h11.8v29.7H254.4z"/>
</g>
<g id="Layer_1">
</g>
</svg>
