<?xml version="1.0" encoding="utf-8"?>
<!-- Generator: Adobe Illustrator 18.0.0, SVG Export Plug-In . SVG Version: 6.00 Build 0)  -->
<!DOCTYPE svg PUBLIC "-//W3C//DTD SVG 1.1//EN" "http://www.w3.org/Graphics/SVG/1.1/DTD/svg11.dtd">
<svg version="1.1" xmlns="http://www.w3.org/2000/svg" xmlns:xlink="http://www.w3.org/1999/xlink" x="0px" y="0px"
	 viewBox="0 0 300 100" style="enable-background:new 0 0 300 100;" xml:space="preserve">
<style type="text/css">
	.st0{fill-rule:evenodd;clip-rule:evenodd;}
	.st1{fill-rule:evenodd;clip-rule:evenodd;fill:#C038F9;}
	.st2{fill:none;}
	.st3{fill-rule:evenodd;clip-rule:evenodd;fill:#231F20;}
</style>
<g id="Layer_2">
	<g>
		<path d="M36.6,78.9c-11.8,0-16.5-12.5-16.5-26.8c0-14.2,5.6-26.5,17.2-26.5c12.5,0,16.1,13.8,16.1,25.7
			C53.4,70.9,46.5,78.9,36.6,78.9L36.6,78.9z M37,70.1c4.3,0,6-7.7,6-18.3c0-9.2-1.4-17.4-6-17.4c-4.5,0-6.3,8.2-6.3,17.6
			C30.5,62.4,32.4,70.1,37,70.1L37,70.1z"/>
		<path d="M57.1,51.9c0-4.1-0.2-7.7-0.3-11.4h8.8l0.5,4.4h0.2c1.9-2.8,5.1-5,9-5c4.3,0,7,1.9,8.3,5.2h0.2c0.9-1.5,2.4-2.9,3.9-3.8
			c1.5-0.9,3.3-1.4,5.3-1.4c6.8,0,9.8,5.4,9.8,14.5v24H92.5V56c0-4.3-0.5-7.7-3.5-7.7c-1.8,0-3.2,1.2-3.8,3.4
			c-0.2,0.5-0.3,1.6-0.3,2.7v23.9H74.8V54.6c0-2.8-0.2-6.3-3.4-6.3c-1.5,0-3.1,1.1-3.8,3.4c-0.2,0.6-0.4,1.7-0.4,2.9v23.7H57.1V51.9
			z"/>
		<path d="M132.9,69.6c0,3,0.2,6.1,0.5,8.7h-9l-0.5-3.7h-0.2c-2,2.9-5,4.3-8.3,4.3c-5.7,0-10-4.8-10-11.4c0-10,8.7-14,17.3-14.1
			v-0.8c0-3-1.7-5.2-5.3-5.2c-3,0-5.4,0.8-7.7,2.2l-1.9-6.9c2.2-1.2,6.5-2.9,11.8-2.9c11.5,0,13.4,8,13.4,15.8V69.6z M122.9,59.9
			c-3.3,0.1-8,1.2-8,6.5c0,3.7,2.1,5.1,3.6,5.1c1.7,0,3.5-0.9,4.2-3.2c0.2-0.5,0.2-1.1,0.2-1.8V59.9z"/>
		<path d="M137.7,24.8h10.1v19.6h0.2c0.9-1.3,2-2.3,3.2-3.2c1.5-0.9,3.2-1.4,5.1-1.4c7,0,9.7,5.9,9.7,15.5v23h-10.1v-23
			c0-3.7-0.7-7-3.7-7c-1.7,0-3.2,1-3.9,3.6c-0.2,0.6-0.4,2-0.4,2.9v23.5h-10.1V24.8z"/>
		<path d="M196.3,69.6c0,3,0.2,6.1,0.5,8.7h-9l-0.5-3.7H187c-2,2.9-5,4.3-8.3,4.3c-5.7,0-10-4.8-10-11.4c0-10,8.7-14,17.3-14.1v-0.8
			c0-3-1.7-5.2-5.3-5.2c-3,0-5.4,0.8-7.7,2.2l-1.9-6.9c2.2-1.2,6.5-2.9,11.8-2.9c11.5,0,13.4,8,13.4,15.8V69.6z M186.3,59.9
			c-3.3,0.1-8,1.2-8,6.5c0,3.7,2.1,5.1,3.6,5.1c1.7,0,3.5-0.9,4.2-3.2c0.2-0.5,0.2-1.1,0.2-1.8V59.9z"/>
		<path d="M203.1,78.7c-1.6,0-2.9-1.3-2.9-3.3c0-1.9,1.3-3.3,2.9-3.3c1.7,0,2.9,1.3,2.9,3.3C206.1,77.4,205,78.7,203.1,78.7
			L203.1,78.7z"/>
		<path d="M223.4,77.6c-1,0.6-2.6,1-4.6,1c-6.1,0-10.1-4.9-10.1-14c0-7.9,4-14.4,10.9-14.4c1.5,0,3.1,0.4,3.9,0.9l-0.9,3.5
			c-0.6-0.3-1.7-0.7-3.1-0.7c-4.5,0-6.4,5.3-6.4,10.7c0,6.5,2.5,10.3,6.5,10.3c1.1,0,2.2-0.2,3.1-0.7L223.4,77.6z"/>
		<path d="M232.9,78.7c-5,0-9-4.5-9-14.2c0-10.1,4.5-14.3,9.3-14.3c5,0,8.9,4.6,8.9,14.2C242.1,75.1,237.2,78.7,232.9,78.7
			L232.9,78.7z M233.1,75.3c3.8,0,4.6-6.5,4.6-10.8c0-4.3-0.8-10.8-4.7-10.8c-3.9,0-4.7,6.5-4.7,10.8
			C228.3,69,229.1,75.3,233.1,75.3L233.1,75.3z"/>
		<path d="M245.3,57.8c0-3.3-0.2-4.9-0.2-7.1h3.9l0.2,3.4h0.1c1.2-2.2,3.3-3.8,6.2-3.8c2.6,0,4.8,1.2,5.8,4.2h0.1
			c0.7-1.4,1.7-2.5,2.7-3.1c1.1-0.7,2.4-1,3.8-1c3.8,0,6.7,2.7,6.7,9.8v18.3h-4.4V60.9c0-3.6-0.5-7.1-3.8-7.1
			c-1.8,0-3.4,1.5-4.1,4.2c-0.2,0.7-0.2,1.5-0.2,2.5v17.8h-4.4V60.1c0-3-0.5-6.3-3.8-6.3c-1.8,0-3.6,1.5-4.1,4.5
			c-0.1,0.7-0.2,1.5-0.2,2.3v17.6h-4.4V57.8z"/>
	</g>
</g>
<g id="Layer_1">
</g>
</svg>
