<?xml version="1.0" encoding="utf-8"?>
<!-- Generator: Adobe Illustrator 18.0.0, SVG Export Plug-In . SVG Version: 6.00 Build 0)  -->
<!DOCTYPE svg PUBLIC "-//W3C//DTD SVG 1.1//EN" "http://www.w3.org/Graphics/SVG/1.1/DTD/svg11.dtd">
<svg version="1.1" xmlns="http://www.w3.org/2000/svg" xmlns:xlink="http://www.w3.org/1999/xlink" x="0px" y="0px"
	 viewBox="0 0 300 100" style="enable-background:new 0 0 300 100;" xml:space="preserve">
<style type="text/css">
	.st0{fill-rule:evenodd;clip-rule:evenodd;}
	.st1{fill-rule:evenodd;clip-rule:evenodd;fill:#C038F9;}
	.st2{fill:none;}
	.st3{fill-rule:evenodd;clip-rule:evenodd;fill:#231F20;}
</style>
<g id="Layer_2">
	<g>
		<path d="M299.5,61c-0.2,0.3-0.2,0.4-0.3,0.4c-0.1,0.1-0.1,0.1-0.2,0.1c-0.2,0-0.3,0.1-0.5,0.1c-0.2,0-0.3,0-0.5,0
			c-73.7,0-147.4,0-221.1,0.1c-0.1,0-0.1,0.1-0.3,0.1c-1.2,3.4-2.6,6.7-4.7,9.7c-5.8,8.6-13.8,14.2-24,16.6c-2.9,0.7-6,0.7-9,0.7
			c-11.5,0-21-4.6-28.6-13.1c-4.7-5.2-7.7-11.5-8.8-18.5c-0.3-2-0.8-4-0.8-6.1c-0.1-2.2,0.1-4.4,0.5-6.6c0.8-4.3,2-8.4,4.1-12.3
			c2.2-4.1,5-7.7,8.4-10.8c2.9-2.6,6.1-4.9,9.6-6.4c3.4-1.5,6.9-2.8,10.6-3.1c1.2-0.1,2.3-0.5,3.5-0.6c1.7-0.3,3.4-0.5,5.1,0.4
			c0,5.4,0,10.8,0,16.3c-1.3-1.2-2.5-2.4-3.8-3.4c-2.7-1.9-5.8-2.8-9.1-3.1c-3.8-0.4-7.4,0.1-10.9,1.5c-4.7,1.8-8.3,4.9-10.8,9.2
			c-3,5.1-4,10.7-3.4,16.4c0.6,5.8,2.6,11.1,7.1,15.1c3.8,3.5,8.3,5.4,13.5,5.6c4.9,0.2,9.5-0.8,13.4-3.8c1.3-1,2.4-2.3,3.6-3.4
			c0.4-0.4,0.8-0.9,1.3-1.6c0.4,2.7-0.3,5.2,0.8,7.6c2.6,0,5.1,0,7.8,0c0-1.3,0-2.4,0-3.6c-0.1-1.3-0.3-2.7-0.3-4c0-15,0-30-0.1-45
			c0-0.6,0-1.2,0-2.1c2.4,0.6,4.3,1.5,6.2,2.9c-0.1,2-0.2,4-0.3,5.9c0,0.8-0.1,1.6-0.1,2.4c0,12.2,0,24.3,0,36.5
			c0,2.9-0.2,5.8-0.9,8.7c-0.9,3.3-2.8,5.4-6,6.5c-0.7,0.3-1.5,0.5-2.2,0.8c0.4,2.1,0.7,4.1,1.1,6.1c1,0.7,1.9,0,2.7-0.2
			c4.2-1,7.9-2.9,10.2-6.7c1.4-2.2,2.1-4.7,2.7-7.3c0.6-2.9,0.5-5.8,0.5-8.8c0-12,0-24,0-36c0-0.8,0-1.6,0-2.4
			c2.9,1.5,7.1,7.1,9,11.7c-1,1.2-2,2.3-2.8,3.5c-1.3,1.9-2,3.9-1.9,6.2c0.1,2-0.2,4.1,0.6,6.1c1.3,3.3,3.1,6,6.8,7
			c0.2,0.1,0.4,0.3,0.7,0.5c-0.2,1.1-0.5,2.2-0.8,3.6c1,0,1.9,0.1,2.8,0.1c52.2,0,104.4,0,156.6,0c20.2,0,40.3,0,60.5,0
			C297.7,60.7,298.6,60.4,299.5,61z"/>
		<path d="M42.7,45.1c0,1.3,0,2.7,0,4c0.1,5.9-3.9,11.2-9.9,12.9c-2.9,0.8-5.8,0.7-8.6-0.2c-4.1-1.2-6.9-4-8.5-7.7
			c-2.4-5.7-2.5-11.7,0-17.5c2.1-4.7,5.6-7.8,11.1-8.5c5-0.6,9.2,0.6,12.7,4.2c2.1,2.3,3.2,5,3.3,8.1C42.7,42.1,42.7,43.6,42.7,45.1
			z"/>
		<path d="M271.5,55.9c-2.4,0.6-10.2,0.6-12.1,0.1c0.8-0.5,1.5-1,2.3-1.5c1.1-3.2,0.6-6.5,0.6-9.8c0-3.2,0.4-6.5-0.6-9.9
			c-0.6-0.3-1.3-0.8-2.2-1.3c0.4-0.2,0.7-0.5,1-0.5c2.8,0,5.6,0,8.5,0c0.1,0.9,0.2,1.7,0.3,2.8c0.6-0.6,1.2-1.1,1.7-1.5
			c2.2-1.7,4.6-2.6,7.5-1.7c1.4,0.4,2.5,1.4,3.3,2.6c0.3,0.4,0.5,0.8,0.8,1.2c0.8-0.7,1.4-1.5,2.2-2c2.2-1.7,4.6-2.7,7.5-1.8
			c2.4,0.8,3.8,2.6,4.1,5.2c0.5,4.1,0.3,8.2,0.4,12.3c0,1.4,0,2.8,0,4.3c0.9,0.5,1.6,1,2.3,1.4c-0.1,0.2-0.1,0.4-0.2,0.4
			c-3.9,0.4-7.7,0.1-11.6,0.2c0-0.4-0.1-0.6,0-0.7c1.8-0.9,2.3-2.4,2.3-4.3c-0.1-4.1,0-8.3-0.1-12.4c0-1.8-0.2-2.1-1.7-3.5
			c-2.3-0.3-3.4,1.5-4.9,3c0,4.9,0,9.9,0,14.9c0,0.4,0.3,0.9,0.5,1.3c0.6,0.4,1.2,0.7,2.2,1.2c-2.3,0.8-4.3,0.3-6.3,0.4
			c-1.9,0.1-3.9,0.2-5.9-0.1c0.1-0.3,0-0.6,0.1-0.6c1.7-0.7,2.3-1.9,2.2-3.7c-0.1-4.9,0-9.8,0-15.1c-0.4-0.4-1-1-1.3-1.3
			c-2.9-0.3-4,1.6-5.4,3c0,4.6,0,9.2,0,13.7C269.1,54,269.9,55.1,271.5,55.9z"/>
		<path d="M154,56.3c-3.9,0-7.7,0-11.7,0c0.3-1.2,1.6-1,2.3-2.1c0.2-6.1,0.1-12.5,0.1-19.1c-0.8-0.5-1.5-1-2.5-1.6
			c0.4-0.2,0.7-0.4,1-0.5c2.8,0,5.5,0,8.5,0c0.1,0.9,0.2,1.8,0.3,2.9c1.9-2.2,4.1-3.6,7.3-3.7c1.4,0.2,3.1,0.8,4.3,2.4
			c0.4,0.6,0.9,1.4,1,2.1c0.3,1.8,0.5,3.6,0.5,5.4c0.1,4,0,8.1,0,12.2c0.8,0.5,1.6,1,2.7,1.7c-2.3,0.7-4.3,0.3-6.3,0.3
			c-1.9,0-3.9,0.3-5.9-0.2C158,54,158,54,158,50.6c0-4.4,0-8.9,0-13.5c-0.7-0.6-1.4-1.1-2-1.6c-2.1,0.4-3,1.8-4.2,3.1
			c0,4.6,0,9.2,0,13.8c0,1.7,0.9,2.7,2.4,3.5C154.2,56,154.1,56.1,154,56.3z"/>
		<path d="M104.6,33c0,5.6,0,10.8,0,16c0,0.6-0.1,1.3,0,1.9c0.2,0.8,0.5,1.6,0.8,2.5c0.9,0,1.7,0.1,2.7,0.1c0.9-1,1.8-2,2.6-2.9
			c0-5.3,0-10.3,0-15.4c-0.4-0.4-0.7-0.8-1.2-1.1c-0.3-0.2-0.8-0.3-1.6-0.7c2-0.8,3.5-0.4,5-0.5c1.6-0.1,3.1,0,4.9,0
			c0,7.2,0,14.2,0,21.3c0.9,0.6,1.7,1.1,2.4,1.6c-0.2,0.2-0.3,0.5-0.4,0.5c-2.9,0-5.9,0-8.9,0c-0.1-0.9-0.2-1.7-0.3-2.6
			c-1,0.8-1.9,1.6-3,2.2c-2.1,1.3-4.3,1.5-6.6,0.5c-2.1-0.9-2.9-2.6-3.3-4.9c-0.6-4.1-0.3-8.2-0.4-12.3c0-1.3,0-2.5,0-4
			c-0.8-0.5-1.6-1.1-2.6-1.8c1.7-0.7,3.2-0.3,4.7-0.4C101.2,33,102.8,33,104.6,33z"/>
		<path d="M175.1,35.9c0.7,1.2,1.3,2.2,1.9,3.2c-1,2.7-1.7,3.2-3.9,3.1c-2.5-0.2-3.9-2.3-3-4.7c0.6-1.5,1.8-2.6,3.2-3.4
			c1.5-0.9,3.1-1.4,4.9-1.5c1.6-0.1,3.2-0.5,4.9,0c1.5,0.4,2.8,1.1,3.9,2.1c1,1,1.5,2.1,1.5,3.6c0,4.2,0,8.4,0,12.6c0,1,0,1.9,1,2.7
			c0.5-0.2,1.1-0.5,1.8-0.8c0.1,0.1,0.2,0.2,0.3,0.3c0,0.2,0,0.4,0,0.5c-1.8,2.7-4.4,3.5-7.9,2.7c-0.6-0.7-1.4-1.7-2.2-2.8
			c-1.3,0.8-2.7,1.7-4.2,2.5c-1.5,0.9-3.2,0.5-4.8,0.5c-1.6-0.6-2.5-1.8-3-3.4c-0.4-3,1-5.3,3.6-6.8c2.8-1.7,5.6-3.2,8.5-4.9
			c0.4-2.4,0.3-3.4-0.4-5.8C178.8,33.5,177.5,33.5,175.1,35.9z M181.7,43.5c-2.3,1-4,2.6-4.9,4.3c-1.3,2.5-0.8,3.8,2.2,4.9
			c0.9-0.5,1.9-1.1,2.7-1.5C181.7,48.4,181.7,46.1,181.7,43.5z"/>
		<path d="M93.7,44.5c0.2,3.5-0.8,6.4-2.8,9c-1.7,2.1-3.9,3.4-6.7,3.4c-1.4,0-2.9,0.1-4.2-0.2c-3-0.7-5.1-2.6-6.5-5.4
			c-3.1-6-1.2-13,2.4-16.4c1.4-1.3,3-2,5-2.4c3.2-0.6,5.9,0.3,8.4,2c1.7,1.1,2.7,2.7,3.4,4.5C93.3,40.7,93.9,42.6,93.7,44.5z
			 M82.2,55.4c2.6-0.3,3.5-1.2,3.9-3.7c0.5-3.8,0.6-7.7,0.4-11.6c-0.1-2.2-0.2-4.6-2.6-6c-2.3-0.1-3.4,0.4-3.9,2.1
			c-0.3,1.1-0.5,2.3-0.5,3.5c-0.1,3.5,0,7,0,10.4C79.3,52.4,80,54.2,82.2,55.4z"/>
		<path d="M236.2,45.2c-0.2-3.3,0.6-5.9,2.1-8.3c2.2-3.5,5.5-4.9,9.3-4.6c4.4,0.3,7.7,2.5,9.3,6.9c1.6,4.3,1.5,8.4-0.7,12.5
			c-1.8,3.5-4.7,5.2-8.6,5.3c-2.2,0-4.3,0-6.2-1.2c-3.2-2.1-4.7-5.2-5.3-8.8C236.1,46.1,236.2,45.4,236.2,45.2z M246.1,34.1
			c-1.6,1-2.4,2.3-2.3,4c0,0.3,0,0.6,0,1c-0.7,4.2-0.6,8.5,0,12.7c0.3,2,1.3,3.2,3.1,3.7c1.4-0.3,2.4-1,3.1-2.3
			c0.2-1,0.5-2.1,0.5-3.2c0.1-3.6,0.1-7.1,0-10.7c0-0.9-0.2-1.7-0.4-2.5C249.3,34.5,248.6,34.1,246.1,34.1z"/>
		<path d="M191.4,22.9c1.8-0.4,7.2-0.5,9.9-0.1c0,10.3,0,20.6,0,30.6c0.7,1.4,1.6,2.1,3.1,2.4c-0.4,0.3-0.6,0.6-0.8,0.6
			c-3.7,0-7.5,0-11.2,0c-0.2,0-0.4-0.2-0.8-0.4c0.9-0.5,1.6-0.9,2.5-1.4c0.2-1.6,0.4-3.2,0.5-4.8c0.1-3.6,0.1-7.1,0-10.7
			c-0.1-4.7-0.3-9.5-0.5-14.5C193.3,24,192.4,23.5,191.4,22.9z"/>
		<path d="M234.2,39.4c-0.2,0.3-0.4,0.6-0.7,0.9c-0.3,0.3-0.6,0.5-0.9,0.8c-0.9,0-1.7,0-2.6,0c-1.7-0.8-2.2-2.3-2.3-4
			c-0.1-1.1-0.2-2-1.1-2.9c-1.2-0.5-2.3-0.1-2.9,1.1c-0.5,0.9-1.1,1.8-1.1,2.8c-0.2,3.2-0.4,6.5,0.9,9.6c0.5,1.2,1.2,2.4,2,3.4
			c2,2.5,4.8,2.6,7.6,0.6c0.5-0.4,0.9-0.8,1.7-1.4c-0.1,0.8,0,1.4-0.2,1.6c-1.2,1.2-2.4,2.6-3.8,3.6c-3.8,2.7-10.5,1.9-13.3-3.2
			c-1.3-2.4-1.8-4.8-1.8-7.5c-0.1-3.3,1-6.2,2.9-8.8c1.4-1.9,3.3-2.9,5.7-3.5c2.2-0.5,4.2-0.3,6.2,0.5
			C233.4,34.3,234.4,36,234.2,39.4z"/>
		<path d="M124.3,35c-1-0.5-1.7-0.9-2.5-1.4c1.3-0.7,4.9-0.9,9.5-0.4c0,1.4,0,2.9,0,4.7c1.3-1.4,2.3-2.5,3.3-3.7
			c1.1-1.3,2.6-1.7,4.2-2.1c0.6,0.2,1.3,0.4,1.9,0.6c2.1,3,1.5,5.2-1.6,6.5c-0.6-0.2-1.3-0.4-1.9-0.7c-0.5-0.3-1-0.8-1.5-1.2
			c-0.6,0-1.1,0-1.9,0c-0.5,0.7-1.2,1.4-1.4,2.3c-0.5,1.6-0.9,3.4-1,5.1c-0.2,2.9,0,5.9,0,8.7c0.6,1.5,1.7,2.1,3.3,2.1
			c-0.3,0.3-0.5,0.7-0.6,0.7c-4,0-8,0-12.2,0c0.4-1.2,1.7-1,2.3-2.2C124.9,48,124.7,41.6,124.3,35z"/>
		<path d="M277.3,73.9c-0.1-0.3-0.2-0.5-0.2-0.7c-0.2-2.4-0.4-4.9-0.6-7.2c0.8-0.7,1.6-0.5,2.5-0.3c0,1.9,0,3.7,0,5.9
			c1.2-2.3,2.2-4.2,3.2-5.9c1.1,0,1.9,0,2.7,0c0,1.9,0,3.7,0,5.8c1.1-2.1,2.1-4,3.1-5.8c0.9,0,1.5,0,2.5,0c-1.7,2.9-3.4,5.7-5,8.5
			c-0.5,0-0.9,0-1.3,0c-0.4,0-0.7-0.2-1.2-0.3c-0.5-1.8,0-3.5-0.4-5.4c-1.1,1.9-2,3.7-3,5.5C278.8,73.9,278.1,73.9,277.3,73.9z"/>
		<path d="M179.3,73.8c-0.8,0.1-1.4,0.1-2,0.2c-0.1-0.3-0.3-0.6-0.3-0.8c0.2-0.9,0.4-1.9,0.6-2.8c0.2-0.8,0.4-1.6,0.3-2.6
			c-1.2,1.9-2.4,3.7-3.6,5.7c-0.6,0-1.2,0-2,0c-0.3-1.8-0.5-3.6-0.8-5.9c-0.7,2.3-1.3,4.1-2,6.2c-0.7,0-1.3,0.1-2.3,0.1
			c1-3,1.9-5.6,2.8-8.4c1,0,2,0,3.1,0c1.1,1.6,0.2,3.4,0.9,5.4c1.3-2,2.4-3.7,3.4-5.4c1.2,0,2.2,0,3.4,0
			C180.4,68.4,179.9,71,179.3,73.8z"/>
		<path d="M213.2,54.4c-0.7,0.7-1.7,1.7-2.4,2.4c-3.9,0.2-5.5-1-5.7-3.8c-0.2-2.6,2-4.4,4.2-4.3C212.1,48.9,213.4,50.5,213.2,54.4z"
			/>
		<path d="M257.7,65.5c1,0,1.8,0,2.8,0c0.8,1.7,1.6,3.4,2.5,5.3c0.5-1.9,0.9-3.5,1.3-5.2c0.8,0,1.5,0,2.3,0
			c-0.7,2.8-1.4,5.4-2.2,8.3c-0.7,0.1-1.5,0.1-2.4,0.2c-0.9-2-1.9-4-2.8-6.1c-0.5,2-0.9,3.8-1.4,5.8c-0.7,0.1-1.3,0.2-2.2,0.3
			C256.2,70.9,256.8,68.2,257.7,65.5z"/>
		<path d="M78.3,74c-0.8-0.1-1.4-0.2-2.2-0.3c0.7-2.8,1.4-5.4,2.1-8.2c0.9,0,1.8,0,3,0c0.7,1.6,1.5,3.3,2.4,5.3
			c0.5-1.9,0.9-3.5,1.3-5.3c0.7,0,1.3,0,2.3,0c-0.7,2.9-1.4,5.6-2.1,8.3c-0.8,0-1.5,0-2.4,0c-0.9-1.8-1.7-3.7-2.8-5.9
			C79.3,70.2,78.8,72,78.3,74z"/>
		<path d="M98.4,67.5c0.1,3.3-0.8,5-3,5.9c-2.8,1.2-5.1,0.8-7.2-1.3c-0.8-1.6-0.5-3.2,0.5-4.6c0.9-1.3,2.4-2.1,4.1-2.1
			c1.1,0,2.2,0,3.5,0C96.9,66.1,97.6,66.8,98.4,67.5z M94.8,71.8c0.4-1,0.8-2,1.3-3.1c-0.4-0.7-0.8-1.2-1.1-1.7
			c-3.8-0.3-4.9,1-4.4,4.7c0.6,0.3,1.2,0.6,1.8,0.9C93.2,72.4,93.9,72.1,94.8,71.8z"/>
		<path d="M141.5,65.5c1.1,0,2,0,3.2,0c0.6,2.8,1,5.5,1.4,8.4c-0.9,0-1.6,0-2.5,0c-0.2-0.7-0.4-1.3-0.6-2.1c-0.9,0-1.8,0-2.8,0
			c-0.6,0.7-1.2,1.4-1.8,2.2c-0.6,0-1.2-0.1-2.2-0.1C138.1,70.9,139.8,68.3,141.5,65.5z"/>
		<path d="M124.9,68.8c0.3-1.1,0.6-2.1,0.9-3.2c0.7-0.1,1.4-0.1,2.5-0.2c-0.7,3-1.4,5.7-2.2,8.6c-0.9-0.1-1.6-0.1-2.3-0.2
			c0.3-1.3,0.5-2.3,0.8-3.4c-1.4,0-2.6,0-3.9,0c-0.3,1-0.6,2.1-0.9,3.4c-0.6,0.1-1.2,0.2-1.7,0.3c-0.8-0.7,0.3-5.6,1.7-8.4
			c0.7,0,1.3,0,2,0c-0.2,1-0.3,2-0.5,2.9C122.5,69,123.7,68.6,124.9,68.8z"/>
		<path d="M104.9,73.8c-0.3-1.1-0.5-2-0.8-3c-0.6-0.1-1.1-0.1-1.8-0.2c-0.4,1.1-0.7,2.1-1.1,3.3c-0.7-0.1-1.4-0.1-1.9-0.1
			c-0.1-0.3-0.2-0.4-0.2-0.4c0.7-2.6,1.3-5.1,2-7.8c1.9,0,3.7,0,6.1,0c0.3,0.3,0.9,1,1.4,1.5c-0.7,1.8-0.7,1.8-2.3,2.9
			c0.7,1.2,1.1,2.4,0.6,4C106.2,73.9,105.5,73.9,104.9,73.8z M102.7,69.4c1.2-0.3,2-0.6,2.9-0.8c-0.1-0.7-0.1-1.1-0.2-1.6
			c-0.8,0-1.5,0-2.4,0C102.9,67.7,102.8,68.4,102.7,69.4z"/>
		<path d="M135.6,72.4c-0.1,0.5-0.3,1-0.4,1.5c-2.2,0-4.4,0-6.8,0c0.7-2.8,1.3-5.5,2-8.3c2.1,0,4.2,0,6.4,0c0,0.3,0,0.7,0,1.2
			c-1.3,0-2.6,0-4,0c-0.3,0.6-0.5,1.1-0.8,1.8c1.4,0.1,2.7,0.1,4,0.2c-0.2,0.5-0.3,0.9-0.5,1.3c-1.2,0-2.4,0-3.6,0
			c-0.3,0.6-0.5,1.1-0.8,1.7C132.7,72.6,134.2,71.8,135.6,72.4z"/>
		<path d="M266.7,73.9c0.8-3,1.4-5.6,2.1-8.4c2.1-0.1,4.3-0.1,6.7,0c-0.2,0.5-0.3,0.9-0.5,1.4c-1.3,0-2.6,0-3.9,0
			c-0.2,0.6-0.5,1-0.8,1.8c1.3,0.1,2.5,0.1,3.8,0.2c0,0.4,0,0.8,0,1.3c-1.3,0-2.5,0-3.8,0c-0.3,0.7-0.5,1.3-0.7,2
			c1.4,0.1,2.7,0.1,4.2,0.2c-0.1,0.6-0.1,1-0.2,1.5C271.3,74.2,269.2,74,266.7,73.9z"/>
		<path d="M240.6,65.4c2.5,0.3,4.9-0.7,6.8,1.1c0.4,2.7-0.5,3.9-3.2,4.2c-0.8,0.1-1.6,0.1-2.4,0.1c-0.3,1-0.6,2-1,3
			c-0.7,0-1.4,0-2.3,0C239.2,71,239.9,68.3,240.6,65.4z M242.5,66.9c-0.1,0.7-0.1,1.4-0.2,2.5c1.1-0.3,2-0.5,2.9-0.7
			c-0.1-0.7-0.2-1.2-0.3-1.7C244.1,66.9,243.5,66.9,242.5,66.9z"/>
		<path d="M231.3,65.4c2.6,0.3,5.4-0.9,7.2,1.9c-0.8,2.9-1.5,3.3-6,3.6c-0.3,0.9-0.6,1.8-0.9,2.8c-0.7,0.5-1.4,0.5-2.3-0.1
			C229.9,70.9,230.6,68.2,231.3,65.4z M236.2,67.9c-1.1-1-2.1-1.3-2.8-0.7c-0.1,0.5-0.3,1.2-0.5,2c0.9,0,1.6,0,2.3,0
			C235.5,68.7,235.8,68.3,236.2,67.9z"/>
		<path d="M207.2,73.4c0.3-0.5,0.4-0.8,0.7-1.3c1,0.2,1.9,0.3,3,0.5c0.4-0.2,0.9-0.5,1.5-0.7c-0.1-0.3,0-0.7-0.1-0.8
			c-0.6-0.4-1.2-0.7-1.8-1.1c-0.7-0.5-1.3-1-1.9-1.5c0.8-2.5,1.4-3,3.5-3.1c1.2,0,2.3,0,3.8,0.1c-0.3,0.6-0.5,1-0.6,1.3
			c-1.4,0.5-2.9-0.4-4.1,0.8c1,1.6,3.8,1.3,4,3.6C213.9,74,211.5,74.7,207.2,73.4z"/>
		<path d="M224.3,65.7c-0.2,0.5-0.4,0.8-0.6,1.1c-1.2,0.1-2.4,0.2-3.5,0.3c-0.2,0-0.3,0.3-0.5,0.5c0.9,1.7,3.9,1.1,4,3.7
			c-1.2,2.7-3.7,3.4-7.8,2c0.2-0.4,0.3-0.7,0.6-1.3c1,0.1,2,0.3,3.2,0.5c0.3-0.2,0.9-0.5,1.4-0.8c-0.1-0.4-0.1-0.7-0.3-0.8
			c-0.5-0.3-1.1-0.6-1.6-0.9c-0.7-0.4-1.3-0.9-1.8-1.3c0-2,0.6-3,2.2-3.2C221,65.3,222.6,65.2,224.3,65.7z"/>
		<path d="M147.1,73.2c0.1-0.2,0.1-0.4,0.3-0.6c0.1-0.2,0.3-0.3,0.6-0.6c0.7,0.2,1.5,0.3,2.3,0.5c0.6-0.2,1.2-0.4,2-0.7
			c-0.5-2-3-1.5-3.8-3.7c0-0.2,0-1,0.4-1.4c0.6-0.6,1.4-1.1,2.2-1.2c1.4-0.2,2.8-0.1,4.4-0.1c-0.2,0.6-0.4,0.9-0.6,1.4
			c-0.7,0-1.4,0-2.1,0c-0.7,0-1.5-0.1-2,0.9c1.2,0.8,2.4,1.6,3.7,2.4c0,0.8,0,1.5,0,2C153.5,74,150.1,74.4,147.1,73.2z"/>
		<path d="M194.1,73.3c0.4-0.5,0.6-0.8,0.9-1.2c0.8,0.2,1.7,0.3,2.6,0.5c0.5-0.2,1.1-0.6,1.8-0.9c-0.8-1.7-3-1.4-3.8-3.4
			c0-0.2-0.1-0.9,0.3-1.3c0.6-0.6,1.3-1.2,2.1-1.4c1.4-0.3,2.8-0.3,4.3,0.1c-0.1,0.5-0.1,0.8-0.2,1.1c-1.4,0.5-2.9-0.4-4.1,0.8
			c0.7,1.6,2.8,1.4,3.7,3c0,0.4,0,1,0,1.6C200.7,73.9,197.6,74.4,194.1,73.3z"/>
		<path d="M194.1,65.4c-0.2,0.6-0.4,0.9-0.5,1.3c-1.3,0.7-2.9-0.5-4.2,1c1.3,0.9,2.6,1.7,3.8,2.5c0,0.8,0,1.4,0,2.1
			c-2.3,1.9-4.8,2.1-7.6,0.9c0.3-0.5,0.5-0.8,0.8-1.3c0.8,0.2,1.6,0.3,2.5,0.5c0.5-0.2,1.2-0.4,1.9-0.7c-0.1-0.3,0-0.6-0.2-0.7
			c-0.4-0.4-0.9-0.6-1.3-0.9c-0.7-0.5-1.4-0.9-2.3-1.5c0.2-0.8,0.1-1.6,0.6-2c0.6-0.6,1.6-1.1,2.4-1.3
			C191.2,65.3,192.6,65.4,194.1,65.4z"/>
		<path d="M297.7,65.5c-0.1,0.6-0.1,1-0.2,1.3c-1.4,0.6-2.9-0.4-4.1,0.8c0.7,1.7,3.1,1.3,3.7,3.1c-0.1,1.9-0.4,2.3-1.9,2.9
			c-1.9,0.7-3.7,0.7-5.6-0.3c0.2-0.4,0.4-0.8,0.7-1.3c0.9,0.2,1.7,0.3,2.7,0.5c0.5-0.3,1.1-0.6,1.8-0.9c-0.7-1.7-3.1-1.2-3.9-3
			c0.2-0.6,0.1-1.5,0.5-1.9c0.6-0.6,1.4-1.1,2.2-1.3C294.9,65.3,296.2,65.5,297.7,65.5z"/>
		<path d="M112.9,73.8c-0.7,0.1-1.2,0.1-1.9,0.1c-0.1-0.3-0.3-0.6-0.3-0.8c0.4-2,0.9-4,1.4-6.1c-0.8-0.1-1.7-0.2-2.6-0.3
			c0-0.4,0-0.7,0-1.3c2.8-0.2,5.5,0,8.4-0.1c0,0.6-0.1,0.9-0.1,1.4c-1,0.1-2,0.1-3.1,0.2C114.2,69.1,113.6,71.3,112.9,73.8z"/>
		<path d="M159.5,67.1c-1.1-0.1-2-0.2-3-0.3c0.2-0.5,0.4-0.8,0.6-1.2c2.6,0,5.2,0,7.9,0c0,0.3,0.1,0.7,0.1,1.2
			c-1.1,0.1-2.1,0.2-3.1,0.3c-0.6,2.3-1.2,4.5-1.8,6.7c-0.5,0.1-0.8,0.2-1.1,0.3c-0.3,0-0.6,0-0.9-0.1c-0.1-0.3-0.2-0.5-0.2-0.7
			C158.5,71.2,159,69.3,159.5,67.1z"/>
		<path d="M205,65.5c0.9,0,1.5,0,2.1,0c0.1,0.2,0.2,0.3,0.1,0.4c-0.6,2.6-1.3,5.2-1.9,7.7c-0.9,0.6-1.6,0.6-2.5-0.1
			C203.6,70.9,204.3,68.3,205,65.5z"/>
		<path d="M224.5,74.1c0.7-3.1,1.3-5.7,2-8.5c0.9,0,1.6,0,2.5,0c-0.7,2.7-1.3,5.3-2.1,8.2C226.3,73.8,225.6,73.9,224.5,74.1z"/>
		<path d="M183.4,74c-0.6-0.1-1.2-0.2-2-0.3c0.7-2.8,1.4-5.4,2.1-8.1c0.6,0,1.3-0.1,1.8-0.1C185.9,66,184.6,71.7,183.4,74z"/>
		<path d="M250.1,65.4c0.6,0,1,0,1.4,0c0.2,0,0.4,0.1,0.9,0.2c-0.7,2.7-1.4,5.4-2,8.1c-0.4,0.1-0.7,0.3-1,0.3
			c-0.4,0-0.7-0.1-1.4-0.1C248.5,71,249.2,68.3,250.1,65.4z"/>
	</g>
</g>
<g id="Layer_1">
</g>
</svg>
