<?xml version="1.0" encoding="utf-8"?>
<!-- Generator: Adobe Illustrator 18.0.0, SVG Export Plug-In . SVG Version: 6.00 Build 0)  -->
<!DOCTYPE svg PUBLIC "-//W3C//DTD SVG 1.1//EN" "http://www.w3.org/Graphics/SVG/1.1/DTD/svg11.dtd">
<svg version="1.1" xmlns="http://www.w3.org/2000/svg" xmlns:xlink="http://www.w3.org/1999/xlink" x="0px" y="0px"
	 viewBox="0 0 300 100" style="enable-background:new 0 0 300 100;" xml:space="preserve">
<style type="text/css">
	.st0{fill-rule:evenodd;clip-rule:evenodd;}
	.st1{fill-rule:evenodd;clip-rule:evenodd;fill:#C038F9;}
	.st2{fill:none;}
	.st3{fill-rule:evenodd;clip-rule:evenodd;fill:#231F20;}
</style>
<g id="Layer_2">
	<g>
		<g>
			<path d="M67.7,48.9L75,28.6h6.8L89,48.9h-6.6l-0.8-2.7H75l-0.8,2.7H67.7z M78.3,34.7L76.3,42h4.2L78.3,34.7z"/>
			<path d="M91,48.9V28.6h8l3.6,12.6l3.6-12.6h8v20.3h-6v-6.2l0.1-3.2l0.3-3.7h-0.1l-3.7,13h-4.6l-3.7-13h-0.1l0.3,3L97,42v6.9H91z"
				/>
			<path d="M118,48.9V28.6h16.5v4.7h-9.9v2.9h8.4V41h-8.4v3.2h10.3v4.7H118z"/>
			<path d="M144.5,41.8v7.1h-6.6V28.6h9.6c6.8,0,9,1.8,9,5.8c0,2.3-1,4.3-3.4,5c2.1,0.8,3.4,1.3,3.4,5.4c0,2.6-0.1,3.5,0.7,3.5v0.6
				h-6.7c-0.2-0.4-0.3-1.7-0.3-3.5c0-2.6-0.5-3.5-3.5-3.5H144.5z M144.5,37.4h2.6c2.1,0,3.2-0.5,3.2-1.9c0-1.4-1.1-2.1-2.7-2.1h-3.1
				V37.4z"/>
			<path d="M160.2,48.9V28.6h6.6v20.3H160.2z"/>
			<path d="M183.6,36.3c-0.2-2.1-1.5-3.3-3.6-3.3c-2.3,0-3.7,2-3.7,5.9c0,2.8,0.6,5.5,4,5.5c2.1,0,3.2-1.5,3.4-3.4h6.4
				c-0.6,5.2-4.3,8.4-9.7,8.4c-6.7,0-10.7-4.1-10.7-10.7c0-6.6,4.4-10.6,10.1-10.6c6.2,0,9.7,3.1,10.2,8.3H183.6z"/>
			<path d="M189.8,48.9l7.3-20.3h6.8l7.3,20.3h-6.6l-0.8-2.7h-6.6l-0.8,2.7H189.8z M200.4,34.7l-2.1,7.3h4.2L200.4,34.7z"/>
			<path d="M226.5,39.7l-0.3-4.6v-6.4h6.4v20.3h-6.2l-7.2-11l0.3,4.6v6.4h-6.4V28.6h6.2L226.5,39.7z"/>
			<path d="M69,79V58.8h9.8c5.8,0,8.6,2.7,8.6,6.8c0,4.4-2.6,7.1-8.4,7.1h-3.3V79H69z M78.4,68c1.5,0,2.7-0.6,2.7-2.4
				c0-1.9-2.1-2.1-3.5-2.1h-1.9V68H78.4z"/>
			<path d="M88.6,58.8h6.6v12.1c0,2,0.4,3.7,3.1,3.7c2.4,0,3.1-1.5,3.1-3.7V58.8h6.6v11.5c0,6.5-3,9.3-9.7,9.3
				c-6.3,0-9.8-2.4-9.8-9.4V58.8z"/>
			<path d="M110.9,79V58.8h9.7c4.6,0,8.2,1.1,8.2,5.1c0,2.1-1.4,3.6-2.6,4.4c2.2,0.6,3.4,2.4,3.4,4.6c0,4.5-3.5,6.1-8.7,6.1H110.9z
				 M117.6,63.5v3.4h2.8c1.3,0,2.3-0.6,2.3-1.8c0-1.6-1.3-1.6-2.7-1.6H117.6z M117.6,70.6v3.7h2.9c1.6,0,2.9-0.3,2.9-1.9
				c0-1.8-1.5-1.9-3.7-1.9H117.6z"/>
			<path d="M131.8,79V58.8h6.6v15.5h9.1V79H131.8z"/>
			<path d="M149.5,79V58.8h6.6V79H149.5z"/>
			<path d="M172.3,66.5c-0.2-2.1-1.5-3.3-3.6-3.3c-2.3,0-3.7,2-3.7,5.9c0,2.8,0.6,5.5,4,5.5c2.1,0,3.2-1.5,3.4-3.4h6.4
				c-0.6,5.2-4.3,8.4-9.7,8.4c-6.7,0-10.7-4.1-10.7-10.7c0-6.6,4.4-10.6,10.1-10.6c6.2,0,9.7,3.1,10.2,8.3H172.3z"/>
			<path d="M189.9,79V58.8h8l3.6,12.6l3.6-12.6h8V79h-6v-6.2l0.1-3.2l0.3-3.7h-0.1l-3.7,13h-4.6l-3.7-13h-0.1l0.3,3l0.1,3.2V79
				H189.9z"/>
			<path d="M216.3,79V58.8h16.5v4.7H223v2.9h8.4v4.7H223v3.2h10.3V79H216.3z"/>
			<path d="M236.6,79V58.8h8.9c6.5,0,10.6,3,10.6,9.7c0,7.6-4.2,10.6-10.7,10.6H236.6z M243.3,74.3h1.4c3.1,0,4.8-1.6,4.8-5.5
				c0-4.2-1.4-5.3-4.9-5.3h-1.3V74.3z"/>
			<path d="M259.1,79V58.8h6.6V79H259.1z"/>
			<path d="M268,79l7.3-20.3h6.8l7.3,20.3h-6.6l-0.8-2.7h-6.6l-0.8,2.7H268z M278.5,64.9l-2.1,7.3h4.2L278.5,64.9z"/>
		</g>
		<g>
			<path d="M288.2,58h4.8v0.9h-1.9V64h-1v-5.1h-1.9V58z"/>
			<path d="M293.6,58h1.5l1.7,4.7h0l1.6-4.7h1.5v6h-1v-4.6h0l-1.7,4.6h-0.9l-1.7-4.6h0V64h-1V58z"/>
		</g>
		<path d="M27.2,81.5C12.2,81.5,0,69.2,0,54.2S12.2,27,27.2,27s27.2,12.2,27.2,27.2S42.2,81.5,27.2,81.5z M27.2,43.8
			c-5.8,0-10.5,4.7-10.5,10.5s4.7,10.5,10.5,10.5S37.7,60,37.7,54.2S33,43.8,27.2,43.8z"/>
	</g>
</g>
<g id="Layer_1">
</g>
</svg>
