<?xml version="1.0" encoding="utf-8"?>
<!-- Generator: Adobe Illustrator 18.0.0, SVG Export Plug-In . SVG Version: 6.00 Build 0)  -->
<!DOCTYPE svg PUBLIC "-//W3C//DTD SVG 1.1//EN" "http://www.w3.org/Graphics/SVG/1.1/DTD/svg11.dtd">
<svg version="1.1" xmlns="http://www.w3.org/2000/svg" xmlns:xlink="http://www.w3.org/1999/xlink" x="0px" y="0px"
	 viewBox="0 0 300 100" style="enable-background:new 0 0 300 100;" xml:space="preserve">
<style type="text/css">
	.st0{fill-rule:evenodd;clip-rule:evenodd;}
	.st1{fill-rule:evenodd;clip-rule:evenodd;fill:#C038F9;}
	.st2{fill:none;}
	.st3{fill-rule:evenodd;clip-rule:evenodd;fill:#231F20;}
</style>
<g id="Layer_2">
</g>
<g id="Layer_1">
	<g>
		<path class="st3" d="M10.8,45.1c0.6-1.5,1.4-2.8,2.4-3.6c0.1-0.1,0.3-0.1,0.4-0.1c0.1,0,0.5,0,1,0c0.3,0,0.6,0,0.8,0.1
			c0.2,0,0.5,0.1,0.7,0.2c0.3,0.1,0.5,0.3,0.9,0.5l-4.2,3.4l1,0.8v11.2c-1.1-0.5-1.9-1.3-2.6-2.4c-0.8-1.4-1.2-3.4-1.2-5.8
			C9.9,48.1,10.2,46.6,10.8,45.1L10.8,45.1z M10.4,40.8c0.2,0,0.6,0,1,0.1c0.4,0.1,0.8,0.2,1.1,0.2c-2.3,1-4.1,2.7-5.4,5.1
			c-1.1,2.1-1.7,4.4-1.7,6.8c0,3.1,1.1,5.7,3.2,7.9c2.1,2.2,4.7,3.3,7.8,3.3c2.9,0,5.4-1.1,7.5-3.4c2-2.2,3-4.9,3-8
			c-0.3,0.6-0.6,1.2-0.9,1.6C25.5,55,25,55.4,24.4,56c-0.4,0.4-0.8,0.6-1.1,0.8c-0.3,0.2-0.8,0.4-1.3,0.6v-15
			c0.7-0.3,1.2-0.6,1.6-0.9c0.4-0.3,0.8-0.7,1.3-1.3c1.2-1.4,1.9-2.9,2-4.5c-0.9,0.6-1.7,1-2.4,1.3c-0.7,0.3-1.5,0.5-2.4,0.5
			c-0.1,0-0.3,0-0.6,0c-1,0-2.4-0.4-4.4-1.1c-1.9-0.8-3.5-1.1-4.6-1.1c-2.2,0-4,1-5.3,3.1c-1.2,1.8-1.8,4-1.8,6.5
			c0.2-0.8,0.6-1.5,1.2-2.2c0.4-0.5,1-0.9,1.6-1.3C9,41,9.6,40.8,10.4,40.8L10.4,40.8z M30.6,64l3.6-4l-1.8-1.9V47.2l1-0.7l2.9,2.2
			V63c0,0.8,0,1.5-0.1,2.1c-0.1,0.6-0.3,1.1-0.6,1.5c-0.2,0.3-0.6,0.7-1,1.3c-0.5,0.6-1,1-1.7,1.4c1.4-0.1,2.5-0.5,3.4-0.9
			c0.9-0.5,1.8-1.3,2.7-2.3c0.7-0.8,1.2-1.6,1.6-2.3c0.3-0.8,0.6-1.6,0.7-2.5v-16L40,45.2l-3.9-2.6l-2.8,2.3l-0.9-0.5v-7.9l-0.8-1.8
			l-3.7,3.6v20.5l-1.1,1.3L30.6,64L30.6,64z M43.1,59.5l6.7,4.2l6.4-6.7l-3.5,2.5l-4.2-3v-2.8L56,48l-4.8-6.5l-7.7,5.4v11.7
			L43.1,59.5L43.1,59.5z M65.3,38.5v7.8c-0.6,0.1-1,0.2-1.4,0.3c-0.3,0.1-0.7,0.4-1.1,0.7c-1.1,0.9-1.7,2-1.7,3.3c0,0.2,0,0.5,0,0.7
			c0,0.2,0.1,0.4,0.1,0.6c0.4-0.3,0.8-0.6,1.1-0.7c0.4-0.1,0.8-0.2,1.4-0.2c0.3,0,0.5,0,0.7,0.1c0.2,0.1,0.4,0.2,0.8,0.3v7.7
			l5.7,5.8l5.3-5.4l6.4,5.4l9.3-9V40.5l-5.7-4.4L82,40l-5.8-3.8l-5.2,4.3v-2.5c0-0.8-0.6-1.8-1.8-2.8c-0.4-0.2-0.7-0.5-1-0.8
			c-0.3-0.3-0.5-0.6-0.6-1.1c-0.1-0.5-0.1-0.9-0.1-1.2c0-0.9,0.3-1.7,1-2.3c-0.3-0.1-0.6-0.1-0.7-0.1c-1.2,0-2.4,0.5-3.3,1.6
			c-1,1-1.4,2.2-1.4,3.5c0,0.2,0,0.5,0.1,0.8C63.5,36.9,64.2,37.9,65.3,38.5L65.3,38.5z M93.2,59.7l5.2,3.6l3.7-3.5l4.5,3.1l3.8-4.1
			H109l-1.7-1.8V44.8l-0.9,0.2l-4.3-3.6L93.9,47v12L93.2,59.7L93.2,59.7z M118,42.2c-0.5-0.2-1-0.5-1.5-0.9l-6.8,4.8v8.1l0.6,0.5h4
			l-5.2,9.1c0.8-0.7,1.4-1.2,1.9-1.4c0.6-0.3,1.3-0.5,2-0.5c0.9,0,1.6,0.1,2.2,0.3c0.6,0.2,1.1,0.6,1.7,1.1l6.7-5.2v-8.2l-0.5-0.5
			h-4.5V49l4-7c-0.4,0.3-0.8,0.4-1,0.4c-0.3,0-0.7,0.1-1.2,0.1h-0.9C119,42.5,118.5,42.4,118,42.2L118,42.2z M128.6,63.5l3.7-4.1
			l-1.8-1.9V46.6l1-0.7l3,2.2v14.2c0,0.8,0,1.5-0.1,2.1c-0.1,0.5-0.3,1-0.7,1.5c-0.2,0.3-0.5,0.7-0.9,1.2c-0.5,0.6-1.1,1.1-1.8,1.4
			c1.3-0.1,2.4-0.4,3.4-0.9c1-0.5,1.9-1.3,2.8-2.3c0.6-0.8,1.1-1.5,1.5-2.4c0.4-0.8,0.6-1.7,0.7-2.5v-16l-1.2,0.1l-4-2.6l-2.8,2.3
			l-0.9-0.5v-7.9l-0.8-1.8l-3.7,3.6v20.6l-1.1,1.3L128.6,63.5L128.6,63.5z M148.6,38.8l-3.7-3l-3,3.3L145,42L148.6,38.8L148.6,38.8z
			 M142.7,48.2v11.3l-0.8,1.2h1.4l3.2,2.7l3.4-3.1l4.4,3.5l3.8-4.2l-1.2-1.5V47.5l1-0.5l2.2,2.4v10.4l3.9,3.4l3.7-4.2h-1.7l-1-1.6
			V46l0.5-1l-1,0.2l-3.8-3L157,46l-4.4-3.5l-3.6,4h1.4l1.2,1.4v10.4l-2.4,0.8l-1.5-1.2V46.4l0.5-0.7l-4.3-3.2l-3.5,3.7l1.2,0.4
			L142.7,48.2L142.7,48.2z M217.6,59.2l-1.2-1.5V47l1-0.5l2.2,2.4v10.5l3.9,3.3l3.7-4.2h-1.7l-1-1.6V45.5l0.5-1l-1,0.2l-3.8-3
			l-3.7,3.9l-4.4-3.5l-3.6,4h1.4l1.2,1.4V58l-1.5,2l4.6,3L217.6,59.2L217.6,59.2z M168.7,59.3c0.6,0,1.1,0.1,1.5,0.2
			c0.5,0.1,0.9,0.4,1.4,0.7c0.4,0.3,0.8,0.7,1,1c0.2,0.3,0.4,0.8,0.5,1.3l-2.2,2.8l-2.3,3.1c0.6-0.3,1.1-0.5,1.5-0.6
			c0.4-0.1,1-0.1,1.8-0.1c0.9,0.1,1.7,0.3,2.4,0.7c0.7,0.4,1.3,0.9,1.8,1.6c1.3-0.5,2.9-1.6,4.6-3.3c1.8-1.7,2.6-3.1,2.6-4.2
			c0-0.2-0.2-0.8-0.6-1.8c-0.4-1-0.6-2.1-0.6-3.2v-13l-5.8-3.6l-7.3,5.2v12.3L168.7,59.3L168.7,59.3z M183,45h2.4v14.5l-0.6,1.1h1.4
			l3,2.3l3.9-4.5h-1.7l-1.1-1.2v-12l2.5-3h-2.5v-8l-5,4.6v3.2L183,45L183,45z M193.6,59.3l5.2,3.7l9-6.3V44.4l-0.9,0.2l-4.3-3.7
			l-8.2,5.7v12L193.6,59.3L193.6,59.3z M235.8,38.6v3.9c-0.7,0-1.3,0.1-1.8,0.2c-0.5,0.2-1,0.5-1.4,0.9c-0.5,0.4-0.7,1-0.8,1.5
			c-0.1,0.6-0.1,1.3-0.1,2.3c0,0.4,0,0.7,0,0.8c0.6-1,1.5-1.4,2.5-1.2c0.7,0.1,1.3,0.4,1.7,0.9v6.5c-1.3,0.7-2.4,1.5-3.3,2.6
			c-1.1,1.3-1.8,2.5-2.1,3.9c0.6-0.4,1.1-0.8,1.5-1c0.4-0.2,1-0.4,1.7-0.6c0.3-0.1,0.6-0.2,1-0.3c0.4-0.1,0.8-0.1,1.2-0.1v12.5
			l5.5-4.5l1.8,1.3v-7.1l2.3,0.8l7.9-5.5V38.1l-5-4l-5.2,4.3v-2.3l-1-0.8V39l-0.8,0.6v-3.8l-4.2-3.2l-5,5c0.4-0.3,0.8-0.4,1.3-0.4
			c0.4,0,0.7,0.1,1,0.2C235.1,37.5,235.6,38,235.8,38.6L235.8,38.6z M254.1,59.7l5.2,3.6l9-6.3V44.8l-0.9,0.2l-4.4-3.6l-8.2,5.7v12
			L254.1,59.7L254.1,59.7z M278,42c-0.4-0.2-0.9-0.5-1.5-0.9l-6.7,4.7v8.1l0.6,0.5h4l-5.2,9.1c0.6-0.5,1.1-0.9,1.5-1.1
			c0.7-0.5,1.6-0.7,2.5-0.7c0.9,0,1.6,0.1,2.1,0.3c0.6,0.2,1.1,0.6,1.7,1.1l6.7-5.2v-8.2l-0.5-0.5h-4.5v-0.4l4-7
			c-0.4,0.2-0.8,0.4-1,0.4c-0.3,0-0.7,0.1-1.2,0.1h-0.9C278.9,42.3,278.4,42.2,278,42L278,42z M283.6,45.3h2.4v14.5l-0.6,1.1h1.4
			l3,2.3l4-4.5h-1.7l-1.1-1.2v-12l2.4-3H291v-8l-5,4.6v3.2L283.6,45.3L283.6,45.3z M98.8,45.6l3.2,2.4v9.7l-1,1.1L98.8,57V45.6
			L98.8,45.6z M179.5,62.7c0.7,0.5,1,1.1,1,1.8c0,0.3,0,0.6-0.1,0.7c-0.2,0.3-0.3,0.4-0.4,0.5c-0.2,0.2-0.5,0.4-0.8,0.4
			c-0.4,0.1-0.8-0.1-1.4-0.5c-0.6-0.4-1.5-0.6-2.6-0.6c-0.8,0-1.4,0.1-2,0.2c-0.6,0.1-1.2,0.4-1.9,0.7l6.1-7.5v1c0,0.6,0,1,0.1,1.4
			c0.1,0.4,0.3,0.7,0.6,1C178.5,62.1,179,62.4,179.5,62.7L179.5,62.7z M174.1,45.1l3.2,2.3v9.4l-0.9,1l-2.2-2.2V45.1L174.1,45.1z
			 M48.4,52.4v-6.1l3,3.8L48.4,52.4L48.4,52.4z M119.8,45.5l-2.8,5h-2.1v-5.5c0.8,0.5,1.7,0.8,2.7,0.8
			C118.3,45.9,119.1,45.8,119.8,45.5L119.8,45.5z M199.2,45.2l3.2,2.5v9.7l-1,1.1l-2.2-2V45.2L199.2,45.2z M115.6,53.6h3V59
			c-0.6-0.2-1-0.3-1.3-0.4c-0.3,0-0.9-0.1-1.8-0.1c-0.6,0-1.1,0.1-1.6,0.2c-0.4,0.1-1,0.3-1.6,0.5L115.6,53.6L115.6,53.6z
			 M241.3,42.3l0.8-0.7v23.8l-0.8-0.5V42.3L241.3,42.3z M243.1,41l2.5-1.6l1.8,1.3v15.7c-0.9-0.5-1.3-0.8-1.4-0.8
			c-0.1,0-0.4-0.1-0.9-0.3c-0.7-0.2-1.4-0.3-2-0.5V41L243.1,41z M20.6,42.8c0.3,0,0.5,0,0.7-0.1v15.2c-1.1,0.5-2.2,0.8-3.4,0.8
			c-0.7,0-1.4-0.1-2.1-0.2c-0.7-0.2-1.2-0.4-1.6-0.7l4.7-4.7V42.6c0.2,0.1,0.4,0.2,0.6,0.2c0.2,0,0.4,0,0.5,0
			C20.1,42.8,20.3,42.8,20.6,42.8L20.6,42.8z M259.7,45.6L263,48v9.7l-1,1.1l-2.2-1.9V45.6L259.7,45.6z M71.1,41.7l1.5-1.2l3.2,3.2
			v15L74.6,60l-3.5-3.3V41.7L71.1,41.7z M278.6,45.6c0.4-0.1,0.7-0.2,1-0.3l-2.8,5h-2.1v-5.5c0.9,0.5,1.8,0.8,2.8,0.8
			C277.9,45.7,278.3,45.7,278.6,45.6L278.6,45.6z M275.5,53.4h3v5.4c-0.6-0.2-1-0.3-1.3-0.4c-0.3,0-0.9-0.1-1.8-0.1
			c-0.6,0-1.1,0.1-1.6,0.2c-0.4,0.1-1,0.3-1.5,0.5L275.5,53.4L275.5,53.4z M82,41.7l1.5-1.2l3.2,3.2v15L85.5,60L82,56.7V41.7
			L82,41.7z"/>
	</g>
</g>
</svg>
