<?xml version="1.0" encoding="utf-8"?>
<!-- Generator: Adobe Illustrator 18.0.0, SVG Export Plug-In . SVG Version: 6.00 Build 0)  -->
<!DOCTYPE svg PUBLIC "-//W3C//DTD SVG 1.1//EN" "http://www.w3.org/Graphics/SVG/1.1/DTD/svg11.dtd">
<svg version="1.1" xmlns="http://www.w3.org/2000/svg" xmlns:xlink="http://www.w3.org/1999/xlink" x="0px" y="0px"
	 viewBox="0 0 300 100" style="enable-background:new 0 0 300 100;" xml:space="preserve">
<style type="text/css">
	.st0{fill-rule:evenodd;clip-rule:evenodd;}
	.st1{fill-rule:evenodd;clip-rule:evenodd;fill:#C038F9;}
	.st2{fill:none;}
	.st3{fill-rule:evenodd;clip-rule:evenodd;fill:#231F20;}
</style>
<g id="Layer_2">
	<g>
		<path d="M19.6,60.4c-0.4,0.7-1,1.3-1.8,1.8c-1.2,0.8-2,1.3-3.6,1.5c-1.9,0.3-3.2,0-4.9-0.8c-1.9-0.9-3.2-2.6-3.8-3.9
			C5,57.8,4.7,56.2,4.7,55c0-2,0.3-3.3,1.3-5c1.1-2,2.3-3.3,4.1-4.2c0.9-0.4,1.5-0.6,2.4-0.7c-1.2,1-1.9,1.8-2.7,3.2
			c-0.8,1.5-1.2,2.5-1.3,4.1c-0.1,1.7,0.1,2.9,1,4.3c1,1.6,1.9,3.1,4.4,4c1.1,0.4,2,0.4,3.1,0.2V45.5c0-0.1,0-0.3-0.1-0.3
			c-0.1-0.1-1-0.1-1.5-0.1c-3.8-0.5-4.8-1.7-7.6-0.6c-1.2,0.4-1.6,1.5-2,2.6c-0.6-1.3-0.5-2.8,0-3.7c0.4-0.7,1-1.5,2-2
			c1.5-0.9,2.8-0.7,4.6-0.4c1.4,0.3,4.3,1.6,5.3,1.7c0.6,0,1.3,0,1.3-0.6c0.1-0.5-0.9-0.6-0.9-1c0.1-0.5,0.9-0.4,1.3-0.1
			c1.4,0.9,0.3,2.8,0.2,2.9c-0.3,0.3-0.5,0.6-0.9,0.8h0V60c0,0,0.1,0.1,0.1,0.1c0,0,0.4-0.3,0.7-0.5c0.3-0.3,0.5-0.4,0.7-0.7
			C20,59.5,19.9,59.8,19.6,60.4z M13.7,58.3c-0.7,0.4-2.2,0.6-2.2,0.6c-0.1-0.1,1-1,1-1.8v-6.3l-1.3,1.1c0,0-0.1,0.1-0.2,0.1
			c-0.1,0-0.2,0-0.2,0l-0.5-0.6c0,0,0-0.1,0-0.2c0-0.1,0.1-0.2,0.1-0.2l5.1-4.6c0.1-0.1,0.2-0.1,0.3-0.1c0.1,0,0.1,0.2,0.1,0.3v7.9
			C15.9,56.1,15.2,57.4,13.7,58.3z"/>
		<path d="M32.3,63.2c0,1.2-0.4,1.9-1,2.8c-0.6,0.8-0.7,0.9-1.5,1.6c-1,0.8-2,0.9-3.2,0.8c-0.6-0.1-1.1-0.2-1.7-0.4
			c1.1-0.2,1.8-0.7,2.6-1.5c0.6-0.7,0.9-2,0.9-2.3l0-11.5c0-0.1-0.1-0.1-0.1-0.1c0,0-0.1-0.1-0.1-0.2l-1.2-1.4c0,0-0.1-0.1-0.2-0.1
			c-0.1,0-0.2,0.1-0.2,0.1l-0.8,0.9c0,0,0,0.1,0,0.1c0,0.1,0,0.1,0,0.3l0,8.1c0,0.1,0.1,0.1,0.1,0.2c0,0.1,0.1,0.1,0.2,0.2l0.2,0.2
			c0,0.1,0.1,0.1,0.1,0.1c0.1,0,0.2-0.1,0.2-0.2l0.4-0.4c0.1,0,0.1-0.1,0.2-0.1c0.1,0,0.2,0.1,0.2,0.2l0.3,0.2
			c0.1,0.1,0.1,0.2,0.1,0.3c0,0.1-0.1,0.2-0.2,0.3l-2.5,2.4c-0.1,0.1-0.2,0.2-0.4,0.2c-0.1,0-0.2-0.1-0.3-0.2l-2-1.9
			c-0.1-0.1-0.2-0.1-0.3-0.1c-0.1,0-0.2,0.1-0.3,0.1l-2.2,2c-0.1,0-0.1,0.1-0.3,0.1c-0.1,0-0.2-0.1-0.2-0.1l-0.4-0.4
			c0,0,0-0.1,0-0.2c0-0.1,0-0.2,0.1-0.3l2.3-2.1c0,0,0.1-0.1,0.1-0.2c0.1-0.1,0.1-0.2,0.1-0.4l0-19.8l0.9,1.1
			c0.1,0.1,0.2,0.2,0.3,0.2c0.1,0,0.2-0.1,0.3-0.1l2.6-1.2v9.6c0,0.1,0.1,0.2,0.2,0.2c0.1,0,0.2-0.1,0.2-0.1l2.8-2.8
			c0.1-0.1,0.2-0.1,0.3-0.1c0.1,0,0.3,0.1,0.3,0.2l2.6,3c0.1,0.1,0.1,0.2,0.2,0.3c0,0.1,0.1,0.3,0.1,0.4L32.3,63.2z"/>
		<path d="M41.9,53.2c0,0.1,0,0.2-0.1,0.3L40,55.2c-0.1,0.1-0.1,0.1-0.3,0.1c-0.1,0-0.2-0.1-0.2-0.2v-4c0-0.1,0-0.2,0.1-0.2
			c0.1,0,0.2,0.1,0.2,0.1l1.9,1.9C41.8,52.9,41.9,53.1,41.9,53.2z M44.9,51.2c0-0.2-0.2-0.4-0.3-0.5l-3.4-3.4
			c-0.1-0.1-0.2-0.2-0.3-0.2c-0.1,0-0.3,0-0.4,0l-6.2,3.7c0.4,0.1,0.7,0.3,0.9,0.4c0.1,0.1,0.4,0.4,0.4,0.6l0.1,8.4
			c0,0.1-0.1,0.3-0.2,0.4c0,0.1-0.1,0.2-0.1,0.2l-2.3,2.1C33,63,33,63.1,33,63.2c0,0.1,0,0.1,0,0.2l0.4,0.4c0,0,0.1,0.1,0.2,0.1
			c0.1,0,0.2-0.1,0.3-0.1l2.2-2c0.1,0,0.2-0.1,0.3-0.1c0.1,0,0.2,0.1,0.3,0.1l2,1.9c0.1,0.1,0.2,0.2,0.3,0.2c0.1,0,0.3-0.1,0.4-0.2
			l4-4c0.1-0.1,0.2-0.2,0.2-0.3c0-0.1-0.1-0.2-0.1-0.3l-0.3-0.2c-0.1,0-0.1-0.1-0.2-0.1c-0.1,0-0.2,0.1-0.3,0.1l-2,2.1
			c0,0.1-0.1,0.2-0.2,0.2c-0.1,0-0.1-0.1-0.1-0.1l-0.2-0.2c-0.1-0.1-0.2-0.2-0.2-0.2c-0.1-0.2-0.4-0.4-0.4-0.6v-2.1
			c0-0.2-0.1-0.4,0-0.6c0-0.1,0.2-0.3,0.3-0.4l4.8-5.1C44.8,51.6,44.9,51.4,44.9,51.2z"/>
		<path d="M63.2,48.9c-0.6,0.6-1.3,0.8-2.2,0.8c-0.8,0-1.4-0.3-1.9-0.8v-4.5c0.6-0.5,1.1-0.6,2-0.6c1.1,0,2.2,0.6,2.2,1.6V48.9z
			 M51.8,52.9v-3c-0.6,0-0.9,0.2-1.4,0.4c-0.8,0.5-1.5,1.7-1.3,3c0.4-0.2,0.8-0.3,1.2-0.4C50.8,52.8,51.2,52.8,51.8,52.9z M57,45.6
			c-0.7-0.4-2.7-0.3-3.3,0.2c-0.9,0.7-1.4,1.5-1.4,2.6V56c0,0.6-0.1,1.1-0.3,1.6c-0.3,0.5-0.6,0.8-1,1c1.3,0.5,2.4,0.3,3.5-0.5
			c1-0.7,1.6-1.6,1.6-2.7v-7.7c0-0.5,0-0.8,0.2-1.2C56.5,46.1,56.7,45.8,57,45.6z M67.6,60.3V44.9c0-1.2-0.7-2.5-1.8-3.4
			c-1.6-1.5-3.5-1.5-5.6-1c-2.4,0.6-3.3,1.3-5.4,1.2c-2.3-0.1-3.7-0.3-5.8-1.3c1.4,1.8,2.6,2.7,4.7,3.5c1.4,0.5,2.3,0.7,3.8,0.7
			l0.1,13.8c-1.1-0.1-1.7,0-2.8,0.2c-1.3,0.3-2.1,0.6-3.2,1.4c-1,0.7-2.4,2.1-2.4,3.9c0,1.3,0.6,2.5,2,3.4c1.2,0.8,2.5,0.5,3.7-0.3
			c-2.2,0.4-4.2-0.8-3.9-3c0.4-2.4,3.5-2.5,5.8-2.3c3.5,0.4,5.2,3.2,5.4,3.4c0.1,0.1,0.1,0.2,0.3,0.2c0.1,0,0.3,0,0.3-0.1L67.6,60.3
			z M63.2,53.3c-0.8-0.4-1.4-0.6-2.2-0.6c-0.8,0-1.3,0.1-2,0.4v-2.9c0.7,0.3,1.2,0.4,2,0.4c0.9,0,1.5-0.1,2.2-0.5V53.3z M63.2,60.6
			c-0.8-0.6-1.3-0.9-2.1-1.3c-0.7-0.3-1.2-0.5-2-0.7v-4.1c0.6-0.5,1.1-0.7,2-0.7c0.8,0,1.5,0.2,2.2,0.8V60.6z"/>
		<path d="M75.6,51.1l0,2.3c0,0.1,0,0.2-0.1,0.3c-0.1,0.1-0.5,0.1-0.9,0c-1.5-0.1-3.1-2.7-3.1-3.3c0.8,0.4,1.5,0.6,2.2,0.6
			c0.7,0,1.6-0.2,1.7-0.3C75.6,50.7,75.6,51,75.6,51.1z M82.3,48.2c0-0.1,0-0.2-0.1-0.2l-0.5-0.4c-0.1,0-0.1-0.1-0.3-0.1
			c-0.1,0-0.1,0.1-0.2,0.1l-2,2c-0.1,0.1-0.1,0.2-0.2,0.2c-0.1,0-0.2-0.1-0.3-0.2l-2.3-2.4c-0.1-0.1-0.3-0.3-0.4-0.3
			c-0.1,0-0.2,0.1-0.3,0.3c-0.1,0-0.3,0.9-1,1.5c-0.7,0.6-1.3,0.8-2.2,0.8c0.2-0.3,0.3-0.5,0.4-0.8c0.1-0.6-0.1-1.1-0.6-1.5
			c-0.6-0.4-1.6-0.3-2.1,0.4c-0.7,0.9-0.2,2.4,0,2.9c0.5,1.3,1.5,2.7,2.2,3.2c-0.7,0.2-1.1,0.5-1.7,0.9c-1.2,0.9-1.7,2-1.9,3.5
			c-0.1,1-0.1,1.8,0.3,2.8c0.4,0.9,0.8,1.4,1.6,1.9c0.6,0.4,1.1,0.7,1.9,0.9c0.1,0,0.2-0.1,0.3-0.2l2.4-2.3c0.1-0.1,0.1-0.2,0.3-0.2
			c0.1,0,0.3,0.1,0.3,0.2l2.4,2.2c0.1,0.1,0.2,0.2,0.3,0.2c0.2,0,0.3-0.1,0.4-0.2l2.5-2.4c0.1-0.1,0.2-0.2,0.2-0.3
			c0-0.1-0.1-0.2-0.1-0.3l-0.3-0.3c-0.1,0-0.1-0.1-0.2-0.1c-0.1,0-0.2,0.1-0.3,0.1l-0.4,0.4c-0.1,0-0.1,0.1-0.2,0.1
			c-0.1,0-0.1-0.1-0.2-0.1L80,60.7c-0.1-0.1-0.2-0.2-0.2-0.3c-0.1-0.1-0.1-0.2-0.1-0.3v-8.9c0-0.1,0-0.2,0-0.3
			c0-0.1,0.1-0.1,0.1-0.2l2.3-2.3C82.1,48.4,82.3,48.3,82.3,48.2z M75.6,59.7c0,0.7-0.9,0.9-1.6,0.9c-0.9,0-1.5-0.8-1.8-1.7
			c-0.4-0.9-0.3-1.9,0.3-2.8c0.7-0.9,2-1.6,2.8-1.3c0.2,0.1,0.3,0.3,0.3,0.5V59.7z"/>
		<path d="M89.5,61.2l-2.5,2.4c-0.1,0.1-0.2,0.2-0.4,0.2c-0.1,0-0.2-0.1-0.3-0.2l-2-1.9c-0.1-0.1-0.2-0.1-0.3-0.1s-0.2,0.1-0.3,0.1
			l-2.2,2c-0.1,0-0.1,0.1-0.2,0.1c-0.1,0-0.2-0.1-0.2-0.1l-0.4-0.4c0,0-0.1-0.1-0.1-0.2c0-0.1,0.1-0.2,0.1-0.3l2.3-2.1
			c0,0,0.1-0.1,0.2-0.2c0.1-0.1,0.1-0.2,0.1-0.4V40.5l0.9,1.1c0.1,0.1,0.2,0.2,0.3,0.2c0.1,0,0.2-0.1,0.3-0.1l2.6-1.2v19.8
			c0,0.1,0.1,0.1,0.1,0.2c0.1,0.1,0.1,0.1,0.2,0.2l0.2,0.2c0,0.1,0.1,0.1,0.2,0.1c0.1,0,0.2-0.1,0.2-0.2l0.4-0.4
			c0.1,0,0.1-0.1,0.2-0.1c0.1,0,0.2,0.1,0.2,0.2l0.3,0.2c0.1,0.1,0.1,0.2,0.1,0.3C89.7,61.1,89.6,61.2,89.5,61.2z"/>
		<path d="M97.5,61.2L95,63.6c-0.1,0.1-0.2,0.2-0.4,0.2c-0.1,0-0.2-0.1-0.3-0.2l-2-1.9c-0.1-0.1-0.2-0.1-0.3-0.1
			c-0.1,0-0.2,0.1-0.3,0.1l-2.2,2c-0.1,0-0.1,0.1-0.2,0.1c-0.1,0-0.2-0.1-0.2-0.1l-0.4-0.4c0,0-0.1-0.1-0.1-0.2
			c0-0.1,0.1-0.2,0.1-0.3l2.3-2.1c0,0,0.1-0.1,0.2-0.2c0.1-0.1,0.1-0.2,0.1-0.4V40.5l0.9,1.1c0.1,0.1,0.2,0.2,0.3,0.2
			c0.1,0,0.2-0.1,0.3-0.1l2.6-1.2v19.8c0,0.1,0.1,0.1,0.1,0.2c0.1,0.1,0.1,0.1,0.2,0.2l0.2,0.2c0,0.1,0.1,0.1,0.2,0.1
			c0.1,0,0.2-0.1,0.2-0.2l0.4-0.4c0.1,0,0.1-0.1,0.2-0.1c0.1,0,0.2,0.1,0.2,0.2l0.3,0.2c0.1,0.1,0.1,0.2,0.1,0.3
			C97.7,61.1,97.6,61.2,97.5,61.2z"/>
		<path d="M104.4,51.1l0,2.3c0,0.1,0,0.2-0.1,0.3c-0.1,0.1-0.5,0.1-0.9,0c-1.5-0.1-3.1-2.7-3.1-3.3c0.8,0.4,1.5,0.6,2.2,0.6
			c0.7,0,1.6-0.2,1.7-0.3C104.4,50.7,104.4,51,104.4,51.1z M111,48.2c0-0.1,0-0.2-0.1-0.2l-0.5-0.4c-0.1,0-0.1-0.1-0.3-0.1
			c-0.1,0-0.1,0.1-0.2,0.1l-2,2c-0.1,0.1-0.1,0.2-0.2,0.2c-0.1,0-0.2-0.1-0.3-0.2l-2.3-2.4c-0.1-0.1-0.3-0.3-0.4-0.3
			c-0.1,0-0.2,0.1-0.3,0.3c-0.1,0-0.3,0.9-1,1.5c-0.7,0.6-1.3,0.8-2.2,0.8c0.2-0.3,0.3-0.5,0.4-0.8c0.1-0.6-0.1-1.1-0.6-1.5
			c-0.6-0.4-1.6-0.3-2.1,0.4c-0.7,0.9-0.2,2.4,0,2.9c0.5,1.3,1.5,2.7,2.2,3.2c-0.7,0.2-1.1,0.5-1.7,0.9c-1.2,0.9-1.7,2-1.9,3.5
			c-0.1,1-0.1,1.8,0.3,2.8c0.4,0.9,0.8,1.4,1.6,1.9c0.6,0.4,1.1,0.7,1.9,0.9c0.1,0,0.2-0.1,0.3-0.2l2.4-2.3c0.1-0.1,0.1-0.2,0.3-0.2
			c0.1,0,0.3,0.1,0.3,0.2l2.4,2.2c0.1,0.1,0.2,0.2,0.3,0.2c0.2,0,0.3-0.1,0.4-0.2l2.5-2.4c0.1-0.1,0.2-0.2,0.2-0.3
			c0-0.1-0.1-0.2-0.1-0.3l-0.3-0.3c-0.1,0-0.1-0.1-0.2-0.1c-0.1,0-0.2,0.1-0.3,0.1l-0.4,0.4c-0.1,0-0.1,0.1-0.2,0.1
			c-0.1,0-0.1-0.1-0.2-0.1l-0.1-0.2c-0.1-0.1-0.2-0.2-0.2-0.3c-0.1-0.1-0.1-0.2-0.1-0.3v-8.9c0-0.1,0-0.2,0-0.3
			c0-0.1,0.1-0.1,0.1-0.2l2.3-2.3C110.9,48.4,111,48.3,111,48.2z M104.4,59.7c0,0.7-0.9,0.9-1.6,0.9c-0.9,0-1.5-0.8-1.8-1.7
			c-0.4-0.9-0.3-1.9,0.3-2.8c0.7-0.9,2-1.6,2.8-1.3c0.2,0.1,0.3,0.3,0.3,0.5V59.7z"/>
		<path d="M119.3,50.8l-2.3,3.1l-0.9,0.1c-0.1,0-0.2-0.1-0.3-0.2c-0.1-0.1-0.1-0.2-0.1-0.2v-3.4c0.4,0.3,0.9,0.6,1.6,0.8
			C118.1,51.1,118.6,51,119.3,50.8z M122.9,45.3c-0.1-0.2-0.4-1.2-1.1-1.5c-0.1,0-1.1-0.3-1.4,0c-0.2,0.3,0,0.4,0.3,0.6
			c0.7,0.6,1.4,1.1,1.3,2.1c0,0.9-0.4,1.6-1.2,1.8c-0.9,0.3-1.6-0.5-2-0.8l-0.2-0.2c-0.1-0.1-0.1-0.1-0.2-0.1
			c-0.1,0-0.2,0.1-0.3,0.1l-6,3.2c-0.1,0.1-0.1,0.1-0.2,0.2c0,0.1,0,0.2,0,0.3v4.2c0,0.1,0.1,0.3,0.1,0.3c0,0,0.1,0.1,0.2,0.1h3.5
			L112,61c-0.8,0.6-1.6,2.2-1.6,3.2c-0.1,1.2,0,2.2,0.9,2.9c0.6,0.4,1.8,0.4,1.8,0c0-0.3-0.3-0.3-0.5-0.4c-0.7-0.7-1.3-1.3-1.3-2.3
			c0-1.6,1.7-2.5,3.3-2.6c1.6-0.1,2.9,1.1,3.6,1.9c0.1,0.1,0.1,0.4,0.3,0.4c0.1,0,0.2-0.1,0.3-0.2l3.2-3.1c0.1-0.1,0.1-0.2,0.1-0.3
			c0.1-0.1,0.1-0.2,0.1-0.4v-5.7c0-0.1-0.1-0.3-0.1-0.3c-0.1-0.1-0.2-0.1-0.3-0.1h-3.6l3.8-5.2C123.1,47.9,123,45.6,122.9,45.3z
			 M118.1,60c0,0.1,0,0.2-0.1,0.2c-0.1,0-0.1-0.1-0.2-0.1c-0.6-0.3-0.9-0.4-1.6-0.4c-0.8-0.1-1.4,0.1-2.2,0.4l2.9-4.3h1.2V60z"/>
		<path d="M147.1,53.4c-0.3-0.1-0.4-0.1-0.7-0.1c-0.2,0-0.4,0.1-0.6,0.1v-3.2c0.2,0.1,0.3,0.1,0.5,0.1c0.3,0,0.5-0.1,0.8-0.3V53.4z
			 M140.7,40.4c-1.3,0.5-2.2,0.8-3.6,0.9c-1.4,0.2-2.3-0.4-3.7-0.1c-1.1,0.3-2,0.6-2.7,1.6c-0.8,1.1-1,2.3-0.6,3.7
			c0.7-1,1.4-1.5,2.5-2c1.2-0.5,2.5,0,3.5-0.1c0.4-0.1,0.7-0.3,0.9-0.6L140.7,40.4z M132.7,53.7v-3c-0.6,0-0.9,0.1-1.5,0.4
			c-0.8,0.5-1.5,1.7-1.3,2.9c0.4-0.2,0.8-0.3,1.2-0.4C131.7,53.7,132.1,53.7,132.7,53.7z M154.1,41.3c0-0.1-0.1-0.2-0.1-0.2
			l-0.4-0.4c0,0-0.1-0.1-0.2-0.1c-0.1,0-0.1,0.1-0.2,0.1l-2,1.9c-0.1,0-0.2,0.1-0.3,0.1c-0.1,0-0.2-0.1-0.2-0.1l-2-1.9
			c0,0-0.1-0.1-0.2-0.1c-0.1,0-0.2,0.1-0.3,0.1l-3,3c-0.1,0.1-0.1,0.3-0.2,0.3c-0.1,0-0.2-0.1-0.2-0.2l-3.1-3
			c-0.1-0.1-0.2-0.1-0.3-0.1c-0.1,0-0.2,0.1-0.3,0.2l-7.3,7c-0.3,0.3-0.4,0.5-0.5,0.9c-0.2,0.4-0.3,0.8-0.3,1.3v8
			c0,0.4-0.1,0.7-0.3,1.1c-0.2,0.4-0.4,0.8-0.8,1.1c1.4,0.1,2.4-0.4,3.3-1.4c0.5-0.6,0.9-1.1,0.9-1.8v-9.6c0-0.3,0.2-0.5,0.3-0.8
			c0.1-0.2,0.2-0.4,0.3-0.5l1.3-1.3c0.1-0.1,0.3-0.3,0.5-0.3c0.4,0,0.9,0.3,0.9,0.7v4.2c-0.1,0.3-0.4,0.5-0.6,0.5
			c-0.3,0-0.5-0.2-0.6-0.4V46H137v11.9c0,0.5-0.3,0.9-0.5,1.3c-0.8,1.3-2.3,1.5-3.4,1.9c-1.1,0.5-2.2,1.6-2.7,2.4
			c-0.5,0.8-1,2.4-0.4,3.6c0.7,1.5,2.3,2.1,4,1.8c1.3-0.3,1.6-1.1,1.9-2.1c-0.3,0.6-1.5,0.9-1.8,0.8c-0.8-0.1-1.3-0.7-1.3-1.4
			c0.1-1.7,2-2.1,3.2-3.2c1.3-1.1,2.2-2,2.2-3.7v-4.5c0.2-0.2,0.4-0.3,0.7-0.3c0.3,0,0.4,0.1,0.6,0.3v5.5c0,0.1,0,0.3-0.1,0.4
			c0,0.1-0.1,0.2-0.2,0.2l-2.3,2.1c-0.1,0.1-0.1,0.2-0.1,0.3c0,0.1,0,0.1,0,0.2l0.4,0.4c0,0,0.1,0.1,0.2,0.1c0.1,0,0.2-0.1,0.2-0.1
			l2.2-2c0.1,0,0.2-0.1,0.3-0.1c0.1,0,0.3,0.1,0.3,0.1l2,1.9c0,0.1,0.2,0.2,0.3,0.2c0.2,0,0.3-0.1,0.4-0.2l2.5-2.4
			c0.1,0,0.2-0.1,0.2-0.3c0-0.1-0.1-0.2-0.1-0.3l-0.3-0.2c-0.1-0.1-0.1-0.2-0.2-0.2c-0.1,0-0.2,0.1-0.2,0.1l-0.3,0.3
			c0,0.1-0.1,0.2-0.2,0.2c-0.1,0-0.1-0.1-0.2-0.1l-0.1-0.2c-0.1-0.1-0.1-0.1-0.1-0.2c-0.1-0.1-0.2-0.1-0.2-0.2V46.2c0-1,0.6-2,1.6-2
			c0.9,0,1.8,0.6,1.8,1.5v3.4c-0.2,0.2-0.4,0.3-0.7,0.3c-0.2,0-0.4-0.1-0.6-0.2v-3.7h-1.2v14.4h1.2v-5.4c0.1-0.2,0.4-0.3,0.7-0.3
			c0.3,0,0.5,0.1,0.6,0.4v5.8c0,0.3,0.1,0.4,0.2,0.6c0.1,0.1,0.2,0.3,0.3,0.3l2.5,2.4c0,0.1,0.2,0.2,0.3,0.2c0.2,0,0.3-0.1,0.4-0.2
			l2.5-2.4c0.1-0.1,0.1-0.1,0.1-0.2c0-0.1,0-0.2-0.1-0.2l-0.3-0.3c-0.1,0-0.1-0.1-0.2-0.1c-0.1,0-0.1,0.1-0.2,0.1l-0.4,0.3
			c-0.1,0-0.2,0.1-0.3,0.1c-0.1,0-0.1-0.1-0.1-0.1c-0.1-0.1-0.2-0.2-0.3-0.3c-0.1-0.1-0.1-0.1-0.1-0.2v-16c0-0.1,0-0.3,0-0.3
			c0.1-0.1,0.1-0.2,0.2-0.2l2.3-2.2C154,41.4,154.1,41.3,154.1,41.3z M139.4,53.8c-0.3-0.1-0.4-0.1-0.7-0.1c-0.2,0-0.4,0.1-0.6,0.2
			v-3.2c0.2,0.1,0.3,0.1,0.5,0.1c0.3,0,0.5-0.1,0.8-0.3V53.8z"/>
		<path d="M161.2,60.1c0,0.2,0.1,0.4-0.1,0.4c-0.1,0.1-0.3-0.2-0.4-0.3l-1.6-1.7c0-0.1-0.1-0.1-0.1-0.2c0-0.1-0.1-0.3-0.1-0.4v-7.1
			c0-0.2,0-0.6,0.2-0.6c0.1,0,0.1,0,0.2,0.1l1.5,1.5c0.1,0.1,0.2,0.2,0.2,0.3c0.1,0.1,0.1,0.3,0.1,0.4V60.1z M165.1,60.1v-8.9
			c0-0.2,0-0.3,0-0.4c0-0.1-0.1-0.3-0.2-0.3l-3.2-3.2c-0.1-0.1-0.2-0.2-0.3-0.2c-0.1,0-0.2,0.1-0.3,0.1l-5.6,3.1
			c-0.1,0.1-0.1,0-0.3,0.3c-0.2,0.2-0.1,0.2-0.1,0.4l0,9.4c0,0.1-0.1,0.3-0.2,0.4c0,0.1-0.1,0.2-0.1,0.2l-2.3,2.1
			c-0.1,0.1-0.1,0.2-0.1,0.3c0,0.1,0,0.1,0,0.2l0.4,0.4c0,0,0.1,0.1,0.2,0.1c0.1,0,0.2-0.1,0.3-0.1l2.2-2c0.1,0,0.2-0.1,0.3-0.1
			c0.1,0,0.2,0.1,0.3,0.1l2,1.9c0.1,0.1,0.2,0.2,0.3,0.2c0.1,0,0.3-0.1,0.4-0.2l6.2-3.1c0.1-0.1,0.1-0.2,0.2-0.3
			C165.1,60.3,165.1,60.2,165.1,60.1z"/>
		<path d="M175.9,51.8c-0.1-0.6-0.8-1.2-1.3-1.3c-0.8-0.1-1.1,0.5-1.9,0.5c-0.3,0-0.5,0-0.8,0l0,9.3c0,0.1,0.1,0.1,0.1,0.2
			c0,0.1,0.1,0.2,0.2,0.2l0.3,0.3c0,0.1,0.1,0.1,0.1,0.1c0.1,0,0.2-0.1,0.2-0.2l0.8-0.7c0.1,0,0.1-0.1,0.3-0.1
			c0.1,0,0.1,0.1,0.2,0.1l0.3,0.2c0.1,0.1,0.1,0.2,0.1,0.3c0,0.1-0.1,0.2-0.2,0.3l-2.8,2.7c-0.1,0.1-0.2,0.2-0.4,0.2
			c-0.1,0-0.2-0.1-0.3-0.2l-2-1.9c-0.1-0.1-0.2-0.1-0.3-0.1c-0.1,0-0.2,0.1-0.3,0.1l-2.2,2c-0.1,0-0.1,0.1-0.3,0.1
			c-0.1,0-0.2-0.1-0.2-0.1l-0.4-0.4c0,0,0-0.1,0-0.2c0-0.1,0-0.2,0.1-0.3l2.3-2.1c0,0,0.1-0.1,0.1-0.2c0.1-0.1,0.2-0.2,0.2-0.4
			l0-8.7c0-0.1,0-0.2,0-0.3c0-0.1,0-0.2-0.1-0.2l-0.6-0.6c0,0-0.1-0.1-0.1-0.1c-0.1,0-0.1,0-0.1,0l-0.5,0.4l-0.1,0
			c-0.1,0-0.1,0-0.1,0l-0.4-0.5c0,0-0.1-0.1-0.1-0.1c0-0.1,0.1-0.1,0.1-0.1l2.7-2.7c0.1-0.1,0.1-0.1,0.3-0.1c0.1,0,0.2,0.1,0.2,0.1
			l2.3,2.2c0.1,0,0.1,0.1,0.2,0.1c0.1,0,0.2-0.1,0.3-0.1l2.3-2.2c0.1-0.1,0.1-0.2,0.3-0.2c0.1,0,0.2,0.1,0.3,0.1
			c0.2,0.1,0.5,0.4,0.8,0.9c0.4,0.6,0.7,1,0.8,1.7C176.5,51,176.3,51.1,175.9,51.8z"/>
		<path d="M191.6,61l-2.6,2.7c-0.1,0.1-0.2,0.2-0.3,0.2c-0.1,0-0.3-0.1-0.4-0.2l-2.9-2.9c0,0-0.1-0.1-0.1-0.2c0-0.1-0.1-0.1-0.1-0.2
			v-8.7c0-0.1,0-0.1-0.1-0.3c0,0-0.1-0.1-0.1-0.1l-0.8-0.8c-0.1-0.1-0.1-0.1-0.3-0.1c-0.1,0-0.1,0-0.2,0c-0.1,0-0.4,0.3-0.4,0.3
			c0,0.1-0.3,0.2-0.3,0.3v9.2c0,0.1,0.1,0.1,0.1,0.2c0,0.1,0.1,0.2,0.2,0.2l0.2,0.2c0,0.1,0.1,0.1,0.2,0.1c0.1,0,0.1-0.1,0.2-0.2
			l0.3-0.3c0.1-0.1,0.2-0.1,0.3-0.1c0.1,0,0.1,0.1,0.2,0.1l0.4,0.3c0,0,0.1,0.1,0.1,0.2c0,0.1-0.1,0.2-0.1,0.2l-2.4,2.4
			c-0.1,0.1-0.2,0.2-0.4,0.2c-0.1,0-0.2-0.1-0.3-0.2l-2-1.9c-0.1-0.1-0.2-0.1-0.3-0.1c-0.1,0-0.2,0.1-0.3,0.1l-2.2,2
			c-0.1,0-0.1,0.1-0.3,0.1c-0.1,0-0.2-0.1-0.2-0.1l-0.4-0.4c0,0,0-0.1,0-0.2c0-0.1,0-0.2,0.1-0.3l2.3-2.1c0,0,0.1-0.1,0.1-0.2
			c0.1-0.1,0.2-0.2,0.2-0.4v-8.8c0-0.1,0-0.2,0-0.3c0-0.1-0.1-0.2-0.1-0.2l-0.6-0.6c0,0-0.1-0.1-0.1-0.1c-0.1,0-0.1,0-0.1,0
			l-0.5,0.4l-0.1,0c-0.1,0-0.1,0-0.1,0l-0.4-0.5c0,0-0.1-0.1-0.1-0.1c0-0.1,0.1-0.1,0.1-0.1l2.7-2.7c0.1-0.1,0.1-0.1,0.3-0.1
			c0.1,0,0.2,0.1,0.2,0.1l2.3,2.2c0.1,0,0.1,0.1,0.2,0.1c0.1,0,0.2-0.1,0.3-0.1l2.4-2.3c0.1,0,0.1-0.1,0.2-0.1
			c0.1,0,0.2,0.1,0.2,0.1l2.3,2.2c0.1,0.1,0.1,0.1,0.2,0.1c0.1,0,0.2,0,0.3-0.1l2.1-2.1c0,0,0.1-0.1,0.2-0.1c0.1,0,0.2,0,0.2,0.1
			l0.4,0.4c0,0,0.1,0.1,0.1,0.2c0,0.1-0.1,0.2-0.1,0.2l-2.3,2.3c0,0.1-0.1,0.1-0.2,0.2c0,0.1,0,0.3,0,0.3v9.3c0,0.1,0.1,0.1,0.1,0.2
			c0,0.1,0.1,0.2,0.2,0.2l0.3,0.3c0.1,0.1,0.1,0.1,0.2,0.1c0.1,0,0.2-0.1,0.2-0.2l0.8-0.7c0.1,0,0.1-0.1,0.2-0.1
			c0.1,0,0.2,0.1,0.2,0.1l0.2,0.2c0.1,0.1,0.1,0.2,0.1,0.3C191.8,60.8,191.6,60.9,191.6,61z"/>
		<path d="M197,44.4l-2,1.9c-0.1,0-0.1,0-0.2,0c-0.1,0-0.1,0-0.2,0l-1.6-1.8c-0.1-0.1-0.2-0.2-0.2-0.3c0-0.1,0.1-0.3,0.1-0.3
			l1.6-1.6c0.1-0.1,0.2-0.1,0.3-0.1c0.1,0,0.2,0,0.2,0.1l1.7,1.6c0.1,0.1,0.2,0.2,0.2,0.3C197.1,44.2,197.1,44.3,197,44.4z
			 M199.7,61l-2.8,2.7c-0.1,0.1-0.2,0.2-0.4,0.2c-0.1,0-0.2-0.1-0.3-0.2l-2-1.9c-0.1-0.1-0.2-0.1-0.3-0.1c-0.1,0-0.2,0.1-0.3,0.1
			l-2.2,2c-0.1,0-0.1,0.1-0.3,0.1c-0.1,0-0.2-0.1-0.2-0.1l-0.4-0.4c0,0,0-0.1,0-0.2c0-0.1,0-0.2,0.1-0.3l2.3-2.1
			c0,0,0.1-0.1,0.1-0.2c0.1-0.1,0.1-0.2,0.1-0.4v-8.2c0-0.1,0-0.1,0-0.3c0-0.1,0-0.1-0.1-0.2l-0.6-0.8c0,0-0.1-0.1-0.1-0.1
			c-0.1,0-0.1,0-0.1,0l-0.3,0.3l-0.1,0c-0.1,0-0.1,0-0.1,0l-0.4-0.5c0,0,0-0.1,0-0.2c0,0,0-0.1,0.1-0.1l3.2-3.1
			c0.1-0.1,0.2-0.1,0.3-0.1c0.1,0,0.2,0.1,0.2,0.1l2.1,2.5c0,0,0.1,0.1,0.1,0.3c0.1,0.2,0,0.2,0,0.3v9.9c0,0.1,0.1,0.2,0.2,0.2
			c0,0.1,0.1,0.2,0.2,0.2l0.3,0.3c0,0.1,0.1,0.1,0.1,0.1c0.1,0,0.2-0.1,0.2-0.2l0.8-0.7c0.1,0,0.1-0.1,0.3-0.1
			c0.1,0,0.1,0.1,0.2,0.1l0.3,0.2c0.1,0.1,0.1,0.2,0.1,0.3C199.8,60.8,199.7,60.9,199.7,61z"/>
		<path d="M213.8,61l-2.6,2.7c-0.1,0.1-0.2,0.2-0.3,0.2c-0.1,0-0.3-0.1-0.4-0.2l-2.9-2.9c0,0-0.1-0.1-0.1-0.2c0-0.1-0.1-0.1-0.1-0.2
			v-8.7c0-0.1,0-0.1-0.1-0.3c0,0-0.1-0.1-0.1-0.1l-0.8-0.8c-0.1-0.1-0.1-0.1-0.3-0.1c-0.1,0-0.1,0-0.2,0c-0.1,0-0.4,0.3-0.4,0.3
			c0,0.1-0.3,0.2-0.3,0.3v9.2c0,0.1,0.1,0.1,0.1,0.2c0,0.1,0.1,0.2,0.2,0.2l0.2,0.2c0,0.1,0.1,0.1,0.2,0.1c0.1,0,0.1-0.1,0.2-0.2
			l0.3-0.3c0.1-0.1,0.2-0.1,0.3-0.1c0.1,0,0.1,0.1,0.2,0.1l0.4,0.3c0,0,0.1,0.1,0.1,0.2c0,0.1-0.1,0.2-0.1,0.2l-2.4,2.4
			c-0.1,0.1-0.2,0.2-0.4,0.2c-0.1,0-0.2-0.1-0.3-0.2l-2-1.9c-0.1-0.1-0.2-0.1-0.3-0.1c-0.1,0-0.2,0.1-0.3,0.1l-2.2,2
			c-0.1,0-0.1,0.1-0.3,0.1c-0.1,0-0.2-0.1-0.2-0.1l-0.4-0.4c0,0,0-0.1,0-0.2c0-0.1,0-0.2,0.1-0.3l2.3-2.1c0,0,0.1-0.1,0.1-0.2
			c0.1-0.1,0.2-0.2,0.2-0.4v-8.8c0-0.1,0-0.2,0-0.3c0-0.1-0.1-0.2-0.1-0.2l-0.6-0.6c0,0-0.1-0.1-0.1-0.1s-0.1,0-0.1,0l-0.5,0.4
			l-0.1,0c-0.1,0-0.1,0-0.1,0l-0.4-0.5c0,0-0.1-0.1-0.1-0.1c0-0.1,0.1-0.1,0.1-0.1l2.7-2.7c0.1-0.1,0.1-0.1,0.3-0.1
			c0.1,0,0.2,0.1,0.2,0.1l2.3,2.2c0.1,0,0.1,0.1,0.2,0.1c0.1,0,0.2-0.1,0.3-0.1l2.4-2.3c0.1,0,0.1-0.1,0.3-0.1
			c0.1,0,0.2,0.1,0.2,0.1l2.3,2.2c0.1,0.1,0.1,0.1,0.2,0.1c0.1,0,0.2,0,0.3-0.1l2.1-2.1c0,0,0.1-0.1,0.2-0.1c0.1,0,0.2,0,0.2,0.1
			l0.4,0.4c0,0,0.1,0.1,0.1,0.2c0,0.1-0.1,0.2-0.1,0.2l-2.3,2.3c0,0.1-0.1,0.1-0.2,0.2c0,0.1,0,0.3,0,0.3v9.3c0,0.1,0.1,0.1,0.1,0.2
			c0,0.1,0.1,0.2,0.2,0.2l0.3,0.3c0.1,0.1,0.1,0.1,0.2,0.1c0.1,0,0.2-0.1,0.2-0.2l0.8-0.7c0.1,0,0.1-0.1,0.2-0.1
			c0.1,0,0.2,0.1,0.2,0.1l0.3,0.2c0.1,0.1,0.1,0.2,0.1,0.3C214,60.8,213.8,60.9,213.8,61z"/>
		<path d="M227.8,48.4l-2.1,2.2c0,0.1-0.1,0.2-0.1,0.2c0,0.1,0,0.2,0,0.3v8.6c0,0.1,0.1,0.2,0.1,0.3c0.4,1.3,1.7,1.4,1.8,2.9
			c0.1,0.9-0.3,1.5-0.9,2.1l-3.5,3.4c-0.1,0-0.1,0.1-0.3,0.1c-0.1,0-0.2-0.1-0.3-0.2L222,68c-1-0.7-1.5-1.2-3-1.3
			c-1.1-0.1-3.1,0.3-4.4,1.5c1.1-2.4,3-3.7,5.7-3.9c1.8-0.1,3,0.3,4.5,1.4c0-0.4,0.3-0.7-0.3-1.4c-0.7-0.7-1.2-0.8-1.8-1.6
			c-0.6-1-0.9-1.6-0.9-2.8v-6.6c0-0.1,0-0.2-0.1-0.3c0-0.1-0.1-0.2-0.2-0.3l-2.2-1.8v9.2c0,0.1,0.1,0.1,0.1,0.2
			c0,0.1,0.1,0.2,0.1,0.2l0.5,0.5c0,0,0.1,0.1,0.1,0.1c0.1,0,0.2-0.1,0.2-0.2l0.4-0.4c0.1,0,0.1-0.1,0.2-0.1c0.1,0,0.2,0.1,0.2,0.1
			l0.3,0.3c0.1,0,0.1,0.1,0.1,0.3c0,0.1-0.1,0.2-0.2,0.3l-2.5,2.3c-0.1,0.1-0.2,0.2-0.4,0.2c-0.1,0-0.2-0.1-0.3-0.2l-2-1.9
			c-0.1-0.1-0.2-0.1-0.3-0.1c-0.1,0-0.2,0.1-0.3,0.1l-2.2,2c-0.1,0-0.1,0.1-0.3,0.1c-0.1,0-0.2-0.1-0.2-0.1l-0.4-0.4
			c0,0,0-0.1,0-0.2c0-0.1,0-0.2,0.1-0.3l2.3-2.1c0,0,0.1-0.1,0.1-0.2c0.1-0.1,0.2-0.2,0.2-0.4l0-9c0-0.2,0-0.4,0.1-0.5
			c0.1-0.1,0.2-0.3,0.3-0.4l4.7-3.1c0.1-0.1,0.3-0.1,0.4-0.1c0.2,0,0.3,0.1,0.4,0.2l3.1,2.1c0.1,0,0.2,0.2,0.3,0.2
			c0.1,0,0.3-0.1,0.4-0.2l1.8-1.8c0.1,0,0.2-0.2,0.3-0.2c0.1,0,0.2-0.1,0.3,0l0.5,0.4c0.1,0.1,0,0.2,0,0.2
			C228,48.3,227.9,48.3,227.8,48.4z"/>
		<path d="M247.6,51.1c-0.1,0.2-0.4,0.3-0.6,0.4c-0.4,0-0.7-0.1-0.9-0.4l-1.6-2.4c0.6,0.2,1,0.3,1.7,0.2c0.6-0.1,1-0.2,1.5-0.5V51.1
			z M237.4,54.5v-3c-0.6,0-1,0.2-1.4,0.4c-0.8,0.5-1.5,1.7-1.3,2.9c0.4-0.2,0.8-0.3,1.3-0.4C236.5,54.4,236.8,54.4,237.4,54.5z
			 M253.5,41.5c-1.2,0.8-2.2,1-3.8,0.8c-1.2-0.1-2.3-1.3-2.9-1.5c-0.1-0.1-0.3-0.1-0.5-0.1c-0.3,0-0.4,0.2-0.6,0.3l-3.4,3.2
			c0,0-0.1,0.1-0.1,0.2c0,0.1,0,0.2,0.1,0.2l0.4,0.4c0,0.1,0.1,0.1,0.2,0.1c0.1,0,0.1,0,0.1,0l1.1-0.9c0.1-0.1,0.1-0.1,0.2-0.1
			c0.1,0,0.2,0.2,0.3,0.3c0.4,0.3,0.7,0.7,1.1,0.9c0.7,0.3,1.1,0.5,1.9,0.6v1.7c-0.6,0.4-1,0.5-1.6,0.6c-0.8,0.1-1.5,0-2.2-0.4
			l-2.9-4.5c-1-1.5-2.2-2.7-4.1-2.5c-1.3,0.1-2.3,0.5-2.8,1.6c-0.4,0.7-0.5,2.1,0.1,3.1c0-1,1-2,1.8-2c1.7,0,2.1,2.6,2.1,2.6l0,13.2
			c-0.8,0.1-1.3,0.2-2.1,0.6c-0.9,0.5-1.5,1.1-2,2c-0.6,1.3-0.5,3.2,0.1,4.2c1.5,2.7,4.4,2.3,5.2,2.1c0.6-0.2,0.7-0.4,0.9-0.7
			c-1.1,0.8-3.2-0.3-3.5-0.7c-1.1-1.6-0.1-3.3,1.4-3.5c1.1-0.2,2,0.2,3,1c0,0,0.1,0.1,0.1,0.1c0,0,0.1,0,0.1-0.1l3.2-3.3
			c0-0.1,0.1-0.1,0.1-0.2c0,0-0.1-0.1-0.1-0.1l-0.4-0.4c-0.1,0-0.1-0.1-0.2-0.1c-0.1,0-0.1,0.1-0.2,0.1l-0.8,0.6
			c-0.1,0-0.1,0.2-0.3,0.2c-0.1,0-0.2-0.1-0.2-0.2c-0.5-0.3-0.7-0.6-1.1-0.9c-0.6-0.4-1-0.5-1.7-0.7v-2.3c0.7-0.4,1.2-0.6,2-0.7
			c0.9-0.1,1.6,0,2.5,0.4l5.1,8.1V45.7c1.1,0,1.8-0.4,2.7-1.1C253,43.8,253.4,42.8,253.5,41.5z M241,51.8c-0.1,0.2-0.3,0.3-0.6,0.3
			c-0.3,0.1-0.6,0-0.9-0.2v-2.4L241,51.8z M247.6,53.6l-0.8-1.2c0.1,0,0.3,0,0.4,0c0.1,0,0.3-0.1,0.4-0.1V53.6z M243.3,55.4
			c-0.8-0.2-1.3-0.3-2.1-0.1c-0.7,0.1-1.1,0.3-1.7,0.6v-3.2c0.4,0.2,0.7,0.3,1.1,0.2c0.3-0.1,0.6-0.2,0.9-0.4L243.3,55.4z"/>
		<path d="M258.8,53.2c0,0.1,0,0.2-0.1,0.3l-1.8,1.7c-0.1,0.1-0.1,0.1-0.2,0.1c-0.1,0-0.2-0.1-0.2-0.2v-4c0-0.1,0-0.2,0.1-0.2
			c0.1,0,0.2,0.1,0.2,0.1l1.9,1.9C258.7,52.9,258.8,53.1,258.8,53.2z M261.9,51.2c0-0.2-0.2-0.4-0.3-0.5l-3.4-3.4
			c-0.1-0.1-0.2-0.2-0.3-0.2c-0.1,0-0.3,0-0.4,0l-6.2,3.7c0.4,0.1,0.7,0.3,0.9,0.4c0.1,0.1,0.4,0.4,0.4,0.6l0.1,8.4
			c0,0.1-0.1,0.3-0.2,0.4c0,0.1-0.1,0.2-0.1,0.2l-2.3,2.1c-0.1,0.1-0.1,0.2-0.1,0.3c0,0.1,0,0.1,0,0.2l0.4,0.4c0,0,0.1,0.1,0.2,0.1
			c0.1,0,0.2-0.1,0.3-0.1l2.2-2c0.1,0,0.2-0.1,0.3-0.1c0.1,0,0.2,0.1,0.3,0.1l2,1.9c0.1,0.1,0.2,0.2,0.3,0.2c0.1,0,0.3-0.1,0.4-0.2
			l4-4c0.1-0.1,0.2-0.2,0.2-0.3c0-0.1-0.1-0.2-0.1-0.3l-0.3-0.2c-0.1,0-0.1-0.1-0.2-0.1c-0.1,0-0.2,0.1-0.3,0.1l-2,2.1
			c0,0.1-0.1,0.2-0.2,0.2c-0.1,0-0.1-0.1-0.1-0.1l-0.2-0.2c-0.1-0.1-0.2-0.2-0.2-0.2c-0.1-0.2-0.4-0.4-0.4-0.6v-2.1
			c0-0.2-0.1-0.4,0-0.6c0-0.1,0.2-0.3,0.3-0.4l4.8-5.1C261.7,51.6,261.9,51.4,261.9,51.2z"/>
		<path d="M282.1,48.1l-2.2,2.5c0,0.1-0.1,0.1-0.2,0.2c-0.2,0.3-0.5,0.5-0.5,0.6l0,9.3l-6,3.1c-0.1,0.1-0.3,0.1-0.4,0.1
			c-0.1,0-0.3-0.1-0.4-0.2l-2.7-2.6c-0.1,0-0.2-0.1-0.3-0.1c-0.1,0-0.2,0.1-0.3,0.1l-2.5,2.4c-0.1,0.1-0.2,0.3-0.3,0.3
			c-0.1,0-0.2-0.1-0.3-0.1l-1.9-2c0-0.1-0.2-0.1-0.3-0.1c-0.1,0-0.2,0.1-0.3,0.1l-2.2,2c-0.1,0-0.1,0.1-0.2,0.1
			c-0.1,0-0.2-0.1-0.2-0.1l-0.4-0.4c0,0,0-0.1,0-0.2c0-0.1,0-0.2,0.1-0.3l2.3-2.1c0.1-0.1,0.2-0.1,0.2-0.2c0-0.1,0.1-0.2,0.1-0.3
			V47.7c0-0.4-0.1-0.7-0.3-1c-0.5-0.7-1.5-1.1-1.5-2.1c0-0.8,0.3-1.3,0.8-1.9c0.3-0.4,0.4-0.6,0.4-0.8c0.1-0.3,0.1-0.8,0.2-0.8
			c0.1,0,0.4,0.3,0.4,0.6c0.1,0.2,0.2,1.5,0.2,1.8c0.1,0.3,0.2,1.1,1.5,2c0.9,0.6,2.3,0.7,2.3,1.9v12.9c0,0.1,0.1,0.3,0.2,0.3
			c0.1,0.1,0.2,0.2,0.3,0.2l1.1-0.9c0.1,0,0.2-0.1,0.2-0.2c0-0.1,0.1-0.2,0.1-0.3v-7.7c0-0.1,0-0.1,0-0.2c0-0.1,0-0.2-0.1-0.2
			l-0.8-0.8c0-0.1-0.1-0.1-0.1-0.1c0,0-0.1,0-0.1,0l-0.1,0.1c0,0-0.1,0.1-0.1,0.1c0,0-0.1,0-0.1,0l-0.3-0.4c-0.1,0-0.1-0.1-0.1-0.1
			c0-0.1,0.1-0.1,0.1-0.1l2.4-2.4c0-0.1,0.1-0.1,0.3-0.1c0.1,0,0.2,0.1,0.2,0.1l2.7,2.6c0,0,0.1,0.1,0.1,0.1c0,0.1,0.1,0.1,0.1,0.2
			v9.5c0,0.1,0,0.1,0.1,0.1c0,0.1,0.1,0.1,0.1,0.2l1.6,1.3c0.1,0,0.1,0,0.2,0c0.1,0,0.1-0.2,0.1-0.3l0-9.5c0-0.1,0-0.1,0-0.2
			c0-0.1-0.1-0.2-0.1-0.2l-0.8-0.8c0-0.1-0.1-0.1-0.1-0.1c0,0-0.1,0-0.1,0l-0.1,0.1l-0.1,0.1c-0.1,0-0.1,0-0.1,0l-0.4-0.4
			c0,0,0-0.1,0-0.1c0-0.1,0.1-0.1,0.1-0.1l2.3-2.4c0-0.1,0.2-0.1,0.3-0.1c0.1,0,0.2,0.1,0.3,0.2l2.3,2.2c0.1,0.1,0.1,0.1,0.3,0.1
			c0.1,0,0.2,0,0.3-0.1l2.2-2.3c0,0,0.1-0.1,0.2-0.1c0.1,0,0.2,0.1,0.2,0.1l0.4,0.4c0.1,0,0.1,0.1,0.1,0.2
			C282.2,48,282.2,48.1,282.1,48.1z"/>
		<path d="M288.7,50.8l-2.3,3.1l-0.9,0.1c-0.1,0-0.2-0.1-0.3-0.2c-0.1-0.1-0.1-0.2-0.1-0.2v-3.4c0.4,0.3,0.9,0.6,1.6,0.8
			C287.5,51.1,288,51,288.7,50.8z M292.3,45.3c-0.1-0.2-0.4-1.2-1.1-1.5c-0.1,0-1.1-0.3-1.4,0c-0.2,0.3,0,0.4,0.3,0.6
			c0.7,0.6,1.4,1.1,1.3,2.1c0,0.9-0.4,1.6-1.2,1.8c-1,0.3-1.6-0.5-2-0.8l-0.2-0.2c-0.1-0.1-0.1-0.1-0.2-0.1c-0.1,0-0.2,0.1-0.3,0.1
			l-6,3.2c-0.1,0.1-0.1,0.1-0.2,0.2c0,0.1,0,0.2,0,0.3v4.2c0,0.1,0.1,0.3,0.1,0.3c0,0,0.1,0.1,0.2,0.1h3.5l-3.7,5.3
			c-0.8,0.6-1.6,2.2-1.6,3.2c-0.1,1.2,0,2.2,0.9,2.9c0.6,0.4,1.8,0.4,1.8,0c0-0.3-0.3-0.3-0.5-0.4c-0.7-0.7-1.3-1.3-1.3-2.3
			c0-1.6,1.7-2.5,3.3-2.6c1.6-0.1,2.9,1.1,3.6,1.9c0.1,0.1,0.1,0.4,0.3,0.4c0.1,0,0.2-0.1,0.3-0.2l3.2-3.1c0.1-0.1,0.1-0.2,0.1-0.3
			c0.1-0.1,0.1-0.2,0.1-0.4v-5.7c0-0.1-0.1-0.3-0.1-0.3c-0.1-0.1-0.2-0.1-0.3-0.1h-3.6l3.8-5.2C292.5,47.9,292.4,45.6,292.3,45.3z
			 M287.5,60c0,0.1,0,0.2-0.1,0.2c-0.1,0-0.1-0.1-0.2-0.1c-0.6-0.3-0.9-0.4-1.6-0.4c-0.8-0.1-1.4,0.1-2.2,0.4l2.9-4.3h1.2V60z"/>
	</g>
</g>
<g id="Layer_1">
</g>
</svg>
