<?xml version="1.0" encoding="utf-8"?>
<!-- Generator: Adobe Illustrator 18.0.0, SVG Export Plug-In . SVG Version: 6.00 Build 0)  -->
<!DOCTYPE svg PUBLIC "-//W3C//DTD SVG 1.1//EN" "http://www.w3.org/Graphics/SVG/1.1/DTD/svg11.dtd">
<svg version="1.1" xmlns="http://www.w3.org/2000/svg" xmlns:xlink="http://www.w3.org/1999/xlink" x="0px" y="0px"
	 viewBox="0 0 300 100" style="enable-background:new 0 0 300 100;" xml:space="preserve">
<style type="text/css">
	.st0{fill-rule:evenodd;clip-rule:evenodd;}
	.st1{fill-rule:evenodd;clip-rule:evenodd;fill:#C038F9;}
	.st2{fill:none;}
	.st3{fill-rule:evenodd;clip-rule:evenodd;fill:#231F20;}
</style>
<g id="Layer_2">
</g>
<g id="Layer_1">
	<g>
		<g>
			<path d="M52.1,52.5c-1.1-1.5-2.9-2.3-4.7-2.3c-3.3,0-5.5,2.5-5.5,5.7c0,3.2,2.2,5.6,5.5,5.6c1.7,0,3.5-0.8,4.6-2.2v6.4
				c-1.8,0.5-3,1-4.7,1c-2.9,0-5.6-1.1-7.7-3c-2.3-2-3.3-4.7-3.3-7.8c0-2.8,1.1-5.5,3-7.5c2-2.1,4.9-3.3,7.8-3.3
				c1.7,0,3.3,0.4,4.9,1V52.5z"/>
			<path d="M60.3,62.6l-1.4,3.6h-5.7l7.9-20.5H67l7.7,20.5H69l-1.3-3.6H60.3z M64.1,52L64.1,52l-2.3,6.5h4.4L64.1,52z"/>
			<path d="M81.4,61.6h6.4v4.5H76.1V45.6h5.3V61.6z"/>
			<path d="M94.6,66.1h-5.3V45.6h5.3V66.1z"/>
			<path d="M103.2,50.1v3.4h5.8v4.5h-5.8v8.1h-5.3V45.6h11.8v4.5H103.2z"/>
			<path d="M133.4,55.5c0,6.6-4.8,11.3-11.3,11.3c-6.6,0-11.3-4.7-11.3-11.3c0-6.2,5.4-10.6,11.3-10.6
				C128,44.9,133.4,49.3,133.4,55.5z M116.3,55.5c0,3.5,2.6,6.1,5.8,6.1c3.2,0,5.8-2.6,5.8-6.1c0-2.8-2.6-5.4-5.8-5.4
				C118.9,50.1,116.3,52.7,116.3,55.5z"/>
			<path d="M152.7,66.1H146l-5-7.9h-0.1v7.9h-5.3V45.6h8c4.1,0,7.1,1.9,7.1,6.3c0,2.8-1.6,5.3-4.5,5.8L152.7,66.1z M140.9,54.8h0.5
				c1.7,0,3.7-0.3,3.7-2.6c0-2.2-2-2.6-3.7-2.6h-0.5V54.8z"/>
			<path d="M153.3,45.6h5.3l9.8,12.5h0.1V45.6h5.3v20.5h-5.3l-9.8-12.6h-0.1v12.6h-5.3V45.6z"/>
			<path d="M182.3,66.1H177V45.6h5.3V66.1z"/>
			<path d="M190.8,62.6l-1.4,3.6h-5.7l7.9-20.5h5.8l7.7,20.5h-5.7l-1.3-3.6H190.8z M194.5,52L194.5,52l-2.3,6.5h4.4L194.5,52z"/>
			<path d="M215.1,58.9L215.1,58.9l4.4-13.2h4.2l4,13.2h0.1l3.9-13.2h5.5l-6.6,20.5h-5.4l-3.6-11.9h-0.1l-4,11.9h-5.4L206,45.6h5.5
				L215.1,58.9z"/>
			<path d="M240.2,62.6l-1.4,3.6h-5.7l7.9-20.5h5.8l7.7,20.5h-5.7l-1.3-3.6H240.2z M244,52L244,52l-2.3,6.5h4.4L244,52z"/>
			<path d="M261.7,66.1h-5.3v-16H252v-4.5h14.1v4.5h-4.4V66.1z"/>
			<path d="M280.2,52.5c-1.1-1.5-2.9-2.3-4.7-2.3c-3.3,0-5.5,2.5-5.5,5.7c0,3.2,2.2,5.6,5.5,5.6c1.7,0,3.5-0.8,4.6-2.2v6.4
				c-1.8,0.5-3,1-4.7,1c-2.9,0-5.6-1.1-7.7-3c-2.3-2-3.3-4.7-3.3-7.8c0-2.8,1.1-5.5,3-7.5c2-2.1,4.9-3.3,7.8-3.3
				c1.7,0,3.3,0.4,4.9,1V52.5z"/>
			<path d="M294.7,53.5v-7.9h5.3v20.5h-5.3v-8.4H287v8.4h-5.3V45.6h5.3v7.9H294.7z"/>
		</g>
		<path d="M17.3,37.3c0.3,2.2,0.7,4.5,2.3,6.6c1.7-1.6,3.5-3.1,5.4-4.7c-0.4,2.2-0.7,4.1-1.2,6.4c2-0.4,3.5-0.7,5.5-1
			c-1,1.9-1.9,3.3-2.8,4.8c2,1.7,4.4,1.3,7,1.6c-1.5,0.7-2.3,1.2-3.3,1.6c-0.9,0.4-1.6,1.2-2.9,2c1.9,1.3,3.5,2.3,5.2,3.5
			c-1.9,0.1-3.8,0.4-6.1,0.6c1,2.5,1.9,4.4,2.9,6.4c-1.9-0.7-3.8-1.5-6.1-2.3c0.1,2.6,0.3,4.7,0.4,7c-1.5-1.6-2.8-3.2-4.1-4.7
			c-0.1,0-0.4,0.1-0.6,0.1c-0.7,1.9-1.3,3.9-2,6.1c-0.7-2.2-1.5-4.1-2.2-6.1c-2.3,1-3.1,3.2-4.7,4.7c0.1-2.3,0.1-4.5,0.3-6.7
			c-2.6,0-4.2,1.5-6.4,2.5c1.2-2.3,2.2-4.4,3.3-6.6c-2.2-1.3-4.2-0.4-6.6-1c1.9-1.2,3.6-2.3,5.4-3.5c-1.6-2-3.9-2.5-6.3-3.8
			c2.8-0.6,5.2,0,7.6-1.7c-1.2-1.7-2.3-3.5-3.6-5.4c2,0.6,3.8,1.2,5.7,1.7c0.9-2.3-0.4-4.2-0.6-6.6c1.9,1.6,3.6,3.2,5.8,5
			c0.9-2.6,1.6-4.8,2.3-6.8C17,37.3,17.2,37.3,17.3,37.3z M16.6,62.8c5,0,8.6-3.5,8.6-8.3s-3.6-8.6-8.4-8.6c-4.7,0-8.3,3.6-8.4,8.3
			C8.3,59.2,11.8,62.8,16.6,62.8z"/>
		<path d="M19.8,55.7c1.6,0,2.9,0,4.4,0c0.1,3.3-3.1,6.4-6.8,6.6c-4.2,0.3-8.2-3.2-8.4-7.3c-0.3-4.2,2.9-8,7.3-8.4
			c4.1-0.3,7.9,2.6,8.2,6.6c-1.5,0-2.9,0-4.5,0c-0.3-0.3-0.7-0.7-1.3-1.2c-1.3-0.9-2.8-0.7-3.8,0.4c-0.9,1-1,2.6-0.3,3.6
			c0.7,1.2,2.5,1.6,3.8,0.9C18.8,56.5,19.2,56.1,19.8,55.7z"/>
	</g>
</g>
</svg>
