<?xml version="1.0" encoding="utf-8"?>
<!-- Generator: Adobe Illustrator 18.0.0, SVG Export Plug-In . SVG Version: 6.00 Build 0)  -->
<!DOCTYPE svg PUBLIC "-//W3C//DTD SVG 1.1//EN" "http://www.w3.org/Graphics/SVG/1.1/DTD/svg11.dtd">
<svg version="1.1" xmlns="http://www.w3.org/2000/svg" xmlns:xlink="http://www.w3.org/1999/xlink" x="0px" y="0px"
	 viewBox="0 0 300 100" style="enable-background:new 0 0 300 100;" xml:space="preserve">
<style type="text/css">
	.st0{fill-rule:evenodd;clip-rule:evenodd;}
	.st1{fill-rule:evenodd;clip-rule:evenodd;fill:#C038F9;}
	.st2{fill:none;}
	.st3{fill-rule:evenodd;clip-rule:evenodd;fill:#231F20;}
</style>
<g id="Layer_2">
	<g>
		<g>
			<path d="M60.1,67V15.8h22.8L93,47.7l10.2-31.9h22.8V67H109V51.4l0.2-8l1-9.2H110L99.5,67H86.4L76,34.2h-0.2l0.8,7.5l0.4,8V67
				H60.1z"/>
			<path d="M131.3,67V15.8H159c16.5,0,24.5,6.8,24.5,17.3c0,11-7.4,18-23.9,18h-9.5V67H131.3z M158,39.1c4.4,0,7.6-1.6,7.6-6
				c0-4.8-6.1-5.4-10.1-5.4h-5.4v11.4H158z"/>
			<path d="M186.2,67V15.8h27.5c12.9,0,23.3,2.7,23.3,12.9c0,5.3-3.8,9.1-7.5,11.2c6.2,1.4,9.6,6.2,9.6,11.7
				C239,63,229.2,67,214.2,67H186.2z M205.1,27.8v8.5h7.8c3.8,0,6.5-1.5,6.5-4.5c0-4-3.7-4.1-7.7-4.1H205.1z M205.1,45.6v9.5h8.2
				c4.6,0,8.2-0.9,8.2-4.7c0-4.5-4.4-4.8-10.4-4.8H205.1z"/>
		</g>
		<g>
			<path d="M44.3,74.9h2.2l3.2,9.5l3.2-9.5h2.2v11.2h-1.5v-6.6c0-0.2,0-0.6,0-1.1c0-0.5,0-1.1,0-1.7l-3.2,9.5h-1.5l-3.2-9.5V77
				c0,0.3,0,0.7,0,1.3c0,0.6,0,1,0,1.2v6.6h-1.5V74.9z"/>
			<path d="M57.2,74.9h1.4v1.6h-1.4V74.9z M57.2,77.9h1.4v8.2h-1.4V77.9z"/>
			<path d="M61.5,83.5c0,0.5,0.2,0.8,0.4,1.1c0.4,0.4,1,0.7,1.8,0.7c0.5,0,1-0.1,1.4-0.3c0.4-0.2,0.6-0.6,0.6-1
				c0-0.4-0.2-0.6-0.5-0.8C65,83,64.6,82.8,64,82.7l-1.1-0.3c-0.7-0.2-1.2-0.4-1.6-0.6c-0.6-0.4-0.9-0.9-0.9-1.5
				c0-0.8,0.3-1.4,0.8-1.9c0.6-0.5,1.3-0.7,2.3-0.7c1.3,0,2.2,0.4,2.7,1.1c0.3,0.5,0.5,1,0.5,1.5h-1.3c0-0.3-0.1-0.6-0.3-0.8
				c-0.3-0.4-0.9-0.5-1.7-0.5c-0.5,0-0.9,0.1-1.2,0.3c-0.3,0.2-0.4,0.5-0.4,0.8c0,0.4,0.2,0.6,0.5,0.9c0.2,0.1,0.5,0.2,0.9,0.3
				l0.9,0.2c1,0.2,1.7,0.5,2,0.7c0.5,0.4,0.8,0.9,0.8,1.7c0,0.7-0.3,1.4-0.8,1.9c-0.6,0.5-1.4,0.8-2.6,0.8c-1.2,0-2.1-0.3-2.6-0.8
				c-0.5-0.6-0.8-1.2-0.8-2.1H61.5z"/>
			<path d="M69.3,83.5c0,0.5,0.2,0.8,0.4,1.1c0.4,0.4,1,0.7,1.8,0.7c0.5,0,1-0.1,1.4-0.3c0.4-0.2,0.6-0.6,0.6-1
				c0-0.4-0.2-0.6-0.5-0.8c-0.2-0.1-0.6-0.2-1.2-0.4l-1.1-0.3c-0.7-0.2-1.2-0.4-1.6-0.6c-0.6-0.4-0.9-0.9-0.9-1.5
				c0-0.8,0.3-1.4,0.8-1.9c0.6-0.5,1.3-0.7,2.3-0.7c1.3,0,2.2,0.4,2.7,1.1c0.3,0.5,0.5,1,0.5,1.5h-1.3c0-0.3-0.1-0.6-0.3-0.8
				c-0.3-0.4-0.9-0.5-1.7-0.5c-0.5,0-0.9,0.1-1.2,0.3c-0.3,0.2-0.4,0.5-0.4,0.8c0,0.4,0.2,0.6,0.5,0.9c0.2,0.1,0.5,0.2,0.9,0.3
				l0.9,0.2c1,0.2,1.7,0.5,2,0.7c0.5,0.4,0.8,0.9,0.8,1.7c0,0.7-0.3,1.4-0.8,1.9c-0.6,0.5-1.4,0.8-2.6,0.8c-1.2,0-2.1-0.3-2.6-0.8
				c-0.5-0.6-0.8-1.2-0.8-2.1H69.3z"/>
			<path d="M76.4,74.9h1.4v1.6h-1.4V74.9z M76.4,77.9h1.4v8.2h-1.4V77.9z"/>
			<path d="M80.7,83.5c0,0.5,0.2,0.8,0.4,1.1c0.4,0.4,1,0.7,1.8,0.7c0.5,0,1-0.1,1.4-0.3c0.4-0.2,0.6-0.6,0.6-1
				c0-0.4-0.2-0.6-0.5-0.8c-0.2-0.1-0.6-0.2-1.2-0.4L82,82.4c-0.7-0.2-1.2-0.4-1.6-0.6c-0.6-0.4-0.9-0.9-0.9-1.5
				c0-0.8,0.3-1.4,0.8-1.9c0.6-0.5,1.3-0.7,2.3-0.7c1.3,0,2.2,0.4,2.7,1.1c0.3,0.5,0.5,1,0.5,1.5h-1.3c0-0.3-0.1-0.6-0.3-0.8
				c-0.3-0.4-0.9-0.5-1.7-0.5c-0.5,0-0.9,0.1-1.2,0.3C81.1,79.4,81,79.6,81,80c0,0.4,0.2,0.6,0.5,0.9c0.2,0.1,0.5,0.2,0.9,0.3
				l0.9,0.2c1,0.2,1.7,0.5,2,0.7c0.5,0.4,0.8,0.9,0.8,1.7c0,0.7-0.3,1.4-0.8,1.9c-0.6,0.5-1.4,0.8-2.6,0.8c-1.2,0-2.1-0.3-2.6-0.8
				c-0.5-0.6-0.8-1.2-0.8-2.1H80.7z"/>
			<path d="M88.5,83.5c0,0.5,0.2,0.8,0.4,1.1c0.4,0.4,1,0.7,1.8,0.7c0.5,0,1-0.1,1.4-0.3c0.4-0.2,0.6-0.6,0.6-1
				c0-0.4-0.2-0.6-0.5-0.8C92,83,91.6,82.8,91,82.7l-1.1-0.3c-0.7-0.2-1.2-0.4-1.6-0.6c-0.6-0.4-0.9-0.9-0.9-1.5
				c0-0.8,0.3-1.4,0.8-1.9c0.6-0.5,1.3-0.7,2.3-0.7c1.3,0,2.2,0.4,2.7,1.1c0.3,0.5,0.5,1,0.5,1.5h-1.3c0-0.3-0.1-0.6-0.3-0.8
				c-0.3-0.4-0.9-0.5-1.7-0.5c-0.5,0-0.9,0.1-1.2,0.3c-0.3,0.2-0.4,0.5-0.4,0.8c0,0.4,0.2,0.6,0.5,0.9c0.2,0.1,0.5,0.2,0.9,0.3
				l0.9,0.2c1,0.2,1.7,0.5,2,0.7c0.5,0.4,0.8,0.9,0.8,1.7c0,0.7-0.3,1.4-0.8,1.9c-0.6,0.5-1.4,0.8-2.6,0.8c-1.2,0-2.1-0.3-2.6-0.8
				c-0.5-0.6-0.8-1.2-0.8-2.1H88.5z"/>
			<path d="M95.5,74.9h1.4v1.6h-1.4V74.9z M95.5,77.9h1.4v8.2h-1.4V77.9z"/>
			<path d="M98.9,77.9h1.3V79c0.3-0.4,0.6-0.7,0.9-0.9c0.5-0.3,1-0.5,1.6-0.5c0.9,0,1.7,0.4,2.4,1.1c0.7,0.7,1,1.7,1,3.1
				c0,1.8-0.5,3.1-1.4,3.8c-0.6,0.5-1.3,0.7-2.1,0.7c-0.6,0-1.1-0.1-1.6-0.4c-0.2-0.2-0.5-0.4-0.8-0.8v4.2h-1.4V77.9z M104.1,84.4
				c0.4-0.5,0.6-1.3,0.6-2.4c0-0.7-0.1-1.2-0.3-1.7c-0.4-0.9-1-1.4-2-1.4c-1,0-1.6,0.5-2,1.4c-0.2,0.5-0.3,1.2-0.3,1.9
				c0,0.6,0.1,1.2,0.3,1.6c0.4,0.8,1,1.3,2,1.3C103.1,85.2,103.7,84.9,104.1,84.4z"/>
			<path d="M107.6,77.9h1.3V79c0.3-0.4,0.6-0.7,0.9-0.9c0.5-0.3,1-0.5,1.6-0.5c0.9,0,1.7,0.4,2.4,1.1c0.7,0.7,1,1.7,1,3.1
				c0,1.8-0.5,3.1-1.4,3.8c-0.6,0.5-1.3,0.7-2.1,0.7c-0.6,0-1.1-0.1-1.6-0.4c-0.2-0.2-0.5-0.4-0.8-0.8v4.2h-1.4V77.9z M112.8,84.4
				c0.4-0.5,0.6-1.3,0.6-2.4c0-0.7-0.1-1.2-0.3-1.7c-0.4-0.9-1-1.4-2-1.4c-1,0-1.6,0.5-2,1.4c-0.2,0.5-0.3,1.2-0.3,1.9
				c0,0.6,0.1,1.2,0.3,1.6c0.4,0.8,1,1.3,2,1.3C111.8,85.2,112.4,84.9,112.8,84.4z"/>
			<path d="M116.5,74.9h1.4v1.6h-1.4V74.9z M116.5,77.9h1.4v8.2h-1.4V77.9z"/>
			<path d="M124.6,74.9h5c1,0,1.8,0.3,2.4,0.8c0.6,0.6,0.9,1.4,0.9,2.4c0,0.9-0.3,1.6-0.8,2.3c-0.5,0.7-1.4,1-2.5,1h-3.5v4.8h-1.5
				V74.9z M130.5,76.4c-0.3-0.2-0.8-0.2-1.4-0.2h-3v3.9h3c0.7,0,1.2-0.1,1.7-0.4c0.4-0.3,0.6-0.8,0.6-1.5
				C131.4,77.3,131.1,76.7,130.5,76.4z"/>
			<path d="M136.1,77.9v5.4c0,0.4,0.1,0.8,0.2,1c0.2,0.5,0.7,0.7,1.3,0.7c0.9,0,1.6-0.4,1.9-1.3c0.2-0.5,0.3-1.1,0.3-1.9v-4h1.4v8.2
				h-1.3l0-1.2c-0.2,0.3-0.4,0.6-0.7,0.8c-0.5,0.4-1.1,0.6-1.9,0.6c-1.1,0-1.9-0.4-2.3-1.2c-0.2-0.4-0.3-1-0.3-1.7v-5.6H136.1z"/>
			<path d="M143.4,74.8h1.3v4.1c0.3-0.4,0.7-0.7,1.1-0.9c0.4-0.2,0.9-0.3,1.4-0.3c1,0,1.9,0.4,2.5,1.1c0.6,0.7,1,1.7,1,3.1
				c0,1.3-0.3,2.4-0.9,3.2s-1.5,1.3-2.6,1.3c-0.6,0-1.2-0.2-1.6-0.5c-0.3-0.2-0.5-0.5-0.8-0.9v1h-1.3V74.8z M148.6,84.3
				c0.4-0.6,0.6-1.4,0.6-2.3c0-0.9-0.2-1.6-0.6-2.1c-0.4-0.6-0.9-0.9-1.6-0.9c-0.6,0-1.2,0.2-1.7,0.7c-0.5,0.5-0.7,1.2-0.7,2.3
				c0,0.8,0.1,1.4,0.3,1.9c0.4,0.9,1,1.4,2,1.4C147.7,85.1,148.3,84.9,148.6,84.3z"/>
			<path d="M152.2,74.9h1.4v11.2h-1.4V74.9z"/>
			<path d="M155.7,74.9h1.4v1.6h-1.4V74.9z M155.7,77.9h1.4v8.2h-1.4V77.9z"/>
			<path d="M164.6,78.3c0.6,0.4,0.9,1.2,1,2.3h-1.3c-0.1-0.5-0.3-0.9-0.6-1.3c-0.3-0.3-0.8-0.5-1.4-0.5c-0.9,0-1.5,0.4-1.9,1.3
				c-0.2,0.6-0.4,1.2-0.4,2.1c0,0.8,0.2,1.5,0.5,2.1c0.3,0.6,0.9,0.8,1.6,0.8c0.6,0,1-0.2,1.4-0.5c0.3-0.3,0.6-0.8,0.7-1.4h1.3
				c-0.2,1.1-0.5,1.9-1.1,2.4c-0.6,0.5-1.4,0.8-2.4,0.8c-1.1,0-1.9-0.4-2.6-1.2c-0.6-0.8-1-1.8-1-2.9c0-1.4,0.3-2.6,1-3.4
				c0.7-0.8,1.6-1.2,2.7-1.2C163.2,77.7,164,77.9,164.6,78.3z"/>
			<path d="M171.5,74.9h4.9c1.3,0,2.3,0.4,2.8,1.2c0.3,0.5,0.5,1,0.5,1.6c0,0.7-0.2,1.3-0.6,1.7c-0.2,0.2-0.5,0.5-0.9,0.7
				c0.6,0.2,1,0.5,1.3,0.7c0.5,0.5,0.8,1.2,0.8,2c0,0.7-0.2,1.4-0.7,2c-0.7,0.9-1.8,1.3-3.3,1.3h-4.8V74.9z M175.8,79.6
				c0.6,0,1.2-0.1,1.5-0.3c0.6-0.3,0.9-0.8,0.9-1.5c0-0.7-0.3-1.2-0.9-1.5c-0.3-0.1-0.8-0.2-1.5-0.2H173v3.5H175.8z M176.3,84.8
				c0.9,0,1.6-0.3,2-0.8c0.3-0.3,0.4-0.8,0.4-1.2c0-0.8-0.4-1.4-1.1-1.7c-0.4-0.2-0.9-0.2-1.6-0.2H173v4H176.3z"/>
			<path d="M181.9,77.9h1.3v1.4c0.1-0.3,0.4-0.6,0.8-1c0.4-0.4,0.9-0.6,1.4-0.6c0,0,0.1,0,0.1,0s0.2,0,0.3,0v1.5c-0.1,0-0.2,0-0.2,0
				c-0.1,0-0.1,0-0.2,0c-0.7,0-1.2,0.2-1.6,0.7c-0.4,0.4-0.6,1-0.6,1.5v4.7h-1.4V77.9z"/>
			<path d="M193,78.7c0.7,0.7,1.1,1.7,1.1,3.1c0,1.3-0.3,2.4-1,3.3c-0.6,0.9-1.6,1.3-3,1.3c-1.1,0-2-0.4-2.7-1.1
				c-0.7-0.8-1-1.8-1-3.1c0-1.4,0.3-2.5,1-3.3c0.7-0.8,1.6-1.2,2.8-1.2C191.4,77.7,192.3,78,193,78.7z M192.1,84.2
				c0.3-0.7,0.5-1.5,0.5-2.3c0-0.8-0.1-1.4-0.4-1.9c-0.4-0.8-1-1.1-2-1.1c-0.8,0-1.4,0.3-1.8,1c-0.4,0.6-0.6,1.4-0.6,2.3
				c0,0.9,0.2,1.6,0.6,2.2c0.4,0.6,1,0.9,1.8,0.9C191.2,85.2,191.8,84.9,192.1,84.2z"/>
			<path d="M200.2,81.1c0.3,0,0.5-0.2,0.6-0.4c0.1-0.1,0.1-0.3,0.1-0.5c0-0.5-0.2-0.8-0.5-1s-0.8-0.3-1.4-0.3
				c-0.7,0-1.2,0.2-1.5,0.6c-0.2,0.2-0.3,0.5-0.3,1h-1.3c0-1,0.4-1.7,1-2.1c0.6-0.4,1.4-0.6,2.2-0.6c1,0,1.7,0.2,2.3,0.6
				c0.6,0.4,0.9,0.9,0.9,1.7v4.7c0,0.1,0,0.3,0.1,0.3c0.1,0.1,0.2,0.1,0.4,0.1c0.1,0,0.1,0,0.2,0c0.1,0,0.2,0,0.2,0v1
				c-0.2,0.1-0.4,0.1-0.5,0.1c-0.1,0-0.3,0-0.5,0c-0.5,0-0.8-0.2-1-0.5c-0.1-0.2-0.2-0.4-0.2-0.8c-0.3,0.4-0.7,0.7-1.2,1
				c-0.5,0.3-1.1,0.4-1.7,0.4c-0.8,0-1.4-0.2-1.9-0.7c-0.5-0.5-0.7-1-0.7-1.7c0-0.8,0.2-1.3,0.7-1.8c0.5-0.4,1.1-0.7,1.9-0.8
				L200.2,81.1z M197.3,84.9c0.3,0.2,0.6,0.3,1,0.3c0.5,0,1-0.1,1.4-0.3c0.8-0.4,1.1-1,1.1-1.8v-1.1c-0.2,0.1-0.4,0.2-0.6,0.3
				c-0.3,0.1-0.5,0.1-0.8,0.2l-0.8,0.1c-0.5,0.1-0.9,0.2-1.1,0.3c-0.4,0.2-0.6,0.6-0.6,1.1C196.8,84.3,197,84.6,197.3,84.9z"/>
			<path d="M209,78.2c0.2,0.2,0.5,0.4,0.8,0.8v-4.1h1.3v11.3h-1.2V85c-0.3,0.5-0.7,0.9-1.1,1.1c-0.4,0.2-0.9,0.3-1.5,0.3
				c-0.9,0-1.7-0.4-2.4-1.2c-0.7-0.8-1-1.8-1-3.1c0-1.2,0.3-2.2,0.9-3.1c0.6-0.9,1.5-1.3,2.6-1.3C208,77.8,208.6,77.9,209,78.2z
				 M205.9,84.3c0.4,0.6,1,0.9,1.8,0.9c0.6,0,1.2-0.3,1.6-0.8c0.4-0.5,0.6-1.3,0.6-2.4c0-1-0.2-1.8-0.6-2.3
				c-0.4-0.5-0.9-0.7-1.6-0.7c-0.7,0-1.3,0.3-1.7,0.8c-0.4,0.5-0.6,1.3-0.6,2.3C205.4,83,205.5,83.7,205.9,84.3z"/>
			<path d="M218.6,78.3c0.6,0.4,0.9,1.2,1,2.3h-1.3c-0.1-0.5-0.3-0.9-0.6-1.3c-0.3-0.3-0.8-0.5-1.4-0.5c-0.9,0-1.5,0.4-1.9,1.3
				c-0.2,0.6-0.4,1.2-0.4,2.1c0,0.8,0.2,1.5,0.5,2.1c0.3,0.6,0.9,0.8,1.6,0.8c0.6,0,1-0.2,1.4-0.5c0.3-0.3,0.6-0.8,0.7-1.4h1.3
				c-0.2,1.1-0.5,1.9-1.1,2.4c-0.6,0.5-1.4,0.8-2.4,0.8c-1.1,0-1.9-0.4-2.6-1.2c-0.6-0.8-1-1.8-1-2.9c0-1.4,0.3-2.6,1-3.4
				c0.7-0.8,1.6-1.2,2.7-1.2C217.3,77.7,218,77.9,218.6,78.3z"/>
			<path d="M225.4,81.1c0.3,0,0.5-0.2,0.6-0.4c0.1-0.1,0.1-0.3,0.1-0.5c0-0.5-0.2-0.8-0.5-1c-0.3-0.2-0.8-0.3-1.4-0.3
				c-0.7,0-1.2,0.2-1.5,0.6c-0.2,0.2-0.3,0.5-0.3,1h-1.3c0-1,0.4-1.7,1-2.1c0.6-0.4,1.4-0.6,2.2-0.6c1,0,1.7,0.2,2.3,0.6
				c0.6,0.4,0.9,0.9,0.9,1.7v4.7c0,0.1,0,0.3,0.1,0.3c0.1,0.1,0.2,0.1,0.4,0.1c0.1,0,0.1,0,0.2,0c0.1,0,0.2,0,0.2,0v1
				c-0.2,0.1-0.4,0.1-0.5,0.1c-0.1,0-0.3,0-0.5,0c-0.5,0-0.8-0.2-1-0.5c-0.1-0.2-0.2-0.4-0.2-0.8c-0.3,0.4-0.7,0.7-1.2,1
				c-0.5,0.3-1.1,0.4-1.7,0.4c-0.8,0-1.4-0.2-1.9-0.7c-0.5-0.5-0.7-1-0.7-1.7c0-0.8,0.2-1.3,0.7-1.8c0.5-0.4,1.1-0.7,1.9-0.8
				L225.4,81.1z M222.5,84.9c0.3,0.2,0.6,0.3,1,0.3c0.5,0,1-0.1,1.4-0.3c0.8-0.4,1.1-1,1.1-1.8v-1.1c-0.2,0.1-0.4,0.2-0.6,0.3
				c-0.3,0.1-0.5,0.1-0.8,0.2l-0.8,0.1c-0.5,0.1-0.9,0.2-1.1,0.3c-0.4,0.2-0.6,0.6-0.6,1.1C222.1,84.3,222.2,84.6,222.5,84.9z"/>
			<path d="M230.6,83.5c0,0.5,0.2,0.8,0.4,1.1c0.4,0.4,1,0.7,1.8,0.7c0.5,0,1-0.1,1.4-0.3c0.4-0.2,0.6-0.6,0.6-1
				c0-0.4-0.2-0.6-0.5-0.8c-0.2-0.1-0.6-0.2-1.2-0.4l-1.1-0.3c-0.7-0.2-1.2-0.4-1.6-0.6c-0.6-0.4-0.9-0.9-0.9-1.5
				c0-0.8,0.3-1.4,0.8-1.9c0.6-0.5,1.3-0.7,2.3-0.7c1.3,0,2.2,0.4,2.7,1.1c0.3,0.5,0.5,1,0.5,1.5h-1.3c0-0.3-0.1-0.6-0.3-0.8
				c-0.3-0.4-0.9-0.5-1.7-0.5c-0.5,0-0.9,0.1-1.2,0.3c-0.3,0.2-0.4,0.5-0.4,0.8c0,0.4,0.2,0.6,0.5,0.9c0.2,0.1,0.5,0.2,0.9,0.3
				l0.9,0.2c1,0.2,1.7,0.5,2,0.7c0.5,0.4,0.8,0.9,0.8,1.7c0,0.7-0.3,1.4-0.8,1.9c-0.6,0.5-1.4,0.8-2.6,0.8c-1.2,0-2.1-0.3-2.6-0.8
				c-0.5-0.6-0.8-1.2-0.8-2.1H230.6z"/>
			<path d="M237.9,75.6h1.4v2.3h1.3V79h-1.3v5.4c0,0.3,0.1,0.5,0.3,0.6c0.1,0.1,0.3,0.1,0.5,0.1c0.1,0,0.1,0,0.2,0
				c0.1,0,0.2,0,0.3,0v1.1c-0.2,0-0.3,0.1-0.5,0.1c-0.2,0-0.4,0-0.6,0c-0.6,0-1.1-0.2-1.3-0.5c-0.2-0.3-0.3-0.8-0.3-1.3V79h-1.1
				v-1.1h1.1V75.6z"/>
			<path d="M242,74.9h1.4v1.6H242V74.9z M242,77.9h1.4v8.2H242V77.9z"/>
			<path d="M245.4,77.9h1.3v1.2c0.4-0.5,0.8-0.8,1.2-1c0.4-0.2,0.9-0.3,1.4-0.3c1.2,0,1.9,0.4,2.4,1.2c0.2,0.4,0.3,1.1,0.3,1.9v5.3
				h-1.4v-5.2c0-0.5-0.1-0.9-0.2-1.2c-0.2-0.5-0.7-0.8-1.3-0.8c-0.3,0-0.6,0-0.8,0.1c-0.4,0.1-0.7,0.3-1,0.7
				c-0.2,0.3-0.4,0.6-0.4,0.8c-0.1,0.3-0.1,0.7-0.1,1.2v4.3h-1.4V77.9z"/>
			<path d="M258.7,78.2c0.3,0.2,0.5,0.4,0.8,0.8v-1h1.3v7.5c0,1-0.2,1.9-0.5,2.5c-0.6,1.1-1.6,1.7-3.2,1.7c-0.9,0-1.6-0.2-2.2-0.6
				c-0.6-0.4-0.9-1-1-1.9h1.4c0.1,0.4,0.2,0.7,0.4,0.8c0.3,0.3,0.8,0.5,1.5,0.5c1.1,0,1.7-0.4,2.1-1.1c0.2-0.4,0.3-1.2,0.3-2.4
				c-0.3,0.4-0.6,0.7-1,0.9c-0.4,0.2-0.9,0.3-1.5,0.3c-0.9,0-1.7-0.3-2.3-0.9c-0.7-0.6-1-1.7-1-3.1c0-1.4,0.3-2.4,1-3.2
				c0.7-0.8,1.5-1.2,2.4-1.2C257.7,77.8,258.2,77.9,258.7,78.2z M258.9,79.7c-0.4-0.5-0.9-0.7-1.6-0.7c-1,0-1.6,0.5-2,1.4
				c-0.2,0.5-0.3,1.1-0.3,1.9c0,0.9,0.2,1.6,0.6,2.1c0.4,0.5,0.9,0.7,1.5,0.7c1,0,1.7-0.4,2.1-1.3c0.2-0.5,0.3-1.1,0.3-1.8
				C259.5,81,259.3,80.2,258.9,79.7z"/>
		</g>
	</g>
</g>
<g id="Layer_1">
</g>
</svg>
