<?xml version="1.0" encoding="utf-8"?>
<!-- Generator: Adobe Illustrator 18.0.0, SVG Export Plug-In . SVG Version: 6.00 Build 0)  -->
<!DOCTYPE svg PUBLIC "-//W3C//DTD SVG 1.1//EN" "http://www.w3.org/Graphics/SVG/1.1/DTD/svg11.dtd">
<svg version="1.1" xmlns="http://www.w3.org/2000/svg" xmlns:xlink="http://www.w3.org/1999/xlink" x="0px" y="0px"
	 viewBox="0 0 300 100" style="enable-background:new 0 0 300 100;" xml:space="preserve">
<style type="text/css">
	.st0{fill-rule:evenodd;clip-rule:evenodd;}
	.st1{fill-rule:evenodd;clip-rule:evenodd;fill:#C038F9;}
	.st2{fill:none;}
	.st3{fill-rule:evenodd;clip-rule:evenodd;fill:#231F20;}
</style>
<g id="Layer_2">
</g>
<g id="Layer_1">
	<g>
		<g>
			<path d="M54.9,39.7h8.2c1.1,0,2.2,0.1,3.2,0.3c1,0.2,1.9,0.6,2.7,1.1c0.8,0.5,1.4,1.2,1.8,2.1c0.4,0.9,0.7,1.9,0.7,3.3
				c0,1.3-0.2,2.4-0.6,3.2c-0.4,0.9-1,1.6-1.7,2.1c-0.7,0.5-1.6,0.9-2.6,1.1c-1,0.2-2.1,0.3-3.2,0.3h-3.6v8.6h-4.9V39.7z M59.8,49
				H63c0.4,0,0.9,0,1.3-0.1c0.4-0.1,0.8-0.2,1.1-0.4c0.3-0.2,0.6-0.5,0.8-0.8c0.2-0.3,0.3-0.8,0.3-1.3c0-0.6-0.1-1-0.4-1.4
				c-0.3-0.3-0.6-0.6-1-0.8c-0.4-0.2-0.9-0.3-1.4-0.4c-0.5-0.1-1-0.1-1.4-0.1h-2.5V49z"/>
			<path d="M73,39.7h8.2c1,0,1.9,0.1,2.9,0.2c1,0.1,1.8,0.4,2.6,0.8c0.8,0.4,1.4,1,1.9,1.7c0.5,0.7,0.7,1.7,0.7,2.9
				c0,1.2-0.3,2.3-1,3.1c-0.7,0.8-1.6,1.4-2.8,1.8v0.1c0.7,0.1,1.4,0.3,2,0.6c0.6,0.3,1.1,0.7,1.5,1.2c0.4,0.5,0.8,1,1,1.6
				c0.2,0.6,0.3,1.3,0.3,2c0,1.2-0.2,2.1-0.7,2.9c-0.5,0.8-1.1,1.4-1.9,1.9c-0.8,0.5-1.7,0.8-2.7,1c-1,0.2-2,0.3-2.9,0.3h-9V39.7z
				 M77.8,48.5h3.5c0.4,0,0.7,0,1.1-0.1c0.4-0.1,0.7-0.2,1-0.4c0.3-0.2,0.5-0.4,0.7-0.7c0.2-0.3,0.3-0.7,0.3-1.1
				c0-0.5-0.1-0.8-0.3-1.1c-0.2-0.3-0.5-0.5-0.8-0.7c-0.3-0.2-0.7-0.3-1.1-0.4c-0.4-0.1-0.8-0.1-1.2-0.1h-3.3V48.5z M77.8,57.6h4.4
				c0.4,0,0.8,0,1.1-0.1c0.4-0.1,0.7-0.2,1-0.4c0.3-0.2,0.6-0.5,0.8-0.8c0.2-0.3,0.3-0.7,0.3-1.2c0-0.5-0.1-0.9-0.4-1.3
				c-0.3-0.3-0.6-0.6-1-0.7c-0.4-0.2-0.8-0.3-1.3-0.3c-0.5-0.1-0.9-0.1-1.3-0.1h-3.7V57.6z"/>
			<path d="M102.5,45.1c-0.4-0.5-0.9-0.9-1.6-1.1c-0.7-0.2-1.3-0.4-1.9-0.4c-0.4,0-0.7,0-1.1,0.1c-0.4,0.1-0.7,0.2-1.1,0.4
				c-0.3,0.2-0.6,0.4-0.8,0.7c-0.2,0.3-0.3,0.6-0.3,1.1c0,0.7,0.2,1.2,0.7,1.5c0.5,0.4,1.1,0.7,1.9,0.9c0.8,0.2,1.6,0.5,2.4,0.7
				s1.7,0.6,2.4,1.1c0.8,0.5,1.4,1.1,1.9,1.8c0.5,0.8,0.7,1.8,0.7,3.1c0,1.2-0.2,2.3-0.7,3.2c-0.5,0.9-1.1,1.7-1.9,2.3
				c-0.8,0.6-1.7,1.1-2.7,1.3c-1,0.3-2.1,0.4-3.3,0.4c-1.4,0-2.8-0.2-4-0.7c-1.2-0.4-2.4-1.1-3.4-2.1l3.5-3.8
				c0.5,0.7,1.1,1.2,1.9,1.5c0.8,0.4,1.5,0.5,2.4,0.5c0.4,0,0.8,0,1.2-0.1c0.4-0.1,0.8-0.2,1.1-0.4c0.3-0.2,0.6-0.4,0.8-0.7
				c0.2-0.3,0.3-0.6,0.3-1c0-0.7-0.3-1.2-0.8-1.6c-0.5-0.4-1.1-0.7-1.9-1c-0.8-0.3-1.6-0.5-2.5-0.8c-0.9-0.3-1.7-0.6-2.5-1.1
				c-0.8-0.5-1.4-1.1-1.9-1.8c-0.5-0.7-0.8-1.7-0.8-3c0-1.2,0.2-2.2,0.7-3.1c0.5-0.9,1.1-1.6,1.9-2.2c0.8-0.6,1.7-1.1,2.7-1.4
				c1-0.3,2.1-0.5,3.1-0.5c1.2,0,2.5,0.2,3.6,0.5c1.2,0.4,2.2,0.9,3.1,1.8L102.5,45.1z"/>
			<path d="M115,39.7h6.6L131,55h0.1V39.7h4.9v22.1h-6.4L119.9,46h-0.1v15.7H115V39.7z"/>
			<path d="M139.1,39.7h15v4.5h-10.1v4.1h9.6v4.5h-9.6v4.5h10.7v4.5h-15.6V39.7z"/>
			<path d="M155.3,39.7h5.3l3.5,14.2h0.1l4.6-14.2h4.5l4.6,14.5h0.1l3.7-14.5h4.9l-6.5,22.1h-4.3l-4.9-15.3h-0.1L166,61.7h-4.2
				L155.3,39.7z"/>
			<path d="M199.1,45.1c-0.4-0.5-0.9-0.9-1.6-1.1c-0.7-0.2-1.3-0.4-1.9-0.4c-0.4,0-0.7,0-1.1,0.1c-0.4,0.1-0.7,0.2-1.1,0.4
				c-0.3,0.2-0.6,0.4-0.8,0.7c-0.2,0.3-0.3,0.6-0.3,1.1c0,0.7,0.2,1.2,0.7,1.5c0.5,0.4,1.1,0.7,1.9,0.9c0.8,0.2,1.6,0.5,2.4,0.7
				c0.9,0.2,1.7,0.6,2.4,1.1c0.8,0.5,1.4,1.1,1.9,1.8c0.5,0.8,0.7,1.8,0.7,3.1c0,1.2-0.2,2.3-0.7,3.2c-0.5,0.9-1.1,1.7-1.9,2.3
				c-0.8,0.6-1.7,1.1-2.7,1.3c-1,0.3-2.1,0.4-3.3,0.4c-1.4,0-2.8-0.2-4-0.7c-1.2-0.4-2.4-1.1-3.4-2.1l3.5-3.8
				c0.5,0.7,1.1,1.2,1.9,1.5c0.8,0.4,1.5,0.5,2.4,0.5c0.4,0,0.8,0,1.2-0.1c0.4-0.1,0.8-0.2,1.1-0.4c0.3-0.2,0.6-0.4,0.8-0.7
				c0.2-0.3,0.3-0.6,0.3-1c0-0.7-0.3-1.2-0.8-1.6c-0.5-0.4-1.1-0.7-1.9-1c-0.8-0.3-1.6-0.5-2.5-0.8c-0.9-0.3-1.7-0.6-2.5-1.1
				c-0.8-0.5-1.4-1.1-1.9-1.8c-0.5-0.7-0.8-1.7-0.8-3c0-1.2,0.2-2.2,0.7-3.1c0.5-0.9,1.1-1.6,1.9-2.2c0.8-0.6,1.7-1.1,2.7-1.4
				c1-0.3,2.1-0.5,3.1-0.5c1.2,0,2.5,0.2,3.6,0.5c1.2,0.4,2.2,0.9,3.1,1.8L199.1,45.1z"/>
			<path d="M204.8,39.7h4.9v8.2h9.5v-8.2h4.9v22.1h-4.9v-9.5h-9.5v9.5h-4.9V39.7z"/>
			<path d="M226.1,50.7c0-1.8,0.3-3.4,0.9-4.8c0.6-1.4,1.4-2.7,2.5-3.7c1.1-1,2.3-1.8,3.8-2.3c1.5-0.5,3-0.8,4.8-0.8
				s3.3,0.3,4.8,0.8c1.5,0.5,2.7,1.3,3.8,2.3c1.1,1,1.9,2.2,2.5,3.7c0.6,1.4,0.9,3,0.9,4.8c0,1.8-0.3,3.4-0.9,4.8
				c-0.6,1.4-1.4,2.7-2.5,3.7c-1.1,1-2.3,1.8-3.8,2.3c-1.5,0.5-3,0.8-4.8,0.8s-3.3-0.3-4.8-0.8c-1.5-0.5-2.7-1.3-3.8-2.3
				c-1.1-1-1.9-2.2-2.5-3.7C226.3,54.1,226.1,52.5,226.1,50.7z M231.1,50.7c0,1,0.2,2,0.5,2.9c0.3,0.9,0.8,1.6,1.4,2.2
				c0.6,0.6,1.3,1.1,2.2,1.5c0.8,0.4,1.8,0.5,2.8,0.5s2-0.2,2.8-0.5c0.8-0.4,1.6-0.8,2.2-1.5c0.6-0.6,1.1-1.4,1.4-2.2
				c0.3-0.9,0.5-1.8,0.5-2.9c0-1-0.2-2-0.5-2.8c-0.3-0.9-0.8-1.6-1.4-2.3c-0.6-0.6-1.3-1.1-2.2-1.5c-0.8-0.4-1.8-0.5-2.8-0.5
				s-2,0.2-2.8,0.5c-0.8,0.4-1.6,0.8-2.2,1.5c-0.6,0.6-1.1,1.4-1.4,2.3C231.3,48.7,231.1,49.7,231.1,50.7z"/>
			<path d="M270.9,53.2c0,1.3-0.2,2.5-0.6,3.6c-0.4,1.1-1,2.1-1.8,2.9c-0.8,0.8-1.8,1.4-2.9,1.9c-1.2,0.5-2.5,0.7-4,0.7
				c-1.5,0-2.9-0.2-4.1-0.7c-1.2-0.5-2.1-1.1-2.9-1.9s-1.4-1.8-1.8-2.9c-0.4-1.1-0.6-2.3-0.6-3.6V39.7h4.9V53c0,0.7,0.1,1.3,0.3,1.9
				c0.2,0.6,0.5,1.1,0.9,1.5c0.4,0.4,0.9,0.8,1.4,1c0.6,0.2,1.1,0.4,1.8,0.4c0.6,0,1.2-0.1,1.8-0.4c0.5-0.2,1-0.6,1.4-1
				c0.4-0.4,0.7-0.9,0.9-1.5c0.2-0.6,0.3-1.2,0.3-1.9V39.7h4.9V53.2z"/>
			<path d="M273.8,39.7h8.5c1.1,0,2.2,0.1,3.2,0.3c1,0.2,1.9,0.6,2.7,1.1c0.8,0.5,1.4,1.2,1.8,2.1c0.4,0.9,0.7,1.9,0.7,3.2
				c0,1.6-0.4,2.9-1.2,4c-0.8,1.1-2,1.8-3.6,2.1l5.6,9.3h-5.8l-4.6-8.8h-2.4v8.8h-4.9V39.7z M278.7,48.8h2.9c0.4,0,0.9,0,1.4,0
				c0.5,0,0.9-0.1,1.3-0.3c0.4-0.2,0.7-0.4,1-0.7c0.3-0.3,0.4-0.8,0.4-1.4c0-0.6-0.1-1-0.3-1.3c-0.2-0.3-0.5-0.6-0.9-0.8
				c-0.4-0.2-0.8-0.3-1.2-0.4c-0.5-0.1-0.9-0.1-1.3-0.1h-3.2V48.8z"/>
		</g>
		<g>
			<path d="M5.9,51.5c0-11.5,9.3-20.8,20.8-20.8c11.5,0,20.8,9.3,20.8,20.8c0,11.5-9.3,20.8-20.8,20.8C15.3,72.4,5.9,63.1,5.9,51.5z
				 M38.7,51.7H41l-5.1-11.5h-3.3l5.1,11.5h-2.3v3.1c0,1.9-0.8,2.7-3.3,2.6v5.9h3.3v-5.9h1.1c1,0,2.3-0.8,2.3-2.3V51.7z M22.8,40.1
				c-5.1,0-9.3,3.5-9.3,8.8c0,4.4,2.7,7.6,6.6,8.2v6.2h8.3v-5.9h1.1c1.3-0.1,2.2-1,2.3-2.3v-3.4h2.3L29,40.1
				C29,40.1,26,40.1,22.8,40.1z M27.4,50.2c1.2,0,2.1-1,2.1-2.1c0-1.2-1-2.1-2.1-2.1c-1.2,0-2.1,1-2.1,2.1
				C25.2,49.2,26.2,50.2,27.4,50.2z"/>
		</g>
	</g>
</g>
</svg>
