<?xml version="1.0" encoding="utf-8"?>
<!-- Generator: Adobe Illustrator 18.0.0, SVG Export Plug-In . SVG Version: 6.00 Build 0)  -->
<!DOCTYPE svg PUBLIC "-//W3C//DTD SVG 1.1//EN" "http://www.w3.org/Graphics/SVG/1.1/DTD/svg11.dtd">
<svg version="1.1" xmlns="http://www.w3.org/2000/svg" xmlns:xlink="http://www.w3.org/1999/xlink" x="0px" y="0px"
	 viewBox="0 0 300 100" style="enable-background:new 0 0 300 100;" xml:space="preserve">
<style type="text/css">
	.st0{fill-rule:evenodd;clip-rule:evenodd;}
	.st1{fill-rule:evenodd;clip-rule:evenodd;fill:#C038F9;}
	.st2{fill:none;}
	.st3{fill-rule:evenodd;clip-rule:evenodd;fill:#231F20;}
</style>
<g id="Layer_2">
	<g>
		<g>
			<g id="ejakwA.tif">
				<g>
					<path d="M69.5,56.3c0.1-0.6,0.3-1.1,0.3-1.7c0.1-4.1,0.1-8.3,0.2-12.4c0-1.7,0.2-3.4,0.3-5.2c1.5,0,3,0,4.6,0
						c1.8,5.3,3.6,10.6,5.6,16.2c1.9-5.6,3.8-10.9,5.6-16.2c1.6,0,3,0,4.5,0c0.1,0.5,0.2,0.9,0.3,1.4c0,0.4,0,0.8,0,1.2
						c0.2,7.4,0.3,14.7,0.5,22.1c0,0.7,0,1.5,0,2.4c-1.5,0-2.9,0-4.5,0c0-5.5,0-11,0-16.5c-1.9,3.4-2.7,7.2-4.3,10.7
						c-1.4,0-2.8,0-4.3,0c-1.3-3.6-2.6-7.2-3.9-10.9c-0.1,0-0.2,0-0.3,0.1c0,5.5,0,11,0,16.7c-1.6,0.1-3.1,0-4.6,0.1
						C69.5,61.6,69.5,58.9,69.5,56.3z"/>
					<path d="M239.5,64.6c-0.1-0.1-0.3-0.3-0.4-0.4c-3.1-0.9-4.4-3.2-4.5-6.2c-0.1-2.5-0.1-5-0.1-7.4c0-2.4,0-4.8,0-7.2
						c0-1.7,0.4-3.3,1.6-4.6c1.4-1.6,3.3-2.1,5.3-2.3c2.1-0.2,4.2,0.2,6.4,1c-0.2,1.1-0.4,2.3-0.6,3.6c-0.6-0.1-1.2-0.1-1.8-0.2
						c-1.1-0.1-2.2-0.3-3.3-0.2c-1.9,0.1-2.8,1.1-3,3c0,0.2,0,0.4,0,0.6c0,4.2,0,8.4,0,12.6c0,1.6,0.5,2.8,2.4,3.7
						c1.6-0.1,3.6-0.2,5.7-0.4c0.2,1,0.4,2.1,0.7,3.4c-0.9,0.4-1.7,0.7-2.6,1C243.4,64.6,241.4,64.6,239.5,64.6z"/>
					<path d="M113.3,37c3.3,0,6.3-0.1,9.4,0c1.1,0,2.2,0.4,3.2,0.8c1.6,0.6,2.5,2,2.8,3.6c0.4,2.6,0.6,5.2,0.1,7.8
						c-0.2,1.3-0.8,2.3-1.8,3.1c-0.5,0.4-1,0.7-1.5,1.1c1.6,3.5,3.2,7,4.9,10.7c-1.8,0.1-3.5,0-5.3,0.1c-1.5-3.4-3-6.8-4.5-10.2
						c-0.8,0-1.5,0-2.5,0c0,1.7,0,3.4,0,5.1c0,1.6,0,3.3,0,5c-1.5,0-2.9,0-4.6,0C113.3,55.1,113.3,46.1,113.3,37z M118,49.6
						c1.9,0,3.5,0,4.9,0c0.9-0.6,1.2-1.2,1.2-2.1c0-1.7,0-3.4,0-5c-1.4-1.7-3.1-2-6.1-1.3C118,44.1,118,46.8,118,49.6z"/>
					<path d="M111.1,64.1c-1.7,0-3.1,0-4.7,0c-0.4-1.9-0.8-3.8-1.3-5.8c-2,0-3.8,0-5.8,0c-0.9,1.7-0.6,3.9-1.4,5.7
						c-1.4,0-2.9,0-4.5,0c0.8-4.7,2-9.1,3-13.6c1-4.5,2.1-8.9,3.2-13.4c1.7,0,3.4,0,5.2,0C107,46,109,55,111.1,64.1z M102.2,42.9
						c-0.8,3.7-1.7,7.3-2.2,11.2c1.5,0,2.8,0,4.3,0C103.9,50.2,103,46.6,102.2,42.9z"/>
					<path d="M221.6,37c1.7,0,3.4,0,5.2,0c2.1,9,4.2,18,6.3,27.1c-1.6,0-3.1,0-4.7,0c-0.4-1.9-0.8-3.8-1.3-5.7c-2,0-3.8,0-5.9,0
						c-0.4,1.9-0.8,3.8-1.2,5.7c-1.5,0-3,0-4.6,0c0.8-4.7,2.1-9.1,3-13.7C219.4,46,220.6,41.5,221.6,37z M224.4,42.5
						c-1,2-1,4-1.4,5.8c-0.4,1.9-1,3.8-0.8,5.8c1.4,0,2.7,0,4.2,0C226,50.2,225,46.5,224.4,42.5z"/>
					<path d="M188.7,53.8c0,3.5,0,6.8,0,10.2c-1.5,0.2-2.9,0.1-4.3,0.1c-0.4-1.5-0.5-22.9-0.2-27.2c0.6,0,1.3-0.1,2-0.1c2,0,4,0,6,0
						c1,0,2.1,0.1,3,0.4c2.2,0.6,3.5,2,3.8,4.3c0.3,2.3,0.4,4.5,0.1,6.8c-0.5,3.1-2.6,5.2-5.8,5.4C191.8,53.9,190.4,53.8,188.7,53.8
						z M193.2,49.7c0.9-0.5,1.3-1.1,1.3-1.9c0-1.8,0-3.6,0-5.2c-1.6-2.3-3.7-1.3-5.7-1.5c0,2.9,0,5.7,0,8.6
						C190.3,49.7,191.7,49.7,193.2,49.7z"/>
					<path d="M164.2,48.3c0,1.5,0,2.7,0,4.1c-2.5,0.3-5,0-7.7,0.2c0,2.4,0,4.8,0,7.4c2.8,0,5.6,0,8.4,0c0,1.4,0,2.6,0,3.9
						c0,0-0.1,0.1-0.1,0.1c-0.1,0-0.1,0.1-0.2,0.1c-4.2,0-8.4,0-12.6,0c-0.4-1.5-0.5-22.4-0.2-26.9c1.5-0.3,9.7-0.4,13-0.1
						c0,1.3,0,2.5,0,4c-1.4,0-2.7,0-4.1,0c-1.4,0-2.7,0-4.2,0c-0.4,1.2-0.2,2.5-0.2,3.7c0,1.2,0,2.3,0,3.6
						C159,48.3,161.5,48.3,164.2,48.3z"/>
					<path d="M255.8,41.1c0,2.6,0,4.9,0,7.3c2.6,0,5,0,7.5,0c0.4,1.4,0.1,2.7,0.3,4.1c-2.7,0-5.2,0-7.8,0c0,2.6,0,5,0,7.5
						c2.8,0,5.5,0,8.3,0c0.4,1.4,0.2,2.7,0.2,3.9c-1.6,0.4-8.9,0.5-13,0.2c-0.3-1.5-0.4-23.8-0.1-26.9c1.5-0.3,10.4-0.4,13-0.1
						c0,1.3,0,2.5,0,4c-1.4,0-2.8,0-4.1,0C258.7,41.1,257.3,41.1,255.8,41.1z"/>
					<path d="M171.7,63.8c0-7.5,0-15,0-22.7c-0.9,0-1.7,0-2.5,0c-0.8,0-1.5,0-2.4,0c-0.3-1.3-0.2-2.6-0.1-3.9
						c1.6-0.3,12-0.4,14.7-0.1c0,1.3,0,2.5,0,4c-1.6,0-3.2,0-4.9,0c0,7.7,0,15.3,0,22.8C174.9,64.3,173.2,64.3,171.7,63.8z"/>
					<path d="M201.9,64.1c0-9.1,0-18,0-27.1c0.8,0,1.5,0,2.3,0c0.7,0,1.4,0,1.9,0c0.2,0.2,0.3,0.2,0.3,0.3c0,0.1,0.1,0.1,0.1,0.2
						c0,7.4,0,14.9,0,22.5c2.5,0.2,4.9,0,7.3,0.1c0,1.3,0,2.6,0,4C209.9,64.1,206,64.1,201.9,64.1z"/>
					<path d="M149.2,64.1c-1.8,0-3.4,0-5.3,0c-2-4.6-4.1-9.2-6.1-13.9c2-4.4,3.9-8.7,5.9-13.1c1.7-0.4,3.4-0.1,5.3-0.2
						c-2.1,4.6-4.2,9-6.2,13.4C144.9,54.8,147,59.4,149.2,64.1z"/>
					<path d="M137.3,64.1c-1.5,0-2.9,0-4.2,0c-0.4-1.5-0.6-21.2-0.2-27c0.7-0.5,1.4-0.2,2.2-0.2c0.7-0.1,1.4,0,2,0
						C137.5,38.5,137.7,57.1,137.3,64.1z"/>
				</g>
			</g>
			<polygon points="38.4,45.5 65.3,17.4 65.3,63.4 19,63.4 19,26.8 			"/>
		</g>
		<g>
			<path d="M272.2,37c0.7,0,1.3,0.2,1.9,0.5c0.6,0.3,1.1,0.8,1.5,1.5c0.4,0.6,0.5,1.3,0.5,2c0,0.7-0.2,1.3-0.5,2
				c-0.3,0.6-0.8,1.1-1.5,1.5c-0.6,0.3-1.3,0.5-2,0.5c-0.7,0-1.3-0.2-2-0.5c-0.6-0.3-1.1-0.8-1.5-1.5c-0.3-0.6-0.5-1.3-0.5-2
				c0-0.7,0.2-1.3,0.5-2c0.4-0.6,0.8-1.1,1.5-1.5C270.8,37.2,271.5,37,272.2,37z M272.2,37.7c-0.6,0-1.1,0.1-1.6,0.4
				c-0.5,0.3-0.9,0.7-1.2,1.2c-0.3,0.5-0.4,1.1-0.4,1.6c0,0.6,0.1,1.1,0.4,1.6c0.3,0.5,0.7,0.9,1.2,1.2c0.5,0.3,1.1,0.4,1.6,0.4
				s1.1-0.1,1.6-0.4c0.5-0.3,0.9-0.7,1.2-1.2c0.3-0.5,0.4-1.1,0.4-1.6c0-0.6-0.1-1.1-0.4-1.6c-0.3-0.5-0.7-0.9-1.2-1.2
				C273.2,37.8,272.7,37.7,272.2,37.7z M270.4,43.1v-4.2h1.5c0.5,0,0.9,0,1.1,0.1c0.2,0.1,0.4,0.2,0.5,0.4c0.1,0.2,0.2,0.4,0.2,0.6
				c0,0.3-0.1,0.6-0.3,0.8c-0.2,0.2-0.5,0.4-0.9,0.4c0.2,0.1,0.3,0.1,0.4,0.2c0.2,0.2,0.4,0.4,0.6,0.8l0.5,0.8h-0.8l-0.4-0.7
				c-0.3-0.5-0.5-0.9-0.7-1c-0.1-0.1-0.3-0.1-0.5-0.1h-0.4v1.8H270.4z M271.1,40.7h0.8c0.4,0,0.7-0.1,0.8-0.2
				c0.1-0.1,0.2-0.3,0.2-0.5c0-0.1,0-0.2-0.1-0.3c-0.1-0.1-0.2-0.2-0.3-0.2c-0.1,0-0.4-0.1-0.7-0.1h-0.8V40.7z"/>
		</g>
	</g>
</g>
<g id="Layer_1">
</g>
</svg>
