<?xml version="1.0" encoding="utf-8"?>
<!-- Generator: Adobe Illustrator 18.0.0, SVG Export Plug-In . SVG Version: 6.00 Build 0)  -->
<!DOCTYPE svg PUBLIC "-//W3C//DTD SVG 1.1//EN" "http://www.w3.org/Graphics/SVG/1.1/DTD/svg11.dtd">
<svg version="1.1" xmlns="http://www.w3.org/2000/svg" xmlns:xlink="http://www.w3.org/1999/xlink" x="0px" y="0px"
	 viewBox="0 0 300 100" style="enable-background:new 0 0 300 100;" xml:space="preserve">
<style type="text/css">
	.st0{fill-rule:evenodd;clip-rule:evenodd;}
	.st1{fill-rule:evenodd;clip-rule:evenodd;fill:#C038F9;}
	.st2{fill:none;}
	.st3{fill-rule:evenodd;clip-rule:evenodd;fill:#231F20;}
</style>
<g id="Layer_2">
</g>
<g id="Layer_1">
	<g>
		<polygon points="65.1,32.5 61.8,29 58.3,32.6 61.8,35.9 		"/>
		<path d="M76.5,42.4c0.8,1.6,2.2,3,4.5,3c2.5,0,4.3-2.3,4.4-4.7l-0.2-0.2c-0.4,0.3-1.3,0.5-2.3,0.5c-1.3,0-2.3-0.9-2.8-1.7
			c-2.3,1.7-6.1,4-9.5,5.8v12.4c0,1.4-0.3,2.2-1.2,2.5v0.2l8.2,5l5.9-6.1l-0.4-0.4l-2.5,2.5l-4.5-2.7V42.6L76.5,42.4z"/>
		<path d="M66.9,61.4C65.7,61.2,65,60.1,65,59V45.5c0-1.7,0.4-2.1,1.2-2.5v-0.1L61,39.5l-4.8,5l0.3,0.3l1.4-1.4l1.5,1.1v15.1
			c0,3.5,1.6,4.8,4.4,5.8l4.9-5.1l-0.3-0.3L66.9,61.4z"/>
		<path d="M55.5,61.5c-1.4-0.7-1.8-1.3-1.8-3V46.8c0-1.7,0.5-2.2,1.2-2.5v-0.1C53,43,49.8,40.6,48,39.5l-4.8,5.1V32
			c0-1.7,0.6-2.8,1.5-3.9L44.6,28c-3,0.4-4.5,1.7-5.8,3.8h-0.1c-0.2-1.3-0.7-1.9-1.6-2.7l-0.3,0.1c0.4,0.7,0.7,1.2,0.7,3.2v26.4
			c0,1.8-0.5,2.4-1.2,2.7v0.1l4.6,3.8l4-3.5l-1.8-1.1V45.2l1.7-1.8l3.1,2.1v14.2c0,3.2,1.7,4.8,4.3,5.6l4.9-5L56.9,60L55.5,61.5z"/>
		<path d="M127.2,45.5v12.3c0,1.9-0.4,2.3-1.2,2.7v0.1c2.9,1.8,4.4,2.9,7.2,4.7c2.6-2.1,7.8-5,10.1-6V46.9c0-1.9,0.4-2.3,1.2-2.7
			v-0.1c-2-1.3-5.5-3.6-7.2-4.7C134.5,41.4,130.7,43.8,127.2,45.5z M137.6,61.8l-0.7,0.3c-1.4-1-3.6-2.5-4.2-3V43l0.5-0.3
			c0.9,0.7,3,2.3,4.3,3.1V61.8z"/>
		<path d="M122,47.2c0-2.1,0.3-2.5,1.2-3v-0.1l-7.2-4.7c-2.3,1.8-6.1,3.9-10.1,6.1v11.6c0,2.4-0.2,2.9-1.2,3.3v0.2
			c0,0,2.8,1.7,7.6,4.9l4.1-4.2c0.5,3.7,4.2,3.4,4.2,5.4c0,0.7-1.2,1.6-1.6,1.8c-1.4-1-3.7-1.8-5.6-1.8c-4.4,0-7.6,2.4-9.1,5.4
			l0.1,0c2-0.8,3.5-1.1,6.3-1.1c2.2,0,3.1,0.2,4.6,1.1c0,0,1.5-1.2,4.5-3.6c2.3-1.9,4.4-3.4,4.4-4.9c0-2.4-2.2-2.6-2.2-5.3V47.2z
			 M116.4,60.5l-1,1l-3.9-2.7V43l0.6-0.3c0,0,2.1,1.7,4.3,3V60.5z"/>
		<path d="M102,61.5c-1.3-0.4-1.8-1.7-1.8-3V47.2c0-1.7,0.4-2.2,1.3-2.6v-0.1l-7.6-5.1l-8.5,5.2c0.6,2.9,2.8,5.3,5.4,6.6v0
			c-3.1,1.1-6.4,3.2-6.4,7.4c0,3.1,1.9,5.5,4.6,6.7l5.5-5c0.2,3.1,2.1,4.3,4.3,5l4.9-5l-0.3-0.3L102,61.5z M94.5,59.6l-2.1,1.9
			c-2.2-0.9-3.1-2.4-3.1-4.9c0-3,1.9-5.3,5.2-5.7V59.6z M94.5,50.4c-0.8,0.1-2.3,0.4-3,0.6c-1.8-1.8-2.2-5.4-2.4-8.1l0.6-0.4
			l4.8,3.3V50.4z"/>
		<path d="M29.4,35.7c4.2,0,6.6-3.1,6.7-6.5L35.8,29c-0.7,0.5-1.8,1.1-3.5,1.1c-1.5,0-2.7-0.5-3.7-1.6c-3.1,2.5-8.8,5.5-12.3,7.3
			v0.2c0.9,0.2,1.2,0.9,1.2,2.7V59l-1.2,0.8c-3.5-2.7-5.9-7.4-5.9-14c0-7.4,2.9-11.7,8.2-15.2l-0.5-0.2c-5.6,2.2-14.3,8-14.3,18.6
			c0,11.5,7.3,18.2,17.2,18.2c7.3,0,12-4.8,14.5-7.7L35.3,59c-2.3,1.6-4.7,2.7-7.4,3.1V35.5C28.4,35.6,28.9,35.7,29.4,35.7z
			 M23.8,55.5V32.5l0.2-0.1c0.9,1.3,1.9,2.4,3.3,2.9v26.8c-0.3,0-0.7,0-1,0c-3.6,0-7.1-0.3-9.5-2L23.8,55.5z"/>
		<path d="M274,61.6c-1.2-0.6-1.8-1.3-1.8-2.9V46.5c0-1.6,0.3-2.2,1.1-2.5v-0.1c-1.9-1.2-4.5-3-6.2-4.3l-5.3,5.6
			c0-2.9-1.7-4.8-4.6-5.6l-4.9,5l0.4,0.4l1.5-1.5c1.3,0.2,2,1.2,2,2.6v12.8c0,1.8-0.2,2.2-1.2,2.7v0.1l4.5,3.8l4.1-3.5l-1.8-1.2
			V45.9l2.3-2.3l2.6,1.8v14.4c0,2.8,1.2,4.6,4.3,5.6l4.9-5l-0.3-0.3L274,61.6z"/>
		<path d="M251.7,61.6c-1.6-0.7-1.9-1.4-1.9-3.4V45.7c0-1.6,0.3-2,1.2-2.4v-0.1l-4.5-3.7l-3.9,3.5l1.6,1.1v15.5l-2.2,2l-2.7-1.8
			V45.1c0-2.9-2-4.7-4.3-5.6l-4.7,4.9l0.4,0.3l1.3-1.4c1.1,0.4,1.7,1.1,1.7,2.5v12.6c0,1.9-0.2,2.3-1.2,2.8v0.1
			c1.9,1.1,3.9,2.5,6.1,4l5.6-5c0,2.4,2,4.6,4.4,5l4.7-4.9l-0.4-0.3L251.7,61.6z"/>
		<polygon points="206.7,32.6 203.3,29.1 199.9,32.7 203.3,36 		"/>
		<path d="M208.5,61.5c-1.2-0.2-1.9-1.3-1.9-2.4V45c0-1.2,0.4-1.5,1.2-2V43l-5.1-3.4l-4.8,5l0.3,0.4l1.4-1.4l1.5,1.1v15.1
			c0,3.5,1.6,4.8,4.4,5.8l4.9-5.1l-0.3-0.4L208.5,61.5z"/>
		<path d="M194,45.7c2.5,0,4-2.6,4.3-4.5l-0.2-0.2c-0.5,0.2-1,0.3-1.7,0.3c-1,0-1.9-0.7-2.7-1.7l-3.8,4c-0.4-2-2-3.4-4.4-4l-4.9,5
			l0.4,0.4l1.5-1.5c1.6,0.3,2,1.2,2,3.2v11.8c0,1.3-0.3,1.9-1.2,2.2v0.1l7.7,4.9l5-5.1l-0.4-0.4l-1.4,1.5l-4.2-2.4V45
			c0-0.2,0-0.7,0-0.9l0.4-0.4C191.2,44.7,192.3,45.7,194,45.7z"/>
		<path d="M175.2,62.2V36.9c0.3,0,1.2,0.1,1.7,0.1c4.5,0,6.3-3.8,6.8-8.1l-0.3-0.3c-0.9,1.8-2.6,2.8-4.4,2.8c-6,0-12.4-3.6-19.2-3.6
			c-4.9,0-8.6,3-8.6,7.5c0,3.1,1.7,4.6,3,5.2l0.6-0.3c-0.7-0.3-1.9-1-1.9-2.4c0-2.4,2.4-3.7,5.6-3.7c4.5,0,10.4,2.4,16,2.8v25.4
			c-1.2,0.2-1.7,0.2-2.7,0.2c-3,0-6.2-0.8-8.2-2.3l7.5-3.8V37.2l-7.4,3.9v0.2c0.6,0.1,1.2,0.7,1.2,2.3V59l-1.7,0.8
			c-3-2.4-4.9-5.6-4.9-10.6c0-6,2.2-9.8,5.2-12.6l-0.4-0.2C158.7,38,152,43.9,152,52.1c0,9.5,6.9,15.3,15.8,15.3
			c7,0,12.7-4.5,14.8-7.5l-0.2-0.5C181.1,60.5,177.9,61.9,175.2,62.2z"/>
		<path d="M288,61.5l-4.7-2.6v-5.4c2.9-2.1,6.7-4.6,9.9-6.6l-5.9-7.4c-2.6,2-6.3,4.5-9.7,6.1v12c0,1.9-0.5,2.5-1.3,2.7v0.1l8.5,5.2
			l6.1-6.3l-0.3-0.3L288,61.5z M283.2,43.1l0.3-0.2c1.1,1.7,3.7,5.5,4.5,6.7l-4.8,3.2V43.1z"/>
		<path d="M218,44.6V32.3c0-2,0.6-2.9,1.4-3.9l0-0.2c-3,0.4-4.5,1.7-5.8,3.8h-0.1c-0.2-1.1-0.8-1.9-1.6-2.6l-0.2,0.1
			c0.4,0.7,0.7,1.6,0.7,3.3v24.8c0,2.1-0.2,2.7-1.3,3.1v0.1c2.4,1.4,5.4,3.4,7.2,4.7c2.6-2.1,7.8-4.9,10.1-5.9V46.7
			c0-1.2,0.2-2,1.2-2.3v-0.1c-1.8-1.1-5.2-3.5-6.9-4.7L218,44.6z M222.8,61.9l-0.6,0.3L218,59V45.3l1.7-1.8l3.1,2.1V61.9z"/>
	</g>
</g>
</svg>
