<?xml version="1.0" encoding="utf-8"?>
<!-- Generator: Adobe Illustrator 18.0.0, SVG Export Plug-In . SVG Version: 6.00 Build 0)  -->
<!DOCTYPE svg PUBLIC "-//W3C//DTD SVG 1.1//EN" "http://www.w3.org/Graphics/SVG/1.1/DTD/svg11.dtd">
<svg version="1.1" xmlns="http://www.w3.org/2000/svg" xmlns:xlink="http://www.w3.org/1999/xlink" x="0px" y="0px"
	 viewBox="0 0 300 100" style="enable-background:new 0 0 300 100;" xml:space="preserve">
<style type="text/css">
	.st0{fill-rule:evenodd;clip-rule:evenodd;}
	.st1{fill-rule:evenodd;clip-rule:evenodd;fill:#C038F9;}
	.st2{fill:none;}
	.st3{fill-rule:evenodd;clip-rule:evenodd;fill:#231F20;}
</style>
<g id="Layer_2">
</g>
<g id="Layer_1">
	<g>
		<polygon points="63.5,32.9 60,29.2 56.5,33 60,36.4 		"/>
		<path d="M75.3,43.2c0.8,1.7,2.3,3.2,4.7,3.2c2.6,0,4.4-2.4,4.6-4.8l-0.2-0.2c-0.4,0.3-1.3,0.6-2.4,0.6c-1.4,0-2.4-1-2.9-1.7
			c-2.4,1.7-6.3,4.1-9.9,6V59c0,1.4-0.4,2.3-1.2,2.6v0.2l8.5,5.2l6.1-6.3l-0.4-0.4l-2.6,2.6L75,60V43.4L75.3,43.2z"/>
		<path d="M65.4,62.8c-1.3-0.2-2-1.3-2-2.5v-14c0-1.7,0.4-2.1,1.2-2.6v-0.1l-5.3-3.5l-5,5.2l0.4,0.4l1.4-1.5l1.6,1.1v15.7
			c0,3.6,1.6,5,4.5,6l5.1-5.3l-0.4-0.4L65.4,62.8z"/>
		<path d="M53.6,62.9c-1.4-0.7-1.9-1.3-1.9-3.1V47.7c0-1.8,0.5-2.3,1.2-2.6V45c-2-1.2-5.3-3.6-7.2-4.9l-5,5.2V32.4
			c0-1.8,0.7-2.9,1.5-4l-0.1-0.2c-3.1,0.4-4.7,1.8-6,4h-0.1c-0.2-1.3-0.8-2-1.6-2.8l-0.3,0.1c0.4,0.7,0.8,1.3,0.8,3.3v27.3
			c0,1.9-0.5,2.5-1.3,2.8V63l4.8,4l4.2-3.6l-1.9-1.2V46.1l1.8-1.9l3.2,2.2v14.7c0,3.3,1.8,5,4.4,5.8l5.1-5.2L55,61.4L53.6,62.9z"/>
		<path d="M127.7,46.3v12.8c0,2-0.4,2.4-1.2,2.8V62c3,1.9,4.5,3,7.4,4.9c2.7-2.2,8.1-5.2,10.5-6.2V47.8c0-1.9,0.4-2.4,1.2-2.8V45
			c-2-1.3-5.7-3.7-7.5-4.9C135.3,42.1,131.4,44.6,127.7,46.3z M138.6,63.2l-0.7,0.3c-1.4-1.1-3.7-2.6-4.4-3.1V43.8l0.6-0.3
			c0.9,0.7,3.1,2.4,4.5,3.2V63.2z"/>
		<path d="M122.4,48.1c0-2.2,0.3-2.6,1.2-3.1V45l-7.4-4.9c-2.4,1.8-6.3,4-10.5,6.3v12.1c0,2.5-0.3,3-1.2,3.4v0.2c0,0,2.9,1.8,7.9,5
			l4.3-4.4c0.6,3.8,4.4,3.6,4.4,5.6c0,0.7-1.2,1.6-1.6,1.9c-1.5-1-3.8-1.8-5.8-1.8c-4.6,0-7.8,2.5-9.5,5.6l0.1,0
			c2-0.8,3.7-1.1,6.6-1.1c2.3,0,3.2,0.2,4.7,1.1c0,0,1.6-1.2,4.7-3.7c2.4-1.9,4.6-3.6,4.6-5.1c0-2.5-2.3-2.7-2.3-5.5V48.1z
			 M116.6,61.9l-1,1.1l-4-2.8V43.8l0.6-0.4c0,0,2.2,1.7,4.4,3.1V61.9z"/>
		<path d="M101.6,62.9c-1.3-0.4-1.9-1.8-1.9-3.1V48.1c0-1.8,0.4-2.3,1.4-2.7v-0.1L93.2,40l-8.8,5.4c0.6,3,2.9,5.5,5.6,6.9v0
			c-3.2,1.1-6.6,3.3-6.6,7.6c0,3.2,2,5.7,4.8,6.9l5.7-5.2c0.2,3.2,2.1,4.4,4.4,5.2l5.1-5.2l-0.4-0.4L101.6,62.9z M93.9,61l-2.2,2
			c-2.3-0.9-3.2-2.5-3.2-5c0-3.1,2-5.5,5.4-6V61z M93.9,51.5c-0.8,0.1-2.4,0.4-3.1,0.6c-1.9-1.9-2.3-5.6-2.5-8.4l0.6-0.4l5,3.4V51.5
			z"/>
		<path d="M26.5,36.2c4.4,0,6.8-3.2,7-6.7l-0.3-0.2c-0.8,0.6-1.9,1.2-3.6,1.2c-1.6,0-2.8-0.5-3.8-1.7c-3.2,2.6-9.1,5.7-12.7,7.5v0.2
			c0.9,0.2,1.2,0.9,1.2,2.8v21.1L13,61.2c-3.7-2.8-6.1-7.7-6.1-14.5c0-7.7,3-12.1,8.5-15.8l-0.5-0.2C9,33,0,39,0,49.9
			c0,11.9,7.5,18.9,17.8,18.9c7.5,0,12.4-4.9,15-8l-0.2-0.6c-2.3,1.6-4.9,2.8-7.7,3.2V36C25.4,36.1,25.9,36.2,26.5,36.2z M20.7,56.7
			V32.9l0.2-0.1c0.9,1.3,1.9,2.5,3.4,3v27.8c-0.3,0-0.7,0-1,0c-3.7,0-7.3-0.3-9.8-2L20.7,56.7z"/>
		<path d="M279.8,63c-1.3-0.6-1.9-1.3-1.9-3V47.3c0-1.7,0.3-2.3,1.1-2.6v-0.1c-2-1.2-4.6-3.1-6.5-4.4l-5.5,5.7c0-3-1.7-5-4.7-5.7
			l-5.1,5.2l0.4,0.4l1.5-1.6c1.4,0.2,2.1,1.2,2.1,2.7v13.3c0,1.8-0.2,2.3-1.2,2.8v0.1l4.7,3.9l4.2-3.6l-1.9-1.2V46.8l2.4-2.4
			l2.7,1.9v14.9c0,2.9,1.2,4.8,4.5,5.8l5-5.2l-0.4-0.4L279.8,63z"/>
		<path d="M256.7,63c-1.7-0.7-2-1.4-2-3.5v-13c0-1.6,0.3-2.1,1.2-2.5V44l-4.7-3.8l-4,3.7l1.7,1.2v16l-2.3,2.1l-2.8-1.9V45.9
			c0-3-2-4.9-4.5-5.7l-4.9,5.1l0.4,0.4l1.4-1.4c1.1,0.4,1.8,1.2,1.8,2.6v13.1c0,2-0.2,2.3-1.3,2.9v0.1c2,1.2,4,2.6,6.3,4.2l5.8-5.2
			c0,2.5,2.1,4.8,4.6,5.2l4.9-5.1l-0.4-0.4L256.7,63z"/>
		<polygon points="210.1,33 206.6,29.3 203,33.1 206.6,36.5 		"/>
		<path d="M212,62.9c-1.3-0.2-2-1.3-2-2.5V45.8c0-1.2,0.4-1.5,1.2-2v-0.1l-5.3-3.5l-5,5.2l0.4,0.4l1.4-1.5l1.6,1.1V61
			c0,3.6,1.6,5,4.5,6l5.1-5.3l-0.4-0.4L212,62.9z"/>
		<path d="M196.9,46.5c2.6,0,4.2-2.7,4.4-4.7l-0.2-0.2c-0.5,0.2-1,0.4-1.8,0.4c-1.1,0-2-0.8-2.8-1.8l-3.9,4.1c-0.4-2-2-3.5-4.5-4.2
			l-5.1,5.2l0.4,0.4l1.6-1.6c1.6,0.3,2.1,1.2,2.1,3.3v12.2c0,1.4-0.3,1.9-1.2,2.3V62l8,5.1l5.2-5.3l-0.4-0.4l-1.5,1.5l-4.4-2.5V45.9
			c0-0.2,0-0.7,0-1l0.4-0.4C194,45.6,195.2,46.5,196.9,46.5z"/>
		<path d="M177.5,63.7V37.5c0.4,0,1.2,0.1,1.8,0.1c4.7,0,6.5-3.9,7.1-8.3l-0.4-0.3c-0.9,1.9-2.7,2.9-4.6,2.9
			c-6.2,0-12.8-3.7-19.8-3.7c-5.1,0-8.9,3.1-8.9,7.8c0,3.2,1.8,4.8,3.2,5.4l0.6-0.4c-0.8-0.3-2-1-2-2.5c0-2.5,2.5-3.9,5.8-3.9
			c4.7,0,10.8,2.4,16.6,2.9v26.3c-1.2,0.2-1.7,0.2-2.8,0.2c-3.2,0-6.5-0.8-8.5-2.4l7.7-3.9V37.8l-7.7,4.1V42
			c0.6,0.1,1.2,0.7,1.2,2.4v15.9l-1.7,0.9c-3.1-2.5-5.1-5.8-5.1-10.9c0-6.2,2.2-10.2,5.4-13.1L165,37c-4.6,1.6-11.5,7.7-11.5,16.2
			c0,9.8,7.1,15.9,16.4,15.9c7.3,0,13.2-4.7,15.3-7.7l-0.2-0.5C183.6,61.9,180.3,63.3,177.5,63.7z"/>
		<path d="M294.3,63l-4.9-2.7v-5.6c3-2.2,7-4.8,10.3-6.8l-6.1-7.7c-2.7,2-6.5,4.7-10,6.3v12.4c0,2-0.5,2.6-1.4,2.8v0.1L291,67
			l6.4-6.5l-0.4-0.3L294.3,63z M289.4,43.8l0.3-0.2c1.1,1.8,3.8,5.7,4.6,6.9l-4.9,3.3V43.8z"/>
		<path d="M221.8,45.4V32.6c0-2.1,0.6-3,1.5-4.1l0-0.2c-3.1,0.4-4.7,1.8-6,3.9h-0.1c-0.2-1.2-0.8-2-1.6-2.7l-0.2,0.1
			c0.4,0.7,0.7,1.6,0.7,3.4v25.7c0,2.2-0.2,2.8-1.3,3.2v0.1c2.5,1.5,5.5,3.6,7.5,4.9c2.7-2.2,8.1-5.1,10.5-6.2V47.6
			c0-1.3,0.2-2,1.2-2.4v-0.1c-1.9-1.2-5.4-3.7-7.1-4.9L221.8,45.4z M226.8,63.3l-0.6,0.3l-4.4-3.2V46.1l1.8-1.8l3.2,2.2V63.3z"/>
	</g>
</g>
</svg>
