<?xml version="1.0" encoding="utf-8"?>
<!-- Generator: Adobe Illustrator 18.0.0, SVG Export Plug-In . SVG Version: 6.00 Build 0)  -->
<!DOCTYPE svg PUBLIC "-//W3C//DTD SVG 1.1//EN" "http://www.w3.org/Graphics/SVG/1.1/DTD/svg11.dtd">
<svg version="1.1" xmlns="http://www.w3.org/2000/svg" xmlns:xlink="http://www.w3.org/1999/xlink" x="0px" y="0px"
	 viewBox="0 0 300 100" style="enable-background:new 0 0 300 100;" xml:space="preserve">
<style type="text/css">
	.st0{fill-rule:evenodd;clip-rule:evenodd;}
	.st1{fill-rule:evenodd;clip-rule:evenodd;fill:#C038F9;}
	.st2{fill:none;}
	.st3{fill-rule:evenodd;clip-rule:evenodd;fill:#231F20;}
</style>
<g id="Layer_2">
	<g>
		<path d="M16.4,59.6c-0.5,0.7-1,1.3-1.9,1.9c-1.2,0.8-2,1.3-3.7,1.6c-1.9,0.3-3.3,0-5-0.9c-1.9-1-3.4-2.7-4-4C1.3,56.9,1,55.2,1,54
			c0-2.1,0.3-3.4,1.3-5.2c1.1-2.1,2.4-3.4,4.3-4.3c0.9-0.5,1.5-0.6,2.5-0.7c-1.3,1-2,1.9-2.8,3.3C5.5,48.6,5,49.6,5,51.3
			c-0.1,1.8,0.1,3,1,4.4c1.1,1.7,2,3.2,4.5,4.1c1.2,0.4,2,0.4,3.2,0.2V44.2c0-0.1,0-0.3-0.1-0.3c-0.1-0.1-1-0.1-1.6-0.1
			c-4-0.5-5-1.8-7.8-0.7c-1.2,0.5-1.6,1.5-2.1,2.7c-0.6-1.3-0.5-2.9,0-3.8c0.5-0.7,1-1.5,2-2.1c1.6-0.9,2.9-0.7,4.7-0.4
			c1.5,0.3,4.4,1.7,5.5,1.8c0.6,0,1.3,0,1.4-0.6c0.1-0.5-0.9-0.7-0.9-1.1c0.1-0.5,0.9-0.4,1.3-0.1c1.4,1,0.3,2.9,0.2,3
			c-0.3,0.3-0.5,0.6-0.9,0.9h0v15.9c0,0,0.1,0.1,0.1,0.1c0,0,0.5-0.3,0.7-0.5c0.3-0.3,0.5-0.4,0.7-0.7C16.8,58.6,16.7,59,16.4,59.6z
			 M10.4,57.4c-0.8,0.4-2.3,0.7-2.3,0.6c-0.1-0.1,1-1.1,1-1.9v-6.5l-1.4,1.1c0,0-0.1,0.1-0.2,0.1c-0.1,0-0.2,0-0.2,0l-0.5-0.7
			c0,0,0-0.1,0-0.2c0-0.1,0.1-0.2,0.1-0.2l5.3-4.7c0.1-0.1,0.2-0.1,0.3-0.1c0.1,0,0.1,0.2,0.1,0.3v8.2
			C12.6,55.2,11.9,56.5,10.4,57.4z"/>
		<path d="M29.5,62.5c0,1.2-0.4,1.9-1.1,2.9c-0.6,0.8-0.7,1-1.6,1.6c-1.1,0.8-2.1,1-3.3,0.8c-0.7-0.1-1.1-0.2-1.8-0.5
			c1.2-0.2,1.9-0.7,2.7-1.6c0.6-0.7,1-2.1,1-2.4l0-11.9c0-0.1-0.1-0.1-0.1-0.1c0,0-0.1-0.1-0.1-0.2l-1.2-1.4c0,0-0.1-0.1-0.2-0.1
			c-0.1,0-0.2,0.1-0.2,0.1l-0.8,0.9c0,0,0,0.1,0,0.1c0,0.1,0,0.1,0,0.3l0,8.3c0,0.1,0.1,0.1,0.1,0.2c0,0.1,0.1,0.1,0.2,0.2l0.2,0.2
			c0,0.1,0.1,0.1,0.1,0.1c0.1,0,0.2-0.1,0.2-0.2l0.5-0.4c0.1,0,0.1-0.1,0.2-0.1c0.1,0,0.2,0.1,0.2,0.2l0.3,0.2
			c0.1,0.1,0.1,0.2,0.1,0.3c0,0.1-0.1,0.2-0.2,0.3L22.1,63c-0.1,0.1-0.2,0.2-0.4,0.2c-0.1,0-0.2-0.1-0.3-0.2l-2-1.9
			c-0.1-0.1-0.2-0.1-0.3-0.1c-0.1,0-0.2,0.1-0.3,0.1l-2.3,2.1c-0.1,0-0.1,0.1-0.3,0.1c-0.1,0-0.2-0.1-0.2-0.1l-0.5-0.5
			c0,0,0-0.1,0-0.2c0-0.1,0-0.2,0.1-0.3l2.4-2.2c0,0,0.1-0.1,0.1-0.2c0.1-0.1,0.1-0.2,0.1-0.4l0-20.5l1,1.2c0.1,0.1,0.2,0.2,0.3,0.2
			c0.1,0,0.2-0.1,0.3-0.1l2.7-1.3v9.9c0,0.1,0.1,0.2,0.2,0.2c0.1,0,0.2-0.1,0.2-0.1l2.9-2.9c0.1-0.1,0.2-0.1,0.3-0.1
			c0.1,0,0.3,0.1,0.3,0.2l2.7,3.1c0.1,0.1,0.1,0.2,0.2,0.3c0,0.1,0.1,0.3,0.1,0.5L29.5,62.5z"/>
		<path d="M39.5,52.1c0,0.1,0,0.2-0.1,0.3l-1.8,1.8c-0.1,0.1-0.1,0.1-0.3,0.1c-0.1,0-0.2-0.1-0.2-0.2v-4.1c0-0.1,0-0.2,0.1-0.2
			c0.1,0,0.2,0.1,0.2,0.1l1.9,2C39.4,51.9,39.5,52,39.5,52.1z M42.6,50.1c0-0.2-0.2-0.4-0.3-0.5L38.9,46c-0.1-0.1-0.2-0.2-0.3-0.2
			c-0.1,0-0.3,0-0.4,0l-6.4,3.8c0.4,0.1,0.8,0.3,0.9,0.5c0.1,0.1,0.4,0.4,0.4,0.6l0.1,8.7c0,0.1-0.1,0.3-0.2,0.4
			c0,0.1-0.1,0.2-0.1,0.2l-2.4,2.2c-0.1,0.1-0.1,0.2-0.1,0.3c0,0.1,0,0.1,0,0.2l0.5,0.5c0,0,0.1,0.1,0.2,0.1c0.1,0,0.2-0.1,0.3-0.1
			l2.3-2.1c0.1,0,0.2-0.1,0.3-0.1c0.1,0,0.2,0.1,0.3,0.1l2,1.9c0.1,0.1,0.2,0.2,0.3,0.2c0.1,0,0.3-0.1,0.4-0.2l4.2-4.2
			c0.1-0.1,0.2-0.2,0.2-0.3c0-0.1-0.1-0.2-0.1-0.3L40.7,58c-0.1,0-0.1-0.1-0.2-0.1c-0.1,0-0.2,0.1-0.3,0.1l-2.1,2.1
			c0,0.1-0.1,0.2-0.2,0.2c-0.1,0-0.1-0.1-0.1-0.1L37.7,60c-0.1-0.1-0.2-0.2-0.2-0.2c-0.1-0.2-0.4-0.4-0.4-0.6v-2.2
			c0-0.2-0.1-0.4,0-0.6c0-0.1,0.2-0.3,0.3-0.4l5-5.2C42.5,50.5,42.6,50.3,42.6,50.1z"/>
		<path d="M61.5,47.7c-0.7,0.6-1.4,0.9-2.3,0.8c-0.8,0-1.4-0.3-2-0.8v-4.7c0.6-0.5,1.2-0.6,2-0.6c1.1,0,2.3,0.6,2.3,1.7V47.7z
			 M49.7,51.8v-3.1c-0.6,0-1,0.2-1.5,0.4c-0.8,0.5-1.6,1.8-1.4,3.1c0.4-0.2,0.8-0.3,1.3-0.4C48.7,51.8,49.1,51.8,49.7,51.8z
			 M55.2,44.2c-0.7-0.4-2.7-0.3-3.4,0.2c-0.9,0.7-1.4,1.5-1.4,2.7v7.9c0,0.6-0.1,1.1-0.3,1.6c-0.3,0.5-0.6,0.8-1.1,1
			c1.3,0.5,2.5,0.3,3.7-0.5c1-0.7,1.6-1.6,1.6-2.8v-8c0-0.5,0-0.8,0.2-1.2C54.6,44.8,54.8,44.5,55.2,44.2z M66.1,59.5V43.6
			c0-1.2-0.7-2.5-1.8-3.5c-1.7-1.5-3.6-1.6-5.8-1c-2.5,0.6-3.4,1.4-5.6,1.3C50.5,40.2,49,40,46.9,39c1.4,1.8,2.7,2.8,4.8,3.6
			c1.4,0.5,2.4,0.7,4,0.7l0.1,14.3c-1.1-0.1-1.8,0-2.9,0.2c-1.4,0.3-2.2,0.7-3.3,1.5c-1.1,0.8-2.5,2.2-2.5,4.1
			c0,1.3,0.7,2.6,2.1,3.6c1.2,0.8,2.6,0.5,3.8-0.3c-2.3,0.4-4.4-0.9-4-3.1c0.4-2.5,3.6-2.6,5.9-2.3c3.7,0.4,5.4,3.4,5.6,3.5
			c0.1,0.1,0.1,0.2,0.3,0.2c0.1,0,0.3,0,0.3-0.1L66.1,59.5z M61.5,52.3c-0.8-0.4-1.5-0.6-2.3-0.6c-0.8,0-1.3,0.1-2,0.5v-3
			c0.7,0.3,1.2,0.5,2,0.5c0.9,0,1.5-0.1,2.3-0.5V52.3z M61.5,59.8c-0.8-0.6-1.3-0.9-2.2-1.3c-0.8-0.3-1.3-0.5-2.1-0.7v-4.2
			c0.6-0.5,1.2-0.8,2-0.8c0.8,0,1.6,0.2,2.3,0.8V59.8z"/>
		<path d="M74.4,50l0,2.4c0,0.1,0,0.2-0.1,0.3c-0.1,0.1-0.5,0.1-0.9,0c-1.6-0.1-3.2-2.7-3.2-3.4c0.8,0.4,1.6,0.6,2.3,0.6
			c0.7,0,1.7-0.2,1.8-0.3C74.4,49.6,74.4,49.9,74.4,50z M81.3,47c0-0.1,0-0.2-0.1-0.2l-0.5-0.4c-0.1,0-0.1-0.1-0.3-0.1
			c-0.1,0-0.1,0.1-0.2,0.1l-2.1,2.1c-0.1,0.1-0.1,0.2-0.2,0.2c-0.1,0-0.2-0.1-0.3-0.2l-2.3-2.5c-0.1-0.1-0.3-0.3-0.4-0.3
			c-0.1,0-0.2,0.1-0.3,0.3c-0.1,0-0.3,1-1,1.6c-0.7,0.6-1.3,0.9-2.3,0.9c0.2-0.3,0.3-0.5,0.4-0.8c0.1-0.6-0.1-1.2-0.6-1.5
			c-0.7-0.5-1.7-0.3-2.1,0.4c-0.7,0.9-0.2,2.5,0,3c0.5,1.3,1.6,2.8,2.3,3.3c-0.7,0.2-1.2,0.5-1.8,1c-1.2,1-1.7,2.1-2,3.7
			c-0.1,1.1-0.1,1.9,0.3,2.9c0.4,0.9,0.8,1.4,1.6,2c0.6,0.5,1.2,0.8,2,0.9c0.1,0,0.2-0.1,0.3-0.2l2.5-2.3c0.1-0.1,0.1-0.2,0.3-0.2
			c0.1,0,0.3,0.1,0.3,0.2l2.5,2.3c0.1,0.1,0.2,0.2,0.3,0.2c0.2,0,0.3-0.1,0.4-0.2l2.5-2.5c0.1-0.1,0.2-0.2,0.2-0.3
			c0-0.1-0.1-0.2-0.1-0.3l-0.3-0.3c-0.1,0-0.1-0.1-0.2-0.1c-0.1,0-0.2,0.1-0.3,0.1l-0.4,0.4c-0.1,0-0.1,0.1-0.2,0.1
			c-0.1,0-0.1-0.1-0.2-0.1l-0.1-0.2c-0.1-0.1-0.2-0.2-0.2-0.3c-0.1-0.1-0.1-0.2-0.1-0.3v-9.2c0-0.1,0-0.2,0-0.3
			c0-0.1,0.1-0.1,0.1-0.2l2.4-2.4C81.1,47.2,81.3,47.1,81.3,47z M74.4,58.9c0,0.7-0.9,1-1.7,1c-1,0-1.5-0.8-1.9-1.7
			c-0.4-0.9-0.3-2,0.3-2.9c0.7-1,2-1.7,2.9-1.3c0.2,0.1,0.3,0.3,0.3,0.5V58.9z"/>
		<path d="M88.7,60.5L86.2,63c-0.1,0.1-0.2,0.2-0.4,0.2c-0.1,0-0.2-0.1-0.3-0.2l-2.1-1.9c-0.1-0.1-0.2-0.1-0.3-0.1s-0.2,0.1-0.3,0.1
			l-2.3,2.1c-0.1,0-0.1,0.1-0.2,0.1c-0.1,0-0.2-0.1-0.2-0.1l-0.4-0.5c0,0-0.1-0.1-0.1-0.2c0-0.1,0.1-0.2,0.1-0.3l2.4-2.2
			c0,0,0.1-0.1,0.2-0.2c0.1-0.1,0.1-0.2,0.1-0.4V39l1,1.2c0.1,0.1,0.2,0.2,0.3,0.2s0.2-0.1,0.3-0.1l2.7-1.3v20.5
			c0,0.1,0.1,0.1,0.1,0.2c0.1,0.1,0.1,0.1,0.2,0.2l0.2,0.2c0,0.1,0.1,0.1,0.2,0.1c0.1,0,0.2-0.1,0.2-0.2l0.4-0.4
			c0.1,0,0.1-0.1,0.2-0.1c0.1,0,0.2,0.1,0.2,0.2l0.3,0.2c0.1,0.1,0.1,0.2,0.1,0.3C88.9,60.3,88.8,60.5,88.7,60.5z"/>
		<path d="M97,60.5L94.5,63c-0.1,0.1-0.2,0.2-0.4,0.2c-0.1,0-0.2-0.1-0.3-0.2l-2.1-1.9c-0.1-0.1-0.2-0.1-0.3-0.1
			c-0.1,0-0.2,0.1-0.3,0.1l-2.3,2.1c-0.1,0-0.1,0.1-0.2,0.1c-0.1,0-0.2-0.1-0.2-0.1L88,62.7c0,0-0.1-0.1-0.1-0.2
			c0-0.1,0.1-0.2,0.1-0.3l2.4-2.2c0,0,0.1-0.1,0.2-0.2c0.1-0.1,0.1-0.2,0.1-0.4V39l1,1.2c0.1,0.1,0.2,0.2,0.3,0.2
			c0.1,0,0.2-0.1,0.3-0.1L95,39v20.5c0,0.1,0.1,0.1,0.1,0.2c0.1,0.1,0.1,0.1,0.2,0.2l0.2,0.2c0,0.1,0.1,0.1,0.2,0.1
			c0.1,0,0.2-0.1,0.2-0.2l0.4-0.4c0.1,0,0.1-0.1,0.2-0.1c0.1,0,0.2,0.1,0.2,0.2l0.3,0.2c0.1,0.1,0.1,0.2,0.1,0.3
			C97.2,60.3,97.1,60.5,97,60.5z"/>
		<path d="M104.1,50l0,2.4c0,0.1,0,0.2-0.1,0.3c-0.1,0.1-0.5,0.1-0.9,0c-1.6-0.1-3.2-2.7-3.2-3.4c0.8,0.4,1.6,0.6,2.3,0.6
			c0.7,0,1.7-0.2,1.8-0.3C104.1,49.6,104.1,49.9,104.1,50z M111,47c0-0.1,0-0.2-0.1-0.2l-0.5-0.4c-0.1,0-0.1-0.1-0.3-0.1
			c-0.1,0-0.1,0.1-0.2,0.1l-2.1,2.1c-0.1,0.1-0.1,0.2-0.2,0.2c-0.1,0-0.2-0.1-0.3-0.2l-2.3-2.5c-0.1-0.1-0.3-0.3-0.4-0.3
			c-0.1,0-0.2,0.1-0.3,0.3c-0.1,0-0.3,1-1,1.6c-0.7,0.6-1.3,0.9-2.3,0.9c0.2-0.3,0.3-0.5,0.4-0.8c0.1-0.6-0.1-1.2-0.6-1.5
			c-0.7-0.5-1.7-0.3-2.1,0.4c-0.7,0.9-0.2,2.5,0,3c0.5,1.3,1.6,2.8,2.3,3.3c-0.7,0.2-1.2,0.5-1.8,1c-1.2,1-1.7,2.1-2,3.7
			c-0.1,1.1-0.1,1.9,0.3,2.9c0.4,0.9,0.8,1.4,1.6,2c0.6,0.5,1.2,0.8,2,0.9c0.1,0,0.2-0.1,0.3-0.2l2.5-2.3c0.1-0.1,0.1-0.2,0.3-0.2
			c0.1,0,0.3,0.1,0.3,0.2l2.5,2.3c0.1,0.1,0.2,0.2,0.3,0.2c0.2,0,0.3-0.1,0.4-0.2l2.5-2.5c0.1-0.1,0.2-0.2,0.2-0.3
			c0-0.1-0.1-0.2-0.1-0.3l-0.3-0.3c-0.1,0-0.1-0.1-0.2-0.1c-0.1,0-0.2,0.1-0.3,0.1l-0.4,0.4c-0.1,0-0.1,0.1-0.2,0.1
			c-0.1,0-0.1-0.1-0.2-0.1l-0.1-0.2c-0.1-0.1-0.2-0.2-0.2-0.3c-0.1-0.1-0.1-0.2-0.1-0.3v-9.2c0-0.1,0-0.2,0-0.3
			c0-0.1,0.1-0.1,0.1-0.2l2.4-2.4C110.9,47.2,111,47.1,111,47z M104.1,58.9c0,0.7-0.9,1-1.7,1c-1,0-1.5-0.8-1.9-1.7
			c-0.4-0.9-0.3-2,0.3-2.9c0.7-1,2-1.7,2.9-1.3c0.2,0.1,0.3,0.3,0.3,0.5V58.9z"/>
		<path d="M119.5,49.7l-2.3,3.2l-0.9,0.1c-0.1,0-0.2-0.1-0.3-0.2c-0.1-0.1-0.1-0.2-0.1-0.2V49c0.4,0.3,1,0.7,1.7,0.8
			C118.3,49.9,118.8,49.9,119.5,49.7z M123.3,44c-0.1-0.2-0.4-1.2-1.2-1.5c-0.1,0-1.2-0.3-1.4,0c-0.2,0.3,0,0.4,0.3,0.7
			c0.7,0.6,1.4,1.2,1.4,2.2c0,0.9-0.4,1.6-1.2,1.8c-1,0.3-1.6-0.5-2-0.8l-0.2-0.2c-0.1-0.1-0.1-0.1-0.2-0.1c-0.1,0-0.2,0.1-0.3,0.1
			l-6.2,3.4c-0.1,0.1-0.1,0.1-0.2,0.2c0,0.1,0,0.2,0,0.3v4.3c0,0.1,0.1,0.3,0.1,0.3c0,0,0.1,0.1,0.2,0.1h3.7l-3.8,5.5
			c-0.8,0.6-1.6,2.3-1.7,3.3c-0.1,1.2,0,2.3,1,3c0.6,0.4,1.9,0.4,1.8,0c0-0.3-0.3-0.3-0.5-0.5c-0.8-0.7-1.3-1.3-1.3-2.4
			c0-1.6,1.7-2.5,3.4-2.7c1.6-0.1,3,1.1,3.8,2c0.1,0.1,0.1,0.4,0.3,0.4c0.1,0,0.2-0.1,0.3-0.2l3.4-3.2c0.1-0.1,0.1-0.2,0.1-0.3
			c0.1-0.1,0.1-0.2,0.1-0.4v-5.9c0-0.1-0.1-0.3-0.1-0.3c-0.1-0.1-0.2-0.1-0.3-0.1h-3.7l3.9-5.4C123.5,46.7,123.3,44.2,123.3,44z
			 M118.3,59.2c0,0.1,0,0.2-0.1,0.2c-0.1,0-0.1-0.1-0.2-0.1c-0.6-0.3-1-0.4-1.6-0.4c-0.9-0.1-1.5,0.1-2.3,0.4l3-4.4h1.2V59.2z"/>
		<path d="M148.3,52.4c-0.3-0.1-0.4-0.1-0.7-0.1c-0.2,0-0.4,0.1-0.6,0.1v-3.3c0.2,0.1,0.3,0.1,0.5,0.1c0.3,0,0.5-0.1,0.8-0.3V52.4z
			 M141.7,39c-1.4,0.5-2.3,0.8-3.8,1c-1.4,0.2-2.4-0.5-3.8-0.1c-1.2,0.3-2.1,0.7-2.8,1.6c-0.9,1.2-1.1,2.4-0.6,3.8
			c0.7-1,1.4-1.6,2.6-2c1.3-0.5,2.6,0,3.6-0.1c0.4-0.1,0.7-0.3,1-0.6L141.7,39z M133.4,52.7v-3.1c-0.6,0-1,0.1-1.5,0.4
			c-0.8,0.5-1.6,1.8-1.4,3c0.4-0.2,0.8-0.3,1.3-0.4C132.4,52.6,132.8,52.6,133.4,52.7z M155.5,39.8c0-0.1-0.1-0.2-0.1-0.2l-0.5-0.4
			c0,0-0.1-0.1-0.2-0.1c-0.1,0-0.1,0.1-0.2,0.1l-2.1,2c-0.1,0-0.2,0.1-0.3,0.1c-0.1,0-0.2-0.1-0.2-0.1l-2.1-1.9c0,0-0.1-0.1-0.2-0.1
			c-0.1,0-0.2,0.1-0.3,0.1l-3.1,3.1c-0.1,0.1-0.1,0.3-0.2,0.3c-0.1,0-0.2-0.1-0.2-0.2l-3.2-3.1c-0.1-0.1-0.2-0.1-0.3-0.1
			c-0.1,0-0.2,0.1-0.3,0.2l-7.5,7.2c-0.3,0.3-0.4,0.5-0.5,0.9c-0.2,0.5-0.3,0.8-0.3,1.3v8.3c0,0.5-0.1,0.8-0.3,1.2
			c-0.2,0.5-0.4,0.8-0.8,1.2c1.4,0.1,2.5-0.4,3.4-1.4c0.5-0.6,1-1.1,1-1.9v-10c0-0.3,0.2-0.5,0.3-0.8c0.1-0.2,0.2-0.4,0.3-0.5
			l1.4-1.4c0.1-0.1,0.3-0.3,0.5-0.3c0.4,0,1,0.3,1,0.7v4.3c-0.1,0.3-0.4,0.5-0.7,0.5c-0.3,0-0.5-0.2-0.6-0.4v-3.6h-1.3V57
			c0,0.5-0.3,0.9-0.5,1.4c-0.8,1.3-2.4,1.5-3.5,2c-1.2,0.5-2.3,1.6-2.8,2.5c-0.5,0.8-1,2.5-0.5,3.7c0.8,1.6,2.4,2.2,4.1,1.8
			c1.4-0.3,1.7-1.1,2-2.2c-0.3,0.7-1.5,0.9-1.8,0.9c-0.8-0.1-1.4-0.7-1.3-1.5c0.1-1.7,2.1-2.2,3.3-3.3c1.3-1.1,2.3-2.1,2.3-3.8v-4.6
			c0.2-0.2,0.4-0.3,0.7-0.3c0.3,0,0.5,0.1,0.6,0.3v5.7c0,0.1,0,0.3-0.1,0.4c0,0.1-0.1,0.2-0.2,0.2l-2.4,2.2
			c-0.1,0.1-0.1,0.2-0.1,0.3c0,0.1,0,0.1,0,0.2l0.5,0.5c0,0,0.1,0.1,0.2,0.1c0.1,0,0.2-0.1,0.2-0.1l2.3-2.1c0.1,0,0.2-0.1,0.3-0.1
			c0.1,0,0.3,0.1,0.3,0.1l2,1.9c0,0.1,0.2,0.2,0.3,0.2c0.2,0,0.3-0.1,0.4-0.2l2.5-2.5c0.1,0,0.2-0.1,0.2-0.3c0-0.1-0.1-0.2-0.1-0.3
			l-0.3-0.2c-0.1-0.1-0.1-0.2-0.2-0.2c-0.1,0-0.2,0.1-0.2,0.1l-0.3,0.3c0,0.1-0.1,0.2-0.2,0.2c-0.1,0-0.1-0.1-0.2-0.1l-0.1-0.2
			c-0.1-0.1-0.1-0.1-0.1-0.2c-0.1-0.1-0.2-0.1-0.2-0.2V44.9c0-1,0.6-2.1,1.6-2.1c0.9,0,1.8,0.7,1.8,1.6v3.6
			c-0.2,0.2-0.4,0.3-0.7,0.3c-0.2,0-0.4-0.1-0.6-0.2v-3.8h-1.3v14.9h1.3v-5.6c0.1-0.2,0.4-0.3,0.7-0.3c0.3,0,0.5,0.1,0.6,0.4v6
			c0,0.3,0.1,0.5,0.2,0.7c0.1,0.1,0.2,0.3,0.3,0.3l2.6,2.5c0,0.1,0.2,0.2,0.3,0.2c0.2,0,0.3-0.1,0.4-0.2l2.6-2.5
			c0.1-0.1,0.1-0.1,0.1-0.2c0-0.1,0-0.2-0.1-0.2l-0.3-0.3c-0.1,0-0.1-0.1-0.2-0.1c-0.1,0-0.1,0.1-0.2,0.1l-0.4,0.3
			c-0.1,0-0.2,0.1-0.3,0.1c-0.1,0-0.1-0.1-0.1-0.1c-0.1-0.1-0.2-0.2-0.3-0.3c-0.1-0.1-0.1-0.1-0.1-0.2V42.9c0-0.1,0-0.3,0-0.3
			c0.1-0.1,0.1-0.2,0.2-0.2l2.3-2.3C155.5,40,155.5,39.9,155.5,39.8z M140.4,52.8c-0.3-0.1-0.4-0.1-0.7-0.1c-0.2,0-0.4,0.1-0.6,0.2
			v-3.3c0.2,0.1,0.3,0.1,0.5,0.1c0.3,0,0.5-0.1,0.8-0.3V52.8z"/>
		<path d="M162.9,59.3c0,0.2,0.1,0.4-0.1,0.5c-0.1,0.1-0.3-0.2-0.4-0.3l-1.6-1.7c0-0.1-0.1-0.1-0.1-0.2c0-0.1-0.1-0.3-0.1-0.4v-7.4
			c0-0.2,0-0.6,0.2-0.6c0.1,0,0.1,0,0.2,0.1l1.6,1.5c0.1,0.1,0.2,0.2,0.2,0.3c0.1,0.1,0.1,0.3,0.1,0.5V59.3z M167,59.3v-9.2
			c0-0.2,0-0.3,0-0.4c0-0.1-0.1-0.3-0.2-0.3l-3.3-3.3c-0.1-0.1-0.2-0.2-0.3-0.2c-0.1,0-0.2,0.1-0.3,0.1l-5.8,3.2
			c-0.1,0.1-0.1,0-0.3,0.3c-0.2,0.2-0.1,0.2-0.1,0.4l0,9.7c0,0.1-0.1,0.3-0.2,0.4c0,0.1-0.1,0.2-0.1,0.2l-2.4,2.2
			c-0.1,0.1-0.1,0.2-0.1,0.3c0,0.1,0,0.1,0,0.2l0.5,0.5c0,0,0.1,0.1,0.2,0.1c0.1,0,0.2-0.1,0.3-0.1l2.3-2.1c0.1,0,0.2-0.1,0.3-0.1
			c0.1,0,0.2,0.1,0.3,0.1l2,1.9c0.1,0.1,0.2,0.2,0.3,0.2c0.1,0,0.3-0.1,0.4-0.2l6.4-3.2c0.1-0.1,0.1-0.2,0.2-0.3
			C167,59.5,167,59.4,167,59.3z"/>
		<path d="M178.1,50.7c-0.1-0.7-0.9-1.3-1.3-1.4c-0.8-0.1-1.2,0.5-2,0.5c-0.3,0-0.5,0-0.8,0l0,9.6c0,0.1,0.1,0.1,0.1,0.2
			c0,0.1,0.1,0.2,0.2,0.2l0.3,0.3c0,0.1,0.1,0.1,0.1,0.1c0.1,0,0.2-0.1,0.2-0.2l0.8-0.7c0.1,0,0.1-0.1,0.3-0.1
			c0.1,0,0.1,0.1,0.2,0.1l0.3,0.2c0.1,0.1,0.1,0.2,0.1,0.3c0,0.1-0.1,0.2-0.2,0.3l-2.9,2.7c-0.1,0.1-0.2,0.2-0.4,0.2
			c-0.1,0-0.2-0.1-0.3-0.2l-2-1.9c-0.1-0.1-0.2-0.1-0.3-0.1c-0.1,0-0.2,0.1-0.3,0.1l-2.3,2.1c-0.1,0-0.1,0.1-0.3,0.1
			c-0.1,0-0.2-0.1-0.2-0.1l-0.5-0.5c0,0,0-0.1,0-0.2c0-0.1,0-0.2,0.1-0.3l2.4-2.2c0,0,0.1-0.1,0.1-0.2c0.1-0.1,0.2-0.2,0.2-0.4l0-9
			c0-0.1,0-0.2,0-0.3s0-0.2-0.1-0.2l-0.6-0.6c0,0-0.1-0.1-0.1-0.1c-0.1,0-0.1,0-0.1,0l-0.5,0.4l-0.1,0c-0.1,0-0.1,0-0.1,0l-0.4-0.5
			c0,0-0.1-0.1-0.1-0.1c0-0.1,0.1-0.1,0.1-0.1l2.8-2.8c0.1-0.1,0.1-0.1,0.3-0.1c0.1,0,0.2,0.1,0.2,0.1l2.3,2.3
			c0.1,0,0.1,0.1,0.2,0.1c0.1,0,0.2-0.1,0.3-0.1l2.4-2.3c0.1-0.1,0.1-0.2,0.3-0.2c0.1,0,0.2,0.1,0.3,0.1c0.2,0.1,0.5,0.5,0.8,0.9
			c0.4,0.6,0.7,1,0.8,1.8C178.7,49.8,178.5,50,178.1,50.7z"/>
		<path d="M194.4,60.2l-2.7,2.7c-0.1,0.1-0.2,0.2-0.3,0.2c-0.1,0-0.3-0.1-0.4-0.2l-3-3c0,0-0.1-0.1-0.1-0.2c0-0.1-0.1-0.1-0.1-0.2
			v-9c0-0.1,0-0.1-0.1-0.3c0,0-0.1-0.1-0.1-0.1l-0.8-0.8c-0.1-0.1-0.1-0.1-0.3-0.1c-0.1,0-0.1,0-0.2,0c-0.1,0-0.4,0.3-0.4,0.3
			c0,0.1-0.3,0.2-0.3,0.3v9.5c0,0.1,0.1,0.1,0.1,0.2c0,0.1,0.1,0.2,0.2,0.2l0.2,0.2c0,0.1,0.1,0.1,0.2,0.1c0.1,0,0.1-0.1,0.2-0.2
			l0.3-0.3c0.1-0.1,0.2-0.1,0.3-0.1c0.1,0,0.1,0.1,0.2,0.1l0.4,0.3c0,0,0.1,0.1,0.1,0.2c0,0.1-0.1,0.2-0.1,0.2l-2.5,2.5
			c-0.1,0.1-0.2,0.2-0.4,0.2c-0.1,0-0.2-0.1-0.3-0.2l-2-1.9c-0.1-0.1-0.2-0.1-0.3-0.1c-0.1,0-0.2,0.1-0.3,0.1l-2.3,2.1
			c-0.1,0-0.1,0.1-0.3,0.1c-0.1,0-0.2-0.1-0.2-0.1l-0.5-0.5c0,0,0-0.1,0-0.2c0-0.1,0-0.2,0.1-0.3l2.4-2.2c0,0,0.1-0.1,0.1-0.2
			c0.1-0.1,0.2-0.2,0.2-0.4v-9.1c0-0.1,0-0.2,0-0.3c0-0.1-0.1-0.2-0.1-0.2l-0.6-0.6c0,0-0.1-0.1-0.1-0.1c-0.1,0-0.1,0-0.1,0
			l-0.5,0.4l-0.1,0c-0.1,0-0.1,0-0.1,0l-0.4-0.5c0,0-0.1-0.1-0.1-0.1c0-0.1,0.1-0.1,0.1-0.1l2.8-2.8c0.1-0.1,0.1-0.1,0.3-0.1
			c0.1,0,0.2,0.1,0.2,0.1l2.3,2.3c0.1,0,0.1,0.1,0.2,0.1c0.1,0,0.2-0.1,0.3-0.1l2.5-2.4c0.1,0,0.1-0.1,0.3-0.1
			c0.1,0,0.2,0.1,0.2,0.1l2.4,2.3c0.1,0.1,0.1,0.1,0.2,0.1c0.1,0,0.2,0,0.3-0.1l2.2-2.2c0,0,0.1-0.1,0.2-0.1c0.1,0,0.2,0,0.2,0.1
			l0.5,0.4c0,0,0.1,0.1,0.1,0.2c0,0.1-0.1,0.2-0.1,0.2l-2.3,2.4c0,0.1-0.1,0.1-0.2,0.2c0,0.1,0,0.3,0,0.3v9.6c0,0.1,0.1,0.1,0.1,0.2
			c0,0.1,0.1,0.2,0.2,0.2l0.3,0.3c0.1,0.1,0.1,0.1,0.2,0.1c0.1,0,0.2-0.1,0.2-0.2l0.8-0.7c0.1,0,0.1-0.1,0.2-0.1
			c0.1,0,0.2,0.1,0.2,0.1l0.3,0.2c0.1,0.1,0.1,0.2,0.1,0.3C194.5,60,194.4,60.1,194.4,60.2z"/>
		<path d="M200,43l-2.1,2c-0.1,0-0.1,0-0.2,0c-0.1,0-0.1,0-0.2,0l-1.7-1.8c-0.1-0.1-0.2-0.2-0.2-0.3c0-0.1,0.1-0.3,0.1-0.3l1.7-1.7
			c0.1-0.1,0.2-0.1,0.3-0.1c0.1,0,0.2,0,0.3,0.1l1.7,1.7c0.1,0.1,0.2,0.2,0.2,0.3C200,42.8,200,42.9,200,43z M202.7,60.2l-2.9,2.7
			c-0.1,0.1-0.2,0.2-0.4,0.2c-0.1,0-0.2-0.1-0.3-0.2l-2-1.9c-0.1-0.1-0.2-0.1-0.3-0.1c-0.1,0-0.2,0.1-0.3,0.1l-2.3,2.1
			c-0.1,0-0.1,0.1-0.3,0.1c-0.1,0-0.2-0.1-0.2-0.1l-0.5-0.5c0,0,0-0.1,0-0.2c0-0.1,0-0.2,0.1-0.3l2.4-2.2c0,0,0.1-0.1,0.1-0.2
			c0.1-0.1,0.1-0.2,0.1-0.4V51c0-0.1,0-0.1,0-0.3c0-0.1,0-0.1-0.1-0.2l-0.7-0.8c0,0-0.1-0.1-0.1-0.1c-0.1,0-0.1,0-0.1,0l-0.3,0.3
			l-0.1,0c-0.1,0-0.1,0-0.1,0l-0.5-0.5c0,0,0-0.1,0-0.2c0,0,0-0.1,0.1-0.1l3.3-3.2c0.1-0.1,0.2-0.1,0.3-0.1c0.1,0,0.2,0.1,0.2,0.1
			l2.2,2.6c0,0,0.1,0.1,0.1,0.3c0.1,0.2,0,0.2,0,0.3v10.2c0,0.1,0.1,0.2,0.2,0.2c0,0.1,0.1,0.2,0.2,0.2l0.3,0.3
			c0,0.1,0.1,0.1,0.1,0.1c0.1,0,0.2-0.1,0.2-0.2l0.8-0.7c0.1,0,0.1-0.1,0.3-0.1c0.1,0,0.1,0.1,0.2,0.1l0.3,0.2
			c0.1,0.1,0.1,0.2,0.1,0.3C202.9,60,202.7,60.2,202.7,60.2z"/>
		<path d="M217.3,60.2l-2.7,2.7c-0.1,0.1-0.2,0.2-0.3,0.2c-0.1,0-0.3-0.1-0.4-0.2l-3-3c0,0-0.1-0.1-0.1-0.2c0-0.1-0.1-0.1-0.1-0.2
			v-9c0-0.1,0-0.1-0.1-0.3c0,0-0.1-0.1-0.1-0.1l-0.8-0.8c-0.1-0.1-0.1-0.1-0.3-0.1c-0.1,0-0.1,0-0.2,0c-0.1,0-0.4,0.3-0.4,0.3
			c0,0.1-0.3,0.2-0.3,0.3v9.5c0,0.1,0.1,0.1,0.1,0.2c0,0.1,0.1,0.2,0.2,0.2l0.2,0.2c0,0.1,0.1,0.1,0.2,0.1c0.1,0,0.1-0.1,0.2-0.2
			l0.3-0.3c0.1-0.1,0.2-0.1,0.3-0.1c0.1,0,0.1,0.1,0.2,0.1l0.4,0.3c0,0,0.1,0.1,0.1,0.2c0,0.1-0.1,0.2-0.1,0.2l-2.5,2.5
			c-0.1,0.1-0.2,0.2-0.4,0.2c-0.1,0-0.2-0.1-0.3-0.2l-2-1.9c-0.1-0.1-0.2-0.1-0.3-0.1c-0.1,0-0.2,0.1-0.3,0.1l-2.3,2.1
			c-0.1,0-0.1,0.1-0.3,0.1c-0.1,0-0.2-0.1-0.2-0.1l-0.5-0.5c0,0,0-0.1,0-0.2c0-0.1,0-0.2,0.1-0.3l2.4-2.2c0,0,0.1-0.1,0.1-0.2
			c0.1-0.1,0.2-0.2,0.2-0.4v-9.1c0-0.1,0-0.2,0-0.3c0-0.1-0.1-0.2-0.1-0.2l-0.6-0.6c0,0-0.1-0.1-0.1-0.1c-0.1,0-0.1,0-0.1,0
			l-0.5,0.4l-0.1,0c-0.1,0-0.1,0-0.1,0l-0.4-0.5c0,0-0.1-0.1-0.1-0.1c0-0.1,0.1-0.1,0.1-0.1l2.8-2.8c0.1-0.1,0.1-0.1,0.3-0.1
			c0.1,0,0.2,0.1,0.2,0.1l2.3,2.3c0.1,0,0.1,0.1,0.2,0.1c0.1,0,0.2-0.1,0.3-0.1l2.5-2.4c0.1,0,0.1-0.1,0.3-0.1
			c0.1,0,0.2,0.1,0.2,0.1l2.4,2.3c0.1,0.1,0.1,0.1,0.2,0.1c0.1,0,0.2,0,0.3-0.1l2.2-2.2c0,0,0.1-0.1,0.2-0.1c0.1,0,0.2,0,0.2,0.1
			l0.5,0.4c0,0,0.1,0.1,0.1,0.2c0,0.1-0.1,0.2-0.1,0.2l-2.3,2.4c0,0.1-0.1,0.1-0.2,0.2c0,0.1,0,0.3,0,0.3v9.6c0,0.1,0.1,0.1,0.1,0.2
			c0,0.1,0.1,0.2,0.2,0.2l0.3,0.3c0.1,0.1,0.1,0.1,0.2,0.1c0.1,0,0.2-0.1,0.2-0.2l0.8-0.7c0.1,0,0.1-0.1,0.2-0.1
			c0.1,0,0.2,0.1,0.2,0.1l0.3,0.2c0.1,0.1,0.1,0.2,0.1,0.3C217.5,60,217.3,60.1,217.3,60.2z"/>
		<path d="M231.8,47.2l-2.2,2.3c0,0.1-0.1,0.2-0.1,0.2c0,0.1,0,0.2,0,0.3v8.9c0,0.1,0.1,0.2,0.1,0.3c0.4,1.3,1.7,1.4,1.9,3
			c0.1,0.9-0.3,1.6-1,2.2l-3.6,3.6c-0.1,0-0.1,0.1-0.3,0.1s-0.2-0.1-0.3-0.2l-0.6-0.4c-1.1-0.7-1.6-1.3-3.1-1.4
			c-1.2-0.1-3.2,0.3-4.5,1.5c1.1-2.5,3.1-3.9,5.9-4c1.9-0.1,3.1,0.3,4.6,1.4c0-0.4,0.3-0.7-0.3-1.4c-0.7-0.7-1.2-0.8-1.8-1.7
			c-0.6-1-1-1.7-1-2.9v-6.8c0-0.1,0-0.2-0.1-0.3c0-0.1-0.1-0.2-0.2-0.3l-2.3-1.8v9.5c0,0.1,0.1,0.1,0.1,0.2c0,0.1,0.1,0.2,0.1,0.2
			l0.5,0.5c0,0,0.1,0.1,0.1,0.1c0.1,0,0.2-0.1,0.2-0.2l0.5-0.4c0.1,0,0.1-0.1,0.2-0.1c0.1,0,0.2,0.1,0.2,0.1l0.3,0.3
			c0.1,0,0.1,0.1,0.1,0.3c0,0.1-0.1,0.2-0.2,0.3l-2.6,2.4c-0.1,0.1-0.2,0.2-0.4,0.2c-0.1,0-0.2-0.1-0.3-0.2l-2-1.9
			c-0.1-0.1-0.2-0.1-0.3-0.1c-0.1,0-0.2,0.1-0.3,0.1l-2.3,2.1c-0.1,0-0.1,0.1-0.3,0.1c-0.1,0-0.2-0.1-0.2-0.1l-0.5-0.5
			c0,0,0-0.1,0-0.2c0-0.1,0-0.2,0.1-0.3l2.4-2.2c0,0,0.1-0.1,0.1-0.2c0.1-0.1,0.2-0.2,0.2-0.4l0-9.3c0-0.2,0-0.4,0.1-0.5
			c0.1-0.1,0.2-0.3,0.3-0.4l4.8-3.2c0.1-0.1,0.3-0.1,0.4-0.1c0.2,0,0.3,0.1,0.4,0.2l3.2,2.2c0.1,0,0.2,0.2,0.3,0.2
			c0.1,0,0.3-0.1,0.4-0.2l1.9-1.8c0.1,0,0.2-0.2,0.3-0.2c0.1,0,0.2-0.1,0.3,0l0.5,0.4c0.1,0.1,0,0.2,0,0.2
			C232,47,231.8,47.1,231.8,47.2z"/>
		<path d="M252.3,50c-0.1,0.2-0.4,0.3-0.7,0.4c-0.4,0-0.7-0.1-1-0.4l-1.7-2.5c0.6,0.2,1.1,0.3,1.7,0.2c0.6-0.1,1.1-0.2,1.6-0.5V50z
			 M241.7,53.5v-3.1c-0.6,0-1,0.2-1.5,0.5c-0.9,0.5-1.6,1.8-1.4,3c0.5-0.2,0.8-0.3,1.3-0.4C240.7,53.4,241.1,53.4,241.7,53.5z
			 M258.4,40c-1.3,0.8-2.3,1-3.9,0.8c-1.3-0.1-2.4-1.4-3-1.6c-0.1-0.1-0.3-0.1-0.5-0.1c-0.3,0-0.5,0.2-0.6,0.3l-3.5,3.3
			c0,0-0.1,0.1-0.1,0.2c0,0.1,0,0.2,0.1,0.2l0.4,0.5c0,0.1,0.1,0.1,0.2,0.1c0.1,0,0.1,0,0.1,0l1.1-1c0.1-0.1,0.1-0.1,0.2-0.1
			c0.1,0,0.2,0.2,0.3,0.3c0.4,0.3,0.8,0.8,1.2,0.9c0.7,0.3,1.2,0.5,2,0.6v1.8c-0.6,0.4-1,0.5-1.7,0.6c-0.9,0.1-1.5,0-2.3-0.4l-3-4.6
			c-1-1.6-2.3-2.8-4.2-2.6c-1.3,0.1-2.3,0.5-2.9,1.7c-0.4,0.8-0.5,2.2,0.1,3.2c0-1.1,1-2.1,1.8-2.1c1.8,0,2.2,2.7,2.2,2.7l0,13.6
			c-0.8,0.1-1.4,0.2-2.1,0.7c-0.9,0.5-1.6,1.1-2,2.1c-0.6,1.3-0.5,3.3,0.1,4.3c1.6,2.8,4.5,2.4,5.3,2.1c0.6-0.2,0.7-0.4,1-0.8
			c-1.1,0.8-3.3-0.3-3.7-0.8c-1.2-1.7-0.1-3.4,1.4-3.7c1.1-0.2,2,0.2,3.1,1.1c0,0,0.1,0.1,0.1,0.1c0,0,0.1,0,0.1-0.1L249,60
			c0-0.1,0.1-0.1,0.1-0.2c0,0-0.1-0.1-0.1-0.1l-0.4-0.4c-0.1,0-0.1-0.1-0.2-0.1c-0.1,0-0.1,0.1-0.2,0.1l-0.8,0.6
			c-0.1,0-0.1,0.2-0.3,0.2c-0.1,0-0.2-0.1-0.2-0.2c-0.5-0.3-0.7-0.6-1.2-0.9c-0.6-0.4-1-0.5-1.7-0.7v-2.4c0.7-0.4,1.3-0.7,2.1-0.7
			c1-0.1,1.7,0,2.6,0.4l5.3,8.3V44.4c1.2,0,1.9-0.4,2.8-1.1C257.8,42.4,258.3,41.4,258.4,40z M245.4,50.7c-0.1,0.2-0.3,0.3-0.6,0.3
			c-0.3,0.1-0.6,0-0.9-0.2v-2.5L245.4,50.7z M252.3,52.6l-0.9-1.2c0.1,0,0.3,0,0.5,0c0.1,0,0.3-0.1,0.4-0.1V52.6z M247.9,54.4
			c-0.8-0.2-1.4-0.3-2.2-0.1c-0.7,0.1-1.2,0.3-1.8,0.6v-3.3c0.4,0.2,0.7,0.3,1.1,0.2c0.3-0.1,0.6-0.2,0.9-0.4L247.9,54.4z"/>
		<path d="M263.9,52.1c0,0.1,0,0.2-0.1,0.3l-1.8,1.8c-0.1,0.1-0.1,0.1-0.3,0.1c-0.1,0-0.2-0.1-0.2-0.2v-4.1c0-0.1,0-0.2,0.1-0.2
			c0.1,0,0.2,0.1,0.2,0.1l1.9,2C263.8,51.9,263.9,52,263.9,52.1z M267,50.1c0-0.2-0.2-0.4-0.3-0.5l-3.5-3.5
			c-0.1-0.1-0.2-0.2-0.3-0.2c-0.1,0-0.3,0-0.4,0l-6.4,3.8c0.4,0.1,0.8,0.3,0.9,0.5c0.1,0.1,0.4,0.4,0.4,0.6l0.1,8.7
			c0,0.1-0.1,0.3-0.2,0.4c0,0.1-0.1,0.2-0.1,0.2l-2.4,2.2c-0.1,0.1-0.1,0.2-0.1,0.3c0,0.1,0,0.1,0,0.2l0.5,0.5c0,0,0.1,0.1,0.2,0.1
			c0.1,0,0.2-0.1,0.3-0.1l2.3-2.1c0.1,0,0.2-0.1,0.3-0.1c0.1,0,0.2,0.1,0.3,0.1l2,1.9c0.1,0.1,0.2,0.2,0.3,0.2
			c0.1,0,0.3-0.1,0.4-0.2l4.2-4.2c0.1-0.1,0.2-0.2,0.2-0.3c0-0.1-0.1-0.2-0.1-0.3l-0.3-0.2c-0.1,0-0.1-0.1-0.2-0.1
			c-0.1,0-0.2,0.1-0.3,0.1l-2.1,2.1c0,0.1-0.1,0.2-0.2,0.2c-0.1,0-0.1-0.1-0.1-0.1l-0.2-0.2c-0.1-0.1-0.2-0.2-0.2-0.2
			c-0.1-0.2-0.4-0.4-0.4-0.6v-2.2c0-0.2-0.1-0.4,0-0.6c0-0.1,0.2-0.3,0.3-0.4l5-5.2C266.9,50.5,267,50.3,267,50.1z"/>
		<path d="M288,46.9l-2.3,2.5c0,0.1-0.1,0.1-0.2,0.2c-0.2,0.3-0.5,0.5-0.5,0.7l0,9.6l-6.2,3.2c-0.1,0.1-0.3,0.1-0.4,0.1
			c-0.1,0-0.3-0.1-0.4-0.2l-2.8-2.7c-0.1,0-0.2-0.1-0.3-0.1c-0.1,0-0.2,0.1-0.3,0.1l-2.6,2.5c-0.1,0.1-0.2,0.3-0.3,0.3
			c-0.1,0-0.2-0.1-0.3-0.1l-2-2c0-0.1-0.2-0.1-0.3-0.1c-0.1,0-0.2,0.1-0.3,0.1l-2.3,2.1c-0.1,0-0.1,0.1-0.3,0.1
			c-0.1,0-0.2-0.1-0.2-0.1l-0.5-0.5c0,0,0-0.1,0-0.2c0-0.1,0-0.2,0.1-0.3l2.4-2.2c0.1-0.1,0.2-0.1,0.2-0.2c0-0.1,0.1-0.2,0.1-0.3
			V46.4c0-0.4-0.1-0.7-0.3-1c-0.5-0.7-1.5-1.1-1.6-2.1c0-0.8,0.3-1.3,0.8-2c0.3-0.4,0.4-0.6,0.5-0.9c0.1-0.3,0.1-0.8,0.2-0.9
			c0.1,0,0.4,0.3,0.5,0.7c0.1,0.2,0.2,1.5,0.2,1.8c0.1,0.3,0.2,1.1,1.5,2.1c1,0.7,2.4,0.7,2.4,1.9v13.3c0,0.1,0.1,0.3,0.2,0.3
			c0.1,0.1,0.2,0.2,0.3,0.2l1.2-1c0.1,0,0.2-0.1,0.2-0.2c0-0.1,0.1-0.2,0.1-0.3v-8c0-0.1,0-0.1,0-0.2c0-0.1,0-0.2-0.1-0.2l-0.8-0.9
			c0-0.1-0.1-0.1-0.1-0.1c0,0-0.1,0-0.1,0l-0.1,0.1c0,0-0.1,0.1-0.1,0.1c0,0-0.1,0-0.1,0l-0.3-0.4c-0.1,0-0.1-0.1-0.1-0.1
			c0-0.1,0.1-0.1,0.1-0.1l2.5-2.5c0-0.1,0.1-0.1,0.3-0.1c0.1,0,0.2,0.1,0.2,0.1l2.8,2.7c0,0,0.1,0.1,0.1,0.1c0,0.1,0.1,0.1,0.1,0.2
			v9.8c0,0.1,0,0.1,0.1,0.1c0,0.1,0.1,0.1,0.1,0.2l1.7,1.4c0.1,0,0.1,0,0.2,0c0.1,0,0.1-0.2,0.1-0.3l0-9.8c0-0.1,0-0.1,0-0.2
			c0-0.1-0.1-0.2-0.1-0.2l-0.8-0.9c0-0.1-0.1-0.1-0.1-0.1c0,0-0.1,0-0.1,0l-0.1,0.1l-0.1,0.1c-0.1,0-0.1,0-0.1,0l-0.4-0.4
			c0,0,0-0.1,0-0.1c0-0.1,0.1-0.1,0.1-0.1l2.4-2.5c0-0.1,0.2-0.1,0.3-0.1c0.1,0,0.2,0.1,0.3,0.2l2.3,2.3c0.1,0.1,0.1,0.1,0.3,0.1
			c0.1,0,0.2,0,0.3-0.1l2.2-2.3c0,0,0.1-0.1,0.2-0.1c0.1,0,0.2,0.1,0.2,0.1l0.4,0.4c0.1,0,0.1,0.1,0.1,0.2S288,46.8,288,46.9z"/>
		<path d="M294.8,49.7l-2.3,3.2l-0.9,0.1c-0.1,0-0.2-0.1-0.3-0.2c-0.1-0.1-0.1-0.2-0.1-0.2V49c0.4,0.3,1,0.7,1.7,0.8
			C293.6,49.9,294.1,49.9,294.8,49.7z M298.5,44c-0.1-0.2-0.4-1.2-1.2-1.5c-0.1,0-1.2-0.3-1.4,0c-0.2,0.3,0,0.4,0.3,0.7
			c0.7,0.6,1.4,1.2,1.4,2.2c0,0.9-0.4,1.6-1.2,1.8c-1,0.3-1.6-0.5-2-0.8l-0.2-0.2c-0.1-0.1-0.1-0.1-0.2-0.1c-0.1,0-0.2,0.1-0.3,0.1
			l-6.2,3.4c-0.1,0.1-0.1,0.1-0.2,0.2c0,0.1,0,0.2,0,0.3v4.3c0,0.1,0.1,0.3,0.1,0.3c0,0,0.1,0.1,0.2,0.1h3.7l-3.8,5.5
			c-0.8,0.6-1.6,2.3-1.7,3.3c-0.1,1.2,0,2.3,1,3c0.6,0.4,1.9,0.4,1.8,0c0-0.3-0.3-0.3-0.5-0.5c-0.7-0.7-1.3-1.3-1.3-2.4
			c0-1.6,1.7-2.5,3.4-2.7c1.6-0.1,3,1.1,3.8,2c0.1,0.1,0.1,0.4,0.3,0.4c0.1,0,0.2-0.1,0.3-0.2l3.3-3.2c0.1-0.1,0.1-0.2,0.1-0.3
			c0.1-0.1,0.1-0.2,0.1-0.4v-5.9c0-0.1-0.1-0.3-0.1-0.3c-0.1-0.1-0.2-0.1-0.3-0.1h-3.7l3.9-5.4C298.7,46.7,298.6,44.2,298.5,44z
			 M293.6,59.2c0,0.1,0,0.2-0.1,0.2c-0.1,0-0.1-0.1-0.2-0.1c-0.6-0.3-1-0.4-1.6-0.4c-0.9-0.1-1.5,0.1-2.3,0.4l3-4.4h1.2V59.2z"/>
	</g>
</g>
<g id="Layer_1">
</g>
</svg>
