<?xml version="1.0" encoding="utf-8"?>
<!-- Generator: Adobe Illustrator 18.0.0, SVG Export Plug-In . SVG Version: 6.00 Build 0)  -->
<!DOCTYPE svg PUBLIC "-//W3C//DTD SVG 1.1//EN" "http://www.w3.org/Graphics/SVG/1.1/DTD/svg11.dtd">
<svg version="1.1" xmlns="http://www.w3.org/2000/svg" xmlns:xlink="http://www.w3.org/1999/xlink" x="0px" y="0px"
	 viewBox="0 0 300 100" style="enable-background:new 0 0 300 100;" xml:space="preserve">
<style type="text/css">
	.st0{fill-rule:evenodd;clip-rule:evenodd;}
	.st1{fill-rule:evenodd;clip-rule:evenodd;fill:#C038F9;}
	.st2{fill:none;}
	.st3{fill-rule:evenodd;clip-rule:evenodd;fill:#231F20;}
</style>
<g id="Layer_2">
</g>
<g id="Layer_1">
	<g>
		<path d="M204.5,41.5c1.9,1.6,3.4,3.1,5.1,4.3c2.5,1.8,5.3,2.8,8.4,2.5c1.3-0.1,2.3-0.4,2.8-1.7c0-1.4-0.9-2-2-2.5
			c-1.6-0.7-3.2-1.3-4.8-2c-2.7-1.2-5.2-2.8-7.2-5.2c-2.6-3-3.2-6.5-2.7-10.2c1.2-8.4,8-12.9,14.3-13.9c6.5-1.1,12.7-0.5,18.6,2.6
			c1.3,0.7,2.5,1.6,4,2.5c-2.1,3.9-4.2,7.6-6.5,11.3c-3.5-2.2-6.6-5.3-11.3-4.5c-0.4,0.4-0.9,1-1.3,1.4c-0.1,1.7,0.7,2.5,1.8,3
			c1.5,0.7,3,1.4,4.5,2.1c3.2,1.4,6.2,3.2,8.5,6.3c0.3-1.1,0.5-2.1,0.7-3.1c1.3-8.1,5.9-14,12.8-18c3.6-2.1,7.6-3.1,11.9-3.2
			c5.7-0.1,10.9,1.2,15.5,4.4c7.2,5,11,12,11.2,20.8c0.2,7.2-2.4,13.4-7.3,18.5c-3.4,3.5-7.6,5.9-12.4,7c-7,1.5-13.7,0.7-19.9-3.1
			c-0.4-0.2-0.7-0.4-1.3-0.7c-0.4,2.4-1,4.6-3.9,5.8c-0.9,0-2.2,0.1-3.6,0.2c-0.1,0.7-0.3,1.5-0.4,2.4c-0.6,0.7-1.3,1.7-2.1,2.5
			c-7,7-14.1,13.9-21.1,20.9c-0.6,0.6-1.1,1.2-1.5,1.7c-1,0.4-1.8,0.6-2.6,0.9c-0.4-0.2-0.8-0.3-1.2-0.4c-2.9-0.7-3.3-4.6-1.3-6.5
			c2.4-2.2,4.6-4.6,6.9-6.9c5.4-5.3,10.8-10.6,16.2-15.9c1.1-1.1,2.3-1.8,3.9-1.7c0.4-5.5,0.5-5.7,5.5-7.6c-1.5-2.5-3-5.1-4.6-7.8
			c-0.1,0.5-0.2,0.9-0.4,1.3c-1.4,4.3-4,7.6-8,9.8c-5,2.7-10.2,3.6-15.8,2.8c-6.2-0.9-11.5-3.5-16.4-7.3c-0.3-0.3-0.6-0.6-1.1-1
			C199.1,49.4,201.8,45.5,204.5,41.5z M258.5,15.1c-0.6,0-1.2,0-1.8,0.1c-12.8,3.4-20.3,15.8-18.1,27.6c0.9,4.9,2.9,9.2,6.3,12.7
			c6.2,6.2,13.7,8.8,22.5,7.2c13-2.3,22.1-15.3,19.4-28.2c-2.1-10.2-8.4-16.4-18.2-19.4c-0.5-0.1-1.1,0-1.8,0c0.4,0.8,0.8,1.4,1.1,2
			c2.2,4.8,3.1,9.8,1.1,14.9c-0.7,1.8-1.6,3.5-2.3,5.2c-0.8,1.8-1.5,3.7-2.2,5.5c-0.4,1.1-0.6,2.2,0.1,3.3c1.2-0.3,1.1-1.1,1.3-1.9
			c0.8-4.5,2.9-8.3,6.2-11.4c1.3-1.3,2.9-2.3,4.7-2.8c3.8-1,7,0.3,8.1,4.4c0.5,1.7,0.5,3.3,0.3,5.2c-1.7-4.5-5.7-4.9-8.6-3
			c-3.4,2.2-5.6,5.3-6.7,9c0.7,0.8,1.3,1.5,1.8,2c-0.2,1.7-1.3,2-2.7,2.2c0.4,1.9,0.8,3.6,1.2,5.3c-2.6-1.1-2.8-1.3-4.6-5.4
			c-0.3,0.1-0.7,0.1-1.3,0.3c0.7,1.8,1.3,3.4,2,5c-0.3,3.6-1.4,5.2-4,5.7c-2.1-1.4-2.9-3.4-2.9-5.8c0.4-0.9,0.8-1.6,1-2.4
			c0.3-0.8,0.5-1.7,0.8-2.7c-0.5,0-0.8,0-1.1,0c-2.2,4.5-2.5,4.8-5,5.3c0.9-1.6,1.7-3.2,1.2-5.2c-1.1-0.4-2.3-0.7-2.3-2.4
			c0.5-0.5,1.2-1.1,1.9-1.7c-0.8-2.5-2-4.7-3.7-6.7c-1.2-1.4-2.7-2.5-4.5-3.1c-2.3-0.8-4.5-0.3-5.9,1.4c-0.5,0.6-0.9,1.4-1.4,2.3
			c0-1.3-0.1-2.4,0-3.4c0.4-3.4,2.3-7.2,7.7-6.3c0.8,0.1,1.6,0.4,2.3,0.8c2,1,3.7,2.5,5.1,4.3c2.2,2.9,3.8,6.1,4.2,9.7
			c0.1,0.8,0.2,1.5,1.2,1.5c0.7-0.7,0.4-1.6,0.2-2.4c-0.3-1.1-0.6-2.3-1-3.3c-1.1-2.5-2.2-5-3.3-7.5c-1.6-3.7-1.9-7.5-0.7-11.4
			C256.7,19.3,257.6,17.4,258.5,15.1z M213.9,93c0.3-0.2,0.5-0.4,0.8-0.6c7.7-7.7,15.4-15.4,23.1-23.1c0.6-0.6,1-1.3,1.3-2.1
			c0.1-0.3-0.1-0.7-0.2-1.2c-3,2.8-5.8,5.5-8.6,8.2c-5,5-10,10-15,14.9c-0.6,0.6-1.3,1.2-1.7,1.6c-1.6,0.5-2.5-0.3-3.4-1.3
			c-0.7,1.9,0.3,2.7,1.4,3.5c0.4,0,0.9,0.1,1.3,0.1C213.2,93.1,213.6,93,213.9,93z M246.1,62.7c0.3-2.9,0.3-2.9-0.7-3.9
			c-0.3,2.2-0.3,2.2-1.5,4c-1.4,1.1-2.9,1-4.7,0.7C242,65.9,243.8,65.6,246.1,62.7z"/>
		<path d="M181.6,13.3c5.7,0,11.2,0,16.7,0c0,0,0.1,0.1,0.2,0.2c0,0.1,0.1,0.1,0.1,0.2c0,0.2,0.1,0.3,0,0.5
			c-2.9,15.4-5.8,30.9-8.7,46.3c-1.8,0.6-13.6,0.6-17.5,0c-3.1-7.8-5.6-15.9-8.9-24.2c-1.5,8.5-2.9,16.4-4.3,24.5
			c-5.8,0-11.4,0-17,0c-0.1-0.1-0.1-0.1-0.2-0.2c0-0.1-0.1-0.2-0.1-0.2c0-0.2,0-0.5,0-0.7c2.9-15.3,5.8-30.7,8.7-46.3
			c1.8-0.3,3.7-0.1,5.6-0.1c1.9,0,3.8,0,5.7,0c1.9,0,3.8,0,6,0c1.5,4,3,8,4.4,12c1.4,4,2.8,8.1,4.2,12.4c0.2-0.4,0.5-0.6,0.6-0.9
			c1.2-6.1,2.3-12.2,3.5-18.3C181.1,16.8,181.3,15.1,181.6,13.3z"/>
		<path d="M134.2,60.8c-11.5,0-22.8,0-34.2,0c2.9-15.9,5.9-31.7,8.8-47.5c11.1,0,21.9,0,32.7,0c-0.8,4.1-1.5,8.2-2.3,12.3
			c-5.4,0.2-10.5,0-15.7,0.1c-0.3,1.7-0.6,3.1-0.9,4.6c1.7,0.7,3.2,0.3,4.8,0.4c1.7,0.1,3.3,0,5,0c1.6,0,3.1,0,5,0
			c-0.7,4-1.4,7.8-2.2,11.8c-5,0-9.8,0-14.7,0c-0.4,1.8-0.7,3.5-1.1,5.4c0.7,0.1,1.3,0.2,1.9,0.2c4.2,0,8.5,0,12.7,0
			c0.8,0,1.6,0,2.5,0C135.8,52.5,135,56.6,134.2,60.8z"/>
		<path d="M71.7,13.3c5.8,0,11.3,0,17.1,0c-0.1,2.9-0.8,5.6-1.4,8.3c-0.6,2.8-1,5.5-1.6,8.3c-0.5,2.7-1,5.4-1.5,8
			c-0.5,2.8-1,5.5-1.5,8.4c1.7,0.6,3.3,0.3,4.9,0.3c1.6,0.1,3.2,0,4.7,0c1.6,0,3.3,0,5.1,0c-0.9,4.8-1.7,9.4-2.6,14
			c-1.9,0.4-28.9,0.5-32.2,0.1c1.1-7.9,2.9-15.7,4.2-23.6C68.5,29.2,70.1,21.3,71.7,13.3z"/>
		<path d="M24.5,40.9c1.3-9.2,2.9-18.2,4.3-27.3c1.2-0.6,2.4-0.3,3.6-0.3c1.2-0.1,2.5,0,3.9,0c-0.5,3.3-1,6.5-1.5,9.6
			c1.3,0.6,2.4,0.4,3.6,0.2c0.6-3.3,1.1-6.5,1.7-9.7c2.5,0,4.8,0,7.4,0c-1.5,9.2-2.9,18.4-4.4,27.5c-2.6,0-4.9,0-7.4,0
			c0.4-3.6,1.3-7,1.5-10.7c-1.2,0-2.3,0-3.4,0c-0.6,3.6-1.2,7.2-1.8,10.7C29.3,40.9,27,40.9,24.5,40.9z"/>
		<path d="M46.7,40.9c0.8-4.7,1.5-9.2,2.3-13.8c0.7-4.6,1.4-9.1,2.1-13.8c4.6,0,9,0,13.6,0c-0.3,2-0.7,4-1,6.1c-1.9,0-3.9,0-6,0
			c-0.2,1.4-0.4,2.6-0.7,3.9c1.7,0.8,3.5,0,5.4,0.6c-0.2,1.7-0.5,3.5-0.7,5.5c-1.9,0.2-3.7,0.3-5.6,0.5c-0.3,1.5-0.5,2.7-0.7,3.9
			c2,0.8,3.9,0.1,5.9,0.6c0,2.2-0.6,4.3-1,6.5C55.7,40.9,51.4,40.9,46.7,40.9z"/>
		<path d="M9.2,41c0.6-3.6,1.1-7,1.6-10.5c0.5-3.4,1.1-6.8,1.7-10.4c-1.7,0-3.1,0-4.7,0c0.4-2.3,0.7-4.4,1-6.5
			c1.8-0.5,13-0.6,17-0.2c-0.3,2.1-0.7,4.2-1,6.5c-1.5,0.1-3,0.2-4.7,0.2c-1.1,6.9-2.2,13.8-3.4,20.8c-1.3,0-2.5,0-3.7,0
			C11.7,41,10.5,41,9.2,41z"/>
		<path d="M85.6,66.7c0.9,0.2,1.6,0.4,2.4,0.7c0.5,1.4,0.7,2.8-0.2,4c-0.7,1-1.8,1.3-3.1,1C85,70.5,85.3,68.7,85.6,66.7z"/>
		<path d="M163.9,67.1c0.3,0.7,0.5,1.2,0.7,1.5c-0.7,3.4-0.9,3.7-3.5,3.6c-0.5-1.7,0.5-3.3,0.5-5.1
			C162.4,67.1,163.1,67.1,163.9,67.1z"/>
		<path d="M107,69.4c0.3-0.9,0.5-1.7,0.8-2.6c0.1,0,0.2,0,0.3,0c0.1,0.3,0.3,0.8,0.2,1c-0.6,1.5,0,3.3-1.4,4.9
			c-0.4-1.3-0.7-2.4-1.2-3.7c-0.4,1.4-0.8,2.4-1.1,3.5c-0.2-0.1-0.3-0.1-0.5-0.2c0.3-1.8,0.6-3.6,1-5.8c0.5,0.5,1,0.7,1.1,1.1
			c0.2,0.5,0.2,1.1,0.3,1.7C106.6,69.3,106.8,69.4,107,69.4z"/>
		<path d="M153.1,71.2c-0.6,0.5-1.1,0.8-1.5,1.1c-0.5-0.6,1.1-4.6,2.3-5.6c1.3,1.8,0.6,3.7,0.8,6C154.1,72.1,153.7,71.7,153.1,71.2z
			"/>
		<path d="M126,72.4c0.1-1.9-0.2-3.9,0.8-5.8c0.8,0.2,1.5,0.5,2.1,0.7c0.8,1.5-0.2,2-0.9,2.6c0.2,0.8,0.4,1.6,0.6,2.5
			c-1.5,0-0.9-1.4-1.5-2.1C126.7,71,126.3,71.7,126,72.4z"/>
		<path d="M156.1,72.8c-0.4-2.1,0.4-3.8,0.4-5.4c0-0.3,0.2-0.6,0.3-0.9c0.2,0.1,0.4,0.2,0.6,0.3c0.3,1,0.6,2,1,3.2
			c0.3-1.1,0.6-2.1,1-3.5c0.5,2.3-0.1,4.1-0.5,5.9c-1-0.8-1-0.8-1.5-3.1C156.2,69.9,157.2,71.4,156.1,72.8z"/>
		<path d="M143.6,70.1c0.3-1.3,0.5-2.3,0.8-3.2c0.7,1.9-0.1,3.6-0.2,5.5c-1-0.1-1-0.8-1.2-1.4c-0.1-0.6,0-1.4-1-1.7
			c-0.1,1.1-0.3,2.1-0.4,3.4c-1-0.7-0.7-1.6-0.5-2.1c0.6-1.2-0.2-2.9,1.4-3.9C142.8,67.7,143.1,68.7,143.6,70.1z"/>
		<path d="M139.6,72.6c-0.6-0.5-0.9-0.8-1.4-1.3c-0.7,0.4-1.2,0.8-1.9,1.2c1.4-5.1,1.4-5.1,2.8-5.7
			C139.7,68.6,139.9,70.5,139.6,72.6z"/>
		<path d="M99.1,70c0.7-1.1,0-2.4,1.1-3.3c0.4,2.1-0.5,3.8-0.6,5.7c-0.4-0.1-0.6-0.1-0.8-0.2c-0.3-1-0.7-2-1-3.1
			c-0.9,1.1,0,2.5-1.2,3.3c-0.5-1.9,0.5-3.5,0.4-5.2c0.4-0.1,0.6-0.1,0.9-0.2C98.3,68,98.7,68.9,99.1,70z"/>
		<path d="M209.3,66.7c0.6,0.1,0.9,0.1,1.3,0.2c0,1.7,0,3.4,0,5.3c-0.4-0.2-0.8-0.5-1.4-0.8c-0.6,0.4-1.1,0.7-2,1.4
			C208,70.4,208.6,68.6,209.3,66.7z"/>
		<path d="M121.3,72c-0.8-2.9-0.4-4.2,2-5.4c0.4,0.3,0.9,0.7,1.3,1C124.8,71.5,123.8,72.8,121.3,72z M122.2,71.6
			c1.5-0.5,1.6-1.7,1.7-2.8c0-0.7-0.3-1.3-1.3-1.2C121.7,68.9,121.4,70.1,122.2,71.6z"/>
		<path d="M203.6,67.6c0.5-0.3,1-0.6,1.6-0.9c0.4,0.2,0.9,0.4,1.4,0.6c0.3,1.2,0.4,2.5,0,3.7c-0.4,1-1.1,1.6-2.4,1.5
			C201.9,71.1,203.3,69.3,203.6,67.6z M205.6,67.5c-2.1,1.5-2.3,2.8-0.8,4.2C206.3,70.5,205.9,69.1,205.6,67.5z"/>
		<path d="M172.1,66.9c0.1,0.7,0.2,1.4,0.2,2.1c0.5,0,0.8,0,1.2,0c0.2-0.7,0.4-1.4,0.5-2.1c0.2,0,0.4,0,0.4,0.1
			c0.3,1.9-0.4,3.6-1.1,5.4c0-0.7-0.1-1.4-0.1-2.2c-0.5,0-0.8,0-1.3,0c-0.1,0.8-0.3,1.5-0.4,2.1c-0.2,0-0.5,0-0.5,0
			C170.7,70.4,171.4,68.6,172.1,66.9z"/>
		<path d="M92.6,72.4c-1.5-1.7-1.5-1.7-0.4-4.9c0.4-0.2,1-0.6,1.6-0.9c0.5,0.4,0.9,0.7,1.4,1c0,1.1,0,2,0,2.9
			C94.7,71.6,94.1,72.6,92.6,72.4z M94.1,67.4c-1.6,0.8-1.8,2-1.7,3.2c0,0.7,0.4,1.1,1.2,0.9C94.6,70.4,94.7,69.1,94.1,67.4z"/>
		<path d="M76.5,66.9c-0.2,1.8,0,3.7-1.1,5.4c-0.8,0-1.5,0-2.2,0c-0.8-2,0.2-3.7,0.4-5.5c0.9,0.3,0.7,0.9,0.6,1.4
			c-0.2,1.1-0.7,2.2-0.1,3.3c1.1,0.1,1.2-0.7,1.3-1.4C75.6,68.9,75.6,67.8,76.5,66.9z"/>
		<path d="M186.9,71.5c0.5,0,0.8,0,1.2,0c0.4-1.6,0.7-3.1,1.1-4.7c0.9,1.6-0.2,3.1-0.1,4.5c-0.9,1.3-1.8,1.5-3.1,0.7
			c-0.3-1.8,0.5-3.4,0.6-5.2c0.2,0,0.4,0.1,0.7,0.1C187.2,68.3,187,69.8,186.9,71.5z"/>
		<path d="M66.6,66.7c0.4,0.2,0.7,0.4,1.1,0.6c0.3,1.3,0.4,2.6-0.2,3.9c-0.4,1-1.3,1.5-2.6,1.1c-0.3-0.5-0.6-1-0.9-1.5
			C64.6,69.2,64.2,67.3,66.6,66.7z M65.9,71.7c1.5-1,1.1-2.4,1.5-3.5c-0.4-0.3-0.6-0.5-0.9-0.8c-1.3,0.8-1.2,2.1-1.5,3.2
			C65.2,71.1,65.5,71.3,65.9,71.7z"/>
		<path d="M183.4,66.6c0.5,0.4,0.9,0.7,1.4,1c0,0.1-0.1,0.2-0.1,0.3c-0.5-0.1-1-0.2-1.5-0.3c-0.8,1.1-0.8,1.1-1.1,3.2
			c0.2,0.2,0.4,0.5,0.7,0.8c0.4-0.3,0.8-0.5,1.1-0.8c-0.1-0.5-0.1-0.9-0.2-1.4c0.4,0,0.7,0,1,0.1c0,1.3,0,1.3-0.8,2.6
			c-0.6,0-1.3,0-1.9,0C180.8,69.2,181.2,68.1,183.4,66.6z"/>
		<path d="M82.1,66.7c0.8,0.1,1.4,0.1,2.2,0.2c-0.8,0.6-1.3,1.1-2,1.7c0.6,0.4,1,0.6,1.5,1c-0.6,0.3-1,0.6-1.7,0.9
			c0.4,0.6,0.7,1.1,1.2,1.8c-0.8,0.1-1.4,0.1-2.2,0.2C81.5,70.5,81.8,68.7,82.1,66.7z"/>
		<path d="M213.8,66.7c0.4,0.2,0.8,0.4,1.5,0.7c-0.8,0.3-1.3,0.5-2,0.7c0.4,1.2,1.8,2,1.2,3.4c-1.5,1.2-1.5,1.2-3-0.2
			c0.6,0.1,0.8,0.2,1.1,0.2c0.3,0,0.6-0.1,0.9-0.2c0.2-1.3-0.9-1.8-1.2-2.7C212.2,67.7,212.8,67.2,213.8,66.7z"/>
		<path d="M176.4,66.7c0.8,0,1.3,0.1,1.7,0.1c0.1,0.1,0.2,0.3,0.3,0.4c-0.7,0.3-1.3,0.5-2.2,0.9c0.9,0.8,1.2,1,1.5,1.2
			c-0.4,0.6-0.8,1.2-1.3,1.8c0.6,0.3,0.9,0.6,1.8,1.1c-1.3,0-2,0-2.7,0C175.8,70.5,176.1,68.7,176.4,66.7z"/>
		<path d="M78.3,67.3c0.3-0.1,0.8-0.4,1.3-0.7c0.3,0.3,0.6,0.6,0.9,0.9c-0.6,0.2-1.1,0.4-1.7,0.6c0.6,1,1.1,1.8,1.5,2.7
			c-0.5,1.4-1.3,1.8-3.1,1.3c0.8-0.4,1.4-0.7,1.9-1c0-0.3,0.1-0.5,0-0.6C78.5,69.6,77.4,68.9,78.3,67.3z"/>
		<path d="M135.6,72.3c-1.1,0-1.7,0-2.6,0c0.3-1.9,0.7-3.7,1-5.5c0.7,0,1.2,0,2,0c-0.7,0.6-1.2,1.1-1.7,1.6c0.4,0.4,0.7,0.8,0.9,1.1
			c-0.5,0.4-1,0.7-1.8,1.2C134.3,71.4,134.8,71.8,135.6,72.3z"/>
		<path d="M147.6,71.1c-0.6-1-1.1-1.8-1.7-2.9c0.5-0.5,1-1.1,1.6-1.7c0.5,0.4,0.9,0.6,1.4,1c-0.7,0.2-1.2,0.3-1.8,0.4
			c0.2,1.5,1.8,2.5,0.9,4c-1,0.4-1,0.4-2.4,0c0.5-0.2,0.8-0.2,1-0.3C146.9,71.5,147.1,71.4,147.6,71.1z"/>
		<path d="M109.8,71.1c0.6,0.4,1,0.6,1.9,1.1c-1.2,0.1-1.8,0.2-2.8,0.3c0.4-2,0.7-3.8,1-5.7c0.7,0,1.2,0,2.1,0
			c-0.7,0.6-1.2,0.9-1.8,1.3c0.3,0.4,0.5,0.9,0.9,1.4c0,0-0.1,0.2-0.3,0.4C110.5,70.3,110.2,70.7,109.8,71.1z"/>
		<path d="M116.3,70.3c0.5-1.2,0.9-2.4,1.5-3.8c0.3,1.7-0.6,4.5-2,6.1c-0.1-2-0.8-3.8-0.7-5.6c0.2,0,0.4,0,0.7-0.1
			c0.1,1.1,0.2,2.1,0.2,3.2C116.1,70.2,116.2,70.2,116.3,70.3z"/>
		<path d="M72.2,67c-1,0.8-2.1,1.4-2.3,3.1c0.3,0.5,0.8,1.2,1.4,2c-0.9,0.5-1.5,0.1-1.9-0.7c-0.7-1.1-0.3-2.2,0.2-3.3
			C70.1,67.2,70.9,66.6,72.2,67z"/>
		<path d="M193.7,72.4c0.1-0.9,0.1-1.9,0.3-2.8c0.1-0.9,0.4-1.7,0.6-2.7c0.6,0,1.3,0,2,0c-0.1,0.3-0.2,0.6-0.3,0.6
			c-0.8,0.1-1.2,0.5-1.3,1.4c0.3,0.1,0.6,0.3,1.1,0.5c-0.5,0.3-0.8,0.5-1.2,0.8c-0.3,0.7-0.6,1.5-0.9,2.2
			C193.9,72.4,193.8,72.4,193.7,72.4z"/>
		<path d="M200.3,70.9c0.5,0.4,0.9,0.8,1.4,1.2c-0.3,0.1-0.5,0.4-0.6,0.3c-0.5-0.1-1-0.3-1.5-0.5c-0.6-3.6,0.1-4.9,2.5-4.9
			C200.3,68.7,200.3,68.7,200.3,70.9z"/>
		<path d="M61.8,68.6c0.5,0.4,0.8,0.6,1,0.8c-0.6,1-1.2,2.1-1.8,3.1c-0.1,0-0.2-0.1-0.3-0.1c0.3-1.8,0.7-3.6,1-5.5c0.6,0,1.1,0,2,0
			C62.9,67.5,62.4,67.9,61.8,68.6z"/>
		<path d="M168.5,72.4c-0.8-1.8,0.8-3.6-0.9-5.5c1.1,0,1.8,0,2.4,0C169.5,68.7,169,70.5,168.5,72.4z"/>
		<path d="M219.1,66.7c-2,1.8-1.5,4-2.3,6c-1.2-2.1,1-4-0.8-5.8C217.1,66.8,217.8,66.8,219.1,66.7z"/>
		<path d="M192.6,72.3c-0.7,0-1.4,0-2.1,0c0.6-1.9,0.3-3.8,1.6-5.5c-0.1,1.4-0.3,2.8-0.5,4.5c0.3,0.1,0.8,0.3,1.2,0.5
			C192.7,72,192.7,72.2,192.6,72.3z"/>
		<path d="M114,72.3c-0.2,0-0.4,0.1-0.8,0.1c-0.4-1.9-0.2-3.7-0.2-6.1c1.2,1.2,0.7,2.2,0.8,3.1C113.9,70.3,114.8,71.2,114,72.3z"/>
		<path d="M131.4,67c-0.1,1.4-0.3,2.7-0.4,4.3c0.3,0.2,0.7,0.4,1.1,0.7c-0.6,0.7-1.3,0.5-2.2,0.3C130.3,70.4,130.2,68.6,131.4,67z"
			/>
	</g>
</g>
</svg>
