<?xml version="1.0" encoding="utf-8"?>
<!-- Generator: Adobe Illustrator 18.0.0, SVG Export Plug-In . SVG Version: 6.00 Build 0)  -->
<!DOCTYPE svg PUBLIC "-//W3C//DTD SVG 1.1//EN" "http://www.w3.org/Graphics/SVG/1.1/DTD/svg11.dtd">
<svg version="1.1" xmlns="http://www.w3.org/2000/svg" xmlns:xlink="http://www.w3.org/1999/xlink" x="0px" y="0px"
	 viewBox="0 0 300 100" style="enable-background:new 0 0 300 100;" xml:space="preserve">
<style type="text/css">
	.st0{fill-rule:evenodd;clip-rule:evenodd;}
	.st1{fill-rule:evenodd;clip-rule:evenodd;fill:#C038F9;}
	.st2{fill:none;}
	.st3{fill-rule:evenodd;clip-rule:evenodd;fill:#231F20;}
</style>
<g id="Layer_2">
</g>
<g id="Layer_1">
	<g>
		<path class="st0" d="M259.3,35.7h-9.8l-8.3,21.6c0.1-1.1,0.2-2.3,0.2-3.7c0-17.5-16.9-18-16.9-18H208v13.5
			c-2.4-8.4-10.2-14.3-19.6-14.3c-6.8,0-12.8,3.1-16.5,8v-7.3h-25v8.6h7.5V73h9.9V44.3h6.6c-1.9,3-2.9,6.5-2.9,10.3
			c0,11.2,9.1,19.7,20.3,19.7c9.3,0,17.2-5.9,19.6-14.3V73h17.7c0,0,7.2-0.3,11.8-6.3l-2.4,6.3h10.2l2.4-6.4h13.4l2.4,6.4h10.2
			L259.3,35.7z M188.4,64.5c-5.8,0-10.6-4.4-10.6-9.9c0-5.5,4.7-9.9,10.6-9.9c5.8,0,10.6,4.4,10.6,9.9
			C199,60.1,194.3,64.5,188.4,64.5z M221.5,64.9c-1.9,0-2.9-0.3-2.9-0.3V44.3c0.7-0.1,1.5-0.3,3-0.3c1.6,0,9.2,0.3,9.2,10.3
			S223.4,64.9,221.5,64.9z M250.5,59.2l3.8-10.1h0l3.8,10.1H250.5z"/>
		<polygon class="st0" points="286.4,35.7 279.8,45.6 273.1,35.7 261.2,35.7 274.2,55.1 274.2,73 285.3,73 285.3,55.1 298.3,35.7 
			286.4,35.7 		"/>
		<path class="st0" d="M126.4,35.4h-10.4L106.7,59c-0.2-7.1-7.1-9.1-10.9-10.1c-5.4-1.5-5-3.1-5-3.7c0-0.6,0.6-2.8,3.7-2.8
			c3.1,0,7,2.8,7,2.8l4.1-7.5c0,0-4.8-3.7-12.1-3.7c-5.3,0-13.2,2.1-13.2,12.9c0,0-1.1,9.1,11.8,10.4c0,0,4.7,0.6,3.8,4.2
			c-0.9,3.6-4.2,2.8-4.9,2.8c-0.7,0-3.4,0-8.2-3.8l-4.4,7.7c0,0,5,5.3,14.5,5.3c4.3,0,7.6-1.4,9.9-3.6l-1.2,3.1H112l2.4-6.3h13.1
			l2.4,6.3h10.5L126.4,35.4z M117.4,58.6l3.8-9.5l3.5,9.5H117.4z"/>
		<path class="st1" d="M63,73.6C63,73.6,62.9,73.6,63,73.6c-0.1,0-0.1,0-0.1,0H63L63,73.6z"/>
		<path class="st0" d="M69.2,35.4v23.5c0,0-0.1,5.5-6.2,5.5c-6.2,0-6.3-5.5-6.3-5.5V35.4H28.1c-0.2-0.2-0.5-0.4-0.8-0.4h-12
			c-0.7,0-1.2,0.5-1.2,1.2c0,0.2,0.1,0.4,0.2,0.6c-0.3,0.4-0.6,0.7-0.8,0.8c-0.2,0.1-0.7,0.4-1.5,0.9H9.8c-0.7,0-1.2,0.6-1.2,1.2
			c0,0.4,0.2,0.8,0.5,1c-0.4,0.4-0.8,0.9-1.2,1.4H6.5c-0.7,0-1.2,0.5-1.2,1.2c0,0.7,0.5,1.2,1.2,1.2h0.3c-0.1,0.4-0.1,0.7-0.1,1.1
			l0,0H4.7c-0.7,0-1.2,0.5-1.2,1.2c0,0.7,0.6,1.2,1.2,1.2h2.8L7,49.4H3.1c-0.7,0-1.2,0.6-1.2,1.2c0,0.7,0.5,1.2,1.2,1.2h5.4
			c0.3,0.4,0.6,0.8,0.9,1.2H2.9c-0.7,0-1.2,0.5-1.2,1.2c0,0.7,0.5,1.2,1.2,1.2h8.5c0.4,0.3,0.9,0.6,1.7,0.9c0.3,0.1,0.5,0.2,0.7,0.3
			H3.1c-0.7,0-1.2,0.6-1.2,1.2c0,0.7,0.5,1.2,1.2,1.2h12.4c0,0.4,0,0.8,0,1.1H4.7c-0.7,0-1.2,0.6-1.2,1.2c0,0.7,0.6,1.2,1.2,1.2
			h10.6c0,0.4,0,0.8,0.2,1.2H6.5c-0.7,0-1.2,0.5-1.2,1.2c0,0.7,0.5,1.2,1.2,1.2h10.6c0.3,0.4,0.6,0.8,0.9,1.1H9.8
			c-0.7,0-1.2,0.6-1.2,1.2c0,0.7,0.6,1.2,1.2,1.2h9.5c0.2,0.4,0.4,0.8,0.5,1.1h-4.7c-0.7,0-1.2,0.6-1.2,1.2c0,0.7,0.5,1.2,1.2,1.2
			h12c0.4,0,0.7-0.1,0.9-0.4h29.9c1.4,0.3,3,0.5,4.8,0.5c15.5,0,16.8-12.9,16.8-12.9V35.4H69.2z M49.2,67.8H34
			c-0.2-0.2-0.5-0.4-0.9-0.4h-8.8c0.2-0.4,0.4-0.8,0.7-1.1h11.5c0.3,0,0.7-0.2,0.9-0.4H48C48.3,66.5,48.7,67.2,49.2,67.8z
			 M47.2,64.2h-9.7c-0.2-0.2-0.5-0.4-0.9-0.4h-11c0.1-0.3,0.3-0.8,0.5-1.2h12.5c0.4,0,0.7-0.1,0.9-0.4h7.2
			C46.7,62.9,46.9,63.5,47.2,64.2z M37.4,42.5c-0.2-0.2-0.5-0.3-0.8-0.3H24c-0.1-0.3-0.2-0.7-0.3-1.1h9.4c0.4,0,0.7-0.2,0.9-0.4
			h12.2v1.9H37.4z M46.3,47.9v1.9h-5.5c-0.2-0.2-0.5-0.3-0.8-0.3H24.1c0.4-0.3,0.7-0.7,1.1-1.1h13.4c0.4,0,0.7-0.2,0.9-0.4H46.3z
			 M39.9,51.9c0.4,0,0.7-0.2,0.9-0.4h5.5v1.9h-5.4C40.7,53.2,40.4,53,40,53H20.9c0-0.3,0.1-0.8,0.3-1.2H39.9z M27.3,37.5
			c0.4,0,0.7-0.2,0.9-0.4h18.1v1.9H33.9c-0.2-0.2-0.5-0.3-0.8-0.3h-11C22.1,38.4,22,38,22,37.5H27.3z M21.9,41.1
			c0.1,0.3,0.2,0.6,0.4,1.1h-1.8c-0.2-0.3-0.5-0.7-0.7-1.1H21.9z M19.4,37.5c0,0.4,0.1,0.7,0.3,1.1h-0.9c-0.1-0.4-0.2-0.8-0.2-1.1
			H19.4z M15.1,53c-0.2-0.3-0.4-0.7-0.4-1.2h3.3c0.3,0.3,0.6,0.7,0.7,1.2H15.1z M17.7,56.6c-0.4-0.3-0.9-0.7-1.3-1.1H40
			c0.4,0,0.7-0.2,0.9-0.4h5.4V57h-5.5c-0.2-0.2-0.5-0.4-0.8-0.4H17.7z M20.8,59.1h19.1c0.4,0,0.7-0.2,0.9-0.4h5.5v1.9h-7
			c-0.2-0.2-0.5-0.4-0.9-0.4H24.7c-1-0.3-2.2-0.4-3.5-0.5C21.2,59.8,21.1,59.5,20.8,59.1z M28.2,71.4c-0.2-0.2-0.5-0.4-0.9-0.4h-3.8
			c0-0.3,0-0.7,0.1-1.1h9.6c0.3,0,0.6-0.2,0.9-0.4h16.7c0.7,0.7,1.6,1.3,2.6,1.9H28.2z"/>
	</g>
</g>
</svg>
