<?xml version="1.0" encoding="utf-8"?>
<!-- Generator: Adobe Illustrator 18.0.0, SVG Export Plug-In . SVG Version: 6.00 Build 0)  -->
<!DOCTYPE svg PUBLIC "-//W3C//DTD SVG 1.1//EN" "http://www.w3.org/Graphics/SVG/1.1/DTD/svg11.dtd">
<svg version="1.1" xmlns="http://www.w3.org/2000/svg" xmlns:xlink="http://www.w3.org/1999/xlink" x="0px" y="0px"
	 viewBox="0 0 300 100" style="enable-background:new 0 0 300 100;" xml:space="preserve">
<style type="text/css">
	.st0{fill-rule:evenodd;clip-rule:evenodd;}
	.st1{fill-rule:evenodd;clip-rule:evenodd;fill:#C038F9;}
	.st2{fill:none;}
	.st3{fill-rule:evenodd;clip-rule:evenodd;fill:#231F20;}
</style>
<g id="Layer_2">
</g>
<g id="Layer_1">
	<g>
		<path d="M31.5,59.5l17-39.9l16.9,39.9l16.7-36.7h12.5L65.4,82.4L48.5,43.9l-17,38.5L2.3,22.9h12.5L31.5,59.5z"/>
		<path d="M116.2,59.5l17-39.9L150,59.5l16.7-36.7h12.5L150,82.4l-16.9-38.5l-17,38.5L86.9,22.9h12.5L116.2,59.5z"/>
		<path d="M192.2,30.6h0.2c3.4-6.2,10.3-9.5,17.3-9.5c16.2,0,20.4,10.9,20.4,25v34.3h-11.1v-33c0-9.8-1.4-16.5-12.7-16.5
			c-14.3,0-14.3,12.5-14.3,23v26.4h-11.1V22.9h11.1V30.6z"/>
		<path d="M295.7,51.8c0,17.3-13.5,30.6-30.8,30.6s-30.8-13.3-30.8-30.6s13.5-30.6,30.8-30.6S295.7,34.5,295.7,51.8z M245.2,51.8
			c0,10.8,8.7,20.1,19.7,20.1c10.9,0,19.7-9.2,19.7-20.1c0-10.9-8.7-20.1-19.7-20.1C254,31.7,245.2,40.8,245.2,51.8z"/>
	</g>
</g>
</svg>
