<?xml version="1.0" encoding="utf-8"?>
<!-- Generator: Adobe Illustrator 18.0.0, SVG Export Plug-In . SVG Version: 6.00 Build 0)  -->
<!DOCTYPE svg PUBLIC "-//W3C//DTD SVG 1.1//EN" "http://www.w3.org/Graphics/SVG/1.1/DTD/svg11.dtd">
<svg version="1.1" xmlns="http://www.w3.org/2000/svg" xmlns:xlink="http://www.w3.org/1999/xlink" x="0px" y="0px"
	 viewBox="0 0 300 100" style="enable-background:new 0 0 300 100;" xml:space="preserve">
<style type="text/css">
	.st0{fill-rule:evenodd;clip-rule:evenodd;}
	.st1{fill-rule:evenodd;clip-rule:evenodd;fill:#C038F9;}
	.st2{fill:none;}
	.st3{fill-rule:evenodd;clip-rule:evenodd;fill:#231F20;}
</style>
<g id="Layer_2">
</g>
<g id="Layer_1">
	<g id="j8DNZ1_1_">
		<g>
			<path d="M166,61.6c-1.5-0.3-2.3-1.1-2.4-2.4c-0.1-1.9,0.2-3.8,2-4.8c1.4-0.8,3.1-1.2,4.7-1.4c1.1-0.2,2.4,0.1,3.9,0.2
				c0.1-3.3,0.8-6.6-1.9-9.7c-1.1,0.1-2.1,0.1-3.1,0.2c2.1-3.4,3.7-4.5,6.8-4.6c2.5,1.6,3.2,4.2,3.3,7.1c0.1,4.7-0.1,9.4-0.1,14.1
				c0,2.6,0,5.3,0,7.9c0.5,0.1,0.8,0.1,1.4,0.2c0-8.6,0-17.1,0-25.4c1.5-1.4,2.8-2.6,4.2-4c2.2,1.7,4.6,3.5,6.8,5.2
				c0,5.8,0,11.4,0,17.2c-2,1.7-4.1,3.5-6.3,5.3c-1.4-0.7-1.9-2.5-3.8-2.2c-0.3,1.7-0.5,3.4,0.4,5.2c-1.1,1.7-2.3,3.4-3.4,5.2
				c-2.4-1.2-4.6-2.2-7.4-1.4c-0.3,0.4-0.7,0.8-1.2,1.4c0.5,0.6,0.9,1.1,1.2,1.6c1.8,0,2.2-2.2,4-2.1c-1,2-1,2-3.9,2.8
				c-0.7-0.5-1.6-1.1-2.3-1.6c-0.5-4.7,0.5-6.3,5.2-8.2c0-3.8,0-7.6,0-12c-0.8,1.5-1.5,2.7-2.1,3.8c-2.3-0.5-4.5-2.1-7.1-0.5
				c0,0.5,0.1,1.1,0.1,1.6c1.7,1.2,2.6-1.1,4.1-0.6C168.5,61.2,167.1,61.1,166,61.6z M186.3,47.3c-1.6-1.2-3.1-2.2-4.8-3.4
				c0,2.8,0,5.2,0,7.6c0.6,0.2,1.1,0.5,1.6,0.7c0,1.7,0,3.3,0,4.9c-0.5,0.2-1,0.4-1.6,0.7c0,2,0,4,0,5.8c1.4-0.3,2.8-0.5,4.4-0.8
				C186,57.7,186.1,52.6,186.3,47.3z"/>
			<path d="M88,61.1c-0.9,3.8-3,6.9-6.6,8.6c-4.2,2-11,0.9-13.8-5.5c-2.5-5.7-1.3-14.3,4.9-18.5c-3.1-0.9-5.9-1.9-8.8,0.8
				c0.1,0.7,0.3,1.5,0.5,2.6c1.6-1,2.8-1.7,4.5-2.7c-0.2,0.8-0.2,1.3-0.4,1.4c-1.2,0.9-2.4,1.7-3.9,1.6c-2.1-1.9-2.3-4.2-0.6-6.3
				c1.6-1.9,3.7-3,6.2-3.2c3.8-0.3,7.2,0.8,10.7,2c1.2,0.4,2.4,0.9,3.7,1.2c0.9,0.2,1.9,0.4,2.7-1.1c-0.4-0.3-0.8-0.7-1.2-1.1
				c-1.2,0.3-2,0.4-3.3,0.7c2.5-1.6,3.1-1.6,5,0.2c0.4,4-1.1,5.6-5.9,6.7c-0.1,5.3-0.3,10.7-0.5,16.2C84.1,64.6,85.8,62.3,88,61.1
				L88,61.1z M80.7,48.5c-2.4-0.8-4.7-1.6-7-2.4c-0.4,0.3-0.7,0.5-0.9,0.8c-3.9,4.5-3.6,10-0.9,14.8c1.6,2.9,5,3.9,8.4,3
				C80.4,59.4,80.6,54.1,80.7,48.5z"/>
			<path d="M28,59.8c-1.3,3.7-2.8,6.5-5.6,8.5c-5.1,3.6-12.5,1.5-15.1-4.4C5,58.6,5.4,53.5,8.6,48.7c0.8-1.3,2-2.3,3.1-3.4
				c-3.7-1.9-6.5-1.5-8.5,1.3c0.1,0.2,0.1,0.5,0.2,0.7c0.1,0.2,0.3,0.4,0.7,0.9c1.3-0.7,2.7-1.4,4-2.2c-0.7,2.1-2.4,2.4-3.9,2.9
				c-2.6-1.9-2.9-4.4-0.7-6.8c2.2-2.3,4.9-3.3,8-2.8c3,0.5,5.9,1.4,8.8,2.2c1.2,0.3,2.4,0.9,3.7,1.1c0.7,0.1,1.5-0.2,2.4-0.3
				c-1-2.8-2.9-1-4.4-1.2c2.9-1.8,4.3-1.3,5.3,1.5c-0.5,3.5-3,5-6.4,5.4c0,5.5,0,10.8,0,16.4C23.5,63.6,25.6,61.9,28,59.8z
				 M13.2,45.5c-0.4,0.4-0.8,0.7-1.1,1c-3.3,3.9-3.1,8.2-1.6,12.7c1.5,4.2,4.8,5.9,9.4,5c0-5.4,0-10.9,0-16.4
				C17.7,47,15.5,46.2,13.2,45.5z"/>
			<path d="M230.5,77.6c-2.2-1.9-2.2-1.9-2-5c1.7-2.6,4.4-3.3,7.4-2.9c2.4,0.4,4.8,1.3,7.1,2c2,0.6,2,0.6,4.1-0.6
				c0.3-1-0.1-1.6-1-1.9c-0.5-0.2-1.1-0.3-1.6-0.4c-2-0.4-3.6-1.4-4.3-3.6c-1.7,1.3-3.2,2.4-4.7,3.6c-1.3-1-2.5-2-3.5-2.7
				c0.3-1.8,0.7-3.2,0.8-4.7c0.1-2.3,0-4.6,0-7c-0.5-0.4-1-0.8-1.6-1.2c1.2-1.2,2.3-2.2,3.3-3.2c1,0.9,2.1,1.9,2.8,2.6
				c0,3.9-0.1,7.5,0,11.2c0,0.5,0.6,1,0.9,1.5c1.8-0.4,2.2-1.6,2.2-2.9c0-2.6,0-5.1,0-7.9c-0.3-0.4-0.7-0.8-1.2-1.4c1-1,2-2.1,3-3.2
				c1.2,1,2.3,2,3.3,2.7c-0.2,1.2-0.6,2.3-0.6,3.4c-0.1,2,0,4.1-0.1,6.1c-0.2,2.3,0.5,4,2.6,5c0.2,0.1,0.4,0.3,0.7,0.5
				c1.6,3.8,0.2,6.7-3.7,7.9c-1.9,0.5-3.8,0.6-5.7,0.1c-1.8-0.5-3.5-1-5.3-1.4c-1.2-0.3-2.4-0.3-3.2,0.9c0.3,1.5,1.7,1.2,2.5,1.7
				c0.9-0.4,1.7-0.8,2.6-1.2C235.4,77.6,234.8,77.8,230.5,77.6z"/>
			<path d="M118.4,64.4c0.5,0.3,1.3,0.7,2,1.1c-1.2,1.4-2.1,2.4-3.1,3.6c-1.3-1.1-2.5-2.1-3.6-3c0.6-3.8,0.2-7.5,0.3-11.3
				c-0.6-0.3-1.1-0.5-1.6-0.7c-0.3-0.1-0.7-0.1-1-0.1c-0.2,0.3-0.6,0.5-0.6,0.7c-0.1,3-0.3,6-0.4,9.1c0.6,0.6,1.1,1.2,1.8,1.9
				c-1,1-1.9,2.1-3.1,3.4c-1.3-1.2-2.4-2.2-3.6-3.3c0.9-3.9,0.5-7.7,0.6-11.6c-1.3-0.1-2.1-0.2-3.1-0.3c-0.4,3.3-0.1,6.5-0.4,10.3
				c0.4,0.3,1,0.7,1.9,1.4c-1.2,0.9-2.5,1.8-3.7,2.7c-0.6-0.7-1.6-1.9-2.7-3.1c0.1-3.1,0.2-6.7,0.4-10.4c-0.6-0.4-1.1-0.8-1.8-1.3
				c0.9-1.2,1.9-2.5,3.1-3.9c1.3,1.4,2.5,2.6,3.9,4.1c0.8-0.8,1.5-1.4,2.1-2c0.6-0.6,1.1-1.2,1.8-2c1.3,1.4,2.5,2.7,3.7,3.9
				c1.9-0.7,2.7-2.6,4.2-3.5c1.2,1.2,2.3,2.3,3.5,3.6C117.8,56.9,118.8,60.4,118.4,64.4z"/>
			<path d="M37.1,66.8c0.4-3.8,0.2-7.2,0.3-10.8c-0.8-0.6-1.6-1.1-2.6-1.8c-1.2,1.9-0.7,3.7-0.8,5.3c-0.1,1.6,0,3.3,0,5.1
				c0.5,0.6,1.1,1.2,1.8,2c-1,0.9-2,1.9-3.2,3.1c-1.2-1.1-2.4-2.1-3.3-2.9c0.1-3.5,0.1-6.7,0.1-9.9c0-3.2,0-6.4,0-9.7
				c-0.5-0.3-1-0.5-1.6-0.8c1.1-1.4,2.1-2.7,3.3-4.2c1.2,1.4,2.3,2.7,3.2,3.7c-0.1,2.3-0.2,4.3-0.4,6.8c1.3-1.1,2.1-1.9,2.9-2.6
				c1.8,1,3.6,1.9,5.4,2.9c0,3.8,0,7.9,0,12.1c0.2,0.2,0.5,0.5,1,1c-1.1,1.1-2.1,2.2-3.3,3.4C38.8,68.9,38,67.6,37.1,66.8z"/>
			<path d="M259.2,49.9c1,0.8,2,1.7,3,2.6c-0.3,0.9-0.9,1.9-1,2.9c-0.1,2.8,0,5.7,0,8.8c0.6,0.3,1.3,0.6,1.7,0.8
				c-0.9,1.1-1.9,2.2-3.1,3.5c-1.1-1.2-2.1-2.3-3.2-3.4c-1.5,1.1-3,2.2-4.7,3.5c-1.2-0.9-2.5-1.8-3.7-2.6c1.6-3.9,0.7-7.8,1.1-11.6
				c-0.7-0.4-1.2-0.8-1.6-1c1.1-1.2,2.2-2.4,3.4-3.7c1,1,1.9,2,2.9,3.1c0,3.8,0,7.6,0,11.5c0,0.3,0.4,0.6,0.8,1
				c0.6-0.6,1.2-1.1,1.8-1.6c-0.5-3.7,0.7-7.4-0.7-11.1C257,51.7,258,50.9,259.2,49.9z"/>
			<path d="M141.8,49.6c2.3,1,4.2,1.8,6.3,2.7c-1.9,2.7-4.7,3-8,2.1c0,1.7,0.8,2.7,1.8,3.8c1.3-0.8,2.5-1.7,3.8-2.5
				c3.1,2.2,3.8,4.3,2.5,7.7c-0.8,2.2-2,4.1-4.1,5.4c-2.2,1.4-3.6,1.3-5.4-0.5c-0.6-0.6-1-1.4-1.4-2c-0.1,0.1-0.3,0.3-0.4,0.4
				c-0.4-0.1-0.7-0.1-1.1-0.2c-0.5,0-0.9,0-1.5,0c-0.3,0.6-0.6,1.2-0.9,1.7c0.7,1.2,1.5,0.9,2.3,0.6c0.6-0.2,1.3-0.4,2.2-0.6
				c-1.3,2.2-2,2.3-4.6,1.2c-0.9-2.4-0.6-3.5,1-4.8c1.9-1.6,4.3-1.9,6.1-0.8c0.7,0.4,1.3,1,1.9,1.6c0.5,0.4,0.9,0.8,1.5,1.3
				c1.3-2,0.5-3.7,0-5.4c-0.3-1.1-1-2-2.9-1.8c-0.5,0.7-1.3,1.7-2.1,2.7c-1.9-1.8-2.9-3.7-2.6-6.1c0.1-1.3,0.6-2.5,1.7-3.3
				C139.2,51.8,140.5,50.7,141.8,49.6z"/>
			<path d="M223.4,56.2c0.6-1.1,0.6-1.1,0.5-2.6c-1.5-0.1-1.5-0.1-2.5,0.5c-1.8-0.5-3.4-0.9-5.1-1.4c1-1.1,2.1-2.3,3.3-3.5
				c3.2,1.9,6.5,2.7,10,3.2l-0.1-0.1c-0.2,0.7-0.5,1.4-0.5,2.1c-0.1,3,0,6,0,9.1c0.5,0.4,1,0.8,1.5,1.2c-1.1,1.4-2.2,2.7-3.4,4.1
				c-1.2-0.9-2.2-1.8-3.4-2.7c-1.3,0.9-2.5,1.7-3.9,2.6c-1.6-1.1-3.2-2.1-4.8-3.2c0-1.3,0-2.6,0-3.9c2.2-2.1,4.4-4.2,6.6-6.2
				c0.1,0.1,0.2,0.2,0.2,0.3c-0.5,0.9-1,1.7-1.6,2.5c0,1.6,0,3.2,0,4.6c1.5,1.9,1.5,1.9,3.7,1.8c0-2.5,0-4.9,0-7.4
				C224,56.9,223.7,56.5,223.4,56.2L223.4,56.2z"/>
			<path d="M281,53.1c2.4-1.1,5-2.3,7.7-3.5c1.3,2,2.5,3.8,4,6c-2.3,1.4-4.5,2.8-6.8,4.2c0,1.5,0,2.9,0,4.4c2.6,2.2,4.4,0,6.4-1.3
				c0,0.3,0.1,0.6,0,0.6c-1.8,1.8-3.6,3.6-5.6,5.5c-2-1.1-3.9-2.1-5.7-3.2C281,61.7,281,57.5,281,53.1z M285.9,58.3
				c0.8-0.5,1.5-0.9,2.3-1.4c-0.8-1-1.4-1.9-2.3-3.1C285.9,55.5,285.9,56.8,285.9,58.3z"/>
			<path d="M133.5,56.6c-2.4,1.4-4.5,2.8-6.8,4.2c-0.1,0.8-0.2,1.7-0.2,2.5c-0.1,2.6,1.5,3.7,3.9,2.5c0.9-0.5,1.8-1.1,2.3-1.5
				c-1.6,1.6-3.5,3.6-5.6,5.7c-1.6-0.9-3.6-2.1-5.4-3.1c0-4.3,0-8.4,0-12.6c2.5-1.1,5-2.3,7.8-3.5C130.8,52.5,132.1,54.5,133.5,56.6
				z M129.1,57.8c-0.7-1-1.4-1.8-2.3-3.1c0,1.8,0,2.9,0,4.4C127.6,58.6,128.3,58.2,129.1,57.8z"/>
			<path d="M210,49.2c1.6,1.3,3.1,2.6,4.8,4c-1.1,1.3-2.2,2.4-3.1,3.5c-1.4-1.1-2.8-2.3-4.5-3.8c-0.6,3.7-0.2,6.8-0.4,9.9
				c2.6,2.9,3.6,2.9,7,0.2c0.1,0.2,0.2,0.3,0.2,0.5c0,0.3,0,0.5-0.1,1c-2,1.4-4.2,2.8-6.4,4.3c-1.8-1.1-3.6-2.2-5.3-3.3
				c0-4.2,0-8.3,0-12.6C204.6,51.7,207.3,50.5,210,49.2z"/>
			<path d="M56,65c-1.6,1.8-3.3,3.6-4.9,5.4c-2.2-1.2-4.1-2.3-5.7-3.3c0-4.3,0-8.3,0-12.7c2.3-1.1,4.9-2.2,7.7-3.5c1.4,2,2.7,4,4,6
				c-2.5,1.5-4.7,2.9-7,4.3c0,1.4,0,2.6,0,4.1c0.5,0.4,1.2,0.8,1.9,1.4C53.4,66.1,54.8,65.6,56,65L56,65z M52.6,58.1
				c-0.8-1.1-1.5-2-2.5-3.2c0,1.8,0,3.1,0,4.6C51.1,59,51.7,58.6,52.6,58.1z"/>
			<path d="M89.8,54.8c-0.8-0.3-1.1-0.4-1.6-0.6c1.1-1.4,2.1-2.7,3.3-4.2c1.2,1.3,2.3,2.5,3.3,3.6c-0.1,1.9-0.2,3.6-0.2,5.3
				c0,1.6,0,3.3,0,5.1c0.4,0.5,0.9,1.1,1.4,1.9c-1,1-2.1,2-3.2,3.1c-1.1-1-2.2-2-3.3-3C90,62.3,89.6,58.6,89.8,54.8z"/>
			<path d="M267.8,68.8c-1-0.9-2.1-2-3.1-2.9c0-3.7,0-7.2,0-11.1c-0.2-0.2-0.6-0.7-1-1.2c0.9-1.2,1.8-2.3,2.8-3.6
				c1.2,1.4,2.3,2.6,3.3,3.8c-0.1,3.2-0.3,6.7-0.5,10.3c0.6,0.5,1.2,1,1.8,1.6C270.2,66.7,269.2,67.6,267.8,68.8z"/>
			<path d="M272.4,66c1-3.7,0.5-7.2,0.6-10.9c-0.7-0.5-1.3-0.9-2-1.4c1.2-1.1,2.4-2.2,3.7-3.5c1,1.1,2.2,2.4,3.2,3.5
				c-0.9,3.6-0.4,7.1-0.6,10.5c0.6,0.6,1.1,1,1.6,1.5c-1,1-2.1,2.1-3.3,3.3C274.7,68,273.6,67.1,272.4,66z"/>
			<path d="M193,53.4c1.2-1.4,2.1-2.6,3.3-4.1c1.2,1.3,2.3,2.5,3.3,3.7c-0.9,3.4-0.3,6.9-0.5,10.4c0.5,0.6,1.1,1.2,1.7,1.9
				c-1,1-2.1,2-3.3,3.2c-1.1-1.1-2.2-2.1-3.1-3c0-3.8,0-7.4,0-11.1C194.1,54.2,193.6,53.9,193,53.4z"/>
			<path d="M160.4,55c-0.7,1.1-1.5,2.2-2.2,3.3c-2.5-0.8-4.8-1.7-7.7-1.3c1.2-1.2,2.2-2.2,2.9-2.9C155.9,54.5,158.2,54.8,160.4,55
				L160.4,55z"/>
			<path d="M91.4,48.6c-0.7-1.2-1.3-2.2-2-3.3c-0.2,0.2-0.5,0.5-0.7,0.7c1-1,2-2,3.2-3.2c1.1,0.8,2.2,1.7,3.5,2.6
				C94.2,46.5,93.6,48.4,91.4,48.6z"/>
			<path d="M197.2,42.3c0.9,0.8,1.9,1.7,3,2.6c-1.4,1-1.8,3.4-4.2,2.9c-0.8-0.8-1.5-1.6-2.3-2.5C194.7,44.4,195.8,43.5,197.2,42.3z"
				/>
			<path d="M222.4,55.5c0.3,0.2,0.7,0.5,1,0.7l0.1-0.1c-0.4-0.1-0.8-0.3-1.2-0.4L222.4,55.5z"/>
			<path d="M88.1,61.2C88.1,61.2,88.1,61.1,88.1,61.2L88.1,61.2z"/>
			<path d="M56.7,64.5c0-0.1,0-0.1,0-0.2C56.7,64.3,56.6,64.4,56.7,64.5L56.7,64.5z"/>
			<path d="M221.7,55.5c0.3,0,0.5,0,0.8,0l-0.2,0.2c-0.1,0.1-0.2,0.1-0.4,0C221.8,55.7,221.7,55.6,221.7,55.5z"/>
			<path d="M56.1,65c0.2-0.2,0.4-0.3,0.6-0.5l-0.1-0.1C56.4,64.6,56.2,64.8,56.1,65L56.1,65z"/>
			<path d="M160.4,55.1c0.1-0.1,0.2-0.1,0.2-0.1C160.6,54.9,160.5,54.9,160.4,55.1L160.4,55.1z"/>
			<path d="M229.5,52.3c0-0.1,0-0.1,0.1-0.2C229.6,52.2,229.5,52.2,229.5,52.3L229.5,52.3z"/>
			<path d="M74.8,52.5c1.7-1.3,2.9-2.3,4.1-3.3c0,3.3,0,6.6,0,9.9c-1.5,1.2-2.8,2.3-4.1,3.4C74.8,59,74.8,55.7,74.8,52.5z"/>
			<path d="M14.1,61.7c0-3,0-6,0-9.4c1.3-1.2,2.8-2.5,4.4-4c0,3.4,0,6.6,0,9.7C17.3,59.6,15.8,60.8,14.1,61.7L14.1,61.7z"/>
			<polygon points="14.1,61.6 14,61.8 14.1,61.7 			"/>
		</g>
	</g>
</g>
</svg>
