<?xml version="1.0" encoding="utf-8"?>
<!-- Generator: Adobe Illustrator 18.0.0, SVG Export Plug-In . SVG Version: 6.00 Build 0)  -->
<!DOCTYPE svg PUBLIC "-//W3C//DTD SVG 1.1//EN" "http://www.w3.org/Graphics/SVG/1.1/DTD/svg11.dtd">
<svg version="1.1" xmlns="http://www.w3.org/2000/svg" xmlns:xlink="http://www.w3.org/1999/xlink" x="0px" y="0px"
	 viewBox="0 0 300 100" style="enable-background:new 0 0 300 100;" xml:space="preserve">
<style type="text/css">
	.st0{fill-rule:evenodd;clip-rule:evenodd;}
	.st1{fill-rule:evenodd;clip-rule:evenodd;fill:#C038F9;}
	.st2{fill:none;}
	.st3{fill-rule:evenodd;clip-rule:evenodd;fill:#231F20;}
</style>
<g id="Layer_2">
	<g>
		<g>
			<g>
				<path d="M9.1,64.2c1.1-0.9,2.5-1.3,4.1-1.3c0.8,0,2,0.2,2.7,0.4c0.2,0,0.3,0.1,0.4,0.1c0,0.3,0.1,1.3,0.2,2.2
					c-0.1,0.1-0.3,0.1-0.4,0c-0.2-1-0.9-2.2-3.1-2.2c-2.3,0-4.3,1.5-4.3,4.6c0,3.2,2,5,4.5,5c2,0,2.8-1.3,3.2-2.2
					c0.1-0.1,0.3,0,0.4,0.1c-0.1,0.8-0.5,1.8-0.7,2.1c-0.2,0-0.4,0.1-0.5,0.2c-0.3,0.1-1.4,0.3-2.4,0.3c-1.4,0-2.7-0.3-3.8-1
					c-1.2-0.8-2.2-2.2-2.2-4.2C7.2,66.6,8,65.1,9.1,64.2z"/>
				<path d="M18.8,65.5c0-1.6,0-1.8-0.9-1.9l-0.2,0c-0.1-0.1-0.1-0.3,0-0.4c0.7,0,1.2,0,1.8,0h2.9c1,0,1.9,0,2.1,0
					c0.1,0.3,0.2,1.4,0.2,2c-0.1,0.1-0.3,0.1-0.4,0c-0.2-0.7-0.4-1.2-1.2-1.4c-0.3-0.1-0.8-0.1-1.5-0.1h-1.1c-0.5,0-0.5,0-0.5,0.6v3
					c0,0.4,0,0.4,0.5,0.4h0.9c0.6,0,1.1,0,1.3-0.1c0.2-0.1,0.3-0.2,0.4-0.5l0.1-0.6c0.1-0.1,0.3-0.1,0.4,0c0,0.4-0.1,1-0.1,1.5
					c0,0.5,0.1,1.1,0.1,1.5c-0.1,0.1-0.3,0.1-0.4,0L23,68.9c-0.1-0.3-0.2-0.5-0.5-0.6c-0.2-0.1-0.6-0.1-1.2-0.1h-0.9
					c-0.5,0-0.5,0-0.5,0.4v2.1c0,0.8,0,1.3,0.3,1.6c0.2,0.2,0.5,0.3,1.8,0.3c1.2,0,1.6-0.1,1.9-0.2c0.3-0.2,0.7-0.7,1.1-1.5
					c0.1-0.1,0.3,0,0.4,0.1c-0.1,0.5-0.5,1.7-0.7,2.1c-1.4,0-2.7,0-4.1,0h-1.4c-0.7,0-1.2,0-2.1,0c-0.1,0-0.1-0.3,0-0.4l0.5,0
					c0.9-0.1,0.9-0.3,0.9-1.9V65.5z"/>
				<path d="M35.5,70.6c0,0.5,0,2.3,0,2.7c0,0.1-0.1,0.2-0.3,0.2c-0.2-0.3-0.6-0.8-1.9-2.3l-3.5-4c-0.4-0.5-1.4-1.7-1.8-2.1h0
					c-0.1,0.2-0.1,0.5-0.1,1v3.3c0,0.7,0,2.7,0.3,3.1c0.1,0.2,0.4,0.3,0.8,0.3l0.5,0c0.1,0.1,0.1,0.3,0,0.4c-0.7,0-1.2,0-1.8,0
					c-0.6,0-1,0-1.6,0c-0.1-0.1-0.1-0.3,0-0.4l0.4,0c0.3,0,0.6-0.1,0.7-0.3c0.2-0.5,0.2-2.4,0.2-3.1V65c0-0.4,0-0.7-0.3-1.1
					c-0.2-0.2-0.6-0.3-0.9-0.4l-0.3,0c-0.1-0.1-0.1-0.3,0-0.4c0.6,0,1.4,0,1.7,0c0.2,0,0.5,0,0.7,0c0.3,0.8,2.1,2.8,2.6,3.3l1.5,1.7
					c1,1.2,1.8,2,2.5,2.8h0c0.1-0.1,0.1-0.3,0.1-0.6V67c0-0.7,0-2.7-0.3-3.1c-0.1-0.1-0.3-0.2-0.9-0.3l-0.3,0
					c-0.1-0.1-0.1-0.3,0-0.4c0.7,0,1.2,0,1.8,0c0.7,0,1,0,1.6,0c0.1,0.1,0.1,0.3,0,0.4l-0.2,0c-0.5,0.1-0.8,0.2-0.9,0.3
					c-0.3,0.5-0.2,2.4-0.2,3.1V70.6z"/>
				<path d="M42.6,70.9c0,1.6,0,1.8,0.9,1.9l0.5,0c0.1,0.1,0.1,0.3,0,0.4c-0.9,0-1.4,0-2,0s-1.1,0-2.1,0c-0.1,0-0.1-0.3,0-0.4l0.5,0
					c0.9-0.1,0.9-0.3,0.9-1.9v-6.8c0-0.5,0-0.5-0.5-0.5H40c-0.7,0-1.5,0-1.9,0.4c-0.4,0.3-0.5,0.7-0.7,1c-0.1,0.1-0.3,0-0.4-0.1
					c0.2-0.7,0.5-1.7,0.6-2.3c0,0,0.2,0,0.3,0c0.1,0.5,0.6,0.5,1.3,0.5h6.2c0.8,0,1,0,1.2-0.4c0.1,0,0.2,0,0.3,0
					c-0.2,0.6-0.3,1.9-0.2,2.3c-0.1,0.1-0.3,0.1-0.4,0c0-0.4-0.2-0.9-0.4-1.1c-0.3-0.3-0.9-0.4-1.8-0.4H43c-0.5,0-0.4,0-0.4,0.5
					V70.9z"/>
				<path d="M48.7,65.5c0-1.6,0-1.8-0.9-1.9l-0.2,0c-0.1-0.1-0.1-0.3,0-0.4c0.7,0,1.2,0,1.8,0h2.9c1,0,1.9,0,2.1,0
					c0.1,0.3,0.2,1.4,0.2,2c-0.1,0.1-0.3,0.1-0.4,0c-0.2-0.7-0.4-1.2-1.2-1.4c-0.3-0.1-0.8-0.1-1.5-0.1h-1.1c-0.5,0-0.5,0-0.5,0.6v3
					c0,0.4,0,0.4,0.5,0.4h0.9c0.6,0,1.1,0,1.3-0.1c0.2-0.1,0.3-0.2,0.4-0.5l0.1-0.6c0.1-0.1,0.3-0.1,0.4,0c0,0.4-0.1,1-0.1,1.5
					c0,0.5,0.1,1.1,0.1,1.5c-0.1,0.1-0.3,0.1-0.4,0l-0.1-0.6c-0.1-0.3-0.2-0.5-0.5-0.6c-0.2-0.1-0.6-0.1-1.2-0.1h-0.9
					c-0.5,0-0.5,0-0.5,0.4v2.1c0,0.8,0,1.3,0.3,1.6c0.2,0.2,0.5,0.3,1.8,0.3c1.2,0,1.6-0.1,1.9-0.2c0.3-0.2,0.7-0.7,1.1-1.5
					c0.1-0.1,0.3,0,0.4,0.1c-0.1,0.5-0.5,1.7-0.7,2.1c-1.4,0-2.7,0-4.1,0h-1.4c-0.7,0-1.2,0-2.1,0c-0.1,0-0.1-0.3,0-0.4l0.5,0
					c0.9-0.1,0.9-0.3,0.9-1.9V65.5z"/>
				<path d="M57.2,65.5c0-1.4,0-1.7-0.7-1.8l-0.5-0.1c-0.1-0.1-0.1-0.3,0-0.4c0.9-0.1,1.9-0.1,3.4-0.1c0.9,0,1.8,0.1,2.5,0.5
					c0.7,0.4,1.3,1.1,1.3,2.1c0,1.4-1.1,2.2-1.9,2.5c-0.1,0.1,0,0.2,0.1,0.4c1.2,2,2,3.2,3.1,4c0.3,0.2,0.6,0.4,1,0.4
					c0.1,0,0.1,0.2,0,0.2c-0.1,0-0.4,0.1-0.7,0.1c-1.3,0-2.1-0.4-3.1-1.9c-0.4-0.6-1-1.6-1.5-2.3c-0.2-0.3-0.5-0.5-1.1-0.5
					c-0.7,0-0.7,0-0.7,0.3v1.9c0,1.6,0,1.8,0.9,1.9l0.3,0c0.1,0.1,0.1,0.3,0,0.4c-0.7,0-1.2,0-1.8,0c-0.6,0-1.2,0-1.9,0
					c-0.1,0-0.1-0.3,0-0.4l0.4,0c0.9-0.1,0.9-0.3,0.9-1.9V65.5z M58.5,67.7c0,0.3,0,0.4,0,0.5c0,0,0.3,0.1,1,0.1
					c0.5,0,1.1-0.1,1.6-0.4c0.4-0.3,0.8-0.9,0.8-1.9c0-1.2-0.7-2.3-2.4-2.3c-0.9,0-1,0.1-1,0.5V67.7z"/>
				<path d="M86.6,67.9c-0.3,0-0.3,0-0.3,0.4v3.2c0,1.1,0,1.3,0.6,1.3l0.5,0c0.1,0.1,0.1,0.3,0,0.4c-0.7,0-1.1,0-1.7,0
					c-0.5,0-1,0-1.5,0c-0.1,0-0.1-0.3,0-0.4l0.3,0c0.6-0.1,0.6-0.2,0.6-1.3v-3.2c0-0.4,0-0.4-0.3-0.4h-0.5c-0.1-0.1-0.1-0.2,0-0.3
					l0.7-0.3c0.1-0.1,0.2-0.2,0.2-0.3c0-0.9,0.1-1.8,0.5-2.7c0.4-0.9,1.2-1.9,2.7-1.9c0.8,0,1.5,0.4,1.5,0.9c0,0.3-0.3,0.5-0.6,0.5
					c-0.2,0-0.3-0.1-0.4-0.2c-0.3-0.3-0.7-0.7-1.2-0.7c-0.5,0-0.9,0.3-1.1,0.8c-0.3,0.7-0.3,1.8-0.3,2.6v0.4c0,0.4,0,0.4,0.3,0.4
					h1.7c0.2,0.2,0.1,0.6-0.1,0.6H86.6z"/>
				<path d="M95.1,70.2c0,1.9-1.3,3.3-3.2,3.3c-1.7,0-3.1-1.2-3.1-3.1c0-1.9,1.4-3.3,3.2-3.3C93.7,67,95.1,68.3,95.1,70.2z
					 M91.8,67.5c-1,0-1.7,1-1.7,2.6c0,1.4,0.6,2.9,2,2.9c1.3,0,1.7-1.4,1.7-2.6C93.7,69.1,93.2,67.5,91.8,67.5z"/>
				<path d="M97.1,68.9c0-0.6,0-0.7-0.4-0.9l-0.1-0.1c-0.1-0.1-0.1-0.2,0-0.3c0.3-0.1,1.2-0.5,1.5-0.7c0.1,0,0.1,0,0.1,0.1v0.9
					c0,0.1,0,0.1,0,0.1c0.5-0.4,1.1-0.9,1.7-0.9c0.4,0,0.7,0.2,0.7,0.6c0,0.5-0.4,0.7-0.7,0.7c-0.2,0-0.2,0-0.3-0.1
					c-0.2-0.2-0.5-0.2-0.7-0.2c-0.2,0-0.4,0.1-0.5,0.3c-0.2,0.2-0.2,0.7-0.2,1.2v2.1c0,1.1,0,1.3,0.6,1.3l0.5,0
					c0.1,0.1,0.1,0.3,0,0.4c-0.7,0-1.2,0-1.7,0c-0.5,0-1,0-1.4,0c-0.1,0-0.1-0.3,0-0.4l0.3,0c0.6-0.1,0.6-0.2,0.6-1.3V68.9z"/>
				<path d="M105,65.5c0-1.6,0-1.9-0.9-1.9l-0.4,0c-0.1-0.1-0.1-0.3,0-0.4c0.8,0,1.3,0,1.9,0c0.6,0,1.1,0,1.9,0c0.1,0,0.1,0.3,0,0.4
					l-0.4,0c-0.9,0.1-0.9,0.3-0.9,1.9v5.4c0,1.6,0,1.8,0.9,1.9l0.4,0c0.1,0.1,0.1,0.3,0,0.4c-0.8,0-1.3,0-1.9,0c-0.6,0-1.2,0-1.9,0
					c-0.1,0-0.1-0.3,0-0.4l0.4,0c0.9-0.1,0.9-0.3,0.9-1.9V65.5z"/>
				<path d="M117.8,70.6c0,0.5,0,2.3,0,2.7c0,0.1-0.1,0.2-0.3,0.2c-0.2-0.3-0.6-0.8-1.9-2.3l-3.5-4c-0.4-0.5-1.4-1.7-1.8-2.1h0
					c-0.1,0.2-0.1,0.5-0.1,1v3.3c0,0.7,0,2.7,0.3,3.1c0.1,0.2,0.4,0.3,0.8,0.3l0.5,0c0.1,0.1,0.1,0.3,0,0.4c-0.7,0-1.2,0-1.8,0
					c-0.6,0-1,0-1.6,0c-0.1-0.1-0.1-0.3,0-0.4l0.4,0c0.3,0,0.6-0.1,0.7-0.3c0.2-0.5,0.2-2.4,0.2-3.1V65c0-0.4,0-0.7-0.3-1.1
					c-0.2-0.2-0.6-0.3-0.9-0.4l-0.3,0c-0.1-0.1-0.1-0.3,0-0.4c0.6,0,1.4,0,1.7,0c0.2,0,0.5,0,0.7,0c0.3,0.8,2.1,2.8,2.6,3.3l1.5,1.7
					c1,1.2,1.8,2,2.5,2.8h0c0.1-0.1,0.1-0.3,0.1-0.6V67c0-0.7,0-2.7-0.3-3.1c-0.1-0.1-0.3-0.2-0.9-0.3l-0.3,0
					c-0.1-0.1-0.1-0.3,0-0.4c0.7,0,1.2,0,1.8,0c0.7,0,1,0,1.6,0c0.1,0.1,0.1,0.3,0,0.4l-0.2,0c-0.5,0.1-0.8,0.2-0.9,0.3
					c-0.3,0.5-0.2,2.4-0.2,3.1V70.6z"/>
				<path d="M120.7,64.8c-0.3-0.9-0.6-1.2-1.2-1.2l-0.3,0c-0.1-0.1-0.1-0.3,0-0.4c0.4,0,0.9,0,1.6,0c0.7,0,1.2,0,1.8,0
					c0.1,0.1,0.1,0.3,0,0.4l-0.2,0c-0.6,0.1-0.7,0.2-0.7,0.3c0,0.2,0.3,1,0.8,2.1c0.7,1.8,1.4,3.5,2.2,5.2c0.5-1,1.1-2.6,1.5-3.4
					c0.5-1,1.2-2.8,1.4-3.4c0.1-0.3,0.1-0.5,0.1-0.6c0-0.1-0.2-0.2-0.7-0.3l-0.3,0c-0.1-0.1-0.1-0.3,0-0.4c0.4,0,1,0,1.6,0
					c0.5,0,1,0,1.5,0c0.1,0.1,0.1,0.3,0,0.4l-0.5,0c-0.4,0-0.6,0.2-0.8,0.5c-0.4,0.7-1,1.9-1.7,3.5l-0.8,1.9c-0.6,1.4-1.3,3.2-1.6,4
					c0,0-0.1,0-0.2,0c-0.1,0-0.2,0-0.2,0c-0.2-0.6-0.4-1.4-0.7-2L120.7,64.8z"/>
				<path d="M130.6,65.5c0-1.6,0-1.8-0.9-1.9l-0.2,0c-0.1-0.1-0.1-0.3,0-0.4c0.7,0,1.2,0,1.8,0h2.9c1,0,1.9,0,2.1,0
					c0.1,0.3,0.2,1.4,0.2,2c-0.1,0.1-0.3,0.1-0.4,0c-0.2-0.7-0.4-1.2-1.2-1.4c-0.3-0.1-0.8-0.1-1.5-0.1h-1.1c-0.5,0-0.5,0-0.5,0.6v3
					c0,0.4,0,0.4,0.5,0.4h0.9c0.6,0,1.1,0,1.3-0.1c0.2-0.1,0.3-0.2,0.4-0.5l0.1-0.6c0.1-0.1,0.3-0.1,0.4,0c0,0.4-0.1,1-0.1,1.5
					c0,0.5,0.1,1.1,0.1,1.5c-0.1,0.1-0.3,0.1-0.4,0l-0.1-0.6c-0.1-0.3-0.2-0.5-0.5-0.6c-0.2-0.1-0.6-0.1-1.2-0.1h-0.9
					c-0.5,0-0.5,0-0.5,0.4v2.1c0,0.8,0,1.3,0.3,1.6c0.2,0.2,0.5,0.3,1.8,0.3c1.2,0,1.6-0.1,1.9-0.2c0.3-0.2,0.7-0.7,1.1-1.5
					c0.1-0.1,0.3,0,0.4,0.1c-0.1,0.5-0.5,1.7-0.7,2.1c-1.4,0-2.7,0-4.1,0h-1.4c-0.7,0-1.2,0-2.1,0c-0.1,0-0.1-0.3,0-0.4l0.5,0
					c0.9-0.1,0.9-0.3,0.9-1.9V65.5z"/>
				<path d="M140.5,73.5c-1.3,0-2.1-0.4-2.4-0.6c-0.2-0.3-0.4-1.4-0.4-2.1c0.1-0.1,0.3-0.1,0.4,0c0.2,0.8,0.9,2.3,2.6,2.3
					c1.3,0,1.9-0.8,1.9-1.7c0-0.7-0.1-1.4-1.2-2.1l-1.4-0.9c-0.8-0.5-1.6-1.4-1.6-2.6c0-1.4,1.1-2.6,3.1-2.6c0.5,0,1,0.1,1.4,0.2
					c0.2,0,0.4,0.1,0.5,0.1c0.1,0.4,0.3,1.2,0.3,1.9c-0.1,0.1-0.3,0.1-0.4,0c-0.2-0.7-0.6-1.7-2.1-1.7c-1.5,0-1.8,1-1.8,1.7
					c0,0.9,0.7,1.5,1.3,1.9l1.2,0.8c1,0.6,1.9,1.5,1.9,2.9C143.7,72.3,142.5,73.5,140.5,73.5z"/>
				<path d="M149.4,70.9c0,1.6,0,1.8,0.9,1.9l0.5,0c0.1,0.1,0.1,0.3,0,0.4c-0.9,0-1.4,0-2,0s-1.1,0-2.1,0c-0.1,0-0.1-0.3,0-0.4
					l0.5,0c0.9-0.1,0.9-0.3,0.9-1.9v-6.8c0-0.5,0-0.5-0.5-0.5h-0.8c-0.7,0-1.5,0-1.9,0.4c-0.4,0.3-0.5,0.7-0.7,1
					c-0.1,0.1-0.3,0-0.4-0.1c0.2-0.7,0.5-1.7,0.6-2.3c0,0,0.2,0,0.3,0c0.1,0.5,0.6,0.5,1.3,0.5h6.2c0.8,0,1,0,1.2-0.4
					c0.1,0,0.2,0,0.3,0c-0.2,0.6-0.3,1.9-0.2,2.3c-0.1,0.1-0.3,0.1-0.4,0c0-0.4-0.2-0.9-0.4-1.1c-0.3-0.3-0.9-0.4-1.8-0.4h-1.1
					c-0.5,0-0.4,0-0.4,0.5V70.9z"/>
				<path d="M155.3,65.5c0-1.6,0-1.9-0.9-1.9l-0.4,0c-0.1-0.1-0.1-0.3,0-0.4c0.8,0,1.3,0,1.9,0c0.6,0,1.1,0,1.9,0
					c0.1,0,0.1,0.3,0,0.4l-0.4,0c-0.9,0.1-0.9,0.3-0.9,1.9v5.4c0,1.6,0,1.8,0.9,1.9l0.4,0c0.1,0.1,0.1,0.3,0,0.4c-0.8,0-1.3,0-1.9,0
					c-0.6,0-1.2,0-1.9,0c-0.1,0-0.1-0.3,0-0.4l0.4,0c0.9-0.1,0.9-0.3,0.9-1.9V65.5z"/>
				<path d="M167.9,71.7c0,0.6,0.1,1,0.4,1.1c0,0,0,0.1,0,0.2c-0.2,0-0.5,0.1-0.7,0.1c-0.8,0.2-1.9,0.4-2.7,0.4
					c-1.8,0-3.5-0.5-4.6-1.7c-0.9-0.9-1.4-2.1-1.4-3.4c0-1.3,0.4-2.6,1.4-3.6c1-1.1,2.5-1.8,4.8-1.8c0.9,0,1.7,0.2,1.9,0.2
					c0.3,0.1,0.8,0.2,0.9,0.1c0,0.5,0.1,1.3,0.2,2.2c0,0.1-0.3,0.1-0.4,0c-0.4-1.6-1.6-2.2-3.1-2.2c-2.9,0-4.2,2.1-4.2,4.4
					c0,2.9,1.5,5.2,4.6,5.2c0.9,0,1.5-0.2,1.7-0.5c0.1-0.1,0.2-0.4,0.2-0.9v-0.6c0-1.3,0-1.4-1-1.5l-0.7-0.1c-0.1-0.1-0.1-0.3,0-0.4
					c0.4,0,1.3,0,2.2,0c0.6,0,1.1,0,1.6,0c0.1,0.1,0.1,0.3,0,0.4l-0.2,0c-0.6,0.1-0.7,0.5-0.7,1.3V71.7z"/>
				<path d="M175.1,69.7c-0.1-0.3-0.2-0.4-0.6-0.4h-2.3c-0.4,0-0.5,0-0.6,0.4l-0.5,1.6c-0.2,0.7-0.3,1.1-0.3,1.3
					c0,0.2,0.1,0.3,0.4,0.3l0.5,0c0.1,0.1,0.1,0.3,0,0.4c-0.4,0-0.9,0-1.6,0c-0.5,0-1,0-1.5,0c-0.1-0.1-0.1-0.3,0-0.4l0.5,0
					c0.4,0,0.7-0.2,0.9-0.7c0.3-0.7,0.7-1.7,1.3-3.4l1.6-4.1c0.2-0.5,0.3-0.8,0.3-1.1c0.4-0.1,0.6-0.4,0.8-0.6c0.1,0,0.2,0,0.2,0.1
					c0.2,0.7,0.4,1.4,0.7,2l2.1,6.1c0.4,1.3,0.6,1.5,1.3,1.6l0.4,0c0.1,0.1,0.1,0.3,0,0.4c-0.6,0-1.2,0-1.8,0c-0.7,0-1.3,0-1.7,0
					c-0.1-0.1-0.1-0.3,0-0.4l0.4,0c0.3,0,0.5-0.1,0.5-0.3c0-0.2-0.1-0.4-0.2-0.8L175.1,69.7z M172.1,68.3c-0.1,0.3-0.1,0.4,0.3,0.4
					h1.9c0.4,0,0.5-0.1,0.3-0.5l-0.8-2.5c-0.1-0.4-0.3-0.8-0.3-1h0c0,0.1-0.2,0.4-0.4,0.9L172.1,68.3z"/>
				<path d="M182.2,70.9c0,1.6,0,1.8,0.9,1.9l0.5,0c0.1,0.1,0.1,0.3,0,0.4c-0.9,0-1.4,0-2,0c-0.6,0-1.1,0-2.1,0
					c-0.1,0-0.1-0.3,0-0.4l0.5,0c0.9-0.1,0.9-0.3,0.9-1.9v-6.8c0-0.5,0-0.5-0.5-0.5h-0.8c-0.7,0-1.5,0-1.9,0.4
					c-0.4,0.3-0.5,0.7-0.7,1c-0.1,0.1-0.3,0-0.4-0.1c0.2-0.7,0.5-1.7,0.6-2.3c0,0,0.2,0,0.3,0c0.1,0.5,0.6,0.5,1.3,0.5h6.2
					c0.8,0,1,0,1.2-0.4c0.1,0,0.2,0,0.3,0c-0.2,0.6-0.3,1.9-0.2,2.3c-0.1,0.1-0.3,0.1-0.4,0c0-0.4-0.2-0.9-0.4-1.1
					c-0.3-0.3-0.9-0.4-1.8-0.4h-1.1c-0.5,0-0.4,0-0.4,0.5V70.9z"/>
				<path d="M188.1,65.5c0-1.6,0-1.9-0.9-1.9l-0.4,0c-0.1-0.1-0.1-0.3,0-0.4c0.8,0,1.3,0,1.9,0c0.6,0,1.1,0,1.9,0
					c0.1,0,0.1,0.3,0,0.4l-0.4,0c-0.9,0.1-0.9,0.3-0.9,1.9v5.4c0,1.6,0,1.8,0.9,1.9l0.4,0c0.1,0.1,0.1,0.3,0,0.4c-0.8,0-1.3,0-1.9,0
					c-0.6,0-1.2,0-1.9,0c-0.1,0-0.1-0.3,0-0.4l0.4,0c0.9-0.1,0.9-0.3,0.9-1.9V65.5z"/>
				<path d="M192.5,64.8c-0.3-0.9-0.6-1.2-1.2-1.2l-0.3,0c-0.1-0.1-0.1-0.3,0-0.4c0.4,0,0.9,0,1.6,0c0.7,0,1.2,0,1.8,0
					c0.1,0.1,0.1,0.3,0,0.4l-0.2,0c-0.6,0.1-0.7,0.2-0.7,0.3c0,0.2,0.3,1,0.8,2.1c0.7,1.8,1.4,3.5,2.2,5.2c0.5-1,1.1-2.6,1.5-3.4
					c0.5-1,1.2-2.8,1.4-3.4c0.1-0.3,0.1-0.5,0.1-0.6c0-0.1-0.2-0.2-0.7-0.3l-0.3,0c-0.1-0.1-0.1-0.3,0-0.4c0.4,0,1,0,1.6,0
					c0.5,0,1,0,1.5,0c0.1,0.1,0.1,0.3,0,0.4l-0.5,0c-0.4,0-0.6,0.2-0.8,0.5c-0.4,0.7-1,1.9-1.7,3.5l-0.8,1.9c-0.6,1.4-1.3,3.2-1.6,4
					c0,0-0.1,0-0.2,0c-0.1,0-0.2,0-0.2,0c-0.2-0.6-0.4-1.4-0.7-2L192.5,64.8z"/>
				<path d="M202.9,65.5c0-1.6,0-1.8-0.9-1.9l-0.2,0c-0.1-0.1-0.1-0.3,0-0.4c0.7,0,1.2,0,1.8,0h2.9c1,0,1.9,0,2.1,0
					c0.1,0.3,0.2,1.4,0.2,2c-0.1,0.1-0.3,0.1-0.4,0c-0.2-0.7-0.4-1.2-1.2-1.4c-0.3-0.1-0.8-0.1-1.5-0.1h-1.1c-0.5,0-0.5,0-0.5,0.6v3
					c0,0.4,0,0.4,0.5,0.4h0.9c0.6,0,1.1,0,1.3-0.1c0.2-0.1,0.3-0.2,0.4-0.5l0.1-0.6c0.1-0.1,0.3-0.1,0.4,0c0,0.4-0.1,1-0.1,1.5
					c0,0.5,0.1,1.1,0.1,1.5c-0.1,0.1-0.3,0.1-0.4,0l-0.1-0.6c-0.1-0.3-0.2-0.5-0.5-0.6c-0.2-0.1-0.6-0.1-1.2-0.1h-0.9
					c-0.5,0-0.5,0-0.5,0.4v2.1c0,0.8,0,1.3,0.3,1.6c0.2,0.2,0.5,0.3,1.8,0.3c1.2,0,1.6-0.1,1.9-0.2c0.3-0.2,0.7-0.7,1.1-1.5
					c0.1-0.1,0.3,0,0.4,0.1c-0.1,0.5-0.5,1.7-0.7,2.1c-1.4,0-2.7,0-4.1,0h-1.4c-0.7,0-1.2,0-2.1,0c-0.1,0-0.1-0.3,0-0.4l0.5,0
					c0.9-0.1,0.9-0.3,0.9-1.9V65.5z"/>
				<path d="M214.5,65.5c0-1.4,0-1.7-0.7-1.8l-0.5-0.1c-0.1-0.1-0.1-0.3,0-0.4c0.9-0.1,1.9-0.1,3.4-0.1c0.9,0,1.8,0.1,2.5,0.5
					c0.7,0.4,1.3,1.1,1.3,2.1c0,1.4-1.1,2.2-1.9,2.5c-0.1,0.1,0,0.2,0.1,0.4c1.2,2,2,3.2,3.1,4c0.3,0.2,0.6,0.4,1,0.4
					c0.1,0,0.1,0.2,0,0.2c-0.1,0-0.4,0.1-0.7,0.1c-1.3,0-2.1-0.4-3.1-1.9c-0.4-0.6-1-1.6-1.5-2.3c-0.2-0.3-0.5-0.5-1.1-0.5
					c-0.7,0-0.7,0-0.7,0.3v1.9c0,1.6,0,1.8,0.9,1.9l0.3,0c0.1,0.1,0.1,0.3,0,0.4c-0.7,0-1.2,0-1.8,0c-0.6,0-1.2,0-1.9,0
					c-0.1,0-0.1-0.3,0-0.4l0.4,0c0.9-0.1,0.9-0.3,0.9-1.9V65.5z M215.8,67.7c0,0.3,0,0.4,0,0.5c0,0,0.3,0.1,1,0.1
					c0.5,0,1.1-0.1,1.6-0.4c0.4-0.3,0.8-0.9,0.8-1.9c0-1.2-0.7-2.3-2.4-2.3c-0.9,0-1,0.1-1,0.5V67.7z"/>
				<path d="M223.6,65.5c0-1.6,0-1.8-0.9-1.9l-0.2,0c-0.1-0.1-0.1-0.3,0-0.4c0.7,0,1.2,0,1.8,0h2.9c1,0,1.9,0,2.1,0
					c0.1,0.3,0.2,1.4,0.2,2c-0.1,0.1-0.3,0.1-0.4,0c-0.2-0.7-0.4-1.2-1.2-1.4c-0.3-0.1-0.8-0.1-1.5-0.1h-1.1c-0.5,0-0.5,0-0.5,0.6v3
					c0,0.4,0,0.4,0.5,0.4h0.9c0.6,0,1.1,0,1.3-0.1c0.2-0.1,0.3-0.2,0.4-0.5l0.1-0.6c0.1-0.1,0.3-0.1,0.4,0c0,0.4-0.1,1-0.1,1.5
					c0,0.5,0.1,1.1,0.1,1.5c-0.1,0.1-0.3,0.1-0.4,0l-0.1-0.6c-0.1-0.3-0.2-0.5-0.5-0.6c-0.2-0.1-0.6-0.1-1.2-0.1h-0.9
					c-0.5,0-0.5,0-0.5,0.4v2.1c0,0.8,0,1.3,0.3,1.6c0.2,0.2,0.5,0.3,1.8,0.3c1.2,0,1.6-0.1,1.9-0.2c0.3-0.2,0.7-0.7,1.1-1.5
					c0.1-0.1,0.3,0,0.4,0.1c-0.1,0.5-0.5,1.7-0.7,2.1c-1.4,0-2.7,0-4.1,0h-1.4c-0.7,0-1.2,0-2.1,0c-0.1,0-0.1-0.3,0-0.4l0.5,0
					c0.9-0.1,0.9-0.3,0.9-1.9V65.5z"/>
				<path d="M233.5,70.9c0,1.6,0,1.8,1,1.9l0.4,0c0.1,0.1,0.1,0.3,0,0.4c-0.9,0-1.4,0-2,0c-0.6,0-1.2,0-1.9,0c-0.1,0-0.1-0.3,0-0.4
					l0.3,0c0.9-0.1,0.9-0.3,0.9-1.9v-5.6c0-1.3,0-1.6-0.7-1.6l-0.5-0.1c-0.1-0.1-0.1-0.3,0-0.4c0.8-0.1,1.7-0.1,3-0.1
					s2.2,0.2,2.9,0.6c0.7,0.4,1.2,1.2,1.2,2.3c0,1.4-0.9,2.1-1.5,2.4c-0.7,0.3-1.5,0.5-2.1,0.5c-0.1,0-0.1-0.3,0-0.3
					c1.6-0.3,2.2-1.2,2.2-2.6c0-1.5-0.9-2.4-2.4-2.4c-0.8,0-0.8,0.1-0.8,0.5V70.9z"/>
				<path d="M238.6,68.3c0-3,2.3-5.4,5.4-5.4c3.5,0,5.3,2.5,5.3,5.2c0,3.1-2.3,5.3-5.3,5.3C240.7,73.5,238.6,71,238.6,68.3z
					 M247.8,68.6c0-2.5-1.1-5.2-4-5.2c-1.6,0-3.6,1.1-3.6,4.4c0,2.2,1.1,5.2,4.1,5.2C246.1,73,247.8,71.6,247.8,68.6z"/>
				<path d="M251.6,65.5c0-1.4,0-1.7-0.7-1.8l-0.5-0.1c-0.1-0.1-0.1-0.3,0-0.4c0.9-0.1,1.9-0.1,3.4-0.1c0.9,0,1.8,0.1,2.5,0.5
					c0.7,0.4,1.3,1.1,1.3,2.1c0,1.4-1.1,2.2-1.9,2.5c-0.1,0.1,0,0.2,0.1,0.4c1.2,2,2,3.2,3.1,4c0.3,0.2,0.6,0.4,1,0.4
					c0.1,0,0.1,0.2,0,0.2c-0.1,0-0.4,0.1-0.7,0.1c-1.3,0-2.1-0.4-3.1-1.9c-0.4-0.6-1-1.6-1.5-2.3c-0.2-0.3-0.5-0.5-1.1-0.5
					c-0.7,0-0.7,0-0.7,0.3v1.9c0,1.6,0,1.8,0.9,1.9l0.3,0c0.1,0.1,0.1,0.3,0,0.4c-0.7,0-1.2,0-1.8,0c-0.6,0-1.2,0-1.9,0
					c-0.1,0-0.1-0.3,0-0.4l0.4,0c0.9-0.1,0.9-0.3,0.9-1.9V65.5z M252.9,67.7c0,0.3,0,0.4,0,0.5c0,0,0.3,0.1,1,0.1
					c0.5,0,1.1-0.1,1.6-0.4c0.4-0.3,0.8-0.9,0.8-1.9c0-1.2-0.7-2.3-2.4-2.3c-0.9,0-1,0.1-1,0.5V67.7z"/>
				<path d="M263.7,70.9c0,1.6,0,1.8,0.9,1.9l0.5,0c0.1,0.1,0.1,0.3,0,0.4c-0.9,0-1.4,0-2,0c-0.6,0-1.1,0-2.1,0
					c-0.1,0-0.1-0.3,0-0.4l0.5,0c0.9-0.1,0.9-0.3,0.9-1.9v-6.8c0-0.5,0-0.5-0.5-0.5h-0.8c-0.7,0-1.5,0-1.9,0.4
					c-0.4,0.3-0.5,0.7-0.7,1c-0.1,0.1-0.3,0-0.4-0.1c0.2-0.7,0.5-1.7,0.6-2.3c0,0,0.2,0,0.3,0c0.1,0.5,0.6,0.5,1.3,0.5h6.2
					c0.8,0,1,0,1.2-0.4c0.1,0,0.2,0,0.3,0c-0.2,0.6-0.3,1.9-0.2,2.3c-0.1,0.1-0.3,0.1-0.4,0c0-0.4-0.2-0.9-0.4-1.1
					c-0.3-0.3-0.9-0.4-1.8-0.4h-1.1c-0.5,0-0.4,0-0.4,0.5V70.9z"/>
				<path d="M269.6,65.5c0-1.6,0-1.9-0.9-1.9l-0.4,0c-0.1-0.1-0.1-0.3,0-0.4c0.8,0,1.3,0,1.9,0c0.6,0,1.1,0,1.9,0
					c0.1,0,0.1,0.3,0,0.4l-0.4,0c-0.9,0.1-0.9,0.3-0.9,1.9v5.4c0,1.6,0,1.8,0.9,1.9l0.4,0c0.1,0.1,0.1,0.3,0,0.4c-0.8,0-1.3,0-1.9,0
					c-0.6,0-1.2,0-1.9,0c-0.1,0-0.1-0.3,0-0.4l0.4,0c0.9-0.1,0.9-0.3,0.9-1.9V65.5z"/>
				<path d="M282.4,70.6c0,0.5,0,2.3,0,2.7c0,0.1-0.1,0.2-0.3,0.2c-0.2-0.3-0.6-0.8-1.9-2.3l-3.5-4c-0.4-0.5-1.4-1.7-1.8-2.1h0
					c-0.1,0.2-0.1,0.5-0.1,1v3.3c0,0.7,0,2.7,0.3,3.1c0.1,0.2,0.4,0.3,0.8,0.3l0.5,0c0.1,0.1,0.1,0.3,0,0.4c-0.7,0-1.2,0-1.8,0
					c-0.6,0-1,0-1.6,0c-0.1-0.1-0.1-0.3,0-0.4l0.4,0c0.3,0,0.6-0.1,0.7-0.3c0.2-0.5,0.2-2.4,0.2-3.1V65c0-0.4,0-0.7-0.3-1.1
					c-0.2-0.2-0.6-0.3-0.9-0.4l-0.3,0c-0.1-0.1-0.1-0.3,0-0.4c0.6,0,1.4,0,1.7,0c0.2,0,0.5,0,0.7,0c0.3,0.8,2.1,2.8,2.6,3.3l1.5,1.7
					c1,1.2,1.8,2,2.5,2.8h0c0.1-0.1,0.1-0.3,0.1-0.6V67c0-0.7,0-2.7-0.3-3.1c-0.1-0.1-0.3-0.2-0.9-0.3l-0.3,0
					c-0.1-0.1-0.1-0.3,0-0.4c0.7,0,1.2,0,1.8,0c0.7,0,1,0,1.6,0c0.1,0.1,0.1,0.3,0,0.4l-0.2,0c-0.5,0.1-0.8,0.2-0.9,0.3
					c-0.3,0.5-0.2,2.4-0.2,3.1V70.6z"/>
				<path d="M293.3,71.7c0,0.6,0.1,1,0.4,1.1c0,0,0,0.1,0,0.2c-0.2,0-0.5,0.1-0.7,0.1c-0.8,0.2-1.9,0.4-2.7,0.4
					c-1.8,0-3.5-0.5-4.6-1.7c-0.9-0.9-1.4-2.1-1.4-3.4c0-1.3,0.4-2.6,1.4-3.6c1-1.1,2.5-1.8,4.8-1.8c0.9,0,1.7,0.2,1.9,0.2
					c0.3,0.1,0.8,0.2,0.9,0.1c0,0.5,0.1,1.3,0.2,2.2c0,0.1-0.3,0.1-0.4,0c-0.4-1.6-1.6-2.2-3.1-2.2c-2.9,0-4.2,2.1-4.2,4.4
					c0,2.9,1.5,5.2,4.6,5.2c0.9,0,1.5-0.2,1.7-0.5c0.1-0.1,0.2-0.4,0.2-0.9v-0.6c0-1.3,0-1.4-1-1.5l-0.7-0.1c-0.1-0.1-0.1-0.3,0-0.4
					c0.4,0,1.3,0,2.2,0c0.6,0,1.1,0,1.6,0c0.1,0.1,0.1,0.3,0,0.4l-0.2,0c-0.6,0.1-0.7,0.5-0.7,1.3V71.7z"/>
			</g>
			<g>
				<path d="M112.9,55.6c0,0.5,0,2.3,0,2.7c0,0.1-0.1,0.2-0.3,0.2c-0.2-0.3-0.6-0.8-1.9-2.3l-3.5-4c-0.4-0.5-1.4-1.7-1.8-2.1h0
					c-0.1,0.2-0.1,0.5-0.1,1v3.3c0,0.7,0,2.7,0.3,3.1c0.1,0.2,0.4,0.3,0.8,0.3l0.5,0c0.1,0.1,0.1,0.3,0,0.4c-0.7,0-1.2,0-1.8,0
					c-0.6,0-1,0-1.6,0c-0.1-0.1-0.1-0.3,0-0.4l0.4,0c0.3,0,0.6-0.1,0.7-0.3c0.2-0.5,0.2-2.4,0.2-3.1V50c0-0.4,0-0.7-0.3-1.1
					c-0.2-0.2-0.6-0.3-0.9-0.4l-0.3,0c-0.1-0.1-0.1-0.3,0-0.4c0.6,0,1.4,0,1.7,0c0.2,0,0.5,0,0.7,0c0.3,0.8,2.1,2.8,2.6,3.3l1.5,1.7
					c1,1.2,1.8,2,2.5,2.8h0c0.1-0.1,0.1-0.3,0.1-0.6V52c0-0.7,0-2.7-0.3-3.1c-0.1-0.1-0.3-0.2-0.9-0.3l-0.3,0
					c-0.1-0.1-0.1-0.3,0-0.4c0.7,0,1.2,0,1.8,0c0.7,0,1,0,1.6,0c0.1,0.1,0.1,0.3,0,0.4l-0.2,0c-0.5,0.1-0.8,0.2-0.9,0.3
					c-0.3,0.5-0.2,2.4-0.2,3.1V55.6z"/>
				<path d="M115.8,54.3c-0.4,0-0.4,0-0.4,0.4c0,1.5,0.9,2.8,2.5,2.8c0.5,0,0.9-0.2,1.4-0.7c0.2,0,0.3,0,0.3,0.2
					c-0.5,1-1.6,1.4-2.4,1.4c-1,0-1.8-0.4-2.2-1c-0.5-0.6-0.6-1.3-0.6-2c0-1.9,1.2-3.4,3.1-3.4c1.3,0,2.2,0.9,2.2,1.8
					c0,0.2,0,0.3-0.1,0.4c0,0.1-0.3,0.1-0.9,0.1H115.8z M116.7,53.8c1.1,0,1.5-0.1,1.6-0.2c0,0,0.1-0.1,0.1-0.3c0-0.4-0.3-1-1.2-1
					c-0.9,0-1.7,0.8-1.7,1.3c0,0,0,0.1,0.1,0.1H116.7z"/>
				<path d="M120.3,53.7c-0.3-0.9-0.5-1-0.9-1.1l-0.2-0.1c-0.1-0.1-0.1-0.3,0-0.4c0.5,0,0.9,0,1.4,0c0.5,0,0.9,0,1.3,0
					c0.1,0.1,0.1,0.3,0,0.4l-0.3,0.1c-0.2,0-0.3,0.1-0.3,0.2c0,0.1,0.1,0.4,0.2,0.8l0.9,2.3c0.1,0.3,0.3,0.6,0.3,0.7
					c0,0,0.2-0.3,0.3-0.7l0.7-1.8c0.2-0.5,0.2-0.7,0.1-0.9c-0.1-0.3-0.4-0.5-0.7-0.5l-0.2-0.1c-0.1-0.1-0.1-0.3,0-0.4
					c0.4,0,0.9,0,1.3,0c0.5,0,0.9,0,1.4,0c0.1,0,0.1,0.3,0,0.4l-0.3,0.1c-0.6,0.1-0.6,0.2-0.4,0.7c0.2,0.5,1,2.4,1.2,2.8
					c0.1,0.2,0.2,0.4,0.2,0.4c0,0,0.1-0.2,0.2-0.4c0.2-0.4,0.8-2.1,1-2.7c0.1-0.3,0.2-0.5,0.2-0.7c0-0.1-0.1-0.2-0.3-0.2l-0.4-0.1
					c-0.1-0.1-0.1-0.3,0-0.4c0.4,0,0.8,0,1.2,0c0.3,0,0.7,0,1,0c0.1,0.1,0.1,0.3,0,0.4l-0.3,0.1c-0.4,0.1-0.5,0.3-0.8,1
					c-0.4,0.9-1.1,2.7-1.4,3.4c-0.2,0.5-0.4,1-0.5,1.4c-0.1,0-0.1,0.1-0.2,0.1c-0.1,0-0.1,0-0.2-0.1c-0.1-0.3-0.4-1.1-0.6-1.7
					l-0.7-1.7c-0.1-0.3-0.3-0.8-0.3-0.8c0,0-0.2,0.5-0.3,0.7l-0.8,1.9c-0.3,0.7-0.5,1.2-0.6,1.6c0,0-0.1,0.1-0.2,0.1
					c-0.1,0-0.1,0-0.2-0.1c-0.1-0.3-0.3-0.9-0.5-1.3L120.3,53.7z"/>
				<path d="M133.9,50.4c0-1.6,0-1.8-0.9-1.9l-0.2,0c-0.1-0.1-0.1-0.3,0-0.4c0.7,0,1.2,0,1.8,0h2.9c1,0,1.9,0,2.1,0
					c0.1,0.3,0.2,1.4,0.2,2c-0.1,0.1-0.3,0.1-0.4,0c-0.2-0.7-0.4-1.2-1.2-1.4c-0.3-0.1-0.8-0.1-1.5-0.1h-1.1c-0.5,0-0.5,0-0.5,0.6v3
					c0,0.4,0,0.4,0.5,0.4h0.9c0.6,0,1.1,0,1.3-0.1c0.2-0.1,0.3-0.2,0.4-0.5l0.1-0.6c0.1-0.1,0.3-0.1,0.4,0c0,0.4-0.1,1-0.1,1.5
					c0,0.5,0.1,1.1,0.1,1.5c-0.1,0.1-0.3,0.1-0.4,0l-0.1-0.6c-0.1-0.3-0.2-0.5-0.5-0.6c-0.2-0.1-0.6-0.1-1.2-0.1h-0.9
					c-0.5,0-0.5,0-0.5,0.4v2.1c0,0.8,0,1.3,0.3,1.6c0.2,0.2,0.5,0.3,1.8,0.3c1.2,0,1.6-0.1,1.9-0.2c0.3-0.2,0.7-0.7,1.1-1.5
					c0.1-0.1,0.3,0,0.4,0.1c-0.1,0.5-0.5,1.7-0.7,2.1c-1.4,0-2.7,0-4.1,0h-1.4c-0.7,0-1.2,0-2.1,0c-0.1,0-0.1-0.3,0-0.4l0.5,0
					c0.9-0.1,0.9-0.3,0.9-1.9V50.4z"/>
				<path d="M141.7,53.8c0-0.6,0-0.7-0.4-0.9l-0.1-0.1c-0.1-0.1-0.1-0.2,0-0.3c0.3-0.1,1.2-0.5,1.5-0.7c0.1,0,0.1,0,0.2,0.1
					c0,0.3,0,0.6,0,0.7c0,0.1,0.1,0.2,0.2,0.2c0.6-0.4,1.4-0.8,2.1-0.8c1.3,0,1.8,0.9,1.8,1.9v2.6c0,1.1,0,1.2,0.6,1.3l0.3,0
					c0.1,0.1,0.1,0.3,0,0.4c-0.5,0-0.9,0-1.4,0c-0.5,0-1,0-1.4,0c-0.1,0-0.1-0.3,0-0.4l0.3,0c0.6-0.1,0.6-0.2,0.6-1.3v-2.3
					c0-0.9-0.4-1.5-1.4-1.5c-0.6,0-1.1,0.2-1.3,0.5c-0.2,0.3-0.2,0.5-0.2,0.9v2.3c0,1.1,0,1.2,0.6,1.3l0.3,0c0.1,0.1,0.1,0.3,0,0.4
					c-0.4,0-0.9,0-1.4,0c-0.5,0-1,0-1.4,0c-0.1,0-0.1-0.3,0-0.4l0.3,0c0.6-0.1,0.6-0.2,0.6-1.3V53.8z"/>
				<path d="M154.5,52.5c0.2,0.1,0.1,0.6-0.1,0.6h-1.1c0,0.3,0,0.5,0,0.8c0,1-0.6,2.4-2.6,2.4c-0.3,0-0.5,0-0.7,0
					c-0.2,0.1-0.7,0.4-0.7,0.8c0,0.3,0.3,0.6,1.1,0.6c0.5,0,1.1,0,1.8,0c0.9,0,2.1,0.2,2.1,1.7c0,1.7-1.8,2.9-3.8,2.9
					c-1.9,0-2.5-1-2.5-1.8c0-0.2,0.1-0.4,0.2-0.6c0.3-0.3,0.7-0.7,1-1c0.1-0.1,0.3-0.3,0.1-0.4c-0.6-0.2-1.1-0.7-1.1-1.2
					c0-0.1,0.1-0.1,0.2-0.3c0.3-0.2,0.5-0.4,0.8-0.7c0.1-0.1,0.2-0.2,0.2-0.3c-0.5-0.3-1.1-0.9-1.1-1.8c0-1.3,1.1-2.3,2.5-2.3
					c0.6,0,1.1,0.2,1.5,0.3c0.5,0.2,0.6,0.2,0.9,0.2H154.5z M151.4,58.7c-0.5,0-1.1,0-1.3,0.2c-0.4,0.2-0.7,0.7-0.7,1.3
					c0,0.8,0.7,1.5,2,1.5c1.4,0,2.2-0.8,2.2-1.6c0-0.9-0.6-1.3-1.7-1.3H151.4z M152.3,54.3c0-1-0.4-1.9-1.4-1.9
					c-0.7,0-1.3,0.7-1.3,1.7c0,1.1,0.7,1.8,1.4,1.8C151.9,55.9,152.3,55.3,152.3,54.3z"/>
				<path d="M156.6,56.5c0,1.1,0,1.2,0.6,1.3l0.4,0c0.1,0.1,0.1,0.3,0,0.4c-0.5,0-0.9,0-1.5,0c-0.5,0-1,0-1.5,0
					c-0.1,0-0.1-0.3,0-0.4l0.3,0c0.6-0.1,0.6-0.2,0.6-1.3v-6.9c0-0.9,0-1-0.5-1.3l-0.2-0.1c-0.1,0-0.1-0.3,0-0.3
					c0.4-0.1,1.1-0.3,1.6-0.6c0.1,0,0.1,0,0.2,0.1c0,0.5,0,1.2,0,1.9V56.5z"/>
				<path d="M161,55c0.2-0.1,0.2-0.2,0.3-0.4l0-0.7c0-0.6-0.2-1.3-1.1-1.3c-0.4,0-0.9,0.2-1,0.7c0,0.2,0,0.4-0.2,0.5
					c-0.2,0.2-0.6,0.3-0.9,0.3c-0.1,0-0.2-0.1-0.2-0.2c0-0.8,1.7-1.9,2.8-1.9c1.1,0,1.6,0.6,1.6,1.8l-0.1,2.6c0,0.7,0.1,1.3,0.7,1.3
					c0.2,0,0.3,0,0.4-0.1c0.1,0,0.2-0.1,0.2-0.1c0.1,0,0.1,0.1,0.1,0.2c0,0.1-0.5,0.7-1.3,0.7c-0.4,0-0.7-0.1-1-0.5
					c-0.1-0.1-0.2-0.2-0.2-0.2c-0.1,0-0.3,0.1-0.6,0.3c-0.3,0.2-0.7,0.4-1.1,0.4c-0.4,0-0.8-0.1-1.1-0.3c-0.3-0.3-0.5-0.6-0.5-1.1
					c0-0.6,0.3-0.9,1.3-1.3L161,55z M160.1,57.7c0.3,0,0.8-0.2,0.9-0.4c0.2-0.2,0.2-0.4,0.2-0.7l0-0.9c0-0.2-0.1-0.2-0.2-0.2
					c-0.1,0-0.3,0.1-0.6,0.2c-0.9,0.3-1.3,0.5-1.3,1.1C159.1,57.1,159.3,57.7,160.1,57.7z"/>
				<path d="M164.6,53.8c0-0.6,0-0.7-0.4-0.9l-0.1-0.1c-0.1-0.1-0.1-0.2,0-0.3c0.3-0.1,1.2-0.5,1.5-0.7c0.1,0,0.1,0,0.2,0.1
					c0,0.3,0,0.6,0,0.7c0,0.1,0.1,0.2,0.2,0.2c0.6-0.4,1.4-0.8,2.1-0.8c1.3,0,1.8,0.9,1.8,1.9v2.6c0,1.1,0,1.2,0.6,1.3l0.3,0
					c0.1,0.1,0.1,0.3,0,0.4c-0.5,0-0.9,0-1.4,0c-0.5,0-1,0-1.4,0c-0.1,0-0.1-0.3,0-0.4l0.3,0c0.6-0.1,0.6-0.2,0.6-1.3v-2.3
					c0-0.9-0.4-1.5-1.4-1.5c-0.6,0-1.1,0.2-1.3,0.5c-0.2,0.3-0.2,0.5-0.2,0.9v2.3c0,1.1,0,1.2,0.6,1.3l0.3,0c0.1,0.1,0.1,0.3,0,0.4
					c-0.4,0-0.9,0-1.4,0c-0.5,0-1,0-1.4,0c-0.1,0-0.1-0.3,0-0.4l0.3,0c0.6-0.1,0.6-0.2,0.6-1.3V53.8z"/>
				<path d="M177,56c0,1.2,0,1.8,0.4,1.8c0.2,0,0.4-0.1,0.7-0.2c0.1,0,0.1,0.4,0,0.5c-0.6,0.1-1.6,0.3-2,0.5c-0.1,0-0.2,0-0.2-0.1
					v-0.3c0-0.2,0-0.4,0-0.5h-0.1c-0.7,0.5-1.2,0.7-1.9,0.7c-1.7,0-2.8-1.3-2.8-2.9c0-2.1,1.6-3.5,3.7-3.5c0.5,0,0.9,0.1,1,0.1
					c0.1,0,0.1-0.1,0.1-0.2v-2.3c0-0.9,0-1-0.5-1.3l-0.2-0.1c-0.1,0-0.1-0.3,0-0.3c0.4-0.1,1.1-0.3,1.6-0.6c0.1,0,0.1,0,0.2,0.1
					c0,0.5,0,1.2,0,1.9V56z M175.9,53.7c0-0.3-0.1-0.4-0.2-0.6c-0.2-0.3-0.7-0.6-1.3-0.6c-1.4,0-2.1,1.2-2.1,2.5
					c0,1.4,0.8,2.7,2.3,2.7c0.4,0,0.9-0.2,1.2-0.4c0.1-0.1,0.1-0.3,0.1-0.6V53.7z"/>
			</g>
		</g>
		<g>
			<polygon points="75.2,59.9 81,64.7 72.9,74.7 67,69.9 			"/>
			<rect x="75.6" y="60.1" transform="matrix(-0.7733 -0.634 0.634 -0.7733 102.3885 157.9874)" width="7.6" height="1.1"/>
			<rect x="80.2" y="54.2" transform="matrix(0.634 -0.7733 0.7733 0.634 -14.9459 84.3705)" width="2.8" height="7.6"/>
			<rect x="81.8" y="54.2" transform="matrix(0.7732 0.6341 -0.6341 0.7732 53.8749 -40.7546)" width="4.2" height="1.5"/>
			<path d="M96.1,21.5c-9.9,0-17.9,8-17.9,17.9c0,9.9,8,17.9,17.9,17.9c1.6,0,3.1-0.2,4.5-0.6v-2.1c-1.4,0.4-3,0.7-4.5,0.7
				c-8.7,0-15.9-7.1-15.9-15.9c0-8.7,7.1-15.9,15.9-15.9s15.9,7.1,15.9,15.9c0,1.9-0.3,3.7-0.9,5.4h2.1c0.5-1.7,0.8-3.5,0.8-5.4
				C114,29.5,105.9,21.5,96.1,21.5z"/>
		</g>
	</g>
</g>
<g id="Layer_1">
</g>
</svg>
