<?xml version="1.0" encoding="utf-8"?>
<!-- Generator: Adobe Illustrator 18.0.0, SVG Export Plug-In . SVG Version: 6.00 Build 0)  -->
<!DOCTYPE svg PUBLIC "-//W3C//DTD SVG 1.1//EN" "http://www.w3.org/Graphics/SVG/1.1/DTD/svg11.dtd">
<svg version="1.1" xmlns="http://www.w3.org/2000/svg" xmlns:xlink="http://www.w3.org/1999/xlink" x="0px" y="0px"
	 viewBox="0 0 300 100" style="enable-background:new 0 0 300 100;" xml:space="preserve">
<style type="text/css">
	.st0{fill-rule:evenodd;clip-rule:evenodd;}
	.st1{fill-rule:evenodd;clip-rule:evenodd;fill:#C038F9;}
	.st2{fill:none;}
	.st3{fill-rule:evenodd;clip-rule:evenodd;fill:#231F20;}
</style>
<g id="Layer_2">
</g>
<g id="Layer_1">
	<g>
		<path class="st0" d="M41.8,47.8H30.1V47c3.1,0,3.7-1.4,3.7-2.6V21.6h-3.1c-3.1,0-5.1-0.9-6,4.5H24l0-6.3h24l0,6.3h-0.8
			c-0.9-5.4-2.9-4.5-6-4.5h-3.1v22.9c0,1.2,0.6,2.6,3.7,2.6V47.8L41.8,47.8z"/>
		<path class="st0" d="M64.2,36.2V29c0-0.9-0.5-2-2.8-2v-0.6h9v0.6c-2.4,0-2.8,1-2.8,2v16.2c0,0.9,0.5,2,2.8,2v0.6h-9v-0.6
			c2.4,0,2.8-1,2.8-2v-7.7h-9.8v7.7c0,0.9,0.5,2,2.8,2v0.6h-9v-0.6c2.4,0,2.8-1,2.8-2V29c0-0.9-0.5-2-2.8-2v-0.6h9v0.6
			c-2.4,0-2.8,1-2.8,2v7.2H64.2L64.2,36.2z"/>
		<path class="st0" d="M71.4,47.8v-0.6c2.4,0,2.8-1,2.8-2V29c0-0.9-0.5-2-2.8-2v-0.6h17.1v4.6h-0.7c-0.4-1.7-1.4-3.3-3.7-3.3h-5.2
			c-0.8,0-1.4,0.5-1.4,1.3V36h2.3c2.2,0,4-0.6,4-3.1h0.4v7.6h-0.4c0-2.5-1.8-3.1-4-3.1h-2.3v7.9c0,0.6,0.2,1.3,0.8,1.3h4.3
			c2.6,0,3.9,0,5.6-4.1h0.9l-0.3,5.5H71.4L71.4,47.8z"/>
		<path class="st0" d="M142.3,36.2V29c0-0.9-0.5-2-2.8-2v-0.6h9v0.6c-2.4,0-2.8,1-2.8,2v16.2c0,0.9,0.5,2,2.8,2v0.6h-9v-0.6
			c2.4,0,2.8-1,2.8-2v-7.7h-9.8v7.7c0,0.9,0.5,2,2.8,2v0.6h-9v-0.6c2.4,0,2.8-1,2.8-2V29c0-0.9-0.5-2-2.8-2v-0.6h9v0.6
			c-2.4,0-2.8,1-2.8,2v7.2H142.3L142.3,36.2z"/>
		<path class="st0" d="M167,45.4l-6.4-7.9c3-0.4,5.8-2,5.8-5.4c0-3.8-3.2-5.7-8.6-5.7h-8.5v0.6c2.3,0,2.8,1,2.8,2v16.2
			c0,0.9-0.5,2-2.8,2v0.6h8.9v-0.6c-2.4,0-2.8-1-2.8-2v-7.3l1.8-0.1l7.7,10h5.2v-0.6C168.7,47.1,167.9,46.5,167,45.4z M155.4,36.8
			v-7.6c0-1.5,0.3-1.5,2.4-1.5c2.9,0,5.2,1.3,5.2,4.5C163,35.6,160.1,36.6,155.4,36.8z"/>
		<path class="st0" d="M177.1,45.2c0,0.9,0.5,2,3.2,2v0.6h-9.6v-0.6c2.7,0,3.2-1,3.2-2V29c0-0.9-0.5-2-3.2-2v-0.6h9.6v0.6
			c-2.7,0-3.2,1-3.2,2V45.2L177.1,45.2z"/>
		<path class="st0" d="M180.9,41.3h0.7c1,3,3.3,5.7,6.7,5.7c2.6,0,4.4-2.3,3.6-4.8c-1.3-4.5-10.1-4.7-10.1-10.9
			c0-3.2,2.5-5.4,5.7-5.4c3.4,0,5,2.4,5.7,0h0.7l0.7,6.9h-0.8c-0.7-3-2.9-5.6-5.9-5.6c-1.9,0-3.4,1.1-3.4,3.1c0,1.9,2,3.2,3.4,4
			c4.4,2.6,7.4,4,7.4,7.9c0,2.9-2.4,5.9-6.8,5.9c-3.4,0-5.7-2.4-6,0h-0.7L180.9,41.3L180.9,41.3z"/>
		<path class="st0" d="M210.4,47.8h-9v-0.6c2.4,0,2.8-1,2.8-2V27.8H202c-2.4,0-3.9,0-4.6,4.1h-0.8l0.2-5.5h18.3l0.2,5.5h-0.8
			c-0.7-4.1-2.2-4.1-4.6-4.1h-2.3v17.4c0,0.9,0.5,2,2.8,2V47.8L210.4,47.8z"/>
		<path class="st0" d="M222.8,45.2c0,0.9,0.5,2,3.2,2v0.6h-9.6v-0.6c2.7,0,3.2-1,3.2-2V29c0-0.9-0.5-2-3.2-2v-0.6h9.6v0.6
			c-2.7,0-3.2,1-3.2,2V45.2L222.8,45.2z"/>
		<path class="st0" d="M246.3,44l-7.9-18h-0.6l-6.6,15.6c-1.3,3.1-2.2,5.5-4.2,5.7v0.6h6.4v-0.6c-1.1,0-2.2-0.3-2.2-1.4
			c0-1.2,1.3-3.8,1.7-5h8.5l1.2,2.8c1.2,2.9,1.3,3.5-1.5,3.6v0.6h8.2v-0.6C247.5,47.3,246.8,45.4,246.3,44z M234,39.5l3.7-8.9
			l3.8,8.9H234z"/>
		<path class="st0" d="M269.6,48.3h-0.5l-14.3-17.8v14.8c0,0.9,0.5,2,3.1,2v0.6h-7.7v-0.6c2.6,0,3.1-1,3.1-2V28.8l-0.3-0.3
			c-1-1.1-1.3-1.4-2.9-1.5v-0.6h5.5L268.2,42V29c0-0.9-0.5-2-3.1-2v-0.6h7.7v0.6c-2.6,0-3.1,1-3.1,2V48.3L269.6,48.3z"/>
		<path class="st0" d="M0,71.6h1c1.3,3.9,4.3,7.5,8.8,7.5c3.4,0,5.8-3,4.8-6.3c-1.7-5.9-13.3-6.2-13.3-14.3c0-4.2,3.3-7.1,7.5-7.1
			c4.5,0,6.5,3.1,7.5,0h0.9l0.9,9H17c-1-3.9-3.8-7.3-7.7-7.3c-2.5,0-4.4,1.4-4.4,4.1c0,2.5,2.7,4.2,4.5,5.3C15.1,66,19,67.8,19,72.9
			c0,3.8-3.2,7.8-8.9,7.8c-4.4,0-7.5-3.1-7.9,0H1.3L0,71.6L0,71.6z"/>
		<path class="st0" d="M24.5,69.4c0-5.8,2.3-9.8,7.6-9.8c3.7,0,6,2.4,7,6h0.8l-0.3-7.3h-0.7c-1.1,2.6-2.7,0-7.1,0
			c-6.5,0-11,4.7-11,11.1c0,6.4,4.6,11.1,11,11.1c4.4,0,6-2.6,7.1,0h0.7l0.3-7.3h-0.8c-0.9,3.6-3.3,6-7,6
			C26.8,79.1,24.5,75.2,24.5,69.4L24.5,69.4z"/>
		<path class="st0" d="M48.3,77.5c0,0.9,0.5,2,3.2,2v0.6h-9.6v-0.6c2.7,0,3.2-1,3.2-2V61.3c0-0.9-0.5-2-3.2-2v-0.6h9.6v0.6
			c-2.7,0-3.2,1-3.2,2V77.5L48.3,77.5z"/>
		<path class="st0" d="M90.9,80.6h-0.5L76.1,62.8v14.8c0,0.9,0.5,2,3.1,2v0.6h-7.7v-0.6c2.6,0,3.1-1,3.1-2V61.1l-0.3-0.3
			c-1-1.1-1.3-1.4-2.9-1.5v-0.6h5.5l12.4,15.5V61.3c0-0.9-0.5-2-3.1-2v-0.6h7.7v0.6c-2.6,0-3.1,1-3.1,2V80.6L90.9,80.6z"/>
		<path class="st0" d="M177.4,76.7c0,1.2,0.6,2.6,3.7,2.6v0.8h-11.8v-0.8c3.1,0,3.7-1.4,3.7-2.6V56l-10.8,24.1h-0.6L151,57v19.7
			c0,1.2,0.6,2.6,4.1,2.6v0.8h-10.1v-0.8c3.5,0,4.1-1.4,4.1-2.6V55.4c0-1.2-0.6-2.6-4-2.6v-0.8h8.4l9.8,21.4l9.4-21.4h8.4v0.8
			c-3.1,0-3.7,1.4-3.7,2.6L177.4,76.7L177.4,76.7z"/>
		<path class="st0" d="M191.8,58.3c-6.3-0.1-10.6,4.7-10.6,11.1c0,6.8,4.9,11.1,10.6,11.1c6.5,0,10.6-4.9,10.6-11.1
			C202.4,62.5,197.4,58,191.8,58.3z M191.8,79.4c-3.8,0.3-6.9-3.3-6.9-10c0-6.2,2.1-9.7,6.9-10c5-0.1,6.9,4.9,6.9,10
			C198.9,72.9,197.6,78.9,191.8,79.4z"/>
		<path class="st0" d="M221.9,80.6h-0.5l-14.3-17.8v14.8c0,0.9,0.5,2,3.1,2v0.6h-7.7v-0.6c2.6,0,3.1-1,3.1-2V61.1l-0.3-0.3
			c-1-1.1-1.3-1.4-2.9-1.5v-0.6h5.5l12.4,15.5V61.3c0-0.9-0.5-2-3.1-2v-0.6h7.7v0.6c-2.6,0-3.1,1-3.1,2V80.6L221.9,80.6z"/>
		<path class="st0" d="M232.5,77.5c0,0.9,0.5,2,3.2,2v0.6H226v-0.6c2.7,0,3.2-1,3.2-2V61.3c0-0.9-0.5-2-3.2-2v-0.6h9.6v0.6
			c-2.7,0-3.2,1-3.2,2V77.5L232.5,77.5z"/>
		<path class="st0" d="M250.5,80.1h-9v-0.6c2.4,0,2.8-1,2.8-2V60.1h-2.3c-2.4,0-3.9,0-4.6,4.1h-0.8l0.2-5.5h18.3l0.2,5.5h-0.8
			c-0.7-4.1-2.2-4.1-4.6-4.1h-2.3v17.4c0,0.9,0.5,2,2.8,2V80.1L250.5,80.1z"/>
		<path class="st0" d="M267.2,58.3c-6.3-0.1-10.6,4.7-10.6,11.1c0,6.8,4.9,11.1,10.6,11.1c6.5,0,10.5-4.9,10.5-11.1
			C277.7,62.5,272.8,58,267.2,58.3z M267.2,79.4c-3.8,0.3-6.9-3.3-6.9-10c0-6.2,2.1-9.7,6.9-10c5-0.1,6.9,4.9,6.9,10
			C274.2,72.9,272.9,78.9,267.2,79.4z"/>
		<path class="st0" d="M295.4,77.7l-6.4-7.9c3-0.4,5.8-2,5.8-5.4c0-3.8-3.2-5.7-8.6-5.7h-8.5v0.6c2.3,0,2.7,1,2.7,2v16.2
			c0,0.9-0.5,2-2.7,2v0.6h8.9v-0.6c-2.3,0-2.8-1-2.8-2v-7.3l1.8-0.1l7.7,10h5.2v-0.6C297,79.4,296.2,78.7,295.4,77.7z M283.7,69
			v-7.6c0-1.5,0.3-1.5,2.4-1.5c2.9,0,5.2,1.3,5.2,4.4C291.3,67.9,288.4,68.9,283.7,69z"/>
		<path class="st0" d="M52.4,80.1v-0.6c2.4,0,2.8-1,2.8-2V61.3c0-0.9-0.5-2-2.8-2v-0.6h17.1v4.6h-0.7c-0.4-1.7-1.4-3.3-3.7-3.3H60
			c-0.8,0-1.4,0.5-1.4,1.3v6.9h2.3c2.2,0,4-0.6,4-3.1h0.4v7.6h-0.4c0-2.5-1.8-3.1-4-3.1h-2.3v7.9c0,0.6,0.2,1.3,0.8,1.3h4.3
			c2.6,0,3.9,0,5.6-4.1h0.9l-0.3,5.5H52.4L52.4,80.1z"/>
		<path class="st0" d="M114.7,80.1v-0.6c2.4,0,2.8-1,2.8-2V61.3c0-0.9-0.5-2-2.8-2v-0.6h17.1v4.6h-0.7c-0.4-1.7-1.4-3.3-3.7-3.3
			h-5.2c-0.8,0-1.4,0.5-1.4,1.3v6.9h2.3c2.2,0,4-0.6,4-3.1h0.4v7.6h-0.4c0-2.5-1.8-3.1-4-3.1h-2.3v7.9c0,0.6,0.2,1.3,0.8,1.3h4.3
			c2.6,0,3.9,0,5.6-4.1h0.9l-0.3,5.5H114.7L114.7,80.1z"/>
		<path class="st0" d="M97.6,69.4c0-5.8,2.3-9.8,7.6-9.8c3.7,0,6,2.4,7,6h0.8l-0.3-7.3H112c-1.1,2.6-2.7,0-7.1,0
			c-6.5,0-11,4.7-11,11.1c0,6.4,4.6,11.1,11,11.1c4.4,0,6-2.6,7.1,0h0.7l0.3-7.3h-0.8c-0.9,3.6-3.3,6-7,6
			C99.9,79.1,97.6,75.2,97.6,69.4L97.6,69.4z"/>
		<path class="st0" d="M104.8,33.7c0-7.5,3-12.6,9.8-12.6c4.8,0,7.8,3.1,9,7.7h1l-0.4-9.4h-0.9c-1.4,3.4-3.5,0-9.2,0
			c-8.4,0-14.3,6-14.3,14.3c0,8.3,5.9,14.3,14.3,14.3c5.7,0,7.8-3.4,9.2,0h0.9l0.4-9.4h-1c-1.2,4.6-4.3,7.7-9,7.7
			C107.8,46.3,104.8,41.2,104.8,33.7L104.8,33.7z"/>
	</g>
</g>
</svg>
