<?xml version="1.0" encoding="utf-8"?>
<!-- Generator: Adobe Illustrator 18.0.0, SVG Export Plug-In . SVG Version: 6.00 Build 0)  -->
<!DOCTYPE svg PUBLIC "-//W3C//DTD SVG 1.1//EN" "http://www.w3.org/Graphics/SVG/1.1/DTD/svg11.dtd">
<svg version="1.1" xmlns="http://www.w3.org/2000/svg" xmlns:xlink="http://www.w3.org/1999/xlink" x="0px" y="0px"
	 viewBox="0 0 300 100" style="enable-background:new 0 0 300 100;" xml:space="preserve">
<style type="text/css">
	.st0{fill-rule:evenodd;clip-rule:evenodd;}
	.st1{fill-rule:evenodd;clip-rule:evenodd;fill:#C038F9;}
	.st2{fill:none;}
	.st3{fill-rule:evenodd;clip-rule:evenodd;fill:#231F20;}
</style>
<g id="Layer_2">
</g>
<g id="Layer_1">
	<g>
		<g>
			<path d="M119.5,24.5c0-2.5,1.3-3.9,3.8-3.9c0.6,0,1.6,0.1,2.4,0.7c1,0.8,1.1,2.1,1.1,3h-2.4c0-0.5,0-1.7-1.2-1.7
				c-0.3,0-0.7,0.1-0.9,0.3c-0.4,0.4-0.4,0.9-0.4,1.2v4.1c0,0.6,0,1.7,1.3,1.7c1,0,1.3-0.8,1.3-2h2.4c0,0.8,0,0.9-0.1,1.3
				c-0.1,0.4-0.2,1.2-1.1,1.9c-0.8,0.6-1.9,0.7-2.4,0.7c-1.3,0-2.1-0.3-2.8-1c-0.4-0.4-1-1-1-3.3V24.5z"/>
			<path d="M131.3,20.9h7.3v2h-4.9v2.3h3.4v2h-3.3v2.5h5.2v2h-7.6V20.9z"/>
			<path d="M143.2,20.9h2.3l2.8,5c0.1,0.2,0.3,0.5,0.4,0.7c0,0.1,0.2,0.5,0.2,0.6h0.1l-0.1-1.1c0-0.7,0-0.8,0-1.2v-4h2.2v10.8H149
				l-2.9-5.2c-0.2-0.4-0.3-0.5-0.8-1.8h-0.1c0,0.3,0.1,1.7,0.1,2v5.1h-2.2V20.9z"/>
			<path d="M162.8,20.9v2h-2.7v8.8h-2.5v-8.8h-2.8v-2H162.8z"/>
			<path d="M167.1,20.9h7.3v2h-4.9v2.3h3.4v2h-3.3v2.5h5.2v2h-7.6V20.9z"/>
			<path d="M181.1,31.7h-2.3V20.9h3.5c1.8,0,4,0.2,4,3.1c0,1.4-0.5,2.4-2.1,2.9l2.4,4.8H184l-2-4.4h-0.8V31.7z M181.1,25.6
				c1.3,0,1.5,0,1.9-0.1c0.8-0.3,0.8-0.9,0.8-1.4c0-0.8-0.2-1.1-0.7-1.3c-0.4-0.1-0.7-0.1-2-0.1V25.6z"/>
			<path d="M196.4,20.9h7.2v2h-4.8v2.3h3.2v2h-3.2v4.5h-2.4V20.9z"/>
			<path d="M206.8,24.7c0-1.1,0.2-2.2,0.9-3c0.7-0.8,1.7-1,2.7-1c1.1,0,2.1,0.3,2.8,1c0.6,0.6,0.9,1.6,0.9,3.3v2.6
				c0,1.5-0.3,2.5-0.9,3.2c-0.9,1-2.2,1.1-2.9,1.1c-1.1,0-2.8-0.4-3.3-2.2c-0.2-0.8-0.3-1.7-0.3-2.2V24.7z M209.3,28.1
				c0,1.1,0.2,1.9,1.3,1.9c1.3,0,1.3-1.2,1.3-1.9v-3.8c0-0.8,0-1.7-1.3-1.7c-1.3,0-1.3,1.2-1.3,1.7V28.1z"/>
			<path d="M221,31.7h-2.3V20.9h3.5c1.8,0,4,0.2,4,3.1c0,1.4-0.5,2.4-2.1,2.9l2.4,4.8h-2.6l-2-4.4H221V31.7z M221,25.6
				c1.3,0,1.5,0,1.9-0.1c0.8-0.3,0.8-0.9,0.8-1.4c0-0.8-0.2-1.1-0.7-1.3c-0.4-0.1-0.7-0.1-2-0.1V25.6z"/>
			<path d="M118.9,55.8v-1.4h1.9V41h-1.9v-1.4h7.4V41h-1.9v13.3h1.9v1.5H118.9z"/>
			<path d="M129,39.6h3.4l4.2,7.6c0.2,0.3,0.4,0.8,0.6,1.1c0.1,0.1,0.3,0.7,0.4,0.8h0.1l-0.1-1.6c-0.1-1.1-0.1-1.2-0.1-1.9v-6h3.3
				v16.2h-2.9l-4.3-7.9c-0.4-0.6-0.4-0.7-1.2-2.7h-0.1c0,0.5,0.1,2.5,0.1,2.9v7.6H129V39.6z"/>
			<path d="M148.3,55.8l-4.9-16.2h3.6l2.5,8.7c0.4,1.3,0.6,2.3,0.8,2.8h0.1c0.2-1,0.5-1.9,0.8-2.9l2.4-8.6h3.5l-4.8,16.2H148.3z"/>
			<path d="M159.5,39.6h10.9v3H163V46h5.1v3h-5v3.8h7.8v3h-11.4V39.6z"/>
			<path d="M181.6,43.9c-0.5-1-1.5-1.8-2.8-1.8c-1.9,0-1.9,1.4-1.9,1.6c0,1.1,1.1,1.6,2.1,2l2.1,0.8c1,0.4,2.1,1,2.8,1.9
				c0.2,0.3,0.9,1.3,0.9,2.8c0,0.7,0,2.9-2.3,4.3c-0.9,0.6-2.3,0.8-3.1,0.8c-2.8,0-4.5-0.7-6-3.3l2.8-1.8c0.6,1.4,1.7,2.2,3.1,2.2
				c0.8,0,2.2-0.4,2.2-1.8c0-1.2-0.7-1.5-3.1-2.4c-2.4-0.9-4.6-2-4.6-5.2c0-2.7,1.9-4.6,5.3-4.6c2.4,0,4.1,1,5.4,2.9L181.6,43.9z"/>
			<path d="M198.4,39.6v3h-4v13.2h-3.7V42.5h-4.1v-3H198.4z"/>
			<path d="M200,55.8v-1.4h1.9V41H200v-1.4h7.4V41h-1.9v13.3h1.9v1.5H200z"/>
			<path d="M210.4,45.6c0-1.4,0-3.5,1.7-5c1.2-1.1,2.7-1.3,4.3-1.3c3.1,0,5.3,1.9,5.3,5h-3.5c-0.1-1.4-0.8-2.1-2-2.1
				c-1.9,0-2,1.6-2,2.5v5.1c0,2.1,0.4,3.4,2.1,3.4c1.9,0,1.9-1.5,1.9-2.1V50h-1.9v-2.7h5.4V56H220l-0.5-1.1h-0.2
				c-0.5,0.6-1.2,1.4-3.7,1.4c-1.6,0-3.1-0.5-4.2-1.8c-0.9-1.1-1.1-2.5-1.1-4.5V45.6z"/>
			<path d="M233.4,39.6l4.7,16.2h-3.5l-0.8-3.2h-5l-0.8,3.2h-3.5l4.6-16.2H233.4z M231.3,42.5L231.3,42.5l-1.9,7.3h3.6L231.3,42.5z"
				/>
			<path d="M250.7,39.6v3h-4v13.2H243V42.5h-4.1v-3H250.7z"/>
			<path d="M252.5,55.8v-1.4h1.9V41h-1.9v-1.4h7.4V41H258v13.3h1.9v1.5H252.5z"/>
			<path d="M266.6,55.8l-4.9-16.2h3.6l2.5,8.7c0.4,1.3,0.6,2.3,0.8,2.8h0.1c0.2-1,0.5-1.9,0.8-2.9l2.4-8.6h3.5l-4.8,16.2H266.6z"/>
			<path d="M278.2,39.6H289v3h-7.4V46h5.1v3h-5v3.8h7.8v3h-11.4V39.6z"/>
			<path d="M123.7,79.2h-3.5V63h5.2c2.6,0,6,0.4,6,4.7c0,2.1-0.8,3.6-3.1,4.3l3.5,7.2H128l-3.1-6.6h-1.2V79.2z M123.7,70
				c2,0,2.3,0,2.8-0.2c1.1-0.4,1.2-1.3,1.2-2.2c0-1.1-0.4-1.7-1.1-1.9c-0.6-0.2-1-0.2-3-0.2V70z"/>
			<path d="M135.4,63h10.9v3h-7.4v3.4h5.1v3h-5v3.8h7.8v3h-11.4V63z"/>
			<path d="M150.6,63h5.3c2.4,0,3.7,0.5,4.5,1.3c1,0.9,1.5,2.2,1.5,3.8c0,2.5-1.4,3.7-2.1,4.2c-1.2,0.7-2.5,0.8-3.7,0.8l-1.9,0.1
				v6.1h-3.6V63z M154.2,70.4c1.7,0,2.3,0,2.8-0.2c0.3-0.1,1.3-0.6,1.3-2.3c0-1.6-0.6-1.9-1.1-2.1c-0.6-0.2-0.8-0.2-3-0.2V70.4z"/>
			<path d="M164.6,68.7c0-1.7,0.3-3.2,1.4-4.5c1-1.1,2.5-1.5,4.1-1.5c1.7,0,3.2,0.4,4.3,1.6c0.9,1,1.4,2.4,1.4,5v3.9
				c0,2.3-0.4,3.7-1.4,4.8c-1.3,1.5-3.3,1.6-4.3,1.6c-1.6,0-4.2-0.6-5-3.3c-0.4-1.1-0.4-2.6-0.4-3.3V68.7z M168.2,73.8
				c0,1.7,0.3,2.9,1.9,2.9c1.9,0,1.9-1.8,1.9-2.9v-5.6c0-1.1,0-2.5-1.9-2.5c-2,0-2,1.9-2,2.5V73.8z"/>
			<path d="M183.3,79.2h-3.5V63h5.2c2.6,0,6,0.4,6,4.7c0,2.1-0.8,3.6-3.1,4.3l3.5,7.2h-3.9l-3.1-6.6h-1.2V79.2z M183.3,70
				c2,0,2.3,0,2.8-0.2c1.1-0.4,1.2-1.3,1.2-2.2c0-1.1-0.4-1.7-1.1-1.9c-0.6-0.2-1-0.2-3-0.2V70z"/>
			<path d="M205.6,63v3h-4v13.2h-3.7V65.9h-4.1v-3H205.6z"/>
			<path d="M208.3,79.2v-1.4h1.9V64.4h-1.9V63h7.4v1.4h-1.9v13.3h1.9v1.5H208.3z"/>
			<path d="M219.1,63h3.4l4.2,7.6c0.2,0.3,0.4,0.8,0.6,1.1c0.1,0.1,0.3,0.7,0.4,0.8h0.1l-0.1-1.6c-0.1-1.1-0.1-1.2-0.1-1.9v-6h3.3
				v16.2h-2.9l-4.3-7.9c-0.4-0.6-0.4-0.7-1.2-2.7h-0.1c0,0.5,0.1,2.5,0.1,2.9v7.6h-3.3V63z"/>
			<path d="M234.9,69c0-1.4,0-3.5,1.7-5c1.2-1.1,2.7-1.3,4.3-1.3c3.1,0,5.3,1.9,5.3,5h-3.5c-0.1-1.4-0.8-2.1-2-2.1
				c-1.9,0-2,1.6-2,2.5v5.1c0,2.1,0.4,3.4,2.1,3.4c1.9,0,1.9-1.5,1.9-2.1v-1.1h-1.9v-2.7h5.4v8.7h-1.6l-0.5-1.1h-0.2
				c-0.5,0.6-1.2,1.4-3.7,1.4c-1.6,0-3.1-0.5-4.2-1.8c-0.9-1.1-1.1-2.5-1.1-4.5V69z"/>
		</g>
		<g>
			<path d="M12.1,50C12.1,50,12.1,50,12.1,50C12.1,50,12.1,50,12.1,50c11.8,29.5,62.2,57.6,97.2,0v0C74.3-7.6,23.8,20.5,12.1,50z
				 M99.2,50C71.8,95.3,32,73.2,22.8,50c0,0,0,0,0,0c0,0,0,0,0,0C32,26.8,71.8,4.7,99.2,50L99.2,50z"/>
			<path d="M72.4,58.1c-2.5,3.7-6.7,6.1-11.5,6.1c-7.7,0-13.9-6.2-13.9-13.9c0-7.7,6.2-13.9,13.9-13.9c4.6,0,8.7,2.3,11.3,5.8
				l6.6-4.6c-4-5.6-10.5-9.2-17.8-9.2C48.8,28.4,39,38.2,39,50.3c0,12.1,9.8,21.9,21.9,21.9c7.5,0,14.2-3.8,18.2-9.7L72.4,58.1z"/>
			<path d="M67.8,55c-1.5,2.3-4.2,3.8-7.1,3.8c-4.7,0-8.6-3.8-8.6-8.5c0-4.7,3.8-8.6,8.6-8.6c2.9,0,5.4,1.4,7,3.6l-7,4.9L67.8,55z"
				/>
		</g>
	</g>
</g>
</svg>
