<?xml version="1.0" encoding="utf-8"?>
<!-- Generator: Adobe Illustrator 18.0.0, SVG Export Plug-In . SVG Version: 6.00 Build 0)  -->
<!DOCTYPE svg PUBLIC "-//W3C//DTD SVG 1.1//EN" "http://www.w3.org/Graphics/SVG/1.1/DTD/svg11.dtd">
<svg version="1.1" xmlns="http://www.w3.org/2000/svg" xmlns:xlink="http://www.w3.org/1999/xlink" x="0px" y="0px"
	 viewBox="0 0 300 100" style="enable-background:new 0 0 300 100;" xml:space="preserve">
<style type="text/css">
	.st0{fill-rule:evenodd;clip-rule:evenodd;}
	.st1{fill-rule:evenodd;clip-rule:evenodd;fill:#C038F9;}
	.st2{fill:none;}
	.st3{fill-rule:evenodd;clip-rule:evenodd;fill:#231F20;}
</style>
<g id="Layer_2">
</g>
<g id="Layer_1">
	<g>
		<g>
			<path d="M2.5,65.2L0,55.7l1.7-0.5c3.5,5.7,7.4,8.5,11.6,8.5c3.5,0,5.7-2.1,5.7-5.4c0-1.5-0.6-2.8-1.7-3.6
				c-2.2-1.7-5.4-2.3-8.9-3.8c-5-2.1-7.5-5-7.5-9.2c0-5.2,4-9.3,9.4-9.3c2.2,0,4.3,0.6,6.3,1.8H17l1.7-1.3h1.1l2.2,8.9l-1.5,0.5
				c-3.4-5.2-6.5-7.9-10.1-7.9c-3.2,0-5.3,1.9-5.3,4.4c0,3.5,2.8,4.5,7.7,6.3c3.6,1.4,6.3,2.5,7.8,3.9c2.1,1.9,3,4,3,7
				c0,5.4-4.5,9.5-10.6,9.5c-2.4,0-4.8-0.6-7-1.7H5.7l-2.1,1.3H2.5z"/>
			<path d="M24.2,45.9c2.8-0.8,5.6-1.6,8.4-2.4v14.3c0,2.9,0.8,4.3,3.2,4.3c1.5,0,2.8-0.8,4.4-2.1v-9.5c0-2.3-0.3-3.1-2.8-3.2v-1.5
				c2.9-0.8,5.7-1.6,8.5-2.4v16.7c0,2.4,0.7,3,3.3,3.2v1.5c-2.7,0.1-5.7,0.4-8.8,0.6l-0.1-3.3c-2.6,2.2-4.9,3.3-7.4,3.3
				c-4.1,0-5.9-2.4-5.9-7.5v-7c0-2.7-0.3-3.6-2.6-3.6c0,0-0.1,0-0.2,0V45.9z"/>
			<path d="M52.4,63.4c0,0,0.1,0,0.2,0c2.4,0,2.6-0.9,2.6-3.6v-9.2c0-2.4-0.4-2.9-3.3-3.2v-1.5c2.7-0.7,5.7-1.5,8.9-2.4l0,3.5
				c2.6-2.2,4.9-3.3,7.4-3.3c4.1,0,5.9,2.5,5.9,7.6v8.5c0,2.8,0.3,3.6,2.8,3.6v1.6H65.8v-1.5c2.3,0,2.6-1,2.6-3.8v-8.1
				c0-2.9-0.9-4.3-3.3-4.3c-1.4,0-2.7,0.7-4.2,2v10.7c0,2.7,0.3,3.6,2.8,3.6v1.5H52.4V63.4z"/>
			<path d="M78.6,63.4c3.6,0,4-1.1,4-4.6V38.7c0-3.3-0.3-4.1-4-4.2v-1.6h14.6v1.6c-3.5,0.1-3.9,1-3.9,4.2v8.9h12.3v-8.9
				c0-3.3-0.4-4.1-3.9-4.2v-1.6h14.6v1.6c-3.7,0.1-4,0.9-4,4.2v20.1c0,3.6,0.2,4.5,4,4.6v1.6H97.8v-1.6c3.8-0.2,3.9-1.2,3.9-4.8v-9
				H89.3v9.6c0,3.3,0.4,4,3.9,4.2v1.6H78.6V63.4z"/>
			<path d="M131.4,60.3c-2.4,3.4-5.8,5.2-10.1,5.2c-6.9,0-11.4-4.4-11.4-10.6c0-6.5,4.8-11.4,11.1-11.4c5.8,0,10.1,4,10.1,10.2
				c0,0,0,0.1,0,0.2h-14.9c0.2,5.6,3,8.7,7.4,8.7c2.7,0,4.9-1.1,6.5-3.2L131.4,60.3z M125.4,51.9c0-0.3,0-0.5,0-0.8
				c0-4-1.7-6.2-4.4-6.2c-2.7,0-4.9,2.5-4.9,6.7c0,0,0,0.1,0,0.2H125.4z"/>
			<path d="M132,63.4c0.1,0,0.2,0,0.4,0c2.2,0,2.4-0.9,2.4-3.6v-9.2c0-2.4-0.4-2.9-3.3-3.2v-1.5c2.4-0.6,5.5-1.4,9-2.4v4.8
				c2.4-3.1,3.9-4.8,6.4-4.8c2,0,3.2,1.2,3.2,3.1c0,1.8-1.3,3.1-2.9,3.1c-1.6,0-2.7-1.4-3.7-1.4c-0.8,0-1.7,1-3,2.9v9.1
				c0,2.4,0.4,3.2,2.9,3.2c0,0,0.1,0,0.2,0v1.5H132V63.4z"/>
			<path d="M171.3,63c-1.2,1.7-2.8,2.6-4.8,2.6s-3.1-0.9-4.3-3c-2.5,2-5.1,3-7.5,3c-3.8,0-6.2-2.2-6.2-5.5c0-4.2,4.5-7.2,13.5-8.5
				v-2.8c0-2.5-0.7-3.6-2.8-3.6c-1.9,0-2.6,1-3.4,2.9c-0.8,1.9-1.6,2.9-3.2,2.9c-1.4,0-2.5-1-2.5-2.5c0-2.8,3.5-4.9,9.7-4.9
				c3.2,0,5.6,0.8,6.9,2.4c1,1.2,1,2.7,1,5v8.3c0,2.1,0.4,3.1,1.5,3.1c0.4,0,0.8-0.1,1.3-0.4L171.3,63z M162,53.2
				c-4.9,0.8-7.4,2.8-7.4,6c0,2.3,1.2,3.6,3.1,3.6c1.4,0,2.8-0.7,4.3-2.2V53.2z"/>
			<path d="M170.2,63.4c0.1,0,0.2,0,0.4,0c2.2,0,2.5-0.9,2.5-3.6V39.6c0-2.4-0.4-2.9-3.3-3.2V35c2.4-0.6,5.4-1.4,9-2.4v27.7
				c0,2.3,0.3,3.1,2.8,3.2v1.5h-11.3V63.4z"/>
			<path d="M203.5,64.9c-2.7,0-5.2,0.2-7.6,0.6h-0.5l-0.2-2.7c-1.7,1.8-3.6,2.6-6,2.6c-4.6,0-8.4-4.3-8.4-10.8
				c0-6.7,4-11.3,9.3-11.3c1.8,0,3.4,0.7,5.1,2v-5.9c0-2.4-0.1-3.1-3.2-3.2v-1.4l8.9-2.3V60c0,2.4,0.1,3.1,2.6,3.4V64.9z
				 M195.2,47.7c-1-1.2-2.4-1.9-3.8-1.9c-2.8,0-4.3,2.8-4.3,8.3c0,5.9,1.2,8.9,4.3,8.9c1.3,0,2.7-0.7,3.8-2.2V47.7z"/>
			<path d="M238.8,59.6c-2,4-5.4,6-9.7,6c-5.9,0-10.1-4.3-10.1-10.1c0-3.2,1.2-6.1,3.4-8.4c2.3-2.4,5.2-3.6,8.4-3.6
				c4.7,0,7.5,2.4,7.5,5.1c0,1.5-1.2,2.6-2.8,2.6c-1.8,0-2.9-1.1-3.3-3.2c-0.4-1.7-0.4-2.9-2.3-2.9c-2.9,0-4.8,2.8-4.8,8.1
				c0,6.1,2.5,9.4,6.5,9.4c2.3,0,4.4-1.2,6.1-3.7L238.8,59.6z"/>
			<path d="M250.2,43.5c5.9,0,10.4,4.8,10.4,11.1c0,6.1-4.5,10.9-10.7,10.9c-6.2,0-10.6-4.7-10.6-11.2
				C239.3,48.1,243.9,43.5,250.2,43.5z M249.9,64c3.2,0,4.4-3,4.4-9.3c0-6.5-0.8-9.7-4.3-9.7c-3.3,0-4.5,3.1-4.5,9.6
				C245.5,60.9,247,64,249.9,64z"/>
			<path d="M285.1,64.9h-10.9v-1.5c2.4,0,2.6-1,2.6-3.8v-8.1c0-2.9-0.9-4.3-3.3-4.3c-1.4,0-2.7,0.7-4.2,2v11.1
				c0,2.4,0.4,3.1,2.8,3.2v1.5h-11.3v-1.6c0.1,0,0.2,0,0.3,0c2.2,0,2.5-0.9,2.5-3.6v-9.2c0-2.4-0.4-2.9-3.3-3.2v-1.5
				c2.9-0.8,5.9-1.5,8.9-2.4l0,3.5c2.6-2.2,4.9-3.3,7.5-3.3c2.6,0,4.3,1.2,5.4,3.8c2.9-2.4,5.4-3.8,8.1-3.8c4.1,0,5.8,2.5,5.8,7.6
				v8.5c0,2.8,0.3,3.6,2.8,3.6v1.6h-10.9v-1.5c2.4,0,2.6-1,2.6-3.8v-8.1c0-2.9-0.9-4.3-3.3-4.3c-1.5,0-2.8,0.9-4.6,2.4v10.3
				c0,2.8,0.3,3.6,2.8,3.6V64.9z"/>
		</g>
		<path d="M210.7,51c-3.3,0-6.1,2.7-6.1,6.1c0,3.3,2.7,6.1,6.1,6.1c0.9,0,1.7-0.2,2.5-0.5l-2.3-2.8h-0.9v-0.2c0.3,0,0.5-0.1,0.6-0.2
			c0.1-0.1,0.1-0.3,0.1-0.5v-3.2c0-0.5,0-0.6-0.6-0.7v-0.2h2.3V55c-0.5,0-0.6,0.2-0.6,0.7V57h1.9v-1.4c0-0.5-0.1-0.6-0.6-0.7v-0.2
			h2.3V55c-0.6,0-0.6,0.1-0.6,0.7v3.2c0,0.6,0,0.7,0.6,0.7v0.2h-1.7l2.1,0.8c0.7-1,1.1-2.2,1.1-3.5C216.8,53.7,214.1,51,210.7,51z
			 M208,59.9c-0.4,0-0.8-0.1-1.1-0.3h-0.1l-0.3,0.2h-0.2l-0.4-1.5l0.3-0.1c0.6,0.9,1.2,1.4,1.8,1.4c0.5,0,0.9-0.3,0.9-0.9
			c0-0.2-0.1-0.4-0.3-0.6c-0.3-0.3-0.9-0.4-1.4-0.6c-0.8-0.3-1.2-0.8-1.2-1.5c0-0.8,0.6-1.5,1.5-1.5c0.3,0,0.7,0.1,1,0.3h0.1
			l0.3-0.2h0.2l0.3,1.4l-0.2,0.1c-0.5-0.8-1-1.3-1.6-1.3c-0.5,0-0.8,0.3-0.8,0.7c0,0.6,0.4,0.7,1.2,1c0.6,0.2,1,0.4,1.2,0.6
			c0.3,0.3,0.5,0.6,0.5,1.1C209.7,59.2,209,59.9,208,59.9z M211.6,57.3v1.5c0,0.1,0,0.1,0,0.2l1.3,0.5v0c0.6,0,0.6-0.2,0.6-0.8v-1.4
			H211.6z"/>
	</g>
</g>
</svg>
