<?xml version="1.0" encoding="utf-8"?>
<!-- Generator: Adobe Illustrator 18.0.0, SVG Export Plug-In . SVG Version: 6.00 Build 0)  -->
<!DOCTYPE svg PUBLIC "-//W3C//DTD SVG 1.1//EN" "http://www.w3.org/Graphics/SVG/1.1/DTD/svg11.dtd">
<svg version="1.1" xmlns="http://www.w3.org/2000/svg" xmlns:xlink="http://www.w3.org/1999/xlink" x="0px" y="0px"
	 viewBox="0 0 300 100" style="enable-background:new 0 0 300 100;" xml:space="preserve">
<style type="text/css">
	.st0{fill-rule:evenodd;clip-rule:evenodd;}
	.st1{fill-rule:evenodd;clip-rule:evenodd;fill:#C038F9;}
	.st2{fill:none;}
	.st3{fill-rule:evenodd;clip-rule:evenodd;fill:#231F20;}
</style>
<g id="Layer_2">
</g>
<g id="Layer_1">
	<g>
		<path d="M81.9,31.8c-1.6,14.8-3.3,29.6-4.9,44.3c-1.9,0.7-2.4,0-2.6-1.7c-1.4-13.9-3-27.9-4.8-41.8c0,14.5,0,28.9,0,43.6
			c-1,0-1.8,0-2.8,0c0-17.3,0-34.6,0-52.1c1.4,0,2.8,0,4.4,0c1.4,13.2,2.9,26.3,4.3,39.4c0.1,0,0.3,0,0.4,0.1
			c1.4-13.1,2.9-26.2,4.3-39.4c1.4,0,2.7,0,4.3,0c0,17.3,0,34.6,0,52.1c-0.7,0-1.5,0.1-2.5,0.2c0-15,0-29.8,0-44.6
			C82.1,31.9,82,31.9,81.9,31.8z"/>
		<path d="M168.2,60.4c0-12.1,0-24.1,0-36.3c0.9,0,1.7,0,2.6,0c0,17.4,0,34.7,0,52.2c-0.8,0-1.5,0.1-2.4,0.1
			c-2.6-12.7-5.2-25.4-7.7-38c-0.1,0-0.2,0-0.4,0c0,12.6,0,25.1,0,37.8c-1,0-1.8,0-2.7,0c0-17.4,0-34.8,0-52.2
			c0.8,0,1.5-0.1,2.6-0.1c2.5,12.2,5,24.3,7.6,36.5C167.9,60.5,168,60.5,168.2,60.4z"/>
		<path d="M205.3,50c1.9,0.9,2.5,3,2.5,5.4c0,4.6,0,9.1,0.1,13.7c0.1,2.4,0.4,4.8,0.7,7.3c-0.6,0-1.6,0-2.9,0
			c-0.2-1-0.5-2.1-0.5-3.2c-0.1-5.8-0.1-11.6-0.2-17.4c-0.1-4.1-1-4.9-5.5-4.5c0,8.3,0,16.6,0,25.1c-1,0-1.9,0-2.8,0
			c0-17.3,0-34.6,0-52.1c2.5,0,4.9-0.2,7.3,0.1c2.4,0.3,4,2.3,4.1,5.3c0.2,5,0.3,10-0.1,14.9C208,46.3,206.4,47.9,205.3,50z
			 M199.7,26.7c0,7.2,0,14.3,0,21.3c4.2,0.5,5.7-0.7,5.8-4.6c0.1-3.9,0.1-7.8,0-11.7C205.5,27,204.6,26.2,199.7,26.7z"/>
		<path d="M115.1,76.3c-3.2,0.3-3.4,0.3-3.4-3c-0.2-5.9-0.1-11.8-0.2-17.6c-0.1-4.1-1.1-4.9-5.5-4.4c0,8.3,0,16.6,0,25
			c-1,0.1-1.7,0.1-2.7,0.1c0-17.5,0-34.8,0-52.4c2.3,0,4.6-0.2,6.8,0c2.6,0.3,4.4,2.2,4.5,5.3c0.2,5.1,0.3,10.1-0.1,15.2
			c-0.1,1.8-1.8,3.4-2.8,5.3c2.3,1.1,2.6,3.6,2.6,6.3c0,4.7-0.1,9.5,0.1,14.2C114.4,72.3,114.9,74.2,115.1,76.3z M106.1,48
			c4.3,0.4,5.8-0.7,5.8-4.7c0.1-4,0.1-8,0-12c0-4.4-1.1-5.3-5.9-4.6C106.1,33.8,106.1,40.8,106.1,48z"/>
		<path d="M212.7,50c0-6.7-0.1-13.4,0-20.1c0.1-4.9,2.7-7.2,7-6.5c2.5,0.4,3.7,2,4.2,4.2c0.4,1.7,0.5,3.4,0.5,5.1
			c0,11.6,0,23.2,0,34.7c0,1.6-0.1,3.3-0.4,4.9c-0.6,3.3-2.2,4.8-5.4,4.8c-3.2,0-4.9-1.3-5.6-4.6c-0.2-1-0.3-2.1-0.3-3.2
			C212.7,62.9,212.7,56.4,212.7,50C212.7,50,212.7,50,212.7,50z M215.5,50.3C215.5,50.3,215.5,50.3,215.5,50.3c0,6.2,0,12.4,0,18.6
			c0,1.2-0.1,2.6,0.4,3.6c0.4,0.8,1.7,1.7,2.5,1.7c0.8,0,2-0.9,2.4-1.8c0.5-0.9,0.5-2.2,0.5-3.3c0-12.6,0-25.1,0-37.7
			c0-1.2,0-2.5-0.5-3.6c-0.4-0.8-1.5-1.6-2.3-1.6c-0.8,0-2,0.7-2.5,1.5c-0.5,0.9-0.5,2.2-0.5,3.3C215.5,37.4,215.5,43.9,215.5,50.3z
			"/>
		<path d="M16.6,24.1c0.9,0,1.6,0,2.6,0c0,7.9,0,15.7,0,23.7c2.1,0,3.9,0,6,0c0-7.9,0-15.7,0-23.7c1,0,1.8,0,2.7,0
			c0,17.4,0,34.8,0,52.2c-0.9,0-1.7,0-2.6,0c0-8.6,0-17,0-25.7c-2,0-3.9,0-6,0c0,8.4,0,17,0,25.7c-1,0.1-1.8,0.1-2.8,0.2
			C16.6,59,16.6,41.7,16.6,24.1z"/>
		<path d="M283.7,42.1c-0.6,0-1.4,0-2.5,0c0-3.4,0-6.8,0-10.2c0-1.2,0.1-2.6-0.4-3.6c-0.4-0.9-1.7-2.1-2.4-2c-1,0.1-2.1,1.1-2.8,2.1
			c-0.5,0.7-0.3,1.9-0.3,2.9c0,12.7,0,25.5,0,38.2c0,0.8,0,1.6,0.2,2.4c0.2,1.5,1.1,2.5,2.8,2.5c1.6,0,2.7-0.9,2.8-2.5
			c0.2-3.3,0.2-6.7,0.2-10c0-1.8,0-3.6,0-5.5c1,0,1.8,0,2.5,0c0,5.5,0.2,10.9-0.1,16.3c-0.2,3-2.2,4.3-5.2,4.4
			c-3,0.1-4.7-1.2-5.5-4.1c-0.3-1-0.4-2.1-0.4-3.1c0-13.1,0-26.1,0-39.2c0-1.1,0.2-2.3,0.5-3.4c0.8-2.9,2.7-4.2,5.6-4
			c2.9,0.2,4.9,1.5,5.1,4.6C284,32.5,283.7,37.3,283.7,42.1z"/>
		<path d="M138.1,42.1c-1,0-1.8,0-2.8,0c0-3.2,0-6.3,0-9.5c0-1.5-0.1-2.9-0.3-4.4c-0.2-1.6-1.3-2.5-2.7-2.1c-1,0.3-2.1,1.3-2.7,2.3
			c-0.5,0.9-0.3,2.2-0.3,3.4c0,12.2,0,24.5,0,36.7c0,1.1-0.2,2.4,0.3,3.4c0.5,1,1.6,2.1,2.6,2.3c1.5,0.4,2.7-0.6,2.8-2.3
			c0.2-3,0.2-6,0.3-9c0-2.1,0-4.2,0-6.5c0.9-0.1,1.7-0.1,3.1-0.2c-0.3,5.8-0.3,11.5-0.9,17.1c-0.3,2.7-2.3,3.8-5.2,3.8
			c-2.8,0-4.5-1.1-5.2-3.8c-0.4-1.2-0.5-2.6-0.5-3.9c0-12.8,0-25.6,0-38.4c0-1.2,0.1-2.5,0.4-3.6c0.8-3,2.6-4.2,5.5-4.1
			c2.9,0.1,4.6,1.5,5.3,4.5c0.2,0.9,0.3,1.8,0.4,2.7C138.1,34.2,138.1,38.1,138.1,42.1z"/>
		<path d="M155.2,76.3c-1.1,0-1.8,0-2.9,0c-0.4-4.6-0.9-9.2-1.3-13.9c-1.9,0-3.7,0-5.7,0c-0.4,4.6-0.9,9.2-1.3,13.9
			c-0.9,0-1.7,0.1-3,0.2c1.9-17.5,3.8-34.9,5.7-52.3c1,0,1.7,0,2.8,0C151.4,41.4,153.3,58.8,155.2,76.3z M150.7,59.6
			c-0.8-8-1.6-15.6-2.4-23.3c-0.1,0-0.2,0-0.3,0c-0.8,7.7-1.7,15.4-2.5,23.3C147.3,59.6,148.8,59.6,150.7,59.6z"/>
		<path d="M63.6,76.3c-1.1,0-1.9,0-3,0c-0.4-4.7-0.9-9.3-1.3-14c-2,0-3.7,0-5.7,0c-0.4,4.6-0.9,9.2-1.3,13.9c-0.9,0-1.8,0-3,0
			c1.9-17.4,3.8-34.7,5.7-52.1c0.9-0.1,1.7-0.1,2.8-0.2C59.8,41.4,61.7,58.8,63.6,76.3z M56.7,36.3c-0.1,0-0.2,0-0.3,0
			c-0.8,7.7-1.7,15.4-2.5,23.3c1.9,0,3.4,0,5.2,0C58.2,51.7,57.4,44,56.7,36.3z"/>
		<path d="M228.9,56.4c0.9,0,1.7,0,2.7,0c0,3.6,0,7,0,10.5c0,1.5,0,2.9,0.1,4.4c0.2,1.9,1.1,3.1,3.1,3.1c2.1,0,2.6-1.4,2.9-3.2
			c1.2-9.3-1.2-17.7-6-25.6c-3.5-5.7-3.2-12-2.3-18.3c0.4-2.5,2.6-4.1,5.1-4c2.6,0,4.7,1.5,5,4.1c0.4,4,0.4,8.1,0.6,12.3
			c-1.2,0-2,0-3,0c0-2.8,0-5.4,0-8.1c0-1,0.2-2.1-0.2-2.9c-0.5-1-1.5-2.2-2.5-2.4c-0.7-0.1-2.2,1.3-2.3,2.1c-0.4,4.8-1,9.6,1.3,14.1
			c1.7,3.3,3.2,6.6,4.9,9.9c3.3,6.5,2.6,13.5,1.9,20.4c-0.3,3.1-2,4.3-4.6,4.4c-3.3,0.1-5.3-1.2-6.2-4c-0.2-0.6-0.4-1.3-0.4-1.9
			C228.9,66.3,228.9,61.4,228.9,56.4z"/>
		<path d="M184.4,51c0,8.4,0,16.7,0,25.3c-1,0.1-1.7,0.1-2.7,0.2c0-17.5,0-34.8,0-52.2c2.3,0,4.7-0.3,6.9,0.1
			c2.6,0.4,4.3,2.5,4.4,5.7c0.2,5.2,0.2,10.4,0,15.6c-0.1,2.5-1.9,4.4-4.4,4.9C187.3,50.8,185.9,50.8,184.4,51z M184.4,48.1
			c4.4,0.6,5.8-0.4,5.8-4.5c0.1-4.1,0.1-8.3,0-12.4c-0.1-4.1-1.8-5.2-5.8-4.2C184.4,34.1,184.4,41.1,184.4,48.1z"/>
		<path d="M244.4,24c1.7,0,3.2,0,4.8,0c4.1,0.1,6.4,1.9,6.6,6c0.3,5.2,0.2,10.4,0,15.6c-0.1,2.5-1.9,4.4-4.4,4.9
			c-1.3,0.3-2.7,0.3-4.3,0.5c0,8.4,0,16.7,0,25.3c-1,0.1-1.7,0.1-2.7,0.2C244.4,59,244.4,41.7,244.4,24z M247.2,26.9
			c0,7.1,0,14.2,0,21.3c4.4,0.5,5.7-0.5,5.8-4.6c0.1-4,0.1-8,0-11.9C252.9,27.2,251.7,26.3,247.2,26.9z"/>
		<path d="M259.1,24.1c3.7,0,7.2,0,10.9,0c0.1,0.7,0.1,1.4,0.2,2.3c-2.8,0-5.5,0-8.3,0c0,7.1,0,14,0,21.1c2.5,0,4.9,0,7.4,0
			c0,0.9,0,1.6,0,2.5c-2.5,0-4.9,0-7.5,0c0,8,0,15.8,0,23.8c2.8,0,5.6,0,8.5,0c0.1,0.9,0.1,1.6,0.2,2.4c-3.9,0-7.6,0-11.5,0
			C259.1,59,259.1,41.7,259.1,24.1z"/>
		<path d="M36.5,74c2.9,0,5.6,0,8.5,0c0.1,0.8,0.1,1.5,0.2,2.3c-3.9,0-7.6,0-11.5,0c0-17.3,0-34.6,0-52.1c3.5,0,7.1,0,10.8,0
			c0.1,0.6,0.1,1.3,0.3,2.2c-2.8,0-5.5,0-8.3,0c0,7.1,0,14,0,21.1c2.5,0,4.9,0,7.4,0c0,0.9,0,1.6,0,2.5c-2.5,0-4.9,0-7.4,0
			C36.5,58.1,36.5,65.9,36.5,74z"/>
		<path d="M93.4,73.9c2.9,0,5.6,0,8.4,0c0.1,0.8,0.2,1.5,0.3,2.3c-3.9,0-7.6,0-11.5,0c0-17.3,0-34.6,0-52.1c3.6,0,7.2,0,10.9,0
			c0,0.7,0.1,1.3,0.1,2.2c-2.7,0-5.4,0-8.2,0c0,7.1,0,14,0,21.1c2.4,0,4.9,0,7.4,0c0,0.9,0,1.6,0,2.5c-2.5,0-4.9,0-7.4,0
			C93.4,58.1,93.4,65.9,93.4,73.9z"/>
		<path d="M6.7,26.5c-2.4,0-4.4,0-6.5,0C0.1,25.7,0.1,25,0,24.2c5.4,0,10.7,0,16.1,0c0,0.7,0,1.3,0,2.3c-2.1,0-4.2,0-6.6,0
			c0,16.8,0,33.2,0,49.9c-1,0.1-1.7,0.1-2.8,0.2C6.7,59.8,6.7,43.3,6.7,26.5z"/>
		<path d="M290.8,26.5c-2.4,0-4.4,0-6.5,0c-0.1-0.8-0.1-1.5-0.2-2.3c5.4,0,10.7,0,16.1,0c0,0.8,0,1.4,0,2.4c-2.2,0-4.3,0-6.6,0
			c0,16.7,0,33.1,0,49.8c-1,0.1-1.7,0.1-2.8,0.2C290.8,59.8,290.8,43.3,290.8,26.5z"/>
		<path d="M119.4,24.1c0.9,0,1.6,0,2.5,0c0,17.4,0,34.7,0,52.2c-0.8,0-1.5,0.1-2.5,0.1C119.4,59,119.4,41.7,119.4,24.1z"/>
	</g>
</g>
</svg>
