<?xml version="1.0" encoding="utf-8"?>
<!-- Generator: Adobe Illustrator 18.0.0, SVG Export Plug-In . SVG Version: 6.00 Build 0)  -->
<!DOCTYPE svg PUBLIC "-//W3C//DTD SVG 1.1//EN" "http://www.w3.org/Graphics/SVG/1.1/DTD/svg11.dtd">
<svg version="1.1" xmlns="http://www.w3.org/2000/svg" xmlns:xlink="http://www.w3.org/1999/xlink" x="0px" y="0px"
	 viewBox="0 0 300 100" style="enable-background:new 0 0 300 100;" xml:space="preserve">
<style type="text/css">
	.st0{fill-rule:evenodd;clip-rule:evenodd;}
	.st1{fill-rule:evenodd;clip-rule:evenodd;fill:#C038F9;}
	.st2{fill:none;}
	.st3{fill-rule:evenodd;clip-rule:evenodd;fill:#231F20;}
</style>
<g id="Layer_2">
</g>
<g id="Layer_1">
	<g>
		<g>
			<path d="M15.1,66.4L3,14.7h6.5l5.7,26.2c1.4,6.4,2.7,12.9,3.5,17.9h0.1c0.8-5.1,2.3-11.3,3.9-18l6.4-26.1h6.4L41.4,41
				c1.3,6.1,2.6,12.3,3.3,17.7h0.1c1-5.7,2.3-11.4,3.8-17.9L55,14.7h6.3L47.7,66.4h-6.4l-6-26.9c-1.5-6.6-2.5-11.7-3.1-16.9H32
				c-0.8,5.1-1.9,10.2-3.7,16.9l-6.8,26.9H15.1z"/>
			<path d="M82.3,57.5c0,3.2,0.1,6.4,0.6,8.9h-5.7l-0.5-4.7h-0.2c-1.9,2.9-5.6,5.5-10.5,5.5c-6.9,0-10.5-5.3-10.5-10.7
				c0-9,7.4-13.9,20.6-13.8V42c0-3.1-0.8-8.6-7.8-8.6c-3.2,0-6.5,1.1-8.9,2.8l-1.4-4.5c2.8-2,6.9-3.3,11.2-3.3
				c10.5,0,13,7.8,13,15.2V57.5z M76.3,47.5c-6.8-0.2-14.5,1.2-14.5,8.4c0,4.4,2.7,6.4,5.9,6.4c4.5,0,7.3-3.1,8.3-6.2
				c0.2-0.7,0.4-1.5,0.4-2.1V47.5z"/>
			<path d="M85.2,59.5c1.8,1.3,5.1,2.7,8.2,2.7c4.5,0,6.6-2.5,6.6-5.5c0-3.2-1.8-5-6.4-6.8c-6.2-2.4-9.1-6.1-9.1-10.5
				c0-6,4.5-10.9,11.8-10.9c3.5,0,6.5,1.1,8.4,2.3l-1.6,4.9c-1.3-0.9-3.8-2.1-7-2.1c-3.7,0-5.7,2.3-5.7,5.1c0,3.1,2.1,4.5,6.5,6.3
				c5.9,2.5,9,5.7,9,11.2c0,6.5-4.7,11.2-12.8,11.2c-3.7,0-7.2-1.1-9.6-2.6L85.2,59.5z"/>
			<path d="M107.6,12h6.2v23.2h0.1c1-1.9,2.5-3.6,4.5-4.8c1.8-1.2,4-1.9,6.4-1.9c4.6,0,12,3.1,12,15.9v22.1h-6.2V45.1
				c0-6-2.1-11.1-7.9-11.1c-4,0-7.2,3.1-8.3,6.8c-0.4,0.9-0.4,1.9-0.4,3.2v22.4h-6.2V12z"/>
			<path d="M147.5,18.9c0.1,2.3-1.5,4.1-4,4.1c-2.2,0-3.7-1.8-3.7-4.1c0-2.4,1.6-4.2,3.9-4.2C146,14.6,147.5,16.5,147.5,18.9z
				 M140.5,66.4V29.3h6.2v37.1H140.5z"/>
			<path d="M150.7,39.3c0-3.8-0.1-7-0.3-10.1h5.5l0.4,6.1h0.1c1.7-3.5,5.7-7,11.3-7c4.7,0,12.1,3.1,12.1,15.8v22.2h-6.2V45
				c0-6-2.1-11-7.9-11c-4.1,0-7.3,3.1-8.3,6.9c-0.3,0.8-0.4,2-0.4,3.1v22.3h-6.2V39.3z"/>
			<path d="M212.8,61.1c0,8.5-1.6,13.7-4.9,17c-3.3,3.4-8.1,4.5-12.4,4.5c-4.1,0-8.6-1.1-11.4-3.1l1.6-5.1c2.3,1.5,5.8,2.9,10,2.9
				c6.4,0,11-3.6,11-13v-4.1h-0.1c-1.9,3.5-5.6,6.2-10.9,6.2c-8.5,0-14.6-7.8-14.6-18.1c0-12.6,7.6-19.7,15.4-19.7
				c5.9,0,9.2,3.4,10.7,6.4h0.1l0.3-5.6h5.4c-0.1,2.7-0.3,5.7-0.3,10.2V61.1z M206.7,44c0-1.2-0.1-2.1-0.4-3.1
				c-1.1-3.9-4.2-7.1-8.7-7.1c-5.9,0-10.2,5.4-10.2,14c0,7.3,3.4,13.4,10.1,13.4c3.8,0,7.3-2.6,8.6-6.9c0.4-1.2,0.5-2.5,0.5-3.6V44z
				"/>
			<path d="M233.2,29.3v5.1h-8.9v20c0,4.6,1.2,7.2,4.7,7.2c1.7,0,2.7-0.2,3.6-0.5l0.3,5.1c-1.2,0.5-3.1,1-5.5,1
				c-2.9,0-5.2-1.1-6.7-2.9c-1.8-2-2.4-5.3-2.4-9.7V34.4H214v-5.1H233.2z"/>
			<path d="M264.4,47.6c0,13.7-8.8,19.7-17,19.7c-9.3,0-16.4-7.4-16.4-19.1c0-12.4,7.5-19.7,17-19.7
				C257.7,28.5,264.4,36.2,264.4,47.6z M237.2,47.9c0,8.1,4.3,14.3,10.4,14.3c5.9,0,10.4-6.1,10.4-14.4c0-6.3-2.9-14.3-10.3-14.3
				C240.4,33.5,237.2,40.9,237.2,47.9z"/>
			<path d="M265.9,39.3c0-3.8-0.1-7-0.3-10.1h5.5l0.4,6.1h0.1c1.7-3.5,5.7-7,11.3-7c4.7,0,12.1,3.1,12.1,15.8v22.2h-6.2V45
				c0-6-2.1-11-7.9-11c-4.1,0-7.3,3.1-8.3,6.9c-0.3,0.8-0.4,2-0.4,3.1v22.3h-6.2V39.3z"/>
		</g>
		<g>
			<path d="M100.5,81.2c-0.1-1.8-0.1-4.1-0.1-6.3h0c-0.5,2-1.1,4.1-1.7,5.9l-1.9,6H94l-1.6-5.9c-0.5-1.8-1-4-1.4-6h0
				c-0.1,2.1-0.2,4.4-0.3,6.4l-0.3,5.8h-3.2l1-15.4h4.6l1.5,5.1c0.5,1.8,1,3.7,1.3,5.5h0.1c0.4-1.8,0.9-3.8,1.5-5.5l1.6-5.1h4.6
				l0.8,15.4h-3.4L100.5,81.2z"/>
			<path d="M112.6,87.3c-4.5,0-7.2-3.4-7.2-7.8c0-4.6,3-8,7.5-8c4.7,0,7.3,3.5,7.3,7.8C120.2,84.3,117.1,87.3,112.6,87.3L112.6,87.3
				z M112.8,84.6c2.3,0,3.7-2.2,3.7-5.2c0-2.8-1.3-5.1-3.7-5.1c-2.4,0-3.7,2.3-3.7,5.2C109.1,82.3,110.4,84.6,112.8,84.6L112.8,84.6
				z"/>
			<path d="M121.8,87.1V71.7h4.1l3.2,5.6c0.9,1.6,1.8,3.5,2.5,5.3h0c-0.2-2-0.3-4.1-0.3-6.4v-4.5h3.2v15.4h-3.6l-3.3-5.9
				c-0.9-1.7-1.9-3.6-2.7-5.4h-0.1c0.1,2.1,0.2,4.2,0.2,6.7v4.6H121.8z"/>
			<path d="M139.8,74.7h-4.1v-2.9h11.8v2.9h-4.2v12.4h-3.5V74.7z"/>
			<path d="M152.1,71.7v5.9h5.7v-5.9h3.5v15.4h-3.5v-6.4h-5.7v6.4h-3.5V71.7H152.1z"/>
			<path d="M163.6,71.7h3.5v12.4h6.1v2.9h-9.6V71.7z"/>
			<path d="M176.1,87.1v-6.3l-4.9-9.1h4l1.5,3.7c0.5,1.1,0.8,1.9,1.2,2.9h0c0.3-1,0.7-1.8,1.2-2.9l1.5-3.7h3.9l-5.1,9v6.4H176.1z"/>
		</g>
	</g>
</g>
</svg>
