<?xml version="1.0" encoding="utf-8"?>
<!-- Generator: Adobe Illustrator 18.0.0, SVG Export Plug-In . SVG Version: 6.00 Build 0)  -->
<!DOCTYPE svg PUBLIC "-//W3C//DTD SVG 1.1//EN" "http://www.w3.org/Graphics/SVG/1.1/DTD/svg11.dtd">
<svg version="1.1" xmlns="http://www.w3.org/2000/svg" xmlns:xlink="http://www.w3.org/1999/xlink" x="0px" y="0px"
	 viewBox="0 0 300 100" style="enable-background:new 0 0 300 100;" xml:space="preserve">
<style type="text/css">
	.st0{fill-rule:evenodd;clip-rule:evenodd;}
	.st1{fill-rule:evenodd;clip-rule:evenodd;fill:#C038F9;}
	.st2{fill:none;}
	.st3{fill-rule:evenodd;clip-rule:evenodd;fill:#231F20;}
</style>
<g id="Layer_2">
</g>
<g id="Layer_1">
	<g>
		<path d="M99.7,22.6c-0.5,1.5-2.1,3-3.7,3.3c-2.6,0.3-5.5-0.3-6.8-2.8l-0.3,0.3L74.1,37.6c-0.1-3.5,2.3-6.2,4.6-8.8
			c0.5-0.7,1.4-1,1.8-1.6c-3,0.6-5.5,3-7.7,5.3c-2.9,4-4,9.1-3.3,14.3c-0.1,4.8,3.4,9.1,7.5,11.4c4.5,2.1,11.1,2.1,15.1-1
			c3.3-2.7,5.8-6.2,5.6-10.4c-0.7,1.8-2.4,3.5-3.9,4.7l0.3-20c1.6-0.4,2.9-1.5,4.2-2.7C99.7,27.2,100.7,24.8,99.7,22.6L99.7,22.6z
			 M214.8,24.3c1.1-0.3,2.2-0.7,3.2-1.3c0,2.3-1.1,4.7-3.3,5.8c-2.3,1.3-5.8,0.7-8.4,0.4c-0.6,0-1.3,0.4-1.4,1
			c0,0.6-0.1,1.3,0.3,1.8c-0.9-0.3-2-0.9-2.4-1.9c-0.6-1.6-0.6-3.9,0.4-5.4c1.6-1.6,3.9-2.5,6-1.7C211.1,23.4,212.6,25,214.8,24.3
			L214.8,24.3z M232.6,23c-0.1,0.4-0.4,0.8-0.8,1c-3.1,1-6.1-0.8-9.3-0.2c-2.6,0.8-4.2,3.6-4.8,6l-0.5,21.8c-4.4-0.7-9.1-0.2-12,3.4
			c-1.4,1.7-0.9,4.7-0.3,6.5c1.2,1.8,3.1,2.6,5.2,2.3c1.4-0.5,2.8-1.7,3.3-3.1c-0.7,0.9-1.5,1.2-2.4,1.6c-1.5,0.5-3.2,0.1-4.3-1
			c-0.9-0.9-0.7-2.5-0.4-3.6c0.4-0.9,1.4-1.5,2.3-1.6c5.1-0.2,9.2,2.2,13.6,3.8l5.7-6.1l-1-1l-1.3,1.3l-6.6-2.2l0.4-20.4l0.5-0.9
			c0.6-0.8,1.4-0.7,2.3-0.7c3.3,0.7,7,0.9,9.3-2C232.7,26.6,232.9,24.8,232.6,23L232.6,23z M252.9,23.7c-2.5,0-4.4,2.4-5.2,4.4
			l-1.4-1.1c-0.1,2.6,0,5.2-0.2,7.7l-4.8-4.8c-1.3,1.8-2.5,3.8-4.5,5.3l-0.2,13.2c1.2,1.4,2.8,2.7,3.9,4.2l5.6-5.3l0,1.3l3.7,3.8
			l4.7-4.6l-1-1.2c-0.3,0.7-1.1,0.8-1.7,1.1c-0.4-0.2-0.7-0.7-0.9-1.1l0.3-18.2c-0.1-0.9,0.4-1.7,1-2.4c1-0.8,2.2-1.7,3.5-1.2
			C255,23.7,254,23.6,252.9,23.7L252.9,23.7z M148,26.6l-3.4-3.8l-3.7,3.5l3.4,3.7L148,26.6L148,26.6z M26.7,26.1
			c-4.5,0.4-7.8-2-11.6-3c-4.2-0.8-7.9,0.5-11,3.1c-2.5,1.8-3.6,4.5-3.6,7.2C2.4,31.2,4.9,30,7.6,30c-4,4.2-6.4,9.1-6.4,15.1
			C1.3,50.7,4.6,56,9.6,58.8c5,2,11.5,1.7,15.6-1.9c3.5-2.6,5.5-6.3,5.2-10.6c-0.6,2.6-2.1,5.3-4.8,6.5l0.3-20.3
			c1.6-0.5,3.1-1.4,4.4-2.6c1.8-1.6,2.3-3.9,1.9-6.4c-0.8,0.9-1.8,1.7-2.9,2.1L26.7,26.1L26.7,26.1z M104,28.2
			c-0.8,0-1.4-0.5-2.1-0.8l-0.3,21.3l3.8,3.8l5.2-4.6c0.4,2,2.3,3.7,4,4.8l4.7-4.6l3.9,4.3l4.9-5l-0.8-0.9c-0.9,1.8-1.9,0.2-2.8-0.4
			l0.2-11.8l-3.9-4.1c-0.5,2.4-3,4-5.2,4.4l0.5,1.1c0.8-0.1,1.5-0.4,2.2-0.7c2.3,1.2,0.9,4,1.1,5.9c-1.7-1-4.3-1.2-6.1-0.3
			c-1.9,1.1-2.8,3-2.9,5.1l-2.1,2l-1.6-1.6c0.1-6,0-12.1,0.4-18.1c0.5-1.5,1.8-3.2,3.5-3.6C107.7,24,105.3,25.9,104,28.2L104,28.2z
			 M36,29.1L34,27.9l-0.3,20.9l2.6,3.1c0.9-1.1,1.8-2.2,2.9-3.3l0.1-10.1l2.1-2.1L43,38l-0.2,13.3c-0.3,1.5-1.2,2.8-2.5,3.9
			c1,0.3,2.1,0,3.1-0.2c1.9-0.6,3.5-2.6,3.9-4.4l0.5-14.2l-4.2-4.3l-4.2,4.2l0.1-7.6c0.3-1.1,1.6-2,2.6-2.6
			C39.6,25.4,37.4,27.1,36,29.1L36,29.1z M299.8,33.7l-3.4-3.5c-1.2,1.2-2.4,2.6-3.5,3.5l-3.5-3l-3.4,3.7l2.1,1.6l-0.3,11.7l4.2,4.4
			l4.7-4.5l-1-1.1l-1.5,1.3c-0.4-0.5-0.9-0.8-1.3-1.2l0.2-11.7c0.9,0.8,1.7,1.8,2.6,2.6L299.8,33.7L299.8,33.7z M209.1,36.4
			c-1.6,0.3-3,1-4.2,2.4c-0.9,1.6-1.4,3.8-1.1,5.7c1.3-1.1,2.6-2.1,4.3-2c0.4,0.1,0.8,0.4,1,0.8c0.4,3.2-0.6,6.2-1.8,8.6l1.7-0.3
			c7.8-3.3,5.5-12.8,6.1-20.1c0-0.9,0.5-1.7,1.2-2.2C212.6,29.2,209.7,33.1,209.1,36.4L209.1,36.4z M269.6,34.4l-7.5-4.1
			c-1.5,2.4-4,4.3-6.6,4.8l-0.1,13.3l5.6,3.7c1.1-1.2,2.2-2.5,3.5-3.6c1-0.1,1.9,0.4,2.5,1.2c0.4,1.3,0.4,2.9-0.6,3.9
			c-0.7,0.5-1.7,0.6-2.6,0.5c-2-1-4.5-2.7-6.9-1.2c-1.5,0.7-2.7,2.3-3.1,3.8c1-0.8,2.5-0.8,3.7-0.5c2,1,4.8,1.6,6.8,0.1
			c2.8-1.9,7.4-4.1,6.8-8.2c-0.3-0.8-1-1.5-1.8-1.9L269.6,34.4L269.6,34.4z M285,36.1l-5.1-5.1l-6.4,6.1l-0.2,9.9
			c1.7,1.5,3.5,3,5.1,4.9l4.7-4.7l-1-1.1c-0.4,0.4-0.8,0.7-1.1,1l-2.7-2.1l0-2.7L285,36.1L285,36.1z M184.8,34.4l-4.4-4.6l-5.7,5.3
			l0-1.4l-3.6-3.7c-1.2,1.3-2.2,2.6-3.5,3.9l2.1,2.1L169.6,47l-1.2,1.4l3.7,3.9c0.8-1.8,5-3.2,2.5-5.3l0.1-9l3.3-3.2
			c0.6,0.1,0.9,0.8,1.4,1.2l-0.2,12.3l3.8,4.1c1.6-1.7,3.2-3.5,5-5c-0.3-0.3-0.6-0.8-1-0.9l-1,0.9l-1.4-1.5L184.8,34.4L184.8,34.4z
			 M235.7,36.3l-5.2-5.2c-1.9,2-3.9,4.3-6.1,6l-0.1,9.9l4.8,4.9l4.9-4.5l-1.2-1.2l-1.2,1.2L229,45l0-2.7L235.7,36.3L235.7,36.3z
			 M166.7,34.7l-6.7-4.5c-2,2.8-5,4.4-8.2,5.1l-0.2,13c2.1,1.2,4.3,2.5,6.2,4c2.4-2.8,5.4-4.1,8.7-5L166.7,34.7L166.7,34.7z
			 M147.6,34.5l-3.7-3.8l-3.5,3.5l-3.4-3.3l-3.2,3.3l-3.1-3.2l-3.5,3.7l1.8,1.9L129,48.4l4,4.3l4.5-4.6l-0.8-1.1l-1.3,1l-1.3-1.1
			l0.3-11.3l2.7,2.3l3.5-3.3l2,2l-0.2,11.6l3.9,4.2c1.5-1.6,3.2-3.1,4.7-4.7l-0.9-1c-0.3,0.4-0.8,0.6-1.1,1l-1.5-1.4L147.6,34.5
			L147.6,34.5z M56.3,30.2l-6.1,5.9L50,46l4.9,5c1.6-1.6,3.1-3.2,4.8-4.6l-1-1.2l-0.8,0.7c-1.4,0.5-2.1-1.2-3.2-1.8l0-2.7l6.7-6.3
			C59.7,33.6,57.9,31.9,56.3,30.2L56.3,30.2z M200.9,37.6l-8.2-0.1l-4.2,4.4l8.2,0.1L200.9,37.6L200.9,37.6z M81,51.4
			c-4.1-2.5-6.7-6.9-6.4-11.7l6.6-6.1L81,51.4L81,51.4z M56.9,37.4l0.1,0.2l-1.8,1.8l0-3.2C56,36.1,56.6,36.7,56.9,37.4L56.9,37.4z
			 M16.3,30.7c-2.9,2.7-5.8,5.5-8.7,8.2c-0.3-3.4,1.3-6.4,3.3-9C12.8,29.4,14.7,30,16.3,30.7L16.3,30.7z M91.9,31.6l-0.5,20.6l0,0.2
			c-2.4,0.9-5.5,0.7-7.6-0.7l3.3-3.4l0.2-17.6C88.7,31.4,90.3,31.5,91.9,31.6L91.9,31.6z M23.8,32.3l-0.5,20.6l0,0.2
			c-2.4,0.9-5.5,0.7-7.6-0.7l3.4-3.4l0.2-17.6C20.7,32.1,22.2,32.2,23.8,32.3L23.8,32.3z M13,50.9c-3.7-2-4.6-6-5.3-9.7l5.5-5
			L13,50.9L13,50.9z M119.4,42.7l0,3.2l-2.1,1.6c-0.9-1.4-3.7-2.1-2.4-4.3c0.2-0.7,0.7-1.3,1.4-1.5
			C117.4,41.5,118.6,41.9,119.4,42.7L119.4,42.7z M161.3,47.6l-4.2-2.4l0.2-10.8l4.1,2.5L161.3,47.6L161.3,47.6z M230.9,37.9
			l0.2,0.4l-1.6,1.8l0-3.3C230.2,36.7,230.5,37.4,230.9,37.9L230.9,37.9z M246.2,44.4c-1,1-1.9,2-2.9,2.9l-1.5-1.4l0.1-9.6l2.2-2.1
			l2.3,2.3L246.2,44.4L246.2,44.4z M264.5,46.4c-1.3,2.7-2.9-0.6-4.3-0.9l0.1-10.5l4.3,2.4L264.5,46.4L264.5,46.4z M278.7,40.2
			l0.1-3.8l1.8,1.9L278.7,40.2L278.7,40.2z"/>
		<polygon points="1.3,66.7 299.6,66.7 299.6,67.3 1.3,67.3 1.3,66.7 		"/>
		<path d="M5.9,76.1v-0.7c0-0.4-0.2-0.6-0.5-0.6c-0.6,0-0.6,0.7-0.6,1.5v1.6c0,1.3,0.1,1.5,0.6,1.6c0.5,0,0.5-0.5,0.5-1v-0.6h1.5
			v0.6c0,1.4-0.6,2.2-2.1,2.2c-1.4,0-2.1-0.7-2.1-2.5v-2.2c0-1.9,0.9-2.4,2.1-2.4c1.5,0,2.1,1,2.1,2v0.5H5.9L5.9,76.1z"/>
		<polygon points="11.7,80.4 11.7,71.6 13.2,71.6 13.2,80.4 11.7,80.4 		"/>
		<path d="M20.7,80.4c-0.1-0.2-0.1-0.4-0.1-0.7h0c-0.4,0.6-0.8,0.9-1.3,0.9c-1.2,0-1.8-0.6-1.8-2c0-1.5,1.1-1.9,2.3-2.4
			c0.7-0.3,0.9-0.6,0.8-1.1c-0.1-0.3-0.3-0.3-0.7-0.3c-0.7,0-0.8,0.4-0.8,1h-1.5c0-1.3,0.4-2.2,2.3-2.2c2.1,0,2.2,1.1,2.2,2v3.9
			c0,0.3,0,0.6,0.1,0.9H20.7L20.7,80.4z M20.5,76.9c-0.4,0.3-0.8,0.5-1.2,0.9C19,77.9,19,78.3,19,78.6c0,0.5,0.2,0.9,0.7,0.9
			c0.9,0,0.7-1.1,0.8-1.8V76.9L20.5,76.9z"/>
		<path d="M27.9,74.9L27.9,74.9c0.2-0.5,0.4-0.8,0.6-0.9c0.4-0.4,0.7-0.3,1-0.4v1.8c-0.9-0.1-1.5,0.1-1.5,1.1v3.9h-1.5v-6.7h1.5
			V74.9L27.9,74.9z"/>
		<path d="M33.3,72.9v-1.4h1.5v1.4H33.3L33.3,72.9z M33.3,80.4v-6.7h1.5v6.7H33.3L33.3,80.4z"/>
		<path d="M39.2,77.3c0-2.3,0-3.7,2.4-3.7c2.3,0,2.3,1.5,2.3,3.7c0,2.3-0.3,3.3-2.3,3.3C39.5,80.6,39.2,79.6,39.2,77.3L39.2,77.3z
			 M40.7,78.2c0,0.8,0.1,1.2,0.8,1.2c0.7,0,0.8-0.4,0.8-1.2V76c0-0.6,0-1.3-0.8-1.3c-0.8,0-0.8,0.6-0.8,1.3V78.2L40.7,78.2z"/>
		<path d="M49.6,74.4L49.6,74.4c0.4-0.8,1.1-0.9,1.4-0.9c0.9,0,1.6,0.5,1.5,1.7v5.1H51V76c0-0.7-0.1-1.1-0.7-1.1
			c-0.6,0-0.8,0.5-0.8,1.2v4.3H48v-6.7h1.5V74.4L49.6,74.4z"/>
		<polygon points="56.9,80.4 56.9,71.6 58.5,71.6 58.5,80.4 56.9,80.4 		"/>
		<path d="M62.8,76c-0.1-1.6,0.7-2.5,2.2-2.5c2.1,0,2.4,1.1,2.4,2.9v0.9h-3.1v1c0,0.9,0.3,1,0.8,1c0.6,0,0.7-0.4,0.7-1.3h1.5
			c0.1,1.5-0.6,2.4-2.1,2.4c-1.8,0-2.5-0.8-2.5-2.8V76L62.8,76z M65.9,76.2v-0.6c0-0.7-0.2-0.9-0.8-0.9c-0.8,0-0.7,0.6-0.7,1.2v0.3
			H65.9L65.9,76.2z"/>
		<path d="M74.5,79.7L74.5,79.7c-0.3,0.7-0.7,0.9-1.3,0.9c-1.3,0-1.6-1.2-1.6-2.2v-2.4c0-1.8,0.6-2.3,1.6-2.4c0.7,0,1.1,0.2,1.4,0.9
			h0c0-0.2,0-0.4,0-0.6v-2.3h1.5v8.9h-1.5V79.7L74.5,79.7z M74.5,76.2c0-0.5,0-1.5-0.7-1.5c-0.7,0-0.7,0.6-0.7,1.3v2.2
			c0,0.6,0.2,1.1,0.7,1.1c0.5,0,0.7-0.4,0.7-1.2V76.2L74.5,76.2z"/>
		<path d="M81.9,81.2c0,0.1,0.1,0.2,0.2,0.3c0.1,0.1,0.3,0.1,0.5,0.1c0.7,0,0.8-0.5,0.8-1v-0.8l0,0c-0.3,0.6-0.7,0.8-1.4,0.9
			c-1.3,0-1.6-1.2-1.6-2.2v-2.4c0-1.8,0.6-2.4,1.6-2.4c0.7,0,1.1,0.3,1.3,0.9h0v-0.7h1.5v6.5c0,1.4-0.4,2.4-2.5,2.4
			c-1,0-1.9-0.4-1.9-1.5H81.9L81.9,81.2z M82.6,74.8c-0.7,0-0.7,0.6-0.7,1.3v2.2c0,0.6,0.2,1.1,0.7,1.1c0.5,0,0.7-0.4,0.7-1.2v-2
			C83.3,75.7,83.3,74.8,82.6,74.8L82.6,74.8z"/>
		<path d="M89.1,76c-0.1-1.6,0.7-2.5,2.2-2.5c2.1,0,2.4,1.1,2.4,2.9v0.9h-3.1v1c0,0.9,0.3,1,0.8,1c0.6,0,0.7-0.4,0.7-1.3h1.5
			c0.1,1.5-0.6,2.4-2.1,2.4c-1.8,0-2.5-0.8-2.5-2.8V76L89.1,76z M92.1,76.2v-0.6c0-0.7-0.2-0.9-0.8-0.9c-0.8,0-0.7,0.6-0.7,1.2v0.3
			H92.1L92.1,76.2z"/>
		<path d="M99.4,74.9L99.4,74.9c0.2-0.5,0.4-0.8,0.6-0.9c0.4-0.4,0.7-0.3,1-0.4v1.8c-0.9-0.1-1.5,0.1-1.5,1.1v3.9h-1.5v-6.7h1.5
			V74.9L99.4,74.9z"/>
		<polygon points="104.3,80.4 104.3,78.9 105.9,78.9 105.9,80.4 104.3,80.4 		"/>
		<path d="M113.1,76.1v-0.7c0-0.4-0.2-0.6-0.5-0.6c-0.6,0-0.6,0.7-0.6,1.5v1.6c0,1.3,0.1,1.5,0.6,1.6c0.5,0,0.5-0.5,0.5-1v-0.6h1.5
			v0.6c0,1.4-0.6,2.2-2.1,2.2c-1.4,0-2.1-0.7-2.1-2.5v-2.2c0-1.9,0.9-2.4,2.1-2.4c1.5,0,2.1,1,2.1,2v0.5H113.1L113.1,76.1z"/>
		<path d="M118.6,77.3c0-2.3,0-3.7,2.4-3.7c2.3,0,2.3,1.5,2.3,3.7c0,2.3-0.3,3.3-2.3,3.3C118.9,80.6,118.6,79.6,118.6,77.3
			L118.6,77.3z M120.1,78.2c0,0.8,0.1,1.2,0.8,1.2c0.7,0,0.8-0.4,0.8-1.2V76c0-0.6,0-1.3-0.8-1.3c-0.8,0-0.8,0.6-0.8,1.3V78.2
			L120.1,78.2z"/>
		<path d="M129,74.4L129,74.4c0.4-0.7,1-0.8,1.5-0.9c0.6,0,1.3,0.2,1.4,0.9c0.3-0.6,0.8-0.9,1.5-0.9c1.1,0,1.6,0.7,1.6,1.4v5.4h-1.5
			v-4.5c0-0.6-0.1-1.2-0.7-1.2c-0.7,0-0.8,0.5-0.8,1.3v4.4h-1.5v-4.6c0-0.6,0-1.1-0.8-1.1c-0.7,0-0.8,0.5-0.8,1.3v4.4h-1.5v-6.7h1.5
			V74.4L129,74.4z"/>
		<polygon points="145,80.4 145,72.2 153.1,72.2 153.1,80.4 145,80.4 		"/>
		<path d="M164.6,76.6v3.8H163v-8.9h3.1c1.4,0,2.5,0.5,2.5,2.1c0,1-0.2,2-1.4,2.1v0c1,0.1,1.3,0.8,1.3,1.6c0,0.4,0,2.5,0.4,2.8v0.2
			h-1.8c-0.2-0.6-0.2-1.7-0.2-2.2c0-0.5,0-1.3-0.6-1.5c-0.4-0.1-0.9-0.1-1.4-0.1H164.6L164.6,76.6z M164.6,75.3h1.3
			c0.5,0,1-0.4,1-1.3c0-1-0.4-1.2-1-1.2h-1.2V75.3L164.6,75.3z"/>
		<polygon points="173,80.4 173,71.6 177.7,71.6 177.7,72.9 174.6,72.9 174.6,75.1 177.4,75.1 177.4,76.4 174.6,76.4 174.6,79.1
			177.7,79.1 177.7,80.4 173,80.4 		"/>
		<path d="M181.1,80.4l2.1-8.9h2.2l2,8.9h-1.8l-0.4-2.2h-1.9l-0.4,2.2H181.1L181.1,80.4z M183.6,76.9h1.4l-0.4-2.5
			c-0.1-0.4-0.1-0.8-0.2-1.2c0-0.2,0-0.4-0.1-0.6h0c0,0.2,0,0.4-0.1,0.6c0,0.4-0.1,0.8-0.2,1.2L183.6,76.9L183.6,76.9z"/>
		<polygon points="191.2,80.4 191.2,71.6 192.9,71.6 192.9,79.1 195.9,79.1 195.9,80.4 191.2,80.4 		"/>
		<path d="M207.4,80.4h-1.7v-8.9h2.6l0.9,4.1c0.1,0.7,0.2,1.4,0.3,2h0c0.1-0.9,0.1-1.5,0.3-2l0.9-4.1h2.6v8.9h-1.7v-2.8
			c0-1.8,0-3.5,0.1-5.3h0l-1.8,8.1h-1l-1.7-8.1h-0.1c0.1,1.8,0.1,3.5,0.1,5.3V80.4L207.4,80.4z"/>
		<polygon points="217.8,80.4 217.8,71.6 219.4,71.6 219.4,80.4 217.8,80.4 		"/>
		<path d="M227.3,74.2c0-0.8-0.1-1.6-1-1.6c-0.6,0-0.9,0.2-0.9,0.8c0,0.7,0.4,0.9,0.9,1.3c0.5,0.3,1.5,1,2,1.5
			c0.6,0.6,0.7,1.1,0.7,1.9c0,1.7-1.1,2.6-2.7,2.6c-2,0-2.7-1.1-2.7-2.7v-0.6h1.7v0.5c0,0.9,0.2,1.5,1,1.5c0.7,0,1-0.4,1-1
			c0-0.5-0.2-0.9-0.7-1.2c-0.9-0.7-1.9-1.2-2.6-2c-0.3-0.4-0.4-0.9-0.4-1.4c0-1.5,0.9-2.3,2.6-2.3c2.6,0,2.6,2,2.6,2.9H227.3
			L227.3,74.2z"/>
		<path d="M236.7,74.2c0-0.8-0.1-1.6-1-1.6c-0.6,0-0.9,0.2-0.9,0.8c0,0.7,0.4,0.9,0.9,1.3c0.5,0.3,1.5,1,2,1.5
			c0.6,0.6,0.7,1.1,0.7,1.9c0,1.7-1.1,2.6-2.7,2.6c-2,0-2.7-1.1-2.7-2.7v-0.6h1.7v0.5c0,0.9,0.2,1.5,1,1.5c0.7,0,1-0.4,1-1
			c0-0.5-0.2-0.9-0.7-1.2c-0.9-0.7-1.9-1.2-2.6-2c-0.3-0.4-0.4-0.9-0.4-1.4c0-1.5,0.9-2.3,2.6-2.3c2.6,0,2.6,2,2.6,2.9H236.7
			L236.7,74.2z"/>
		<polygon points="242.7,80.4 242.7,71.6 244.4,71.6 244.4,80.4 242.7,80.4 		"/>
		<path d="M252.2,74.2c0-0.8-0.1-1.6-1-1.6c-0.6,0-0.9,0.2-0.9,0.8c0,0.7,0.4,0.9,0.9,1.3c0.5,0.3,1.5,1,2,1.5
			c0.6,0.6,0.7,1.1,0.7,1.9c0,1.7-1.1,2.6-2.7,2.6c-2,0-2.7-1.1-2.7-2.7v-0.6h1.7v0.5c0,0.9,0.2,1.5,1,1.5c0.7,0,1-0.4,1-1
			c0-0.5-0.2-0.9-0.7-1.2c-0.9-0.7-1.9-1.2-2.6-2c-0.3-0.4-0.4-0.9-0.4-1.4c0-1.5,0.9-2.3,2.6-2.3c2.6,0,2.6,2,2.6,2.9H252.2
			L252.2,74.2z"/>
		<path d="M261.7,74.2c0-0.8-0.1-1.6-1-1.6c-0.6,0-0.9,0.2-0.9,0.8c0,0.7,0.4,0.9,0.9,1.3c0.5,0.3,1.5,1,2,1.5
			c0.6,0.6,0.7,1.1,0.7,1.9c0,1.7-1.1,2.6-2.7,2.6c-2,0-2.7-1.1-2.7-2.7v-0.6h1.7v0.5c0,0.9,0.2,1.5,1,1.5c0.7,0,1-0.4,1-1
			c0-0.5-0.2-0.9-0.7-1.2c-0.9-0.7-1.9-1.2-2.6-2c-0.3-0.4-0.4-0.9-0.4-1.4c0-1.5,0.9-2.3,2.6-2.3c2.6,0,2.6,2,2.6,2.9H261.7
			L261.7,74.2z"/>
		<polygon points="267.7,80.4 267.7,71.6 269.3,71.6 269.3,80.4 267.7,80.4 		"/>
		<path d="M273.8,80.4v-8.9h3.4c1.6,0,2.1,1.3,2.1,2.5c0,0.8-0.2,1.6-0.8,2.1c-0.5,0.4-1.2,0.5-1.9,0.5h-1.1v3.7H273.8L273.8,80.4z
			 M275.5,75.4h0.9c0.7,0,1.2-0.3,1.2-1.4c0-1-0.4-1.2-1.3-1.2h-0.8V75.4L275.5,75.4z"/>
		<path d="M283.2,80.4v-8.9h3.4c1.6,0,2.1,1.3,2.1,2.5c0,0.8-0.2,1.6-0.8,2.1c-0.5,0.4-1.2,0.5-1.9,0.5h-1.1v3.7H283.2L283.2,80.4z
			 M284.9,75.4h0.9c0.7,0,1.2-0.3,1.2-1.4c0-1-0.4-1.2-1.3-1.2h-0.8V75.4L284.9,75.4z"/>
		<polygon points="292.6,80.4 292.6,71.6 294.3,71.6 294.3,80.4 292.6,80.4 		"/>
	</g>
</g>
</svg>
