<?xml version="1.0" encoding="utf-8"?>
<!-- Generator: Adobe Illustrator 18.0.0, SVG Export Plug-In . SVG Version: 6.00 Build 0)  -->
<!DOCTYPE svg PUBLIC "-//W3C//DTD SVG 1.1//EN" "http://www.w3.org/Graphics/SVG/1.1/DTD/svg11.dtd">
<svg version="1.1" xmlns="http://www.w3.org/2000/svg" xmlns:xlink="http://www.w3.org/1999/xlink" x="0px" y="0px"
	 viewBox="0 0 300 100" style="enable-background:new 0 0 300 100;" xml:space="preserve">
<style type="text/css">
	.st0{fill-rule:evenodd;clip-rule:evenodd;}
	.st1{fill-rule:evenodd;clip-rule:evenodd;fill:#C038F9;}
	.st2{fill:none;}
	.st3{fill-rule:evenodd;clip-rule:evenodd;fill:#231F20;}
</style>
<g id="Layer_2">
</g>
<g id="Layer_1">
	<g>
		<path d="M269.8,97.2c-18,0-35.9,0-53.8,0c0,0-0.1-0.1-0.1-0.1c0,0-0.1-0.1-0.1-0.1c0-31.7,0-63.3,0-95c0-0.2,0-0.5,0-0.8
			c18,0,36,0,54,0C269.8,33.3,269.8,65.2,269.8,97.2z M258.4,43.8c-1.1-1-2.1-1.9-3.1-2.7c-2.7-2.1-5.9-3.4-9.3-3.7
			c-2-0.2-4.1-0.1-6.1,0.4c-4.4,1.1-8,3.5-10.6,7.2c-2.5,3.7-3.2,7.8-2.8,12.2c0.2,2.2,1,4.2,2.1,6.1c1.5,2.6,3.5,4.8,6,6.3
			c2.2,1.4,4.6,2.3,7.3,2.6c2.2,0.3,4.4,0,6.5-0.6c1.8-0.5,3.4-1.3,5-2.3c1.9-1.2,3.5-2.7,5-4.5c-2.3-1.6-4.5-3.2-6.7-4.8
			c-0.5,0.4-0.9,0.7-1.4,1c-1.3,0.9-2.6,1.7-4.1,2.1c-1.1,0.3-2.3,0.5-3.5,0.3c-2-0.4-3.6-1.4-4.8-3.1c-1.1-1.6-1.8-3.4-2-5.3
			c-0.2-2.1,0.4-4,1.6-5.7c0.9-1.4,2.1-2.5,3.7-3.1c2.7-1,5.2-0.8,7.6,0.9c1,0.7,1.9,1.5,3,2.4C254,48,256.2,46,258.4,43.8z"/>
		<path d="M90.1,96.9C89.9,86,90,13.8,90.3,12.6c0,0,0.1-0.1,0.1-0.1c0,0,0.1,0,0.1,0c17.5,0,35,0,52.4,0c0.2,0,0.4,0,0.6,0
			c0,28.2,0,56.3,0,84.4C142.7,97,91.8,97.1,90.1,96.9z M110.6,71.5c0-6.1,0-12.1,0-18.3c1.7,2.1,3.2,4.1,4.7,6
			c3,3.8,6,7.7,8.9,11.6c0.4,0.5,0.9,0.7,1.6,0.7c2.2,0,4.4,0,6.7,0c0.2,0,0.4,0,0.6,0c0.4,0,0.6-0.2,0.6-0.6c0-0.2,0-0.4,0-0.6
			c0-10.6,0-21.1,0-31.7c0-0.3,0-0.5-0.1-0.8c-2.4-0.2-8.6-0.1-9.6,0.1c0,5.7,0,11.5,0,17.5c-4.8-6-9.5-11.9-14.2-17.6
			c-2.9,0-5.6,0-8.4,0c-0.2,1.6-0.1,32.7,0.1,33.7C104.5,71.5,107.4,71.5,110.6,71.5z"/>
		<path d="M206.5,97c-17.8,0-35.4,0-53.1,0c-0.2-1-0.3-73.6-0.1-75.8c1-0.2,50.7-0.2,53.1-0.1C206.6,22,206.6,94.3,206.5,97z
			 M197,37.7c-0.2-0.1-0.3-0.1-0.4-0.1c-2.9,0-5.8,0-8.6,0c-0.6,0-0.9,0.3-1.1,0.8c-2,3.3-4,6.7-6,10c-0.3,0.5-0.6,0.9-0.9,1.4
			c-2.5-4.1-4.9-8.1-7.3-12.1c-3.3-0.2-9.1-0.1-9.9,0.1c0.2,0.4,0.5,0.9,0.7,1.3c1.6,2.7,3.2,5.4,4.9,8.1c2.1,3.5,4.2,7,6.3,10.5
			c0.3,0.5,0.5,1.1,0.5,1.7c0,3.7,0,7.3,0,11c0,0.4,0,0.8,0,1.2c1.7,0.2,8.3,0.2,9.2-0.1c0.1-3.6,0.2-7.2,0.2-10.8c0-0.5,0-1,0-1.5
			c0-0.4,0.1-0.8,0.3-1.1c1-1.5,1.9-3.1,2.9-4.7c2.7-4.5,5.5-9,8.2-13.5C196.1,39.1,196.5,38.4,197,37.7z"/>
		<path d="M69,71.9c-2.6,0-5.1,0-7.7,0c-2.4-6.3-4.8-12.7-7.3-19c-0.1,0-0.1,0-0.2,0c-2.2,6.3-4.4,12.7-6.6,19c-2.5,0-4.9,0-7.4,0
			c-0.7-1.9-1.4-3.9-2-5.8c-1.5-4.4-3-8.8-4.5-13.1c-1.4-4-2.8-8-4.2-12c-0.4-1.1-0.8-2.1-1.2-3.2c1-0.2,7.1-0.2,9.6-0.1
			c2.2,6.4,4.2,12.9,6.5,19.6c0.3-0.7,0.5-1.2,0.6-1.7c2-6,4-11.9,6-17.9c0,0,0.1-0.1,0.2-0.2c1-0.2,2.2,0,3.3-0.1
			c1.1,0,2.2,0,3.5,0c1.4,3.2,2.6,6.5,3.9,9.8c1.3,3.3,2.6,6.6,4,10.2c2.1-6.8,4.1-13.3,6.1-19.7c2.8,0,5.5,0,8.3,0
			c-0.6,2-1.2,3.8-1.8,5.7c-1.5,4.7-3,9.4-4.5,14c-1.1,3.6-2.3,7.1-3.4,10.7C69.9,69.3,69.4,70.6,69,71.9z"/>
		<path d="M81.3,97c-17.9,0-35.7,0-53.6,0c0-5.5,0-10.9,0-16.3c0,0,0,0,0.1-0.1c0,0,0.1-0.1,0.1-0.1c17.8,0,35.6,0,53.4,0
			C81.4,81.5,81.5,94.6,81.3,97z"/>
	</g>
</g>
</svg>
