<?xml version="1.0" encoding="utf-8"?>
<!-- Generator: Adobe Illustrator 18.0.0, SVG Export Plug-In . SVG Version: 6.00 Build 0)  -->
<!DOCTYPE svg PUBLIC "-//W3C//DTD SVG 1.1//EN" "http://www.w3.org/Graphics/SVG/1.1/DTD/svg11.dtd">
<svg version="1.1" xmlns="http://www.w3.org/2000/svg" xmlns:xlink="http://www.w3.org/1999/xlink" x="0px" y="0px"
	 viewBox="0 0 300 32.3" style="enable-background:new 0 0 300 32.3;" xml:space="preserve">
<style type="text/css">
	.st0{fill-rule:evenodd;clip-rule:evenodd;}
	.st1{fill-rule:evenodd;clip-rule:evenodd;fill:#C038F9;}
	.st2{fill:none;}
	.st3{fill-rule:evenodd;clip-rule:evenodd;fill:#231F20;}
</style>
<g id="Layer_2">
	<g>
		<path d="M14.9,22.7c-0.4,0.7-1,1.3-1.8,1.8c-1.2,0.8-2,1.3-3.6,1.5c-1.9,0.3-3.2,0-4.9-0.8c-1.9-0.9-3.2-2.6-3.8-3.9
			C0.3,20.1,0,18.5,0,17.4c0-2,0.3-3.3,1.3-5c1.1-2,2.3-3.3,4.1-4.2c0.9-0.4,1.5-0.6,2.4-0.7c-1.2,1-1.9,1.8-2.7,3.2
			c-0.8,1.5-1.2,2.5-1.3,4.1c-0.1,1.7,0.1,2.9,1,4.3c1,1.6,1.9,3.1,4.4,4c1.1,0.4,2,0.4,3.1,0.2V7.8c0-0.1,0-0.3-0.1-0.3
			c-0.1-0.1-1-0.1-1.5-0.1C6.9,6.9,5.9,5.7,3.1,6.7C2,7.2,1.5,8.2,1.1,9.4c-0.6-1.3-0.5-2.8,0-3.7c0.4-0.7,1-1.5,2-2
			C4.6,2.8,5.9,3,7.6,3.3C9,3.5,11.9,4.9,12.9,5c0.6,0,1.3,0,1.3-0.6c0.1-0.5-0.9-0.6-0.9-1c0.1-0.5,0.9-0.4,1.3-0.1
			C16,4.1,14.9,6,14.8,6.1c-0.3,0.3-0.5,0.6-0.9,0.8h0v15.3c0,0,0.1,0.1,0.1,0.1c0,0,0.4-0.3,0.7-0.5c0.3-0.3,0.5-0.4,0.7-0.7
			C15.3,21.8,15.2,22.2,14.9,22.7z M9,20.6c-0.7,0.4-2.2,0.6-2.2,0.6c-0.1-0.1,1-1,1-1.8v-6.3l-1.3,1.1c0,0-0.1,0.1-0.2,0.1
			c-0.1,0-0.2,0-0.2,0l-0.5-0.6c0,0,0-0.1,0-0.2c0-0.1,0.1-0.2,0.1-0.2l5.1-4.6c0.1-0.1,0.2-0.1,0.3-0.1c0.1,0,0.1,0.2,0.1,0.3v7.9
			C11.2,18.4,10.5,19.8,9,20.6z"/>
		<path d="M27.6,25.6c0,1.2-0.4,1.9-1,2.8c-0.6,0.8-0.7,0.9-1.5,1.6c-1,0.8-2,0.9-3.2,0.8c-0.6-0.1-1.1-0.2-1.7-0.4
			c1.1-0.2,1.8-0.7,2.6-1.5c0.6-0.7,0.9-2,0.9-2.3l0-11.5c0-0.1-0.1-0.1-0.1-0.1c0,0-0.1-0.1-0.1-0.2l-1.2-1.4c0,0-0.1-0.1-0.2-0.1
			c-0.1,0-0.2,0.1-0.2,0.1l-0.8,0.9c0,0,0,0.1,0,0.1c0,0.1,0,0.1,0,0.3l0,8.1c0,0.1,0.1,0.1,0.1,0.2c0,0.1,0.1,0.1,0.2,0.2l0.2,0.2
			c0,0.1,0.1,0.1,0.1,0.1c0.1,0,0.2-0.1,0.2-0.2l0.4-0.4c0.1,0,0.1-0.1,0.2-0.1c0.1,0,0.2,0.1,0.2,0.2l0.3,0.2
			c0.1,0.1,0.1,0.2,0.1,0.3c0,0.1-0.1,0.2-0.2,0.3L20.4,26c-0.1,0.1-0.2,0.2-0.4,0.2c-0.1,0-0.2-0.1-0.3-0.2l-2-1.9
			c-0.1-0.1-0.2-0.1-0.3-0.1c-0.1,0-0.2,0.1-0.3,0.1l-2.2,2c-0.1,0-0.1,0.1-0.3,0.1c-0.1,0-0.2-0.1-0.2-0.1l-0.4-0.4
			c0,0,0-0.1,0-0.2c0-0.1,0-0.2,0.1-0.3l2.3-2.1c0,0,0.1-0.1,0.1-0.2c0.1-0.1,0.1-0.2,0.1-0.4l0-19.8L17.8,4
			c0.1,0.1,0.2,0.2,0.3,0.2c0.1,0,0.2-0.1,0.3-0.1L21,2.8v9.6c0,0.1,0.1,0.2,0.2,0.2c0.1,0,0.2-0.1,0.2-0.1l2.8-2.8
			c0.1-0.1,0.2-0.1,0.3-0.1c0.1,0,0.3,0.1,0.3,0.2l2.6,3c0.1,0.1,0.1,0.2,0.2,0.3c0,0.1,0.1,0.3,0.1,0.4L27.6,25.6z"/>
		<path d="M37.2,15.5c0,0.1,0,0.2-0.1,0.3l-1.8,1.7c-0.1,0.1-0.1,0.1-0.3,0.1c-0.1,0-0.2-0.1-0.2-0.2v-4c0-0.1,0-0.2,0.1-0.2
			c0.1,0,0.2,0.1,0.2,0.1l1.9,1.9C37.1,15.3,37.2,15.4,37.2,15.5z M40.2,13.6c0-0.2-0.2-0.4-0.3-0.5l-3.4-3.4
			c-0.1-0.1-0.2-0.2-0.3-0.2c-0.1,0-0.3,0-0.4,0l-6.2,3.7c0.4,0.1,0.7,0.3,0.9,0.4c0.1,0.1,0.4,0.4,0.4,0.6l0.1,8.4
			c0,0.1-0.1,0.3-0.2,0.4c0,0.1-0.1,0.2-0.1,0.2l-2.3,2.1c-0.1,0.1-0.1,0.2-0.1,0.3c0,0.1,0,0.1,0,0.2l0.4,0.4c0,0,0.1,0.1,0.2,0.1
			c0.1,0,0.2-0.1,0.3-0.1l2.2-2c0.1,0,0.2-0.1,0.3-0.1c0.1,0,0.2,0.1,0.3,0.1l2,1.9c0.1,0.1,0.2,0.2,0.3,0.2c0.1,0,0.3-0.1,0.4-0.2
			l4-4c0.1-0.1,0.2-0.2,0.2-0.3c0-0.1-0.1-0.2-0.1-0.3l-0.3-0.2c-0.1,0-0.1-0.1-0.2-0.1c-0.1,0-0.2,0.1-0.3,0.1l-2,2.1
			c0,0.1-0.1,0.2-0.2,0.2c-0.1,0-0.1-0.1-0.1-0.1l-0.2-0.2c-0.1-0.1-0.2-0.2-0.2-0.2c-0.1-0.2-0.4-0.4-0.4-0.6v-2.1
			c0-0.2-0.1-0.4,0-0.6c0-0.1,0.2-0.3,0.3-0.4l4.8-5.1C40.1,13.9,40.2,13.8,40.2,13.6z"/>
		<path d="M58.5,11.2c-0.6,0.6-1.3,0.8-2.2,0.8c-0.8,0-1.4-0.3-1.9-0.8V6.7c0.6-0.5,1.1-0.6,2-0.6c1.1,0,2.2,0.6,2.2,1.6V11.2z
			 M47.1,15.2v-3c-0.6,0-0.9,0.2-1.4,0.4c-0.8,0.5-1.5,1.7-1.3,3c0.4-0.2,0.8-0.3,1.2-0.4C46.2,15.1,46.5,15.1,47.1,15.2z M52.3,7.9
			c-0.7-0.4-2.7-0.3-3.3,0.2c-0.9,0.7-1.4,1.5-1.4,2.6v7.7c0,0.6-0.1,1.1-0.3,1.6c-0.3,0.5-0.6,0.8-1,1c1.3,0.5,2.4,0.3,3.5-0.5
			c1-0.7,1.6-1.6,1.6-2.7V10c0-0.5,0-0.8,0.2-1.2C51.8,8.4,52,8.2,52.3,7.9z M62.9,22.6V7.2c0-1.2-0.7-2.5-1.8-3.4
			c-1.6-1.5-3.5-1.5-5.6-1c-2.4,0.6-3.3,1.3-5.4,1.2c-2.3-0.1-3.7-0.3-5.8-1.3c1.4,1.8,2.6,2.7,4.7,3.5C50.5,6.8,51.4,7,52.9,7
			l0.1,13.8c-1.1-0.1-1.7,0-2.8,0.2c-1.3,0.3-2.1,0.6-3.2,1.4c-1,0.7-2.4,2.1-2.4,3.9c0,1.3,0.6,2.5,2,3.4c1.2,0.8,2.5,0.5,3.7-0.3
			c-2.2,0.4-4.2-0.8-3.9-3c0.4-2.4,3.5-2.5,5.8-2.3c3.5,0.4,5.2,3.2,5.4,3.4c0.1,0.1,0.1,0.2,0.3,0.2c0.1,0,0.3,0,0.3-0.1L62.9,22.6
			z M58.5,15.7c-0.8-0.4-1.4-0.6-2.2-0.6c-0.8,0-1.3,0.1-2,0.4v-2.9c0.7,0.3,1.2,0.4,2,0.4c0.9,0,1.5-0.1,2.2-0.5V15.7z M58.5,22.9
			c-0.8-0.6-1.3-0.9-2.1-1.3c-0.7-0.3-1.2-0.5-2-0.7v-4.1c0.6-0.5,1.1-0.7,2-0.7c0.8,0,1.5,0.2,2.2,0.8V22.9z"/>
		<path d="M70.9,13.5l0,2.3c0,0.1,0,0.2-0.1,0.3c-0.1,0.1-0.5,0.1-0.9,0c-1.5-0.1-3.1-2.7-3.1-3.3c0.8,0.4,1.5,0.6,2.2,0.6
			c0.7,0,1.6-0.2,1.7-0.3C70.9,13,70.9,13.3,70.9,13.5z M77.6,10.6c0-0.1,0-0.2-0.1-0.2L77,10c-0.1,0-0.1-0.1-0.3-0.1
			c-0.1,0-0.1,0.1-0.2,0.1l-2,2c-0.1,0.1-0.1,0.2-0.2,0.2c-0.1,0-0.2-0.1-0.3-0.2l-2.3-2.4c-0.1-0.1-0.3-0.3-0.4-0.3
			c-0.1,0-0.2,0.1-0.3,0.3c-0.1,0-0.3,0.9-1,1.5C69.5,11.7,68.9,12,68,12c0.2-0.3,0.3-0.5,0.4-0.8c0.1-0.6-0.1-1.1-0.6-1.5
			c-0.6-0.4-1.6-0.3-2.1,0.4c-0.7,0.9-0.2,2.4,0,2.9c0.5,1.3,1.5,2.7,2.2,3.2c-0.7,0.2-1.1,0.5-1.7,0.9c-1.2,0.9-1.7,2-1.9,3.5
			c-0.1,1-0.1,1.8,0.3,2.8c0.4,0.9,0.8,1.4,1.6,1.9c0.6,0.4,1.1,0.7,1.9,0.9c0.1,0,0.2-0.1,0.3-0.2l2.4-2.3c0.1-0.1,0.1-0.2,0.3-0.2
			c0.1,0,0.3,0.1,0.3,0.2l2.4,2.2c0.1,0.1,0.2,0.2,0.3,0.2c0.2,0,0.3-0.1,0.4-0.2l2.5-2.4c0.1-0.1,0.2-0.2,0.2-0.3
			c0-0.1-0.1-0.2-0.1-0.3l-0.3-0.3c-0.1,0-0.1-0.1-0.2-0.1c-0.1,0-0.2,0.1-0.3,0.1l-0.4,0.4c-0.1,0-0.1,0.1-0.2,0.1
			c-0.1,0-0.1-0.1-0.2-0.1L75.3,23c-0.1-0.1-0.2-0.2-0.2-0.3C75,22.7,75,22.6,75,22.5v-8.9c0-0.1,0-0.2,0-0.3c0-0.1,0.1-0.1,0.1-0.2
			l2.3-2.3C77.4,10.7,77.6,10.6,77.6,10.6z M70.9,22c0,0.7-0.9,0.9-1.6,0.9c-0.9,0-1.5-0.8-1.8-1.7c-0.4-0.9-0.3-1.9,0.3-2.8
			c0.7-0.9,2-1.6,2.8-1.3c0.2,0.1,0.3,0.3,0.3,0.5V22z"/>
		<path d="M84.8,23.6L82.4,26c-0.1,0.1-0.2,0.2-0.4,0.2c-0.1,0-0.2-0.1-0.3-0.2l-2-1.9c-0.1-0.1-0.2-0.1-0.3-0.1s-0.2,0.1-0.3,0.1
			l-2.2,2c-0.1,0-0.1,0.1-0.2,0.1c-0.1,0-0.2-0.1-0.2-0.1l-0.4-0.4c0,0-0.1-0.1-0.1-0.2c0-0.1,0.1-0.2,0.1-0.3l2.3-2.1
			c0,0,0.1-0.1,0.2-0.2c0.1-0.1,0.1-0.2,0.1-0.4V2.8L79.7,4c0.1,0.1,0.2,0.2,0.3,0.2c0.1,0,0.2-0.1,0.3-0.1l2.6-1.2v19.8
			c0,0.1,0.1,0.1,0.1,0.2c0.1,0.1,0.1,0.1,0.2,0.2l0.2,0.2c0,0.1,0.1,0.1,0.2,0.1c0.1,0,0.2-0.1,0.2-0.2l0.4-0.4
			c0.1,0,0.1-0.1,0.2-0.1c0.1,0,0.2,0.1,0.2,0.2l0.3,0.2c0.1,0.1,0.1,0.2,0.1,0.3C85,23.4,84.9,23.6,84.8,23.6z"/>
		<path d="M92.8,23.6L90.3,26c-0.1,0.1-0.2,0.2-0.4,0.2c-0.1,0-0.2-0.1-0.3-0.2l-2-1.9c-0.1-0.1-0.2-0.1-0.3-0.1
			c-0.1,0-0.2,0.1-0.3,0.1l-2.2,2c-0.1,0-0.1,0.1-0.2,0.1c-0.1,0-0.2-0.1-0.2-0.1l-0.4-0.4c0,0-0.1-0.1-0.1-0.2
			c0-0.1,0.1-0.2,0.1-0.3l2.3-2.1c0,0,0.1-0.1,0.2-0.2c0.1-0.1,0.1-0.2,0.1-0.4V2.8L87.7,4c0.1,0.1,0.2,0.2,0.3,0.2
			c0.1,0,0.2-0.1,0.3-0.1l2.6-1.2v19.8c0,0.1,0.1,0.1,0.1,0.2c0.1,0.1,0.1,0.1,0.2,0.2l0.2,0.2c0,0.1,0.1,0.1,0.2,0.1
			c0.1,0,0.2-0.1,0.2-0.2l0.4-0.4c0.1,0,0.1-0.1,0.2-0.1c0.1,0,0.2,0.1,0.2,0.2l0.3,0.2c0.1,0.1,0.1,0.2,0.1,0.3
			C93,23.4,92.9,23.6,92.8,23.6z"/>
		<path d="M99.7,13.5l0,2.3c0,0.1,0,0.2-0.1,0.3c-0.1,0.1-0.5,0.1-0.9,0c-1.5-0.1-3.1-2.7-3.1-3.3c0.8,0.4,1.5,0.6,2.2,0.6
			c0.7,0,1.6-0.2,1.7-0.3C99.7,13,99.7,13.3,99.7,13.5z M106.3,10.6c0-0.1,0-0.2-0.1-0.2l-0.5-0.4c-0.1,0-0.1-0.1-0.3-0.1
			c-0.1,0-0.1,0.1-0.2,0.1l-2,2c-0.1,0.1-0.1,0.2-0.2,0.2c-0.1,0-0.2-0.1-0.3-0.2l-2.3-2.4c-0.1-0.1-0.3-0.3-0.4-0.3
			c-0.1,0-0.2,0.1-0.3,0.3c-0.1,0-0.3,0.9-1,1.5c-0.7,0.6-1.3,0.8-2.2,0.8c0.2-0.3,0.3-0.5,0.4-0.8c0.1-0.6-0.1-1.1-0.6-1.5
			c-0.6-0.4-1.6-0.3-2.1,0.4c-0.7,0.9-0.2,2.4,0,2.9c0.5,1.3,1.5,2.7,2.2,3.2c-0.7,0.2-1.1,0.5-1.7,0.9c-1.2,0.9-1.7,2-1.9,3.5
			c-0.1,1-0.1,1.8,0.3,2.8c0.4,0.9,0.8,1.4,1.6,1.9c0.6,0.4,1.1,0.7,1.9,0.9c0.1,0,0.2-0.1,0.3-0.2l2.4-2.3c0.1-0.1,0.1-0.2,0.3-0.2
			c0.1,0,0.3,0.1,0.3,0.2l2.4,2.2c0.1,0.1,0.2,0.2,0.3,0.2c0.2,0,0.3-0.1,0.4-0.2l2.5-2.4c0.1-0.1,0.2-0.2,0.2-0.3
			c0-0.1-0.1-0.2-0.1-0.3l-0.3-0.3c-0.1,0-0.1-0.1-0.2-0.1c-0.1,0-0.2,0.1-0.3,0.1l-0.4,0.4c-0.1,0-0.1,0.1-0.2,0.1
			c-0.1,0-0.1-0.1-0.2-0.1l-0.1-0.2c-0.1-0.1-0.2-0.2-0.2-0.3c-0.1-0.1-0.1-0.2-0.1-0.3v-8.9c0-0.1,0-0.2,0-0.3
			c0-0.1,0.1-0.1,0.1-0.2l2.3-2.3C106.2,10.7,106.3,10.6,106.3,10.6z M99.7,22c0,0.7-0.9,0.9-1.6,0.9c-0.9,0-1.5-0.8-1.8-1.7
			c-0.4-0.9-0.3-1.9,0.3-2.8c0.7-0.9,2-1.6,2.8-1.3c0.2,0.1,0.3,0.3,0.3,0.5V22z"/>
		<path d="M114.6,13.2l-2.3,3.1l-0.9,0.1c-0.1,0-0.2-0.1-0.3-0.2c-0.1-0.1-0.1-0.2-0.1-0.2v-3.4c0.4,0.3,0.9,0.6,1.6,0.8
			C113.4,13.4,113.9,13.4,114.6,13.2z M118.2,7.6c-0.1-0.2-0.4-1.2-1.1-1.5c-0.1,0-1.1-0.3-1.4,0c-0.2,0.3,0,0.4,0.3,0.6
			c0.7,0.6,1.4,1.1,1.3,2.1c0,0.9-0.4,1.6-1.2,1.8c-0.9,0.3-1.6-0.5-2-0.8l-0.2-0.2c-0.1-0.1-0.1-0.1-0.2-0.1
			c-0.1,0-0.2,0.1-0.3,0.1l-6,3.2c-0.1,0.1-0.1,0.1-0.2,0.2c0,0.1,0,0.2,0,0.3v4.2c0,0.1,0.1,0.3,0.1,0.3c0,0,0.1,0.1,0.2,0.1h3.5
			l-3.7,5.3c-0.8,0.6-1.6,2.2-1.6,3.2c-0.1,1.2,0,2.2,0.9,2.9c0.6,0.4,1.8,0.4,1.8,0c0-0.3-0.3-0.3-0.5-0.4
			c-0.7-0.7-1.3-1.3-1.3-2.3c0-1.6,1.7-2.5,3.3-2.6c1.6-0.1,2.9,1.1,3.6,1.9c0.1,0.1,0.1,0.4,0.3,0.4c0.1,0,0.2-0.1,0.3-0.2l3.2-3.1
			c0.1-0.1,0.1-0.2,0.1-0.3c0.1-0.1,0.1-0.2,0.1-0.4v-5.7c0-0.1-0.1-0.3-0.1-0.3c-0.1-0.1-0.2-0.1-0.3-0.1h-3.6l3.8-5.2
			C118.4,10.2,118.3,7.9,118.2,7.6z M113.4,22.3c0,0.1,0,0.2-0.1,0.2c-0.1,0-0.1-0.1-0.2-0.1c-0.6-0.3-0.9-0.4-1.6-0.4
			c-0.8-0.1-1.4,0.1-2.2,0.4l2.9-4.3h1.2V22.3z"/>
		<path d="M142.4,15.7c-0.3-0.1-0.4-0.1-0.7-0.1c-0.2,0-0.4,0.1-0.6,0.1v-3.2c0.2,0.1,0.3,0.1,0.5,0.1c0.3,0,0.5-0.1,0.8-0.3V15.7z
			 M136,2.8c-1.3,0.5-2.2,0.8-3.6,0.9c-1.4,0.2-2.3-0.4-3.7-0.1c-1.1,0.3-2,0.6-2.7,1.6c-0.8,1.1-1,2.3-0.6,3.7c0.7-1,1.4-1.5,2.5-2
			c1.2-0.5,2.5,0,3.5-0.1c0.4-0.1,0.7-0.3,0.9-0.6L136,2.8z M128,16.1v-3c-0.6,0-0.9,0.1-1.5,0.4c-0.8,0.5-1.5,1.7-1.3,2.9
			c0.4-0.2,0.8-0.3,1.2-0.4C127,16,127.4,16,128,16.1z M149.4,3.6c0-0.1-0.1-0.2-0.1-0.2L148.8,3c0,0-0.1-0.1-0.2-0.1
			c-0.1,0-0.1,0.1-0.2,0.1l-2,1.9c-0.1,0-0.2,0.1-0.3,0.1c-0.1,0-0.2-0.1-0.2-0.1l-2-1.9c0,0-0.1-0.1-0.2-0.1
			c-0.1,0-0.2,0.1-0.3,0.1l-3,3c-0.1,0.1-0.1,0.3-0.2,0.3c-0.1,0-0.2-0.1-0.2-0.2l-3.1-3C136.8,3,136.7,3,136.6,3
			c-0.1,0-0.2,0.1-0.3,0.2l-7.3,7c-0.3,0.3-0.4,0.5-0.5,0.9c-0.2,0.4-0.3,0.8-0.3,1.3v8c0,0.4-0.1,0.7-0.3,1.1
			c-0.2,0.4-0.4,0.8-0.8,1.1c1.4,0.1,2.4-0.4,3.3-1.4c0.5-0.6,0.9-1.1,0.9-1.8V9.8c0-0.3,0.2-0.5,0.3-0.8c0.1-0.2,0.2-0.4,0.3-0.5
			l1.3-1.3c0.1-0.1,0.3-0.3,0.5-0.3c0.4,0,0.9,0.3,0.9,0.7v4.2c-0.1,0.3-0.4,0.5-0.6,0.5c-0.3,0-0.5-0.2-0.6-0.4V8.3h-1.2v11.9
			c0,0.5-0.3,0.9-0.5,1.3c-0.8,1.3-2.3,1.5-3.4,1.9c-1.1,0.5-2.2,1.6-2.7,2.4c-0.5,0.8-1,2.4-0.4,3.6c0.7,1.5,2.3,2.1,4,1.8
			c1.3-0.3,1.6-1.1,1.9-2.1c-0.3,0.6-1.5,0.9-1.8,0.8c-0.8-0.1-1.3-0.7-1.3-1.4c0.1-1.7,2-2.1,3.2-3.2c1.3-1.1,2.2-2,2.2-3.7v-4.5
			c0.2-0.2,0.4-0.3,0.7-0.3c0.3,0,0.4,0.1,0.6,0.3v5.5c0,0.1,0,0.3-0.1,0.4c0,0.1-0.1,0.2-0.2,0.2l-2.3,2.1
			c-0.1,0.1-0.1,0.2-0.1,0.3c0,0.1,0,0.1,0,0.2l0.4,0.4c0,0,0.1,0.1,0.2,0.1c0.1,0,0.2-0.1,0.2-0.1l2.2-2c0.1,0,0.2-0.1,0.3-0.1
			c0.1,0,0.3,0.1,0.3,0.1l2,1.9c0,0.1,0.2,0.2,0.3,0.2c0.2,0,0.3-0.1,0.4-0.2l2.5-2.4c0.1,0,0.2-0.1,0.2-0.3c0-0.1-0.1-0.2-0.1-0.3
			l-0.3-0.2c-0.1-0.1-0.1-0.2-0.2-0.2c-0.1,0-0.2,0.1-0.2,0.1l-0.3,0.3c0,0.1-0.1,0.2-0.2,0.2c-0.1,0-0.1-0.1-0.2-0.1l-0.1-0.2
			c-0.1-0.1-0.1-0.1-0.1-0.2c-0.1-0.1-0.2-0.1-0.2-0.2V8.5c0-1,0.6-2,1.6-2c0.9,0,1.8,0.6,1.8,1.5v3.4c-0.2,0.2-0.4,0.3-0.7,0.3
			c-0.2,0-0.4-0.1-0.6-0.2V7.8h-1.2v14.4h1.2v-5.4c0.1-0.2,0.4-0.3,0.7-0.3c0.3,0,0.5,0.1,0.6,0.4v5.8c0,0.3,0.1,0.4,0.2,0.6
			c0.1,0.1,0.2,0.3,0.3,0.3l2.5,2.4c0,0.1,0.2,0.2,0.3,0.2c0.2,0,0.3-0.1,0.4-0.2l2.5-2.4c0.1-0.1,0.1-0.1,0.1-0.2
			c0-0.1,0-0.2-0.1-0.2l-0.3-0.3c-0.1,0-0.1-0.1-0.2-0.1c-0.1,0-0.1,0.1-0.2,0.1l-0.4,0.3c-0.1,0-0.2,0.1-0.3,0.1
			c-0.1,0-0.1-0.1-0.1-0.1c-0.1-0.1-0.2-0.2-0.3-0.3c-0.1-0.1-0.1-0.1-0.1-0.2v-16c0-0.1,0-0.3,0-0.3c0.1-0.1,0.1-0.2,0.2-0.2
			l2.3-2.2C149.3,3.8,149.4,3.7,149.4,3.6z M134.7,16.1c-0.3-0.1-0.4-0.1-0.7-0.1c-0.2,0-0.4,0.1-0.6,0.2V13
			c0.2,0.1,0.3,0.1,0.5,0.1c0.3,0,0.5-0.1,0.8-0.3V16.1z"/>
		<path d="M156.5,22.4c0,0.2,0.1,0.4-0.1,0.4c-0.1,0.1-0.3-0.2-0.4-0.3l-1.6-1.7c0-0.1-0.1-0.1-0.1-0.2c0-0.1-0.1-0.3-0.1-0.4v-7.1
			c0-0.2,0-0.6,0.2-0.6c0.1,0,0.1,0,0.2,0.1l1.5,1.5c0.1,0.1,0.2,0.2,0.2,0.3c0.1,0.1,0.1,0.3,0.1,0.4V22.4z M160.4,22.4v-8.9
			c0-0.2,0-0.3,0-0.4c0-0.1-0.1-0.3-0.2-0.3L157,9.7c-0.1-0.1-0.2-0.2-0.3-0.2c-0.1,0-0.2,0.1-0.3,0.1l-5.6,3.1
			c-0.1,0.1-0.1,0-0.3,0.3c-0.2,0.2-0.1,0.2-0.1,0.4l0,9.4c0,0.1-0.1,0.3-0.2,0.4c0,0.1-0.1,0.2-0.1,0.2l-2.3,2.1
			c-0.1,0.1-0.1,0.2-0.1,0.3c0,0.1,0,0.1,0,0.2l0.4,0.4c0,0,0.1,0.1,0.2,0.1c0.1,0,0.2-0.1,0.3-0.1l2.2-2c0.1,0,0.2-0.1,0.3-0.1
			c0.1,0,0.2,0.1,0.3,0.1l2,1.9c0.1,0.1,0.2,0.2,0.3,0.2c0.1,0,0.3-0.1,0.4-0.2l6.2-3.1c0.1-0.1,0.1-0.2,0.2-0.3
			C160.4,22.6,160.4,22.5,160.4,22.4z"/>
		<path d="M171.2,14.1c-0.1-0.6-0.8-1.2-1.3-1.3c-0.8-0.1-1.1,0.5-1.9,0.5c-0.3,0-0.5,0-0.8,0l0,9.3c0,0.1,0.1,0.1,0.1,0.2
			c0,0.1,0.1,0.2,0.2,0.2l0.3,0.3c0,0.1,0.1,0.1,0.1,0.1c0.1,0,0.2-0.1,0.2-0.2l0.8-0.7c0.1,0,0.1-0.1,0.3-0.1
			c0.1,0,0.1,0.1,0.2,0.1l0.3,0.2c0.1,0.1,0.1,0.2,0.1,0.3c0,0.1-0.1,0.2-0.2,0.3l-2.8,2.7c-0.1,0.1-0.2,0.2-0.4,0.2
			c-0.1,0-0.2-0.1-0.3-0.2l-2-1.9c-0.1-0.1-0.2-0.1-0.3-0.1c-0.1,0-0.2,0.1-0.3,0.1l-2.2,2c-0.1,0-0.1,0.1-0.3,0.1
			c-0.1,0-0.2-0.1-0.2-0.1l-0.4-0.4c0,0,0-0.1,0-0.2c0-0.1,0-0.2,0.1-0.3l2.3-2.1c0,0,0.1-0.1,0.1-0.2c0.1-0.1,0.2-0.2,0.2-0.4
			l0-8.7c0-0.1,0-0.2,0-0.3s0-0.2-0.1-0.2l-0.6-0.6c0,0-0.1-0.1-0.1-0.1c-0.1,0-0.1,0-0.1,0l-0.5,0.4l-0.1,0c-0.1,0-0.1,0-0.1,0
			l-0.4-0.5c0,0-0.1-0.1-0.1-0.1c0-0.1,0.1-0.1,0.1-0.1l2.7-2.7c0.1-0.1,0.1-0.1,0.3-0.1c0.1,0,0.2,0.1,0.2,0.1l2.3,2.2
			c0.1,0,0.1,0.1,0.2,0.1c0.1,0,0.2-0.1,0.3-0.1l2.3-2.2c0.1-0.1,0.1-0.2,0.3-0.2c0.1,0,0.2,0.1,0.3,0.1c0.2,0.1,0.5,0.4,0.8,0.9
			c0.4,0.6,0.7,1,0.8,1.7C171.8,13.3,171.6,13.5,171.2,14.1z"/>
		<path d="M186.9,23.3l-2.6,2.7c-0.1,0.1-0.2,0.2-0.3,0.2c-0.1,0-0.3-0.1-0.4-0.2l-2.9-2.9c0,0-0.1-0.1-0.1-0.2
			c0-0.1-0.1-0.1-0.1-0.2V14c0-0.1,0-0.1-0.1-0.3c0,0-0.1-0.1-0.1-0.1l-0.8-0.8c-0.1-0.1-0.1-0.1-0.3-0.1c-0.1,0-0.1,0-0.2,0
			c-0.1,0-0.4,0.3-0.4,0.3c0,0.1-0.3,0.2-0.3,0.3v9.2c0,0.1,0.1,0.1,0.1,0.2c0,0.1,0.1,0.2,0.2,0.2l0.2,0.2c0,0.1,0.1,0.1,0.2,0.1
			c0.1,0,0.1-0.1,0.2-0.2l0.3-0.3c0.1-0.1,0.2-0.1,0.3-0.1c0.1,0,0.1,0.1,0.2,0.1l0.4,0.3c0,0,0.1,0.1,0.1,0.2
			c0,0.1-0.1,0.2-0.1,0.2L178,26c-0.1,0.1-0.2,0.2-0.4,0.2c-0.1,0-0.2-0.1-0.3-0.2l-2-1.9c-0.1-0.1-0.2-0.1-0.3-0.1
			c-0.1,0-0.2,0.1-0.3,0.1l-2.2,2c-0.1,0-0.1,0.1-0.3,0.1c-0.1,0-0.2-0.1-0.2-0.1l-0.4-0.4c0,0,0-0.1,0-0.2c0-0.1,0-0.2,0.1-0.3
			l2.3-2.1c0,0,0.1-0.1,0.1-0.2c0.1-0.1,0.2-0.2,0.2-0.4v-8.8c0-0.1,0-0.2,0-0.3c0-0.1-0.1-0.2-0.1-0.2l-0.6-0.6
			c0,0-0.1-0.1-0.1-0.1c-0.1,0-0.1,0-0.1,0l-0.5,0.4l-0.1,0c-0.1,0-0.1,0-0.1,0l-0.4-0.5c0,0-0.1-0.1-0.1-0.1c0-0.1,0.1-0.1,0.1-0.1
			l2.7-2.7c0.1-0.1,0.1-0.1,0.3-0.1c0.1,0,0.2,0.1,0.2,0.1l2.3,2.2c0.1,0,0.1,0.1,0.2,0.1c0.1,0,0.2-0.1,0.3-0.1l2.4-2.3
			c0.1,0,0.1-0.1,0.2-0.1c0.1,0,0.2,0.1,0.2,0.1l2.3,2.2c0.1,0.1,0.1,0.1,0.2,0.1c0.1,0,0.2,0,0.3-0.1l2.1-2.1c0,0,0.1-0.1,0.2-0.1
			c0.1,0,0.2,0,0.2,0.1l0.4,0.4c0,0,0.1,0.1,0.1,0.2c0,0.1-0.1,0.2-0.1,0.2l-2.3,2.3c0,0.1-0.1,0.1-0.2,0.2c0,0.1,0,0.3,0,0.3v9.3
			c0,0.1,0.1,0.1,0.1,0.2c0,0.1,0.1,0.2,0.2,0.2l0.3,0.3c0.1,0.1,0.1,0.1,0.2,0.1c0.1,0,0.2-0.1,0.2-0.2l0.8-0.7
			c0.1,0,0.1-0.1,0.2-0.1c0.1,0,0.2,0.1,0.2,0.1l0.2,0.2c0.1,0.1,0.1,0.2,0.1,0.3C187.1,23.2,186.9,23.2,186.9,23.3z"/>
		<path d="M192.3,6.7l-2,1.9c-0.1,0-0.1,0-0.2,0c-0.1,0-0.1,0-0.2,0l-1.6-1.8c-0.1-0.1-0.2-0.2-0.2-0.3c0-0.1,0.1-0.3,0.1-0.3
			l1.6-1.6c0.1-0.1,0.2-0.1,0.3-0.1c0.1,0,0.2,0,0.2,0.1l1.7,1.6c0.1,0.1,0.2,0.2,0.2,0.3C192.4,6.5,192.4,6.6,192.3,6.7z M195,23.3
			l-2.8,2.7c-0.1,0.1-0.2,0.2-0.4,0.2c-0.1,0-0.2-0.1-0.3-0.2l-2-1.9c-0.1-0.1-0.2-0.1-0.3-0.1c-0.1,0-0.2,0.1-0.3,0.1l-2.2,2
			c-0.1,0-0.1,0.1-0.3,0.1c-0.1,0-0.2-0.1-0.2-0.1l-0.4-0.4c0,0,0-0.1,0-0.2c0-0.1,0-0.2,0.1-0.3l2.3-2.1c0,0,0.1-0.1,0.1-0.2
			c0.1-0.1,0.1-0.2,0.1-0.4v-8.2c0-0.1,0-0.1,0-0.3c0-0.1,0-0.1-0.1-0.2l-0.6-0.8c0,0-0.1-0.1-0.1-0.1c-0.1,0-0.1,0-0.1,0l-0.3,0.3
			l-0.1,0c-0.1,0-0.1,0-0.1,0l-0.4-0.5c0,0,0-0.1,0-0.2c0,0,0-0.1,0.1-0.1l3.2-3.1c0.1-0.1,0.2-0.1,0.3-0.1c0.1,0,0.2,0.1,0.2,0.1
			l2.1,2.5c0,0,0.1,0.1,0.1,0.3c0.1,0.2,0,0.2,0,0.3v9.9c0,0.1,0.1,0.2,0.2,0.2c0,0.1,0.1,0.2,0.2,0.2l0.3,0.3
			c0,0.1,0.1,0.1,0.1,0.1c0.1,0,0.2-0.1,0.2-0.2l0.8-0.7c0.1,0,0.1-0.1,0.3-0.1c0.1,0,0.1,0.1,0.2,0.1l0.3,0.2
			c0.1,0.1,0.1,0.2,0.1,0.3C195.1,23.2,195,23.3,195,23.3z"/>
		<path d="M209.1,23.3l-2.6,2.7c-0.1,0.1-0.2,0.2-0.3,0.2c-0.1,0-0.3-0.1-0.4-0.2l-2.9-2.9c0,0-0.1-0.1-0.1-0.2
			c0-0.1-0.1-0.1-0.1-0.2V14c0-0.1,0-0.1-0.1-0.3c0,0-0.1-0.1-0.1-0.1l-0.8-0.8c-0.1-0.1-0.1-0.1-0.3-0.1c-0.1,0-0.1,0-0.2,0
			c-0.1,0-0.4,0.3-0.4,0.3c0,0.1-0.3,0.2-0.3,0.3v9.2c0,0.1,0.1,0.1,0.1,0.2c0,0.1,0.1,0.2,0.2,0.2l0.2,0.2c0,0.1,0.1,0.1,0.2,0.1
			c0.1,0,0.1-0.1,0.2-0.2l0.3-0.3c0.1-0.1,0.2-0.1,0.3-0.1c0.1,0,0.1,0.1,0.2,0.1l0.4,0.3c0,0,0.1,0.1,0.1,0.2
			c0,0.1-0.1,0.2-0.1,0.2l-2.4,2.4c-0.1,0.1-0.2,0.2-0.4,0.2c-0.1,0-0.2-0.1-0.3-0.2l-2-1.9c-0.1-0.1-0.2-0.1-0.3-0.1
			c-0.1,0-0.2,0.1-0.3,0.1l-2.2,2c-0.1,0-0.1,0.1-0.3,0.1c-0.1,0-0.2-0.1-0.2-0.1l-0.4-0.4c0,0,0-0.1,0-0.2c0-0.1,0-0.2,0.1-0.3
			l2.3-2.1c0,0,0.1-0.1,0.1-0.2c0.1-0.1,0.2-0.2,0.2-0.4v-8.8c0-0.1,0-0.2,0-0.3c0-0.1-0.1-0.2-0.1-0.2l-0.6-0.6
			c0,0-0.1-0.1-0.1-0.1s-0.1,0-0.1,0l-0.5,0.4l-0.1,0c-0.1,0-0.1,0-0.1,0l-0.4-0.5c0,0-0.1-0.1-0.1-0.1c0-0.1,0.1-0.1,0.1-0.1
			l2.7-2.7c0.1-0.1,0.1-0.1,0.3-0.1c0.1,0,0.2,0.1,0.2,0.1l2.3,2.2c0.1,0,0.1,0.1,0.2,0.1c0.1,0,0.2-0.1,0.3-0.1l2.4-2.3
			c0.1,0,0.1-0.1,0.3-0.1c0.1,0,0.2,0.1,0.2,0.1l2.3,2.2c0.1,0.1,0.1,0.1,0.2,0.1c0.1,0,0.2,0,0.3-0.1l2.1-2.1c0,0,0.1-0.1,0.2-0.1
			c0.1,0,0.2,0,0.2,0.1l0.4,0.4c0,0,0.1,0.1,0.1,0.2c0,0.1-0.1,0.2-0.1,0.2l-2.3,2.3c0,0.1-0.1,0.1-0.2,0.2c0,0.1,0,0.3,0,0.3v9.3
			c0,0.1,0.1,0.1,0.1,0.2c0,0.1,0.1,0.2,0.2,0.2l0.3,0.3c0.1,0.1,0.1,0.1,0.2,0.1c0.1,0,0.2-0.1,0.2-0.2l0.8-0.7
			c0.1,0,0.1-0.1,0.2-0.1c0.1,0,0.2,0.1,0.2,0.1l0.3,0.2c0.1,0.1,0.1,0.2,0.1,0.3C209.3,23.2,209.1,23.2,209.1,23.3z"/>
		<path d="M223.1,10.7l-2.1,2.2c0,0.1-0.1,0.2-0.1,0.2c0,0.1,0,0.2,0,0.3V22c0,0.1,0.1,0.2,0.1,0.3c0.4,1.3,1.7,1.4,1.8,2.9
			c0.1,0.9-0.3,1.5-0.9,2.1l-3.5,3.4c-0.1,0-0.1,0.1-0.3,0.1s-0.2-0.1-0.3-0.2l-0.6-0.4c-1-0.7-1.5-1.2-3-1.3
			c-1.1-0.1-3.1,0.3-4.4,1.5c1.1-2.4,3-3.7,5.7-3.9c1.8-0.1,3,0.3,4.5,1.4c0-0.4,0.3-0.7-0.3-1.4c-0.7-0.7-1.2-0.8-1.8-1.6
			c-0.6-1-0.9-1.6-0.9-2.8v-6.6c0-0.1,0-0.2-0.1-0.3c0-0.1-0.1-0.2-0.2-0.3l-2.2-1.8v9.2c0,0.1,0.1,0.1,0.1,0.2
			c0,0.1,0.1,0.2,0.1,0.2l0.5,0.5c0,0,0.1,0.1,0.1,0.1c0.1,0,0.2-0.1,0.2-0.2l0.4-0.4c0.1,0,0.1-0.1,0.2-0.1c0.1,0,0.2,0.1,0.2,0.1
			l0.3,0.3c0.1,0,0.1,0.1,0.1,0.3c0,0.1-0.1,0.2-0.2,0.3l-2.5,2.3c-0.1,0.1-0.2,0.2-0.4,0.2c-0.1,0-0.2-0.1-0.3-0.2l-2-1.9
			c-0.1-0.1-0.2-0.1-0.3-0.1c-0.1,0-0.2,0.1-0.3,0.1l-2.2,2c-0.1,0-0.1,0.1-0.3,0.1c-0.1,0-0.2-0.1-0.2-0.1l-0.4-0.4
			c0,0,0-0.1,0-0.2c0-0.1,0-0.2,0.1-0.3l2.3-2.1c0,0,0.1-0.1,0.1-0.2c0.1-0.1,0.2-0.2,0.2-0.4l0-9c0-0.2,0-0.4,0.1-0.5
			c0.1-0.1,0.2-0.3,0.3-0.4l4.7-3.1c0.1-0.1,0.3-0.1,0.4-0.1c0.2,0,0.3,0.1,0.4,0.2l3.1,2.1c0.1,0,0.2,0.2,0.3,0.2
			c0.1,0,0.3-0.1,0.4-0.2l1.8-1.8c0.1,0,0.2-0.2,0.3-0.2c0.1,0,0.2-0.1,0.3,0l0.5,0.4c0.1,0.1,0,0.2,0,0.2
			C223.3,10.6,223.2,10.7,223.1,10.7z"/>
		<path d="M243,13.5c-0.1,0.2-0.4,0.3-0.6,0.4c-0.4,0-0.7-0.1-0.9-0.4l-1.6-2.4c0.6,0.2,1,0.3,1.7,0.2c0.6-0.1,1-0.2,1.5-0.5V13.5z
			 M232.7,16.8v-3c-0.6,0-1,0.2-1.4,0.4c-0.8,0.5-1.5,1.7-1.3,2.9c0.4-0.2,0.8-0.3,1.3-0.4C231.8,16.8,232.1,16.8,232.7,16.8z
			 M248.8,3.8c-1.2,0.8-2.2,1-3.8,0.8c-1.2-0.1-2.3-1.3-2.9-1.5c-0.1-0.1-0.3-0.1-0.5-0.1c-0.3,0-0.4,0.2-0.6,0.3l-3.4,3.2
			c0,0-0.1,0.1-0.1,0.2c0,0.1,0,0.2,0.1,0.2l0.4,0.4c0,0.1,0.1,0.1,0.2,0.1c0.1,0,0.1,0,0.1,0l1.1-0.9c0.1-0.1,0.1-0.1,0.2-0.1
			c0.1,0,0.2,0.2,0.3,0.3c0.4,0.3,0.7,0.7,1.1,0.9c0.7,0.3,1.1,0.5,1.9,0.6v1.7c-0.6,0.4-1,0.5-1.6,0.6c-0.8,0.1-1.5,0-2.2-0.4
			l-2.9-4.5c-1-1.5-2.2-2.7-4.1-2.5c-1.3,0.1-2.3,0.5-2.8,1.6c-0.4,0.7-0.5,2.1,0.1,3.1c0-1,1-2,1.8-2c1.7,0,2.1,2.6,2.1,2.6l0,13.2
			c-0.8,0.1-1.3,0.2-2.1,0.6c-0.9,0.5-1.5,1.1-2,2c-0.6,1.3-0.5,3.2,0.1,4.2c1.5,2.7,4.4,2.3,5.2,2.1c0.6-0.2,0.7-0.4,0.9-0.7
			c-1.1,0.8-3.2-0.3-3.5-0.7c-1.1-1.6-0.1-3.3,1.4-3.5c1.1-0.2,2,0.2,3,1c0,0,0.1,0.1,0.1,0.1c0,0,0.1,0,0.1-0.1l3.2-3.3
			c0-0.1,0.1-0.1,0.1-0.2c0,0-0.1-0.1-0.1-0.1l-0.4-0.4c-0.1,0-0.1-0.1-0.2-0.1c-0.1,0-0.1,0.1-0.2,0.1l-0.8,0.6
			c-0.1,0-0.1,0.2-0.3,0.2c-0.1,0-0.2-0.1-0.2-0.2c-0.5-0.3-0.7-0.6-1.1-0.9c-0.6-0.4-1-0.5-1.7-0.7v-2.3c0.7-0.4,1.2-0.6,2-0.7
			c0.9-0.1,1.6,0,2.5,0.4l5.1,8.1V8c1.1,0,1.8-0.4,2.7-1.1C248.3,6.1,248.7,5.2,248.8,3.8z M236.3,14.1c-0.1,0.2-0.3,0.3-0.6,0.3
			c-0.3,0.1-0.6,0-0.9-0.2v-2.4L236.3,14.1z M243,16l-0.8-1.2c0.1,0,0.3,0,0.4,0c0.1,0,0.3-0.1,0.4-0.1V16z M238.7,17.7
			c-0.8-0.2-1.3-0.3-2.1-0.1c-0.7,0.1-1.1,0.3-1.7,0.6V15c0.4,0.2,0.7,0.3,1.1,0.2c0.3-0.1,0.6-0.2,0.9-0.4L238.7,17.7z"/>
		<path d="M254.1,15.5c0,0.1,0,0.2-0.1,0.3l-1.8,1.7c-0.1,0.1-0.1,0.1-0.2,0.1c-0.1,0-0.2-0.1-0.2-0.2v-4c0-0.1,0-0.2,0.1-0.2
			c0.1,0,0.2,0.1,0.2,0.1l1.9,1.9C254,15.3,254.1,15.4,254.1,15.5z M257.2,13.6c0-0.2-0.2-0.4-0.3-0.5l-3.4-3.4
			c-0.1-0.1-0.2-0.2-0.3-0.2c-0.1,0-0.3,0-0.4,0l-6.2,3.7c0.4,0.1,0.7,0.3,0.9,0.4c0.1,0.1,0.4,0.4,0.4,0.6l0.1,8.4
			c0,0.1-0.1,0.3-0.2,0.4c0,0.1-0.1,0.2-0.1,0.2l-2.3,2.1c-0.1,0.1-0.1,0.2-0.1,0.3c0,0.1,0,0.1,0,0.2l0.4,0.4c0,0,0.1,0.1,0.2,0.1
			c0.1,0,0.2-0.1,0.3-0.1l2.2-2c0.1,0,0.2-0.1,0.3-0.1c0.1,0,0.2,0.1,0.3,0.1l2,1.9c0.1,0.1,0.2,0.2,0.3,0.2c0.1,0,0.3-0.1,0.4-0.2
			l4-4c0.1-0.1,0.2-0.2,0.2-0.3c0-0.1-0.1-0.2-0.1-0.3l-0.3-0.2c-0.1,0-0.1-0.1-0.2-0.1c-0.1,0-0.2,0.1-0.3,0.1l-2,2.1
			c0,0.1-0.1,0.2-0.2,0.2c-0.1,0-0.1-0.1-0.1-0.1l-0.2-0.2c-0.1-0.1-0.2-0.2-0.2-0.2c-0.1-0.2-0.4-0.4-0.4-0.6v-2.1
			c0-0.2-0.1-0.4,0-0.6c0-0.1,0.2-0.3,0.3-0.4l4.8-5.1C257,13.9,257.2,13.8,257.2,13.6z"/>
		<path d="M277.4,10.4l-2.2,2.5c0,0.1-0.1,0.1-0.2,0.2c-0.2,0.3-0.5,0.5-0.5,0.6l0,9.3l-6,3.1c-0.1,0.1-0.3,0.1-0.4,0.1
			c-0.1,0-0.3-0.1-0.4-0.2l-2.7-2.6c-0.1,0-0.2-0.1-0.3-0.1c-0.1,0-0.2,0.1-0.3,0.1l-2.5,2.4c-0.1,0.1-0.2,0.3-0.3,0.3
			c-0.1,0-0.2-0.1-0.3-0.1l-1.9-2c0-0.1-0.2-0.1-0.3-0.1c-0.1,0-0.2,0.1-0.3,0.1l-2.2,2c-0.1,0-0.1,0.1-0.2,0.1
			c-0.1,0-0.2-0.1-0.2-0.1l-0.4-0.4c0,0,0-0.1,0-0.2c0-0.1,0-0.2,0.1-0.3l2.3-2.1c0.1-0.1,0.2-0.1,0.2-0.2c0-0.1,0.1-0.2,0.1-0.3V10
			c0-0.4-0.1-0.7-0.3-1c-0.5-0.7-1.5-1.1-1.5-2.1c0-0.8,0.3-1.3,0.8-1.9c0.3-0.4,0.4-0.6,0.4-0.8c0.1-0.3,0.1-0.8,0.2-0.8
			c0.1,0,0.4,0.3,0.4,0.6c0.1,0.2,0.2,1.5,0.2,1.8c0.1,0.3,0.2,1.1,1.5,2c0.9,0.6,2.3,0.7,2.3,1.9v12.9c0,0.1,0.1,0.3,0.2,0.3
			c0.1,0.1,0.2,0.2,0.3,0.2l1.1-0.9c0.1,0,0.2-0.1,0.2-0.2c0-0.1,0.1-0.2,0.1-0.3v-7.7c0-0.1,0-0.1,0-0.2c0-0.1,0-0.2-0.1-0.2
			l-0.8-0.8c0-0.1-0.1-0.1-0.1-0.1c0,0-0.1,0-0.1,0l-0.1,0.1c0,0-0.1,0.1-0.1,0.1c0,0-0.1,0-0.1,0l-0.3-0.4c-0.1,0-0.1-0.1-0.1-0.1
			c0-0.1,0.1-0.1,0.1-0.1l2.4-2.4c0-0.1,0.1-0.1,0.3-0.1c0.1,0,0.2,0.1,0.2,0.1l2.7,2.6c0,0,0.1,0.1,0.1,0.1c0,0.1,0.1,0.1,0.1,0.2
			V22c0,0.1,0,0.1,0.1,0.1c0,0.1,0.1,0.1,0.1,0.2l1.6,1.3c0.1,0,0.1,0,0.2,0c0.1,0,0.1-0.2,0.1-0.3l0-9.5c0-0.1,0-0.1,0-0.2
			c0-0.1-0.1-0.2-0.1-0.2l-0.8-0.8c0-0.1-0.1-0.1-0.1-0.1c0,0-0.1,0-0.1,0l-0.1,0.1l-0.1,0.1c-0.1,0-0.1,0-0.1,0l-0.4-0.4
			c0,0,0-0.1,0-0.1c0-0.1,0.1-0.1,0.1-0.1l2.3-2.4c0-0.1,0.2-0.1,0.3-0.1c0.1,0,0.2,0.1,0.3,0.2l2.3,2.2c0.1,0.1,0.1,0.1,0.3,0.1
			c0.1,0,0.2,0,0.3-0.1l2.2-2.3c0,0,0.1-0.1,0.2-0.1c0.1,0,0.2,0.1,0.2,0.1l0.4,0.4c0.1,0,0.1,0.1,0.1,0.2
			C277.5,10.3,277.5,10.4,277.4,10.4z"/>
		<path d="M284,13.2l-2.3,3.1l-0.9,0.1c-0.1,0-0.2-0.1-0.3-0.2c-0.1-0.1-0.1-0.2-0.1-0.2v-3.4c0.4,0.3,0.9,0.6,1.6,0.8
			C282.8,13.4,283.3,13.4,284,13.2z M287.6,7.6c-0.1-0.2-0.4-1.2-1.1-1.5c-0.1,0-1.1-0.3-1.4,0c-0.2,0.3,0,0.4,0.3,0.6
			c0.7,0.6,1.4,1.1,1.3,2.1c0,0.9-0.4,1.6-1.2,1.8c-1,0.3-1.6-0.5-2-0.8l-0.2-0.2c-0.1-0.1-0.1-0.1-0.2-0.1c-0.1,0-0.2,0.1-0.3,0.1
			l-6,3.2c-0.1,0.1-0.1,0.1-0.2,0.2c0,0.1,0,0.2,0,0.3v4.2c0,0.1,0.1,0.3,0.1,0.3c0,0,0.1,0.1,0.2,0.1h3.5l-3.7,5.3
			c-0.8,0.6-1.6,2.2-1.6,3.2c-0.1,1.2,0,2.2,0.9,2.9c0.6,0.4,1.8,0.4,1.8,0c0-0.3-0.3-0.3-0.5-0.4c-0.7-0.7-1.3-1.3-1.3-2.3
			c0-1.6,1.7-2.5,3.3-2.6c1.6-0.1,2.9,1.1,3.6,1.9c0.1,0.1,0.1,0.4,0.3,0.4c0.1,0,0.2-0.1,0.3-0.2l3.2-3.1c0.1-0.1,0.1-0.2,0.1-0.3
			c0.1-0.1,0.1-0.2,0.1-0.4v-5.7c0-0.1-0.1-0.3-0.1-0.3c-0.1-0.1-0.2-0.1-0.3-0.1H283l3.8-5.2C287.8,10.2,287.7,7.9,287.6,7.6z
			 M282.8,22.3c0,0.1,0,0.2-0.1,0.2c-0.1,0-0.1-0.1-0.2-0.1c-0.6-0.3-0.9-0.4-1.6-0.4c-0.8-0.1-1.4,0.1-2.2,0.4l2.9-4.3h1.2V22.3z"
			/>
	</g>
</g>
<g id="Layer_1">
</g>
</svg>
