<?xml version="1.0" encoding="utf-8"?>
<!-- Generator: Adobe Illustrator 18.0.0, SVG Export Plug-In . SVG Version: 6.00 Build 0)  -->
<!DOCTYPE svg PUBLIC "-//W3C//DTD SVG 1.1//EN" "http://www.w3.org/Graphics/SVG/1.1/DTD/svg11.dtd">
<svg version="1.1" xmlns="http://www.w3.org/2000/svg" xmlns:xlink="http://www.w3.org/1999/xlink" x="0px" y="0px"
	 viewBox="0 0 300 42.3" style="enable-background:new 0 0 300 42.3;" xml:space="preserve">
<style type="text/css">
	.st0{fill-rule:evenodd;clip-rule:evenodd;}
	.st1{fill-rule:evenodd;clip-rule:evenodd;fill:#C038F9;}
	.st2{fill:none;}
	.st3{fill-rule:evenodd;clip-rule:evenodd;fill:#231F20;}
</style>
<g id="Layer_2">
	<g>
		<path d="M259,30c-1.2,0.9-3.2,2.7-4.3,3.8l-4-3.6V30c0.5-0.1,0.6-0.6,0.6-1.2V19c-0.9-0.7-2.8-2.3-3.9-3.3l-1.3,1.2v11.9l1,0.9
			c0.2,0.2,0.4,0.4,0.8,0.4c0.4,0,0.7-0.2,1.2-0.5l0.4,0.4c-1.1,0.8-3.1,2.5-4.4,3.8l-4-3.6V30c0.4-0.1,0.6-0.4,0.6-1V19
			c-1-0.7-3-2.5-3.9-3.3l-1.3,1.1v11.9l0.9,0.8c0.3,0.3,0.6,0.5,0.9,0.5c0.4,0,0.7-0.1,1.1-0.5l0.4,0.4c-1.3,1-3.1,2.6-4.4,3.8
			l-4-3.6V30c0.4-0.1,0.6-0.5,0.6-1.2V17.1l-1-0.8c-0.3-0.2-0.5-0.3-0.7-0.3c-0.3,0-0.7,0.2-1.1,0.6l-0.4-0.5
			c1.2-0.8,3.1-2.5,4.4-3.8l3.5,3.3l3.8-3.3c1.8,1.5,3.9,3.2,5.1,3.9l4.5-3.9c1.7,1.4,4.8,3.8,6.3,4.8v0.2c-0.4,0.1-0.7,0.5-0.7,1.2
			v10.5l0.8,0.8c0.3,0.3,0.6,0.6,1,0.6c0.4,0,0.8-0.2,1.2-0.6L259,30z"/>
		<path d="M229.3,7.1l-1.5,1.3c-1.2,1.1-2.2,1.6-3.1,1.6c-0.7,0-1.4-0.3-2.1-1c-0.3-0.2-0.5-0.4-0.9-0.4c-0.4,0-0.7,0.2-1.1,0.5
			l-0.4-0.4l4.4-3.8l2.2,2c0.3,0.2,0.6,0.4,0.9,0.4c0.4,0,0.8-0.2,1-0.5L229.3,7.1z"/>
		<path d="M230.2,30c-1.1,0.9-3.3,2.8-4.4,3.9l-4-3.6V30c0.4-0.1,0.6-0.5,0.6-1V17l-0.9-0.7c-0.3-0.2-0.4-0.4-0.8-0.4
			c-0.4,0-0.8,0.2-1.2,0.5l-0.4-0.5c1.1-0.8,3.1-2.5,4.4-3.8l4,3.5v0.2c-0.3,0.1-0.7,0.4-0.7,1.1v11.9l1,0.9
			c0.3,0.2,0.6,0.4,0.9,0.4c0.4,0,0.7-0.2,1-0.5L230.2,30z"/>
		<path d="M152.5,30c-1.1,0.8-3,2.5-4.4,3.9l-4-3.6V30c0.4-0.1,0.6-0.5,0.6-1.2v-19L143.6,9c-0.2-0.2-0.5-0.3-0.7-0.3
			c-0.5,0-0.8,0.3-1.1,0.6l-0.4-0.5c1.3-1,3.3-2.7,4.5-3.9l4,3.5v0.1c-0.4,0.1-0.7,0.7-0.7,1.3v18.9l1.1,1c0.3,0.2,0.6,0.3,0.9,0.3
			c0.3,0,0.7-0.2,1-0.5L152.5,30z"/>
		<path d="M109,30c-1.2,0.9-3.4,2.7-4.4,3.8l-4-3.6V30c0.4-0.1,0.6-0.5,0.6-1.3V19c-1-0.8-2.9-2.4-3.9-3.3L96,16.9v11.9l1.2,1
			c0.5,0.4,1.2,0.3,1.8-0.2l0.4,0.4c-1.2,0.9-3.2,2.7-4.4,3.8l-4-3.6V30c0.4-0.2,0.6-0.5,0.6-1.1V17l-1.1-0.8
			c-0.2-0.2-0.4-0.3-0.6-0.3c-0.5,0-0.8,0.3-1.2,0.5L88.3,16c1.1-0.8,2.8-2.3,4.4-3.8l3.5,3.3l3.8-3.3c1.3,1.1,4.7,3.7,6.3,4.8v0.2
			c-0.6,0.2-0.7,0.6-0.7,0.9v10.8l1.3,1.2c0.2,0.2,0.9,0.3,1.7-0.4L109,30z"/>
		<path d="M288.9,28.5c-2.7,1.3-6.2,3.6-8.2,5.4c-1.2-0.9-2.7-1.9-4.5-1.9c-1.7,0-2.2,0.6-2.2,1.2c0,0.4,0.5,0.3,0.5,0.8
			c0,0.2-0.2,0.5-0.6,0.5c-0.4,0-0.8-0.4-0.8-1.1c0-1.1,0.7-2.6,2.7-4.8l3.5-3.8l-4.4-2.3v-0.2c0.4-0.1,0.5-0.4,0.5-0.8v-3.3
			c0-0.3-0.2-0.7-0.5-0.9V17c2.9-1.4,6.1-3.2,8-4.8c0.5,0.6,1.9,1.3,3.3,1.3c1.2,0,1.3-0.4,1.3-0.8c0-0.2-0.2-0.3-0.2-0.5
			c0-0.3,0.2-0.4,0.4-0.4c0.4,0,0.6,0.3,0.6,0.9c0,1.8-1.7,3.9-4.4,3.9c-2,0-3.2-0.6-4-1.6l-0.2,0.1V20l2.7,1.3l1.2-1.2l5.2,2.6V23
			c-0.3,0.1-0.4,0.4-0.4,0.7v3.8c0,0.5,0.2,0.7,0.4,0.8V28.5z M284,30.4v-5.5l-2.6-1.2l-5.4,5.7l0.1,0c0.9-0.5,2.1-0.7,3.9-0.7
			C281.4,28.7,283,29.5,284,30.4L284,30.4z"/>
		<path d="M273.6,19.2l-8.7,5.5v3.4c1.1,0.4,3.4,1.6,4.5,2.2l2.2-2.1c0.1-0.6,0.3-1.3,1-1.3c0.3,0,0.5,0.3,0.5,0.5
			c0,0.3-0.2,0.6-0.3,0.7l-5.6,5.6c-1.6-1-5.3-3-7.2-3.8v-0.2c0.4-0.1,0.6-0.5,0.6-1V18.1c0-0.5-0.2-0.9-0.6-1v-0.2
			c2.5-1.2,5.9-3.1,8.5-4.8C270,14.4,272.2,17.5,273.6,19.2z M269.4,20.9c-1.2-1.5-3.2-4.2-4.4-5.9l-0.1,0v8.8L269.4,20.9z"/>
		<path d="M219.8,5.8c0,2.9-2,4.3-4.4,4.7v18.6c1.4-1,2.4-2.3,3-3.7c0.1-0.1,0.1-0.2,0.1-0.3c0-0.2-0.2-0.3-0.2-0.6
			c0-0.3,0.1-0.6,0.4-0.6c0.3,0,0.5,0.2,0.5,0.6c0,4.5-3.2,10.1-12.3,10.1c-6.5,0-11.9-4.9-11.9-11.7c0-9.1,7.6-12.3,12.7-13.5
			c-1.7-0.3-4.1-0.7-6.4-0.7c-4.3,0-5.6,2-6,3.5L195,12c0.1-2.1,1.9-7.7,7.5-7.7c5.5,0,8.9,2.3,13.2,2.3c2.8,0,3.3-1.3,3.6-2.6
			l0.5,0.2C219.7,4.4,219.8,5.4,219.8,5.8z M214.7,29.6v-19c-0.2,0-0.4,0-0.7,0c-0.9,0-1.7-0.2-2.8-0.4c-1.3,0.6-2.6,2.1-2.6,4.2
			c0,4.1,2.3,5.1,2.3,9.2c0,3.3-2.7,5.7-5,6.8c1.2,0.5,2.6,0.6,3.9,0.6C211.5,31.1,213.7,30.3,214.7,29.6z M210.2,10l-0.7-0.1
			c-4.5,0.8-9.7,4.8-9.7,11.4c0,4.3,2.3,7.3,5.6,8.8c1-0.7,2-1.9,2-4.1c0-3.9-2.5-6-2.5-9.5C204.9,14,206.6,11.6,210.2,10z"/>
		<path d="M181.7,28.5c-2.7,1.3-6.2,3.6-8.2,5.4c-1.2-0.9-2.7-1.9-4.5-1.9c-1.7,0-2.2,0.6-2.2,1.2c0,0.4,0.5,0.3,0.5,0.8
			c0,0.2-0.2,0.5-0.6,0.5c-0.4,0-0.8-0.4-0.8-1.1c0-1.1,0.7-2.6,2.7-4.8l3.5-3.8l-4.4-2.3v-0.3c0.4-0.1,0.5-0.4,0.5-0.8v-3.3
			c0-0.4-0.1-0.7-0.5-0.9V17c2.9-1.4,6.1-3.2,8-4.8c0.5,0.6,1.9,1.3,3.3,1.3c1.2,0,1.3-0.4,1.3-0.8c0-0.2-0.2-0.3-0.2-0.5
			c0-0.3,0.2-0.4,0.4-0.4c0.4,0,0.6,0.3,0.6,0.9c0,1.8-1.7,3.9-4.4,3.9c-2,0-3.2-0.6-4-1.6l-0.2,0.1V20l2.7,1.3l1.2-1.2l5.2,2.6v0.3
			c-0.3,0.1-0.4,0.4-0.4,0.7v3.7c0,0.5,0.2,0.7,0.4,0.8V28.5z M176.8,30.4v-5.5l-2.6-1.2l-5.4,5.7l0.1,0c0.9-0.5,2.1-0.7,3.9-0.7
			C174.2,28.7,175.8,29.5,176.8,30.4L176.8,30.4z"/>
		<path d="M166.7,19.2l-8.7,5.5v3.4c1.1,0.4,3.4,1.6,4.5,2.2l2.2-2.1c0.1-0.6,0.3-1.3,1-1.3c0.3,0,0.5,0.3,0.5,0.5
			c0,0.3-0.1,0.6-0.3,0.7l-5.7,5.6c-1.6-1-5.3-3-7.2-3.8v-0.2c0.3-0.1,0.6-0.5,0.6-1V18.1c0-0.5-0.2-0.9-0.6-1v-0.2
			c2.5-1.2,5.9-3.1,8.5-4.8C163,14.4,165.3,17.5,166.7,19.2z M162.5,20.9c-1.2-1.5-3.2-4.2-4.4-5.9l-0.1,0v8.8L162.5,20.9z"/>
		<path d="M142.2,19.2l-8.7,5.5v3.4c1.1,0.4,3.4,1.6,4.5,2.2l2.2-2.1c0.1-0.7,0.3-1.3,1-1.3c0.3,0,0.4,0.3,0.4,0.5
			c0,0.3-0.1,0.6-0.3,0.7l-5.7,5.6c-1.6-1-5.3-3-7.2-3.8v-0.2c0.3-0.1,0.6-0.5,0.6-1V18.1c0-0.5-0.2-0.9-0.6-1v-0.2
			c2.5-1.2,5.9-3.1,8.5-4.8C138.5,14.4,140.7,17.5,142.2,19.2z M137.9,20.9c-1.2-1.5-3.2-4.2-4.4-5.9l-0.1,0v8.8L137.9,20.9z"/>
		<path d="M126.8,32.3c-0.1,4.7-2.3,8.1-6.6,8.1c-3.4,0-5.5-1.8-8.6-1.8c-1.8,0-2.8,0.6-3.3,1.2l-0.5-0.4c0.7-3.2,2.8-5.2,5.9-5.2
			c3.4,0,5.5,2.2,9,2.2c1.6,0,2.6-0.8,3.1-2l0-0.1c-0.5,0.2-1.1,0.3-1.6,0.3c-1.8,0-3.5-1.2-3.8-3.3c-0.9,0.6-2.6,2-3.5,2.7
			c-2.1-1.4-5.4-3.2-7.1-3.9v-0.2c0.4-0.1,0.6-0.5,0.6-0.9V18.2c0-0.6-0.2-1-0.7-1V17c3-1.2,6.3-3.2,8.5-4.8c1.9,1.5,5,3.6,7,4.8
			v0.2c-0.3,0.1-0.5,0.4-0.5,1v11.7c0,1.5,0.4,2.2,1.4,2.2c0.2,0,0.4,0,0.6,0L126.8,32.3z M120.2,30.4V19c-1.2-0.8-3.9-2.7-5.3-3.8
			l-0.2,0.1v12.6c1.5,0.7,4.1,2.3,4.9,2.9L120.2,30.4z"/>
		<path d="M90,30.3c-1.3,2.1-2.5,3.8-4.4,3.8c-1.5,0-2.5-0.8-3.1-2.5l-2.5-7.1h-9.5l-1.4,4c1.5,0.1,2.9,1,3.3,1
			c0.4,0,0.8-0.3,1.3-1.1l0.6,0.4l-3.2,5.1c-0.9-0.7-2.2-1.5-4-1.5c-2.5,0-4,0.7-5.1,1.5l-0.4-0.1c0.5-2.7,2.7-5,6.6-5.2l6.6-19.4
			l-0.2-0.7c-0.5-1.4-1.4-2.1-2.3-2.1c-1,0-1.5,0.5-1.9,0.8l-0.3-0.3c0.3-1.5,1.7-3.2,3.8-3.2c1.8,0,3,0.9,3.7,1.9h0.1
			C78,4.7,78.6,4.1,79.2,4l0.1,0.2c-0.2,0.2-0.5,0.9-0.5,1.7c0,0.4,0.1,0.8,0.2,1.2l7.8,23.1c0.2,0.5,0.6,0.8,1,0.8
			c0.6,0,1-0.4,1.5-1.1L90,30.3z M79.1,21.7l-3.8-11.1h-0.1l-3.8,11.1H79.1z"/>
		<path d="M53.1,28.5c-2.7,1.3-6.2,3.6-8.2,5.4c-1.2-0.9-2.7-1.9-4.5-1.9c-1.7,0-2.2,0.6-2.2,1.2c0,0.4,0.5,0.3,0.5,0.8
			c0,0.2-0.2,0.5-0.6,0.5c-0.4,0-0.8-0.4-0.8-1.1c0-1.1,0.7-2.6,2.7-4.8l3.5-3.8l-4.4-2.3v-0.3c0.4-0.1,0.5-0.4,0.5-0.8v-3.3
			c0-0.3-0.2-0.7-0.5-0.9V17c2.9-1.4,6.1-3.2,8-4.8c0.5,0.6,1.9,1.3,3.3,1.3c1.2,0,1.3-0.4,1.3-0.8c0-0.2-0.2-0.3-0.2-0.5
			c0-0.3,0.2-0.4,0.4-0.4c0.4,0,0.6,0.3,0.6,0.9c0,1.8-1.4,3.9-4.4,3.9c-2,0-3.2-0.6-4-1.6L44,15.1V20l2.7,1.3l1.2-1.2l5.2,2.6v0.3
			c-0.3,0.1-0.4,0.4-0.4,0.7v3.6c0,0.5,0.2,0.7,0.4,0.8V28.5z M48.2,30.4v-5.5l-2.6-1.2l-5.4,5.7l0.1,0c0.9-0.5,2.1-0.7,3.9-0.7
			C45.6,28.7,47.3,29.5,48.2,30.4L48.2,30.4z"/>
		<path d="M36.7,29c-2.5,1-6.5,3.3-8.4,4.8c-2.2-1.4-5.1-3.6-7.1-4.8v-0.3c0.4-0.1,0.6-0.6,0.6-1.1v-9.2c0-0.9-0.2-1.2-0.6-1.3V17
			c2.9-1.2,5.8-2.8,8.4-4.8c1.8,1.4,5.1,3.6,7,4.8v0.2c-0.4,0.2-0.5,0.5-0.5,1v9.7c0,0.5,0.3,0.8,0.6,1V29z M31.6,30.7v-12
			c-1.6-0.9-3.9-2.6-5.2-3.6l-0.2,0.1v11.9c1.7,0.9,3.9,2.5,5.3,3.6L31.6,30.7z"/>
		<path d="M20.5,27l-3.6,6.8c-1.4-1.2-3.4-2-6.1-2c-4,0-9,1-10.4,1.9L0,33.2c1.6-1.4,3.2-4.9,3.2-9.1c0-4.5-2.6-6.6-2.6-11.1
			c0-4.6,2-7.1,5.8-9l0.4,0.4C5.6,5.5,4.9,6.9,4.7,8.6l6.5-5.4c1.2,1.2,3.1,2.5,4.9,2.5c1.3,0,2-0.3,2-0.9c0-0.3-0.3-0.4-0.3-0.6
			c0-0.3,0.2-0.4,0.5-0.4c0.4,0,0.6,0.4,0.6,0.9c0,2.5-2.5,4.5-5.1,4.5c-0.9,0-1.6-0.1-2.2-0.3v18.6c0.4,0,0.7-0.1,1-0.1
			c2.5,0,4.7,1,5.2,1c0.9,0,1.2-0.6,1.9-1.9L20.5,27z M10.9,27.7v-19c-1-0.4-1.8-1.1-2.6-2L4.7,9.5c0,5.5,2.9,8,2.9,12.4
			c0,3.1-2.2,6.3-3.9,8l0.1,0C6.1,28.6,8.9,27.9,10.9,27.7z"/>
		<path d="M292.4,32.9"/>
	</g>
</g>
<g id="Layer_1">
</g>
</svg>
