<?xml version="1.0" encoding="utf-8"?>
<!-- Generator: Adobe Illustrator 18.0.0, SVG Export Plug-In . SVG Version: 6.00 Build 0)  -->
<!DOCTYPE svg PUBLIC "-//W3C//DTD SVG 1.1//EN" "http://www.w3.org/Graphics/SVG/1.1/DTD/svg11.dtd">
<svg version="1.1" xmlns="http://www.w3.org/2000/svg" xmlns:xlink="http://www.w3.org/1999/xlink" x="0px" y="0px"
	 viewBox="0 0 300 93.3" style="enable-background:new 0 0 300 93.3;" xml:space="preserve">
<style type="text/css">
	.st0{fill-rule:evenodd;clip-rule:evenodd;}
	.st1{fill-rule:evenodd;clip-rule:evenodd;fill:#C038F9;}
	.st2{fill:none;}
	.st3{fill-rule:evenodd;clip-rule:evenodd;fill:#231F20;}
</style>
<g id="Layer_2">
</g>
<g id="Layer_1">
	<g id="IEIqsH_1_">
		<g>
			<path d="M204,86.5c-0.4-2.7-0.2-5.5,0.5-8.3c2.7-11.5,5.1-23.1,7.7-34.7c0-0.1-0.1-0.2-0.2-0.5c-2.4-0.7-5,0.4-7.4-0.7
				c-0.2-0.1-0.3-0.4-0.5-0.8c2.8-0.7,5.7,0,8.7-0.4c1.2-5.2,2.4-10.5,3.6-16c2.6,0.2,5-0.5,7.4,0.7c-1.2,5.1-2.3,10.1-3.6,15.5
				c7.1,0,13.9,0,21.1,0c-1.5,7.7-3.3,15-4.8,22.3c-1.5,7.2-4,14.2-4.1,21.2c0,1.5,2.3,1.6,3.4,1.4c3.2-1.7,3.6-5.5,6.7-8.2
				c-0.9,4.2-3.2,6.8-5.2,9.4c-1.1,1.3-6.8,5.2-11.2,0.5c-1.7-2.3-1.5-4.9-1-7.4c2.6-11.7,5.4-23.3,8-35c0.2-0.8,0.6-1.8-0.3-2.5
				c-3.6-0.5-7.2,0.3-10.8-0.4c-0.6-0.1-1.8,0.3-2.3,1.3c-3,13.3-5.9,26.7-8.9,39.8c0.1,1.8,0.7,2,1.4,2.5c1.8,0.4,3-0.2,4.1-1.5
				c1.1-1.4,2.3-2.7,3-4.4c0.3-0.6,0.3-1.5,1.4-1.4c-0.5,3.8-3.4,7.8-7,9.9C213,89.3,207.1,93,204,86.5z"/>
			<path d="M129.3,89.9c-6.8-0.8-9.2-7.7-8.3-14.7c0.9-6.8,2.2-13.6,4.6-20.1c1.6-4.3,3.3-8.6,7-11.8c3.5-3,7.7-3.2,12-2.5
				c1.4,0.3,2.6,1.2,3.3,2.5c0.4,0.6,0.6,1.4,1.4,1.7c0.4-1.2,0.9-2.4,1.3-3.6c2.4,0,4.7,0,7.2,0c-1.7,7.4-3.5,14.6-4.9,21.9
				c-1.4,7.2-3.8,14.3-4.2,21.2c0.9,1.8,2.1,1.8,3.4,1.6c1.4-0.9,2.6-2.2,3.6-3.7c0.9-1.2,0.8-3.2,3.1-4.1
				c-1.4,4.7-3.4,8.1-7.2,10.4c-0.7,0.4-10.6,4.6-10.6-6c-2,3.5-4.4,5.3-7.4,6.6C133.3,89.6,132.3,90.3,129.3,89.9z M146,43.7
				c-2.5-2.1-4.7-1.6-6.9-0.1c-1.7,1.1-2.5,2.8-3.4,4.5c-1.9,3.8-2.8,7.9-3.8,12c-1.5,5.7-2.5,11.4-3.4,17.2c-0.5,3.2-0.5,6,1.3,8.8
				c3.6,1.6,5.4,1.4,7.9-1.3c1.9-2.1,3.3-4.6,4.2-7.3c1.8-5.2,2.8-10.5,4-15.9c1-4.4,1.6-8.8,1.6-13.3
				C147.4,46.7,147.2,45.1,146,43.7z"/>
			<path d="M186.5,89.6c-4-1.4-4.2-5-3.5-8.5c1.5-7.2,3.2-14.4,4.8-21.6c0.7-3.1,1.5-6.2,2-9.3c0.3-1.6,0.3-3.3-0.1-5
				c-3.1-2.7-4.7-2.7-7.7-0.2c-2.7,2.3-4.3,5.4-5.4,8.7c-1.8,5.1-2.6,10.4-3.8,15.6c-1.4,6.1-2.7,12.2-4.1,18.3
				c-0.1,0.3-0.4,0.6-0.7,1.1c-2.1,0-4.3,0-6.8,0c0.3-3.9,1.7-7.4,2.2-11.1c0.6-3.9,2-7.6,2.5-11.6c0.5-3.8,1.7-7.4,2.6-11.2
				c0.9-3.7,1.7-7.5,2.5-11.3c-1.8-1.5-4.8,0.8-6.8-1.8c5,0,9.7,0,14.5,0c0.7,1.8-1.3,3.2-0.3,5.1c1.3-1.7,2.8-3.1,4.5-4.3
				c2.8-2,5.8-2,8.8-1.4c3.9,0.9,6.4,5.1,5.6,9.2c-1.2,5.7-2.5,11.5-3.7,17.2c-1.2,5.2-2.4,10.4-3.6,16c0.1,0.8,0.4,1.9,1.2,2.7
				c0.9,0.6,1.8,0.3,2.6,0.3c2.6-2,3.7-4.9,5.2-7.6c1.3,0.6,0.8,1.4,0.5,2c-1.7,3.5-3.7,6.8-7.4,8.5
				C191.9,89.3,189.4,90.6,186.5,89.6z"/>
			<path d="M100.8,88.3c-1.9-2.1-1.8-4.5-1.3-6.7c2.4-10.9,5-21.9,7.4-32.8c2.4-10.9,4.8-21.9,7.1-32.9c0.6-2.6,1.7-5.1,1.6-7.9
				c-1.9-1-4.1,0.1-6.4-0.9c2.6-0.9,4.9-0.4,7.1-0.5c2.3-0.1,4.6,0,6.8,0c0.9,2.1-0.1,3.8-0.5,5.5c-2,9.1-4.1,18.1-6.1,27.2
				c-2.1,9.3-4.1,18.7-6.2,28c-1,4.3-2.1,8.7-3,13c-0.3,1.6-0.4,3.3-0.1,4.9c0.4,0.8,1,1.3,1.9,1.2c1.2-0.1,2.3-0.7,3-1.6
				c0.9-1.1,1.5-2.4,2.3-3.5c0.6-0.8,0.6-2,1.7-2.5c0.6,0.5,0.5,1.1,0.2,1.7c-1.7,3.8-3.9,7.2-8.1,8.9
				C107.7,89.6,103.4,90.9,100.8,88.3z"/>
			<path d="M78.3,88.2c-2-2.2-1.8-5-1.2-7.6c2.7-12.2,5.5-24.4,8.2-36.5c0-0.2-0.1-0.5-0.3-1c-2.4-0.1-4.8-0.2-7.2-0.3
				c-0.2-1.4,0.5-1.4,1.2-1.4c2.2,0,4.4,0,6.8,0c1.2-5.3,2.5-10.6,3.7-16c2.5,0,4.8,0,7.4,0c-1.1,5.3-2.2,10.4-3.3,15.6
				c2.7,0.9,5.3-0.1,8.1,0.8c-2.6,2.2-5.4,0.5-8.1,1.4c-0.6,0.5-0.9,1.5-1.1,2.5c-1.7,7.6-3.3,15.2-5,22.8c-0.9,4-1.9,7.9-2.7,11.9
				c-0.3,1.6-0.5,3.3,0,4.8c0.8,1.4,1.9,1.3,3.2,1.1c2.8-1.8,4-4.8,5.6-8.1c0.3,0.9,0.6,1.4,0.5,1.6c-1.5,3.8-3.3,7.5-7.5,9.2
				C85.8,89.3,81.3,91.1,78.3,88.2z"/>
			<path d="M276.9,53.4c-1.7,0.8-3.1,1.3-4.2,0.5c-3.1-3.1-0.4-6,0.1-9.2c0.1-0.8-0.1-1.3-1.1-2.1c-1.8-1-3.5-1.2-5.1-0.2
				c-3.6,2.4-5.7,5.7-7.2,9.8c-2.5,6.9-4.3,13.9-5.6,21c-0.6,3.3-0.8,6.9,0.4,10.3c1.2,3.1,4,4.5,7.1,3.4c3.7-1.3,5.7-4.2,7.6-7.3
				c0.6-1,1.1-2,1.6-3.1c0.2-0.6,0.6-0.8,1.2-0.8c0.5,0.4,0.5,0.8,0.2,1.3c-1.5,2.7-2.5,5.6-4.7,7.9c-2.1,2.2-4.4,3.9-7.4,4.7
				c-0.4,0.1-3.1,0.3-6.5-0.5c-5.5-1.3-7-5.7-7.3-10.4c-0.4-5.8,1-11.4,2.6-16.9c1.4-4.6,2.7-9.3,5.3-13.5c3.8-6.1,11-9.1,17.9-7.4
				c3.1,0.8,4.4,1.8,6.5,5.3C279,47.5,277.8,52.9,276.9,53.4z"/>
			<path d="M49.6,87.7c2.6-0.4,5,0.3,7.4-0.3c0.7-2.6,0.9-30.7,0.2-36.1c-6.6,0-13.3,0-20.4,0C28.6,63,20.3,75.1,11.7,87.5
				c3.2,0.5,6.3-0.6,9.2,0.6C18.6,89,5.5,89.1,0,88.4c3-1,5.6-0.2,8.5-0.7C27.8,59.5,47.2,31.1,66.6,2.8C67,3,67.1,3,67.2,3.1
				c0.1,0.1,0.2,0.2,0.2,0.3c0,0.1,0,0.3,0,0.4c0,27.6,0.1,55.2,0.1,82.8c0,0.1,0.1,0.2,0.2,0.3c1.8,1.2,4.4-0.8,6.2,1.7
				c-8.1,0-15.9,0-23.8,0C50,88.6,49.9,88.3,49.6,87.7z M57.5,49.9c0-9.7,0-19,0-29.2C50.7,30.8,44.4,40,38.1,49.3
				c0.4,0.3,0.6,0.6,0.8,0.6C44.9,49.9,51,49.9,57.5,49.9z"/>
			<path d="M16,49c0.7,1.2,1.3,0.2,1.9,0.6c-0.3,1.6-1.7,1.3-2.5,1.8c-0.8-0.3-1.4-0.9-1.7-1.6c0.2-4,2-7.8,2-11.9
				c-2.5-0.2-3.1,0.2-3.8,2.2c-0.6,1.9-1.3,3.9-1.5,5.9c-0.2,1.5-0.8,2.9-1.1,4.4c-0.5,0.5-1.1,0.5-1.9,0c0.6-8.4,4.6-16.4,4.4-25.2
				c0.7-0.1,1.8-0.3,3.2,0.3c-0.8,3.5-1.6,7.1-2.3,10.5c1.2,1.4,1.9-0.8,2.6-0.2c1.2,0.2,2,0.7,2.8,1.3C18.7,41.4,16.4,45.1,16,49z"
				/>
			<path d="M244.1,25.7c0.2,4.9-0.2,5.5-4.2,7.2c-1.2-0.3-2.4-0.6-3.3-2c-0.4-1.3-0.3-2.8-0.1-4.4C239.6,23,241,22.9,244.1,25.7z"/>
			<path d="M25.7,36.9c1.2-1.3,2.4-1,3.5,0c0.8,1.2,0.4,2.3,0.4,2.8c-1.5,4-5.7,4.1-7.5,6.6c-0.3,1.6,0.3,2.6,0.9,3.4
				c0.6,0.3,1.1,0.4,1.6,0.1c0.9-0.6,1.6-1.3,2.8-2.3c-1.3,2.7-1.3,2.7-4.2,3.9c-1,0.1-1.7-0.6-2.6-1c-0.2-1.2-1.1-2.2-0.9-3.6
				c0.5-3.6,1.4-7,4.4-9.5c0.5-0.4,1.1-0.6,1.8-0.6c-1.3,2.1-2.4,4.3-3.2,6.9c2.1,0.1,2.7-1.7,4-2c0.8-1.6,2-2.9,0.9-4.8
				C26.9,36.9,26.3,36.9,25.7,36.9z"/>
			<path d="M2.4,51.5c-0.9-0.5-1.5-0.9-1.9-1.8c0.9-3.8,1.7-7.8,2.6-11.7c-0.4-0.5-0.8-1-1.1-1.5c0.5-0.4,1.3-0.3,1.6-1
				c1-1.2-0.2-3.8,2.7-4c0.4,1.6,0.2,2.9-0.4,4.2c0.3,0.7,1.2,0.3,1.7,0.7c-0.2,0.8-1,0.3-1.7,0.8C4.6,41,3.7,45.2,3.2,49.4
				c1.3,0.6,1.3-0.7,2.1-0.6C5,50.3,5,50.4,2.4,51.5z"/>
		</g>
	</g>
</g>
</svg>
