<?xml version="1.0" encoding="utf-8"?>
<!-- Generator: Adobe Illustrator 18.0.0, SVG Export Plug-In . SVG Version: 6.00 Build 0)  -->
<!DOCTYPE svg PUBLIC "-//W3C//DTD SVG 1.1//EN" "http://www.w3.org/Graphics/SVG/1.1/DTD/svg11.dtd">
<svg version="1.1" xmlns="http://www.w3.org/2000/svg" xmlns:xlink="http://www.w3.org/1999/xlink" x="0px" y="0px"
	 viewBox="0 0 300 60.3" style="enable-background:new 0 0 300 60.3;" xml:space="preserve">
<style type="text/css">
	.st0{fill-rule:evenodd;clip-rule:evenodd;}
	.st1{fill-rule:evenodd;clip-rule:evenodd;fill:#C038F9;}
	.st2{fill:none;}
	.st3{fill-rule:evenodd;clip-rule:evenodd;fill:#231F20;}
</style>
<g id="Layer_2">
	<g>
		<g>
			<path d="M78.5,2.4h-20h-4.4H0v50.3c0,3,2.4,5.4,5.4,5.4H25h26.9h26.6c3,0,5.4-2.4,5.4-5.4v-8.8v-6.1v-30
				C84,4.8,81.5,2.4,78.5,2.4z M82.7,52.7c0,2.3-1.9,4.2-4.2,4.2H53.2H23.9H5.4c-2.3,0-4.2-1.9-4.2-4.2v-49h53.1h4.9h19.3
				c2.3,0,4.2,1.9,4.2,4.2v30.8v6.3V52.7z"/>
			<path d="M77.4,4.7H59.8l3.1,5.9l9.8-5.2l1.7,3.3l-10,5.2l11.4,21.7c1.2,2.3,3.1,4.2,6,3.2V9.3C81.9,6.8,79.9,4.7,77.4,4.7z"/>
			<path d="M65.9,41.4L54.3,19.4L49.4,22l-1.7-3.3c6.6-4.3,7.4-8.7,6.8-13.9H2.2v46.4c0,2.5,2,4.6,4.6,4.6H23
				c-0.5-0.7-0.9-1.4-1.3-2.2c-5.6-10.7-1.2-23.5,9.4-29.1c4.7-2.4,14.1-5,17.3,1.1c1.5,2.8,0.1,6.1-2.7,7.5c-3.9,2-5.6-0.3-7.9-3
				c-1.9-2.2-4.3-3.4-7.1-2C25,31.1,28,39.7,30.2,44c2.5,4.7,6.7,10.1,11.7,11.6h5.8c0.6-0.2,1.3-0.5,2-0.8
				c4.7-2.4,5.9-7.4,6.9-12.2l2.5,0.4c-0.5,4.7-2.1,9-4.9,12.6h23.2c2.5,0,4.6-2,4.6-4.6v-5.6c-0.3,0.2-0.6,0.4-0.9,0.5
				C73.5,50,68,45.4,65.9,41.4z M15.6,31.6c-1.3,0.9-2.2,0-2.9-1l-3.2-4.7l-1.1,0.7l-0.2-0.3c0.8-1.2,0.6-2.8,0-3.9L8.7,22l1.8,2.5
				l2-1.4l0.3,0.5l-2,1.4l3,4.4c0.5,0.7,1,1.7,1.9,1c0.6-0.4,0.7-1,0.8-1.6l0.4,0.1C16.8,29.9,16.5,31,15.6,31.6z M22.3,26.8
				L22,26.4c0.9-0.8,0.8-0.9-0.1-2.2L20,21.5c-0.7-1-1.5-1.7-2.4-1c-0.8,0.5-1.1,1.5-1.3,2.3l2.4,3.5c0.9,1.4,1,1.4,2.1,0.9l0.3,0.4
				l-3.2,2.2l-0.3-0.4c0.9-0.8,0.8-0.9-0.1-2.2l-4.6-6.6c-0.9-1.3-1-1.1-2.1-0.4l-0.3-0.4l1.9-2.6l3.5,5c0.2-1,0.9-2.3,1.8-2.9
				c1.5-1.1,2.6-0.2,3.6,1.3l1.8,2.6c0.9,1.4,1,1.4,2.1,0.9l0.3,0.4L22.3,26.8z M29,22.3c-2,1.4-4.6,0.8-6-1.2
				c-1.3-1.8-1.3-4.6,0.7-6c1.8-1.2,4.1-0.6,5.3,1.1l-4.9,3.4c1,1.4,2.9,3.2,4.7,2c1-0.7,1.4-1.8,1.5-3l0.4,0.1
				C30.7,20.1,30.2,21.5,29,22.3z"/>
			<path d="M24.1,15.6c-1.2,0.9-0.9,2.4-0.2,3.4l3.4-2.3C26.6,15.6,25.3,14.7,24.1,15.6z"/>
		</g>
		<g>
			<path d="M97,44.6c0,6.1,0,6.4,4.4,7v1.9H87v-1.9c4.4-0.5,4.4-0.9,4.4-7V30.8c-0.2-3.4-0.3-4.6-4.2-4.6v-1.5l9.9-3.8v6.4
				c2.5-3.3,6.4-5.9,10.7-5.9c3.7,0,6.4,2.6,7.7,5.9c3.1-3,6.4-5.9,11-5.9c2.8,0,5.4,1,6.9,3.5c1.4,2.4,1.4,6,1.4,8.9v10.9
				c0,6.1,0,6.4,4.3,7v1.9h-14.4v-1.9c4.4-0.5,4.4-0.9,4.4-7V33.1c0-3.5,0.1-8.4-4.7-8.4c-3.3,0-6.3,2.4-8.4,4.7v15.3
				c0,6.1,0,6.4,4.4,7v1.9h-14.4v-1.9c4.3-0.5,4.3-0.9,4.3-7V33.1c0-3.5-0.1-8.4-4.9-8.4c-3.3,0-6.3,2.4-8.2,4.7V44.6z"/>
			<path d="M155.8,44.6c0,6.1,0,6.4,4.4,7v1.9h-14.4v-1.9c4.4-0.5,4.4-1,4.4-7V30.8c-0.2-3.4-0.3-4.6-4.2-4.6v-1.5l9.9-3.8V44.6z
				 M152.1,14.2c-2.4,0-4.3-1.9-4.3-4.2c0-2.4,1.9-4.3,4.2-4.3c2.4,0,4.3,1.9,4.3,4.3C156.4,12.3,154.5,14.2,152.1,14.2z"/>
			<path d="M175.1,44.6c0,6.1,0,6.4,4.3,7v1.9h-14.2v-1.9c4.2-0.5,4.2-0.9,4.2-7V30.8c-0.2-3.4-0.3-4.6-4.2-4.6v-1.5l9.9-3.8v7.6
				c2.4-3,6.3-7.6,10.6-7.6c2.1,0,4,1.5,4,3.7c0,2-1.4,3.6-3.5,3.6c-2.3,0-3.1-1.7-5.2-1.7c-2.3,0-4.8,3-5.9,4.8V44.6z"/>
			<path d="M199.1,44.6c0,6.1,0,6.4,4.3,7v1.9h-14.2v-1.9c4.2-0.5,4.2-0.9,4.2-7V30.8c-0.2-3.4-0.3-4.6-4.2-4.6v-1.5l9.9-3.8v7.6
				c2.4-3,6.3-7.6,10.6-7.6c2.1,0,4,1.5,4,3.7c0,2-1.4,3.6-3.5,3.6c-2.3,0-3.1-1.7-5.2-1.7c-2.3,0-4.8,3-5.9,4.8V44.6z"/>
			<path d="M211.9,38.3c0-8.4,5.5-17,14.6-17c9,0,14.3,8.8,14.3,16.9c0,8.2-6.1,16-14.7,16C217.9,54.2,211.9,46.2,211.9,38.3z
				 M234.3,37c0-4.7-1.5-13.6-7.8-13.6c-6.5,0-8.1,8.5-8.1,13.5c0,4.6,1.5,15.2,7.7,15.2C232.8,52.1,234.3,41.9,234.3,37z"/>
			<path d="M252.8,44.6c0,6.1,0,6.4,4.3,7v1.9h-14.2v-1.9c4.2-0.5,4.2-0.9,4.2-7V30.8c-0.2-3.4-0.3-4.6-4.2-4.6v-1.5l9.9-3.8v7.6
				c2.4-3,6.3-7.6,10.6-7.6c2.1,0,4,1.5,4,3.7c0,2-1.4,3.6-3.5,3.6c-2.3,0-3.1-1.7-5.2-1.7c-2.3,0-4.8,3-5.9,4.8V44.6z"/>
		</g>
	</g>
</g>
<g id="Layer_1">
</g>
</svg>
