<?xml version="1.0" encoding="utf-8"?>
<!-- Generator: Adobe Illustrator 18.0.0, SVG Export Plug-In . SVG Version: 6.00 Build 0)  -->
<!DOCTYPE svg PUBLIC "-//W3C//DTD SVG 1.1//EN" "http://www.w3.org/Graphics/SVG/1.1/DTD/svg11.dtd">
<svg version="1.1" xmlns="http://www.w3.org/2000/svg" xmlns:xlink="http://www.w3.org/1999/xlink" x="0px" y="0px"
	 viewBox="0 0 300 71" style="enable-background:new 0 0 300 71;" xml:space="preserve">
<style type="text/css">
	.st0{fill-rule:evenodd;clip-rule:evenodd;}
	.st1{fill-rule:evenodd;clip-rule:evenodd;fill:#C038F9;}
	.st2{fill:none;}
	.st3{fill-rule:evenodd;clip-rule:evenodd;fill:#231F20;}
</style>
<g id="Layer_2">
</g>
<g id="Layer_1">
	<g>
		<g>
			<path d="M50.6,67.6H48L11.3,12.5v51.8h8.5v2.2H0v-2.2h8.5V10.8H0V8.6h22.2l25.6,37.8V10.8h-8.3V8.6h19.7v2.2h-8.7V67.6z"/>
			<path d="M82.5,31.5c0-2.6-5-3.6-6.7-3.6c-3.8,0-8.6,1.9-7.1,3.8c0.6,0.8,1.4,2.9,1.4,4.8c0,2.6-2.5,4.4-4.8,4.4
				c-2.8,0-5.3-1.5-5.3-4.7c0-7.7,9.9-10.4,16.1-10.4c4.3,0,9,0.7,12.9,2.7c2.8,1.4,3.7,3,3.7,6.2v26.9c0,1.3,1.2,1.9,2.4,1.9
				s2.7-1.5,3.5-2.3l1.2,1.4c-2.6,3.2-5.4,5.4-9.6,5.4c-4.4,0-7.3-2.7-7.9-7.2c-3.6,4.4-9.1,7.2-14.8,7.2c-6.1,0-10.5-3.3-10.5-9.8
				c0-12,16.2-14.5,25.3-14V31.5z M82.5,46.3c-6.3,0-14.7,0.8-14.7,9c0,4.4,1.8,7.8,6.6,7.8c3.5,0,6.2-2.7,7.4-6
				c0.6-1.5,0.7-3.3,0.7-5.3V46.3z"/>
			<path d="M107.8,16c3.6,0,7.3-0.4,10.9-0.6v12.3h9.6v3h-9.6v27.8c0,3.2,0.1,5.6,3.9,5.6c3.2,0,5.2-2.5,6.2-5.4l2,1
				c-2.1,5.7-6.5,8.3-12.3,8.3c-9.2,0-10.7-3.1-10.7-8.7V30.7h-6.5v-3h6.5V16z"/>
			<path d="M135.6,66.5V64h7.4V29h-7.4v-2.5c6,0.2,12.1-0.2,18.3-0.4V64h7.5v2.5H135.6z M147.6,13.5c-3.1,0-5.5-3.1-5.5-6.1
				c0-2.7,2.7-5.5,5.5-5.5c2.9,0,6,2.4,6,5.5C153.6,10.9,151,13.5,147.6,13.5z"/>
			<path d="M184.7,25.9c11.4,0,21.2,10,21.2,21.3c0,11.3-9.8,20.8-21.2,20.8c-11.4,0-21.2-9.5-21.2-20.8
				C163.5,35.9,173.3,25.9,184.7,25.9z M184.7,27.9c-9.9,0-9.2,7.9-9.2,19.3c0,13.1,0.2,18.8,9.2,18.8s9.2-5.7,9.2-18.8
				C193.9,35.8,194.6,27.9,184.7,27.9z"/>
			<path d="M223.8,35.6h0.2c3.2-6.3,7.8-9.7,15.1-9.7c13.4,0,12.3,9.4,12.3,19.4V64h6.4v2.5h-23.4V64h6.4V45.8
				c0-9.4,1-16.3-5.8-16.3c-4.3,0-8.3,4.6-9.8,8.4c-1.3,3.3-1.3,8-1.3,12.7V64h6.4v2.5h-23.9V64h6.9V29h-6.9v-2.5
				c5.2,0.2,11.3-0.2,17.6-0.4V35.6z"/>
			<path d="M272,61.5c0,3.5-3.2,6.5-6.4,6.5c-3.2,0-6.6-2.9-6.6-6.5c0-3.6,3.3-6.5,6.6-6.5C268.7,55.1,272,57.9,272,61.5z"/>
		</g>
		<g>
			<path d="M68.2,19.2v-0.5h1.9V7.6c-2.5-0.1-3.3,1.1-3.6,3.4h-0.6l0.2-3.9h10.3l0.2,3.9h-0.6c-0.3-2.3-1.1-3.5-3.6-3.4v11.1h1.9
				v0.5H68.2z"/>
			<path d="M82.8,13.2v5.5h1.8v0.5h-5.9v-0.5h1.8V7.6h-1.8V7.1h5.9v0.5h-1.8v5.2h4.8V7.6h-1.8V7.1h5.9v0.5h-1.8v11.1h1.8v0.5h-5.9
				v-0.5h1.8v-5.5H82.8z"/>
			<path d="M97.8,7.6v5.2c1.7,0,2.7-0.3,2.7-2.2h0.5v5h-0.5c-0.2-2-0.8-2.4-2.7-2.4v5.5h2.6c2.3,0,2.9-1.4,3.2-3.4h0.5l-0.2,3.9
				H93.7v-0.5h1.8V7.6h-1.8V7.1h10l0.1,3.2h-0.5c-0.4-1.7-1.1-2.4-2-2.7c-0.5-0.1-1-0.1-1.6-0.1H97.8z"/>
		</g>
	</g>
</g>
</svg>
