<?xml version="1.0" encoding="utf-8"?>
<!-- Generator: Adobe Illustrator 18.0.0, SVG Export Plug-In . SVG Version: 6.00 Build 0)  -->
<!DOCTYPE svg PUBLIC "-//W3C//DTD SVG 1.1//EN" "http://www.w3.org/Graphics/SVG/1.1/DTD/svg11.dtd">
<svg version="1.1" xmlns="http://www.w3.org/2000/svg" xmlns:xlink="http://www.w3.org/1999/xlink" x="0px" y="0px"
	 viewBox="0 0 300 54" style="enable-background:new 0 0 300 54;" xml:space="preserve">
<style type="text/css">
	.st0{fill-rule:evenodd;clip-rule:evenodd;}
	.st1{fill-rule:evenodd;clip-rule:evenodd;fill:#C038F9;}
	.st2{fill:none;}
	.st3{fill-rule:evenodd;clip-rule:evenodd;fill:#231F20;}
</style>
<g id="Layer_2">
</g>
<g id="Layer_1">
	<g>
		<path d="M78.1,9.7C76.6,23.8,75,37.9,73.5,52c-1.8,0.7-2.3,0-2.5-1.6c-1.4-13.3-2.9-26.6-4.5-39.8c0,13.8,0,27.6,0,41.5
			c-0.9,0-1.7,0-2.6,0c0-16.5,0-33,0-49.6c1.4,0,2.7,0,4.2,0c1.4,12.5,2.7,25,4.1,37.5c0.1,0,0.3,0,0.4,0c1.4-12.5,2.7-25,4.1-37.6
			c1.3,0,2.6,0,4.1,0c0,16.5,0,33,0,49.7c-0.7,0-1.4,0.1-2.3,0.1c0-14.3,0-28.4,0-42.5C78.3,9.7,78.2,9.7,78.1,9.7z"/>
		<path d="M160.3,37c0-11.5,0-23,0-34.6c0.9,0,1.6,0,2.5,0c0,16.6,0,33.1,0,49.8c-0.7,0-1.4,0.1-2.3,0.1
			c-2.5-12.1-4.9-24.2-7.4-36.2c-0.1,0-0.2,0-0.3,0c0,12,0,24,0,36.1c-0.9,0-1.7,0-2.6,0c0-16.6,0-33.1,0-49.8
			c0.8,0,1.5-0.1,2.4-0.1c2.4,11.6,4.8,23.2,7.2,34.8C160,37,160.2,37,160.3,37z"/>
		<path d="M195.7,27c1.9,0.9,2.4,2.9,2.4,5.2c0,4.4,0,8.7,0.1,13.1c0.1,2.3,0.4,4.6,0.7,6.9c-0.6,0-1.5,0-2.8,0
			c-0.2-1-0.5-2-0.5-3.1c-0.1-5.5-0.1-11.1-0.2-16.6c-0.1-3.9-1-4.7-5.2-4.3c0,7.9,0,15.8,0,23.9c-1,0-1.8,0-2.7,0
			c0-16.5,0-33,0-49.7c2.4,0,4.7-0.2,6.9,0.1c2.3,0.3,3.8,2.2,3.9,5.1c0.2,4.7,0.3,9.5-0.1,14.2C198.3,23.5,196.8,25.1,195.7,27z
			 M190.4,4.8c0,6.9,0,13.6,0,20.3c4,0.5,5.4-0.6,5.5-4.4c0.1-3.7,0.1-7.5,0-11.2C195.9,5.1,195,4.3,190.4,4.8z"/>
		<path d="M109.8,52.1c-3.1,0.3-3.2,0.3-3.3-2.9c-0.2-5.6-0.1-11.2-0.2-16.8c-0.1-3.9-1.1-4.7-5.3-4.2c0,7.9,0,15.8,0,23.9
			c-0.9,0-1.7,0.1-2.6,0.1c0-16.7,0-33.2,0-49.9c2.2,0,4.4-0.2,6.5,0c2.5,0.2,4.2,2.1,4.3,5c0.2,4.8,0.3,9.7-0.1,14.5
			c-0.1,1.7-1.7,3.3-2.7,5.1c2.2,1,2.5,3.4,2.4,6c0,4.5,0,9,0.1,13.5C109.1,48.3,109.5,50.1,109.8,52.1z M101.1,25.1
			c4.1,0.4,5.5-0.7,5.6-4.4c0.1-3.8,0.1-7.6,0-11.4c0-4.2-1.1-5-5.6-4.4C101.1,11.5,101.1,18.3,101.1,25.1z"/>
		<path d="M202.8,27c0-6.4-0.1-12.7,0-19.1c0.1-4.7,2.6-6.8,6.7-6.2c2.4,0.4,3.5,1.9,4,4c0.3,1.6,0.4,3.2,0.4,4.9
			c0,11,0,22.1,0,33.1c0,1.5-0.1,3.1-0.3,4.6c-0.5,3.2-2.1,4.5-5.2,4.6c-3,0-4.6-1.3-5.3-4.4c-0.2-1-0.3-2-0.3-3
			C202.8,39.3,202.8,33.1,202.8,27C202.8,27,202.8,27,202.8,27z M205.5,27.3C205.5,27.3,205.5,27.3,205.5,27.3c0,5.9,0,11.8,0,17.7
			c0,1.2-0.1,2.5,0.4,3.4c0.4,0.8,1.6,1.6,2.4,1.6c0.8,0,1.9-0.9,2.3-1.7c0.5-0.9,0.5-2.1,0.5-3.2c0-12,0-24,0-36
			c0-1.2,0-2.4-0.5-3.4c-0.4-0.7-1.4-1.5-2.2-1.5c-0.8,0-1.9,0.7-2.4,1.4c-0.5,0.9-0.5,2.1-0.5,3.2C205.5,15,205.5,21.2,205.5,27.3z
			"/>
		<path d="M15.8,2.3c0.8,0,1.5,0,2.5,0c0,7.5,0,15,0,22.6c2,0,3.8,0,5.8,0c0-7.6,0-15,0-22.5c1,0,1.7,0,2.6,0c0,16.6,0,33.1,0,49.8
			c-0.8,0-1.6,0-2.5,0c0-8.2,0-16.2,0-24.5c-1.9,0-3.7,0-5.7,0c0,8,0,16.2,0,24.5c-1,0.1-1.7,0.1-2.6,0.2
			C15.8,35.6,15.8,19.1,15.8,2.3z"/>
		<path d="M270.5,19.5c-0.6,0-1.4,0-2.4,0c0-3.3,0-6.5,0-9.8c0-1.2,0.1-2.4-0.4-3.4c-0.4-0.9-1.6-2-2.3-1.9c-1,0.1-2,1.1-2.6,2
			c-0.5,0.7-0.3,1.8-0.3,2.7c0,12.1,0,24.3,0,36.4c0,0.8,0,1.6,0.2,2.3c0.2,1.5,1,2.4,2.6,2.4c1.6,0,2.6-0.8,2.7-2.4
			c0.2-3.2,0.2-6.4,0.2-9.6c0-1.7,0-3.4,0-5.2c1,0,1.7,0,2.3,0c0,5.2,0.2,10.4-0.1,15.6c-0.2,2.9-2.1,4.1-5,4.2
			c-2.9,0.1-4.5-1.1-5.2-3.9c-0.3-1-0.4-2-0.4-3c0-12.4,0-24.9,0-37.3c0-1.1,0.1-2.2,0.4-3.2c0.8-2.8,2.6-4,5.4-3.8
			c2.8,0.2,4.7,1.5,4.9,4.4C270.7,10.4,270.5,14.9,270.5,19.5z"/>
		<path d="M131.7,19.5c-1,0-1.7,0-2.7,0c0-3,0-6,0-9c0-1.4-0.1-2.8-0.3-4.2c-0.2-1.5-1.2-2.4-2.6-2c-1,0.3-2,1.2-2.5,2.2
			c-0.5,0.9-0.3,2.1-0.3,3.2c0,11.7,0,23.3,0,35c0,1.1-0.2,2.3,0.3,3.2c0.5,0.9,1.5,2,2.5,2.2c1.4,0.4,2.6-0.6,2.7-2.2
			c0.2-2.9,0.2-5.7,0.2-8.6c0-2,0-4,0-6.2c0.9-0.1,1.6-0.1,3-0.2c-0.3,5.6-0.3,11-0.9,16.3c-0.3,2.6-2.2,3.6-5,3.6
			c-2.7,0-4.3-1.1-5-3.6c-0.3-1.2-0.5-2.4-0.5-3.7c0-12.2,0-24.4,0-36.6c0-1.2,0.1-2.3,0.4-3.4c0.8-2.8,2.5-4,5.3-3.9
			c2.8,0.1,4.4,1.4,5,4.3c0.2,0.8,0.3,1.7,0.3,2.5C131.7,12,131.7,15.6,131.7,19.5z"/>
		<path d="M148,52.1c-1,0-1.8,0-2.8,0c-0.4-4.4-0.8-8.7-1.3-13.3c-1.8,0-3.5,0-5.5,0c-0.4,4.4-0.8,8.8-1.2,13.3
			c-0.9,0-1.6,0.1-2.8,0.2c1.8-16.7,3.6-33.3,5.5-49.9c0.9,0,1.7,0,2.7,0C144.3,18.8,146.2,35.4,148,52.1z M143.6,36.2
			c-0.8-7.6-1.5-14.9-2.3-22.2c-0.1,0-0.2,0-0.3,0c-0.8,7.4-1.6,14.7-2.4,22.2C140.4,36.2,141.9,36.2,143.6,36.2z"/>
		<path d="M60.7,52.1c-1,0-1.8,0-2.8,0c-0.4-4.5-0.8-8.8-1.3-13.3c-1.9,0-3.5,0-5.5,0c-0.4,4.4-0.8,8.8-1.3,13.3c-0.9,0-1.7,0-2.8,0
			c1.8-16.6,3.6-33.1,5.5-49.7c0.9-0.1,1.6-0.1,2.7-0.2C57,18.9,58.8,35.4,60.7,52.1z M54,14c-0.1,0-0.2,0-0.3,0
			c-0.8,7.4-1.6,14.7-2.4,22.2c1.8,0,3.3,0,5,0C55.5,28.6,54.8,21.3,54,14z"/>
		<path d="M218.3,33.1c0.9,0,1.6,0,2.6,0c0,3.4,0,6.7,0,10c0,1.4,0,2.8,0.1,4.2c0.2,1.8,1,2.9,3,2.9c2,0,2.5-1.3,2.7-3.1
			c1.1-8.9-1.1-16.9-5.7-24.4c-3.3-5.5-3.1-11.4-2.2-17.4c0.3-2.4,2.5-3.9,4.9-3.9c2.5,0,4.5,1.4,4.7,3.9c0.4,3.8,0.4,7.7,0.6,11.7
			c-1.1,0-1.9,0-2.9,0c0-2.6,0-5.2,0-7.7c0-0.9,0.2-2-0.2-2.8c-0.5-1-1.5-2.1-2.4-2.3c-0.6-0.1-2.1,1.3-2.2,2
			c-0.4,4.5-1,9.2,1.3,13.5c1.6,3.1,3.1,6.3,4.6,9.4c3.2,6.2,2.5,12.9,1.8,19.4c-0.3,3-1.9,4.1-4.4,4.2c-3.1,0.1-5-1.1-5.9-3.8
			c-0.2-0.6-0.4-1.2-0.4-1.8C218.2,42.6,218.3,37.9,218.3,33.1z"/>
		<path d="M175.8,28c0,8,0,16,0,24.1c-0.9,0.1-1.7,0.1-2.6,0.1c0-16.7,0-33.2,0-49.8c2.2,0,4.4-0.2,6.6,0.1c2.5,0.4,4.1,2.4,4.2,5.4
			c0.2,5,0.1,9.9,0,14.9c-0.1,2.4-1.8,4.2-4.2,4.7C178.6,27.8,177.3,27.8,175.8,28z M175.8,25.2c4.2,0.6,5.5-0.4,5.6-4.3
			c0.1-4,0.1-7.9,0-11.9c-0.1-3.9-1.7-5-5.5-4C175.8,11.8,175.8,18.5,175.8,25.2z"/>
		<path d="M233,2.2c1.6,0,3.1,0,4.5,0c3.9,0.1,6.1,1.8,6.3,5.7c0.2,5,0.2,9.9,0,14.9c-0.1,2.4-1.8,4.2-4.2,4.7
			c-1.3,0.3-2.6,0.3-4.1,0.5c0,8,0,16,0,24.1c-0.9,0.1-1.7,0.1-2.6,0.1C233,35.6,233,19.1,233,2.2z M235.6,5c0,6.8,0,13.5,0,20.3
			c4.2,0.5,5.5-0.4,5.5-4.4c0.1-3.8,0.1-7.6,0-11.4C241.1,5.3,240,4.4,235.6,5z"/>
		<path d="M247,2.3c3.5,0,6.8,0,10.3,0c0.1,0.7,0.1,1.3,0.2,2.2c-2.7,0-5.2,0-7.9,0c0,6.8,0,13.3,0,20.1c2.4,0,4.7,0,7.1,0
			c0,0.9,0,1.5,0,2.4c-2.4,0-4.7,0-7.1,0c0,7.7,0,15.1,0,22.7c2.7,0,5.3,0,8.1,0c0.1,0.8,0.1,1.5,0.2,2.3c-3.7,0-7.2,0-10.9,0
			C247,35.6,247,19.1,247,2.3z"/>
		<path d="M34.8,49.8c2.8,0,5.3,0,8.1,0c0.1,0.8,0.1,1.4,0.2,2.2c-3.7,0-7.2,0-10.9,0c0-16.5,0-33,0-49.7c3.4,0,6.8,0,10.3,0
			c0.1,0.6,0.1,1.2,0.2,2.1c-2.7,0-5.2,0-7.9,0c0,6.8,0,13.3,0,20.1c2.4,0,4.7,0,7.1,0c0,0.9,0,1.5,0,2.4c-2.4,0-4.7,0-7.1,0
			C34.8,34.7,34.8,42.1,34.8,49.8z"/>
		<path d="M89,49.8c2.8,0,5.3,0,8,0c0.1,0.8,0.2,1.4,0.2,2.2c-3.7,0-7.2,0-10.9,0c0-16.5,0-33,0-49.7c3.4,0,6.9,0,10.4,0
			c0,0.6,0.1,1.2,0.1,2.1c-2.6,0-5.1,0-7.8,0c0,6.8,0,13.3,0,20.1c2.3,0,4.6,0,7.1,0c0,0.9,0,1.5,0,2.4c-2.3,0-4.6,0-7.1,0
			C89,34.7,89,42.1,89,49.8z"/>
		<path d="M6.4,4.6c-2.3,0-4.2,0-6.2,0C0.1,3.8,0.1,3.2,0,2.4c5.2,0,10.2,0,15.3,0c0,0.7,0,1.3,0,2.2c-2,0-4,0-6.3,0
			c0,16,0,31.7,0,47.5c-0.9,0.1-1.6,0.1-2.7,0.2C6.4,36.4,6.4,20.6,6.4,4.6z"/>
		<path d="M277.3,4.6c-2.3,0-4.2,0-6.2,0c-0.1-0.8-0.1-1.4-0.2-2.2c5.2,0,10.2,0,15.3,0c0,0.7,0,1.4,0,2.2c-2.1,0-4.1,0-6.3,0
			c0,15.9,0,31.6,0,47.5c-0.9,0.1-1.6,0.1-2.7,0.2C277.3,36.4,277.3,20.6,277.3,4.6z"/>
		<path d="M113.9,2.3c0.8,0,1.5,0,2.4,0c0,16.6,0,33.1,0,49.8c-0.7,0-1.5,0.1-2.4,0.1C113.9,35.6,113.9,19.1,113.9,2.3z"/>
	</g>
</g>
</svg>
