<?xml version="1.0" encoding="utf-8"?>
<!-- Generator: Adobe Illustrator 18.0.0, SVG Export Plug-In . SVG Version: 6.00 Build 0)  -->
<!DOCTYPE svg PUBLIC "-//W3C//DTD SVG 1.1//EN" "http://www.w3.org/Graphics/SVG/1.1/DTD/svg11.dtd">
<svg version="1.1" xmlns="http://www.w3.org/2000/svg" xmlns:xlink="http://www.w3.org/1999/xlink" x="0px" y="0px"
	 viewBox="0 0 300 77.7" style="enable-background:new 0 0 300 77.7;" xml:space="preserve">
<style type="text/css">
	.st0{fill-rule:evenodd;clip-rule:evenodd;}
	.st1{fill-rule:evenodd;clip-rule:evenodd;fill:#C038F9;}
	.st2{fill:none;}
	.st3{fill-rule:evenodd;clip-rule:evenodd;fill:#231F20;}
</style>
<g id="Layer_2">
	<g>
		<path d="M276.8,48.9c-0.2,0.3-0.2,0.3-0.3,0.4c-0.1,0-0.1,0.1-0.2,0.1c-0.1,0-0.3,0.1-0.4,0.1c-0.1,0-0.3,0-0.4,0
			c-68.3,0-136.6,0-204.9,0.1c-0.1,0-0.1,0.1-0.3,0.1c-1.1,3.1-2.4,6.2-4.3,9c-5.4,8-12.8,13.2-22.2,15.4c-2.7,0.7-5.5,0.6-8.3,0.6
			C24.8,74.7,16,70.4,9,62.6c-4.4-4.9-7.1-10.7-8.2-17.2c-0.3-1.9-0.7-3.7-0.8-5.6c-0.1-2,0.1-4.1,0.4-6.1c0.7-4,1.8-7.8,3.8-11.4
			c2-3.8,4.6-7.1,7.8-10c2.7-2.4,5.6-4.5,8.9-6c3.1-1.4,6.4-2.6,9.8-2.9C31.8,3.4,32.9,3,34,2.9c1.6-0.3,3.2-0.5,4.7,0.4
			c0,5,0,10,0,15.1c-1.2-1.1-2.3-2.2-3.5-3.1c-2.5-1.8-5.3-2.6-8.4-2.9c-3.5-0.4-6.8,0.1-10.1,1.4c-4.3,1.7-7.7,4.5-10,8.5
			C3.9,26.9,3,32.1,3.5,37.4c0.5,5.4,2.4,10.3,6.5,14c3.6,3.2,7.7,5,12.5,5.1c4.5,0.2,8.8-0.7,12.4-3.5c1.2-0.9,2.2-2.1,3.3-3.2
			c0.4-0.4,0.7-0.8,1.2-1.4c0.4,2.5-0.2,4.8,0.7,7.1c2.4,0,4.8,0,7.3,0c0-1.2,0-2.3,0-3.3c-0.1-1.2-0.3-2.5-0.3-3.7
			c0-13.9,0-27.8-0.1-41.7c0-0.6,0-1.1,0-1.9c2.2,0.6,4,1.4,5.8,2.7c-0.1,1.9-0.2,3.7-0.3,5.5c0,0.7-0.1,1.5-0.1,2.2
			c0,11.3,0,22.5,0,33.8c0,2.7-0.1,5.4-0.8,8.1c-0.8,3.1-2.6,5-5.5,6c-0.7,0.2-1.4,0.5-2.1,0.7c0.3,2,0.7,3.8,1,5.7
			c0.9,0.7,1.7,0,2.5-0.2c3.9-0.9,7.3-2.7,9.5-6.2c1.3-2.1,2-4.4,2.5-6.8c0.5-2.7,0.5-5.4,0.5-8.1c0-11.1,0-22.2,0-33.3
			c0-0.7,0-1.5,0-2.2c2.6,1.4,6.6,6.5,8.3,10.8c-0.9,1.1-1.8,2.1-2.6,3.3c-1.2,1.7-1.9,3.6-1.8,5.8c0.1,1.9-0.2,3.8,0.5,5.7
			c1.2,3,2.9,5.6,6.3,6.5c0.2,0.1,0.4,0.2,0.6,0.5c-0.2,1-0.5,2-0.8,3.3c0.9,0,1.7,0,2.6,0c48.4,0,96.7,0,145.1,0
			c18.7,0,37.4,0,56.1,0C275.1,48.6,275.9,48.3,276.8,48.9z"/>
		<path d="M38.8,34.1c0,1.2,0,2.5,0,3.7c0.1,5.5-3.6,10.4-9.2,12c-2.7,0.8-5.3,0.6-8-0.1c-3.8-1.1-6.4-3.7-7.9-7.2
			c-2.3-5.3-2.3-10.9,0-16.2c1.9-4.4,5.2-7.3,10.2-7.9c4.6-0.6,8.5,0.5,11.7,3.9c2,2.1,3,4.6,3,7.5C38.8,31.3,38.8,32.7,38.8,34.1z"
			/>
		<path d="M250.8,44.1c-2.2,0.6-9.4,0.5-11.2,0.1c0.8-0.5,1.4-0.9,2.1-1.4c1-2.9,0.6-6,0.6-9.1c0-3,0.4-6-0.6-9.2
			c-0.5-0.3-1.2-0.7-2.1-1.2c0.4-0.2,0.7-0.4,0.9-0.4c2.6,0,5.1,0,7.9,0c0.1,0.8,0.2,1.6,0.3,2.6c0.6-0.5,1.1-1,1.6-1.4
			c2.1-1.6,4.3-2.4,6.9-1.6c1.3,0.4,2.3,1.3,3.1,2.4c0.2,0.3,0.5,0.7,0.7,1.2c0.7-0.7,1.3-1.4,2-1.9c2-1.6,4.3-2.5,6.9-1.7
			c2.3,0.7,3.5,2.4,3.8,4.8c0.5,3.8,0.3,7.6,0.3,11.4c0,1.3,0,2.6,0,4c0.8,0.5,1.5,0.9,2.2,1.3c-0.1,0.2-0.1,0.4-0.1,0.4
			c-3.6,0.4-7.1,0.1-10.7,0.2c0-0.4,0-0.6,0-0.6c1.7-0.8,2.2-2.2,2.1-4c-0.1-3.8,0-7.6-0.1-11.5c0-1.7-0.2-2-1.6-3.2
			c-2.2-0.3-3.2,1.4-4.5,2.8c0,4.6,0,9.2,0,13.8c0,0.4,0.3,0.8,0.5,1.2c0.6,0.3,1.1,0.6,2,1.2c-2.1,0.7-4,0.3-5.8,0.4
			c-1.8,0.1-3.6,0.1-5.4-0.1c0-0.3,0-0.5,0.1-0.6c1.6-0.6,2.1-1.7,2.1-3.4c-0.1-4.6,0-9.1,0-14c-0.4-0.4-0.9-0.9-1.2-1.2
			c-2.7-0.3-3.7,1.5-5,2.8c0,4.2,0,8.5,0,12.7C248.5,42.4,249.4,43.4,250.8,44.1z"/>
		<path d="M141.9,44.5c-3.6,0-7.1,0-10.8,0c0.3-1.1,1.5-1,2.1-2c0.2-5.6,0.1-11.6,0-17.7c-0.7-0.4-1.4-0.9-2.3-1.5
			c0.4-0.2,0.7-0.4,0.9-0.4c2.6,0,5.1,0,7.8,0c0.1,0.9,0.2,1.6,0.3,2.7c1.8-2.1,3.8-3.3,6.8-3.5c1.3,0.2,2.9,0.7,4,2.2
			c0.4,0.6,0.9,1.3,1,1.9c0.3,1.7,0.4,3.3,0.4,5c0.1,3.7,0,7.5,0,11.3c0.8,0.5,1.5,0.9,2.5,1.6c-2.1,0.7-4,0.3-5.8,0.3
			c-1.8,0-3.6,0.2-5.5-0.2c2.2-1.9,2.2-1.9,2.2-5.1c0-4.1,0-8.2,0-12.5c-0.6-0.5-1.3-1-1.9-1.5c-1.9,0.3-2.8,1.7-3.9,2.9
			c0,4.2,0,8.5,0,12.7c0,1.6,0.9,2.5,2.3,3.2C142.1,44.2,142,44.3,141.9,44.5z"/>
		<path d="M96.2,22.9c0,5.2,0,10,0,14.9c0,0.6-0.1,1.2,0,1.8c0.2,0.8,0.5,1.5,0.7,2.3c0.9,0,1.6,0.1,2.5,0.1
			c0.8-0.9,1.7-1.9,2.4-2.7c0-4.9,0-9.6,0-14.3c-0.3-0.3-0.7-0.7-1.1-1c-0.3-0.2-0.7-0.3-1.5-0.7c1.8-0.7,3.3-0.4,4.6-0.4
			c1.5-0.1,2.9,0,4.6,0c0,6.7,0,13.2,0,19.7c0.8,0.5,1.5,1,2.2,1.5c-0.2,0.2-0.3,0.4-0.3,0.4c-2.7,0-5.4,0-8.3,0
			c-0.1-0.8-0.2-1.6-0.3-2.4c-1,0.7-1.8,1.5-2.8,2.1c-1.9,1.2-4,1.3-6.1,0.4c-1.9-0.8-2.7-2.5-3-4.5c-0.6-3.8-0.3-7.6-0.4-11.4
			c0-1.2,0-2.4,0-3.7c-0.7-0.5-1.4-1-2.4-1.7c1.5-0.6,3-0.3,4.4-0.3C93,22.9,94.5,22.9,96.2,22.9z"/>
		<path d="M161.5,25.6c0.6,1.1,1.2,2.1,1.8,3c-0.9,2.5-1.6,3-3.6,2.8c-2.4-0.1-3.6-2.2-2.7-4.4c0.6-1.4,1.6-2.4,2.9-3.2
			c1.4-0.8,2.9-1.3,4.6-1.4c1.5-0.1,3-0.4,4.5,0c1.4,0.4,2.6,1,3.6,2c0.9,0.9,1.4,2,1.4,3.3c0,3.9,0,7.8,0,11.7c0,0.9,0,1.8,0.9,2.5
			c0.5-0.2,1.1-0.5,1.7-0.8c0.1,0.1,0.2,0.2,0.2,0.3c0,0.2,0,0.3,0,0.4c-1.7,2.5-4,3.2-7.3,2.5c-0.5-0.7-1.3-1.6-2.1-2.6
			c-1.2,0.7-2.5,1.5-3.9,2.3c-1.4,0.8-3,0.5-4.4,0.5c-1.5-0.6-2.3-1.7-2.8-3.1c-0.3-2.8,0.9-4.9,3.4-6.3c2.6-1.5,5.2-3,7.9-4.5
			c0.4-2.2,0.3-3.1-0.4-5.4C164.9,23.3,163.7,23.4,161.5,25.6z M167.6,32.6c-2.1,1-3.7,2.4-4.5,4c-1.2,2.3-0.7,3.5,2,4.5
			c0.8-0.5,1.7-1,2.5-1.4C167.6,37.2,167.6,35,167.6,32.6z"/>
		<path d="M86,33.5c0.2,3.2-0.7,6-2.6,8.3c-1.6,2-3.6,3.2-6.2,3.2c-1.3,0-2.7,0-3.9-0.2c-2.8-0.6-4.7-2.4-6-5
			c-2.9-5.5-1.1-12.1,2.3-15.2c1.3-1.2,2.8-1.9,4.6-2.2c3-0.6,5.4,0.3,7.8,1.8c1.5,1,2.5,2.5,3.1,4.1C85.7,30.1,86.2,31.8,86,33.5z
			 M75.4,43.7c2.4-0.3,3.3-1.1,3.6-3.4c0.5-3.6,0.5-7.1,0.3-10.7c-0.1-2.1-0.2-4.3-2.4-5.6c-2.2-0.1-3.2,0.4-3.6,2
			c-0.3,1-0.5,2.1-0.5,3.2c-0.1,3.2,0,6.4,0,9.7C72.7,40.9,73.4,42.5,75.4,43.7z"/>
		<path d="M218,34.2c-0.2-3.1,0.5-5.5,2-7.7c2-3.2,5.1-4.5,8.6-4.2c4,0.3,7.1,2.3,8.7,6.4c1.5,4,1.4,7.8-0.6,11.6
			c-1.7,3.2-4.3,4.8-8,4.9c-2,0-4,0-5.7-1.2c-3-1.9-4.3-4.8-4.9-8.2C218,35.1,218,34.4,218,34.2z M227.3,23.9
			c-1.5,0.9-2.2,2.1-2.2,3.7c0,0.3,0,0.6,0,0.9c-0.6,3.9-0.6,7.9,0,11.8c0.3,1.8,1.2,2.9,2.8,3.4c1.3-0.2,2.2-1,2.9-2.1
			c0.1-0.9,0.4-1.9,0.5-2.9c0.1-3.3,0.1-6.6,0-9.9c0-0.8-0.2-1.6-0.4-2.4C230.2,24.3,229.6,23.9,227.3,23.9z"/>
		<path d="M176.6,13.5c1.7-0.4,6.7-0.4,9.2-0.1c0,9.5,0,19.1,0,28.3c0.6,1.3,1.5,2,2.9,2.2c-0.4,0.3-0.6,0.6-0.8,0.6
			c-3.5,0-6.9,0-10.4,0c-0.2,0-0.3-0.2-0.7-0.4c0.8-0.5,1.5-0.8,2.3-1.3c0.1-1.4,0.4-3,0.4-4.5c0.1-3.3,0.1-6.6,0-9.9
			c-0.1-4.4-0.3-8.8-0.5-13.4C178.3,14.6,177.5,14.1,176.6,13.5z"/>
		<path d="M216.2,28.8c-0.2,0.3-0.4,0.6-0.6,0.8c-0.2,0.3-0.5,0.5-0.9,0.8c-0.8,0-1.6,0-2.4,0c-1.5-0.7-2-2.2-2.2-3.7
			c-0.1-1-0.2-1.9-1.1-2.7c-1.1-0.4-2.1-0.1-2.7,1c-0.4,0.8-1,1.7-1.1,2.6c-0.2,3-0.4,6,0.9,8.9c0.5,1.1,1.1,2.2,1.9,3.2
			c1.9,2.4,4.4,2.4,7,0.6c0.4-0.3,0.9-0.7,1.6-1.3c-0.1,0.8,0,1.3-0.2,1.5c-1.1,1.2-2.2,2.4-3.5,3.3c-3.5,2.5-9.7,1.8-12.3-3
			c-1.2-2.2-1.6-4.4-1.7-6.9c-0.1-3.1,0.9-5.8,2.7-8.1c1.3-1.7,3.1-2.7,5.3-3.3c2-0.5,3.9-0.3,5.8,0.5
			C215.5,24.1,216.4,25.7,216.2,28.8z"/>
		<path d="M114.4,24.7c-0.9-0.5-1.6-0.9-2.3-1.3c1.2-0.7,4.5-0.8,8.8-0.4c0,1.3,0,2.7,0,4.4c1.2-1.3,2.1-2.4,3.1-3.4
			c1-1.2,2.4-1.6,3.9-1.9c0.6,0.2,1.2,0.4,1.7,0.6c1.9,2.8,1.4,4.8-1.5,6c-0.6-0.2-1.2-0.3-1.8-0.7c-0.5-0.3-0.9-0.7-1.3-1.1
			c-0.6,0-1.1,0-1.8,0c-0.4,0.7-1.1,1.3-1.3,2.1c-0.4,1.5-0.8,3.1-0.9,4.7c-0.1,2.7,0,5.4,0,8.1c0.6,1.4,1.6,1.9,3.1,2
			c-0.3,0.3-0.4,0.6-0.6,0.6c-3.7,0-7.5,0-11.3,0c0.3-1.1,1.5-0.9,2.2-2C115,36.8,114.7,30.9,114.4,24.7z"/>
		<path d="M256.2,60.8c-0.1-0.3-0.2-0.5-0.2-0.7c-0.2-2.3-0.4-4.5-0.5-6.7c0.8-0.6,1.5-0.4,2.3-0.3c0,1.7,0,3.4,0,5.5
			c1.2-2.1,2.1-3.9,3-5.5c1,0,1.8,0,2.5,0c0,1.8,0,3.4,0,5.3c1-2,1.9-3.7,2.8-5.4c0.8,0,1.4,0,2.3,0c-1.6,2.7-3.1,5.3-4.6,7.8
			c-0.5,0-0.8,0-1.2,0c-0.3,0-0.7-0.1-1.1-0.2c-0.4-1.6,0-3.3-0.3-5c-1,1.8-1.9,3.4-2.8,5.1C257.6,60.8,256.9,60.8,256.2,60.8z"/>
		<path d="M165.4,60.7c-0.7,0.1-1.3,0.1-1.9,0.2c-0.1-0.3-0.3-0.5-0.2-0.7c0.1-0.9,0.3-1.7,0.5-2.6c0.2-0.8,0.4-1.5,0.3-2.4
			c-1.1,1.7-2.2,3.5-3.3,5.2c-0.6,0-1.2,0-1.8,0c-0.2-1.7-0.5-3.3-0.8-5.4c-0.7,2.1-1.2,3.8-1.8,5.7c-0.6,0-1.2,0.1-2.1,0.1
			c0.9-2.7,1.7-5.2,2.6-7.8c1,0,1.9,0,2.9,0c1,1.5,0.2,3.2,0.8,5c1.2-1.8,2.2-3.4,3.2-5c1.1,0,2.1,0,3.2,0
			C166.4,55.7,165.9,58.2,165.4,60.7z"/>
		<path d="M196.8,42.7c-0.7,0.7-1.5,1.6-2.2,2.3c-3.6,0.2-5.1-0.9-5.3-3.5c-0.2-2.4,1.8-4.1,3.9-4C195.8,37.7,196.9,39.1,196.8,42.7
			z"/>
		<path d="M238,53c0.9,0,1.6,0,2.6,0c0.7,1.6,1.5,3.2,2.3,4.9c0.4-1.7,0.8-3.3,1.2-4.8c0.8,0,1.4,0,2.2,0c-0.7,2.6-1.3,5-2,7.6
			c-0.7,0.1-1.4,0.1-2.2,0.2c-0.9-1.9-1.7-3.7-2.6-5.7c-0.4,1.8-0.8,3.5-1.3,5.4c-0.6,0.1-1.2,0.1-2,0.2
			C236.6,58.1,237.2,55.5,238,53z"/>
		<path d="M71.8,60.9c-0.7-0.1-1.3-0.2-2-0.3c0.7-2.6,1.3-5,1.9-7.6c0.8,0,1.7,0,2.7,0c0.7,1.5,1.4,3.1,2.2,4.9
			c0.4-1.7,0.8-3.3,1.2-4.9c0.6,0,1.2,0,2.1,0c-0.7,2.7-1.3,5.2-1.9,7.7c-0.7,0-1.4,0-2.2,0c-0.8-1.7-1.6-3.4-2.6-5.5
			C72.7,57.4,72.3,59,71.8,60.9z"/>
		<path d="M90.4,54.8c0.1,3-0.8,4.7-2.8,5.5c-2.6,1.1-4.7,0.7-6.7-1.2c-0.7-1.4-0.5-2.9,0.5-4.2c0.9-1.2,2.2-1.9,3.8-2
			c1,0,2.1,0,3.2,0C89,53.6,89.7,54.2,90.4,54.8z M87,58.9c0.4-0.9,0.8-1.9,1.2-2.9c-0.4-0.6-0.7-1.1-1-1.6
			c-3.5-0.2-4.6,0.9-4.1,4.4c0.5,0.3,1.2,0.6,1.7,0.9C85.6,59.4,86.2,59.2,87,58.9z"/>
		<path d="M130.4,53c1,0,1.9,0,3,0c0.5,2.5,0.9,5.1,1.3,7.8c-0.9,0-1.5,0-2.3,0c-0.2-0.6-0.4-1.2-0.6-1.9c-0.8,0-1.7,0-2.6,0
			c-0.5,0.6-1.1,1.3-1.7,2c-0.6,0-1.1-0.1-2-0.1C127.2,58,128.8,55.6,130.4,53z"/>
		<path d="M114.9,56.1c0.3-1,0.6-1.9,0.9-3c0.6,0,1.3-0.1,2.3-0.2c-0.7,2.7-1.3,5.3-2,8c-0.8-0.1-1.4-0.1-2.2-0.2
			c0.3-1.2,0.5-2.1,0.7-3.2c-1.3,0-2.4,0-3.7,0c-0.3,1-0.5,1.9-0.9,3.1c-0.5,0.1-1.1,0.2-1.6,0.3c-0.7-0.6,0.3-5.2,1.6-7.8
			c0.6,0,1.2,0,1.9,0c-0.2,1-0.3,1.8-0.4,2.7C112.7,56.3,113.8,55.9,114.9,56.1z"/>
		<path d="M96.4,60.7c-0.3-1-0.5-1.9-0.7-2.8c-0.6-0.1-1-0.1-1.6-0.1c-0.4,1-0.7,2-1.1,3.1c-0.7,0-1.3-0.1-1.8-0.1
			c-0.1-0.3-0.2-0.4-0.2-0.4c0.6-2.4,1.2-4.8,1.9-7.2c1.8,0,3.4,0,5.6,0c0.3,0.3,0.8,0.9,1.3,1.4c-0.7,1.7-0.7,1.7-2.2,2.7
			c0.6,1.1,1,2.2,0.6,3.7C97.6,60.8,97,60.8,96.4,60.7z M94.4,56.7c1.1-0.3,1.9-0.5,2.7-0.8c-0.1-0.6-0.1-1-0.2-1.5
			c-0.8,0-1.4,0-2.2,0C94.6,55.1,94.5,55.7,94.4,56.7z"/>
		<path d="M124.9,59.4c-0.1,0.5-0.3,0.9-0.4,1.4c-2.1,0-4,0-6.3,0c0.6-2.6,1.2-5.1,1.9-7.7c2,0,3.9,0,6,0c0,0.3,0,0.6,0,1.2
			c-1.2,0-2.4,0-3.7,0c-0.2,0.6-0.4,1-0.7,1.7c1.3,0.1,2.5,0.1,3.7,0.2c-0.2,0.5-0.3,0.8-0.5,1.2c-1.1,0-2.2,0-3.3,0
			c-0.2,0.5-0.5,1-0.7,1.5C122.2,59.6,123.5,58.9,124.9,59.4z"/>
		<path d="M246.4,60.8c0.7-2.8,1.3-5.2,2-7.8c2-0.1,4-0.1,6.2,0c-0.2,0.5-0.3,0.9-0.5,1.3c-1.2,0-2.4,0-3.6,0
			c-0.2,0.5-0.4,1-0.7,1.6c1.3,0.1,2.3,0.1,3.5,0.2c0,0.4,0,0.7,0,1.2c-1.2,0-2.3,0-3.5,0c-0.2,0.6-0.4,1.2-0.7,1.8
			c1.3,0.1,2.5,0.1,3.9,0.2c-0.1,0.5-0.1,0.9-0.2,1.4C250.6,61.1,248.6,60.9,246.4,60.8z"/>
		<path d="M222.2,52.9c2.3,0.2,4.5-0.7,6.3,1c0.3,2.5-0.5,3.6-3,3.9c-0.7,0.1-1.4,0.1-2.2,0.1c-0.3,0.9-0.6,1.8-0.9,2.8
			c-0.7,0-1.3,0-2.1,0C220.9,58.1,221.5,55.6,222.2,52.9z M224,54.4c-0.1,0.7-0.1,1.3-0.2,2.3c1.1-0.3,1.8-0.5,2.7-0.7
			c-0.1-0.7-0.2-1.1-0.2-1.6C225.4,54.4,224.8,54.4,224,54.4z"/>
		<path d="M213.6,52.9c2.4,0.3,5-0.9,6.7,1.7c-0.7,2.7-1.4,3.1-5.6,3.3c-0.3,0.8-0.6,1.7-0.9,2.6c-0.7,0.5-1.3,0.5-2.2-0.1
			C212.2,58,212.9,55.6,213.6,52.9z M218,55.2c-1-1-1.9-1.2-2.6-0.6c-0.1,0.5-0.3,1.1-0.5,1.8c0.9,0,1.5,0,2.1,0
			C217.4,56,217.7,55.6,218,55.2z"/>
		<path d="M191.2,60.3c0.2-0.5,0.4-0.8,0.6-1.2c0.9,0.2,1.7,0.3,2.8,0.5c0.3-0.2,0.8-0.4,1.4-0.7c-0.1-0.3,0-0.6-0.1-0.7
			c-0.5-0.4-1.2-0.6-1.7-1c-0.6-0.4-1.2-1-1.8-1.4c0.7-2.3,1.3-2.8,3.2-2.8c1.1,0,2.2,0,3.5,0.1c-0.3,0.6-0.5,0.9-0.6,1.2
			c-1.3,0.4-2.6-0.4-3.8,0.7c0.9,1.5,3.5,1.2,3.7,3.4C197.4,60.9,195.2,61.6,191.2,60.3z"/>
		<path d="M207,53.2c-0.2,0.4-0.4,0.7-0.6,1c-1.1,0.1-2.2,0.2-3.3,0.3c-0.2,0-0.3,0.3-0.5,0.5c0.8,1.6,3.6,1,3.7,3.4
			c-1.1,2.5-3.5,3.2-7.2,1.9c0.1-0.3,0.3-0.7,0.5-1.2c0.9,0.1,1.8,0.3,2.9,0.4c0.3-0.2,0.8-0.5,1.3-0.7c-0.1-0.3-0.1-0.6-0.3-0.7
			c-0.5-0.3-1-0.5-1.5-0.8c-0.6-0.4-1.2-0.8-1.7-1.2c0-1.8,0.6-2.7,2.1-3C204,52.8,205.5,52.8,207,53.2z"/>
		<path d="M135.5,60.2c0.1-0.2,0.1-0.4,0.2-0.6c0.1-0.2,0.3-0.3,0.5-0.5c0.7,0.1,1.4,0.3,2.2,0.5c0.5-0.2,1.1-0.4,1.8-0.7
			c-0.5-1.9-2.8-1.4-3.5-3.4c0-0.2,0-0.9,0.4-1.3c0.5-0.5,1.3-1,2-1.1c1.3-0.2,2.6-0.1,4.1-0.1c-0.2,0.5-0.3,0.9-0.5,1.3
			c-0.6,0-1.3,0-1.9,0c-0.7,0-1.4-0.1-1.8,0.8c1.1,0.7,2.3,1.5,3.4,2.2c0,0.7,0,1.4,0,1.9C141.5,60.9,138.3,61.3,135.5,60.2z"/>
		<path d="M179,60.2c0.3-0.4,0.5-0.7,0.8-1.1c0.8,0.2,1.5,0.3,2.5,0.5c0.5-0.2,1-0.5,1.7-0.8c-0.7-1.6-2.8-1.3-3.5-3.1
			c0-0.2-0.1-0.9,0.3-1.2c0.5-0.6,1.2-1.1,2-1.3c1.3-0.2,2.6-0.3,4,0.1c-0.1,0.4-0.1,0.8-0.2,1c-1.3,0.5-2.6-0.4-3.8,0.7
			c0.7,1.4,2.6,1.3,3.4,2.8c0,0.4,0,1,0,1.5C185.2,60.9,182.3,61.3,179,60.2z"/>
		<path d="M179.1,53c-0.2,0.5-0.3,0.9-0.4,1.2c-1.2,0.6-2.7-0.4-3.9,0.9c1.2,0.8,2.4,1.6,3.5,2.4c0,0.8,0,1.3,0,2
			c-2.2,1.8-4.5,1.9-7.1,0.9c0.3-0.4,0.5-0.8,0.8-1.2c0.8,0.2,1.5,0.3,2.3,0.5c0.5-0.2,1.1-0.4,1.7-0.6c-0.1-0.3,0-0.6-0.1-0.7
			c-0.4-0.3-0.8-0.6-1.2-0.9c-0.7-0.4-1.3-0.8-2.2-1.4c0.2-0.7,0.1-1.5,0.5-1.8c0.6-0.6,1.4-1.1,2.2-1.2
			C176.4,52.8,177.7,53,179.1,53z"/>
		<path d="M275.1,53c-0.1,0.6-0.1,0.9-0.2,1.2c-1.3,0.6-2.6-0.4-3.8,0.8c0.7,1.5,2.8,1.2,3.4,2.9c-0.1,1.7-0.3,2.2-1.8,2.7
			c-1.7,0.6-3.4,0.6-5.2-0.3c0.2-0.4,0.4-0.7,0.6-1.2c0.8,0.2,1.6,0.3,2.5,0.5c0.5-0.2,1-0.5,1.7-0.8c-0.7-1.6-2.8-1.2-3.6-2.8
			c0.1-0.6,0.1-1.4,0.5-1.8c0.5-0.6,1.3-1,2-1.2C272.4,52.9,273.7,53,275.1,53z"/>
		<path d="M103.8,60.7c-0.6,0-1.2,0.1-1.7,0.1c-0.1-0.3-0.3-0.5-0.2-0.7c0.4-1.8,0.8-3.7,1.3-5.7c-0.8-0.1-1.5-0.2-2.4-0.3
			c0-0.3,0-0.7,0-1.2c2.6-0.1,5.1,0,7.8-0.1c0,0.5,0,0.8-0.1,1.3c-1,0.1-1.8,0.1-2.8,0.2C105.1,56.4,104.5,58.4,103.8,60.7z"/>
		<path d="M147,54.5c-1-0.1-1.8-0.2-2.7-0.3c0.2-0.5,0.3-0.8,0.5-1.2c2.4,0,4.8,0,7.3,0c0,0.3,0.1,0.6,0.1,1.1
			c-1,0.1-1.9,0.2-2.9,0.2c-0.6,2.1-1.1,4.2-1.7,6.2c-0.5,0.1-0.7,0.2-1,0.2c-0.3,0-0.6,0-0.9-0.1c-0.1-0.3-0.2-0.5-0.2-0.6
			C146.1,58.3,146.5,56.5,147,54.5z"/>
		<path d="M189.2,53c0.8,0,1.4,0,2,0c0.1,0.1,0.1,0.3,0.1,0.4c-0.6,2.4-1.2,4.8-1.7,7.1c-0.8,0.5-1.5,0.5-2.3-0.1
			C187.9,58.1,188.5,55.6,189.2,53z"/>
		<path d="M207.2,61c0.7-2.9,1.2-5.3,1.8-7.9c0.8,0,1.5,0,2.3,0c-0.6,2.5-1.2,5-1.9,7.6C208.9,60.7,208.3,60.8,207.2,61z"/>
		<path d="M169.1,60.9c-0.5-0.1-1.2-0.2-1.9-0.3c0.7-2.6,1.3-5,1.9-7.5c0.6,0,1.2-0.1,1.7-0.1C171.5,53.5,170.3,58.8,169.1,60.9z"/>
		<path d="M231,53c0.5,0,0.9,0,1.3,0c0.2,0,0.4,0.1,0.8,0.1c-0.6,2.5-1.3,5-1.9,7.5c-0.4,0.1-0.6,0.3-0.9,0.3c-0.3,0-0.7,0-1.3-0.1
			C229.5,58.1,230.2,55.6,231,53z"/>
	</g>
</g>
<g id="Layer_1">
</g>
</svg>
