<?xml version="1.0" encoding="utf-8"?>
<!-- Generator: Adobe Illustrator 18.0.0, SVG Export Plug-In . SVG Version: 6.00 Build 0)  -->
<!DOCTYPE svg PUBLIC "-//W3C//DTD SVG 1.1//EN" "http://www.w3.org/Graphics/SVG/1.1/DTD/svg11.dtd">
<svg version="1.1" xmlns="http://www.w3.org/2000/svg" xmlns:xlink="http://www.w3.org/1999/xlink" x="0px" y="0px"
	 viewBox="0 0 300 37" style="enable-background:new 0 0 300 37;" xml:space="preserve">
<style type="text/css">
	.st0{fill-rule:evenodd;clip-rule:evenodd;}
	.st1{fill-rule:evenodd;clip-rule:evenodd;fill:#C038F9;}
	.st2{fill:none;}
	.st3{fill-rule:evenodd;clip-rule:evenodd;fill:#231F20;}
</style>
<g id="Layer_2">
</g>
<g id="Layer_1">
	<g>
		<g>
			<g>
				<path d="M36.8,7h-4.4V2.9h13.4V7h-4.4v22.8h-4.5V7z"/>
				<path d="M48.6,2.9h4.5v11h5.3v-11h4.5v26.9h-4.5V18.1h-5.3v11.8h-4.5V2.9z"/>
				<path d="M67.5,2.9h12.3v4.2H72v6.7h6v4.2h-6v7.5h8.3v4.2H67.5V2.9z"/>
				<path d="M92.9,7h-4.4V2.9h13.4V7h-4.4v22.8h-4.5V7z"/>
				<path d="M104.7,2.9H117v4.2h-7.8v6.7h6v4.2h-6v7.5h8.3v4.2h-12.8V2.9z"/>
				<path d="M125.3,15.9l-4.9-12.9h4.4l2.2,6.5c0.2,0.6,0.4,1.7,0.6,3.2c0.1-1.4,0.3-2.4,0.6-3.2l2.2-6.5h4.3l-4.8,12.8l5.5,14.1
					h-4.6l-2.7-7.8c-0.3-0.8-0.4-1.8-0.6-3.1c-0.1,1.4-0.3,2.4-0.6,3.2l-2.8,7.8h-4.4L125.3,15.9z"/>
				<path d="M141.9,2.9h5.7l4.8,26.9H148l-0.8-5.8h-5l-0.9,5.8H137L141.9,2.9z M146.6,19.8l-1.9-12.5l-1.8,12.5H146.6z"/>
				<path d="M158,22.2c0.4,2.7,1.4,4.1,3,4.1s2.6-1.1,2.6-2.7c0-2.4-2.4-4.3-5.9-7.5c-2.1-1.9-3.3-4.4-3.3-7c0-3.9,2.9-6.6,6.7-6.6
					c3.6,0,6,2.2,6.5,6.4l-4.1,0.6c-0.3-2.1-1.2-3.3-2.6-3.3c-1.4,0-2.4,1.1-2.4,2.7c0,1.9,1.3,3.2,3.2,4.9c3.5,3.2,6.1,5.3,6.1,9.5
					c0,3.9-2.8,6.9-6.9,6.9c-4,0-6.7-2.7-7.2-7.5L158,22.2z"/>
				<path d="M180.9,7h-4.4V2.9h13.4V7h-4.4v22.8h-4.5V7z"/>
				<path d="M211.5,2.9h4.5v26.9h-4.5V2.9z"/>
				<path d="M220.6,2.9h5c2.7,0,4.7,0,6.4,1.2c1.4,1,2.3,3.1,2.3,5.6c0,2.6-1,4.5-2.9,5.8c2.4,1.5,3.5,3.6,3.5,6.5
					c0,1.9-0.5,3.6-1.5,5c-1.5,2.1-4.1,2.6-8.3,2.6h-4.5V2.9z M225.8,13.9c2.9,0,4.2-1.1,4.2-3.8c0-2.5-1.1-3.5-3.8-3.5
					c-0.3,0-0.7,0-1,0v7.3C225.3,13.9,225.6,13.9,225.8,13.9z M226.2,26c3,0,4.3-1.1,4.3-4.2c0-2.9-1.2-4.1-4-4.1
					c-0.4,0-0.8,0-1.2,0.1V26C225.5,26,225.9,26,226.2,26z"/>
				<path d="M245.4,30.4c-5,0-7-2.9-7-8.9V2.9h4.6v19.3c0,2.7,0.5,4,2.4,4c2,0,2.5-1.4,2.5-4.2v-19h4.6v18.5
					C252.4,27.5,250.3,30.4,245.4,30.4z"/>
				<path d="M256.6,2.9h4.1l5.2,14.3c0.3,1,0.8,2.5,1.2,4.9h0.1c-0.4-2.4-0.6-4.2-0.6-5.4V2.9h3.9v26.9h-3.7l-5.6-15.5
					c-0.6-1.6-1-3.2-1.2-4.7H260c0.4,2,0.6,4,0.6,6.1v14.1h-3.9V2.9z"/>
				<path d="M275.2,2.9h12.3v4.2h-7.8v6.7h6v4.2h-6v7.5h8.3v4.2h-12.8V2.9z"/>
			</g>
			<g>
				<path d="M201.3,2.9c2.1,0,3.7,0.6,4.8,1.7c1.1,1.1,1.7,2.9,1.7,5.2c0,1.8-0.3,3.3-1,4.4c-0.7,1.1-1.7,1.9-3.1,2.2v0.1
					c1.2,0.2,2.1,0.6,2.7,1.3c0.6,0.7,0.9,1.8,1.1,3.3c0,0.5,0.1,1,0.1,1.6c0,0.6,0,1.2,0.1,2c0,1.4,0.1,2.5,0.2,3.3
					c0.1,0.8,0.4,1.3,0.9,1.5v0.2h-5.4c-0.3-0.4-0.4-0.8-0.5-1.3c-0.1-0.5-0.1-1-0.1-1.5l-0.1-5.2c0-1.1-0.3-1.9-0.7-2.5
					c-0.4-0.6-1.2-0.9-2.2-0.9h-2.7v11.4h-5V2.9H201.3z M199.2,14.7c1.2,0,2.1-0.3,2.8-0.9c0.6-0.6,1-1.6,1-3.1
					c0-2.5-1.1-3.7-3.4-3.7h-2.3v7.8H199.2z"/>
			</g>
		</g>
		<path d="M0,2.9v31l6.7-4.1h21V2.9H0z M19.5,24.1l-5.6-3.8l-5.5,3.9l1.9-6.5l-5.4-4l6.8-0.2l2.2-6.4l2.3,6.4l6.8,0.1l-5.4,4.1
			L19.5,24.1z"/>
	</g>
</g>
</svg>
