<?xml version="1.0" encoding="utf-8"?>
<!-- Generator: Adobe Illustrator 18.0.0, SVG Export Plug-In . SVG Version: 6.00 Build 0)  -->
<!DOCTYPE svg PUBLIC "-//W3C//DTD SVG 1.1//EN" "http://www.w3.org/Graphics/SVG/1.1/DTD/svg11.dtd">
<svg version="1.1" xmlns="http://www.w3.org/2000/svg" xmlns:xlink="http://www.w3.org/1999/xlink" x="0px" y="0px"
	 viewBox="0 0 300 97.3" style="enable-background:new 0 0 300 97.3;" xml:space="preserve">
<style type="text/css">
	.st0{fill-rule:evenodd;clip-rule:evenodd;}
	.st1{fill-rule:evenodd;clip-rule:evenodd;fill:#C038F9;}
	.st2{fill:none;}
	.st3{fill-rule:evenodd;clip-rule:evenodd;fill:#231F20;}
</style>
<g id="Layer_2">
	<g>
		<path d="M95.1,20.5c0,3.5,0.1,4,2,4.2l1.1,0.1c0.2,0.1,0.1,0.7-0.1,0.8c-1.9-0.1-3.1-0.1-4.4-0.1c-1.4,0-2.5,0-4.7,0.1
			c-0.2-0.1-0.3-0.7,0-0.8l1.2-0.1c1.9-0.2,2.1-0.7,2.1-4.2V5.4c0-1,0-1.1-1-1.1h-1.9c-1.5,0-3.3,0.1-4.2,0.8
			c-0.8,0.7-1.1,1.5-1.5,2.3c-0.3,0.2-0.7,0-0.9-0.2c0.5-1.5,1-3.7,1.3-5c0.1-0.1,0.5-0.1,0.6,0c0.2,1.1,1.3,1,2.9,1h13.7
			c1.8,0,2.1-0.1,2.6-0.9c0.2-0.1,0.5,0,0.6,0.1c-0.4,1.4-0.6,4.1-0.5,5.1c-0.1,0.3-0.7,0.3-0.9,0.1c-0.1-0.8-0.3-2.1-0.8-2.5
			c-0.8-0.6-2.1-0.8-3.9-0.8h-2.4c-1,0-1,0-1,1.1V20.5z"/>
		<path d="M116.1,14.1c-1.6,0-1.7,0.1-1.7,1.1v4.8c0,3.5,0.2,4,2.1,4.2l1,0.1c0.2,0.1,0.1,0.7-0.1,0.8c-1.8-0.1-3-0.1-4.3-0.1
			c-1.5,0-2.6,0.1-3.9,0.1c-0.2-0.1-0.3-0.6-0.1-0.8l0.6-0.1c1.9-0.3,2-0.7,2-4.2V7.8c0-3.5-0.2-4.1-2-4.3l-0.9-0.1
			c-0.2-0.1-0.1-0.7,0.1-0.8c1.7,0,2.8,0.1,4.3,0.1c1.3,0,2.5,0,3.9-0.1c0.2,0.1,0.3,0.7,0.1,0.8l-0.6,0.1c-2,0.2-2,0.7-2,4.3v3.9
			c0,1,0.1,1.1,1.7,1.1h9.7c1.6,0,1.7,0,1.7-1.1V7.8c0-3.5-0.1-4.1-2.1-4.3l-0.6-0.1c-0.2-0.1-0.1-0.7,0.1-0.8
			c1.6,0.1,2.7,0.1,4.1,0.1c1.3,0,2.5,0,4-0.1c0.2,0.1,0.3,0.7,0.1,0.8l-0.7,0.1c-2,0.2-2,0.7-2,4.3v12.2c0,3.5,0.1,4,2,4.2l0.8,0.1
			c0.2,0.1,0.1,0.7-0.1,0.8c-1.6-0.1-2.8-0.1-4.1-0.1c-1.4,0-2.6,0-4.1,0.1c-0.2-0.1-0.3-0.6-0.1-0.8l0.6-0.1c2.1-0.3,2-0.7,2.1-4.2
			v-4.8c0-1-0.1-1.1-1.7-1.1H116.1z"/>
		<path d="M141,8.3c0-3.5-0.1-4-2.1-4.3L138.4,4c-0.2-0.1-0.1-0.7,0.1-0.8c1.5,0.1,2.6,0.1,4,0.1h6.3c2.2,0,4.2,0,4.6-0.1
			c0.2,0.6,0.4,3,0.5,4.5c-0.1,0.2-0.7,0.3-0.8,0.1c-0.5-1.6-0.8-2.8-2.6-3.2c-0.7-0.2-1.8-0.2-3.3-0.2h-2.4c-1,0-1,0.1-1,1.4v6.8
			c0,0.9,0.1,0.9,1.1,0.9h2c1.4,0,2.5-0.1,2.9-0.2c0.4-0.1,0.6-0.3,0.8-1.2l0.3-1.4c0.2-0.2,0.7-0.2,0.9,0c0,0.8-0.1,2.1-0.1,3.4
			c0,1.2,0.1,2.5,0.1,3.2c-0.1,0.2-0.7,0.2-0.9,0l-0.3-1.3c-0.1-0.6-0.4-1.1-1-1.3c-0.5-0.1-1.3-0.2-2.6-0.2h-2c-1,0-1.1,0-1.1,0.9
			v4.8c0,1.8,0.1,2.9,0.6,3.5c0.4,0.4,1.1,0.8,4.1,0.8c2.6,0,3.6-0.1,4.3-0.5c0.6-0.3,1.5-1.5,2.4-3.3c0.2-0.2,0.7-0.1,0.8,0.2
			c-0.2,1.2-1.1,3.8-1.5,4.7c-3-0.1-6-0.1-9-0.1h-3c-1.5,0-2.6,0-4.6,0.1c-0.2-0.1-0.3-0.6-0.1-0.8l1.1-0.1c1.9-0.2,2.1-0.7,2.1-4.2
			V8.3z"/>
		<path d="M7.3,49.1c-1.6,0-1.7,0.1-1.7,1.1V55c0,3.5,0.2,4,2.1,4.2l1,0.1c0.2,0.1,0.1,0.7-0.1,0.8C6.8,60,5.6,60,4.3,60
			c-1.5,0-2.6,0.1-3.9,0.1c-0.2-0.1-0.3-0.6-0.1-0.8l0.6-0.1c1.9-0.3,2-0.7,2-4.2V42.8c0-3.5-0.2-4.1-2-4.3L0,38.5
			c-0.2-0.1-0.1-0.7,0.1-0.8c1.7,0,2.8,0.1,4.3,0.1c1.3,0,2.5,0,3.9-0.1c0.2,0.1,0.3,0.7,0.1,0.8l-0.6,0.1c-2,0.2-2,0.7-2,4.3v3.9
			c0,1,0.1,1.1,1.7,1.1H17c1.6,0,1.7,0,1.7-1.1v-3.9c0-3.5-0.1-4.1-2.1-4.3l-0.6-0.1c-0.2-0.1-0.1-0.7,0.1-0.8
			c1.6,0.1,2.7,0.1,4.1,0.1c1.3,0,2.5,0,4-0.1c0.2,0.1,0.3,0.7,0.1,0.8l-0.7,0.1c-2,0.2-2,0.7-2,4.3V55c0,3.5,0.1,4,2,4.2l0.8,0.1
			c0.2,0.1,0.1,0.7-0.1,0.8C22.6,60,21.4,60,20.1,60c-1.4,0-2.6,0-4.1,0.1c-0.2-0.1-0.3-0.6-0.1-0.8l0.6-0.1c2.1-0.3,2-0.7,2.1-4.2
			v-4.8c0-1-0.1-1.1-1.7-1.1H7.3z"/>
		<path d="M48.4,46.2c0-2.1-0.1-6-0.6-7c-0.2-0.4-0.8-0.6-1.7-0.7l-0.8-0.1c-0.2-0.2-0.1-0.7,0.1-0.8c1.3,0.1,2.5,0.1,3.8,0.1
			c1.4,0,2.3,0,3.5-0.1c0.3,0.2,0.2,0.6,0.1,0.8l-0.8,0.1c-0.8,0.1-1.5,0.4-1.7,0.8c-0.5,1.1-0.5,5-0.5,6.9V50c0,2.9-0.5,6-2.4,8.1
			c-1.5,1.6-3.9,2.5-6.4,2.5c-2.3,0-4.7-0.4-6.3-1.9c-1.8-1.5-2.6-3.9-2.6-8v-8c0-3.5-0.1-4.1-2-4.3l-0.8-0.1
			c-0.2-0.1-0.1-0.7,0.1-0.8c1.7,0.1,2.8,0.1,4.2,0.1c1.4,0,2.5,0,4.2-0.1c0.2,0.1,0.3,0.7,0.1,0.8l-0.8,0.1c-2,0.2-2,0.7-2,4.3v7.3
			c0,5.4,1.7,9,6.9,9c4.9,0,6.8-3.8,6.8-9V46.2z"/>
		<path d="M62.2,47.3c0,0.9,0.1,0.9,1.1,0.9h2.3c1.4,0,2.5-0.1,2.9-0.2c0.4-0.1,0.6-0.3,0.8-1.2l0.3-1.4c0.2-0.2,0.7-0.2,0.9,0
			c0,0.8-0.1,2.2-0.1,3.4c0,1.2,0.1,2.5,0.1,3.3c-0.1,0.2-0.6,0.2-0.9,0l-0.3-1.3c-0.1-0.6-0.4-1.1-1.1-1.3
			c-0.5-0.1-1.3-0.2-2.6-0.2h-2.3c-1,0-1.1,0-1.1,0.9V55c0,3.5,0.1,4.1,2.1,4.2l1.1,0.1c0.2,0.1,0.1,0.7-0.1,0.8
			c-2-0.1-3.1-0.1-4.5-0.1c-1.5,0-2.6,0-4.2,0.1c-0.2-0.1-0.3-0.6-0.1-0.8l0.8-0.1c2-0.2,2-0.7,2-4.2V42.8c0-3.5-0.1-4-2-4.3
			l-0.5-0.1c-0.2-0.1-0.1-0.7,0.1-0.8c1.4,0.1,2.6,0.1,3.9,0.1h6.2c2.2,0,4.1,0,4.6-0.1c0,1.6,0,3.2,0.1,4.5
			c-0.1,0.2-0.6,0.3-0.8,0.1c-0.3-1.5-0.7-2.7-2.4-3.2c-0.7-0.2-1.9-0.2-3.3-0.2h-2.1c-1,0-1,0.1-1,1.4V47.3z"/>
		<path d="M81.9,47.3c0,0.9,0.1,0.9,1.1,0.9h2.3c1.4,0,2.5-0.1,2.9-0.2c0.4-0.1,0.6-0.3,0.8-1.2l0.3-1.4c0.2-0.2,0.7-0.2,0.9,0
			c0,0.8-0.1,2.2-0.1,3.4c0,1.2,0.1,2.5,0.1,3.3c-0.1,0.2-0.6,0.2-0.9,0L89,50.8c-0.1-0.6-0.4-1.1-1.1-1.3c-0.5-0.1-1.3-0.2-2.6-0.2
			H83c-1,0-1.1,0-1.1,0.9V55c0,3.5,0.1,4.1,2.1,4.2l1.1,0.1c0.2,0.1,0.1,0.7-0.1,0.8c-2-0.1-3.1-0.1-4.5-0.1c-1.5,0-2.6,0-4.2,0.1
			c-0.2-0.1-0.3-0.6-0.1-0.8l0.8-0.1c2-0.2,2-0.7,2-4.2V42.8c0-3.5-0.1-4-2-4.3l-0.5-0.1c-0.2-0.1-0.1-0.7,0.1-0.8
			c1.4,0.1,2.6,0.1,3.9,0.1h6.2c2.2,0,4.1,0,4.6-0.1c0,1.6,0,3.2,0.1,4.5c-0.1,0.2-0.6,0.3-0.8,0.1c-0.3-1.5-0.7-2.7-2.4-3.2
			c-0.7-0.2-1.9-0.2-3.3-0.2h-2.1c-1,0-1,0.1-1,1.4V47.3z"/>
		<path d="M99.6,42.9c0-3.6-0.1-4.2-2.1-4.3l-0.8-0.1c-0.2-0.1-0.1-0.7,0.1-0.8c1.7,0.1,2.8,0.1,4.3,0.1c1.4,0,2.5,0,4.2-0.1
			c0.2,0.1,0.3,0.7,0.1,0.8l-0.8,0.1c-2,0.2-2.1,0.7-2.1,4.3v12c0,3.6,0.1,4.1,2.1,4.3l0.8,0.1c0.2,0.1,0.1,0.7-0.1,0.8
			c-1.7-0.1-2.8-0.1-4.2-0.1c-1.4,0-2.6,0-4.3,0.1c-0.2-0.1-0.3-0.6-0.1-0.8l0.8-0.1c2-0.2,2.1-0.7,2.1-4.3V42.9z"/>
		<path d="M131.4,54.3c0,1,0,5,0.1,5.9c-0.1,0.2-0.3,0.4-0.6,0.4c-0.4-0.6-1.4-1.8-4.3-5.1l-7.8-8.9c-0.9-1-3.2-3.8-3.9-4.6h-0.1
			c-0.1,0.4-0.2,1.2-0.2,2.2v7.4c0,1.6,0.1,6,0.6,7c0.2,0.4,0.9,0.6,1.7,0.6l1,0.1c0.2,0.3,0.2,0.7-0.1,0.8
			c-1.5-0.1-2.7-0.1-3.9-0.1c-1.4,0-2.3,0-3.5,0.1c-0.2-0.2-0.3-0.6-0.1-0.8l0.9-0.1c0.8-0.1,1.3-0.3,1.5-0.7c0.5-1.2,0.4-5.3,0.4-7
			v-9.8c0-0.9,0-1.7-0.7-2.4c-0.5-0.5-1.3-0.7-2.1-0.8l-0.6-0.1c-0.2-0.2-0.2-0.7,0.1-0.8c1.4,0.1,3.2,0.1,3.8,0.1
			c0.5,0,1.1,0,1.6-0.1c0.7,1.7,4.7,6.2,5.8,7.4l3.3,3.7c2.3,2.6,4,4.5,5.6,6.1h0.1c0.1-0.2,0.1-0.7,0.1-1.4v-7.2c0-1.6,0-6-0.7-7
			c-0.2-0.3-0.7-0.5-2.1-0.7l-0.6-0.1c-0.2-0.2-0.2-0.7,0.1-0.8c1.6,0.1,2.7,0.1,4,0.1c1.5,0,2.3,0,3.5-0.1c0.3,0.2,0.3,0.6,0.1,0.8
			l-0.5,0.1c-1.1,0.2-1.8,0.4-1.9,0.7c-0.6,1.2-0.5,5.4-0.5,7V54.3z"/>
		<path d="M158,56.6c0,1.4,0.2,2.2,0.8,2.4c0.1,0.1,0.1,0.3,0,0.4c-0.4,0-1,0.1-1.7,0.3c-1.8,0.5-4.2,0.9-6,0.9
			c-4,0-7.7-1.1-10.3-3.7c-2-2-3.1-4.7-3.1-7.7c0-2.9,0.9-5.8,3-8c2.3-2.4,5.6-3.9,10.7-3.9c1.9,0,3.7,0.4,4.3,0.5
			c0.6,0.1,1.7,0.4,2.1,0.3c0,1.1,0.2,2.9,0.5,4.9c-0.1,0.3-0.7,0.3-0.9,0.1c-0.9-3.6-3.5-4.8-6.9-4.8c-6.5,0-9.4,4.7-9.4,9.7
			c0,6.5,3.3,11.6,10.1,11.6c2.1,0,3.3-0.4,3.7-1c0.2-0.2,0.3-0.8,0.3-1.9v-1.4c0-2.8-0.1-3-2.2-3.3l-1.5-0.2
			c-0.3-0.1-0.2-0.7,0-0.8c1,0.1,2.8,0.1,4.8,0.1c1.3,0,2.5,0,3.6-0.1c0.2,0.1,0.3,0.6,0,0.8l-0.5,0.1C158,52,158,53,158,54.7V56.6z
			"/>
		<path d="M175.5,55c0,3.5,0.1,4,2,4.2l1.1,0.1c0.2,0.1,0.1,0.7-0.1,0.8c-1.9-0.1-3.1-0.1-4.4-0.1c-1.4,0-2.5,0-4.7,0.1
			c-0.2-0.1-0.3-0.7,0-0.8l1.2-0.1c1.9-0.2,2.1-0.7,2.1-4.2V39.9c0-1,0-1.1-1-1.1h-1.9c-1.5,0-3.3,0.1-4.2,0.8
			c-0.8,0.7-1.1,1.5-1.5,2.3c-0.3,0.2-0.7,0-0.9-0.2c0.5-1.5,1-3.7,1.3-5c0.1-0.1,0.5-0.1,0.6,0c0.2,1.1,1.3,1,2.9,1h13.7
			c1.8,0,2.1-0.1,2.6-0.9c0.2-0.1,0.5,0,0.6,0.1c-0.4,1.4-0.6,4.1-0.5,5.1c-0.1,0.3-0.7,0.3-0.9,0.1c-0.1-0.8-0.3-2.1-0.8-2.5
			c-0.8-0.6-2.1-0.8-3.9-0.8h-2.4c-1,0-1,0-1,1.1V55z"/>
		<path d="M187.9,49.1c0-6.8,5.1-11.9,12-11.9c7.8,0,11.7,5.6,11.7,11.6c0,6.8-5.2,11.8-11.7,11.8C192.4,60.6,187.9,55.2,187.9,49.1
			z M208.2,49.8c0-5.6-2.5-11.6-8.9-11.6c-3.5,0-8.1,2.4-8.1,9.8c0,5,2.4,11.5,9.1,11.5C204.4,59.5,208.2,56.5,208.2,49.8z"/>
		<path d="M236.7,54.3c0,1,0,5,0.1,5.9c-0.1,0.2-0.3,0.4-0.6,0.4c-0.4-0.6-1.4-1.8-4.3-5.1l-7.8-8.9c-0.9-1-3.2-3.8-3.9-4.6H220
			c-0.1,0.4-0.2,1.2-0.2,2.2v7.4c0,1.6,0.1,6,0.6,7c0.2,0.4,0.9,0.6,1.7,0.6l1,0.1c0.2,0.3,0.2,0.7-0.1,0.8
			c-1.5-0.1-2.7-0.1-3.9-0.1c-1.4,0-2.3,0-3.5,0.1c-0.2-0.2-0.3-0.6-0.1-0.8l0.9-0.1c0.8-0.1,1.3-0.3,1.5-0.7c0.5-1.2,0.4-5.3,0.4-7
			v-9.8c0-0.9,0-1.7-0.7-2.4c-0.5-0.5-1.3-0.7-2.1-0.8l-0.6-0.1c-0.2-0.2-0.2-0.7,0.1-0.8c1.4,0.1,3.2,0.1,3.8,0.1
			c0.5,0,1.1,0,1.6-0.1c0.7,1.7,4.7,6.2,5.8,7.4l3.3,3.7c2.3,2.6,4,4.5,5.6,6.1h0.1c0.1-0.2,0.1-0.7,0.1-1.4v-7.2c0-1.6,0-6-0.7-7
			c-0.2-0.3-0.7-0.5-2.1-0.7l-0.6-0.1c-0.2-0.2-0.2-0.7,0.1-0.8c1.6,0.1,2.7,0.1,4,0.1c1.5,0,2.3,0,3.5-0.1c0.3,0.2,0.3,0.6,0.1,0.8
			l-0.5,0.1c-1.1,0.2-1.8,0.4-1.9,0.7c-0.6,1.2-0.5,5.4-0.5,7V54.3z"/>
		<path d="M82.4,90c0,3.5,0.1,4,2.2,4.2l0.9,0.1c0.2,0.2,0.1,0.7-0.1,0.8c-1.9-0.1-3-0.1-4.4-0.1c-1.4,0-2.6,0-4.1,0.1
			c-0.2-0.1-0.3-0.6-0.1-0.8l0.7-0.1c2-0.3,2-0.7,2-4.2V77.5c0-2.9-0.1-3.5-1.6-3.6l-1.2-0.1c-0.2-0.2-0.2-0.7,0.1-0.8
			c1.8-0.2,3.9-0.3,6.7-0.3c2.8,0,4.9,0.4,6.5,1.4c1.6,1,2.7,2.7,2.7,5.1c0,3.1-1.9,4.7-3.4,5.4c-1.5,0.7-3.3,1-4.7,1
			c-0.2-0.1-0.2-0.6,0-0.7c3.6-0.7,5-2.7,5-5.7c0-3.3-1.9-5.4-5.4-5.4c-1.8,0-1.8,0.1-1.8,1.2V90z"/>
		<path d="M96.4,84.1c0-6.8,5.1-11.9,12-11.9c7.8,0,11.7,5.6,11.7,11.6c0,6.8-5.2,11.8-11.7,11.8C100.9,95.6,96.4,90.2,96.4,84.1z
			 M116.8,84.8c0-5.6-2.5-11.6-8.9-11.6c-3.5,0-8.1,2.4-8.1,9.8c0,5,2.4,11.5,9.1,11.5C112.9,94.5,116.8,91.5,116.8,84.8z"/>
		<path d="M130.8,95.6c-2.8,0-4.6-0.9-5.3-1.2c-0.4-0.7-0.8-3.1-0.9-4.7c0.2-0.2,0.7-0.3,0.8-0.1c0.5,1.7,1.9,5,5.8,5
			c2.8,0,4.2-1.9,4.2-3.9c0-1.5-0.3-3.1-2.8-4.7l-3.2-2.1c-1.7-1.1-3.6-3-3.6-5.8c0-3.2,2.5-5.8,6.9-5.8c1,0,2.3,0.2,3.1,0.4
			c0.4,0.1,0.9,0.2,1.2,0.2c0.3,0.8,0.6,2.7,0.6,4.1c-0.1,0.2-0.7,0.3-0.8,0.1c-0.4-1.6-1.4-3.8-4.6-3.8c-3.3,0-4,2.2-4,3.7
			c0,2,1.6,3.3,2.9,4.2l2.7,1.7c2.1,1.3,4.2,3.3,4.2,6.5C138,93,135.2,95.6,130.8,95.6z"/>
		<path d="M154.4,90c0,3.5,0.1,4,2,4.2l1.1,0.1c0.2,0.1,0.1,0.7-0.1,0.8c-1.9-0.1-3.1-0.1-4.4-0.1c-1.4,0-2.5,0-4.7,0.1
			c-0.2-0.1-0.3-0.7,0-0.8l1.2-0.1c1.9-0.2,2.1-0.7,2.1-4.2V74.9c0-1,0-1.1-1-1.1h-1.9c-1.5,0-3.3,0.1-4.2,0.8
			c-0.8,0.7-1.1,1.5-1.5,2.3c-0.3,0.2-0.7,0-0.9-0.2c0.5-1.5,1-3.7,1.3-5c0.1-0.1,0.5-0.1,0.6,0c0.2,1.1,1.3,1,2.9,1h13.7
			c1.8,0,2.1-0.1,2.6-0.9c0.2-0.1,0.5,0,0.6,0.1c-0.4,1.4-0.6,4.1-0.5,5.1c-0.1,0.3-0.7,0.3-0.9,0.1c-0.1-0.8-0.3-2.1-0.8-2.5
			c-0.8-0.6-2.1-0.8-3.9-0.8h-2.4c-1,0-1,0-1,1.1V90z"/>
	</g>
</g>
<g id="Layer_1">
</g>
</svg>
