<?xml version="1.0" encoding="utf-8"?>
<!-- Generator: Adobe Illustrator 18.0.0, SVG Export Plug-In . SVG Version: 6.00 Build 0)  -->
<!DOCTYPE svg PUBLIC "-//W3C//DTD SVG 1.1//EN" "http://www.w3.org/Graphics/SVG/1.1/DTD/svg11.dtd">
<svg version="1.1" xmlns="http://www.w3.org/2000/svg" xmlns:xlink="http://www.w3.org/1999/xlink" x="0px" y="0px"
	 viewBox="0 0 300 56.7" style="enable-background:new 0 0 300 56.7;" xml:space="preserve">
<style type="text/css">
	.st0{fill-rule:evenodd;clip-rule:evenodd;}
	.st1{fill-rule:evenodd;clip-rule:evenodd;fill:#C038F9;}
	.st2{fill:none;}
	.st3{fill-rule:evenodd;clip-rule:evenodd;fill:#231F20;}
</style>
<g id="Layer_2">
</g>
<g id="Layer_1">
	<g>
		<path d="M0.1,48.7l4.2-7.5c2,2.6,5.3,4,8.2,4c3,0,5.1-2.3,5.1-5.5c0-8.9-16-8.9-16-24.1c0-7.5,5.1-14,14-14
			c4.2,0,8.1,1.4,10.9,4.1L22.8,13c-2-2-4.3-2.9-6.9-2.9c-2.7,0-4.7,2-4.7,5.1c0,7.8,16,8.9,16,24c0,8.5-5.5,14.6-14.1,14.6
			C7.5,53.7,3.3,51.9,0.1,48.7z"/>
		<path d="M33.9,52.7V19.9h-6.1v-8.1h21.4v8.1h-6v32.8H33.9z"/>
		<path d="M66.8,52.7l-1-6.6h-7.1l-1,6.6h-9.5l8.8-40.9h10.7l8.8,40.9H66.8z M62.2,22l-2.5,16h4.9L62.2,22z"/>
		<path d="M81.8,52.7V19.9h-6.1v-8.1h21.4v8.1h-6v32.8H81.8z"/>
		<path d="M101.1,52.7V11.9h19.3v8.1h-10v8h9.6V36h-9.6v8.6h10v8.1H101.1z"/>
		<path d="M126.1,52.7V2.4h9.5v50.3H126.1z"/>
		<path d="M167.1,52.7V30.9l-6.3,21.9h-3l-6.1-21.9v21.9h-9.3V11.9H154l5.3,18.7l5.5-18.7h11.5v40.9H167.1z"/>
		<path d="M181.4,52.7V11.9h12.3c8.5,0,12.4,6.3,12.4,13.3c0,7.1-3.9,13.2-12.4,13.2h-3.1v14.3H181.4z M196.7,25.1
			c0-3.1-1.5-5.2-4-5.2h-2v10.4h2C195.2,30.3,196.7,28.3,196.7,25.1z"/>
		<path d="M223.8,52.7l-1-6.6h-7.1l-1,6.6h-9.5l8.8-40.9h10.7l8.8,40.9H223.8z M219.2,22l-2.5,16h4.9L219.2,22z"/>
		<path d="M234.2,32.3c0-12.4,4.3-21.2,13.9-21.2c7.4,0,9.8,5.9,11.2,10.5l-7.4,2.7c-0.7-3.1-1.6-5-3.8-5c-3.3,0-4.4,5.2-4.4,12.9
			c0,7.7,1.1,12.9,4.4,12.9c2.4,0,3.4-2.5,3.9-5.8l7.4,2.6c-1.2,4.8-3.6,11.4-11.2,11.4C238.5,53.5,234.2,44.7,234.2,32.3z"/>
		<path d="M267.4,52.7V19.9h-6.1v-8.1h21.4v8.1h-6v32.8H267.4z"/>
	</g>
</g>
</svg>
