<?xml version="1.0" encoding="utf-8"?>
<!-- Generator: Adobe Illustrator 18.0.0, SVG Export Plug-In . SVG Version: 6.00 Build 0)  -->
<!DOCTYPE svg PUBLIC "-//W3C//DTD SVG 1.1//EN" "http://www.w3.org/Graphics/SVG/1.1/DTD/svg11.dtd">
<svg version="1.1" xmlns="http://www.w3.org/2000/svg" xmlns:xlink="http://www.w3.org/1999/xlink" x="0px" y="0px"
	 viewBox="0 0 300 57" style="enable-background:new 0 0 300 57;" xml:space="preserve">
<style type="text/css">
	.st0{fill-rule:evenodd;clip-rule:evenodd;}
	.st1{fill-rule:evenodd;clip-rule:evenodd;fill:#C038F9;}
	.st2{fill:none;}
	.st3{fill-rule:evenodd;clip-rule:evenodd;fill:#231F20;}
</style>
<g id="Layer_2">
	<g>
		<g>
			<path d="M65.1,22.3V3.4h7.5l3.3,11.8l3.3-11.8h7.5v18.8h-5.6v-5.8l0.1-2.9l0.3-3.4h-0.1L78,22.3h-4.3l-3.4-12.1h-0.1l0.3,2.8
				l0.1,2.9v6.4H65.1z"/>
			<path d="M89.7,22.3V3.4h6.2v18.8H89.7z"/>
			<path d="M111.7,13.7l-0.2-4.3v-6h5.9v18.8h-5.8L104.8,12l0.2,4.3v6h-5.9V3.4h5.8L111.7,13.7z"/>
			<path d="M133,13.7l-0.2-4.3v-6h5.9v18.8h-5.8L126.1,12l0.2,4.3v6h-5.9V3.4h5.8L133,13.7z"/>
			<path d="M141.9,22.3V3.4h15.4v4.4h-9.2v2.7h7.8v4.4h-7.8v3h9.6v4.4H141.9z"/>
			<path d="M170,8.9c-0.1-0.7-0.4-1-0.9-1.3c-0.4-0.2-1-0.3-1.6-0.3c-1.4,0-2,0.4-2,1.1c0,2.8,10.8,1.1,10.8,7.9
				c0,4.4-3.6,6.5-8.8,6.5c-5,0-8.2-2.9-8.4-6.3h5.9c0.1,0.7,0.5,1.2,1,1.5c0.5,0.3,1.2,0.5,1.8,0.5c1.5,0,2.6-0.5,2.6-1.4
				c0-2.9-10.8-0.9-10.8-8.1c0-4,3.5-6,8.2-6c5.2,0,7.6,2.7,8.1,6H170z"/>
			<path d="M197.5,12.8c0,6.4-4.3,10-9.9,10c-5.9,0-9.9-3.7-9.9-10.1c0-5.9,4-9.8,9.9-9.8C194.3,2.9,197.5,7.8,197.5,12.8z
				 M183.9,12.8c0,2.4,0.7,5.4,3.7,5.4c2.7,0,3.7-2.3,3.7-5.4c0-2.6-1-5.3-3.8-5.2C184.7,7.6,183.9,10.4,183.9,12.8z"/>
			<path d="M198.8,3.4h17.3v4.9h-5.6v13.9h-6.2V8.4h-5.6V3.4z"/>
			<path d="M214.2,22.3l6.8-18.8h6.3l6.8,18.8h-6.2l-0.7-2.5h-6.2l-0.7,2.5H214.2z M224,9.1l-1.9,6.8h3.9L224,9.1z"/>
			<path d="M65,53.7V34.9h9.1c5.4,0,8,2.5,8,6.4c0,4.1-2.4,6.6-7.8,6.6h-3.1v5.9H65z M73.7,43.5c1.4,0,2.5-0.6,2.5-2.2
				c0-1.8-2-2-3.3-2h-1.8v4.2H73.7z"/>
			<path d="M83.5,34.9h6.2v11.3c0,1.9,0.4,3.5,2.9,3.5c2.2,0,2.9-1.4,2.9-3.5V34.9h6.2v10.7c0,6-2.8,8.7-9.1,8.7
				c-5.8,0-9.1-2.2-9.1-8.7V34.9z"/>
			<path d="M104.5,53.7V34.9h9c4.2,0,7.6,1,7.6,4.7c0,1.9-1.3,3.4-2.5,4.1c2,0.5,3.1,2.3,3.1,4.3c0,4.2-3.2,5.7-8.1,5.7H104.5z
				 M110.7,39.3v3.1h2.6c1.2,0,2.1-0.5,2.1-1.6c0-1.5-1.2-1.5-2.5-1.5H110.7z M110.7,45.8v3.5h2.7c1.5,0,2.7-0.3,2.7-1.7
				c0-1.6-1.4-1.8-3.4-1.8H110.7z"/>
			<path d="M124.2,53.7V34.9h6.2v14.5h8.5v4.4H124.2z"/>
			<path d="M140.9,53.7V34.9h6.2v18.9H140.9z"/>
			<path d="M161.9,42.1c-0.2-2-1.4-3.1-3.4-3.1c-2.2,0-3.5,1.9-3.5,5.5c0,2.6,0.6,5.1,3.7,5.1c2,0,2.9-1.4,3.2-3.2h5.9
				c-0.6,4.9-4,7.8-9,7.8c-6.2,0-10-3.8-10-9.9c0-6.1,4.1-9.9,9.4-9.9c5.8,0,9,2.9,9.5,7.7H161.9z"/>
			<path d="M182.8,47.1v6.6h-6.2V34.9h8.9c6.3,0,8.4,1.7,8.4,5.4c0,2.2-1,4-3.2,4.6c2,0.7,3.2,1.2,3.2,5c0,2.5-0.1,3.3,0.7,3.3v0.6
				h-6.3c-0.2-0.4-0.3-1.6-0.3-3.3c0-2.5-0.4-3.3-3.3-3.3H182.8z M182.8,43h2.4c1.9,0,2.9-0.5,2.9-1.8c0-1.3-1-2-2.5-2h-2.9V43z"/>
			<path d="M194.9,53.7l6.8-18.9h6.3l6.8,18.9h-6.2l-0.7-2.5h-6.2l-0.7,2.5H194.9z M204.8,40.5l-1.9,6.8h3.9L204.8,40.5z"/>
			<path d="M215.9,53.7V34.9h8.3c6.1,0,9.8,2.8,9.8,9c0,7.1-4,9.8-10,9.8H215.9z M222.1,49.3h1.3c2.9,0,4.5-1.5,4.5-5.1
				c0-3.9-1.3-5-4.6-5h-1.2V49.3z"/>
			<path d="M235.8,53.7V34.9h6.2v18.9H235.8z"/>
			<path d="M264,44.2c0,6.4-4.3,10-9.9,10c-5.9,0-9.9-3.7-9.9-10.1c0-5.9,4-9.8,9.9-9.8C260.8,34.4,264,39.2,264,44.2z M250.4,44.2
				c0,2.4,0.7,5.4,3.7,5.4c2.7,0,3.7-2.3,3.7-5.4c0-2.6-1-5.3-3.8-5.2C251.2,39,250.4,41.8,250.4,44.2z"/>
		</g>
		<path d="M271.6,39.6c-0.3-0.4-0.5-0.7-0.7-0.9c-0.1-0.1-0.2-0.2-0.4-0.2c0.4,0,0.7-0.2,1-0.4c0.2-0.2,0.4-0.5,0.4-0.9
			c0-0.2-0.1-0.5-0.2-0.7c-0.1-0.2-0.3-0.4-0.6-0.4c-0.2-0.1-0.6-0.1-1.2-0.1h-1.6v4.6h0.7v-2h0.4c0.3,0,0.5,0.1,0.6,0.2
			c0.2,0.1,0.5,0.5,0.8,1.1l0.4,0.7h0.9L271.6,39.6z M270,37.9h-0.9v-1.4h0.8c0.4,0,0.6,0,0.7,0.1c0.1,0.1,0.2,0.1,0.3,0.2
			c0.1,0.1,0.1,0.2,0.1,0.4c0,0.2-0.1,0.4-0.2,0.5C270.7,37.8,270.4,37.9,270,37.9z"/>
		<path d="M273.9,36c-0.4-0.7-0.9-1.2-1.6-1.6c-0.7-0.4-1.4-0.6-2.1-0.6s-1.4,0.2-2.1,0.6c-0.7,0.4-1.2,0.9-1.6,1.6
			c-0.4,0.7-0.6,1.4-0.6,2.1c0,0.7,0.2,1.4,0.6,2.1c0.4,0.7,0.9,1.2,1.6,1.6c0.7,0.4,1.4,0.6,2.1,0.6c0.7,0,1.4-0.2,2.1-0.6
			c0.7-0.4,1.2-0.9,1.6-1.6c0.4-0.7,0.6-1.4,0.6-2.1C274.5,37.4,274.3,36.7,273.9,36z M273.3,39.9c-0.3,0.6-0.8,1-1.3,1.3
			c-0.6,0.3-1.2,0.5-1.8,0.5c-0.6,0-1.2-0.2-1.8-0.5c-0.6-0.3-1-0.8-1.3-1.3c-0.3-0.6-0.5-1.2-0.5-1.8c0-0.6,0.2-1.2,0.5-1.8
			c0.3-0.6,0.8-1,1.3-1.3c0.6-0.3,1.1-0.5,1.7-0.5c0.6,0,1.2,0.2,1.7,0.5c0.6,0.3,1,0.7,1.3,1.3c0.3,0.6,0.5,1.2,0.5,1.8
			C273.8,38.7,273.6,39.3,273.3,39.9z"/>
		<path d="M271.6,39.6c-0.3-0.4-0.5-0.7-0.7-0.9c-0.1-0.1-0.2-0.2-0.4-0.2c0.4,0,0.7-0.2,1-0.4c0.2-0.2,0.4-0.5,0.4-0.9
			c0-0.2-0.1-0.5-0.2-0.7c-0.1-0.2-0.3-0.4-0.6-0.4c-0.2-0.1-0.6-0.1-1.2-0.1h-1.6v4.6h0.7v-2h0.4c0.3,0,0.5,0.1,0.6,0.2
			c0.2,0.1,0.5,0.5,0.8,1.1l0.4,0.7h0.9L271.6,39.6z M270,37.9h-0.9v-1.4h0.8c0.4,0,0.6,0,0.7,0.1c0.1,0.1,0.2,0.1,0.3,0.2
			c0.1,0.1,0.1,0.2,0.1,0.4c0,0.2-0.1,0.4-0.2,0.5C270.7,37.8,270.4,37.9,270,37.9z"/>
		<path d="M271.6,39.6c-0.3-0.4-0.5-0.7-0.7-0.9c-0.1-0.1-0.2-0.2-0.4-0.2c0.4,0,0.7-0.2,1-0.4c0.2-0.2,0.4-0.5,0.4-0.9
			c0-0.2-0.1-0.5-0.2-0.7c-0.1-0.2-0.3-0.4-0.6-0.4c-0.2-0.1-0.6-0.1-1.2-0.1h-1.6v4.6h0.7v-2h0.4c0.3,0,0.5,0.1,0.6,0.2
			c0.2,0.1,0.5,0.5,0.8,1.1l0.4,0.7h0.9L271.6,39.6z M270,37.9h-0.9v-1.4h0.8c0.4,0,0.6,0,0.7,0.1c0.1,0.1,0.2,0.1,0.3,0.2
			c0.1,0.1,0.1,0.2,0.1,0.4c0,0.2-0.1,0.4-0.2,0.5C270.7,37.8,270.4,37.9,270,37.9z"/>
		<path d="M25.5,53.4C11.5,53.4,0,42,0,27.9S11.5,2.3,25.5,2.3s25.5,11.5,25.5,25.5S39.6,53.4,25.5,53.4z M25.5,14.7
			c-7.3,0-13.2,5.9-13.2,13.2c0,7.3,5.9,13.2,13.2,13.2s13.2-5.9,13.2-13.2C38.7,20.6,32.8,14.7,25.5,14.7z"/>
	</g>
</g>
<g id="Layer_1">
</g>
</svg>
