<?xml version="1.0" encoding="utf-8"?>
<!-- Generator: Adobe Illustrator 18.0.0, SVG Export Plug-In . SVG Version: 6.00 Build 0)  -->
<!DOCTYPE svg PUBLIC "-//W3C//DTD SVG 1.1//EN" "http://www.w3.org/Graphics/SVG/1.1/DTD/svg11.dtd">
<svg version="1.1" xmlns="http://www.w3.org/2000/svg" xmlns:xlink="http://www.w3.org/1999/xlink" x="0px" y="0px"
	 viewBox="0 0 300 46.7" style="enable-background:new 0 0 300 46.7;" xml:space="preserve">
<style type="text/css">
	.st0{fill-rule:evenodd;clip-rule:evenodd;}
	.st1{fill-rule:evenodd;clip-rule:evenodd;fill:#C038F9;}
	.st2{fill:none;}
	.st3{fill-rule:evenodd;clip-rule:evenodd;fill:#231F20;}
</style>
<g id="Layer_2">
</g>
<g id="Layer_1">
	<g>
		<path class="st3" d="M5.4,17.4c0.6-1.5,1.4-2.8,2.4-3.6c0.1-0.1,0.3-0.1,0.4-0.1c0.1,0,0.5,0,1,0c0.3,0,0.6,0,0.8,0.1
			c0.2,0,0.5,0.1,0.7,0.2c0.3,0.1,0.5,0.3,0.9,0.5l-4.2,3.4l1,0.8v11.2c-1.1-0.5-1.9-1.3-2.6-2.4c-0.8-1.4-1.2-3.4-1.2-5.8
			C4.6,20.4,4.9,19,5.4,17.4L5.4,17.4z M5,13.1c0.2,0,0.6,0,1,0.1c0.4,0.1,0.8,0.2,1.1,0.2c-2.3,1-4.1,2.7-5.4,5.1
			C0.6,20.7,0,23,0,25.5c0,3.1,1.1,5.7,3.2,7.9c2.1,2.2,4.7,3.3,7.8,3.3c2.9,0,5.4-1.1,7.5-3.4c2-2.2,3-4.9,3-8
			c-0.3,0.6-0.6,1.2-0.9,1.6c-0.3,0.4-0.8,0.9-1.5,1.4c-0.4,0.4-0.8,0.6-1.1,0.8c-0.3,0.2-0.8,0.4-1.3,0.6v-15
			c0.7-0.3,1.2-0.6,1.6-0.9c0.4-0.3,0.8-0.7,1.3-1.3c1.2-1.4,1.9-2.9,2-4.5c-0.9,0.6-1.7,1-2.4,1.3c-0.7,0.3-1.5,0.5-2.4,0.5
			c-0.1,0-0.3,0-0.6,0c-1,0-2.4-0.4-4.4-1.1C9.9,8,8.4,7.6,7.3,7.6c-2.2,0-4,1-5.3,3.1c-1.2,1.8-1.8,4-1.8,6.5
			c0.2-0.8,0.6-1.5,1.2-2.2c0.4-0.5,1-0.9,1.6-1.3C3.7,13.3,4.3,13.1,5,13.1L5,13.1z M25.3,36.4l3.6-4l-1.8-1.9V19.6l1-0.7l2.9,2.2
			v14.3c0,0.8,0,1.5-0.1,2.1c-0.1,0.6-0.3,1.1-0.6,1.5c-0.2,0.3-0.6,0.7-1,1.3c-0.5,0.6-1,1-1.7,1.4c1.4-0.1,2.5-0.5,3.4-0.9
			c0.9-0.5,1.8-1.3,2.7-2.3c0.7-0.8,1.2-1.6,1.6-2.3c0.3-0.8,0.6-1.6,0.7-2.5v-16l-1.2,0.1l-3.9-2.6L28,17.3L27,16.8V8.8l-0.8-1.8
			l-3.7,3.6v20.5l-1.1,1.3L25.3,36.4L25.3,36.4z M37.7,31.8l6.7,4.2l6.4-6.7l-3.5,2.5l-4.2-3V26l7.6-5.7l-4.8-6.5l-7.7,5.4v11.7
			L37.7,31.8L37.7,31.8z M60,10.9v7.8c-0.6,0.1-1,0.2-1.4,0.3c-0.3,0.1-0.7,0.4-1.1,0.7c-1.1,0.9-1.7,2-1.7,3.3c0,0.2,0,0.5,0,0.7
			c0,0.2,0.1,0.4,0.1,0.6c0.4-0.3,0.8-0.6,1.1-0.7c0.4-0.1,0.8-0.2,1.4-0.2c0.3,0,0.5,0,0.7,0.1c0.2,0.1,0.4,0.2,0.8,0.3v7.7
			l5.7,5.8l5.3-5.4l6.4,5.4l9.3-9V12.9L81,8.5l-4.2,3.8l-5.8-3.8l-5.2,4.3v-2.5c0-0.8-0.6-1.8-1.8-2.8c-0.4-0.2-0.7-0.5-1-0.8
			c-0.3-0.3-0.5-0.6-0.6-1.1c-0.1-0.5-0.1-0.9-0.1-1.2c0-0.9,0.3-1.7,1-2.3C62.9,2,62.7,2,62.6,2c-1.2,0-2.4,0.5-3.3,1.6
			c-1,1-1.4,2.2-1.4,3.5c0,0.2,0,0.5,0.1,0.8C58.2,9.2,58.9,10.2,60,10.9L60,10.9z M87.9,32l5.2,3.6l3.7-3.5l4.5,3.1l3.8-4.1h-1.3
			l-1.7-1.8V17.2l-0.9,0.2l-4.3-3.6l-8.2,5.7v12L87.9,32L87.9,32z M112.7,14.5c-0.5-0.2-1-0.5-1.5-0.9l-6.8,4.8v8.1l0.6,0.5h4
			l-5.2,9.1c0.8-0.7,1.4-1.2,1.9-1.4c0.6-0.3,1.3-0.5,2-0.5c0.9,0,1.6,0.1,2.2,0.3c0.6,0.2,1.1,0.6,1.7,1.1l6.7-5.2v-8.2l-0.5-0.5
			h-4.5v-0.4l4-7c-0.4,0.3-0.8,0.4-1,0.4c-0.3,0-0.7,0.1-1.2,0.1h-0.9C113.7,14.8,113.2,14.7,112.7,14.5L112.7,14.5z M123.3,35.8
			l3.7-4.1l-1.8-1.9V19l1-0.7l3,2.2v14.2c0,0.8,0,1.5-0.1,2.1c-0.1,0.5-0.3,1-0.7,1.5c-0.2,0.3-0.5,0.7-0.9,1.2
			c-0.5,0.6-1.1,1.1-1.8,1.4c1.3-0.1,2.4-0.4,3.4-0.9c1-0.5,1.9-1.3,2.8-2.3c0.6-0.8,1.1-1.5,1.5-2.4c0.4-0.8,0.6-1.7,0.7-2.5v-16
			l-1.2,0.1l-4-2.6l-2.8,2.3l-0.9-0.5V8.3l-0.8-1.8l-3.7,3.6v20.6l-1.1,1.3L123.3,35.8L123.3,35.8z M143.3,11.2l-3.7-3l-3,3.3
			l3.2,2.9L143.3,11.2L143.3,11.2z M137.4,20.6v11.3l-0.8,1.2h1.4l3.2,2.7l3.4-3.1l4.4,3.5l3.8-4.2l-1.2-1.5V19.9l1-0.5l2.2,2.4
			v10.4l3.9,3.4l3.7-4.2h-1.7l-1-1.6V18.4l0.5-1l-1,0.2l-3.8-3l-3.7,3.9l-4.4-3.5l-3.6,4h1.4l1.2,1.4v10.4l-2.4,0.8l-1.5-1.2V18.8
			l0.5-0.7l-4.3-3.2l-3.5,3.7l1.2,0.4L137.4,20.6L137.4,20.6z M212.3,31.5l-1.2-1.5V19.4l1-0.5l2.2,2.4v10.5l3.9,3.3l3.7-4.2h-1.7
			l-1-1.6V17.9l0.5-1l-1,0.2l-3.8-3l-3.7,3.9l-4.4-3.5l-3.6,4h1.4l1.2,1.4v10.5l-1.5,2l4.6,3L212.3,31.5L212.3,31.5z M163.3,31.6
			c0.6,0,1.1,0.1,1.5,0.2c0.5,0.1,0.9,0.4,1.4,0.7c0.4,0.3,0.8,0.7,1,1c0.2,0.3,0.4,0.8,0.5,1.3l-2.2,2.8l-2.3,3.1
			c0.6-0.3,1.1-0.5,1.5-0.6c0.4-0.1,1-0.1,1.8-0.1c0.9,0.1,1.7,0.3,2.4,0.7c0.7,0.4,1.3,0.9,1.8,1.6c1.3-0.5,2.9-1.6,4.6-3.3
			c1.8-1.7,2.6-3.1,2.6-4.2c0-0.2-0.2-0.8-0.6-1.8c-0.4-1-0.6-2.1-0.6-3.2v-13l-5.8-3.6l-7.3,5.2v12.3L163.3,31.6L163.3,31.6z
			 M177.7,17.4h2.4v14.5l-0.6,1.1h1.4l3,2.3l3.9-4.5h-1.7l-1.1-1.2v-12l2.5-3h-2.5v-8l-5,4.6v3.2L177.7,17.4L177.7,17.4z
			 M188.3,31.6l5.2,3.7l9-6.3V16.8l-0.9,0.2l-4.3-3.7L189,19v12L188.3,31.6L188.3,31.6z M230.5,11v3.9c-0.7,0-1.3,0.1-1.8,0.2
			c-0.5,0.2-1,0.5-1.4,0.9c-0.5,0.4-0.7,1-0.8,1.5c-0.1,0.6-0.1,1.3-0.1,2.3c0,0.4,0,0.7,0,0.8c0.6-1,1.5-1.4,2.5-1.2
			c0.7,0.1,1.3,0.4,1.7,0.9v6.5c-1.3,0.7-2.4,1.5-3.3,2.6c-1.1,1.3-1.8,2.5-2.1,3.9c0.6-0.4,1.1-0.8,1.5-1c0.4-0.2,1-0.4,1.7-0.6
			c0.3-0.1,0.6-0.2,1-0.3c0.4-0.1,0.8-0.1,1.2-0.1v12.5l5.5-4.5l1.8,1.3v-7.1l2.3,0.8l7.9-5.5V10.5l-5-4l-5.2,4.3V8.5l-1-0.8v3.7
			l-0.8,0.6V8.1l-4.2-3.2l-5,5c0.4-0.3,0.8-0.4,1.3-0.4c0.4,0,0.7,0.1,1,0.2C229.8,9.8,230.3,10.3,230.5,11L230.5,11z M248.7,32
			l5.2,3.6l9-6.3V17.2l-0.9,0.2l-4.4-3.6l-8.2,5.7v12L248.7,32L248.7,32z M272.7,14.3c-0.4-0.2-0.9-0.5-1.5-0.9l-6.7,4.7v8.1
			l0.6,0.5h4l-5.2,9.1c0.6-0.5,1.1-0.9,1.5-1.1c0.7-0.5,1.6-0.7,2.5-0.7c0.9,0,1.6,0.1,2.1,0.3c0.6,0.2,1.1,0.6,1.7,1.1l6.7-5.2V22
			l-0.5-0.5h-4.5v-0.4l4-7c-0.4,0.3-0.8,0.4-1,0.4c-0.3,0-0.7,0.1-1.2,0.1h-0.9C273.6,14.6,273.1,14.5,272.7,14.3L272.7,14.3z
			 M278.3,17.6h2.4V32l-0.6,1.1h1.4l3,2.3l4-4.5h-1.7l-1.1-1.2v-12l2.4-3h-2.4v-8l-5,4.6v3.2L278.3,17.6L278.3,17.6z M93.5,18
			l3.2,2.4v9.7l-1,1.1l-2.2-1.9V18L93.5,18z M174.2,35c0.7,0.5,1,1.1,1,1.8c0,0.3,0,0.6-0.1,0.7c-0.2,0.3-0.3,0.4-0.4,0.5
			c-0.2,0.2-0.5,0.4-0.8,0.4c-0.4,0.1-0.8-0.1-1.4-0.5c-0.6-0.4-1.5-0.6-2.6-0.6c-0.8,0-1.4,0.1-2,0.2c-0.6,0.1-1.2,0.4-1.9,0.7
			l6.1-7.5v1c0,0.6,0,1,0.1,1.4c0.1,0.4,0.3,0.7,0.6,1C173.2,34.5,173.7,34.8,174.2,35L174.2,35z M168.8,17.5l3.2,2.3v9.4l-0.9,1
			l-2.2-2.2V17.5L168.8,17.5z M43.1,24.8v-6.1l3,3.8L43.1,24.8L43.1,24.8z M114.5,17.9l-2.8,5h-2.1v-5.5c0.8,0.5,1.7,0.8,2.7,0.8
			C113,18.3,113.8,18.1,114.5,17.9L114.5,17.9z M193.9,17.5l3.2,2.5v9.7l-1,1.1l-2.2-2V17.5L193.9,17.5z M110.3,26h3v5.4
			c-0.6-0.2-1-0.3-1.3-0.4c-0.3,0-0.9-0.1-1.8-0.1c-0.6,0-1.1,0.1-1.6,0.2c-0.4,0.1-1,0.3-1.6,0.5L110.3,26L110.3,26z M236,14.6
			l0.8-0.7v23.8l-0.8-0.5V14.6L236,14.6z M237.8,13.3l2.5-1.6l1.8,1.3v15.7c-0.9-0.5-1.3-0.8-1.4-0.8c-0.1,0-0.4-0.1-0.9-0.3
			c-0.7-0.2-1.4-0.3-2-0.5V13.3L237.8,13.3z M15.2,15.1c0.3,0,0.5,0,0.7-0.1v15.2c-1.1,0.5-2.2,0.8-3.4,0.8c-0.7,0-1.4-0.1-2.1-0.2
			c-0.7-0.2-1.2-0.4-1.6-0.7l4.7-4.7V14.9c0.2,0.1,0.4,0.2,0.6,0.2c0.2,0,0.4,0,0.5,0C14.8,15.1,15,15.1,15.2,15.1L15.2,15.1z
			 M254.4,18l3.2,2.4v9.7l-1,1.1l-2.3-1.9V18L254.4,18z M65.8,14l1.5-1.2l3.2,3.2v15l-1.3,1.3L65.8,29V14L65.8,14z M273.3,18
			c0.4-0.1,0.7-0.2,1-0.3l-2.8,5h-2.1v-5.5c0.9,0.5,1.8,0.8,2.8,0.8C272.6,18,273,18,273.3,18L273.3,18z M270.2,25.8h3v5.4
			c-0.6-0.2-1-0.3-1.3-0.4c-0.3,0-0.9-0.1-1.8-0.1c-0.6,0-1.1,0.1-1.6,0.2c-0.4,0.1-1,0.3-1.5,0.5L270.2,25.8L270.2,25.8z M76.7,14
			l1.5-1.2l3.2,3.2v15l-1.3,1.3L76.7,29V14L76.7,14z"/>
	</g>
</g>
</svg>
