<?xml version="1.0" encoding="utf-8"?>
<!-- Generator: Adobe Illustrator 18.0.0, SVG Export Plug-In . SVG Version: 6.00 Build 0)  -->
<!DOCTYPE svg PUBLIC "-//W3C//DTD SVG 1.1//EN" "http://www.w3.org/Graphics/SVG/1.1/DTD/svg11.dtd">
<svg version="1.1" xmlns="http://www.w3.org/2000/svg" xmlns:xlink="http://www.w3.org/1999/xlink" x="0px" y="0px"
	 viewBox="0 0 300 41" style="enable-background:new 0 0 300 41;" xml:space="preserve">
<style type="text/css">
	.st0{fill-rule:evenodd;clip-rule:evenodd;}
	.st1{fill-rule:evenodd;clip-rule:evenodd;fill:#C038F9;}
	.st2{fill:none;}
	.st3{fill-rule:evenodd;clip-rule:evenodd;fill:#231F20;}
</style>
<g id="Layer_2">
	<g>
		<g>
			<path d="M89.3,27.1c0.9,1.8,1.7,3.6,2.7,5.3H92c1-1.8,2-3.8,3-5.8l3.6-7.4c1.8-3.5,2.9-5.6,2.9-7.4c1.3,0.1,2.1,0.1,2.9,0.1
				c1,0,2.2,0,3.4-0.1c0.2,0.2,0.2,0.8,0,1l-0.8,0.1c-2.4,0.3-2.7,1-2.7,3.7c0.1,4.1,0.1,11.2,0.4,16.8c0.1,1.9,0.1,2.9,1.9,3.1
				l1.2,0.1c0.2,0.2,0.2,0.8-0.1,1c-1.6-0.1-3.2-0.1-4.6-0.1c-1.4,0-3.1,0-4.7,0.1c-0.3-0.2-0.3-0.7-0.1-1l1.1-0.1
				c1.9-0.2,1.9-0.8,1.9-3.3l-0.1-16.1h-0.1c-0.3,0.4-1.7,3.5-2.5,5l-3.4,6.8c-1.7,3.4-3.5,7-4.2,8.8c-0.1,0.1-0.2,0.2-0.4,0.2
				c-0.1,0-0.3,0-0.3-0.2c-0.7-2-2.5-5.8-3.4-7.7l-3.5-7.4c-0.8-1.8-1.6-3.8-2.5-5.6h-0.1c-0.2,2.4-0.3,4.6-0.4,6.9
				c-0.1,2.4-0.3,5.8-0.3,9.1c0,2.9,0.2,3.5,1.7,3.6l1.5,0.1c0.3,0.2,0.2,0.8,0,1c-1.3-0.1-2.8-0.1-4.3-0.1c-1.2,0-2.6,0-3.9,0.1
				c-0.2-0.2-0.3-0.8-0.1-1l0.8-0.1c1.6-0.2,2.2-0.5,2.4-3.2c0.2-2.5,0.4-4.7,0.7-8.5c0.2-3.2,0.3-6.5,0.4-8.6
				c0.1-2.4-0.2-2.9-2.6-3.3l-0.6-0.1c-0.2-0.2-0.2-0.8,0.2-1c1.2,0.1,2.1,0.1,3,0.1c0.9,0,1.9,0,3.2-0.1c-0.2,1.5,0.8,3.9,2,6.4
				L89.3,27.1z"/>
			<path d="M114.6,19.5c2.2-1.7,5-2.6,8.2-2.6c1.6,0,3.9,0.3,5.4,0.7c0.4,0.1,0.6,0.2,0.9,0.1c0,0.7,0.2,2.6,0.4,4.5
				c-0.2,0.2-0.6,0.2-0.8,0.1c-0.5-2.1-1.8-4.4-6.2-4.4c-4.6,0-8.6,2.9-8.6,9.2c0,6.4,4,9.9,9,9.9c3.9,0,5.7-2.6,6.4-4.3
				c0.2-0.2,0.7-0.1,0.8,0.1c-0.2,1.6-1,3.6-1.5,4.2c-0.4,0.1-0.7,0.2-1.1,0.3c-0.7,0.2-2.9,0.7-4.8,0.7c-2.7,0-5.3-0.5-7.6-2
				c-2.4-1.7-4.3-4.4-4.3-8.4C110.8,24.1,112.3,21.2,114.6,19.5z"/>
			<path d="M137.2,14.6c2.8-2.2,6.4-3.3,10.4-3.3c2.1,0,5,0.4,6.8,0.9c0.5,0.1,0.7,0.2,1.1,0.2c0,0.9,0.2,3.3,0.5,5.7
				c-0.2,0.3-0.8,0.3-1,0.1c-0.6-2.6-2.3-5.6-7.9-5.6c-5.9,0-10.9,3.7-10.9,11.7c0,8.1,5.1,12.6,11.5,12.6c5,0,7.2-3.2,8.1-5.5
				c0.3-0.2,0.8-0.1,1,0.2c-0.3,2-1.3,4.6-1.9,5.3c-0.5,0.1-0.9,0.2-1.4,0.4c-0.8,0.3-3.6,0.9-6.1,0.9c-3.5,0-6.8-0.7-9.6-2.6
				c-3.1-2.1-5.5-5.6-5.5-10.6C132.3,20.6,134.2,16.9,137.2,14.6z"/>
			<path d="M161.8,20.2c0-3.5-0.1-4.1-2.2-4.3l-0.8-0.1c-0.2-0.1-0.1-0.7,0.1-0.8c1.9,0.1,3,0.1,4.4,0.1c1.3,0,2.5,0,4.2-0.1
				c0.2,0.1,0.3,0.7,0.1,0.8l-0.8,0.1c-2,0.2-2.1,0.7-2.1,4.3v11.7c0,2.1,0.1,3,0.7,3.6c0.4,0.4,1,0.8,3.7,0.8
				c2.9,0,3.6-0.1,4.1-0.4c0.7-0.4,1.6-1.6,2.2-3.3c0.2-0.2,0.8,0,0.8,0.2c0,0.4-0.9,3.8-1.4,4.7c-1.7-0.1-4.9-0.1-8.4-0.1h-3.1
				c-1.4,0-2.5,0-4.4,0.1c-0.2-0.1-0.3-0.6-0.1-0.8l1-0.1c2-0.2,2-0.7,2-4.2V20.2z"/>
			<path d="M190.3,29.6c-0.2-0.7-0.4-0.8-1.4-0.8h-5.1c-0.8,0-1,0.1-1.3,0.8l-1.2,3.5c-0.5,1.5-0.7,2.4-0.7,2.8c0,0.4,0.2,0.6,1,0.7
				l1.1,0.1c0.2,0.2,0.2,0.7-0.1,0.8c-0.9-0.1-1.9-0.1-3.5-0.1c-1.1,0-2.3,0.1-3.2,0.1c-0.2-0.1-0.3-0.7-0.1-0.8l1.1-0.1
				c0.8-0.1,1.6-0.4,2-1.7c0.6-1.6,1.6-3.7,3-7.5l3.4-9.1c0.5-1.2,0.7-1.9,0.6-2.4c0.8-0.2,1.4-0.8,1.8-1.3c0.2,0,0.4,0.1,0.5,0.3
				c0.4,1.5,1,3,1.5,4.5l4.6,13.6c1,2.9,1.4,3.4,2.9,3.6l0.9,0.1c0.2,0.2,0.2,0.7,0,0.8c-1.4-0.1-2.6-0.1-4.1-0.1
				c-1.6,0-2.9,0.1-3.9,0.1c-0.3-0.1-0.3-0.7-0.1-0.8l1-0.1c0.7-0.1,1.2-0.3,1.2-0.6c0-0.4-0.2-1-0.4-1.8L190.3,29.6z M183.6,26.6
				c-0.3,0.8-0.2,0.8,0.7,0.8h4.2c1,0,1-0.1,0.7-1l-1.8-5.5c-0.3-0.8-0.6-1.7-0.8-2.1h-0.1c-0.1,0.2-0.4,1-0.8,2L183.6,26.6z"/>
			<path d="M208.6,32.3c0,3.5,0.1,4,2,4.2l1.1,0.1c0.2,0.1,0.1,0.7-0.1,0.8c-1.9-0.1-3.1-0.1-4.4-0.1c-1.4,0-2.5,0-4.7,0.1
				c-0.2-0.1-0.3-0.7,0-0.8l1.2-0.1c1.9-0.2,2.1-0.7,2.1-4.2V17.3c0-1,0-1.1-1-1.1H203c-1.5,0-3.3,0.1-4.2,0.8
				c-0.8,0.7-1.1,1.5-1.5,2.3c-0.3,0.2-0.7,0-0.9-0.2c0.5-1.5,1-3.7,1.3-5c0.1-0.1,0.5-0.1,0.6,0c0.2,1.1,1.3,1,2.9,1h13.7
				c1.8,0,2.1-0.1,2.6-0.9c0.2-0.1,0.5,0,0.6,0.1c-0.4,1.4-0.6,4.1-0.5,5.1c-0.1,0.3-0.7,0.3-0.9,0.1c-0.1-0.8-0.3-2.1-0.8-2.5
				c-0.8-0.6-2.1-0.8-3.9-0.8h-2.4c-1,0-1,0-1,1.1V32.3z"/>
			<path d="M223.4,17.5c2.5-1.9,5.6-2.9,9.1-2.9c1.8,0,4.4,0.4,6,0.8c0.4,0.1,0.6,0.2,0.9,0.1c0,0.8,0.2,2.9,0.5,5
				c-0.2,0.2-0.7,0.3-0.9,0.1c-0.5-2.3-2-4.9-6.9-4.9c-5.2,0-9.6,3.3-9.6,10.3c0,7.1,4.5,11,10,11c4.4,0,6.3-2.8,7.1-4.8
				c0.2-0.2,0.7-0.1,0.9,0.1c-0.2,1.8-1.1,4-1.6,4.6c-0.4,0.1-0.8,0.2-1.2,0.3c-0.7,0.3-3.2,0.8-5.3,0.8c-3,0-5.9-0.6-8.4-2.3
				c-2.7-1.9-4.8-4.9-4.8-9.3C219.2,22.7,220.9,19.5,223.4,17.5z"/>
			<path d="M249.3,26.5c-1.6,0-1.7,0.1-1.7,1.1v4.8c0,3.5,0.2,4,2.1,4.2l1,0.1c0.2,0.1,0.1,0.7-0.1,0.8c-1.8-0.1-3-0.1-4.3-0.1
				c-1.5,0-2.6,0.1-3.9,0.1c-0.2-0.1-0.3-0.6-0.1-0.8l0.6-0.1c1.9-0.3,2-0.7,2-4.2V20.2c0-3.5-0.2-4.1-2-4.3l-0.9-0.1
				c-0.2-0.1-0.1-0.7,0.1-0.8c1.7,0,2.8,0.1,4.3,0.1c1.3,0,2.5,0,3.9-0.1c0.2,0.1,0.3,0.7,0.1,0.8l-0.6,0.1c-2,0.2-2,0.7-2,4.3v3.9
				c0,1,0.1,1.1,1.7,1.1h9.7c1.6,0,1.7,0,1.7-1.1v-3.9c0-3.5-0.1-4.1-2.1-4.3l-0.6-0.1c-0.2-0.1-0.1-0.7,0.1-0.8
				c1.6,0.1,2.7,0.1,4.1,0.1c1.3,0,2.5,0,4-0.1c0.2,0.1,0.3,0.7,0.1,0.8l-0.7,0.1c-2,0.2-2,0.7-2,4.3v12.2c0,3.5,0.1,4,2,4.2
				l0.8,0.1c0.2,0.1,0.1,0.7-0.1,0.8c-1.6-0.1-2.8-0.1-4.1-0.1c-1.4,0-2.6,0-4.1,0.1c-0.2-0.1-0.3-0.6-0.1-0.8l0.6-0.1
				c2.1-0.3,2-0.7,2.1-4.2v-4.8c0-1-0.1-1.1-1.7-1.1H249.3z"/>
			<path d="M279.1,32.3c0,3.6,0.2,4.2,2,4.3l1.3,0.1c0.2,0.2,0.1,0.7-0.1,0.8c-2.1-0.1-3.2-0.1-4.6-0.1c-1.4,0-2.6,0-4.4,0.1
				c-0.2-0.1-0.3-0.6-0.1-0.8l1-0.1c2-0.2,2-0.7,2-4.3v-1.7c0-1.9-0.1-2.3-1.1-4.2l-4-7.8c-1.1-2.2-1.7-2.4-2.7-2.6l-0.9-0.2
				c-0.2-0.2-0.2-0.7,0.1-0.8c1.1,0.1,2.3,0.1,3.9,0.1c1.6,0,2.8,0,3.6-0.1c0.3,0.1,0.3,0.6,0.1,0.8l-0.4,0.1
				c-1.2,0.2-1.4,0.3-1.4,0.6c0,0.3,0.9,2.3,1,2.6c1.2,2.5,2.5,5.2,3.8,7.5c1-1.8,2.2-3.7,3.2-5.7c0.9-1.8,2.2-4.1,2.2-4.5
				c0-0.2-0.6-0.4-1.4-0.5l-0.6-0.1c-0.2-0.2-0.2-0.7,0.1-0.8c1.2,0.1,2.2,0.1,3.2,0.1c1,0,2,0,3.1-0.1c0.3,0.2,0.3,0.6,0.1,0.8
				l-0.9,0.2c-1.8,0.3-2.8,2.4-4.5,5.3l-2.1,3.7c-1.5,2.5-1.6,2.9-1.6,5.5V32.3z"/>
		</g>
		<polygon points="54.4,25.5 52.5,24 44.9,17.8 43,16.3 35.9,10.5 34.1,8.9 25.6,2 0,36.8 15.1,36.8 32.6,11.1 34.4,12.7 18,36.8 
			29,36.8 41.5,18.5 43.4,20 32,36.8 43.8,36.8 51,26.2 51,26.2 52.9,27.8 63.9,36.8 67.7,36.8 68.2,36.8 		"/>
	</g>
</g>
<g id="Layer_1">
</g>
</svg>
