<?xml version="1.0" encoding="utf-8"?>
<!-- Generator: Adobe Illustrator 18.0.0, SVG Export Plug-In . SVG Version: 6.00 Build 0)  -->
<!DOCTYPE svg PUBLIC "-//W3C//DTD SVG 1.1//EN" "http://www.w3.org/Graphics/SVG/1.1/DTD/svg11.dtd">
<svg version="1.1" xmlns="http://www.w3.org/2000/svg" xmlns:xlink="http://www.w3.org/1999/xlink" x="0px" y="0px"
	 viewBox="0 0 300 34.7" style="enable-background:new 0 0 300 34.7;" xml:space="preserve">
<style type="text/css">
	.st0{fill-rule:evenodd;clip-rule:evenodd;}
	.st1{fill-rule:evenodd;clip-rule:evenodd;fill:#C038F9;}
	.st2{fill:none;}
	.st3{fill-rule:evenodd;clip-rule:evenodd;fill:#231F20;}
</style>
<g id="Layer_2">
</g>
<g id="Layer_1">
	<g>
		<path d="M15.9,7.1v16.6c1.8-0.9,2.7-2,3.5-3.2l0.4,0.3c-1.6,3.2-4.1,6.7-9.4,6.7c-4.7,0-9.3-3.9-9.3-9.7c0-6.3,4.5-9.6,8.6-11.2
			C8.1,6,6.4,5.7,4.7,5.7c-1.5,0-3,0.9-4.1,3.1L0,8.6c1.8-3.9,5.1-6,7.5-6c4,0,5.8,1.7,9.6,1.7c1.5,0,2.9-0.8,3.5-2.2l0.5,0.3
			C19.8,4.7,18.3,6.3,15.9,7.1z M10.6,6.7c-3.6,1.8-5.3,5.4-5.3,9.5c0,3.7,1.5,5.9,3.3,7.1c0.9-0.6,1-0.7,1-2.9c0-7,0-1.6,0-8.6
			c0-2,0.5-2.4,1.7-3.3c0.8-0.6,1.3-0.9,1.7-1.2C12.3,7.2,11.4,6.9,10.6,6.7z M15.3,7.3c-0.5,0.2-1.1,0.2-1.7,0.2
			c-0.3,0.4-0.4,0.9-0.4,2.7c0,7,0,1.6,0,8.6c0,2-0.5,2.4-1.7,3.3c-1.2,0.9-2,1.3-2.5,1.5c1.1,0.5,2.1,0.7,3.4,0.7
			c1.1,0,2.1-0.1,2.9-0.4V7.3"/>
		<path d="M29.8,26.6h-0.2l-3-2.5v-0.2c0,0,0.4-0.2,0.4-0.5v-8.9c0,0-1-1-1.8-1.5L24,14.2v8.6c0.1,0.2,0.7,1,1.7,1l0.1,0.3l-2.5,2.5
			h-0.2l-3.2-2.5v-0.2c0,0,0.6-0.3,0.6-0.5V6.2c0-0.4-0.7-0.5-0.7-0.5V5.5c2.5-1.4,5-3.4,5-3.4H25c0.4,0.5,1.3,1,1.9,1
			c1.1,0,1.7,0,2.7-1.4L30,1.9c-1,1.8-2.6,3.7-4.1,3.7c-0.9,0-1.2,0-1.9-0.6v8.3l0,0l3.1-3.3h0.2l3.2,2.7l1.2-1.2L32,12l-1.4,1.5
			v9.5c0,0,0.6,0.9,1.2,0.9c0.3,0,0.8-0.5,1-0.8l0.3,0.3L29.8,26.6"/>
		<path d="M37.3,19.6V22c0,0,1.8,1.5,2.5,2l2.3-2.1l0.4,0.4l-4.5,4.4h-0.3l-4.5-3.5v-0.2c0,0,0.6-0.2,0.6-0.3v-7.5
			c0-0.2-0.7-0.5-0.7-0.5v-0.2l6.1-4.5h0.2l3.8,5.4v0.3L37.3,19.6z M37.4,12.9L37.4,12.9l-0.1,5.9l2.7-1.9L37.4,12.9"/>
		<path d="M67.6,17.6c-1,0.8-1.4,1.7-1.4,3.3c0,0.1,0,0.3,0.1,0.4L66,21.5c-1.1-0.5-1.8-1.2-1.8-2.1c0-1.1,1-1.6,1.8-1.8V6.9
			c-0.6-0.8-1.1-1.6-1.4-2.4c-0.4,0.3-0.9,0.5-0.9,2.6c0,6.4,0,18.9,0,18.9c0,0.2,0.8,0.4,0.8,0.4v0.2c-3.1,1.7-6.1,4.1-6.1,4.1
			h-0.3c-0.5-0.6-1.8-2.4-4-2.4c-2,0-2.8,1-3.2,2.4l-0.4-0.1c0-1.6,1.4-4.7,4.3-4.9v-8.3c-0.2-0.1-0.6-0.1-1.1-0.1
			c-1,0-1.9,0.3-2.1,1.4l-0.4,0c0-1.7,1.3-3.7,3-3.7c0.3,0,0.4,0,0.6,0v-2.7c-0.3-0.1-0.6-0.2-1.2-0.2c-1,0-1.9,0.3-2.1,1.4l-0.4,0
			c0-1.7,1.3-3.7,3-3.7c0.3,0,0.5,0,0.7,0V5.7c-2.6,0-3.7-1.8-4.5-4l0.4-0.3C51.7,3,52.5,3,53.6,3c0.7,0,1.5-0.3,2-0.6h0.2
			c0,0,0.9,0.6,1.2,0.9c1.2,0.9,1.6,1.1,1.6,3c0,6,0,17.2,0,20.4c0.8,0.6,1,1,1.4,1.5l0.1,0c0,0,0-12.1,0-19.1c0-2,0.6-2.5,1.8-3.4
			c2-1.5,5.2-3.8,5.2-3.8h0.3c0.4,1.8,5.1,5,5.1,8.7C72.4,13.8,70,15.7,67.6,17.6z M66.6,7.7L66.6,7.7l-0.1,9.7c0.1,0,0.1,0,0.2-0.1
			c1.6-0.8,2.5-2.2,2.5-4.1C69.3,11.1,68,9.5,66.6,7.7"/>
		<path d="M82.7,26.6h-0.2l-3-2.5v-0.2c0,0,0.4-0.2,0.4-0.5v-8.9c0,0-1-1-1.8-1.5l-1.2,1.2v8.6c0.1,0.2,0.7,1,1.7,1l0.1,0.3
			l-2.5,2.5H76l-3.2-2.5v-0.2c0,0,0.6-0.3,0.6-0.5V6.2c0-0.4-0.7-0.5-0.7-0.5V5.5c2.5-1.4,5-3.4,5-3.4H78c0.4,0.5,1.3,1,1.9,1
			c1.1,0,1.7,0,2.7-1.4l0.4,0.3c-1,1.8-2.6,3.7-4.1,3.7c-0.9,0-1.2,0-1.9-0.6v8.3l0,0l3.1-3.3h0.2l3.2,2.7l1.2-1.2l0.3,0.3l-1.4,1.5
			v9.5c0,0,0.6,0.9,1.2,0.9c0.3,0,0.8-0.5,1-0.8l0.3,0.3L82.7,26.6"/>
		<path d="M89.2,8.2h-0.2c0,0-1.3-1.5-2.4-2.3V5.7c0,0,1.4-1,2.3-2.4h0.2c0,0,1.2,1.4,2.4,2.4v0.2C91.5,5.9,90.1,6.9,89.2,8.2z
			 M90.3,26.6h-0.2l-3.3-2.5v-0.2c0,0,0.6-0.2,0.6-0.5v-9.1c0,0-0.9-1-1.6-1.5l-0.5,0.5L84.9,13l2.9-3H88l2.8,2.5l1.2-1.2l0.3,0.4
			l-1.4,1.4v9.8c0,0,0.7,0.8,1.3,0.8c0.3,0,0.7-0.4,0.9-0.7l0.3,0.3L90.3,26.6"/>
		<path d="M97.2,26.6H97l-3.3-2.5v-0.2c0,0,0.5-0.2,0.5-0.5V5.5l0-0.1l-0.9,0.5l-0.2-0.4c2.2-1.3,5.5-3.7,5.5-3.7l0.3,0.3
			c0,0-1.1,0.8-1.1,1.6v19.1c0,0,0.8,0.8,1.2,0.8c0.3,0,0.6-0.3,0.9-0.5l0.3,0.3L97.2,26.6"/>
		<path d="M109.2,26.6H109l-2.7-2.5h-0.1l-2.4,2.5h-0.3c-2-0.6-3.5-2.3-3.5-4.8c0-3.6,2.8-5.5,6.3-5.8v-2.1l-1.3-1.1
			c-0.6,0.6-1.4,1.9-2.5,1.9c-1.3,0-1.9-0.9-2.2-1.5v-0.1l2.1-3h0.3c0.3,1.1,1.2,1.7,2.1,1.7c0.5,0,1.7-0.9,2.3-1.7h0.2l2.5,2.3
			l1-0.9l0.3,0.4l-1.4,1.4v9.5c0,0,0.8,1,1.4,1c0.3,0,0.6-0.3,0.9-0.6l0.3,0.3L109.2,26.6z M106.3,16.7c-2,0.4-2.7,1.6-2.7,3.7
			c0,2.1,0.8,3.4,1.8,3.4c0.5,0,0.9-0.4,0.9-0.4V16.7"/>
		<path d="M122.8,13.3v8.4c0,0.2,0.7,0.4,0.7,0.4v0.2l-6.5,4.4h-0.2l-4.5-3.6v-0.2c0,0,0.6-0.2,0.6-0.4v-8c0-0.2-0.6-0.4-0.6-0.4
			v-0.2l4.3-2.7c-1.4-1.6-3-3.3-3.7-4.1c-0.6-0.7-1-1.1-2.2-1.1V5.6c0,0,1.2-0.9,2.4-1c-0.4-0.5-0.4-0.8-0.4-1.3
			c0-0.4,0.3-0.9,0.6-1.3h0.1c1.5,2.2,7.7,8.8,9.3,10.6l1.2-1.1l0.3,0.4L122.8,13.3z M119.3,14.1c0,0-0.9-1.1-2.2-2.6
			c-0.4,0.4-0.6,0.7-0.6,1.2v9.1L119,24l0.2-0.2V14.1"/>
		<path d="M128.8,19.6V22c0,0,1.8,1.5,2.5,2l2.3-2.1l0.4,0.4l-4.5,4.4h-0.3l-4.5-3.5v-0.2c0,0,0.6-0.2,0.6-0.3v-7.5
			c0-0.2-0.7-0.5-0.7-0.5v-0.2l6.1-4.5h0.2l3.8,5.4v0.3L128.8,19.6z M128.8,12.9L128.8,12.9l-0.1,5.9l2.7-1.9L128.8,12.9"/>
		<path d="M138.4,26.6h-0.2l-3.3-2.5v-0.2c0,0,0.5-0.2,0.5-0.5V5.5l0-0.1l-0.9,0.5l-0.2-0.4c2.2-1.3,5.5-3.7,5.5-3.7l0.3,0.3
			c0,0-1.1,0.8-1.1,1.6v19.1c0,0,0.8,0.8,1.2,0.8c0.3,0,0.6-0.3,0.9-0.5l0.3,0.3L138.4,26.6"/>
		<path d="M152.7,13.5v8.6c0,0.2,0.6,0.4,0.6,0.4v0.2l-5.4,3.9h-0.2c0,0-0.9-0.5-1.4-0.7l0,0v2.9l0,0l1-0.5l0.2,0.4
			c-2.9,1.9-5.2,3.5-5.2,3.5l-0.2-0.3c0,0,0.7-0.6,0.7-1.1v-5.6c-0.8,0.1-1.5,0.2-1.9,1.3l-0.3-0.1c0-1.6,0.7-2.9,2.2-3.6v-9.3
			c0,0-0.8-0.8-1.2-0.8c-0.3,0-0.7,0.5-1,0.8l-0.3-0.3l3.1-3.3h0.2c0,0,2.6,1.7,3,2.9l2.7-2.9h0.2l3.2,2.8l1.2-1.2l0.3,0.4
			L152.7,13.5z M149.2,14.6c0,0-1.2-1.1-1.9-1.5l-1,1v8.8c1,0.3,1.7,0.4,2.9,1.5l0,0V14.6"/>
		<path d="M164.7,26.6h-0.2l-3-2.5v-0.2c0,0,0.4-0.2,0.4-0.5v-8.9c0,0-1-1-1.8-1.5l-1.2,1.2v8.6c0.1,0.2,0.7,1,1.7,1l0.1,0.3
			l-2.5,2.5H158l-3.2-2.5v-0.2c0,0,0.6-0.3,0.6-0.5V6.2c0-0.4-0.7-0.5-0.7-0.5V5.5c2.5-1.4,5-3.4,5-3.4h0.2c0.4,0.5,1.3,1,1.9,1
			c1.1,0,1.7,0,2.7-1.4l0.4,0.3c-1,1.8-2.6,3.7-4.1,3.7c-0.9,0-1.2,0-1.9-0.6v8.3l0,0l3.1-3.3h0.2l3.2,2.7l1.2-1.2l0.3,0.3l-1.4,1.5
			v9.5c0,0,0.6,0.9,1.2,0.9c0.3,0,0.8-0.5,1-0.8l0.3,0.3L164.7,26.6"/>
		<path d="M171.1,8.2h-0.2c0,0-1.3-1.5-2.4-2.3V5.7c0,0,1.4-1,2.3-2.4h0.2c0,0,1.2,1.4,2.4,2.4v0.2C173.4,5.9,172,6.9,171.1,8.2z
			 M172.2,26.6H172l-3.3-2.5v-0.2c0,0,0.6-0.2,0.6-0.5v-9.1c0,0-0.9-1-1.6-1.5l-0.5,0.5l-0.3-0.3l2.9-3h0.2l2.8,2.5l1.2-1.2l0.3,0.4
			l-1.4,1.4v9.8c0,0,0.7,0.8,1.3,0.8c0.3,0,0.7-0.4,0.9-0.7l0.3,0.3L172.2,26.6"/>
		<path d="M184.3,26.6h-0.2l-2.7-2.5h-0.1l-2.4,2.5h-0.3c-2-0.6-3.5-2.3-3.5-4.8c0-3.6,2.8-5.5,6.3-5.8v-2.1l-1.3-1.1
			c-0.6,0.6-1.4,1.9-2.5,1.9c-1.3,0-1.9-0.9-2.2-1.5v-0.1l2.1-3h0.3c0.3,1.1,1.2,1.7,2.1,1.7c0.5,0,1.7-0.9,2.3-1.7h0.2l2.5,2.3
			l1-0.9l0.3,0.4l-1.4,1.4v9.5c0,0,0.8,1,1.4,1c0.3,0,0.6-0.3,0.9-0.6l0.3,0.3L184.3,26.6z M181.4,16.7c-2,0.4-2.7,1.6-2.7,3.7
			c0,2.1,0.8,3.4,1.8,3.4c0.5,0,0.9-0.4,0.9-0.4V16.7"/>
		<path d="M207,3.5v19.3c0,0.3,0.8,0.4,0.8,0.4v0.2c-3.1,1.7-8.9,6.2-8.9,6.2h-0.2c-0.5-0.6-2.5-2.8-4.5-2.8c-2.1,0-2.5,1.1-2.8,2.5
			l-0.4,0c0-1.8,0.9-5.3,4.4-5.3c2.7,0,4.1,1.8,5.7,3.2l1-0.8c-0.6-0.6-3-2.8-4.8-3.9v-0.2c0,0,0.7-0.2,0.7-0.4v-4.8
			c-0.3-0.1-0.5-0.1-1-0.1c-1,0-1.9,0.3-2.2,1.4l-0.3,0c0-1.7,1.4-3.7,3.1-3.7c0.3,0,0.3,0,0.5,0v-2.7c-0.2-0.1-0.5-0.1-1.1-0.1
			c-1,0-1.9,0.3-2.2,1.4l-0.3,0c0-1.7,1.4-3.7,3.1-3.7c0.3,0,0.4,0,0.6,0V5.8c-2.6,0-3.7-1.9-4.5-4l0.3-0.3c0.9,1.5,1.7,1.5,2.8,1.5
			c0.7,0,1.5-0.3,1.9-0.7h0.2c0,0,0.9,0.6,1.2,0.9c1.2,0.9,1.6,1.1,1.6,3.1c0,7,0,17.9,0,17.9c0,1,0.6,1.5,1,1.8l0.6-0.4V6
			c0-0.3-0.7-0.4-0.7-0.4V5.3c2.2-1.4,5.2-3.5,5.2-3.5l0.3,0.3C208,2.1,207,3,207,3.5"/>
		<path d="M219.9,26.6h-0.2l-3.1-2.5v-0.2c0,0,0.4-0.2,0.4-0.5v-8.9c0,0-1.1-1.2-1.9-1.6l-1.1,1.1V23c0,0,0.8,0.8,1.2,0.8
			c0.3,0,0.4-0.1,0.5-0.2l0.2,0.3l-2.5,2.7h-0.2l-3.3-2.6v-0.2c0,0,0.6-0.3,0.6-0.5v-9.6c0,0-0.7-0.8-1.1-0.8
			c-0.3,0-0.5,0.2-0.8,0.4l-0.3-0.3l2.8-3h0.2c0,0,2.5,1.7,3.1,2.9l2.8-2.9h0.2l3.2,2.7l1.2-1.2l0.3,0.4l-1.4,1.4v9.5
			c0,0,0.6,0.9,1.2,0.9c0.3,0,0.6-0.3,0.9-0.6l0.3,0.3L219.9,26.6"/>
		<path d="M233.4,13.1v15.8l0,0l1-0.5l0.2,0.4c-2.9,1.9-5.2,3.5-5.2,3.5l-0.3-0.3c0,0,0.7-0.6,0.7-1.1v-7.5h-0.1l-2.8,3.2h-0.2
			l-4-3.3v-0.2c0,0,0.6-0.2,0.6-0.4V15c0-0.2-0.7-0.4-0.7-0.4v-0.2l6.5-4.3h0.2l3.5,2.6l1.3-1.2l0.4,0.4L233.4,13.1z M229.9,14.7
			c0,0-2-1.6-2.7-2.1l-0.1,0.1v9.6c0,0,1,1.1,1.7,1.5l1.2-1.2V14.7"/>
		<path d="M246.3,26.6h-0.2l-2.9-2.5v-0.6h-0.1l-3,3.1H240l-3.1-2.8l-1.1,1l-0.3-0.4l1.3-1.2v-9.4c0,0-0.7-0.8-1-0.8
			c-0.3,0-0.3,0.2-0.6,0.4l-0.3-0.3l2.8-3h0.2l2.8,2.4v0.2c0,0-0.4,0.2-0.4,0.5v9c0,0,1.1,1.2,1.8,1.6l1.2-1.1v-8.9
			c0,0-1.1-0.9-1.3-0.9c-0.2,0-0.4,0.2-0.5,0.3l-0.2-0.3l2.7-2.8h0.2l2.7,2.3l0.9-0.8l0.3,0.4l-1.3,1.3v9.4c0,0,1,1.1,1.4,1.1
			c0.3,0,0.7-0.5,1-0.8l0.3,0.3L246.3,26.6"/>
		<path d="M252.6,8.2h-0.2c0,0-1.3-1.5-2.4-2.3V5.7c0,0,1.4-1,2.3-2.4h0.2c0,0,1.2,1.4,2.4,2.4v0.2C254.9,5.9,253.6,6.9,252.6,8.2z
			 M253.7,26.6h-0.2l-3.3-2.5v-0.2c0,0,0.6-0.2,0.6-0.5v-9.1c0,0-0.9-1-1.6-1.5l-0.5,0.5l-0.3-0.3l2.9-3h0.2l2.8,2.5l1.2-1.2
			l0.3,0.4l-1.4,1.4v9.8c0,0,0.7,0.8,1.3,0.8c0.3,0,0.7-0.4,0.9-0.7l0.3,0.3L253.7,26.6"/>
		<path d="M264.4,14.3c-0.9,0-1.7-0.3-2.5-1.1h-0.1l-0.1,0.2v9.6c0,0,1.2,0.9,1.5,0.9c0.3,0,1.1-1,1.4-1.3l0.4,0.3l-3.8,3.7h-0.2
			l-3.4-2.6v-0.2c0,0,0.5-0.3,0.5-0.5v-9.5c0,0-0.8-0.8-1.2-0.9c-0.3,0-0.4,0.2-0.7,0.4l-0.3-0.3l2.8-3h0.2l2.7,2.4l1.8-2.4h0.3
			c0,0,0.9,1.2,2.1,1.2c0.7,0,1.4-0.2,1.9-0.9l0.4,0.2C267.6,11.8,265.9,14.3,264.4,14.3"/>
		<path d="M270,19.6V22c0,0,1.8,1.5,2.5,2l2.3-2.1l0.4,0.4l-4.5,4.4h-0.3l-4.5-3.5v-0.2c0,0,0.6-0.2,0.6-0.3v-7.5
			c0-0.2-0.7-0.5-0.7-0.5v-0.2l6.1-4.5h0.2l3.8,5.4v0.3L270,19.6z M270.1,12.9L270.1,12.9l-0.1,5.9l2.7-1.9L270.1,12.9"/>
		<path d="M283.4,14.3c-0.9,0-1.7-0.3-2.5-1.1h-0.1l-0.1,0.2v9.6c0,0,1.2,0.9,1.5,0.9c0.3,0,1.1-1,1.4-1.3l0.4,0.3l-3.8,3.7h-0.2
			l-3.4-2.6v-0.2c0,0,0.5-0.3,0.5-0.5v-9.5c0,0-0.8-0.8-1.2-0.9c-0.3,0-0.4,0.2-0.7,0.4l-0.3-0.3l2.8-3h0.2l2.7,2.4l1.8-2.4h0.3
			c0,0,0.9,1.2,2.1,1.2c0.7,0,1.4-0.2,1.9-0.9l0.4,0.2C286.6,11.8,284.9,14.3,283.4,14.3"/>
	</g>
</g>
</svg>
