<?xml version="1.0" encoding="utf-8"?>
<!-- Generator: Adobe Illustrator 18.0.0, SVG Export Plug-In . SVG Version: 6.00 Build 0)  -->
<!DOCTYPE svg PUBLIC "-//W3C//DTD SVG 1.1//EN" "http://www.w3.org/Graphics/SVG/1.1/DTD/svg11.dtd">
<svg version="1.1" xmlns="http://www.w3.org/2000/svg" xmlns:xlink="http://www.w3.org/1999/xlink" x="0px" y="0px"
	 viewBox="0 0 300 37.7" style="enable-background:new 0 0 300 37.7;" xml:space="preserve">
<style type="text/css">
	.st0{fill-rule:evenodd;clip-rule:evenodd;}
	.st1{fill-rule:evenodd;clip-rule:evenodd;fill:#C038F9;}
	.st2{fill:none;}
	.st3{fill-rule:evenodd;clip-rule:evenodd;fill:#231F20;}
</style>
<g id="Layer_2">
</g>
<g id="Layer_1">
	<g>
		<g>
			<path d="M50.9,17.2c-1.1-1.4-2.8-2.2-4.6-2.2c-3.2,0-5.3,2.4-5.3,5.6c0,3.2,2.2,5.5,5.4,5.5c1.7,0,3.4-0.8,4.5-2.1v6.2
				c-1.7,0.5-3,0.9-4.6,0.9c-2.8,0-5.5-1.1-7.5-3c-2.2-2-3.2-4.6-3.2-7.6c0-2.7,1-5.4,3-7.3c2-2,4.8-3.2,7.6-3.2
				c1.7,0,3.2,0.4,4.8,1V17.2z"/>
			<path d="M59,27l-1.4,3.5h-5.5l7.7-20.1h5.7L73,30.5h-5.6L66.2,27H59z M62.6,16.7L62.6,16.7l-2.2,6.4h4.3L62.6,16.7z"/>
			<path d="M79.6,26.1h6.2v4.4H74.4V10.5h5.2V26.1z"/>
			<path d="M92.5,30.5h-5.2V10.5h5.2V30.5z"/>
			<path d="M100.9,14.9v3.4h5.7v4.4h-5.7v7.9h-5.2V10.5h11.5v4.4H100.9z"/>
			<path d="M130.4,20.1c0,6.5-4.7,11.1-11.1,11.1s-11.1-4.6-11.1-11.1c0-6.1,5.3-10.3,11.1-10.3S130.4,14.1,130.4,20.1z M113.7,20.2
				c0,3.5,2.6,6,5.7,6c3.1,0,5.7-2.5,5.7-6c0-2.8-2.6-5.3-5.7-5.3C116.2,14.9,113.7,17.4,113.7,20.2z"/>
			<path d="M149.3,30.5h-6.5l-4.9-7.7h-0.1v7.7h-5.2V10.5h7.8c4,0,7,1.9,7,6.2c0,2.8-1.5,5.2-4.4,5.7L149.3,30.5z M137.8,19.5h0.5
				c1.7,0,3.6-0.3,3.6-2.5c0-2.2-1.9-2.5-3.6-2.5h-0.5V19.5z"/>
			<path d="M149.9,10.5h5.2l9.5,12.3h0.1V10.5h5.2v20.1h-5.2l-9.5-12.3h-0.1v12.3h-5.2V10.5z"/>
			<path d="M178.3,30.5H173V10.5h5.2V30.5z"/>
			<path d="M186.5,27l-1.4,3.5h-5.5l7.7-20.1h5.7l7.6,20.1H195l-1.3-3.5H186.5z M190.1,16.7L190.1,16.7l-2.2,6.4h4.3L190.1,16.7z"/>
			<path d="M210.3,23.4L210.3,23.4l4.3-13h4.1l3.9,13h0.1l3.8-13h5.4l-6.4,20.1h-5.3l-3.5-11.6h-0.1l-3.9,11.6h-5.3l-6-20.1h5.4
				L210.3,23.4z"/>
			<path d="M234.9,27l-1.4,3.5H228l7.7-20.1h5.7l7.6,20.1h-5.6L242,27H234.9z M238.5,16.7L238.5,16.7l-2.2,6.4h4.3L238.5,16.7z"/>
			<path d="M255.9,30.5h-5.2V14.9h-4.3v-4.4h13.8v4.4h-4.3V30.5z"/>
			<path d="M274,17.2c-1.1-1.4-2.8-2.2-4.6-2.2c-3.2,0-5.3,2.4-5.3,5.6c0,3.2,2.2,5.5,5.4,5.5c1.7,0,3.4-0.8,4.5-2.1v6.2
				c-1.7,0.5-3,0.9-4.6,0.9c-2.8,0-5.5-1.1-7.5-3c-2.2-2-3.2-4.6-3.2-7.6c0-2.7,1-5.4,3-7.3c2-2,4.8-3.2,7.6-3.2
				c1.7,0,3.2,0.4,4.8,1V17.2z"/>
			<path d="M288.1,18.2v-7.7h5.2v20.1h-5.2v-8.2h-7.5v8.2h-5.2V10.5h5.2v7.7H288.1z"/>
		</g>
		<path d="M16.9,2.4c0.3,2.1,0.7,4.4,2.3,6.4c1.7-1.6,3.4-3,5.3-4.6c-0.4,2.1-0.7,4-1.1,6.3c2-0.4,3.4-0.7,5.4-1
			c-1,1.9-1.9,3.3-2.7,4.7c2,1.7,4.3,1.3,6.8,1.6c-1.4,0.7-2.3,1.1-3.3,1.6c-0.9,0.4-1.6,1.1-2.8,2c1.9,1.3,3.4,2.3,5.1,3.4
			c-1.9,0.1-3.7,0.4-6,0.6c1,2.4,1.9,4.3,2.8,6.3c-1.9-0.7-3.7-1.4-6-2.3c0.1,2.6,0.3,4.6,0.4,6.8c-1.4-1.6-2.7-3.1-4-4.6
			c-0.1,0-0.4,0.1-0.6,0.1c-0.7,1.9-1.3,3.8-2,6c-0.7-2.1-1.4-4-2.1-6c-2.3,1-3,3.1-4.6,4.6c0.1-2.3,0.1-4.4,0.3-6.5
			c-2.6,0-4.1,1.4-6.3,2.4c1.1-2.3,2.1-4.3,3.3-6.4c-2.1-1.3-4.1-0.4-6.4-1c1.9-1.1,3.6-2.3,5.3-3.4c-1.6-2-3.8-2.4-6.1-3.7
			c2.7-0.6,5.1,0,7.4-1.7c-1.1-1.7-2.3-3.4-3.6-5.3c2,0.6,3.7,1.1,5.6,1.7C10.3,8,9,6.2,8.8,3.9c1.9,1.6,3.6,3.1,5.7,4.8
			c0.9-2.6,1.6-4.7,2.3-6.7C16.7,2.4,16.8,2.4,16.9,2.4z M16.2,27.3c4.8,0,8.4-3.4,8.4-8.1s-3.6-8.4-8.3-8.4c-4.6,0-8.1,3.6-8.3,8.1
			C8.1,23.7,11.5,27.3,16.2,27.3z"/>
		<path d="M19.4,20.3c1.6,0,2.8,0,4.3,0c0.1,3.3-3,6.3-6.7,6.4c-4.1,0.3-8-3.1-8.3-7.1c-0.3-4.1,2.8-7.8,7.1-8.3
			c4-0.3,7.7,2.6,8,6.4c-1.4,0-2.8,0-4.4,0c-0.3-0.3-0.7-0.7-1.3-1.1c-1.3-0.9-2.7-0.7-3.7,0.4c-0.9,1-1,2.6-0.3,3.6
			c0.7,1.1,2.4,1.6,3.7,0.9C18.4,21.1,18.8,20.7,19.4,20.3z"/>
	</g>
</g>
</svg>
