<?xml version="1.0" encoding="utf-8"?>
<!-- Generator: Adobe Illustrator 18.0.0, SVG Export Plug-In . SVG Version: 6.00 Build 0)  -->
<!DOCTYPE svg PUBLIC "-//W3C//DTD SVG 1.1//EN" "http://www.w3.org/Graphics/SVG/1.1/DTD/svg11.dtd">
<svg version="1.1" xmlns="http://www.w3.org/2000/svg" xmlns:xlink="http://www.w3.org/1999/xlink" x="0px" y="0px"
	 viewBox="0 0 300 44" style="enable-background:new 0 0 300 44;" xml:space="preserve">
<style type="text/css">
	.st0{fill-rule:evenodd;clip-rule:evenodd;}
	.st1{fill-rule:evenodd;clip-rule:evenodd;fill:#C038F9;}
	.st2{fill:none;}
	.st3{fill-rule:evenodd;clip-rule:evenodd;fill:#231F20;}
</style>
<g id="Layer_2">
	<g>
		<g>
			<path d="M0.7,9.2H0l0.1-4.9h19.8L20,9.2h-0.6c-0.2-1.3-0.5-2.3-0.9-2.9c-0.4-0.6-0.8-1-1.3-1.1C16.6,5,15.8,5,14.7,5h-3.3v14.4
				c0,1.6,0,2.6,0.1,3.1s0.3,0.9,0.6,1.1s1,0.4,1.9,0.4h1v0.7H4.9v-0.7h1.1c0.9,0,1.5-0.1,1.8-0.3c0.3-0.2,0.6-0.6,0.6-1
				s0.1-1.5,0.1-3.3V5h-3C4.2,5,3.3,5,2.9,5.2S2,5.7,1.6,6.3S0.9,7.9,0.7,9.2z"/>
			<path d="M30.6,16.8h-8.2v3.8c0,1.2,0,2,0.1,2.4c0.1,0.4,0.2,0.7,0.5,0.8c0.3,0.2,0.7,0.3,1.4,0.3h0.4v0.5h-7.1v-0.5h0.4
				c0.7,0,1.1-0.1,1.4-0.3c0.3-0.2,0.4-0.4,0.5-0.8c0.1-0.4,0.1-1.2,0.1-2.5v-7.7c0-1.2,0-2.1-0.1-2.4c-0.1-0.4-0.2-0.6-0.5-0.8
				c-0.2-0.1-0.7-0.2-1.5-0.2h-0.3V9h7.1v0.5h-0.3c-0.8,0-1.3,0.1-1.5,0.2c-0.2,0.1-0.4,0.4-0.5,0.7s-0.1,1.2-0.1,2.5V16h8.2v-3.1
				c0-1.2,0-2.1-0.1-2.4c-0.1-0.4-0.2-0.6-0.5-0.8c-0.2-0.1-0.7-0.2-1.5-0.2H28V9h7.1v0.5H35c-0.8,0-1.3,0.1-1.5,0.2
				C33.2,9.8,33,10,33,10.4c-0.1,0.3-0.1,1.2-0.1,2.5v7.7c0,1.2,0,2,0.1,2.4c0.1,0.4,0.2,0.7,0.5,0.8c0.3,0.2,0.7,0.3,1.4,0.3h0.4
				v0.5H28v-0.5h0.5c0.7,0,1.1-0.1,1.4-0.3c0.3-0.2,0.4-0.4,0.5-0.8c0.1-0.4,0.1-1.2,0.1-2.5V16.8z"/>
			<path d="M46.7,19.8h0.6l-0.3,4.9h-13v-0.5h0.3c0.8,0,1.3-0.1,1.5-0.3c0.2-0.2,0.4-0.5,0.4-0.8c0.1-0.3,0.1-1.1,0.1-2.4v-7.7
				c0-1.2,0-2-0.1-2.4c-0.1-0.4-0.2-0.6-0.5-0.8c-0.2-0.2-0.7-0.2-1.5-0.2V9h11.2l0.4,3.9h-0.5c-0.2-1.1-0.5-1.9-0.9-2.3
				c-0.4-0.5-0.8-0.7-1.3-0.9c-0.5-0.1-1.3-0.2-2.4-0.2h-2.2v6.6h1.7c0.8,0,1.3-0.1,1.6-0.2c0.3-0.1,0.5-0.3,0.6-0.6
				c0.1-0.3,0.1-0.8,0.1-1.6h0.5v5.4h-0.5c0-0.9-0.1-1.5-0.2-1.8c-0.1-0.3-0.4-0.5-0.6-0.6c-0.3-0.1-0.8-0.1-1.4-0.1h-1.7v3.7
				c0,1.9,0.1,3,0.4,3.3c0.2,0.3,0.9,0.5,1.9,0.5H42c0.8,0,1.5-0.1,2-0.3c0.5-0.2,1-0.6,1.5-1.3S46.4,20.9,46.7,19.8z"/>
			<path d="M68.9,17h0.6v7.1h-0.6c-0.2-0.8-0.5-1.5-1-2.1c-1.8,2-4.1,3-6.9,3c-2.9,0-5.3-0.9-7.2-2.8c-1.9-1.9-2.8-4.3-2.8-7.4
				c0-2,0.4-3.9,1.3-5.7s2.1-3.1,3.6-4s3.2-1.3,5.1-1.3c1.5,0,2.9,0.3,4.1,0.9s2.2,1.3,2.8,2.1c0.4-0.9,0.7-1.7,0.8-2.6h0.7l0.2,7.7
				h-0.6c-0.5-2.7-1.4-4.6-2.8-5.7s-3-1.6-4.7-1.6c-2.1,0-3.8,0.9-5.1,2.6c-1.3,1.7-1.9,4.2-1.9,7.4c0,3.1,0.7,5.4,2.1,7
				c1.4,1.6,3.1,2.4,5.1,2.4c1.1,0,2.2-0.3,3.3-0.8c1.1-0.5,2-1.4,2.7-2.7S68.8,18.2,68.9,17z"/>
			<path d="M70.7,16.7c0-2.4,0.8-4.4,2.4-5.8c1.6-1.5,3.6-2.2,6.1-2.2c2.4,0,4.5,0.7,6.1,2.2c1.6,1.4,2.5,3.4,2.5,5.9
				c0,2.4-0.8,4.4-2.4,5.9c-1.6,1.5-3.6,2.3-6.2,2.3c-2.5,0-4.5-0.8-6.1-2.3C71.5,21.2,70.7,19.2,70.7,16.7z M73.3,16.8
				c0,2.5,0.5,4.4,1.5,5.7c1,1.3,2.5,1.9,4.5,1.9c1.8,0,3.2-0.6,4.2-1.9c1-1.3,1.5-3.1,1.5-5.7c0-2.4-0.5-4.3-1.5-5.6
				c-1-1.3-2.5-1.9-4.4-1.9c-1.9,0-3.3,0.6-4.3,1.9S73.3,14.3,73.3,16.8z"/>
			<path d="M97.1,21.9l5.7-13h4.8v0.5H107c-0.8,0-1.3,0.1-1.5,0.2c-0.2,0.1-0.4,0.4-0.5,0.7s-0.1,1.2-0.1,2.5v7.7c0,1.2,0,2,0.1,2.4
				c0.1,0.4,0.2,0.7,0.5,0.8c0.3,0.2,0.7,0.3,1.4,0.3h0.7v0.5h-7.5v-0.5h0.6c0.7,0,1.1-0.1,1.4-0.3c0.3-0.2,0.4-0.4,0.5-0.8
				c0.1-0.4,0.1-1.2,0.1-2.5v-10l-6.2,14.1h-0.5l-6.3-14.1v9.2c0,1.3,0,2.1,0.1,2.6s0.3,0.9,0.7,1.2c0.4,0.3,1,0.5,1.7,0.6v0.5h-5.6
				v-0.5c0.7,0,1.2-0.2,1.6-0.5c0.4-0.3,0.7-0.7,0.8-1.2c0.1-0.5,0.1-1.4,0.1-2.7v-6.8c0-1.2,0-2.1-0.1-2.4
				c-0.1-0.4-0.2-0.6-0.5-0.8c-0.2-0.1-0.7-0.2-1.5-0.2h-0.4V9h4.8L97.1,21.9z"/>
			<path d="M116.2,21.9l5.7-13h4.8v0.5h-0.6c-0.8,0-1.3,0.1-1.5,0.2c-0.2,0.1-0.4,0.4-0.5,0.7s-0.1,1.2-0.1,2.5v7.7
				c0,1.2,0,2,0.1,2.4c0.1,0.4,0.2,0.7,0.5,0.8c0.3,0.2,0.7,0.3,1.4,0.3h0.7v0.5h-7.5v-0.5h0.6c0.7,0,1.1-0.1,1.4-0.3
				c0.3-0.2,0.4-0.4,0.5-0.8c0.1-0.4,0.1-1.2,0.1-2.5v-10l-6.2,14.1H115l-6.3-14.1v9.2c0,1.3,0,2.1,0.1,2.6c0.1,0.5,0.3,0.9,0.7,1.2
				s1,0.5,1.7,0.6v0.5h-5.6v-0.5c0.7,0,1.2-0.2,1.6-0.5c0.4-0.3,0.7-0.7,0.8-1.2c0.1-0.5,0.1-1.4,0.1-2.7v-6.8c0-1.2,0-2.1-0.1-2.4
				c-0.1-0.4-0.2-0.6-0.5-0.8c-0.2-0.1-0.7-0.2-1.5-0.2h-0.4V9h4.8L116.2,21.9z"/>
			<path d="M137.8,19.8h0.6l-0.3,4.9h-13v-0.5h0.3c0.8,0,1.3-0.1,1.5-0.3c0.2-0.2,0.4-0.5,0.4-0.8c0.1-0.3,0.1-1.1,0.1-2.4v-7.7
				c0-1.2,0-2-0.1-2.4c-0.1-0.4-0.2-0.6-0.5-0.8c-0.2-0.2-0.7-0.2-1.5-0.2V9h11.2l0.4,3.9h-0.5c-0.2-1.1-0.5-1.9-0.9-2.3
				c-0.4-0.5-0.8-0.7-1.3-0.9c-0.5-0.1-1.3-0.2-2.4-0.2h-2.2v6.6h1.7c0.8,0,1.3-0.1,1.6-0.2c0.3-0.1,0.5-0.3,0.6-0.6
				c0.1-0.3,0.1-0.8,0.1-1.6h0.5v5.4h-0.5c0-0.9-0.1-1.5-0.2-1.8c-0.1-0.3-0.4-0.5-0.6-0.6c-0.3-0.1-0.8-0.1-1.4-0.1h-1.7v3.7
				c0,1.9,0.1,3,0.4,3.3c0.2,0.3,0.9,0.5,1.9,0.5h1.2c0.8,0,1.5-0.1,2-0.3c0.5-0.2,1-0.6,1.5-1.3S137.5,20.9,137.8,19.8z"/>
			<path d="M154.4,24.6h-4.2c-0.7-0.5-1.9-1.9-3.4-4.1c-0.5-0.7-1-1.4-1.5-2c-0.5-0.7-0.9-1-1.1-1.2c-0.2-0.1-0.5-0.2-0.9-0.2h-0.6
				v3.5c0,1.2,0,2,0.1,2.4c0.1,0.4,0.2,0.7,0.5,0.8c0.2,0.2,0.7,0.3,1.4,0.3h0.8v0.5h-7.5v-0.5h0.5c0.7,0,1.1-0.1,1.4-0.3
				c0.3-0.2,0.4-0.4,0.5-0.8c0.1-0.4,0.1-1.2,0.1-2.5v-7.7c0-1.2,0-2.1-0.1-2.4c-0.1-0.4-0.2-0.6-0.5-0.8c-0.2-0.1-0.8-0.2-1.5-0.2
				h-0.3V9l2.2-0.1c1.5-0.1,2.7-0.1,3.6-0.1c1.5,0,2.7,0.1,3.6,0.4c0.9,0.3,1.7,0.7,2.3,1.4c0.6,0.6,0.9,1.4,0.9,2.3
				c0,1-0.4,1.9-1.1,2.6c-0.8,0.7-1.9,1.2-3.3,1.4c0.7,0.3,1.7,1.5,3.2,3.4c1.2,1.6,2.1,2.6,2.8,3.1c0.7,0.5,1.5,0.8,2.4,0.8V24.6z
				 M142.6,16.5c0.6,0,1.2,0,1.8-0.1c0.6,0,1.2-0.1,1.6-0.3c0.5-0.1,0.8-0.3,1.1-0.6c0.3-0.3,0.5-0.6,0.7-1c0.2-0.4,0.2-1,0.2-1.6
				c0-1.1-0.3-2-0.8-2.6c-0.6-0.7-1.8-1-3.6-1c-0.3,0-0.6,0-1,0V16.5z"/>
			<path d="M165.8,18.7h0.5v5.5h-0.5c-0.1-0.6-0.4-1.2-0.8-1.7c-1.4,1.6-3.1,2.3-5.3,2.3c-2.3,0-4.1-0.7-5.6-2.2
				c-1.4-1.4-2.2-3.3-2.2-5.7c0-1.5,0.3-3,1-4.4c0.7-1.4,1.6-2.4,2.8-3c1.2-0.7,2.5-1,3.9-1c1.2,0,2.2,0.2,3.2,0.7
				c1,0.5,1.7,1,2.1,1.6c0.3-0.7,0.5-1.3,0.6-2h0.5l0.1,5.9h-0.5c-0.3-2.1-1.1-3.6-2.1-4.4c-1.1-0.8-2.3-1.2-3.6-1.2
				c-1.6,0-2.9,0.7-3.9,2s-1.5,3.2-1.5,5.7c0,2.4,0.5,4.2,1.6,5.4c1.1,1.3,2.4,1.9,3.9,1.9c0.8,0,1.7-0.2,2.6-0.6
				c0.9-0.4,1.6-1.1,2.1-2.1C165.4,20.6,165.7,19.7,165.8,18.7z"/>
			<path d="M166.5,9.5V9h7.2v0.5h-0.3c-0.8,0-1.3,0.1-1.5,0.2c-0.2,0.1-0.4,0.4-0.5,0.7c-0.1,0.3-0.1,1.2-0.1,2.5v7.7
				c0,1.2,0,2,0.1,2.4c0.1,0.4,0.2,0.7,0.5,0.8c0.3,0.2,0.7,0.3,1.4,0.3h0.5v0.5h-7.2v-0.5h0.5c0.7,0,1.1-0.1,1.4-0.3
				c0.3-0.2,0.4-0.4,0.5-0.8c0.1-0.4,0.1-1.2,0.1-2.5v-7.7c0-1.2,0-2.1-0.1-2.4c-0.1-0.4-0.2-0.6-0.5-0.8c-0.2-0.1-0.8-0.2-1.5-0.2
				H166.5z"/>
			<path d="M182.6,18.9h-6l-0.4,1c-0.6,1.4-0.9,2.4-0.9,2.8c0,0.5,0.2,0.8,0.5,1.1c0.3,0.2,0.7,0.4,1.2,0.4v0.5h-4.7v-0.5
				c0.7-0.1,1.2-0.4,1.5-0.7c0.3-0.4,0.7-1.2,1.2-2.4c0-0.1,0.2-0.6,0.6-1.3l4.6-10.9h0.5l5.2,12.5l0.7,1.6c0.2,0.4,0.4,0.7,0.7,0.9
				c0.3,0.2,0.7,0.3,1.2,0.4v0.5h-6.2v-0.5c0.8,0,1.3-0.1,1.5-0.2c0.3-0.1,0.4-0.3,0.4-0.7c0-0.2-0.2-0.7-0.5-1.5L182.6,18.9z
				 M182.4,18.3l-2.8-6.7l-2.8,6.7H182.4z"/>
			<path d="M200.6,20l-0.1,4.6h-13.3v-0.5h0.5c0.7,0,1.1-0.1,1.4-0.3c0.3-0.2,0.4-0.4,0.5-0.8c0.1-0.4,0.1-1.2,0.1-2.5v-7.7
				c0-1.2,0-2.1-0.1-2.4c-0.1-0.4-0.2-0.6-0.5-0.8c-0.2-0.1-0.8-0.2-1.5-0.2h-0.3V9h7.5v0.5H194c-0.8,0-1.3,0.1-1.5,0.2
				c-0.2,0.1-0.4,0.4-0.5,0.7c-0.1,0.3-0.1,1.2-0.1,2.5v8.2c0,1.1,0,1.8,0.1,2.1c0.1,0.3,0.2,0.5,0.5,0.7c0.3,0.2,0.9,0.2,1.8,0.2
				h1.2c1,0,1.7-0.1,2.1-0.3c0.5-0.2,0.9-0.5,1.3-1.1c0.4-0.6,0.8-1.5,1.2-2.7H200.6z"/>
			<path d="M218.2,16.4h-8.5l-0.6,1.4c-0.9,2.1-1.3,3.4-1.3,4c0,0.7,0.2,1.2,0.7,1.5c0.5,0.3,1,0.5,1.8,0.5v0.8h-6.7v-0.8
				c1-0.2,1.7-0.5,2.2-1c0.5-0.5,1.1-1.7,1.8-3.4c0.1-0.2,0.3-0.8,0.8-1.9l6.5-15.5h0.6l7.5,17.8l1,2.3c0.2,0.5,0.5,0.9,0.9,1.2
				c0.4,0.3,1,0.5,1.8,0.6v0.8h-8.8v-0.8c1.1,0,1.8-0.1,2.2-0.2c0.4-0.2,0.6-0.5,0.6-0.9c0-0.2-0.3-1-0.8-2.2L218.2,16.4z
				 M217.9,15.6l-4-9.5l-3.9,9.5H217.9z"/>
			<path d="M230.9,17.3v3.3c0,1.2,0,2,0.1,2.4c0.1,0.4,0.2,0.7,0.5,0.8c0.3,0.2,0.7,0.3,1.4,0.3h0.5v0.5h-7.2v-0.5h0.4
				c0.7,0,1.1-0.1,1.4-0.3c0.3-0.2,0.4-0.4,0.5-0.8c0.1-0.4,0.1-1.2,0.1-2.5v-7.7c0-1.2,0-2.1-0.1-2.4c-0.1-0.4-0.2-0.6-0.5-0.8
				c-0.2-0.1-0.8-0.2-1.5-0.2h-0.3V9l2-0.1c1.6-0.1,2.8-0.1,3.7-0.1c1.6,0,2.9,0.1,3.7,0.4c0.9,0.3,1.6,0.7,2.2,1.4
				c0.6,0.6,0.8,1.5,0.8,2.5c0,0.9-0.2,1.6-0.6,2.3c-0.4,0.7-0.9,1.2-1.6,1.5c-0.7,0.3-2,0.5-3.8,0.5H230.9z M230.9,16.7h1.1
				c0.9,0,1.6-0.1,2.2-0.3c0.6-0.2,1-0.6,1.4-1.1c0.4-0.6,0.6-1.3,0.6-2.1c0-1.3-0.3-2.2-1-2.8c-0.6-0.6-1.7-0.9-3.1-0.9
				c-0.5,0-0.9,0-1.2,0V16.7z"/>
			<path d="M241.8,17.3v3.3c0,1.2,0,2,0.1,2.4c0.1,0.4,0.2,0.7,0.5,0.8c0.3,0.2,0.7,0.3,1.4,0.3h0.5v0.5h-7.2v-0.5h0.4
				c0.7,0,1.1-0.1,1.4-0.3c0.3-0.2,0.4-0.4,0.5-0.8c0.1-0.4,0.1-1.2,0.1-2.5v-7.7c0-1.2,0-2.1-0.1-2.4c-0.1-0.4-0.2-0.6-0.5-0.8
				c-0.2-0.1-0.8-0.2-1.5-0.2h-0.3V9l2-0.1c1.6-0.1,2.8-0.1,3.7-0.1c1.6,0,2.9,0.1,3.7,0.4c0.9,0.3,1.6,0.7,2.2,1.4
				c0.6,0.6,0.8,1.5,0.8,2.5c0,0.9-0.2,1.6-0.6,2.3c-0.4,0.7-0.9,1.2-1.6,1.5c-0.7,0.3-2,0.5-3.8,0.5H241.8z M241.8,16.7h1.1
				c0.9,0,1.6-0.1,2.2-0.3c0.6-0.2,1-0.6,1.4-1.1c0.4-0.6,0.6-1.3,0.6-2.1c0-1.3-0.3-2.2-1-2.8c-0.6-0.6-1.7-0.9-3.1-0.9
				c-0.5,0-0.9,0-1.2,0V16.7z"/>
			<path d="M260.9,19.8h0.6l-0.3,4.9h-13v-0.5h0.3c0.8,0,1.3-0.1,1.5-0.3c0.2-0.2,0.4-0.5,0.4-0.8c0.1-0.3,0.1-1.1,0.1-2.4v-7.7
				c0-1.2,0-2-0.1-2.4c-0.1-0.4-0.2-0.6-0.5-0.8c-0.2-0.2-0.7-0.2-1.5-0.2V9h11.2l0.4,3.9h-0.5c-0.2-1.1-0.5-1.9-0.9-2.3
				c-0.4-0.5-0.8-0.7-1.3-0.9c-0.5-0.1-1.3-0.2-2.4-0.2h-2.2v6.6h1.7c0.8,0,1.3-0.1,1.6-0.2c0.3-0.1,0.5-0.3,0.6-0.6
				c0.1-0.3,0.1-0.8,0.1-1.6h0.5v5.4h-0.5c0-0.9-0.1-1.5-0.2-1.8c-0.1-0.3-0.4-0.5-0.6-0.6c-0.3-0.1-0.8-0.1-1.4-0.1h-1.7v3.7
				c0,1.9,0.1,3,0.4,3.3c0.2,0.3,0.9,0.5,1.9,0.5h1.2c0.8,0,1.5-0.1,2-0.3c0.5-0.2,1-0.6,1.5-1.3C260.2,21.8,260.6,20.9,260.9,19.8z
				"/>
			<path d="M270,18.9h-6l-0.4,1c-0.6,1.4-0.9,2.4-0.9,2.8c0,0.5,0.2,0.8,0.5,1.1c0.3,0.2,0.7,0.4,1.2,0.4v0.5h-4.7v-0.5
				c0.7-0.1,1.2-0.4,1.5-0.7c0.3-0.4,0.7-1.2,1.2-2.4c0-0.1,0.2-0.6,0.6-1.3l4.6-10.9h0.5l5.2,12.5l0.7,1.6c0.2,0.4,0.4,0.7,0.7,0.9
				c0.3,0.2,0.7,0.3,1.2,0.4v0.5h-6.2v-0.5c0.8,0,1.3-0.1,1.5-0.2c0.3-0.1,0.4-0.3,0.4-0.7c0-0.2-0.2-0.7-0.5-1.5L270,18.9z
				 M269.8,18.3l-2.8-6.7l-2.8,6.7H269.8z"/>
			<path d="M287.5,20l-0.1,4.6h-13.3v-0.5h0.5c0.7,0,1.1-0.1,1.4-0.3c0.3-0.2,0.4-0.4,0.5-0.8c0.1-0.4,0.1-1.2,0.1-2.5v-7.7
				c0-1.2,0-2.1-0.1-2.4c-0.1-0.4-0.2-0.6-0.5-0.8c-0.2-0.1-0.8-0.2-1.5-0.2h-0.3V9h7.5v0.5h-0.7c-0.8,0-1.3,0.1-1.5,0.2
				c-0.2,0.1-0.4,0.4-0.5,0.7c-0.1,0.3-0.1,1.2-0.1,2.5v8.2c0,1.1,0,1.8,0.1,2.1c0.1,0.3,0.2,0.5,0.5,0.7c0.3,0.2,0.9,0.2,1.8,0.2
				h1.2c1,0,1.7-0.1,2.1-0.3c0.5-0.2,0.9-0.5,1.3-1.1c0.4-0.6,0.8-1.5,1.2-2.7H287.5z"/>
		</g>
		<g>
			<path d="M178.1,38.4v-8.8h1.8l2.1,6.2c0.2,0.6,0.3,1,0.4,1.3c0.1-0.3,0.3-0.8,0.5-1.4l2.1-6.1h1.6v8.8h-1.1V31l-2.6,7.4h-1.1
				l-2.5-7.5v7.5H178.1z"/>
			<path d="M192.3,36.3l1.1,0.1c-0.2,0.7-0.5,1.2-1,1.5s-1.1,0.5-1.8,0.5c-0.9,0-1.7-0.3-2.2-0.9c-0.5-0.6-0.8-1.4-0.8-2.4
				c0-1.1,0.3-1.9,0.8-2.5c0.6-0.6,1.3-0.9,2.2-0.9c0.9,0,1.5,0.3,2.1,0.9c0.5,0.6,0.8,1.4,0.8,2.5c0,0.1,0,0.2,0,0.3h-4.8
				c0,0.7,0.2,1.2,0.6,1.6c0.4,0.4,0.8,0.6,1.3,0.6c0.4,0,0.7-0.1,1-0.3C191.9,37.1,192.1,36.8,192.3,36.3z M188.7,34.6h3.6
				c0-0.5-0.2-0.9-0.4-1.2c-0.3-0.4-0.8-0.6-1.3-0.6c-0.5,0-0.9,0.2-1.3,0.5C189,33.6,188.8,34,188.7,34.6z"/>
			<path d="M194.5,38.4V32h1v0.9c0.2-0.3,0.5-0.6,0.8-0.8s0.7-0.3,1.1-0.3c0.5,0,0.9,0.1,1.2,0.3c0.3,0.2,0.5,0.5,0.6,0.8
				c0.5-0.7,1.2-1.1,2-1.1c0.6,0,1.1,0.2,1.5,0.5c0.3,0.3,0.5,0.9,0.5,1.6v4.4H202v-4c0-0.4,0-0.7-0.1-0.9c-0.1-0.2-0.2-0.3-0.4-0.5
				c-0.2-0.1-0.4-0.2-0.6-0.2c-0.4,0-0.8,0.1-1.1,0.4c-0.3,0.3-0.4,0.8-0.4,1.4v3.7h-1.1v-4.1c0-0.5-0.1-0.8-0.3-1.1
				c-0.2-0.2-0.5-0.4-0.9-0.4c-0.3,0-0.6,0.1-0.8,0.2c-0.3,0.2-0.4,0.4-0.6,0.7c-0.1,0.3-0.2,0.8-0.2,1.3v3.3H194.5z"/>
			<path d="M204.4,40.8V32h1v0.8c0.2-0.3,0.5-0.6,0.8-0.7c0.3-0.2,0.6-0.2,1.1-0.2c0.5,0,1,0.1,1.4,0.4c0.4,0.3,0.7,0.7,0.9,1.2
				c0.2,0.5,0.3,1.1,0.3,1.7c0,0.7-0.1,1.2-0.4,1.8c-0.2,0.5-0.6,0.9-1,1.2c-0.4,0.3-0.9,0.4-1.4,0.4c-0.4,0-0.7-0.1-1-0.2
				c-0.3-0.2-0.5-0.3-0.7-0.6v3.1H204.4z M205.4,35.2c0,0.8,0.2,1.4,0.5,1.8s0.7,0.6,1.2,0.6c0.5,0,0.9-0.2,1.2-0.6s0.5-1,0.5-1.9
				c0-0.8-0.2-1.4-0.5-1.8c-0.3-0.4-0.7-0.6-1.2-0.6c-0.5,0-0.9,0.2-1.2,0.6S205.4,34.4,205.4,35.2z"/>
			<path d="M210.9,38.4v-8.8h1.1v3.2c0.5-0.6,1.1-0.9,1.9-0.9c0.5,0,0.9,0.1,1.2,0.3c0.3,0.2,0.6,0.4,0.7,0.8
				c0.2,0.3,0.2,0.8,0.2,1.4v4H215v-4c0-0.5-0.1-0.9-0.4-1.2c-0.2-0.2-0.6-0.4-1-0.4c-0.3,0-0.6,0.1-0.9,0.2
				c-0.3,0.2-0.5,0.4-0.6,0.7c-0.1,0.3-0.2,0.7-0.2,1.2v3.5H210.9z"/>
			<path d="M217.5,30.8v-1.2h1.1v1.2H217.5z M217.5,38.4V32h1.1v6.4H217.5z"/>
			<path d="M219.5,36.5l1.1-0.2c0.1,0.4,0.2,0.8,0.5,1s0.7,0.3,1.2,0.3c0.5,0,0.9-0.1,1.1-0.3c0.2-0.2,0.4-0.4,0.4-0.7
				c0-0.2-0.1-0.4-0.3-0.6c-0.1-0.1-0.5-0.2-1.1-0.4c-0.8-0.2-1.3-0.4-1.6-0.5c-0.3-0.1-0.5-0.3-0.7-0.6c-0.2-0.3-0.2-0.5-0.2-0.9
				c0-0.3,0.1-0.5,0.2-0.8c0.1-0.2,0.3-0.4,0.5-0.6c0.2-0.1,0.4-0.2,0.7-0.3c0.3-0.1,0.6-0.1,0.9-0.1c0.5,0,0.9,0.1,1.3,0.2
				s0.7,0.3,0.8,0.6s0.3,0.6,0.4,1l-1.1,0.1c0-0.3-0.2-0.6-0.4-0.8c-0.2-0.2-0.6-0.3-1-0.3c-0.5,0-0.9,0.1-1.1,0.2
				c-0.2,0.2-0.3,0.4-0.3,0.6c0,0.1,0,0.3,0.1,0.4c0.1,0.1,0.2,0.2,0.4,0.3c0.1,0,0.4,0.1,1,0.3c0.8,0.2,1.3,0.4,1.6,0.5
				c0.3,0.1,0.5,0.3,0.7,0.6c0.2,0.2,0.3,0.6,0.3,0.9c0,0.4-0.1,0.7-0.3,1c-0.2,0.3-0.5,0.6-0.9,0.7c-0.4,0.2-0.8,0.3-1.3,0.3
				c-0.8,0-1.5-0.2-1.9-0.5C219.9,37.7,219.6,37.2,219.5,36.5z"/>
			<path d="M226,38.4v-1.2h1.2v1.2c0,0.5-0.1,0.8-0.2,1.1c-0.2,0.3-0.4,0.5-0.8,0.6l-0.3-0.5c0.2-0.1,0.4-0.2,0.5-0.4
				c0.1-0.2,0.2-0.5,0.2-0.8H226z"/>
			<path d="M234.1,38.4v-7.8h-2.9v-1h7v1h-2.9v7.8H234.1z"/>
			<path d="M241.9,36.3l1.1,0.1c-0.2,0.7-0.5,1.2-1,1.5s-1.1,0.5-1.8,0.5c-0.9,0-1.7-0.3-2.2-0.9c-0.5-0.6-0.8-1.4-0.8-2.4
				c0-1.1,0.3-1.9,0.8-2.5c0.6-0.6,1.3-0.9,2.2-0.9c0.9,0,1.5,0.3,2.1,0.9c0.5,0.6,0.8,1.4,0.8,2.5c0,0.1,0,0.2,0,0.3h-4.8
				c0,0.7,0.2,1.2,0.6,1.6c0.4,0.4,0.8,0.6,1.3,0.6c0.4,0,0.7-0.1,1-0.3C241.6,37.1,241.8,36.8,241.9,36.3z M238.4,34.6h3.6
				c0-0.5-0.2-0.9-0.4-1.2c-0.3-0.4-0.8-0.6-1.3-0.6c-0.5,0-0.9,0.2-1.3,0.5C238.6,33.6,238.4,34,238.4,34.6z"/>
			<path d="M244.1,38.4V32h1v0.9c0.5-0.7,1.1-1.1,2-1.1c0.4,0,0.7,0.1,1.1,0.2c0.3,0.1,0.6,0.3,0.7,0.5c0.2,0.2,0.3,0.5,0.3,0.8
				c0,0.2,0.1,0.6,0.1,1.1v3.9h-1.1v-3.9c0-0.4,0-0.8-0.1-1c-0.1-0.2-0.2-0.4-0.4-0.5c-0.2-0.1-0.5-0.2-0.8-0.2
				c-0.5,0-0.9,0.1-1.2,0.4c-0.3,0.3-0.5,0.8-0.5,1.7v3.5H244.1z"/>
			<path d="M250.6,38.4V32h1v0.9c0.5-0.7,1.1-1.1,2-1.1c0.4,0,0.7,0.1,1.1,0.2c0.3,0.1,0.6,0.3,0.7,0.5c0.2,0.2,0.3,0.5,0.3,0.8
				c0,0.2,0.1,0.6,0.1,1.1v3.9h-1.1v-3.9c0-0.4,0-0.8-0.1-1s-0.2-0.4-0.4-0.5c-0.2-0.1-0.5-0.2-0.8-0.2c-0.5,0-0.9,0.1-1.2,0.4
				s-0.5,0.8-0.5,1.7v3.5H250.6z"/>
			<path d="M261.5,36.3l1.1,0.1c-0.2,0.7-0.5,1.2-1,1.5s-1.1,0.5-1.8,0.5c-0.9,0-1.7-0.3-2.2-0.9c-0.5-0.6-0.8-1.4-0.8-2.4
				c0-1.1,0.3-1.9,0.8-2.5c0.6-0.6,1.3-0.9,2.2-0.9c0.9,0,1.5,0.3,2.1,0.9c0.5,0.6,0.8,1.4,0.8,2.5c0,0.1,0,0.2,0,0.3h-4.8
				c0,0.7,0.2,1.2,0.6,1.6c0.4,0.4,0.8,0.6,1.3,0.6c0.4,0,0.7-0.1,1-0.3S261.4,36.8,261.5,36.3z M258,34.6h3.6
				c0-0.5-0.2-0.9-0.4-1.2c-0.3-0.4-0.8-0.6-1.3-0.6c-0.5,0-0.9,0.2-1.3,0.5C258.2,33.6,258,34,258,34.6z"/>
			<path d="M263.3,36.5l1.1-0.2c0.1,0.4,0.2,0.8,0.5,1c0.3,0.2,0.7,0.3,1.2,0.3c0.5,0,0.9-0.1,1.1-0.3s0.4-0.4,0.4-0.7
				c0-0.2-0.1-0.4-0.3-0.6c-0.1-0.1-0.5-0.2-1.1-0.4c-0.8-0.2-1.3-0.4-1.6-0.5c-0.3-0.1-0.5-0.3-0.7-0.6c-0.2-0.3-0.2-0.5-0.2-0.9
				c0-0.3,0.1-0.5,0.2-0.8s0.3-0.4,0.5-0.6c0.2-0.1,0.4-0.2,0.7-0.3c0.3-0.1,0.6-0.1,0.9-0.1c0.5,0,0.9,0.1,1.3,0.2s0.7,0.3,0.8,0.6
				s0.3,0.6,0.4,1l-1.1,0.1c0-0.3-0.2-0.6-0.4-0.8c-0.2-0.2-0.6-0.3-1-0.3c-0.5,0-0.9,0.1-1.1,0.2c-0.2,0.2-0.3,0.4-0.3,0.6
				c0,0.1,0,0.3,0.1,0.4c0.1,0.1,0.2,0.2,0.4,0.3c0.1,0,0.4,0.1,1,0.3c0.8,0.2,1.3,0.4,1.6,0.5c0.3,0.1,0.5,0.3,0.7,0.6
				c0.2,0.2,0.3,0.6,0.3,0.9c0,0.4-0.1,0.7-0.3,1s-0.5,0.6-0.9,0.7c-0.4,0.2-0.8,0.3-1.3,0.3c-0.8,0-1.5-0.2-1.9-0.5
				C263.7,37.7,263.4,37.2,263.3,36.5z"/>
			<path d="M269.1,36.5l1.1-0.2c0.1,0.4,0.2,0.8,0.5,1c0.3,0.2,0.7,0.3,1.2,0.3c0.5,0,0.9-0.1,1.1-0.3s0.4-0.4,0.4-0.7
				c0-0.2-0.1-0.4-0.3-0.6c-0.1-0.1-0.5-0.2-1.1-0.4c-0.8-0.2-1.3-0.4-1.6-0.5c-0.3-0.1-0.5-0.3-0.7-0.6c-0.2-0.3-0.2-0.5-0.2-0.9
				c0-0.3,0.1-0.5,0.2-0.8s0.3-0.4,0.5-0.6c0.2-0.1,0.4-0.2,0.7-0.3c0.3-0.1,0.6-0.1,0.9-0.1c0.5,0,0.9,0.1,1.3,0.2
				c0.4,0.1,0.7,0.3,0.8,0.6c0.2,0.2,0.3,0.6,0.4,1l-1.1,0.1c0-0.3-0.2-0.6-0.4-0.8c-0.2-0.2-0.6-0.3-1-0.3c-0.5,0-0.9,0.1-1.1,0.2
				c-0.2,0.2-0.3,0.4-0.3,0.6c0,0.1,0,0.3,0.1,0.4c0.1,0.1,0.2,0.2,0.4,0.3c0.1,0,0.4,0.1,1,0.3c0.8,0.2,1.3,0.4,1.6,0.5
				c0.3,0.1,0.5,0.3,0.7,0.6c0.2,0.2,0.3,0.6,0.3,0.9c0,0.4-0.1,0.7-0.3,1s-0.5,0.6-0.9,0.7c-0.4,0.2-0.8,0.3-1.3,0.3
				c-0.8,0-1.5-0.2-1.9-0.5C269.5,37.7,269.2,37.2,269.1,36.5z"/>
			<path d="M279.8,36.3l1.1,0.1c-0.2,0.7-0.5,1.2-1,1.5s-1.1,0.5-1.8,0.5c-0.9,0-1.7-0.3-2.2-0.9c-0.5-0.6-0.8-1.4-0.8-2.4
				c0-1.1,0.3-1.9,0.8-2.5c0.6-0.6,1.3-0.9,2.2-0.9c0.9,0,1.5,0.3,2.1,0.9c0.5,0.6,0.8,1.4,0.8,2.5c0,0.1,0,0.2,0,0.3h-4.8
				c0,0.7,0.2,1.2,0.6,1.6c0.4,0.4,0.8,0.6,1.3,0.6c0.4,0,0.7-0.1,1-0.3S279.6,36.8,279.8,36.3z M276.2,34.6h3.6
				c0-0.5-0.2-0.9-0.4-1.2c-0.3-0.4-0.8-0.6-1.3-0.6c-0.5,0-0.9,0.2-1.3,0.5C276.4,33.6,276.2,34,276.2,34.6z"/>
			<path d="M286.3,36.3l1.1,0.1c-0.2,0.7-0.5,1.2-1,1.5s-1.1,0.5-1.8,0.5c-0.9,0-1.7-0.3-2.2-0.9c-0.5-0.6-0.8-1.4-0.8-2.4
				c0-1.1,0.3-1.9,0.8-2.5c0.6-0.6,1.3-0.9,2.2-0.9c0.9,0,1.5,0.3,2.1,0.9c0.5,0.6,0.8,1.4,0.8,2.5c0,0.1,0,0.2,0,0.3h-4.8
				c0,0.7,0.2,1.2,0.6,1.6c0.4,0.4,0.8,0.6,1.3,0.6c0.4,0,0.7-0.1,1-0.3C285.9,37.1,286.1,36.8,286.3,36.3z M282.7,34.6h3.6
				c0-0.5-0.2-0.9-0.4-1.2c-0.3-0.4-0.8-0.6-1.3-0.6c-0.5,0-0.9,0.2-1.3,0.5C283,33.6,282.8,34,282.7,34.6z"/>
		</g>
	</g>
</g>
<g id="Layer_1">
</g>
</svg>
