<?xml version="1.0" encoding="utf-8"?>
<!-- Generator: Adobe Illustrator 18.0.0, SVG Export Plug-In . SVG Version: 6.00 Build 0)  -->
<!DOCTYPE svg PUBLIC "-//W3C//DTD SVG 1.1//EN" "http://www.w3.org/Graphics/SVG/1.1/DTD/svg11.dtd">
<svg version="1.1" xmlns="http://www.w3.org/2000/svg" xmlns:xlink="http://www.w3.org/1999/xlink" x="0px" y="0px"
	 viewBox="0 0 300 69" style="enable-background:new 0 0 300 69;" xml:space="preserve">
<style type="text/css">
	.st0{fill-rule:evenodd;clip-rule:evenodd;}
	.st1{fill-rule:evenodd;clip-rule:evenodd;fill:#C038F9;}
	.st2{fill:none;}
	.st3{fill-rule:evenodd;clip-rule:evenodd;fill:#231F20;}
</style>
<g id="Layer_2">
</g>
<g id="Layer_1">
	<g>
		<g>
			<path d="M10.1,48.6L0,5.4h5.4l4.7,21.8c1.2,5.4,2.2,10.8,2.9,14.9h0.1c0.6-4.3,1.9-9.4,3.2-15l5.3-21.8h5.4L32,27.3
				c1.1,5.1,2.2,10.2,2.8,14.8h0.1c0.8-4.7,1.9-9.5,3.2-14.9l5.2-21.8h5.2L37.3,48.6h-5.4l-5-22.5c-1.2-5.5-2.1-9.7-2.6-14.1h-0.1
				c-0.7,4.3-1.6,8.5-3.1,14.1l-5.7,22.5H10.1z"/>
			<path d="M66.1,41.1c0,2.7,0.1,5.3,0.5,7.4h-4.7l-0.4-3.9h-0.2c-1.6,2.4-4.7,4.6-8.7,4.6c-5.8,0-8.7-4.4-8.7-8.9
				c0-7.5,6.1-11.6,17.2-11.5v-0.6c0-2.6-0.6-7.2-6.5-7.2c-2.7,0-5.4,0.9-7.4,2.3l-1.2-3.7c2.4-1.7,5.8-2.8,9.4-2.8
				c8.7,0,10.9,6.5,10.9,12.7V41.1z M61.1,32.8c-5.7-0.1-12.1,1-12.1,7c0,3.6,2.2,5.4,4.9,5.4c3.7,0,6.1-2.6,6.9-5.2
				c0.2-0.6,0.3-1.2,0.3-1.8V32.8z"/>
			<path d="M68.5,42.8c1.5,1.1,4.2,2.2,6.8,2.2c3.8,0,5.5-2,5.5-4.6c0-2.7-1.5-4.2-5.3-5.7c-5.1-2-7.5-5.1-7.5-8.8
				c0-5,3.7-9.1,9.8-9.1c2.9,0,5.4,0.9,7,1.9l-1.3,4.1c-1.1-0.8-3.2-1.8-5.8-1.8c-3.1,0-4.8,1.9-4.8,4.2c0,2.6,1.7,3.7,5.4,5.2
				c5,2,7.5,4.7,7.5,9.3c0,5.4-3.9,9.3-10.7,9.3c-3.1,0-6-0.9-8-2.2L68.5,42.8z"/>
			<path d="M87.2,3.1h5.2v19.3h0.1c0.8-1.6,2.1-3,3.7-4c1.5-1,3.4-1.6,5.3-1.6c3.8,0,10,2.6,10,13.2v18.4h-5.2V30.8
				c0-5-1.7-9.2-6.6-9.2c-3.4,0-6,2.6-7,5.6c-0.3,0.8-0.4,1.6-0.4,2.7v18.7h-5.2V3.1z"/>
			<path d="M120.4,8.9c0.1,1.9-1.2,3.5-3.3,3.5c-1.8,0-3.1-1.5-3.1-3.5c0-2,1.4-3.5,3.2-3.5C119.2,5.4,120.4,6.9,120.4,8.9z
				 M114.7,48.6v-31h5.2v31H114.7z"/>
			<path d="M123.1,26c0-3.2-0.1-5.8-0.2-8.4h4.6l0.3,5.1h0.1c1.4-2.9,4.7-5.8,9.4-5.8c4,0,10.1,2.6,10.1,13.2v18.5h-5.2V30.7
				c0-5-1.7-9.2-6.6-9.2c-3.4,0-6.1,2.6-7,5.8c-0.2,0.7-0.4,1.7-0.4,2.6v18.6h-5.2V26z"/>
			<path d="M174.9,44.1c0,7.1-1.3,11.5-4.1,14.1c-2.8,2.8-6.8,3.7-10.4,3.7c-3.4,0-7.2-0.9-9.5-2.6l1.3-4.3c1.9,1.3,4.8,2.4,8.4,2.4
				c5.3,0,9.2-3,9.2-10.8v-3.5h-0.1c-1.6,2.9-4.7,5.2-9.1,5.2c-7.1,0-12.1-6.5-12.1-15.1c0-10.5,6.3-16.4,12.9-16.4
				c5,0,7.7,2.8,8.9,5.4h0.1l0.2-4.7h4.5c-0.1,2.2-0.2,4.7-0.2,8.5V44.1z M169.8,29.8c0-1-0.1-1.8-0.3-2.6c-0.9-3.3-3.5-6-7.3-6
				c-5,0-8.5,4.5-8.5,11.7c0,6.1,2.8,11.1,8.4,11.1c3.2,0,6.1-2.2,7.2-5.8c0.3-1,0.4-2,0.4-3V29.8z"/>
			<path d="M191.9,17.6v4.3h-7.4v16.7c0,3.8,1,6,3.9,6c1.4,0,2.2-0.1,3-0.4l0.2,4.2c-1,0.4-2.6,0.8-4.6,0.8c-2.4,0-4.4-0.9-5.6-2.4
				c-1.5-1.7-2-4.4-2-8.1V21.9h-3.5v-4.3H191.9z"/>
			<path d="M217.9,32.8c0,11.5-7.3,16.4-14.2,16.4c-7.7,0-13.7-6.1-13.7-15.9c0-10.4,6.3-16.4,14.2-16.4
				C212.4,16.9,217.9,23.3,217.9,32.8z M195.3,33.1c0,6.8,3.6,11.9,8.7,11.9c5,0,8.7-5.1,8.7-12c0-5.2-2.4-11.9-8.6-11.9
				C197.9,21.1,195.3,27.3,195.3,33.1z"/>
			<path d="M219.2,26c0-3.2-0.1-5.8-0.2-8.4h4.6l0.3,5.1h0.1c1.4-2.9,4.7-5.8,9.4-5.8c4,0,10.1,2.6,10.1,13.2v18.5h-5.2V30.7
				c0-5-1.7-9.2-6.6-9.2c-3.4,0-6.1,2.6-7,5.8c-0.2,0.7-0.4,1.7-0.4,2.6v18.6h-5.2V26z"/>
		</g>
		<g>
			<path d="M81.3,60.9c-0.1-1.5-0.1-3.4-0.1-5.3h0c-0.4,1.6-1,3.5-1.4,5l-1.6,5h-2.3l-1.4-5c-0.4-1.5-0.8-3.3-1.2-5h0
				c-0.1,1.7-0.1,3.7-0.2,5.3l-0.2,4.9h-2.7L71,53h3.9l1.3,4.3c0.4,1.5,0.8,3.1,1.1,4.6h0.1c0.3-1.5,0.8-3.2,1.2-4.6l1.3-4.3h3.8
				l0.7,12.8h-2.8L81.3,60.9z"/>
			<path d="M91.4,66c-3.8,0-6-2.9-6-6.5c0-3.8,2.5-6.7,6.2-6.7c3.9,0,6.1,2.9,6.1,6.5C97.7,63.5,95.1,66,91.4,66L91.4,66z
				 M91.5,63.7c2,0,3.1-1.8,3.1-4.4c0-2.3-1.1-4.3-3.1-4.3c-2,0-3.1,1.9-3.1,4.3C88.4,61.8,89.6,63.7,91.5,63.7L91.5,63.7z"/>
			<path d="M99,65.8V53h3.4l2.7,4.7c0.8,1.3,1.5,2.9,2.1,4.4h0c-0.2-1.7-0.2-3.4-0.2-5.4V53h2.7v12.8h-3l-2.7-4.9
				c-0.8-1.4-1.6-3-2.2-4.5h-0.1c0.1,1.7,0.1,3.5,0.1,5.6v3.9H99z"/>
			<path d="M114,55.4h-3.5V53h9.8v2.4h-3.5v10.4H114V55.4z"/>
			<path d="M124.3,53v4.9h4.8V53h2.9v12.8H129v-5.3h-4.8v5.3h-2.9V53H124.3z"/>
			<path d="M133.9,53h2.9v10.4h5.1v2.4h-8V53z"/>
			<path d="M144.3,65.8v-5.2l-4-7.6h3.3l1.3,3.1c0.4,0.9,0.7,1.6,1,2.5h0c0.3-0.8,0.6-1.5,1-2.5l1.3-3.1h3.2l-4.2,7.5v5.3H144.3z"/>
		</g>
	</g>
</g>
</svg>
