<?xml version="1.0" encoding="utf-8"?>
<!-- Generator: Adobe Illustrator 18.0.0, SVG Export Plug-In . SVG Version: 6.00 Build 0)  -->
<!DOCTYPE svg PUBLIC "-//W3C//DTD SVG 1.1//EN" "http://www.w3.org/Graphics/SVG/1.1/DTD/svg11.dtd">
<svg version="1.1" xmlns="http://www.w3.org/2000/svg" xmlns:xlink="http://www.w3.org/1999/xlink" x="0px" y="0px"
	 viewBox="0 0 300 53" style="enable-background:new 0 0 300 53;" xml:space="preserve">
<style type="text/css">
	.st0{fill-rule:evenodd;clip-rule:evenodd;}
	.st1{fill-rule:evenodd;clip-rule:evenodd;fill:#C038F9;}
	.st2{fill:none;}
	.st3{fill-rule:evenodd;clip-rule:evenodd;fill:#231F20;}
</style>
<g id="Layer_2">
	<g>
		<g>
			<g id="ejakwA.tif">
				<g>
					<path d="M50.5,41.3c0.1-0.6,0.3-1.1,0.3-1.7c0.1-4.1,0.1-8.3,0.2-12.4c0-1.7,0.2-3.4,0.3-5.2c1.5,0,3,0,4.6,0
						c1.8,5.3,3.6,10.6,5.6,16.2c1.9-5.6,3.8-10.9,5.6-16.2c1.6,0,3,0,4.5,0c0.1,0.5,0.2,0.9,0.3,1.4c0,0.4,0,0.8,0,1.2
						c0.2,7.4,0.3,14.7,0.5,22.1c0,0.7,0,1.5,0,2.4c-1.5,0-2.9,0-4.5,0c0-5.5,0-11,0-16.5c-1.9,3.4-2.7,7.2-4.3,10.7
						c-1.4,0-2.8,0-4.3,0c-1.3-3.6-2.6-7.2-3.9-10.9c-0.1,0-0.2,0-0.3,0.1c0,5.5,0,11,0,16.7c-1.6,0.1-3.1,0-4.6,0.1
						C50.5,46.6,50.5,43.9,50.5,41.3z"/>
					<path d="M220.5,49.6c-0.1-0.1-0.3-0.3-0.4-0.4c-3.1-0.9-4.4-3.2-4.5-6.2c-0.1-2.5-0.1-5-0.1-7.4c0-2.4,0-4.8,0-7.2
						c0-1.7,0.4-3.3,1.6-4.6c1.4-1.6,3.3-2.1,5.3-2.3c2.1-0.2,4.2,0.2,6.4,1c-0.2,1.1-0.4,2.3-0.6,3.6c-0.6-0.1-1.2-0.1-1.8-0.2
						c-1.1-0.1-2.2-0.3-3.3-0.2c-1.9,0.1-2.8,1.1-3,3c0,0.2,0,0.4,0,0.6c0,4.2,0,8.4,0,12.6c0,1.6,0.5,2.8,2.4,3.7
						c1.6-0.1,3.6-0.2,5.7-0.4c0.2,1,0.4,2.1,0.7,3.4c-0.9,0.4-1.7,0.7-2.6,1C224.3,49.6,222.4,49.6,220.5,49.6z"/>
					<path d="M94.3,22c3.3,0,6.3-0.1,9.4,0c1.1,0,2.2,0.4,3.2,0.8c1.6,0.6,2.5,2,2.8,3.6c0.4,2.6,0.6,5.2,0.1,7.8
						c-0.2,1.3-0.8,2.3-1.8,3.1c-0.5,0.4-1,0.7-1.5,1.1c1.6,3.5,3.2,7,4.9,10.7c-1.8,0.1-3.5,0-5.3,0.1c-1.5-3.4-3-6.8-4.5-10.2
						c-0.8,0-1.5,0-2.5,0c0,1.7,0,3.4,0,5.1c0,1.6,0,3.3,0,5c-1.5,0-2.9,0-4.6,0C94.3,40.1,94.3,31.1,94.3,22z M99,34.6
						c1.9,0,3.5,0,4.9,0c0.9-0.6,1.2-1.2,1.2-2.1c0-1.7,0-3.4,0-5c-1.4-1.7-3.1-2-6.1-1.3C99,29.1,99,31.8,99,34.6z"/>
					<path d="M92.1,49.1c-1.7,0-3.1,0-4.7,0c-0.4-1.9-0.8-3.8-1.3-5.8c-2,0-3.8,0-5.8,0c-0.9,1.7-0.6,3.9-1.4,5.7
						c-1.4,0-2.9,0-4.5,0c0.8-4.7,2-9.1,3-13.6c1-4.5,2.1-8.9,3.2-13.4c1.7,0,3.4,0,5.2,0C87.9,31,90,40,92.1,49.1z M83.2,27.9
						c-0.8,3.7-1.7,7.3-2.2,11.2c1.5,0,2.8,0,4.3,0C84.9,35.2,84,31.6,83.2,27.9z"/>
					<path d="M202.6,22c1.7,0,3.4,0,5.2,0c2.1,9,4.2,18,6.3,27.1c-1.6,0-3.1,0-4.7,0c-0.4-1.9-0.8-3.8-1.3-5.7c-2,0-3.8,0-5.9,0
						c-0.4,1.9-0.8,3.8-1.2,5.7c-1.5,0-3,0-4.6,0c0.8-4.7,2.1-9.1,3-13.7C200.4,31,201.5,26.5,202.6,22z M205.4,27.5
						c-1,2-1,4-1.4,5.8c-0.4,1.9-1,3.8-0.8,5.8c1.4,0,2.7,0,4.2,0C207,35.2,206,31.5,205.4,27.5z"/>
					<path d="M169.7,38.8c0,3.5,0,6.8,0,10.2c-1.5,0.2-2.9,0.1-4.3,0.1c-0.4-1.5-0.5-22.9-0.2-27.2c0.6,0,1.3-0.1,2-0.1c2,0,4,0,6,0
						c1,0,2.1,0.1,3,0.4c2.2,0.6,3.5,2,3.8,4.3c0.3,2.3,0.4,4.5,0.1,6.8c-0.5,3.1-2.6,5.2-5.8,5.4C172.8,38.9,171.4,38.8,169.7,38.8
						z M174.2,34.7c0.9-0.5,1.3-1.1,1.3-1.9c0-1.8,0-3.6,0-5.2c-1.6-2.3-3.7-1.3-5.7-1.5c0,2.9,0,5.7,0,8.6
						C171.3,34.7,172.7,34.7,174.2,34.7z"/>
					<path d="M145.1,33.3c0,1.5,0,2.7,0,4.1c-2.5,0.3-5,0-7.7,0.2c0,2.4,0,4.8,0,7.4c2.8,0,5.6,0,8.4,0c0,1.4,0,2.6,0,3.9
						c0,0-0.1,0.1-0.1,0.1c-0.1,0-0.1,0.1-0.2,0.1c-4.2,0-8.4,0-12.6,0c-0.4-1.5-0.5-22.4-0.2-26.9c1.5-0.3,9.7-0.4,13-0.1
						c0,1.3,0,2.5,0,4c-1.4,0-2.7,0-4.1,0c-1.4,0-2.7,0-4.2,0c-0.4,1.2-0.2,2.5-0.2,3.7c0,1.2,0,2.3,0,3.6
						C140,33.3,142.5,33.3,145.1,33.3z"/>
					<path d="M236.8,26.1c0,2.6,0,4.9,0,7.3c2.6,0,5,0,7.5,0c0.4,1.4,0.1,2.7,0.3,4.1c-2.7,0-5.2,0-7.8,0c0,2.6,0,5,0,7.5
						c2.8,0,5.5,0,8.3,0c0.4,1.4,0.2,2.7,0.2,3.9c-1.6,0.4-8.9,0.5-13,0.2c-0.3-1.5-0.4-23.8-0.1-26.9c1.5-0.3,10.4-0.4,13-0.1
						c0,1.3,0,2.5,0,4c-1.4,0-2.8,0-4.1,0C239.7,26.1,238.3,26.1,236.8,26.1z"/>
					<path d="M152.7,48.8c0-7.5,0-15,0-22.7c-0.9,0-1.7,0-2.5,0c-0.8,0-1.5,0-2.4,0c-0.3-1.3-0.2-2.6-0.1-3.9
						c1.6-0.3,12-0.4,14.7-0.1c0,1.3,0,2.5,0,4c-1.6,0-3.2,0-4.9,0c0,7.7,0,15.3,0,22.8C155.8,49.3,154.1,49.3,152.7,48.8z"/>
					<path d="M182.9,49.1c0-9.1,0-18,0-27.1c0.8,0,1.5,0,2.3,0c0.7,0,1.4,0,1.9,0c0.2,0.2,0.3,0.2,0.3,0.3c0,0.1,0.1,0.1,0.1,0.2
						c0,7.4,0,14.9,0,22.5c2.5,0.2,4.9,0,7.3,0.1c0,1.3,0,2.6,0,4C190.9,49.1,187,49.1,182.9,49.1z"/>
					<path d="M130.2,49.1c-1.8,0-3.4,0-5.3,0c-2-4.6-4.1-9.2-6.1-13.9c2-4.4,3.9-8.7,5.9-13.1c1.7-0.4,3.4-0.1,5.3-0.2
						c-2.1,4.6-4.2,9-6.2,13.4C125.9,39.8,128,44.4,130.2,49.1z"/>
					<path d="M118.3,49.1c-1.5,0-2.9,0-4.2,0c-0.4-1.5-0.6-21.2-0.2-27c0.7-0.5,1.4-0.2,2.2-0.2c0.7-0.1,1.4,0,2,0
						C118.5,23.5,118.6,42.1,118.3,49.1z"/>
				</g>
			</g>
			<polygon points="19.4,30.5 46.3,2.4 46.3,48.4 0,48.4 0,11.8 			"/>
		</g>
		<g>
			<path d="M253.1,22c0.7,0,1.3,0.2,1.9,0.5c0.6,0.3,1.1,0.8,1.5,1.5c0.4,0.6,0.5,1.3,0.5,2c0,0.7-0.2,1.3-0.5,2
				c-0.3,0.6-0.8,1.1-1.5,1.5c-0.6,0.3-1.3,0.5-2,0.5s-1.3-0.2-2-0.5c-0.6-0.3-1.1-0.8-1.5-1.5c-0.3-0.6-0.5-1.3-0.5-2
				c0-0.7,0.2-1.3,0.5-2c0.4-0.6,0.8-1.1,1.5-1.5C251.8,22.2,252.5,22,253.1,22z M253.1,22.7c-0.6,0-1.1,0.1-1.6,0.4
				c-0.5,0.3-0.9,0.7-1.2,1.2c-0.3,0.5-0.4,1.1-0.4,1.6c0,0.6,0.1,1.1,0.4,1.6c0.3,0.5,0.7,0.9,1.2,1.2c0.5,0.3,1.1,0.4,1.6,0.4
				c0.6,0,1.1-0.1,1.6-0.4c0.5-0.3,0.9-0.7,1.2-1.2c0.3-0.5,0.4-1.1,0.4-1.6c0-0.6-0.1-1.1-0.4-1.6c-0.3-0.5-0.7-0.9-1.2-1.2
				C254.2,22.8,253.7,22.7,253.1,22.7z M251.4,28.1v-4.2h1.5c0.5,0,0.9,0,1.1,0.1c0.2,0.1,0.4,0.2,0.5,0.4c0.1,0.2,0.2,0.4,0.2,0.6
				c0,0.3-0.1,0.6-0.3,0.8c-0.2,0.2-0.5,0.4-0.9,0.4c0.2,0.1,0.3,0.1,0.4,0.2c0.2,0.2,0.4,0.4,0.6,0.8l0.5,0.8h-0.8l-0.4-0.7
				c-0.3-0.5-0.5-0.9-0.7-1c-0.1-0.1-0.3-0.1-0.5-0.1h-0.4v1.8H251.4z M252.1,25.7h0.8c0.4,0,0.7-0.1,0.8-0.2
				c0.1-0.1,0.2-0.3,0.2-0.5c0-0.1,0-0.2-0.1-0.3c-0.1-0.1-0.2-0.2-0.3-0.2c-0.1,0-0.4-0.1-0.7-0.1h-0.8V25.7z"/>
		</g>
	</g>
</g>
<g id="Layer_1">
</g>
</svg>
