<?xml version="1.0" encoding="utf-8"?>
<!-- Generator: Adobe Illustrator 18.0.0, SVG Export Plug-In . SVG Version: 6.00 Build 0)  -->
<!DOCTYPE svg PUBLIC "-//W3C//DTD SVG 1.1//EN" "http://www.w3.org/Graphics/SVG/1.1/DTD/svg11.dtd">
<svg version="1.1" xmlns="http://www.w3.org/2000/svg" xmlns:xlink="http://www.w3.org/1999/xlink" x="0px" y="0px"
	 viewBox="0 0 300 100" style="enable-background:new 0 0 300 100;" xml:space="preserve">
<style type="text/css">
	.st0{fill-rule:evenodd;clip-rule:evenodd;}
	.st1{fill-rule:evenodd;clip-rule:evenodd;fill:#C038F9;}
	.st2{fill:none;}
	.st3{fill-rule:evenodd;clip-rule:evenodd;fill:#231F20;}
</style>
<g id="Layer_2">
</g>
<g id="Layer_1">
	<g>
		<path d="M16.7,51c-1-1.5-2.6-2.6-4.3-3.3c0.8-0.9,1.7-1.8,2.2-3c0.5-1.2,0.8-2.5,0.5-3.8c-0.3-1.3-1.1-2.4-2.2-3.2
			c-1.1-0.7-2.4-1.1-3.7-1.2c-1.3-0.1-2.6,0-3.8,0c-1.3,0.1-2.6,0-3.8-0.1c-0.3,0-0.6,0-1,0c-0.2,0-0.4,0.1-0.5,0.2
			C0.1,36.9,0,37,0,37.1c0,0.1,0,0.2,0,0.3c0.2,0.5,0.7,0.4,0.9,0.4c0.3,0,0.7,0,0.9,0.1c0.3,0.1,0.6,0.2,0.7,0.5
			c0.1,0.2,0.2,0.6,0.2,0.9c0,0.6,0,1.3,0,1.9c0,2.6,0.1,5.1,0,7.7l0,7.7c0,1.3,0,2.6-0.3,3.8c-0.1,0.3-0.2,0.6-0.4,0.7
			c-0.3,0.1-0.6,0.1-0.9,0.1c-0.2,0-0.3,0-0.5,0.2c-0.2,0.1-0.2,0.3-0.2,0.5c0,0.2,0.2,0.4,0.4,0.4c0.2,0.1,0.3,0.1,0.5,0.1
			c1.3,0,2.6-0.2,3.8-0.1l3.1,0.1c0.3,0,0.6,0,0.7,0c0.3,0,0.6,0,0.9,0c0.1,0,0.1,0,0.2,0c0.1,0,0.2,0,0.3,0c0.5,0,0.9-0.1,1.4-0.2
			c0.4-0.1,0.9-0.2,1.3-0.4c0.4-0.2,0.8-0.4,1.3-0.6l0.6-0.4l0.5-0.5c0.3-0.3,0.7-0.7,0.9-1c0.6-0.8,1-1.6,1.2-2.6
			c0.2-0.9,0.2-1.9,0.1-2.8C17.6,52.7,17.3,51.8,16.7,51z M6.4,58.3c0-0.5,0-0.9,0-1.4c0-0.9,0-1.8,0-2.6c0-1.6-0.1-3-0.1-3.9
			c0-0.9,0-1.5,0-1.5s0.5,0,1.5,0.1c0.5,0,1,0,1.7,0.2c0.6,0.1,1.3,0.4,1.9,0.9c1.3,0.9,2.4,2.5,2.8,4.5c0.2,1,0.3,2,0.1,3
			c-0.2,1-0.8,1.9-1.7,2.4c-0.9,0.5-2,0.7-3,0.6c-0.5,0-1-0.1-1.5-0.2c-0.5-0.1-1-0.3-1.2-0.7C6.4,59.3,6.4,58.7,6.4,58.3z
			 M6.2,47.1c0,0.1,0,0.1,0,0.2c0-0.4,0-0.8,0-1.1l0-1.1c0-0.8,0.1-1.5,0-2.3l0-4.4c0.2-0.1,0.7-0.1,1-0.2c0.4,0,0.7,0,1.1,0
			c0.4,0,0.7,0.1,1,0.3c0.3,0.1,0.6,0.3,0.9,0.6c1.1,0.9,1.5,2.5,1.6,3.9c0.1,0.7,0,1.5-0.3,2.2c-0.2,0.7-0.6,1.3-1.2,1.8
			c-0.3,0.2-0.6,0.3-1,0.3c-0.4,0-0.7,0.1-1.1,0.1c-0.7,0-1.5,0.1-2.2,0l-0.1,0c0,0,0,0,0,0c0,0,0,0,0-0.1V47.1z"/>
		<path d="M42.6,40.3c-0.5,0-1,0-1.6,0c-1,0.1-2,0-3.1,0c-0.5,0-1-0.1-1.6,0c-0.1,0-0.3,0.1-0.4,0.2c-0.1,0.1-0.2,0.3-0.2,0.4
			c0,0.4,0.4,0.6,0.6,0.6c0.5,0.1,1.1,0,1.5,0.2c0.4,0.2,0.4,0.8,0.4,1.3l0,3.1c0,2.1,0,4.1,0,6.1c0,2-0.1,4.1-1,5.9
			c-0.5,0.9-1.2,1.6-2.1,2c-0.9,0.4-1.9,0.6-2.9,0.5c-2,0-4.1-1-4.9-2.9c-0.8-1.9-0.8-4-0.8-6l0-6.2c0-1,0-2.1,0-3.1
			c0-0.5,0.1-1.1,0.6-1.1l0.8-0.1c0.3,0,0.6-0.1,0.7-0.5c0-0.1,0-0.3-0.1-0.5c-0.1-0.1-0.3-0.2-0.4-0.2c-0.3-0.1-0.5,0-0.8,0l-1.5,0
			c-1,0.1-2,0-3.1,0l-1.5,0c-0.3,0-0.6,0-0.8,0.4c-0.1,0.2-0.1,0.3,0,0.5c0.1,0.2,0.2,0.3,0.3,0.3c0.3,0.1,0.5,0.1,0.8,0.1
			c0.3,0,0.5,0,0.7,0.1c0.5,0.1,0.5,0.7,0.5,1.2l0,0l0.1,6.3v3.2c0,1,0,2.1,0.2,3.2c0.2,1,0.4,2.1,0.9,3c0.5,1,1.2,1.8,2,2.4
			c1.7,1.3,3.9,1.7,6,1.7c-0.3,0-0.5,0-0.8,0c0.3,0,0.5,0,0.8,0c1,0,2.1-0.1,3.1-0.3c1-0.3,1.9-0.7,2.8-1.3c1.7-1.2,2.6-3.2,3-5.3
			c0.4-2,0.3-4.1,0.3-6.2l0-6.2c0-0.5,0-1,0.2-1.5c0.2-0.4,0.8-0.3,1.3-0.4c0.3,0,0.6-0.3,0.6-0.6c0-0.2-0.1-0.3-0.2-0.4
			C42.9,40.3,42.8,40.3,42.6,40.3z"/>
		<path d="M51.8,47.8c-0.9-0.8-2-1.7-2.1-3c-0.1-0.6,0-1.3,0.4-1.8c0.3-0.5,0.9-0.9,1.5-1.1c0.6-0.2,1.3-0.2,2-0.1
			c0.7,0.1,1.4,0.3,1.9,0.7c0.6,0.4,0.8,1,0.9,1.7c0,0.2,0,0.3,0.1,0.5c0,0.2,0.2,0.4,0.4,0.5c0.2,0.1,0.5,0,0.6-0.2
			c0.1-0.2,0.1-0.4,0.1-0.6c0-0.7,0.1-1.4,0.1-2.2l0-1.1c0-0.2,0-0.4-0.2-0.6c-0.2-0.2-0.4-0.2-0.6-0.2c-0.4-0.1-0.7-0.1-1.1-0.2
			c-0.4-0.1-0.7-0.1-1.1-0.2c-0.7-0.1-1.5-0.1-2.2-0.1c-1.5,0.1-3,0.6-4.1,1.5c-1.2,1-1.8,2.5-1.7,4c0,1.5,0.5,2.9,1.4,4
			c0.9,1.1,2,2,3.1,2.9c1.1,0.8,2.2,1.7,3,2.7c0.9,1,1.2,2.3,0.8,3.5c-0.3,1.2-1.4,2-2.5,2.2c-1.1,0.2-2.3,0.1-3.3-0.4
			c-0.5-0.2-0.9-0.6-1.2-1c-0.3-0.4-0.4-0.9-0.5-1.4c0-0.2-0.1-0.5-0.1-0.7c0-0.2-0.1-0.6-0.4-0.7c-0.3-0.1-0.6,0.1-0.7,0.3
			c-0.1,0.2-0.1,0.5-0.1,0.7c0,0.9,0,1.7-0.1,2.5c0,0.4,0,0.8,0,1.1c0,0.4,0.4,0.6,0.7,0.7c1.2,0.5,2.2,0.6,2.9,0.6
			c0.7,0,1.1,0,1.1,0s-0.3,0-0.9,0c0.3,0,0.6,0,0.9,0c0.4,0,0.7,0,1.1-0.1c0,0,0,0,0,0c-0.7,0.1-1.1,0.1-1.1,0.1s0.4,0,1.1,0
			c0.7-0.1,1.7-0.2,2.9-0.7c1.2-0.5,2.4-1.7,3.1-3.4c0.6-1.7,0.5-4-0.8-5.8C55.8,50.7,53.8,49.4,51.8,47.8z M52.7,62.4
			c0,0-0.1,0-0.1,0C52.6,62.4,52.6,62.4,52.7,62.4z"/>
		<path d="M70.5,61.7c0-0.1,0-0.2-0.1-0.3c0,0,0,0,0,0c0,0,0-0.1-0.1-0.1c-0.1-0.1-0.3-0.1-0.5-0.1l-1-0.1c-0.3,0-0.7-0.1-0.8-0.4
			c-0.2-0.3-0.2-0.6-0.2-0.9c0-0.3-0.1-0.6-0.1-1c0-1.3,0-2.6,0-3.9l0-7.8c0-1.3,0-2.6,0-3.9c0-0.3,0-0.6,0.1-1
			c0-0.3,0.2-0.6,0.5-0.6c0.3-0.1,0.6-0.1,0.9-0.1c0.2,0,0.4-0.1,0.5-0.3c0.1-0.2,0.1-0.4,0.1-0.6c-0.2-0.4-0.7-0.4-1-0.4l-1,0
			l-1.9,0.1l-2-0.1l-1,0c-0.2,0-0.4,0-0.5,0.1c-0.2,0.1-0.3,0.3-0.3,0.5c0,0.2,0.1,0.4,0.3,0.5c0.2,0.1,0.4,0.1,0.5,0.1
			c0.3,0.1,0.7,0,0.9,0.2c0.2,0.1,0.3,0.5,0.3,0.8c0,0.3,0,0.6,0,1l0,3.9l0,7.8c0,1.3,0,2.6-0.1,3.9c0,0.3-0.1,0.6-0.1,1
			c0,0.3-0.1,0.7-0.3,0.9C63.7,61,63.7,61,63.5,61L63,61.1c-0.1,0-0.3,0-0.5,0.1c-0.2,0.1-0.3,0.3-0.3,0.5c0,0.2,0.1,0.4,0.3,0.5
			c0.2,0.1,0.4,0.1,0.5,0.1l1,0l2-0.1l2.7,0c0.4,0,0.8,0,1.2,0c0.1,0,0.2,0,0.3,0c-0.1,0-0.2,0-0.3,0c0.1,0,0.3,0,0.4-0.1
			c0,0,0,0,0,0c0,0,0,0,0.1,0c0.1,0,0.1-0.1,0.1-0.1c0,0,0,0,0,0c0,0,0.1-0.1,0.1-0.1C70.5,61.8,70.5,61.8,70.5,61.7
			C70.5,61.8,70.5,61.8,70.5,61.7z M70.5,61.5C70.5,61.5,70.5,61.5,70.5,61.5C70.5,61.5,70.5,61.5,70.5,61.5z M70.3,62.1
			C70.2,62.1,70.2,62.1,70.3,62.1C70.3,62.1,70.3,62.1,70.3,62.1C70.3,62.1,70.3,62.1,70.3,62.1z"/>
		<path d="M97.9,40.3c-0.4,0-0.7,0-1.1,0l-2.1,0.1l-2.1-0.1c-0.3,0-0.7,0-1,0c-0.2,0-0.4,0-0.6,0.1c-0.2,0.1-0.3,0.4-0.2,0.6
			c0,0.2,0.2,0.4,0.4,0.5c0.2,0.1,0.4,0,0.6,0.1l1,0.1c0.3,0.1,0.5,0.2,0.6,0.5c0.1,0.3,0.1,0.6,0.2,0.9c0,0.7,0,1.3,0.1,2l0.1,4
			l0.2,7.6l-6.3-6.3l-6.4-6.6l-3.2-3.3c-0.1-0.1-0.3-0.3-0.4-0.4c-0.1-0.1-0.4-0.3-0.6-0.2c-0.3,0-0.4,0.2-0.5,0.4
			c-0.1,0.2-0.1,0.4-0.1,0.6c0,0.8,0,1.5,0,2.3l0,9.2l0,4.6c0,0.8,0,1.5,0,2.3c-0.1,0.7-0.1,1.7-0.9,1.7c-0.2,0-0.4,0-0.6,0
			c-0.2,0-0.4,0-0.6,0.1c-0.2,0.1-0.3,0.4-0.2,0.7c0.1,0.3,0.3,0.4,0.5,0.4c0.8,0,1.5,0,2.3,0c0.8,0,1.5,0,2.3,0l1.2,0
			c0.4,0,0.8,0.1,1.2-0.1c0.2-0.1,0.4-0.4,0.3-0.6c0-0.3-0.2-0.5-0.5-0.5c-0.4-0.1-0.8,0-1.2-0.1c-0.4,0-0.7-0.1-0.9-0.4
			c-0.2-0.3-0.2-0.7-0.3-1.1C79,58,79,56.5,78.9,54.9l-0.3-8.9c2.3,2.4,4.7,4.9,7.1,7.3l7.5,7.3v0l0,0l1.1,1
			c0.1,0.1,0.2,0.2,0.3,0.2c0,0,0,0,0.1,0.1c0.1,0.1,0.2,0.1,0.2,0.2c0.1,0.1,0.1,0.1,0.2,0.2c0,0,0,0,0,0c0,0,0.1,0.1,0.1,0.1
			c0,0,0.1,0,0.1,0c0,0,0,0,0.1,0c0.1,0,0.1,0,0.2,0c0.1,0,0.2,0,0.2-0.1c0,0,0,0,0,0c0.1,0,0.1-0.1,0.1-0.2c0,0,0,0,0,0
			c0,0,0-0.1,0-0.1c0,0,0,0,0-0.1c0-0.1,0-0.2,0-0.3c0-0.1,0-0.1,0-0.2c0-0.1,0-0.2,0-0.4c0-0.2,0-0.3,0-0.5l0-2.1l0-4.2l0.1-8.3
			l0-2.1c0-0.7,0-1.4,0.2-2c0.1-0.3,0.4-0.4,0.7-0.4l0.5-0.1c0.2,0,0.4-0.1,0.5-0.2c0.2-0.2,0.2-0.4,0.1-0.6
			C98.4,40.4,98.1,40.3,97.9,40.3z M95.2,62.3C95.2,62.3,95.2,62.3,95.2,62.3C95.2,62.3,95.2,62.3,95.2,62.3z M95.4,62.4
			C95.4,62.4,95.4,62.4,95.4,62.4C95.4,62.4,95.4,62.4,95.4,62.4z M95.8,62.3C95.8,62.3,95.8,62.3,95.8,62.3
			C95.8,62.3,95.8,62.3,95.8,62.3z"/>
		<path d="M115.4,57.8c-0.1,0.2-0.2,0.5-0.2,0.7c-0.1,0.5-0.2,1-0.6,1.3c-0.3,0.3-0.8,0.4-1.3,0.5c-0.5,0.1-1,0.1-1.5,0
			c-0.5,0-1,0-1.5-0.1c-0.5,0-1-0.1-1.3-0.4c-0.3-0.3-0.4-0.8-0.5-1.2c-0.1-0.5,0-1,0-1.5l0-5.7l2.3,0.1l1.2,0c0.4,0,0.8,0,1.1,0.2
			c0.4,0.1,0.5,0.5,0.5,0.9c0,0.2,0,0.4,0.1,0.6c0,0.2,0.2,0.5,0.4,0.6c0.2,0.1,0.5-0.1,0.6-0.3c0.1-0.2,0.1-0.4,0.1-0.6l0.1-1.2
			c0-0.8,0.2-1.6,0.3-2.4c0-0.2-0.2-0.5-0.4-0.6c-0.3,0-0.5,0.1-0.6,0.3c-0.2,0.4-0.5,0.4-0.9,0.5c-0.4,0-0.8,0-1.2,0l-1.2,0
			l-2.3,0.1l0-7.3l2.8,0.1c0.5,0,1,0,1.5,0.1c0.2,0,0.5,0.1,0.7,0.2c0.2,0.1,0.3,0.3,0.4,0.5l0,0l0,0c0.1,0.2,0.2,0.5,0.2,0.8
			c0,0.2,0,0.7,0.4,0.8c0.2,0.1,0.4,0,0.5-0.1c0.2-0.1,0.2-0.3,0.3-0.4c0.1-0.3,0-0.6,0.1-0.9c0-0.6,0-1.1,0.2-1.7l0.1-0.8
			c0.1-0.3-0.1-0.8-0.5-0.8c-1.1,0.4-2.2,0.2-3.4,0.3l-3.4,0c-1.1,0-2.3,0-3.4,0c-0.6,0-1.1,0-1.7,0c-0.2,0-0.3,0-0.5,0.1
			c-0.2,0.1-0.2,0.3-0.2,0.5c0,0.2,0.1,0.4,0.3,0.5c0.1,0.1,0.3,0.1,0.5,0.1l0.8,0.1c0.3,0.1,0.5,0.1,0.7,0.3c0.3,0.4,0.2,1,0.3,1.6
			l0,3.4c0,2.3,0,4.5,0,6.8l0,3.4c0,1.1,0.1,2.3-0.3,3.4c-0.1,0.3-0.2,0.5-0.5,0.5l-0.9,0.1c-0.3,0.1-0.5,0.5-0.3,0.8
			c0.2,0.3,0.6,0.3,0.9,0.3c1.1-0.1,2.3-0.1,3.4-0.1l3.4,0.1l1.9,0c0.4,0,0.9,0,1.5,0c0.3,0,0.6,0,0.9,0c0,0,0.1,0,0.1,0
			c0,0,0.1,0,0.1,0c0.1,0,0.2-0.1,0.2-0.1c0,0,0,0,0,0c0,0,0-0.1,0.1-0.1c0,0,0.1-0.1,0.1-0.1c0.2-0.4,0.2-0.8,0.3-1.2l0.2-1.5
			c0-0.5,0.3-1-0.1-1.4C115.8,57.5,115.5,57.6,115.4,57.8z"/>
		<path d="M126.2,47.8c-0.9-0.8-2-1.7-2.1-3c-0.1-0.6,0-1.3,0.4-1.8c0.3-0.5,0.9-0.9,1.5-1.1c0.6-0.2,1.3-0.2,2-0.1
			c0.7,0.1,1.4,0.3,1.9,0.7c0.6,0.4,0.8,1,0.9,1.7c0,0.2,0,0.3,0.1,0.5c0,0.2,0.2,0.4,0.4,0.5c0.2,0.1,0.5,0,0.6-0.2
			c0.1-0.2,0.1-0.4,0.1-0.6c0-0.7,0.1-1.4,0.1-2.2l0-1.1c0-0.2,0-0.4-0.2-0.6c-0.2-0.2-0.4-0.2-0.6-0.2c-0.4-0.1-0.7-0.1-1.1-0.2
			c-0.4-0.1-0.7-0.1-1.1-0.2c-0.7-0.1-1.5-0.1-2.2-0.1c-1.5,0.1-3,0.6-4.1,1.5c-1.2,1-1.8,2.5-1.7,4c0,1.5,0.5,2.9,1.4,4
			c0.9,1.1,2,2,3.1,2.9c1.1,0.8,2.2,1.7,3,2.7c0.9,1,1.2,2.3,0.8,3.5c-0.3,1.2-1.4,2-2.5,2.2c-1.1,0.2-2.3,0.1-3.3-0.4
			c-0.5-0.2-0.9-0.6-1.2-1c-0.3-0.4-0.4-0.9-0.5-1.4c0-0.2-0.1-0.5-0.1-0.7c0-0.2-0.1-0.6-0.4-0.7c-0.3-0.1-0.6,0.1-0.7,0.3
			c-0.1,0.2-0.1,0.5-0.1,0.7c0,0.9,0,1.7-0.1,2.5c0,0.4,0,0.8,0,1.1c0,0.4,0.4,0.6,0.7,0.7c1.2,0.5,2.2,0.6,2.9,0.6
			c0.7,0,1.1,0,1.1,0s-0.3,0-0.9,0c0.3,0,0.6,0,0.9,0c0.4,0,0.7,0,1.1-0.1c0,0,0,0,0,0c-0.7,0.1-1.1,0.1-1.1,0.1s0.4,0,1.1,0
			c0.7-0.1,1.7-0.2,2.9-0.7c1.2-0.5,2.4-1.7,3.1-3.4c0.6-1.7,0.5-4-0.8-5.8C130.2,50.7,128.2,49.4,126.2,47.8z M127.1,62.4
			c0,0-0.1,0-0.1,0C127,62.4,127,62.4,127.1,62.4z"/>
		<path d="M142.4,47.8c-0.9-0.8-2-1.7-2.1-3c-0.1-0.6,0-1.3,0.4-1.8c0.3-0.5,0.9-0.9,1.5-1.1c0.6-0.2,1.3-0.2,2-0.1
			c0.7,0.1,1.4,0.3,1.9,0.7c0.6,0.4,0.8,1,0.9,1.7c0,0.2,0,0.3,0.1,0.5c0,0.2,0.2,0.4,0.4,0.5c0.2,0.1,0.5,0,0.6-0.2
			c0.1-0.2,0.1-0.4,0.1-0.6c0-0.7,0.1-1.4,0.1-2.2l0-1.1c0-0.2,0-0.4-0.2-0.6c-0.2-0.2-0.4-0.2-0.6-0.2c-0.4-0.1-0.7-0.1-1.1-0.2
			c-0.4-0.1-0.7-0.1-1.1-0.2c-0.7-0.1-1.5-0.1-2.2-0.1c-1.5,0.1-3,0.6-4.1,1.5c-1.2,1-1.8,2.5-1.7,4c0,1.5,0.5,2.9,1.4,4
			c0.9,1.1,2,2,3.1,2.9c1.1,0.8,2.2,1.7,3,2.7c0.9,1,1.2,2.3,0.8,3.5c-0.3,1.2-1.4,2-2.5,2.2c-1.1,0.2-2.3,0.1-3.3-0.4
			c-0.5-0.2-0.9-0.6-1.2-1c-0.3-0.4-0.4-0.9-0.5-1.4c0-0.2-0.1-0.5-0.1-0.7c0-0.2-0.1-0.6-0.4-0.7c-0.3-0.1-0.6,0.1-0.7,0.3
			c-0.1,0.2-0.1,0.5-0.1,0.7c0,0.9,0,1.7-0.1,2.5c0,0.4,0,0.8,0,1.1c0,0.4,0.4,0.6,0.7,0.7c1.2,0.5,2.2,0.6,2.9,0.6
			c0.7,0,1.1,0,1.1,0s-0.3,0-0.9,0c0.3,0,0.6,0,0.9,0c0.4,0,0.7,0,1.1-0.1c0,0,0,0,0,0c-0.7,0.1-1.1,0.1-1.1,0.1s0.4,0,1.1,0
			c0.7-0.1,1.7-0.2,2.9-0.7c1.2-0.5,2.4-1.7,3.1-3.4c0.6-1.7,0.5-4-0.8-5.8C146.3,50.7,144.3,49.4,142.4,47.8z M143.2,62.4
			c0,0-0.1,0-0.1,0C143.1,62.4,143.2,62.4,143.2,62.4z"/>
		<path d="M173.9,61.5c0,0,0-0.1,0-0.1c-0.1-0.1-0.3-0.2-0.5-0.2c-0.4,0-0.8-0.1-1.3-0.1c-0.2,0-0.5-0.1-0.7-0.3
			c-0.2-0.2-0.3-0.5-0.3-0.8c-0.1-0.6-0.1-1.3-0.1-2c0-1.4,0-3,0-4.7c0-3.5,0-7.5,0-11.8c0-0.5,0-1.1,0-1.6c0-0.5,0-1.1,0.2-1.6
			c0.2-0.5,0.8-0.5,1.4-0.5c0.3,0,0.7-0.2,0.7-0.6c0-0.2-0.1-0.4-0.2-0.5c-0.1-0.1-0.3-0.2-0.5-0.2c-1.2,0-2.3,0.1-3.4,0.1
			c-1.1,0-2.3-0.1-3.5-0.1c-0.3,0-0.7,0.1-0.8,0.5c0,0.2,0,0.4,0.1,0.5c0.1,0.1,0.3,0.2,0.5,0.2c0.3,0,0.6,0,0.8,0.1
			c0.3,0.1,0.5,0.1,0.7,0.3c0.3,0.4,0.3,1,0.3,1.6c0,0.6,0,1.1,0,1.7c0,2.3,0.1,4.5,0,6.7c0,2.2,0,4.3,0,6.2c0,2,0,3.9-0.2,5.6
			c-0.1,0.4-0.2,0.8-0.5,1c-0.1,0.1-0.4,0.1-0.6,0.1c-0.2,0-0.4,0-0.6,0.1c-0.2,0-0.5,0.2-0.5,0.5c0,0.2,0.1,0.5,0.3,0.6
			c0.4,0.2,0.8,0.1,1.1,0.1c1.4-0.1,2.6-0.2,3.6-0.1c0.6,0,1.1,0,1.6,0c0.5,0,1.1,0,1.6,0c0.1,0,0.3,0,0.4,0c-0.1,0-0.1,0-0.1,0
			c-0.1,0-0.2,0-0.2,0s0.1,0,0.2,0c0.1,0,0.3,0,0.4-0.2c0,0,0,0,0,0c0,0,0.1-0.1,0.1-0.1C173.9,61.8,173.9,61.7,173.9,61.5
			C173.9,61.6,173.9,61.6,173.9,61.5z M173.6,62.1c0.1,0,0.1-0.1,0.1-0.1C173.7,62.1,173.6,62.1,173.6,62.1z"/>
		<path d="M200.1,40.3c-0.4,0-0.7,0-1.1,0l-2.1,0.1l-2.1-0.1c-0.3,0-0.7,0-1,0c-0.2,0-0.4,0-0.6,0.1c-0.2,0.1-0.3,0.4-0.2,0.6
			c0,0.2,0.2,0.4,0.4,0.5c0.2,0.1,0.4,0,0.6,0.1l1,0.1c0.3,0.1,0.5,0.2,0.6,0.5c0.1,0.3,0.1,0.6,0.2,0.9c0,0.7,0,1.3,0.1,2l0.1,4
			l0.2,7.6l-6.3-6.3l-6.4-6.6l-3.2-3.3c-0.1-0.1-0.3-0.3-0.4-0.4c-0.1-0.1-0.4-0.3-0.6-0.2c-0.3,0-0.4,0.2-0.5,0.4
			c-0.1,0.2-0.1,0.4-0.1,0.6c0,0.8,0,1.5,0,2.3l0,9.2l0,4.6c0,0.8,0,1.5,0,2.3c-0.1,0.7-0.1,1.7-0.9,1.7c-0.2,0-0.4,0-0.6,0
			c-0.2,0-0.4,0-0.6,0.1c-0.2,0.1-0.3,0.4-0.2,0.7c0.1,0.3,0.3,0.4,0.5,0.4c0.8,0,1.5,0,2.3,0c0.8,0,1.5,0,2.3,0l1.2,0
			c0.4,0,0.8,0.1,1.2-0.1c0.2-0.1,0.4-0.4,0.3-0.6c0-0.3-0.2-0.5-0.5-0.5c-0.4-0.1-0.8,0-1.2-0.1c-0.4,0-0.7-0.1-0.9-0.4
			c-0.2-0.3-0.2-0.7-0.3-1.1c-0.1-1.5-0.1-3.1-0.2-4.6l-0.3-8.9c2.3,2.4,4.7,4.9,7.1,7.3l7.5,7.3v0l0,0l1.1,1
			c0.1,0.1,0.2,0.2,0.3,0.2c0,0,0,0,0.1,0.1c0.1,0.1,0.2,0.1,0.2,0.2c0.1,0.1,0.2,0.1,0.2,0.2c0,0,0,0,0,0c0,0,0.1,0.1,0.1,0.1
			c0,0,0.1,0,0.1,0c0,0,0,0,0.1,0c0.1,0,0.1,0,0.2,0c0.1,0,0.2,0,0.2-0.1c0,0,0,0,0,0c0.1,0,0.1-0.1,0.1-0.2c0,0,0,0,0,0
			c0,0,0-0.1,0-0.1c0,0,0-0.1,0-0.1c0-0.1,0-0.2,0-0.3c0-0.1,0-0.1,0-0.2c0-0.1,0-0.2,0-0.4c0-0.2,0-0.3,0-0.5l0-2.1l0-4.2l0.1-8.3
			l0-2.1c0-0.7,0-1.4,0.2-2c0.1-0.3,0.4-0.4,0.7-0.4l0.5-0.1c0.2,0,0.4-0.1,0.5-0.2c0.2-0.2,0.2-0.4,0.1-0.6
			C200.5,40.4,200.3,40.3,200.1,40.3z M197.4,62.3C197.4,62.3,197.4,62.3,197.4,62.3C197.4,62.3,197.4,62.3,197.4,62.3z M197.5,62.4
			C197.5,62.4,197.6,62.4,197.5,62.4C197.6,62.4,197.5,62.4,197.5,62.4z M198,62.3C198,62.3,198,62.3,198,62.3
			C198,62.3,198,62.3,198,62.3z"/>
		<path d="M209.4,47.8c-0.9-0.8-2-1.7-2.1-3c-0.1-0.6,0-1.3,0.4-1.8c0.3-0.5,0.9-0.9,1.5-1.1c0.6-0.2,1.3-0.2,2-0.1
			c0.7,0.1,1.4,0.3,1.9,0.7c0.6,0.4,0.8,1,0.9,1.7c0,0.2,0,0.3,0.1,0.5c0,0.2,0.2,0.4,0.4,0.5c0.2,0.1,0.5,0,0.6-0.2
			c0.1-0.2,0.1-0.4,0.1-0.6c0-0.7,0.1-1.4,0.1-2.2l0-1.1c0-0.2,0-0.4-0.2-0.6c-0.2-0.2-0.4-0.2-0.6-0.2c-0.4-0.1-0.7-0.1-1.1-0.2
			c-0.4-0.1-0.7-0.1-1.1-0.2c-0.7-0.1-1.5-0.1-2.2-0.1c-1.5,0.1-3,0.6-4.1,1.5c-1.2,1-1.8,2.5-1.7,4c0,1.5,0.5,2.9,1.4,4
			c0.9,1.1,2,2,3.1,2.9c1.1,0.8,2.2,1.7,3,2.7c0.9,1,1.2,2.3,0.8,3.5c-0.3,1.2-1.4,2-2.5,2.2c-1.1,0.2-2.3,0.1-3.3-0.4
			c-0.5-0.2-0.9-0.6-1.2-1c-0.3-0.4-0.4-0.9-0.5-1.4c0-0.2-0.1-0.5-0.1-0.7c0-0.2-0.1-0.6-0.4-0.7c-0.3-0.1-0.6,0.1-0.7,0.3
			c-0.1,0.2-0.1,0.5-0.1,0.7c0,0.9,0,1.7-0.1,2.5c0,0.4,0,0.8,0,1.1c0,0.4,0.4,0.6,0.7,0.7c1.2,0.5,2.2,0.6,2.9,0.6
			c0.7,0,1.1,0,1.1,0s-0.3,0-0.9,0c0.3,0,0.6,0,0.9,0c0.4,0,0.7,0,1.1-0.1c0,0,0,0,0,0c-0.7,0.1-1.1,0.1-1.1,0.1s0.4,0,1.1,0
			c0.7-0.1,1.7-0.2,2.9-0.7c1.2-0.5,2.4-1.7,3.1-3.4c0.6-1.7,0.5-4-0.8-5.8C213.3,50.7,211.3,49.4,209.4,47.8z M210.2,62.4
			c0,0-0.1,0-0.1,0C210.1,62.4,210.2,62.4,210.2,62.4z"/>
		<path d="M228.1,61.7c0-0.1,0-0.2-0.1-0.3c0,0,0,0,0,0c0,0,0-0.1-0.1-0.1c-0.1-0.1-0.3-0.1-0.5-0.1h0l-1-0.1
			c-0.3,0-0.7-0.1-0.8-0.4c-0.2-0.3-0.2-0.6-0.2-0.9c0-0.3-0.1-0.6-0.1-1c0-1.3,0-2.6,0-3.9l0-7.8c0-1.3,0-2.6,0-3.9
			c0-0.3,0-0.6,0.1-1c0-0.3,0.2-0.6,0.5-0.6c0.3-0.1,0.6-0.1,0.9-0.1c0.2,0,0.4-0.1,0.5-0.3c0.1-0.2,0.1-0.4,0.1-0.6
			c-0.2-0.4-0.7-0.4-1-0.4l-1,0l-1.9,0.1l-2-0.1l-1,0c-0.2,0-0.4,0-0.5,0.1c-0.2,0.1-0.3,0.3-0.3,0.5c0,0.2,0.1,0.4,0.3,0.5
			c0.2,0.1,0.4,0.1,0.5,0.1c0.3,0.1,0.7,0,0.9,0.2c0.2,0.1,0.3,0.5,0.3,0.8c0,0.3,0,0.6,0,1l0,3.9l0,7.8c0,1.3,0,2.6-0.1,3.9
			c0,0.3-0.1,0.6-0.1,1c0,0.3-0.1,0.7-0.3,0.9c-0.1,0.1-0.2,0.1-0.4,0.1l-0.5,0.1c-0.1,0-0.3,0-0.5,0.1c-0.2,0.1-0.3,0.3-0.3,0.5
			c0,0.2,0.1,0.4,0.3,0.5c0.2,0.1,0.4,0.1,0.5,0.1l1,0l2-0.1l2.7,0c0.4,0,0.8,0,1.2,0c0.1,0,0.2,0,0.3,0c-0.1,0-0.2,0-0.3,0
			c0.1,0,0.3,0,0.4-0.1c0,0,0,0,0,0c0,0,0,0,0.1,0c0.1,0,0.1-0.1,0.1-0.1c0,0,0,0,0,0c0,0,0.1-0.1,0.1-0.1
			C228,61.8,228,61.8,228.1,61.7C228,61.8,228.1,61.8,228.1,61.7z M228,61.5C228,61.5,228,61.5,228,61.5C228,61.5,228,61.5,228,61.5
			z M227.8,62.1C227.8,62.1,227.8,62.1,227.8,62.1C227.8,62.1,227.8,62.1,227.8,62.1C227.8,62.1,227.8,62.1,227.8,62.1z"/>
		<path d="M252.8,44c-1-1.1-2.2-2-3.6-2.5c-1.4-0.6-2.8-0.9-4.3-1c-2.9-0.3-5.9-0.1-8.8-0.1l-2.2-0.1c-0.4,0-0.7,0-1.1,0
			c-0.2,0-0.4,0.1-0.6,0.3c-0.1,0.2-0.1,0.5,0,0.7c0.2,0.2,0.4,0.3,0.6,0.3l0.5,0c0.4,0,0.7,0.1,1,0.3c0.3,0.2,0.3,0.5,0.4,0.9
			l0,1.1c0,2.9,0.1,5.9,0.1,8.8l0,4.4c0,0.7,0,1.5-0.1,2.2c0,0.4-0.1,0.7-0.2,1.1c-0.1,0.3-0.2,0.7-0.5,0.8l-0.7,0.1
			c-0.3,0-0.6,0.2-0.7,0.5c0,0.2,0,0.3,0.1,0.5c0.1,0.1,0.3,0.2,0.4,0.2c0.3,0.1,0.5,0,0.8,0l1.5-0.1c0.5,0,1-0.1,1.5,0
			c1,0,2,0.1,3,0.1l0,0c1,0.1,2.1,0.1,3,0.1c1.5,0,2.9-0.1,4.4-0.5c1.4-0.4,2.8-1.1,3.9-2c1.2-0.9,2.1-2.1,2.8-3.4
			c0.7-1.3,1.1-2.8,1.2-4.2c0.1-1.5,0-3-0.4-4.4C254.6,46.4,253.8,45.1,252.8,44z M238.6,59.6L238.6,59.6c-0.1-0.3-0.2-0.7-0.2-1.1
			c0-0.4,0-0.8,0-1.2l0-2.4l0-4.8c0-1.6,0-3.2,0-4.8l0-2.4c0-0.2,0-0.4,0-0.6c0.1-0.1,0.3-0.2,0.5-0.2c0.4-0.1,0.8-0.1,1.2-0.1
			c-0.3,0-0.6,0-1,0.1c0.3,0,0.7-0.1,1-0.1c1.5,0,3.1,0.1,4.5,0.5c1.5,0.4,2.8,1.2,4,2.1c0.6,0.5,1.1,1,1.5,1.7
			c0.4,0.6,0.8,1.3,1.1,2c0.6,1.4,0.7,2.9,0.6,4.5c-0.1,1.5-0.4,3-1.1,4.4c-0.7,1.3-2,2.3-3.4,2.9c-1.4,0.6-2.9,0.8-4.4,0.8
			c-0.8,0-1.5-0.1-2.3-0.2C239.8,60.4,239,60.2,238.6,59.6L238.6,59.6z"/>
		<path d="M271.6,57.8c-0.1,0.2-0.2,0.5-0.2,0.7c-0.1,0.5-0.2,1-0.6,1.3c-0.3,0.3-0.8,0.4-1.3,0.5c-0.5,0.1-1,0.1-1.5,0
			c-0.5,0-1,0-1.5-0.1c-0.5,0-1-0.1-1.3-0.4c-0.3-0.3-0.4-0.8-0.5-1.2c-0.1-0.5,0-1,0-1.5l0-5.7l2.3,0.1l1.2,0c0.4,0,0.8,0,1.1,0.2
			c0.4,0.1,0.5,0.5,0.5,0.9c0,0.2,0,0.4,0.1,0.6c0,0.2,0.2,0.5,0.4,0.6c0.2,0.1,0.5-0.1,0.6-0.3c0.1-0.2,0.1-0.4,0.1-0.6l0.1-1.2
			c0-0.8,0.2-1.6,0.3-2.4c0-0.2-0.2-0.5-0.4-0.6c-0.3,0-0.5,0.1-0.6,0.3c-0.2,0.4-0.5,0.4-0.9,0.5c-0.4,0-0.8,0-1.2,0l-1.2,0
			l-2.3,0.1l0-7.3l2.8,0.1c0.5,0,1,0,1.5,0.1c0.2,0,0.5,0.1,0.7,0.2c0.2,0.1,0.3,0.3,0.4,0.5l0,0l0,0c0.1,0.2,0.2,0.5,0.2,0.8
			c0,0.2,0,0.7,0.4,0.8c0.2,0.1,0.4,0,0.5-0.1c0.2-0.1,0.2-0.3,0.3-0.4c0.1-0.3,0-0.6,0.1-0.9c0-0.6,0-1.1,0.2-1.7l0.1-0.8
			c0.1-0.3-0.1-0.8-0.5-0.8c-1.1,0.4-2.2,0.2-3.4,0.3l-3.4,0c-1.1,0-2.3,0-3.4,0c-0.6,0-1.1,0-1.7,0c-0.2,0-0.3,0-0.5,0.1
			c-0.2,0.1-0.2,0.3-0.2,0.5c0,0.2,0.1,0.4,0.3,0.5c0.1,0.1,0.3,0.1,0.5,0.1l0.8,0.1c0.3,0.1,0.5,0.1,0.7,0.3c0.3,0.4,0.2,1,0.3,1.6
			l0,3.4c0,2.3,0,4.5,0,6.8l0,3.4c0,1.1,0.1,2.3-0.3,3.4c-0.1,0.3-0.2,0.5-0.5,0.5l-0.9,0.1c-0.3,0.1-0.5,0.5-0.3,0.8
			c0.2,0.3,0.6,0.3,0.9,0.3c1.1-0.1,2.3-0.1,3.4-0.1l3.4,0.1l1.9,0c0.4,0,0.9,0,1.5,0c0.3,0,0.6,0,0.9,0c0,0,0.1,0,0.1,0
			c0,0,0.1,0,0.1,0c0.1,0,0.2-0.1,0.2-0.1c0,0,0,0,0,0c0,0,0-0.1,0.1-0.1c0,0,0.1-0.1,0.1-0.1c0.2-0.4,0.2-0.8,0.3-1.2l0.2-1.5
			c0-0.5,0.3-1-0.1-1.4C272.1,57.5,271.7,57.6,271.6,57.8z"/>
		<path d="M298.9,61.7C298.9,61.7,298.9,61.7,298.9,61.7C298.9,61.7,298.9,61.7,298.9,61.7c0-0.1,0-0.2,0-0.2c0,0,0,0,0,0
			c0-0.1,0-0.1-0.1-0.1c-0.1-0.1-0.3-0.1-0.5-0.2c-0.7,0-1.3-0.1-2-0.3c-1.3-0.5-2.2-1.5-3.1-2.5c-1.7-2-3.4-4.1-5-6.1
			c1.1-0.9,2-2,2.6-3.3c0.6-1.3,0.9-2.8,0.6-4.3c-0.3-1.4-1.2-2.7-2.5-3.4c-1.3-0.7-2.8-0.9-4.2-1c-1.4,0-2.9,0.1-4.3,0.1l-2.1-0.1
			l-1.1,0c-0.2,0-0.4,0-0.6,0c-0.2,0-0.4,0.1-0.5,0.4c-0.1,0.2-0.1,0.5,0.1,0.6c0.2,0.2,0.4,0.2,0.6,0.2c0.4,0,0.7,0,1,0.1
			c0.7,0.2,0.7,1,0.7,1.7l0,4.3l0,8.6c0,1.4,0,2.9-0.2,4.3c-0.1,0.8-1,0.4-1.7,0.8c-0.5,0.3-0.2,1,0.3,1c0.4,0.1,0.7,0,1.1,0
			l2.1-0.1l2.2,0.1l1.1,0c0.3,0,0.8,0.1,1.1-0.2c0.2-0.2,0.2-0.4,0.1-0.6c-0.1-0.2-0.3-0.3-0.5-0.3l-1.1-0.1c-0.3,0-0.7-0.1-0.8-0.4
			c-0.1-0.3-0.2-0.6-0.2-1c-0.1-0.7-0.1-1.4-0.1-2.1c0-1.4,0-2.8,0-4.2l1.6,0l0.9,0l0.4,0l0.2,0c0,0,0,0,0,0l0.1,0.1l2.6,3.3
			c0.9,1.1,1.7,2.2,2.6,3.3c0.5,0.5,1,1,1.5,1.4c0.6,0.4,1.3,0.6,2,0.7c1.4,0.1,2.8,0,4.2,0.1c0.2,0,0.4,0,0.5-0.1c0,0,0,0,0,0
			c0.1,0,0.1-0.1,0.2-0.1c0,0,0,0,0-0.1C298.9,61.9,298.9,61.9,298.9,61.7C298.9,61.8,298.9,61.8,298.9,61.7z M283.9,51.6
			c-0.4,0-0.7-0.1-1.1-0.1c-0.3-0.1-0.7-0.1-1-0.2c0,0,0-0.1,0-0.2l0-0.3l0-0.6l0-1.2l0-2.3l0-2.3c0-0.8,0-1.5-0.1-2.3
			c0.6-0.2,1.2-0.2,1.8-0.2c0.2,0,0.5,0,0.7,0.1c0.1,0,0.2,0,0.4,0.1c0.3,0.1,0.7,0.2,1,0.4c0.3,0.2,0.6,0.4,0.9,0.6
			c0.2,0.3,0.5,0.5,0.7,0.8c0.4,0.6,0.6,1.3,0.7,2c0.1,0.4,0.1,0.7,0.1,1.1c0,0.4,0,0.7,0,1.1c-0.1,0.7-0.2,1.4-0.5,2.1
			c-0.3,0.6-0.8,1.2-1.5,1.4C285.4,51.6,284.6,51.6,283.9,51.6z M298.5,62.1C298.6,62.1,298.6,62.1,298.5,62.1
			C298.6,62.1,298.6,62.1,298.5,62.1z M298.7,62.1C298.7,62,298.8,62,298.7,62.1C298.8,62,298.7,62,298.7,62.1z M298.9,61.8
			C298.9,61.8,298.9,61.8,298.9,61.8c0,0.1,0,0.1,0,0.1C298.9,61.8,298.9,61.8,298.9,61.8z"/>
	</g>
</g>
</svg>
