<?xml version="1.0" encoding="utf-8"?>
<!-- Generator: Adobe Illustrator 18.0.0, SVG Export Plug-In . SVG Version: 6.00 Build 0)  -->
<!DOCTYPE svg PUBLIC "-//W3C//DTD SVG 1.1//EN" "http://www.w3.org/Graphics/SVG/1.1/DTD/svg11.dtd">
<svg version="1.1" xmlns="http://www.w3.org/2000/svg" xmlns:xlink="http://www.w3.org/1999/xlink" x="0px" y="0px"
	 viewBox="0 0 300 100" style="enable-background:new 0 0 300 100;" xml:space="preserve">
<style type="text/css">
	.st0{fill-rule:evenodd;clip-rule:evenodd;}
	.st1{fill-rule:evenodd;clip-rule:evenodd;fill:#C038F9;}
	.st2{fill:none;}
	.st3{fill-rule:evenodd;clip-rule:evenodd;fill:#231F20;}
</style>
<g id="Layer_2">
	<g>
		<g>
			<g>
				<path d="M51.3,50.3c0-5,3.3-8.7,7.6-9.8c-3.6-1.3-6.2-4.5-6.2-8.7c0-6.2,5.2-10.2,11.8-10.2c6.6,0,11.9,4,11.9,10.2
					c0,4.2-2.7,7.4-6.2,8.7c4.2,1.1,7.6,4.8,7.6,9.8c0,6.7-5.7,11.1-13.3,11.1C57,61.4,51.3,56.9,51.3,50.3z M72.9,49.9
					c0-4.4-3.5-7.4-8.5-7.4c-4.9,0-8.4,3-8.4,7.4c0,4.4,3.5,7.4,8.4,7.4C69.4,57.3,72.9,54.3,72.9,49.9z M71.6,32
					c0-3.8-3.1-6.4-7.1-6.4c-4,0-7.1,2.6-7.1,6.4c0,3.8,3.1,6.4,7.1,6.4C68.5,38.3,71.6,35.7,71.6,32z"/>
				<path d="M85.5,51.8c1.1,3.3,3.2,5.5,7.1,5.5c5.7,0,9.8-6.5,9.8-14.8c0-0.4-0.1-1.3-0.1-1.7c-1.3,3.9-5.2,6.6-9.8,6.6
					C85,47.3,80,41.5,80,34.5c0-7.1,5-13,13-13c5,0,9.1,2.5,11.5,7.4c1.6,3.5,2.3,7.3,2.3,11.9c0,12.6-5.8,20.6-14.2,20.6
					c-6.8,0-10.5-3.7-12.1-9.6H85.5z M92.9,25.7c-4.9,0-8.3,3.6-8.3,8.7c0,5.2,3.5,8.8,8.3,8.8c4.9,0,8.4-3.6,8.4-8.8
					C101.3,29.4,97.9,25.7,92.9,25.7z"/>
				<path d="M110.6,54.2c1.8,0,3.3,1.5,3.3,3.5c0,2-1.5,3.4-3.3,3.4c-1.9,0-3.4-1.5-3.4-3.4C107.2,55.7,108.7,54.2,110.6,54.2z"/>
				<path d="M126,38.8h2.6c4.1,0,7.3-2.3,7.3-6.5c0-3.7-2.7-6.6-7.1-6.6c-4.4,0-7.1,2.8-7.7,6.9h-4.9c0.9-6.6,5.7-11.2,12.6-11.2
					c7.4,0,11.8,4.4,11.8,10.6c0,4.3-2.5,7.8-6.1,8.8c4.2,1.2,6.8,4.7,6.8,9c0,6.4-4.7,11.4-12.4,11.4c-7.6,0-12.8-4.6-13.4-11.6
					h4.9c0.7,4.5,3.7,7.3,8.5,7.3c4.6,0,7.8-2.8,7.8-7.1c0-4.4-3.5-6.9-7.9-6.9H126V38.8z"/>
				<path d="M162.2,37.9L174.7,22h11.9l-13.6,17l14.1,21.7h-11.9l-9.8-14.9l-3.2,4.1v10.8h-10.2V22h10.2V37.9z"/>
				<path d="M200.5,48.7v12.1h-10V22h17c8.4,0,14.1,4.7,14.1,13.4c0,8.6-5.7,13.3-14.1,13.3H200.5z M206.3,30.6h-5.9v9.7h5.9
					c3.7,0,5.3-2,5.3-4.9C211.6,32.5,210,30.6,206.3,30.6z"/>
				<path d="M242.9,21.4c9.7,0,15.3,5.7,16.7,13.6h-10.1c-1-2.8-3.1-4.7-6.6-4.7c-5.4,0-8.4,4.7-8.4,11.1c0,6.3,3,11.1,8.4,11.1
					c3.5,0,5.6-1.9,6.6-4.8h10.1c-1.4,8-7.1,13.7-16.7,13.7c-10.9,0-18.6-8.3-18.6-20S232.1,21.4,242.9,21.4z"/>
				<path d="M281,21.4c9.7,0,15.3,5.7,16.7,13.6h-10.1c-1-2.8-3.1-4.7-6.6-4.7c-5.4,0-8.4,4.7-8.4,11.1c0,6.3,3,11.1,8.4,11.1
					c3.5,0,5.6-1.9,6.6-4.8h10.1c-1.4,8-7.1,13.7-16.7,13.7c-10.9,0-18.6-8.3-18.6-20S270.1,21.4,281,21.4z"/>
			</g>
			<g>
				<path d="M2.9,78c0.5,1.6,1.9,2.4,3.7,2.4c1.9,0,3.2-0.9,3.2-2.5c0-1.1-0.6-1.9-2.3-2.3l-2.6-0.7c-2-0.5-3.5-1.5-3.5-3.7
					c0-2.4,2-4.1,4.8-4.1c3,0,4.8,1.5,5.3,3.8H9.6c-0.4-1.3-1.5-2.2-3.4-2.2c-1.7,0-3,0.9-3,2.4c0,1.2,0.8,1.8,2.3,2.2l2.5,0.6
					c2.3,0.6,3.6,1.8,3.6,3.9c0,2.6-2.1,4.2-5,4.2c-2.9,0-5-1.4-5.6-4H2.9z"/>
				<path d="M18.2,82c-2.9,0-4.8-2.2-4.8-5.4c0-3.2,1.9-5.4,4.8-5.4c2.8,0,4.8,2.2,4.8,5.4C23,79.7,21,82,18.2,82z M18.2,72.6
					c-1.9,0-3,1.6-3,3.9c0,2.3,1.1,3.9,3,3.9c1.9,0,3-1.6,3-3.9C21.2,74.2,20.1,72.6,18.2,72.6z"/>
				<path d="M33.7,81.8h-1.8v-1.3c-0.6,0.8-1.7,1.5-3,1.5c-2.4,0-3.6-1.5-3.6-3.8v-6.8H27v6.6c0,1.5,0.7,2.5,2.3,2.5
					c1.2,0,2.2-0.8,2.6-2v-7.1h1.8V81.8z"/>
				<path d="M37.3,72.8h-1.7v-1.5h1.7v-2.8h1.8v2.8h2.5v1.5h-2.5v6.1c0,1,0.5,1.5,1.4,1.5c0.5,0,1-0.2,1.4-0.4v1.6
					c-0.4,0.2-1,0.4-1.6,0.4c-1.7,0-2.9-0.9-2.9-2.8V72.8z"/>
				<path d="M44.3,66.5h1.8v6.2c0.6-0.8,1.7-1.5,3.1-1.5c2.4,0,3.7,1.5,3.7,3.8v6.8H51v-6.6c0-1.5-0.7-2.5-2.3-2.5
					c-1.2,0-2.3,0.8-2.7,2v7.1h-1.8V66.5z"/>
				<path d="M64.1,78.6c-0.4,2-1.9,3.3-4.2,3.3c-2.8,0-4.8-2.2-4.8-5.4c0-3.1,1.9-5.5,4.8-5.5c2.9,0,4.4,2.1,4.4,5.1v0.6h-7.4
					c0,2.2,1.3,3.6,3,3.6c1.3,0,2.3-0.7,2.5-1.8H64.1z M56.9,75.5h5.6c0-1.6-0.8-2.9-2.6-2.9C58.3,72.6,57.1,73.7,56.9,75.5z"/>
				<path d="M72,73.1c-0.3-0.2-0.7-0.3-1.2-0.3c-1.1,0-2.1,0.7-2.4,2v7h-1.8V71.3h1.8v1.4c0.4-0.9,1.4-1.6,2.6-1.6
					c0.4,0,0.8,0.1,1,0.2V73.1z"/>
				<path d="M74.1,71.3h1.8v1.3c0.6-0.8,1.7-1.5,3.1-1.5c2.4,0,3.7,1.5,3.7,3.8v6.8h-1.8v-6.6c0-1.5-0.7-2.5-2.3-2.5
					c-1.2,0-2.3,0.8-2.7,2v7.1h-1.8V71.3z"/>
				<path d="M96.6,67.1c3,0,5,1.8,5.6,4.4h-1.8c-0.6-1.7-1.8-2.8-3.8-2.8c-2.8,0-4.6,2.3-4.6,5.8c0,3.4,1.8,5.8,4.6,5.8
					c2,0,3.2-1.1,3.8-2.8h1.8c-0.6,2.7-2.6,4.5-5.6,4.5c-3.6,0-6.5-2.9-6.5-7.4S93,67.1,96.6,67.1z"/>
				<path d="M110.5,81.8V81c-0.4,0.4-1.5,1-2.8,1c-2.1,0-3.9-1.3-3.9-3.3c0-2,1.8-3.3,4-3.3c1.1,0,2.2,0.4,2.6,0.8v-1.3
					c0-1.3-0.8-2.2-2.3-2.2c-1.1,0-1.8,0.5-2.1,1.4h-1.7c0.4-1.8,1.9-3,3.9-3c2.5,0,4,1.4,4,3.7v7H110.5z M110.5,78.1
					c-0.3-0.8-1.4-1.3-2.4-1.3c-1.3,0-2.5,0.6-2.5,1.8c0,1.3,1.2,1.9,2.5,1.9c1.1,0,2.1-0.5,2.4-1.3V78.1z"/>
				<path d="M117,81.8h-1.8V66.5h1.8V81.8z"/>
				<path d="M121,69.3c-0.6,0-1.1-0.5-1.1-1.1c0-0.6,0.5-1.1,1.1-1.1c0.6,0,1.2,0.5,1.2,1.1C122.2,68.8,121.7,69.3,121,69.3z
					 M121.9,81.8h-1.8V71.3h1.8V81.8z"/>
				<path d="M130.3,68.1c-0.3-0.2-0.7-0.3-1.1-0.3c-1,0-1.7,0.7-1.7,1.9v1.6h2.4v1.5h-2.4v8.9h-1.7v-8.9H124v-1.5h1.8v-1.7
					c0-2.1,1.4-3.3,3.2-3.3c0.6,0,1,0.1,1.4,0.2V68.1z"/>
				<path d="M135.8,82c-2.9,0-4.8-2.2-4.8-5.4c0-3.2,1.9-5.4,4.8-5.4c2.8,0,4.8,2.2,4.8,5.4C140.6,79.7,138.6,82,135.8,82z
					 M135.8,72.6c-1.9,0-3,1.6-3,3.9c0,2.3,1.1,3.9,3,3.9c1.9,0,3-1.6,3-3.9C138.8,74.2,137.7,72.6,135.8,72.6z"/>
				<path d="M148.3,73.1c-0.3-0.2-0.7-0.3-1.2-0.3c-1.1,0-2.1,0.7-2.4,2v7H143V71.3h1.8v1.4c0.4-0.9,1.4-1.6,2.6-1.6
					c0.4,0,0.8,0.1,1,0.2V73.1z"/>
				<path d="M150.5,71.3h1.8v1.3c0.6-0.8,1.7-1.5,3.1-1.5c2.4,0,3.7,1.5,3.7,3.8v6.8h-1.8v-6.6c0-1.5-0.7-2.5-2.3-2.5
					c-1.2,0-2.3,0.8-2.7,2v7.1h-1.8V71.3z"/>
				<path d="M162.9,69.3c-0.6,0-1.1-0.5-1.1-1.1c0-0.6,0.5-1.1,1.1-1.1c0.6,0,1.2,0.5,1.2,1.1C164.1,68.8,163.6,69.3,162.9,69.3z
					 M163.8,81.8h-1.8V71.3h1.8V81.8z"/>
				<path d="M172.9,81.8V81c-0.4,0.4-1.5,1-2.8,1c-2.1,0-3.9-1.3-3.9-3.3c0-2,1.8-3.3,4-3.3c1.1,0,2.2,0.4,2.6,0.8v-1.3
					c0-1.3-0.8-2.2-2.3-2.2c-1.1,0-1.8,0.5-2.1,1.4h-1.7c0.4-1.8,1.9-3,3.9-3c2.5,0,4,1.4,4,3.7v7H172.9z M172.9,78.1
					c-0.3-0.8-1.4-1.3-2.4-1.3c-1.3,0-2.5,0.6-2.5,1.8c0,1.3,1.2,1.9,2.5,1.9c1.1,0,2.1-0.5,2.4-1.3V78.1z"/>
				<path d="M184.8,76v5.8h-1.9V67.3h5.4c2.9,0,4.8,1.5,4.8,4.3c0,2.8-1.8,4.3-4.8,4.3H184.8z M188.3,68.9h-3.5v5.4h3.5
					c2,0,3-1.1,3-2.7C191.2,70,190.2,68.9,188.3,68.9z"/>
				<path d="M203.6,81.8h-1.8v-1.3c-0.6,0.8-1.7,1.5-3,1.5c-2.4,0-3.6-1.5-3.6-3.8v-6.8h1.8v6.6c0,1.5,0.7,2.5,2.3,2.5
					c1.2,0,2.2-0.8,2.6-2v-7.1h1.8V81.8z"/>
				<path d="M208.5,81.8h-1.8V66.5h1.8v6.1c0.5-0.8,1.6-1.4,2.9-1.4c3.1,0,4.7,2.5,4.7,5.4c0,3-1.6,5.4-4.7,5.4
					c-1.3,0-2.4-0.7-2.9-1.4V81.8z M208.5,78.6c0.5,1.1,1.6,1.7,2.7,1.7c2,0,3.2-1.6,3.2-3.8c0-2.2-1.2-3.8-3.2-3.8
					c-1.1,0-2.1,0.6-2.7,1.7V78.6z"/>
				<path d="M220.3,81.8h-1.8V66.5h1.8V81.8z"/>
				<path d="M224.3,69.3c-0.6,0-1.1-0.5-1.1-1.1c0-0.6,0.5-1.1,1.1-1.1c0.6,0,1.2,0.5,1.2,1.1C225.5,68.8,224.9,69.3,224.3,69.3z
					 M225.2,81.8h-1.8V71.3h1.8V81.8z"/>
				<path d="M232.3,71.1c2.4,0,3.8,1.4,4.2,3.4h-1.8c-0.2-1.1-1.1-1.8-2.4-1.8c-1.8,0-3,1.6-3,3.9c0,2.3,1.2,3.9,3,3.9
					c1.2,0,2.1-0.7,2.4-1.8h1.8c-0.4,2-1.8,3.4-4.2,3.4c-2.8,0-4.8-2.2-4.8-5.4C227.6,73.3,229.5,71.1,232.3,71.1z"/>
				<path d="M246.1,75.6v6.1h-1.9V67.3h5.4c2.9,0,4.7,1.5,4.7,4.2c0,2.4-1.4,3.8-3.7,4.1l4.3,6.2h-2.1l-4.1-6.1H246.1z M246.1,74.1
					h3.5c1.9,0,2.9-1,2.9-2.6c0-1.6-1-2.6-2.9-2.6h-3.5V74.1z"/>
				<path d="M262.9,81.8V81c-0.4,0.4-1.5,1-2.8,1c-2.1,0-3.9-1.3-3.9-3.3c0-2,1.8-3.3,4-3.3c1.1,0,2.2,0.4,2.6,0.8v-1.3
					c0-1.3-0.8-2.2-2.3-2.2c-1.1,0-1.8,0.5-2.1,1.4h-1.7c0.4-1.8,1.9-3,3.9-3c2.5,0,4,1.4,4,3.7v7H262.9z M262.9,78.1
					c-0.3-0.8-1.4-1.3-2.4-1.3c-1.3,0-2.5,0.6-2.5,1.8c0,1.3,1.2,1.9,2.5,1.9c1.1,0,2.1-0.5,2.4-1.3V78.1z"/>
				<path d="M274.5,80.5c-0.5,0.8-1.6,1.4-2.9,1.4c-3.1,0-4.7-2.5-4.7-5.4c0-2.9,1.6-5.4,4.7-5.4c1.3,0,2.4,0.7,2.9,1.4v-6.1h1.8
					v15.3h-1.8V80.5z M274.5,74.4c-0.5-1.1-1.6-1.7-2.7-1.7c-2,0-3.2,1.6-3.2,3.8c0,2.2,1.2,3.8,3.2,3.8c1.1,0,2.1-0.6,2.7-1.7V74.4
					z"/>
				<path d="M280.3,69.3c-0.6,0-1.1-0.5-1.1-1.1c0-0.6,0.5-1.1,1.1-1.1c0.6,0,1.2,0.5,1.2,1.1C281.5,68.8,281,69.3,280.3,69.3z
					 M281.2,81.8h-1.8V71.3h1.8V81.8z"/>
				<path d="M288.4,82c-2.9,0-4.8-2.2-4.8-5.4c0-3.2,1.9-5.4,4.8-5.4c2.8,0,4.8,2.2,4.8,5.4C293.2,79.7,291.3,82,288.4,82z
					 M288.4,72.6c-1.9,0-3,1.6-3,3.9c0,2.3,1.1,3.9,3,3.9c1.9,0,3-1.6,3-3.9C291.4,74.2,290.3,72.6,288.4,72.6z"/>
			</g>
		</g>
		<path d="M25.2,63.1c-11.9,0-21.7-9.7-21.7-21.7s9.7-21.7,21.7-21.7s21.7,9.7,21.7,21.7S37.2,63.1,25.2,63.1z M25.2,31.1
			c-5.7,0-10.4,4.6-10.4,10.4s4.6,10.4,10.4,10.4s10.4-4.6,10.4-10.4S31,31.1,25.2,31.1z"/>
	</g>
</g>
<g id="Layer_1">
</g>
</svg>
