<?xml version="1.0" encoding="utf-8"?>
<!-- Generator: Adobe Illustrator 18.0.0, SVG Export Plug-In . SVG Version: 6.00 Build 0)  -->
<!DOCTYPE svg PUBLIC "-//W3C//DTD SVG 1.1//EN" "http://www.w3.org/Graphics/SVG/1.1/DTD/svg11.dtd">
<svg version="1.1" xmlns="http://www.w3.org/2000/svg" xmlns:xlink="http://www.w3.org/1999/xlink" x="0px" y="0px"
	 viewBox="0 0 300 94.7" style="enable-background:new 0 0 300 94.7;" xml:space="preserve">
<style type="text/css">
	.st0{fill-rule:evenodd;clip-rule:evenodd;}
	.st1{fill-rule:evenodd;clip-rule:evenodd;fill:#C038F9;}
	.st2{fill:none;}
	.st3{fill-rule:evenodd;clip-rule:evenodd;fill:#231F20;}
</style>
<g id="Layer_2">
	<g>
		<g>
			<g>
				<path d="M21.6,56.7h-4.4L7.5,41.6v15.1H2.1V30.2h4.4l9.6,15.1V30.2h5.4V56.7z"/>
				<path d="M46.2,56.7H28V30.2h18.2v5.4H33.4v5h11.1v5.1H33.4v5.7h12.8V56.7z"/>
				<path d="M73.9,56.7h-6.5l-5.7-9l-5.7,9h-6.5l9-13.6l-8.6-12.9h6.5l5.2,8.3l5.2-8.3h6.5L64.9,43L73.9,56.7z"/>
				<path d="M96.9,35.5h-7.4v21.2h-5.4V35.5h-7.4v-5.4h20.3V35.5z"/>
			</g>
			<g>
				<path d="M18.3,87.5c-1.2,1.4-2.3,2.5-3.5,3.1c-1.3,0.7-2.8,1.1-4.5,1.1c-3.6,0-6.4-1.4-8.2-4.3C0.7,85.1,0,81.9,0,78.1
					c0-3.9,0.7-7,2.2-9.3c1.8-2.8,4.5-4.3,8.1-4.3c1.7,0,3.2,0.4,4.5,1.1c1.1,0.6,2.3,1.7,3.5,3.1l-1.4,1.2c-1-1.2-2-2.1-2.8-2.6
					c-1-0.6-2.2-0.9-3.7-0.9c-5.6,0-8.4,3.9-8.4,11.7c0,7.8,2.8,11.7,8.4,11.7c1.4,0,2.7-0.3,3.7-0.9c0.9-0.5,1.8-1.4,2.8-2.6
					L18.3,87.5z"/>
				<path d="M26.4,91.3h-1.9V64.8h1.9V91.3z"/>
				<path d="M50.3,66.7h-8.4v24.6h-1.9V66.7h-8.4v-1.9h18.8V66.7z"/>
				<path d="M72.7,64.8l-8.6,17.8v8.7h-1.9v-8.8l-8.6-17.7h2.1l7.5,15.3l7.4-15.3H72.7z"/>
			</g>
		</g>
		<polygon points="115.7,73.2 113.5,73.2 113.5,14.8 53.5,14.8 53.5,12.6 115.7,12.6 		"/>
		<polygon points="125.3,63.1 123.1,63.1 123.1,4.7 63.1,4.7 63.1,2.5 125.3,2.5 		"/>
	</g>
</g>
<g id="Layer_1">
</g>
</svg>
