<?xml version="1.0" encoding="utf-8"?>
<!-- Generator: Adobe Illustrator 18.0.0, SVG Export Plug-In . SVG Version: 6.00 Build 0)  -->
<!DOCTYPE svg PUBLIC "-//W3C//DTD SVG 1.1//EN" "http://www.w3.org/Graphics/SVG/1.1/DTD/svg11.dtd">
<svg version="1.1" xmlns="http://www.w3.org/2000/svg" xmlns:xlink="http://www.w3.org/1999/xlink" x="0px" y="0px"
	 viewBox="0 0 300 41.7" style="enable-background:new 0 0 300 41.7;" xml:space="preserve">
<style type="text/css">
	.st0{fill-rule:evenodd;clip-rule:evenodd;}
	.st1{fill-rule:evenodd;clip-rule:evenodd;fill:#C038F9;}
	.st2{fill:none;}
	.st3{fill-rule:evenodd;clip-rule:evenodd;fill:#231F20;}
</style>
<g id="Layer_2">
</g>
<g id="Layer_1">
	<g>
		<path d="M69,3.2c-1.2,1.3-1.1,2.9-1.1,4.6c0.1,5.1-0.1,10.2,0.1,15.3c0,0.2,0,0.4-0.4,0.7C63.8,18.3,60,12.9,56.1,7.5
			c-0.4,0.4-0.3,0.9-0.3,1.2c0,3.3,0,6.5,0,9.8c0,1.1,0.3,2.1,0.2,3.2c0,0.6,0.3,1.1,1,1.5c-1.1,0.5-2,0.3-3.3,0.3
			c1.3-0.9,1.2-1.9,1.2-3c0-4.3,0-8.6,0-12.9c0-0.7,0-1.3-0.2-2c-0.3-0.9-0.6-1.7-1.7-1.9c-0.3,0-0.3-0.3-0.3-0.5c1,0,2,0,3,0
			c3.8,4.8,7.1,10,11,14.8c0-4.5,0-9.1,0-13.4c-0.1-0.7-1-0.7-0.7-1.4C67.1,3.2,68,3.2,69,3.2z"/>
		<path d="M45.5,3.2c1,3.3,2.1,6.5,3.1,9.8c0.7,2.3,1.4,4.6,2.1,6.8c0.4,1.3,0.8,2.6,2.1,3.7c-1.4,0-2.6,0-3.9,0
			c0.5-1,0.1-1.9-0.2-2.9c-0.6-1.9-1.2-3.9-1.8-5.8c-1.4-0.4-2.7-0.2-4.2-0.2c-0.8,2.9-2.2,5.6-2.5,8.8c-0.6,0.2-1.3,0.2-2.2,0.1
			c1.9-1.6,2-3.8,2.6-5.8c1.4-4.4,2.7-8.8,4-13.2c0.1-0.5,0.4-0.9,0.6-1.4C45.3,3.2,45.4,3.2,45.5,3.2z M46.4,13.3
			c-0.6-1.8-0.9-3.4-1.7-4.9c-0.6,1.6-1.2,3.2-1.5,5C44.3,13.5,45.3,13.6,46.4,13.3z"/>
		<path d="M7.2,3.2C8.1,6,9,8.8,9.9,11.7c1,3.2,2,6.4,3,9.5c0.2,0.8,0.6,1.5,1.5,2.1c-1.3,0.4-2.4,0.2-3.5,0.2
			c-0.2-3.2-1.6-5.9-2.4-8.8c-1.5-0.2-2.7-0.2-4.3,0c-0.7,2.9-2,5.6-2.3,8.8c-0.5,0.1-1.2,0-2,0c1.8-2.4,2.1-5.1,3-7.7
			C4.1,12,5.2,8.1,6.4,4.3c0.1-0.4,0.3-0.7,0.5-1.1C7,3.2,7.1,3.2,7.2,3.2z M6.3,8.4C5.9,10,5,11.5,4.8,13.2
			c1.1,0.6,2.2,0.1,3.5,0.4C7.5,11.7,7.3,10,6.3,8.4z"/>
		<path d="M88.1,3.2c2.2,6.7,3.9,13.6,6.6,20.2c-0.8,0.3-1.9,0.1-2.9,0.1c-0.2-3.1-1.5-5.8-2.4-8.7c-1.4-0.3-2.7-0.1-4.2-0.1
			c-0.8,3-2.2,5.7-2.4,8.8c-0.5,0.2-1.2,0.1-2,0c1.7-2.3,2-5,2.8-7.5c1.3-3.8,2.4-7.7,3.6-11.5c0.1-0.4,0.4-0.8,0.6-1.2
			C87.9,3.2,88,3.2,88.1,3.2z M85.6,13.4c1.1,0.1,2.1,0.3,3.2-0.2c-0.5-1.7-1-3.4-1.6-5.2C86.5,9.8,86,11.5,85.6,13.4z"/>
		<path d="M24.9,3.2c-0.2,0.6-0.2,1.3-0.6,2c-1.3-1.6-2.9-0.7-4.3-0.9c-0.6,0.5-0.5,1.1-0.5,1.5c0,5,0,10,0,15c0,1,0,2,1.1,2.6
			c-1.4,0-2.8,0-4.2,0c0-0.6,0.6-0.6,0.7-1.2c0-5.8,0-11.7,0-17.7c-1.1-0.4-1.9-0.4-3.4-0.3c-0.7,0.1-0.6,0.7-1.1,0.8
			c-0.3-0.6-0.5-1.3-0.8-1.9C16.2,3.2,20.5,3.2,24.9,3.2z"/>
		<path d="M30.7,3.2c-1.1,1-1.1,2.3-1.1,3.7c0.1,4,0,7.9,0,11.9c0,0.4,0,0.8,0,1.2c0.1,1.5,0.5,2,2,2.5c0.9,0.3,1.9,0.3,2.8,0.1
			c1-0.2,1.7-0.7,1.9-1.8c0.1-0.7,0.3-1.4,0.6-2.1c0.3,1.5,0.3,3,0.1,4.7c-3.5,0-7,0-10.5,0c0-0.5,0.6-0.5,0.8-0.9
			c0-6,0-12.1,0-18.1c-0.2-0.6-1.2-0.4-1-1.2C27.8,3.2,29.3,3.2,30.7,3.2z"/>
		<path d="M82.6,3.2c-0.3,0.6-0.5,1.2-0.8,1.8c-0.6,0.1-0.6-0.5-1-0.7c-1.2-0.1-2.4-0.2-3.5,0c-0.5,0.5-0.4,1-0.5,1.5
			c0,5,0,9.9,0,14.9c0,1.1,0.4,1.9,1.4,2.7c-1.7,0-3,0-4.4,0c1.1-0.8,1-2,1-3.1c0-4.7,0-9.5,0-14.2c0-0.5,0.1-1.1-0.2-1.7
			c-1.1-0.4-2.3-0.1-3.5-0.2c-0.4,0.1-0.5,0.7-1.1,0.6c-0.2-0.6-0.3-1.2-0.5-1.8C73.9,3.2,78.3,3.2,82.6,3.2z"/>
		<path d="M222.4,4.2c-0.3-0.5-0.8-0.5-0.8-0.9c0.1-0.2,0.3-0.2,0.4-0.2c1.9,0,3.8,0,5.7,0c2.8,0,4.4,1.6,4.5,4.4
			c0.1,2.4-1,4.1-2.7,5.6c0,0.1,0,0.2,0,0.3c1.3,2.7,2.7,5.3,4.4,7.8c0.4,0.5,0.8,1,1.3,1.3c0.8,0.5,1.7,0.6,2.5,0
			c0.2-0.2,0.4-0.4,0.8-0.2c0.2,0.4-0.1,0.6-0.3,0.8c-1.7,1.5-5,1.4-6.3-0.8c-1.3-2.2-2.6-4.3-3.7-6.6c-0.9-1.7-1.3-1.9-3.4-1.4
			c0,2.8-0.3,5.6,0.2,8.4c0.2,0.3,0.6,0.4,1,0.9c-1.5,0.1-2.9-0.1-4.3,0.4c-0.4-0.8,0.4-0.7,0.7-1.2
			C222.4,16.6,222.4,10.3,222.4,4.2z M224.8,13c3.5,0.7,5.3-1,5.3-3.9c0-0.7-0.2-1.3-0.3-2c-0.3-2.4-2.3-3.6-5.1-3.2
			C224.7,7,224.7,10,224.8,13z"/>
		<path d="M159.6,14.5c-0.1,2.9-0.4,5.6,0.1,8.4c0.3,0.3,0.8,0.2,1,0.6c-0.7,0.6-1.6,0-2.3,0.1c-0.7,0-1.5,0.5-2.3,0
			c0.1-0.5,0.6-0.4,0.8-0.7c0.4-0.8,0.4-17.7,0.1-18.9c-0.2-0.4-0.6-0.4-1-0.8c1.7,0,3.2,0,4.7,0c-0.1,0.5-0.7,0.4-0.8,0.7
			c-0.5,1.2-0.7,6.2-0.3,8.9c3.2-3,6.3-5.9,9.3-8.8c0.2-0.3-0.3-0.4-0.2-0.9c1.1-0.1,2.2-0.1,3.3,0c0,0.2,0,0.3,0,0.3
			c-1.5,0.4-2.6,1.5-3.7,2.5c-1.9,1.9-4.1,3.6-5.9,5.6c-0.3,0.3-0.6,0.5-0.8,0.9c0.4,0.9,1.2,1.4,1.9,2c1.9,1.8,3.9,3.7,5.8,5.5
			c0.8,0.8,1.7,1.5,2.6,2.3c0.6,0.5,1.4,0.7,2.1,1.1c-0.5,0.4-3.6,0.5-5.5,0.2c-0.2-0.3,0.2-0.4,0.2-0.8
			C165.6,20.2,162.9,17.1,159.6,14.5z"/>
		<path d="M100.1,23.5c0.1-0.4,0.6-0.3,0.8-0.7c0.3-0.9,0.3-17.7,0.1-18.8c-0.2-0.4-0.6-0.4-0.9-0.6c0.4-0.4,0.8-0.3,1.1-0.3
			c1.4,0,2.8,0.1,4.2,0c3.4-0.2,5.5,2.9,4.9,6c-0.1,0.6-0.2,1.1-0.5,1.6c-0.3,0.5-0.6,0.9-0.9,1.3c0.1,0.1,0.2,0.2,0.3,0.3
			c2.2,1.5,3.2,4.1,2.6,6.7c-0.1,0.6-0.3,1.2-0.5,1.7c-0.8,1.7-2,3.1-4.7,2.9c-1.8-0.2-3.7-0.2-5.6,0.1
			C100.7,23.8,100.3,23.8,100.1,23.5z M103.6,13.3c-0.3,0.5-0.2,0.9-0.2,1.3c0,1.9-0.1,3.9,0.2,5.8c0.2,1.7,0.3,2,1.9,2.4
			c1.7,0.4,3.6,0.1,4.2-2.1c0.5-1.7,0.3-3.4-0.3-5.1c-0.3-0.9-0.8-1.7-1.8-2C106.2,13.3,104.9,13.3,103.6,13.3z M103.4,12
			c1.2,1,3.6,0.5,4.3-0.9c0.7-1.5,0.8-3.1,0.3-4.7c-0.5-1.9-2.8-2.9-4.7-2.1C103.4,6.8,103.3,9.4,103.4,12z"/>
		<path d="M132.2,3c0.5,0.1,0.5,0.5,0.6,0.8c1.8,5.7,3.6,11.3,5.5,17c0.3,1,0.6,2.1,1.7,2.7c-1.3,0.3-2.6-0.2-3.8,0.2
			c-0.3-0.6,0.3-0.7,0.2-1c-0.8-2.7-1.6-5.4-2.7-8.1c-1.5-0.2-2.9-0.1-4.5,0c-1,2.7-1.8,5.4-2.6,8.2c-0.1,0.3,0.4,0.4,0.3,0.9
			c-0.8,0-1.5,0.4-2.5-0.1c1.5-1,1.6-2.5,2.1-3.9c0.9-2.7,1.7-5.4,2.6-8.1c0.8-2.6,1.6-5.1,2.4-7.7C131.8,3.5,131.8,3.2,132.2,3z
			 M133.6,13.5c-0.6-2.1-1.2-3.9-1.9-6c-0.8,2.1-1.4,4-1.9,6C131,13.7,132.2,13.7,133.6,13.5z"/>
		<path d="M183.3,3.3c0.3,0.8,0.9,1.6,0.7,2.5c-0.5,0.1-0.6-0.4-0.9-0.6c-0.5-0.6-1.1-1.1-1.9-1.3c-1.9-0.5-3.5,0.4-4.3,2.2
			c-0.7,1.8-0.1,3.7,1.5,4.6c0.8,0.4,1.6,0.8,2.4,1.1c4.1,1.5,4.7,5,3.8,8.4c-0.6,2.2-2.6,3.5-5.2,3.5c-1.5,0-2.9-0.1-4.4-0.1
			c-0.5-1.4-0.3-5.4,0.2-5.9c0.4,0.2,0.2,0.6,0.2,0.9c0.1,1.5,0.3,2.9,1.8,3.6c1.7,0.8,3.5,0.9,5.1-0.3c1.4-1,2.1-4.6-0.1-6.2
			c-0.7-0.5-1.4-0.8-2.2-1.2c-0.3-0.1-0.6-0.3-0.9-0.4c-3.9-1.5-4.3-5.3-3.4-8.1c0.9-2.7,2.6-3.3,5.2-3.2
			C181.8,2.8,182.5,2.9,183.3,3.3z"/>
		<path d="M153.6,4.2c-0.1,0.7,0.5,1.3,0.3,2.1c-0.5,0.2-0.6-0.2-0.8-0.4c-1.8-1.9-3.9-2.7-6.4-2.1c-2.6,0.6-4.3,2.3-5,4.8
			c-1.4,4.6-0.4,8.8,2.7,12.4c2.5,3,7.9,3,10.6,0.1c0.2-0.2,0.4-0.5,0.7-0.4c0,1.1-0.7,2.2-1.5,2.5c-2.9,0.9-5.8,1.1-8.8,0.4
			c-2-0.5-3.5-1.7-4.5-3.4c-1.4-2.4-1.9-5-1.6-7.7c0.2-2.2,0.8-4.3,2.2-6.1c2-2.6,4.5-4,7.8-3.6C151.4,3.1,152.2,3.3,153.6,4.2z"/>
		<path d="M123.9,18.5c0.3,1.8,0.2,3.4,0.1,5.1c-3.9,0-7.6-0.1-11.4,0.1c0-0.7,0.7-0.6,0.9-1.2c0.2-0.6,0.3-17.3,0-18.5
			c-0.2-0.4-0.7-0.4-0.9-0.9c1.5-0.2,3-0.2,4.6,0c-0.2,0.5-0.7,0.3-0.9,0.5c-0.4,0.4-0.5,0.9-0.5,1.4c0,4.8,0,9.6,0,14.4
			c0,0.2,0,0.4,0,0.6c0.3,2,0.6,2.4,2.9,2.7c0.5,0.1,1.1,0,1.6,0c1.9,0,2.8-0.9,2.9-2.8C123.4,19.6,123.2,19,123.9,18.5z"/>
		<path d="M199.1,2.5c0,1-0.3,1.7-0.8,2.5c-0.3-0.6-0.6-1-1.2-1.2c-1.1,0-2.3-0.1-3.5,0.2c0,6.3,0,12.6,0,18.8
			c0.2,0.4,0.8,0.2,1,0.8c-1.5,0.1-3-0.2-4.6,0.2c0.2-0.8,0.8-0.7,0.9-1c0.3-0.4,0.4-0.7,0.4-1.1c0-5.7,0-11.3,0-17
			c0-0.2,0-0.4-0.2-0.7c-1.4-0.6-2.8-0.3-4.1-0.1c-0.5,0.2-0.3,0.7-0.7,0.8c-0.5-0.7-0.6-1.4-0.7-2.3c1,0.7,2.1,0.5,3.2,0.5
			c2.5,0,4.9,0,7.4,0C197.1,3.1,198.1,3.2,199.1,2.5z"/>
		<path d="M280.1,28c-0.4,0.2-11.6,6.4-14.3,7.8l-10,0l5.4-2.8h-42.7c-0.8-1.2-9.2-23.2-9.4-24.3c0,0,0,0,0,0
			c-0.3,0.7-9.3,23.8-9.7,24.1h-83.6c0,0,0,0,0,0h-5.5l5.3,2.7l-9.7,0c-2.6-1.3-13.6-7.3-13.9-7.5c0.7,0.2,33.4,0.2,52.8,0.2
			c17.1,0,34.1,0.1,51.2,0c0.6,0,1.3,0.1,1.9-0.1C198.4,27.4,209,1.4,209,1.4s10.8,25.9,11.2,26.5c0.4,0.3,0.8,0.2,1.3,0.2
			C240.5,28.2,279.3,28.2,280.1,28z"/>
		<path d="M255,34.7c-0.2,0.1-7.5,4.1-9.2,5l-6.4,0l3.5-1.8h-27.5c-0.5-0.8-5.9-15-6.1-15.6c0,0,0,0,0,0c-0.2,0.4-6,15.3-6.3,15.6
			c0,0-50.8,0-50.8,0l-3.8-3.1c-0.1-0.1,53.2,0.2,53.6,0.1c0.3-0.4,7.2-17.2,7.2-17.2s6.9,16.7,7.2,17.1c0.3,0.2,0.5,0.2,0.8,0.2
			C229.5,34.8,254.5,34.8,255,34.7z"/>
	</g>
</g>
</svg>
