<?xml version="1.0" encoding="utf-8"?>
<!-- Generator: Adobe Illustrator 18.0.0, SVG Export Plug-In . SVG Version: 6.00 Build 0)  -->
<!DOCTYPE svg PUBLIC "-//W3C//DTD SVG 1.1//EN" "http://www.w3.org/Graphics/SVG/1.1/DTD/svg11.dtd">
<svg version="1.1" xmlns="http://www.w3.org/2000/svg" xmlns:xlink="http://www.w3.org/1999/xlink" x="0px" y="0px"
	 viewBox="0 0 300 59.3" style="enable-background:new 0 0 300 59.3;" xml:space="preserve">
<style type="text/css">
	.st0{fill-rule:evenodd;clip-rule:evenodd;}
	.st1{fill-rule:evenodd;clip-rule:evenodd;fill:#C038F9;}
	.st2{fill:none;}
	.st3{fill-rule:evenodd;clip-rule:evenodd;fill:#231F20;}
</style>
<g id="Layer_2">
	<g>
		<path d="M16.5,56.2C4.6,56.2,0,43.7,0,29.4C0,15.2,5.6,2.9,17.2,2.9c12.5,0,16.1,13.8,16.1,25.7C33.3,48.3,26.4,56.2,16.5,56.2
			L16.5,56.2z M16.8,47.4c4.3,0,6-7.7,6-18.3c0-9.2-1.4-17.4-6-17.4c-4.5,0-6.3,8.2-6.3,17.6C10.4,39.7,12.3,47.4,16.8,47.4
			L16.8,47.4z"/>
		<path d="M36.9,29.2c0-4.1-0.2-7.7-0.3-11.4h8.8l0.5,4.4h0.2c1.9-2.8,5.1-5,9-5c4.3,0,7,1.9,8.3,5.2h0.2c0.9-1.5,2.4-2.9,3.9-3.8
			c1.5-0.9,3.3-1.4,5.3-1.4c6.8,0,9.8,5.4,9.8,14.5v24H72.3V33.4c0-4.3-0.5-7.7-3.5-7.7c-1.8,0-3.2,1.2-3.8,3.4
			c-0.2,0.5-0.3,1.6-0.3,2.7v23.9H54.6V32c0-2.8-0.2-6.3-3.4-6.3c-1.5,0-3.1,1.1-3.8,3.4c-0.2,0.6-0.4,1.7-0.4,2.9v23.7H36.9V29.2z"
			/>
		<path d="M112.8,47c0,3,0.2,6.1,0.5,8.7h-9l-0.5-3.7h-0.2c-2,2.9-5,4.3-8.3,4.3c-5.7,0-10-4.8-10-11.4c0-10,8.7-14,17.3-14.1v-0.8
			c0-3-1.7-5.2-5.3-5.2c-3,0-5.4,0.8-7.7,2.2l-1.9-6.9c2.2-1.2,6.5-2.9,11.8-2.9c11.5,0,13.4,8,13.4,15.8V47z M102.8,37.2
			c-3.3,0.1-8,1.2-8,6.5c0,3.7,2.1,5.1,3.6,5.1c1.7,0,3.5-0.9,4.2-3.2c0.2-0.5,0.2-1.1,0.2-1.8V37.2z"/>
		<path d="M117.5,2.1h10.1v19.6h0.2c0.9-1.3,2-2.3,3.2-3.2c1.5-0.9,3.2-1.4,5.1-1.4c7,0,9.7,5.9,9.7,15.5v23h-10.1v-23
			c0-3.7-0.7-7-3.7-7c-1.7,0-3.2,1-3.9,3.6c-0.2,0.6-0.4,2-0.4,2.9v23.5h-10.1V2.1z"/>
		<path d="M176.1,47c0,3,0.2,6.1,0.5,8.7h-9l-0.5-3.7h-0.2c-2,2.9-5,4.3-8.3,4.3c-5.7,0-10-4.8-10-11.4c0-10,8.7-14,17.3-14.1v-0.8
			c0-3-1.7-5.2-5.3-5.2c-3,0-5.4,0.8-7.7,2.2l-1.9-6.9c2.2-1.2,6.5-2.9,11.8-2.9c11.5,0,13.4,8,13.4,15.8V47z M166.2,37.2
			c-3.3,0.1-8,1.2-8,6.5c0,3.7,2.1,5.1,3.6,5.1c1.7,0,3.5-0.9,4.2-3.2c0.2-0.5,0.2-1.1,0.2-1.8V37.2z"/>
		<path d="M183,56.1c-1.6,0-2.9-1.3-2.9-3.3c0-1.9,1.3-3.3,2.9-3.3c1.7,0,2.9,1.3,2.9,3.3C186,54.8,184.9,56.1,183,56.1L183,56.1z"
			/>
		<path d="M203.3,54.9c-1,0.6-2.6,1-4.6,1c-6.1,0-10.1-4.9-10.1-14c0-7.9,4-14.4,10.9-14.4c1.5,0,3.1,0.4,3.9,0.9l-0.9,3.5
			c-0.6-0.3-1.7-0.7-3.1-0.7c-4.5,0-6.4,5.3-6.4,10.7c0,6.5,2.5,10.3,6.5,10.3c1.1,0,2.2-0.2,3.1-0.7L203.3,54.9z"/>
		<path d="M212.8,56.1c-5,0-9-4.5-9-14.2c0-10.1,4.5-14.3,9.3-14.3c5,0,8.9,4.6,8.9,14.2C222,52.5,217,56.1,212.8,56.1L212.8,56.1z
			 M213,52.6c3.8,0,4.6-6.5,4.6-10.8c0-4.3-0.8-10.8-4.7-10.8c-3.9,0-4.7,6.5-4.7,10.8C208.2,46.4,209,52.6,213,52.6L213,52.6z"/>
		<path d="M225.2,35.1c0-3.3-0.2-4.9-0.2-7.1h3.9l0.2,3.4h0.1c1.2-2.2,3.3-3.8,6.2-3.8c2.6,0,4.8,1.2,5.8,4.2h0.1
			c0.7-1.4,1.7-2.5,2.7-3.1c1.1-0.7,2.4-1,3.8-1c3.8,0,6.7,2.7,6.7,9.8v18.3h-4.4V38.3c0-3.6-0.5-7.1-3.8-7.1
			c-1.8,0-3.4,1.5-4.1,4.2c-0.2,0.7-0.2,1.5-0.2,2.5v17.8h-4.4V37.5c0-3-0.5-6.3-3.8-6.3c-1.8,0-3.6,1.5-4.1,4.5
			c-0.1,0.7-0.2,1.5-0.2,2.3v17.6h-4.4V35.1z"/>
	</g>
</g>
<g id="Layer_1">
</g>
</svg>
