<?xml version="1.0" encoding="utf-8"?>
<!-- Generator: Adobe Illustrator 18.0.0, SVG Export Plug-In . SVG Version: 6.00 Build 0)  -->
<!DOCTYPE svg PUBLIC "-//W3C//DTD SVG 1.1//EN" "http://www.w3.org/Graphics/SVG/1.1/DTD/svg11.dtd">
<svg version="1.1" xmlns="http://www.w3.org/2000/svg" xmlns:xlink="http://www.w3.org/1999/xlink" x="0px" y="0px"
	 viewBox="0 0 300 79.7" style="enable-background:new 0 0 300 79.7;" xml:space="preserve">
<style type="text/css">
	.st0{fill-rule:evenodd;clip-rule:evenodd;}
	.st1{fill-rule:evenodd;clip-rule:evenodd;fill:#C038F9;}
	.st2{fill:none;}
	.st3{fill-rule:evenodd;clip-rule:evenodd;fill:#231F20;}
</style>
<g id="Layer_2">
	<g>
		<g>
			<path d="M15.8,54.1V2.9h22.8l10.2,31.9L58.9,2.9h22.8v51.2H64.7V38.5l0.2-8l1-9.2h-0.2L55.3,54.1H42.1L31.7,21.3h-0.2l0.8,7.5
				l0.4,8v17.3H15.8z"/>
			<path d="M87,54.1V2.9h27.7c16.5,0,24.5,6.8,24.5,17.3c0,11-7.4,18-23.9,18h-9.5v15.9H87z M113.7,26.2c4.4,0,7.6-1.6,7.6-6
				c0-4.8-6.1-5.4-10.1-5.4h-5.4v11.4H113.7z"/>
			<path d="M141.9,54.1V2.9h27.5c12.9,0,23.3,2.7,23.3,12.9c0,5.3-3.8,9.1-7.5,11.2c6.2,1.4,9.6,6.2,9.6,11.7
				c0,11.4-9.8,15.4-24.8,15.4H141.9z M160.8,14.9v8.5h7.8c3.8,0,6.5-1.5,6.5-4.5c0-4-3.7-4.1-7.7-4.1H160.8z M160.8,32.7v9.5h8.2
				c4.6,0,8.2-0.9,8.2-4.7c0-4.5-4.4-4.8-10.4-4.8H160.8z"/>
		</g>
		<g>
			<path d="M0,62h2.2l3.2,9.5L8.6,62h2.2v11.2H9.3v-6.6c0-0.2,0-0.6,0-1.1c0-0.5,0-1.1,0-1.7l-3.2,9.5H4.7l-3.2-9.5v0.3
				c0,0.3,0,0.7,0,1.3c0,0.6,0,1,0,1.2v6.6H0V62z"/>
			<path d="M12.9,62h1.4v1.6h-1.4V62z M12.9,65h1.4v8.2h-1.4V65z"/>
			<path d="M17.2,70.6c0,0.5,0.2,0.8,0.4,1.1c0.4,0.4,1,0.7,1.8,0.7c0.5,0,1-0.1,1.4-0.3c0.4-0.2,0.6-0.6,0.6-1
				c0-0.4-0.2-0.6-0.5-0.8c-0.2-0.1-0.6-0.2-1.2-0.4l-1.1-0.3c-0.7-0.2-1.2-0.4-1.6-0.6c-0.6-0.4-0.9-0.9-0.9-1.5
				c0-0.8,0.3-1.4,0.8-1.9c0.6-0.5,1.3-0.7,2.3-0.7c1.3,0,2.2,0.4,2.7,1.1c0.3,0.5,0.5,1,0.5,1.5h-1.3c0-0.3-0.1-0.6-0.3-0.8
				c-0.3-0.4-0.9-0.5-1.7-0.5c-0.5,0-0.9,0.1-1.2,0.3c-0.3,0.2-0.4,0.5-0.4,0.8c0,0.4,0.2,0.6,0.5,0.9c0.2,0.1,0.5,0.2,0.9,0.3
				l0.9,0.2c1,0.2,1.7,0.5,2,0.7c0.5,0.4,0.8,0.9,0.8,1.7c0,0.7-0.3,1.4-0.8,1.9c-0.6,0.5-1.4,0.8-2.6,0.8c-1.2,0-2.1-0.3-2.6-0.8
				c-0.5-0.6-0.8-1.2-0.8-2.1H17.2z"/>
			<path d="M25.1,70.6c0,0.5,0.2,0.8,0.4,1.1c0.4,0.4,1,0.7,1.8,0.7c0.5,0,1-0.1,1.4-0.3c0.4-0.2,0.6-0.6,0.6-1
				c0-0.4-0.2-0.6-0.5-0.8c-0.2-0.1-0.6-0.2-1.2-0.4l-1.1-0.3c-0.7-0.2-1.2-0.4-1.6-0.6C24.3,68.6,24,68,24,67.4
				c0-0.8,0.3-1.4,0.8-1.9c0.6-0.5,1.3-0.7,2.3-0.7c1.3,0,2.2,0.4,2.7,1.1c0.3,0.5,0.5,1,0.5,1.5H29c0-0.3-0.1-0.6-0.3-0.8
				C28.3,66.2,27.8,66,27,66c-0.5,0-0.9,0.1-1.2,0.3c-0.3,0.2-0.4,0.5-0.4,0.8c0,0.4,0.2,0.6,0.5,0.9c0.2,0.1,0.5,0.2,0.9,0.3
				l0.9,0.2c1,0.2,1.7,0.5,2,0.7c0.5,0.4,0.8,0.9,0.8,1.7c0,0.7-0.3,1.4-0.8,1.9c-0.6,0.5-1.4,0.8-2.6,0.8c-1.2,0-2.1-0.3-2.6-0.8
				s-0.8-1.2-0.8-2.1H25.1z"/>
			<path d="M32.1,62h1.4v1.6h-1.4V62z M32.1,65h1.4v8.2h-1.4V65z"/>
			<path d="M36.4,70.6c0,0.5,0.2,0.8,0.4,1.1c0.4,0.4,1,0.7,1.8,0.7c0.5,0,1-0.1,1.4-0.3c0.4-0.2,0.6-0.6,0.6-1
				c0-0.4-0.2-0.6-0.5-0.8c-0.2-0.1-0.6-0.2-1.2-0.4l-1.1-0.3c-0.7-0.2-1.2-0.4-1.6-0.6c-0.6-0.4-0.9-0.9-0.9-1.5
				c0-0.8,0.3-1.4,0.8-1.9c0.6-0.5,1.3-0.7,2.3-0.7c1.3,0,2.2,0.4,2.7,1.1c0.3,0.5,0.5,1,0.5,1.5h-1.3c0-0.3-0.1-0.6-0.3-0.8
				c-0.3-0.4-0.9-0.5-1.7-0.5c-0.5,0-0.9,0.1-1.2,0.3c-0.3,0.2-0.4,0.5-0.4,0.8c0,0.4,0.2,0.6,0.5,0.9c0.2,0.1,0.5,0.2,0.9,0.3
				l0.9,0.2c1,0.2,1.7,0.5,2,0.7c0.5,0.4,0.8,0.9,0.8,1.7c0,0.7-0.3,1.4-0.8,1.9c-0.6,0.5-1.4,0.8-2.6,0.8c-1.2,0-2.1-0.3-2.6-0.8
				s-0.8-1.2-0.8-2.1H36.4z"/>
			<path d="M44.2,70.6c0,0.5,0.2,0.8,0.4,1.1c0.4,0.4,1,0.7,1.8,0.7c0.5,0,1-0.1,1.4-0.3c0.4-0.2,0.6-0.6,0.6-1
				c0-0.4-0.2-0.6-0.5-0.8c-0.2-0.1-0.6-0.2-1.2-0.4l-1.1-0.3c-0.7-0.2-1.2-0.4-1.6-0.6c-0.6-0.4-0.9-0.9-0.9-1.5
				c0-0.8,0.3-1.4,0.8-1.9c0.6-0.5,1.3-0.7,2.3-0.7c1.3,0,2.2,0.4,2.7,1.1c0.3,0.5,0.5,1,0.5,1.5h-1.3c0-0.3-0.1-0.6-0.3-0.8
				C47.5,66.2,47,66,46.2,66c-0.5,0-0.9,0.1-1.2,0.3c-0.3,0.2-0.4,0.5-0.4,0.8c0,0.4,0.2,0.6,0.5,0.9c0.2,0.1,0.5,0.2,0.9,0.3
				l0.9,0.2c1,0.2,1.7,0.5,2,0.7c0.5,0.4,0.8,0.9,0.8,1.7c0,0.7-0.3,1.4-0.8,1.9c-0.6,0.5-1.4,0.8-2.6,0.8c-1.2,0-2.1-0.3-2.6-0.8
				c-0.5-0.6-0.8-1.2-0.8-2.1H44.2z"/>
			<path d="M51.2,62h1.4v1.6h-1.4V62z M51.2,65h1.4v8.2h-1.4V65z"/>
			<path d="M54.6,65H56v1.1c0.3-0.4,0.6-0.7,0.9-0.9c0.5-0.3,1-0.5,1.6-0.5c0.9,0,1.7,0.4,2.4,1.1c0.7,0.7,1,1.7,1,3.1
				c0,1.8-0.5,3.1-1.4,3.8c-0.6,0.5-1.3,0.7-2.1,0.7c-0.6,0-1.1-0.1-1.6-0.4c-0.2-0.2-0.5-0.4-0.8-0.8v4.2h-1.4V65z M59.8,71.5
				c0.4-0.5,0.6-1.3,0.6-2.4c0-0.7-0.1-1.2-0.3-1.7c-0.4-0.9-1-1.4-2-1.4c-1,0-1.6,0.5-2,1.4c-0.2,0.5-0.3,1.2-0.3,1.9
				c0,0.6,0.1,1.2,0.3,1.6c0.4,0.8,1,1.3,2,1.3C58.8,72.3,59.4,72,59.8,71.5z"/>
			<path d="M63.3,65h1.3v1.1c0.3-0.4,0.6-0.7,0.9-0.9c0.5-0.3,1-0.5,1.6-0.5c0.9,0,1.7,0.4,2.4,1.1c0.7,0.7,1,1.7,1,3.1
				c0,1.8-0.5,3.1-1.4,3.8c-0.6,0.5-1.3,0.7-2.1,0.7c-0.6,0-1.1-0.1-1.6-0.4c-0.2-0.2-0.5-0.4-0.8-0.8v4.2h-1.4V65z M68.5,71.5
				c0.4-0.5,0.6-1.3,0.6-2.4c0-0.7-0.1-1.2-0.3-1.7c-0.4-0.9-1-1.4-2-1.4c-1,0-1.6,0.5-2,1.4c-0.2,0.5-0.3,1.2-0.3,1.9
				c0,0.6,0.1,1.2,0.3,1.6c0.4,0.8,1,1.3,2,1.3C67.6,72.3,68.1,72,68.5,71.5z"/>
			<path d="M72.2,62h1.4v1.6h-1.4V62z M72.2,65h1.4v8.2h-1.4V65z"/>
			<path d="M80.3,62h5c1,0,1.8,0.3,2.4,0.8c0.6,0.6,0.9,1.4,0.9,2.4c0,0.9-0.3,1.6-0.8,2.3c-0.5,0.7-1.4,1-2.5,1h-3.5v4.8h-1.5V62z
				 M86.2,63.5c-0.3-0.2-0.8-0.2-1.4-0.2h-3v3.9h3c0.7,0,1.2-0.1,1.7-0.4c0.4-0.3,0.6-0.8,0.6-1.5C87.2,64.4,86.9,63.8,86.2,63.5z"
				/>
			<path d="M91.8,65v5.4c0,0.4,0.1,0.8,0.2,1c0.2,0.5,0.7,0.7,1.3,0.7c0.9,0,1.6-0.4,1.9-1.3c0.2-0.5,0.3-1.1,0.3-1.9v-4h1.4v8.2
				h-1.3l0-1.2c-0.2,0.3-0.4,0.6-0.7,0.8c-0.5,0.4-1.1,0.6-1.9,0.6c-1.1,0-1.9-0.4-2.3-1.2c-0.2-0.4-0.3-1-0.3-1.7V65H91.8z"/>
			<path d="M99.1,61.9h1.3V66c0.3-0.4,0.7-0.7,1.1-0.9c0.4-0.2,0.9-0.3,1.4-0.3c1,0,1.9,0.4,2.5,1.1c0.6,0.7,1,1.7,1,3.1
				c0,1.3-0.3,2.4-0.9,3.2c-0.6,0.9-1.5,1.3-2.6,1.3c-0.6,0-1.2-0.2-1.6-0.5c-0.3-0.2-0.5-0.5-0.8-0.9v1h-1.3V61.9z M104.3,71.4
				c0.4-0.6,0.6-1.4,0.6-2.3c0-0.9-0.2-1.6-0.6-2.1c-0.4-0.6-0.9-0.9-1.6-0.9c-0.6,0-1.2,0.2-1.7,0.7c-0.5,0.5-0.7,1.2-0.7,2.3
				c0,0.8,0.1,1.4,0.3,1.9c0.4,0.9,1,1.4,2,1.4C103.4,72.2,104,71.9,104.3,71.4z"/>
			<path d="M107.9,62h1.4v11.2h-1.4V62z"/>
			<path d="M111.4,62h1.4v1.6h-1.4V62z M111.4,65h1.4v8.2h-1.4V65z"/>
			<path d="M120.3,65.4c0.6,0.4,0.9,1.2,1,2.3H120c-0.1-0.5-0.3-0.9-0.6-1.3S118.7,66,118,66c-0.9,0-1.5,0.4-1.9,1.3
				c-0.2,0.6-0.4,1.2-0.4,2.1c0,0.8,0.2,1.5,0.5,2.1c0.3,0.6,0.9,0.8,1.6,0.8c0.6,0,1-0.2,1.4-0.5c0.3-0.3,0.6-0.8,0.7-1.4h1.3
				c-0.2,1.1-0.5,1.9-1.1,2.4s-1.4,0.8-2.4,0.8c-1.1,0-1.9-0.4-2.6-1.2c-0.6-0.8-1-1.8-1-2.9c0-1.4,0.3-2.6,1-3.4
				c0.7-0.8,1.6-1.2,2.7-1.2C119,64.8,119.7,65,120.3,65.4z"/>
			<path d="M127.2,62h4.9c1.3,0,2.3,0.4,2.8,1.2c0.3,0.5,0.5,1,0.5,1.6c0,0.7-0.2,1.3-0.6,1.7c-0.2,0.2-0.5,0.5-0.9,0.7
				c0.6,0.2,1,0.5,1.3,0.7c0.5,0.5,0.8,1.2,0.8,2c0,0.7-0.2,1.4-0.7,2c-0.7,0.9-1.8,1.3-3.3,1.3h-4.8V62z M131.5,66.7
				c0.6,0,1.2-0.1,1.5-0.3c0.6-0.3,0.9-0.8,0.9-1.5c0-0.7-0.3-1.2-0.9-1.5c-0.3-0.1-0.8-0.2-1.5-0.2h-2.7v3.5H131.5z M132,71.9
				c0.9,0,1.6-0.3,2-0.8c0.3-0.3,0.4-0.8,0.4-1.2c0-0.8-0.4-1.4-1.1-1.7c-0.4-0.2-0.9-0.2-1.6-0.2h-3.1v4H132z"/>
			<path d="M137.6,65h1.3v1.4c0.1-0.3,0.4-0.6,0.8-1c0.4-0.4,0.9-0.6,1.4-0.6c0,0,0.1,0,0.1,0c0.1,0,0.2,0,0.3,0v1.5
				c-0.1,0-0.2,0-0.2,0c-0.1,0-0.1,0-0.2,0c-0.7,0-1.2,0.2-1.6,0.7c-0.4,0.4-0.6,1-0.6,1.5v4.7h-1.4V65z"/>
			<path d="M148.7,65.8c0.7,0.7,1.1,1.7,1.1,3.1c0,1.3-0.3,2.4-1,3.3c-0.6,0.9-1.6,1.3-3,1.3c-1.1,0-2-0.4-2.7-1.1
				c-0.7-0.8-1-1.8-1-3.1c0-1.4,0.3-2.5,1-3.3c0.7-0.8,1.6-1.2,2.8-1.2C147.1,64.8,148,65.1,148.7,65.8z M147.8,71.3
				c0.3-0.7,0.5-1.5,0.5-2.3c0-0.8-0.1-1.4-0.4-1.9c-0.4-0.8-1-1.1-2-1.1c-0.8,0-1.4,0.3-1.8,1c-0.4,0.6-0.6,1.4-0.6,2.3
				c0,0.9,0.2,1.6,0.6,2.2c0.4,0.6,1,0.9,1.8,0.9C146.9,72.3,147.5,72,147.8,71.3z"/>
			<path d="M155.9,68.2c0.3,0,0.5-0.2,0.6-0.4c0.1-0.1,0.1-0.3,0.1-0.5c0-0.5-0.2-0.8-0.5-1c-0.3-0.2-0.8-0.3-1.4-0.3
				c-0.7,0-1.2,0.2-1.5,0.6c-0.2,0.2-0.3,0.5-0.3,1h-1.3c0-1,0.4-1.7,1-2.1c0.6-0.4,1.4-0.6,2.2-0.6c1,0,1.7,0.2,2.3,0.6
				c0.6,0.4,0.9,0.9,0.9,1.7v4.7c0,0.1,0,0.3,0.1,0.3c0.1,0.1,0.2,0.1,0.4,0.1c0.1,0,0.1,0,0.2,0c0.1,0,0.2,0,0.2,0v1
				c-0.2,0.1-0.4,0.1-0.5,0.1c-0.1,0-0.3,0-0.5,0c-0.5,0-0.8-0.2-1-0.5c-0.1-0.2-0.2-0.4-0.2-0.8c-0.3,0.4-0.7,0.7-1.2,1
				c-0.5,0.3-1.1,0.4-1.7,0.4c-0.8,0-1.4-0.2-1.9-0.7c-0.5-0.5-0.7-1-0.7-1.7c0-0.8,0.2-1.3,0.7-1.8c0.5-0.4,1.1-0.7,1.9-0.8
				L155.9,68.2z M153,72c0.3,0.2,0.6,0.3,1,0.3c0.5,0,1-0.1,1.4-0.3c0.8-0.4,1.1-1,1.1-1.8V69c-0.2,0.1-0.4,0.2-0.6,0.3
				c-0.3,0.1-0.5,0.1-0.8,0.2l-0.8,0.1c-0.5,0.1-0.9,0.2-1.1,0.3c-0.4,0.2-0.6,0.6-0.6,1.1C152.5,71.4,152.7,71.7,153,72z"/>
			<path d="M164.7,65.3c0.2,0.2,0.5,0.4,0.8,0.8v-4.1h1.3v11.3h-1.2v-1.1c-0.3,0.5-0.7,0.9-1.1,1.1c-0.4,0.2-0.9,0.3-1.5,0.3
				c-0.9,0-1.7-0.4-2.4-1.2c-0.7-0.8-1-1.8-1-3.1c0-1.2,0.3-2.2,0.9-3.1c0.6-0.9,1.5-1.3,2.6-1.3C163.8,64.9,164.3,65,164.7,65.3z
				 M161.6,71.4c0.4,0.6,1,0.9,1.8,0.9c0.6,0,1.2-0.3,1.6-0.8c0.4-0.5,0.6-1.3,0.6-2.4c0-1-0.2-1.8-0.6-2.3
				c-0.4-0.5-0.9-0.7-1.6-0.7c-0.7,0-1.3,0.3-1.7,0.8c-0.4,0.5-0.6,1.3-0.6,2.3C161.1,70.1,161.3,70.8,161.6,71.4z"/>
			<path d="M174.3,65.4c0.6,0.4,0.9,1.2,1,2.3H174c-0.1-0.5-0.3-0.9-0.6-1.3c-0.3-0.3-0.8-0.5-1.4-0.5c-0.9,0-1.5,0.4-1.9,1.3
				c-0.2,0.6-0.4,1.2-0.4,2.1c0,0.8,0.2,1.5,0.5,2.1c0.3,0.6,0.9,0.8,1.6,0.8c0.6,0,1-0.2,1.4-0.5c0.3-0.3,0.6-0.8,0.7-1.4h1.3
				c-0.2,1.1-0.5,1.9-1.1,2.4s-1.4,0.8-2.4,0.8c-1.1,0-1.9-0.4-2.6-1.2c-0.6-0.8-1-1.8-1-2.9c0-1.4,0.3-2.6,1-3.4
				c0.7-0.8,1.6-1.2,2.7-1.2C173,64.8,173.8,65,174.3,65.4z"/>
			<path d="M181.2,68.2c0.3,0,0.5-0.2,0.6-0.4c0.1-0.1,0.1-0.3,0.1-0.5c0-0.5-0.2-0.8-0.5-1c-0.3-0.2-0.8-0.3-1.4-0.3
				c-0.7,0-1.2,0.2-1.5,0.6c-0.2,0.2-0.3,0.5-0.3,1h-1.3c0-1,0.4-1.7,1-2.1c0.6-0.4,1.4-0.6,2.2-0.6c1,0,1.7,0.2,2.3,0.6
				c0.6,0.4,0.9,0.9,0.9,1.7v4.7c0,0.1,0,0.3,0.1,0.3c0.1,0.1,0.2,0.1,0.4,0.1c0.1,0,0.1,0,0.2,0c0.1,0,0.2,0,0.2,0v1
				c-0.2,0.1-0.4,0.1-0.5,0.1c-0.1,0-0.3,0-0.5,0c-0.5,0-0.8-0.2-1-0.5c-0.1-0.2-0.2-0.4-0.2-0.8c-0.3,0.4-0.7,0.7-1.2,1
				c-0.5,0.3-1.1,0.4-1.7,0.4c-0.8,0-1.4-0.2-1.9-0.7c-0.5-0.5-0.7-1-0.7-1.7c0-0.8,0.2-1.3,0.7-1.8c0.5-0.4,1.1-0.7,1.9-0.8
				L181.2,68.2z M178.2,72c0.3,0.2,0.6,0.3,1,0.3c0.5,0,1-0.1,1.4-0.3c0.8-0.4,1.1-1,1.1-1.8V69c-0.2,0.1-0.4,0.2-0.6,0.3
				c-0.3,0.1-0.5,0.1-0.8,0.2l-0.8,0.1c-0.5,0.1-0.9,0.2-1.1,0.3c-0.4,0.2-0.6,0.6-0.6,1.1C177.8,71.4,178,71.7,178.2,72z"/>
			<path d="M186.3,70.6c0,0.5,0.2,0.8,0.4,1.1c0.4,0.4,1,0.7,1.8,0.7c0.5,0,1-0.1,1.4-0.3c0.4-0.2,0.6-0.6,0.6-1
				c0-0.4-0.2-0.6-0.5-0.8c-0.2-0.1-0.6-0.2-1.2-0.4l-1.1-0.3c-0.7-0.2-1.2-0.4-1.6-0.6c-0.6-0.4-0.9-0.9-0.9-1.5
				c0-0.8,0.3-1.4,0.8-1.9c0.6-0.5,1.3-0.7,2.3-0.7c1.3,0,2.2,0.4,2.7,1.1c0.3,0.5,0.5,1,0.5,1.5h-1.3c0-0.3-0.1-0.6-0.3-0.8
				c-0.3-0.4-0.9-0.5-1.7-0.5c-0.5,0-0.9,0.1-1.2,0.3c-0.3,0.2-0.4,0.5-0.4,0.8c0,0.4,0.2,0.6,0.5,0.9c0.2,0.1,0.5,0.2,0.9,0.3
				l0.9,0.2c1,0.2,1.7,0.5,2,0.7c0.5,0.4,0.8,0.9,0.8,1.7c0,0.7-0.3,1.4-0.8,1.9c-0.6,0.5-1.4,0.8-2.6,0.8c-1.2,0-2.1-0.3-2.6-0.8
				s-0.8-1.2-0.8-2.1H186.3z"/>
			<path d="M193.6,62.7h1.4V65h1.3v1.1H195v5.4c0,0.3,0.1,0.5,0.3,0.6c0.1,0.1,0.3,0.1,0.5,0.1c0.1,0,0.1,0,0.2,0c0.1,0,0.2,0,0.3,0
				v1.1c-0.2,0-0.3,0.1-0.5,0.1c-0.2,0-0.4,0-0.6,0c-0.6,0-1.1-0.2-1.3-0.5c-0.2-0.3-0.3-0.8-0.3-1.3v-5.4h-1.1V65h1.1V62.7z"/>
			<path d="M197.7,62h1.4v1.6h-1.4V62z M197.7,65h1.4v8.2h-1.4V65z"/>
			<path d="M201.2,65h1.3v1.2c0.4-0.5,0.8-0.8,1.2-1c0.4-0.2,0.9-0.3,1.4-0.3c1.2,0,1.9,0.4,2.4,1.2c0.2,0.4,0.3,1.1,0.3,1.9v5.3
				h-1.4V68c0-0.5-0.1-0.9-0.2-1.2c-0.2-0.5-0.7-0.8-1.3-0.8c-0.3,0-0.6,0-0.8,0.1c-0.4,0.1-0.7,0.3-1,0.7c-0.2,0.3-0.4,0.6-0.4,0.8
				c-0.1,0.3-0.1,0.7-0.1,1.2v4.3h-1.4V65z"/>
			<path d="M214.4,65.3c0.3,0.2,0.5,0.4,0.8,0.8v-1h1.3v7.5c0,1-0.2,1.9-0.5,2.5c-0.6,1.1-1.6,1.7-3.2,1.7c-0.9,0-1.6-0.2-2.2-0.6
				c-0.6-0.4-0.9-1-1-1.9h1.4c0.1,0.4,0.2,0.7,0.4,0.8c0.3,0.3,0.8,0.5,1.5,0.5c1.1,0,1.7-0.4,2.1-1.1c0.2-0.4,0.3-1.2,0.3-2.4
				c-0.3,0.4-0.6,0.7-1,0.9c-0.4,0.2-0.9,0.3-1.5,0.3c-0.9,0-1.7-0.3-2.3-0.9c-0.7-0.6-1-1.7-1-3.1c0-1.4,0.3-2.4,1-3.2
				c0.7-0.8,1.5-1.2,2.4-1.2C213.4,64.9,214,65,214.4,65.3z M214.6,66.8c-0.4-0.5-0.9-0.7-1.6-0.7c-1,0-1.6,0.5-2,1.4
				c-0.2,0.5-0.3,1.1-0.3,1.9c0,0.9,0.2,1.6,0.6,2.1c0.4,0.5,0.9,0.7,1.5,0.7c1,0,1.7-0.4,2.1-1.3c0.2-0.5,0.3-1.1,0.3-1.8
				C215.2,68,215,67.3,214.6,66.8z"/>
		</g>
	</g>
</g>
<g id="Layer_1">
</g>
</svg>
