<?xml version="1.0" encoding="utf-8"?>
<!-- Generator: Adobe Illustrator 18.0.0, SVG Export Plug-In . SVG Version: 6.00 Build 0)  -->
<!DOCTYPE svg PUBLIC "-//W3C//DTD SVG 1.1//EN" "http://www.w3.org/Graphics/SVG/1.1/DTD/svg11.dtd">
<svg version="1.1" xmlns="http://www.w3.org/2000/svg" xmlns:xlink="http://www.w3.org/1999/xlink" x="0px" y="0px"
	 viewBox="0 0 300 60.3" style="enable-background:new 0 0 300 60.3;" xml:space="preserve">
<style type="text/css">
	.st0{fill-rule:evenodd;clip-rule:evenodd;}
	.st1{fill-rule:evenodd;clip-rule:evenodd;fill:#C038F9;}
	.st2{fill:none;}
	.st3{fill-rule:evenodd;clip-rule:evenodd;fill:#231F20;}
</style>
<g id="Layer_2">
	<g>
		<g>
			<path d="M22.3,56.6h-3L3.3,38v18.5H0V32.5h2.8l16.3,18.7V32.5h3.2V56.6z"/>
			<path d="M37.8,50.1c0,4.5-1.8,7.8-6.6,7.8c-0.4,0-0.7,0-1.1-0.1l-0.6-3.2h0.9c3.7,0,4-1.8,4-5.6V32.5h3.5V50.1z"/>
			<path d="M68.3,37.8c-2-1.9-4-2.5-5.7-2.5c-2.2,0-3.8,1.2-3.8,2.9c0,4.6,10.4,4.6,10.4,12.2c0,3.8-2.9,6.5-6.7,6.5
				c-2.6,0-4.7-0.7-6.7-2.2v-4.4c1.8,2.3,4,3.5,6.4,3.5c2.7,0,3.9-1.7,3.9-3c0-5-10.4-5.5-10.4-12.2c0-3.9,2.9-6.4,7.3-6.4
				c1.8,0,3.7,0.6,5.4,1.7V37.8z"/>
			<path d="M87.1,32.5c5.3,0,7.7,3.1,7.7,6.9c0,3.8-2.5,6.7-8.1,6.7H83v10.4h-3.5V32.5H87.1z M83,43.1H87c2.6,0,4.2-1.4,4.2-3.8
				c0-1.8-1-3.7-4.1-3.7H83V43.1z"/>
			<path d="M115.5,32.2c7.9,0,13,5.7,13,12.4c0,6.5-4.9,12.4-13,12.4c-7.9,0-12.9-5.8-12.9-12.4C102.6,37.9,107.7,32.2,115.5,32.2z"
				/>
			<path d="M156,35.6h-8.3v21h-3.5v-21h-8.3v-3.1H156V35.6z"/>
			<path d="M169.4,53.5h10.9v3.1H166V32.5h3.5V53.5z"/>
			<path d="M193.5,56.6h-3.5V32.5h3.5V56.6z"/>
			<path d="M226.7,54.9c-3.2,1.4-5.8,2-9.2,2c-7.4,0-12.8-5.2-12.8-12.2c0-7.1,5.6-12.5,12.9-12.5c2.8,0,4.8,0.5,8.6,2v3.5
				c-2.8-1.6-5.8-2.4-8.7-2.4c-5.2,0-9.3,4-9.3,9.2c0,5.4,4,9.1,9.8,9.1c1.9,0,3.6-0.4,5.2-1v-4.9h-4.6v-3.1h8.1V54.9z"/>
			<path d="M258.8,56.6h-3.5V46.1h-13.5v10.5h-3.5V32.5h3.5V43h13.5V32.5h3.5V56.6z"/>
			<path d="M289,35.6h-8.3v21h-3.5v-21h-8.3v-3.1H289V35.6z"/>
		</g>
		<path d="M101.1,31.5c8.3-8.6,21.4-8.2,29.4,0.7c1.8,2,4.8-1,3-3C124,18.6,108,18.4,98.1,28.5C96.2,30.4,99.2,33.4,101.1,31.5
			L101.1,31.5z"/>
		<path d="M94.1,25.1c11.6-13.3,31.6-12.9,42.6,0.9c1.7,2.1,4.7-0.9,3-3c-12.4-15.4-35.7-15.8-48.6-0.9
			C89.4,24.2,92.4,27.1,94.1,25.1L94.1,25.1z"/>
		<path d="M88.1,19.6c14.2-18.1,41-18.1,55.2,0.1c1.7,2.1,4.6-0.9,3-3c-15.5-19.8-45.6-19.8-61.1-0.1C83.5,18.7,86.4,21.7,88.1,19.6
			L88.1,19.6z"/>
	</g>
</g>
<g id="Layer_1">
</g>
</svg>
