<?xml version="1.0" encoding="utf-8"?>
<!-- Generator: Adobe Illustrator 18.0.0, SVG Export Plug-In . SVG Version: 6.00 Build 0)  -->
<!DOCTYPE svg PUBLIC "-//W3C//DTD SVG 1.1//EN" "http://www.w3.org/Graphics/SVG/1.1/DTD/svg11.dtd">
<svg version="1.1" xmlns="http://www.w3.org/2000/svg" xmlns:xlink="http://www.w3.org/1999/xlink" x="0px" y="0px"
	 viewBox="0 0 300 100" style="enable-background:new 0 0 300 100;" xml:space="preserve">
<style type="text/css">
	.st0{fill-rule:evenodd;clip-rule:evenodd;}
	.st1{fill-rule:evenodd;clip-rule:evenodd;fill:#C038F9;}
	.st2{fill:none;}
	.st3{fill-rule:evenodd;clip-rule:evenodd;fill:#231F20;}
</style>
<g id="Layer_2">
</g>
<g id="Layer_1">
	<g>
		<path d="M17.5,42v17.2c1.9-0.9,2.8-2.1,3.7-3.3l0.5,0.3c-1.7,3.3-4.3,7-9.8,7C7,63.1,2.2,59,2.2,53c0-6.5,4.7-10,8.9-11.7
			c-1.8-0.5-3.5-0.8-5.3-0.8c-1.5,0-3.1,0.9-4.3,3.2L1,43.6c1.9-4.1,5.3-6.2,7.7-6.2c4.2,0,6.1,1.8,9.9,1.8c1.6,0,3-0.8,3.7-2.3
			l0.6,0.3C21.5,39.5,20,41.2,17.5,42z M12,41.6c-3.8,1.9-5.5,5.6-5.5,9.9c0,3.8,1.6,6.2,3.4,7.4c0.9-0.7,1.1-0.7,1.1-3
			c0-7.3,0-1.7,0-8.9c0-2,0.5-2.5,1.8-3.4c0.9-0.7,1.3-1,1.7-1.2C13.8,42.1,12.8,41.9,12,41.6z M16.9,42.2c-0.5,0.2-1.2,0.2-1.7,0.2
			c-0.3,0.5-0.4,0.9-0.4,2.8c0,7.3,0,1.7,0,8.9c0,2-0.5,2.5-1.8,3.4c-1.2,0.9-2.1,1.3-2.6,1.6c1.1,0.6,2.2,0.8,3.5,0.8
			c1.2,0,2.1-0.1,3-0.4V42.2"/>
		<path d="M31.9,62.3h-0.2l-3.1-2.6v-0.2c0,0,0.4-0.2,0.4-0.5v-9.2c0,0-1-1-1.9-1.6l-1.2,1.2v8.9c0.1,0.2,0.7,1.1,1.8,1.1l0.1,0.3
			l-2.6,2.6h-0.2l-3.3-2.6v-0.2c0,0,0.6-0.3,0.6-0.5V41.1c0-0.4-0.7-0.5-0.7-0.5v-0.3c2.6-1.4,5.2-3.5,5.2-3.5h0.2
			c0.4,0.5,1.4,1.1,1.9,1.1c1.1,0,1.8,0,2.8-1.5l0.4,0.3c-1.1,1.9-2.7,3.8-4.2,3.8c-1,0-1.2,0-2-0.7v8.6l0,0l3.2-3.4h0.2l3.3,2.8
			l1.2-1.2l0.4,0.4l-1.5,1.5v9.8c0,0,0.7,0.9,1.2,0.9c0.3,0,0.8-0.5,1.1-0.8l0.3,0.3L31.9,62.3"/>
		<path d="M39.7,55v2.5c0,0,1.8,1.6,2.6,2l2.4-2.2l0.5,0.4l-4.7,4.5h-0.3l-4.6-3.6v-0.2c0,0,0.6-0.2,0.6-0.4v-7.7
			c0-0.2-0.7-0.5-0.7-0.5v-0.2l6.3-4.7h0.2l3.9,5.6v0.3L39.7,55z M39.7,48.1L39.7,48.1l-0.1,6.1l2.8-2L39.7,48.1"/>
		<path d="M71.1,52.9c-1.1,0.9-1.5,1.8-1.5,3.4c0,0.1,0,0.3,0.1,0.5l-0.2,0.2c-1.1-0.5-1.9-1.2-1.9-2.2c0-1.2,1-1.6,1.8-1.8V41.8
			c-0.6-0.8-1.1-1.7-1.4-2.5c-0.5,0.4-0.9,0.5-0.9,2.7c0,6.6,0,19.5,0,19.5c0,0.2,0.8,0.4,0.8,0.4v0.2c-3.2,1.8-6.3,4.3-6.3,4.3
			h-0.3c-0.5-0.7-1.9-2.5-4.2-2.5c-2.1,0-2.9,1.1-3.3,2.5l-0.4-0.1c0-1.7,1.4-4.9,4.5-5.1v-8.6c-0.2-0.1-0.6-0.1-1.1-0.1
			c-1,0-1.9,0.4-2.2,1.4l-0.4,0c0-1.7,1.4-3.9,3.1-3.9c0.3,0,0.4,0,0.6,0v-2.7c-0.3-0.1-0.6-0.2-1.2-0.2c-1,0-1.9,0.4-2.2,1.4
			l-0.4,0c0-1.7,1.4-3.9,3.1-3.9c0.3,0,0.5,0,0.7,0v-4.1c-2.7,0-3.9-1.9-4.6-4.1l0.4-0.3c1,1.5,1.8,1.5,2.9,1.5c0.7,0,1.5-0.3,2-0.6
			h0.2c0,0,0.9,0.6,1.2,0.9c1.3,0.9,1.7,1.1,1.7,3.1c0,6.2,0,17.8,0,21.2c0.8,0.6,1,1,1.4,1.5l0.1,0c0,0,0-12.6,0-19.8
			c0-2,0.6-2.6,1.9-3.6c2.1-1.5,5.4-3.9,5.4-3.9h0.3c0.5,1.9,5.3,5.1,5.3,9C76,48.9,73.5,50.9,71.1,52.9z M70.1,42.6L70.1,42.6
			L70,52.7c0.1,0,0.1,0,0.2-0.1c1.7-0.8,2.6-2.3,2.6-4.3C72.8,46.2,71.4,44.5,70.1,42.6"/>
		<path d="M86.8,62.3h-0.2l-3.1-2.6v-0.2c0,0,0.4-0.2,0.4-0.5v-9.2c0,0-1-1-1.9-1.6l-1.2,1.2v8.9c0.1,0.2,0.7,1.1,1.8,1.1l0.1,0.3
			L80,62.3h-0.2l-3.3-2.6v-0.2c0,0,0.6-0.3,0.6-0.5V41.1c0-0.4-0.7-0.5-0.7-0.5v-0.3c2.6-1.4,5.2-3.5,5.2-3.5h0.2
			c0.4,0.5,1.4,1.1,1.9,1.1c1.1,0,1.8,0,2.8-1.5l0.4,0.3c-1.1,1.9-2.7,3.8-4.2,3.8c-1,0-1.2,0-2-0.7v8.6l0,0l3.2-3.4h0.2l3.3,2.8
			l1.2-1.2l0.4,0.4l-1.5,1.5v9.8c0,0,0.7,0.9,1.2,0.9c0.3,0,0.8-0.5,1.1-0.8l0.3,0.3L86.8,62.3"/>
		<path d="M93.4,43.2h-0.2c0,0-1.3-1.5-2.5-2.4v-0.2c0,0,1.4-1,2.4-2.5h0.2c0,0,1.2,1.5,2.5,2.5v0.2C95.8,40.7,94.4,41.9,93.4,43.2z
			 M94.5,62.3h-0.2l-3.4-2.6v-0.2c0,0,0.6-0.2,0.6-0.5v-9.5c0,0-0.9-1-1.6-1.5l-0.5,0.5L89,48.1l3-3.1h0.2l2.9,2.6l1.2-1.2l0.4,0.4
			l-1.5,1.5v10.1c0,0,0.7,0.9,1.3,0.9c0.3,0,0.7-0.4,1-0.7l0.3,0.3L94.5,62.3"/>
		<path d="M101.7,62.3h-0.2l-3.4-2.6v-0.2c0,0,0.6-0.2,0.6-0.5V40.4l0-0.1l-1,0.5l-0.2-0.4c2.3-1.4,5.7-3.9,5.7-3.9l0.3,0.4
			c0,0-1.1,0.9-1.1,1.7v19.8c0,0,0.8,0.8,1.2,0.8c0.3,0,0.6-0.3,0.9-0.5l0.3,0.3L101.7,62.3"/>
		<path d="M114.2,62.3H114l-2.8-2.6h-0.1l-2.5,2.6h-0.3c-2.1-0.6-3.7-2.4-3.7-4.9c0-3.7,2.9-5.7,6.5-6v-2.2l-1.4-1.2
			c-0.6,0.6-1.5,2-2.6,2c-1.3,0-1.9-0.9-2.3-1.5v-0.1l2.2-3.1h0.3c0.3,1.2,1.3,1.7,2.2,1.7c0.5,0,1.8-0.9,2.4-1.7h0.2l2.6,2.4l1-0.9
			l0.4,0.4l-1.4,1.5v9.9c0,0,0.8,1,1.4,1c0.3,0,0.7-0.3,0.9-0.6l0.3,0.3L114.2,62.3z M111.2,51.9c-2.1,0.4-2.8,1.7-2.8,3.8
			c0,2.1,0.9,3.6,1.9,3.6c0.6,0,0.9-0.4,0.9-0.4V51.9"/>
		<path d="M128.3,48.4v8.7c0,0.2,0.8,0.4,0.8,0.4v0.2l-6.7,4.5h-0.2l-4.7-3.8v-0.2c0,0,0.6-0.2,0.6-0.4v-8.3c0-0.2-0.6-0.5-0.6-0.5
			v-0.2l4.5-2.7c-1.4-1.6-3.1-3.4-3.9-4.2c-0.7-0.7-1.1-1.2-2.3-1.2v-0.3c0,0,1.2-1,2.5-1.1c-0.4-0.5-0.5-0.9-0.5-1.4
			c0-0.4,0.3-0.9,0.7-1.3h0.1c1.6,2.3,8,9.1,9.7,11l1.2-1.2l0.4,0.4L128.3,48.4z M124.6,49.3c0,0-0.9-1.2-2.3-2.7
			c-0.4,0.4-0.6,0.7-0.6,1.3v9.4l2.7,2.3l0.2-0.2V49.3"/>
		<path d="M134.5,55v2.5c0,0,1.8,1.6,2.6,2l2.4-2.2l0.5,0.4l-4.7,4.5h-0.3l-4.6-3.6v-0.2c0,0,0.6-0.2,0.6-0.4v-7.7
			c0-0.2-0.7-0.5-0.7-0.5v-0.2l6.3-4.7h0.2l3.9,5.6v0.3L134.5,55z M134.5,48.1L134.5,48.1l-0.1,6.1l2.8-2L134.5,48.1"/>
		<path d="M144.4,62.3h-0.2l-3.4-2.6v-0.2c0,0,0.6-0.2,0.6-0.5V40.4l0-0.1l-1,0.5l-0.2-0.4c2.3-1.4,5.7-3.9,5.7-3.9l0.3,0.4
			c0,0-1.1,0.9-1.1,1.7v19.8c0,0,0.8,0.8,1.2,0.8c0.3,0,0.6-0.3,0.9-0.5l0.3,0.3L144.4,62.3"/>
		<path d="M159.3,48.7v8.9c0,0.2,0.6,0.4,0.6,0.4v0.2l-5.6,4h-0.2c0,0-0.9-0.5-1.5-0.7l0,0v3l0,0l1-0.5l0.2,0.4
			c-3,2-5.4,3.7-5.4,3.7l-0.2-0.3c0,0,0.7-0.6,0.7-1.1V61c-0.8,0.1-1.5,0.2-1.9,1.4l-0.3-0.1c0-1.7,0.7-3,2.3-3.7v-9.7
			c0,0-0.8-0.9-1.2-0.9c-0.3,0-0.8,0.5-1,0.8l-0.3-0.3l3.2-3.4h0.2c0,0,2.7,1.8,3.1,3l2.8-3h0.2l3.3,2.9l1.2-1.2l0.4,0.4L159.3,48.7
			z M155.6,49.7c0,0-1.2-1.1-2-1.6l-1,1v9.2c1,0.3,1.8,0.5,3,1.5l0,0V49.7"/>
		<path d="M171.7,62.3h-0.2l-3.1-2.6v-0.2c0,0,0.4-0.2,0.4-0.5v-9.2c0,0-1-1-1.9-1.6l-1.2,1.2v8.9c0.1,0.2,0.7,1.1,1.8,1.1l0.1,0.3
			l-2.6,2.6h-0.2l-3.3-2.6v-0.2c0,0,0.6-0.3,0.6-0.5V41.1c0-0.4-0.7-0.5-0.7-0.5v-0.3c2.6-1.4,5.2-3.5,5.2-3.5h0.2
			c0.4,0.5,1.4,1.1,1.9,1.1c1.1,0,1.8,0,2.8-1.5l0.4,0.3c-1.1,1.9-2.7,3.8-4.2,3.8c-1,0-1.2,0-2-0.7v8.6l0,0l3.2-3.4h0.2l3.3,2.8
			l1.2-1.2l0.4,0.4l-1.5,1.5v9.8c0,0,0.7,0.9,1.2,0.9c0.3,0,0.8-0.5,1.1-0.8l0.3,0.3L171.7,62.3"/>
		<path d="M178.3,43.2h-0.2c0,0-1.3-1.5-2.5-2.4v-0.2c0,0,1.4-1,2.4-2.5h0.2c0,0,1.2,1.5,2.5,2.5v0.2
			C180.7,40.7,179.3,41.9,178.3,43.2z M179.5,62.3h-0.2l-3.4-2.6v-0.2c0,0,0.6-0.2,0.6-0.5v-9.5c0,0-0.9-1-1.6-1.5l-0.5,0.5
			l-0.4-0.3l3-3.1h0.2l2.9,2.6l1.2-1.2l0.4,0.4l-1.5,1.5v10.1c0,0,0.7,0.9,1.3,0.9c0.3,0,0.7-0.4,1-0.7l0.3,0.3L179.5,62.3"/>
		<path d="M192.1,62.3h-0.2l-2.8-2.6H189l-2.5,2.6h-0.3c-2.1-0.6-3.7-2.4-3.7-4.9c0-3.7,2.9-5.7,6.5-6v-2.2l-1.4-1.2
			c-0.6,0.6-1.5,2-2.6,2c-1.3,0-1.9-0.9-2.3-1.5v-0.1l2.2-3.1h0.3c0.3,1.2,1.3,1.7,2.2,1.7c0.5,0,1.8-0.9,2.4-1.7h0.2l2.6,2.4l1-0.9
			l0.4,0.4l-1.4,1.5v9.9c0,0,0.8,1,1.4,1c0.3,0,0.7-0.3,0.9-0.6l0.3,0.3L192.1,62.3z M189.1,51.9c-2.1,0.4-2.8,1.7-2.8,3.8
			c0,2.1,0.9,3.6,1.9,3.6c0.6,0,0.9-0.4,0.9-0.4V51.9"/>
		<path d="M215.6,38.3v20c0,0.3,0.8,0.5,0.8,0.5v0.2c-3.2,1.8-9.2,6.4-9.2,6.4H207c-0.6-0.6-2.6-2.9-4.7-2.9c-2.2,0-2.6,1.1-2.9,2.6
			l-0.4,0c0-1.9,0.9-5.5,4.5-5.5c2.8,0,4.3,1.9,6,3.3l1.1-0.8c-0.6-0.7-3.1-2.9-5-4v-0.2c0,0,0.7-0.2,0.7-0.5v-5
			c-0.3-0.1-0.6-0.1-1.1-0.1c-1,0-2,0.4-2.3,1.4l-0.4,0c0-1.7,1.4-3.9,3.2-3.9c0.3,0,0.4,0,0.6,0V47c-0.2-0.1-0.6-0.1-1.2-0.1
			c-1,0-2,0.4-2.3,1.4l-0.4,0c0-1.7,1.4-3.9,3.2-3.9c0.3,0,0.4,0,0.7,0v-3.7c-2.7,0-3.9-1.9-4.6-4.2l0.4-0.3
			c0.9,1.5,1.8,1.6,2.9,1.6c0.7,0,1.5-0.3,2-0.7h0.2c0,0,0.9,0.6,1.2,0.9c1.3,0.9,1.7,1.2,1.7,3.2c0,7.3,0,18.6,0,18.6
			c0,1,0.6,1.6,1,1.9l0.6-0.4V40.8c0-0.3-0.8-0.4-0.8-0.4v-0.3c2.3-1.4,5.4-3.6,5.4-3.6l0.3,0.3C216.6,36.9,215.6,37.7,215.6,38.3"
			/>
		<path d="M228.9,62.3h-0.2l-3.2-2.6v-0.2c0,0,0.4-0.2,0.4-0.5v-9.2c0,0-1.2-1.2-2-1.7l-1.1,1.2v9.2c0,0,0.8,0.9,1.2,0.9
			c0.3,0,0.4-0.1,0.6-0.2l0.2,0.3l-2.6,2.8h-0.2l-3.5-2.7v-0.2c0,0,0.7-0.3,0.7-0.5v-9.9c0,0-0.7-0.8-1.2-0.8
			c-0.3,0-0.5,0.2-0.8,0.5l-0.3-0.3l2.9-3.1h0.2c0,0,2.6,1.8,3.2,3l2.9-3h0.2l3.3,2.8l1.2-1.2l0.4,0.4l-1.5,1.5v9.8
			c0,0,0.7,0.9,1.2,0.9c0.3,0,0.7-0.4,0.9-0.6L232,59L228.9,62.3"/>
		<path d="M242.9,48.3v16.4l0,0l1-0.5l0.2,0.4c-3,2-5.4,3.7-5.4,3.7l-0.3-0.3c0,0,0.7-0.6,0.7-1.1V59h-0.1l-2.9,3.3h-0.2l-4.1-3.5
			v-0.2c0,0,0.7-0.2,0.7-0.4v-8c0-0.2-0.7-0.5-0.7-0.5v-0.2l6.8-4.4h0.2l3.6,2.7l1.4-1.2l0.4,0.4L242.9,48.3z M239.3,49.9
			c0,0-2-1.7-2.8-2.2l-0.1,0.1v9.9c0,0,1.1,1.1,1.8,1.5l1.2-1.2V49.9"/>
		<path d="M256.3,62.3h-0.2l-3-2.6v-0.6H253l-3.1,3.2h-0.2l-3.2-2.9l-1.1,1l-0.3-0.4l1.3-1.3v-9.8c0,0-0.8-0.8-1-0.8
			c-0.3,0-0.4,0.2-0.7,0.4l-0.3-0.3l2.9-3.1h0.2l2.9,2.5v0.2c0,0-0.4,0.2-0.4,0.5v9.3c0,0,1.1,1.2,1.9,1.6l1.2-1.1V49
			c0,0-1.1-0.9-1.3-0.9c-0.2,0-0.4,0.2-0.6,0.3L251,48l2.8-2.9h0.2l2.8,2.4l0.9-0.8l0.4,0.4l-1.3,1.4v9.8c0,0,1.1,1.1,1.5,1.1
			c0.3,0,0.8-0.5,1-0.8l0.3,0.3L256.3,62.3"/>
		<path d="M262.8,43.2h-0.2c0,0-1.3-1.5-2.5-2.4v-0.2c0,0,1.4-1,2.4-2.5h0.2c0,0,1.2,1.5,2.5,2.5v0.2
			C265.2,40.7,263.8,41.9,262.8,43.2z M264,62.3h-0.2l-3.4-2.6v-0.2c0,0,0.6-0.2,0.6-0.5v-9.5c0,0-0.9-1-1.6-1.5l-0.5,0.5l-0.4-0.3
			l3-3.1h0.2l2.9,2.6l1.2-1.2l0.4,0.4l-1.5,1.5v10.1c0,0,0.7,0.9,1.3,0.9c0.3,0,0.7-0.4,1-0.7l0.3,0.3L264,62.3"/>
		<path d="M275.1,49.5c-0.9,0-1.7-0.4-2.6-1.2h-0.1l-0.1,0.2v10c0,0,1.2,1,1.6,1c0.3,0,1.1-1,1.4-1.3l0.4,0.4l-3.9,3.8h-0.2
			l-3.5-2.7v-0.2c0,0,0.5-0.3,0.5-0.5v-9.8c0,0-0.9-0.9-1.2-1c-0.3,0-0.4,0.2-0.7,0.5l-0.3-0.3l2.9-3.1h0.2l2.8,2.5l1.8-2.5h0.3
			c0,0,1,1.2,2.2,1.2c0.7,0,1.4-0.2,2-1l0.4,0.2C278.4,46.9,276.6,49.5,275.1,49.5"/>
		<path d="M280.9,55v2.5c0,0,1.8,1.6,2.6,2l2.4-2.2l0.5,0.4l-4.7,4.5h-0.3l-4.6-3.6v-0.2c0,0,0.6-0.2,0.6-0.4v-7.7
			c0-0.2-0.7-0.5-0.7-0.5v-0.2l6.3-4.7h0.2l3.9,5.6v0.3L280.9,55z M280.9,48.1L280.9,48.1l-0.1,6.1l2.8-2L280.9,48.1"/>
		<path d="M294.8,49.5c-0.9,0-1.7-0.4-2.6-1.2h-0.1l-0.1,0.2v10c0,0,1.2,1,1.6,1c0.3,0,1.1-1,1.4-1.3l0.4,0.4l-3.9,3.8h-0.2
			l-3.5-2.7v-0.2c0,0,0.5-0.3,0.5-0.5v-9.8c0,0-0.9-0.9-1.2-1c-0.3,0-0.4,0.2-0.7,0.5l-0.3-0.3l2.9-3.1h0.2l2.8,2.5l1.8-2.5h0.3
			c0,0,1,1.2,2.2,1.2c0.7,0,1.4-0.2,2-1l0.4,0.2C298.1,46.9,296.3,49.5,294.8,49.5"/>
	</g>
</g>
</svg>
