<?xml version="1.0" encoding="utf-8"?>
<!-- Generator: Adobe Illustrator 18.0.0, SVG Export Plug-In . SVG Version: 6.00 Build 0)  -->
<!DOCTYPE svg PUBLIC "-//W3C//DTD SVG 1.1//EN" "http://www.w3.org/Graphics/SVG/1.1/DTD/svg11.dtd">
<svg version="1.1" xmlns="http://www.w3.org/2000/svg" xmlns:xlink="http://www.w3.org/1999/xlink" x="0px" y="0px"
	 viewBox="0 0 300 75.3" style="enable-background:new 0 0 300 75.3;" xml:space="preserve">
<style type="text/css">
	.st0{fill-rule:evenodd;clip-rule:evenodd;}
	.st1{fill-rule:evenodd;clip-rule:evenodd;fill:#C038F9;}
	.st2{fill:none;}
	.st3{fill-rule:evenodd;clip-rule:evenodd;fill:#231F20;}
</style>
<g id="Layer_2">
</g>
<g id="Layer_1">
	<g>
		<path d="M0,4.9c4,0,7.9,0,11.9,0c2.1,12.8,4.2,25.6,6.3,38.3c0,0,0.1,0,0.1,0c2.2-12.8,4.5-25.5,6.7-38.3c3.5,0,6.9,0,10.4,0
			c2.3,12.7,4.7,25.5,7,38.2c0,0,0.1,0,0.1,0c1.9-12.7,3.8-25.5,5.7-38.2c4,0,7.9,0,11.9,0c-3.9,22.2-7.8,44.4-11.7,66.7
			c-3.5,0-7,0-10.6,0c-2.5-13.4-5-26.7-7.6-40.1c0,0-0.1,0-0.1,0c-0.3,1.7-0.6,3.4-0.9,5.1c-1.1,6.3-2.2,12.7-3.4,19
			c-0.9,5.1-1.8,10.2-2.7,15.3c-0.1,0.3-0.1,0.6-0.6,0.6c-3.3,0-6.5,0-9.8,0c-0.1,0-0.2,0-0.3,0c-0.4-2.3-0.9-4.6-1.3-6.9
			c-1.5-7.9-3-15.7-4.5-23.6c-1.4-7.2-2.7-14.4-4.1-21.5c-0.9-4.7-1.8-9.3-2.7-14C0.1,5.5,0,5.4,0,5.2C0,5.1,0,5,0,4.9z"/>
		<path d="M192.3,3.2c1.4,0.2,2.9,0.4,4.3,0.7c5.4,1.3,8.5,5,9.8,10.3c0.7,2.7,0.8,5.4,0.8,8.1c0,10.2,0,20.4,0,30.7
			c0,3.2-0.2,6.3-1.1,9.4c-1.7,5.4-5.4,8.5-10.9,9.4c-0.9,0.2-1.9,0.3-2.9,0.4c-1.2,0-2.4,0-3.5,0c-0.8-0.1-1.7-0.3-2.5-0.4
			c-5.7-1.4-9.9-5.8-10.8-11.7c-0.1-0.8-0.2-1.6-0.3-2.4c0-1.8,0-3.6,0-5.5c3.7,0,7.4,0,11.2,0c0,0.2,0,0.4,0,0.7
			c0,1.7,0,3.5,0.1,5.2c0,0.6,0.3,1.2,0.5,1.8c0.3,0.7,0.8,1.3,1.6,1.6c2.9,1.3,6-0.4,6.4-3.5c0.1-0.6,0.1-1.3,0.1-1.9
			c0-4.4,0-8.7,0-13.1c0-0.1,0-0.2,0-0.4c-0.2,0.1-0.3,0.2-0.5,0.4c-2.7,2.5-5.9,3.2-9.4,2.9c-2.7-0.2-5.2-1-7.2-2.9
			c-2.3-2.1-3.5-4.8-3.9-7.8c-0.2-1.2-0.3-2.5-0.3-3.8c0-3.7,0-7.4,0.1-11.1c0.1-2.9,0.6-5.8,1.7-8.5c1.9-4.7,5.4-7.4,10.3-8.3
			c0.9-0.2,1.9-0.3,2.8-0.4C190,3.2,191.1,3.2,192.3,3.2z M195.1,25.4C195.1,25.4,195.1,25.4,195.1,25.4c0-2.3,0-4.5,0-6.8
			c0-1.1-0.2-2.2-0.8-3.2c-0.8-1.5-2.8-2.2-4.8-1.8c-1.7,0.3-2.8,1.3-3.2,2.9c-0.2,0.9-0.4,1.8-0.4,2.7c0,3.6,0,7.2,0,10.8
			c0,1,0.2,2,0.5,3c0.7,2.3,2.8,3.3,5,2.3c1.1-0.5,2.2-1.3,3.2-1.9c0.4-0.2,0.5-0.5,0.5-1C195.1,30.1,195.1,27.8,195.1,25.4z"/>
		<path d="M265,72.2c-1.5-0.3-3.1-0.4-4.6-0.8c-6.2-1.5-10.1-6.1-10.5-12.6c-0.2-2.6,0-5.3,0-8c3.8,0,7.6,0,11.5,0
			c0,0.2,0,0.5,0,0.7c0,1.7,0,3.5,0,5.2c0,0.5,0,1,0.1,1.5c0.3,1.7,1.2,3,2.9,3.4c1.7,0.4,3.4,0.3,4.7-1.2c1-1.1,1.3-2.6,1.3-4
			c0.1-2.2,0.1-4.4,0.1-6.6c0-3.4,0-6.9,0-10.3c0-0.6-0.1-1.3-0.2-1.9c-0.7-3.1-3.4-4.4-6.2-3c-1.3,0.7-2.2,1.8-2.7,3.1
			c-0.4,1.2-1,1.5-2.2,1.4c-2.5-0.1-5,0-7.6,0c-0.2,0-0.5,0-0.6,0c0.3-11.7,0.6-23.4,0.9-35.1c9.4,0,19,0,28.7,0
			c-0.1,3.5-0.3,7-0.4,10.6c-6,0-11.8,0-17.8,0c-0.2,4-0.4,7.9-0.5,11.9c0.1-0.1,0.2-0.1,0.3-0.2c1.5-1.4,3.4-2.3,5.5-2.5
			c2.4-0.2,4.7-0.2,7,0.6c3.3,1.2,5.3,3.6,6.6,6.9c0.8,2.2,1.2,4.5,1.4,6.9c0,0.4,0.1,0.9,0.1,1.3c0,4.6,0,9.2,0,13.8
			c0,0.4-0.1,0.9-0.1,1.3c-0.2,2.5-0.5,5-1.3,7.4c-1.5,4.8-4.5,8.2-9.5,9.4c-1.1,0.3-2.3,0.4-3.5,0.6
			C267.2,72.2,266.1,72.2,265,72.2z"/>
		<path d="M230.9,3.2c0,0.3,0,0.5,0,0.8c0,22.1,0,44.2,0,66.4c0,0.3,0,0.6,0,0.9c-3.9,0-7.7,0-11.6,0c0-17.4,0-34.7,0-52.1
			c-0.3,0-0.6,0-0.8,0c-2.5,0-5,0-7.4,0c-0.5,0-0.7-0.2-0.7-0.7c0-2,0-4,0-6c0-0.4,0.2-0.6,0.5-0.8c4.1-2.1,8.1-4.4,11.8-7.2
			c0.5-0.4,1-0.8,1.5-1.3C226.5,3.2,228.7,3.2,230.9,3.2z"/>
		<path d="M90.7,36.4c1.1,0.8,2.2,1.6,3.2,2.5c2.4,2.2,3.8,5,4.3,8.2c0.8,4.7,0.6,9.4-1,13.9c-2.1,5.8-6.4,9.1-12.4,10.2
			c-1.5,0.2-3,0.3-4.5,0.4c-5.9,0-11.7,0-17.6,0c-0.2,0-0.5,0-0.8,0c0-22.3,0-44.4,0-66.7c0.1,0,0.2,0,0.3,0c6.2,0,12.4,0,18.5,0
			c3.5,0.1,6.8,0.8,9.8,2.7c3.3,2.1,5.2,5.1,6.1,8.8c0.9,4,1.1,7.9,0,11.9C95.7,31.7,93.8,34.6,90.7,36.4z M74.6,60.9
			c1.8,0,3.6,0.1,5.3,0c2.8-0.2,4.7-1.6,5.5-4.3c0.9-3.1,0.9-6.2,0.1-9.3c-0.6-2.4-2.2-3.9-4.7-4.6c-2-0.5-4.1-0.3-6.2-0.4
			C74.6,48.5,74.6,54.7,74.6,60.9z M74.6,31.6c1.3,0,2.6,0,3.9,0c2.7-0.1,5-1.8,5.8-4.4c0.9-2.8,0.7-5.6-0.4-8.4
			c-0.6-1.5-1.6-2.5-3.1-3c-2-0.7-4.1-0.3-6.1-0.4C74.6,20.9,74.6,26.2,74.6,31.6z"/>
		<path d="M101.7,71.5c0-22.2,0-44.4,0-66.6c10.5,0,20.9,0,31.4,0c0,3.7,0,7.4,0,11.1c-6.2,0-12.5,0-18.8,0c0,5.2,0,10.3,0,15.4
			c4.8,0,9.6,0,14.4,0c0,3.7,0,7.4,0,11.1c-4.8,0-9.6,0-14.4,0c0,6,0,11.9,0,17.8c6.7,0,13.4,0,20.1,0c0,3.7,0,7.4,0,11.1
			C123.5,71.5,112.6,71.5,101.7,71.5z"/>
		<path d="M149.3,60.4c6.8,0,13.4,0,20.2,0c0,3.7,0,7.4,0,11.1c-11.2,0-22.3,0-33.5,0c0-0.2,0-0.4,0-0.7c0-3.4,0-6.9,0-10.3
			c0-0.3,0.1-0.7,0.2-1c6.6-14.3,13.3-28.6,20-42.9c0.1-0.2,0.2-0.4,0.3-0.7c-6,0-11.9,0-17.9,0c0-3.8,0-7.4,0-11.1
			c10.3,0,20.6,0,31,0c0,0.2,0,0.4,0,0.7c0,3.4,0,6.9,0,10.3c0,0.4-0.1,0.8-0.2,1.1c-6.5,14.3-13.1,28.5-19.7,42.8
			C149.5,59.9,149.4,60.2,149.3,60.4z"/>
		<path d="M246.9,59.3c0,4,0,8,0,12c-0.2,0-0.4,0-0.6,0c-3.6,0-7.2,0-10.9,0c-0.5,0-0.7-0.2-0.7-0.7c0-3.6,0-7.2,0-10.9
			c0-0.4,0-0.6,0.5-0.6c3.7,0,7.5,0,11.2,0C246.6,59.2,246.7,59.2,246.9,59.3z"/>
	</g>
</g>
</svg>
