<?xml version="1.0" encoding="utf-8"?>
<!-- Generator: Adobe Illustrator 18.0.0, SVG Export Plug-In . SVG Version: 6.00 Build 0)  -->
<!DOCTYPE svg PUBLIC "-//W3C//DTD SVG 1.1//EN" "http://www.w3.org/Graphics/SVG/1.1/DTD/svg11.dtd">
<svg version="1.1" xmlns="http://www.w3.org/2000/svg" xmlns:xlink="http://www.w3.org/1999/xlink" x="0px" y="0px"
	 viewBox="0 0 300 66.7" style="enable-background:new 0 0 300 66.7;" xml:space="preserve">
<style type="text/css">
	.st0{fill-rule:evenodd;clip-rule:evenodd;}
	.st1{fill-rule:evenodd;clip-rule:evenodd;fill:#C038F9;}
	.st2{fill:none;}
	.st3{fill-rule:evenodd;clip-rule:evenodd;fill:#231F20;}
</style>
<g id="Layer_2">
	<g>
		<g>
			<path d="M4.9,48.9H0V4.7h4.9V48.9z"/>
			<path d="M10.7,2.8l34.5,36.1V4.7H50v46.2l-34.5-36v34h-4.9V2.8z"/>
			<path d="M56.8,4.7h8.3c6.6,0,12,0.9,17.2,5.3c5,4.3,7.3,10.3,7.3,16.8c0,6.4-2.3,12.1-7.2,16.5C77.2,48,72,48.9,65,48.9h-8.2V4.7
				z M65.3,44.3c5.4,0,9.9-0.8,13.9-4.6c3.6-3.4,5.5-8,5.5-12.9c0-5-1.9-9.9-5.7-13.2c-4-3.6-8.5-4.3-13.7-4.3h-3.6v35H65.3z"/>
			<path d="M86.1,4.7h5.7l11.2,19.7l11.2-19.7h5.7l-14.5,25.2v19h-4.9v-19L86.1,4.7z"/>
			<path d="M143.7,16.1c-2.1-1.8-4.8-2.9-7.6-2.9c-2.1,0-4.9,1.2-4.9,3.7c0,2.6,3.1,3.6,5.1,4.2l2.9,0.9c6.2,1.8,10.9,4.9,10.9,12.1
				c0,4.4-1.1,8.9-4.6,11.9c-3.5,2.9-8.1,4.2-12.5,4.2c-5.6,0-11-1.9-15.5-5l4.9-9.3c2.9,2.5,6.3,4.6,10.2,4.6
				c2.7,0,5.6-1.3,5.6-4.5c0-3.2-4.5-4.3-7-5c-7.2-2.1-12-3.9-12-12.5c0-9,6.4-14.8,15.2-14.8c4.5,0,9.9,1.4,13.8,3.6L143.7,16.1z"
				/>
			<path d="M174.3,48.9h-11.5V14.4h-9.5V4.7h30.5v9.7h-9.5V48.9z"/>
			<path d="M196.9,41.2l-3,7.7h-12.2l17-44.2h12.5l16.6,44.2h-12.2l-2.9-7.7H196.9z M204.9,18.3h-0.1L200,32.4h9.5L204.9,18.3z"/>
			<path d="M266.4,48.9h-14.3l-10.8-17h-0.1v17h-11.5V4.7h17.2c8.7,0,15.4,4.2,15.4,13.6c0,6.1-3.4,11.4-9.7,12.5L266.4,48.9z
				 M241.1,24.5h1.1c3.7,0,8-0.7,8-5.5c0-4.8-4.2-5.5-8-5.5h-1.1V24.5z"/>
		</g>
		<g>
			<path d="M135.4,62l-0.8,1.9h-1.2l3.8-8.3l3.8,8.3h-1.2l-0.8-1.9H135.4z M137.2,58l-1.4,3.1h2.7L137.2,58z"/>
			<path d="M145.9,59.8c0-2.2,1.7-4.1,4-4.1c1.7,0,2.7,0.8,3.4,1.6l-0.8,0.7c0,0-0.8-1.3-2.6-1.3c-1.8,0-2.9,1.5-2.9,3.1
				c0,1.9,1.3,3.2,3.1,3.2c1.5,0,2.5-1.1,2.5-2.3h-1.9v-1h3c0,0,0,0.4,0,0.7c0,2.2-1.6,3.7-3.6,3.7
				C147.8,64.1,145.9,62.3,145.9,59.8z"/>
			<path d="M157.2,62l-0.8,1.9h-1.2l3.8-8.3l3.8,8.3h-1.2l-0.8-1.9H157.2z M158.9,58l-1.4,3.1h2.7L158.9,58z"/>
			<path d="M165.6,63.9h-1v-8.3l6,6.1v-5.9h1v8.4l-6-6.1V63.9z"/>
			<path d="M174.7,63.9h-1v-8.3l6,6.1v-5.9h1v8.4l-6-6.1V63.9z"/>
			<path d="M182.7,55.8h4.1v1h-3V59h2.9v1h-2.9v2.9h3v1h-4.1V55.8z"/>
			<path d="M192.1,63.9H191v-7h-1.8v-1h4.6v1h-1.8V63.9z"/>
			<path d="M199.8,63.9h-1.1v-7H197v-1h4.6v1h-1.8V63.9z"/>
			<path d="M209.4,59.9c0-2.4,1.8-4.2,4.1-4.2c0.7,0,1.5,0.2,2.1,0.6v1.1c0,0-0.8-0.6-2-0.6c-1.8,0-3.1,1.3-3.1,3.2
				c0,1.8,1.1,3.1,3.1,3.1c0.8,0,1.5-0.3,2.1-0.7v1.2c-0.2,0.2-1.2,0.6-2.1,0.6C211.2,64.1,209.4,62.3,209.4,59.9z"/>
			<path d="M217.2,59.9c0-2.4,1.9-4.2,4.2-4.2c2.5,0,4.2,1.9,4.2,4.3c0,2.3-1.8,4.1-4.2,4.1C218.9,64.1,217.2,62.2,217.2,59.9z
				 M221.4,56.8c-1.9,0-3.1,1.4-3.1,3.1c0,1.8,1.3,3.1,3,3.1c1.9,0,3.1-1.2,3.1-3.1C224.4,58.1,223.3,56.8,221.4,56.8z"/>
			<path d="M227.8,63.9h-1.1l1.6-8.3l2.9,6.3l2.8-6.2l1.6,8.2h-1.1l-1-5.1l-2.4,5.4l-2.5-5.4L227.8,63.9z"/>
			<path d="M238.3,60.5v3.4h-1.1v-8.1c0,0,1.2,0,2,0c1.4,0,2.5,0.9,2.5,2.3c0,1.5-1.1,2.4-2.2,2.4C239.1,60.5,238.3,60.5,238.3,60.5
				z M238.3,56.9v2.7c0,0,0.7,0,0.8,0c1.1,0,1.6-0.6,1.6-1.4c0-0.7-0.6-1.3-1.5-1.3C238.9,56.9,238.3,56.9,238.3,56.9z"/>
			<path d="M244.8,62l-0.8,1.9h-1.2l3.8-8.3l3.8,8.3h-1.2l-0.8-1.9H244.8z M246.6,58l-1.4,3.1h2.7L246.6,58z"/>
			<path d="M253,63.9h-1v-8.3l6,6.1v-5.9h1v8.4l-6-6.1V63.9z"/>
			<path d="M260.4,55.8h1.3l1.9,3.5l1.8-3.5h1.2l-2.6,4.6v3.5H263v-3.5L260.4,55.8z"/>
		</g>
	</g>
</g>
<g id="Layer_1">
</g>
</svg>
