<?xml version="1.0" encoding="utf-8"?>
<!-- Generator: Adobe Illustrator 18.0.0, SVG Export Plug-In . SVG Version: 6.00 Build 0)  -->
<!DOCTYPE svg PUBLIC "-//W3C//DTD SVG 1.1//EN" "http://www.w3.org/Graphics/SVG/1.1/DTD/svg11.dtd">
<svg version="1.1" xmlns="http://www.w3.org/2000/svg" xmlns:xlink="http://www.w3.org/1999/xlink" x="0px" y="0px"
	 viewBox="0 0 300 100" style="enable-background:new 0 0 300 100;" xml:space="preserve">
<style type="text/css">
	.st0{fill-rule:evenodd;clip-rule:evenodd;}
	.st1{fill-rule:evenodd;clip-rule:evenodd;fill:#C038F9;}
	.st2{fill:none;}
	.st3{fill-rule:evenodd;clip-rule:evenodd;fill:#231F20;}
</style>
<g id="Layer_2">
</g>
<g id="Layer_1">
	<g>
		<path d="M6.6,41.1H4.9c-2.3,0-3.7,1.2-3.9,4.4H0V40h17.7v5.5h-1.1c-0.1-3.2-1.5-4.4-3.9-4.4H11v14.6c0,3.8,0,4.6,1.4,4.6h0.9v0.9
			h-9v-0.9h0.9c1.3,0,1.4-0.8,1.4-4.6V41.1L6.6,41.1z"/>
		<path d="M18.2,60.3h0.7c1.2,0,1.2-0.7,1.2-4.1V47c0-3.4,0-4.1-1.3-4.1h-0.7v-0.8H26v0.8h-0.7c-1.2,0-1.3,0.7-1.3,4.1v3.8h6.4V47
			c0-3.4,0-4.1-1.3-4.1h-0.7v-0.8h7.8v0.8h-0.7c-1.2,0-1.3,0.7-1.3,4.1v9.2c0,3.4,0,4.1,1.2,4.1h0.7v0.8h-7.8v-0.8h0.7
			c1.2,0,1.3-0.7,1.3-4.1v-4.4h-6.4v4.4c0,3.4,0,4.1,1.3,4.1H26v0.8h-7.8V60.3L18.2,60.3z"/>
		<path d="M37,60.3h0.7c1.2,0,1.2-0.7,1.2-4.1V47c0-3.4,0-4.1-1.3-4.1H37v-0.8h14.2v4.5h-1c-0.3-3-2-3.6-4.1-3.6h-3.3v7.8h2.2
			c1.7,0,3.2-0.4,3.3-2.9h1v6.7h-1c-0.1-2.5-1.5-2.9-3.3-2.9h-2.2v8.4h2.9c2.4,0,4.7-0.5,4.8-3.8h1v4.7H37V60.3L37,60.3z"/>
		<path d="M68.1,44.8l-3.3,8.5h6.4L68.1,44.8L68.1,44.8L68.1,44.8z M71.1,60.2c1.3,0,2.1,0,2.1-0.9c0-0.6-0.5-1.7-1-3.1l-0.7-2h-7.2
			l-0.8,1.9c-0.4,1-0.7,2.1-0.7,2.8c0,0.8,0.6,1.2,1.5,1.2h0.8v0.9h-6.1v-0.9c1.4,0,2-0.8,2.9-3.1l5.5-13.9c0.5-1.1,0.9-2.2,1.2-3.5
			h2.5c0.4,1.5,0.8,2.8,1.3,4.2l5.2,14.2c0.3,0.9,0.8,2.1,1.9,2.1h0.6v0.9h-9V60.2L71.1,60.2z"/>
		<path d="M85.5,50.8H87c2,0,3.5-1,3.5-4c0-2.8-1.6-3.8-3.5-3.8h-1.4V50.8L85.5,50.8L85.5,50.8z M93.9,61.5h-0.6
			c-2.7-0.2-3-3.4-3-6.3c0-1.8-0.3-3.4-2.7-3.4h-2.1v4.4c0,3.4,0,4.1,1.2,4.1h0.7v0.8h-7.8v-0.8h0.7c1.2,0,1.2-0.7,1.2-4.1V47
			c0-3.4,0-4.1-1.3-4.1h-0.7v-0.8h8.8c3.6,0,6.1,1.4,6.1,4.5c0,2.6-2.1,4.2-4.3,4.6v0.1c3.4,0.6,3.9,2.3,3.9,5.3
			c0,1.4,0,3.5,0.8,3.5c0.4,0,0.8-0.4,1.1-0.9l0.7,0.4C96.3,60.8,95.2,61.4,93.9,61.5L93.9,61.5z"/>
		<path d="M97,60.3h0.7c1.2,0,1.2-0.7,1.2-4.1V47c0-3.4,0-4.1-1.3-4.1H97v-0.8h7.8v0.8h-0.7c-1.2,0-1.3,0.7-1.3,4.1v9.2
			c0,3.4,0,4.1,1.2,4.1h0.7v0.8H97V60.3L97,60.3z"/>
		<path d="M105.8,59.7l6.3-10.8c1.2-2,2.5-4.2,3.4-5.9h-4c-2.1,0.1-3.8,0.7-4,4h-1v-4.9h13.5v1.2l-7,12c-0.9,1.7-2,3.2-2.8,4.8h4.7
			c2.3,0,4.1-1,4.2-4.2h1v5.1h-14.3V59.7L105.8,59.7z"/>
		<path d="M129.4,60.7c3.4,0,3.8-4.4,3.8-9.2c0-5.8-0.7-9.1-3.8-9.1c-3.1,0-3.8,3.3-3.8,9.1C125.6,56.3,126,60.7,129.4,60.7
			L129.4,60.7L129.4,60.7z M129.8,61.5H129c-5.3-0.2-7.6-5-7.6-10.1c0-5.2,2.7-9.7,8-9.7c5.3,0,8,4.5,8,9.7
			C137.4,56.5,135.1,61.2,129.8,61.5L129.8,61.5z"/>
		<path d="M139.6,47c0-3.4,0-4.1-1.2-4.1h-0.7v-0.8h5.9c1.4,2.7,2.7,4.7,4.2,7.1l4.3,6.9h0.1V47c0-3.4,0-4.1-1.2-4.1h-1v-0.8h5.4
			v0.8h-0.9c-1.2,0-1.2,0.7-1.2,4.1v14.2h-2.5l-10-16.1h-0.1v11c0,3.4,0,4.1,1.2,4.1h0.9v0.8h-5v-0.8h0.7c1.2,0,1.2-0.7,1.2-4.1V47
			L139.6,47z"/>
		<path d="M162.2,46.4l-3,7.6h5.8L162.2,46.4L162.2,46.4L162.2,46.4z M164.9,60.3c1.1,0,1.9,0,1.9-0.8c0-0.5-0.4-1.5-0.9-2.8
			l-0.7-1.8h-6.5l-0.7,1.7c-0.4,0.9-0.7,1.9-0.7,2.5c0,0.7,0.5,1.1,1.4,1.1h0.7v0.8h-5.5v-0.8c1.3,0,1.8-0.7,2.6-2.8l4.9-12.5
			c0.4-1,0.8-2,1.1-3.2h2.3c0.3,1.3,0.7,2.6,1.2,3.8l4.7,12.8c0.3,0.9,0.7,1.9,1.7,1.9h0.5v0.8h-8.1V60.3L164.9,60.3z"/>
		<path d="M186.6,49.7h1.6c2.2,0,3.9-1.1,3.9-4.4c0-3.1-1.8-4.2-3.9-4.2h-1.6V49.7L186.6,49.7L186.6,49.7z M196.3,61.5h-1.4
			c-2.6-0.5-3-3.9-3-6.9c0-2-0.3-3.8-3-3.8h-2.3v4.9c0,3.8,0,4.6,1.4,4.6h0.8v0.9h-8.6v-0.9h0.8c1.3,0,1.4-0.8,1.4-4.6V45.5
			c0-3.8,0-4.6-1.4-4.6h-0.7V40h9.8c4,0,6.8,1.5,6.8,4.9c0,2.9-2.4,4.6-4.7,5.1v0.1c3.8,0.6,4.3,2.6,4.3,5.9c0,1.5,0,3.8,0.9,3.8
			c0.5,0,0.9-0.4,1.3-1l0.7,0.4C198.6,60.6,197.5,61.3,196.3,61.5L196.3,61.5z"/>
		<path d="M198.7,60.3h0.7c1.2,0,1.2-0.7,1.2-4.1V47c0-3.4,0-4.1-1.3-4.1h-0.7v-0.8h14.2v4.5h-1c-0.3-3-2-3.6-4.1-3.6h-3.3v7.8h2.2
			c1.7,0,3.2-0.4,3.3-2.9h1v6.7h-1c-0.1-2.5-1.5-2.9-3.3-2.9h-2.2v8.4h2.9c2.4,0,4.7-0.5,4.8-3.8h1v4.7h-14.5V60.3L198.7,60.3z"/>
		<path d="M220.1,51.2h0.9c2.1,0,3.9-1.4,3.9-4c0-2.7-1.4-4.2-3.6-4.2h-1.3V51.2L220.1,51.2L220.1,51.2z M214.2,60.3h0.7
			c1.2,0,1.2-0.7,1.2-4.1V47c0-3.4,0-4.1-1.3-4.1h-0.7v-0.8h8.7c2.9,0,6.2,1.3,6.2,4.9c0,4.1-3.9,5.1-7,5.1c-0.7,0-1.4,0-2-0.1v4.1
			c0,3.4,0,4.1,1.2,4.1h0.9v0.8h-8V60.3L214.2,60.3z"/>
		<path d="M246.7,42.9H246c-1.2,0-1.3,0.7-1.3,4.1v8c0,3.8-2.2,6.3-6,6.5h-0.9c-4.4-0.2-6.6-2.8-6.6-6.6V47c0-3.4,0-4.1-1.3-4.1
			h-0.7v-0.8h7.8v0.8h-0.7c-1.2,0-1.3,0.7-1.3,4.1v8.4c0,3.6,1.9,4.9,4,4.9c2.4,0,4.5-1.8,4.5-5.7V47c0-3.4,0-4.1-1.3-4.1h-0.7v-0.8
			h5V42.9L246.7,42.9z"/>
		<path d="M252.5,50.6h1.8c2.4,0,3.4-1.6,3.4-3.9c0-1.8-0.6-3.7-3.4-3.7h-1.8V50.6L252.5,50.6L252.5,50.6z M252.5,60.1h1.8
			c2.2,0,3.8-0.8,3.8-3.9c0-3.5-1.3-4.6-3.8-4.6h-1.8V60.1L252.5,60.1L252.5,60.1z M246.6,60.3h0.7c1.2,0,1.2-0.7,1.2-4.1V47
			c0-3.4,0-4.1-1.3-4.1h-0.7v-0.8h9c2.6,0,6,0.9,6,4.5c0,2.6-2.3,4.1-4.6,4.4v0.1c2.4,0.1,5.2,1.8,5.2,4.7c0,4.4-3.8,5.3-7.5,5.3
			h-8.1V60.3L246.6,60.3z"/>
		<path d="M263,60.3h0.7c1.2,0,1.2-0.7,1.2-4.1V47c0-3.4,0-4.1-1.3-4.1H263v-0.8h7.8v0.8h-0.7c-1.2,0-1.3,0.7-1.3,4.1v13.1h2.7
			c2.5,0,4.3-0.7,4.5-4.1h1v5H263V60.3L263,60.3z"/>
		<path d="M277.1,60.3h0.7c1.2,0,1.2-0.7,1.2-4.1V47c0-3.4,0-4.1-1.3-4.1h-0.7v-0.8h7.8v0.8h-0.7c-1.2,0-1.3,0.7-1.3,4.1v9.2
			c0,3.4,0,4.1,1.2,4.1h0.7v0.8h-7.8V60.3L277.1,60.3z"/>
		<path d="M299.1,47.1h-1c-0.3-2.3-1.4-4.6-3.9-4.7c-4.2,0-4.6,6.1-4.6,9.4c0,3.3,0.4,8.9,4.5,8.9c2.3,0,3.8-1.9,4.2-4.9h1v5.5h-0.8
			c0-0.3-0.3-0.5-0.7-0.5c-0.5,0-2.1,0.5-3.6,0.6h-0.9c-5.4-0.2-7.9-4.4-7.9-9.4c0-5.5,2.8-10.4,8.4-10.4c2,0,2.9,0.7,3.8,0.7
			c0.5,0,0.6-0.3,0.7-0.6h0.8V47.1L299.1,47.1z"/>
	</g>
</g>
</svg>
