<?xml version="1.0" encoding="utf-8"?>
<!-- Generator: Adobe Illustrator 18.0.0, SVG Export Plug-In . SVG Version: 6.00 Build 0)  -->
<!DOCTYPE svg PUBLIC "-//W3C//DTD SVG 1.1//EN" "http://www.w3.org/Graphics/SVG/1.1/DTD/svg11.dtd">
<svg version="1.1" xmlns="http://www.w3.org/2000/svg" xmlns:xlink="http://www.w3.org/1999/xlink" x="0px" y="0px"
	 viewBox="0 0 300 88" style="enable-background:new 0 0 300 88;" xml:space="preserve">
<style type="text/css">
	.st0{fill-rule:evenodd;clip-rule:evenodd;}
	.st1{fill-rule:evenodd;clip-rule:evenodd;fill:#C038F9;}
	.st2{fill:none;}
	.st3{fill-rule:evenodd;clip-rule:evenodd;fill:#231F20;}
</style>
<g id="Layer_2">
</g>
<g id="Layer_1">
	<g>
		<path d="M196.7,32c1.9,1.6,3.4,3.1,5.1,4.3c2.5,1.8,5.3,2.8,8.4,2.5c1.3-0.1,2.3-0.4,2.8-1.7c0-1.4-0.9-2-2-2.5
			c-1.6-0.7-3.2-1.3-4.8-2c-2.7-1.2-5.2-2.8-7.2-5.2c-2.6-3-3.2-6.5-2.7-10.2c1.2-8.4,8-12.9,14.3-13.9c6.5-1.1,12.7-0.5,18.6,2.6
			c1.3,0.7,2.5,1.6,4,2.5c-2.1,3.9-4.2,7.6-6.5,11.3c-3.5-2.2-6.6-5.3-11.3-4.5c-0.4,0.4-0.9,1-1.3,1.4c-0.1,1.7,0.7,2.5,1.8,3
			c1.5,0.7,3,1.4,4.5,2.1c3.2,1.4,6.2,3.2,8.5,6.3c0.3-1.1,0.5-2.1,0.7-3.1c1.3-8.1,5.9-14,12.8-18c3.6-2.1,7.6-3.1,11.9-3.2
			c5.7-0.1,10.9,1.2,15.5,4.4c7.2,5,11,12,11.2,20.8c0.2,7.2-2.4,13.4-7.3,18.5c-3.4,3.5-7.6,5.9-12.4,7c-7,1.5-13.7,0.7-19.9-3.1
			c-0.4-0.2-0.7-0.4-1.3-0.7c-0.4,2.4-1,4.6-3.9,5.8c-0.9,0-2.2,0.1-3.6,0.2c-0.1,0.7-0.3,1.5-0.4,2.4c-0.6,0.7-1.3,1.7-2.1,2.5
			c-7,7-14.1,13.9-21.1,20.9c-0.6,0.6-1.1,1.2-1.5,1.7c-1,0.4-1.8,0.6-2.6,0.9c-0.4-0.2-0.8-0.3-1.2-0.4c-2.9-0.7-3.3-4.6-1.3-6.5
			c2.4-2.2,4.6-4.6,6.9-6.9c5.4-5.3,10.8-10.6,16.2-15.9c1.1-1.1,2.3-1.8,3.9-1.7c0.4-5.5,0.5-5.7,5.5-7.6c-1.5-2.5-3-5.1-4.6-7.8
			c-0.1,0.5-0.2,0.9-0.4,1.3c-1.4,4.3-4,7.6-8,9.8c-5,2.7-10.2,3.6-15.8,2.8c-6.2-0.9-11.5-3.5-16.4-7.3c-0.3-0.3-0.6-0.6-1.1-1
			C191.3,39.9,194,36,196.7,32z M250.7,5.6c-0.6,0-1.2,0-1.8,0.1c-12.8,3.4-20.3,15.8-18.1,27.6c0.9,4.9,2.9,9.2,6.3,12.7
			c6.2,6.2,13.7,8.8,22.5,7.2c13-2.3,22.1-15.3,19.4-28.2c-2.1-10.2-8.4-16.4-18.2-19.4c-0.5-0.1-1.1,0-1.8,0c0.4,0.8,0.8,1.4,1.1,2
			c2.2,4.8,3.1,9.8,1.1,14.9c-0.7,1.8-1.6,3.5-2.3,5.2c-0.8,1.8-1.5,3.7-2.2,5.5c-0.4,1.1-0.6,2.2,0.1,3.3c1.2-0.3,1.1-1.1,1.3-1.9
			c0.8-4.5,2.9-8.3,6.2-11.4c1.3-1.3,2.9-2.3,4.7-2.8c3.8-1,7,0.3,8.1,4.4c0.5,1.7,0.5,3.3,0.3,5.2c-1.7-4.5-5.7-4.9-8.6-3
			c-3.4,2.2-5.6,5.3-6.7,9c0.7,0.8,1.3,1.5,1.8,2c-0.2,1.7-1.3,2-2.7,2.2c0.4,1.9,0.8,3.6,1.2,5.3c-2.6-1.1-2.8-1.3-4.6-5.4
			c-0.3,0.1-0.7,0.1-1.3,0.3c0.7,1.8,1.3,3.4,2,5c-0.3,3.6-1.4,5.2-4,5.7c-2.1-1.4-2.9-3.4-2.9-5.8c0.4-0.9,0.8-1.6,1-2.4
			c0.3-0.8,0.5-1.7,0.8-2.7c-0.5,0-0.8,0-1.1,0c-2.2,4.5-2.5,4.8-5,5.3c0.9-1.6,1.7-3.2,1.2-5.2c-1.1-0.4-2.3-0.7-2.3-2.4
			c0.5-0.5,1.2-1.1,1.9-1.7c-0.8-2.5-2-4.7-3.7-6.7c-1.2-1.4-2.7-2.5-4.5-3.1c-2.3-0.8-4.5-0.3-5.9,1.4c-0.5,0.6-0.9,1.4-1.4,2.3
			c0-1.3-0.1-2.4,0-3.4c0.4-3.4,2.3-7.2,7.7-6.3c0.8,0.1,1.6,0.4,2.3,0.8c2,1,3.7,2.5,5.1,4.3c2.2,2.9,3.8,6.1,4.2,9.7
			c0.1,0.8,0.2,1.5,1.2,1.5c0.7-0.7,0.4-1.6,0.2-2.4c-0.3-1.1-0.6-2.3-1-3.3c-1.1-2.5-2.2-5-3.3-7.5c-1.6-3.7-1.9-7.5-0.7-11.4
			C248.9,9.9,249.8,7.9,250.7,5.6z M206.1,83.5c0.3-0.2,0.5-0.4,0.8-0.6c7.7-7.7,15.4-15.4,23.1-23.1c0.6-0.6,1-1.3,1.3-2.1
			c0.1-0.3-0.1-0.7-0.2-1.2c-3,2.8-5.8,5.5-8.6,8.2c-5,5-10,10-15,14.9c-0.6,0.6-1.3,1.2-1.7,1.6c-1.6,0.5-2.5-0.3-3.4-1.3
			c-0.7,1.9,0.3,2.7,1.4,3.5c0.4,0,0.9,0.1,1.3,0.1C205.5,83.6,205.8,83.6,206.1,83.5z M238.3,53.3c0.3-2.9,0.3-2.9-0.7-3.9
			c-0.3,2.2-0.3,2.2-1.5,4c-1.4,1.1-2.9,1-4.7,0.7C234.2,56.4,236,56.1,238.3,53.3z"/>
		<path d="M173.8,3.8c5.7,0,11.2,0,16.7,0c0,0,0.1,0.1,0.2,0.2c0,0.1,0.1,0.1,0.1,0.2c0,0.2,0.1,0.3,0,0.5
			c-2.9,15.4-5.8,30.9-8.7,46.3c-1.8,0.6-13.6,0.6-17.5,0c-3.1-7.8-5.6-15.9-8.9-24.2c-1.5,8.5-2.9,16.4-4.3,24.5
			c-5.8,0-11.4,0-17,0c-0.1-0.1-0.1-0.1-0.2-0.2c0-0.1-0.1-0.2-0.1-0.2c0-0.2,0-0.5,0-0.7c2.9-15.3,5.8-30.7,8.7-46.3
			c1.8-0.3,3.7-0.1,5.6-0.1c1.9,0,3.8,0,5.7,0c1.9,0,3.8,0,6,0c1.5,4,3,8,4.4,12c1.4,4,2.8,8.1,4.2,12.4c0.2-0.4,0.5-0.6,0.6-0.9
			c1.2-6.1,2.3-12.2,3.5-18.3C173.3,7.3,173.5,5.7,173.8,3.8z"/>
		<path d="M126.4,51.4c-11.5,0-22.8,0-34.2,0c2.9-15.9,5.9-31.7,8.8-47.5c11.1,0,21.9,0,32.7,0c-0.8,4.1-1.5,8.2-2.3,12.3
			c-5.4,0.2-10.5,0-15.7,0.1c-0.3,1.7-0.6,3.1-0.9,4.6c1.7,0.7,3.2,0.3,4.8,0.4c1.7,0.1,3.3,0,5,0c1.6,0,3.1,0,5,0
			c-0.7,4-1.4,7.8-2.2,11.8c-5,0-9.8,0-14.7,0c-0.4,1.8-0.7,3.5-1.1,5.4c0.7,0.1,1.3,0.2,1.9,0.2c4.2,0,8.5,0,12.7,0
			c0.8,0,1.6,0,2.5,0C128,43,127.2,47.2,126.4,51.4z"/>
		<path d="M63.9,3.8c5.8,0,11.3,0,17.1,0c-0.1,2.9-0.8,5.6-1.4,8.3c-0.6,2.8-1,5.5-1.6,8.3c-0.5,2.7-1,5.4-1.5,8
			c-0.5,2.8-1,5.5-1.5,8.4c1.7,0.6,3.3,0.3,4.9,0.3c1.6,0.1,3.2,0,4.7,0c1.6,0,3.3,0,5.1,0c-0.9,4.8-1.7,9.4-2.6,14
			c-1.9,0.4-28.9,0.5-32.2,0.1c1.1-7.9,2.9-15.7,4.2-23.6C60.7,19.7,62.3,11.9,63.9,3.8z"/>
		<path d="M16.7,31.4C18,22.2,19.6,13.2,21,4.1c1.2-0.6,2.4-0.3,3.6-0.3c1.2-0.1,2.5,0,3.9,0c-0.5,3.3-1,6.5-1.5,9.6
			c1.3,0.6,2.4,0.4,3.6,0.2c0.6-3.3,1.1-6.5,1.7-9.7c2.5,0,4.8,0,7.4,0c-1.5,9.2-2.9,18.4-4.4,27.5c-2.6,0-4.9,0-7.4,0
			c0.4-3.6,1.3-7,1.5-10.7c-1.2,0-2.3,0-3.4,0c-0.6,3.6-1.2,7.2-1.8,10.7C21.5,31.4,19.2,31.4,16.7,31.4z"/>
		<path d="M38.9,31.4c0.8-4.7,1.5-9.2,2.3-13.8c0.7-4.6,1.4-9.1,2.1-13.8c4.6,0,9,0,13.6,0c-0.3,2-0.7,4-1,6.1c-1.9,0-3.9,0-6,0
			c-0.2,1.4-0.4,2.6-0.7,3.9c1.7,0.8,3.5,0,5.4,0.6c-0.2,1.7-0.5,3.5-0.7,5.5c-1.9,0.2-3.7,0.3-5.6,0.5c-0.3,1.5-0.5,2.7-0.7,3.9
			c2,0.8,3.9,0.1,5.9,0.6c0,2.2-0.6,4.3-1,6.5C48,31.4,43.6,31.4,38.9,31.4z"/>
		<path d="M1.4,31.5c0.6-3.6,1.1-7,1.6-10.5c0.5-3.4,1.1-6.8,1.7-10.4c-1.7,0-3.1,0-4.7,0c0.4-2.3,0.7-4.4,1-6.5
			c1.8-0.5,13-0.6,17-0.2c-0.3,2.1-0.7,4.2-1,6.5c-1.5,0.1-3,0.2-4.7,0.2c-1.1,6.9-2.2,13.8-3.4,20.8c-1.3,0-2.5,0-3.7,0
			C3.9,31.5,2.7,31.5,1.4,31.5z"/>
		<path d="M77.9,57.2c0.9,0.2,1.6,0.4,2.4,0.7c0.5,1.4,0.7,2.8-0.2,4c-0.7,1-1.8,1.3-3.1,1C77.2,61.1,77.5,59.3,77.9,57.2z"/>
		<path d="M156.1,57.7c0.3,0.7,0.5,1.2,0.7,1.5c-0.7,3.4-0.9,3.7-3.5,3.6c-0.5-1.7,0.5-3.3,0.5-5.1
			C154.6,57.7,155.3,57.7,156.1,57.7z"/>
		<path d="M99.2,60c0.3-0.9,0.5-1.7,0.8-2.6c0.1,0,0.2,0,0.3,0c0.1,0.3,0.3,0.8,0.2,1c-0.6,1.5,0,3.3-1.4,4.9
			c-0.4-1.3-0.7-2.4-1.2-3.7c-0.4,1.4-0.8,2.4-1.1,3.5c-0.2-0.1-0.3-0.1-0.5-0.2c0.3-1.8,0.6-3.6,1-5.8c0.5,0.5,1,0.7,1.1,1.1
			c0.2,0.5,0.2,1.1,0.3,1.7C98.8,59.9,99,59.9,99.2,60z"/>
		<path d="M145.3,61.8c-0.6,0.5-1.1,0.8-1.5,1.1c-0.5-0.6,1.1-4.6,2.3-5.6c1.3,1.8,0.6,3.7,0.8,6C146.3,62.6,145.9,62.3,145.3,61.8z
			"/>
		<path d="M118.2,63c0.1-1.9-0.2-3.9,0.8-5.8c0.8,0.2,1.5,0.5,2.1,0.7c0.8,1.5-0.2,2-0.9,2.6c0.2,0.8,0.4,1.6,0.6,2.5
			c-1.5,0-0.9-1.4-1.5-2.1C118.9,61.6,118.5,62.3,118.2,63z"/>
		<path d="M148.4,63.3c-0.4-2.1,0.4-3.8,0.4-5.4c0-0.3,0.2-0.6,0.3-0.9c0.2,0.1,0.4,0.2,0.6,0.3c0.3,1,0.6,2,1,3.2
			c0.3-1.1,0.6-2.1,1-3.5c0.5,2.3-0.1,4.1-0.5,5.9c-1-0.8-1-0.8-1.5-3.1C148.4,60.5,149.4,62,148.4,63.3z"/>
		<path d="M135.8,60.7c0.3-1.3,0.5-2.3,0.8-3.2c0.7,1.9-0.1,3.6-0.2,5.5c-1-0.1-1-0.8-1.2-1.4c-0.1-0.6,0-1.4-1-1.7
			c-0.1,1.1-0.3,2.1-0.4,3.4c-1-0.7-0.7-1.6-0.5-2.1c0.6-1.2-0.2-2.9,1.4-3.9C135,58.3,135.4,59.3,135.8,60.7z"/>
		<path d="M131.8,63.1c-0.6-0.5-0.9-0.8-1.4-1.3c-0.7,0.4-1.2,0.8-1.9,1.2c1.4-5.1,1.4-5.1,2.8-5.7C132,59.2,132.1,61,131.8,63.1z"
			/>
		<path d="M91.3,60.5c0.7-1.1,0-2.4,1.1-3.3c0.4,2.1-0.5,3.8-0.6,5.7c-0.4-0.1-0.6-0.1-0.8-0.2c-0.3-1-0.7-2-1-3.1
			c-0.9,1.1,0,2.5-1.2,3.3c-0.5-1.9,0.5-3.5,0.4-5.2c0.4-0.1,0.6-0.1,0.9-0.2C90.5,58.5,90.9,59.4,91.3,60.5z"/>
		<path d="M201.5,57.2c0.6,0.1,0.9,0.1,1.3,0.2c0,1.7,0,3.4,0,5.3c-0.4-0.2-0.8-0.5-1.4-0.8c-0.6,0.4-1.1,0.7-2,1.4
			C200.2,61,200.9,59.2,201.5,57.2z"/>
		<path d="M113.5,62.6c-0.8-2.9-0.4-4.2,2-5.4c0.4,0.3,0.9,0.7,1.3,1C117,62.1,116,63.3,113.5,62.6z M114.4,62.2
			c1.5-0.5,1.6-1.7,1.7-2.8c0-0.7-0.3-1.3-1.3-1.2C113.9,59.4,113.6,60.7,114.4,62.2z"/>
		<path d="M195.8,58.1c0.5-0.3,1-0.6,1.6-0.9c0.4,0.2,0.9,0.4,1.4,0.6c0.3,1.2,0.4,2.5,0,3.7c-0.4,1-1.1,1.6-2.4,1.5
			C194.1,61.6,195.6,59.8,195.8,58.1z M197.8,58c-2.1,1.5-2.3,2.8-0.8,4.2C198.5,61.1,198.2,59.7,197.8,58z"/>
		<path d="M164.4,57.4c0.1,0.7,0.2,1.4,0.2,2.1c0.5,0,0.8,0,1.2,0c0.2-0.7,0.4-1.4,0.5-2.1c0.2,0,0.4,0,0.4,0.1
			c0.3,1.9-0.4,3.6-1.1,5.4c0-0.7-0.1-1.4-0.1-2.2c-0.5,0-0.8,0-1.3,0c-0.1,0.8-0.3,1.5-0.4,2.1c-0.2,0-0.5,0-0.5,0
			C162.9,60.9,163.7,59.2,164.4,57.4z"/>
		<path d="M84.8,62.9c-1.5-1.7-1.5-1.7-0.4-4.9c0.4-0.2,1-0.6,1.6-0.9c0.5,0.4,0.9,0.7,1.4,1c0,1.1,0,2,0,2.9
			C86.9,62.2,86.3,63.1,84.8,62.9z M86.3,57.9c-1.6,0.8-1.8,2-1.7,3.2c0,0.7,0.4,1.1,1.2,0.9C86.8,61,87,59.7,86.3,57.9z"/>
		<path d="M68.8,57.4c-0.2,1.8,0,3.7-1.1,5.4c-0.8,0-1.5,0-2.2,0c-0.8-2,0.2-3.7,0.4-5.5c0.9,0.3,0.7,0.9,0.6,1.4
			c-0.2,1.1-0.7,2.2-0.1,3.3c1.1,0.1,1.2-0.7,1.3-1.4C67.8,59.5,67.8,58.3,68.8,57.4z"/>
		<path d="M179.1,62c0.5,0,0.8,0,1.2,0c0.4-1.6,0.7-3.1,1.1-4.7c0.9,1.6-0.2,3.1-0.1,4.5c-0.9,1.3-1.8,1.5-3.1,0.7
			c-0.3-1.8,0.5-3.4,0.6-5.2c0.2,0,0.4,0.1,0.7,0.1C179.4,58.9,179.3,60.3,179.1,62z"/>
		<path d="M58.8,57.2c0.4,0.2,0.7,0.4,1.1,0.6c0.3,1.3,0.4,2.6-0.2,3.9c-0.4,1-1.3,1.5-2.6,1.1c-0.3-0.5-0.6-1-0.9-1.5
			C56.8,59.8,56.4,57.8,58.8,57.2z M58.1,62.3c1.5-1,1.1-2.4,1.5-3.5c-0.4-0.3-0.6-0.5-0.9-0.8c-1.3,0.8-1.2,2.1-1.5,3.2
			C57.5,61.6,57.7,61.9,58.1,62.3z"/>
		<path d="M175.6,57.1c0.5,0.4,0.9,0.7,1.4,1c0,0.1-0.1,0.2-0.1,0.3c-0.5-0.1-1-0.2-1.5-0.3c-0.8,1.1-0.8,1.1-1.1,3.2
			c0.2,0.2,0.4,0.5,0.7,0.8c0.4-0.3,0.8-0.5,1.1-0.8c-0.1-0.5-0.1-0.9-0.2-1.4c0.4,0,0.7,0,1,0.1c0,1.3,0,1.3-0.8,2.6
			c-0.6,0-1.3,0-1.9,0C173.1,59.7,173.4,58.6,175.6,57.1z"/>
		<path d="M74.4,57.2c0.8,0.1,1.4,0.1,2.2,0.2c-0.8,0.6-1.3,1.1-2,1.7c0.6,0.4,1,0.6,1.5,1c-0.6,0.3-1,0.6-1.7,0.9
			c0.4,0.6,0.7,1.1,1.2,1.8c-0.8,0.1-1.4,0.1-2.2,0.2C73.7,61,74,59.3,74.4,57.2z"/>
		<path d="M206,57.2c0.4,0.2,0.8,0.4,1.5,0.7c-0.8,0.3-1.3,0.5-2,0.7c0.4,1.2,1.8,2,1.2,3.4c-1.5,1.2-1.5,1.2-3-0.2
			c0.6,0.1,0.8,0.2,1.1,0.2c0.3,0,0.6-0.1,0.9-0.2c0.2-1.3-0.9-1.8-1.2-2.7C204.4,58.2,205,57.7,206,57.2z"/>
		<path d="M168.6,57.3c0.8,0,1.3,0.1,1.7,0.1c0.1,0.1,0.2,0.3,0.3,0.4c-0.7,0.3-1.3,0.5-2.2,0.9c0.9,0.8,1.2,1,1.5,1.2
			c-0.4,0.6-0.8,1.2-1.3,1.8c0.6,0.3,0.9,0.6,1.8,1.1c-1.3,0-2,0-2.7,0C168,61,168.3,59.2,168.6,57.3z"/>
		<path d="M70.5,57.8c0.3-0.1,0.8-0.4,1.3-0.7c0.3,0.3,0.6,0.6,0.9,0.9c-0.6,0.2-1.1,0.4-1.7,0.6c0.6,1,1.1,1.8,1.5,2.7
			c-0.5,1.4-1.3,1.8-3.1,1.3c0.8-0.4,1.4-0.7,1.9-1c0-0.3,0.1-0.5,0-0.6C70.7,60.2,69.6,59.4,70.5,57.8z"/>
		<path d="M127.8,62.9c-1.1,0-1.7,0-2.6,0c0.3-1.9,0.7-3.7,1-5.5c0.7,0,1.2,0,2,0c-0.7,0.6-1.2,1.1-1.7,1.6c0.4,0.4,0.7,0.8,0.9,1.1
			c-0.5,0.4-1,0.7-1.8,1.2C126.6,62,127,62.3,127.8,62.9z"/>
		<path d="M139.8,61.6c-0.6-1-1.1-1.8-1.7-2.9c0.5-0.5,1-1.1,1.6-1.7c0.5,0.4,0.9,0.6,1.4,1c-0.7,0.2-1.2,0.3-1.8,0.4
			c0.2,1.5,1.8,2.5,0.9,4c-1,0.4-1,0.4-2.4,0c0.5-0.2,0.8-0.2,1-0.3C139.1,62,139.3,61.9,139.8,61.6z"/>
		<path d="M102,61.7c0.6,0.4,1,0.6,1.9,1.1c-1.2,0.1-1.8,0.2-2.8,0.3c0.4-2,0.7-3.8,1-5.7c0.7,0,1.2,0,2.1,0
			c-0.7,0.6-1.2,0.9-1.8,1.3c0.3,0.4,0.5,0.9,0.9,1.4c0,0-0.1,0.2-0.3,0.4C102.8,60.9,102.4,61.2,102,61.7z"/>
		<path d="M108.5,60.8c0.5-1.2,0.9-2.4,1.5-3.8c0.3,1.7-0.6,4.5-2,6.1c-0.1-2-0.8-3.8-0.7-5.6c0.2,0,0.4,0,0.7-0.1
			c0.1,1.1,0.2,2.1,0.2,3.2C108.3,60.7,108.4,60.8,108.5,60.8z"/>
		<path d="M64.4,57.6c-1,0.8-2.1,1.4-2.3,3.1c0.3,0.5,0.8,1.2,1.4,2c-0.9,0.5-1.5,0.1-1.9-0.7c-0.7-1.1-0.3-2.2,0.2-3.3
			C62.3,57.7,63.1,57.2,64.4,57.6z"/>
		<path d="M185.9,62.9c0.1-0.9,0.1-1.9,0.3-2.8c0.1-0.9,0.4-1.7,0.6-2.7c0.6,0,1.3,0,2,0c-0.1,0.3-0.2,0.6-0.3,0.6
			c-0.8,0.1-1.2,0.5-1.3,1.4c0.3,0.1,0.6,0.3,1.1,0.5c-0.5,0.3-0.8,0.5-1.2,0.8c-0.3,0.7-0.6,1.5-0.9,2.2
			C186.1,63,186,62.9,185.9,62.9z"/>
		<path d="M192.5,61.4c0.5,0.4,0.9,0.8,1.4,1.2c-0.3,0.1-0.5,0.4-0.6,0.3c-0.5-0.1-1.1-0.3-1.5-0.5c-0.6-3.6,0.1-4.9,2.5-4.9
			C192.5,59.2,192.5,59.2,192.5,61.4z"/>
		<path d="M54,59.1c0.5,0.4,0.8,0.6,1,0.8c-0.6,1-1.2,2.1-1.8,3.1c-0.1,0-0.2-0.1-0.3-0.1c0.3-1.8,0.7-3.6,1-5.5c0.6,0,1.1,0,2,0
			C55.1,58,54.7,58.5,54,59.1z"/>
		<path d="M160.7,62.9c-0.8-1.8,0.8-3.6-0.9-5.5c1.1,0,1.8,0,2.4,0C161.7,59.2,161.2,61.1,160.7,62.9z"/>
		<path d="M211.3,57.3c-2,1.8-1.5,4-2.3,6c-1.2-2.1,1-4-0.8-5.8C209.3,57.4,210,57.3,211.3,57.3z"/>
		<path d="M184.8,62.8c-0.7,0-1.4,0-2.1,0c0.6-1.9,0.3-3.8,1.6-5.5c-0.1,1.4-0.3,2.8-0.5,4.5c0.3,0.1,0.8,0.3,1.2,0.5
			C185,62.6,184.9,62.7,184.8,62.8z"/>
		<path d="M106.2,62.8c-0.2,0-0.4,0.1-0.8,0.1c-0.4-1.9-0.2-3.7-0.2-6.1c1.2,1.2,0.7,2.2,0.8,3.1C106.2,60.9,107,61.8,106.2,62.8z"
			/>
		<path d="M123.6,57.5c-0.1,1.4-0.3,2.7-0.4,4.3c0.3,0.2,0.7,0.4,1.1,0.7c-0.6,0.7-1.3,0.5-2.2,0.3C122.5,61,122.4,59.1,123.6,57.5z
			"/>
	</g>
</g>
</svg>
