<?xml version="1.0" encoding="utf-8"?>
<!-- Generator: Adobe Illustrator 18.0.0, SVG Export Plug-In . SVG Version: 6.00 Build 0)  -->
<!DOCTYPE svg PUBLIC "-//W3C//DTD SVG 1.1//EN" "http://www.w3.org/Graphics/SVG/1.1/DTD/svg11.dtd">
<svg version="1.1" xmlns="http://www.w3.org/2000/svg" xmlns:xlink="http://www.w3.org/1999/xlink" x="0px" y="0px"
	 viewBox="0 0 300 72.3" style="enable-background:new 0 0 300 72.3;" xml:space="preserve">
<style type="text/css">
	.st0{fill-rule:evenodd;clip-rule:evenodd;}
	.st1{fill-rule:evenodd;clip-rule:evenodd;fill:#C038F9;}
	.st2{fill:none;}
	.st3{fill-rule:evenodd;clip-rule:evenodd;fill:#231F20;}
</style>
<g id="Layer_2">
	<g>
		<g>
			<path d="M97.8,70c-0.1-0.3-0.4-0.5-0.3-0.7c0.1-0.7,0.8-0.5,1.3-1.2c0-2.1,0.1-4.5,0.1-6.8c0.4-0.1,0.7-0.1,1,0.2
				c0.1,2.2,0.1,4.5,0,6.8c0,0.9-0.8,1.2-1.4,1.6C98.3,70,98,70,97.8,70z"/>
			<path d="M0.2,4.3c-0.2-0.6-0.2-1,0-1.5c94.1,0,188.2,0,282.2,0c0.2,0.7,0.2,0.7,0.1,1.5C188.4,4.3,94.3,4.3,0.2,4.3z"/>
			<path d="M56.1,29.7c0.7-0.6,1.1-0.5,1.5-0.5c3.4,0,6.8,0,10.3,0.1c0.5,0,0.9,0,1.4,0.1c2.7,0.4,4.3,2,4.6,4.6
				c0.3,2.2-0.8,4.7-3.2,5.8c-0.5,0.2-1.1,0.4-1.8,0.7c2.1,3.7,3.8,7.6,7.3,10.8c-2.5,0.3-4.6,0.1-6.8,0.2c-2.2-3.2-3.7-6.7-5.2-10
				c-0.4-0.2-0.7-0.2-1-0.1c-0.4,0.5-0.5,6.4-0.1,8.3c0.3,0.7,1.2,0.7,1.3,1.5c-1.1,0.5-6.6,0.5-8.1,0.1c0-0.8,1-0.8,1.1-1.2
				c0.4-0.9,0.3-1.7,0.3-2.5c0-4.7,0-9.4,0-14.2C57.9,31.9,58.1,30.4,56.1,29.7z M63,39c2.8,0.4,4.2-0.1,4.9-1.5
				c0.8-1.5,0.6-4.4-0.3-5.4c-1-1.1-2.7-1.4-4.6-0.7C63,33.9,63,36.4,63,39z"/>
			<path d="M195.5,51.3c-1.3,0.3-2.3,0.2-3.5,0.1c-3.5-5.6-7.1-11.3-10.7-17c-0.4,0.4-0.3,0.8-0.3,1.2c0,4,0,8,0,12
				c0,1.4,0.2,2.6,1.6,3.3c0.1,0,0,0.2,0.1,0.5c-2,0.2-4,0.1-6.1,0c-0.1-1.1,0.9-1,1.1-1.3c0.5-0.9,0.5-1.6,0.5-2.3
				c0-5.6-0.1-11.2-0.2-16.8c-0.3-0.6-1.1-0.7-1.5-1.6c1.3-0.3,2.5-0.1,3.7-0.1c1.2,0,2.4,0,3.6,0c2.8,4.5,5.7,9,8.5,13.4
				c0.3-0.1,0.2-0.4,0.3-0.6c0-3.2,0-6.5,0-9.7c0-0.9-0.2-1.8-1.1-2.3c-0.2-0.1-0.4-0.3-0.3-0.8c1.9-0.1,3.8,0,5.9,0
				c-0.1,1-1.1,0.9-1.5,1.6C195.5,37.6,195.5,44.4,195.5,51.3z"/>
			<path d="M77.4,29.3c2.3,0,4.7,0,7.2,0c2.8,4.4,5.6,8.8,8.4,13.2c0.6-1.4,0.6-9.2,0.1-11.5c-0.2-0.7-1-0.7-1.2-1.4
				c1-0.5,4.2-0.6,5.8-0.1c-1.4,1.8-1.4,1.8-1.4,4.6c0,5.2,0,10.4,0,15.6c0,0.5,0,1,0,1.6c-1.2,0.3-2.3,0.2-3.5,0.1
				c-3.5-5.6-7.1-11.3-10.7-17c-0.1,0-0.2,0.1-0.2,0.1c0,5.1,0,10.2,0,14.9c0.4,1,1.2,1,1.5,1.7c-0.9,0.6-4.3,0.7-6.1,0.2
				c0.1-0.8,1-0.8,1.3-1.8c0.3-1.2,0.3-17,0-18.6C78.3,30.1,77.3,30.2,77.4,29.3z"/>
			<path d="M33.6,39.9c0.1,2-0.2,3.8-0.8,5.5c-1.2,3.3-3.4,5.3-6.9,5.9c-1.7,0.3-3.5,0.4-5.3,0c-3.5-0.7-5.9-2.9-6.8-6.4
				c-0.9-3.6-0.9-7.2,0.6-10.7c1.1-2.6,2.9-4.4,5.7-5c2.3-0.5,4.6-0.6,6.8,0c3.5,0.9,5.4,3.4,6.2,6.8C33.5,37.3,33.7,38.7,33.6,39.9
				z M28.1,40.2c0-2.2-0.1-4.4-0.8-6.4c-0.6-1.8-1.9-2.7-3.7-2.8c-1.8-0.1-3.1,0.8-3.9,2.5c-0.3,0.6-0.5,1.3-0.6,2
				c-0.4,2.1-0.5,4.2-0.3,6.3c0.1,1.8,0.3,3.6,1.1,5.3c0.8,1.5,2,2.3,3.7,2.2c2-0.1,3.4-1.3,4-3.6C28.1,44,28.2,42.1,28.1,40.2z"/>
			<path d="M232.2,49.8c0.3,0.6,1.2,0.6,1.2,1.6c-2,0.2-4,0.1-6.1,0.1c0-1,0.9-1,1.1-1.5c0.5-0.7,0.5-1.4,0.5-2.1c0-5,0-10,0-15.1
				c0-0.6,0.1-1.3-0.3-2c-0.2-0.6-1.1-0.6-1.3-1.5c1.2-0.2,2.4-0.1,3.6-0.1c1.2,0,2.4,0,3.6,0c2.9,4.5,5.8,9,8.8,13.9
				c0-4.4,0.2-8.3-0.2-12.3c-0.3-0.6-1.1-0.6-1.3-1.2c1-0.5,4.6-0.6,6.1-0.1c0,0.8-0.9,0.7-1.2,1.2c-0.4,1-0.5,2.1-0.5,3.1
				c0,5.3,0,10.5,0,15.8c0,0.6,0.2,1.2-0.3,1.8c-1,0.1-2,0.2-3.2-0.2c-3.5-5.7-7.1-11.4-10.8-17.2C231.6,35.8,231.7,48,232.2,49.8z"
				/>
			<path d="M47.9,29.3c2.3,0,4.6,0,6.9,0c0.1,0.2,0.1,0.4,0,0.5c-1.3,0.7-1.5,1.8-1.5,3.1c0.1,3,0,6,0,9c0,1.2-0.1,2.3-0.2,3.5
				c-0.4,3.2-2.1,5.1-5.1,5.8c-2.6,0.6-5.3,0.7-7.9-0.2c-3-1-4.2-2.8-4.5-5.9c-0.3-4-0.2-8-0.2-12c0-0.8,0.1-1.5-0.3-2.5
				c-0.1-0.5-1.1-0.4-1.2-1.2c1.2-0.4,6.9-0.4,8.3,0c-0.1,0.7-0.9,0.7-1.2,1.2c-0.4,0.8-0.4,1.7-0.4,2.6c0,3.7,0,7.3,0,11
				c0,0.7,0.1,1.4,0.2,2.1c0.3,1.6,1,2.4,2.6,2.7c0.6,0.1,1.2,0.2,1.8,0.2c2.7-0.1,3.9-1.2,4-3.9c0.1-4.3,0-8.6,0-12.9
				c0-1.2-0.3-2.2-1.7-2.7C47.7,29.6,47.8,29.4,47.9,29.3z"/>
			<path d="M111.8,49.5c-0.5-2.1-1.1-4.2-1.6-6.4c-2,0-4,0-6.2,0c-0.6,2.1-1.4,4.2-1.6,6.2c0.2,1,1,1.1,1.1,1.8
				c-1.2,0.5-4.2,0.5-5.8,0.1c0-0.1-0.1-0.3,0-0.3c1.8-2.6,2.4-5.6,3.3-8.5c1.3-4,2.5-8,3.8-12c0.1-0.2,0.2-0.4,0.4-0.8
				c1.9-0.3,3.9-0.6,6.1-0.9c1,3.5,2,6.9,3,10.3c0.8,2.9,1.7,5.9,2.5,8.8c0.3,0.9,0.7,1.8,1.3,2.5c0.2,0.3,0.5,0.5,0.3,1.1
				c-1.2,0.2-2.5,0.1-3.7,0.1c-1.2,0-2.5,0-3.6,0C110.4,50.4,111.5,50.4,111.8,49.5z M104.6,40.7c1.7,0.2,3.3,0.3,4.9-0.1
				c-0.8-2.9-1.5-5.6-2.2-8.3C106,34.9,105.4,37.7,104.6,40.7z"/>
			<path d="M169.6,41.3c-1.3-0.3-2.5-0.5-3.8-0.2c0,2.7,0,5.3,0,8.1c2.9,0.3,5.6,0.6,7.7-2c0.4-0.5,0.8-1.1,1.7-0.9
				c0,1.7-0.5,3.3-0.8,5c-5.2,0-10.3,0-15.4,0c-0.1-1,0.9-0.9,1.1-1.4c0.5-0.8,0.5-1.5,0.5-2.3c0-5,0-9.9,0-14.9
				c0-0.7-0.1-1.4-0.5-2.2c-0.3-0.3-0.8-0.7-1.2-1c0.3-0.6,0.7-0.5,1.1-0.5c4.4,0,8.7,0,13.1,0.1c0.3,0,0.7,0,0.9,0.1
				c0.3,0.3,0.3,0.6,0.3,0.9c0,1.2,0,2.5,0,3.6c-0.7,0.5-1.1,0.1-1.5-0.3c-0.7-0.8-1.2-1.8-2.3-2.1c-1.5-0.3-3-0.2-4.6-0.1
				c0,2.5,0,5,0,7.5c1.2,0,2.5,0,3.4,0c1.2-0.4,1.5-1.5,2.5-1.7c0.2,0,0.3,0,0.6,0.1c0,1.9,0,3.8,0,5.7
				C171.3,42.8,171.3,42.8,169.6,41.3z"/>
			<path d="M256.3,38.8c1.1,0.3,2.2,0.2,3.3,0.1c0.7,0,1.1-0.5,1.6-1c0.4-0.4,0.7-1,1.6-0.7c0,1.9,0,3.8,0,5.7
				c-0.8,0.3-1.2-0.2-1.6-0.6c-1.4-1.5-3.1-1.3-5-1.1c0,2.7,0,5.3,0,8.1c2.7,0.1,5.4,0.7,7.5-1.8c0.4-0.5,0.8-1.4,1.9-1
				c0.2,1.7-0.6,3.2-0.7,4.8c-1.4,0.4-13.8,0.4-15.4,0.1c-0.1-0.9,1.1-0.9,1.3-1.6c0.2-6.3,0.3-12.6,0-18.9
				c-0.3-0.6-1.1-0.6-1.3-1.4c1.6-0.5,3.2-0.1,4.8-0.2c1.7-0.1,3.4,0,5.1,0c1.6,0,3.3,0,5.1,0c0.2,1.7,0.2,3.2,0,4.7
				c-0.7,0.3-1-0.1-1.3-0.5c-1.2-2-3-2.4-5.2-2.2c-0.6,0.1-1.2-0.1-1.9,0.2C256.3,33.8,256.3,36.2,256.3,38.8z"/>
			<path d="M143.6,51c-0.1-1.6-0.1-3.1,0-4.5c0.5-0.4,0.9-0.1,1.2,0.2c0.4,0.4,0.8,0.8,1.2,1.3c1.3,1.4,2.9,1.7,4.7,1.5
				c2.9-0.4,3.3-3.4,2-4.9c-0.6-0.7-1.3-1.2-2.1-1.6c-1.5-1-3.1-1.9-4.6-3c-1.7-1.4-2.4-3.1-2.3-5.3c0.2-2.4,1.4-3.9,3.5-4.9
				c1-0.5,2.1-0.7,3.2-0.7c2.3,0,4.6-0.1,6.8,0.6c0.4,1.7,0.3,3.3-0.1,4.5c-0.5,0.1-0.8-0.3-1.2-0.6c-0.6-0.6-1.2-1.1-1.9-1.6
				c-1.1-0.9-2.4-1-3.7-0.6c-1.1,0.3-1.8,1-2,2c-0.2,1,0.1,2,0.9,2.7c0.5,0.4,1,0.7,1.5,1c1.4,0.9,2.9,1.7,4.2,2.6
				c2.5,1.6,3.4,4,2.9,6.8c-0.4,2.4-2.1,4.6-5.4,5.1C149.7,51.8,146.7,51.8,143.6,51z"/>
			<path d="M5.2,56.1C6,55.4,6,54.7,6,53.9c0-7.1,0-14.1,0-21.2c0-0.7-0.1-1.3-0.4-1.9c-0.3-0.6-1-0.6-1.2-1.2
				c0.9-0.5,6.1-0.6,8.2-0.2c0.1,0.8-0.9,0.8-1.1,1.2c-0.4,1-0.3,1.8-0.3,2.6c0,5.6,0,11.2,0,16.8c0,0.9-0.1,1.9-0.3,2.8
				c-0.5,2.5-2,4.1-4.5,4.7c-2,0.5-3.9,0.8-5.7-0.4c-0.8-2.4,0-3.5,2.4-3.2C3.9,54.4,4,55.7,5.2,56.1z"/>
			<path d="M213.3,31.4c-0.9-0.3-2-0.6-3.1-0.1c-0.4,2.1-0.3,17.1,0.1,18.5c0.3,0.7,1.4,0.5,1.6,1.4c-1,0.5-6,0.6-9.1,0.3
				c-0.1-1.1,1.2-0.8,1.4-1.2c0.5-0.8,0.6-1.5,0.6-2.2c0-5.3,0-10.6,0-15.9c0-0.2-0.1-0.4-0.1-0.6c-2.4-0.6-3.2-0.3-4.6,1.5
				c-0.3,0.4-0.5,1.1-1.2,1.2c-0.5-1-0.6-1.9-0.3-4.6c1.2-0.4,15.2-0.5,17.5-0.1c0.3,1.5,0.2,3,0.1,4.7
				C214.6,33.6,214.5,32.1,213.3,31.4z"/>
			<path d="M134.9,46.3c-0.1,1.8-0.6,3.4-0.9,5.1c-4.8,0-9.6,0-14.5,0c0.5-0.9,0.5-0.9,1.2-1.5c0.4-0.8,0.5-1.7,0.5-2.6
				c0-4.7,0-9.4,0-14.2c0-0.8,0-1.5-0.4-2.3c-0.2-0.6-1.2-0.6-1.2-1.5c2.9,0,5.8,0,8.8,0c-0.1,1-1.4,0.8-1.7,1.6
				c-0.4,1.5-0.5,16-0.1,18.3c2.2,0.3,4.4,0.3,6.1-1.6C133.2,47,133.7,46.3,134.9,46.3z"/>
			<path d="M266.9,51.2c0.2-0.9,1.1-0.8,1.4-1.5c0.5-1.7,0.5-17.5,0-18.8c-0.3-0.8-1.2-0.8-1.4-1.5c1.3-0.3,7.5-0.3,8.9,0
				c0.1,0.5-0.3,0.6-0.6,0.7c-1.1,0.4-1.5,1.3-1.5,2.4c0,2.1,0,4.1,0,6.2c0,3.1,0,6.3,0,9.4c0,0.4,0,0.7,0.2,1.1
				c2.3,0.4,4.6,0.3,6.3-1.8c0.5-0.6,1-1.4,2.1-1.1c-0.2,1.7-0.6,3.3-1,4.9C280,51.5,268.5,51.5,266.9,51.2z"/>
			<path d="M225.9,29.7c-0.4,0.3-0.8,0.6-1.1,0.9c-0.4,0.8-0.5,1.6-0.5,2.3c0,5,0,9.9,0,14.9c0,0.7,0,1.3,0.4,1.9
				c0.2,0.6,1.2,0.5,1.3,1.3c-1,0.5-6.3,0.6-8.3,0.1c0-0.8,0.9-0.8,1.2-1.5c0.4-1.5,0.5-16.8,0-18.9c-0.3-0.6-1-0.6-1.2-1.2
				c0-0.4,0.2-0.4,0.5-0.4c2.3,0,4.6-0.1,6.9-0.1C225.4,29.1,225.9,29,225.9,29.7z"/>
			<path d="M12.6,13.5c0.6-0.3,1.1-0.2,1.7,0c0.4,1.3,0.1,2.8,0.2,4.2c0,1.4,0,2.8,0,4.1c-0.4,0.6-0.7,0.4-1.2,0.4c0-2,0-4,0-5.9
				c-1.5,1.8-1.9,4.1-3.1,5.9c-0.8,0.2-1-0.4-1.2-0.9c-0.7-1.7-1.4-3.4-2.2-5.3c-0.6,2.2,0,4.2-0.3,6c-0.3,0.4-0.6,0.3-0.9,0.2
				c-0.4-0.4-0.5-6-0.1-8.6c0.5-0.3,1-0.2,1.7-0.1c0.8,1.9,1.7,3.9,2.7,6.2C11,17.4,11.6,15.3,12.6,13.5z"/>
			<path d="M160.2,13.4c0.5-0.1,0.8-0.2,1.2,0.1c-0.6,2.8-1.6,5.5-2.3,8.3c-0.4,0.4-0.8,0.4-1.3,0.2c-0.9-1.9-1.2-4.1-2.1-6.2
				c-0.7,1-0.8,2.1-1.2,3.1c-0.4,1-0.5,2.2-1,3.1c-0.4,0.2-0.8,0.3-1.3-0.1c-0.8-2.7-1.6-5.5-2.4-8.2c0.5-0.5,0.8-0.3,1.2-0.2
				c0.6,2,1.2,4,1.7,6.1c0.1,0,0.2,0,0.3,0c0.6-2,1.2-4,1.8-5.9c0.5-0.3,0.9-0.3,1.4-0.1c0.9,1.9,1.2,4,2.1,6.4
				C159,17.5,159.6,15.5,160.2,13.4z"/>
			<path d="M49.3,21.9c-0.5,0.2-0.8,0.2-1.4,0c-0.8-2.7-1.6-5.5-2.4-8.2c0.3-0.5,0.7-0.3,1.1-0.4c0.9,2,1.1,4.2,2.1,6.5
				c0.7-2.3,1.3-4.3,1.9-6.3c0.6-0.3,0.9-0.3,1.4-0.1c0.8,1.9,1.2,4,2,6.3c0.9-2.2,1.2-4.3,1.9-6.2c0.4-0.3,0.8-0.2,1.3-0.1
				c-0.8,2.9-1.6,5.7-2.4,8.3c-0.5,0.4-0.8,0.4-1.3,0.2c-0.9-1.9-1.2-4.2-2.1-6.5C50.4,17.6,50.2,19.8,49.3,21.9z"/>
			<path d="M273.8,20c0.4-2.4-0.1-4.5,0.3-6.5c0.4-0.3,0.6-0.3,0.9-0.1c0.4,1.3,0.4,6.8,0.1,8.6c-0.1,0-0.3,0.1-0.5,0.1
				c-0.3,0-0.6,0-0.9,0c-1.5-2.2-3-4.3-4.5-6.5c-0.1,0-0.2,0.1-0.3,0.1c0,2.1,0,4.2,0,6.1c-0.5,0.4-0.8,0.3-1.2,0.2
				c0-2.8,0-5.6,0-8.4c0.5-0.4,1.1-0.3,1.7-0.1C270.8,15.5,272.2,17.6,273.8,20z"/>
			<path d="M218,17.6c0,2.7-1.8,4.6-4.5,4.6c-2.7,0-4.7-1.9-4.7-4.6c0-2.6,2-4.6,4.6-4.6C216.1,13,218,14.9,218,17.6z M216.7,17.7
				c0-2-1.3-3.4-3.2-3.5c-1.9,0-3.3,1.4-3.3,3.4c0,1.9,1.4,3.3,3.1,3.4C215.2,21.1,216.6,19.7,216.7,17.7z"/>
			<path d="M227.9,21.7c-0.5,0.4-0.7,0.4-1,0.3c-0.4-0.4-0.5-6.3-0.1-8.5c0.4-0.3,0.9-0.2,1.5-0.1c1.4,2.1,2.9,4.3,4.4,6.4
				c0.1,0,0.2,0,0.3-0.1c0-2.1,0-4.2,0-6.1c0.5-0.4,0.7-0.4,1.1-0.1c0,2.7,0,5.5,0,8.3c-0.5,0.4-0.9,0.3-1.5,0.1
				c-1.4-2.1-2.9-4.2-4.4-6.4c-0.1,0-0.2,0-0.3,0.1C227.9,17.7,227.9,19.7,227.9,21.7z"/>
			<path d="M116.9,14.3c-1.3,0.4-2.6,0-4,0.3c-0.3,0.7-0.2,1.4-0.1,2.2c1.3,0.4,2.5,0,3.7,0.3c0.3,0.3,0.4,0.6,0.1,1.1
				c-1.2,0.4-2.5,0-3.8,0.3c-0.2,0.8-0.2,1.5-0.1,2.3c1.5,0.4,3-0.1,4.3,0.3c0.3,0.4,0.3,0.6,0.1,1.1c-1.8,0.1-3.6,0-5.4,0
				c-0.4-1.3-0.5-6.6-0.1-8.7c1.7-0.2,3.4-0.1,5.1-0.1C117,13.6,117,13.9,116.9,14.3z"/>
			<path d="M131.3,13.3c0.2,0.4,0.2,0.6,0.1,0.9c-1.2,0.4-2.6,0-4,0.3c-0.3,0.7-0.2,1.4-0.1,2.3c1.3,0,2.5,0,3.6,0
				c0.4,0.5,0.4,0.8,0.1,1.2c-1.1,0.3-2.3,0-3.5,0.2c-0.4,0.7-0.3,1.5-0.2,2.3c1.5,0.4,3-0.1,4.4,0.3c0.2,0.3,0.2,0.6,0,1
				c-1.8,0-3.7,0-5.6,0c-0.4-1.4-0.1-2.8-0.2-4.2c0-1.4,0-2.8,0-4.5C127.7,13.2,129.5,13.3,131.3,13.3z"/>
			<path d="M97.9,18c-0.3,1.5,0,2.7-0.3,3.9c-0.3,0.3-0.6,0.2-0.9,0.2c-0.4-0.4-0.4-6.1-0.1-8.5c0.3-0.3,0.6-0.2,1,0
				c0.4,1-0.1,2.1,0.3,3.2c1.4-0.9,2.3-2.2,3.5-3.2c0.5-0.2,1-0.2,1.6,0c-1.1,1.5-2.6,2.4-3.8,3.9c1.4,1.5,2.8,3,4.2,4.5
				c-0.7,0.4-1.2,0.2-1.7,0.1C100.5,20.7,99.2,19.4,97.9,18z"/>
			<path d="M71.4,22.1c-0.4-0.8-0.7-1.4-0.9-2c-1.3-0.3-2.6-0.1-3.9-0.1c-0.7,0.5-0.6,1.4-1.2,1.9c-0.3,0.2-0.7,0.2-1.3-0.1
				c1.2-2.7,2.4-5.5,3.6-8.2c0.4-0.3,0.8-0.4,1.4-0.1c1.1,2.7,2.3,5.5,3.5,8.2C72.3,22.3,71.8,21.9,71.4,22.1z M66.8,18.7
				c1.2,0.1,2,0.2,3-0.1c-0.4-1.2-0.7-2.3-1.5-3.4C67.8,16.5,67.3,17.5,66.8,18.7z"/>
			<path d="M86.3,13.5c0.3-0.3,0.7-0.3,1.1,0c0,1.9,0.1,3.9,0,5.9c-0.2,1.8-1.5,2.8-3.3,2.8c-1.8,0-3.1-0.9-3.4-2.7
				c-0.3-2-0.1-4-0.1-5.8c0.4-0.5,0.7-0.4,1.1-0.3c0.4,1.2,0.1,2.3,0.2,3.5c0,0.8,0,1.5,0.1,2.3c0.2,1.2,1,1.8,2,1.9
				c1.1,0,2-0.7,2.1-1.9c0.1-1.2,0-2.4,0.1-3.5C86.2,14.9,86,14.2,86.3,13.5z"/>
			<path d="M247.2,19.8c-0.1-0.9-0.7-1.1-1.3-1.3c-0.5-0.2-1.1-0.4-1.6-0.6c-0.9-0.5-1.2-1.2-1.2-2.2c0-1,0.5-1.7,1.3-2.2
				c1.3-0.7,2.8-0.5,4,0.6c0,0.4-0.3,0.6-0.8,0.8c-0.8-0.4-1.7-0.8-2.7-0.2c-0.5,0.5-0.5,1-0.2,1.6c0.5,0.6,1.3,0.7,2,1
				c1.5,0.6,2.2,1.4,2,2.7c-0.2,1.4-1.2,2.2-2.7,2.3c-1.4,0.1-1.9-0.1-3-1.1c0-0.4,0.3-0.6,0.7-0.8c0.7,0.4,1.5,1,2.5,0.6
				C246.7,20.8,247.1,20.4,247.2,19.8z"/>
			<path d="M179.3,21.1c0.2-0.4,0.4-0.6,0.9-0.8c0.7,0.3,1.5,1,2.5,0.6c0.5-0.2,0.9-0.5,1.1-1.1c0-0.8-0.5-1.1-1.2-1.4
				c-0.6-0.2-1.1-0.4-1.6-0.6c-1.1-0.5-1.6-1.5-1.4-2.6c0.2-1.1,0.8-1.8,1.9-2.1c1.3-0.4,2.2-0.1,3.4,0.8c0.1,0.4-0.3,0.6-0.6,0.9
				c-0.7-0.3-1.5-0.8-2.4-0.5c-0.5,0.2-0.8,0.5-0.9,1.1c0,0.7,0.5,1.1,1.1,1.4c0.5,0.2,1.1,0.4,1.7,0.6c1.1,0.5,1.6,1.2,1.5,2.3
				c-0.1,1.1-0.6,2-1.7,2.3C182,22.4,180.5,22.5,179.3,21.1z"/>
			<path d="M182.8,66.8c-0.4,0.1-0.6,0.1-0.9-0.1c0-1.7,0-3.5,0-5.3c0.5-0.4,0.8-0.1,1.2,0.2c1.1-0.6,2.3-0.8,3.4,0.2
				c0.5-0.2,0.9-0.5,1.3-0.6c1.4-0.4,2.5,0.4,2.6,1.8c0.1,1.2,0.2,2.5,0,3.6c-0.3,0.3-0.6,0.3-0.9,0.1c-0.5-1.3,0.2-2.8-0.4-4.1
				c-1.5-0.6-2.1-0.3-2.3,1.2c-0.1,1,0.2,2-0.2,2.9c-0.3,0.1-0.5,0.1-0.8,0c-0.6-1.3,0.4-3-0.7-4.3c-1.5-0.1-1.7,0.1-2,1.3
				C182.8,64.7,183.2,65.7,182.8,66.8z"/>
			<path d="M200.1,20.1c0.4,0.2,0.7,0.3,0.7,0.6c0,0.5-1,1.2-2,1.4c-2.3,0.5-4.4-0.6-5.2-2.6c-0.9-2.1-0.2-4.5,1.5-5.7
				c1.9-1.3,4-1.1,5.6,0.5c0,0.4-0.4,0.5-0.7,0.7c-2.5-1.1-3.8-0.9-4.9,0.6c-0.9,1.3-0.8,3.3,0.3,4.4
				C196.7,21.3,198.1,21.4,200.1,20.1z"/>
			<path d="M154.9,64.6c-1.5,0-2.8,0-4.2,0c0.6,1.7,1.2,1.8,3.3,0.8c0.2,0.1,0.4,0.2,0.5,0.5c-0.1,0.7-1.3,1.3-2.5,1.2
				c-1.7-0.1-2.9-1.5-2.8-3.2c0.1-1.7,1.4-2.8,3.1-2.8C154.1,61.1,154.8,62.1,154.9,64.6z M153.7,63.4c-0.1-0.9-0.6-1.3-1.4-1.3
				c-0.9,0-1.4,0.3-1.7,1.3C151.7,63.7,152.6,63.6,153.7,63.4z"/>
			<path d="M178.2,64.1c0,1.7-1.4,3-3,3c-1.7,0-3-1.3-3-3c0-1.7,1.3-3,3-3C176.9,61.1,178.2,62.4,178.2,64.1z M176.9,64.1
				c0-1.1-0.6-1.9-1.6-1.9c-1.1-0.1-1.9,0.7-1.9,1.8c0,1.1,0.8,2,1.8,1.9C176.2,66,176.9,65.3,176.9,64.1z"/>
			<path d="M114.4,67.1c-1.6,0-3.1-1.4-3.1-3c0-1.7,1.4-3,3.1-3c1.7,0,3,1.3,3,3C117.4,65.8,116.1,67.1,114.4,67.1z M116.2,64.2
				c0-1.1-0.7-2-1.8-2c-1,0-1.7,0.7-1.7,1.8c0,1.1,0.7,2,1.8,2C115.4,66,116.2,65.2,116.2,64.2z"/>
			<path d="M107.7,62c-0.6,1.4-2.1-0.7-2.7,0.9c0.3,0.6,0.9,0.6,1.5,0.8c1.1,0.4,1.6,1,1.5,1.9c-0.1,0.8-0.8,1.4-1.9,1.6
				c-1,0.1-1.9,0-2.5-0.9c-0.1-0.4,0.2-0.5,0.5-0.7c0.5-0.1,0.9,0.5,1.2,0.5c0.7,0.1,1-0.2,1.2-0.4c0.1-0.3,0-0.5-0.2-0.7
				c-0.7-0.5-1.7-0.4-2.4-1.1c-0.4-1.4-0.3-1.8,0.5-2.3C105.5,60.9,106.6,61,107.7,62z"/>
			<path d="M35.2,20.6c1.3,0.4,2.6,0,3.7,0.3c0.4,0.4,0.3,0.7,0.1,1.1c-1.6,0-3.2,0-4.9,0c0-2.9,0-5.7,0-8.4c0.2-0.3,0.5-0.3,1-0.2
				C35.3,15.7,35,18.2,35.2,20.6z"/>
			<path d="M144.2,62.6c-1.5-0.6-2.3-0.3-2.4,1.1c-0.1,0.9,0,1.9,0,2.6c-0.3,0.6-0.6,0.6-1.1,0.4c-0.1-1.7-0.1-3.5,0-5.5
				c1,0.3,1.9,0,2.8-0.1c1.2-0.2,2.1,0.6,2.2,1.8c0.1,1.3,0.1,2.6,0,3.7c-0.3,0.3-0.5,0.2-0.8,0.2C144.2,65.5,144.9,64,144.2,62.6z"
				/>
			<path d="M121.3,61.3c0.5-0.2,0.8-0.1,1.1,0.3c0.4-0.1,0.8-0.4,1.3-0.4c1.4-0.2,2.4,0.5,2.5,2c0.1,1.2,0,2.3,0,3.3
				c-0.3,0.5-0.6,0.4-0.9,0.3c-0.6-1.4,0.5-3.2-0.7-4.4c-0.7-0.3-1.2-0.2-1.7,0.2c-1,1.2-0.2,2.7-0.6,4c-0.2,0.3-0.4,0.3-0.7,0.2
				C121,66.6,120.9,63.6,121.3,61.3z"/>
			<path d="M169,62c-0.1,0.4-0.3,0.5-0.5,0.6c-1.9-0.5-2.7-0.3-3.1,0.8c-0.4,1.2,0.1,2,1.7,2.6c0.4-0.1,0.9-0.3,1.4-0.5
				c0.3,0.1,0.5,0.3,0.6,0.6c-1.4,1.2-3,1.2-4.2,0c-1-1.1-1-3.1,0-4.2C165.9,60.8,167.5,60.8,169,62z"/>
			<path d="M131.4,66.6c-0.6,0.3-0.8,0.3-1.2,0c-0.1-2.8,0-5.7,0-8.4c0.4-0.4,0.7-0.4,1.2-0.1C131.4,60.9,131.4,63.8,131.4,66.6z"/>
			<path d="M24.7,21.9c-0.4,0.3-0.7,0.2-1.1,0c0-2.7,0-5.5,0-8.3c0.3-0.4,0.7-0.3,1.1-0.2C24.7,16.2,24.7,19.1,24.7,21.9z"/>
			<path d="M257.3,13.4c0.5-0.1,0.8-0.2,1.1,0.1c0,2.7,0,5.5,0,8.2c-0.4,0.4-0.7,0.3-1.1,0.1C257.3,19.1,257.3,16.3,257.3,13.4z"/>
			<path d="M170.6,22c-0.2,0.1-0.4,0.1-0.7,0c-0.4-1.3-0.5-6.7-0.1-8.5c0.3-0.2,0.5-0.1,0.8-0.1C170.9,15,170.9,20.6,170.6,22z"/>
			<path d="M135.5,61.5c0.3-0.3,0.5-0.3,1-0.1c0.2,1.7,0,3.5,0.1,5.2c-0.4,0.4-0.7,0.4-1.1,0.1C135.5,65,135.5,63.3,135.5,61.5z"/>
			<path d="M140.3,17.9c0.2-0.3,0.4-0.5,0.6-0.8c0.2-0.2,0.4-0.4,0.8-0.4c0.5,0.2,0.7,0.5,0.9,1c0,0.7-0.4,1.1-1,1.3
				C140.9,19,140.7,18.5,140.3,17.9z"/>
		</g>
		<circle cx="159.5" cy="66.2" r="0.6"/>
		<circle cx="136.1" cy="60" r="0.6"/>
		<circle cx="99.4" cy="60" r="0.6"/>
	</g>
</g>
<g id="Layer_1">
</g>
</svg>
