<?xml version="1.0" encoding="utf-8"?>
<!-- Generator: Adobe Illustrator 18.0.0, SVG Export Plug-In . SVG Version: 6.00 Build 0)  -->
<!DOCTYPE svg PUBLIC "-//W3C//DTD SVG 1.1//EN" "http://www.w3.org/Graphics/SVG/1.1/DTD/svg11.dtd">
<svg version="1.1" xmlns="http://www.w3.org/2000/svg" xmlns:xlink="http://www.w3.org/1999/xlink" x="0px" y="0px"
	 viewBox="0 0 300 100" style="enable-background:new 0 0 300 100;" xml:space="preserve">
<style type="text/css">
	.st0{fill-rule:evenodd;clip-rule:evenodd;}
	.st1{fill-rule:evenodd;clip-rule:evenodd;fill:#C038F9;}
	.st2{fill:none;}
	.st3{fill-rule:evenodd;clip-rule:evenodd;fill:#231F20;}
</style>
<g id="Layer_2">
	<g>
		<path d="M43.3,28.7c1.6-0.5,3.2-0.9,4.9-1.4c0.7,0.5,1.4,0.9,2.1,1.4c-0.8,1.4-0.6,2.2,0.8,2.6c1,0.3,2.1,0.3,3.1,0.2
			c0.4,0,1.1-0.7,1.1-1c0-0.5-0.5-1.2-0.9-1.3c-1.5-0.4-2.5-1.6-3.6-2.5c2-0.6,4-1.3,6-1.8c0.4-0.1,1-0.1,1.4,0
			c18.4,5.3,36.8,10.5,55.2,15.8c0.2,0,0.3,0.1,0.7,0.3c-5.2,1.5-10.2,3-15.3,4.5c-1.2,0.3-2.4,0.7-3.7,1
			c-7.6,2.2-15.2,4.4-22.8,6.5c-4.5,1.3-8.9,2.6-13.4,3.8c-0.7,0.2-1.5,0.2-2.1,0C38.7,51.7,20.6,46.5,2.6,41.3
			c-0.3-0.1-0.5-0.2-0.9-0.4c3.6-1.1,7-2.1,10.4-3.1c0.1,0,0.2,0,0.3-0.1c2.3-0.6,4.6-1.3,6.8-1.9c0.7,0.5,1.3,0.9,2,1.4
			c-0.9,1.3-0.8,2,0.5,2.4c1,0.3,2.2,0.3,3.3,0.3c0.4,0,1.1-0.6,1.1-1c0-0.5-0.5-1.2-0.9-1.3c-1.5-0.4-2.4-1.6-3.5-2.5
			c1.5-0.5,3.1-1,4.6-1.5c0.7,0.5,1.4,1,2.2,1.5c-0.9,1.3-0.7,2.1,0.5,2.4c1,0.3,2.2,0.4,3.2,0.3c0.5,0,1.2-0.6,1.2-1.1
			c0-0.4-0.5-1.2-1-1.3c-1.5-0.4-2.4-1.6-3.5-2.5c1.5-0.5,3.1-1,4.6-1.5c0.7,0.5,1.5,0.9,2.2,1.4c-0.8,1.3-0.7,2.1,0.5,2.5
			c1.1,0.3,2.2,0.3,3.4,0.3c0.4,0,1.1-0.6,1.1-1c0-0.4-0.5-1.1-0.9-1.2c-1.6-0.4-2.5-1.7-3.8-2.6c1.6-0.5,3.2-1,4.8-1.4
			c0.7,0.5,1.5,0.9,2.2,1.4c-0.8,1.3-0.8,2,0.4,2.4c1.1,0.3,2.3,0.4,3.5,0.3c0.4,0,1.1-0.6,1.1-1c0-0.4-0.5-1.1-0.9-1.2
			C45.5,30.9,44.6,29.6,43.3,28.7z"/>
		<path d="M92.4,50.5c0,6.9,0,13.6,0,20.3c0,0.4-0.5,1-0.9,1.2c-3.8,2.3-8,3.6-12.2,4.6c-10.7,2.6-21.6,3.1-32.5,1.8
			c-7.2-0.9-14.1-2.6-20.4-6.3c-0.8-0.5-1.1-1-1.1-1.9c0-6.5,0-13.1,0-19.8c2.2,0.6,4.3,1.2,6.4,1.9c8.4,2.5,16.7,4.9,25.1,7.3
			c0.5,0.2,1.2,0.2,1.7,0c10.9-2.9,21.8-5.9,32.8-8.9C91.5,50.7,91.9,50.6,92.4,50.5z"/>
		<path d="M208,43.6c-1.5,5-2.8,9.6-4.2,14.3c-1.9,6.7-3.9,13.4-5.8,20.1c-1,3.5-3.4,5.4-6.7,5.4c-3.5,0-6-1.8-7-5.4
			c-3.7-12.4-7.4-24.7-11-37.1c-0.5-1.6-1.1-2.4-2.8-2.7c-0.9-0.1-2.2-0.6-2.6-1.3c-0.6-0.9-0.9-2.3-0.8-3.5
			c0.2-1.4,1.5-2.1,2.8-2.1c5.2-0.1,10.5-0.1,15.7,0c1.5,0,2.7,0.8,3,2.4c0.3,1.7-0.4,3.3-2.1,4c-0.9,0.4-2,0.6-3.2,1
			c2.8,11.1,5.5,22.2,8.3,33.3c0.1,0,0.2,0,0.3,0c0.7-2.4,1.4-4.8,2.1-7.2c2.6-9.3,5.2-18.5,7.8-27.8c1-3.6,3.8-5.8,7-5.8
			c3.3,0,5.8,2.2,6.8,5.8c3,11.4,6,22.7,9,34.1c0.1,0.3,0.2,0.6,0.7,1c3.1-11.1,6.3-22.3,9.4-33.5c-0.9-0.2-1.7-0.4-2.4-0.6
			c-1.8-0.6-2.8-2.3-2.6-4.1c0.2-1.7,1.5-2.6,3.6-2.6c4.4,0,8.8,0,13.1,0c2.2,0,3.5,1,3.7,2.8c0.2,1.8-1,3.8-3,4
			c-2.5,0.2-3.3,1.6-4,3.8c-3.9,12.2-8,24.4-12,36.6c-1.1,3.3-3.8,5.1-7.4,5c-3-0.1-5.3-2.2-6.3-5.6c-3-10.7-5.9-21.5-8.9-32.2
			C208.5,45,208.3,44.5,208,43.6z"/>
		<path d="M290.5,75.3c0.9,0.2,1.8,0.3,2.6,0.5c2.1,0.4,3.3,1.8,3.2,3.7c-0.1,1.8-1.4,2.9-3.4,3.1c-2.6,0.2-5.2,0.6-7.8,0.7
			c-3.3,0.2-4.5-1-4.5-4.3c0-0.3,0-0.7,0-0.8c-2.4,1.4-4.6,3.2-7.1,4.1c-4.8,1.8-9.7,1.5-14.3-0.6c-5.5-2.5-8.5-8.7-7.9-15.3
			c0.9-9.7,7-13,14.3-14c4.8-0.7,9.7-0.7,14.7-1.1c0-3.1,0.4-6.5-0.8-9.8c-0.8-2.3-2.4-3.8-4.8-4.2c-1.6-0.2-3.3-0.3-4.9-0.3
			c-2.1,0-3.2,1.2-3.8,3.3c-0.9,3.4-3.9,5.1-6.9,4.3c-1.9-0.5-3-1.8-3.1-3.8c-0.2-3.7,1.3-6.6,4.7-8.1c2.3-1.1,4.9-1.9,7.4-2.2
			c3.3-0.4,6.8-0.5,10.2-0.2c8.3,0.9,12.2,5.2,12.3,13.6c0.2,9.7,0.1,19.4,0.1,29.2C290.5,73.9,290.5,74.5,290.5,75.3z M280.2,58.2
			c-2.2,0-4.1-0.1-5.9,0c-3,0.2-6,0.5-8.7,2.2c-2.9,1.8-3.9,4.6-3.6,7.8c0.3,3.4,2.2,5.7,5.6,6.6c4.2,1,8.1,0,11.9-1.9
			c0.3-0.1,0.7-0.6,0.7-0.9C280.2,67.4,280.2,62.7,280.2,58.2z"/>
		<path d="M130.9,57.2c-0.1,4.4,0.4,8.6,2.7,12.3c2,3.2,5,4.7,8.6,5.1c4.4,0.5,8.6-0.1,12.6-2.1c2.3-1.2,3.7-1,4.7,0.3
			c1.2,1.5,0.9,3.5-0.8,5.2c-2.4,2.4-5.4,3.7-8.6,4.5c-5,1.3-10.1,1.2-15.1-0.1c-6.9-1.8-11.3-6.3-13.3-13
			c-2.5-8.4-2.3-16.9,0.6-25.2c4-11.1,13.5-15,23.7-13.9c11.1,1.1,15.4,9.1,16.4,17.7c0.2,1.3,0.3,2.5,0.3,3.8
			c0,3.6-1.8,5.4-5.4,5.4c-8.1,0-16.2,0-24.3,0C132.3,57.2,131.6,57.2,130.9,57.2z M130.4,51.1c7.4-0.5,14.2-0.9,21.3-1.3
			c-0.4-2.1-0.5-4-1-5.8c-1.1-4.1-3.7-6.4-8-6.8c-4.1-0.4-7.9,1.4-9.6,5.1C131.9,44.9,131.4,47.9,130.4,51.1z"/>
		<path d="M95,46.5c1.2-0.3,2.4-0.7,3.7-1c0.8,4.8,1.6,9.6,2.2,14.4c1,7.6,1.7,15.2,2.6,22.8c0.2,1.5,0,2.1-1.5,2.3
			c-1.8,0.3-3.7,0.3-5.6,0.2c-0.9,0-1.4-0.6-1.4-1.7c0-6.4-0.1-12.7-0.1-19.1C95,58.5,95,52.5,95,46.5z"/>
		<path d="M12.3,37.7c-0.1,0-0.2,0-0.3,0.1c-0.8-0.8-1.3-1.8-0.8-2.9c0.5-1.1,1.6-1.4,2.7-1.6c2.8-0.4,5.3,0.6,7.7,1.8
			c1.1,0.9,2,2.1,3.5,2.5c0.4,0.1,0.9,0.9,0.9,1.3c0,0.3-0.7,1-1.1,1c-1.1,0.1-2.2,0-3.3-0.3c-1.3-0.4-1.4-1.2-0.5-2.4
			c-0.7-0.5-1.3-0.9-2-1.4c-0.5-0.2-0.9-0.5-1.4-0.7C15.3,34.2,12.9,34.2,12.3,37.7z"/>
		<path d="M43.3,28.7c1.2,0.9,2.1,2.2,3.7,2.6c0.4,0.1,0.9,0.8,0.9,1.2c0,0.4-0.7,1-1.1,1c-1.2,0-2.4,0-3.5-0.3
			c-1.2-0.4-1.2-1.1-0.4-2.4c-0.7-0.5-1.4-0.9-2.2-1.4c-1-0.3-2-0.8-3-1c-1-0.2-2-0.2-2.4,1.1c-0.8-0.3-1.6-0.6-2.7-1
			c1-0.6,1.6-1.1,2.4-1.3c2.6-0.7,5,0.1,7.4,1.1C42.7,28.4,43,28.6,43.3,28.7z"/>
		<path d="M50.7,26.6c1.2,0.9,2.1,2.1,3.6,2.5c0.4,0.1,0.9,0.8,0.9,1.3c0,0.3-0.7,0.9-1.1,1c-1,0.1-2.1,0.1-3.1-0.2
			c-1.4-0.4-1.6-1.1-0.8-2.6c-0.7-0.4-1.4-0.9-2.1-1.4c-1.2-0.3-2.4-0.8-3.7-1c-0.6-0.1-1.3,0.4-2,0.7c0,0.1,0.1,0.2,0.1,0.3
			c-0.7-0.3-1.5-0.5-2.3-0.8c0.8-1.4,2.1-1.6,3.4-1.7C46.2,24.6,48.5,25.5,50.7,26.6z"/>
		<path d="M36,30.8c1.2,0.9,2.2,2.2,3.8,2.6c0.4,0.1,0.9,0.8,0.9,1.2c0,0.4-0.7,1-1.1,1c-1.1,0.1-2.3,0.1-3.4-0.3
			c-1.2-0.4-1.3-1.1-0.5-2.5c-0.7-0.5-1.5-0.9-2.2-1.4c-0.9-0.3-1.8-0.8-2.7-1c-1.1-0.2-2.2-0.2-2.7,1c-0.8-0.3-1.5-0.5-2.3-0.8
			c0.8-1.5,2.2-1.7,3.6-1.7C31.7,28.9,33.9,29.7,36,30.8z"/>
		<path d="M28.9,33c1.1,0.9,2,2.1,3.5,2.5c0.4,0.1,1,0.9,1,1.3c-0.1,0.4-0.8,1-1.2,1.1c-1.1,0.1-2.2,0-3.2-0.3
			c-1.2-0.4-1.4-1.2-0.5-2.4c-0.7-0.5-1.4-1-2.2-1.5c-0.9-0.3-1.8-0.8-2.8-1c-1.1-0.3-2.2-0.1-2.8,1c-0.7-0.3-1.4-0.5-2.2-0.7
			c0.3-1.2,1.3-1.4,2.2-1.6c2.4-0.5,4.6,0.1,6.7,1.1C28,32.5,28.4,32.8,28.9,33z"/>
	</g>
</g>
<g id="Layer_1">
</g>
</svg>
