<?xml version="1.0" encoding="utf-8"?>
<!-- Generator: Adobe Illustrator 18.0.0, SVG Export Plug-In . SVG Version: 6.00 Build 0)  -->
<!DOCTYPE svg PUBLIC "-//W3C//DTD SVG 1.1//EN" "http://www.w3.org/Graphics/SVG/1.1/DTD/svg11.dtd">
<svg version="1.1" xmlns="http://www.w3.org/2000/svg" xmlns:xlink="http://www.w3.org/1999/xlink" x="0px" y="0px"
	 viewBox="0 0 300 78.7" style="enable-background:new 0 0 300 78.7;" xml:space="preserve">
<style type="text/css">
	.st0{fill-rule:evenodd;clip-rule:evenodd;}
	.st1{fill-rule:evenodd;clip-rule:evenodd;fill:#C038F9;}
	.st2{fill:none;}
	.st3{fill-rule:evenodd;clip-rule:evenodd;fill:#231F20;}
</style>
<g id="Layer_2">
</g>
<g id="Layer_1">
	<g>
		<path d="M15.3,20.4l7.5,37.5l15.5,0l4.2-14.3l4.3,14.3h15.3l3.1-15C67.9,58.7,84,59.4,88.6,59.4c4.7,0,12.2-1.1,18.8-5v3.6l26.8,0
			c7.6,0,9.9-2.4,11.6-5.9l0,5.9l16.1,0l0-13.2l7.6,0l0,13.2l15.7,0l0-37.4l-15.7,0l0,13.4l-7.6,0l0-13.4l-16.2,0v6.9
			c-1.5-4.5-4.5-6.9-12.2-6.9l-26.1,0l0,5.5c-2.2-2.6-7.7-6.7-19.5-6.7c-11.8,0-16,2.9-20.4,8.9l1.4-7.8l-12.7,0l-3.4,13.6
			l-3.2-13.6l-13.7,0l-3.5,13.8l-3.1-13.9L15.3,20.4z M32,3.5l14,0l1.5,6.9l7.2-7l12.8,0l1.7,7l7.1-7l13.3,0l-1.5,5.9
			c5.6-4.6,10-7.3,19.3-7.4c9.3,0,13.6,2.8,17.3,6.6l5.3-5.1l20.9,0c6,0,7.9,4.3,7.9,7.5l7.7-7.4l14.4,0v7.1l7.2-7.1l14.1,0l0,38.4
			l-34,33.2l-15.8,0l0-7.2l-7.5,7.2l-15.7,0v-6.6c-4.4,6-8.4,6.6-13.6,6.6l-24.1,0l0-4.6c-2.1,1.6-10.1,5.6-20.9,5.6
			c-10.9,0-16.8-3.4-19.7-7.9l-7.2,6.7l-13.1,0l-1.8-6.7l-7,6.8L8,75.3L0,34.8L32,3.5z"/>
		<path d="M93.5,32l14,0l0,4.1l-19,0l0,7.4l4.8,0c0,0,0,2,0,4.1c0,2.1-1.2,3.6-4.7,3.6c-3.4,0-4.7-2.6-4.7-3.8
			c0-1.2,0.1-14,0.1-15.5c0-1.5,1.1-3.9,4.7-3.9C92.4,27.9,93.5,29.8,93.5,32"/>
		<path d="M122.3,28.7v6.2c0,0,3.1,0.1,5,0.1c1.9,0,3.4-1.1,3.4-3.1c0-2-1.3-3.2-3.4-3.2C125.2,28.7,122.3,28.7,122.3,28.7"/>
		<path d="M122.3,43.7l0,6.3c0,0,3.4,0.1,5.3,0.1c1.9,0,3.5-1.1,3.4-3.1c0-2-1.3-3.3-3.4-3.3C125.4,43.7,122.3,43.7,122.3,43.7"/>
		<path d="M145.8,34.7v10c-1.3-4-4.2-4.7-6.2-5.4C141.6,39.1,144.7,37.4,145.8,34.7"/>
	</g>
</g>
</svg>
