<?xml version="1.0" encoding="utf-8"?>
<!-- Generator: Adobe Illustrator 18.0.0, SVG Export Plug-In . SVG Version: 6.00 Build 0)  -->
<!DOCTYPE svg PUBLIC "-//W3C//DTD SVG 1.1//EN" "http://www.w3.org/Graphics/SVG/1.1/DTD/svg11.dtd">
<svg version="1.1" xmlns="http://www.w3.org/2000/svg" xmlns:xlink="http://www.w3.org/1999/xlink" x="0px" y="0px"
	 viewBox="0 0 300 57.7" style="enable-background:new 0 0 300 57.7;" xml:space="preserve">
<style type="text/css">
	.st0{fill-rule:evenodd;clip-rule:evenodd;}
	.st1{fill-rule:evenodd;clip-rule:evenodd;fill:#C038F9;}
	.st2{fill:none;}
	.st3{fill-rule:evenodd;clip-rule:evenodd;fill:#231F20;}
</style>
<g id="Layer_2">
	<g>
		<g>
			<g>
				<path d="M1.9,44.9C3,44,4.4,43.6,6,43.6c0.8,0,2,0.2,2.7,0.4C8.9,44,9,44.1,9.1,44c0,0.3,0.1,1.3,0.2,2.2
					c-0.1,0.1-0.3,0.1-0.4,0c-0.2-1-0.9-2.2-3.1-2.2c-2.3,0-4.3,1.5-4.3,4.6c0,3.2,2,5,4.5,5c2,0,2.8-1.3,3.2-2.2
					c0.1-0.1,0.3,0,0.4,0.1c-0.1,0.8-0.5,1.8-0.7,2.1c-0.2,0-0.4,0.1-0.5,0.2c-0.3,0.1-1.4,0.3-2.4,0.3c-1.4,0-2.7-0.3-3.8-1
					C0.9,52.3,0,50.9,0,48.9C0,47.2,0.8,45.8,1.9,44.9z"/>
				<path d="M11.6,46.1c0-1.6,0-1.8-0.9-1.9l-0.2,0c-0.1-0.1-0.1-0.3,0-0.4c0.7,0,1.2,0,1.8,0h2.9c1,0,1.9,0,2.1,0
					c0.1,0.3,0.2,1.4,0.2,2c-0.1,0.1-0.3,0.1-0.4,0c-0.2-0.7-0.4-1.2-1.2-1.4c-0.3-0.1-0.8-0.1-1.5-0.1h-1.1c-0.5,0-0.5,0-0.5,0.6v3
					c0,0.4,0,0.4,0.5,0.4h0.9c0.6,0,1.1,0,1.3-0.1c0.2-0.1,0.3-0.2,0.4-0.5l0.1-0.6c0.1-0.1,0.3-0.1,0.4,0c0,0.4-0.1,1-0.1,1.5
					c0,0.5,0.1,1.1,0.1,1.5c-0.1,0.1-0.3,0.1-0.4,0l-0.1-0.6c-0.1-0.3-0.2-0.5-0.5-0.6c-0.2-0.1-0.6-0.1-1.2-0.1h-0.9
					c-0.5,0-0.5,0-0.5,0.4v2.1c0,0.8,0,1.3,0.3,1.6c0.2,0.2,0.5,0.3,1.8,0.3c1.2,0,1.6-0.1,1.9-0.2c0.3-0.2,0.7-0.7,1.1-1.5
					c0.1-0.1,0.3,0,0.4,0.1c-0.1,0.5-0.5,1.7-0.7,2.1c-1.4,0-2.7,0-4.1,0h-1.4c-0.7,0-1.2,0-2.1,0c-0.1,0-0.1-0.3,0-0.4l0.5,0
					c0.9-0.1,0.9-0.3,0.9-1.9V46.1z"/>
				<path d="M28.3,51.3c0,0.5,0,2.3,0,2.7c0,0.1-0.1,0.2-0.3,0.2c-0.2-0.3-0.6-0.8-1.9-2.3l-3.5-4c-0.4-0.5-1.4-1.7-1.8-2.1h0
					c-0.1,0.2-0.1,0.5-0.1,1v3.3c0,0.7,0,2.7,0.3,3.1c0.1,0.2,0.4,0.3,0.8,0.3l0.5,0c0.1,0.1,0.1,0.3,0,0.4c-0.7,0-1.2,0-1.8,0
					c-0.6,0-1,0-1.6,0c-0.1-0.1-0.1-0.3,0-0.4l0.4,0c0.3,0,0.6-0.1,0.7-0.3c0.2-0.5,0.2-2.4,0.2-3.1v-4.4c0-0.4,0-0.7-0.3-1.1
					c-0.2-0.2-0.6-0.3-0.9-0.4l-0.3,0c-0.1-0.1-0.1-0.3,0-0.4c0.6,0,1.4,0,1.7,0c0.2,0,0.5,0,0.7,0c0.3,0.8,2.1,2.8,2.6,3.3l1.5,1.7
					c1,1.2,1.8,2,2.5,2.8h0c0.1-0.1,0.1-0.3,0.1-0.6v-3.3c0-0.7,0-2.7-0.3-3.1c-0.1-0.1-0.3-0.2-0.9-0.3l-0.3,0
					c-0.1-0.1-0.1-0.3,0-0.4c0.7,0,1.2,0,1.8,0c0.7,0,1,0,1.6,0c0.1,0.1,0.1,0.3,0,0.4l-0.2,0c-0.5,0.1-0.8,0.2-0.9,0.3
					c-0.3,0.5-0.2,2.4-0.2,3.1V51.3z"/>
				<path d="M35.4,51.6c0,1.6,0,1.8,0.9,1.9l0.5,0c0.1,0.1,0.1,0.3,0,0.4c-0.9,0-1.4,0-2,0s-1.1,0-2.1,0c-0.1,0-0.1-0.3,0-0.4l0.5,0
					c0.9-0.1,0.9-0.3,0.9-1.9v-6.8c0-0.5,0-0.5-0.5-0.5h-0.8c-0.7,0-1.5,0-1.9,0.4c-0.4,0.3-0.5,0.7-0.7,1c-0.1,0.1-0.3,0-0.4-0.1
					c0.2-0.7,0.5-1.7,0.6-2.3c0,0,0.2,0,0.3,0c0.1,0.5,0.6,0.5,1.3,0.5h6.2c0.8,0,1,0,1.2-0.4c0.1,0,0.2,0,0.3,0
					c-0.2,0.6-0.3,1.9-0.2,2.3c-0.1,0.1-0.3,0.1-0.4,0c0-0.4-0.2-0.9-0.4-1.1c-0.3-0.3-0.9-0.4-1.8-0.4h-1.1c-0.5,0-0.4,0-0.4,0.5
					V51.6z"/>
				<path d="M41.4,46.1c0-1.6,0-1.8-0.9-1.9l-0.2,0c-0.1-0.1-0.1-0.3,0-0.4c0.7,0,1.2,0,1.8,0H45c1,0,1.9,0,2.1,0
					c0.1,0.3,0.2,1.4,0.2,2c-0.1,0.1-0.3,0.1-0.4,0c-0.2-0.7-0.4-1.2-1.2-1.4c-0.3-0.1-0.8-0.1-1.5-0.1h-1.1c-0.5,0-0.5,0-0.5,0.6v3
					c0,0.4,0,0.4,0.5,0.4h0.9c0.6,0,1.1,0,1.3-0.1c0.2-0.1,0.3-0.2,0.4-0.5l0.1-0.6c0.1-0.1,0.3-0.1,0.4,0c0,0.4-0.1,1-0.1,1.5
					c0,0.5,0.1,1.1,0.1,1.5c-0.1,0.1-0.3,0.1-0.4,0l-0.1-0.6c-0.1-0.3-0.2-0.5-0.5-0.6c-0.2-0.1-0.6-0.1-1.2-0.1h-0.9
					c-0.5,0-0.5,0-0.5,0.4v2.1c0,0.8,0,1.3,0.3,1.6c0.2,0.2,0.5,0.3,1.8,0.3c1.2,0,1.6-0.1,1.9-0.2c0.3-0.2,0.7-0.7,1.1-1.5
					c0.1-0.1,0.3,0,0.4,0.1c-0.1,0.5-0.5,1.7-0.7,2.1c-1.4,0-2.7,0-4.1,0h-1.4c-0.7,0-1.2,0-2.1,0c-0.1,0-0.1-0.3,0-0.4l0.5,0
					c0.9-0.1,0.9-0.3,0.9-1.9V46.1z"/>
				<path d="M50,46.2c0-1.4,0-1.7-0.7-1.8l-0.5-0.1c-0.1-0.1-0.1-0.3,0-0.4c0.9-0.1,1.9-0.1,3.4-0.1c0.9,0,1.8,0.1,2.5,0.5
					c0.7,0.4,1.3,1.1,1.3,2.1c0,1.4-1.1,2.2-1.9,2.5c-0.1,0.1,0,0.2,0.1,0.4c1.2,2,2,3.2,3.1,4c0.3,0.2,0.6,0.4,1,0.4
					c0.1,0,0.1,0.2,0,0.2c-0.1,0-0.4,0.1-0.7,0.1c-1.3,0-2.1-0.4-3.1-1.9c-0.4-0.6-1-1.6-1.5-2.3c-0.2-0.3-0.5-0.5-1.1-0.5
					c-0.7,0-0.7,0-0.7,0.3v1.9c0,1.6,0,1.8,0.9,1.9l0.3,0c0.1,0.1,0.1,0.3,0,0.4c-0.7,0-1.2,0-1.8,0c-0.6,0-1.2,0-1.9,0
					c-0.1,0-0.1-0.3,0-0.4l0.4,0c0.9-0.1,0.9-0.3,0.9-1.9V46.2z M51.3,48.3c0,0.3,0,0.4,0,0.5c0,0,0.3,0.1,1,0.1
					c0.5,0,1.1-0.1,1.6-0.4c0.4-0.3,0.8-0.9,0.8-1.9c0-1.2-0.7-2.3-2.4-2.3c-0.9,0-1,0.1-1,0.5V48.3z"/>
				<path d="M79.4,48.5c-0.3,0-0.3,0-0.3,0.4v3.2c0,1.1,0,1.3,0.6,1.3l0.5,0c0.1,0.1,0.1,0.3,0,0.4c-0.7,0-1.1,0-1.7,0
					c-0.5,0-1,0-1.5,0c-0.1,0-0.1-0.3,0-0.4l0.3,0c0.6-0.1,0.6-0.2,0.6-1.3V49c0-0.4,0-0.4-0.3-0.4h-0.5c-0.1-0.1-0.1-0.2,0-0.3
					l0.7-0.3c0.1-0.1,0.2-0.2,0.2-0.3c0-0.9,0.1-1.8,0.5-2.7c0.4-0.9,1.2-1.9,2.7-1.9c0.8,0,1.5,0.4,1.5,0.9c0,0.3-0.3,0.5-0.6,0.5
					c-0.2,0-0.3-0.1-0.4-0.2c-0.3-0.3-0.7-0.7-1.2-0.7c-0.5,0-0.9,0.3-1.1,0.8c-0.3,0.7-0.3,1.8-0.3,2.6v0.4c0,0.4,0,0.4,0.3,0.4
					h1.7c0.2,0.2,0.1,0.6-0.1,0.6H79.4z"/>
				<path d="M87.8,50.8c0,1.9-1.3,3.3-3.2,3.3c-1.7,0-3.1-1.2-3.1-3.1c0-1.9,1.4-3.3,3.2-3.3C86.4,47.7,87.8,49,87.8,50.8z
					 M84.6,48.1c-1,0-1.7,1-1.7,2.6c0,1.4,0.6,2.9,2,2.9c1.3,0,1.7-1.4,1.7-2.6C86.5,49.8,86,48.1,84.6,48.1z"/>
				<path d="M89.9,49.5c0-0.6,0-0.7-0.4-0.9l-0.1-0.1c-0.1-0.1-0.1-0.2,0-0.3c0.3-0.1,1.2-0.5,1.5-0.7c0.1,0,0.1,0,0.1,0.1v0.9
					c0,0.1,0,0.1,0,0.1c0.5-0.4,1.1-0.9,1.7-0.9c0.4,0,0.7,0.2,0.7,0.6c0,0.5-0.4,0.7-0.7,0.7c-0.2,0-0.2,0-0.3-0.1
					c-0.2-0.2-0.5-0.2-0.7-0.2c-0.2,0-0.4,0.1-0.5,0.3C91,49.2,91,49.6,91,50.1v2.1c0,1.1,0,1.3,0.6,1.3l0.5,0
					c0.1,0.1,0.1,0.3,0,0.4c-0.7,0-1.2,0-1.7,0c-0.5,0-1,0-1.4,0c-0.1,0-0.1-0.3,0-0.4l0.3,0c0.6-0.1,0.6-0.2,0.6-1.3V49.5z"/>
				<path d="M97.8,46.2c0-1.6,0-1.9-0.9-1.9l-0.4,0c-0.1-0.1-0.1-0.3,0-0.4c0.8,0,1.3,0,1.9,0c0.6,0,1.1,0,1.9,0
					c0.1,0,0.1,0.3,0,0.4l-0.4,0C99,44.3,99,44.6,99,46.2v5.4c0,1.6,0,1.8,0.9,1.9l0.4,0c0.1,0.1,0.1,0.3,0,0.4c-0.8,0-1.3,0-1.9,0
					c-0.6,0-1.2,0-1.9,0c-0.1,0-0.1-0.3,0-0.4l0.4,0c0.9-0.1,0.9-0.3,0.9-1.9V46.2z"/>
				<path d="M110.6,51.3c0,0.5,0,2.3,0,2.7c0,0.1-0.1,0.2-0.3,0.2c-0.2-0.3-0.6-0.8-1.9-2.3l-3.5-4c-0.4-0.5-1.4-1.7-1.8-2.1h0
					c-0.1,0.2-0.1,0.5-0.1,1v3.3c0,0.7,0,2.7,0.3,3.1c0.1,0.2,0.4,0.3,0.8,0.3l0.5,0c0.1,0.1,0.1,0.3,0,0.4c-0.7,0-1.2,0-1.8,0
					c-0.6,0-1,0-1.6,0c-0.1-0.1-0.1-0.3,0-0.4l0.4,0c0.3,0,0.6-0.1,0.7-0.3c0.2-0.5,0.2-2.4,0.2-3.1v-4.4c0-0.4,0-0.7-0.3-1.1
					c-0.2-0.2-0.6-0.3-0.9-0.4l-0.3,0c-0.1-0.1-0.1-0.3,0-0.4c0.6,0,1.4,0,1.7,0c0.2,0,0.5,0,0.7,0c0.3,0.8,2.1,2.8,2.6,3.3l1.5,1.7
					c1,1.2,1.8,2,2.5,2.8h0c0.1-0.1,0.1-0.3,0.1-0.6v-3.3c0-0.7,0-2.7-0.3-3.1c-0.1-0.1-0.3-0.2-0.9-0.3l-0.3,0
					c-0.1-0.1-0.1-0.3,0-0.4c0.7,0,1.2,0,1.8,0c0.7,0,1,0,1.6,0c0.1,0.1,0.1,0.3,0,0.4l-0.2,0c-0.5,0.1-0.8,0.2-0.9,0.3
					c-0.3,0.5-0.2,2.4-0.2,3.1V51.3z"/>
				<path d="M113.5,45.5c-0.3-0.9-0.6-1.2-1.2-1.2l-0.3,0c-0.1-0.1-0.1-0.3,0-0.4c0.4,0,0.9,0,1.6,0c0.7,0,1.2,0,1.8,0
					c0.1,0.1,0.1,0.3,0,0.4l-0.2,0c-0.6,0.1-0.7,0.2-0.7,0.3c0,0.2,0.3,1,0.8,2.1c0.7,1.8,1.4,3.5,2.2,5.2c0.5-1,1.1-2.6,1.5-3.4
					c0.5-1,1.2-2.8,1.4-3.4c0.1-0.3,0.1-0.5,0.1-0.6c0-0.1-0.2-0.2-0.7-0.3l-0.3,0c-0.1-0.1-0.1-0.3,0-0.4c0.4,0,1,0,1.6,0
					c0.5,0,1,0,1.5,0c0.1,0.1,0.1,0.3,0,0.4l-0.5,0c-0.4,0-0.6,0.2-0.8,0.5c-0.4,0.7-1,1.9-1.7,3.5l-0.8,1.9c-0.6,1.4-1.3,3.2-1.6,4
					c0,0-0.1,0-0.2,0c-0.1,0-0.2,0-0.2,0c-0.2-0.6-0.4-1.4-0.7-2L113.5,45.5z"/>
				<path d="M123.4,46.1c0-1.6,0-1.8-0.9-1.9l-0.2,0c-0.1-0.1-0.1-0.3,0-0.4c0.7,0,1.2,0,1.8,0h2.9c1,0,1.9,0,2.1,0
					c0.1,0.3,0.2,1.4,0.2,2c-0.1,0.1-0.3,0.1-0.4,0c-0.2-0.7-0.4-1.2-1.2-1.4c-0.3-0.1-0.8-0.1-1.5-0.1h-1.1c-0.5,0-0.5,0-0.5,0.6v3
					c0,0.4,0,0.4,0.5,0.4h0.9c0.6,0,1.1,0,1.3-0.1c0.2-0.1,0.3-0.2,0.4-0.5l0.1-0.6c0.1-0.1,0.3-0.1,0.4,0c0,0.4-0.1,1-0.1,1.5
					c0,0.5,0.1,1.1,0.1,1.5c-0.1,0.1-0.3,0.1-0.4,0l-0.1-0.6c-0.1-0.3-0.2-0.5-0.5-0.6c-0.2-0.1-0.6-0.1-1.2-0.1h-0.9
					c-0.5,0-0.5,0-0.5,0.4v2.1c0,0.8,0,1.3,0.3,1.6c0.2,0.2,0.5,0.3,1.8,0.3c1.2,0,1.6-0.1,1.9-0.2c0.3-0.2,0.7-0.7,1.1-1.5
					c0.1-0.1,0.3,0,0.4,0.1c-0.1,0.5-0.5,1.7-0.7,2.1c-1.4,0-2.7,0-4.1,0h-1.4c-0.7,0-1.2,0-2.1,0c-0.1,0-0.1-0.3,0-0.4l0.5,0
					c0.9-0.1,0.9-0.3,0.9-1.9V46.1z"/>
				<path d="M133.3,54.1c-1.3,0-2.1-0.4-2.4-0.6c-0.2-0.3-0.4-1.4-0.4-2.1c0.1-0.1,0.3-0.1,0.4,0c0.2,0.8,0.9,2.3,2.6,2.3
					c1.3,0,1.9-0.8,1.9-1.7c0-0.7-0.1-1.4-1.2-2.1l-1.4-0.9c-0.8-0.5-1.6-1.4-1.6-2.6c0-1.4,1.1-2.6,3.1-2.6c0.5,0,1,0.1,1.4,0.2
					c0.2,0,0.4,0.1,0.5,0.1c0.1,0.4,0.3,1.2,0.3,1.9c-0.1,0.1-0.3,0.1-0.4,0c-0.2-0.7-0.6-1.7-2.1-1.7c-1.5,0-1.8,1-1.8,1.7
					c0,0.9,0.7,1.5,1.3,1.9l1.2,0.8c1,0.6,1.9,1.5,1.9,2.9C136.5,53,135.3,54.1,133.3,54.1z"/>
				<path d="M142.2,51.6c0,1.6,0,1.8,0.9,1.9l0.5,0c0.1,0.1,0.1,0.3,0,0.4c-0.9,0-1.4,0-2,0s-1.1,0-2.1,0c-0.1,0-0.1-0.3,0-0.4
					l0.5,0c0.9-0.1,0.9-0.3,0.9-1.9v-6.8c0-0.5,0-0.5-0.5-0.5h-0.8c-0.7,0-1.5,0-1.9,0.4c-0.4,0.3-0.5,0.7-0.7,1
					c-0.1,0.1-0.3,0-0.4-0.1c0.2-0.7,0.5-1.7,0.6-2.3c0,0,0.2,0,0.3,0c0.1,0.5,0.6,0.5,1.3,0.5h6.2c0.8,0,1,0,1.2-0.4
					c0.1,0,0.2,0,0.3,0c-0.2,0.6-0.3,1.9-0.2,2.3c-0.1,0.1-0.3,0.1-0.4,0c0-0.4-0.2-0.9-0.4-1.1c-0.3-0.3-0.9-0.4-1.8-0.4h-1.1
					c-0.5,0-0.4,0-0.4,0.5V51.6z"/>
				<path d="M148.1,46.2c0-1.6,0-1.9-0.9-1.9l-0.4,0c-0.1-0.1-0.1-0.3,0-0.4c0.8,0,1.3,0,1.9,0c0.6,0,1.1,0,1.9,0
					c0.1,0,0.1,0.3,0,0.4l-0.4,0c-0.9,0.1-0.9,0.3-0.9,1.9v5.4c0,1.6,0,1.8,0.9,1.9l0.4,0c0.1,0.1,0.1,0.3,0,0.4c-0.8,0-1.3,0-1.9,0
					c-0.6,0-1.2,0-1.9,0c-0.1,0-0.1-0.3,0-0.4l0.4,0c0.9-0.1,0.9-0.3,0.9-1.9V46.2z"/>
				<path d="M160.7,52.3c0,0.6,0.1,1,0.4,1.1c0,0,0,0.1,0,0.2c-0.2,0-0.5,0.1-0.7,0.1c-0.8,0.2-1.9,0.4-2.7,0.4
					c-1.8,0-3.5-0.5-4.6-1.7c-0.9-0.9-1.4-2.1-1.4-3.4c0-1.3,0.4-2.6,1.4-3.6c1-1.1,2.5-1.8,4.8-1.8c0.9,0,1.7,0.2,1.9,0.2
					c0.3,0.1,0.8,0.2,0.9,0.1c0,0.5,0.1,1.3,0.2,2.2c0,0.1-0.3,0.1-0.4,0c-0.4-1.6-1.6-2.2-3.1-2.2c-2.9,0-4.2,2.1-4.2,4.4
					c0,2.9,1.5,5.2,4.6,5.2c0.9,0,1.5-0.2,1.7-0.5c0.1-0.1,0.2-0.4,0.2-0.9v-0.6c0-1.3,0-1.4-1-1.5l-0.7-0.1c-0.1-0.1-0.1-0.3,0-0.4
					c0.4,0,1.3,0,2.2,0c0.6,0,1.1,0,1.6,0c0.1,0.1,0.1,0.3,0,0.4l-0.2,0c-0.6,0.1-0.7,0.5-0.7,1.3V52.3z"/>
				<path d="M167.9,50.4c-0.1-0.3-0.2-0.4-0.6-0.4H165c-0.4,0-0.5,0-0.6,0.4l-0.5,1.6c-0.2,0.7-0.3,1.1-0.3,1.3
					c0,0.2,0.1,0.3,0.4,0.3l0.5,0c0.1,0.1,0.1,0.3,0,0.4c-0.4,0-0.9,0-1.6,0c-0.5,0-1,0-1.5,0c-0.1-0.1-0.1-0.3,0-0.4l0.5,0
					c0.4,0,0.7-0.2,0.9-0.7c0.3-0.7,0.7-1.7,1.3-3.4l1.6-4.1c0.2-0.5,0.3-0.8,0.3-1.1c0.4-0.1,0.6-0.4,0.8-0.6c0.1,0,0.2,0,0.2,0.1
					c0.2,0.7,0.4,1.4,0.7,2l2.1,6.1c0.4,1.3,0.6,1.5,1.3,1.6l0.4,0c0.1,0.1,0.1,0.3,0,0.4c-0.6,0-1.2,0-1.8,0c-0.7,0-1.3,0-1.7,0
					c-0.1-0.1-0.1-0.3,0-0.4l0.4,0c0.3,0,0.5-0.1,0.5-0.3c0-0.2-0.1-0.4-0.2-0.8L167.9,50.4z M164.9,49c-0.1,0.3-0.1,0.4,0.3,0.4
					h1.9c0.4,0,0.5-0.1,0.3-0.5l-0.8-2.5c-0.1-0.4-0.3-0.8-0.3-1h0c0,0.1-0.2,0.4-0.4,0.9L164.9,49z"/>
				<path d="M175,51.6c0,1.6,0,1.8,0.9,1.9l0.5,0c0.1,0.1,0.1,0.3,0,0.4c-0.9,0-1.4,0-2,0s-1.1,0-2.1,0c-0.1,0-0.1-0.3,0-0.4l0.5,0
					c0.9-0.1,0.9-0.3,0.9-1.9v-6.8c0-0.5,0-0.5-0.5-0.5h-0.8c-0.7,0-1.5,0-1.9,0.4c-0.4,0.3-0.5,0.7-0.7,1c-0.1,0.1-0.3,0-0.4-0.1
					c0.2-0.7,0.5-1.7,0.6-2.3c0,0,0.2,0,0.3,0c0.1,0.5,0.6,0.5,1.3,0.5h6.2c0.8,0,1,0,1.2-0.4c0.1,0,0.2,0,0.3,0
					c-0.2,0.6-0.3,1.9-0.2,2.3c-0.1,0.1-0.3,0.1-0.4,0c0-0.4-0.2-0.9-0.4-1.1c-0.3-0.3-0.9-0.4-1.8-0.4h-1.1c-0.5,0-0.4,0-0.4,0.5
					V51.6z"/>
				<path d="M180.9,46.2c0-1.6,0-1.9-0.9-1.9l-0.4,0c-0.1-0.1-0.1-0.3,0-0.4c0.8,0,1.3,0,1.9,0c0.6,0,1.1,0,1.9,0
					c0.1,0,0.1,0.3,0,0.4l-0.4,0c-0.9,0.1-0.9,0.3-0.9,1.9v5.4c0,1.6,0,1.8,0.9,1.9l0.4,0c0.1,0.1,0.1,0.3,0,0.4c-0.8,0-1.3,0-1.9,0
					c-0.6,0-1.2,0-1.9,0c-0.1,0-0.1-0.3,0-0.4l0.4,0c0.9-0.1,0.9-0.3,0.9-1.9V46.2z"/>
				<path d="M185.3,45.5c-0.3-0.9-0.6-1.2-1.2-1.2l-0.3,0c-0.1-0.1-0.1-0.3,0-0.4c0.4,0,0.9,0,1.6,0c0.7,0,1.2,0,1.8,0
					c0.1,0.1,0.1,0.3,0,0.4l-0.2,0c-0.6,0.1-0.7,0.2-0.7,0.3c0,0.2,0.3,1,0.8,2.1c0.7,1.8,1.4,3.5,2.2,5.2c0.5-1,1.1-2.6,1.5-3.4
					c0.5-1,1.2-2.8,1.4-3.4c0.1-0.3,0.1-0.5,0.1-0.6c0-0.1-0.2-0.2-0.7-0.3l-0.3,0c-0.1-0.1-0.1-0.3,0-0.4c0.4,0,1,0,1.6,0
					c0.5,0,1,0,1.5,0c0.1,0.1,0.1,0.3,0,0.4l-0.5,0c-0.4,0-0.6,0.2-0.8,0.5c-0.4,0.7-1,1.9-1.7,3.5l-0.8,1.9c-0.6,1.4-1.3,3.2-1.6,4
					c0,0-0.1,0-0.2,0c-0.1,0-0.2,0-0.2,0c-0.2-0.6-0.4-1.4-0.7-2L185.3,45.5z"/>
				<path d="M195.7,46.1c0-1.6,0-1.8-0.9-1.9l-0.2,0c-0.1-0.1-0.1-0.3,0-0.4c0.7,0,1.2,0,1.8,0h2.9c1,0,1.9,0,2.1,0
					c0.1,0.3,0.2,1.4,0.2,2c-0.1,0.1-0.3,0.1-0.4,0c-0.2-0.7-0.4-1.2-1.2-1.4c-0.3-0.1-0.8-0.1-1.5-0.1h-1.1c-0.5,0-0.5,0-0.5,0.6v3
					c0,0.4,0,0.4,0.5,0.4h0.9c0.6,0,1.1,0,1.3-0.1c0.2-0.1,0.3-0.2,0.4-0.5l0.1-0.6c0.1-0.1,0.3-0.1,0.4,0c0,0.4-0.1,1-0.1,1.5
					c0,0.5,0.1,1.1,0.1,1.5c-0.1,0.1-0.3,0.1-0.4,0l-0.1-0.6c-0.1-0.3-0.2-0.5-0.5-0.6c-0.2-0.1-0.6-0.1-1.2-0.1h-0.9
					c-0.5,0-0.5,0-0.5,0.4v2.1c0,0.8,0,1.3,0.3,1.6c0.2,0.2,0.5,0.3,1.8,0.3c1.2,0,1.6-0.1,1.9-0.2c0.3-0.2,0.7-0.7,1.1-1.5
					c0.1-0.1,0.3,0,0.4,0.1c-0.1,0.5-0.5,1.7-0.7,2.1c-1.4,0-2.7,0-4.1,0h-1.4c-0.7,0-1.2,0-2.1,0c-0.1,0-0.1-0.3,0-0.4l0.5,0
					c0.9-0.1,0.9-0.3,0.9-1.9V46.1z"/>
				<path d="M207.3,46.2c0-1.4,0-1.7-0.7-1.8l-0.5-0.1c-0.1-0.1-0.1-0.3,0-0.4c0.9-0.1,1.9-0.1,3.4-0.1c0.9,0,1.8,0.1,2.5,0.5
					c0.7,0.4,1.3,1.1,1.3,2.1c0,1.4-1.1,2.2-1.9,2.5c-0.1,0.1,0,0.2,0.1,0.4c1.2,2,2,3.2,3.1,4c0.3,0.2,0.6,0.4,1,0.4
					c0.1,0,0.1,0.2,0,0.2c-0.1,0-0.4,0.1-0.7,0.1c-1.3,0-2.1-0.4-3.1-1.9c-0.4-0.6-1-1.6-1.5-2.3c-0.2-0.3-0.5-0.5-1.1-0.5
					c-0.7,0-0.7,0-0.7,0.3v1.9c0,1.6,0,1.8,0.9,1.9l0.3,0c0.1,0.1,0.1,0.3,0,0.4c-0.7,0-1.2,0-1.8,0c-0.6,0-1.2,0-1.9,0
					c-0.1,0-0.1-0.3,0-0.4l0.4,0c0.9-0.1,0.9-0.3,0.9-1.9V46.2z M208.5,48.3c0,0.3,0,0.4,0,0.5c0,0,0.3,0.1,1,0.1
					c0.5,0,1.1-0.1,1.6-0.4c0.4-0.3,0.8-0.9,0.8-1.9c0-1.2-0.7-2.3-2.4-2.3c-0.9,0-1,0.1-1,0.5V48.3z"/>
				<path d="M216.3,46.1c0-1.6,0-1.8-0.9-1.9l-0.2,0c-0.1-0.1-0.1-0.3,0-0.4c0.7,0,1.2,0,1.8,0h2.9c1,0,1.9,0,2.1,0
					c0.1,0.3,0.2,1.4,0.2,2c-0.1,0.1-0.3,0.1-0.4,0c-0.2-0.7-0.4-1.2-1.2-1.4c-0.3-0.1-0.8-0.1-1.5-0.1H218c-0.5,0-0.5,0-0.5,0.6v3
					c0,0.4,0,0.4,0.5,0.4h0.9c0.6,0,1.1,0,1.3-0.1c0.2-0.1,0.3-0.2,0.4-0.5l0.1-0.6c0.1-0.1,0.3-0.1,0.4,0c0,0.4-0.1,1-0.1,1.5
					c0,0.5,0.1,1.1,0.1,1.5c-0.1,0.1-0.3,0.1-0.4,0l-0.1-0.6c-0.1-0.3-0.2-0.5-0.5-0.6c-0.2-0.1-0.6-0.1-1.2-0.1h-0.9
					c-0.5,0-0.5,0-0.5,0.4v2.1c0,0.8,0,1.3,0.3,1.6c0.2,0.2,0.5,0.3,1.8,0.3c1.2,0,1.6-0.1,1.9-0.2c0.3-0.2,0.7-0.7,1.1-1.5
					c0.1-0.1,0.3,0,0.4,0.1c-0.1,0.5-0.5,1.7-0.7,2.1c-1.4,0-2.7,0-4.1,0H217c-0.7,0-1.2,0-2.1,0c-0.1,0-0.1-0.3,0-0.4l0.5,0
					c0.9-0.1,0.9-0.3,0.9-1.9V46.1z"/>
				<path d="M226.3,51.6c0,1.6,0,1.8,1,1.9l0.4,0c0.1,0.1,0.1,0.3,0,0.4c-0.9,0-1.4,0-2,0c-0.6,0-1.2,0-1.9,0c-0.1,0-0.1-0.3,0-0.4
					l0.3,0c0.9-0.1,0.9-0.3,0.9-1.9V46c0-1.3,0-1.6-0.7-1.6l-0.5-0.1c-0.1-0.1-0.1-0.3,0-0.4c0.8-0.1,1.7-0.1,3-0.1
					c1.3,0,2.2,0.2,2.9,0.6c0.7,0.4,1.2,1.2,1.2,2.3c0,1.4-0.9,2.1-1.5,2.4c-0.7,0.3-1.5,0.5-2.1,0.5c-0.1,0-0.1-0.3,0-0.3
					c1.6-0.3,2.2-1.2,2.2-2.6c0-1.5-0.9-2.4-2.4-2.4c-0.8,0-0.8,0.1-0.8,0.5V51.6z"/>
				<path d="M231.4,49c0-3,2.3-5.4,5.4-5.4c3.5,0,5.3,2.5,5.3,5.2c0,3.1-2.3,5.3-5.3,5.3C233.4,54.1,231.4,51.7,231.4,49z
					 M240.6,49.3c0-2.5-1.1-5.2-4-5.2c-1.6,0-3.6,1.1-3.6,4.4c0,2.2,1.1,5.2,4.1,5.2C238.8,53.7,240.6,52.3,240.6,49.3z"/>
				<path d="M244.4,46.2c0-1.4,0-1.7-0.7-1.8l-0.5-0.1c-0.1-0.1-0.1-0.3,0-0.4c0.9-0.1,1.9-0.1,3.4-0.1c0.9,0,1.8,0.1,2.5,0.5
					c0.7,0.4,1.3,1.1,1.3,2.1c0,1.4-1.1,2.2-1.9,2.5c-0.1,0.1,0,0.2,0.1,0.4c1.2,2,2,3.2,3.1,4c0.3,0.2,0.6,0.4,1,0.4
					c0.1,0,0.1,0.2,0,0.2c-0.1,0-0.4,0.1-0.7,0.1c-1.3,0-2.1-0.4-3.1-1.9c-0.4-0.6-1-1.6-1.5-2.3c-0.2-0.3-0.5-0.5-1.1-0.5
					c-0.7,0-0.7,0-0.7,0.3v1.9c0,1.6,0,1.8,0.9,1.9l0.3,0c0.1,0.1,0.1,0.3,0,0.4c-0.7,0-1.2,0-1.8,0c-0.6,0-1.2,0-1.9,0
					c-0.1,0-0.1-0.3,0-0.4l0.4,0c0.9-0.1,0.9-0.3,0.9-1.9V46.2z M245.7,48.3c0,0.3,0,0.4,0,0.5c0,0,0.3,0.1,1,0.1
					c0.5,0,1.1-0.1,1.6-0.4c0.4-0.3,0.8-0.9,0.8-1.9c0-1.2-0.7-2.3-2.4-2.3c-0.9,0-1,0.1-1,0.5V48.3z"/>
				<path d="M256.4,51.6c0,1.6,0,1.8,0.9,1.9l0.5,0c0.1,0.1,0.1,0.3,0,0.4c-0.9,0-1.4,0-2,0s-1.1,0-2.1,0c-0.1,0-0.1-0.3,0-0.4
					l0.5,0c0.9-0.1,0.9-0.3,0.9-1.9v-6.8c0-0.5,0-0.5-0.5-0.5h-0.8c-0.7,0-1.5,0-1.9,0.4c-0.4,0.3-0.5,0.7-0.7,1
					c-0.1,0.1-0.3,0-0.4-0.1c0.2-0.7,0.5-1.7,0.6-2.3c0,0,0.2,0,0.3,0c0.1,0.5,0.6,0.5,1.3,0.5h6.2c0.8,0,1,0,1.2-0.4
					c0.1,0,0.2,0,0.3,0c-0.2,0.6-0.3,1.9-0.2,2.3c-0.1,0.1-0.3,0.1-0.4,0c0-0.4-0.2-0.9-0.4-1.1c-0.3-0.3-0.9-0.4-1.8-0.4h-1.1
					c-0.5,0-0.4,0-0.4,0.5V51.6z"/>
				<path d="M262.4,46.2c0-1.6,0-1.9-0.9-1.9l-0.4,0c-0.1-0.1-0.1-0.3,0-0.4c0.8,0,1.3,0,1.9,0c0.6,0,1.1,0,1.9,0
					c0.1,0,0.1,0.3,0,0.4l-0.4,0c-0.9,0.1-0.9,0.3-0.9,1.9v5.4c0,1.6,0,1.8,0.9,1.9l0.4,0c0.1,0.1,0.1,0.3,0,0.4c-0.8,0-1.3,0-1.9,0
					c-0.6,0-1.2,0-1.9,0c-0.1,0-0.1-0.3,0-0.4l0.4,0c0.9-0.1,0.9-0.3,0.9-1.9V46.2z"/>
				<path d="M275.2,51.3c0,0.5,0,2.3,0,2.7c0,0.1-0.1,0.2-0.3,0.2c-0.2-0.3-0.6-0.8-1.9-2.3l-3.5-4c-0.4-0.5-1.4-1.7-1.8-2.1h0
					c-0.1,0.2-0.1,0.5-0.1,1v3.3c0,0.7,0,2.7,0.3,3.1c0.1,0.2,0.4,0.3,0.8,0.3l0.5,0c0.1,0.1,0.1,0.3,0,0.4c-0.7,0-1.2,0-1.8,0
					c-0.6,0-1,0-1.6,0c-0.1-0.1-0.1-0.3,0-0.4l0.4,0c0.3,0,0.6-0.1,0.7-0.3c0.2-0.5,0.2-2.4,0.2-3.1v-4.4c0-0.4,0-0.7-0.3-1.1
					c-0.2-0.2-0.6-0.3-0.9-0.4l-0.3,0c-0.1-0.1-0.1-0.3,0-0.4c0.6,0,1.4,0,1.7,0c0.2,0,0.5,0,0.7,0c0.3,0.8,2.1,2.8,2.6,3.3l1.5,1.7
					c1,1.2,1.8,2,2.5,2.8h0c0.1-0.1,0.1-0.3,0.1-0.6v-3.3c0-0.7,0-2.7-0.3-3.1c-0.1-0.1-0.3-0.2-0.9-0.3l-0.3,0
					c-0.1-0.1-0.1-0.3,0-0.4c0.7,0,1.2,0,1.8,0c0.7,0,1,0,1.6,0c0.1,0.1,0.1,0.3,0,0.4l-0.2,0c-0.5,0.1-0.8,0.2-0.9,0.3
					c-0.3,0.5-0.2,2.4-0.2,3.1V51.3z"/>
				<path d="M286.1,52.3c0,0.6,0.1,1,0.4,1.1c0,0,0,0.1,0,0.2c-0.2,0-0.5,0.1-0.7,0.1c-0.8,0.2-1.9,0.4-2.7,0.4
					c-1.8,0-3.5-0.5-4.6-1.7c-0.9-0.9-1.4-2.1-1.4-3.4c0-1.3,0.4-2.6,1.4-3.6c1-1.1,2.5-1.8,4.8-1.8c0.9,0,1.7,0.2,1.9,0.2
					c0.3,0.1,0.8,0.2,0.9,0.1c0,0.5,0.1,1.3,0.2,2.2c0,0.1-0.3,0.1-0.4,0c-0.4-1.6-1.6-2.2-3.1-2.2c-2.9,0-4.2,2.1-4.2,4.4
					c0,2.9,1.5,5.2,4.6,5.2c0.9,0,1.5-0.2,1.7-0.5c0.1-0.1,0.2-0.4,0.2-0.9v-0.6c0-1.3,0-1.4-1-1.5l-0.7-0.1c-0.1-0.1-0.1-0.3,0-0.4
					c0.4,0,1.3,0,2.2,0c0.6,0,1.1,0,1.6,0c0.1,0.1,0.1,0.3,0,0.4l-0.2,0c-0.6,0.1-0.7,0.5-0.7,1.3V52.3z"/>
			</g>
			<g>
				<path d="M105.7,36.3c0,0.5,0,2.3,0,2.7c0,0.1-0.1,0.2-0.3,0.2c-0.2-0.3-0.6-0.8-1.9-2.3l-3.5-4c-0.4-0.5-1.4-1.7-1.8-2.1h0
					c-0.1,0.2-0.1,0.5-0.1,1V35c0,0.7,0,2.7,0.3,3.1c0.1,0.2,0.4,0.3,0.8,0.3l0.5,0c0.1,0.1,0.1,0.3,0,0.4c-0.7,0-1.2,0-1.8,0
					c-0.6,0-1,0-1.6,0c-0.1-0.1-0.1-0.3,0-0.4l0.4,0c0.3,0,0.6-0.1,0.7-0.3c0.2-0.5,0.2-2.4,0.2-3.1v-4.4c0-0.4,0-0.7-0.3-1.1
					c-0.2-0.2-0.6-0.3-0.9-0.4l-0.3,0c-0.1-0.1-0.1-0.3,0-0.4c0.6,0,1.4,0,1.7,0c0.2,0,0.5,0,0.7,0c0.3,0.8,2.1,2.8,2.6,3.3l1.5,1.7
					c1,1.2,1.8,2,2.5,2.8h0c0.1-0.1,0.1-0.3,0.1-0.6v-3.3c0-0.7,0-2.7-0.3-3.1c-0.1-0.1-0.3-0.2-0.9-0.3l-0.3,0
					c-0.1-0.1-0.1-0.3,0-0.4c0.7,0,1.2,0,1.8,0c0.7,0,1,0,1.6,0c0.1,0.1,0.1,0.3,0,0.4l-0.2,0c-0.5,0.1-0.8,0.2-0.9,0.3
					c-0.3,0.5-0.2,2.4-0.2,3.1V36.3z"/>
				<path d="M108.6,35c-0.4,0-0.4,0-0.4,0.4c0,1.5,0.9,2.8,2.5,2.8c0.5,0,0.9-0.2,1.4-0.7c0.2,0,0.3,0,0.3,0.2
					c-0.5,1-1.6,1.4-2.4,1.4c-1,0-1.8-0.4-2.2-1c-0.5-0.6-0.6-1.3-0.6-2c0-1.9,1.2-3.4,3.1-3.4c1.3,0,2.2,0.9,2.2,1.8
					c0,0.2,0,0.3-0.1,0.4c0,0.1-0.3,0.1-0.9,0.1H108.6z M109.5,34.5c1.1,0,1.5-0.1,1.6-0.2c0,0,0.1-0.1,0.1-0.3c0-0.4-0.3-1-1.2-1
					c-0.9,0-1.7,0.8-1.7,1.3c0,0,0,0.1,0.1,0.1H109.5z"/>
				<path d="M113.1,34.3c-0.3-0.9-0.5-1-0.9-1.1l-0.2-0.1c-0.1-0.1-0.1-0.3,0-0.4c0.5,0,0.9,0,1.4,0c0.5,0,0.9,0,1.3,0
					c0.1,0.1,0.1,0.3,0,0.4l-0.3,0.1c-0.2,0-0.3,0.1-0.3,0.2s0.1,0.4,0.2,0.8l0.9,2.3c0.1,0.3,0.3,0.6,0.3,0.7c0,0,0.2-0.3,0.3-0.7
					l0.7-1.8c0.2-0.5,0.2-0.7,0.1-0.9c-0.1-0.3-0.4-0.5-0.7-0.5l-0.2-0.1c-0.1-0.1-0.1-0.3,0-0.4c0.4,0,0.9,0,1.3,0
					c0.5,0,0.9,0,1.4,0c0.1,0,0.1,0.3,0,0.4l-0.3,0.1c-0.6,0.1-0.6,0.2-0.4,0.7c0.2,0.5,1,2.4,1.2,2.8c0.1,0.2,0.2,0.4,0.2,0.4
					c0,0,0.1-0.2,0.2-0.4c0.2-0.4,0.8-2.1,1-2.7c0.1-0.3,0.2-0.5,0.2-0.7c0-0.1-0.1-0.2-0.3-0.2l-0.4-0.1c-0.1-0.1-0.1-0.3,0-0.4
					c0.4,0,0.8,0,1.2,0c0.3,0,0.7,0,1,0c0.1,0.1,0.1,0.3,0,0.4l-0.3,0.1c-0.4,0.1-0.5,0.3-0.8,1c-0.4,0.9-1.1,2.7-1.4,3.4
					c-0.2,0.5-0.4,1-0.5,1.4c-0.1,0-0.1,0.1-0.2,0.1c-0.1,0-0.1,0-0.2-0.1c-0.1-0.3-0.4-1.1-0.6-1.7l-0.7-1.7
					c-0.1-0.3-0.3-0.8-0.3-0.8c0,0-0.2,0.5-0.3,0.7l-0.8,1.9c-0.3,0.7-0.5,1.2-0.6,1.6c0,0-0.1,0.1-0.2,0.1c-0.1,0-0.1,0-0.2-0.1
					c-0.1-0.3-0.3-0.9-0.5-1.3L113.1,34.3z"/>
				<path d="M126.6,31.1c0-1.6,0-1.8-0.9-1.9l-0.2,0c-0.1-0.1-0.1-0.3,0-0.4c0.7,0,1.2,0,1.8,0h2.9c1,0,1.9,0,2.1,0
					c0.1,0.3,0.2,1.4,0.2,2c-0.1,0.1-0.3,0.1-0.4,0c-0.2-0.7-0.4-1.2-1.2-1.4c-0.3-0.1-0.8-0.1-1.5-0.1h-1.1c-0.5,0-0.5,0-0.5,0.6v3
					c0,0.4,0,0.4,0.5,0.4h0.9c0.6,0,1.1,0,1.3-0.1c0.2-0.1,0.3-0.2,0.4-0.5l0.1-0.6c0.1-0.1,0.3-0.1,0.4,0c0,0.4-0.1,1-0.1,1.5
					c0,0.5,0.1,1.1,0.1,1.5c-0.1,0.1-0.3,0.1-0.4,0l-0.1-0.6c-0.1-0.3-0.2-0.5-0.5-0.6c-0.2-0.1-0.6-0.1-1.2-0.1h-0.9
					c-0.5,0-0.5,0-0.5,0.4v2.1c0,0.8,0,1.3,0.3,1.6c0.2,0.2,0.5,0.3,1.8,0.3c1.2,0,1.6-0.1,1.9-0.2c0.3-0.2,0.7-0.7,1.1-1.5
					c0.1-0.1,0.3,0,0.4,0.1c-0.1,0.5-0.5,1.7-0.7,2.1c-1.4,0-2.7,0-4.1,0h-1.4c-0.7,0-1.2,0-2.1,0c-0.1,0-0.1-0.3,0-0.4l0.5,0
					c0.9-0.1,0.9-0.3,0.9-1.9V31.1z"/>
				<path d="M134.5,34.5c0-0.6,0-0.7-0.4-0.9l-0.1-0.1c-0.1-0.1-0.1-0.2,0-0.3c0.3-0.1,1.2-0.5,1.5-0.7c0.1,0,0.1,0,0.2,0.1
					c0,0.3,0,0.6,0,0.7c0,0.1,0.1,0.2,0.2,0.2c0.6-0.4,1.4-0.8,2.1-0.8c1.3,0,1.8,0.9,1.8,1.9v2.6c0,1.1,0,1.2,0.6,1.3l0.3,0
					c0.1,0.1,0.1,0.3,0,0.4c-0.5,0-0.9,0-1.4,0c-0.5,0-1,0-1.4,0c-0.1,0-0.1-0.3,0-0.4l0.3,0c0.6-0.1,0.6-0.2,0.6-1.3v-2.3
					c0-0.9-0.4-1.5-1.4-1.5c-0.6,0-1.1,0.2-1.3,0.5c-0.2,0.3-0.2,0.5-0.2,0.9v2.3c0,1.1,0,1.2,0.6,1.3l0.3,0c0.1,0.1,0.1,0.3,0,0.4
					c-0.4,0-0.9,0-1.4,0c-0.5,0-1,0-1.4,0c-0.1,0-0.1-0.3,0-0.4l0.3,0c0.6-0.1,0.6-0.2,0.6-1.3V34.5z"/>
				<path d="M147.3,33.2c0.2,0.1,0.1,0.6-0.1,0.6h-1.1c0,0.3,0,0.5,0,0.8c0,1-0.6,2.4-2.6,2.4c-0.3,0-0.5,0-0.7,0
					c-0.2,0.1-0.7,0.4-0.7,0.8c0,0.3,0.3,0.6,1.1,0.6c0.5,0,1.1,0,1.8,0c0.9,0,2.1,0.2,2.1,1.7c0,1.7-1.8,2.9-3.8,2.9
					c-1.9,0-2.5-1-2.5-1.8c0-0.2,0.1-0.4,0.2-0.6c0.3-0.3,0.7-0.7,1-1c0.1-0.1,0.3-0.3,0.1-0.4c-0.6-0.2-1.1-0.7-1.1-1.2
					c0-0.1,0.1-0.1,0.2-0.3c0.3-0.2,0.5-0.4,0.8-0.7c0.1-0.1,0.2-0.2,0.2-0.3c-0.5-0.3-1.1-0.9-1.1-1.8c0-1.3,1.1-2.3,2.5-2.3
					c0.6,0,1.1,0.2,1.5,0.3c0.5,0.2,0.6,0.2,0.9,0.2H147.3z M144.2,39.3c-0.5,0-1.1,0-1.3,0.2c-0.4,0.2-0.7,0.7-0.7,1.3
					c0,0.8,0.7,1.5,2,1.5c1.4,0,2.2-0.8,2.2-1.6c0-0.9-0.6-1.3-1.7-1.3H144.2z M145.1,35c0-1-0.4-1.9-1.4-1.9
					c-0.7,0-1.3,0.7-1.3,1.7c0,1.1,0.7,1.8,1.4,1.8C144.7,36.6,145.1,35.9,145.1,35z"/>
				<path d="M149.3,37.2c0,1.1,0,1.2,0.6,1.3l0.4,0c0.1,0.1,0.1,0.3,0,0.4c-0.5,0-0.9,0-1.5,0c-0.5,0-1,0-1.5,0
					c-0.1,0-0.1-0.3,0-0.4l0.3,0c0.6-0.1,0.6-0.2,0.6-1.3v-6.9c0-0.9,0-1-0.5-1.3l-0.2-0.1c-0.1,0-0.1-0.3,0-0.3
					c0.4-0.1,1.1-0.3,1.6-0.6c0.1,0,0.1,0,0.2,0.1c0,0.5,0,1.2,0,1.9V37.2z"/>
				<path d="M153.8,35.7c0.2-0.1,0.2-0.2,0.3-0.4l0-0.7c0-0.6-0.2-1.3-1.1-1.3c-0.4,0-0.9,0.2-1,0.7c0,0.2,0,0.4-0.2,0.5
					c-0.2,0.2-0.6,0.3-0.9,0.3c-0.1,0-0.2-0.1-0.2-0.2c0-0.8,1.7-1.9,2.8-1.9c1.1,0,1.6,0.6,1.6,1.8l-0.1,2.6c0,0.7,0.1,1.3,0.7,1.3
					c0.2,0,0.3,0,0.4-0.1c0.1,0,0.2-0.1,0.2-0.1c0.1,0,0.1,0.1,0.1,0.2c0,0.1-0.5,0.7-1.3,0.7c-0.4,0-0.7-0.1-1-0.5
					c-0.1-0.1-0.2-0.2-0.2-0.2c-0.1,0-0.3,0.1-0.6,0.3c-0.3,0.2-0.7,0.4-1.1,0.4c-0.4,0-0.8-0.1-1.1-0.3c-0.3-0.3-0.5-0.6-0.5-1.1
					c0-0.6,0.3-0.9,1.3-1.3L153.8,35.7z M152.8,38.4c0.3,0,0.8-0.2,0.9-0.4c0.2-0.2,0.2-0.4,0.2-0.7l0-0.9c0-0.2-0.1-0.2-0.2-0.2
					c-0.1,0-0.3,0.1-0.6,0.2c-0.9,0.3-1.3,0.5-1.3,1.1C151.9,37.7,152.1,38.4,152.8,38.4z"/>
				<path d="M157.3,34.5c0-0.6,0-0.7-0.4-0.9l-0.1-0.1c-0.1-0.1-0.1-0.2,0-0.3c0.3-0.1,1.2-0.5,1.5-0.7c0.1,0,0.1,0,0.2,0.1
					c0,0.3,0,0.6,0,0.7c0,0.1,0.1,0.2,0.2,0.2c0.6-0.4,1.4-0.8,2.1-0.8c1.3,0,1.8,0.9,1.8,1.9v2.6c0,1.1,0,1.2,0.6,1.3l0.3,0
					c0.1,0.1,0.1,0.3,0,0.4c-0.5,0-0.9,0-1.4,0c-0.5,0-1,0-1.4,0c-0.1,0-0.1-0.3,0-0.4l0.3,0c0.6-0.1,0.6-0.2,0.6-1.3v-2.3
					c0-0.9-0.4-1.5-1.4-1.5c-0.6,0-1.1,0.2-1.3,0.5c-0.2,0.3-0.2,0.5-0.2,0.9v2.3c0,1.1,0,1.2,0.6,1.3l0.3,0c0.1,0.1,0.1,0.3,0,0.4
					c-0.4,0-0.9,0-1.4,0c-0.5,0-1,0-1.4,0c-0.1,0-0.1-0.3,0-0.4l0.3,0c0.6-0.1,0.6-0.2,0.6-1.3V34.5z"/>
				<path d="M169.8,36.6c0,1.2,0,1.8,0.4,1.8c0.2,0,0.4-0.1,0.7-0.2c0.1,0,0.1,0.4,0,0.5c-0.6,0.1-1.6,0.3-2,0.5
					c-0.1,0-0.2,0-0.2-0.1v-0.3c0-0.2,0-0.4,0-0.5h-0.1c-0.7,0.5-1.2,0.7-1.9,0.7c-1.7,0-2.8-1.3-2.8-2.9c0-2.1,1.6-3.5,3.7-3.5
					c0.5,0,0.9,0.1,1,0.1c0.1,0,0.1-0.1,0.1-0.2v-2.3c0-0.9,0-1-0.5-1.3l-0.2-0.1c-0.1,0-0.1-0.3,0-0.3c0.4-0.1,1.1-0.3,1.6-0.6
					c0.1,0,0.1,0,0.2,0.1c0,0.5,0,1.2,0,1.9V36.6z M168.7,34.4c0-0.3-0.1-0.4-0.2-0.6c-0.2-0.3-0.7-0.6-1.3-0.6
					c-1.4,0-2.1,1.2-2.1,2.5c0,1.4,0.8,2.7,2.3,2.7c0.4,0,0.9-0.2,1.2-0.4c0.1-0.1,0.1-0.3,0.1-0.6V34.4z"/>
			</g>
		</g>
		<g>
			<polygon points="68,40.6 73.8,45.4 65.7,55.3 59.8,50.5 			"/>
			<rect x="68.4" y="40.8" transform="matrix(-0.7733 -0.634 0.634 -0.7733 101.8433 119.1258)" width="7.6" height="1.1"/>
			<rect x="73" y="34.8" transform="matrix(0.634 -0.7733 0.7733 0.634 -2.6371 71.7112)" width="2.8" height="7.6"/>
			<rect x="74.6" y="34.9" transform="matrix(0.7732 0.6341 -0.6341 0.7732 39.978 -40.5607)" width="4.2" height="1.5"/>
			<path d="M88.8,2.2c-9.9,0-17.9,8-17.9,17.9c0,9.9,8,17.9,17.9,17.9c1.6,0,3.1-0.2,4.5-0.6v-2.1c-1.4,0.4-3,0.7-4.5,0.7
				c-8.7,0-15.9-7.1-15.9-15.9c0-8.7,7.1-15.9,15.9-15.9s15.9,7.1,15.9,15.9c0,1.9-0.3,3.7-0.9,5.4h2.1c0.5-1.7,0.8-3.5,0.8-5.4
				C106.7,10.2,98.7,2.2,88.8,2.2z"/>
		</g>
	</g>
</g>
<g id="Layer_1">
</g>
</svg>
