<?xml version="1.0" encoding="utf-8"?>
<!-- Generator: Adobe Illustrator 18.0.0, SVG Export Plug-In . SVG Version: 6.00 Build 0)  -->
<!DOCTYPE svg PUBLIC "-//W3C//DTD SVG 1.1//EN" "http://www.w3.org/Graphics/SVG/1.1/DTD/svg11.dtd">
<svg version="1.1" xmlns="http://www.w3.org/2000/svg" xmlns:xlink="http://www.w3.org/1999/xlink" x="0px" y="0px"
	 viewBox="0 0 300 45.3" style="enable-background:new 0 0 300 45.3;" xml:space="preserve">
<style type="text/css">
	.st0{fill-rule:evenodd;clip-rule:evenodd;}
	.st1{fill-rule:evenodd;clip-rule:evenodd;fill:#C038F9;}
	.st2{fill:none;}
	.st3{fill-rule:evenodd;clip-rule:evenodd;fill:#231F20;}
</style>
<g id="Layer_2">
</g>
<g id="Layer_1">
	<g>
		<g>
			<path d="M49,10.6h8.2c1.1,0,2.2,0.1,3.2,0.3c1,0.2,1.9,0.6,2.7,1.1c0.8,0.5,1.4,1.2,1.8,2.1c0.4,0.9,0.7,1.9,0.7,3.3
				c0,1.3-0.2,2.4-0.6,3.2c-0.4,0.9-1,1.6-1.7,2.1c-0.7,0.5-1.6,0.9-2.6,1.1c-1,0.2-2.1,0.3-3.2,0.3h-3.6v8.6H49V10.6z M53.8,20h3.2
				c0.4,0,0.9,0,1.3-0.1c0.4-0.1,0.8-0.2,1.1-0.4c0.3-0.2,0.6-0.5,0.8-0.8c0.2-0.3,0.3-0.8,0.3-1.3c0-0.6-0.1-1-0.4-1.4
				c-0.3-0.3-0.6-0.6-1-0.8c-0.4-0.2-0.9-0.3-1.4-0.4c-0.5-0.1-1-0.1-1.4-0.1h-2.5V20z"/>
			<path d="M67.1,10.6h8.2c1,0,1.9,0.1,2.9,0.2c1,0.1,1.8,0.4,2.6,0.8c0.8,0.4,1.4,1,1.9,1.7c0.5,0.7,0.7,1.7,0.7,2.9
				c0,1.2-0.3,2.3-1,3.1c-0.7,0.8-1.6,1.4-2.8,1.8v0.1c0.7,0.1,1.4,0.3,2,0.6c0.6,0.3,1.1,0.7,1.5,1.2c0.4,0.5,0.8,1,1,1.6
				c0.2,0.6,0.3,1.3,0.3,2c0,1.2-0.2,2.1-0.7,2.9c-0.5,0.8-1.1,1.4-1.9,1.9c-0.8,0.5-1.7,0.8-2.7,1c-1,0.2-2,0.3-2.9,0.3h-9V10.6z
				 M71.9,19.4h3.5c0.4,0,0.7,0,1.1-0.1c0.4-0.1,0.7-0.2,1-0.4c0.3-0.2,0.5-0.4,0.7-0.7c0.2-0.3,0.3-0.7,0.3-1.1
				c0-0.5-0.1-0.8-0.3-1.1c-0.2-0.3-0.5-0.5-0.8-0.7c-0.3-0.2-0.7-0.3-1.1-0.4c-0.4-0.1-0.8-0.1-1.2-0.1h-3.3V19.4z M71.9,28.6h4.4
				c0.4,0,0.8,0,1.1-0.1c0.4-0.1,0.7-0.2,1-0.4c0.3-0.2,0.6-0.5,0.8-0.8c0.2-0.3,0.3-0.7,0.3-1.2c0-0.5-0.1-0.9-0.4-1.3
				c-0.3-0.3-0.6-0.6-1-0.7c-0.4-0.2-0.8-0.3-1.3-0.3c-0.5-0.1-0.9-0.1-1.3-0.1h-3.7V28.6z"/>
			<path d="M96.6,16c-0.4-0.5-0.9-0.9-1.6-1.1c-0.7-0.2-1.3-0.4-1.9-0.4c-0.4,0-0.7,0-1.1,0.1c-0.4,0.1-0.7,0.2-1.1,0.4
				c-0.3,0.2-0.6,0.4-0.8,0.7c-0.2,0.3-0.3,0.6-0.3,1.1c0,0.7,0.2,1.2,0.7,1.5c0.5,0.4,1.1,0.7,1.9,0.9c0.8,0.2,1.6,0.5,2.4,0.7
				c0.9,0.2,1.7,0.6,2.4,1.1c0.8,0.5,1.4,1.1,1.9,1.8c0.5,0.8,0.7,1.8,0.7,3.1c0,1.2-0.2,2.3-0.7,3.2c-0.5,0.9-1.1,1.7-1.9,2.3
				c-0.8,0.6-1.7,1.1-2.7,1.3c-1,0.3-2.1,0.4-3.3,0.4c-1.4,0-2.8-0.2-4-0.7c-1.2-0.4-2.4-1.1-3.4-2.1l3.5-3.8
				c0.5,0.7,1.1,1.2,1.9,1.5c0.8,0.4,1.5,0.5,2.4,0.5c0.4,0,0.8,0,1.2-0.1c0.4-0.1,0.8-0.2,1.1-0.4c0.3-0.2,0.6-0.4,0.8-0.7
				c0.2-0.3,0.3-0.6,0.3-1c0-0.7-0.3-1.2-0.8-1.6c-0.5-0.4-1.1-0.7-1.9-1c-0.8-0.3-1.6-0.5-2.5-0.8c-0.9-0.3-1.7-0.6-2.5-1.1
				c-0.8-0.5-1.4-1.1-1.9-1.8c-0.5-0.7-0.8-1.7-0.8-3c0-1.2,0.2-2.2,0.7-3.1c0.5-0.9,1.1-1.6,1.9-2.2c0.8-0.6,1.7-1.1,2.7-1.4
				c1-0.3,2.1-0.5,3.1-0.5c1.2,0,2.5,0.2,3.6,0.5c1.2,0.4,2.2,0.9,3.1,1.8L96.6,16z"/>
			<path d="M109.1,10.6h6.6l9.4,15.3h0.1V10.6h4.9v22.1h-6.4L114,17H114v15.7h-4.9V10.6z"/>
			<path d="M133.1,10.6h15v4.5H138v4.1h9.6v4.5H138v4.5h10.7v4.5h-15.6V10.6z"/>
			<path d="M149.4,10.6h5.3l3.5,14.2h0.1l4.6-14.2h4.5l4.6,14.5h0.1l3.7-14.5h4.9l-6.5,22.1h-4.3L165,17.4H165l-4.9,15.3h-4.2
				L149.4,10.6z"/>
			<path d="M193.1,16c-0.4-0.5-0.9-0.9-1.6-1.1c-0.7-0.2-1.3-0.4-1.9-0.4c-0.4,0-0.7,0-1.1,0.1c-0.4,0.1-0.7,0.2-1.1,0.4
				c-0.3,0.2-0.6,0.4-0.8,0.7c-0.2,0.3-0.3,0.6-0.3,1.1c0,0.7,0.2,1.2,0.7,1.5c0.5,0.4,1.1,0.7,1.9,0.9c0.8,0.2,1.6,0.5,2.4,0.7
				c0.9,0.2,1.7,0.6,2.4,1.1c0.8,0.5,1.4,1.1,1.9,1.8c0.5,0.8,0.7,1.8,0.7,3.1c0,1.2-0.2,2.3-0.7,3.2c-0.5,0.9-1.1,1.7-1.9,2.3
				c-0.8,0.6-1.7,1.1-2.7,1.3c-1,0.3-2.1,0.4-3.3,0.4c-1.4,0-2.8-0.2-4-0.7c-1.2-0.4-2.4-1.1-3.4-2.1l3.5-3.8
				c0.5,0.7,1.1,1.2,1.9,1.5c0.8,0.4,1.5,0.5,2.4,0.5c0.4,0,0.8,0,1.2-0.1c0.4-0.1,0.8-0.2,1.1-0.4c0.3-0.2,0.6-0.4,0.8-0.7
				c0.2-0.3,0.3-0.6,0.3-1c0-0.7-0.3-1.2-0.8-1.6c-0.5-0.4-1.1-0.7-1.9-1c-0.8-0.3-1.6-0.5-2.5-0.8c-0.9-0.3-1.7-0.6-2.5-1.1
				c-0.8-0.5-1.4-1.1-1.9-1.8c-0.5-0.7-0.8-1.7-0.8-3c0-1.2,0.2-2.2,0.7-3.1c0.5-0.9,1.1-1.6,1.9-2.2c0.8-0.6,1.7-1.1,2.7-1.4
				c1-0.3,2.1-0.5,3.1-0.5c1.2,0,2.5,0.2,3.6,0.5c1.2,0.4,2.2,0.9,3.1,1.8L193.1,16z"/>
			<path d="M198.9,10.6h4.9v8.2h9.5v-8.2h4.9v22.1h-4.9v-9.5h-9.5v9.5h-4.9V10.6z"/>
			<path d="M220.1,21.7c0-1.8,0.3-3.4,0.9-4.8c0.6-1.4,1.4-2.7,2.5-3.7c1.1-1,2.3-1.8,3.8-2.3c1.5-0.5,3-0.8,4.8-0.8
				s3.3,0.3,4.8,0.8c1.5,0.5,2.7,1.3,3.8,2.3c1.1,1,1.9,2.2,2.5,3.7c0.6,1.4,0.9,3,0.9,4.8c0,1.8-0.3,3.4-0.9,4.8
				c-0.6,1.4-1.4,2.7-2.5,3.7c-1.1,1-2.3,1.8-3.8,2.3c-1.5,0.5-3,0.8-4.8,0.8s-3.3-0.3-4.8-0.8c-1.5-0.5-2.7-1.3-3.8-2.3
				c-1.1-1-1.9-2.2-2.5-3.7C220.4,25,220.1,23.4,220.1,21.7z M225.2,21.7c0,1,0.2,2,0.5,2.9c0.3,0.9,0.8,1.6,1.4,2.2
				c0.6,0.6,1.3,1.1,2.2,1.5c0.8,0.4,1.8,0.5,2.8,0.5c1,0,2-0.2,2.8-0.5c0.8-0.4,1.6-0.8,2.2-1.5c0.6-0.6,1.1-1.4,1.4-2.2
				c0.3-0.9,0.5-1.8,0.5-2.9c0-1-0.2-2-0.5-2.8c-0.3-0.9-0.8-1.6-1.4-2.3c-0.6-0.6-1.3-1.1-2.2-1.5c-0.8-0.4-1.8-0.5-2.8-0.5
				c-1,0-2,0.2-2.8,0.5c-0.8,0.4-1.6,0.8-2.2,1.5c-0.6,0.6-1.1,1.4-1.4,2.3C225.3,19.7,225.2,20.6,225.2,21.7z"/>
			<path d="M264.9,24.2c0,1.3-0.2,2.5-0.6,3.6c-0.4,1.1-1,2.1-1.8,2.9c-0.8,0.8-1.8,1.4-2.9,1.9c-1.2,0.5-2.5,0.7-4,0.7
				c-1.5,0-2.9-0.2-4.1-0.7c-1.2-0.5-2.1-1.1-2.9-1.9s-1.4-1.8-1.8-2.9c-0.4-1.1-0.6-2.3-0.6-3.6V10.6h4.9V24c0,0.7,0.1,1.3,0.3,1.9
				c0.2,0.6,0.5,1.1,0.9,1.5c0.4,0.4,0.9,0.8,1.4,1c0.6,0.2,1.1,0.4,1.8,0.4c0.6,0,1.2-0.1,1.8-0.4c0.5-0.2,1-0.6,1.4-1
				c0.4-0.4,0.7-0.9,0.9-1.5c0.2-0.6,0.3-1.2,0.3-1.9V10.6h4.9V24.2z"/>
			<path d="M267.9,10.6h8.5c1.1,0,2.2,0.1,3.2,0.3c1,0.2,1.9,0.6,2.7,1.1c0.8,0.5,1.4,1.2,1.8,2.1c0.4,0.9,0.7,1.9,0.7,3.2
				c0,1.6-0.4,2.9-1.2,4c-0.8,1.1-2,1.8-3.6,2.1l5.6,9.3h-5.8l-4.6-8.8h-2.4v8.8h-4.9V10.6z M272.7,19.7h2.9c0.4,0,0.9,0,1.4,0
				c0.5,0,0.9-0.1,1.3-0.3c0.4-0.2,0.7-0.4,1-0.7c0.3-0.3,0.4-0.8,0.4-1.4c0-0.6-0.1-1-0.3-1.3c-0.2-0.3-0.5-0.6-0.9-0.8
				c-0.4-0.2-0.8-0.3-1.2-0.4c-0.5-0.1-0.9-0.1-1.3-0.1h-3.2V19.7z"/>
		</g>
		<g>
			<path d="M0,22.5C0,11,9.3,1.6,20.8,1.6c11.5,0,20.8,9.3,20.8,20.8c0,11.5-9.3,20.8-20.8,20.8C9.3,43.3,0,34,0,22.5z M32.8,22.6
				h2.3L30,11.1h-3.3l5.1,11.5h-2.3v3.1c0,1.9-0.8,2.7-3.3,2.6v5.9h3.3v-5.9h1.1c1,0,2.3-0.8,2.3-2.3V22.6z M16.9,11.1
				c-5.1,0-9.3,3.5-9.3,8.8c0,4.4,2.7,7.6,6.6,8.2v6.2h8.3v-5.9h1.1c1.3-0.1,2.2-1,2.3-2.3v-3.4h2.3l-5.1-11.5
				C23.1,11.1,20,11.1,16.9,11.1z M21.4,21.1c1.2,0,2.1-1,2.1-2.1c0-1.2-1-2.1-2.1-2.1c-1.2,0-2.1,1-2.1,2.1
				C19.3,20.1,20.3,21.1,21.4,21.1z"/>
		</g>
	</g>
</g>
</svg>
