<?xml version="1.0" encoding="utf-8"?>
<!-- Generator: Adobe Illustrator 18.0.0, SVG Export Plug-In . SVG Version: 6.00 Build 0)  -->
<!DOCTYPE svg PUBLIC "-//W3C//DTD SVG 1.1//EN" "http://www.w3.org/Graphics/SVG/1.1/DTD/svg11.dtd">
<svg version="1.1" xmlns="http://www.w3.org/2000/svg" xmlns:xlink="http://www.w3.org/1999/xlink" x="0px" y="0px"
	 viewBox="0 0 300 54.7" style="enable-background:new 0 0 300 54.7;" xml:space="preserve">
<style type="text/css">
	.st0{fill-rule:evenodd;clip-rule:evenodd;}
	.st1{fill-rule:evenodd;clip-rule:evenodd;fill:#C038F9;}
	.st2{fill:none;}
	.st3{fill-rule:evenodd;clip-rule:evenodd;fill:#231F20;}
</style>
<g id="Layer_2">
	<g>
		<g>
			<path d="M3.8,33.1V7.5L0,6.2V5.3h12.8v0.9c0,0-3.8,1.3-3.7,1.3v25.6c0,4.2-1.1,6.2-1.5,7c-2.2,4.1-4.7,5.6-6.5,7.1l-1-0.6
				c0.4-0.6,2-4.1,2.4-5.5C2.8,40.2,3.8,37.4,3.8,33.1z"/>
			<path d="M23.1,14.8c0,0.2,0,7.4,0,12.4c0,4.8,0.4,6.8,3.2,6.8c0.3,0,2.2,0,3.8-2c1.2-1.5,1.2-2.8,1.3-5.5c0.1-4.3,0-9,0-9.2
				l-3.1-1v-1l8.4-0.4c0,0.2-0.1,12.9,0,18.2l3.4,0.9v0.9c-1.8,0-8.2,0.8-8.2,0.8l-0.3-3c-1,1.2-3.3,3.1-6.4,3.2
				c-5.2,0-7.3-1.3-7.3-7.1c0-4.5,0-11.5,0-11.5S14.8,16,14.8,16v-0.9C15.7,15.2,23.1,14.8,23.1,14.8z"/>
			<path d="M50.1,15.1V16l-2.5,1.1c-0.1,0,4.9,12.2,4.9,12.2s5.2-12.5,5.2-12.5L55.3,16v-0.9h7.8V16l-2.3,0.8c0,0-8.8,19-8.8,19h-2
				c0,0-8.2-18.5-8.2-18.5l-3-1.3v-0.9H50.1z"/>
			<path d="M74.7,34.1c1.4,0,3.5-0.5,6.6-3.5l1,1.2c-2,2.3-4.2,4.1-8,4.2c-6.8,0.1-11.3-3.6-11-11.5c0.3-6.4,4.8-10.4,10.9-10.1
				c5.8,0.3,8.6,5.2,8.3,10.3H69C68.9,28.5,69.2,33.9,74.7,34.1z M77.5,22.9c0-3.3-0.9-6.9-3.4-7.1c-3.4-0.3-4.6,3.9-5,7.1H77.5z"/>
			<path d="M83.8,16.3v-0.9l8-0.8l0.4,3.2c0.8-1,2.6-3.7,7.2-3.7c7.1,0.1,6.8,3.6,6.8,8.9v10.1l3.5,1.1v0.9H97.6v-0.9l3.2-1.1
				c0,0,0-8.5,0-8.5c0-3.5,0-5.1-0.4-6.3c-0.6-1.5-1.4-2.1-3.3-2.1c-1.3,0-3.3,1.3-4.1,3.6c-0.5,1.3-0.6,2.1-0.6,4.4v9l3,1.1v0.9H84
				v-0.9l3.1-1.1V17.2L83.8,16.3z"/>
			<path d="M110.5,16.2v-0.9l8.5-0.7v18.5l3.1,1.1v0.9h-11.3v-0.9l3.1-1.1v-16L110.5,16.2z M119.1,6.8c0,1.5-1.4,3-3,3
				c-1.6,0-3-1.5-3-3c0-1.5,1.4-3,3-3C117.7,3.8,119.1,5.3,119.1,6.8z"/>
			<path d="M123.6,3.6V2.7l8.6-0.7c0,0,0,31.1,0,31l3.3,1.2v0.9h-11.6v-0.9c0,0,3.3-1.2,3.2-1.2c0,0,0-28.6,0-28.6L123.6,3.6z"/>
			<path d="M148.1,34.1c1.4,0,3.5-0.5,6.6-3.5l1,1.2c-2,2.3-4.2,4.1-8,4.2c-6.8,0.1-11.3-3.6-11-11.5c0.3-6.4,4.8-10.4,10.9-10.1
				c5.8,0.3,8.6,5.2,8.3,10.3h-13.5C142.3,28.5,142.5,33.9,148.1,34.1z M150.9,22.9c0-3.3-0.9-6.9-3.4-7.1c-3.4-0.3-4.6,3.9-5,7.1
				H150.9z"/>
			<path d="M163.2,33.1V7.5l-3.8-1.3V5.3h12.8v0.9c0,0-3.8,1.3-3.7,1.3v25.6c0,4.2-1.1,6.2-1.5,7c-2.2,4.1-4.7,5.6-6.5,7.1l-1-0.6
				c0.4-0.6,2-4.1,2.4-5.5C162.2,40.2,163.2,37.4,163.2,33.1z"/>
			<path d="M181.1,14.8c0,0.2,0,7.4,0,12.4c0,4.8,0.4,6.8,3.2,6.8c0.3,0,2.2,0,3.8-2c1.2-1.5,1.2-2.8,1.3-5.5c0.1-4.3,0-9,0-9.2
				l-3.1-1v-1l8.4-0.4c0,0.2-0.1,12.9,0,18.2l3.4,0.9v0.9c-1.8,0-8.2,0.8-8.2,0.8l-0.3-3c-1,1.2-3.3,3.1-6.4,3.2
				c-5.2,0-7.3-1.3-7.3-7.1c0-4.5,0-11.5,0-11.5s-3.1-1.1-3.1-1.1v-0.9C173.7,15.2,181.1,14.8,181.1,14.8z"/>
			<path d="M214.1,15.7l-0.6,5l-1.1-0.1l-0.5-2.8c-1-0.6-2.4-1.3-4.3-1.5c-2.2-0.2-4.3,0.9-4.2,2.7c0.2,2.4,3.1,2.6,5.7,3.4
				c3.2,1,6.6,2.7,5.8,7.8c-0.5,3-3.4,5.8-8.2,5.7c-1.8,0-4.4-0.4-7.2-1.9l0.8-5.8l1.2,0.1c0,0,0.3,3.6,0.3,3.6c2.1,1.5,3.1,2,4.9,2
				c2.2,0,4.3-0.7,4.6-3.2c0.3-2.6-3.6-3.7-5.8-4.3c-2.8-0.8-6.2-1.8-5.6-6.9c0.4-3.6,3.9-5.1,7.7-5.1
				C210.6,14.5,212.9,15.2,214.1,15.7z"/>
			<path d="M226,9.2v5.9h5v1.8h-5v10.5c0,3,0,4.9,1.1,5.8c1,0.8,2.9,0.4,4.2-0.3l0.4,1.3c-2.2,1.7-8.1,2.2-9.9-0.2
				c-1.3-1.8-1-4.4-1-8.4v-8.7h-3.5v-1.8h3.5v-4.6L226,9.2z"/>
			<path d="M232.9,16.2v-0.9l8.5-0.7v18.5l3.1,1.1v0.9h-11.3v-0.9l3.1-1.1v-16L232.9,16.2z M241.4,6.8c0,1.5-1.4,3-3,3
				c-1.6,0-3-1.5-3-3c0-1.5,1.4-3,3-3C240,3.8,241.4,5.3,241.4,6.8z"/>
			<path d="M261.6,20.9l-1-3.2c-0.9-1.1-1.9-1.7-3.6-1.6c-3.9,0.2-5.1,5.9-5.2,8.6c-0.2,4.4,1,9.4,5,9.4c2.4,0,3.9-1,6.3-3.3l1,1.1
				c-2.3,3.1-4.8,4.1-7.2,4.1c-7.2,0-11.1-4.4-10.7-11.6c0.3-6.1,5-10.1,10.9-10c4.7,0,6.2,1.6,6.2,1.6l-0.5,5.1L261.6,20.9z"/>
			<path d="M276.6,34.1c1.4,0,3.5-0.5,6.6-3.5l1,1.2c-2,2.3-4.2,4.1-8,4.2c-6.8,0.1-11.3-3.6-11-11.5c0.3-6.4,4.8-10.4,10.9-10.1
				c5.8,0.3,8.6,5.2,8.3,10.3h-13.5C270.8,28.5,271.1,33.9,276.6,34.1z M279.5,22.9c0-3.3-0.9-6.9-3.4-7.1c-3.4-0.3-4.6,3.9-5,7.1
				H279.5z"/>
		</g>
		<g>
			<path d="M17,41.8v9.1h-1.2v-9.1H17z"/>
			<path d="M24.4,50.9v-9.1h1.3l2.9,4.6c0.7,1.1,1.2,2,1.6,3l0,0c-0.1-1.2-0.1-2.3-0.1-3.7v-3.8h1.1v9.1h-1.2l-2.9-4.6
				c-0.6-1-1.2-2.1-1.7-3l0,0c0.1,1.1,0.1,2.2,0.1,3.8v3.9H24.4z"/>
			<path d="M38.7,41.8h4.9v1h-3.7v3h3.4v1h-3.4v4.1h-1.2V41.8z"/>
			<path d="M58.5,46.3c0,3.1-1.9,4.8-4.2,4.8c-2.4,0-4.1-1.9-4.1-4.6c0-2.9,1.8-4.8,4.2-4.8C56.9,41.7,58.5,43.6,58.5,46.3z
				 M51.4,46.4c0,1.9,1.1,3.7,2.9,3.7c1.9,0,2.9-1.7,2.9-3.8c0-1.8-0.9-3.7-2.9-3.7C52.4,42.6,51.4,44.4,51.4,46.4z"/>
			<path d="M65.4,41.9c0.6-0.1,1.4-0.2,2.3-0.2c1.3,0,2.1,0.2,2.6,0.7c0.5,0.4,0.7,1,0.7,1.7c0,1.2-0.8,2-1.7,2.3v0
				c0.7,0.2,1.1,0.9,1.3,1.8c0.3,1.3,0.5,2.1,0.7,2.5h-1.2c-0.1-0.3-0.4-1-0.6-2.2c-0.3-1.3-0.8-1.7-1.8-1.8h-1.1v3.9h-1.2V41.9z
				 M66.6,46.1h1.2c1.3,0,2.1-0.7,2.1-1.7c0-1.2-0.9-1.7-2.1-1.7c-0.6,0-1,0.1-1.2,0.1V46.1z"/>
			<path d="M85.8,46.9c-0.1-1.3-0.1-2.8-0.1-3.9h0c-0.3,1.1-0.7,2.2-1.1,3.5l-1.6,4.4H82l-1.5-4.3c-0.4-1.3-0.8-2.5-1.1-3.5h0
				c0,1.1-0.1,2.7-0.2,4L79,50.9h-1.1l0.6-9.1H80l1.6,4.4c0.4,1.1,0.7,2.1,0.9,3.1h0c0.2-0.9,0.6-1.9,1-3.1l1.6-4.4h1.5l0.6,9.1H86
				L85.8,46.9z"/>
			<path d="M95.7,48.1l-0.9,2.9h-1.2l3.1-9.1h1.4l3.1,9.1h-1.3l-1-2.9H95.7z M98.7,47.1l-0.9-2.6c-0.2-0.6-0.3-1.1-0.5-1.7h0
				c-0.1,0.5-0.3,1.1-0.5,1.6L96,47.1H98.7z"/>
			<path d="M108.6,42.8h-2.8v-1h6.7v1h-2.8v8.1h-1.2V42.8z"/>
			<path d="M120.2,41.8v9.1H119v-9.1H120.2z"/>
			<path d="M135.4,46.3c0,3.1-1.9,4.8-4.2,4.8c-2.4,0-4.1-1.9-4.1-4.6c0-2.9,1.8-4.8,4.2-4.8C133.8,41.7,135.4,43.6,135.4,46.3z
				 M128.4,46.4c0,1.9,1.1,3.7,2.9,3.7c1.9,0,2.9-1.7,2.9-3.8c0-1.8-0.9-3.7-2.9-3.7C129.3,42.6,128.4,44.4,128.4,46.4z"/>
			<path d="M142.3,50.9v-9.1h1.3l2.9,4.6c0.7,1.1,1.2,2,1.6,3l0,0c-0.1-1.2-0.1-2.3-0.1-3.7v-3.8h1.1v9.1H148l-2.9-4.6
				c-0.6-1-1.2-2.1-1.7-3l0,0c0.1,1.1,0.1,2.2,0.1,3.8v3.9H142.3z"/>
			<path d="M178.5,46.6H175v3.3h3.9v1h-5.1v-9.1h4.9v1H175v2.9h3.5V46.6z"/>
			<path d="M190.9,50.9l-1.2-2c-0.5-0.8-0.8-1.3-1.1-1.8h0c-0.3,0.5-0.5,1-1,1.8l-1.1,2h-1.4l2.8-4.6l-2.7-4.5h1.4l1.2,2.1
				c0.3,0.6,0.6,1.1,0.8,1.5h0c0.3-0.5,0.5-1,0.8-1.5l1.2-2.1h1.4l-2.8,4.4l2.8,4.7H190.9z"/>
			<path d="M205,50.6c-0.4,0.2-1.3,0.4-2.4,0.4c-2.6,0-4.5-1.6-4.5-4.6c0-2.9,1.9-4.8,4.8-4.8c1.1,0,1.9,0.2,2.2,0.4l-0.3,1
				c-0.4-0.2-1.1-0.4-1.8-0.4c-2.1,0-3.6,1.4-3.6,3.8c0,2.2,1.3,3.7,3.5,3.7c0.7,0,1.4-0.1,1.9-0.4L205,50.6z"/>
			<path d="M213,41.8v3.8h4.4v-3.8h1.2v9.1h-1.2v-4.3H213v4.3h-1.2v-9.1H213z"/>
			<path d="M227.9,48.1l-0.9,2.9h-1.2l3.1-9.1h1.4l3.1,9.1h-1.3l-1-2.9H227.9z M230.9,47.1l-0.9-2.6c-0.2-0.6-0.3-1.1-0.5-1.7h0
				c-0.1,0.5-0.3,1.1-0.5,1.6l-0.9,2.6H230.9z"/>
			<path d="M240.1,50.9v-9.1h1.3l2.9,4.6c0.7,1.1,1.2,2,1.6,3l0,0c-0.1-1.2-0.1-2.3-0.1-3.7v-3.8h1.1v9.1h-1.2l-2.9-4.6
				c-0.6-1-1.2-2.1-1.7-3l0,0c0.1,1.1,0.1,2.2,0.1,3.8v3.9H240.1z"/>
			<path d="M261.4,50.5c-0.5,0.2-1.6,0.5-2.8,0.5c-1.4,0-2.5-0.4-3.4-1.2c-0.8-0.8-1.3-2-1.3-3.4c0-2.7,1.9-4.7,4.9-4.7
				c1.1,0,1.9,0.2,2.3,0.4l-0.3,1c-0.5-0.2-1.1-0.4-2-0.4c-2.2,0-3.7,1.4-3.7,3.7c0,2.3,1.4,3.7,3.5,3.7c0.8,0,1.3-0.1,1.6-0.2v-2.7
				h-1.9v-0.9h3V50.5z"/>
			<path d="M273.3,46.6h-3.5v3.3h3.9v1h-5.1v-9.1h4.9v1h-3.7v2.9h3.5V46.6z"/>
		</g>
	</g>
</g>
<g id="Layer_1">
</g>
</svg>
