<?xml version="1.0" encoding="utf-8"?>
<!-- Generator: Adobe Illustrator 18.0.0, SVG Export Plug-In . SVG Version: 6.00 Build 0)  -->
<!DOCTYPE svg PUBLIC "-//W3C//DTD SVG 1.1//EN" "http://www.w3.org/Graphics/SVG/1.1/DTD/svg11.dtd">
<svg version="1.1" xmlns="http://www.w3.org/2000/svg" xmlns:xlink="http://www.w3.org/1999/xlink" x="0px" y="0px"
	 viewBox="0 0 300 36" style="enable-background:new 0 0 300 36;" xml:space="preserve">
<style type="text/css">
	.st0{fill-rule:evenodd;clip-rule:evenodd;}
	.st1{fill-rule:evenodd;clip-rule:evenodd;fill:#C038F9;}
	.st2{fill:none;}
	.st3{fill-rule:evenodd;clip-rule:evenodd;fill:#231F20;}
</style>
<g id="Layer_2">
</g>
<g id="Layer_1">
	<g>
		<g>
			<path d="M2.4,33.4l-2.4-9l1.6-0.5c3.3,5.4,7,8.1,11,8.1c3.3,0,5.4-2,5.4-5.1c0-1.4-0.6-2.7-1.6-3.5c-2.1-1.6-5.2-2.2-8.5-3.6
				c-4.8-2-7.1-4.8-7.1-8.7c0-4.9,3.8-8.8,8.9-8.8c2.1,0,4.1,0.5,6,1.7h0.4l1.6-1.2h1.1l2.1,8.4l-1.4,0.5c-3.3-5-6.2-7.5-9.6-7.5
				c-3,0-5,1.8-5,4.2c0,3.3,2.7,4.3,7.3,6c3.4,1.3,6,2.4,7.4,3.7c2,1.8,2.9,3.8,2.9,6.6c0,5.1-4.3,9-10,9c-2.2,0-4.6-0.5-6.6-1.6
				H5.4l-2,1.3H2.4z"/>
			<path d="M23,15.1c2.7-0.8,5.3-1.6,7.9-2.3v13.6c0,2.8,0.8,4.1,3,4.1c1.4,0,2.7-0.7,4.1-2v-9c0-2.2-0.3-3-2.6-3v-1.4
				c2.7-0.8,5.4-1.6,8-2.3v15.9c0,2.3,0.6,2.9,3.2,3v1.4c-2.6,0.1-5.4,0.3-8.3,0.6l-0.1-3.1c-2.4,2.1-4.6,3.1-7,3.1
				c-3.9,0-5.6-2.3-5.6-7.1v-6.6c0-2.6-0.3-3.4-2.4-3.4c0,0-0.1,0-0.2,0V15.1z"/>
			<path d="M49.7,31.6c0,0,0.1,0,0.2,0c2.3,0,2.5-0.8,2.5-3.4v-8.7c0-2.3-0.3-2.8-3.2-3V15c2.6-0.6,5.4-1.4,8.5-2.3l0,3.3
				c2.4-2.1,4.6-3.1,7-3.1c3.9,0,5.6,2.4,5.6,7.2v8.1c0,2.6,0.3,3.4,2.6,3.4v1.5H62.4v-1.4c2.2,0,2.4-1,2.4-3.6v-7.7
				c0-2.7-0.8-4.1-3.1-4.1c-1.3,0-2.5,0.7-4,1.9v10.1c0,2.6,0.3,3.4,2.6,3.4v1.4H49.7V31.6z"/>
			<path d="M74.6,31.6c3.5,0,3.8-1,3.8-4.4v-19c0-3.2-0.3-3.9-3.8-4V2.7h13.9v1.5c-3.3,0.1-3.7,0.9-3.7,4v8.4h11.7V8.2
				c0-3.1-0.3-3.9-3.7-4V2.7h13.8v1.5c-3.5,0.1-3.8,0.8-3.8,4v19c0,3.5,0.2,4.3,3.8,4.4v1.5H92.8v-1.5c3.6-0.2,3.7-1.1,3.7-4.6v-8.5
				H84.8v9.1c0,3.1,0.4,3.8,3.7,4v1.5H74.6V31.6z"/>
			<path d="M124.7,28.7c-2.3,3.3-5.5,4.9-9.5,4.9c-6.6,0-10.8-4.1-10.8-10.1c0-6.1,4.6-10.8,10.5-10.8c5.5,0,9.5,3.8,9.5,9.7
				c0,0,0,0.1,0,0.2h-14.1c0.2,5.3,2.9,8.3,7.1,8.3c2.5,0,4.6-1.1,6.2-3.1L124.7,28.7z M119,20.7c0-0.3,0-0.5,0-0.7
				c0-3.8-1.6-5.9-4.1-5.9c-2.6,0-4.7,2.4-4.7,6.4c0,0,0,0.1,0,0.2H119z"/>
			<path d="M125.3,31.6c0.1,0,0.2,0,0.3,0c2.1,0,2.3-0.8,2.3-3.4v-8.7c0-2.3-0.3-2.8-3.2-3V15c2.3-0.6,5.2-1.4,8.6-2.3v4.5
				c2.3-3,3.7-4.5,6-4.5c1.9,0,3.1,1.1,3.1,2.9c0,1.7-1.2,2.9-2.7,2.9c-1.5,0-2.6-1.3-3.5-1.3c-0.7,0-1.6,0.9-2.9,2.8v8.6
				c0,2.3,0.3,3,2.8,3c0,0,0.1,0,0.2,0v1.4h-11.1V31.6z"/>
			<path d="M162.5,31.2c-1.1,1.6-2.7,2.4-4.5,2.4c-1.8,0-2.9-0.8-4.1-2.9c-2.4,1.9-4.8,2.9-7.1,2.9c-3.6,0-5.9-2.1-5.9-5.2
				c0-4,4.3-6.8,12.8-8.1v-2.6c0-2.4-0.6-3.5-2.7-3.5c-1.8,0-2.4,0.9-3.3,2.7c-0.8,1.8-1.5,2.7-3.1,2.7c-1.4,0-2.4-1-2.4-2.4
				c0-2.7,3.3-4.7,9.2-4.7c3,0,5.4,0.8,6.6,2.2c0.9,1.1,0.9,2.6,0.9,4.7v7.9c0,2,0.3,3,1.4,3c0.3,0,0.8-0.1,1.3-0.4L162.5,31.2z
				 M153.8,22c-4.6,0.7-7,2.6-7,5.7c0,2.2,1.1,3.5,2.9,3.5c1.3,0,2.7-0.7,4.1-2.1V22z"/>
			<path d="M161.5,31.6c0.1,0,0.2,0,0.3,0c2.1,0,2.4-0.8,2.4-3.4V9.1c0-2.3-0.3-2.8-3.2-3V4.7c2.3-0.6,5.2-1.4,8.5-2.3v26.3
				c0,2.2,0.3,2.9,2.6,3v1.4h-10.7V31.6z"/>
			<path d="M193.1,33.1c-2.5,0-4.9,0.2-7.2,0.6h-0.5l-0.2-2.5c-1.6,1.7-3.5,2.5-5.7,2.5c-4.3,0-8-4.1-8-10.2
				c0-6.3,3.8-10.7,8.8-10.7c1.7,0,3.2,0.6,4.8,1.9V9c0-2.3-0.1-2.9-3-3.1V4.6l8.4-2.2v26c0,2.2,0.1,2.9,2.5,3.2V33.1z M185.2,16.8
				c-1-1.1-2.3-1.8-3.6-1.8c-2.7,0-4.1,2.7-4.1,7.9c0,5.6,1.2,8.4,4.1,8.4c1.3,0,2.5-0.7,3.6-2.1V16.8z"/>
			<path d="M226.6,28c-1.9,3.8-5.1,5.7-9.2,5.7c-5.6,0-9.6-4.1-9.6-9.5c0-3,1.1-5.8,3.2-8c2.2-2.2,4.9-3.4,8-3.4
				c4.4,0,7.1,2.2,7.1,4.8c0,1.4-1.1,2.4-2.6,2.4c-1.7,0-2.8-1-3.2-3c-0.3-1.6-0.4-2.8-2.2-2.8c-2.7,0-4.6,2.7-4.6,7.6
				c0,5.7,2.4,8.9,6.2,8.9c2.2,0,4.1-1.2,5.8-3.5L226.6,28z"/>
			<path d="M237.5,12.8c5.6,0,9.8,4.6,9.8,10.6c0,5.7-4.3,10.3-10.1,10.3s-10.1-4.5-10.1-10.6C227.1,17.2,231.5,12.8,237.5,12.8z
				 M237.1,32.3c3,0,4.2-2.8,4.2-8.8c0-6.2-0.8-9.2-4.1-9.2c-3.1,0-4.3,3-4.3,9.1C232.9,29.3,234.4,32.3,237.1,32.3z"/>
			<path d="M270.5,33.1h-10.4v-1.4c2.2,0,2.4-0.9,2.4-3.6v-7.7c0-2.7-0.8-4.1-3.1-4.1c-1.3,0-2.5,0.7-4,1.9v10.5c0,2.2,0.3,3,2.6,3
				v1.4h-10.7v-1.5c0.1,0,0.2,0,0.3,0c2.1,0,2.4-0.8,2.4-3.4v-8.7c0-2.3-0.3-2.8-3.2-3V15c2.7-0.7,5.6-1.4,8.5-2.3l0,3.3
				c2.4-2.1,4.7-3.1,7.1-3.1c2.5,0,4.1,1.2,5.1,3.6c2.7-2.3,5.1-3.6,7.6-3.6c3.9,0,5.5,2.4,5.5,7.2v8.1c0,2.6,0.3,3.4,2.6,3.4v1.5
				h-10.4v-1.4c2.3,0,2.4-0.9,2.4-3.6v-7.7c0-2.7-0.8-4.1-3.1-4.1c-1.4,0-2.7,0.8-4.3,2.2v9.8c0,2.6,0.3,3.4,2.6,3.4V33.1z"/>
		</g>
		<path d="M200,19.9c-3.2,0-5.7,2.6-5.7,5.7c0,3.2,2.6,5.7,5.7,5.7c0.8,0,1.6-0.2,2.3-0.5l-2.2-2.7h-0.9V28c0.3,0,0.5-0.1,0.5-0.2
			c0.1-0.1,0.1-0.3,0.1-0.5v-3c0-0.5,0-0.6-0.6-0.6v-0.2h2.2v0.2c-0.5,0-0.6,0.1-0.6,0.6v1.3h1.8v-1.3c0-0.5-0.1-0.6-0.6-0.6v-0.2
			h2.2v0.2c-0.6,0-0.6,0.1-0.6,0.6v3c0,0.5,0,0.7,0.6,0.7v0.2h-1.6l2,0.7c0.7-0.9,1-2.1,1-3.3C205.7,22.5,203.2,19.9,200,19.9z
			 M197.4,28.3c-0.4,0-0.7-0.1-1-0.3h-0.1l-0.3,0.2h-0.2l-0.4-1.4l0.3-0.1c0.5,0.9,1.1,1.3,1.7,1.3c0.5,0,0.9-0.3,0.9-0.8
			c0-0.2-0.1-0.4-0.3-0.5c-0.3-0.3-0.8-0.3-1.3-0.6c-0.8-0.3-1.1-0.8-1.1-1.4c0-0.8,0.6-1.4,1.4-1.4c0.3,0,0.6,0.1,0.9,0.3h0.1
			l0.3-0.2h0.2l0.3,1.3l-0.2,0.1c-0.5-0.8-1-1.2-1.5-1.2c-0.5,0-0.8,0.3-0.8,0.7c0,0.5,0.4,0.7,1.1,0.9c0.5,0.2,0.9,0.4,1.2,0.6
			c0.3,0.3,0.5,0.6,0.5,1C199,27.7,198.3,28.3,197.4,28.3z M200.8,25.9v1.4c0,0.1,0,0.1,0,0.2l1.3,0.5v0c0.6,0,0.6-0.2,0.6-0.7v-1.3
			H200.8z"/>
	</g>
</g>
</svg>
