<?xml version="1.0" encoding="utf-8"?>
<!-- Generator: Adobe Illustrator 18.0.0, SVG Export Plug-In . SVG Version: 6.00 Build 0)  -->
<!DOCTYPE svg PUBLIC "-//W3C//DTD SVG 1.1//EN" "http://www.w3.org/Graphics/SVG/1.1/DTD/svg11.dtd">
<svg version="1.1" xmlns="http://www.w3.org/2000/svg" xmlns:xlink="http://www.w3.org/1999/xlink" x="0px" y="0px"
	 viewBox="0 0 300 59.7" style="enable-background:new 0 0 300 59.7;" xml:space="preserve">
<style type="text/css">
	.st0{fill-rule:evenodd;clip-rule:evenodd;}
	.st1{fill-rule:evenodd;clip-rule:evenodd;fill:#C038F9;}
	.st2{fill:none;}
	.st3{fill-rule:evenodd;clip-rule:evenodd;fill:#231F20;}
</style>
<g id="Layer_2">
</g>
<g id="Layer_1">
	<g>
		<path class="st0" d="M37.9,27.9H27.2v-0.7c2.8,0,3.4-1.2,3.4-2.3V4.1h-2.8c-2.8,0-4.6-0.8-5.5,4.1h-0.7l0-5.7h21.7l0,5.7h-0.7
			c-0.8-4.9-2.6-4.1-5.5-4.1h-2.8v20.7c0,1.1,0.6,2.3,3.4,2.3V27.9L37.9,27.9z"/>
		<path class="st0" d="M58.2,17.4v-6.5c0-0.8-0.4-1.8-2.6-1.8V8.5h8.1v0.6c-2.1,0-2.6,0.9-2.6,1.8v14.7c0,0.8,0.4,1.8,2.6,1.8v0.6
			h-8.1v-0.6c2.1,0,2.6-0.9,2.6-1.8v-7h-8.9v7c0,0.8,0.4,1.8,2.6,1.8v0.6h-8.1v-0.6c2.1,0,2.6-0.9,2.6-1.8V10.9
			c0-0.8-0.4-1.8-2.6-1.8V8.5h8.1v0.6c-2.1,0-2.6,0.9-2.6,1.8v6.5H58.2L58.2,17.4z"/>
		<path class="st0" d="M64.7,27.9v-0.6c2.1,0,2.6-0.9,2.6-1.8V10.9c0-0.8-0.4-1.8-2.6-1.8V8.5h15.5v4.2h-0.6c-0.3-1.6-1.3-3-3.3-3
			h-4.7c-0.7,0-1.3,0.4-1.3,1.1v6.3h2.1c2,0,3.6-0.5,3.6-2.8h0.4v6.8h-0.4c0-2.3-1.7-2.8-3.6-2.8h-2.1v7.2c0,0.5,0.2,1.1,0.8,1.1
			h3.9c2.3,0,3.5,0,5.1-3.7h0.8l-0.3,4.9H64.7L64.7,27.9z"/>
		<path class="st0" d="M128.9,17.4v-6.5c0-0.8-0.4-1.8-2.6-1.8V8.5h8.1v0.6c-2.1,0-2.6,0.9-2.6,1.8v14.7c0,0.8,0.4,1.8,2.6,1.8v0.6
			h-8.1v-0.6c2.1,0,2.6-0.9,2.6-1.8v-7H120v7c0,0.8,0.4,1.8,2.6,1.8v0.6h-8.1v-0.6c2.1,0,2.6-0.9,2.6-1.8V10.9
			c0-0.8-0.4-1.8-2.6-1.8V8.5h8.1v0.6c-2.1,0-2.6,0.9-2.6,1.8v6.5H128.9L128.9,17.4z"/>
		<path class="st0" d="M151.4,25.7l-5.8-7.1c2.7-0.4,5.3-1.8,5.3-4.9c0-3.4-2.9-5.1-7.8-5.1h-7.7v0.6c2,0,2.5,0.9,2.5,1.8v14.7
			c0,0.8-0.4,1.8-2.5,1.8v0.6h8v-0.6c-2.1,0-2.6-0.9-2.6-1.8V19l1.6-0.1l7,9h4.7v-0.6C152.8,27.3,152.2,26.7,151.4,25.7z
			 M140.8,17.9V11c0-1.4,0.3-1.4,2.2-1.4c2.6,0,4.7,1.2,4.7,4C147.7,16.8,145.1,17.7,140.8,17.9z"/>
		<path class="st0" d="M160.4,25.6c0,0.8,0.4,1.8,2.9,1.8v0.6h-8.7v-0.6c2.4,0,2.9-0.9,2.9-1.8V10.9c0-0.8-0.4-1.8-2.9-1.8V8.5h8.7
			v0.6c-2.4,0-2.9,0.9-2.9,1.8V25.6L160.4,25.6z"/>
		<path class="st0" d="M163.9,22h0.7c0.9,2.7,3,5.2,6.1,5.2c2.4,0,4-2,3.3-4.3c-1.2-4.1-9.2-4.3-9.2-9.9c0-2.9,2.3-4.9,5.2-4.9
			c3.1,0,4.5,2.2,5.2,0h0.6l0.6,6.2h-0.7c-0.7-2.7-2.6-5-5.3-5c-1.8,0-3.1,1-3.1,2.8c0,1.7,1.8,2.9,3.1,3.7c4,2.4,6.7,3.7,6.7,7.2
			c0,2.6-2.2,5.4-6.2,5.4c-3,0-5.1-2.1-5.4,0h-0.6L163.9,22L163.9,22z"/>
		<path class="st0" d="M190.7,27.9h-8.1v-0.6c2.1,0,2.6-0.9,2.6-1.8V9.8H183c-2.2,0-3.5,0-4.2,3.7h-0.7l0.2-5h16.6l0.2,5h-0.7
			c-0.6-3.7-2-3.7-4.2-3.7h-2.1v15.8c0,0.8,0.4,1.8,2.6,1.8V27.9L190.7,27.9z"/>
		<path class="st0" d="M201.9,25.6c0,0.8,0.4,1.8,2.9,1.8v0.6h-8.7v-0.6c2.4,0,2.9-0.9,2.9-1.8V10.9c0-0.8-0.4-1.8-2.9-1.8V8.5h8.7
			v0.6c-2.4,0-2.9,0.9-2.9,1.8V25.6L201.9,25.6z"/>
		<path class="st0" d="M223.2,24.5L216,8.1h-0.6l-5.9,14.1c-1.2,2.8-2,5-3.8,5.1v0.6h5.8v-0.6c-1,0-2-0.3-2-1.2
			c0-1.1,1.2-3.4,1.6-4.5h7.7l1,2.5c1.1,2.6,1.1,3.2-1.3,3.3v0.6h7.5v-0.6C224.3,27.4,223.7,25.7,223.2,24.5z M212.1,20.4l3.4-8
			l3.4,8H212.1z"/>
		<path class="st0" d="M244.3,28.3h-0.4l-13-16.1v13.4c0,0.8,0.4,1.8,2.8,1.8v0.6h-7v-0.6c2.4,0,2.8-0.9,2.8-1.8V10.7l-0.2-0.3
			c-0.9-1-1.2-1.3-2.6-1.3V8.5h5L243,22.6V10.9c0-0.8-0.4-1.8-2.8-1.8V8.5h7v0.6c-2.4,0-2.8,0.9-2.8,1.8V28.3L244.3,28.3z"/>
		<path class="st0" d="M0,49.4h0.9c1.2,3.6,3.9,6.8,7.9,6.8c3.1,0,5.2-2.7,4.3-5.7c-1.6-5.4-12.1-5.6-12.1-12.9c0-3.8,3-6.4,6.8-6.4
			c4.1,0,5.9,2.8,6.8,0h0.8l0.8,8.2h-1c-0.9-3.6-3.4-6.6-7-6.6c-2.3,0-4,1.3-4,3.7c0,2.2,2.4,3.8,4.1,4.8c5.2,3.1,8.8,4.8,8.8,9.4
			c0,3.5-2.9,7-8.1,7c-4,0-6.8-2.8-7.1,0H1.2L0,49.4L0,49.4z"/>
		<path class="st0" d="M22.2,47.4c0-5.3,2.1-8.8,6.9-8.8c3.3,0,5.5,2.2,6.3,5.4h0.7l-0.3-6.6h-0.6c-1,2.4-2.4,0-6.4,0
			c-5.9,0-10,4.2-10,10c0,5.8,4.1,10,10,10c4,0,5.5-2.4,6.4,0h0.6l0.3-6.6h-0.7c-0.8,3.2-3,5.4-6.3,5.4
			C24.3,56.3,22.2,52.7,22.2,47.4L22.2,47.4z"/>
		<path class="st0" d="M43.7,54.8c0,0.8,0.4,1.8,2.9,1.8v0.6h-8.7v-0.6c2.4,0,2.9-0.9,2.9-1.8V40.1c0-0.8-0.4-1.8-2.9-1.8v-0.6h8.7
			v0.6c-2.4,0-2.9,0.9-2.9,1.8V54.8L43.7,54.8z"/>
		<path class="st0" d="M82.4,57.6H82L69,41.4v13.4c0,0.8,0.4,1.8,2.8,1.8v0.6h-7v-0.6c2.4,0,2.8-0.9,2.8-1.8V40l-0.2-0.3
			c-0.9-1-1.2-1.3-2.6-1.3v-0.6h5l11.3,14.1V40.1c0-0.8-0.4-1.8-2.8-1.8v-0.6h7v0.6c-2.4,0-2.8,0.9-2.8,1.8V57.6L82.4,57.6z"/>
		<path class="st0" d="M160.8,54.1c0,1.1,0.6,2.3,3.4,2.3v0.7h-10.7v-0.7c2.8,0,3.4-1.2,3.4-2.3V35.3L147,57.2h-0.5l-9.6-21v17.9
			c0,1.1,0.6,2.3,3.7,2.3v0.7h-9.1v-0.7c3.1,0,3.7-1.2,3.7-2.3V34.8c0-1.1-0.6-2.3-3.6-2.3v-0.7h7.6l8.9,19.4l8.5-19.4h7.6v0.7
			c-2.8,0-3.4,1.2-3.4,2.3L160.8,54.1L160.8,54.1z"/>
		<path class="st0" d="M173.8,37.4c-5.7-0.1-9.6,4.3-9.6,10.1c0,6.2,4.4,10.1,9.6,10.1c5.8,0,9.6-4.4,9.6-10.1
			C183.4,41.2,178.9,37.1,173.8,37.4z M173.8,56.5c-3.4,0.3-6.3-3-6.3-9c0-5.6,1.9-8.8,6.3-9c4.5-0.1,6.3,4.4,6.3,9
			C180.2,50.6,179,56.1,173.8,56.5z"/>
		<path class="st0" d="M201.1,57.6h-0.4l-13-16.1v13.4c0,0.8,0.4,1.8,2.8,1.8v0.6h-7v-0.6c2.4,0,2.8-0.9,2.8-1.8V40l-0.2-0.3
			c-0.9-1-1.2-1.3-2.6-1.3v-0.6h5l11.3,14.1V40.1c0-0.8-0.4-1.8-2.8-1.8v-0.6h7v0.6c-2.4,0-2.8,0.9-2.8,1.8V57.6L201.1,57.6z"/>
		<path class="st0" d="M210.7,54.8c0,0.8,0.4,1.8,2.9,1.8v0.6h-8.7v-0.6c2.4,0,2.9-0.9,2.9-1.8V40.1c0-0.8-0.4-1.8-2.9-1.8v-0.6h8.7
			v0.6c-2.4,0-2.9,0.9-2.9,1.8V54.8L210.7,54.8z"/>
		<path class="st0" d="M227,57.2h-8.1v-0.6c2.1,0,2.6-0.9,2.6-1.8V39h-2.1c-2.2,0-3.5,0-4.2,3.7h-0.7l0.2-5h16.6l0.2,5h-0.7
			c-0.6-3.7-2-3.7-4.2-3.7h-2.1v15.8c0,0.8,0.4,1.8,2.6,1.8V57.2L227,57.2z"/>
		<path class="st0" d="M242.1,37.4c-5.7-0.1-9.6,4.3-9.6,10.1c0,6.2,4.4,10.1,9.6,10.1c5.8,0,9.6-4.4,9.6-10.1
			C251.7,41.2,247.2,37.1,242.1,37.4z M242.1,56.5c-3.4,0.3-6.3-3-6.3-9c0-5.6,1.9-8.8,6.3-9c4.5-0.1,6.3,4.4,6.3,9
			C248.5,50.6,247.3,56.1,242.1,56.5z"/>
		<path class="st0" d="M267.6,55l-5.8-7.1c2.8-0.4,5.3-1.8,5.3-4.9c0-3.4-2.9-5.1-7.8-5.1h-7.7v0.6c2,0,2.5,0.9,2.5,1.8v14.7
			c0,0.8-0.4,1.8-2.5,1.8v0.6h8v-0.6c-2.1,0-2.6-0.9-2.6-1.8v-6.6l1.6-0.1l7,9h4.7v-0.6C269.1,56.5,268.4,55.9,267.6,55z
			 M257.1,47.1v-6.8c0-1.4,0.3-1.4,2.2-1.4c2.6,0,4.7,1.1,4.7,4C264,46.1,261.4,47,257.1,47.1z"/>
		<path class="st0" d="M47.5,57.2v-0.6c2.1,0,2.6-0.9,2.6-1.8V40.1c0-0.8-0.4-1.8-2.6-1.8v-0.6H63V42h-0.6c-0.3-1.6-1.3-3-3.3-3
			h-4.7c-0.7,0-1.3,0.4-1.3,1.1v6.3h2.1c2,0,3.6-0.5,3.6-2.8h0.4v6.8h-0.4c0-2.3-1.7-2.8-3.6-2.8h-2.1v7.2c0,0.5,0.2,1.1,0.8,1.1
			h3.9c2.3,0,3.5,0,5.1-3.7h0.8l-0.3,4.9H47.5L47.5,57.2z"/>
		<path class="st0" d="M104,57.2v-0.6c2.1,0,2.6-0.9,2.6-1.8V40.1c0-0.8-0.4-1.8-2.6-1.8v-0.6h15.5V42h-0.6c-0.3-1.6-1.3-3-3.3-3
			h-4.7c-0.7,0-1.3,0.4-1.3,1.1v6.3h2.1c2,0,3.6-0.5,3.6-2.8h0.4v6.8h-0.4c0-2.3-1.7-2.8-3.6-2.8h-2.1v7.2c0,0.5,0.2,1.1,0.8,1.1
			h3.9c2.3,0,3.5,0,5.1-3.7h0.8l-0.3,4.9H104L104,57.2z"/>
		<path class="st0" d="M88.5,47.4c0-5.3,2.1-8.8,6.9-8.8c3.3,0,5.5,2.2,6.3,5.4h0.7l-0.3-6.6h-0.6c-1,2.4-2.4,0-6.4,0
			c-5.9,0-10,4.2-10,10c0,5.8,4.1,10,10,10c4,0,5.5-2.4,6.4,0h0.6l0.3-6.6h-0.7c-0.8,3.2-3,5.4-6.3,5.4
			C90.6,56.3,88.5,52.7,88.5,47.4L88.5,47.4z"/>
		<path class="st0" d="M95,15.1c0-6.8,2.7-11.4,8.9-11.4c4.3,0,7.1,2.8,8.2,7h0.9l-0.3-8.5h-0.8c-1.2,3.1-3.1,0-8.3,0
			c-7.6,0-12.9,5.4-12.9,13c0,7.5,5.3,13,12.9,13c5.2,0,7.1-3.1,8.3,0h0.8l0.3-8.5h-0.9c-1.1,4.2-3.9,7-8.2,7
			C97.7,26.5,95,21.9,95,15.1L95,15.1z"/>
	</g>
</g>
</svg>
