<?xml version="1.0" encoding="utf-8"?>
<!-- Generator: Adobe Illustrator 18.0.0, SVG Export Plug-In . SVG Version: 6.00 Build 0)  -->
<!DOCTYPE svg PUBLIC "-//W3C//DTD SVG 1.1//EN" "http://www.w3.org/Graphics/SVG/1.1/DTD/svg11.dtd">
<svg version="1.1" xmlns="http://www.w3.org/2000/svg" xmlns:xlink="http://www.w3.org/1999/xlink" x="0px" y="0px"
	 viewBox="0 0 300 100" style="enable-background:new 0 0 300 100;" xml:space="preserve">
<style type="text/css">
	.st0{fill-rule:evenodd;clip-rule:evenodd;}
	.st1{fill-rule:evenodd;clip-rule:evenodd;fill:#C038F9;}
	.st2{fill:none;}
	.st3{fill-rule:evenodd;clip-rule:evenodd;fill:#231F20;}
</style>
<g id="Layer_2">
</g>
<g id="Layer_1">
	<g>
		<path class="st0" d="M61.4,59L61,58.6c-2.1,2.3-3.1,2.9-4.7,2.9c-1.2,0-2.6-0.8-4.5-2.6v-5.5l9.6-7.3l-6.6-6.5
			c-2.9,2.3-3.3,2.7-5.4,4.3c-1.2,0.9-1.8,1.3-2.5,1.6c0.1,0.8,0.3,2,0.3,2.7v12.2c-1.1,1-2.2,1.5-3,1.5c-1.1,0-1.9-0.7-1.9-1.8
			V43.9c-0.7-2.1-1.9-3.4-4.4-4.3l-6.1,4.9V33.1c0-1.7,0.9-3.2,1.8-3.6v-0.2c-2.5,0-4.2,1.6-5,3.5l-1-2.2l-0.4,0.1V60
			c-2.4,1.3-5,2.7-7.9,2.7c-0.5,0-1,0-1.6-0.1V37.5c1.3,0.1,2.1,0.2,2.8,0.2c1.1,0,1.8-0.2,2.4-0.5l3.3-6.7l-0.5-0.1
			c-1.3,2.5-2,2.9-4.7,2.9c-1.3,0-4.1-0.3-6.9-0.7C11.5,32.3,8.8,32,7.4,32c-4.2,0-6.5,2.9-6.5,5.8c0,1.2,0.4,2.4,1.2,3.5l0.5-0.4
			c-0.5-0.7-0.9-1.5-0.9-2.2c0-1.2,0.9-2.3,3.5-2.3c1,0,4.6,0.3,7.9,0.6c-3.8,1.9-6.9,3.9-10.6,6.7C0.8,45.8,0,48.6,0,51.4
			c0,7.2,5.5,15,17.6,15c3.5-2,8.7-5,8.7-5l4.8,4.3l3.3-3.3l-2.6-2.7V45.8c1.2-1.6,2.4-2.2,3.4-2.2c1.2,0,2.2,0.8,2.5,2.2v16.8
			c0.4,1.4,2.1,2.7,3.7,3.2l6-4.5l6.9,4.7L61.4,59L61.4,59z M57.2,48.3l-5.4,4.3v-9.4l0.2-0.2L57.2,48.3L57.2,48.3z M17.2,62.5
			c-3.4-0.4-6.2-1.7-8.3-3.6c4.1-3,5.1-4.7,5.1-8.1V37.3l0.1-0.1c1.3,0.1,2.1,0.2,3.1,0.3V62.5L17.2,62.5z M9.5,54.1
			c0,2-0.3,3.2-1.4,4.2C5.7,55.7,4.3,52.1,4.3,48c0-2.2,0.4-4,1.2-5.2c1.3-1.2,2.9-2.3,4-2.9V45V54.1L9.5,54.1z"/>
		<path class="st0" d="M121.6,43.7l-7.7-4.2c-2.3,2.3-5.3,4.2-8.7,6.1c0.5,1.4,0.3,3.2,0.3,5.5c0,5.6,0.1,8.6-0.9,10l8.5,5.2
			c2.3-2.4,4.8-4.3,8.3-6.1c-0.3-0.9-0.4-1.7-0.4-2.5v-9.5C121,45.3,121.2,44.3,121.6,43.7L121.6,43.7L121.6,43.7z M102.5,49.5
			l-6-3.9c2.3-1.4,3-1.8,3.8-2.4c1.4-1,1.8-1.6,1.8-2.2c0-0.4-0.2-1.3-1.3-2.9c-1.3-2-2.6-3.9-5.3-7.7c-3.7,2.5-5.8,4-9.7,7.1
			c-1.6,1.3-2.8,3.3-2.8,5.8c0,0.9,0.1,5.3,0.1,8.3c0,2.3-0.4,3.5-2.8,5.5c-5.8,0-9.3,3.7-9.3,7.5c0,1.6,0.5,3.3,1.7,4.6l0.4-0.4
			c-0.8-0.8-1.3-2.1-1.3-3.5c0-2,1.4-4.2,6.1-4.2c5.1,0,9.8,3.5,12.5,5.1c3.9-3.3,6.4-4.7,11.5-6.4v-8.5
			C102,50.6,102.1,50,102.5,49.5L102.5,49.5L102.5,49.5z M88.5,32.6l-0.1-0.4c-2.8,0-4.3-0.3-5.8-0.6c-1.4-0.2-2.6-0.5-4.3-0.5
			c-4.4,0-7.3,2.3-7.3,5.9c0,1.6,0.3,2.4,1.3,3.5l0.4-0.4c-0.5-0.7-0.8-1.3-0.8-2.1c0-1.6,1.3-3,4.3-3c2.2,0,4.2,0.4,5.9,0.8
			c-3.7,2.7-6,4.7-6,10.6c-0.5-0.2-1.3-0.3-2.3-0.3c-2.8,0-4.3,1.8-4.3,3.7c0,0.8,0.2,1.7,0.7,2.3l0.5-0.3c-0.2-0.4-0.3-0.8-0.3-1.2
			c0-1.2,0.9-2.1,2.7-2.1c1.5,0,2.7,0.7,3.2,1.6c0,4-0.8,6.1-2.9,6.1v0.4c3.2,0,7.1-2.3,7.1-6.1v-7.5C80.5,37,84.1,34.1,88.5,32.6
			L88.5,32.6L88.5,32.6z M116.2,62.7l-0.3,0.2l-5.3-3.2V42.8l5.5,3.1V62.7L116.2,62.7z M97.3,43c0,1.4-1.3,2.2-5.8,5v-4.3
			c0-2.1,0.1-3.3,0.2-4.2h-0.9c0.1,0.9,0.2,2.1,0.2,4.2v17c-2.8-1.7-6.2-3.4-9.8-3.6c3.4-2,6.8-4.6,6.8-8.3v-8.3
			c0-2.7,1.1-4.3,3.9-6.7c2.2,3.3,3.1,4.7,4.8,7.6C97,42,97.3,42.7,97.3,43L97.3,43L97.3,43z M96.5,51.4L96.4,61
			c-1,0.5-1.7,0.9-2.6,1.5c-0.8-0.5-1.5-0.9-2.3-1.4V48.6L96.5,51.4L96.5,51.4z"/>
		<path class="st0" d="M194.3,61.3l-0.5-0.5l-2.3,2c-1.1,0-1.9-0.8-1.9-2.1c0-1.1,0.1-14.3,0.1-16.6c-0.9-1.7-2-3.1-4.5-3.9
			l-6.1,4.5c0-1.8-1.1-3.5-3.1-4.6l-3.5,3l1.9,2c0,0-0.1,11.7-0.1,13.7c0,2-1.4,3.3-1.4,3.3l5.5,4.1l3-3.6l-2.2-2V45.8
			c1-1.4,2.2-2,3.2-2c1.2,0,2.1,0.8,2.3,2c0.1,0.9,0.1,2.2,0.1,3.7c0,2.3,0,10.3-0.1,13.4c0.4,1.4,2.5,3.4,3.8,3.4L194.3,61.3
			L194.3,61.3z M170,60.4c-0.3-0.9-0.3-1.7-0.3-2.5v-14l-7.3-4.1c-2.3,2.3-5,4-8.4,5.9c0.2,0.7,0.3,1.7,0.3,2.5v11.8
			c-1,1.2-2.1,1.8-3.1,1.8c-0.9,0-1.8-0.4-2.9-1.5c0-0.9,0.1-11.1,0.1-17.3h5.2v-1.3l-5.2-0.2c0,0,0-4.9,0.1-5.9H148l-7.3,7.7
			c-3.1-0.5-5.5-1.6-8.9-3.9c-2.7,2.7-4.5,4-7.7,5.5c0.1,1.6,0.2,2.5,0.2,4.1c0,1.9,0,2.5-0.1,4.1l4.3,3l-4,4.2
			c-1.7,1.8-2.4,3.3-2.4,4.8c0,1.3,0.5,2.4,1.3,3.4l0.5-0.3c-0.5-0.8-0.9-1.7-0.9-2.6c0-1.4,0.7-2.6,2.8-2.6c2.1,0,4.3,1.3,6.6,3.1
			c2.5-2.3,4.4-3.9,7.2-5.3V54c0-0.8,0.1-1.2,0.3-1.7l-4.3-2.9l5.5-5.9h2.6c0,6.1-0.1,13.9-0.1,14.7c0,1.1-0.2,2.4-0.9,3.5l6.1,4.5
			l5.2-4.7l7.6,4.9C164.4,63.7,166.8,61.9,170,60.4L170,60.4L170,60.4z M164.8,62.8l-0.3,0.2l-5.3-3.3V43.1l5.6,3.3V62.8L164.8,62.8
			z M137.3,46.6l-5.6,6.1l-2.5-1.8v-8.1C131.7,44.5,133.2,45.5,137.3,46.6L137.3,46.6L137.3,46.6z M135.1,62.7
			c-1.9-1.7-4.6-3.2-8.9-3.2l6.5-6.9l2.2,2L135.1,62.7L135.1,62.7z"/>
		<path class="st0" d="M261.9,43.4l-8-4.2c-2.5,2.3-4.9,3.9-8.1,5.6c0.2,0.6,0.4,3.1,0.4,4.6l0,11c-0.8,0.8-1.5,1.2-2.2,1.2
			c-0.8,0-1.6-0.3-2.6-1V33.9c0-1.6,0.9-3.4,2.1-3.4v-0.2c-2.5,0-4.7,1.1-5.3,3c-0.6-1-1.6-1.9-3-1.9l0,0.3c0.8,0,1.6,2.2,1.6,4.4
			v21.5c0,2.1-0.3,3.1-1.1,4.3l5.3,3.9l5-4.3l7.7,4.7c2.9-2.7,4.7-4.3,8-6.3c-0.2-1-0.3-2.9-0.3-3.7v-9.5
			C261.5,44.9,261.6,44.1,261.9,43.4L261.9,43.4L261.9,43.4z M233.1,33.1l-0.6-0.5l-2.2,2.3c0,0-5.7-1.8-10.3-4.5
			c-6.3,4.8-11.1,8.2-17.3,12.6c-1.5,2.2-2.3,5.1-2.3,8.2c0,8.6,7.9,15.2,17.8,15.2c6.5-2.7,11.1-6.5,14.5-11.1
			c0.2-0.9,0.3-2.3,0.3-3c0-6.2-4.2-9.7-8.7-10.8L233.1,33.1L233.1,33.1z M256.9,62.2l-0.4,0.3l-5.7-3.6v-16l6,2.9L256.9,62.2
			L256.9,62.2z M226.1,38.8l-7.1,6.4v-9.8C221.5,36.3,223.7,37.5,226.1,38.8L226.1,38.8L226.1,38.8z M228.7,54.6
			c0,2-0.2,3.3-0.7,4.9c-1.9,2-4.8,3.1-8.1,3.1h-0.9V45.4c0.6-0.1,1.1-0.1,1.7-0.1C225.4,45.3,228.7,49.6,228.7,54.6L228.7,54.6
			L228.7,54.6z M218.2,62.5c-3.5-0.3-6.3-1.4-8.4-3.3c3.3-2.3,5.3-3.4,5.3-6.9V35.1l1-0.8c0.7,0.3,1.3,0.5,2.1,0.8V62.5L218.2,62.5z
			 M211.1,54.8c0,1.8-0.5,2.9-1.7,3.9c-2.7-2.7-4.1-6.4-4.1-10.2c0-5.6,2-7.7,4.6-9.7c0.4-0.3,0.8-0.6,1.2-0.9V54.8L211.1,54.8z"/>
		<path class="st0" d="M298.8,59l-0.4-0.4c-2.1,2.1-3.3,2.9-4.5,2.9c-1.2,0-2.3-0.7-4.7-2.6v-5.5l9.4-7.6c-2.2-1.9-6.8-6.4-6.8-6.4
			c-2.5,2.3-4,3.5-7.6,6c0.1,0.7,0.3,1.7,0.3,2.5v10.6c0,0.7-0.1,1.3-0.4,2.1l7.4,5.2L298.8,59L298.8,59z M280.7,60.3
			c-0.3-3-0.3-11.1-0.3-15c0-2.5-2.1-4.3-4.8-5.4l-5.5,4.6v-10c0-1.7,1-3.5,2.2-3.5v-0.3c-2.6,0-5.5,2.1-6,3.4c-0.6-1-2-1.6-3.3-1.6
			l-0.1,0.5c1.3,0,2.6,2.3,2.6,6.3c0,8.1-0.1,15.8-0.1,19.2c0,1.1-0.1,1.8-0.7,2.7l8.2,5C276.2,63.3,277.4,62.4,280.7,60.3
			L280.7,60.3z M294.4,48.2l-5.1,4.2v-9.5L294.4,48.2L294.4,48.2z M276.1,53.8c0,2.9-0.1,8.7-0.1,8.9l-0.2,0.2l-5.5-3.5V45.8
			c0.9-1.3,2.1-2,3.1-2c1.3,0,2.2,0.9,2.7,2.2C276,46.5,276.1,50,276.1,53.8L276.1,53.8L276.1,53.8z"/>
	</g>
</g>
</svg>
