<?xml version="1.0" encoding="utf-8"?>
<!-- Generator: Adobe Illustrator 18.0.0, SVG Export Plug-In . SVG Version: 6.00 Build 0)  -->
<!DOCTYPE svg PUBLIC "-//W3C//DTD SVG 1.1//EN" "http://www.w3.org/Graphics/SVG/1.1/DTD/svg11.dtd">
<svg version="1.1" xmlns="http://www.w3.org/2000/svg" xmlns:xlink="http://www.w3.org/1999/xlink" x="0px" y="0px"
	 viewBox="0 0 300 62" style="enable-background:new 0 0 300 62;" xml:space="preserve">
<style type="text/css">
	.st0{fill-rule:evenodd;clip-rule:evenodd;}
	.st1{fill-rule:evenodd;clip-rule:evenodd;fill:#C038F9;}
	.st2{fill:none;}
	.st3{fill-rule:evenodd;clip-rule:evenodd;fill:#231F20;}
</style>
<g id="Layer_2">
</g>
<g id="Layer_1">
	<g>
		<path d="M94.5,3.2c-0.5,1.5-2,2.8-3.5,3.1c-2.5,0.3-5.2-0.3-6.5-2.6l-0.3,0.3L70.3,17.4c-0.1-3.4,2.2-5.9,4.3-8.4
			c0.5-0.7,1.3-0.9,1.7-1.5c-2.9,0.5-5.2,2.8-7.3,5c-2.8,3.8-3.8,8.7-3.2,13.5c-0.1,4.6,3.2,8.6,7.1,10.8c4.3,2,10.5,2,14.3-1
			c3.2-2.6,5.4-5.9,5.3-9.9c-0.7,1.7-2.2,3.3-3.7,4.5l0.3-19c1.5-0.4,2.8-1.4,4-2.5C94.5,7.5,95.4,5.3,94.5,3.2L94.5,3.2z
			 M203.6,4.8c1.1-0.2,2.1-0.7,3-1.2c0,2.1-1,4.5-3.1,5.5c-2.2,1.3-5.5,0.7-8,0.3c-0.6,0-1.2,0.3-1.3,0.9c0,0.6,0,1.2,0.3,1.7
			c-0.9-0.3-1.9-0.8-2.3-1.8c-0.6-1.5-0.6-3.7,0.4-5.1c1.5-1.5,3.7-2.3,5.7-1.6C200,3.9,201.5,5.5,203.6,4.8L203.6,4.8z M220.5,3.6
			c-0.1,0.4-0.4,0.7-0.7,0.9c-2.9,1-5.8-0.7-8.8-0.2c-2.5,0.7-4,3.4-4.5,5.7l-0.5,20.7c-4.2-0.6-8.6-0.2-11.4,3.2
			c-1.4,1.6-0.9,4.4-0.2,6.2c1.1,1.7,2.9,2.5,5,2.1c1.3-0.5,2.7-1.6,3.2-2.9c-0.6,0.8-1.5,1.2-2.3,1.5c-1.4,0.5-3,0.1-4-1
			c-0.8-0.9-0.7-2.4-0.3-3.5c0.4-0.9,1.3-1.4,2.2-1.5c4.8-0.2,8.8,2.1,12.9,3.6l5.4-5.8l-1-0.9L214,33l-6.3-2.1l0.4-19.3l0.5-0.9
			c0.5-0.7,1.3-0.7,2.1-0.6c3.1,0.7,6.6,0.8,8.8-1.9C220.5,7,220.8,5.2,220.5,3.6L220.5,3.6z M239.7,4.2c-2.3,0-4.2,2.2-4.9,4.1
			l-1.3-1c-0.1,2.5,0,4.9-0.2,7.3l-4.5-4.6c-1.2,1.7-2.4,3.6-4.3,5l-0.2,12.5c1.2,1.3,2.7,2.6,3.6,4l5.3-5.1l0,1.2l3.5,3.6l4.5-4.3
			l-0.9-1.1c-0.3,0.7-1.1,0.8-1.6,1c-0.4-0.2-0.6-0.7-0.8-1l0.2-17.2c-0.1-0.9,0.3-1.7,1-2.3c0.9-0.8,2.1-1.6,3.3-1.2
			C241.7,4.2,240.7,4.1,239.7,4.2L239.7,4.2z M140.3,7l-3.2-3.6l-3.5,3.3l3.2,3.5L140.3,7L140.3,7z M25.3,6.5
			c-4.3,0.4-7.4-1.9-11-2.8c-4-0.8-7.5,0.5-10.4,2.9c-2.4,1.7-3.4,4.3-3.4,6.9c1.8-2.1,4.1-3.2,6.7-3.2c-3.8,4-6.1,8.7-6.1,14.3
			c0.1,5.3,3.2,10.3,7.9,12.9c4.7,1.9,10.9,1.6,14.7-1.8c3.3-2.5,5.3-6,5-10.1c-0.5,2.5-2,5-4.5,6.1l0.3-19.2
			c1.5-0.5,2.9-1.3,4.2-2.5c1.7-1.5,2.2-3.7,1.8-6c-0.8,0.9-1.7,1.6-2.8,1.9L25.3,6.5L25.3,6.5z M98.6,8.5c-0.7,0-1.3-0.4-2-0.8
			l-0.3,20.2l3.6,3.6l4.9-4.4c0.4,1.9,2.2,3.5,3.8,4.6l4.4-4.3l3.7,4.1l4.7-4.7l-0.8-0.8c-0.9,1.7-1.8,0.2-2.7-0.4l0.2-11.2
			l-3.7-3.9c-0.5,2.2-2.8,3.8-4.9,4.2l0.5,1c0.7-0.1,1.4-0.3,2.1-0.7c2.2,1.1,0.8,3.8,1.1,5.6c-1.6-1-4.1-1.2-5.7-0.2
			c-1.8,1-2.6,2.9-2.7,4.8l-1.9,1.9l-1.5-1.6c0.1-5.7,0-11.5,0.4-17.1c0.5-1.4,1.7-3.1,3.3-3.4C102.1,4.5,99.8,6.3,98.6,8.5
			L98.6,8.5z M34.1,9.4l-1.8-1.2L32,28l2.4,2.9c0.8-1.1,1.7-2.1,2.7-3.1l0.1-9.6l1.9-2l1.5,1.5l-0.2,12.6c-0.3,1.4-1.2,2.6-2.4,3.7
			c1,0.3,2,0,2.9-0.2c1.8-0.6,3.3-2.4,3.7-4.2l0.4-13.5l-3.9-4.1l-4,4l0.1-7.2C37.8,7.8,39,7,39.9,6.5C37.5,5.9,35.4,7.4,34.1,9.4
			L34.1,9.4z M284.1,13.7l-3.2-3.3c-1.1,1.1-2.2,2.5-3.3,3.3l-3.3-2.9l-3.2,3.5l2,1.6L272.7,27l3.9,4.1l4.5-4.3l-0.9-1l-1.4,1.2
			c-0.4-0.5-0.8-0.7-1.2-1.2l0.2-11c0.9,0.7,1.6,1.7,2.5,2.4L284.1,13.7L284.1,13.7z M198.2,16.2c-1.5,0.3-2.9,1-4,2.2
			c-0.9,1.6-1.4,3.6-1.1,5.4c1.2-1.1,2.5-1.9,4.1-1.9c0.4,0.1,0.8,0.4,0.9,0.8c0.3,3-0.6,5.8-1.7,8.2l1.6-0.3
			c7.4-3.1,5.2-12.1,5.8-19c0-0.8,0.4-1.6,1.2-2.1C201.5,9.4,198.7,13.1,198.2,16.2L198.2,16.2z M255.5,14.4l-7.1-3.9
			c-1.4,2.3-3.8,4.1-6.3,4.6L242,27.6l5.3,3.5c1-1.2,2.1-2.4,3.3-3.4c0.9-0.1,1.8,0.4,2.4,1.2c0.3,1.2,0.3,2.8-0.6,3.7
			c-0.7,0.5-1.6,0.6-2.5,0.4c-1.9-1-4.2-2.5-6.5-1.2c-1.4,0.7-2.6,2.1-2.9,3.6c1-0.7,2.4-0.8,3.6-0.5c1.9,1,4.5,1.5,6.4,0.1
			c2.6-1.8,7-3.9,6.4-7.8c-0.3-0.8-1-1.4-1.7-1.8L255.5,14.4L255.5,14.4z M270.1,15.9l-4.9-4.8l-6.1,5.8l-0.2,9.4
			c1.6,1.4,3.3,2.9,4.8,4.6l4.5-4.4l-1-1.1c-0.4,0.3-0.7,0.7-1.1,1l-2.5-2l0-2.6L270.1,15.9L270.1,15.9z M175.1,14.4L171,10
			l-5.4,5.1l0-1.3l-3.4-3.5c-1.1,1.2-2.1,2.5-3.3,3.7l2,1.9l-0.1,10.3l-1.1,1.4l3.5,3.7c0.8-1.7,4.7-3,2.4-5l0.1-8.5l3.1-3
			c0.5,0.1,0.9,0.8,1.4,1.2l-0.2,11.7l3.6,3.9c1.5-1.6,3-3.3,4.7-4.7c-0.3-0.3-0.6-0.7-1-0.8l-0.9,0.9l-1.3-1.4L175.1,14.4
			L175.1,14.4z M223.4,16.1l-4.9-5c-1.8,1.9-3.7,4-5.8,5.7l-0.1,9.4l4.5,4.7l4.7-4.3l-1.1-1.1l-1.2,1.1l-2.4-2.2l0-2.5L223.4,16.1
			L223.4,16.1z M158,14.7l-6.4-4.3c-1.9,2.7-4.8,4.1-7.7,4.9l-0.2,12.4c2,1.1,4.1,2.3,5.9,3.8c2.2-2.6,5.2-3.9,8.2-4.7L158,14.7
			L158,14.7z M139.9,14.4l-3.5-3.6l-3.3,3.3l-3.2-3.1l-3,3.1l-3-3l-3.3,3.5l1.7,1.8l-0.2,11.2l3.8,4l4.3-4.3l-0.8-1l-1.2,1l-1.2-1.1
			l0.2-10.7l2.6,2.2l3.3-3.1l1.9,1.9l-0.2,11l3.7,3.9c1.4-1.5,3-2.9,4.4-4.4l-0.8-0.9c-0.3,0.4-0.7,0.6-1.1,1l-1.5-1.3L139.9,14.4
			L139.9,14.4z M53.4,10.4L47.7,16l-0.3,9.4l4.6,4.8c1.5-1.5,2.9-3.1,4.6-4.3l-1-1.1l-0.7,0.7c-1.3,0.5-2-1.1-3-1.7l0-2.5l6.4-6
			C56.6,13.6,54.9,12,53.4,10.4L53.4,10.4z M190.4,17.3l-7.8-0.1l-4,4.2l7.7,0.1L190.4,17.3L190.4,17.3z M76.8,30.4
			c-3.9-2.4-6.3-6.5-6-11.1l6.3-5.8L76.8,30.4L76.8,30.4z M54,17.2l0.1,0.2l-1.7,1.7l0-3C53.1,16,53.6,16.6,54,17.2L54,17.2z
			 M15.5,10.9c-2.8,2.6-5.5,5.2-8.3,7.8c-0.2-3.2,1.2-6,3.1-8.5C12.1,9.6,13.9,10.2,15.5,10.9L15.5,10.9z M87.1,11.7l-0.4,19.5
			l0,0.2c-2.2,0.8-5.2,0.7-7.2-0.6l3.2-3.2l0.2-16.6C84.1,11.5,85.6,11.7,87.1,11.7L87.1,11.7z M22.6,12.3l-0.4,19.5l0,0.2
			c-2.2,0.8-5.2,0.7-7.2-0.6l3.2-3.2l0.2-16.6C19.6,12.1,21.1,12.3,22.6,12.3L22.6,12.3z M12.3,30c-3.5-1.9-4.4-5.7-5-9.2l5.2-4.8
			L12.3,30L12.3,30z M113.1,22.3l0,3.1l-2,1.5c-0.8-1.3-3.6-2-2.2-4.1c0.2-0.6,0.7-1.2,1.3-1.5C111.3,21.1,112.4,21.5,113.1,22.3
			L113.1,22.3z M152.9,26.9l-4-2.3l0.2-10.3l3.9,2.4L152.9,26.9L152.9,26.9z M218.8,17.7l0.2,0.4l-1.6,1.7l0-3.1
			C218.2,16.6,218.5,17.2,218.8,17.7L218.8,17.7z M233.3,23.9c-0.9,0.9-1.8,1.9-2.8,2.8l-1.5-1.3l0.1-9.1l2-2l2.2,2.2L233.3,23.9
			L233.3,23.9z M250.7,25.7c-1.2,2.5-2.7-0.6-4.1-0.9l0.1-10l4.1,2.3L250.7,25.7L250.7,25.7z M264.1,19.8l0-3.6l1.7,1.8L264.1,19.8
			L264.1,19.8z"/>
		<polygon points="1.3,44.9 284,44.9 284,45.5 1.3,45.5 1.3,44.9 		"/>
		<path d="M5.6,53.8v-0.7c0-0.3-0.2-0.5-0.5-0.5c-0.6,0-0.6,0.6-0.5,1.4v1.5c0,1.2,0.1,1.5,0.5,1.5c0.4,0,0.5-0.4,0.5-0.9v-0.6h1.5
			v0.6c0,1.3-0.5,2-2,2c-1.3,0-2-0.7-2-2.4v-2.1c0-1.8,0.9-2.2,2-2.2c1.5,0,2,0.9,2,1.9v0.5H5.6L5.6,53.8z"/>
		<polygon points="11.1,58 11.1,49.6 12.5,49.6 12.5,58 11.1,58 		"/>
		<path d="M19.6,58c-0.1-0.2-0.1-0.4-0.1-0.7h0c-0.3,0.5-0.8,0.8-1.3,0.8c-1.2,0-1.7-0.6-1.7-1.9c0-1.4,1-1.8,2.2-2.3
			c0.6-0.3,0.8-0.5,0.7-1.1c-0.1-0.3-0.3-0.3-0.7-0.3c-0.7,0-0.8,0.3-0.8,0.9h-1.4c0-1.2,0.4-2,2.2-2c2,0,2.1,1,2.1,1.9v3.7
			c0,0.3,0,0.6,0.1,0.9H19.6L19.6,58z M19.4,54.6c-0.4,0.2-0.8,0.5-1.2,0.8C18,55.6,18,55.9,18,56.2c0,0.5,0.1,0.8,0.7,0.8
			c0.9,0,0.7-1.1,0.7-1.7V54.6L19.4,54.6z"/>
		<path d="M26.4,52.8L26.4,52.8c0.2-0.5,0.4-0.7,0.6-0.9c0.4-0.3,0.7-0.3,0.9-0.3v1.7c-0.8-0.1-1.4,0.1-1.4,1.1V58H25v-6.3h1.4V52.8
			L26.4,52.8z"/>
		<path d="M31.6,50.9v-1.3h1.5v1.3H31.6L31.6,50.9z M31.6,58v-6.3h1.5V58H31.6L31.6,58z"/>
		<path d="M37.2,55c0-2.2,0-3.6,2.2-3.6c2.2,0,2.2,1.4,2.2,3.6c0,2.2-0.3,3.1-2.2,3.1C37.5,58.2,37.2,57.2,37.2,55L37.2,55z
			 M38.6,55.9c0,0.8,0.1,1.1,0.8,1.1c0.7,0,0.7-0.3,0.7-1.1v-2.1c0-0.6,0-1.2-0.7-1.2c-0.8,0-0.8,0.6-0.8,1.2V55.9L38.6,55.9z"/>
		<path d="M47,52.3L47,52.3c0.3-0.7,1-0.8,1.3-0.8c0.8,0,1.5,0.5,1.5,1.6V58h-1.5v-4.2c0-0.6-0.1-1-0.6-1c-0.5,0-0.7,0.5-0.7,1.2V58
			h-1.5v-6.3H47V52.3L47,52.3z"/>
		<polygon points="54,58 54,49.6 55.5,49.6 55.5,58 54,58 		"/>
		<path d="M59.6,53.8c-0.1-1.5,0.7-2.3,2.1-2.3c2,0,2.2,1.1,2.2,2.8v0.9H61V56c0,0.8,0.3,1,0.8,1c0.5,0,0.7-0.4,0.7-1.2h1.5
			c0.1,1.4-0.5,2.3-2,2.3c-1.7,0-2.4-0.8-2.3-2.7V53.8L59.6,53.8z M62.5,54v-0.5c0-0.6-0.2-0.8-0.8-0.8c-0.7,0-0.7,0.6-0.7,1.1V54
			H62.5L62.5,54z"/>
		<path d="M70.7,57.3L70.7,57.3c-0.3,0.6-0.7,0.8-1.3,0.8c-1.2,0-1.5-1.1-1.5-2.1v-2.3c0-1.7,0.6-2.2,1.5-2.2c0.6,0,1,0.2,1.3,0.8h0
			c0-0.2,0-0.4,0-0.6v-2.2h1.5V58h-1.5V57.3L70.7,57.3z M70.7,54c0-0.5,0-1.4-0.7-1.4c-0.7,0-0.6,0.6-0.7,1.2v2.1
			c0,0.6,0.2,1.1,0.6,1.1c0.5,0,0.7-0.4,0.7-1.1V54L70.7,54z"/>
		<path d="M77.7,58.7c0,0.1,0.1,0.2,0.2,0.3C78,59,78.1,59,78.3,59c0.6,0,0.7-0.5,0.7-1v-0.7l0,0c-0.3,0.6-0.7,0.8-1.3,0.8
			c-1.2,0-1.5-1.1-1.5-2.1v-2.3c0-1.7,0.6-2.2,1.5-2.3c0.7,0,1.1,0.2,1.3,0.8h0v-0.7h1.5v6.1c0,1.3-0.4,2.3-2.4,2.3
			c-1,0-1.8-0.4-1.8-1.4H77.7L77.7,58.7z M78.3,52.6c-0.7,0-0.6,0.6-0.7,1.2v2.1c0,0.6,0.2,1.1,0.6,1.1c0.5,0,0.7-0.4,0.7-1.1V54
			C79,53.5,78.9,52.6,78.3,52.6L78.3,52.6z"/>
		<path d="M84.4,53.8c-0.1-1.5,0.7-2.3,2.1-2.3c2,0,2.2,1.1,2.2,2.8v0.9h-2.9V56c0,0.8,0.3,1,0.8,1c0.5,0,0.7-0.4,0.7-1.2h1.5
			c0.1,1.4-0.5,2.3-2,2.3c-1.7,0-2.4-0.8-2.3-2.7V53.8L84.4,53.8z M87.3,54v-0.5c0-0.6-0.2-0.8-0.8-0.8c-0.7,0-0.7,0.6-0.7,1.1V54
			H87.3L87.3,54z"/>
		<path d="M94.2,52.8L94.2,52.8c0.2-0.5,0.4-0.7,0.6-0.9c0.4-0.3,0.7-0.3,0.9-0.3v1.7c-0.8-0.1-1.4,0.1-1.4,1.1V58h-1.5v-6.3h1.4
			V52.8L94.2,52.8z"/>
		<polygon points="98.9,58 98.9,56.5 100.3,56.5 100.3,58 98.9,58 		"/>
		<path d="M107.2,53.8v-0.7c0-0.3-0.2-0.5-0.5-0.5c-0.6,0-0.6,0.6-0.5,1.4v1.5c0,1.2,0.1,1.5,0.5,1.5c0.4,0,0.5-0.4,0.5-0.9v-0.6
			h1.5v0.6c0,1.3-0.5,2-2,2c-1.3,0-2-0.7-2-2.4v-2.1c0-1.8,0.9-2.2,2-2.2c1.5,0,2,0.9,2,1.9v0.5H107.2L107.2,53.8z"/>
		<path d="M112.4,55c0-2.2,0-3.6,2.2-3.6c2.2,0,2.2,1.4,2.2,3.6c0,2.2-0.3,3.1-2.2,3.1C112.7,58.2,112.4,57.2,112.4,55L112.4,55z
			 M113.9,55.9c0,0.8,0.1,1.1,0.8,1.1c0.7,0,0.7-0.3,0.7-1.1v-2.1c0-0.6,0-1.2-0.7-1.2c-0.8,0-0.8,0.6-0.8,1.2V55.9L113.9,55.9z"/>
		<path d="M122.3,52.3L122.3,52.3c0.3-0.7,0.9-0.8,1.4-0.8c0.5,0,1.3,0.2,1.4,0.8c0.3-0.5,0.8-0.8,1.5-0.8c1.1,0,1.5,0.7,1.5,1.3V58
			h-1.5v-4.3c0-0.6-0.1-1.1-0.7-1.1c-0.6,0-0.7,0.5-0.7,1.2V58h-1.5v-4.3c0-0.6,0-1-0.7-1c-0.7,0-0.7,0.5-0.7,1.2V58h-1.5v-6.3h1.5
			V52.3L122.3,52.3z"/>
		<polygon points="137.4,58 137.4,50.2 145.1,50.2 145.1,58 137.4,58 		"/>
		<path d="M156,54.3V58h-1.6v-8.4h3c1.4,0,2.4,0.5,2.4,2c0,0.9-0.2,1.9-1.3,2v0c0.9,0.1,1.2,0.7,1.2,1.5c0,0.3,0,2.4,0.3,2.7V58
			h-1.7c-0.2-0.5-0.2-1.6-0.2-2.1c0-0.5,0-1.2-0.5-1.4c-0.4-0.1-0.9-0.1-1.3-0.1H156L156,54.3z M156,53.1h1.2c0.5,0,0.9-0.4,0.9-1.2
			c0-0.9-0.4-1.1-1-1.1H156V53.1L156,53.1z"/>
		<polygon points="164,58 164,49.6 168.4,49.6 168.4,50.8 165.5,50.8 165.5,52.9 168.2,52.9 168.2,54.1 165.5,54.1 165.5,56.7 
			168.4,56.7 168.4,58 164,58 		"/>
		<path d="M171.6,58l2-8.4h2.1l1.9,8.4H176l-0.4-2.1h-1.8l-0.4,2.1H171.6L171.6,58z M174,54.6h1.3l-0.4-2.4
			c-0.1-0.4-0.1-0.8-0.2-1.2c0-0.2,0-0.4-0.1-0.6h0c0,0.2,0,0.4-0.1,0.6c0,0.4-0.1,0.8-0.2,1.2L174,54.6L174,54.6z"/>
		<polygon points="181.2,58 181.2,49.6 182.8,49.6 182.8,56.7 185.7,56.7 185.7,58 181.2,58 		"/>
		<path d="M196.6,58H195v-8.4h2.5l0.8,3.9c0.1,0.6,0.2,1.3,0.3,1.9h0c0.1-0.8,0.1-1.4,0.2-1.9l0.8-3.9h2.5V58h-1.6v-2.6
			c0-1.7,0-3.3,0.1-5h0l-1.7,7.7h-1l-1.6-7.7h-0.1c0.1,1.7,0.1,3.3,0.1,5V58L196.6,58z"/>
		<polygon points="206.4,58 206.4,49.6 208,49.6 208,58 206.4,58 		"/>
		<path d="M215.4,52.1c0-0.8-0.1-1.5-0.9-1.5c-0.5,0-0.9,0.2-0.9,0.8c0,0.6,0.4,0.9,0.9,1.2c0.5,0.3,1.5,1,1.9,1.4
			c0.5,0.5,0.7,1,0.7,1.8c0,1.6-1.1,2.4-2.6,2.4c-1.9,0-2.6-1.1-2.6-2.6V55h1.6v0.5c0,0.8,0.2,1.4,1,1.4c0.7,0,1-0.3,1-1
			c0-0.5-0.2-0.8-0.6-1.1c-0.8-0.6-1.8-1.1-2.5-1.9c-0.3-0.4-0.4-0.8-0.4-1.3c0-1.4,0.8-2.2,2.5-2.2c2.5,0,2.4,1.9,2.4,2.8H215.4
			L215.4,52.1z"/>
		<path d="M224.3,52.1c0-0.8-0.1-1.5-0.9-1.5c-0.5,0-0.9,0.2-0.9,0.8c0,0.6,0.4,0.9,0.9,1.2c0.5,0.3,1.5,1,1.9,1.4
			c0.5,0.5,0.7,1,0.7,1.8c0,1.6-1.1,2.4-2.6,2.4c-1.9,0-2.6-1.1-2.6-2.6V55h1.6v0.5c0,0.8,0.2,1.4,1,1.4c0.7,0,1-0.3,1-1
			c0-0.5-0.2-0.8-0.6-1.1c-0.8-0.6-1.8-1.1-2.5-1.9c-0.3-0.4-0.4-0.8-0.4-1.3c0-1.4,0.8-2.2,2.5-2.2c2.5,0,2.4,1.9,2.4,2.8H224.3
			L224.3,52.1z"/>
		<polygon points="230.1,58 230.1,49.6 231.6,49.6 231.6,58 230.1,58 		"/>
		<path d="M239.1,52.1c0-0.8-0.1-1.5-0.9-1.5c-0.5,0-0.9,0.2-0.9,0.8c0,0.6,0.4,0.9,0.9,1.2c0.5,0.3,1.5,1,1.9,1.4
			c0.5,0.5,0.7,1,0.7,1.8c0,1.6-1.1,2.4-2.6,2.4c-1.9,0-2.6-1.1-2.6-2.6V55h1.6v0.5c0,0.8,0.2,1.4,1,1.4c0.7,0,1-0.3,1-1
			c0-0.5-0.2-0.8-0.6-1.1c-0.8-0.6-1.8-1.1-2.5-1.9c-0.3-0.4-0.4-0.8-0.4-1.3c0-1.4,0.8-2.2,2.5-2.2c2.5,0,2.4,1.9,2.4,2.8H239.1
			L239.1,52.1z"/>
		<path d="M248,52.1c0-0.8-0.1-1.5-0.9-1.5c-0.5,0-0.9,0.2-0.9,0.8c0,0.6,0.4,0.9,0.9,1.2c0.5,0.3,1.5,1,1.9,1.4
			c0.5,0.5,0.7,1,0.7,1.8c0,1.6-1.1,2.4-2.6,2.4c-1.9,0-2.6-1.1-2.6-2.6V55h1.6v0.5c0,0.8,0.2,1.4,1,1.4c0.7,0,1-0.3,1-1
			c0-0.5-0.2-0.8-0.6-1.1c-0.8-0.6-1.8-1.1-2.5-1.9c-0.3-0.4-0.4-0.8-0.4-1.3c0-1.4,0.8-2.2,2.5-2.2c2.5,0,2.4,1.9,2.4,2.8H248
			L248,52.1z"/>
		<polygon points="253.7,58 253.7,49.6 255.3,49.6 255.3,58 253.7,58 		"/>
		<path d="M259.5,58v-8.4h3.2c1.5,0,2,1.2,2,2.4c0,0.7-0.2,1.5-0.8,2c-0.5,0.4-1.2,0.5-1.8,0.5h-1.1V58H259.5L259.5,58z M261.1,53.2
			h0.8c0.7,0,1.1-0.3,1.1-1.3c0-1-0.4-1.1-1.3-1.1h-0.7V53.2L261.1,53.2z"/>
		<path d="M268.4,58v-8.4h3.2c1.5,0,2,1.2,2,2.4c0,0.7-0.2,1.5-0.8,2c-0.5,0.4-1.2,0.5-1.8,0.5H270V58H268.4L268.4,58z M270,53.2
			h0.8c0.7,0,1.1-0.3,1.1-1.3c0-1-0.4-1.1-1.3-1.1H270V53.2L270,53.2z"/>
		<polygon points="277.3,58 277.3,49.6 278.9,49.6 278.9,58 277.3,58 		"/>
	</g>
</g>
</svg>
