<?xml version="1.0" encoding="utf-8"?>
<!-- Generator: Adobe Illustrator 18.0.0, SVG Export Plug-In . SVG Version: 6.00 Build 0)  -->
<!DOCTYPE svg PUBLIC "-//W3C//DTD SVG 1.1//EN" "http://www.w3.org/Graphics/SVG/1.1/DTD/svg11.dtd">
<svg version="1.1" xmlns="http://www.w3.org/2000/svg" xmlns:xlink="http://www.w3.org/1999/xlink" x="0px" y="0px"
	 viewBox="0 0 300 52.3" style="enable-background:new 0 0 300 52.3;" xml:space="preserve">
<style type="text/css">
	.st0{fill-rule:evenodd;clip-rule:evenodd;}
	.st1{fill-rule:evenodd;clip-rule:evenodd;fill:#C038F9;}
	.st2{fill:none;}
	.st3{fill-rule:evenodd;clip-rule:evenodd;fill:#231F20;}
</style>
<g id="Layer_2">
	<g>
		<path d="M32.5,5.9c1.3-0.4,2.5-0.7,3.8-1.1c0.5,0.4,1.1,0.7,1.6,1.1c-0.6,1.1-0.5,1.7,0.6,2C39.2,8.1,40,8.1,40.9,8
			c0.3,0,0.9-0.5,0.9-0.8c0-0.4-0.4-0.9-0.7-1c-1.2-0.3-1.9-1.3-2.8-2c1.6-0.5,3.1-1,4.7-1.4c0.3-0.1,0.7-0.1,1.1,0
			C58.3,7,72.6,11.1,86.9,15.2c0.1,0,0.2,0.1,0.5,0.2c-4.1,1.2-8,2.4-11.9,3.5c-0.9,0.3-1.9,0.5-2.8,0.8c-5.9,1.7-11.8,3.4-17.7,5.1
			c-3.5,1-6.9,2-10.4,3c-0.5,0.1-1.1,0.1-1.7,0c-14-4-28.1-8.1-42.1-12.2c-0.2-0.1-0.4-0.2-0.7-0.3c2.8-0.8,5.4-1.6,8.1-2.4
			c0.1,0,0.2,0,0.3,0c1.8-0.5,3.5-1,5.3-1.5c0.5,0.4,1,0.7,1.5,1.1c-0.7,1-0.6,1.6,0.4,1.9c0.8,0.2,1.7,0.3,2.5,0.2
			c0.3,0,0.9-0.5,0.9-0.8c0-0.4-0.4-0.9-0.7-1c-1.2-0.3-1.9-1.2-2.7-1.9c1.2-0.4,2.4-0.8,3.6-1.2c0.6,0.4,1.1,0.8,1.7,1.1
			c-0.7,1-0.6,1.6,0.4,1.9c0.8,0.2,1.7,0.3,2.5,0.2c0.4,0,0.9-0.5,1-0.8c0-0.3-0.4-0.9-0.8-1c-1.2-0.3-1.9-1.2-2.7-1.9
			c1.2-0.4,2.4-0.8,3.6-1.2c0.6,0.4,1.1,0.7,1.7,1.1c-0.7,1-0.6,1.6,0.4,1.9c0.8,0.3,1.7,0.3,2.6,0.2c0.3,0,0.8-0.5,0.9-0.8
			c0-0.3-0.4-0.9-0.7-1c-1.3-0.3-2-1.3-2.9-2c1.2-0.4,2.5-0.7,3.7-1.1c0.6,0.4,1.1,0.7,1.7,1.1c-0.7,1-0.6,1.6,0.3,1.9
			c0.8,0.3,1.8,0.3,2.7,0.3c0.3,0,0.8-0.5,0.8-0.8c0-0.3-0.4-0.9-0.7-1C34.1,7.6,33.4,6.6,32.5,5.9z"/>
		<path d="M70.6,22.8c0,5.4,0,10.6,0,15.8c0,0.3-0.4,0.7-0.7,0.9c-3,1.8-6.2,2.8-9.5,3.6c-8.3,2-16.8,2.4-25.3,1.4
			c-5.6-0.7-11-2.1-15.9-4.9c-0.6-0.4-0.9-0.8-0.9-1.5c0-5.1,0-10.2,0-15.4c1.7,0.5,3.3,1,4.9,1.4c6.5,1.9,13,3.8,19.5,5.7
			c0.4,0.1,0.9,0.1,1.3,0c8.5-2.3,17-4.6,25.5-6.9C70,23,70.2,22.9,70.6,22.8z"/>
		<path d="M160.6,17.5c-1.1,3.9-2.2,7.5-3.2,11.1c-1.5,5.2-3,10.4-4.5,15.6c-0.8,2.7-2.7,4.2-5.2,4.2c-2.7,0-4.6-1.4-5.5-4.2
			c-2.9-9.6-5.8-19.2-8.6-28.9c-0.4-1.3-0.9-1.9-2.2-2.1c-0.7-0.1-1.7-0.5-2.1-1c-0.5-0.7-0.7-1.8-0.6-2.7c0.1-1.1,1.1-1.6,2.2-1.6
			c4.1,0,8.1-0.1,12.2,0c1.2,0,2.1,0.6,2.3,1.9c0.3,1.3-0.3,2.6-1.6,3.1c-0.7,0.3-1.5,0.5-2.5,0.8c2.2,8.6,4.3,17.3,6.5,25.9
			c0.1,0,0.2,0,0.3,0c0.5-1.9,1.1-3.7,1.6-5.6c2-7.2,4-14.4,6-21.6c0.8-2.8,2.9-4.5,5.5-4.5c2.6,0,4.5,1.7,5.3,4.5
			c2.4,8.8,4.7,17.7,7,26.5c0.1,0.3,0.2,0.5,0.5,0.8c2.4-8.7,4.9-17.3,7.3-26c-0.7-0.2-1.3-0.3-1.9-0.5c-1.4-0.5-2.2-1.8-2-3.2
			c0.2-1.3,1.1-2,2.8-2.1c3.4,0,6.8,0,10.2,0c1.7,0,2.7,0.8,2.9,2.2c0.2,1.4-0.8,3-2.3,3.1c-1.9,0.2-2.6,1.2-3.1,2.9
			c-3,9.5-6.2,19-9.3,28.5c-0.9,2.6-3,4-5.8,3.9c-2.3-0.1-4.1-1.7-4.9-4.4c-2.3-8.4-4.6-16.7-6.9-25.1
			C161,18.5,160.8,18.2,160.6,17.5z"/>
		<path d="M224.8,42.1c0.7,0.1,1.4,0.3,2,0.4c1.7,0.3,2.6,1.4,2.5,2.9c-0.1,1.4-1.1,2.3-2.7,2.4c-2,0.2-4,0.4-6.1,0.6
			c-2.6,0.2-3.5-0.8-3.5-3.4c0-0.3,0-0.5,0-0.6c-1.9,1.1-3.6,2.5-5.5,3.2c-3.7,1.4-7.5,1.2-11.2-0.5c-4.3-2-6.6-6.8-6.2-11.9
			c0.7-7.5,5.4-10.1,11.2-10.9c3.7-0.5,7.5-0.6,11.5-0.9c0-2.4,0.3-5.1-0.6-7.6c-0.6-1.8-1.9-3-3.8-3.3c-1.2-0.2-2.5-0.2-3.8-0.2
			c-1.7,0-2.5,0.9-3,2.6c-0.7,2.7-3,4-5.4,3.4c-1.5-0.4-2.3-1.4-2.4-2.9c-0.2-2.9,1-5.1,3.6-6.3c1.8-0.8,3.8-1.5,5.8-1.7
			c2.6-0.3,5.3-0.4,7.9-0.1c6.5,0.7,9.5,4,9.6,10.6c0.1,7.6,0.1,15.1,0.1,22.7C224.8,41,224.8,41.5,224.8,42.1z M216.8,28.8
			c-1.7,0-3.2-0.1-4.6,0c-2.4,0.1-4.7,0.4-6.8,1.7c-2.2,1.4-3,3.6-2.8,6.1c0.2,2.7,1.7,4.5,4.3,5.1c3.3,0.8,6.3,0,9.3-1.4
			c0.2-0.1,0.5-0.5,0.5-0.7C216.8,36,216.8,32.3,216.8,28.8z"/>
		<path d="M100.6,28c0,3.5,0.3,6.7,2.1,9.5c1.5,2.5,3.9,3.7,6.7,4c3.4,0.4,6.7-0.1,9.8-1.7c1.8-0.9,2.9-0.8,3.7,0.3
			c0.9,1.2,0.7,2.7-0.7,4.1c-1.9,1.9-4.2,2.9-6.7,3.5c-3.9,1-7.9,0.9-11.8-0.1c-5.3-1.4-8.8-4.9-10.4-10.1
			c-1.9-6.6-1.8-13.2,0.5-19.6c3.1-8.7,10.5-11.7,18.4-10.8c8.6,0.9,12,7.1,12.8,13.8c0.1,1,0.2,2,0.2,3c0,2.8-1.4,4.2-4.2,4.2
			c-6.3,0-12.6,0-18.9,0C101.7,28,101.2,28,100.6,28z M100.2,23.3c5.8-0.4,11.1-0.7,16.6-1c-0.3-1.6-0.4-3.1-0.8-4.5
			c-0.8-3.2-2.9-5-6.2-5.3c-3.2-0.3-6.2,1.1-7.5,4C101.4,18.5,101,20.8,100.2,23.3z"/>
		<path d="M72.7,19.7c0.9-0.3,1.9-0.5,2.8-0.8c0.6,3.7,1.3,7.4,1.7,11.2c0.7,5.9,1.3,11.8,2,17.7c0.1,1.2,0,1.6-1.1,1.8
			c-1.4,0.2-2.9,0.2-4.4,0.2c-0.7,0-1.1-0.5-1.1-1.3c0-4.9-0.1-9.9-0.1-14.8C72.6,29,72.7,24.4,72.7,19.7z"/>
		<path d="M8.3,12.9c-0.1,0-0.2,0-0.3,0c-0.6-0.6-1-1.4-0.7-2.3c0.4-0.9,1.2-1.1,2.1-1.2c2.2-0.3,4.1,0.4,6,1.4
			c0.9,0.7,1.5,1.6,2.7,1.9c0.3,0.1,0.7,0.7,0.7,1c0,0.3-0.5,0.7-0.9,0.8c-0.8,0-1.7,0-2.5-0.2c-1-0.3-1.1-0.9-0.4-1.9
			c-0.5-0.4-1-0.7-1.5-1.1c-0.4-0.2-0.7-0.4-1.1-0.5C10.6,10.1,8.8,10.1,8.3,12.9z"/>
		<path d="M32.5,5.9c0.9,0.7,1.7,1.7,2.9,2c0.3,0.1,0.7,0.6,0.7,1c0,0.3-0.5,0.8-0.8,0.8c-0.9,0-1.9,0-2.7-0.3
			c-0.9-0.3-1-0.9-0.3-1.9c-0.6-0.4-1.1-0.7-1.7-1.1c-0.8-0.3-1.5-0.6-2.3-0.8c-0.8-0.2-1.6-0.1-1.9,0.8c-0.7-0.2-1.2-0.4-2.1-0.7
			c0.8-0.4,1.3-0.9,1.8-1c2-0.6,3.9,0,5.7,0.9C32,5.6,32.2,5.8,32.5,5.9z"/>
		<path d="M38.2,4.3c0.9,0.7,1.6,1.6,2.8,2c0.3,0.1,0.7,0.6,0.7,1c0,0.3-0.5,0.7-0.9,0.8c-0.8,0.1-1.7,0.1-2.4-0.1
			c-1.1-0.3-1.2-0.9-0.6-2c-0.5-0.3-1.1-0.7-1.6-1.1c-0.9-0.3-1.9-0.6-2.8-0.8c-0.5-0.1-1,0.3-1.5,0.5c0,0.1,0,0.2,0.1,0.3
			c-0.6-0.2-1.2-0.4-1.8-0.7c0.6-1.1,1.6-1.2,2.6-1.3C34.7,2.7,36.5,3.4,38.2,4.3z"/>
		<path d="M26.8,7.5c1,0.7,1.7,1.7,2.9,2c0.3,0.1,0.7,0.6,0.7,1c0,0.3-0.5,0.8-0.9,0.8c-0.9,0-1.8,0-2.6-0.2c-1-0.3-1-0.9-0.4-1.9
			c-0.6-0.4-1.1-0.7-1.7-1.1c-0.7-0.3-1.4-0.6-2.1-0.8c-0.8-0.2-1.7-0.2-2.1,0.8c-0.6-0.2-1.2-0.4-1.8-0.6c0.6-1.2,1.7-1.3,2.8-1.3
			C23.4,6,25.1,6.6,26.8,7.5z"/>
		<path d="M21.2,9.2c0.9,0.7,1.5,1.6,2.7,1.9c0.3,0.1,0.8,0.7,0.8,1c0,0.3-0.6,0.8-1,0.8c-0.8,0.1-1.7,0-2.5-0.2
			c-1-0.3-1.1-0.9-0.4-1.9c-0.6-0.4-1.1-0.8-1.7-1.1c-0.7-0.3-1.4-0.6-2.1-0.8c-0.9-0.2-1.7-0.1-2.2,0.8c-0.6-0.2-1.1-0.4-1.7-0.6
			c0.2-0.9,1-1.1,1.7-1.2c1.8-0.4,3.6,0.1,5.3,0.8C20.5,8.8,20.8,9,21.2,9.2z"/>
	</g>
</g>
<g id="Layer_1">
</g>
</svg>
