<?xml version="1.0" encoding="utf-8"?>
<!-- Generator: Adobe Illustrator 18.0.0, SVG Export Plug-In . SVG Version: 6.00 Build 0)  -->
<!DOCTYPE svg PUBLIC "-//W3C//DTD SVG 1.1//EN" "http://www.w3.org/Graphics/SVG/1.1/DTD/svg11.dtd">
<svg version="1.1" xmlns="http://www.w3.org/2000/svg" xmlns:xlink="http://www.w3.org/1999/xlink" x="0px" y="0px"
	 viewBox="0 0 300 41.3" style="enable-background:new 0 0 300 41.3;" xml:space="preserve">
<style type="text/css">
	.st0{fill-rule:evenodd;clip-rule:evenodd;}
	.st1{fill-rule:evenodd;clip-rule:evenodd;fill:#C038F9;}
	.st2{fill:none;}
	.st3{fill-rule:evenodd;clip-rule:evenodd;fill:#231F20;}
</style>
<g id="Layer_2">
	<g>
		<polygon class="st0" points="218.5,3.2 234.8,38.9 242,24.3 249.1,38.9 265.2,3.2 257,3.2 248.4,22.7 245.3,16.1 251.3,3.4 
			243.7,3.2 242,7.9 239.7,3.2 232.4,3.2 238.3,15.8 235.2,22.5 226.1,3.2 218.5,3.2 218.5,3.2 		"/>
		<polygon class="st0" points="68.6,1.8 89.9,21.9 89.9,3.1 96.8,3.1 96.8,37.9 75.5,17.4 75.5,36.7 68.6,36.7 68.6,1.8 68.6,1.8 		
			"/>
		<path class="st0" d="M100.6,3.2h14.5c2.2,0,8.5,1.7,8.8,8.5c0.2,5.1-4,7.4-4,7.4c2.3,1.1,5.7,3.7,5.7,9c0,5.2-4.6,9-8.5,9h-16.5
			V3.2L100.6,3.2L100.6,3.2L100.6,3.2z M107.6,16.9h5.3c2.1-0.3,3.7-1.9,3.7-4.1c0-2.4-2.1-3.7-3.8-3.9h-5.2V16.9L107.6,16.9
			L107.6,16.9L107.6,16.9z M107.6,31.6c1.1,0,6.1,0,6.1,0c1.6-0.1,4.2-1.5,4.2-4.5c0-3-2.6-4.4-4-4.4h-6.3L107.6,31.6L107.6,31.6
			L107.6,31.6z"/>
		<path class="st0" d="M151.9,10.4c-7.3-4.8-17.1,0.1-17.8,9.1c-0.3,10.9,10.5,15.4,17.8,10.7c0,0.2,0,7,0,7
			c-12.9,4.8-24.7-4.3-24.7-17.4c0-11.1,12.3-21,24.7-16.1V10.4L151.9,10.4z"/>
		<path class="st0" d="M277.7,24.5c-10.3-6.8-9.4-6.1-10.2-7.3c-0.8-1.2-2.9-7.3,2-12.6c4.9-5.3,14.9-0.8,14.9-0.8v6.8
			c0,0-8.5-4.9-10.8-0.4c-2.4,4.5,6.4,7.2,6.4,7.2s5.9,3.4,6.4,7.2c0.5,3.8,0.1,11.3-5.9,12.7c0,0-5.8,3.2-13.6-0.9l0.1-7.6
			c0,0,3.3,3.7,8.1,3.4C279.9,32,281.3,26.8,277.7,24.5L277.7,24.5L277.7,24.5z"/>
		<polygon class="st0" points="197.9,2.9 197.9,37.1 216.6,37.1 216.7,31.4 205.3,31.4 205.3,23.2 216.7,23.2 216.7,16.9 
			205.3,16.9 205.3,9.3 216.7,9.3 216.7,2.9 197.9,2.9 197.9,2.9 		"/>
		<polygon class="st0" points="166.5,1.9 187.7,22.1 187.7,3.2 194.6,3.2 194.6,38.3 173.4,17.6 173.4,37.1 166.5,37.1 166.5,1.9 		
			"/>
		<path class="st0" d="M50.4,23L33.2,34.6L39,20.8l2.8-6.4c1.1-2.1,3.2-3.4,5.5-3.4c2.2,0,4.1,1.1,5.4,3c1.3,1.9,1.3,5,0.1,6.9
			C52.1,21.7,51.3,22.5,50.4,23L50.4,23L50.4,23z"/>
		<path class="st0" d="M41.8,12.1l-8.5,20.2l-0.4-2.2l-2.6-16.5c-0.1-1,0.3-1.9,1.1-2.4l1.2-0.7c0.1-0.3-0.3-0.3-0.5-0.4l-2.4,0
			c-0.2-2.4,0.9-4.5,2.9-5.8c1.6-1,4-1.3,5.7-0.5c2.3,0.9,3.8,3.3,3.9,5.8C42.3,10.4,42.2,11.3,41.8,12.1L41.8,12.1L41.8,12.1z"/>
		<path class="st0" d="M25.5,32.4l-8.4-20.2c-0.9-2.2-0.5-5,1-6.8c1.7-1.8,4-2.6,6.4-2c2,0.5,3.9,2.4,4.4,4.5
			c0.2,0.8,0.2,1.7,0.2,2.6L25.5,32.4L25.5,32.4L25.5,32.4z"/>
		<path class="st0" d="M7.5,22.3c-1.7-1.5-2.5-3.5-2.2-5.8c0.3-2.3,2.1-4.6,4.3-5.3c2.3-0.7,4.7-0.1,6.4,1.5
			c0.7,0.7,1.1,1.4,1.5,2.2l8.1,19.6L7.5,22.3L7.5,22.3L7.5,22.3z"/>
		<path class="st0" d="M5.7,36.6c-2.2-0.3-4-1.5-5-3.5c-1.1-2.1-0.8-5,0.6-6.9c1.6-1.9,3.8-2.8,6.1-2.4c0.9,0.1,1.7,0.5,2.4,1
			l17.5,11.7L5.7,36.6L5.7,36.6z"/>
		<path class="st0" d="M53.1,36.6c2.2-0.3,4-1.5,5-3.5c1.1-2.1,0.8-5-0.6-6.9c-1.6-1.9-3.8-2.8-6.1-2.4c-0.9,0.1-1.7,0.5-2.4,1
			L31.4,36.6L53.1,36.6L53.1,36.6L53.1,36.6z"/>
	</g>
</g>
<g id="Layer_1">
</g>
</svg>
