<?xml version="1.0" encoding="utf-8"?>
<!-- Generator: Adobe Illustrator 18.0.0, SVG Export Plug-In . SVG Version: 6.00 Build 0)  -->
<!DOCTYPE svg PUBLIC "-//W3C//DTD SVG 1.1//EN" "http://www.w3.org/Graphics/SVG/1.1/DTD/svg11.dtd">
<svg version="1.1" xmlns="http://www.w3.org/2000/svg" xmlns:xlink="http://www.w3.org/1999/xlink" x="0px" y="0px"
	 viewBox="0 0 300 100" style="enable-background:new 0 0 300 100;" xml:space="preserve">
<style type="text/css">
	.st0{fill-rule:evenodd;clip-rule:evenodd;}
	.st1{fill-rule:evenodd;clip-rule:evenodd;fill:#C038F9;}
	.st2{fill:none;}
	.st3{fill-rule:evenodd;clip-rule:evenodd;fill:#231F20;}
</style>
<g id="Layer_2">
	<g>
		<g>
			<path d="M103.6,86.6c-0.1-0.3-0.4-0.5-0.3-0.7c0.1-0.8,0.9-0.6,1.4-1.2c0-2.2,0.1-4.8,0.1-7.2c0.5-0.1,0.7-0.1,1.1,0.2
				c0.1,2.3,0.1,4.8,0,7.2c0,1-0.8,1.3-1.5,1.7C104.1,86.6,103.8,86.6,103.6,86.6z"/>
			<path d="M0.2,17.1c-0.3-0.6-0.2-1,0-1.6c99.6,0,199.3,0,298.9,0c0.2,0.8,0.2,0.8,0.1,1.6C199.5,17.1,99.9,17.1,0.2,17.1z"/>
			<path d="M59.4,44c0.7-0.7,1.2-0.6,1.6-0.6c3.6,0,7.2,0,10.9,0.1c0.5,0,1,0,1.5,0.1c2.8,0.5,4.6,2.1,4.9,4.9
				c0.3,2.4-0.8,5-3.4,6.1c-0.6,0.2-1.1,0.5-1.9,0.8c2.3,3.9,4,8.1,7.7,11.5c-2.7,0.3-4.9,0.1-7.2,0.2c-2.3-3.4-3.9-7.1-5.5-10.6
				c-0.4-0.2-0.7-0.2-1.1-0.1c-0.4,0.5-0.5,6.7-0.1,8.8c0.3,0.7,1.3,0.7,1.4,1.5c-1.2,0.5-7,0.6-8.5,0.1c0-0.8,1.1-0.8,1.2-1.3
				c0.5-1,0.4-1.8,0.4-2.6c0-5,0-10,0-15C61.3,46.3,61.5,44.7,59.4,44z M66.8,53.9c2.9,0.4,4.4-0.1,5.2-1.6c0.8-1.6,0.7-4.6-0.3-5.7
				c-1-1.2-2.9-1.5-4.9-0.7C66.8,48.4,66.8,51.1,66.8,53.9z"/>
			<path d="M207.1,66.8c-1.4,0.3-2.4,0.2-3.7,0.1c-3.7-5.9-7.5-11.9-11.3-18c-0.4,0.4-0.3,0.9-0.3,1.3c0,4.3,0,8.5,0,12.8
				c0,1.5,0.2,2.7,1.7,3.4c0.1,0,0,0.2,0.1,0.6c-2.2,0.2-4.3,0.1-6.5,0c-0.1-1.1,1-1.1,1.1-1.4c0.5-0.9,0.5-1.7,0.5-2.4
				c0-5.9-0.1-11.9-0.2-17.8c-0.3-0.7-1.2-0.8-1.6-1.7c1.4-0.3,2.7-0.1,3.9-0.1c1.2,0,2.5,0,3.8,0c3,4.7,6,9.5,9,14.2
				c0.3-0.1,0.3-0.4,0.3-0.6c0-3.4,0-6.9,0-10.3c0-1-0.2-1.9-1.2-2.4c-0.2-0.1-0.4-0.3-0.3-0.8c2-0.1,4.1,0,6.2,0
				c-0.1,1-1.1,1-1.5,1.7C207.1,52.4,207.1,59.5,207.1,66.8z"/>
			<path d="M81.9,43.5c2.5,0,5,0,7.6,0c2.9,4.6,5.9,9.3,8.9,14c0.6-1.4,0.7-9.7,0.1-12.2c-0.2-0.7-1.1-0.8-1.3-1.4
				c1-0.6,4.5-0.6,6.2-0.1c-1.5,2-1.5,2-1.5,4.9c0,5.5,0,11,0,16.5c0,0.6,0,1.1,0,1.7c-1.3,0.3-2.4,0.2-3.8,0.1
				c-3.7-6-7.5-12-11.3-18c-0.1,0-0.2,0.1-0.3,0.1c0,5.4,0,10.8,0,15.8c0.4,1.1,1.3,1.1,1.6,1.8c-1,0.6-4.5,0.7-6.5,0.2
				c0.1-0.8,1.1-0.8,1.4-1.9c0.3-1.2,0.3-18,0-19.7C82.9,44.4,81.8,44.5,81.9,43.5z"/>
			<path d="M35.6,54.8c0.1,2.1-0.2,4-0.9,5.8c-1.2,3.5-3.6,5.6-7.3,6.3c-1.8,0.3-3.8,0.4-5.6,0c-3.8-0.8-6.2-3-7.2-6.8
				c-1-3.9-0.9-7.7,0.7-11.4c1.2-2.7,3.1-4.6,6.1-5.3c2.4-0.6,4.8-0.6,7.2,0c3.7,1,5.7,3.6,6.6,7.2C35.5,52.1,35.7,53.5,35.6,54.8z
				 M29.8,55.1c0-2.3-0.1-4.6-0.9-6.8c-0.7-1.9-2-2.9-3.9-3c-1.9-0.1-3.3,0.8-4.1,2.7c-0.3,0.7-0.5,1.4-0.7,2.1
				c-0.4,2.2-0.5,4.5-0.3,6.7c0.2,1.9,0.3,3.9,1.2,5.6c0.8,1.6,2.1,2.4,3.9,2.4c2.1-0.1,3.6-1.3,4.2-3.8
				C29.8,59.1,29.8,57.1,29.8,55.1z"/>
			<path d="M245.9,65.2c0.3,0.7,1.2,0.6,1.3,1.7c-2.1,0.2-4.2,0.1-6.4,0.1c0-1.1,1-1.1,1.2-1.5c0.5-0.8,0.5-1.5,0.5-2.3
				c0-5.3,0-10.6,0-15.9c0-0.7,0.1-1.4-0.3-2.1c-0.2-0.6-1.2-0.6-1.4-1.6c1.3-0.2,2.6-0.1,3.8-0.1c1.2,0,2.5,0,3.8,0
				c3.1,4.8,6.1,9.6,9.4,14.7c0-4.6,0.2-8.8-0.2-13c-0.3-0.6-1.1-0.7-1.4-1.3c1.1-0.5,4.8-0.6,6.4-0.1c0,0.8-1,0.7-1.3,1.3
				c-0.5,1.1-0.5,2.2-0.5,3.3c0,5.6,0,11.1,0,16.7c0,0.6,0.2,1.2-0.3,1.9c-1,0.1-2.1,0.2-3.4-0.2c-3.8-6-7.6-12.1-11.4-18.2
				C245.3,50.5,245.4,63.4,245.9,65.2z"/>
			<path d="M50.8,43.5c2.5,0,4.9,0,7.3,0c0.1,0.2,0.1,0.5,0,0.5c-1.4,0.7-1.6,1.9-1.5,3.3c0.1,3.2,0,6.4,0,9.6
				c0,1.2-0.1,2.5-0.2,3.7C56,64,54.1,66,50.9,66.8c-2.8,0.6-5.6,0.7-8.3-0.2c-3.1-1-4.5-2.9-4.7-6.2c-0.3-4.2-0.2-8.5-0.2-12.7
				c0-0.8,0.1-1.6-0.3-2.6c-0.1-0.5-1.2-0.4-1.2-1.3c1.3-0.4,7.3-0.4,8.8,0c-0.1,0.8-1,0.7-1.3,1.3c-0.4,0.9-0.4,1.8-0.4,2.7
				c0,3.9,0,7.7,0,11.6c0,0.7,0.1,1.5,0.2,2.2c0.3,1.7,1.1,2.6,2.7,2.9c0.6,0.1,1.2,0.2,1.9,0.2c2.8-0.1,4.2-1.3,4.2-4.1
				c0.1-4.6,0-9.1,0-13.7c0-1.3-0.4-2.3-1.8-2.8C50.5,43.8,50.7,43.7,50.8,43.5z"/>
			<path d="M118.4,65c-0.6-2.2-1.1-4.4-1.7-6.8c-2.2,0-4.3,0-6.6,0c-0.6,2.3-1.5,4.5-1.7,6.5c0.2,1.1,1,1.2,1.1,1.9
				c-1.2,0.5-4.4,0.6-6.1,0.1c0-0.1-0.1-0.3,0-0.4c1.9-2.7,2.5-6,3.5-9c1.4-4.2,2.7-8.4,4-12.7c0.1-0.2,0.2-0.4,0.4-0.9
				c2.1-0.3,4.2-0.6,6.4-0.9c1.1,3.7,2.1,7.3,3.2,10.9c0.9,3.1,1.8,6.2,2.7,9.4c0.3,1,0.7,1.9,1.4,2.6c0.2,0.3,0.5,0.6,0.3,1.2
				c-1.3,0.3-2.6,0.1-3.9,0.1c-1.3,0-2.6,0-3.8,0C116.9,65.9,118.1,65.8,118.4,65z M110.7,55.6c1.9,0.2,3.4,0.3,5.2-0.1
				c-0.8-3.1-1.6-6-2.3-8.8C112.3,49.5,111.7,52.4,110.7,55.6z"/>
			<path d="M179.6,56.3c-1.4-0.3-2.7-0.5-4-0.2c0,2.9,0,5.7,0,8.5c3,0.3,5.9,0.6,8.1-2.1c0.4-0.5,0.8-1.2,1.8-0.9
				c0,1.8-0.5,3.5-0.9,5.3c-5.5,0-10.9,0-16.3,0c-0.1-1,0.9-1,1.2-1.5c0.5-0.8,0.5-1.6,0.5-2.4c0-5.2,0-10.5,0-15.7
				c0-0.8-0.1-1.5-0.5-2.3c-0.4-0.3-0.8-0.7-1.3-1.1c0.3-0.6,0.8-0.6,1.2-0.6c4.6,0,9.2,0,13.9,0.1c0.4,0,0.7,0,1,0.1
				c0.3,0.3,0.3,0.6,0.3,1c0,1.3,0,2.6,0,3.8c-0.8,0.5-1.2,0.1-1.6-0.3c-0.7-0.9-1.3-1.9-2.5-2.2c-1.6-0.3-3.2-0.2-4.9-0.1
				c0,2.7,0,5.3,0,8c1.3,0,2.6,0,3.6,0c1.2-0.4,1.6-1.6,2.6-1.8c0.2,0,0.4,0,0.7,0.1c0,2,0,4,0,6.1
				C181.4,57.9,181.4,57.9,179.6,56.3z"/>
			<path d="M271.5,53.6c1.2,0.3,2.3,0.2,3.4,0.1c0.7,0,1.2-0.6,1.7-1c0.4-0.4,0.8-1,1.7-0.7c0,2,0,4,0,6c-0.8,0.4-1.2-0.2-1.6-0.7
				c-1.5-1.6-3.3-1.4-5.3-1.1c0,2.9,0,5.6,0,8.6c2.9,0.1,5.7,0.8,7.9-1.9c0.4-0.5,0.9-1.5,2-1.1c0.3,1.8-0.6,3.4-0.8,5.1
				c-1.5,0.4-14.6,0.4-16.3,0.1c-0.1-1,1.1-0.9,1.4-1.6c0.2-6.7,0.3-13.3,0-20c-0.3-0.6-1.2-0.6-1.3-1.5c1.7-0.5,3.4-0.1,5.1-0.2
				c1.8-0.1,3.6,0,5.4,0c1.7,0,3.5,0,5.4,0c0.2,1.8,0.2,3.4,0,5c-0.7,0.3-1.1-0.1-1.3-0.5c-1.3-2.1-3.2-2.6-5.5-2.4
				c-0.6,0.1-1.2-0.1-2,0.2C271.5,48.3,271.5,50.9,271.5,53.6z"/>
			<path d="M152.1,66.5c-0.1-1.7-0.1-3.3,0-4.7c0.6-0.4,0.9-0.1,1.2,0.2c0.4,0.4,0.9,0.9,1.3,1.4c1.3,1.5,3.1,1.8,4.9,1.6
				c3.1-0.4,3.5-3.6,2.1-5.2c-0.6-0.7-1.4-1.2-2.2-1.7c-1.6-1.1-3.3-2-4.8-3.2c-1.8-1.4-2.6-3.3-2.4-5.6c0.2-2.5,1.5-4.2,3.7-5.2
				c1.1-0.5,2.2-0.8,3.4-0.8c2.4,0,4.9-0.1,7.2,0.6c0.4,1.8,0.3,3.4-0.1,4.8c-0.6,0.1-0.9-0.3-1.3-0.6c-0.6-0.6-1.3-1.2-2-1.7
				c-1.2-0.9-2.5-1-3.9-0.6c-1.1,0.3-1.9,1-2.1,2.2c-0.2,1.1,0.1,2.1,1,2.9c0.5,0.4,1,0.7,1.6,1c1.5,0.9,3,1.8,4.5,2.7
				c2.6,1.7,3.6,4.3,3.1,7.2c-0.4,2.6-2.3,4.9-5.7,5.4C158.6,67.4,155.4,67.3,152.1,66.5z"/>
			<path d="M5.5,71.9c0.9-0.6,0.9-1.5,0.9-2.3c0-7.5,0-15,0-22.5c0-0.7-0.1-1.4-0.4-2c-0.3-0.6-1.1-0.7-1.3-1.3
				c1-0.5,6.5-0.6,8.7-0.2c0.1,0.9-1,0.8-1.1,1.3c-0.4,1-0.3,1.9-0.3,2.8c0,5.9,0,11.9,0,17.8c0,1-0.1,2-0.3,3
				c-0.6,2.6-2.2,4.3-4.8,5c-2.1,0.5-4.2,0.8-6.1-0.5c-0.9-2.5,0-3.7,2.5-3.4C4.2,70.1,4.3,71.5,5.5,71.9z"/>
			<path d="M225.9,45.7c-1-0.3-2.1-0.6-3.2-0.1c-0.4,2.2-0.3,18.1,0.1,19.5c0.3,0.8,1.5,0.6,1.7,1.4c-1.1,0.5-6.4,0.6-9.6,0.3
				c-0.1-1.2,1.2-0.8,1.5-1.3c0.6-0.8,0.6-1.6,0.6-2.3c0-5.6,0-11.2,0-16.9c0-0.2-0.1-0.5-0.1-0.7c-2.5-0.7-3.4-0.3-4.8,1.6
				c-0.3,0.5-0.5,1.2-1.3,1.3c-0.6-1.1-0.6-2-0.3-4.8c1.2-0.4,16.1-0.5,18.5-0.1c0.3,1.6,0.2,3.2,0.1,5
				C227.3,48.1,227.1,46.5,225.9,45.7z"/>
			<path d="M142.9,61.5c-0.1,1.9-0.6,3.6-1,5.4c-5.1,0-10.2,0-15.3,0c0.5-0.9,0.5-0.9,1.3-1.5c0.4-0.9,0.5-1.8,0.5-2.8
				c0-5,0-10,0-15c0-0.8,0-1.6-0.4-2.4c-0.2-0.6-1.3-0.6-1.3-1.6c3.1,0,6.2,0,9.4,0c-0.1,1.1-1.5,0.9-1.8,1.7
				c-0.4,1.6-0.6,17-0.1,19.3c2.4,0.3,4.7,0.4,6.5-1.7C141.1,62.3,141.6,61.5,142.9,61.5z"/>
			<path d="M282.7,66.8c0.2-0.9,1.2-0.9,1.5-1.6c0.5-1.8,0.5-18.5,0-19.9c-0.3-0.8-1.3-0.8-1.4-1.6c1.4-0.3,7.9-0.4,9.4,0
				c0.1,0.5-0.3,0.6-0.6,0.8c-1.2,0.5-1.6,1.3-1.5,2.5c0,2.2,0,4.4,0,6.6c0,3.3,0,6.6,0,9.9c0,0.4,0,0.8,0.3,1.2
				c2.5,0.4,4.8,0.3,6.7-1.9c0.5-0.6,1.1-1.5,2.3-1.2c-0.2,1.8-0.6,3.5-1,5.2C296.5,67.1,284.3,67.1,282.7,66.8z"/>
			<path d="M239.3,44c-0.4,0.3-0.9,0.7-1.2,1c-0.4,0.9-0.5,1.7-0.5,2.5c0,5.3,0,10.5,0,15.8c0,0.7,0,1.4,0.4,2.1
				c0.2,0.6,1.2,0.6,1.3,1.4c-1.1,0.5-6.7,0.6-8.8,0.1c0-0.9,1-0.9,1.3-1.6c0.4-1.6,0.5-17.8,0-20c-0.3-0.6-1.1-0.6-1.3-1.3
				c0-0.4,0.3-0.5,0.5-0.5c2.4,0,4.9-0.1,7.3-0.1C238.7,43.4,239.2,43.3,239.3,44z"/>
			<path d="M13.3,26.8c0.7-0.3,1.2-0.3,1.8,0c0.4,1.4,0.1,2.9,0.2,4.4c0,1.5,0,3,0,4.3C15,36,14.6,35.9,14,35.8c0-2.1,0-4.2,0-6.3
				c-1.6,1.9-2,4.3-3.2,6.3c-0.9,0.2-1-0.4-1.2-0.9c-0.7-1.8-1.5-3.6-2.3-5.6c-0.6,2.3,0,4.4-0.4,6.3c-0.3,0.4-0.6,0.3-0.9,0.3
				c-0.4-0.4-0.5-6.4-0.1-9.1c0.5-0.3,1-0.2,1.8-0.1c0.9,2,1.8,4.1,2.8,6.5C11.7,31,12.3,28.7,13.3,26.8z"/>
			<path d="M169.7,26.7c0.5-0.2,0.8-0.2,1.3,0.1c-0.6,3-1.7,5.9-2.5,8.8c-0.4,0.4-0.8,0.4-1.4,0.2c-1-2-1.2-4.3-2.2-6.6
				c-0.8,1-0.9,2.2-1.2,3.3c-0.4,1.1-0.6,2.3-1.1,3.3c-0.5,0.2-0.9,0.3-1.4-0.1c-0.8-2.8-1.7-5.8-2.5-8.7c0.5-0.5,0.8-0.3,1.3-0.2
				c0.6,2.1,1.2,4.3,1.8,6.4c0.1,0,0.2,0,0.3,0c0.7-2.1,1.3-4.3,1.9-6.3c0.5-0.3,1-0.3,1.5-0.1c0.9,2,1.2,4.3,2.2,6.8
				C168.4,31,169,28.9,169.7,26.7z"/>
			<path d="M52.3,35.7c-0.5,0.3-0.9,0.2-1.4,0c-0.8-2.8-1.7-5.8-2.6-8.7c0.3-0.6,0.7-0.4,1.2-0.4c1,2.1,1.2,4.4,2.2,6.8
				c0.7-2.4,1.4-4.6,2-6.6c0.6-0.3,1-0.3,1.5-0.1c0.9,2,1.2,4.2,2.1,6.6c1-2.3,1.3-4.6,2-6.5c0.5-0.3,0.8-0.3,1.4-0.1
				c-0.9,3-1.7,6-2.5,8.8c-0.5,0.4-0.8,0.4-1.4,0.2c-0.9-2-1.3-4.4-2.3-6.9C53.4,31.2,53.1,33.5,52.3,35.7z"/>
			<path d="M290,33.7c0.4-2.5-0.1-4.8,0.3-6.9c0.4-0.3,0.7-0.3,1-0.1c0.4,1.3,0.5,7.2,0.1,9.1c-0.2,0-0.3,0.1-0.5,0.1
				c-0.3,0-0.6,0-1,0c-1.6-2.3-3.1-4.6-4.7-6.9c-0.1,0-0.2,0.1-0.3,0.1c0,2.2,0,4.4,0,6.5c-0.5,0.5-0.9,0.3-1.3,0.2c0-3,0-6,0-8.9
				c0.6-0.4,1.1-0.3,1.8-0.1C286.7,28.9,288.3,31.2,290,33.7z"/>
			<path d="M230.9,31.2c0,2.9-1.9,4.9-4.7,4.9c-2.9,0-5-2.1-5-4.9c0-2.8,2.2-4.9,4.9-4.9C228.9,26.3,230.9,28.3,230.9,31.2z
				 M229.5,31.3c0-2.1-1.4-3.6-3.4-3.7c-2,0-3.5,1.5-3.5,3.6c0,2,1.5,3.5,3.3,3.6C227.9,34.9,229.4,33.4,229.5,31.3z"/>
			<path d="M241.4,35.5c-0.5,0.4-0.8,0.4-1,0.4c-0.4-0.5-0.5-6.6-0.1-9c0.4-0.3,0.9-0.2,1.6-0.1c1.5,2.2,3.1,4.5,4.6,6.8
				c0.1,0,0.2,0,0.4-0.1c0-2.2,0-4.5,0-6.5c0.5-0.4,0.8-0.4,1.2-0.1c0,2.9,0,5.9,0,8.8c-0.5,0.4-1,0.3-1.6,0.1
				c-1.5-2.2-3.1-4.5-4.7-6.8c-0.1,0-0.2,0-0.3,0.1C241.4,31.2,241.4,33.4,241.4,35.5z"/>
			<path d="M123.8,27.6c-1.3,0.4-2.8,0-4.3,0.3c-0.4,0.7-0.2,1.5-0.1,2.3c1.4,0.4,2.7,0,4,0.3c0.3,0.3,0.4,0.6,0.1,1.1
				c-1.2,0.4-2.6,0-4,0.3c-0.2,0.8-0.2,1.6-0.1,2.5c1.6,0.4,3.1-0.1,4.5,0.3c0.3,0.4,0.3,0.7,0.1,1.2c-1.9,0.1-3.8,0.1-5.8,0
				c-0.5-1.4-0.5-7-0.1-9.2c1.8-0.2,3.7-0.1,5.4-0.1C123.9,26.9,123.9,27.2,123.8,27.6z"/>
			<path d="M139,26.6c0.2,0.4,0.3,0.7,0.1,1c-1.3,0.5-2.8,0-4.3,0.3c-0.4,0.7-0.2,1.5-0.1,2.5c1.4,0,2.7,0,3.8,0
				c0.5,0.5,0.4,0.9,0.1,1.2c-1.2,0.3-2.4,0-3.7,0.2c-0.5,0.8-0.3,1.6-0.2,2.5c1.6,0.4,3.2-0.1,4.6,0.3c0.2,0.4,0.2,0.7,0,1.1
				c-1.9,0-3.9,0-5.9,0c-0.4-1.4-0.1-2.9-0.2-4.4c0-1.5,0-3,0-4.7C135.2,26.5,137.1,26.6,139,26.6z"/>
			<path d="M103.6,31.6c-0.4,1.6,0,2.9-0.3,4.1c-0.4,0.3-0.7,0.3-1,0.2c-0.4-0.4-0.5-6.4-0.1-9c0.3-0.3,0.7-0.2,1.1,0
				c0.4,1-0.1,2.2,0.4,3.4c1.4-1,2.4-2.3,3.7-3.4c0.5-0.2,1-0.2,1.7,0c-1.1,1.5-2.7,2.6-4,4.2c1.5,1.6,2.9,3.1,4.4,4.7
				c-0.7,0.4-1.2,0.3-1.8,0.1C106.4,34.4,105.1,33.1,103.6,31.6z"/>
			<path d="M75.6,36c-0.4-0.9-0.7-1.5-1-2.1c-1.4-0.3-2.8-0.1-4.1-0.1c-0.7,0.6-0.6,1.5-1.2,2c-0.4,0.2-0.8,0.3-1.4-0.1
				c1.3-2.9,2.6-5.8,3.8-8.7c0.5-0.4,0.9-0.4,1.5-0.1c1.2,2.8,2.5,5.8,3.7,8.7C76.5,36.2,76,35.7,75.6,36z M70.8,32.3
				c1.2,0.1,2.1,0.2,3.1-0.1c-0.4-1.2-0.8-2.4-1.6-3.6C71.8,30,71.3,31,70.8,32.3z"/>
			<path d="M91.4,26.8c0.4-0.3,0.7-0.3,1.2,0c0,2,0.1,4.1,0,6.2c-0.2,1.9-1.6,3-3.5,3c-1.9,0-3.3-1-3.6-2.9
				c-0.4-2.1-0.1-4.2-0.1-6.2c0.4-0.6,0.8-0.4,1.2-0.3c0.4,1.2,0.1,2.5,0.2,3.7c0,0.8,0,1.6,0.1,2.4c0.2,1.2,1,2,2.1,2
				c1.2,0,2.1-0.7,2.2-2.1c0.1-1.2,0-2.5,0.1-3.7C91.2,28.3,91.1,27.5,91.4,26.8z"/>
			<path d="M261.8,33.4c-0.1-0.9-0.8-1.2-1.4-1.4c-0.6-0.2-1.2-0.4-1.7-0.7c-0.9-0.5-1.3-1.3-1.3-2.3c0-1,0.5-1.8,1.4-2.3
				c1.4-0.8,2.9-0.5,4.3,0.6c0,0.4-0.3,0.6-0.8,0.9c-0.8-0.5-1.8-0.9-2.9-0.2c-0.5,0.5-0.6,1.1-0.3,1.7c0.6,0.6,1.4,0.8,2.1,1
				c1.6,0.6,2.3,1.5,2.1,2.9c-0.2,1.5-1.3,2.3-2.9,2.4c-1.5,0.1-2.1-0.1-3.2-1.2c0-0.4,0.3-0.6,0.8-0.9c0.8,0.4,1.6,1.1,2.7,0.7
				C261.2,34.5,261.6,34.1,261.8,33.4z"/>
			<path d="M189.9,34.9c0.2-0.5,0.5-0.7,0.9-0.8c0.8,0.3,1.6,1.1,2.6,0.7c0.6-0.2,1-0.6,1.1-1.2c0-0.8-0.6-1.2-1.2-1.5
				c-0.6-0.2-1.2-0.4-1.7-0.7c-1.2-0.6-1.7-1.5-1.5-2.7c0.2-1.2,0.9-1.9,2-2.2c1.3-0.4,2.4-0.1,3.6,0.8c0.1,0.5-0.3,0.6-0.7,0.9
				c-0.8-0.3-1.6-0.8-2.6-0.5c-0.5,0.2-0.8,0.5-1,1.1c0,0.8,0.5,1.2,1.2,1.4c0.6,0.2,1.2,0.4,1.8,0.6c1.2,0.5,1.6,1.3,1.6,2.5
				c-0.1,1.2-0.7,2.1-1.8,2.4C192.7,36.3,191.2,36.3,189.9,34.9z"/>
			<path d="M193.6,83.2c-0.4,0.1-0.6,0.1-1-0.1c0-1.8,0-3.7,0-5.6c0.5-0.4,0.9-0.1,1.3,0.2c1.2-0.7,2.4-0.9,3.5,0.2
				c0.5-0.2,0.9-0.5,1.4-0.6c1.5-0.4,2.7,0.4,2.8,1.9c0.1,1.3,0.2,2.6,0,3.9c-0.3,0.3-0.6,0.3-1,0.1c-0.5-1.4,0.2-2.9-0.4-4.3
				c-1.6-0.7-2.2-0.3-2.4,1.3c-0.1,1,0.2,2.1-0.2,3.1c-0.3,0.1-0.5,0.2-0.8,0c-0.6-1.4,0.4-3.2-0.7-4.6c-1.5-0.1-1.8,0.1-2.1,1.4
				C193.6,81,194,82.1,193.6,83.2z"/>
			<path d="M211.9,33.8c0.4,0.2,0.7,0.3,0.8,0.7c0,0.5-1.1,1.3-2.2,1.5c-2.4,0.5-4.6-0.6-5.5-2.8c-0.9-2.2-0.2-4.8,1.6-6
				c2-1.3,4.3-1.1,5.9,0.5c0,0.5-0.4,0.6-0.7,0.7c-2.6-1.2-4-1-5.1,0.6c-1,1.4-0.8,3.5,0.3,4.7C208.3,35.1,209.7,35.1,211.9,33.8z"
				/>
			<path d="M164.1,80.9c-1.5,0-3,0-4.4,0c0.6,1.8,1.3,1.9,3.5,0.9c0.3,0.1,0.4,0.2,0.5,0.5c-0.1,0.7-1.4,1.4-2.6,1.3
				c-1.8-0.1-3.1-1.6-3-3.4c0.1-1.8,1.5-3,3.2-3C163.2,77.3,164,78.3,164.1,80.9z M162.7,79.7c-0.1-0.9-0.6-1.4-1.5-1.4
				c-0.9,0-1.5,0.4-1.8,1.4C160.6,79.9,161.7,79.9,162.7,79.7z"/>
			<path d="M188.7,80.4c0,1.8-1.5,3.2-3.2,3.2c-1.8,0-3.2-1.4-3.2-3.2c0-1.8,1.4-3.2,3.2-3.2C187.4,77.2,188.7,78.6,188.7,80.4z
				 M187.3,80.4c0-1.2-0.6-2-1.7-2c-1.1-0.1-2,0.7-2,1.9c0,1.2,0.8,2.1,1.9,2.1C186.6,82.4,187.3,81.6,187.3,80.4z"/>
			<path d="M121.2,83.6c-1.7,0-3.3-1.5-3.3-3.2c0-1.8,1.4-3.2,3.3-3.2c1.8,0,3.2,1.3,3.2,3.2C124.3,82.2,123,83.6,121.2,83.6z
				 M123.1,80.5c0-1.2-0.8-2.1-1.9-2.1c-1.1,0-1.8,0.8-1.9,1.9c0,1.2,0.8,2.1,1.9,2.1C122.2,82.4,123,81.6,123.1,80.5z"/>
			<path d="M114.1,78.1c-0.7,1.5-2.3-0.7-2.8,0.9c0.3,0.7,1,0.6,1.5,0.8c1.2,0.4,1.7,1.1,1.6,2c-0.1,0.9-0.8,1.5-2,1.7
				c-1,0.1-2,0-2.7-0.9c-0.1-0.4,0.2-0.6,0.5-0.8c0.6-0.1,0.9,0.5,1.3,0.5c0.7,0.1,1-0.2,1.3-0.5c0.1-0.3,0-0.6-0.3-0.7
				c-0.8-0.5-1.8-0.4-2.5-1.2c-0.4-1.5-0.3-1.9,0.5-2.4C111.7,77,112.9,77.1,114.1,78.1z"/>
			<path d="M37.3,34.4c1.4,0.4,2.7,0,3.9,0.3c0.4,0.4,0.4,0.7,0.1,1.2c-1.7,0-3.4,0-5.2,0c0-3,0-6,0-8.9c0.2-0.3,0.5-0.3,1.1-0.2
				C37.3,29.2,37.1,31.8,37.3,34.4z"/>
			<path d="M152.7,78.9c-1.6-0.7-2.4-0.3-2.6,1.2c-0.1,1,0,2,0,2.7c-0.4,0.6-0.6,0.6-1.2,0.4c-0.1-1.8-0.1-3.7,0-5.8
				c1.1,0.3,2,0,3-0.1c1.3-0.2,2.2,0.6,2.3,1.9c0.1,1.4,0.1,2.7,0,4c-0.3,0.3-0.6,0.3-0.9,0.2C152.7,81.9,153.5,80.3,152.7,78.9z"/>
			<path d="M128.5,77.5c0.5-0.2,0.9-0.1,1.2,0.3c0.4-0.2,0.9-0.4,1.3-0.5c1.5-0.3,2.6,0.5,2.7,2.1c0.1,1.2,0,2.5,0,3.5
				c-0.4,0.5-0.6,0.5-1,0.3c-0.7-1.5,0.5-3.4-0.8-4.6c-0.8-0.3-1.3-0.2-1.8,0.2c-1.1,1.3-0.2,2.9-0.7,4.2c-0.2,0.3-0.4,0.3-0.7,0.3
				C128.1,83,128,79.9,128.5,77.5z"/>
			<path d="M179,78.2c-0.1,0.4-0.3,0.5-0.5,0.6c-2-0.6-2.9-0.3-3.3,0.9c-0.4,1.2,0.1,2.1,1.7,2.8c0.5-0.2,1-0.3,1.5-0.5
				c0.3,0.1,0.6,0.3,0.6,0.7c-1.5,1.3-3.2,1.3-4.4,0c-1.1-1.1-1.1-3.3,0-4.5C175.6,76.9,177.4,76.9,179,78.2z"/>
			<path d="M139.1,83.1c-0.6,0.3-0.8,0.3-1.3,0c-0.1-2.9,0-6,0-8.9c0.4-0.4,0.7-0.4,1.3-0.1C139.2,77,139.1,80.1,139.1,83.1z"/>
			<path d="M26.1,35.7c-0.4,0.3-0.7,0.3-1.2,0c0-2.9,0-5.8,0-8.8c0.3-0.4,0.7-0.3,1.2-0.2C26.1,29.7,26.1,32.7,26.1,35.7z"/>
			<path d="M272.5,26.7c0.5-0.2,0.8-0.2,1.2,0.1c0,2.9,0,5.8,0,8.7c-0.4,0.4-0.7,0.4-1.2,0.1C272.5,32.8,272.5,29.8,272.5,26.7z"/>
			<path d="M180.6,35.8c-0.2,0.1-0.5,0.1-0.7,0c-0.4-1.3-0.5-7.1-0.1-9c0.3-0.2,0.5-0.1,0.8-0.1C181,28.4,181,34.3,180.6,35.8z"/>
			<path d="M143.5,77.7c0.3-0.3,0.5-0.3,1-0.2c0.2,1.8,0,3.7,0.2,5.5c-0.4,0.4-0.7,0.5-1.2,0.2C143.5,81.4,143.5,79.5,143.5,77.7z"
				/>
			<path d="M148.6,31.5c0.2-0.3,0.4-0.6,0.6-0.8c0.2-0.2,0.4-0.4,0.8-0.5c0.5,0.2,0.8,0.6,0.9,1.1c0,0.7-0.4,1.1-1,1.4
				C149.2,32.7,149,32.1,148.6,31.5z"/>
		</g>
		<circle cx="168.9" cy="82.6" r="0.7"/>
		<circle cx="144.1" cy="76.1" r="0.7"/>
		<circle cx="105.2" cy="76.1" r="0.7"/>
	</g>
</g>
<g id="Layer_1">
</g>
</svg>
