<?xml version="1.0" encoding="utf-8"?>
<!-- Generator: Adobe Illustrator 18.0.0, SVG Export Plug-In . SVG Version: 6.00 Build 0)  -->
<!DOCTYPE svg PUBLIC "-//W3C//DTD SVG 1.1//EN" "http://www.w3.org/Graphics/SVG/1.1/DTD/svg11.dtd">
<svg version="1.1" xmlns="http://www.w3.org/2000/svg" xmlns:xlink="http://www.w3.org/1999/xlink" x="0px" y="0px"
	 viewBox="0 0 300 47.7" style="enable-background:new 0 0 300 47.7;" xml:space="preserve">
<style type="text/css">
	.st0{fill-rule:evenodd;clip-rule:evenodd;}
	.st1{fill-rule:evenodd;clip-rule:evenodd;fill:#C038F9;}
	.st2{fill:none;}
	.st3{fill-rule:evenodd;clip-rule:evenodd;fill:#231F20;}
</style>
<g id="Layer_2">
</g>
<g id="Layer_1">
	<g>
		<path class="st0" d="M271.5,16.7c2.2-1.9,4-2.9,5.2-2.9c1.8,0,3.1,1.6,4.4,1.6c0.6,0,1.1-0.5,1.4-1l0.5,0.4
			c-1.5,2-2.6,3.8-3.7,5.5c-1.4-1.9-3.8-3.3-5.4-3.3c-1.7,0-1.9,1.1-1.3,2.1c1.2,1.7,4.2,3.4,6.4,5.2c1.8,1.4,2.9,2.8,2.9,4.9
			c0,2.6-3.1,5.3-5.3,9c-2.2-1.2-5.1-2.5-7.4-2.5c-1.6,0-2.5,0.8-2.9,1.8l-0.3-0.1c0.7-3.7,2-6.7,4.6-6.7c2,0,4.3,1.5,6.9,3.5
			c0.4,0.3,0.7,0.2,0.9-0.2c0.4-0.8,0.2-2.4-1.6-3.9c-2-1.7-4.1-2.6-5.7-3.8c-2.3-1.7-2.9-3.1-2.9-4.4
			C268.3,20.2,269.2,18.8,271.5,16.7"/>
		<polyline class="st0" points="210.8,13.6 214.1,7.5 217.1,9.8 211.8,14.5 210.8,13.6 		"/>
		<path class="st0" d="M216.4,29.5c0,3,0.7,4.1,2.1,4.1c0.8,0,1.2-0.4,1.2-0.4l0.3,0.7c-1.5,1.1-4.2,3.2-5.4,4.3c-3.2-2.9-4-4-4-8.7
			v-8.7c0-1.5-0.6-2.2-1.9-2.8v-0.1c1.3-0.8,3.8-2.2,5.7-3.5c1.6,1.8,2,3,2,5.9V29.5"/>
		<path d="M258.9,37.5c-0.8,0.5-1.5,0.5-2.4,0.1c-3.4-1.8-4.7-4.5-4.7-9v-8.3c0-0.5,0.1-0.8,0.6-1.1l8.8-4.8
			c0.4-0.2,0.6-0.1,0.8,0.2l4.2,6.8c0.2,0.4,0.2,0.6-0.2,0.9c-2.9,2.1-7,4.9-8.8,6.1l-0.1-1.2c1.2-0.7,3.2-2,4.2-2.9
			c0.3-0.3,0.4-0.5,0.1-0.9l-3.2-5.1c-0.4-0.6-0.9-0.3-0.9,0.3v8.7c0,3.7,1.4,6.1,4,6.1c2.6,0,4.3-2.2,5.1-3.7l0.1,0v2
			C264.4,33.6,261.4,36.1,258.9,37.5"/>
		<path class="st0" d="M87.1,14.1C85.2,11.5,81.6,8,78.1,8c-2.3,0-3.4,1.4-3.4,2.6c0,1.6,1.4,2.7,4.8,4.9C86.4,20,91.8,23,91.8,28.9
			c0,6.1-6.6,8.3-8.5,12.9h-0.1c-4.3-6.2-11.8-7.5-14.8-4.7L68,37c0.4-2.8,2.1-7.8,6.1-7.8c3.7,0,8.7,5,11.7,6.2
			c0.4,0.2,0.8,0.1,1.1-0.3c0.4-0.5,0.6-1.2,0.6-2.4c0-8.3-17.2-10.6-17.2-17.2c0-1.6,1.4-4.4,3.4-6.8c2.6-3.2,5.3-4.7,8.2-4.7
			c4.5,0,6.7,3.3,8.6,3.3c0.8,0,1.3-0.4,1.8-1.1l0.5,0.5C90.8,8.9,88.2,12.4,87.1,14.1"/>
		<path class="st0" d="M86.5,32.8c0-7.4-17.4-9.6-17.4-17.4l-0.2,0c-1.2,8.7,15.8,10.9,17.4,17.4L86.5,32.8"/>
		<path class="st0" d="M146.2,27.6c0,3.7,0.7,5.2,2.5,5.2c0.9,0,1.6-0.6,1.6-0.6l0.3,0.7c-1.5,1.4-4,4-5.1,5.2
			c-2.3-1.7-4-3.5-4.5-5.6l-0.2-0.5V14.8c0-2.3-0.4-3.3-2-3.7V11c2.4-1.4,5-2.9,7.3-4.5l0.2,0.1V27.6"/>
		<path class="st0" d="M136.1,27.6c0,4,0.9,5.4,2.6,5.4c1.6,0,2.6-1.7,2.6-1.7l0.4,1c-1.4,1.3-5,4.7-6.2,5.9
			c-3.7-2.5-4.8-4.5-4.8-9.2V14.8c0-2.3-0.4-3.3-2-3.7V11c2.4-1.4,5-2.9,7.3-4.5l0.1,0.1V27.6"/>
		<polyline class="st0" points="149,17.7 150.2,15.3 126.6,15.3 127.5,17.7 149,17.7 		"/>
		<path d="M166.9,37.6c-3.4-1.8-4.7-4.5-4.7-9v-8.3c0-0.5,0.1-0.8,0.6-1.1l8.8-4.8c0.4-0.2,0.6-0.1,0.8,0.2l4.2,6.8
			c0.2,0.4,0.2,0.6-0.2,0.9c-2.9,2.1-6.9,4.9-8.8,6.1l-0.1-1.2c1.2-0.7,3.2-2,4.2-2.9c0.3-0.3,0.4-0.5,0.1-0.9l-3.2-5.1
			c-0.3-0.5-0.9-0.3-0.9,0.3v8.7c0,3.7,1.5,6.2,4.1,6.2c2.6,0,4.7-2.5,5.5-4l0.1,0v2c-2.3,2.1-5.7,4.7-8.2,6.1
			C168.5,38,167.8,38,166.9,37.6"/>
		<path class="st0" d="M157.2,28c0,3.7,1,4.8,2.8,4.8c0.9,0,1.6-0.6,1.6-0.6l0.3,0.7c-1.4,1.3-4.2,4-5.3,5.2
			c-3.8-2.8-4.9-4.2-4.9-9.2V12.7c0-2.3-0.4-3.3-2-3.7V8.9c2.4-1.4,5-2.9,7.3-4.5l0.2,0.1V28"/>
		<path class="st0" d="M120.7,23.3c-2.8,2-7.8,4.7-10.1,6.1c-0.3,0.2-0.5,0.5-0.5,0.9c0,3.4,1,6,3.3,7.2c0.7,0.4,1.3,0.3,1.9-0.1
			l5.5-4.5l-0.3-1.1c-0.5,0.9-1.3,1.6-2.4,1.6c-1.7,0-2.5-2.1-2.5-5.1c0-0.3,0-0.5,0.3-0.7c1.2-0.9,3.6-2.4,4.9-3.1L120.7,23.3"/>
		<path class="st0" d="M125.7,28.6c0,2.2,0.1,3.1,0.7,4c0.4,0.6,0.9,0.9,1.5,0.9c0.7,0,1-0.4,1-0.4l0.3,0.7c-1.3,1-3.9,3.3-5.1,4.4
			c-2.2-2-3.4-3.3-3.7-5.6V22.2c0-0.9-0.2-1.6-0.9-2.1c-0.8-0.7-2.4-1.7-3.3-2.2c-0.6-0.3-0.9,0-0.9,0.6v3.6c0,0.8-0.3,1.4-0.9,1.7
			l-3.5,1.8c-0.2,0.1-0.4,0-0.4-0.2v-5c0-0.4,0.1-0.6,0.4-0.8l8-5.1c0.3-0.2,0.4-0.2,0.8,0c1.6,1,4.2,2.9,5.7,4.1
			c0.3,0.2,0.4,0.5,0.4,0.8V28.6"/>
		<path d="M101,37.5c-0.8,0.5-1.5,0.5-2.4,0.1c-3.4-1.8-4.7-4.5-4.7-9v-8.3c0-0.5,0.1-0.8,0.6-1.1l8.8-4.8c0.4-0.2,0.6-0.1,0.8,0.2
			l4.2,6.8c0.2,0.4,0.2,0.6-0.2,0.9c-2.9,2.1-7,4.9-8.8,6.1l-0.1-1.2c1.2-0.7,3.2-2,4.2-2.9c0.3-0.3,0.4-0.5,0.1-0.9l-3.2-5.1
			c-0.4-0.6-0.9-0.3-0.9,0.3v8.7c0,3.7,1.4,6.1,4,6.1c2.6,0,4.3-2.2,5.1-3.7l0.1,0v2C106.5,33.6,103.4,36.1,101,37.5"/>
		<path d="M52.8,37.6c-3.4-1.8-4.7-4.5-4.7-9v-8.3c0-0.5,0.1-0.8,0.6-1.1l8.8-4.8c0.4-0.2,0.6-0.1,0.8,0.2l4.2,6.8
			c0.2,0.4,0.2,0.6-0.2,0.9c-2.9,2.1-6.9,4.9-8.8,6.1l-0.1-1.2c1.2-0.7,3.2-2,4.2-2.9c0.3-0.3,0.4-0.5,0.1-0.9l-3.3-5.1
			c-0.3-0.5-0.9-0.3-0.9,0.3v8.7c0,3.7,1.5,6.2,4.1,6.2c2.6,0,4.7-2.5,5.5-4l0.1,0v2c-2.3,2.1-5.7,4.7-8.2,6.1
			C54.3,38,53.6,38,52.8,37.6"/>
		<path d="M34.3,29.2c0,3.5,0.5,4.4,2.4,6L32.4,39c-2.8-2.6-3.6-4-3.6-8.9V17c0-2.3-0.3-3.4-1.9-3.7v-0.1c2.3-1.4,4.9-3.3,7.2-5
			l0.1,0.1v9.5c0,0.5,0.3,0.8,0.9,0.4c1.6-0.9,3.9-2.3,5.3-3.3c0.2-0.1,0.3-0.2,0.6-0.1c2.7,1.3,3.8,3.3,3.8,5.3v10.3
			c0,5-0.8,6.6-9.2,14.7l-1-0.7c4-2.7,4.4-6,4.4-11.7V22.6c0-1.2-0.1-2-0.3-2.8c-0.3-0.8-0.8-1.4-1.6-1.4c-1,0-2.2,1.1-2.9,1.9V29.2
			"/>
		<path class="st0" d="M0.8,13.6c-0.1-1,0.2-2,1-2.9C2.7,9.9,3.9,9.5,6,9.5c3.9,0,10.6,2.9,16.6,2.9c5.2,0,8.7-5.1,10.1-7.7L32.1,3
			L32,3c-0.3,2.2-2.2,5-6.5,5c-4,0-12-3.1-16.1-3.1c-6,0-8.9,4.4-9.4,8L0.8,13.6L0.8,13.6"/>
		<rect x="20.3" y="11.4" width="1.3" height="25.9"/>
		<path class="st0" d="M11,11.6l0.7,0.4c-2.8,2-5,5.9-5,10.6c0,8,4.6,14.5,12.1,14.5c4.3,0,7-2.2,8.3-4.4l0.1,0l0.1,1.9
			c-2.1,1.9-6.6,5.2-12.2,5.2C6.4,40,1.1,34,1.1,26.1C1.1,18.7,6.2,14.1,11,11.6"/>
		<path class="st0" d="M18.1,11.3l-3.3,1.8c-2,1.1-2.5,2.3-2.5,4.6c0,2,0.6,5.5,0.6,8.2c0,2.8-0.6,3.7-3,4.7l0.4,0.8
			c1.6-0.7,4.3-2.1,6.1-3.2c1.5-0.9,1.7-1.4,1.7-2.9v-8.9c0-2.9,0.1-3.8,0.6-4.6L18.1,11.3"/>
		<path class="st0" d="M237.2,30c0,2.8,0.9,3.9,2.1,3.9c0.7,0,1.1-0.4,1.1-0.4l0.3,0.7c-1.3,0.9-4.1,3-5.3,4
			c-3.3-3.1-3.9-4.2-3.9-8.9v-6.6c0-1.2-0.1-2-0.3-2.8c-0.3-0.8-0.8-1.4-1.6-1.4c-1,0-2.2,1-2.8,1.8V30c0,2.8,0.9,3.9,2.1,3.9
			c0.7,0,1.1-0.4,1.1-0.4l0.3,0.7c-1.3,0.9-4.1,3-5.3,4c-3.3-3.1-3.9-4.1-3.9-8.8v-8.5c0-1.5-0.6-2.2-1.9-2.8v-0.1
			c1.3-0.8,3.8-2.2,5.7-3.5c0.8,1.1,1.4,2.4,1.7,3.6c0.1,0.4,0.5,0.5,0.9,0.3c1.7-0.9,4-2.4,5.5-3.5c0.2-0.1,0.3-0.2,0.6-0.1
			c1.8,0.8,2.9,2.1,3.4,3.3c0.2,0.4,0.5,0.5,0.9,0.3c1.7-1,4-2.5,5.6-3.5c0.2-0.1,0.3-0.2,0.6-0.1c3,1.4,3.8,3,3.8,6.8V30
			c0,2.8,0.9,3.9,2.1,3.9c0.7,0,1.1-0.4,1.1-0.4l0.3,0.7c-1.3,0.9-4.1,3-5.3,4c-3.3-3.1-3.9-4.2-3.9-8.9v-6.6c0-1.2-0.1-2-0.3-2.8
			c-0.3-0.8-0.8-1.4-1.6-1.4c-1,0-2.2,1-2.8,1.8V30"/>
		<path class="st0" d="M182.2,13.6c-0.1-1,0.2-2,1-2.9c0.9-0.9,2.1-1.3,4.2-1.3c3.9,0,10.6,2.9,16.6,2.9c5.2,0,8.7-5.1,10.1-7.7
			L213.5,3l-0.1,0c-0.3,2.2-2.2,5-6.5,5c-4,0-12-3.1-16.1-3.1c-6,0-8.9,4.4-9.4,8L182.2,13.6L182.2,13.6"/>
		<rect x="201.7" y="11.4" width="1.3" height="25.9"/>
		<path class="st0" d="M192.4,11.6l0.7,0.4c-2.8,2-5,5.9-5,10.6c0,8,4.6,14.5,12.1,14.5c4.3,0,7-2.2,8.3-4.4l0.1,0l0.1,1.9
			c-2.1,1.9-6.6,5.2-12.2,5.2c-8.7,0-14.1-6-14.1-13.9C182.5,18.7,187.6,14.1,192.4,11.6"/>
		<path class="st0" d="M199.5,11.3l-3.3,1.8c-2,1.1-2.5,2.3-2.5,4.6c0,2,0.6,5.5,0.6,8.2c0,2.8-0.6,3.7-3,4.7l0.4,0.8
			c1.6-0.7,4.3-2.1,6.1-3.2c1.5-0.9,1.7-1.4,1.7-2.9v-8.9c0-2.9,0.1-3.8,0.6-4.6L199.5,11.3"/>
	</g>
</g>
</svg>
