<?xml version="1.0" encoding="utf-8"?>
<!-- Generator: Adobe Illustrator 18.0.0, SVG Export Plug-In . SVG Version: 6.00 Build 0)  -->
<!DOCTYPE svg PUBLIC "-//W3C//DTD SVG 1.1//EN" "http://www.w3.org/Graphics/SVG/1.1/DTD/svg11.dtd">
<svg version="1.1" xmlns="http://www.w3.org/2000/svg" xmlns:xlink="http://www.w3.org/1999/xlink" x="0px" y="0px"
	 viewBox="0 0 300 95.7" style="enable-background:new 0 0 300 95.7;" xml:space="preserve">
<style type="text/css">
	.st0{fill-rule:evenodd;clip-rule:evenodd;}
	.st1{fill-rule:evenodd;clip-rule:evenodd;fill:#C038F9;}
	.st2{fill:none;}
	.st3{fill-rule:evenodd;clip-rule:evenodd;fill:#231F20;}
</style>
<g id="Layer_2">
	<g>
		<g>
			<path d="M10.3,59.9c0,1.3-0.1,2.6-0.4,3.8s-0.7,2.2-1.2,3.1c-0.5,0.9-1.1,1.6-1.8,2.1c-0.7,0.5-1.5,0.8-2.5,0.8
				c-1.1,0-2-0.4-2.7-1.2C1,67.7,0.4,66.9,0,66.1l2.7-3.6c0.2,0.4,0.5,0.8,0.9,1c0.3,0.3,0.7,0.4,1,0.4c0.2,0,0.4-0.1,0.7-0.2
				C5.6,63.6,5.8,63.4,6,63c0.2-0.4,0.4-0.8,0.6-1.5c0.2-0.6,0.3-1.4,0.3-2.5v-30h3.4V59.9z"/>
			<path d="M17.4,29.1h2.9l5.4,40.3h-3.4l-1-8.7h-4.7l-1,8.7H12L17.4,29.1z M18.8,40.7L18.8,40.7l-1.8,14.6h3.4L18.8,40.7z"/>
			<path d="M38.2,60.4c0,1.2-0.1,2.4-0.4,3.6c-0.3,1.1-0.7,2.1-1.2,3c-0.5,0.8-1.1,1.5-1.7,2c-0.7,0.5-1.4,0.8-2.1,0.8
				c-0.7,0-1.3-0.2-2-0.5c-0.7-0.3-1.3-0.8-1.8-1.6c-0.5-0.7-1-1.7-1.3-2.9c-0.3-1.2-0.5-2.7-0.5-4.6V38.1c0-1.3,0.1-2.5,0.4-3.7
				c0.3-1.1,0.7-2.1,1.1-2.9c0.5-0.8,1.1-1.5,1.8-2c0.7-0.5,1.4-0.7,2.3-0.7c0.8,0,1.5,0.2,2.2,0.7c0.7,0.5,1.3,1.1,1.8,2
				c0.5,0.8,0.9,1.9,1.2,3.1c0.3,1.2,0.4,2.5,0.4,3.9v2.3h-3.4v-1.9c0-1.1-0.2-2.1-0.6-2.9s-0.9-1.2-1.5-1.2c-0.9,0-1.4,0.4-1.7,1.3
				c-0.3,0.9-0.4,2-0.4,3.4v20.6c0,1.2,0.2,2.1,0.5,2.9c0.3,0.8,0.8,1.2,1.6,1.2c0.2,0,0.5-0.1,0.7-0.2c0.3-0.1,0.5-0.3,0.7-0.6
				c0.2-0.3,0.4-0.7,0.5-1.2c0.1-0.5,0.2-1.2,0.2-2v-2h3.4V60.4z"/>
			<path d="M41,29.1h3.4v18.4h0.1l5-18.4h3.4l-4.7,16.1l5.6,24.1h-3.6l-3.9-17.9l-1.9,5.8v12H41V29.1z"/>
			<path d="M66.5,40.7H63v-1.3c0-1.3-0.2-2.5-0.6-3.4c-0.4-1-1-1.4-1.9-1.4c-0.5,0-0.9,0.2-1.2,0.5c-0.3,0.3-0.5,0.7-0.7,1.2
				c-0.2,0.5-0.3,1-0.4,1.6c-0.1,0.6-0.1,1.3-0.1,1.9c0,0.8,0,1.5,0.1,2c0,0.5,0.1,1,0.3,1.4c0.1,0.4,0.3,0.7,0.6,1
				c0.3,0.3,0.6,0.6,1.1,0.9l2.6,1.8c0.8,0.5,1.4,1.1,1.9,1.7c0.5,0.7,0.8,1.4,1.1,2.3c0.3,0.9,0.4,1.9,0.5,3.1
				c0.1,1.2,0.1,2.5,0.1,3.9c0,1.7-0.1,3.3-0.3,4.7c-0.2,1.4-0.5,2.7-1,3.7c-0.5,1-1.1,1.9-1.8,2.5c-0.8,0.6-1.7,0.9-2.8,0.9
				c-0.8,0-1.6-0.2-2.3-0.7c-0.7-0.5-1.3-1.2-1.9-2c-0.5-0.9-0.9-1.9-1.2-3c-0.3-1.2-0.5-2.4-0.5-3.8V58h3.4v1.8
				c0,1.1,0.2,2,0.6,2.9c0.4,0.8,1,1.3,1.9,1.3c0.6,0,1-0.1,1.4-0.4c0.3-0.3,0.6-0.7,0.7-1.2c0.2-0.5,0.3-1.1,0.3-1.9
				c0-0.8,0.1-1.6,0.1-2.5c0-1.1,0-1.9-0.1-2.6c0-0.7-0.1-1.2-0.3-1.6s-0.3-0.8-0.6-1c-0.3-0.3-0.6-0.5-1-0.8l-2.5-1.7
				c-1.5-1-2.5-2.4-3-4c-0.5-1.7-0.8-3.8-0.8-6.3c0-1.5,0.1-2.9,0.4-4.3c0.2-1.4,0.6-2.5,1.1-3.5c0.5-1,1.1-1.8,1.8-2.3
				c0.7-0.6,1.6-0.9,2.6-0.9c0.9,0,1.6,0.3,2.3,0.8s1.3,1.2,1.8,2.1c0.5,0.9,0.9,1.8,1.2,2.9c0.3,1.1,0.4,2.2,0.4,3.3V40.7z"/>
			<path d="M68.8,38.6c0-1.6,0.2-3.1,0.5-4.3c0.3-1.2,0.8-2.3,1.3-3.1c0.6-0.8,1.2-1.4,1.9-1.8c0.7-0.4,1.4-0.6,2.1-0.6
				s1.4,0.2,2.1,0.6c0.7,0.4,1.3,1,1.9,1.8c0.6,0.8,1,1.8,1.3,3.1c0.3,1.2,0.5,2.7,0.5,4.3v21.3c0,1.7-0.2,3.1-0.5,4.3
				c-0.3,1.2-0.8,2.2-1.3,3.1c-0.6,0.8-1.2,1.4-1.9,1.8c-0.7,0.4-1.4,0.6-2.1,0.6s-1.4-0.2-2.1-0.6c-0.7-0.4-1.3-1-1.9-1.8
				c-0.5-0.8-1-1.8-1.3-3.1c-0.3-1.2-0.5-2.7-0.5-4.3V38.6z M72.2,59.9c0,1.4,0.2,2.4,0.7,3.1c0.5,0.7,1,1,1.6,1s1.2-0.3,1.6-1
				c0.5-0.7,0.7-1.7,0.7-3.1V38.6c0-1.4-0.2-2.4-0.7-3.1c-0.5-0.7-1-1-1.6-1s-1.2,0.3-1.6,1c-0.5,0.7-0.7,1.7-0.7,3.1V59.9z"/>
			<path d="M83.2,29.1h3.3l5.2,24.3h0.1V29.1h3.4v40.3H92l-5.3-24.2h-0.1v24.2h-3.4V29.1z"/>
			<path d="M104.6,29.1h10.2v5.4H108v12.2h5.9v5.4H108v17.2h-3.4V29.1z"/>
			<path d="M117,29.1h5.5c4,0,6.1,3.9,6.1,11.8c0,2.3-0.2,4.3-0.7,6c-0.4,1.7-1.2,3-2.3,4l3.7,18.4h-3.6l-3.2-17.2h-2.1v17.2H117
				V29.1z M120.5,47.1h2c0.6,0,1.1-0.1,1.4-0.4c0.4-0.3,0.6-0.7,0.8-1.2c0.2-0.5,0.3-1.2,0.4-2c0.1-0.8,0.1-1.7,0.1-2.7
				c0-1,0-1.9-0.1-2.7c-0.1-0.8-0.2-1.4-0.4-2c-0.2-0.5-0.5-1-0.9-1.2c-0.4-0.3-0.9-0.4-1.5-0.4h-1.8V47.1z"/>
			<path d="M131.4,29.1h10.2v5.4h-6.8v11.8h5.9v5.4h-5.9v11.8h6.8v5.8h-10.2V29.1z"/>
			<path d="M143.8,29.1h10.2v5.4h-6.8v11.8h5.9v5.4h-5.9v11.8h6.8v5.8h-10.2V29.1z"/>
			<path d="M162.6,29.1h5.2c0.9,0,1.8,0.2,2.5,0.6c0.7,0.4,1.4,1.1,2,2.2c0.6,1.1,1,2.3,1.2,3.7c0.2,1.4,0.3,3.3,0.3,5.7
				c0,1.8-0.1,3.3-0.2,4.6c-0.1,1.3-0.4,2.4-0.8,3.5c-0.5,1.3-1.1,2.3-1.9,3.1c-0.8,0.7-1.8,1.1-3.1,1.1H166v15.7h-3.4V29.1z
				 M166,48.2h1.7c0.7,0,1.2-0.2,1.6-0.5c0.4-0.3,0.7-0.8,0.8-1.4c0.2-0.6,0.3-1.3,0.3-2.1c0-0.8,0.1-1.8,0.1-2.8
				c0-0.9,0-1.8-0.1-2.7c0-0.8-0.1-1.6-0.3-2.2c-0.2-0.6-0.4-1.1-0.8-1.5c-0.4-0.4-0.9-0.5-1.6-0.5H166V48.2z"/>
			<path d="M176.3,29.1h5.5c4,0,6.1,3.9,6.1,11.8c0,2.3-0.2,4.3-0.7,6c-0.4,1.7-1.2,3-2.3,4l3.7,18.4H185l-3.2-17.2h-2.1v17.2h-3.4
				V29.1z M179.7,47.1h2c0.6,0,1.1-0.1,1.4-0.4c0.4-0.3,0.6-0.7,0.8-1.2c0.2-0.5,0.3-1.2,0.4-2c0.1-0.8,0.1-1.7,0.1-2.7
				c0-1,0-1.9-0.1-2.7c-0.1-0.8-0.2-1.4-0.4-2c-0.2-0.5-0.5-1-0.9-1.2c-0.4-0.3-0.9-0.4-1.5-0.4h-1.8V47.1z"/>
			<path d="M190.6,29.1h10.2v5.4h-6.8v11.8h5.9v5.4h-5.9v11.8h6.8v5.8h-10.2V29.1z"/>
			<path d="M214.2,40.7h-3.4v-1.3c0-1.3-0.2-2.5-0.6-3.4c-0.4-1-1-1.4-1.9-1.4c-0.5,0-0.9,0.2-1.2,0.5c-0.3,0.3-0.5,0.7-0.7,1.2
				c-0.2,0.5-0.3,1-0.4,1.6c-0.1,0.6-0.1,1.3-0.1,1.9c0,0.8,0,1.5,0.1,2c0,0.5,0.1,1,0.3,1.4c0.1,0.4,0.3,0.7,0.6,1
				c0.3,0.3,0.6,0.6,1.1,0.9l2.6,1.8c0.8,0.5,1.4,1.1,1.9,1.7c0.5,0.7,0.8,1.4,1.1,2.3c0.3,0.9,0.4,1.9,0.5,3.1
				c0.1,1.2,0.1,2.5,0.1,3.9c0,1.7-0.1,3.3-0.3,4.7c-0.2,1.4-0.5,2.7-1,3.7c-0.5,1-1.1,1.9-1.8,2.5c-0.8,0.6-1.7,0.9-2.8,0.9
				c-0.8,0-1.6-0.2-2.3-0.7c-0.7-0.5-1.3-1.2-1.9-2c-0.5-0.9-0.9-1.9-1.2-3s-0.5-2.4-0.5-3.8V58h3.4v1.8c0,1.1,0.2,2,0.6,2.9
				c0.4,0.8,1,1.3,1.9,1.3c0.6,0,1-0.1,1.4-0.4c0.3-0.3,0.6-0.7,0.7-1.2c0.2-0.5,0.3-1.1,0.3-1.9c0-0.8,0.1-1.6,0.1-2.5
				c0-1.1,0-1.9-0.1-2.6c0-0.7-0.1-1.2-0.3-1.6s-0.3-0.8-0.6-1c-0.3-0.3-0.6-0.5-1-0.8l-2.5-1.7c-1.5-1-2.5-2.4-3-4
				c-0.5-1.7-0.8-3.8-0.8-6.3c0-1.5,0.1-2.9,0.4-4.3c0.2-1.4,0.6-2.5,1.1-3.5c0.5-1,1.1-1.8,1.8-2.3c0.7-0.6,1.6-0.9,2.6-0.9
				c0.9,0,1.6,0.3,2.3,0.8c0.7,0.5,1.3,1.2,1.8,2.1c0.5,0.9,0.9,1.8,1.2,2.9c0.3,1.1,0.4,2.2,0.4,3.3V40.7z"/>
			<path d="M227.9,40.7h-3.4v-1.3c0-1.3-0.2-2.5-0.6-3.4c-0.4-1-1-1.4-1.9-1.4c-0.5,0-0.9,0.2-1.2,0.5c-0.3,0.3-0.5,0.7-0.7,1.2
				c-0.2,0.5-0.3,1-0.4,1.6c-0.1,0.6-0.1,1.3-0.1,1.9c0,0.8,0,1.5,0.1,2c0,0.5,0.1,1,0.3,1.4c0.1,0.4,0.3,0.7,0.6,1
				c0.3,0.3,0.6,0.6,1.1,0.9l2.6,1.8c0.8,0.5,1.4,1.1,1.9,1.7c0.5,0.7,0.8,1.4,1.1,2.3c0.3,0.9,0.4,1.9,0.5,3.1
				c0.1,1.2,0.1,2.5,0.1,3.9c0,1.7-0.1,3.3-0.3,4.7c-0.2,1.4-0.5,2.7-1,3.7c-0.5,1-1.1,1.9-1.8,2.5c-0.8,0.6-1.7,0.9-2.8,0.9
				c-0.8,0-1.6-0.2-2.3-0.7c-0.7-0.5-1.3-1.2-1.9-2c-0.5-0.9-0.9-1.9-1.2-3c-0.3-1.2-0.5-2.4-0.5-3.8V58h3.4v1.8
				c0,1.1,0.2,2,0.6,2.9c0.4,0.8,1,1.3,1.9,1.3c0.6,0,1-0.1,1.4-0.4c0.3-0.3,0.6-0.7,0.7-1.2c0.2-0.5,0.3-1.1,0.3-1.9
				c0-0.8,0.1-1.6,0.1-2.5c0-1.1,0-1.9-0.1-2.6c0-0.7-0.1-1.2-0.3-1.6c-0.1-0.4-0.3-0.8-0.6-1c-0.3-0.3-0.6-0.5-1-0.8l-2.5-1.7
				c-1.5-1-2.5-2.4-3-4c-0.5-1.7-0.8-3.8-0.8-6.3c0-1.5,0.1-2.9,0.4-4.3c0.2-1.4,0.6-2.5,1.1-3.5c0.5-1,1.1-1.8,1.8-2.3
				c0.7-0.6,1.6-0.9,2.6-0.9c0.9,0,1.6,0.3,2.3,0.8s1.3,1.2,1.8,2.1c0.5,0.9,0.9,1.8,1.2,2.9c0.3,1.1,0.4,2.2,0.4,3.3V40.7z"/>
		</g>
		<rect x="0" y="89" width="232.4" height="3.6"/>
		<rect x="0" y="2.6" width="232.4" height="3.6"/>
	</g>
</g>
<g id="Layer_1">
</g>
</svg>
