<?xml version="1.0" encoding="utf-8"?>
<!-- Generator: Adobe Illustrator 18.0.0, SVG Export Plug-In . SVG Version: 6.00 Build 0)  -->
<!DOCTYPE svg PUBLIC "-//W3C//DTD SVG 1.1//EN" "http://www.w3.org/Graphics/SVG/1.1/DTD/svg11.dtd">
<svg version="1.1" xmlns="http://www.w3.org/2000/svg" xmlns:xlink="http://www.w3.org/1999/xlink" x="0px" y="0px"
	 viewBox="0 0 300 62.7" style="enable-background:new 0 0 300 62.7;" xml:space="preserve">
<style type="text/css">
	.st0{fill-rule:evenodd;clip-rule:evenodd;}
	.st1{fill-rule:evenodd;clip-rule:evenodd;fill:#C038F9;}
	.st2{fill:none;}
	.st3{fill-rule:evenodd;clip-rule:evenodd;fill:#231F20;}
</style>
<g id="Layer_2">
	<g>
		<g>
			<g>
				<path d="M46.7,30.2c0-4.7,3-8.1,7-9.1C50.4,19.9,48,16.9,48,13c0-5.8,4.9-9.5,11-9.5c6.2,0,11,3.7,11,9.5c0,3.9-2.5,6.9-5.7,8.1
					c3.9,1.1,7,4.5,7,9.1c0,6.2-5.3,10.3-12.3,10.3C52,40.5,46.7,36.4,46.7,30.2z M66.8,29.9c0-4-3.3-6.9-7.9-6.9
					c-4.5,0-7.8,2.8-7.8,6.9c0,4.1,3.3,6.9,7.8,6.9C63.5,36.8,66.8,34,66.8,29.9z M65.5,13.2c0-3.6-2.9-6-6.6-6
					c-3.7,0-6.6,2.4-6.6,6c0,3.5,2.9,5.9,6.6,5.9C62.7,19.1,65.5,16.7,65.5,13.2z"/>
				<path d="M78.4,31.6c1,3,3,5.1,6.6,5.1c5.3,0,9.1-6,9.1-13.8c0-0.4-0.1-1.2-0.1-1.6c-1.2,3.6-4.9,6.2-9.1,6.2
					c-7,0-11.7-5.4-11.7-12C73.3,9,78,3.5,85.4,3.5c4.7,0,8.5,2.3,10.7,6.9c1.5,3.2,2.1,6.8,2.1,11c0,11.7-5.4,19.2-13.2,19.2
					c-6.3,0-9.8-3.4-11.2-8.9H78.4z M85.3,7.4c-4.5,0-7.7,3.3-7.7,8.1c0,4.8,3.2,8.2,7.7,8.2c4.6,0,7.8-3.3,7.8-8.2
					C93.1,10.8,90,7.4,85.3,7.4z"/>
				<path d="M101.8,33.9c1.7,0,3.1,1.4,3.1,3.2c0,1.8-1.4,3.2-3.1,3.2c-1.8,0-3.2-1.3-3.2-3.2C98.6,35.3,100,33.9,101.8,33.9z"/>
				<path d="M116.1,19.6h2.4c3.8,0,6.7-2.2,6.7-6c0-3.5-2.5-6.1-6.6-6.1s-6.6,2.6-7.1,6.4H107c0.9-6.1,5.3-10.4,11.7-10.4
					c6.9,0,11,4.1,11,9.8c0,4-2.3,7.2-5.6,8.2c3.9,1.1,6.3,4.3,6.3,8.4c0,5.9-4.3,10.6-11.5,10.6c-7,0-11.9-4.3-12.5-10.8h4.5
					c0.6,4.2,3.4,6.8,7.9,6.8c4.3,0,7.2-2.6,7.2-6.6c0-4-3.2-6.4-7.3-6.4h-2.5V19.6z"/>
				<path d="M149.7,18.8L161.3,4h11l-12.6,15.8L172.9,40h-11.1l-9.1-13.8l-3,3.8v10h-9.4V4h9.4V18.8z"/>
				<path d="M185.2,28.8V40h-9.3V4h15.8c7.8,0,13.1,4.4,13.1,12.4c0,8-5.3,12.4-13.1,12.4H185.2z M190.7,11.9h-5.4v9h5.4
					c3.4,0,4.9-1.8,4.9-4.5C195.6,13.7,194.1,11.9,190.7,11.9z"/>
				<path d="M224.6,3.4c9,0,14.2,5.3,15.5,12.7h-9.4c-0.9-2.6-2.9-4.4-6.2-4.4c-5,0-7.8,4.4-7.8,10.3c0,5.9,2.8,10.3,7.8,10.3
					c3.3,0,5.2-1.8,6.2-4.5h9.4c-1.3,7.4-6.6,12.7-15.5,12.7c-10.1,0-17.3-7.7-17.3-18.6S214.6,3.4,224.6,3.4z"/>
				<path d="M260,3.4c9,0,14.2,5.3,15.5,12.7h-9.4c-0.9-2.6-2.9-4.4-6.2-4.4c-5,0-7.8,4.4-7.8,10.3c0,5.9,2.8,10.3,7.8,10.3
					c3.3,0,5.2-1.8,6.2-4.5h9.4c-1.3,7.4-6.6,12.7-15.5,12.7c-10.1,0-17.3-7.7-17.3-18.6S249.9,3.4,260,3.4z"/>
			</g>
			<g>
				<path d="M1.7,56c0.5,1.5,1.8,2.2,3.4,2.2c1.7,0,3-0.9,3-2.3c0-1-0.6-1.7-2.1-2.1l-2.4-0.6c-1.9-0.5-3.2-1.4-3.2-3.5
					c0-2.3,1.9-3.8,4.4-3.8c2.8,0,4.4,1.4,4.9,3.5H8c-0.4-1.2-1.4-2.1-3.2-2.1c-1.6,0-2.8,0.8-2.8,2.2c0,1.1,0.7,1.7,2.1,2.1
					l2.3,0.6c2.1,0.5,3.3,1.7,3.3,3.6c0,2.4-2,3.9-4.6,3.9c-2.7,0-4.7-1.3-5.2-3.7H1.7z"/>
				<path d="M16,59.7c-2.7,0-4.5-2.1-4.5-5c0-3,1.8-5,4.5-5c2.6,0,4.5,2.1,4.5,5C20.4,57.6,18.6,59.7,16,59.7z M16,51
					c-1.7,0-2.8,1.5-2.8,3.6c0,2.1,1,3.6,2.8,3.6c1.7,0,2.8-1.5,2.8-3.6C18.8,52.5,17.7,51,16,51z"/>
				<path d="M30.4,59.5h-1.7v-1.2c-0.5,0.8-1.6,1.4-2.8,1.4c-2.2,0-3.4-1.4-3.4-3.5v-6.4h1.7v6.1c0,1.4,0.7,2.3,2.1,2.3
					c1.1,0,2.1-0.8,2.4-1.8v-6.6h1.7V59.5z"/>
				<path d="M33.7,51.2h-1.6v-1.4h1.6v-2.6h1.6v2.6h2.3v1.4h-2.3v5.7c0,0.9,0.5,1.4,1.3,1.4c0.5,0,0.9-0.2,1.3-0.4v1.5
					c-0.4,0.2-0.9,0.3-1.5,0.3c-1.6,0-2.7-0.9-2.7-2.6V51.2z"/>
				<path d="M40.2,45.3h1.6V51c0.6-0.8,1.6-1.4,2.9-1.4c2.2,0,3.4,1.4,3.4,3.5v6.4h-1.7v-6.1c0-1.4-0.7-2.3-2.1-2.3
					c-1.1,0-2.1,0.8-2.5,1.8v6.6h-1.6V45.3z"/>
				<path d="M58.6,56.6c-0.3,1.8-1.7,3.1-3.9,3.1c-2.6,0-4.5-2-4.5-5c0-2.9,1.8-5.1,4.4-5.1c2.7,0,4.1,1.9,4.1,4.8v0.6h-6.9
					c0,2.1,1.2,3.3,2.8,3.3c1.2,0,2.1-0.6,2.4-1.7H58.6z M51.9,53.7h5.2c0-1.4-0.8-2.7-2.4-2.7C53.2,51,52.1,52,51.9,53.7z"/>
				<path d="M65.9,51.4c-0.3-0.2-0.7-0.3-1.1-0.3c-1,0-1.9,0.7-2.3,1.8v6.5h-1.6v-9.7h1.6V51c0.4-0.8,1.3-1.5,2.4-1.5
					c0.4,0,0.8,0.1,0.9,0.2V51.4z"/>
				<path d="M67.9,49.8h1.6V51c0.6-0.8,1.6-1.4,2.9-1.4c2.2,0,3.4,1.4,3.4,3.5v6.4h-1.7v-6.1c0-1.4-0.7-2.3-2.1-2.3
					c-1.1,0-2.1,0.8-2.5,1.8v6.6h-1.6V49.8z"/>
				<path d="M88.8,45.9c2.8,0,4.7,1.6,5.2,4.1h-1.7c-0.5-1.6-1.7-2.6-3.5-2.6c-2.6,0-4.3,2.2-4.3,5.4c0,3.2,1.7,5.4,4.3,5.4
					c1.9,0,3-1,3.5-2.6H94c-0.5,2.5-2.4,4.2-5.2,4.2c-3.4,0-6-2.7-6-6.9S85.4,45.9,88.8,45.9z"/>
				<path d="M101.7,59.5v-0.7c-0.4,0.4-1.4,0.9-2.6,0.9c-2,0-3.6-1.2-3.6-3.1c0-1.8,1.6-3,3.7-3c1,0,2,0.4,2.4,0.8v-1.2
					c0-1.2-0.7-2.1-2.1-2.1c-1,0-1.7,0.4-2,1.3H96c0.3-1.6,1.8-2.8,3.6-2.8c2.3,0,3.7,1.3,3.7,3.4v6.5H101.7z M101.7,56.1
					c-0.3-0.7-1.3-1.2-2.3-1.2c-1.2,0-2.3,0.5-2.3,1.7c0,1.2,1.1,1.7,2.3,1.7c1,0,2-0.5,2.3-1.2V56.1z"/>
				<path d="M107.7,59.5h-1.6V45.3h1.6V59.5z"/>
				<path d="M111.5,47.9c-0.6,0-1-0.5-1-1c0-0.6,0.5-1,1-1c0.6,0,1.1,0.5,1.1,1C112.5,47.4,112,47.9,111.5,47.9z M112.3,59.5h-1.6
					v-9.7h1.6V59.5z"/>
				<path d="M120.1,46.8c-0.3-0.2-0.7-0.3-1-0.3c-1,0-1.6,0.6-1.6,1.8v1.5h2.2v1.4h-2.2v8.3h-1.6v-8.3h-1.6v-1.4h1.6v-1.6
					c0-1.9,1.3-3.1,3-3.1c0.5,0,0.9,0.1,1.3,0.2V46.8z"/>
				<path d="M125.1,59.7c-2.7,0-4.5-2.1-4.5-5c0-3,1.8-5,4.5-5c2.6,0,4.5,2.1,4.5,5C129.6,57.6,127.8,59.7,125.1,59.7z M125.1,51
					c-1.7,0-2.8,1.5-2.8,3.6c0,2.1,1,3.6,2.8,3.6c1.7,0,2.8-1.5,2.8-3.6C127.9,52.5,126.9,51,125.1,51z"/>
				<path d="M136.8,51.4c-0.3-0.2-0.7-0.3-1.1-0.3c-1,0-1.9,0.7-2.3,1.8v6.5h-1.6v-9.7h1.6V51c0.4-0.8,1.3-1.5,2.4-1.5
					c0.4,0,0.8,0.1,0.9,0.2V51.4z"/>
				<path d="M138.8,49.8h1.6V51c0.6-0.8,1.6-1.4,2.9-1.4c2.2,0,3.4,1.4,3.4,3.5v6.4h-1.7v-6.1c0-1.4-0.7-2.3-2.1-2.3
					c-1.1,0-2.1,0.8-2.5,1.8v6.6h-1.6V49.8z"/>
				<path d="M150.3,47.9c-0.6,0-1-0.5-1-1c0-0.6,0.5-1,1-1c0.6,0,1.1,0.5,1.1,1C151.4,47.4,150.9,47.9,150.3,47.9z M151.2,59.5h-1.6
					v-9.7h1.6V59.5z"/>
				<path d="M159.6,59.5v-0.7c-0.4,0.4-1.4,0.9-2.6,0.9c-2,0-3.6-1.2-3.6-3.1c0-1.8,1.6-3,3.7-3c1,0,2,0.4,2.4,0.8v-1.2
					c0-1.2-0.7-2.1-2.1-2.1c-1,0-1.7,0.4-2,1.3h-1.6c0.3-1.6,1.8-2.8,3.6-2.8c2.3,0,3.7,1.3,3.7,3.4v6.5H159.6z M159.6,56.1
					c-0.3-0.7-1.3-1.2-2.3-1.2c-1.2,0-2.3,0.5-2.3,1.7c0,1.2,1.1,1.7,2.3,1.7c1,0,2-0.5,2.3-1.2V56.1z"/>
				<path d="M170.6,54.1v5.4h-1.7V46.1h5c2.7,0,4.4,1.4,4.4,4c0,2.6-1.7,4-4.4,4H170.6z M173.9,47.6h-3.3v5h3.3c1.8,0,2.8-1,2.8-2.5
					C176.6,48.5,175.7,47.6,173.9,47.6z"/>
				<path d="M188.1,59.5h-1.7v-1.2c-0.5,0.8-1.6,1.4-2.8,1.4c-2.2,0-3.4-1.4-3.4-3.5v-6.4h1.7v6.1c0,1.4,0.7,2.3,2.1,2.3
					c1.1,0,2.1-0.8,2.4-1.8v-6.6h1.7V59.5z"/>
				<path d="M192.6,59.5H191V45.3h1.7v5.6c0.5-0.7,1.5-1.3,2.7-1.3c2.8,0,4.4,2.3,4.4,5c0,2.8-1.5,5-4.4,5c-1.2,0-2.3-0.6-2.7-1.3
					V59.5z M192.6,56.6c0.5,1,1.5,1.6,2.5,1.6c1.9,0,3-1.5,3-3.6c0-2.1-1.1-3.6-3-3.6c-1,0-2,0.6-2.5,1.6V56.6z"/>
				<path d="M203.6,59.5H202V45.3h1.6V59.5z"/>
				<path d="M207.3,47.9c-0.6,0-1-0.5-1-1c0-0.6,0.5-1,1-1c0.6,0,1.1,0.5,1.1,1C208.4,47.4,207.9,47.9,207.3,47.9z M208.2,59.5h-1.6
					v-9.7h1.6V59.5z"/>
				<path d="M214.8,49.6c2.2,0,3.6,1.3,3.9,3.1H217c-0.2-1-1-1.7-2.2-1.7c-1.7,0-2.8,1.5-2.8,3.6c0,2.1,1.1,3.6,2.8,3.6
					c1.2,0,2-0.6,2.2-1.7h1.7c-0.3,1.9-1.7,3.1-3.9,3.1c-2.6,0-4.4-2-4.4-5C210.4,51.6,212.2,49.6,214.8,49.6z"/>
				<path d="M227.5,53.8v5.7h-1.7V46.1h5c2.7,0,4.4,1.4,4.4,3.9c0,2.2-1.3,3.5-3.4,3.8l4,5.7h-2l-3.8-5.7H227.5z M227.5,52.3h3.2
					c1.8,0,2.7-0.9,2.7-2.4c0-1.5-1-2.4-2.7-2.4h-3.2V52.3z"/>
				<path d="M243.2,59.5v-0.7c-0.4,0.4-1.4,0.9-2.6,0.9c-2,0-3.6-1.2-3.6-3.1c0-1.8,1.6-3,3.7-3c1,0,2,0.4,2.4,0.8v-1.2
					c0-1.2-0.7-2.1-2.1-2.1c-1,0-1.7,0.4-2,1.3h-1.6c0.3-1.6,1.8-2.8,3.6-2.8c2.3,0,3.7,1.3,3.7,3.4v6.5H243.2z M243.2,56.1
					c-0.3-0.7-1.3-1.2-2.3-1.2c-1.2,0-2.3,0.5-2.3,1.7c0,1.2,1.1,1.7,2.3,1.7c1,0,2-0.5,2.3-1.2V56.1z"/>
				<path d="M254,58.3c-0.5,0.7-1.5,1.3-2.7,1.3c-2.8,0-4.4-2.3-4.4-5c0-2.7,1.5-5,4.4-5c1.2,0,2.3,0.6,2.7,1.3v-5.6h1.7v14.2H254
					V58.3z M254,52.7c-0.5-1-1.5-1.6-2.5-1.6c-1.9,0-3,1.5-3,3.6c0,2.1,1.1,3.6,3,3.6c1,0,2-0.6,2.5-1.6V52.7z"/>
				<path d="M259.4,47.9c-0.6,0-1-0.5-1-1c0-0.6,0.5-1,1-1c0.6,0,1.1,0.5,1.1,1C260.4,47.4,259.9,47.9,259.4,47.9z M260.2,59.5h-1.6
					v-9.7h1.6V59.5z"/>
				<path d="M266.9,59.7c-2.7,0-4.5-2.1-4.5-5c0-3,1.8-5,4.5-5c2.6,0,4.5,2.1,4.5,5C271.3,57.6,269.5,59.7,266.9,59.7z M266.9,51
					c-1.7,0-2.8,1.5-2.8,3.6c0,2.1,1,3.6,2.8,3.6c1.7,0,2.8-1.5,2.8-3.6C269.7,52.5,268.6,51,266.9,51z"/>
			</g>
		</g>
		<path d="M22.5,42.1c-11.1,0-20.1-9-20.1-20.1s9-20.1,20.1-20.1s20.1,9,20.1,20.1S33.6,42.1,22.5,42.1z M22.5,12.4
			c-5.3,0-9.6,4.3-9.6,9.6s4.3,9.6,9.6,9.6s9.6-4.3,9.6-9.6S27.8,12.4,22.5,12.4z"/>
	</g>
</g>
<g id="Layer_1">
</g>
</svg>
