<?xml version="1.0" encoding="utf-8"?>
<!-- Generator: Adobe Illustrator 18.0.0, SVG Export Plug-In . SVG Version: 6.00 Build 0)  -->
<!DOCTYPE svg PUBLIC "-//W3C//DTD SVG 1.1//EN" "http://www.w3.org/Graphics/SVG/1.1/DTD/svg11.dtd">
<svg version="1.1" xmlns="http://www.w3.org/2000/svg" xmlns:xlink="http://www.w3.org/1999/xlink" x="0px" y="0px"
	 viewBox="0 0 300 43" style="enable-background:new 0 0 300 43;" xml:space="preserve">
<style type="text/css">
	.st0{fill-rule:evenodd;clip-rule:evenodd;}
	.st1{fill-rule:evenodd;clip-rule:evenodd;fill:#C038F9;}
	.st2{fill:none;}
	.st3{fill-rule:evenodd;clip-rule:evenodd;fill:#231F20;}
</style>
<g id="Layer_2">
</g>
<g id="Layer_1">
	<g>
		<path class="st0" d="M58.9,31.6l-0.4-0.4c-2,2.2-2.9,2.8-4.5,2.8c-1.1,0-2.5-0.7-4.3-2.5v-5.2l9.2-7l-6.3-6.2
			c-2.7,2.2-3.2,2.6-5.2,4.1c-1.1,0.8-1.7,1.2-2.4,1.5c0.1,0.8,0.2,1.9,0.2,2.6V33c-1.1,1-2.1,1.5-2.9,1.5c-1,0-1.8-0.6-1.8-1.7
			V17.1c-0.6-2-1.8-3.3-4.2-4.1l-5.8,4.7v-11c0-1.6,0.9-3,1.7-3.4V3.1c-2.4,0-4,1.6-4.7,3.3l-1-2.1l-0.4,0.1v28.1
			c-2.3,1.2-4.8,2.6-7.5,2.6c-0.5,0-1,0-1.5-0.1V11c1.2,0.1,2,0.2,2.7,0.2c1.1,0,1.8-0.2,2.3-0.4l3.2-6.4l-0.5-0.1
			C23.5,6.6,22.8,7,20.2,7c-1.2,0-3.9-0.3-6.6-0.7C11,6,8.4,5.7,7.1,5.7c-4,0-6.3,2.7-6.3,5.6c0,1.1,0.4,2.3,1.1,3.3l0.4-0.3
			c-0.5-0.6-0.8-1.5-0.8-2.1c0-1.2,0.9-2.2,3.3-2.2c1,0,4.4,0.3,7.5,0.6c-3.6,1.8-6.6,3.7-10.2,6.4C0.8,19,0,21.6,0,24.3
			c0,6.9,5.2,14.4,16.8,14.4c3.4-1.9,8.4-4.8,8.4-4.8l4.6,4.2l3.2-3.2l-2.5-2.6V18.9c1.1-1.5,2.3-2.1,3.3-2.1c1.1,0,2.1,0.8,2.4,2.1
			V35c0.4,1.4,2,2.6,3.6,3.1l5.7-4.3l6.6,4.5L58.9,31.6L58.9,31.6z M54.8,21.3l-5.2,4.2v-9l0.2-0.2L54.8,21.3L54.8,21.3z M16.4,34.9
			c-3.2-0.4-6-1.6-8-3.5c3.9-2.9,4.8-4.5,4.8-7.7v-13l0.1-0.1c1.3,0.1,2,0.2,3,0.3V34.9L16.4,34.9z M9.1,26.9c0,1.9-0.3,3.1-1.4,4
			c-2.4-2.4-3.6-5.9-3.6-9.8c0-2.1,0.4-3.8,1.1-5c1.3-1.1,2.8-2.2,3.8-2.8v4.9V26.9L9.1,26.9z"/>
		<path class="st0" d="M116.5,16.9l-7.3-4c-2.3,2.2-5.1,4-8.4,5.8c0.5,1.4,0.3,3.1,0.3,5.2c0,5.3,0.1,8.2-0.9,9.6l8.1,5
			c2.2-2.3,4.6-4.1,7.9-5.9c-0.3-0.8-0.3-1.7-0.3-2.4v-9.1C115.9,18.5,116.2,17.5,116.5,16.9L116.5,16.9L116.5,16.9z M98.2,22.5
			l-5.7-3.8c2.2-1.3,2.9-1.7,3.7-2.3c1.3-0.9,1.7-1.5,1.7-2.1c0-0.4-0.2-1.2-1.2-2.8c-1.3-1.9-2.5-3.8-5.1-7.3C88,6.6,86,8,82.3,11
			c-1.6,1.2-2.7,3.2-2.7,5.6c0,0.8,0.1,5.1,0.1,7.9c0,2.2-0.4,3.3-2.7,5.3c-5.5,0-8.9,3.6-8.9,7.2c0,1.5,0.5,3.1,1.7,4.4l0.4-0.4
			c-0.7-0.8-1.3-2-1.3-3.4c0-1.9,1.4-4,5.8-4c4.8,0,9.4,3.3,12,4.9c3.8-3.2,6.2-4.5,11-6.1v-8.1C97.7,23.6,97.8,23,98.2,22.5
			L98.2,22.5L98.2,22.5z M84.8,6.3l-0.1-0.4c-2.7,0-4.2-0.3-5.6-0.6c-1.4-0.2-2.5-0.4-4.1-0.4c-4.2,0-7,2.2-7,5.7
			c0,1.5,0.3,2.3,1.3,3.4l0.4-0.4c-0.5-0.6-0.8-1.3-0.8-2c0-1.5,1.3-2.9,4.1-2.9c2.1,0,4,0.4,5.7,0.8C75.2,12.1,73,14,73,19.6
			c-0.5-0.2-1.2-0.3-2.2-0.3c-2.7,0-4.1,1.8-4.1,3.5c0,0.8,0.2,1.6,0.7,2.2l0.5-0.2c-0.2-0.4-0.3-0.8-0.3-1.2c0-1.1,0.9-2,2.6-2
			c1.5,0,2.6,0.7,3,1.6c0,3.9-0.8,5.9-2.8,5.9v0.4c3.1,0,6.8-2.2,6.8-5.8v-7.2C77.1,10.5,80.6,7.8,84.8,6.3L84.8,6.3L84.8,6.3z
			 M111.3,35.2l-0.2,0.2l-5.1-3V16.1l5.3,3V35.2L111.3,35.2z M93.2,16.3c0,1.4-1.3,2.1-5.6,4.8V17c0-2,0.1-3.2,0.2-4h-0.9
			c0.1,0.9,0.2,2,0.2,4v16.3c-2.7-1.6-6-3.3-9.4-3.5c3.3-1.9,6.5-4.4,6.5-8v-8c0-2.6,1-4.1,3.7-6.4c2.1,3.1,2.9,4.5,4.6,7.3
			C92.9,15.3,93.2,16,93.2,16.3L93.2,16.3L93.2,16.3z M92.5,24.3l-0.1,9.2c-1,0.5-1.6,0.8-2.5,1.5c-0.7-0.4-1.4-0.9-2.3-1.4V21.7
			L92.5,24.3L92.5,24.3z"/>
		<path class="st0" d="M186.1,33.8l-0.5-0.5l-2.2,1.9c-1.1,0-1.8-0.8-1.8-2c0-1.1,0.1-13.7,0.1-15.9c-0.8-1.7-1.9-2.9-4.3-3.8
			l-5.8,4.3c0-1.8-1-3.4-3-4.4l-3.4,2.9l1.8,1.9c0,0-0.1,11.3-0.1,13.1c0,1.9-1.4,3.2-1.4,3.2l5.3,3.9l2.8-3.5l-2.1-1.9V18.9
			c1-1.4,2.1-1.9,3-1.9c1.1,0,2,0.8,2.3,1.9c0.1,0.8,0.1,2.1,0.1,3.6c0,2.2,0,9.9-0.1,12.8c0.4,1.4,2.4,3.2,3.6,3.2L186.1,33.8
			L186.1,33.8z M162.9,32.9c-0.2-0.8-0.3-1.7-0.3-2.4V17l-7-3.9c-2.3,2.3-4.8,3.8-8.1,5.6c0.2,0.6,0.3,1.7,0.3,2.4v11.3
			c-1,1.1-2,1.7-2.9,1.7c-0.9,0-1.8-0.4-2.7-1.4c0-0.9,0.1-10.6,0.1-16.5h5V15l-5-0.2c0,0,0-4.7,0.1-5.6h-0.6l-7,7.3
			c-3-0.5-5.2-1.5-8.5-3.8c-2.6,2.6-4.3,3.8-7.4,5.3c0.1,1.6,0.2,2.4,0.2,3.9c0,1.8,0,2.4-0.1,3.9l4.1,2.9l-3.8,4
			c-1.7,1.7-2.3,3.2-2.3,4.6c0,1.3,0.5,2.3,1.3,3.3l0.4-0.3c-0.5-0.8-0.8-1.7-0.8-2.5c0-1.3,0.7-2.5,2.7-2.5c2,0,4.2,1.3,6.3,3
			c2.4-2.3,4.2-3.7,6.9-5.1v-6.5c0-0.8,0.1-1.1,0.2-1.6l-4.1-2.8l5.2-5.7h2.5c0,5.8-0.1,13.3-0.1,14.1c0,1-0.2,2.3-0.9,3.3l5.8,4.3
			l5-4.5l7.2,4.7C157.5,36.1,159.8,34.3,162.9,32.9L162.9,32.9L162.9,32.9z M157.9,35.3l-0.2,0.2l-5.1-3.2v-16l5.4,3.2V35.3
			L157.9,35.3z M131.5,19.7l-5.4,5.8l-2.4-1.7v-7.8C126.2,17.7,127.6,18.6,131.5,19.7L131.5,19.7L131.5,19.7z M129.4,35.2
			c-1.8-1.7-4.4-3.1-8.5-3.1l6.3-6.6l2.1,1.9L129.4,35.2L129.4,35.2z"/>
		<path class="st0" d="M250.9,16.7l-7.7-4c-2.4,2.2-4.7,3.8-7.8,5.3c0.2,0.6,0.4,2.9,0.4,4.4l0,10.6c-0.7,0.8-1.4,1.1-2.1,1.1
			c-0.7,0-1.5-0.3-2.5-1V7.5c0-1.5,0.9-3.2,2-3.2V4.1c-2.4,0-4.5,1.1-5.1,2.9c-0.6-1-1.5-1.8-2.8-1.8l0,0.3c0.8,0,1.5,2.1,1.5,4.2
			v20.6c0,2-0.3,3-1,4.1L231,38l4.8-4.2l7.4,4.5c2.8-2.6,4.5-4.2,7.6-6c-0.2-0.9-0.3-2.8-0.3-3.6v-9.1
			C250.5,18.1,250.6,17.3,250.9,16.7L250.9,16.7L250.9,16.7z M223.4,6.7l-0.6-0.5l-2.1,2.2c0,0-5.4-1.8-9.9-4.3
			c-6.1,4.6-10.7,7.9-16.6,12.1c-1.4,2.1-2.2,4.8-2.2,7.9c0,8.2,7.5,14.6,17.1,14.6c6.2-2.6,10.6-6.3,13.9-10.7
			c0.2-0.9,0.3-2.2,0.3-2.9c0-6-4.1-9.3-8.3-10.3L223.4,6.7L223.4,6.7z M246.1,34.6l-0.4,0.2l-5.4-3.4V16.1l5.7,2.8L246.1,34.6
			L246.1,34.6z M216.6,12.2l-6.8,6.1V8.9C212.2,9.9,214.4,11,216.6,12.2L216.6,12.2L216.6,12.2z M219.1,27.4c0,1.9-0.2,3.2-0.7,4.7
			c-1.8,1.9-4.6,2.9-7.7,2.9h-0.9V18.6c0.6-0.1,1.1-0.1,1.6-0.1C215.9,18.5,219.1,22.6,219.1,27.4L219.1,27.4L219.1,27.4z
			 M209.1,34.9c-3.4-0.2-6-1.4-8.1-3.1c3.2-2.2,5.1-3.3,5.1-6.6V8.7l1-0.8c0.7,0.2,1.3,0.5,2,0.8V34.9L209.1,34.9z M202.2,27.6
			c0,1.7-0.5,2.8-1.7,3.7c-2.6-2.6-3.9-6.1-3.9-9.7c0-5.4,1.9-7.4,4.4-9.3c0.4-0.3,0.8-0.6,1.2-0.8V27.6L202.2,27.6z"/>
		<path class="st0" d="M286.3,31.6l-0.4-0.4c-2,2-3.1,2.8-4.3,2.8c-1.1,0-2.2-0.7-4.5-2.5v-5.2l9-7.2c-2.1-1.8-6.5-6.1-6.5-6.1
			c-2.4,2.2-3.8,3.4-7.2,5.7c0.1,0.7,0.3,1.7,0.3,2.4v10.2c0,0.7-0.1,1.2-0.3,2l7.1,5L286.3,31.6L286.3,31.6z M269,32.8
			c-0.3-2.9-0.2-10.7-0.2-14.3c0-2.4-2-4.1-4.6-5.2l-5.2,4.4V8.1c0-1.6,0.9-3.3,2.1-3.3V4.5c-2.5,0-5.3,2-5.7,3.3
			c-0.6-1-1.9-1.5-3.2-1.5L252,6.7c1.3,0,2.5,2.2,2.5,6c0,7.8-0.1,15.2-0.1,18.4c0,1-0.1,1.7-0.7,2.6l7.9,4.8
			C264.6,35.7,265.8,34.8,269,32.8L269,32.8z M282,21.3l-4.9,4v-9.1L282,21.3L282,21.3z M264.5,26.6c0,2.8-0.1,8.3-0.1,8.5l-0.2,0.2
			l-5.3-3.3v-13c0.8-1.3,2-1.9,3-1.9c1.2,0,2.1,0.9,2.6,2.1C264.4,19.6,264.5,23,264.5,26.6L264.5,26.6L264.5,26.6z"/>
	</g>
</g>
</svg>
