<?xml version="1.0" encoding="utf-8"?>
<!-- Generator: Adobe Illustrator 18.0.0, SVG Export Plug-In . SVG Version: 6.00 Build 0)  -->
<!DOCTYPE svg PUBLIC "-//W3C//DTD SVG 1.1//EN" "http://www.w3.org/Graphics/SVG/1.1/DTD/svg11.dtd">
<svg version="1.1" xmlns="http://www.w3.org/2000/svg" xmlns:xlink="http://www.w3.org/1999/xlink" x="0px" y="0px"
	 viewBox="0 0 300 47" style="enable-background:new 0 0 300 47;" xml:space="preserve">
<style type="text/css">
	.st0{fill-rule:evenodd;clip-rule:evenodd;}
	.st1{fill-rule:evenodd;clip-rule:evenodd;fill:#C038F9;}
	.st2{fill:none;}
	.st3{fill-rule:evenodd;clip-rule:evenodd;fill:#231F20;}
</style>
<g id="Layer_2">
</g>
<g id="Layer_1">
	<g>
		<path d="M19,29.6l11-25.9l11,25.9L51.9,5.7h8.2L41,44.5l-11-25l-11,25L0,5.7h8.2L19,29.6z"/>
		<path d="M74.1,29.6l11-25.9l11,25.9L107,5.7h8.2l-19,38.7l-11-25l-11,25L55,5.7h8.2L74.1,29.6z"/>
		<path d="M123.5,10.8h0.2c2.2-4,6.7-6.2,11.3-6.2c10.6,0,13.3,7.1,13.3,16.2v22.3H141V21.7c0-6.4-0.9-10.7-8.2-10.7
			c-9.3,0-9.3,8.2-9.3,15v17.2h-7.2V5.7h7.2V10.8z"/>
		<path d="M190.8,24.5c0,11.3-8.8,19.9-20,19.9s-20-8.6-20-19.9s8.8-19.9,20-19.9S190.8,13.3,190.8,24.5z M158,24.5
			c0,7,5.7,13,12.8,13s12.8-6,12.8-13c0-7.1-5.7-13-12.8-13S158,17.4,158,24.5z"/>
	</g>
</g>
</svg>
