<?xml version="1.0" encoding="utf-8"?>
<!-- Generator: Adobe Illustrator 18.0.0, SVG Export Plug-In . SVG Version: 6.00 Build 0)  -->
<!DOCTYPE svg PUBLIC "-//W3C//DTD SVG 1.1//EN" "http://www.w3.org/Graphics/SVG/1.1/DTD/svg11.dtd">
<svg version="1.1" xmlns="http://www.w3.org/2000/svg" xmlns:xlink="http://www.w3.org/1999/xlink" x="0px" y="0px"
	 viewBox="0 0 300 91.7" style="enable-background:new 0 0 300 91.7;" xml:space="preserve">
<style type="text/css">
	.st0{fill-rule:evenodd;clip-rule:evenodd;}
	.st1{fill-rule:evenodd;clip-rule:evenodd;fill:#C038F9;}
	.st2{fill:none;}
	.st3{fill-rule:evenodd;clip-rule:evenodd;fill:#231F20;}
</style>
<g id="Layer_2">
</g>
<g id="Layer_1">
	<g>
		<path d="M33.5,14.6c0,22.2,0,44.2,0,66.7c1.7-2.5,2.3-4.7,2.8-7.2c0.8-4.5,0.5-9.1,0.5-13.6c0.1-12.3,0-24.6,0-36.8
			c0-2.2-0.2-4.2-1.3-6.5c5.3-3.4,10.5-6.9,15.7-10.2c0.9,0.2,0.7,0.8,0.7,1.6c-2.4,1.9-2.8,4.5-2.8,7.5c0.1,14.3,0,28.7,0,43
			c0,6.2-1.9,11.7-5.8,16.6C42.3,77,40.8,78,39.3,79c-4.8,3.3-9.8,6.5-14.7,9.7c-0.3,0.2-0.7,0.1-1.2,0.1c-4.4-2.9-8.9-5.8-13.4-8.9
			c-1.8-1.3-3.6-1.8-5.7-1.4c-1.5,2-1.5,2.1,0.1,4.8c-2.4-0.5-2.5-2.5-3.2-4.2c0.2-0.3,0.5-0.7,0.5-1.1c0.5-3.7,3.3-5.4,6.3-6.4
			c5.6-1.7,11.5-0.1,15.7,2.8c2.2,1.5,4.5,3.1,6.7,4.6c0.2,0.1,0.4,0,0.8,0c0-9,0-18.1,0-27c-0.5-1.4-2-1-2.9-1.7
			c-1.8,0.5-3.6,1-5.2,2.8c0-6,3.8-8.3,8.1-10.2c0.3-1,0.2-1.9,0-2.8c-0.7-1-1.7-1.3-2.7-1.7c-2,0.3-3.8,1-5.2,2.8
			c-0.4-4.4,1.8-8,8-10.1c0-5.2,0-10.5,0-15.9c-4.3-1.2-8.5-2.7-12.9-3.5c-2.7-0.5-5.6-0.5-8.5,0.4c-2.7,0.9-4.9,2.3-6.2,5
			c0,0.9,0,1.9,0,2.9c0.7,1,1.5,1.8,2.7,2.7c1.2,0,2.6,0,4,0c0.3,1-0.1,1.2-0.8,1.2c-1.5,0-3,0-4.4,0c-1.2-0.5-2.3-1.1-3.2-2
			c-0.8-0.7-1.3-1.7-1.6-2.6c-1.7-5,0.7-11.3,5.3-14c3-1.8,6.3-3.1,9.9-2.9c3,0.2,6.1-0.2,9.2,0.7c1.7,0.5,3.4,1.1,5,1.9
			c6.8,3.5,12.8,2.8,19.7-1c0.3,0.3,0.6,0.5,1,0.9c-1.8,2-4.3,3.1-6.4,4.5c-1.2,0.8-2.6,1.4-3.7,2.3C38.6,13.4,36.2,14.1,33.5,14.6z
			"/>
		<path d="M158.7,40.8c-1.3-1.4-2.8-2.9-4.3-4.5c2.5-2.3,5.5-3.5,8.1-5.4c1.8,1.6,4.1,2.4,5.6,4.1c0.7,0.9,0,1.9,0.8,2.8
			c3.4-2.2,6.8-4.5,10.4-6.8c2.7,1.8,5.6,3.7,8.4,5.6c0.1,1.6-1.7,1.2-2,2.5c0,9.7,0,19.5,0,29.4c1.3,1.5,3,2.3,4.7,3.5
			c-2.3,2.4-5.5,3.6-8.1,5.9c-2-1.7-4.5-2.6-6.3-4.6c0-11.2,0-22.4,0-33.5c-0.6-1.2-1.7-1.4-2.7-2c-1.5,1-3.1,2.1-4.8,3.2
			c0,9.6,0,19.2,0,28.8c1.1,0.7,2.1,1.4,3.2,2.2c-2.2,2.4-5.4,3.6-7.9,5.8c-2.6-1.8-5.3-3.5-7.9-5.3c0.2-1.7,2.1-1.4,2.7-2.8
			C158.7,60.2,158.7,50.6,158.7,40.8z"/>
		<path d="M90.4,40.8c-1.1-1.6-3.3-2.1-4.8-3.8c2.6-1.8,5.2-3.5,8-5.3c2.1,1.4,4.3,2.8,6.5,4.2c0,10.9,0,21.7,0,32.3
			c0.9,1.5,2.6,1.5,3.3,3c1.4-1.5,3.3-1.8,4.2-3.5c0-9.1,0-18.3,0-27.6c-1.3-0.9-2.6-1.9-4.1-2.9c2.5-2.2,5.5-3.6,8.3-5.6
			c2.5,1.7,5.1,3.5,7.6,5.1c0,1.6-1.4,1.5-2,2.3c0,9.7,0,19.4,0,29.2c1.7,1.3,3.3,2.6,5.2,4.1c-2.5,2-4.9,3.6-7.6,5
			c-2.8-1.8-5.5-3.6-8.4-5.6c-3,1.9-6.1,3.9-9.2,6c-3.2-2.1-6.3-4.2-9.5-6.4c0.4-1.2,1.8-1.1,2.5-2.2C90.4,59.9,90.4,50.4,90.4,40.8
			z"/>
		<path d="M55.5,42.3c6-3.9,12-7.8,18-11.7c3.1,1.9,6,3.7,8.8,5.9c0,10.4,0,20.7,0,31.4c-5.2,3.4-10.6,6.8-16.1,10.4
			c-3.5-2.2-7-4.3-10.7-6.6C55.5,62.1,55.5,52.3,55.5,42.3z M72.5,71.5c0-10.3,0-20.3,0-30.2c-1.9-1.3-3.8-2.5-5.5-3.6
			c-1.1,0.1-1.5,0.6-1.9,1.2c0,9.2,0,18.3,0,27.6C67.4,68.4,69.9,69.9,72.5,71.5z"/>
		<path d="M218.7,67.8c1.8,1.4,3.6,2.8,5.7,4.4c-2.5,1.7-4.9,3.3-7.3,4.9c-2.9-1.1-4.9-3.4-7.5-5.1c-3.4,1-5.8,4-9.2,5.4
			c-2.7-1.4-5.3-3.2-7.1-5.9c-3.2-4.7-2-9.4,0.5-13.9c1.7-3.1,4.2-5.6,6.2-8.4c-2.4-4.2-4.8-8.4-7.2-12.5c2.9-1.9,5.8-3.9,8.7-5.8
			c5.5,1.6,10.6,4.4,16.1,5c1.6-0.7,2.5-2.3,4.3-1.2c0.6,0.8-0.3,1.5-0.6,2c-2,3.3-2.7,6.9-2.6,10.7
			C218.7,54.1,218.7,60.8,218.7,67.8z M209.1,55.1c-2.7-1.2-5.2-2.4-7.8-3.5c-2.1,5.6-2.1,6.7-1.8,12.6c2.5,4.8,2.5,4.9,5.4,7.3
			c1.7-0.4,2.8-1.8,4.2-2.4C209.1,64.3,209.1,59.9,209.1,55.1z M196.2,37.9c-0.2,0.1-0.3,0.3-0.5,0.4c2.1,3.7,4.3,7.3,6.4,11
			c2.3,1,4.5,1.9,6.9,2.9c0-3.2,0-6.2,0-9.3C204.8,41.2,200.5,39.5,196.2,37.9z"/>
		<path d="M232.1,3.3c2.2,1.4,4.3,2.8,6.5,4.2c0,20.3,0,40.5,0,60.7c1.4,1.7,3.2,2.5,4.9,3.6c-2.2,2.5-5.5,3.5-7.9,5.8
			c-3.2-2.1-6.4-4.3-9.7-6.4c0.8-1.2,2.6-1.3,3.2-3c0-18.4,0-37,0-55.5c-1.2-1.7-3.2-2.4-5.1-3.8C226.7,7,229.3,5.2,232.1,3.3z"/>
		<path d="M138.1,69.2c1.5,1,2.7,1.8,4.1,2.7c-2.6,2.3-5.8,3.5-8.3,5.7c-2.8-2-5.5-3.8-8.2-5.8c1.1-0.5,1.9-1.1,2.7-2
			c0-9.5,0-19.1,0-28.8c-1.5-1.7-3.9-2.5-5.4-4.5c2.4-1.5,4.6-2.9,7.2-4.5c2.9,0.4,4.7,3,7.6,4.4c3.3-1.2,5.8-3.9,9.2-5.5
			c2.1,2.4,4.3,4.9,6.7,7.6c-2.9,4.1-5.9,8.2-8.8,12.3c-0.5-0.4-0.7-0.7-1.1-1c0.1-0.3,0.3-0.5,0.4-0.8c1.4-2.8,1.2-4.2-0.8-6.5
			c-0.7-0.8-1.5-1.5-2.2-2.2c-0.6-0.7-1.2-1.4-1.7-2c-1.7,0.8-1.4,2-1.4,3.1c0,6,0,11.9,0,17.9C138.1,62.6,138.1,65.9,138.1,69.2z"
			/>
		<path d="M77.6,20.4c0,1.5,0,2.7,0,3.9c0.3,0.4,0.8,0.9,1.4,1.6c-1.8,0-3.5,0-5.5,0c0.5-0.6,0.9-1.2,1.4-1.7c0-1,0-2,0-3.1
			c0-1.8,0-3.7,0-5.3c-0.1-1-1-1.2-1.3-2c2.6-0.3,5.2-0.1,7.7-0.2c0.6,0.6,1.2,1.1,1.7,1.6c0.3,1.3,0.2,2.4,0.1,3.4
			c-0.4,0.9-1.2,1.1-1.9,1.6c0.6,1.1,1.1,2.2,1.8,3.3c0.6,0.9,1,1.8,2.1,2.4c-1.1,0.7-2.1,0.1-2.8,0.2
			C79.7,24.9,79.9,21.9,77.6,20.4z M80.7,17.4c-0.6-1.4-1.1-2.8-3-3c-0.1,1.8-0.8,3.6,0.6,5.3C79.6,19.4,80.4,18.8,80.7,17.4z"/>
		<path d="M103,17.8c0,1.3,0,2.7,0,3.9c-1.7,5-5.7,4.5-9.6,4.3c-1.8-0.8-3-2.3-4.1-3.9c-0.9-5.7,1.2-9.5,9.5-8.4
			C100.6,14.5,102,15.9,103,17.8z M100.2,19c-1.8-3.7-1.8-3.7-4.7-4.6c-3.4,0.9-3.8,3.5-3.5,6.3c1,2.2,1.7,4.4,4.5,4.7
			C100,23.8,100.2,23.5,100.2,19z"/>
		<path d="M138.7,15.5c-0.4-0.5-0.8-1-1.5-1.8c2.1,0,3.9,0,5.7,0c4.2,0,5.4,0.8,7.4,4.5c0.4,2.6-0.2,4.8-2.2,6.5
			c-1,0.8-2.1,1.4-3.4,1.4c-2.4,0-4.8,0-7.2,0c-0.1-1,0.8-1.1,1.1-1.9C138.7,21.5,138.7,18.6,138.7,15.5z M141.1,24.4
			c0.6,0.3,1.1,0.5,1.5,0.7c1.8-0.5,3.8-0.4,4.5-2.6c0.5-6-0.2-7.4-5.3-7.9c-0.2,0.2-0.6,0.5-0.6,0.7
			C141,18.3,141.1,21.3,141.1,24.4z"/>
		<path d="M173.3,17c0,2.6,0,4.8,0,7.6c0,0.2,1,0.4,1.3,1.3c-1.3,0-2.6,0-3.8,0c-0.2-0.9,0.8-0.9,1.1-1.8c0-2.7,0-5.7,0-8.8
			c-0.4-0.4-0.8-0.9-1.4-1.6c1.4,0,2.6,0,3.9,0c2.4,2.2,4.1,5.3,7.1,7.5c0-1.9,0-3.7,0-5.5c0.2-0.9-1-1-1-2c1.2,0,2.5,0,3.7,0
			c0.1,0.9-0.8,1-1.2,2.2c0,2.9,0,6.4,0,10.4C178.7,23.9,176.9,19.8,173.3,17z"/>
		<path d="M162.8,17.8c0,1.4,0,2.6,0,3.8c-0.1,0.1-0.2,0.2-0.3,0.2c-0.2-0.4-0.5-0.7-0.7-1.1c-0.7-0.3-1.3-0.2-2.1-0.1
			c-0.6,1.1-0.1,2.4-0.4,3.8c0.3,0.3,0.6,0.6,1,1c1.1-0.3,2-0.6,3-0.8c0.5-0.6,0.5-1.6,1.5-1.8c0.4,1,0.2,2,0.1,3.3
			c-3,0-6.1,0-9.6,0c0.6-0.8,1.1-1.3,1.5-1.9c0-2.9,0-5.7,0-8.7c-0.4-0.4-0.8-1-1.4-1.7c3,0,5.8,0,8.8,0c0.5,0.9,0.2,2,0.1,3.1
			c-1.1-0.1-1.1-1.1-1.6-1.7c-0.9-0.3-1.9-0.5-3-0.9c0,1.6,0,3.1,0,4.5C161,19.9,161.7,18.3,162.8,17.8z"/>
		<path d="M59.6,15.4c-0.5-0.6-0.9-1-1.3-1.4c0.3-0.1,0.5-0.3,0.7-0.3c2.9,0.3,6.2-1,8.8,1.7c0,1.1,0,2.2,0,3.4
			c-0.4,0.7-1,1.1-1.8,1.7c-1,0-2.1,0.1-3.4,0.2c-0.6,1.1-0.1,2.4-0.3,3.6c0.5,0.5,0.9,1,1.5,1.7c-1.9,0-3.6,0-5.3,0
			c-0.1-0.8,0.8-0.9,1.1-1.8C59.6,21.4,59.6,18.5,59.6,15.4z M62.2,14.3c0.6,2-0.8,3.9,1,5.4c1.3-0.3,2.1-1.1,2.3-2.2
			C65.1,15.8,64.4,14.7,62.2,14.3z"/>
		<path d="M212.2,14.4c-1.7,1.3-0.8,2.9-1.1,4.3c0.7,0.8,1.5,0.5,2.3,0.4c0.6-0.3,0.3-1.6,1.5-1.2c0,0.1,0.3,0.2,0.3,0.4
			c0,1.1,0,2.3,0,3.9c-1.2-1.3-2.2-2.1-3.8-1.5c-0.5,0.9-0.2,1.9-0.2,2.8c0.4,0.8,1,1.3,1.7,1.7c1.9,0,2.8-1.5,3.8-2.8
			c1,1.3,0.3,2.4,0.6,3.5c-3.4,0-6.4,0-9.5,0c-0.1-0.9,0.8-1,1.1-1.8c0-2.7,0-5.7,0-8.7c-0.4-0.5-0.8-1-1.4-1.7c3,0,5.8,0,8.8,0
			c0.3,1,0.4,2.1,0,3.2c-0.8-0.3-1.1-0.9-1.3-1.7C214.2,15,213.3,14.7,212.2,14.4z"/>
		<path d="M201.4,14.1c0,1.5,0,2.5,0,4c-1.4-1.9-2.4-3.8-4.7-3.7c-1.7,0.1-3,1-3.9,2.3c-0.6,1.8-0.4,3.7-0.1,5.5
			c1.8,2.1,1.8,2.1,4.3,3.1c1.8-0.3,3-1.4,4.3-2.8c0.3,0.7,0.6,1.2,0.9,1.8c-2.5,2.5-5.7,1.5-8.9,1.7c-1.6-1.1-3.1-2.2-3.6-4.4
			c-0.8-3.5,0.6-6.9,3.9-7.8C196,13.2,198.6,13.4,201.4,14.1z"/>
		<path d="M114.8,22.4c1.2-2.5,1.5-4.9,2.8-6.8c-0.5-0.6-0.9-1.2-1.5-1.8c1.6,0,3,0,5.4,0c-2.3,0.8-2.8,2.1-3.3,3.5
			c-1,2.7-2.3,5.4-3.4,8.1c-0.1,0.3-0.2,0.6-0.9,0.6c-2.5-3.7-3.6-8.4-6.7-12.2c1.9,0,3.6,0,5.6,0c-0.5,0.5-0.8,1-1.2,1.5
			C112.5,17.4,113.5,19.7,114.8,22.4z"/>
		<path d="M127.1,15.5c-0.5-0.6-0.9-1-1.4-1.7c1.9,0,3.6,0,5.3,0c0.1,0.9-0.8,1-1.1,1.8c0,2.7,0,5.7,0,8.8c0.3,0.4,0.8,0.9,1.4,1.6
			c-1.8,0-3.5,0-5.5,0c0.5-0.6,0.9-1.1,1.3-1.7C127.1,21.4,127.1,18.6,127.1,15.5z"/>
	</g>
</g>
</svg>
