<?xml version="1.0" encoding="utf-8"?>
<!-- Generator: Adobe Illustrator 18.0.0, SVG Export Plug-In . SVG Version: 6.00 Build 0)  -->
<!DOCTYPE svg PUBLIC "-//W3C//DTD SVG 1.1//EN" "http://www.w3.org/Graphics/SVG/1.1/DTD/svg11.dtd">
<svg version="1.1" xmlns="http://www.w3.org/2000/svg" xmlns:xlink="http://www.w3.org/1999/xlink" x="0px" y="0px"
	 viewBox="0 0 300 56.7" style="enable-background:new 0 0 300 56.7;" xml:space="preserve">
<style type="text/css">
	.st0{fill-rule:evenodd;clip-rule:evenodd;}
	.st1{fill-rule:evenodd;clip-rule:evenodd;fill:#C038F9;}
	.st2{fill:none;}
	.st3{fill-rule:evenodd;clip-rule:evenodd;fill:#231F20;}
</style>
<g id="Layer_2">
</g>
<g id="Layer_1">
	<g>
		<path d="M202.3,45c0.7-0.3,1.4-0.5,2.1-0.9c2.3-1.2,3.5-3.2,3.6-5.8c0.1-1.4-0.1-2.7-0.7-3.9c-0.8-1.7-2.2-2.7-3.8-3.4
			c-1.6-0.7-3.3-1-5-1.2c-2.5-0.4-5-0.7-7.5-1.2c-0.5-0.1-1-0.2-1.4-0.5c-0.4-0.2-0.7-0.6-0.7-1.1c0-0.5,0.2-0.9,0.7-1.2
			c0.7-0.4,1.5-0.5,2.3-0.6c1.8-0.2,3.7-0.2,5.5,0.1c0.3,0.1,0.6,0.1,0.9,0.2c1,0.3,1.6,0.9,1.6,1.9c0,0.3,0.1,0.3,0.3,0.3
			c2.2,0,4.4,0,6.5,0c0.3,0,0.3-0.1,0.3-0.3c-0.1-3.5-1.7-5.7-5-7c-1.7-0.7-3.5-1-5.4-1.1c-2.2-0.2-4.4-0.2-6.5,0.1
			c-1.7,0.2-3.4,0.7-5,1.5c-2.4,1.4-3.7,3.4-3.5,6.3c0.1,1.5,0.4,2.9,1.3,4.2c1,1.3,2.3,2.1,3.8,2.7c1.5,0.5,3,0.7,4.5,0.9
			c2.4,0.4,4.8,0.6,7.1,1.1c0.5,0.1,1,0.3,1.5,0.5c0.5,0.3,0.9,0.7,0.9,1.3c0,0.7-0.2,1.2-0.8,1.5c-0.6,0.4-1.3,0.5-2,0.6
			c-2.3,0.2-4.7,0.2-7-0.1c-0.2,0-0.4-0.1-0.6-0.1c-1.1-0.3-1.6-0.9-1.7-2.1c0-0.2-0.1-0.3-0.3-0.3c-2.2,0-4.5,0-6.7,0
			c-0.2,0-0.4-0.1-0.4,0.3c0.1,1.9,0.4,3.7,1.8,5.1c1,1,2.2,1.6,3.5,2c0.2,0.1,0.4,0.1,0.6,0.3c-0.2,0-0.3,0-0.5,0
			c-4.2,0-8.4,0-12.5,0c-0.5,0-0.5,0-0.3-0.5c2.9-8.1,5.9-16.2,8.8-24.3c0-0.1,0.1-0.2,0.1-0.4c-0.1,0-0.2,0-0.4,0
			c-2.1,0-4.3,0-6.4,0c-0.4,0-0.5,0.1-0.6,0.4c-1.9,6-3.8,12-5.7,18.1c0,0.1-0.1,0.2-0.1,0.4c-0.2-0.8-0.5-1.4-0.7-2.1
			c-1.7-5.5-3.3-10.9-5-16.4c-0.1-0.2-0.2-0.3-0.4-0.3c-2.5,0-5,0-7.5,0c-0.3,0-0.4,0.1-0.5,0.4c-1.4,4.9-2.9,9.8-4.3,14.7
			c-0.3,1.1-0.7,2.2-1,3.4c0,0.1-0.1,0.2-0.2,0.5c-0.2-0.7-0.4-1.3-0.6-1.9c-1.8-5.5-3.6-11.1-5.4-16.6c-0.1-0.3-0.2-0.3-0.5-0.3
			c-2.4,0-4.9,0-7.4,0c0.2,0.6,0.4,1.2,0.6,1.7c2.6,7.4,5.3,14.7,7.9,22.1c0.1,0.3,0.2,0.7,0.4,1c0.1,0.2,0.1,0.3-0.2,0.3
			c-4.9,0-9.8,0-14.6,0c0,0,0,0-0.1,0c0.7-0.3,1.4-0.5,2.1-0.8c2.9-1.4,5-3.6,5.9-6.8c0.1-0.3,0.1-0.4-0.3-0.4c-2.2,0-4.4,0-6.6,0
			c-0.2,0-0.3,0.1-0.4,0.3c-0.4,0.8-1.1,1.3-1.8,1.6c-1.3,0.6-2.7,0.8-4.1,0.9c-1.6,0.1-3.1,0-4.6-0.5c-1.5-0.5-2.6-1.5-3.3-3
			c-0.1-0.3-0.2-0.7-0.2-1c0-0.2,0-0.3,0.3-0.3c0.1,0,0.3,0,0.4,0c6.8,0,13.5,0,20.3,0c0.6,0,0.6,0,0.6-0.6c0.2-2.7-0.1-5.3-1.2-7.8
			c-1.4-3.2-3.9-5.4-7.2-6.4c-4.6-1.4-9.2-1.3-13.6,0.8c-3.9,1.9-6.1,5-6.8,9.3c-0.4,2.5-0.2,5.1,0.6,7.5c1.2,3.5,3.6,5.7,7,7
			c0.3,0.1,0.5,0.2,0.8,0.3c0,0,0,0,0,0.1c-0.1,0-0.2,0-0.3,0c-3,0-5.9,0-8.9,0c-0.3,0-0.4-0.1-0.4-0.4c0-7.6,0-15.1,0-22.7
			c0-3.6,0-7.1,0-10.7c0-0.3-0.1-0.4-0.4-0.4c-2.1,0-4.3,0-6.4,0c-0.4,0-0.5,0.1-0.5,0.5c0,7,0,14,0,21c0,0.2,0,0.3,0,0.5
			c-0.1,0-0.2-0.1-0.2-0.2c-3.7-6.2-7.5-12.5-11.2-18.7c-0.6-1-1.2-1.9-1.7-2.9c-0.1-0.2-0.2-0.2-0.4-0.2c-2.7,0-5.5,0-8.2,0
			c-0.2,0-0.3,0.1-0.3,0.3c0,0.2,0,0.4,0,0.6c0,11,0,22,0,32.9c0,0.3-0.1,0.4-0.4,0.4c-0.9,0-0.9,0-0.9-0.9c0-1.8,0-3.6,0-5.5
			c0-0.3-0.1-0.4-0.4-0.4c-1.5,0-3.1,0-4.6,0c-0.3,0-0.4,0-0.3-0.4c0.5-1.8,0.4-3.7-0.1-5.5c-0.7-2.7-2.6-4.4-5.1-5.6
			c-1.9-0.9-3.9-1.3-6-1.7c-2.7-0.5-5.4-1-8.1-1.8c-0.8-0.3-1.6-0.6-2.2-1.1c-1.3-1-1.6-2.9-0.8-4.1c0.5-0.7,1.4-1,2.2-1.2
			c1.7-0.4,3.5-0.4,5.2-0.3c1,0,2,0.2,3,0.4c2,0.5,3.2,1.8,3.5,3.8c0.1,0.3,0.2,0.3,0.4,0.3c2.3,0,4.7,0,7,0c0.3,0,0.4-0.1,0.4-0.4
			c-0.7-4.5-3.1-7.6-7.3-9.1c-2.1-0.8-4.2-1.1-6.4-1.1c-2.8-0.1-5.6,0-8.3,0.8c-1.7,0.4-3.2,1.1-4.6,2.1c-2.5,1.9-3.5,4.5-3.3,7.6
			c0.2,3.6,2.2,6,5.3,7.6c2,1,4.1,1.5,6.3,1.9c2.4,0.5,4.8,0.8,7.2,1.4c0.8,0.2,1.6,0.5,2.4,0.9c1,0.5,1.6,1.3,1.8,2.5
			c0.2,1.5,0,2.6-1.4,3.5c-0.4,0.3-0.9,0.5-1.4,0.6c-1.9,0.5-3.8,0.5-5.7,0.4c-1.2-0.1-2.4-0.2-3.6-0.6c-2-0.7-3-2-3.1-4.1
			c0-0.3-0.1-0.3-0.4-0.3c-2.4,0-4.7,0-7.1,0c-0.2,0-0.4,0-0.4,0.3c0.1,2.1,0.5,4.1,1.7,5.8c1.2,1.7,2.8,2.8,4.7,3.5
			c0.6,0.2,1.1,0.4,1.7,0.6c-0.1,0.1-0.2,0-0.3,0c-2.4,0-4.9,0-7.3,0c-0.3,0-0.4-0.1-0.4-0.4c0-2,0-4,0-6c0-0.3-0.1-0.4-0.4-0.4
			c-1.5,0-3.1,0-4.6,0c-0.3,0-0.4-0.1-0.3-0.4c0.3-1,0.4-2,0.4-3c0-7.9,0-15.8,0-23.6c0-0.4-0.1-0.5-0.5-0.5c-2.2,0-4.5,0-6.7,0
			c-0.3,0-0.4,0.1-0.4,0.4c0,7.4,0,14.8,0,22.2c0,3.1-1.6,4.9-4.1,5.7c-2.6,0.8-5.3,0.8-7.8-0.3c-2.1-0.9-3.1-2.5-3.1-4.8
			c0-7.5,0-15.1,0-22.6c0-0.4-0.1-0.5-0.5-0.5c-2.2,0-4.5,0-6.7,0c-0.3,0-0.4,0.1-0.4,0.4c0,7.9,0,15.8,0,23.6
			c0,2.8,0.9,5.3,2.9,7.2c1.4,1.4,3.2,2.2,5.1,2.8c0.1,0,0.2,0.1,0.4,0.2c-0.2,0-0.4,0-0.7,0c-4.7,0-9.5,0-14.2,0
			C0.1,45.1,0,45,0,44.7C0,30.9,0,17.1,0,3.3c0-0.4,0.1-0.5,0.5-0.5c70.6,0,141.3,0,211.9,0c0.4,0,0.8-0.2,1,0.1
			c0.2,0.2,0.1,0.7,0.1,1c0,13.6,0,27.2,0,40.8c0,0.3,0,0.4-0.4,0.4c-3.5,0-7,0-10.5,0C202.5,45.1,202.4,45.1,202.3,45z M126.7,13.2
			c0.3,1.1,0.5,2,0.8,3c0.3,1,0.3,1,1.3,1c0.4,0,0.9,0.2,1.2-0.1c0.3-0.2,0.3-0.7,0.4-1.1c0.5-1.8,1-3.5,1.5-5.3
			c0.1-0.2,0.1-0.3-0.2-0.3c-0.5,0-1,0-1.6,0c-0.2,0-0.2,0.1-0.3,0.3c-0.1,0.6-0.3,1.1-0.4,1.7c-0.2,0.7-0.3,1.4-0.5,2.2
			c-0.4-1.3-0.7-2.5-1-3.8c-0.1-0.2-0.1-0.3-0.4-0.3c-0.5,0-1,0-1.5,0c-0.3,0-0.4,0.1-0.5,0.4c-0.3,1.3-0.6,2.5-0.9,3.9
			c-0.1-0.2-0.1-0.3-0.1-0.4c-0.3-1.2-0.6-2.4-0.9-3.6c0-0.1-0.1-0.3-0.2-0.2c-0.7,0-1.4,0-2,0c0,0.1,0,0.1,0,0.2
			c0.6,2.1,1.2,4.3,1.8,6.4c0.1,0.2,0.2,0.2,0.3,0.2c0.5,0,1.1,0,1.6,0c0.3,0,0.4-0.1,0.5-0.4C126.1,15.7,126.4,14.5,126.7,13.2z
			 M147,17.2c-0.5-0.8-0.9-1.6-1.4-2.4c-0.1-0.2-0.2-0.4,0.1-0.5c0.2-0.1,0.3-0.2,0.4-0.4c0.4-0.6,0.4-1.2,0.3-1.9
			c-0.1-0.9-0.6-1.5-1.6-1.6c-1.6-0.2-3.2,0-4.8-0.1c-0.2,0-0.2,0.1-0.2,0.3c0,2.1,0,4.2,0,6.3c0,0.2,0.1,0.3,0.3,0.3
			c0.5,0,1,0,1.5,0c0.2,0,0.3-0.1,0.3-0.3c0-0.3,0-0.6,0-1c0-0.3-0.2-0.8,0.1-1c0.2-0.2,0.7,0,1-0.1c0.2,0,0.4,0.1,0.5,0.3
			c0.3,0.6,0.6,1.2,0.9,1.8c0.1,0.1,0.1,0.2,0.3,0.2C145.5,17.2,146.2,17.2,147,17.2z M200.1,17.2c-0.5-0.8-0.9-1.6-1.4-2.4
			c-0.1-0.2-0.2-0.3,0.1-0.5c0.2-0.1,0.4-0.3,0.5-0.5c0.3-0.5,0.3-1,0.3-1.6c0-1-0.6-1.7-1.6-1.8c-1.6-0.2-3.2,0-4.7-0.1
			c-0.2,0-0.2,0.1-0.2,0.3c0,2.1,0,4.2,0,6.3c0,0.2,0.1,0.3,0.3,0.3c0.5,0,1,0,1.5,0c0.2,0,0.3-0.1,0.3-0.3c0-0.6,0-1.1,0-1.7
			c0-0.2,0-0.3,0.3-0.3c0.3,0,0.5,0,0.8,0c0.2,0,0.4,0.1,0.5,0.3c0.3,0.6,0.6,1.2,0.9,1.7c0.1,0.1,0.1,0.3,0.3,0.3
			C198.6,17.2,199.3,17.2,200.1,17.2z M170.7,17.2c-0.5-0.8-0.9-1.6-1.4-2.3c-0.1-0.2-0.2-0.4,0.1-0.5c0.2-0.1,0.4-0.3,0.5-0.6
			c0.3-0.6,0.3-1.2,0.2-1.8c-0.1-0.8-0.6-1.3-1.4-1.5c-0.3-0.1-0.6-0.1-0.9-0.1c-1.3,0-2.6,0-3.9,0c-0.3,0-0.3,0.1-0.3,0.3
			c0,1,0,2,0,3c0,1.1,0,2.1,0,3.2c0,0.3,0.1,0.4,0.4,0.4c0.5,0,0.9,0,1.4,0c0.3,0,0.4-0.1,0.4-0.4c0-0.3,0-0.5,0-0.8
			c0-0.4-0.2-0.9,0.1-1.1c0.2-0.2,0.7,0,1.1-0.1c0.2,0,0.3,0.1,0.4,0.2c0.3,0.6,0.6,1.2,0.9,1.8c0.1,0.1,0.1,0.3,0.3,0.3
			C169.2,17.2,169.9,17.2,170.7,17.2z M153.6,13.8C153.6,13.8,153.6,13.8,153.6,13.8c0,1,0,2.1,0,3.1c0,0.2,0,0.3,0.2,0.3
			c1.4,0,2.8,0.1,4.3,0c1.2-0.1,1.9-0.8,2.1-2c0.1-0.8,0.1-1.6,0-2.5c-0.1-1.4-0.8-2-2.2-2.2c-1.4-0.2-2.8,0-4.3-0.1
			c-0.2,0-0.2,0.1-0.2,0.3C153.6,11.7,153.6,12.8,153.6,13.8z M115.2,14.1c0.4-0.3,0.8-0.6,1.1-1c0.6-1,0.3-2.2-0.8-2.6
			c-0.8-0.3-1.5-0.2-2.3,0.1c-0.7,0.3-1,0.9-1,1.6c0,0.5,0.2,0.9,0.4,1.3c0.1,0.2,0.1,0.3-0.1,0.4c-0.2,0.1-0.5,0.3-0.7,0.4
			c-0.6,0.4-0.7,1-0.6,1.6c0.1,0.6,0.5,0.9,1,1.1c1.2,0.4,2.5,0.4,3.7,0.1c0.1,0,0.2-0.1,0.3,0c0.3,0.3,0.7,0.2,1,0.2
			c0.6,0,1.2,0,1.8,0c-0.4-0.4-0.8-0.7-1.2-1c-0.2-0.1-0.2-0.2,0-0.4c0.3-0.4,0.6-0.8,0.7-1.3c0.1-0.8,0.2-0.6-0.5-0.7
			c-0.2,0-0.3,0-0.5,0c-0.3,0-0.5-0.1-0.7,0c-0.2,0.1-0.1,0.4-0.2,0.6c0,0,0,0.1-0.1,0.1c-0.1,0.2-0.2,0.2-0.3,0.1
			C115.8,14.6,115.5,14.4,115.2,14.1z M135.6,10.3c-0.2,0-0.5,0-0.7,0c-1.5,0.1-2.5,0.9-2.8,2.2c-0.2,0.9-0.2,1.8,0,2.7
			c0.3,1,0.9,1.6,1.9,1.9c1.1,0.3,2.2,0.3,3.3,0c0.9-0.3,1.6-0.9,1.8-1.9c0.2-0.7,0.2-1.5,0.1-2.3c-0.2-1.4-0.9-2.2-2.2-2.5
			C136.5,10.3,136,10.3,135.6,10.3z M188.7,10.3c-0.2,0-0.5,0-0.7,0c-1.5,0.1-2.6,1-2.9,2.3c-0.2,0.8-0.2,1.7,0.1,2.5
			c0.3,1,0.9,1.7,1.9,2c1,0.3,2.1,0.3,3.1,0c1.1-0.3,1.7-1,1.9-2.1c0.2-0.8,0.2-1.6,0-2.5c-0.2-1.1-0.9-1.8-2-2.1
			C189.7,10.4,189.2,10.3,188.7,10.3z M171.3,13.8c0,1,0,2.1,0,3.1c0,0.2,0.1,0.3,0.3,0.3c1.7,0,3.5,0,5.2,0c0.3,0,0.3-0.1,0.3-0.3
			c0-0.3,0-0.6,0-0.9c0-0.3-0.1-0.4-0.4-0.4c-0.9,0-1.9,0-2.8,0c-0.6,0-0.6,0-0.6-0.7c0-0.3,0.1-0.3,0.4-0.3c1,0,2,0,3,0
			c0.2,0,0.3-0.1,0.3-0.3c0-0.3,0-0.7,0-1c0-0.3-0.1-0.3-0.3-0.3c-1,0-1.9,0-2.9,0c-0.3,0-0.4-0.1-0.4-0.3c0-0.1,0-0.1,0-0.2
			c-0.1-0.3,0-0.5,0.4-0.4c1,0,1.9,0,2.9,0c0.3,0,0.5-0.1,0.4-0.4c0-0.3,0-0.6,0-0.9c0-0.3-0.1-0.4-0.3-0.4c-1.7,0-3.4,0-5.1,0
			c-0.3,0-0.3,0.1-0.3,0.4C171.3,11.8,171.3,12.8,171.3,13.8z M180.5,10.4c-0.8,0-1.5,0-2.2,0c-0.3,0-0.4,0.1-0.4,0.4
			c0,0.9,0,1.8,0,2.8c0,1.1,0,2.2,0,3.3c0,0.3,0.1,0.4,0.4,0.4c0.5,0,1,0,1.5,0c0.2,0,0.3-0.1,0.3-0.3c0-0.5,0-0.9,0-1.4
			c0-0.4,0.1-0.5,0.5-0.5c0.8,0,1.5,0.1,2.3,0c1-0.1,1.6-0.7,1.7-1.6c0.1-0.4,0.1-0.7,0-1.1c-0.1-1-0.7-1.7-1.7-1.8
			C182,10.4,181.2,10.5,180.5,10.4z M203.4,10.4c-0.6,0-1.3,0-1.9,0c-0.4,0-1-0.2-1.3,0.1c-0.2,0.3-0.1,0.8-0.1,1.3c0,0,0,0,0,0
			c0,0.2,0.1,0.3,0.3,0.3c0.5,0,1,0,1.5,0c0.3,0,0.4,0.1,0.4,0.4c0,1.5,0,3,0,4.4c0,0.3,0.1,0.4,0.3,0.3c0.5,0,1,0,1.5,0
			c0.3,0,0.4-0.1,0.3-0.4c0-1.3,0-2.6,0-3.9c0-0.9,0-0.9,0.9-0.9c0.4,0,1,0.2,1.2-0.1c0.2-0.3,0-0.8,0.1-1.2c0-0.3-0.1-0.3-0.4-0.3
			C205.3,10.4,204.3,10.4,203.4,10.4z M147.6,13.8L147.6,13.8c0,1,0,2.1,0,3.1c0,0.2,0,0.3,0.3,0.3c1.6,0,3.2,0,4.9,0
			c0.2,0,0.3-0.1,0.3-0.3c0-0.4,0-0.7,0-1.1c0-0.3-0.1-0.4-0.4-0.4c-0.8,0-1.7,0-2.6,0c-0.3,0-0.4-0.1-0.4-0.4c0-1.5,0-2.9,0-4.4
			c0-0.2,0-0.4-0.3-0.3c-0.5,0-1,0-1.5,0c-0.3,0-0.3,0.1-0.3,0.3C147.6,11.8,147.6,12.8,147.6,13.8z"/>
		<path d="M106.7,53.4c-35.4,0-70.8,0-106.2,0c-0.6,0-0.6,0.1-0.6-0.6c0-2.1,0-4.2,0-6.2c0-0.4,0.1-0.5,0.5-0.5
			c22.3,0,44.6,0,66.8,0c48.5,0,97,0,145.6,0c0.6,0,0.6,0,0.6,0.6c0,2.1,0,4.1,0,6.2c0,0.4-0.1,0.5-0.5,0.5c-12.1,0-24.2,0-36.3,0
			C153.4,53.4,130,53.4,106.7,53.4z"/>
		<path d="M99.9,45c-0.2,0.1-0.4,0.1-0.6,0.1c-4.2,0-8.5,0-12.7,0c-0.3,0-0.4-0.1-0.4-0.4c0-7.4,0-14.9,0-22.3c0,0,0-0.1,0-0.1
			c0,0,0.1,0,0.1,0C90.8,29.8,95.4,37.4,99.9,45z"/>
		<path d="M159.2,28.4c1.3,5.5,3.4,10.8,5.2,16.3c0.1,0.4,0.1,0.4-0.3,0.4c-3.2,0-6.4,0-9.7,0c-0.4,0-0.4,0-0.3-0.4
			c1.6-4.7,3.2-9.3,4.6-14.1C159,29.8,159.1,29,159.2,28.4z"/>
		<path d="M123.8,30.1c-2.2,0-4.5,0-6.7,0c-0.4,0-0.4-0.1-0.3-0.5c0.4-1.6,1.3-2.8,2.8-3.5c2.8-1.2,5.6-1.3,8.4-0.1
			c1.5,0.6,2.5,1.7,2.8,3.4c0,0.1,0,0.2,0,0.2c0.1,0.4,0,0.5-0.4,0.5C128.2,30.1,126,30.1,123.8,30.1z"/>
		<path d="M28.6,45.1c2.5-0.8,4.8-1.9,6.5-4.1c0.1,0,0.1,0.1,0.1,0.2c0,1.2,0,2.4,0,3.6c0,0.2,0,0.3-0.2,0.3
			C32.8,45.1,30.7,45.1,28.6,45.1z"/>
		<path d="M71,41c0,1,0,1.9,0,2.8c0,0.4,0.2,0.9-0.1,1.1c-0.2,0.2-0.7,0.1-1.1,0.1c-1.7,0-3.4,0-5,0C67.1,44.3,69.3,43.2,71,41z"/>
		<path d="M143.1,12c0.3,0,0.5,0,0.8,0c0.4,0,0.6,0.2,0.6,0.6c0,0.5-0.1,0.7-0.5,0.7c-0.6,0-1.1,0-1.7,0c-0.2,0-0.2-0.1-0.2-0.2
			c0-0.3,0-0.6,0-1c0-0.2,0.1-0.2,0.2-0.2C142.6,12.1,142.8,12,143.1,12z"/>
		<path d="M196.1,12.1c0.4,0,0.7,0,1,0c0.4,0,0.5,0.2,0.5,0.6c0,0.5-0.1,0.7-0.5,0.7c-0.6,0-1.2,0-1.7,0c-0.1,0-0.2-0.1-0.2-0.2
			c0-0.1,0-0.1,0-0.2c0-0.3-0.1-0.8,0.1-1C195.4,11.9,195.8,12.1,196.1,12.1z"/>
		<path d="M166.7,12c0.3,0,0.6,0,0.8,0c0.4,0,0.6,0.2,0.6,0.6c0,0.6-0.1,0.8-0.5,0.8c-0.6,0-1.1,0-1.7,0c-0.1,0-0.2,0-0.2-0.2
			c0,0,0-0.1,0-0.1c0-0.4-0.1-0.8,0.1-1C166,11.9,166.5,12.1,166.7,12z"/>
		<path d="M155.7,13.8c0-0.5,0-1,0-1.5c0-0.2,0-0.3,0.3-0.3c0.4,0,0.8,0,1.2,0c0.6,0,0.9,0.3,1,0.9c0.1,0.6,0.1,1.2,0,1.8
			c-0.1,0.5-0.3,0.8-0.8,0.8c-0.5,0-1,0-1.5,0c-0.2,0-0.2-0.1-0.2-0.3C155.7,14.8,155.7,14.3,155.7,13.8z"/>
		<path d="M114.7,15.8c-0.5,0.1-0.9,0.1-1.3,0c-0.2,0-0.3-0.2-0.3-0.3c0-0.3,0.2-0.4,0.4-0.5c0.2-0.1,0.2,0,0.3,0.1
			C114.1,15.3,114.4,15.6,114.7,15.8z"/>
		<path d="M114.8,12.2c0,0.4-0.4,0.9-0.6,0.8c-0.3-0.1-0.3-0.4-0.3-0.6c0-0.3,0.1-0.5,0.4-0.5C114.7,11.8,114.8,12,114.8,12.2z"/>
		<path d="M137,13.8c0,0.1,0,0.2,0,0.4c-0.1,1.3-0.7,1.7-1.9,1.5c-0.5-0.1-0.8-0.4-1-0.8c-0.2-0.7-0.2-1.4,0-2.1
			c0.1-0.4,0.4-0.7,0.8-0.8c0.4-0.1,0.8-0.1,1.2,0c0.6,0.2,0.7,0.7,0.8,1.2C137.1,13.4,137.1,13.6,137,13.8
			C137.1,13.8,137.1,13.8,137,13.8z"/>
		<path d="M187.2,13.8c0-0.1,0-0.2,0-0.4c0.1-1.1,0.5-1.6,1.7-1.5c0.8,0,1.2,0.4,1.3,1.2c0.1,0.5,0.1,1.1-0.1,1.6
			c-0.2,0.7-0.6,1-1.4,1c-0.8,0-1.2-0.3-1.4-0.9C187.2,14.5,187.2,14.1,187.2,13.8z"/>
		<path d="M181,12c0.3,0,0.6,0,0.8,0c0.4,0,0.6,0.2,0.6,0.7c0,0.5-0.1,0.8-0.6,0.8c-0.6,0-1.1,0-1.7,0c-0.1,0-0.2-0.1-0.2-0.2
			c0-0.1,0-0.2,0-0.3c0-0.3-0.1-0.8,0.1-1C180.3,11.9,180.7,12.1,181,12z"/>
	</g>
</g>
</svg>
