<?xml version="1.0" encoding="utf-8"?>
<!-- Generator: Adobe Illustrator 18.0.0, SVG Export Plug-In . SVG Version: 6.00 Build 0)  -->
<!DOCTYPE svg PUBLIC "-//W3C//DTD SVG 1.1//EN" "http://www.w3.org/Graphics/SVG/1.1/DTD/svg11.dtd">
<svg version="1.1" xmlns="http://www.w3.org/2000/svg" xmlns:xlink="http://www.w3.org/1999/xlink" x="0px" y="0px"
	 viewBox="0 0 300 29" style="enable-background:new 0 0 300 29;" xml:space="preserve">
<style type="text/css">
	.st0{fill-rule:evenodd;clip-rule:evenodd;}
	.st1{fill-rule:evenodd;clip-rule:evenodd;fill:#C038F9;}
	.st2{fill:none;}
	.st3{fill-rule:evenodd;clip-rule:evenodd;fill:#231F20;}
</style>
<g id="Layer_2">
</g>
<g id="Layer_1">
	<g>
		<path d="M16.2,16.1c-1-1.5-2.5-2.5-4.1-3.2c0.8-0.9,1.6-1.8,2.1-2.9c0.5-1.1,0.8-2.4,0.5-3.7c-0.3-1.2-1.1-2.4-2.1-3.1
			c-1.1-0.7-2.3-1-3.6-1.1c-1.2-0.1-2.5,0-3.7,0C4,2.2,2.8,2.1,1.6,2.1c-0.3,0-0.6,0-0.9,0c-0.2,0-0.4,0.1-0.5,0.2
			C0.1,2.4,0,2.5,0,2.6c0,0.1,0,0.2,0,0.3c0.2,0.4,0.7,0.4,0.9,0.4c0.3,0,0.6,0,0.9,0.1c0.3,0.1,0.5,0.2,0.7,0.5
			c0.1,0.2,0.2,0.5,0.2,0.8c0,0.6,0,1.2,0,1.8c0,2.5,0.1,4.9,0,7.4l0,7.4c0,1.2,0,2.5-0.3,3.7c-0.1,0.3-0.2,0.6-0.4,0.7
			c-0.3,0.1-0.6,0.1-0.9,0.1c-0.2,0-0.3,0-0.5,0.2c-0.2,0.1-0.2,0.3-0.2,0.5c0,0.2,0.2,0.4,0.3,0.4C1,27,1.2,27,1.3,27
			c1.2,0,2.5-0.2,3.7-0.1l3,0.1c0.3,0,0.5,0,0.7,0c0.3,0,0.6,0,0.9,0c0.1,0,0.1,0,0.2,0c0.1,0,0.2,0,0.3,0c0.5,0,0.9-0.1,1.3-0.2
			c0.4-0.1,0.9-0.2,1.3-0.4c0.4-0.2,0.8-0.4,1.2-0.6l0.6-0.4l0.5-0.4c0.3-0.3,0.6-0.6,0.9-1c0.5-0.7,1-1.6,1.2-2.5
			c0.2-0.9,0.2-1.8,0.1-2.7C17,17.7,16.7,16.8,16.2,16.1z M6.1,23.1c0-0.5,0-0.9,0-1.4c0-0.9,0-1.7,0-2.5c0-1.6-0.1-2.9-0.1-3.8
			C6,14.6,6,14,6,14s0.5,0,1.4,0.1c0.5,0,1,0,1.6,0.2c0.6,0.1,1.3,0.4,1.9,0.8c1.3,0.9,2.3,2.4,2.7,4.3c0.2,0.9,0.3,2,0,2.9
			c-0.2,1-0.8,1.9-1.7,2.4c-0.9,0.5-1.9,0.7-2.9,0.6c-0.5,0-1-0.1-1.5-0.2c-0.4-0.1-1-0.3-1.2-0.7C6.2,24.1,6.2,23.6,6.1,23.1z
			 M6,12.3c0,0.1,0,0.1,0,0.2c0-0.4,0-0.7,0-1.1l0-1.1c0-0.7,0.1-1.5,0-2.2l0-4.3C6.3,3.8,6.7,3.8,7,3.8c0.4,0,0.7,0,1.1,0
			c0.3,0,0.7,0.1,1,0.2C9.4,4.1,9.7,4.3,10,4.5c1.1,0.9,1.5,2.4,1.6,3.8c0.1,0.7,0,1.4-0.2,2.1c-0.2,0.7-0.6,1.3-1.1,1.7
			c-0.3,0.2-0.6,0.3-0.9,0.3c-0.3,0-0.7,0.1-1.1,0.1c-0.7,0-1.4,0-2.2,0l-0.1,0c0,0,0,0,0,0c0,0,0,0,0-0.1V12.3z"/>
		<path d="M41.2,5.7c-0.5,0-1,0-1.5,0c-1,0.1-2,0-3,0c-0.5,0-1-0.1-1.5,0c-0.1,0-0.3,0.1-0.4,0.2c-0.1,0.1-0.2,0.3-0.2,0.4
			c0,0.4,0.3,0.6,0.6,0.6c0.5,0.1,1,0,1.4,0.2c0.4,0.2,0.3,0.8,0.4,1.2l0,3c0,2,0,4,0,5.9c0,2-0.1,4-1,5.8c-0.5,0.8-1.2,1.5-2.1,2
			c-0.9,0.4-1.9,0.5-2.8,0.5c-1.9,0-3.9-1-4.7-2.8c-0.8-1.8-0.8-3.8-0.8-5.8l0-5.9c0-1,0-2,0-3c0-0.5,0.1-1,0.6-1l0.7-0.1
			c0.3,0,0.6-0.1,0.7-0.5c0-0.1,0-0.3-0.1-0.5c-0.1-0.1-0.3-0.2-0.4-0.2c-0.3-0.1-0.5,0-0.8,0l-1.5,0c-1,0.1-2,0-3,0l-1.5,0
			c-0.2,0-0.6,0-0.8,0.4c-0.1,0.2-0.1,0.3,0,0.5c0.1,0.2,0.2,0.3,0.3,0.3c0.3,0.1,0.5,0.1,0.8,0.1c0.3,0,0.5,0,0.7,0.1
			c0.5,0.1,0.5,0.6,0.5,1.1l0,0l0.1,6.1v3c0,1,0,2,0.2,3.1c0.1,1,0.4,2,0.9,2.9c0.4,0.9,1.1,1.7,1.9,2.4c1.6,1.3,3.8,1.6,5.8,1.6
			c-0.3,0-0.5,0-0.8,0c0.3,0,0.5,0,0.8,0c1,0,2-0.1,3-0.3c1-0.3,1.9-0.7,2.7-1.3c1.7-1.2,2.5-3.1,2.9-5.1c0.4-2,0.3-4,0.3-6l0-5.9
			c0-0.5,0-1,0.2-1.4c0.2-0.4,0.7-0.3,1.3-0.4c0.3,0,0.6-0.3,0.6-0.6c0-0.1-0.1-0.3-0.2-0.4C41.5,5.8,41.3,5.7,41.2,5.7z"/>
		<path d="M50.1,13c-0.9-0.8-2-1.6-2.1-2.9c-0.1-0.6,0-1.3,0.4-1.8c0.3-0.5,0.9-0.9,1.5-1.1c0.6-0.2,1.3-0.2,1.9-0.1
			c0.7,0.1,1.3,0.3,1.8,0.6c0.6,0.4,0.8,1,0.9,1.7c0,0.2,0,0.3,0.1,0.5c0,0.2,0.2,0.4,0.4,0.5c0.2,0.1,0.5,0,0.6-0.2
			c0.1-0.2,0.1-0.4,0.1-0.6c0-0.7,0.1-1.4,0.1-2.1l0-1.1c0-0.1,0-0.4-0.1-0.6c-0.2-0.2-0.4-0.2-0.6-0.2c-0.3-0.1-0.7-0.1-1-0.2
			c-0.3-0.1-0.7-0.1-1.1-0.2c-0.7-0.1-1.4-0.1-2.1-0.1c-1.4,0.1-2.9,0.5-4,1.5c-1.1,0.9-1.7,2.4-1.7,3.8c0,1.4,0.5,2.8,1.4,3.9
			c0.9,1.1,1.9,2,3,2.8c1.1,0.8,2.1,1.6,2.9,2.6c0.8,0.9,1.1,2.3,0.8,3.4c-0.3,1.1-1.4,1.9-2.5,2.1c-1.1,0.2-2.2,0.1-3.2-0.4
			c-0.5-0.2-0.9-0.6-1.1-1c-0.3-0.4-0.4-0.9-0.5-1.3c0-0.2-0.1-0.5-0.1-0.7c0-0.2-0.1-0.6-0.4-0.7c-0.3-0.1-0.6,0-0.7,0.3
			c-0.1,0.2-0.1,0.5-0.1,0.7c0,0.9,0,1.7-0.1,2.4c0,0.4,0,0.7,0,1.1c0,0.4,0.4,0.6,0.7,0.7c1.2,0.5,2.1,0.6,2.8,0.6c0.7,0,1,0,1,0
			s-0.3,0-0.8,0c0.3,0,0.5,0,0.8,0c0.4,0,0.7,0,1.1-0.1c0,0,0,0,0,0c-0.7,0.1-1,0.1-1,0.1s0.4,0,1,0c0.7-0.1,1.6-0.2,2.8-0.7
			c1.1-0.5,2.3-1.6,3-3.3c0.6-1.6,0.5-3.8-0.8-5.6C54,15.8,52,14.5,50.1,13z M50.9,27.1c0,0-0.1,0-0.1,0
			C50.8,27.1,50.9,27.1,50.9,27.1z"/>
		<path d="M68.2,26.5c0-0.1,0-0.2-0.1-0.3c0,0,0,0,0,0c0,0,0-0.1-0.1-0.1c-0.1-0.1-0.3-0.1-0.4-0.1l-0.9-0.1c-0.3,0-0.6-0.1-0.8-0.3
			c-0.2-0.2-0.2-0.6-0.2-0.9c0-0.3-0.1-0.6-0.1-0.9c0-1.3,0-2.5,0-3.8l0-7.6c0-1.3,0-2.5,0-3.8c0-0.3,0-0.6,0.1-0.9
			c0-0.3,0.2-0.5,0.4-0.6c0.3-0.1,0.6-0.1,0.9-0.1c0.2,0,0.4-0.1,0.5-0.2c0.1-0.2,0.1-0.4,0.1-0.6c-0.2-0.4-0.7-0.4-1-0.4l-0.9,0
			l-1.9,0.1l-1.9-0.1l-0.9,0c-0.2,0-0.3,0-0.5,0.1c-0.2,0.1-0.3,0.3-0.3,0.5c0,0.2,0.1,0.4,0.3,0.5c0.2,0.1,0.4,0.1,0.5,0.1
			c0.3,0.1,0.7,0,0.9,0.2c0.2,0.1,0.3,0.4,0.3,0.7c0,0.3,0,0.6,0,0.9l0,3.8l0,7.6c0,1.3,0,2.5-0.1,3.8c0,0.3-0.1,0.6-0.1,0.9
			c0,0.3-0.1,0.6-0.2,0.8c-0.1,0.1-0.2,0.1-0.3,0.1l-0.5,0.1c-0.1,0-0.3,0-0.5,0.1c-0.2,0.1-0.3,0.3-0.3,0.5c0,0.2,0.1,0.4,0.3,0.5
			c0.2,0.1,0.3,0.1,0.5,0.1l0.9,0l1.9-0.1l2.6,0c0.4,0,0.8,0,1.2,0c0.1,0,0.2,0,0.3,0c-0.1,0-0.2,0-0.3,0c0.1,0,0.2,0,0.4-0.1
			c0,0,0,0,0,0c0,0,0,0,0.1,0c0.1,0,0.1-0.1,0.1-0.1c0,0,0,0,0,0c0,0,0-0.1,0.1-0.1C68.1,26.6,68.2,26.5,68.2,26.5
			C68.2,26.5,68.2,26.5,68.2,26.5z M68.1,26.3C68.1,26.3,68.1,26.3,68.1,26.3C68.1,26.3,68.1,26.3,68.1,26.3z M67.9,26.8
			C67.9,26.8,67.9,26.8,67.9,26.8C67.9,26.8,67.9,26.8,67.9,26.8C67.9,26.8,67.9,26.8,67.9,26.8z"/>
		<path d="M94.7,5.7c-0.4,0-0.7,0-1,0l-2,0.1l-2-0.1c-0.3,0-0.7,0-1,0c-0.2,0-0.4,0-0.5,0.1c-0.2,0.1-0.3,0.4-0.2,0.6
			c0,0.2,0.2,0.4,0.4,0.5c0.2,0.1,0.4,0,0.5,0.1l1,0.1c0.3,0.1,0.5,0.2,0.6,0.5c0.1,0.3,0.1,0.6,0.2,0.9c0,0.6,0,1.3,0.1,1.9
			l0.1,3.8l0.2,7.4l-6.1-6.1l-6.2-6.4l-3.1-3.2c-0.1-0.1-0.3-0.3-0.4-0.4c-0.1-0.1-0.4-0.3-0.6-0.2c-0.2,0-0.4,0.2-0.5,0.4
			c-0.1,0.2-0.1,0.4-0.1,0.6c0,0.8,0,1.5,0,2.2l0,8.9l0,4.5c0,0.7,0,1.5,0,2.2c-0.1,0.7-0.1,1.6-0.9,1.6c-0.2,0-0.4,0-0.5,0
			c-0.2,0-0.4,0-0.6,0.1c-0.2,0.1-0.3,0.4-0.2,0.6c0.1,0.3,0.3,0.4,0.5,0.4c0.8,0,1.5,0,2.3,0c0.7,0,1.5,0,2.2,0l1.1,0
			c0.4,0,0.7,0.1,1.2-0.1c0.2-0.1,0.4-0.4,0.3-0.6c0-0.2-0.2-0.4-0.4-0.5c-0.4-0.1-0.8,0-1.1-0.1c-0.4,0-0.7-0.1-0.8-0.4
			c-0.2-0.3-0.2-0.7-0.2-1c-0.1-1.5-0.1-3-0.2-4.4L76,11.3c2.3,2.4,4.5,4.7,6.8,7l7.3,7v0l0,0l1.1,1c0.1,0.1,0.2,0.1,0.3,0.2
			c0,0,0,0,0.1,0.1c0.1,0.1,0.1,0.1,0.2,0.2c0.1,0.1,0.1,0.1,0.2,0.2c0,0,0,0,0,0c0,0,0.1,0.1,0.1,0.1c0,0,0,0,0.1,0c0,0,0,0,0.1,0
			c0.1,0,0.1,0,0.2,0c0.1,0,0.2,0,0.2-0.1c0,0,0,0,0,0c0.1,0,0.1-0.1,0.1-0.2c0,0,0,0,0,0c0,0,0-0.1,0-0.1c0,0,0,0,0-0.1
			c0-0.1,0-0.2,0-0.3c0-0.1,0-0.1,0-0.2c0-0.1,0-0.2,0-0.4c0-0.1,0-0.3,0-0.4l0-2l0-4l0.1-8l0-2c0-0.7,0-1.4,0.2-1.9
			C93.4,7.1,93.7,7,94,7l0.5-0.1c0.2,0,0.4-0.1,0.5-0.2c0.2-0.2,0.2-0.4,0.1-0.6C95.1,5.9,94.8,5.7,94.7,5.7z M92,27
			C92.1,27,92.1,27,92,27C92.1,27,92.1,27,92,27z M92.2,27.1C92.2,27.1,92.2,27.1,92.2,27.1C92.2,27.1,92.2,27.1,92.2,27.1z
			 M92.6,27C92.6,27,92.6,27,92.6,27C92.6,27,92.6,27,92.6,27z"/>
		<path d="M111.5,22.7c-0.1,0.2-0.2,0.5-0.2,0.7c-0.1,0.5-0.2,0.9-0.5,1.3c-0.3,0.3-0.8,0.4-1.3,0.5c-0.5,0.1-0.9,0.1-1.4,0
			c-0.5,0-0.9,0-1.4-0.1c-0.5,0-0.9-0.1-1.3-0.3c-0.3-0.2-0.4-0.7-0.4-1.2c-0.1-0.5,0-0.9,0-1.4l0-5.5l2.2,0.1l1.2,0
			c0.4,0,0.8,0,1.1,0.2c0.3,0.1,0.4,0.4,0.5,0.8c0,0.2,0,0.4,0.1,0.6c0,0.2,0.1,0.5,0.4,0.5c0.2,0.1,0.5-0.1,0.6-0.3
			c0.1-0.2,0.1-0.4,0.1-0.6l0.1-1.2c0-0.8,0.2-1.5,0.3-2.3c0-0.2-0.2-0.5-0.4-0.5c-0.2,0-0.5,0.1-0.6,0.3c-0.2,0.4-0.5,0.4-0.9,0.4
			c-0.4,0-0.8,0-1.2,0l-1.2,0l-2.2,0l0-7.1l2.7,0c0.5,0,1,0,1.4,0.1c0.2,0,0.5,0.1,0.7,0.2c0.2,0.1,0.3,0.3,0.3,0.5l0,0l0,0
			c0.1,0.2,0.2,0.5,0.2,0.8c0,0.2,0,0.7,0.4,0.8c0.2,0.1,0.4,0,0.5-0.1c0.2-0.1,0.2-0.3,0.3-0.4c0.1-0.3,0-0.6,0.1-0.8
			c0-0.6,0-1.1,0.2-1.6l0.1-0.8c0.1-0.3-0.1-0.8-0.5-0.8c-1.1,0.4-2.2,0.2-3.3,0.3l-3.3,0c-1.1,0-2.2,0-3.3,0c-0.6,0-1.1,0-1.7,0
			c-0.1,0-0.3,0-0.5,0.1c-0.2,0.1-0.2,0.3-0.2,0.4c0,0.2,0.1,0.4,0.2,0.5c0.1,0.1,0.3,0.1,0.4,0.1l0.8,0.1c0.3,0.1,0.5,0.1,0.7,0.3
			c0.3,0.4,0.2,1,0.3,1.5l0,3.3c0,2.2,0,4.4,0,6.6l0,3.3c0,1.1,0.1,2.2-0.3,3.2c-0.1,0.2-0.2,0.4-0.5,0.5l-0.8,0.1
			c-0.3,0.1-0.5,0.5-0.3,0.8c0.2,0.3,0.6,0.3,0.8,0.3c1.1-0.1,2.2-0.1,3.3-0.1l3.3,0.1l1.8,0c0.4,0,0.9,0,1.5,0c0.3,0,0.6,0,0.9,0
			c0,0,0.1,0,0.1,0c0,0,0.1,0,0.1,0c0.1,0,0.2-0.1,0.2-0.1c0,0,0,0,0,0c0,0,0-0.1,0.1-0.1c0,0,0.1-0.1,0.1-0.1
			c0.2-0.3,0.2-0.8,0.3-1.2l0.2-1.4c0-0.4,0.3-1-0.1-1.4C112,22.4,111.7,22.5,111.5,22.7z"/>
		<path d="M122,13c-0.9-0.8-2-1.6-2.1-2.9c-0.1-0.6,0-1.3,0.4-1.8c0.3-0.5,0.9-0.9,1.5-1.1c0.6-0.2,1.3-0.2,1.9-0.1
			c0.7,0.1,1.3,0.3,1.8,0.6c0.6,0.4,0.8,1,0.9,1.7c0,0.2,0,0.3,0.1,0.5c0,0.2,0.2,0.4,0.4,0.5c0.2,0.1,0.5,0,0.6-0.2
			c0.1-0.2,0.1-0.4,0.1-0.6c0-0.7,0.1-1.4,0.1-2.1l0-1.1c0-0.1,0-0.4-0.1-0.6c-0.2-0.2-0.4-0.2-0.6-0.2c-0.3-0.1-0.7-0.1-1-0.2
			c-0.3-0.1-0.7-0.1-1.1-0.2c-0.7-0.1-1.4-0.1-2.1-0.1c-1.4,0.1-2.9,0.5-4,1.5c-1.1,0.9-1.7,2.4-1.7,3.8c0,1.4,0.5,2.8,1.4,3.9
			c0.9,1.1,1.9,2,3,2.8c1.1,0.8,2.1,1.6,2.9,2.6c0.8,0.9,1.1,2.3,0.8,3.4c-0.3,1.1-1.4,1.9-2.5,2.1c-1.1,0.2-2.2,0.1-3.2-0.4
			c-0.5-0.2-0.9-0.6-1.1-1c-0.3-0.4-0.4-0.9-0.5-1.3c0-0.2-0.1-0.5-0.1-0.7c0-0.2-0.1-0.6-0.4-0.7c-0.3-0.1-0.6,0-0.7,0.3
			c-0.1,0.2-0.1,0.5-0.1,0.7c0,0.9,0,1.7-0.1,2.4c0,0.4,0,0.7,0,1.1c0,0.4,0.4,0.6,0.7,0.7c1.2,0.5,2.1,0.6,2.8,0.6c0.7,0,1,0,1,0
			s-0.3,0-0.8,0c0.3,0,0.5,0,0.8,0c0.4,0,0.7,0,1.1-0.1c0,0,0,0,0,0c-0.7,0.1-1,0.1-1,0.1s0.4,0,1,0c0.7-0.1,1.6-0.2,2.8-0.7
			c1.1-0.5,2.3-1.6,3-3.3c0.6-1.6,0.5-3.8-0.8-5.6C125.9,15.8,123.9,14.5,122,13z M122.8,27.1c0,0-0.1,0-0.1,0
			C122.7,27.1,122.8,27.1,122.8,27.1z"/>
		<path d="M137.6,13c-0.9-0.8-2-1.6-2.1-2.9c-0.1-0.6,0-1.3,0.4-1.8c0.3-0.5,0.9-0.9,1.5-1.1c0.6-0.2,1.3-0.2,1.9-0.1
			c0.7,0.1,1.3,0.3,1.8,0.6c0.6,0.4,0.8,1,0.9,1.7c0,0.2,0,0.3,0.1,0.5c0,0.2,0.2,0.4,0.4,0.5c0.2,0.1,0.5,0,0.6-0.2
			c0.1-0.2,0.1-0.4,0.1-0.6c0-0.7,0.1-1.4,0.1-2.1l0-1.1c0-0.1,0-0.4-0.1-0.6c-0.2-0.2-0.4-0.2-0.6-0.2c-0.3-0.1-0.7-0.1-1-0.2
			c-0.3-0.1-0.7-0.1-1.1-0.2c-0.7-0.1-1.4-0.1-2.1-0.1c-1.4,0.1-2.9,0.5-4,1.5c-1.1,0.9-1.7,2.4-1.7,3.8c0,1.4,0.5,2.8,1.4,3.9
			c0.9,1.1,1.9,2,3,2.8c1.1,0.8,2.1,1.6,2.9,2.6c0.8,0.9,1.1,2.3,0.8,3.4c-0.3,1.1-1.4,1.9-2.5,2.1c-1.1,0.2-2.2,0.1-3.2-0.4
			c-0.5-0.2-0.9-0.6-1.1-1c-0.3-0.4-0.4-0.9-0.5-1.3c0-0.2-0.1-0.5-0.1-0.7c0-0.2-0.1-0.6-0.4-0.7c-0.3-0.1-0.6,0-0.7,0.3
			c-0.1,0.2-0.1,0.5-0.1,0.7c0,0.9,0,1.7-0.1,2.4c0,0.4,0,0.7,0,1.1c0,0.4,0.4,0.6,0.7,0.7c1.2,0.5,2.1,0.6,2.8,0.6c0.7,0,1,0,1,0
			s-0.3,0-0.8,0c0.3,0,0.5,0,0.8,0c0.4,0,0.7,0,1.1-0.1c0,0,0,0,0,0c-0.7,0.1-1,0.1-1,0.1s0.4,0,1,0c0.7-0.1,1.6-0.2,2.8-0.7
			c1.1-0.5,2.3-1.6,3-3.3c0.6-1.6,0.5-3.8-0.8-5.6C141.5,15.8,139.5,14.5,137.6,13z M138.4,27.1c0,0-0.1,0-0.1,0
			C138.3,27.1,138.4,27.1,138.4,27.1z"/>
		<path d="M168.1,26.3c0,0,0-0.1,0-0.1c-0.1-0.1-0.3-0.2-0.5-0.2c-0.4,0-0.8-0.1-1.3-0.1c-0.2,0-0.5-0.1-0.7-0.3
			c-0.2-0.2-0.3-0.5-0.3-0.7c-0.1-0.6-0.1-1.2-0.1-1.9c0-1.4,0-2.9,0-4.6c0-3.4,0-7.2,0-11.4c0-0.5,0-1.1,0-1.6c0-0.5,0-1.1,0.2-1.5
			c0.2-0.5,0.8-0.4,1.3-0.5c0.3,0,0.7-0.2,0.7-0.6c0-0.2-0.1-0.4-0.2-0.5c-0.1-0.1-0.3-0.1-0.4-0.2c-1.1,0-2.2,0.1-3.3,0.1
			c-1.1,0-2.2-0.1-3.3-0.1c-0.3,0-0.7,0.1-0.8,0.5c0,0.1,0,0.4,0.1,0.5c0.1,0.1,0.3,0.2,0.5,0.2c0.3,0,0.5,0,0.8,0.1
			c0.3,0.1,0.5,0.1,0.6,0.3c0.3,0.4,0.3,1,0.3,1.5c0,0.6,0,1.1,0,1.7c0,2.2,0.1,4.4,0,6.4c0,2.1,0,4.1,0,6c0,1.9,0,3.7-0.2,5.4
			c-0.1,0.4-0.2,0.8-0.5,1c-0.1,0.1-0.3,0.1-0.5,0.1c-0.2,0-0.4,0-0.6,0.1c-0.2,0-0.4,0.2-0.5,0.5c0,0.2,0.1,0.5,0.3,0.6
			c0.4,0.2,0.8,0.1,1.1,0.1c1.4,0,2.5-0.2,3.5-0.1c0.6,0,1.1,0,1.5,0c0.5,0,1,0,1.6,0c0.1,0,0.3,0,0.3,0c-0.1,0-0.1,0-0.1,0
			c-0.1,0-0.2,0-0.2,0s0.1,0,0.2,0c0.1,0,0.3,0,0.4-0.2c0,0,0,0,0,0c0,0,0.1-0.1,0.1-0.1C168.1,26.5,168.1,26.4,168.1,26.3
			C168.1,26.3,168.1,26.3,168.1,26.3z M167.8,26.8c0.1,0,0.1-0.1,0.1-0.1C167.9,26.8,167.8,26.8,167.8,26.8z"/>
		<path d="M193.4,5.7c-0.4,0-0.7,0-1,0l-2,0.1l-2-0.1c-0.3,0-0.7,0-1,0c-0.2,0-0.4,0-0.5,0.1c-0.2,0.1-0.3,0.4-0.2,0.6
			c0,0.2,0.2,0.4,0.4,0.5c0.2,0.1,0.4,0,0.5,0.1l1,0.1c0.3,0.1,0.5,0.2,0.6,0.5c0.1,0.3,0.1,0.6,0.2,0.9c0,0.6,0,1.3,0.1,1.9
			l0.1,3.8l0.2,7.4l-6.1-6.1l-6.2-6.4l-3.1-3.2c-0.1-0.1-0.3-0.3-0.4-0.4c-0.1-0.1-0.4-0.3-0.6-0.2c-0.2,0-0.4,0.2-0.5,0.4
			c-0.1,0.2-0.1,0.4-0.1,0.6c0,0.8,0,1.5,0,2.2l0,8.9l0,4.5c0,0.7,0,1.5,0,2.2c-0.1,0.7-0.1,1.6-0.9,1.6c-0.2,0-0.4,0-0.5,0
			c-0.2,0-0.4,0-0.6,0.1c-0.2,0.1-0.3,0.4-0.2,0.6c0.1,0.3,0.3,0.4,0.5,0.4c0.8,0,1.5,0,2.3,0c0.7,0,1.5,0,2.2,0l1.1,0
			c0.4,0,0.7,0.1,1.2-0.1c0.2-0.1,0.4-0.4,0.3-0.6c0-0.2-0.2-0.4-0.4-0.5c-0.4-0.1-0.8,0-1.1-0.1c-0.4,0-0.7-0.1-0.8-0.4
			c-0.2-0.3-0.2-0.7-0.2-1c-0.1-1.5-0.1-3-0.2-4.4l-0.3-8.6c2.3,2.4,4.5,4.7,6.8,7l7.3,7v0l0,0l1.1,1c0.1,0.1,0.2,0.1,0.3,0.2
			c0,0,0,0,0.1,0.1c0.1,0.1,0.1,0.1,0.2,0.2c0.1,0.1,0.1,0.1,0.2,0.2c0,0,0,0,0,0c0,0,0.1,0.1,0.1,0.1c0,0,0,0,0.1,0c0,0,0,0,0.1,0
			c0.1,0,0.1,0,0.2,0c0.1,0,0.2,0,0.2-0.1c0,0,0,0,0,0c0.1,0,0.1-0.1,0.1-0.2c0,0,0,0,0,0c0,0,0-0.1,0-0.1c0,0,0,0,0-0.1
			c0-0.1,0-0.2,0-0.3c0-0.1,0-0.1,0-0.2c0-0.1,0-0.2,0-0.4c0-0.1,0-0.3,0-0.4l0-2l0-4l0.1-8l0-2c0-0.7,0-1.4,0.2-1.9
			c0.1-0.3,0.4-0.4,0.7-0.4l0.5-0.1c0.2,0,0.4-0.1,0.5-0.2c0.2-0.2,0.2-0.4,0.1-0.6C193.9,5.9,193.6,5.7,193.4,5.7z M190.8,27
			C190.8,27,190.8,27,190.8,27C190.8,27,190.8,27,190.8,27z M191,27.1C191,27.1,191,27.1,191,27.1C191,27.1,191,27.1,191,27.1z
			 M191.4,27C191.4,27,191.4,27,191.4,27C191.4,27,191.4,27,191.4,27z"/>
		<path d="M202.4,13c-0.9-0.8-2-1.6-2.1-2.9c-0.1-0.6,0-1.3,0.4-1.8c0.3-0.5,0.9-0.9,1.5-1.1c0.6-0.2,1.3-0.2,1.9-0.1
			c0.7,0.1,1.3,0.3,1.8,0.6c0.6,0.4,0.8,1,0.9,1.7c0,0.2,0,0.3,0.1,0.5c0,0.2,0.2,0.4,0.4,0.5c0.2,0.1,0.5,0,0.6-0.2
			c0.1-0.2,0.1-0.4,0.1-0.6c0-0.7,0.1-1.4,0.1-2.1l0-1.1c0-0.1,0-0.4-0.1-0.6c-0.2-0.2-0.4-0.2-0.6-0.2c-0.3-0.1-0.7-0.1-1-0.2
			c-0.3-0.1-0.7-0.1-1.1-0.2c-0.7-0.1-1.4-0.1-2.1-0.1c-1.4,0.1-2.9,0.5-4,1.5c-1.1,0.9-1.7,2.4-1.7,3.8c0,1.4,0.5,2.8,1.4,3.9
			c0.9,1.1,1.9,2,3,2.8c1.1,0.8,2.1,1.6,2.9,2.6c0.8,0.9,1.1,2.3,0.8,3.4c-0.3,1.1-1.4,1.9-2.5,2.1c-1.1,0.2-2.2,0.1-3.2-0.4
			c-0.5-0.2-0.9-0.6-1.1-1c-0.3-0.4-0.4-0.9-0.5-1.3c0-0.2-0.1-0.5-0.1-0.7c0-0.2-0.1-0.6-0.4-0.7c-0.3-0.1-0.6,0-0.7,0.3
			c-0.1,0.2-0.1,0.5-0.1,0.7c0,0.9,0,1.7-0.1,2.4c0,0.4,0,0.7,0,1.1c0,0.4,0.4,0.6,0.7,0.7c1.2,0.5,2.1,0.6,2.8,0.6c0.7,0,1,0,1,0
			s-0.3,0-0.8,0c0.3,0,0.5,0,0.8,0c0.4,0,0.7,0,1.1-0.1c0,0,0,0,0,0c-0.7,0.1-1,0.1-1,0.1s0.4,0,1,0c0.7-0.1,1.6-0.2,2.8-0.7
			c1.1-0.5,2.3-1.6,3-3.3c0.6-1.6,0.5-3.8-0.8-5.6C206.2,15.8,204.3,14.5,202.4,13z M203.2,27.1c0,0-0.1,0-0.1,0
			C203.1,27.1,203.2,27.1,203.2,27.1z"/>
		<path d="M220.5,26.5c0-0.1,0-0.2-0.1-0.3c0,0,0,0,0,0c0,0,0-0.1-0.1-0.1c-0.1-0.1-0.3-0.1-0.4-0.1h0l-0.9-0.1
			c-0.3,0-0.6-0.1-0.8-0.3c-0.2-0.2-0.2-0.6-0.2-0.9c0-0.3-0.1-0.6-0.1-0.9c0-1.3,0-2.5,0-3.8l0-7.6c0-1.3,0-2.5,0-3.8
			c0-0.3,0-0.6,0.1-0.9c0-0.3,0.2-0.5,0.4-0.6c0.3-0.1,0.6-0.1,0.9-0.1c0.2,0,0.4-0.1,0.5-0.2c0.1-0.2,0.1-0.4,0.1-0.6
			c-0.2-0.4-0.7-0.4-1-0.4l-0.9,0L216,5.8l-1.9-0.1l-0.9,0c-0.2,0-0.3,0-0.5,0.1c-0.2,0.1-0.3,0.3-0.3,0.5c0,0.2,0.1,0.4,0.3,0.5
			c0.2,0.1,0.4,0.1,0.5,0.1c0.3,0.1,0.7,0,0.9,0.2c0.2,0.1,0.3,0.4,0.3,0.7c0,0.3,0,0.6,0,0.9l0,3.8l0,7.6c0,1.3,0,2.5-0.1,3.8
			c0,0.3-0.1,0.6-0.1,0.9c0,0.3-0.1,0.6-0.2,0.8c-0.1,0.1-0.2,0.1-0.3,0.1l-0.5,0.1c-0.1,0-0.3,0-0.5,0.1c-0.2,0.1-0.3,0.3-0.3,0.5
			c0,0.2,0.1,0.4,0.3,0.5c0.2,0.1,0.3,0.1,0.5,0.1l0.9,0l1.9-0.1l2.6,0c0.4,0,0.8,0,1.2,0c0.1,0,0.2,0,0.3,0c-0.1,0-0.2,0-0.3,0
			c0.1,0,0.2,0,0.4-0.1c0,0,0,0,0,0c0,0,0,0,0.1,0c0.1,0,0.1-0.1,0.1-0.1c0,0,0,0,0,0c0,0,0-0.1,0.1-0.1
			C220.4,26.6,220.4,26.5,220.5,26.5C220.5,26.5,220.5,26.5,220.5,26.5z M220.4,26.3C220.4,26.3,220.4,26.3,220.4,26.3
			C220.4,26.3,220.4,26.3,220.4,26.3z M220.2,26.8C220.2,26.8,220.2,26.8,220.2,26.8C220.2,26.8,220.2,26.8,220.2,26.8
			C220.2,26.8,220.2,26.8,220.2,26.8z"/>
		<path d="M244.4,9.3c-1-1.1-2.2-1.9-3.5-2.5c-1.3-0.6-2.7-0.9-4.2-1c-2.8-0.3-5.7-0.1-8.5-0.1l-2.1-0.1c-0.4,0-0.7,0-1.1,0
			c-0.2,0-0.4,0.1-0.5,0.3c-0.1,0.2-0.1,0.5,0,0.6c0.1,0.2,0.4,0.2,0.6,0.3l0.5,0c0.4,0,0.7,0.1,0.9,0.3c0.2,0.2,0.3,0.5,0.3,0.9
			l0,1.1c0,2.8,0.1,5.7,0.1,8.5l0,4.2c0,0.7,0,1.4-0.1,2.1c0,0.3-0.1,0.7-0.1,1c-0.1,0.3-0.2,0.7-0.5,0.7l-0.7,0.1
			c-0.3,0-0.6,0.2-0.7,0.5c0,0.1,0,0.3,0.1,0.4c0.1,0.1,0.3,0.2,0.4,0.2c0.3,0.1,0.5,0,0.8,0l1.5-0.1c0.5,0,1-0.1,1.5,0
			c1,0,2,0.1,2.9,0.1l0,0c1,0.1,2.1,0.1,2.9,0.1c1.4,0,2.8-0.1,4.2-0.5c1.4-0.4,2.7-1,3.8-1.9c1.1-0.9,2-2.1,2.7-3.3
			c0.7-1.3,1.1-2.7,1.2-4.1c0.1-1.4,0-2.9-0.4-4.3C246.1,11.6,245.4,10.4,244.4,9.3z M230.6,24.4L230.6,24.4
			c-0.1-0.3-0.2-0.7-0.2-1.1c0-0.4,0-0.8,0-1.2l0-2.3l0-4.7c0-1.6,0-3.1,0-4.7l0-2.3c0-0.2,0-0.4,0-0.6c0.1-0.1,0.3-0.2,0.5-0.2
			c0.4-0.1,0.8-0.1,1.2-0.1c-0.3,0-0.6,0-0.9,0.1c0.3,0,0.7-0.1,0.9-0.1c1.5,0,3,0.1,4.4,0.5c1.4,0.4,2.7,1.1,3.8,2.1
			c0.6,0.5,1.1,1,1.5,1.6c0.4,0.6,0.8,1.2,1,1.9c0.5,1.4,0.7,2.8,0.6,4.3c-0.1,1.5-0.4,2.9-1.1,4.2c-0.7,1.3-2,2.2-3.3,2.8
			c-1.3,0.6-2.8,0.8-4.3,0.8c-0.7,0-1.5-0.1-2.2-0.2C231.8,25.2,231,25,230.6,24.4L230.6,24.4z"/>
		<path d="M262.6,22.7c-0.1,0.2-0.2,0.5-0.2,0.7c-0.1,0.5-0.2,0.9-0.5,1.3c-0.3,0.3-0.8,0.4-1.3,0.5c-0.5,0.1-0.9,0.1-1.4,0
			c-0.5,0-0.9,0-1.4-0.1c-0.5,0-0.9-0.1-1.3-0.3c-0.3-0.2-0.4-0.7-0.4-1.2c-0.1-0.5,0-0.9,0-1.4l0-5.5l2.2,0.1l1.2,0
			c0.4,0,0.8,0,1.1,0.2c0.3,0.1,0.4,0.4,0.5,0.8c0,0.2,0,0.4,0.1,0.6c0,0.2,0.1,0.5,0.4,0.5c0.2,0.1,0.5-0.1,0.6-0.3
			c0.1-0.2,0.1-0.4,0.1-0.6l0.1-1.2c0-0.8,0.2-1.5,0.3-2.3c0-0.2-0.2-0.5-0.4-0.5c-0.2,0-0.5,0.1-0.6,0.3c-0.2,0.4-0.5,0.4-0.9,0.4
			c-0.4,0-0.8,0-1.2,0l-1.2,0l-2.2,0l0-7.1l2.7,0c0.5,0,1,0,1.4,0.1c0.2,0,0.5,0.1,0.7,0.2c0.2,0.1,0.3,0.3,0.3,0.5l0,0l0,0
			c0.1,0.2,0.2,0.5,0.2,0.8c0,0.2,0,0.7,0.4,0.8c0.2,0.1,0.4,0,0.5-0.1c0.2-0.1,0.2-0.3,0.3-0.4c0.1-0.3,0-0.6,0.1-0.8
			c0-0.6,0-1.1,0.2-1.6l0.1-0.8c0.1-0.3-0.1-0.8-0.5-0.8c-1.1,0.4-2.2,0.2-3.3,0.3l-3.3,0c-1.1,0-2.2,0-3.3,0c-0.6,0-1.1,0-1.7,0
			c-0.1,0-0.3,0-0.5,0.1c-0.2,0.1-0.2,0.3-0.2,0.4c0,0.2,0.1,0.4,0.2,0.5c0.1,0.1,0.3,0.1,0.4,0.1l0.8,0.1c0.3,0.1,0.5,0.1,0.7,0.3
			c0.3,0.4,0.2,1,0.3,1.5l0,3.3c0,2.2,0,4.4,0,6.6l0,3.3c0,1.1,0.1,2.2-0.3,3.2c-0.1,0.2-0.2,0.4-0.5,0.5l-0.8,0.1
			c-0.3,0.1-0.5,0.5-0.3,0.8c0.2,0.3,0.6,0.3,0.8,0.3c1.1-0.1,2.2-0.1,3.3-0.1l3.3,0.1l1.8,0c0.4,0,0.9,0,1.5,0c0.3,0,0.6,0,0.9,0
			c0,0,0.1,0,0.1,0c0,0,0.1,0,0.1,0c0.1,0,0.2-0.1,0.2-0.1c0,0,0,0,0,0c0,0,0-0.1,0.1-0.1c0,0,0.1-0.1,0.1-0.1
			c0.2-0.3,0.2-0.8,0.3-1.2l0.2-1.4c0-0.4,0.3-1-0.1-1.4C263,22.4,262.7,22.5,262.6,22.7z"/>
		<path d="M289,26.4C289,26.4,289,26.4,289,26.4C289,26.4,289,26.4,289,26.4c0-0.1,0-0.1,0-0.2c0,0,0,0,0,0c0-0.1,0-0.1-0.1-0.1
			c-0.1-0.1-0.3-0.1-0.5-0.1c-0.6,0-1.3-0.1-1.9-0.3c-1.2-0.5-2.1-1.5-3-2.4c-1.7-1.9-3.3-3.9-4.9-5.9c1-0.9,1.9-1.9,2.5-3.2
			c0.6-1.3,0.9-2.7,0.6-4.1c-0.3-1.4-1.2-2.6-2.5-3.3c-1.3-0.7-2.7-0.9-4.1-0.9c-1.4,0-2.8,0.1-4.2,0.1L269,5.7l-1,0
			c-0.2,0-0.3,0-0.5,0c-0.2,0-0.4,0.1-0.5,0.3c-0.1,0.2-0.1,0.5,0.1,0.6c0.2,0.2,0.4,0.2,0.6,0.2c0.4,0,0.7,0,1,0.1
			c0.7,0.1,0.7,1,0.7,1.6l0,4.2l0,8.3c0,1.4,0,2.8-0.2,4.1c-0.1,0.8-0.9,0.4-1.6,0.8c-0.4,0.3-0.1,1,0.3,1c0.4,0.1,0.7,0,1.1,0
			l2.1-0.1L273,27l1,0c0.3,0,0.7,0.1,1.1-0.2c0.2-0.2,0.2-0.4,0.1-0.6c-0.1-0.2-0.3-0.3-0.5-0.3l-1.1-0.1c-0.3,0-0.7-0.1-0.8-0.4
			c-0.1-0.3-0.2-0.6-0.2-1c-0.1-0.7-0.1-1.4-0.1-2.1c0-1.3,0-2.7,0-4l1.6,0l0.9,0l0.4,0l0.2,0c0,0,0,0,0,0l0.1,0.1l2.5,3.2
			c0.9,1,1.7,2.1,2.5,3.2c0.4,0.5,0.9,1,1.5,1.4c0.6,0.4,1.2,0.6,1.9,0.7c1.4,0.1,2.7,0,4.1,0.1c0.2,0,0.3,0,0.5-0.1c0,0,0,0,0,0
			c0.1,0,0.1-0.1,0.2-0.1c0,0,0,0,0-0.1C288.9,26.6,289,26.6,289,26.4C289,26.5,289,26.5,289,26.4z M274.5,16.6
			c-0.3,0-0.7-0.1-1-0.1c-0.3-0.1-0.7-0.1-0.9-0.2c0,0,0-0.1,0-0.2l0-0.3l0-0.6l0-1.1l0-2.2l0-2.2c0-0.7,0-1.5-0.1-2.2
			c0.6-0.2,1.2-0.2,1.7-0.2c0.2,0,0.5,0,0.7,0.1c0.1,0,0.2,0,0.4,0.1c0.3,0.1,0.7,0.2,1,0.4c0.3,0.2,0.6,0.4,0.8,0.6
			c0.2,0.2,0.5,0.5,0.7,0.8c0.4,0.6,0.6,1.2,0.7,1.9c0.1,0.3,0.1,0.7,0.1,1c0,0.4,0,0.7,0,1c-0.1,0.7-0.2,1.4-0.5,2
			c-0.3,0.6-0.8,1.1-1.4,1.3C275.9,16.7,275.2,16.7,274.5,16.6z M288.6,26.9C288.6,26.9,288.6,26.9,288.6,26.9
			C288.6,26.9,288.6,26.9,288.6,26.9z M288.8,26.8C288.8,26.8,288.8,26.7,288.8,26.8C288.8,26.7,288.8,26.8,288.8,26.8z M289,26.5
			C289,26.5,289,26.5,289,26.5c0,0.1,0,0.1,0,0.1C288.9,26.6,288.9,26.5,289,26.5z"/>
	</g>
</g>
</svg>
