<?xml version="1.0" encoding="utf-8"?>
<!-- Generator: Adobe Illustrator 18.0.0, SVG Export Plug-In . SVG Version: 6.00 Build 0)  -->
<!DOCTYPE svg PUBLIC "-//W3C//DTD SVG 1.1//EN" "http://www.w3.org/Graphics/SVG/1.1/DTD/svg11.dtd">
<svg version="1.1" xmlns="http://www.w3.org/2000/svg" xmlns:xlink="http://www.w3.org/1999/xlink" x="0px" y="0px"
	 viewBox="0 0 300 52.3" style="enable-background:new 0 0 300 52.3;" xml:space="preserve">
<style type="text/css">
	.st0{fill-rule:evenodd;clip-rule:evenodd;}
	.st1{fill-rule:evenodd;clip-rule:evenodd;fill:#C038F9;}
	.st2{fill:none;}
	.st3{fill-rule:evenodd;clip-rule:evenodd;fill:#231F20;}
</style>
<g id="Layer_2">
	<g>
		<path d="M0,27.5V26C0,10.7,6.5,3,15.2,3c2.5,0,4.4,0.5,6.1,1.3v7c-2-1.2-3.8-2-5.9-2c-5,0-8.7,5.4-8.7,16.5v2
			c0,12.7,4,16.8,8.2,16.8c0.6,0,0.9-0.1,1.5-0.3V30.3h-5v-5.9h11v24.3c-2.8,1.3-5,1.9-7.8,1.9C6.6,50.6,0,43.6,0,27.5z"/>
		<path d="M27.3,31.4v-1.7c0-13.3,4.2-19.3,10.1-19.3c6,0,10.1,6.1,10.1,19.3v1.7c0,13.3-4.2,19.3-10.1,19.3
			C31.4,50.7,27.3,44.7,27.3,31.4z M41.9,31.4v-1.7c0-10.2-1.9-14.3-4.5-14.3c-2.6,0-4.5,4.1-4.5,14.3v1.7c0,10.2,1.9,14.3,4.5,14.3
			C40,45.7,41.9,41.6,41.9,31.4z"/>
		<path d="M54.6,16.1h-5.3v-5.2h16.1v5.2h-5.3v34.1h-5.5V16.1z"/>
		<path d="M68.7,10.9h5.6v16.9h7.8V10.9h5.5v39.3h-5.5V33.1h-7.8v17.1h-5.6V10.9z"/>
		<path d="M98.4,10.8h5.9l7.8,39.4h-5.6l-1.6-8.8h-7.4l-1.6,8.8h-5.4L98.4,10.8z M104.1,36.5l-2.9-15.8l-2.9,15.8H104.1z"/>
		<path d="M115.1,10.9h5.7l5.6,16.7l5.6-16.7h5.7v39.3h-5.3V23.4l-5.8,17.3h-0.2l-5.8-17.3v26.8h-5.3V10.9z"/>
		<path d="M144,48.6v-7c3,1.8,5.4,2.7,7.6,2.7c2.8,0,5-1.6,5-4.8v-0.1c0-2.7-0.9-4.6-5.2-9.8c-5.8-6.9-7.8-9.9-7.8-15.2v-0.1
			c0-6.9,4.7-11.5,10.7-11.5c3.2,0,5.2,0.6,7.2,1.7v7c-2.5-1.5-4.4-2.3-6.5-2.3c-2.7,0-4.8,1.8-4.8,4.8v0.1c0,2.6,0.9,4,5.2,9.1
			c6.2,7.4,7.8,10.5,7.8,15.8v0.1c0,6.9-4.9,11.5-11,11.5C149.2,50.7,146.5,49.8,144,48.6z"/>
		<path d="M166.5,31.2V30c0-13.6,5.1-19.3,11.2-19.3c1.9,0,2.9,0.3,4.3,1v5.7c-1.4-0.8-2.5-1.3-3.8-1.3c-3.4,0-6.1,3.7-6.1,13.9v1.3
			c0,10.6,2.6,13.9,6.1,13.9c1.2,0,2.5-0.4,3.9-1.2v5.4c-1.4,0.8-2.9,1.2-4.8,1.2C171.2,50.5,166.5,44.7,166.5,31.2z"/>
		<path d="M185.5,10.9h5.6v16.9h7.8V10.9h5.5v39.3h-5.5V33.1h-7.8v17.1h-5.6V10.9z"/>
		<path d="M208.3,31.4v-1.7c0-13.3,4.2-19.3,10.1-19.3c6,0,10.1,6.1,10.1,19.3v1.7c0,13.3-4.2,19.3-10.1,19.3
			C212.5,50.7,208.3,44.7,208.3,31.4z M222.9,31.4v-1.7c0-10.2-1.9-14.3-4.5-14.3c-2.6,0-4.5,4.1-4.5,14.3v1.7
			c0,10.2,1.9,14.3,4.5,14.3C221,45.7,222.9,41.6,222.9,31.4z"/>
		<path d="M231.7,31.4v-1.7c0-13.3,4.2-19.3,10.1-19.3c6,0,10.1,6.1,10.1,19.3v1.7c0,13.3-4.2,19.3-10.1,19.3
			C235.8,50.7,231.7,44.7,231.7,31.4z M246.3,31.4v-1.7c0-10.2-1.9-14.3-4.5-14.3c-2.6,0-4.5,4.1-4.5,14.3v1.7
			c0,10.2,1.9,14.3,4.5,14.3C244.4,45.7,246.3,41.6,246.3,31.4z"/>
		<path d="M255.8,10.9h5.6V45h8v5.2h-13.6V10.9z"/>
		<path d="M272.6,48.8V43c2.5,1.5,4.5,2.3,6.4,2.3c2.4,0,4.2-1.3,4.2-4v-0.1c0-2.2-0.7-3.9-4.3-8.2c-4.8-5.8-6.6-8.3-6.6-12.7v-0.1
			c0-5.8,3.9-9.6,9-9.6c2.6,0,4.3,0.5,6.1,1.4v5.8c-2.1-1.3-3.7-1.9-5.4-1.9c-2.2,0-4,1.5-4,4V20c0,2.2,0.7,3.4,4.3,7.6
			c5.2,6.2,6.6,8.8,6.6,13.3V41c0,5.8-4.1,9.7-9.2,9.7C276.9,50.6,274.6,49.9,272.6,48.8z"/>
	</g>
</g>
<g id="Layer_1">
</g>
</svg>
