<?xml version="1.0" encoding="utf-8"?>
<!-- Generator: Adobe Illustrator 18.0.0, SVG Export Plug-In . SVG Version: 6.00 Build 0)  -->
<!DOCTYPE svg PUBLIC "-//W3C//DTD SVG 1.1//EN" "http://www.w3.org/Graphics/SVG/1.1/DTD/svg11.dtd">
<svg version="1.1" xmlns="http://www.w3.org/2000/svg" xmlns:xlink="http://www.w3.org/1999/xlink" x="0px" y="0px"
	 viewBox="0 0 300 71.7" style="enable-background:new 0 0 300 71.7;" xml:space="preserve">
<style type="text/css">
	.st0{fill-rule:evenodd;clip-rule:evenodd;}
	.st1{fill-rule:evenodd;clip-rule:evenodd;fill:#C038F9;}
	.st2{fill:none;}
	.st3{fill-rule:evenodd;clip-rule:evenodd;fill:#231F20;}
</style>
<g id="Layer_2">
</g>
<g id="Layer_1">
	<g>
		<g>
			<path d="M107.4,11.2c0-2.5,1.3-3.9,3.8-3.9c0.6,0,1.6,0.1,2.4,0.7c1,0.8,1.1,2.1,1.1,3h-2.4c0-0.5,0-1.7-1.2-1.7
				c-0.3,0-0.7,0.1-0.9,0.3c-0.4,0.4-0.4,0.9-0.4,1.2v4.1c0,0.6,0,1.7,1.3,1.7c1,0,1.3-0.8,1.3-2h2.4c0,0.8,0,0.9-0.1,1.3
				c-0.1,0.4-0.2,1.2-1.1,1.9c-0.8,0.6-1.9,0.7-2.4,0.7c-1.3,0-2.1-0.3-2.8-1c-0.4-0.4-1-1-1-3.3V11.2z"/>
			<path d="M119.2,7.6h7.3v2h-4.9v2.3h3.4v2h-3.3v2.5h5.2v2h-7.6V7.6z"/>
			<path d="M131.1,7.6h2.3l2.8,5c0.1,0.2,0.3,0.5,0.4,0.7c0,0.1,0.2,0.5,0.2,0.6h0.1l-0.1-1.1c0-0.7,0-0.8,0-1.2v-4h2.2v10.8H137
				l-2.9-5.2c-0.2-0.4-0.3-0.5-0.8-1.8h-0.1c0,0.3,0.1,1.7,0.1,2v5.1h-2.2V7.6z"/>
			<path d="M150.7,7.6v2H148v8.8h-2.5V9.5h-2.8v-2H150.7z"/>
			<path d="M155,7.6h7.3v2h-4.9v2.3h3.4v2h-3.3v2.5h5.2v2H155V7.6z"/>
			<path d="M169,18.4h-2.3V7.6h3.5c1.8,0,4,0.2,4,3.1c0,1.4-0.5,2.4-2.1,2.9l2.4,4.8h-2.6l-2-4.4H169V18.4z M169,12.2
				c1.3,0,1.5,0,1.9-0.1c0.8-0.3,0.8-0.9,0.8-1.4c0-0.8-0.2-1.1-0.7-1.3c-0.4-0.1-0.7-0.1-2-0.1V12.2z"/>
			<path d="M184.3,7.6h7.2v2h-4.8v2.3h3.2v2h-3.2v4.5h-2.4V7.6z"/>
			<path d="M194.8,11.4c0-1.1,0.2-2.2,0.9-3c0.7-0.8,1.7-1,2.7-1c1.1,0,2.1,0.3,2.8,1c0.6,0.6,0.9,1.6,0.9,3.3v2.6
				c0,1.5-0.3,2.5-0.9,3.2c-0.9,1-2.2,1.1-2.9,1.1c-1.1,0-2.8-0.4-3.3-2.2c-0.2-0.8-0.3-1.7-0.3-2.2V11.4z M197.2,14.8
				c0,1.1,0.2,1.9,1.3,1.9c1.3,0,1.3-1.2,1.3-1.9V11c0-0.8,0-1.7-1.3-1.7c-1.3,0-1.3,1.2-1.3,1.7V14.8z"/>
			<path d="M208.9,18.4h-2.3V7.6h3.5c1.8,0,4,0.2,4,3.1c0,1.4-0.5,2.4-2.1,2.9l2.4,4.8h-2.6l-2-4.4h-0.8V18.4z M208.9,12.2
				c1.3,0,1.5,0,1.9-0.1c0.8-0.3,0.8-0.9,0.8-1.4c0-0.8-0.2-1.1-0.7-1.3c-0.4-0.1-0.7-0.1-2-0.1V12.2z"/>
			<path d="M106.8,42.4V41h1.9V27.7h-1.9v-1.4h7.4v1.4h-1.9V41h1.9v1.5H106.8z"/>
			<path d="M116.9,26.2h3.4l4.2,7.6c0.2,0.3,0.4,0.8,0.6,1.1c0.1,0.1,0.3,0.7,0.4,0.8h0.1l-0.1-1.6c-0.1-1.1-0.1-1.2-0.1-1.9v-6h3.3
				v16.2h-2.9l-4.3-7.9c-0.4-0.6-0.4-0.7-1.2-2.7h-0.1c0,0.5,0.1,2.5,0.1,2.9v7.6h-3.3V26.2z"/>
			<path d="M136.2,42.4l-4.9-16.2h3.6l2.5,8.7c0.4,1.3,0.6,2.3,0.8,2.8h0.1c0.2-1,0.5-1.9,0.8-2.9l2.4-8.6h3.5l-4.8,16.2H136.2z"/>
			<path d="M147.4,26.2h10.9v3h-7.4v3.4h5.1v3h-5v3.8h7.8v3h-11.4V26.2z"/>
			<path d="M169.6,30.6c-0.5-1-1.5-1.8-2.8-1.8c-1.9,0-1.9,1.4-1.9,1.6c0,1.1,1.1,1.6,2.1,2l2.1,0.8c1,0.4,2.1,1,2.8,1.9
				c0.2,0.3,0.9,1.3,0.9,2.8c0,0.7,0,2.9-2.3,4.3c-0.9,0.6-2.3,0.8-3.1,0.8c-2.8,0-4.5-0.7-6-3.3l2.8-1.8c0.6,1.4,1.7,2.2,3.1,2.2
				c0.8,0,2.2-0.4,2.2-1.8c0-1.2-0.7-1.5-3.1-2.4c-2.4-0.9-4.6-2-4.6-5.2c0-2.7,1.9-4.6,5.3-4.6c2.4,0,4.1,1,5.4,2.9L169.6,30.6z"/>
			<path d="M186.3,26.2v3h-4v13.2h-3.7V29.2h-4.1v-3H186.3z"/>
			<path d="M188,42.4V41h1.9V27.7H188v-1.4h7.4v1.4h-1.9V41h1.9v1.5H188z"/>
			<path d="M198.3,32.2c0-1.4,0-3.5,1.7-5c1.2-1.1,2.7-1.3,4.3-1.3c3.1,0,5.3,1.9,5.3,5H206c-0.1-1.4-0.8-2.1-2-2.1
				c-1.9,0-2,1.6-2,2.5v5.1c0,2.1,0.4,3.4,2.1,3.4c1.9,0,1.9-1.5,1.9-2.1v-1.1h-1.9V34h5.4v8.7h-1.6l-0.5-1.1h-0.2
				c-0.5,0.6-1.2,1.4-3.7,1.4c-1.6,0-3.1-0.5-4.2-1.8c-0.9-1.1-1.1-2.5-1.1-4.5V32.2z"/>
			<path d="M221.3,26.2l4.7,16.2h-3.5l-0.8-3.2h-5l-0.8,3.2h-3.5l4.6-16.2H221.3z M219.2,29.1L219.2,29.1l-1.9,7.3h3.6L219.2,29.1z"
				/>
			<path d="M238.6,26.2v3h-4v13.2h-3.7V29.2h-4.1v-3H238.6z"/>
			<path d="M240.4,42.4V41h1.9V27.7h-1.9v-1.4h7.4v1.4h-1.9V41h1.9v1.5H240.4z"/>
			<path d="M254.5,42.4l-4.9-16.2h3.6l2.5,8.7c0.4,1.3,0.6,2.3,0.8,2.8h0.1c0.2-1,0.5-1.9,0.8-2.9l2.4-8.6h3.5l-4.8,16.2H254.5z"/>
			<path d="M266.1,26.2H277v3h-7.4v3.4h5.1v3h-5v3.8h7.8v3h-11.4V26.2z"/>
			<path d="M111.6,65.8h-3.5V49.6h5.2c2.6,0,6,0.4,6,4.7c0,2.1-0.8,3.6-3.1,4.3l3.5,7.2h-3.9l-3.1-6.6h-1.2V65.8z M111.6,56.6
				c2,0,2.3,0,2.8-0.2c1.1-0.4,1.2-1.3,1.2-2.2c0-1.1-0.4-1.7-1.1-1.9c-0.6-0.2-1-0.2-3-0.2V56.6z"/>
			<path d="M123.3,49.6h10.9v3h-7.4V56h5.1v3h-5v3.8h7.8v3h-11.4V49.6z"/>
			<path d="M138.6,49.6h5.3c2.4,0,3.7,0.5,4.5,1.3c1,0.9,1.5,2.2,1.5,3.8c0,2.5-1.4,3.7-2.1,4.2c-1.2,0.7-2.5,0.8-3.7,0.8l-1.9,0.1
				v6.1h-3.6V49.6z M142.1,57.1c1.7,0,2.3,0,2.8-0.2c0.3-0.1,1.3-0.6,1.3-2.3c0-1.6-0.6-1.9-1.1-2.1c-0.6-0.2-0.8-0.2-3-0.2V57.1z"
				/>
			<path d="M152.5,55.4c0-1.7,0.3-3.2,1.4-4.5c1-1.1,2.5-1.5,4.1-1.5c1.7,0,3.2,0.4,4.3,1.6c0.9,1,1.4,2.4,1.4,5v3.9
				c0,2.3-0.4,3.7-1.4,4.8c-1.3,1.5-3.3,1.6-4.3,1.6c-1.6,0-4.2-0.6-5-3.3c-0.4-1.1-0.4-2.6-0.4-3.3V55.4z M156.2,60.4
				c0,1.7,0.3,2.9,1.9,2.9c1.9,0,1.9-1.8,1.9-2.9v-5.6c0-1.1,0-2.5-1.9-2.5c-2,0-2,1.9-2,2.5V60.4z"/>
			<path d="M171.3,65.8h-3.5V49.6h5.2c2.6,0,6,0.4,6,4.7c0,2.1-0.8,3.6-3.1,4.3l3.5,7.2h-3.9l-3.1-6.6h-1.2V65.8z M171.3,56.6
				c2,0,2.3,0,2.8-0.2c1.1-0.4,1.2-1.3,1.2-2.2c0-1.1-0.4-1.7-1.1-1.9c-0.6-0.2-1-0.2-3-0.2V56.6z"/>
			<path d="M193.5,49.6v3h-4v13.2h-3.7V52.6h-4.1v-3H193.5z"/>
			<path d="M196.2,65.8v-1.4h1.9V51.1h-1.9v-1.4h7.4v1.4h-1.9v13.3h1.9v1.5H196.2z"/>
			<path d="M207,49.6h3.4l4.2,7.6c0.2,0.3,0.4,0.8,0.6,1.1c0.1,0.1,0.3,0.7,0.4,0.8h0.1l-0.1-1.6c-0.1-1.1-0.1-1.2-0.1-1.9v-6h3.3
				v16.2h-2.9l-4.3-7.9c-0.4-0.6-0.4-0.7-1.2-2.7h-0.1c0,0.5,0.1,2.5,0.1,2.9v7.6H207V49.6z"/>
			<path d="M222.8,55.6c0-1.4,0-3.5,1.7-5c1.2-1.1,2.7-1.3,4.3-1.3c3.1,0,5.3,1.9,5.3,5h-3.5c-0.1-1.4-0.8-2.1-2-2.1
				c-1.9,0-2,1.6-2,2.5v5.1c0,2.1,0.4,3.4,2.1,3.4c1.9,0,1.9-1.5,1.9-2.1v-1.1h-1.9v-2.7h5.4V66h-1.6l-0.5-1.1h-0.2
				c-0.5,0.6-1.2,1.4-3.7,1.4c-1.6,0-3.1-0.5-4.2-1.8c-0.9-1.1-1.1-2.5-1.1-4.5V55.6z"/>
		</g>
		<g>
			<path d="M0,36.7C0,36.7,0,36.7,0,36.7C0,36.7,0,36.7,0,36.7c11.8,29.5,62.2,57.6,97.2,0v0C62.3-20.9,11.8,7.2,0,36.7z M87.2,36.7
				C59.7,82,20,59.9,10.7,36.7c0,0,0,0,0,0c0,0,0,0,0,0C20,13.5,59.7-8.6,87.2,36.7L87.2,36.7z"/>
			<path d="M60.3,44.7c-2.5,3.7-6.7,6.1-11.5,6.1c-7.7,0-13.9-6.2-13.9-13.9C35,29.3,41.2,23,48.9,23c4.6,0,8.7,2.3,11.3,5.8
				l6.6-4.6c-4-5.6-10.5-9.2-17.8-9.2c-12.1,0-21.9,9.8-21.9,21.9c0,12.1,9.8,21.9,21.9,21.9c7.5,0,14.2-3.8,18.2-9.7L60.3,44.7z"/>
			<path d="M55.7,41.7c-1.5,2.3-4.2,3.8-7.1,3.8c-4.7,0-8.6-3.8-8.6-8.5c0-4.7,3.8-8.6,8.6-8.6c2.9,0,5.4,1.4,7,3.6l-7,4.9
				L55.7,41.7z"/>
		</g>
	</g>
</g>
</svg>
