<?xml version="1.0" encoding="utf-8"?>
<!-- Generator: Adobe Illustrator 18.0.0, SVG Export Plug-In . SVG Version: 6.00 Build 0)  -->
<!DOCTYPE svg PUBLIC "-//W3C//DTD SVG 1.1//EN" "http://www.w3.org/Graphics/SVG/1.1/DTD/svg11.dtd">
<svg version="1.1" xmlns="http://www.w3.org/2000/svg" xmlns:xlink="http://www.w3.org/1999/xlink" x="0px" y="0px"
	 viewBox="0 0 300 50" style="enable-background:new 0 0 300 50;" xml:space="preserve">
<style type="text/css">
	.st0{fill-rule:evenodd;clip-rule:evenodd;}
	.st1{fill-rule:evenodd;clip-rule:evenodd;fill:#C038F9;}
	.st2{fill:none;}
	.st3{fill-rule:evenodd;clip-rule:evenodd;fill:#231F20;}
</style>
<g id="Layer_2">
</g>
<g id="Layer_1">
	<g>
		<polygon points="61.3,8.5 58,5 54.5,8.6 58,11.9 		"/>
		<path d="M72.7,18.4c0.8,1.6,2.2,3,4.5,3c2.5,0,4.3-2.3,4.4-4.7l-0.2-0.2c-0.4,0.3-1.3,0.5-2.3,0.5c-1.3,0-2.3-0.9-2.8-1.7
			c-2.3,1.7-6.1,4-9.5,5.8v12.4c0,1.4-0.3,2.2-1.2,2.5v0.2l8.2,5l5.9-6.1l-0.4-0.4l-2.5,2.5l-4.5-2.7V18.6L72.7,18.4z"/>
		<path d="M63.1,37.4c-1.2-0.2-1.9-1.3-1.9-2.4V21.5c0-1.7,0.4-2.1,1.2-2.5v-0.1l-5.1-3.4l-4.8,5l0.3,0.3l1.4-1.4l1.5,1.1v15.1
			c0,3.5,1.6,4.8,4.4,5.8l4.9-5.1l-0.3-0.3L63.1,37.4z"/>
		<path d="M51.7,37.5c-1.4-0.7-1.8-1.3-1.8-3V22.8c0-1.7,0.5-2.2,1.2-2.5v-0.1c-1.9-1.2-5.2-3.5-6.9-4.7l-4.8,5.1V8
			c0-1.7,0.6-2.8,1.5-3.9L40.8,4c-3,0.4-4.5,1.7-5.8,3.8h-0.1c-0.2-1.3-0.7-1.9-1.6-2.7l-0.3,0.1c0.4,0.7,0.7,1.2,0.7,3.2v26.4
			c0,1.8-0.5,2.4-1.2,2.7v0.1l4.6,3.8l4-3.5l-1.8-1.1V21.2l1.7-1.8l3.1,2.1v14.2c0,3.2,1.7,4.8,4.3,5.6l4.9-5L53.1,36L51.7,37.5z"/>
		<path d="M123.3,21.5v12.3c0,1.9-0.4,2.3-1.2,2.7v0.1c2.9,1.8,4.4,2.9,7.2,4.7c2.6-2.1,7.8-5,10.1-6V22.9c0-1.9,0.4-2.3,1.2-2.7
			v-0.1c-2-1.3-5.5-3.6-7.2-4.7C130.7,17.4,126.9,19.8,123.3,21.5z M133.8,37.8l-0.7,0.3c-1.4-1-3.6-2.5-4.2-3V19l0.5-0.3
			c0.9,0.7,3,2.3,4.3,3.1V37.8z"/>
		<path d="M118.2,23.2c0-2.1,0.3-2.5,1.2-3v-0.1l-7.2-4.7c-2.3,1.8-6.1,3.9-10.1,6.1v11.6c0,2.4-0.2,2.9-1.2,3.3v0.2
			c0,0,2.8,1.7,7.6,4.9l4.1-4.2c0.5,3.7,4.2,3.4,4.2,5.4c0,0.7-1.2,1.6-1.6,1.8c-1.4-1-3.7-1.8-5.6-1.8c-4.4,0-7.6,2.4-9.1,5.4
			l0.1,0c2-0.8,3.5-1.1,6.3-1.1c2.2,0,3.1,0.2,4.6,1.1c0,0,1.5-1.2,4.5-3.6c2.3-1.9,4.4-3.4,4.4-4.9c0-2.4-2.2-2.6-2.2-5.3V23.2z
			 M112.6,36.5l-1,1l-3.9-2.7V19l0.6-0.3c0,0,2.1,1.7,4.3,3V36.5z"/>
		<path d="M98.1,37.5c-1.3-0.4-1.8-1.7-1.8-3V23.2c0-1.7,0.4-2.2,1.3-2.6v-0.1L90,15.4l-8.5,5.2c0.6,2.9,2.8,5.3,5.4,6.6v0
			c-3.1,1.1-6.4,3.2-6.4,7.4c0,3.1,1.9,5.5,4.6,6.7l5.5-5c0.2,3.1,2.1,4.3,4.3,5l4.9-5L99.5,36L98.1,37.5z M90.7,35.6l-2.1,1.9
			c-2.2-0.9-3.1-2.4-3.1-4.9c0-3,1.9-5.3,5.2-5.7V35.6z M90.7,26.4c-0.8,0.1-2.3,0.4-3,0.6c-1.8-1.8-2.2-5.4-2.4-8.1l0.6-0.4
			l4.8,3.3V26.4z"/>
		<path d="M25.6,11.7c4.2,0,6.6-3.1,6.7-6.5L32,5c-0.7,0.5-1.8,1.1-3.5,1.1c-1.5,0-2.7-0.5-3.7-1.6c-3.1,2.5-8.8,5.5-12.3,7.3v0.2
			c0.9,0.2,1.2,0.9,1.2,2.7V35l-1.2,0.8c-3.5-2.7-5.9-7.4-5.9-14c0-7.4,2.9-11.7,8.2-15.2l-0.5-0.2C8.7,8.6,0,14.4,0,25
			c0,11.5,7.3,18.2,17.2,18.2c7.3,0,12-4.8,14.5-7.7L31.5,35c-2.3,1.6-4.7,2.7-7.4,3.1V11.5C24.5,11.6,25,11.7,25.6,11.7z M20,31.5
			V8.5l0.2-0.1c0.9,1.3,1.9,2.4,3.3,2.9v26.8c-0.3,0-0.7,0-1,0c-3.6,0-7.1-0.3-9.5-2L20,31.5z"/>
		<path d="M270.2,37.6c-1.2-0.6-1.8-1.3-1.8-2.9V22.5c0-1.6,0.3-2.2,1.1-2.5v-0.1c-1.9-1.2-4.5-3-6.2-4.3l-5.3,5.6
			c0-2.9-1.7-4.8-4.6-5.6l-4.9,5l0.4,0.4l1.5-1.5c1.3,0.2,2,1.2,2,2.6v12.8c0,1.8-0.2,2.2-1.2,2.7v0.1l4.5,3.8l4.1-3.5l-1.8-1.2
			V21.9l2.3-2.3l2.6,1.8v14.4c0,2.8,1.2,4.6,4.3,5.6l4.9-5l-0.3-0.3L270.2,37.6z"/>
		<path d="M247.9,37.6c-1.6-0.7-1.9-1.4-1.9-3.4V21.7c0-1.6,0.3-2,1.2-2.4v-0.1l-4.5-3.7l-3.9,3.5l1.6,1.1v15.5l-2.2,2l-2.7-1.8
			V21.1c0-2.9-2-4.7-4.3-5.6l-4.7,4.9l0.4,0.3l1.3-1.4c1.1,0.4,1.7,1.1,1.7,2.5v12.6c0,1.9-0.2,2.3-1.2,2.8v0.1
			c1.9,1.1,3.9,2.5,6.1,4l5.6-5c0,2.4,2,4.6,4.4,5l4.7-4.9l-0.4-0.3L247.9,37.6z"/>
		<polygon points="202.8,8.6 199.5,5.1 196.1,8.7 199.5,12 		"/>
		<path d="M204.7,37.5c-1.2-0.2-1.9-1.3-1.9-2.4V21c0-1.2,0.4-1.5,1.2-2V19l-5.1-3.4l-4.8,5l0.3,0.4l1.4-1.4l1.5,1.1v15.1
			c0,3.5,1.6,4.8,4.4,5.8l4.9-5.1l-0.3-0.4L204.7,37.5z"/>
		<path d="M190.2,21.7c2.5,0,4-2.6,4.3-4.5l-0.2-0.2c-0.5,0.2-1,0.3-1.7,0.3c-1,0-1.9-0.7-2.7-1.7l-3.8,4c-0.4-2-2-3.4-4.4-4l-4.9,5
			l0.4,0.4l1.5-1.5c1.6,0.3,2,1.2,2,3.2v11.8c0,1.3-0.3,1.9-1.2,2.2v0.1l7.7,4.9l5-5.1l-0.4-0.4l-1.4,1.5l-4.2-2.4V21
			c0-0.2,0-0.7,0-0.9l0.4-0.4C187.3,20.7,188.5,21.7,190.2,21.7z"/>
		<path d="M171.4,38.2V12.9c0.3,0,1.2,0.1,1.7,0.1c4.5,0,6.3-3.8,6.8-8.1l-0.3-0.3c-0.9,1.8-2.6,2.8-4.4,2.8c-6,0-12.4-3.6-19.2-3.6
			c-4.9,0-8.6,3-8.6,7.5c0,3.1,1.7,4.6,3,5.2l0.6-0.3c-0.7-0.3-1.9-1-1.9-2.4c0-2.4,2.4-3.7,5.6-3.7c4.5,0,10.4,2.4,16,2.8v25.4
			c-1.2,0.2-1.7,0.2-2.7,0.2c-3,0-6.2-0.8-8.2-2.3l7.5-3.8V13.2l-7.4,3.9v0.2c0.6,0.1,1.2,0.7,1.2,2.3V35l-1.7,0.8
			c-3-2.4-4.9-5.6-4.9-10.6c0-6,2.2-9.8,5.2-12.6l-0.4-0.2c-4.4,1.6-11.1,7.4-11.1,15.6c0,9.5,6.9,15.3,15.8,15.3
			c7,0,12.7-4.5,14.8-7.5l-0.2-0.5C177.2,36.5,174.1,37.9,171.4,38.2z"/>
		<path d="M284.2,37.5l-4.7-2.6v-5.4c2.9-2.1,6.7-4.6,9.9-6.6l-5.9-7.4c-2.6,2-6.3,4.5-9.7,6.1v12c0,1.9-0.5,2.5-1.3,2.7v0.1
			l8.5,5.2l6.1-6.3l-0.3-0.3L284.2,37.5z M279.4,19.1l0.3-0.2c1.1,1.7,3.7,5.5,4.5,6.7l-4.8,3.2V19.1z"/>
		<path d="M214.1,20.6V8.3c0-2,0.6-2.9,1.4-3.9l0-0.2c-3,0.4-4.5,1.7-5.8,3.8h-0.1c-0.2-1.1-0.8-1.9-1.6-2.6l-0.2,0.1
			c0.4,0.7,0.7,1.6,0.7,3.3v24.8c0,2.1-0.2,2.7-1.3,3.1v0.1c2.4,1.4,5.4,3.4,7.2,4.7c2.6-2.1,7.8-4.9,10.1-5.9V22.7
			c0-1.2,0.2-2,1.2-2.3v-0.1c-1.8-1.1-5.2-3.5-6.9-4.7L214.1,20.6z M219,37.9l-0.6,0.3l-4.3-3.1V21.3l1.7-1.8l3.1,2.1V37.9z"/>
	</g>
</g>
</svg>
