<?xml version="1.0" encoding="utf-8"?>
<!-- Generator: Adobe Illustrator 18.0.0, SVG Export Plug-In . SVG Version: 6.00 Build 0)  -->
<!DOCTYPE svg PUBLIC "-//W3C//DTD SVG 1.1//EN" "http://www.w3.org/Graphics/SVG/1.1/DTD/svg11.dtd">
<svg version="1.1" xmlns="http://www.w3.org/2000/svg" xmlns:xlink="http://www.w3.org/1999/xlink" x="0px" y="0px"
	 viewBox="0 0 300 39.3" style="enable-background:new 0 0 300 39.3;" xml:space="preserve">
<style type="text/css">
	.st0{fill-rule:evenodd;clip-rule:evenodd;}
	.st1{fill-rule:evenodd;clip-rule:evenodd;fill:#C038F9;}
	.st2{fill:none;}
	.st3{fill-rule:evenodd;clip-rule:evenodd;fill:#231F20;}
</style>
<g id="Layer_2">
	<g id="tw9HHo_1_">
		<g>
			<path d="M26.6,5.5c-0.4-0.7-1.3-0.1-1.2-1.2c1.5-0.4,3.1-0.1,4.6-0.2c0.6,0.6,0.4,1.2,0.4,1.8c0,7.1,0,14.2,0,21.3
				c0,0.7-0.2,1.5,0.3,2.3c0.8-0.5,0.6-1.1,0.6-1.7c0-6.5,0-13,0-19.5c0-0.8,0-1.5,0-2.3C32.6,5.8,33.7,6,35,5.9c0,8,0,15.7,0,23.5
				c1-1.5,0.8-3.1,0.9-4.7c0-1.6,0-3.2,0-4.9c0-1.7,0-3.4,0-5.1c0-1.6,0-3.2,0-4.9c0-1.7,0.2-3.4-0.4-5.2c1.9-1,3.7-0.3,5.5-0.5
				c0,1.2-0.9,0.8-1.3,1.4c0,0.7,0,1.6,0,2.5c0,6.4,0,12.8,0,19.2c0,1-0.1,2-0.4,3c-0.7,2.4-3.2,3.7-5.2,2.8
				c-0.3-0.1-0.6-0.2-0.9-0.3c-0.4,0.1-0.7,0.3-1.1,0.3c-2.8,0.7-5.3-1.1-5.4-4c-0.1-3.2,0-6.5,0-9.7c0-4.5,0-9,0-13.5
				C26.7,5.8,26.7,5.6,26.6,5.5z"/>
			<path d="M276.4,31.9c0,0.2-0.1,0.5-0.1,0.8c-1.6,0.4-3.1,0.1-4.7,0.1c-0.7-0.6-0.4-1.3-0.4-2c0-7,0-13.9,0-20.9
				c0-0.7,0.4-1.6-0.8-2.1c0,8.3,0,16.6,0,24.9c-1.8,0-3.4,0-5,0c-0.3-1.1,0.9-0.6,1.2-1.4c0-8.8,0-17.9,0-26.9
				c4.5-0.9,6.5-0.3,8.1,2.6c0.3,0.3,0.5-0.3,1,0.1c0.7,0.8,1.2,1.9,1.2,3.3c0,6.7,0,13.4,0,20.2C276.9,31.1,277.1,31.7,276.4,31.9
				c-0.1-0.5-0.9-0.3-1.1-0.8c0-7.7,0-15.4,0-23.1c-0.5,2.3-0.4,22.3-0.1,24C275.7,31.9,276.1,31.9,276.4,31.9z"/>
			<path d="M238.3,32.4c-0.1,0.3-0.4,0.5-0.7,0.5c-1.5,0-3.1,0-4.8,0c0-8.4,0-16.6,0-24.8c-0.8,1.5-0.5,3.1-0.6,4.6
				c0,1.7,0,3.4,0,5.1c0,1.6,0,3.2,0,4.9c0,1.7,0,3.4,0,5.1c0,1.6,0,3.2,0,5c-1.9,0.2-3.6,0.3-5.3,0c0.1-1,1-0.6,1.4-1
				c-0.3-2.4-0.2-25.7,0.1-27.4c2-0.4,4-0.4,5.9,0.3c1.6,1.1,2.2,2.5,2.1,4.4c-0.1,7.5,0,15,0,22.4C237,32.2,237.9,31.9,238.3,32.4
				L238.3,32.4z"/>
			<path d="M240.4,32.8c0.1-0.8,0.8-0.8,1.3-1.1c0-3.4,0-6.8,0-10.2c0-1.8-0.1-3.7,0.2-5.5c0.2-1.3-0.2-2.6-0.2-3.9
				c0-2.2,0-4.5,0-6.7c-0.5-0.2-0.9-0.4-1.4-0.6c0.2-0.2,0.3-0.5,0.5-0.5c2-0.3,4-0.4,6,0c1.9,0.4,3.4,1.7,3.3,4.1
				c-0.1,6.7,0,13.4,0,20.2c0,3-1.4,4.4-4.4,4.4C243.9,32.9,242.1,33.1,240.4,32.8z M246.3,8c-0.2,0-0.4,0-0.6,0c0,7,0,14,0,21
				c0.1,0,0.4,0,0.4,0C246.5,22,246.2,15,246.3,8z"/>
			<path d="M11.4,32.4c-0.1,0.2-0.2,0.4-0.3,0.8c-1.6-0.5-3.3,0.2-5.1-0.4c0-8.2,0-16.4,0-24.7C5.7,8,5.5,8,5.4,8
				c-0.1,8.2,0,16.4-0.1,24.7c-1,0.3-1.9,0.2-2.8,0.2c-0.8,0-1.8,0.9-2.5-0.2c0.3-0.6,1-0.2,1.5-1c0-8.9,0-18,0-27.4
				c3-0.3,5.9-0.7,7.9,2.3c0.3,1.2,0.7,2.5,0.2,3.9c0.7,2.4-0.2,4.8,0.2,7.3c0.4,2.2,0.1,4.5,0.1,6.7c0,2.5,0,4.9,0,7.4
				C10.5,32.1,11,32.3,11.4,32.4L11.4,32.4z"/>
			<path d="M55.2,20c-0.4,2.1-0.1,4.2-0.2,6.3c-0.1,2.1,0,4.3,0,6.5c-1.8,0-3.4,0-5,0c0-0.8,0.8-0.3,1.1-0.9c0-8.7,0-17.7,0-26.5
				c-0.3-0.5-1.2-0.2-1.3-1.1c1.7-0.5,3.3-0.2,5.2-0.3c0,2.2-0.1,4.2,0,6.2c0.1,1.9-0.3,3.9,0.4,5.8c0.7-1.9,0.3-3.9,0.4-5.8
				c0.1-2,0-4,0-6.2c1.8,0.1,3.5-0.2,5.1,0.2c0,1-0.9,0.5-1.2,1.1c0,8.7,0,17.6,0,26.5c0.1,0.6,1.1,0,1.2,0.9c-1.6,0-3.2,0-5,0
				c0-4.3-0.1-8.6-0.1-12.9C55.7,20,55.4,20,55.2,20z"/>
			<path d="M187.3,7.3c0,6.8,0,13.6,0,20.4c0,1-0.1,2-0.5,2.9c-0.5,1.2-1.5,2.1-2.8,2.2c-2.1,0.2-4.2,0.2-6.3,0
				c-0.1-1.1,0.8-0.7,1.2-1.2c0-8.6,0-17.3,0-25.7c-0.2-0.8-1-0.6-1.2-1.1c0-0.3,0.1-0.5,0.4-0.5c1.8,0,3.5-0.1,5.3,0
				C185.4,4.2,186.5,5.6,187.3,7.3L187.3,7.3z M183.2,29.1c0.4-0.4,0.3-0.7,0.3-1.1c0-1.6,0-3.2,0-4.9c0-4.5,0-8.9,0-13.4
				c0-0.6,0.2-1.4-0.9-1.8c0,7,0,13.8,0,20.6C182.7,28.8,182.8,29,183.2,29.1z"/>
			<path d="M68.5,32.8c-1.8,0.4-3.4-0.1-5,0.4c-0.2-1.2,1-0.6,1.2-1.5c0-5.9,0-12,0-18.2c0-1.4,0.1-2.8,0-4.2
				c-0.2-2.3,0.7-4,2.8-5.2c0.8-0.1,1.7-0.2,2.5,0c1.8,0.5,3.1,2.3,3.1,4.4c0,7,0,14.1,0,21.1c0,0.8,0,1.5,0,1.9
				c0.2,1,1.1,0.5,1.3,1.3c-1.6,0.3-3.2,0.1-4.8,0.1c-0.5-0.8-0.3-1.6-0.3-2.3c0-2.3,0-4.6,0-6.9c0-0.6,0.2-1.3-0.7-1.7
				c-0.3,1.9-0.1,3.6-0.1,5.4C68.5,29,68.5,30.8,68.5,32.8z M69.3,17.9c0-1.7,0.1-3.3,0-5c-0.1-1.7,0.3-3.4-0.4-5.3
				C68.3,9.6,68.4,16.3,69.3,17.9z"/>
			<path d="M108.4,33.3c-0.6-0.8-0.5-1.7-0.5-2.7c0-7,0-13.9,0-20.9c0-0.6,0.1-1.2-0.2-1.8c-0.9,0.3-0.7,1-0.7,1.5
				c0,2.6-0.1,5.3,0,7.9c0.1,4.7-0.2,9.4,0.2,14.1c0,0.5-0.1,0.9-0.5,1.3c-1.5,0-3,0-4.5,0c-0.1-0.9,0.8-0.4,1.2-0.8
				c0-9.2,0-18.3,0-27.6c2-0.4,3.8-0.6,5.6,0.1c1.8,0.7,2.8,2,2.8,4.1c0,5,0,10,0,15.1c0,2.7,0,5.4,0,7.8c0.4,0.7,0.9,0.7,1.3,0.9
				c-0.2,0.2-0.2,0.4-0.3,0.4C111.3,33.1,109.8,32.6,108.4,33.3L108.4,33.3z"/>
			<path d="M175.2,31.9c0,0.2,0,0.5-0.1,0.8c-1.6,0.4-3.2,0.1-4.7,0.2c-0.6-0.6-0.3-1.2-0.3-1.8c0-7,0-13.9,0-20.9
				c0-0.7,0.3-1.6-0.8-2.3c-0.2,2.9-0.1,5.6-0.1,8.3c0,2.7,0,5.4,0,8.1c0,2.8,0,5.5,0,8.5c-1.8,0.2-3.4,0.3-5,0
				c-0.1-1,0.8-0.6,1.3-1.1c0-9,0-18.1,0-27.3c1.8-0.2,3.4-0.2,5.1,0.1c2,0.4,2.6,1.9,3.3,3.4l0,0c0,8-0.1,16.1,0,24.2
				C174.5,31.9,174.9,31.9,175.2,31.9L175.2,31.9z"/>
			<path d="M82.5,33.4c-2.5-1.5-3.1-3.9-3.7-6.2c-0.4-1.9-0.7-3.9-0.6-6c0.1-5.3,0-10.5,0-15.3c-0.1-1.2-1.4-0.5-1.2-1.7
				c1.5-0.4,3.1-0.1,4.6-0.1C82.2,4.7,82,5.4,82,6c0,5.8,0,11.6,0,17.4c0,0.8-0.2,1.7,0.3,2.6c0.7-0.8,0.5-1.5,0.5-2.2
				c0-5.6,0-11.3,0-16.9c0-0.8-0.2-1.7,0.2-2.5C85.4,4,86.4,4,87.9,4.5C88,5.4,87,4.8,86.6,5.6c-0.1,0.2,0,0.9,0,1.5
				c0,4.7,0,9.4,0,14.2c0,2.4-0.4,4.8-1,7.1C85.1,30.3,84.3,32.1,82.5,33.4z"/>
			<path d="M140.4,8.3c0.9-0.1,1.3-1,2.2-1.3c0.2,1-0.6,1.7-0.7,2.8c0.4,0.9,1.8,1.5,1.1,3.2c-0.2,0.5-1.1,0.6-1.6,1.1
				c-0.2,1.1,0.1,2.2,0.3,3.1c-0.6,1.1-1.7,1.5-2.4,2.1c-0.4,0.5-0.3,1-0.3,1.4c-0.1,4.1,0.3,8.2-0.4,12.2c-0.2,1.1,0.2,2.1,0.6,3.1
				c-1.5,0.3-2,0.2-2.4-1.1c-0.4-1.2-0.8-2.3-1-3.5c-0.2-1.2-0.7-2.4-0.6-3.4c-0.4-0.4-0.7-0.3-1.1-0.3c-0.5,2.3-0.8,4.7-1,7.4
				c-0.5,0.7-1.5,1.2-2.7,1.1c-0.2-1,0.9-0.8,1.1-1.7c-0.5-2.1-0.4-4.6-1.3-6.9c-0.3-0.6-1.1-0.2-1.4-0.9c0-0.8,0-1.7,0-2.6
				c0-0.6-0.7-0.6-0.9-1.2c0-0.5,0-1.1,0-1.7c-0.1-0.5-0.6-0.4-0.8-0.8c0.3-0.5,0.6-1,1.5-1.1c-0.2,1.1-0.6,2.2-0.2,3.5
				c2.2-0.9,4.5-1.8,7-1.8c0.4-1.2,0.1-2.5,0.2-3.7c0.1-1.2-0.6-2.2-0.3-3.3c-1.1-0.9-2.2-0.9-3.4-0.4c-2.4,0.9-4.4,2.4-6.4,3.9
				c0,0-0.2-0.2-0.4-0.3c0.5-1.2,2-1.5,2.4-2.8c1.3-0.1,1.3-0.1,2.3-1.4c1.8-0.1,3.5-0.8,5.4,0c0.8-0.9,1.5-1.7,2.3-2.6
				c0.2-0.7,0.7-0.9,1.3-1.2C139.4,9.2,140.2,9.1,140.4,8.3z"/>
			<path d="M203.5,5.5c-0.4-0.6-1.2-0.2-1.3-0.8c0.2-0.7,0.6-0.6,1-0.6c1.4,0,2.8,0,4.2,0c2.9,0.1,4.5,1.7,4.6,4.6c0,3.7,0,7.4,0,11
				c-1.4,2.2-1.8,2.6-4.5,3.1c0,2.9,0,5.8,0,8.7c0,0.8,1.2,0.2,1.2,1.1c-1.5,0.4-3.8,0.5-6.3,0.1c-0.2-1,1-0.5,1.2-1.2
				C203.5,22.9,203.5,14.1,203.5,5.5z M207.7,8c-0.1,0.1-0.3,0.1-0.3,0.2c0,3.5,0,6.9,0,10.4c0,0.1,0.2,0.1,0.3,0.2
				c0.1-0.1,0.3-0.1,0.3-0.2c0.1-3.5,0.2-6.9,0-10.4C208.1,8.1,207.8,8,207.7,8z"/>
			<path d="M254.6,5.5c-0.4-0.6-1.1-0.2-1.2-0.9c0.1-0.1,0.3-0.4,0.5-0.4c2.6,0,5.2,0,8,0c0.5,1.7,0.2,3.4,0.2,5.2
				c-1,0-0.7-0.9-1.1-1.3c-0.6,0.1-1.2-0.4-1.9-0.1c-0.1,0.1-0.2,0.1-0.2,0.2c-0.3,2.5-0.1,5.1-0.2,7.5c0.7,0.6,1.4,0.4,2,0.3
				c0.5-0.3,0.5-1,1.2-1.2c0.3,2.1,0.1,4.1,0.1,6.2c-1,0.1-0.7-0.9-1.3-1.1c-0.5-0.1-1.1-0.2-2,0.1c0,2.9,0,5.9,0,8.8
				c0.7,0.4,1.4,0.3,2,0.2c0.6-0.2,0.1-1.2,0.9-1.2c0.1,0.1,0.4,0.2,0.4,0.2c0,1.5,0,3.1,0,4.7c-2.9,0-5.7,0-8.6,0
				c-0.1-0.9,0.9-0.7,1.2-1.3C254.6,22.9,254.6,14.2,254.6,5.5z"/>
			<path d="M22.2,21.2c-0.9-0.2-0.5-0.9-0.9-1.2c-0.6-0.2-1.4-0.2-2.3,0c-0.2,1.5,0,3-0.1,4.5c0,1.5,0,2.9,0,4.3
				c0.8,0.6,1.6,0.2,2.1,0.3c0.8-0.3,0.4-1.1,1-1.3c0.3,0,0.5,0.1,0.5,0.4c0,1.5,0,2.9,0,4.3c-1.9,0.6-7.5,0.6-9.2,0
				c0.6-0.2,1-0.4,1.5-0.6c0.4-1.5,0.6-22.1,0.2-26.4c-0.3-0.7-1.1-0.3-1.5-0.9c0.2-0.2,0.4-0.5,0.6-0.5c2.7,0,5.4,0,8,0
				c0.7,1.9,0.7,3.9-0.1,5.3c-0.6-0.3-0.2-1-0.9-1.4c0,0-0.2-0.1-0.5-0.1c-0.5,0-0.9,0-1.5,0c-0.4,1.4-0.2,2.8-0.2,4.1
				c0,1.3,0,2.6,0,3.9c0.9,0.3,1.7,0.2,2.4,0.1c0.5-0.3,0.2-1.1,0.7-1.3C22.6,14.9,22.7,18.9,22.2,21.2z"/>
			<path d="M220.4,29.1c0.8,0,1.5,0,2.2,0c0.6-0.2,0.1-1.3,1.1-1.3c0.4,1.6,0.1,3.3,0.2,5c-3,0-5.8,0-8.6,0
				c-0.3-1.2,0.9-0.5,1.1-1.4c0-8.5,0-17.3,0-25.9c-0.3-0.6-1.2-0.1-1.2-1c0.1-0.1,0.2-0.3,0.3-0.3c2.7,0,5.4,0,8.2,0
				c0.4,1.8,0.3,3.6,0.1,5.3c-1.1,0-0.5-1-0.6-1.1c-1.2-0.7-1.9-0.7-2.9-0.2c-0.1,2.4,0,4.9-0.1,7.3c0.9,0.8,1.7,0.5,2.4,0.5
				c0.6-0.3,0.2-1.1,0.7-1.2c0.8,0.1,0.9,4.3,0.3,6.4c-0.9,0.1-0.4-0.9-1-1.2c-0.6-0.2-1.4-0.1-2.2,0
				C220.4,22.9,220.4,25.9,220.4,29.1z"/>
			<path d="M191.8,5.7c-0.3-0.7-1.1-0.6-1.3-1.2c1.6-0.6,6.8-0.6,8.7,0c0.1,1.6,0.4,3.2-0.3,5c-0.7-0.3-0.4-1-1.1-1.6
				c-0.4-0.3-1.2-0.2-2.1,0c-0.3,2.6,0,5.2-0.2,7.7c0.8,0.6,1.6,0.2,2.1,0.3c0.7-0.4,0.5-1.1,0.9-1.5c0.4,0.1,0.6,0.3,0.6,0.6
				c0,2,0,4,0,5.9c-1.3,0.3-0.7-0.9-1.3-1.2c-0.6-0.1-1.4-0.1-2.2,0c0,3.1,0,6.1,0,9.1c0.8,0.2,1.6,0.1,2.2,0.1
				c0.6-0.2,0.1-1.2,0.8-1.3c0.1,0.1,0.4,0.2,0.4,0.2c0,1.5,0,3,0,4.7c-2.9,0-5.7,0-8.5,0c-0.4-1.2,0.9-0.6,1.1-1.4
				C191.8,23,191.8,14.4,191.8,5.7z"/>
			<path d="M91.6,5.5c-0.3-0.7-1.3-0.1-1.2-1.1c0.1-0.1,0.2-0.3,0.3-0.3c2.7,0,5.4,0,8.2,0c0.3,1.8,0.3,3.6,0,5.4
				c-1.1-0.1-0.5-1.1-1.1-1.4c-0.7-0.3-1.5-0.4-2.3,0.2c0,2.5,0,5,0,7.6c0.7,0.4,1.5,0.2,2.1,0.2c0.8-0.1,0.1-1.4,1.1-1.3
				c0.5,1.7,0.5,4.8,0,6.4c-0.9,0-0.3-0.9-1-1.3c-0.1,0-0.5,0-0.9,0c-0.4,0-0.8,0-1.4,0c-0.1,3.1,0,6.1,0,9c0.8,0.6,1.6,0.2,2.1,0.3
				c0.9-0.1,0.3-1.3,1.3-1.3c0.4,1.6,0.1,3.2,0.1,5c-3,0-5.8,0-8.7,0c-0.1-0.1-0.2-0.3-0.2-0.1c0.5-1,1.1-0.2,1.5-0.8
				C91.6,23.2,91.6,14.3,91.6,5.5z"/>
			<path d="M286.6,31.9c0,0.2,0,0.5-0.1,0.9c-2.2,0.1-4.4,0.1-6.6,0c0-1.1,1.1-0.7,1.5-1.3c0-7.7,0-15.5,0-23.2
				c-0.6-0.7-1.2-0.5-1.8-0.5c-0.6,0.4,0,1.3-0.7,1.6c-0.3,0.1-0.5-0.1-0.5-0.3c0-1.6,0-3.2,0-4.9c3.3,0,6.4,0,9.6,0
				c0.1,1.8,0.2,3.5,0,5.3c-0.9-0.2-0.7-1-1-1.4c-0.5-0.3-1-0.3-1.4-0.1c-0.4,0.4-0.6,19.8-0.2,23.7
				C285.7,32.1,286.2,31.9,286.6,31.9L286.6,31.9z"/>
			<path d="M161.7,31.9c0,0.2,0,0.5-0.1,0.8c-2.2,0-4.4,0-6.6,0c0-1,1.2-0.5,1.4-1.2l-0.2-26.2c-0.6-0.2-1-0.4-1.4-0.6
				c0.2-0.2,0.3-0.5,0.5-0.5c2.1-0.3,4.1-0.1,6.1-0.1c0.3,1.2-0.9,0.7-1.1,1.3c0,8.7,0,17.5,0,26.2
				C160.9,32.1,161.4,31.9,161.7,31.9L161.7,31.9z"/>
			<path d="M40.9,33.2c-1.7,2.1-3.6,2.5-6,1.5c-1.8,0.8-3.6,0.9-5.4-0.7c2.7-0.5,5.2-0.1,7.6-0.2c1.4-0.5,2.3-1.5,3-3
				c0-8,0-16.3,0-24.8c1-0.2,1.9-0.4,2.7,0.1c0.2,1.1-1,0.7-1.1,1.3c-0.3,0.8-0.2,1.6-0.2,2.5c0,6.5,0,13,0,19.5
				C41.6,30.7,41.5,32,40.9,33.2z"/>
			<path d="M187.3,7.3c0-0.2,0.2-0.4,0.6-0.4c1,0.9,1.2,2.3,1.2,3.7c0,3.7,0,7.4,0,11.1c0,2.5-0.1,5.1,0,7.6
				c0.1,2.3-0.6,4.1-2.7,5.3c-2.9,0.5-6.2,0.3-7.5-0.3c1.2-1.2,1.6-1.2,4.3-0.7c1.3-0.2,2.5-0.7,3.4-1.8c0.6-0.7,1-1.5,1-2.5
				c0-7,0-14.1,0-21.1C187.7,7.9,187.7,7.5,187.3,7.3L187.3,7.3z"/>
			<path d="M250.6,7c1.4,0.8,1.7,2.1,1.7,3.4c0,6.6,0,13.1,0,19.7c0,1-0.3,1.8-0.6,2.6c-1.1,1.6-2.5,2.3-4.4,2.2
				c-1.6-0.1-3.2,0-4.7,0c-0.5-0.3-0.5-0.7-0.4-1.1c0.1-0.2,0.2-0.2,0.3-0.2c1.1-0.1,2.1-0.3,3.2,0.1c1,0.4,1.9-0.3,3.1-0.5
				c0.5-0.5,1-1,1.3-1.4c0.7-1.7,0.8-3.3,0.8-4.8c0-5.4,0-10.8,0-16.2C250.8,9.5,250.9,8.3,250.6,7z"/>
			<path d="M87.1,6c2-0.2,2-0.2,3.2,0.6c-0.6,0.2-1.1,0.4-1.6,0.6c-0.4,0.7-0.2,1.5-0.2,2.2c0,5.3,0,10.6-0.1,16
				c0,2.7-0.8,5.3-2.2,7.7c-0.5,0.8-1.2,1.4-1.7,2c-0.9,0.1-1.3-0.2-1.6-0.9c3-2.8,4.1-6.3,4.1-10.3c0-5.1,0-10.2,0-15.3
				C87.1,7.8,87.1,7,87.1,6z"/>
			<path d="M212.6,7c1,0.8,1.3,1.8,1.3,3c0,3.4,0,6.8,0,10.2c0,2.7-0.9,3.8-3.7,4.4c-0.1,0-0.3,0.1-0.4,0.2
				c-0.7,2.1-0.4,4.4-0.5,6.4c-0.4,0.4-0.6,0.3-1.1,0.2c-0.1-2.5,0.1-5.2-0.4-7.4c0.6-0.9,1.1-0.8,1.6-0.9c2-0.5,3-1.7,3-3.8
				c0-3.7,0-7.4,0-11.1C212.4,7.8,212.2,7.4,212.6,7z"/>
			<path d="M61.6,31.4c-0.6,0.1-0.9,0.1-1.3-0.3c0-8.2,0-16.6,0-25.1c1-0.3,2-0.4,3,0.1c-0.5,1-0.5,1-1.7,1.5
				C61.6,15.5,61.6,23.4,61.6,31.4z"/>
			<path d="M161.8,31.9c-0.1-0.5-0.6-0.4-0.9-0.7c0-8.4,0-16.9,0-25.4c0.9-0.3,1.8,0.1,2.6-0.1c0.2,0.3,0.2,0.6,0.1,0.9
				c-0.3,0.5-0.9,0.2-1.3,0.8c0,4.2,0,8.6,0,13c0,3.3,0,6.6,0,10C162.2,30.9,162.6,31.6,161.8,31.9L161.8,31.9z"/>
			<path d="M11.4,32.4c0-0.6-0.3-1-1-1c0-3.9,0-7.7,0-11.5c0-2.8,0-5.6,0-8.4c0-1.5,0.2-3-0.5-4.8c1.4,0.9,1.9,2,1.9,3.3
				c0,7,0,14.1,0,21.1C11.9,31.6,11.9,32.1,11.4,32.4L11.4,32.4z"/>
			<path d="M238.4,32.4c0.3-0.9-0.8-0.8-1-1.5c0-5.9,0-12,0-18c0-2,0.1-4-0.5-6.3c1.7,1.3,1.9,2.7,1.9,4.3c0,5,0,9.9,0,14.9
				c0,1.8,0,3.6,0,5.3C238.8,31.6,238.9,32.1,238.4,32.4L238.4,32.4z"/>
			<path d="M113.9,31.7c-0.6,0-1-0.1-1.4-0.6c0-0.8,0-1.7,0-2.6c0-5.9,0-11.7,0-17.6c0-1.3-0.2-2.5-0.4-4c1.4,0.8,1.8,2.1,1.8,3.3
				C114,17.3,113.9,24.5,113.9,31.7z"/>
			<path d="M75,31.6c-0.6-0.1-0.8-0.1-1.3-0.2c-0.2-8.1,0-16.2-0.1-24.6c1.3,0.9,1.4,2.1,1.4,3.3c0,5.1,0,10.2,0,15.3
				C75,27.4,75,29.4,75,31.6z"/>
			<path d="M173.9,7.8c0-0.2,0-0.5,0-0.7c1.4,0.8,1.8,1.3,1.8,3c0,2.7,0,5.4,0,8.1c0,4,0,8,0,12.1c0,0.6,0.3,1.3-0.5,1.6l0.1,0
				c-0.1-0.6-0.8-0.3-1-1.1c0-0.4,0-1,0-1.6c0-6.4,0-12.8,0-19.1C174.2,9.3,174.6,8.4,173.9,7.8L173.9,7.8z"/>
			<path d="M286.7,31.9c-0.1-0.5-0.6-0.4-0.9-0.8c0-7.4,0-14.9,0-22.9c0.6,1,0.9,1.6,1.4,2.3c0,6.6,0,13.4,0,20.2
				C287.1,31.2,287.2,31.7,286.7,31.9L286.7,31.9z"/>
			<path d="M255.1,34.7c-0.1-0.3-0.1-0.7,0.2-1.2c1.2-0.4,2.4,0,3.7,0.1c1.2,0.1,2.4,0,3.6,0c0.6-1.5,0-3,0.5-4.2
				c0.6-0.4,0.9,0.1,1.2,0.3c0,1.7,0,3.3,0,4.9c-1.5,0.9-3.1,0.6-4.5,0.4C258.2,34.9,256.7,35.5,255.1,34.7z"/>
			<path d="M191.6,34.7c0.7-1.5,1.5-1.4,2.4-1.3c1.8,0.4,3.6,0.2,5.5,0.1c0.6-1.2,0-2.5,0.5-3.9c0.1-0.1,0.3-0.4,0.9-0.3
				c0.4,1.7,0.2,3.5,0.2,5.4C198,35.2,195,35.2,191.6,34.7z"/>
			<path d="M15.4,35.1c-0.3-0.6-0.3-0.8-0.1-1.3c2.4-0.4,4.9,0.1,7.5-0.2c0.4-1.2,0-2.6,0.2-3.7c0.4-0.5,0.7-0.4,1.2-0.2
				c0.4,1.7,0.1,3.4,0.2,5.3c-1.7,0.3-3.2,0.1-4.7,0.1C18.3,35.2,16.8,35.1,15.4,35.1z"/>
			<path d="M100.3,29.2c0.9,1.1,1.1,2.9,0.5,5.8c-2.8,0-5.6,0-8.4,0c-0.4-0.3-0.6-0.5-0.5-1.1c2.4-0.4,5,0,7.6-0.3
				C99.7,32.2,99.6,30.8,100.3,29.2z"/>
			<path d="M121.1,10.5c0.2-0.1,0.4-0.2,0.6-0.4c1.9,0.7,4,0.9,5.5,2.6c0.1,0.4-0.5,0.6-0.6,0.9c-1.6,0-2.8-1.1-4.5-0.9
				c-1.4-1.3-3.3-1.9-5-3.4C118.7,9.2,119.8,10.3,121.1,10.5z"/>
			<path d="M225.9,34.9c-3.1-0.3-6.1,0.1-9-0.3c-0.1,0-0.2-0.2-0.3-0.5c1.2-0.8,2.6-0.3,3.9-0.4c1.3-0.1,2.6,0.2,3.7-0.4
				c0.7-1.3-0.6-3.2,1.4-4.2C226.1,31.1,225.8,32.9,225.9,34.9z"/>
			<path d="M144.2,23.6c-1-1.2-1.8-2.3-2.6-3.3c0.1-0.5,0.6-0.5,0.8-0.7c1,0.3,1.2,1.8,2.6,1.5c0.6,0.6,0.9,1.4,1.7,1.9
				c0.3-0.1,0.5-0.1,0.9-0.2c0.7,1.3,1.4,2.5,2.1,3.8c-0.1,0.1-0.1,0.1-0.2,0.2c-0.5-0.4-0.9-0.8-1.4-1.2c-0.2,0.1-0.4,0.2-0.6,0.2
				c-1-0.7-1.3-2-2.3-2.5C144.8,23.1,144.6,23.4,144.2,23.6z"/>
			<path d="M144.8,12.4c-0.1-0.5-0.2-0.8-0.2-1c2.3-2.6,5.2-3.9,8.7-4.5c-0.6,0.9-1.6,0.8-2,1.6c0.2,0.1,0.4,0.3,0.7,0.5
				C149.3,9.6,147.5,11.6,144.8,12.4z"/>
			<path d="M140.4,8.3c-0.3,0.7-1,0.9-1.6,1.2c-0.5,0.3-1.1,0.5-1.3,1.2c-0.7-0.1-1.3-0.3-1.6-1.2c-0.2-0.5-0.8-0.7-1.3-0.7
				c-0.8,0-1.5-0.3-2.1-0.8c0.7-0.6,1.5-0.6,2.3-1c0.9,0.5,1.9,0.4,2.8,0.1C138.9,7,139.4,8.2,140.4,8.3z"/>
			<path d="M222.1,28.4c-0.4,0.3-0.7,0.3-1.1,0.1c-0.4-2.3-0.2-4.6-0.2-7c0-0.7,0.2-1.2,1.1-1.2C223,23,222.4,25.7,222.1,28.4z"/>
			<path d="M19.3,28.5c0-2.7,0-5.2,0-7.8c0.4-0.4,0.7-0.4,1.2-0.2c0.4,2.6,0.1,5.2,0.1,7.7C20.3,28.8,19.9,28.7,19.3,28.5z"/>
			<path d="M197.5,28.5c-0.6,0.1-0.9,0.2-1.3-0.2c0-2.5,0-5.1,0-7.7c0.3-0.3,0.6-0.3,1.2-0.1C197.7,23.1,197.5,25.7,197.5,28.5z"/>
			<path d="M259.3,20.5c0.6-0.2,0.9-0.2,1.3,0.2c0.2,2.4,0.1,5,0,7.5c-0.4,0.5-0.7,0.5-1.3,0.2C259.1,25.9,259.1,23.2,259.3,20.5z"
				/>
			<path d="M120.3,27.3c0.9-1.5,1.7-2.8,2.1-4.4c0.8-0.7,1.6-1.4,2.4-2.1c0.8,0,0.7,0.5,0.6,1c-0.3,1.1-1.9,3.4-2.9,4.1
				C121.8,26.4,121.1,26.8,120.3,27.3z"/>
			<path d="M97.2,28.6c-0.3,0-0.4,0.1-0.6,0.1c-0.1,0-0.3-0.1-0.5-0.2c0.4-2.7-0.2-5.4,0.4-8.3C97.9,21.8,98.1,24.9,97.2,28.6z"/>
			<path d="M150,15.9c-0.4,0.3-0.7,0.7-1.2,1.1c-0.8-0.1-1.7-0.5-2.8,0c-0.7,0.3-1.7,0.1-2.5,0c-0.4,0-0.8-0.4-0.8-1
				C145.2,14.9,147.6,15,150,15.9z"/>
			<path d="M23.1,16.3c0.4-0.3,0.7-0.3,1-0.1c0.3,0.3,0.3,0.7,0.3,1c0.1,5,0.1,5-0.7,6.1C22.8,22.3,22.7,20.7,23.1,16.3z"/>
			<path d="M263.1,16.2c0.5-0.1,0.8-0.1,1.1,0.3c0,2,0,4.2,0,6.3c-0.2,0.3-0.6,0.4-1,0.3C262.8,22.6,262.7,19.3,263.1,16.2z"/>
			<path d="M224.5,16.4c0.6-0.3,0.9-0.4,1.3,0c0.3,2,0.1,4.2,0.1,6.3c-0.4,0.5-0.7,0.4-1.2,0.2C224.2,20.8,224.5,18.6,224.5,16.4z"
				/>
			<path d="M201.2,22.9c-0.5,0.3-0.8,0.3-1.3,0c-0.3-2.1-0.1-4.3-0.1-6.4c0.4-0.5,0.7-0.5,1.3-0.2C201.4,18.4,201.2,20.6,201.2,22.9
				z"/>
			<path d="M20.6,15.5c-0.5,0.2-0.8,0.2-1.2-0.1c0-2.1,0-4.2,0-6.4c0.3-0.4,0.7-0.4,1.2,0C20.8,11.1,20.8,13.3,20.6,15.5z"/>
			<path d="M117.6,18.8c2.7-0.7,4.5-3.1,7.6-2.5C123,18.2,120.8,19.4,117.6,18.8z"/>
			<path d="M259.3,8.8c0.5-0.2,0.8-0.2,1.2,0.1c0.2,1.9,0.1,3.9,0,5.8c-0.4,0.6-0.8,0.4-1.3,0.4C259.3,13,259.3,11,259.3,8.8z"/>
			<path d="M197.5,8.8c0.1,2.2,0.2,4.2,0,6.1c-0.4,0.4-0.7,0.3-1.2,0.2c-0.4-2-0.1-4-0.2-6C196.4,8.6,196.8,8.6,197.5,8.8z"/>
			<path d="M289.4,11.9c-1-2.2-0.9-4-0.7-5.8c0.2-0.2,0.4-0.5,0.8-0.4c0.4,0.1,0.7,0.4,0.8,0.7C290.5,7.5,290.2,10,289.4,11.9z"/>
			<path d="M288.6,34.4c-0.3,0.2-0.4,0.4-0.6,0.4c-2.1,0.1-4.1,0.2-6.1,0.3c-0.5-0.5-0.5-0.9-0.3-1.4c0.1-0.1,0.1-0.2,0.2-0.2
				c1.9,0.2,3.8,0.1,5.6,0C287.7,33.5,288.3,33.6,288.6,34.4z"/>
			<path d="M278.3,34.5c-2.1,0.8-3.7,0.9-5.5,0.2c0-0.1-0.1-0.3-0.1-0.4c0-0.1,0-0.3,0.1-0.4c0.1-0.1,0.2-0.3,0.3-0.3
				c1.3,0,2.5-0.1,3.8-0.1C277.6,33.4,278.3,33.4,278.3,34.5z"/>
			<path d="M100.2,23.1c-1-3.9-0.8-5.8,0.6-7c0.6,1.1,0.2,2.3,0.3,3.4c0,1.1,0,2.3,0,3.2C100.8,23.1,100.5,23.1,100.2,23.1z"/>
			<path d="M134.1,3.8c0.3,0,0.6,0.2,0.9,0c0.5-0.1,0.4,0.6,0.8,0.7c0.3,0.1,0.6,0.2,0.6,0.5c0.1,0.6-0.2,0.9-0.5,1.2
				c-1.4,0.1-2.8,0.1-4.3,0.2c-0.1,0.2-0.3,0.4-0.4,0.7c-0.5-0.5-0.5-0.5-0.1-1.5C132.8,5.9,132.9,5.9,134.1,3.8z"/>
			<path d="M165,33.9c2.4-0.4,4.2-0.9,6.1,0.1c-0.4,1.4-1.7,1-2.4,1C167.6,35.1,166.3,35.6,165,33.9z"/>
			<path d="M220.9,8.7c0.4,0,0.6,0,1-0.1c0.9,2.1,0.4,4.2,0.2,6.3c-0.4,0.4-0.7,0.4-1.1,0.1C220.9,13,220.9,10.9,220.9,8.7z"/>
			<path d="M97,8.5c0.9,2.6,0.8,4.8,0,7.1c-0.9,0-0.8-0.5-0.9-1C96,10.9,96.1,9.6,97,8.5z"/>
			<path d="M201.2,11.4c-0.6,0.1-0.9,0.2-1.3-0.3c0-1.7-0.3-3.6,0.1-5.4c0.6-0.2,0.9,0,1.2,0.4C201.2,7.8,201.2,9.5,201.2,11.4z"/>
			<path d="M224.5,6.1c0.4-0.3,0.6-0.6,1-0.5c0.6,0.3,0.8,3,0.2,5.8c-0.8,0.2-1-0.4-1.1-1c-0.1-0.5-0.1-0.9-0.1-1.4
				C224.4,8,224.5,7,224.5,6.1z"/>
			<path d="M271.9,33.4c0.4,0.4,0.4,0.7,0.4,1c0,0.2-0.2,0.4-0.3,0.8c-1.7-0.7-3.6,0.5-5.5-0.9C268.4,33,270.3,33.8,271.9,33.4z"/>
			<path d="M204.2,35.1c-0.4-0.4-0.6-0.6-0.5-1.1c1.8-0.7,3.8,0,5.7-0.4c0.4-0.1,1.1-0.1,1.5,0.7c-1,1-2.2,0.4-3.3,0.5
				C206.5,34.9,205.4,35,204.2,35.1z"/>
			<path d="M264.3,11.3c-0.5,0.2-0.8,0.3-1.3-0.1c-0.2-1.7-0.2-3.6,0-5.4c0.5-0.2,0.8,0.1,1.3,0.3C264.4,7.7,264.4,9.5,264.3,11.3z"
				/>
			<path d="M108.4,33.3c0.1,0.5,0.9,0.3,1,0.9c-0.9,1.1-0.9,1.1-5.2,0.9c-0.4-0.2-0.4-0.6-0.3-1.1C105.2,33.3,107,34.2,108.4,33.3
				L108.4,33.3z"/>
			<path d="M24.4,11.2c-0.5,0.3-0.8,0.3-1.3,0c-0.2-1.6-0.1-3.4-0.1-5c0.2-0.1,0.3-0.3,0.4-0.3c0.2,0,0.4,0,0.8,0
				C24.6,7.7,24.4,9.5,24.4,11.2z"/>
			<path d="M1.9,35.1c-0.2-0.5-0.3-0.8,0.1-1.2c1.6,0,3.3,0,5.1,0c0.1,0.1,0.2,0.2,0.2,0.4c0,0.2,0,0.4-0.1,0.8
				C5.4,35.2,3.7,35.2,1.9,35.1z"/>
			<path d="M7.8,35c-0.1-0.4-0.2-0.7,0.1-1.1c1.6,0,3.4,0,5.1,0c0.1,0.2,0.2,0.3,0.2,0.4c0,0.2,0,0.4-0.1,0.8
				C11.3,35.2,9.5,35.3,7.8,35z"/>
			<path d="M115.3,33.9c-0.7,1.4-1.2,1.5-5.3,1c-0.3-0.3-0.4-0.6,0-1.2C111.7,33.7,113.5,33.5,115.3,33.9z"/>
			<path d="M156.7,34.7c0-0.3,0-0.5,0-0.9c2.2-0.1,4.3-0.2,6.3-0.3c0.5,0.3,0.7,0.6,0.4,1.2C161.3,34.7,159.1,34.7,156.7,34.7z"/>
			<path d="M99.6,6.2c0.5-0.3,0.8-0.3,1.2-0.2c0.5,0.9,0.2,2,0.2,3.1c0,0.8,0.5,1.8-0.7,2.5C99.3,9.8,99.7,8,99.6,6.2z"/>
			<path d="M70.1,33.7c0.4,0.5,0.4,0.8,0.1,1.2c-1.8,0.1-3.7,0.6-5.4-0.6C66.5,33.4,68.3,33.8,70.1,33.7z"/>
			<path d="M76.2,35.1c-1.8-0.3-3.8,0.6-5.7-0.9c2.1-0.7,3.8-0.3,5.5-0.4C76.5,34,76.5,34.4,76.2,35.1z"/>
			<path d="M228.7,34.6c-0.3-0.4-0.2-0.7,0.1-1.1c1.2,0.1,2.5,0.4,3.7,0c0.6-0.2,1.2,0.1,1.5,0.7C232.9,35.2,232.4,35.2,228.7,34.6z
				"/>
			<path d="M57,34.3c2.1-0.8,4.5-0.7,5.9,0c-0.2,0.8-1,0.7-1.5,0.7C60.1,34.8,58.6,35.3,57,34.3z"/>
			<path d="M56.6,33.8c0.4,0.4,0.3,0.7,0.2,1.2c-1.8-0.2-3.6,0.1-5.3-0.3c-0.1-0.5,0-0.8,0.4-0.8C53.5,33.8,55.1,33.8,56.6,33.8z"/>
			<path d="M240.6,34.1c-1.9,1.3-3.6,0.5-5.2,0.7c-0.4,0-0.8-0.1-0.7-0.7C236,33.5,238.2,33.5,240.6,34.1z"/>
		</g>
	</g>
</g>
<g id="Layer_1">
</g>
</svg>
