<?xml version="1.0" encoding="utf-8"?>
<!-- Generator: Adobe Illustrator 18.0.0, SVG Export Plug-In . SVG Version: 6.00 Build 0)  -->
<!DOCTYPE svg PUBLIC "-//W3C//DTD SVG 1.1//EN" "http://www.w3.org/Graphics/SVG/1.1/DTD/svg11.dtd">
<svg version="1.1" xmlns="http://www.w3.org/2000/svg" xmlns:xlink="http://www.w3.org/1999/xlink" x="0px" y="0px"
	 viewBox="0 0 300 44.7" style="enable-background:new 0 0 300 44.7;" xml:space="preserve">
<style type="text/css">
	.st0{fill-rule:evenodd;clip-rule:evenodd;}
	.st1{fill-rule:evenodd;clip-rule:evenodd;fill:#C038F9;}
	.st2{fill:none;}
	.st3{fill-rule:evenodd;clip-rule:evenodd;fill:#231F20;}
</style>
<g id="Layer_2">
</g>
<g id="Layer_1">
	<g>
		<path class="st0" d="M251.1,3.8h-9.6l-8.1,21.1c0.1-1.1,0.2-2.3,0.2-3.6c0-17.1-16.5-17.5-16.5-17.5h-16V17
			c-2.3-8.2-10-13.9-19.1-13.9c-6.6,0-12.5,3-16,7.8V3.8h-24.4v8.4h7.4v27.9h9.7V12.3h6.4c-1.8,2.9-2.8,6.3-2.8,10
			c0,10.9,8.8,19.2,19.8,19.2c9.1,0,16.7-5.7,19.1-13.9v12.6h17.2c0,0,7-0.3,11.5-6.1l-2.3,6.1h9.9l2.4-6.2h13l2.3,6.2h9.9
			L251.1,3.8z M182,31.9c-5.7,0-10.3-4.3-10.3-9.6c0-5.3,4.6-9.6,10.3-9.6c5.7,0,10.3,4.3,10.3,9.6C192.4,27.6,187.7,31.9,182,31.9z
			 M214.3,32.3c-1.8,0-2.8-0.3-2.8-0.3V12.2c0.7,0,1.5-0.2,2.9-0.2c1.5,0,9,0.3,9,10.1S216.1,32.3,214.3,32.3z M242.6,26.7l3.7-9.8
			h0l3.7,9.8H242.6z"/>
		<polygon class="st0" points="277.5,3.8 271,13.4 264.6,3.8 253,3.8 265.7,22.8 265.7,40.2 276.4,40.2 276.4,22.8 289.1,3.8 
			277.5,3.8 		"/>
		<path class="st0" d="M121.5,3.6h-10.2l-9,23c-0.2-6.9-6.9-8.9-10.6-9.9c-5.3-1.4-4.9-3-4.9-3.6c0-0.6,0.6-2.7,3.6-2.7
			c3,0,6.8,2.7,6.8,2.7l3.9-7.3c0,0-4.7-3.6-11.8-3.6c-5.1,0-12.9,2-12.9,12.6c0,0-1.1,8.8,11.5,10.2c0,0,4.5,0.6,3.7,4.1
			c-0.8,3.5-4.1,2.7-4.8,2.7c-0.7,0-3.3,0-8-3.7l-4.3,7.5c0,0,4.9,5.1,14.1,5.1c4.2,0,7.4-1.4,9.7-3.5l-1.2,3h10.4l2.4-6.2h12.8
			l2.4,6.2h10.3L121.5,3.6z M112.8,26.1l3.7-9.2l3.4,9.2H112.8z"/>
		<path class="st1" d="M59.8,40.8C59.7,40.8,59.7,40.8,59.8,40.8c-0.1,0-0.1,0-0.1,0H59.8L59.8,40.8z"/>
		<path class="st0" d="M65.8,3.6v22.9c0,0,0,5.3-6.1,5.4c-6,0-6.1-5.4-6.1-5.4V3.6H25.7c-0.2-0.2-0.5-0.4-0.8-0.4H13.3
			c-0.7,0-1.2,0.5-1.2,1.2c0,0.2,0,0.4,0.2,0.6c-0.3,0.4-0.6,0.7-0.8,0.8c-0.1,0.1-0.7,0.4-1.4,0.9H8c-0.7,0-1.2,0.5-1.2,1.2
			c0,0.4,0.2,0.8,0.5,1c-0.4,0.4-0.8,0.9-1.2,1.3H4.7c-0.7,0-1.2,0.5-1.2,1.2c0,0.7,0.5,1.2,1.2,1.2H5c-0.1,0.4-0.1,0.7-0.1,1.1l0,0
			h-2c-0.7,0-1.2,0.5-1.2,1.2c0,0.7,0.5,1.2,1.2,1.2h2.7l-0.4,1.1H1.4c-0.7,0-1.2,0.5-1.2,1.2c0,0.7,0.5,1.2,1.2,1.2h5.2
			C7,20,7.3,20.4,7.5,20.7H1.2c-0.7,0-1.2,0.5-1.2,1.2c0,0.7,0.5,1.2,1.2,1.2h8.3c0.4,0.3,0.9,0.6,1.7,0.8c0.3,0.1,0.5,0.2,0.7,0.3
			H1.4c-0.7,0-1.2,0.5-1.2,1.2c0,0.7,0.5,1.2,1.2,1.2h12.1c0,0.4,0,0.7,0,1.1H2.9c-0.7,0-1.2,0.5-1.2,1.2c0,0.7,0.5,1.2,1.2,1.2
			h10.3c0,0.4,0,0.8,0.1,1.1H4.7c-0.7,0-1.2,0.5-1.2,1.2c0,0.7,0.5,1.2,1.2,1.2H15c0.3,0.4,0.6,0.7,0.9,1.1H8
			c-0.7,0-1.2,0.5-1.2,1.2c0,0.7,0.5,1.2,1.2,1.2h9.3c0.2,0.4,0.4,0.8,0.5,1.1h-4.5c-0.7,0-1.2,0.5-1.2,1.2c0,0.7,0.5,1.2,1.2,1.2
			H25c0.3,0,0.6-0.1,0.9-0.3H55c1.4,0.3,3,0.5,4.7,0.5c15.1,0,16.4-12.6,16.4-12.6V3.6H65.8z M46.3,35.2H31.5
			c-0.2-0.2-0.5-0.4-0.8-0.4h-8.6c0.2-0.4,0.4-0.7,0.7-1.1H34c0.3,0,0.6-0.1,0.9-0.4h10.2C45.4,33.9,45.8,34.5,46.3,35.2z
			 M44.3,31.6h-9.5c-0.2-0.2-0.5-0.3-0.8-0.3H23.3c0.1-0.3,0.3-0.7,0.4-1.1h12.2c0.3,0,0.7-0.1,0.9-0.4h7
			C43.9,30.3,44.1,30.9,44.3,31.6z M34.8,10.5c-0.2-0.2-0.5-0.3-0.8-0.3H21.8c-0.1-0.3-0.2-0.7-0.3-1.1h9.2c0.4,0,0.7-0.2,0.9-0.4
			h11.9v1.8H34.8z M43.5,15.7v1.8h-5.4c-0.2-0.2-0.5-0.3-0.8-0.3H21.8c0.4-0.3,0.7-0.7,1-1.1h13c0.4,0,0.7-0.2,0.9-0.4H43.5z
			 M37.3,19.6c0.3,0,0.7-0.1,0.9-0.4h5.3v1.8h-5.3c-0.2-0.2-0.5-0.3-0.8-0.3H18.7c0-0.3,0.1-0.7,0.3-1.1H37.3z M25,5.6
			c0.4,0,0.7-0.2,0.9-0.4h17.6V7h-12c-0.2-0.2-0.5-0.3-0.8-0.3H20c-0.1-0.2-0.2-0.6-0.2-1.1H25z M19.7,9.1c0.1,0.2,0.2,0.6,0.3,1.1
			h-1.8c-0.2-0.3-0.4-0.6-0.7-1.1H19.7z M17.3,5.6c0,0.3,0.1,0.7,0.3,1.1h-0.9c-0.1-0.4-0.2-0.8-0.2-1.1H17.3z M13.1,20.7
			c-0.2-0.3-0.4-0.7-0.4-1.1H16c0.3,0.3,0.6,0.7,0.7,1.1H13.1z M15.7,24.2c-0.4-0.3-0.9-0.7-1.2-1.1h23c0.3,0,0.7-0.1,0.9-0.4h5.2
			v1.9h-5.4c-0.2-0.2-0.5-0.3-0.8-0.3H15.7z M18.7,26.6h18.6c0.3,0,0.7-0.1,0.9-0.4h5.3v1.9h-6.8c-0.2-0.2-0.5-0.3-0.8-0.3H22.5
			c-0.9-0.2-2.1-0.4-3.4-0.5C19,27.3,18.9,27,18.7,26.6z M25.8,38.7c-0.2-0.2-0.5-0.4-0.9-0.4h-3.7c0-0.3,0-0.7,0-1.1h9.3
			c0.3,0,0.6-0.1,0.9-0.4h16.3c0.7,0.7,1.6,1.3,2.6,1.8H25.8z"/>
	</g>
</g>
</svg>
