<?xml version="1.0" encoding="utf-8"?>
<!-- Generator: Adobe Illustrator 18.0.0, SVG Export Plug-In . SVG Version: 6.00 Build 0)  -->
<!DOCTYPE svg PUBLIC "-//W3C//DTD SVG 1.1//EN" "http://www.w3.org/Graphics/SVG/1.1/DTD/svg11.dtd">
<svg version="1.1" xmlns="http://www.w3.org/2000/svg" xmlns:xlink="http://www.w3.org/1999/xlink" x="0px" y="0px"
	 viewBox="0 0 300 75.3" style="enable-background:new 0 0 300 75.3;" xml:space="preserve">
<style type="text/css">
	.st0{fill-rule:evenodd;clip-rule:evenodd;}
	.st1{fill-rule:evenodd;clip-rule:evenodd;fill:#C038F9;}
	.st2{fill:none;}
	.st3{fill-rule:evenodd;clip-rule:evenodd;fill:#231F20;}
</style>
<g id="Layer_2">
</g>
<g id="Layer_1">
	<g>
		<path d="M11.6,50.5c4.7,6.9,12,10.1,20.1,10.1c6.1,0,14.1-2.1,14.1-8.5c0-5.2-4.9-6.7-13.8-8.8l-7.4-1.7C14,39.2,4.7,35.3,4.7,23
			C4.7,9,18.1,2.3,30.5,2.3c11.4,0,20.9,4.2,27.8,13.4l-10.4,7.9c-3.2-6.1-9.4-9.6-17.5-9.6c-7.2,0-12.6,2.7-12.6,7.4
			c0,5.5,6.3,6.8,13.8,8.5l8.1,1.8c9.9,2.2,19.3,6.2,19.3,18.8c0,16.3-15.3,21.9-29.2,21.9c-11,0-22.5-4.8-28.8-14L11.6,50.5z"/>
		<path d="M62.9,7.7h11.4v62.9H62.9V7.7z"/>
		<path d="M120.8,62.6c0,4.9,1.1,6.9,1.8,8h-12.1c-0.7-1.1-1.1-3.1-1.1-4.3c-4.4,3.6-9.5,5.4-15.4,5.4c-9,0-16.1-5.7-16.1-14.9
			c0-9.3,7.4-13.4,14.4-14.8l4.8-0.9c4.1-0.8,9.4-1.8,12.3-2.8v-1.4c0-4.7-4-6-9-6c-6.6,0-8.8,2-8.8,7.1l-11.4-0.5
			c0-11.1,9.8-15.4,20.2-15.4c10.2,0,20.4,2.1,20.4,15.5V62.6z M109.4,46.9c-1.5,0.7-3.4,1.3-5.4,1.7l-6.3,1.3
			c-4.3,0.8-7.9,2.1-7.9,6.5c0,3.6,3.3,5.9,7.4,5.9c5.3,0,12.2-2.6,12.2-8.7V46.9z"/>
		<path d="M130.4,18.4l11.4-11.9v16.7H152v8.2h-10.2v23.9c0,3.7,0.1,7.4,6.4,6.8l0.6,10.6c-2.7,0.6-2.4,0.4-5.9,0
			c-9.5-1.1-12.5-5.9-12.5-13.1V31.4h-6.9v-8.2h6.9V18.4z"/>
		<path d="M162.8,49.6c0.2,7,6.7,13.2,12.9,13.2c9,0,10.1-5.4,11.2-7l10.5,0.1c-2.1,9.7-8.9,16.6-21.8,16.6
			c-15.3,0-24.8-11.5-24.8-25.7s8.9-24.8,24.2-24.8c15.8,0,22.7,10.6,22.7,27.5H162.8z M185.8,40.8c0-2.5-3.1-9.4-10.8-9.4
			c-6.6,0-11,4.3-12.3,9.4H185.8z"/>
	</g>
</g>
</svg>
