<?xml version="1.0" encoding="utf-8"?>
<!-- Generator: Adobe Illustrator 18.0.0, SVG Export Plug-In . SVG Version: 6.00 Build 0)  -->
<!DOCTYPE svg PUBLIC "-//W3C//DTD SVG 1.1//EN" "http://www.w3.org/Graphics/SVG/1.1/DTD/svg11.dtd">
<svg version="1.1" xmlns="http://www.w3.org/2000/svg" xmlns:xlink="http://www.w3.org/1999/xlink" x="0px" y="0px"
	 viewBox="0 0 300 44.7" style="enable-background:new 0 0 300 44.7;" xml:space="preserve">
<style type="text/css">
	.st0{fill-rule:evenodd;clip-rule:evenodd;}
	.st1{fill-rule:evenodd;clip-rule:evenodd;fill:#C038F9;}
	.st2{fill:none;}
	.st3{fill-rule:evenodd;clip-rule:evenodd;fill:#231F20;}
</style>
<g id="Layer_2">
</g>
<g id="Layer_1">
	<g id="j8DNZ1_1_">
		<g>
			<path d="M164,26.2c-1.5-0.3-2.3-1.1-2.4-2.4c-0.1-1.9,0.2-3.8,2-4.8c1.4-0.8,3.1-1.2,4.7-1.4c1.1-0.2,2.4,0.1,3.9,0.2
				c0.1-3.3,0.8-6.6-1.9-9.7c-1.1,0.1-2.1,0.1-3.1,0.2c2.1-3.4,3.7-4.5,6.8-4.6c2.5,1.6,3.2,4.2,3.3,7.1c0.1,4.7-0.1,9.4-0.1,14.1
				c0,2.6,0,5.3,0,7.9c0.5,0.1,0.8,0.1,1.4,0.2c0-8.6,0-17.1,0-25.4c1.5-1.4,2.8-2.6,4.2-4c2.2,1.7,4.6,3.5,6.8,5.2
				c0,5.8,0,11.4,0,17.2c-2,1.7-4.1,3.5-6.3,5.3c-1.4-0.7-1.9-2.5-3.8-2.2c-0.3,1.7-0.5,3.4,0.4,5.2c-1.1,1.7-2.3,3.4-3.4,5.2
				c-2.4-1.2-4.6-2.2-7.4-1.4c-0.3,0.4-0.7,0.8-1.2,1.4c0.5,0.6,0.9,1.1,1.2,1.6c1.8,0,2.2-2.2,4-2.1c-1,2-1,2-3.9,2.8
				c-0.7-0.5-1.6-1.1-2.3-1.6c-0.5-4.7,0.5-6.3,5.2-8.2c0-3.8,0-7.6,0-12c-0.8,1.5-1.5,2.7-2.1,3.8c-2.3-0.5-4.5-2.1-7.1-0.5
				c0,0.5,0.1,1.1,0.1,1.6c1.7,1.2,2.6-1.1,4.1-0.6C166.5,25.8,165.1,25.8,164,26.2z M184.3,11.9c-1.6-1.2-3.1-2.2-4.8-3.4
				c0,2.8,0,5.2,0,7.6c0.6,0.2,1.1,0.5,1.6,0.7c0,1.7,0,3.3,0,4.9c-0.5,0.2-1,0.4-1.6,0.7c0,2,0,4,0,5.8c1.4-0.3,2.8-0.5,4.4-0.8
				C184,22.4,184.1,17.3,184.3,11.9z"/>
			<path d="M86,25.8c-0.9,3.8-3,6.9-6.6,8.6c-4.2,2-11,0.9-13.8-5.5c-2.5-5.7-1.3-14.3,4.9-18.5c-3.1-0.9-5.9-1.9-8.8,0.8
				c0.1,0.7,0.3,1.5,0.5,2.6c1.6-1,2.8-1.7,4.5-2.7c-0.2,0.8-0.2,1.3-0.4,1.4c-1.2,0.9-2.4,1.7-3.9,1.6c-2.1-1.9-2.3-4.2-0.6-6.3
				c1.6-1.9,3.7-3,6.2-3.2c3.8-0.3,7.2,0.8,10.7,2c1.2,0.4,2.4,0.9,3.7,1.2c0.9,0.2,1.9,0.4,2.7-1.1c-0.4-0.3-0.8-0.7-1.2-1.1
				c-1.2,0.3-2,0.4-3.3,0.7c2.5-1.6,3.1-1.6,5,0.2c0.4,4-1.1,5.6-5.9,6.7c-0.1,5.3-0.3,10.7-0.5,16.2C82.1,29.3,83.8,26.9,86,25.8
				L86,25.8z M78.7,13.2c-2.4-0.8-4.7-1.6-7-2.4c-0.4,0.3-0.7,0.5-0.9,0.8c-3.9,4.5-3.6,10-0.9,14.8c1.6,2.9,5,3.9,8.4,3
				C78.4,24.1,78.6,18.8,78.7,13.2z"/>
			<path d="M26,24.5c-1.3,3.7-2.8,6.5-5.6,8.5c-5.1,3.6-12.5,1.5-15.1-4.4C3,23.3,3.4,18.2,6.6,13.3c0.8-1.3,2-2.3,3.1-3.4
				C6,8,3.1,8.4,1.1,11.2c0.1,0.2,0.1,0.5,0.2,0.7c0.1,0.2,0.3,0.4,0.7,0.9c1.3-0.7,2.7-1.4,4-2.2c-0.7,2.1-2.4,2.4-3.9,2.9
				c-2.6-1.9-2.9-4.4-0.7-6.8c2.2-2.3,4.9-3.3,8-2.8c3,0.5,5.9,1.4,8.8,2.2c1.2,0.3,2.4,0.9,3.7,1.1c0.7,0.1,1.5-0.2,2.4-0.3
				c-1-2.8-2.9-1-4.4-1.2c2.9-1.8,4.3-1.3,5.3,1.5c-0.5,3.5-3,5-6.4,5.4c0,5.5,0,10.8,0,16.4C21.5,28.3,23.6,26.6,26,24.5z
				 M11.2,10.1c-0.4,0.4-0.8,0.7-1.1,1C6.9,15,7,19.3,8.5,23.8c1.5,4.2,4.8,5.9,9.4,5c0-5.4,0-10.9,0-16.4
				C15.7,11.6,13.5,10.9,11.2,10.1z"/>
			<path d="M228.5,42.3c-2.2-1.9-2.2-1.9-2-5c1.7-2.6,4.4-3.3,7.4-2.9c2.4,0.4,4.8,1.3,7.1,2c2,0.6,2,0.6,4.1-0.6
				c0.3-1-0.1-1.6-1-1.9c-0.5-0.2-1.1-0.3-1.6-0.4c-2-0.4-3.6-1.4-4.3-3.6c-1.7,1.3-3.2,2.4-4.7,3.6c-1.3-1-2.5-2-3.5-2.7
				c0.3-1.8,0.7-3.2,0.8-4.7c0.1-2.3,0-4.6,0-7c-0.5-0.4-1-0.8-1.6-1.2c1.2-1.2,2.3-2.2,3.3-3.2c1,0.9,2.1,1.9,2.8,2.6
				c0,3.9-0.1,7.5,0,11.2c0,0.5,0.6,1,0.9,1.5c1.8-0.4,2.2-1.6,2.2-2.9c0-2.6,0-5.1,0-7.9c-0.3-0.4-0.7-0.8-1.2-1.4c1-1,2-2.1,3-3.2
				c1.2,1,2.3,2,3.3,2.7c-0.2,1.2-0.6,2.3-0.6,3.4c-0.1,2,0,4.1-0.1,6.1c-0.2,2.3,0.5,4,2.6,5c0.2,0.1,0.4,0.3,0.7,0.5
				c1.6,3.8,0.2,6.7-3.7,7.9c-1.9,0.5-3.8,0.6-5.7,0.1c-1.8-0.5-3.5-1-5.3-1.4c-1.2-0.3-2.4-0.3-3.2,0.9c0.3,1.5,1.7,1.2,2.5,1.7
				c0.9-0.4,1.7-0.8,2.6-1.2C233.4,42.2,232.8,42.5,228.5,42.3z"/>
			<path d="M116.4,29c0.5,0.3,1.3,0.7,2,1.1c-1.2,1.4-2.1,2.4-3.1,3.6c-1.3-1.1-2.5-2.1-3.6-3c0.6-3.8,0.2-7.5,0.3-11.3
				c-0.6-0.3-1.1-0.5-1.6-0.7c-0.3-0.1-0.7-0.1-1-0.1c-0.2,0.3-0.6,0.5-0.6,0.7c-0.1,3-0.3,6-0.4,9.1c0.6,0.6,1.1,1.2,1.8,1.9
				c-1,1-1.9,2.1-3.1,3.4c-1.3-1.2-2.4-2.2-3.6-3.3c0.9-3.9,0.5-7.7,0.6-11.6c-1.3-0.1-2.1-0.2-3.1-0.3c-0.4,3.3-0.1,6.5-0.4,10.3
				c0.4,0.3,1,0.7,1.9,1.4c-1.2,0.9-2.5,1.8-3.7,2.7c-0.6-0.7-1.6-1.9-2.7-3.1c0.1-3.1,0.2-6.7,0.4-10.4c-0.6-0.4-1.1-0.8-1.8-1.3
				c0.9-1.2,1.9-2.5,3.1-3.9c1.3,1.4,2.5,2.6,3.9,4.1c0.8-0.8,1.5-1.4,2.1-2c0.6-0.6,1.1-1.2,1.8-2c1.3,1.4,2.5,2.7,3.7,3.9
				c1.9-0.7,2.7-2.6,4.2-3.5c1.2,1.2,2.3,2.3,3.5,3.6C115.8,21.5,116.8,25.1,116.4,29z"/>
			<path d="M35.1,31.5c0.4-3.8,0.2-7.2,0.3-10.8c-0.8-0.6-1.6-1.1-2.6-1.8c-1.2,1.9-0.7,3.7-0.8,5.3c-0.1,1.6,0,3.3,0,5.1
				c0.5,0.6,1.1,1.2,1.8,2c-1,0.9-2,1.9-3.2,3.1c-1.2-1.1-2.4-2.1-3.3-2.9c0.1-3.5,0.1-6.7,0.1-9.9c0-3.2,0-6.4,0-9.7
				c-0.5-0.3-1-0.5-1.6-0.8c1.1-1.4,2.1-2.7,3.3-4.2c1.2,1.4,2.3,2.7,3.2,3.7c-0.1,2.3-0.2,4.3-0.4,6.8c1.3-1.1,2.1-1.9,2.9-2.6
				c1.8,1,3.6,1.9,5.4,2.9c0,3.8,0,7.9,0,12.1c0.2,0.2,0.5,0.5,1,1c-1.1,1.1-2.1,2.2-3.3,3.4C36.8,33.5,36,32.2,35.1,31.5z"/>
			<path d="M257.2,14.6c1,0.8,2,1.7,3,2.6c-0.3,0.9-0.9,1.9-1,2.9c-0.1,2.8,0,5.7,0,8.8c0.6,0.3,1.3,0.6,1.7,0.8
				c-0.9,1.1-1.9,2.2-3.1,3.5c-1.1-1.2-2.1-2.3-3.2-3.4c-1.5,1.1-3,2.2-4.7,3.5c-1.2-0.9-2.5-1.8-3.7-2.6c1.6-3.9,0.7-7.8,1.1-11.6
				c-0.7-0.4-1.2-0.8-1.6-1c1.1-1.2,2.2-2.4,3.4-3.7c1,1,1.9,2,2.9,3.1c0,3.8,0,7.6,0,11.5c0,0.3,0.4,0.6,0.8,1
				c0.6-0.6,1.2-1.1,1.8-1.6c-0.5-3.7,0.7-7.4-0.7-11.1C255,16.4,256,15.5,257.2,14.6z"/>
			<path d="M139.8,14.3c2.3,1,4.2,1.8,6.3,2.7c-1.9,2.7-4.7,3-8,2.1c0,1.7,0.8,2.7,1.8,3.8c1.3-0.8,2.5-1.7,3.8-2.5
				c3.1,2.2,3.8,4.3,2.5,7.7c-0.8,2.2-2,4.1-4.1,5.4c-2.2,1.4-3.6,1.3-5.4-0.5c-0.6-0.6-1-1.4-1.4-2c-0.1,0.1-0.3,0.3-0.4,0.4
				c-0.4-0.1-0.7-0.1-1.1-0.2c-0.5,0-0.9,0-1.5,0c-0.3,0.6-0.6,1.2-0.9,1.7c0.7,1.2,1.5,0.9,2.3,0.6c0.6-0.2,1.3-0.4,2.2-0.6
				c-1.3,2.2-2,2.3-4.6,1.2c-0.9-2.4-0.6-3.5,1-4.8c1.9-1.6,4.3-1.9,6.1-0.8c0.7,0.4,1.3,1,1.9,1.6c0.5,0.4,0.9,0.8,1.5,1.3
				c1.3-2,0.5-3.7,0-5.4c-0.3-1.1-1-2-2.9-1.8c-0.5,0.7-1.3,1.7-2.1,2.7c-1.9-1.8-2.9-3.7-2.6-6.1c0.1-1.3,0.6-2.5,1.7-3.3
				C137.2,16.5,138.5,15.3,139.8,14.3z"/>
			<path d="M221.4,20.9c0.6-1.1,0.6-1.1,0.5-2.6c-1.5-0.1-1.5-0.1-2.5,0.5c-1.8-0.5-3.4-0.9-5.1-1.4c1-1.1,2.1-2.3,3.3-3.5
				c3.2,1.9,6.5,2.7,10,3.2l-0.1-0.1c-0.2,0.7-0.5,1.4-0.5,2.1c-0.1,3,0,6,0,9.1c0.5,0.4,1,0.8,1.5,1.2c-1.1,1.4-2.2,2.7-3.4,4.1
				c-1.2-0.9-2.2-1.8-3.4-2.7c-1.3,0.9-2.5,1.7-3.9,2.6c-1.6-1.1-3.2-2.1-4.8-3.2c0-1.3,0-2.6,0-3.9c2.2-2.1,4.4-4.2,6.6-6.2
				c0.1,0.1,0.2,0.2,0.2,0.3c-0.5,0.9-1,1.7-1.6,2.5c0,1.6,0,3.2,0,4.6c1.5,1.9,1.5,1.9,3.7,1.8c0-2.5,0-4.9,0-7.4
				C222,21.6,221.7,21.2,221.4,20.9L221.4,20.9z"/>
			<path d="M279,17.8c2.4-1.1,5-2.3,7.7-3.5c1.3,2,2.5,3.8,4,6c-2.3,1.4-4.5,2.8-6.8,4.2c0,1.5,0,2.9,0,4.4c2.6,2.2,4.4,0,6.4-1.3
				c0,0.3,0.1,0.6,0,0.6c-1.8,1.8-3.6,3.6-5.6,5.5c-2-1.1-3.9-2.1-5.7-3.2C279,26.3,279,22.2,279,17.8z M283.9,22.9
				c0.8-0.5,1.5-0.9,2.3-1.4c-0.8-1-1.4-1.9-2.3-3.1C283.9,20.2,283.9,21.5,283.9,22.9z"/>
			<path d="M131.5,21.2c-2.4,1.4-4.5,2.8-6.8,4.2c-0.1,0.8-0.2,1.7-0.2,2.5c-0.1,2.6,1.5,3.7,3.9,2.5c0.9-0.5,1.8-1.1,2.3-1.5
				c-1.6,1.6-3.5,3.6-5.6,5.7c-1.6-0.9-3.6-2.1-5.4-3.1c0-4.3,0-8.4,0-12.6c2.5-1.1,5-2.3,7.8-3.5C128.8,17.2,130.1,19.2,131.5,21.2
				z M127.1,22.5c-0.7-1-1.4-1.8-2.3-3.1c0,1.8,0,2.9,0,4.4C125.6,23.3,126.3,22.9,127.1,22.5z"/>
			<path d="M208,13.9c1.6,1.3,3.1,2.6,4.8,4c-1.1,1.3-2.2,2.4-3.1,3.5c-1.4-1.1-2.8-2.3-4.5-3.8c-0.6,3.7-0.2,6.8-0.4,9.9
				c2.6,2.9,3.6,2.9,7,0.2c0.1,0.2,0.2,0.3,0.2,0.5c0,0.3,0,0.5-0.1,1c-2,1.4-4.2,2.8-6.4,4.3c-1.8-1.1-3.6-2.2-5.3-3.3
				c0-4.2,0-8.3,0-12.6C202.6,16.4,205.3,15.2,208,13.9z"/>
			<path d="M54,29.6c-1.6,1.8-3.3,3.6-4.9,5.4c-2.2-1.2-4.1-2.3-5.7-3.3c0-4.3,0-8.3,0-12.7c2.3-1.1,4.9-2.2,7.7-3.5
				c1.4,2,2.7,4,4,6c-2.5,1.5-4.7,2.9-7,4.3c0,1.4,0,2.6,0,4.1c0.5,0.4,1.2,0.8,1.9,1.4C51.4,30.8,52.8,30.2,54,29.6L54,29.6z
				 M50.6,22.8c-0.8-1.1-1.5-2-2.5-3.2c0,1.8,0,3.1,0,4.6C49.1,23.7,49.7,23.3,50.6,22.8z"/>
			<path d="M87.8,19.5c-0.8-0.3-1.1-0.4-1.6-0.6c1.1-1.4,2.1-2.7,3.3-4.2c1.2,1.3,2.3,2.5,3.3,3.6c-0.1,1.9-0.2,3.6-0.2,5.3
				c0,1.6,0,3.3,0,5.1c0.4,0.5,0.9,1.1,1.4,1.9c-1,1-2.1,2-3.2,3.1c-1.1-1-2.2-2-3.3-3C88,27,87.6,23.3,87.8,19.5z"/>
			<path d="M265.8,33.5c-1-0.9-2.1-2-3.1-2.9c0-3.7,0-7.2,0-11.1c-0.2-0.2-0.6-0.7-1-1.2c0.9-1.2,1.8-2.3,2.8-3.6
				c1.2,1.4,2.3,2.6,3.3,3.8c-0.1,3.2-0.3,6.7-0.5,10.3c0.6,0.5,1.2,1,1.8,1.6C268.2,31.3,267.2,32.3,265.8,33.5z"/>
			<path d="M270.4,30.7c1-3.7,0.5-7.2,0.6-10.9c-0.7-0.5-1.3-0.9-2-1.4c1.2-1.1,2.4-2.2,3.7-3.5c1,1.1,2.2,2.4,3.2,3.5
				c-0.9,3.6-0.4,7.1-0.6,10.5c0.6,0.6,1.1,1,1.6,1.5c-1,1-2.1,2.1-3.3,3.3C272.7,32.7,271.6,31.7,270.4,30.7z"/>
			<path d="M191,18.1c1.2-1.4,2.1-2.6,3.3-4.1c1.2,1.3,2.3,2.5,3.3,3.7c-0.9,3.4-0.3,6.9-0.5,10.4c0.5,0.6,1.1,1.2,1.7,1.9
				c-1,1-2.1,2-3.3,3.2c-1.1-1.1-2.2-2.1-3.1-3c0-3.8,0-7.4,0-11.1C192.1,18.9,191.6,18.5,191,18.1z"/>
			<path d="M158.4,19.7c-0.7,1.1-1.5,2.2-2.2,3.3c-2.5-0.8-4.8-1.7-7.7-1.3c1.2-1.2,2.2-2.2,2.9-2.9
				C153.9,19.2,156.2,19.4,158.4,19.7L158.4,19.7z"/>
			<path d="M89.4,13.2c-0.7-1.2-1.3-2.2-2-3.3c-0.2,0.2-0.5,0.5-0.7,0.7c1-1,2-2,3.2-3.2c1.1,0.8,2.2,1.7,3.5,2.6
				C92.2,11.1,91.6,13,89.4,13.2z"/>
			<path d="M195.2,7c0.9,0.8,1.9,1.7,3,2.6c-1.4,1-1.8,3.4-4.2,2.9c-0.8-0.8-1.5-1.6-2.3-2.5C192.7,9.1,193.8,8.2,195.2,7z"/>
			<path d="M220.4,20.2c0.3,0.2,0.7,0.5,1,0.7l0.1-0.1c-0.4-0.1-0.8-0.3-1.2-0.4L220.4,20.2z"/>
			<path d="M86.1,25.8C86.1,25.8,86.1,25.8,86.1,25.8L86.1,25.8z"/>
			<path d="M54.7,29.2c0-0.1,0-0.1,0-0.2C54.7,29,54.6,29.1,54.7,29.2L54.7,29.2z"/>
			<path d="M219.7,20.1c0.3,0,0.5,0,0.8,0l-0.2,0.2c-0.1,0.1-0.2,0.1-0.4,0C219.8,20.3,219.7,20.2,219.7,20.1z"/>
			<path d="M54.1,29.7c0.2-0.2,0.4-0.3,0.6-0.5l-0.1-0.1C54.4,29.3,54.2,29.5,54.1,29.7L54.1,29.7z"/>
			<path d="M158.4,19.7c0.1-0.1,0.2-0.1,0.2-0.1C158.6,19.6,158.5,19.6,158.4,19.7L158.4,19.7z"/>
			<path d="M227.5,17c0-0.1,0-0.1,0.1-0.2C227.6,16.8,227.5,16.9,227.5,17L227.5,17z"/>
			<path d="M72.8,17.1c1.7-1.3,2.9-2.3,4.1-3.3c0,3.3,0,6.6,0,9.9c-1.5,1.2-2.8,2.3-4.1,3.4C72.8,23.7,72.8,20.4,72.8,17.1z"/>
			<path d="M12.1,26.3c0-3,0-6,0-9.4c1.3-1.2,2.8-2.5,4.4-4c0,3.4,0,6.6,0,9.7C15.3,24.3,13.8,25.5,12.1,26.3L12.1,26.3z"/>
			<polygon points="12.1,26.3 12,26.4 12.1,26.3 			"/>
		</g>
	</g>
</g>
</svg>
