<?xml version="1.0" encoding="utf-8"?>
<!-- Generator: Adobe Illustrator 18.0.0, SVG Export Plug-In . SVG Version: 6.00 Build 0)  -->
<!DOCTYPE svg PUBLIC "-//W3C//DTD SVG 1.1//EN" "http://www.w3.org/Graphics/SVG/1.1/DTD/svg11.dtd">
<svg version="1.1" xmlns="http://www.w3.org/2000/svg" xmlns:xlink="http://www.w3.org/1999/xlink" x="0px" y="0px"
	 viewBox="0 0 300 81.7" style="enable-background:new 0 0 300 81.7;" xml:space="preserve">
<style type="text/css">
	.st0{fill-rule:evenodd;clip-rule:evenodd;}
	.st1{fill-rule:evenodd;clip-rule:evenodd;fill:#C038F9;}
	.st2{fill:none;}
	.st3{fill-rule:evenodd;clip-rule:evenodd;fill:#231F20;}
</style>
<g id="Layer_2">
	<g>
		<g>
			<path d="M91.4,57V27h6l7.1,21.2c0.7,2,1.1,3.5,1.4,4.4c0.3-1.1,0.9-2.7,1.6-4.8l7.2-20.9h5.3v30h-3.8V31.9L107.5,57h-3.6
				l-8.7-25.5V57H91.4z"/>
			<path d="M125,46.2c0-4,1.1-7,3.4-8.9c1.9-1.6,4.1-2.4,6.8-2.4c3,0,5.4,1,7.3,2.9c1.9,2,2.8,4.7,2.8,8.1c0,2.8-0.4,5-1.3,6.6
				c-0.8,1.6-2.1,2.8-3.7,3.7c-1.6,0.9-3.4,1.3-5.2,1.3c-3,0-5.5-1-7.4-2.9C125.9,52.6,125,49.8,125,46.2z M128.8,46.2
				c0,2.8,0.6,4.9,1.8,6.2c1.2,1.4,2.7,2.1,4.6,2.1c1.8,0,3.3-0.7,4.6-2.1c1.2-1.4,1.8-3.5,1.8-6.4c0-2.7-0.6-4.7-1.8-6.1
				c-1.2-1.4-2.7-2.1-4.6-2.1c-1.8,0-3.4,0.7-4.6,2.1C129.4,41.3,128.8,43.4,128.8,46.2z"/>
			<path d="M150.1,57V35.3h3.3v3.1c1.6-2.4,3.9-3.6,6.9-3.6c1.3,0,2.5,0.2,3.6,0.7c1.1,0.5,1.9,1.1,2.5,1.9c0.5,0.8,0.9,1.7,1.1,2.7
				c0.1,0.7,0.2,1.9,0.2,3.6V57h-3.7V43.8c0-1.5-0.1-2.6-0.4-3.4c-0.3-0.7-0.8-1.3-1.5-1.8c-0.7-0.4-1.6-0.7-2.6-0.7
				c-1.6,0-2.9,0.5-4.1,1.5c-1.1,1-1.7,2.9-1.7,5.7V57H150.1z"/>
			<path d="M188.7,50l3.8,0.5c-0.6,2.2-1.7,3.9-3.3,5.2c-1.6,1.2-3.7,1.8-6.2,1.8c-3.2,0-5.7-1-7.6-2.9c-1.9-2-2.8-4.7-2.8-8.2
				c0-3.7,0.9-6.5,2.8-8.5s4.3-3,7.3-3c2.9,0,5.3,1,7.1,3c1.8,2,2.8,4.8,2.8,8.3c0,0.2,0,0.5,0,1h-16.2c0.1,2.4,0.8,4.2,2,5.5
				c1.2,1.3,2.7,1.9,4.5,1.9c1.4,0,2.5-0.4,3.5-1.1C187.4,52.7,188.1,51.6,188.7,50z M176.6,44.1h12.1c-0.2-1.8-0.6-3.2-1.4-4.1
				c-1.2-1.4-2.7-2.1-4.6-2.1c-1.7,0-3.1,0.6-4.3,1.7C177.4,40.7,176.7,42.2,176.6,44.1z"/>
			<path d="M197.4,65.4l-0.4-3.5c0.8,0.2,1.5,0.3,2.1,0.3c0.8,0,1.5-0.1,2-0.4c0.5-0.3,0.9-0.7,1.2-1.1c0.2-0.4,0.6-1.3,1.1-2.7
				c0.1-0.2,0.2-0.5,0.3-0.9l-8.2-21.8h4l4.5,12.6c0.6,1.6,1.1,3.3,1.6,5c0.4-1.7,0.9-3.3,1.5-4.9l4.6-12.7h3.7l-8.3,22.1
				c-0.9,2.4-1.6,4-2.1,4.9c-0.7,1.2-1.4,2.1-2.3,2.7c-0.8,0.6-1.9,0.8-3,0.8C199,65.8,198.2,65.7,197.4,65.4z"/>
		</g>
		<path d="M0,1.6V80h78.4V1.6H0z M25.9,46.5V31.5c0-3,2.4-5.4,5.4-5.4c1.9,0,3.5,1,4.5,2.4l7.1,11.1l0-8.1c0-3,2.4-5.4,5.4-5.4
			c1.9,0,3.5,1,4.5,2.4l7.1,11.1V26.1h3.7l0,23.9c0,0.4-0.3,0.6-0.6,0.6c-0.2,0-0.4-0.1-0.5-0.3L49.7,30.5c-0.3-0.5-0.8-0.8-1.4-0.8
			c-0.9,0-1.7,0.8-1.7,1.7V50c0,0.4-0.3,0.6-0.6,0.6c-0.2,0-0.4-0.1-0.5-0.3L32.7,30.5c-0.3-0.5-0.8-0.8-1.4-0.8
			c-0.9,0-1.7,0.8-1.7,1.7l0,18.7c0,0.3-0.2,0.5-0.5,0.5h-9.7c-5.5,0-9.9-4.5-9.9-10c0-5.5,4.4-10,9.9-10c0,0,5.5,0,5.5,0
			c0,0,0,3.7,0,3.7l-5.5,0c-3.5,0-6.3,2.8-6.3,6.3c0,3.5,2.8,6.3,6.3,6.3h6.1C25.7,47.1,25.9,46.8,25.9,46.5z M68.2,50
			c0,3-2.4,5.4-5.4,5.4c-1.9,0-3.5-1-4.5-2.4l-7.1-11.2V50c0,3-2.4,5.4-5.4,5.4c-1.9,0-3.5-1-4.5-2.4l-7.1-11.2l0,8.9
			c0,2.6-2.1,4.7-4.7,4.7H19.4c-8.1,0-14.6-6.6-14.6-14.6c0-8.1,6.6-14.6,14.6-14.6c0,0,5.5,0,5.5,0v3.6h-5.5c-6.1,0-11,4.9-11,11
			s4.9,11,11,11l10.3,0c0.6,0,1-0.5,1-1V31.5c0-0.4,0.3-0.6,0.6-0.6c0.2,0,0.4,0.1,0.5,0.3L44.5,51c0.3,0.5,0.8,0.8,1.4,0.8
			c0.9,0,1.7-0.8,1.7-1.7V31.5c0-0.4,0.3-0.6,0.6-0.6c0.2,0,0.4,0.1,0.5,0.3L61.4,51c0.3,0.5,0.8,0.8,1.4,0.8c0.9,0,1.7-0.8,1.7-1.7
			V26.1h3.6V50z"/>
	</g>
</g>
<g id="Layer_1">
</g>
</svg>
