<?xml version="1.0" encoding="utf-8"?>
<!-- Generator: Adobe Illustrator 18.0.0, SVG Export Plug-In . SVG Version: 6.00 Build 0)  -->
<!DOCTYPE svg PUBLIC "-//W3C//DTD SVG 1.1//EN" "http://www.w3.org/Graphics/SVG/1.1/DTD/svg11.dtd">
<svg version="1.1" xmlns="http://www.w3.org/2000/svg" xmlns:xlink="http://www.w3.org/1999/xlink" x="0px" y="0px"
	 viewBox="0 0 300 25.3" style="enable-background:new 0 0 300 25.3;" xml:space="preserve">
<style type="text/css">
	.st0{fill-rule:evenodd;clip-rule:evenodd;}
	.st1{fill-rule:evenodd;clip-rule:evenodd;fill:#C038F9;}
	.st2{fill:none;}
	.st3{fill-rule:evenodd;clip-rule:evenodd;fill:#231F20;}
</style>
<g id="Layer_2">
</g>
<g id="Layer_1">
	<g>
		<path d="M6.5,3.6H4.8C2.5,3.6,1.1,4.7,1,7.9H0V2.5h17.4v5.4h-1c-0.1-3.2-1.5-4.4-3.8-4.4h-1.7v14.3c0,3.7,0,4.5,1.4,4.5h0.9v0.8
			H4.2v-0.8h0.9c1.3,0,1.4-0.8,1.4-4.5V3.6L6.5,3.6z"/>
		<path d="M17.9,22.4h0.7c1.2,0,1.2-0.7,1.2-4.1v-9c0-3.4,0-4.1-1.2-4.1h-0.6V4.6h7.7v0.8h-0.6c-1.2,0-1.2,0.7-1.2,4.1v3.7h6.3V9.4
			c0-3.4,0-4.1-1.2-4.1h-0.6V4.6h7.7v0.8h-0.6c-1.2,0-1.2,0.7-1.2,4.1v9c0,3.4,0,4.1,1.2,4.1h0.7v0.8h-7.7v-0.8h0.6
			c1.2,0,1.2-0.7,1.2-4.1V14h-6.3v4.3c0,3.4,0,4.1,1.2,4.1h0.6v0.8h-7.7V22.4L17.9,22.4z"/>
		<path d="M36.4,22.4h0.7c1.2,0,1.2-0.7,1.2-4.1v-9c0-3.4,0-4.1-1.2-4.1h-0.6V4.6h14V9h-0.9c-0.3-3-2-3.5-4-3.5h-3.3v7.6h2.2
			c1.7,0,3.2-0.4,3.2-2.9h0.9v6.6h-0.9c0-2.5-1.5-2.9-3.2-2.9h-2.2v8.2H45c2.4,0,4.6-0.4,4.7-3.7h0.9v4.6H36.4V22.4L36.4,22.4z"/>
		<path d="M66.9,7.2l-3.3,8.3h6.3L66.9,7.2L66.9,7.2L66.9,7.2z M69.9,22.4c1.2,0,2.1,0,2.1-0.9c0-0.6-0.4-1.7-0.9-3l-0.7-1.9h-7.1
			l-0.7,1.9c-0.4,1-0.7,2-0.7,2.8c0,0.8,0.6,1.2,1.5,1.2H64v0.8h-6v-0.8c1.4,0,1.9-0.8,2.8-3l5.4-13.6c0.4-1.1,0.9-2.2,1.2-3.5h2.5
			c0.4,1.5,0.8,2.8,1.3,4.1l5.1,13.9c0.3,0.9,0.8,2.1,1.8,2.1h0.6v0.8h-8.8V22.4L69.9,22.4z"/>
		<path d="M84,13.1h1.4c1.9,0,3.4-0.9,3.4-3.9c0-2.8-1.6-3.7-3.5-3.7H84V13.1L84,13.1L84,13.1z M92.2,23.6h-0.6
			c-2.6-0.2-2.9-3.3-2.9-6.2c0-1.8-0.3-3.4-2.6-3.4H84v4.3c0,3.4,0,4.1,1.2,4.1h0.7v0.8h-7.7v-0.8h0.7c1.2,0,1.2-0.7,1.2-4.1v-9
			c0-3.4,0-4.1-1.2-4.1h-0.6V4.6h8.7c3.5,0,6,1.3,6,4.4c0,2.6-2.1,4.1-4.2,4.5v0.1c3.3,0.5,3.9,2.3,3.9,5.2c0,1.4,0,3.4,0.8,3.4
			c0.4,0,0.8-0.4,1.1-0.9l0.6,0.4C94.6,22.9,93.5,23.5,92.2,23.6L92.2,23.6z"/>
		<path d="M95.3,22.4H96c1.2,0,1.2-0.7,1.2-4.1v-9c0-3.4,0-4.1-1.2-4.1h-0.6V4.6h7.7v0.8h-0.6c-1.2,0-1.2,0.7-1.2,4.1v9
			c0,3.4,0,4.1,1.2,4.1h0.7v0.8h-7.7V22.4L95.3,22.4z"/>
		<path d="M103.9,21.9l6.2-10.6c1.1-1.9,2.5-4.1,3.3-5.8h-4c-2.1,0.1-3.8,0.7-3.9,3.9h-0.9V4.6h13.3v1.2L111,17.5
			c-0.9,1.6-1.9,3.1-2.7,4.8h4.6c2.3,0,4-1,4.1-4.1h0.9v5h-14V21.9L103.9,21.9z"/>
		<path d="M127.1,22.9c3.4,0,3.7-4.3,3.7-9.1c0-5.7-0.7-8.9-3.7-8.9c-3,0-3.7,3.2-3.7,8.9C123.4,18.6,123.7,22.9,127.1,22.9
			L127.1,22.9L127.1,22.9z M127.5,23.6h-0.9c-5.2-0.2-7.5-4.9-7.5-9.9c0-5.1,2.7-9.5,7.9-9.5c5.2,0,7.9,4.5,7.9,9.5
			C135,18.7,132.7,23.4,127.5,23.6L127.5,23.6z"/>
		<path d="M137.2,9.4c0-3.4,0-4.1-1.2-4.1h-0.7V4.6h5.8c1.4,2.7,2.6,4.6,4.1,6.9l4.2,6.8h0V9.4c0-3.4,0-4.1-1.2-4.1h-1V4.6h5.3v0.8
			h-0.9c-1.2,0-1.2,0.7-1.2,4.1v14H148l-9.8-15.8h-0.1v10.8c0,3.4,0,4.1,1.2,4.1h0.9v0.8h-4.9v-0.8h0.7c1.2,0,1.2-0.7,1.2-4.1V9.4
			L137.2,9.4z"/>
		<path d="M159.3,8.8l-3,7.5h5.7L159.3,8.8L159.3,8.8L159.3,8.8z M162,22.4c1.1,0,1.9,0,1.9-0.8c0-0.5-0.4-1.5-0.8-2.7l-0.6-1.8H156
			l-0.7,1.7c-0.3,0.9-0.6,1.8-0.6,2.5c0,0.7,0.5,1.1,1.3,1.1h0.7v0.8h-5.4v-0.8c1.3,0,1.7-0.7,2.6-2.7l4.9-12.3c0.4-1,0.8-2,1.1-3.1
			h2.2c0.3,1.3,0.7,2.5,1.1,3.7l4.6,12.5c0.3,0.8,0.7,1.9,1.7,1.9h0.5v0.8h-8V22.4L162,22.4z"/>
		<path d="M183.3,12h1.6c2.2,0,3.8-1,3.8-4.3c0-3.1-1.8-4.1-3.9-4.1h-1.5V12L183.3,12L183.3,12z M192.8,23.6h-1.4
			c-2.6-0.5-2.9-3.8-2.9-6.8c0-2-0.3-3.7-2.9-3.7h-2.3v4.8c0,3.7,0,4.5,1.4,4.5h0.7v0.8h-8.5v-0.8h0.7c1.3,0,1.3-0.8,1.3-4.5v-10
			c0-3.7,0-4.5-1.4-4.5h-0.7V2.5h9.6c3.9,0,6.7,1.5,6.7,4.8c0,2.9-2.3,4.6-4.6,5v0.1c3.7,0.6,4.3,2.6,4.3,5.8c0,1.5,0,3.8,0.9,3.8
			c0.5,0,0.9-0.4,1.2-1l0.7,0.4C195.1,22.7,194,23.4,192.8,23.6L192.8,23.6z"/>
		<path d="M195.2,22.4h0.7c1.2,0,1.2-0.7,1.2-4.1v-9c0-3.4,0-4.1-1.2-4.1h-0.6V4.6h14V9h-0.9c-0.3-3-2-3.5-4-3.5H201v7.6h2.2
			c1.7,0,3.2-0.4,3.2-2.9h0.9v6.6h-0.9c-0.1-2.5-1.5-2.9-3.2-2.9H201v8.2h2.9c2.4,0,4.6-0.4,4.7-3.7h0.9v4.6h-14.3V22.4L195.2,22.4z
			"/>
		<path d="M216.2,13.5h0.9c2.1,0,3.9-1.4,3.9-4c0-2.6-1.4-4.1-3.5-4.1h-1.2V13.5L216.2,13.5L216.2,13.5z M210.4,22.4h0.7
			c1.2,0,1.2-0.7,1.2-4.1v-9c0-3.4,0-4.1-1.2-4.1h-0.6V4.6h8.5c2.9,0,6.1,1.2,6.1,4.8c0,4.1-3.8,5.1-6.9,5.1c-0.7,0-1.4,0-1.9-0.1v4
			c0,3.4,0,4.1,1.2,4.1h0.9v0.8h-7.9V22.4L210.4,22.4z"/>
		<path d="M242.3,5.3h-0.6c-1.2,0-1.2,0.7-1.2,4.1v7.8c0,3.7-2.2,6.2-5.9,6.4h-0.9c-4.3-0.2-6.5-2.7-6.5-6.5V9.4
			c0-3.4,0-4.1-1.2-4.1h-0.6V4.6h7.7v0.8h-0.6c-1.2,0-1.2,0.7-1.2,4.1v8.3c0,3.5,1.8,4.8,3.9,4.8c2.4,0,4.5-1.8,4.5-5.6V9.4
			c0-3.4,0-4.1-1.2-4.1h-0.7V4.6h4.9V5.3L242.3,5.3z"/>
		<path d="M248,13h1.7c2.3,0,3.4-1.5,3.4-3.8c0-1.8-0.6-3.6-3.3-3.6H248V13L248,13L248,13z M248,22.3h1.8c2.2,0,3.8-0.8,3.8-3.8
			c0-3.5-1.2-4.6-3.7-4.6H248V22.3L248,22.3L248,22.3z M242.2,22.4h0.7c1.2,0,1.2-0.7,1.2-4.1v-9c0-3.4,0-4.1-1.2-4.1h-0.6V4.6h8.9
			c2.6,0,5.9,0.9,5.9,4.4c0,2.6-2.3,4.1-4.5,4.3v0.1c2.4,0.1,5.1,1.8,5.1,4.6c0,4.3-3.8,5.2-7.4,5.2h-7.9V22.4L242.2,22.4z"/>
		<path d="M258.4,22.4h0.7c1.2,0,1.2-0.7,1.2-4.1v-9c0-3.4,0-4.1-1.2-4.1h-0.6V4.6h7.7v0.8h-0.6c-1.2,0-1.2,0.7-1.2,4.1v12.9h2.7
			c2.5,0,4.2-0.7,4.5-4h0.9v4.9h-13.8V22.4L258.4,22.4z"/>
		<path d="M272.2,22.4h0.7c1.2,0,1.2-0.7,1.2-4.1v-9c0-3.4,0-4.1-1.2-4.1h-0.6V4.6h7.7v0.8h-0.6c-1.2,0-1.2,0.7-1.2,4.1v9
			c0,3.4,0,4.1,1.2,4.1h0.7v0.8h-7.7V22.4L272.2,22.4z"/>
		<path d="M293.8,9.5h-0.9c-0.3-2.2-1.4-4.6-3.8-4.6c-4.1,0-4.5,6-4.5,9.2c0,3.2,0.4,8.7,4.5,8.7c2.3,0,3.8-1.9,4.1-4.8h0.9v5.4
			h-0.8c0-0.3-0.3-0.5-0.7-0.5c-0.5,0-2.1,0.5-3.5,0.6h-0.9c-5.4-0.2-7.7-4.4-7.7-9.3c0-5.4,2.7-10.2,8.3-10.2c2,0,2.8,0.7,3.8,0.7
			c0.4,0,0.6-0.3,0.6-0.6h0.8V9.5L293.8,9.5z"/>
	</g>
</g>
</svg>
