<?xml version="1.0" encoding="utf-8"?>
<!-- Generator: Adobe Illustrator 18.0.0, SVG Export Plug-In . SVG Version: 6.00 Build 0)  -->
<!DOCTYPE svg PUBLIC "-//W3C//DTD SVG 1.1//EN" "http://www.w3.org/Graphics/SVG/1.1/DTD/svg11.dtd">
<svg version="1.1" xmlns="http://www.w3.org/2000/svg" xmlns:xlink="http://www.w3.org/1999/xlink" x="0px" y="0px"
	 viewBox="0 0 300 41.3" style="enable-background:new 0 0 300 41.3;" xml:space="preserve">
<style type="text/css">
	.st0{fill-rule:evenodd;clip-rule:evenodd;}
	.st1{fill-rule:evenodd;clip-rule:evenodd;fill:#C038F9;}
	.st2{fill:none;}
	.st3{fill-rule:evenodd;clip-rule:evenodd;fill:#231F20;}
</style>
<g id="Layer_2">
	<g>
		<path d="M272,34.2c-0.9,0.9-2.2,2.3-3.3,3.6c-1.6-1.2-3.2-2.3-4.1-3V10.6c0-1.2-0.6-1.7-1.1-2V8.5l5.6-4.1l0.1,0.1v28.4
			C270.5,33.7,271,34,272,34.2L272,34.2"/>
		<path d="M246,16.6c-0.9,2-2.3,3.2-4.2,3.2c-1.8,0-2.5-0.5-3.8-1.8l-0.4,0.4v13.8c2.1,1.2,2.9,1.6,3.5,1.6c0.5,0,1-0.3,1.6-0.9
			l0.3,0.3c-1.6,1.6-3.1,3.1-4.4,4.5c-1.9-1.3-3.7-2.6-5.6-3.9V19.4c-0.7-0.6-1.7-1.4-2.6-1.7l0-0.1l3.1-3.4
			c1.5,1.3,2.6,2.2,4.2,3.4c1.3-1.2,2.3-2.1,3.5-3.3c1,1.3,2.9,2.1,4.8,2.2L246,16.6"/>
		<path d="M198.1,3.8c-1.2,2.7-2.7,4.3-4.6,4.3c-0.9,0-2.8-0.9-4.1-0.9c-1.5,0-2.6,0.5-3.5,2L185.7,9c0.4-3.7,2.6-5.5,5.2-5.5
			c1.6,0,3.2,1,4.6,1c0.9,0,1.6-0.2,2.5-0.9L198.1,3.8"/>
		<path d="M216.5,4.1c-0.3,1.7-1.6,3.2-3,3.9v24.7c1.3,0.3,2,0.6,3,1.3l-3.6,3.8c-1.3-1.2-2.9-1.8-4.5-1.8c-2.3,0-4,0.8-5.1,1.6
			l0-0.2c0.7-3.2,3.2-5,5.3-5.2V21.4H200v11.7c0.3,0.1,0.5,0.2,0.8,0.2c0.5,0,1.1-0.6,1.5-1.2l0.4,0.3c-1.1,1.3-3,3.5-4.4,5.4
			c-2.1-1.4-3.8-1.9-6.5-1.9c-2.3,0-4.3,0.6-5.8,1.5l-0.1-0.2c1.3-3.3,3.8-5.4,8.2-5.4c2,0,3.5,0.4,5.4,1.2V3h0.6v14.2h8.4v-9
			c-1.4-0.3-2.6-0.9-3.5-1.8c1.1-1.1,2.4-2.5,3.5-3.6c1.2,1,2.7,1.8,4.6,1.8c1.1,0,2.3-0.2,3.3-0.6L216.5,4.1"/>
		<path d="M197.9,8.2c-0.5,0.9-0.7,2.1-0.7,4.9v10.4c0,3.3-2.4,6.1-5.8,7.1l-0.2-0.1c0.6-0.6,1-1.5,1-2.6v-6.4H191
			c-1.8,0-2.5,0.9-2.7,1.9h-0.1c-0.5-0.4-1.1-1.2-1.1-2.6c0-2.1,1.6-3.5,4-3.5h1.1v-2.3c0-3.9,2.4-5.9,5.5-6.8L197.9,8.2"/>
		<path d="M174.2,8.2c-0.7,0.8-1.5,1.6-2.5,2.8c-0.8-0.7-2-1.5-3.1-2.4c0.8-0.9,1.7-1.8,2.6-2.9C172.1,6.6,173.2,7.5,174.2,8.2"/>
		<path d="M176.8,34.1c0,0-1.2,1.3-3.1,3.7c-1.2-1-2.8-2.1-4.1-3V18.9c-0.9-0.7-1.4-1-1.8-1.1l0-0.1l3-3.4c1.2,0.9,2.2,1.6,3.4,2.5
			v16C175.4,33.6,176.3,34,176.8,34.1L176.8,34.1"/>
		<path d="M167.6,34.1c0,0-0.9,1-3.1,3.7c-1.4-1.1-2.6-2-4.1-3V19.6l-3.6-2.2l-1.8,1.5V34c0.7,0.4,1.3,0.8,1.3,0.8
			c-0.8,0.8-2.4,2.3-3.1,3c-1.1-0.9-2.7-2.1-2.7-2.1V19.5l-3.2-2.2l-2.2,1.8V34c0.4,0.3,0.9,0.6,1.3,0.8c-1.1,1-2.2,2.1-3.1,3.1
			c-1-0.8-2-1.6-2.7-2.1V19.5c-1.5-1.3-2-1.6-2.7-1.7l0-0.1c1.1-1.1,2.3-2.3,3.2-3.4c1.4,1.1,3,2.4,4.6,3.6c1.3-1,2.8-2.2,4.6-3.6
			c1.4,1,3.4,2.4,5,3.6c1.5-1.2,3-2.4,4.5-3.7c1.3,0.9,4.2,2.6,5.4,3.4v15.2C165.9,33.5,166.7,33.9,167.6,34.1L167.6,34.1"/>
		<path d="M117.6,8.2c-0.7,0.8-1.5,1.6-2.5,2.8c-0.8-0.7-2-1.5-3.1-2.4c0.8-0.9,1.7-1.8,2.6-2.9C115.6,6.6,116.6,7.5,117.6,8.2"/>
		<path d="M120.3,34.1c0,0-1.2,1.3-3.1,3.7c-1.2-1-2.8-2.1-4.1-3V18.9c-0.9-0.7-1.4-1-1.8-1.1l0-0.1l3-3.4c1.2,0.9,2.2,1.6,3.4,2.5
			v16C118.8,33.6,119.7,34,120.3,34.1L120.3,34.1"/>
		<path d="M82,3.7C80.8,6.4,79.3,8,77.3,8c-0.9,0-2.8-0.9-4.1-0.9c-1.5,0-2.6,0.5-3.5,2l-0.2-0.1c0.4-3.7,2.7-5.5,5.3-5.5
			c1.6,0,3.2,1,4.6,1c0.9,0,1.6-0.3,2.3-0.8L82,3.7"/>
		<path d="M45.7,34.2c-0.9,0.9-2,2.2-3.2,3.6c-1.4-1.1-3.2-2.4-4.1-3V20.2c-1.2-0.9-2.4-1.8-3.7-2.7c-0.7,0.6-1.2,1-1.8,1.6V34
			c0.4,0.3,0.7,0.5,1.2,0.8l-3.1,3.1c-1.2-1-2.2-1.7-2.7-2.1V10.6c0-1.1-0.3-1.8-0.9-2.2V8.3l5.4-4l0.1,0v14l4.6-4
			c1.7,1.3,3.5,2.5,5.4,3.6v14.9C44,33.5,44.9,34,45.7,34.2L45.7,34.2"/>
		<path d="M283.6,33.7V17.8l-3-2.9c-1,0.6-1.8,1-2.5,1.5v14.8c1.3,1,3.6,2.5,4.7,3.1L283.6,33.7 M288.1,31.4
			c-3.5,1.9-6.1,4.1-8.5,6.4c-1.9-1.4-4.2-3-6.1-4.3V18.3c2-1.1,4.2-2.3,6.7-3.8l-5.2-5.2c-1-1-1.7-1.5-2.5-1.8l0-0.1
			c1.6-1.1,2.9-2.1,3.9-3.1c2,2.1,6.5,6.6,11.7,11.9V31.4z"/>
		<path d="M255.2,33.3v-7.5c-0.7-0.2-1.5-0.4-2.6-0.4c-2.3,0-3,1.8-3,4.1c0,2.5,0.9,4.4,2.6,5.5L255.2,33.3 M255.2,25.1v-4.7
			c-1.7-1.2-2.9-2.1-4.9-3.4l-0.3,0.2v8c0.8-0.2,1.9-0.4,2.4-0.4C253.6,24.8,254.4,24.9,255.2,25.1z M262.2,34.4l-2.8,3.3
			c-1.5-1.2-2.7-2.1-4.6-3.5c-2,1.1-3,1.9-5.7,3.6c-2.3-1.3-4-3.6-4-6.8c0-2.5,1.6-4.7,4.8-5.8c-1.4-1-2-1.3-3.2-1.9v-4.9
			c2.7-1.4,4.3-2.3,6.9-4c2.1,1.4,3.7,2.4,6.3,4.1v14.7C261,34.1,261.6,34.3,262.2,34.4L262.2,34.4z"/>
		<path d="M226.4,23.2c-1.2-1.9-2.6-4.4-3.6-6.1l-0.4,0.2v8.3L226.4,23.2 M230.5,21.3l-8,4.9v5.8c2.1,1.3,2.9,1.8,3.6,1.8
			c0.6,0,1.1-0.5,2.2-1.6l0.4,0.4c-1.7,1.6-3.4,3.3-5.1,5.2c-1.8-1.3-3.8-2.7-5.5-3.9V19.6c2.3-1.4,6.2-3.9,8.1-5.3
			C227.3,16.4,228.8,18.7,230.5,21.3z"/>
		<path d="M131,33.3v-7.5c-0.7-0.2-1.5-0.4-2.6-0.4c-2.3,0-3,1.8-3,4.1c0,2.5,0.9,4.4,2.6,5.5L131,33.3 M131,25.1v-4.7
			c-1.7-1.2-2.9-2.1-4.9-3.4l-0.2,0.2v8c0.8-0.2,1.9-0.4,2.4-0.4C129.4,24.8,130.2,24.9,131,25.1z M138,34.4l-2.8,3.3
			c-1.5-1.2-2.7-2.1-4.6-3.5c-2,1.1-3,1.9-5.7,3.6c-2.3-1.3-4-3.6-4-6.8c0-2.5,1.6-4.7,4.8-5.8c-1.4-1-2-1.3-3.2-1.9v-4.9
			c2.7-1.4,4.3-2.3,6.9-4c2.1,1.4,3.7,2.4,6.3,4.1v14.7C136.8,34.1,137.4,34.3,138,34.4L138,34.4z"/>
		<path d="M102.7,32.2V21.4h-5.7v11.4c1.5,0.8,2.1,1.2,3,1.2c0.5,0,0.9-0.4,1.3-0.7C101.3,33.3,102.1,32.6,102.7,32.2 M89.2,17.2
			V8.5c0,0-2.6-1.9-3.9-2.8l-2,1.2v10.3H89.2z M96.4,32.6V6.8L94.3,8v24C95.1,32.1,95.6,32.4,96.4,32.6z M102.7,17.2V8.6
			c-2-0.4-3.3-1.5-4.4-2.9l-1.3,0.8v10.7H102.7z M111.2,33.8c0,0-2.5,2.4-4.1,4c-1.4-1.3-3.5-2.9-5.3-4.3c-1.3,1-4.6,3.4-5.7,4.3
			c-1.5-1.1-3.5-2-6.5-2c-2,0-3.4,0.7-4.5,1.4L85,37c0.6-1.7,2.2-3.8,4.3-4.8V21.4h-5.9V33c0,3.1-2,4.9-5.2,4.9
			c-2.2,0-4.4-1.1-6.5-1.1c-2.2,0-3.1,0.6-4,1.6l-0.3-0.1c0.2-3.5,2-5.6,5.4-5.6c2.2,0,4.6,1.1,7,1.1c2.1,0,2.9-0.7,2.9-2.8V7.2
			c-1,0.6-1.4,0.9-2.2,1.3v16.8c0,3.6-3.1,5.4-6.7,5.8l0-0.1c0.9-0.6,1.7-2,1.7-4v-5.5h-0.8c-1.8,0-2.5,0.9-2.7,1.9l-0.1,0
			c-0.5-0.4-1.1-1.2-1.1-2.6c0-2.1,1.7-3.5,4-3.5h0.7v-2.5c0-3.2,2-5.1,4.9-6.8l9.1-5.3c1.8,1.3,4,2.9,5.8,4.1l7-4
			c1.2,1.4,2.5,2.5,4.8,2.5c1.2,0,2.3-0.2,2.9-0.4l0.1,0.1c-0.2,1.6-1.1,3-2.6,3.8v23.3C109.1,33,110.2,33.7,111.2,33.8L111.2,33.8z
			"/>
		<path d="M55.8,23.2c-1.2-1.9-2.6-4.4-3.6-6.1l-0.4,0.2v8.3L55.8,23.2 M59.9,21.3l-8,4.9v5.8c2.1,1.3,2.9,1.8,3.6,1.8
			c0.6,0,1.1-0.5,2.2-1.6l0.4,0.4c-1.7,1.6-3.4,3.3-5,5.2c-1.8-1.3-3.8-2.7-5.6-3.9V19.6c2.3-1.4,6.1-3.9,8.1-5.3
			C56.6,16.4,58.1,18.7,59.9,21.3z"/>
		<path d="M10.2,28.7V17c-1.3,0.6-2.7,1.2-4,1.8c-0.3,1.3-0.4,2.5-0.4,3.9c0,3,0.5,5.4,1.9,7.5C8.5,29.6,9.5,29.1,10.2,28.7
			 M26.7,29.3c-1.5,5.3-5.8,9.3-13,9.3c-8.2,0-13.3-5.7-13.3-13.8c0-5.8,3.8-11.2,10.1-13.5l0.2,0.1c-1.8,2.1-3.4,3.8-4.4,6.6
			l8.7-3.8v10.7c0,0.5,0.3,1.1,0.5,1.4v0.1c-2,1.1-6,3.3-7.7,4.2c2,2.5,4.8,4,8.6,4c1,0,1.8-0.1,2.9-0.4V11.8
			c-1.9-0.1-4.6-1-6.7-1.6c-2.5-0.7-5.2-1.4-7.1-1.4c-2.5,0-4.2,0.7-4.2,2.8c0,0.7,0.3,1.4,0.6,2l-0.3,0C0.8,12.9,0,11.5,0,9.9
			c0-4.4,3.8-6,7.8-6c1.6,0,4.1,0.7,6.7,1.5c1.8,0.6,4.9,1.6,6.7,1.6c1.6,0,2.4-0.7,2.4-1.9c0-1-0.3-1.6-1.1-2.2l0.3-0.2
			c1.9,0.6,3.3,2.2,3.3,4.5c0,3-1.7,4.7-6.1,4.7v22.3c3-0.9,5-3,6.6-4.9L26.7,29.3z"/>
	</g>
</g>
<g id="Layer_1">
</g>
</svg>
