<?xml version="1.0" encoding="utf-8"?>
<!-- Generator: Adobe Illustrator 18.0.0, SVG Export Plug-In . SVG Version: 6.00 Build 0)  -->
<!DOCTYPE svg PUBLIC "-//W3C//DTD SVG 1.1//EN" "http://www.w3.org/Graphics/SVG/1.1/DTD/svg11.dtd">
<svg version="1.1" id="Layer_1" xmlns="http://www.w3.org/2000/svg" xmlns:xlink="http://www.w3.org/1999/xlink" x="0px" y="0px"
	 viewBox="0 0 570.9 31.9" style="enable-background:new 0 0 570.9 31.9;" xml:space="preserve">
<style type="text/css">
	.st0{fill:#FFFFFF;}
</style>
<g>
	<path class="st0" d="M9.1,6.4H2.9C1.3,6.4,0,5,0,3.4s1.3-2.9,2.9-2.9h18.6c1.6,0,2.9,1.3,2.9,2.9s-1.3,2.9-2.9,2.9h-6.1v20.2
		c0,1.8-1.4,3.2-3.2,3.2c-1.8,0-3.2-1.4-3.2-3.2V6.4z"/>
	<path class="st0" d="M30.6,3.4c0-1.8,1.4-3.2,3.2-3.2c1.8,0,3.2,1.4,3.2,3.2V12h11.8V3.4c0-1.8,1.4-3.2,3.2-3.2s3.2,1.4,3.2,3.2
		v23.1c0,1.8-1.4,3.2-3.2,3.2s-3.2-1.4-3.2-3.2v-8.7H37v8.7c0,1.8-1.4,3.2-3.2,3.2c-1.8,0-3.2-1.4-3.2-3.2V3.4z"/>
	<path class="st0" d="M63.5,26.3V3.7c0-1.8,1.4-3.2,3.2-3.2h16.1c1.6,0,2.9,1.3,2.9,2.9s-1.3,2.8-2.9,2.8H69.8V12h11
		c1.6,0,2.9,1.3,2.9,2.9s-1.3,2.8-2.9,2.8h-11v6.1h13.1c1.6,0,2.9,1.3,2.9,2.9s-1.3,2.8-2.9,2.8H66.7C64.9,29.5,63.5,28.1,63.5,26.3
		z"/>
	<path class="st0" d="M106.5,3.4c0-1.8,1.4-3.2,3.2-3.2s3.2,1.4,3.2,3.2V12h11.8V3.4c0-1.8,1.4-3.2,3.2-3.2c1.8,0,3.2,1.4,3.2,3.2
		v23.1c0,1.8-1.4,3.2-3.2,3.2c-1.8,0-3.2-1.4-3.2-3.2v-8.7h-11.8v8.7c0,1.8-1.4,3.2-3.2,3.2s-3.2-1.4-3.2-3.2V3.4z"/>
	<path class="st0" d="M139.4,26.3V3.7c0-1.8,1.4-3.2,3.2-3.2h16.1c1.6,0,2.9,1.3,2.9,2.9s-1.3,2.8-2.9,2.8h-12.9V12h11
		c1.6,0,2.9,1.3,2.9,2.9s-1.3,2.8-2.9,2.8h-11v6.1h13.1c1.6,0,2.9,1.3,2.9,2.9s-1.3,2.8-2.9,2.8h-16.3
		C140.8,29.5,139.4,28.1,139.4,26.3z"/>
	<path class="st0" d="M167.2,15.1L167.2,15.1c0-8.3,6.2-15.1,15.1-15.1c4.3,0,7.3,1.2,9.7,2.9c0.7,0.5,1.2,1.4,1.2,2.5
		c0,1.7-1.4,3.1-3.1,3.1c-0.9,0-1.4-0.3-1.9-0.6c-1.8-1.3-3.6-2.1-5.9-2.1c-4.9,0-8.4,4.1-8.4,9V15c0,5,3.4,9.1,8.4,9.1
		c2.7,0,4.5-0.8,6.3-2.3c0.5-0.4,1.2-0.7,1.9-0.7c1.6,0,3,1.3,3,2.9c0,1-0.5,1.8-1.1,2.3c-2.6,2.3-5.7,3.6-10.3,3.6
		C173.6,30,167.2,23.4,167.2,15.1z"/>
	<path class="st0" d="M200.5,3.4c0-1.8,1.4-3.2,3.2-3.2c1.8,0,3.2,1.4,3.2,3.2V12h11.8V3.4c0-1.8,1.4-3.2,3.2-3.2s3.2,1.4,3.2,3.2
		v23.1c0,1.8-1.4,3.2-3.2,3.2s-3.2-1.4-3.2-3.2v-8.7h-11.8v8.7c0,1.8-1.4,3.2-3.2,3.2c-1.8,0-3.2-1.4-3.2-3.2V3.4z"/>
	<path class="st0" d="M233.7,3.4c0-1.8,1.4-3.2,3.2-3.2c1.8,0,3.2,1.4,3.2,3.2v23.1c0,1.8-1.4,3.2-3.2,3.2c-1.8,0-3.2-1.4-3.2-3.2
		V3.4z"/>
	<path class="st0" d="M248.7,3.5c0-1.8,1.4-3.2,3.2-3.2h0.7c1.5,0,2.4,0.7,3.3,1.9l12.3,16.1V3.4c0-1.7,1.4-3.1,3.1-3.1
		s3.1,1.4,3.1,3.1v23c0,1.8-1.4,3.2-3.2,3.2H271c-1.5,0-2.4-0.7-3.3-1.9L255,11.1v15.5c0,1.7-1.4,3.1-3.1,3.1s-3.1-1.4-3.1-3.1V3.5z
		"/>
	<path class="st0" d="M281.6,15.1L281.6,15.1C281.6,6.7,288,0,296.8,0c4.4,0,7.3,1,9.9,2.8c0.6,0.5,1.3,1.3,1.3,2.6
		c0,1.7-1.4,3.1-3.1,3.1c-0.9,0-1.5-0.3-1.9-0.7c-1.7-1.2-3.6-2-6.3-2c-4.6,0-8.3,4.1-8.3,9V15c0,5.3,3.6,9.2,8.8,9.2
		c2.3,0,4.4-0.6,6-1.7v-4.1h-4.3c-1.5,0-2.8-1.2-2.8-2.7s1.2-2.8,2.8-2.8h7.3c1.8,0,3.2,1.4,3.2,3.2v7c0,1.9-0.7,3.1-2.2,4.1
		c-2.4,1.4-5.8,2.9-10.1,2.9C287.8,30,281.6,23.6,281.6,15.1z"/>
	<path class="st0" d="M316.7,26.3V3.7c0-1.8,1.4-3.2,3.2-3.2H336c1.6,0,2.9,1.3,2.9,2.9s-1.3,2.8-2.9,2.8h-12.9V12h11.1
		c1.6,0,2.9,1.3,2.9,2.9s-1.3,2.8-2.9,2.8h-11.1v6.1h13.1c1.6,0,2.9,1.3,2.9,2.9s-1.3,2.8-2.9,2.8h-16.3
		C318.2,29.5,316.7,28.1,316.7,26.3z"/>
	<path class="st0" d="M345.9,3.7c0-1.8,1.4-3.2,3.2-3.2h10.1c3.7,0,6.5,1,8.4,2.9c1.6,1.6,2.5,3.9,2.5,6.6v0.1
		c0,4.6-2.3,7.4-5.8,8.8l4.4,5.4c0.6,0.8,1,1.4,1,2.4c0,1.8-1.5,2.9-3,2.9c-1.4,0-2.4-0.7-3.1-1.7l-6.2-7.9h-5.1v6.3
		c0,1.8-1.4,3.2-3.2,3.2s-3.2-1.4-3.2-3.2V3.7z M358.7,14.6c3.1,0,4.9-1.7,4.9-4.1v-0.1c0-2.7-1.9-4.1-5-4.1h-6.3v8.3H358.7z"/>
	<path class="st0" d="M391.1,3.7c0-1.8,1.4-3.2,3.2-3.2h10.1c3.7,0,6.5,1,8.4,2.9c1.6,1.6,2.5,3.9,2.5,6.6v0.1
		c0,4.6-2.3,7.4-5.8,8.8l4.4,5.4c0.6,0.8,1,1.4,1,2.4c0,1.8-1.5,2.9-3,2.9c-1.4,0-2.4-0.7-3.1-1.7l-6.2-7.9h-5.1v6.3
		c0,1.8-1.4,3.2-3.2,3.2s-3.2-1.4-3.2-3.2V3.7z M403.9,14.6c3.1,0,4.9-1.7,4.9-4.1v-0.1c0-2.7-1.9-4.1-5-4.1h-6.3v8.3H403.9z"/>
	<path class="st0" d="M422.5,26.3V3.7c0-1.8,1.4-3.2,3.2-3.2h16.1c1.6,0,2.9,1.3,2.9,2.9s-1.3,2.8-2.9,2.8h-12.9V12h11.1
		c1.6,0,2.9,1.3,2.9,2.9s-1.3,2.8-2.9,2.8h-11.1v6.1h13.1c1.6,0,2.9,1.3,2.9,2.9s-1.3,2.8-2.9,2.8h-16.3
		C423.9,29.5,422.5,28.1,422.5,26.3z"/>
	<path class="st0" d="M451.6,3.7c0-1.8,1.4-3.2,3.2-3.2h8.6c6.9,0,11.1,4.1,11.1,10v0.1c0,6.7-5.2,10.2-11.7,10.2H458v5.8
		c0,1.8-1.4,3.2-3.2,3.2s-3.2-1.4-3.2-3.2V3.7z M463,15.1c3.2,0,5-1.9,5-4.4v-0.1c0-2.9-2-4.4-5.2-4.4H458v8.9H463z"/>
	<path class="st0" d="M479.4,15.1L479.4,15.1c0-8.3,6.5-15.1,15.4-15.1c8.9,0,15.4,6.7,15.4,14.9V15c0,8.2-6.5,15-15.4,15
		C485.9,30,479.4,23.3,479.4,15.1z M503.6,15.1L503.6,15.1c0-5-3.6-9.2-8.8-9.2c-5.1,0-8.7,4.1-8.7,9V15c0,5,3.6,9.1,8.8,9.1
		S503.6,20,503.6,15.1z"/>
	<path class="st0" d="M517.4,3.7c0-1.8,1.4-3.2,3.2-3.2h10.1c3.7,0,6.5,1,8.4,2.9c1.6,1.6,2.5,3.9,2.5,6.6v0.1
		c0,4.6-2.3,7.4-5.8,8.8l4.4,5.4c0.6,0.8,1,1.4,1,2.4c0,1.8-1.5,2.9-3,2.9c-1.4,0-2.4-0.7-3.1-1.7l-6.2-7.9h-5.1v6.3
		c0,1.8-1.4,3.2-3.2,3.2s-3.2-1.4-3.2-3.2V3.7z M530.2,14.6c3.1,0,4.9-1.7,4.9-4.1v-0.1c0-2.7-1.9-4.1-5-4.1h-6.3v8.3H530.2z"/>
	<path class="st0" d="M555.5,6.4h-6.1c-1.6,0-2.9-1.3-2.9-2.9s1.3-2.9,2.9-2.9H568c1.6,0,2.9,1.3,2.9,2.9s-1.3,2.9-2.9,2.9h-6.1
		v20.2c0,1.8-1.4,3.2-3.2,3.2s-3.2-1.4-3.2-3.2V6.4z"/>
</g>
<g>
</g>
<g>
</g>
<g>
</g>
<g>
</g>
<g>
</g>
<g>
</g>
</svg>
