<?xml version="1.0" encoding="utf-8"?>
<!-- Generator: Adobe Illustrator 18.0.0, SVG Export Plug-In . SVG Version: 6.00 Build 0)  -->
<!DOCTYPE svg PUBLIC "-//W3C//DTD SVG 1.1//EN" "http://www.w3.org/Graphics/SVG/1.1/DTD/svg11.dtd">
<svg version="1.1" id="Layer_1" xmlns="http://www.w3.org/2000/svg" xmlns:xlink="http://www.w3.org/1999/xlink" x="0px" y="0px"
	 viewBox="0 0 42 42" style="enable-background:new 0 0 42 42;" xml:space="preserve">
<path d="M26.2,26.2c-5.8,0-10.5-4.7-10.5-10.5S20.5,5.2,26.2,5.2S36.8,10,36.8,15.8S32,26.2,26.2,26.2 M26.2,0
	c-8.7,0-15.8,7-15.8,15.8c0,3.1,0.9,6,2.4,8.4L1,36c-1.4,1.4-1.4,3.6,0,5c0.7,0.7,1.6,1,2.5,1c0.9,0,1.8-0.3,2.5-1l11.9-11.9
	c2.4,1.6,5.3,2.4,8.4,2.4c8.7,0,15.8-7,15.8-15.8S35,0,26.2,0"/>
<g>
</g>
<g>
</g>
<g>
</g>
<g>
</g>
<g>
</g>
<g>
</g>
</svg>
