<?xml version="1.0" encoding="utf-8"?>
<!-- Generator: Adobe Illustrator 18.0.0, SVG Export Plug-In . SVG Version: 6.00 Build 0)  -->
<!DOCTYPE svg PUBLIC "-//W3C//DTD SVG 1.1//EN" "http://www.w3.org/Graphics/SVG/1.1/DTD/svg11.dtd">
<svg version="1.1" id="Layer_1" xmlns="http://www.w3.org/2000/svg" xmlns:xlink="http://www.w3.org/1999/xlink" x="0px" y="0px"
	 viewBox="0 0 67.7 72.5" style="enable-background:new 0 0 67.7 72.5;" xml:space="preserve">
<path d="M23.5,47.2c0,1.3,1,2.3,2.2,2.3c1.2,0,2.2-1,2.2-2.3v-8.9h11.9v8.9c0,1.3,1,2.3,2.2,2.3c1.3,0,2.2-1,2.2-2.3V25.3
	c0-1.3-1-2.3-2.2-2.3c-1.2,0-2.2,1-2.2,2.3V34H27.9v-8.7c0-1.3-1-2.3-2.2-2.3c-1.2,0-2.2,1-2.2,2.3V47.2z"/>
<path d="M8.2,67.2h47.3v1.6H6.8L8.2,67.2z M13.1,62h42.4v1.6H11.6L13.1,62z M3.5,14.1h5.2v47.4l-5.2,5.6V14.1z M12.2,14.1h43.3v44.3
	H12.2V14.1z M8.7,5.8v4.7H4.5L8.7,5.8z M12.2,3.6h52v54.7H59V10.5H12.2V3.6z M8.7,0L0,9.9v62.6h59v-5.2h3.6l3.4-3.7h-7V62h8.7V0H8.7
	z"/>
<g>
</g>
<g>
</g>
<g>
</g>
<g>
</g>
<g>
</g>
<g>
</g>
</svg>
