<?xml version="1.0" encoding="utf-8"?>
<!-- Generator: Adobe Illustrator 18.0.0, SVG Export Plug-In . SVG Version: 6.00 Build 0)  -->
<!DOCTYPE svg PUBLIC "-//W3C//DTD SVG 1.1//EN" "http://www.w3.org/Graphics/SVG/1.1/DTD/svg11.dtd">
<svg version="1.1" id="Layer_1" xmlns="http://www.w3.org/2000/svg" xmlns:xlink="http://www.w3.org/1999/xlink" x="0px" y="0px"
   viewBox="0 0 33.8 27.6" style="enable-background:new 0 0 33.8 27.6;" xml:space="preserve">
<style type="text/css">
  .st0{fill:#ffffff;}
</style>
<path class="st0" d="M33.8,3.4c-1.3,0.6-2.6,0.9-4,1.1c1.5-0.9,2.5-2.2,3.1-3.8C31.5,1.4,30,2,28.5,2.3c-1.3-1.3-3.1-2.2-5.1-2.2
  c-3.8,0-6.9,3.1-6.9,6.9c0,0.5,0,1.1,0.1,1.6C10.9,8.4,5.8,5.8,2.3,1.6c-0.6,1-0.9,2.1-0.9,3.4c0,2.4,1.2,4.5,3.1,5.7
  c-1.1,0-2.2-0.3-3.1-0.9v0.1c0,3.4,2.4,6.2,5.6,6.8c-0.6,0.2-1.2,0.2-1.8,0.2c-0.4,0-0.9,0-1.3-0.1c0.9,2.7,3.4,4.8,6.5,4.8
  c-2.3,1.9-5.4,3.3-8.6,3.3c-0.6,0-1.1,0-1.6-0.1c3.1,2,6.7,2.8,10.6,2.8c12.7,0,19.7-10.6,19.7-19.7V7C31.7,6,32.8,4.8,33.8,3.4"/>
</svg>
