<?xml version="1.0" encoding="utf-8"?>
<!-- Generator: Adobe Illustrator 18.0.0, SVG Export Plug-In . SVG Version: 6.00 Build 0)  -->
<!DOCTYPE svg PUBLIC "-//W3C//DTD SVG 1.1//EN" "http://www.w3.org/Graphics/SVG/1.1/DTD/svg11.dtd">
<svg version="1.1" id="Layer_1" xmlns="http://www.w3.org/2000/svg" xmlns:xlink="http://www.w3.org/1999/xlink" x="0px" y="0px"
	 viewBox="0 0 23.7 23.7" style="enable-background:new 0 0 23.7 23.7;" xml:space="preserve">
<style type="text/css">
	.st0{fill:#231F20;}
</style>
<path class="st0" d="M16.3,23.2c0-8.7-7.1-15.8-15.8-15.8C0.2,7.4,0,7.6,0,7.9v3.5c0,0.3,0.2,0.5,0.5,0.5c6.3,0,11.4,5.1,11.4,11.4
	c0,0.3,0.2,0.5,0.5,0.5h3.5C16.1,23.7,16.3,23.5,16.3,23.2 M23.7,23.2C23.7,10.4,13.3,0,0.5,0C0.2,0,0,0.2,0,0.5V4
	c0,0.3,0.2,0.5,0.5,0.5c10.4,0,18.8,8.4,18.8,18.8c0,0.3,0.2,0.5,0.5,0.5h3.5C23.5,23.7,23.7,23.5,23.7,23.2 M7.4,20
	c0-2-1.7-3.7-3.7-3.7C1.6,16.3,0,18,0,20c0,2.1,1.6,3.7,3.7,3.7C5.7,23.7,7.4,22.1,7.4,20"/>
</svg>
