<?xml version="1.0" encoding="utf-8"?>
<!-- Generator: Adobe Illustrator 18.0.0, SVG Export Plug-In . SVG Version: 6.00 Build 0)  -->
<!DOCTYPE svg PUBLIC "-//W3C//DTD SVG 1.1//EN" "http://www.w3.org/Graphics/SVG/1.1/DTD/svg11.dtd">
<svg version="1.1" id="Layer_1" xmlns="http://www.w3.org/2000/svg" xmlns:xlink="http://www.w3.org/1999/xlink" x="0px" y="0px"
	 viewBox="0 0 22 17.8" style="enable-background:new 0 0 22 17.8;" xml:space="preserve">
<style type="text/css">
	.st0{fill:#CCD6DE;}
</style>
<path class="st0" d="M14.1,12.3h-1.4v-1h1.4V12.3z M11.6,12.3h-1.4v-1h1.4V12.3z M9.2,12.3H7.7v-1h1.4V12.3z M14.1,10.5h-1.4v-1h1.4
	V10.5z M11.6,10.5h-1.4v-1h1.4V10.5z M9.2,10.5H7.7v-1h1.4V10.5z M14.1,8.8h-1.4v-1h1.4V8.8z M11.6,8.8h-1.4v-1h1.4V8.8z M9.2,8.8
	H7.7v-1h1.4V8.8z M9.3,4.3H6.7v2.2l-3,4.9c-0.8,1.2-1.2,2.5-1.2,3.6v2.7h17.1V15c0-0.8-0.1-1.4-0.2-1.8c-0.1-0.5-0.4-1-0.9-1.8
	l-3.1-4.9V4.3h-2.6v1.6H9.3V4.3z M2.1,6.2C1.5,6.2,0.8,6.1,0,5.8v0.5C0,7.1,0.2,7.7,0.5,8c0.3,0.3,0.9,0.4,1.8,0.4
	c1.2,0,2.1-0.2,2.6-0.6c0.5-0.4,0.8-1.1,0.8-2V5.3C4.5,5.9,3.3,6.2,2.1,6.2 M19.9,6.1c-1.3,0-2.5-0.3-3.6-0.9v0.5
	c0,0.9,0.3,1.5,0.9,1.9c0.6,0.4,1.4,0.6,2.6,0.6c0.8,0,1.4-0.1,1.7-0.4C21.8,7.6,22,7.1,22,6.3V5.8C21.3,6,20.7,6.1,19.9,6.1
	 M16.1,0.4C14.4,0.1,12.7,0,10.9,0c-1.7,0-3.4,0.1-5,0.4C4.3,0.7,2.8,1.1,1.3,1.7C0.7,2.8,0.2,4,0,5.3c0.7,0.3,1.4,0.4,2.1,0.4
	c1.2,0,2.4-0.4,3.6-1.1V4.3c0-1.2,1.8-1.7,5.4-1.7c3.5,0,5.3,0.6,5.3,1.7v0.2c1.3,0.6,2.5,0.9,3.6,0.9c0.7,0,1.4-0.1,2-0.2
	c-0.2-1.3-0.7-2.5-1.3-3.6C19.2,1.1,17.7,0.7,16.1,0.4"/>
<g>
</g>
<g>
</g>
<g>
</g>
<g>
</g>
<g>
</g>
<g>
</g>
</svg>
