<?xml version="1.0" encoding="utf-8"?>
<!-- Generator: Adobe Illustrator 18.0.0, SVG Export Plug-In . SVG Version: 6.00 Build 0)  -->
<!DOCTYPE svg PUBLIC "-//W3C//DTD SVG 1.1//EN" "http://www.w3.org/Graphics/SVG/1.1/DTD/svg11.dtd">
<svg version="1.1" id="Layer_1" xmlns="http://www.w3.org/2000/svg" xmlns:xlink="http://www.w3.org/1999/xlink" x="0px" y="0px"
	 viewBox="0 0 598.2 72.5" style="enable-background:new 0 0 598.2 72.5;" xml:space="preserve">
<path d="M23.5,47.2c0,1.3,1,2.3,2.2,2.3c1.2,0,2.2-1,2.2-2.3v-8.9h11.9v8.9c0,1.3,1,2.3,2.2,2.3c1.3,0,2.2-1,2.2-2.3V25.3
	c0-1.3-1-2.3-2.2-2.3c-1.2,0-2.2,1-2.2,2.3V34H27.9v-8.7c0-1.3-1-2.3-2.2-2.3c-1.2,0-2.2,1-2.2,2.3V47.2z"/>
<path d="M8.2,67.2h47.3v1.6H6.8L8.2,67.2z M13.1,62h42.4v1.6H11.6L13.1,62z M3.5,14.1h5.2v47.4l-5.2,5.6V14.1z M12.2,14.1h43.3v44.3
	H12.2V14.1z M8.7,5.8v4.7H4.5L8.7,5.8z M12.2,3.6h52v54.7H59V10.5H12.2V3.6z M8.7,0L0,9.9v62.6h59v-5.2h3.6l3.4-3.7h-7V62h8.7V0H8.7
	z"/>
<g>
	<path d="M99.5,28.7h-5.7c-1.5,0-2.7-1.2-2.7-2.7c0-1.5,1.2-2.7,2.7-2.7h17.4c1.5,0,2.7,1.2,2.7,2.7c0,1.5-1.2,2.7-2.7,2.7h-5.7
		v18.8c0,1.7-1.3,3-3,3s-3-1.3-3-3V28.7z"/>
	<path d="M118.2,25.9c0-1.7,1.3-3,3-3c1.7,0,3,1.3,3,3v8h11v-8c0-1.7,1.3-3,3-3s3,1.3,3,3v21.5c0,1.7-1.3,3-3,3s-3-1.3-3-3v-8.1h-11
		v8.1c0,1.7-1.3,3-3,3c-1.7,0-3-1.3-3-3V25.9z"/>
	<path d="M147.6,47.3V26.2c0-1.7,1.3-3,3-3h15c1.5,0,2.7,1.2,2.7,2.7s-1.2,2.6-2.7,2.6h-12V34h10.3c1.5,0,2.7,1.2,2.7,2.7
		c0,1.5-1.2,2.6-2.7,2.6h-10.3v5.7h12.2c1.5,0,2.7,1.2,2.7,2.7s-1.2,2.6-2.7,2.6h-15.2C148.9,50.2,147.6,48.9,147.6,47.3z"/>
	<path d="M185,25.9c0-1.7,1.3-3,3-3c1.7,0,3,1.3,3,3v8h11v-8c0-1.7,1.3-3,3-3s3,1.3,3,3v21.5c0,1.7-1.3,3-3,3s-3-1.3-3-3v-8.1h-11
		v8.1c0,1.7-1.3,3-3,3c-1.7,0-3-1.3-3-3V25.9z"/>
	<path d="M214.4,47.3V26.2c0-1.7,1.3-3,3-3h15c1.5,0,2.7,1.2,2.7,2.7s-1.2,2.6-2.7,2.6h-12V34h10.3c1.5,0,2.7,1.2,2.7,2.7
		c0,1.5-1.2,2.6-2.7,2.6h-10.3v5.7h12.2c1.5,0,2.7,1.2,2.7,2.7s-1.2,2.6-2.7,2.6h-15.2C215.7,50.2,214.4,48.9,214.4,47.3z"/>
	<path d="M239,36.8L239,36.8c0-7.8,5.8-14.1,14.1-14.1c4.1,0,6.8,1.1,9,2.7c0.6,0.5,1.2,1.3,1.2,2.4c0,1.6-1.3,2.9-2.9,2.9
		c-0.8,0-1.4-0.3-1.8-0.6c-1.7-1.2-3.4-1.9-5.5-1.9c-4.6,0-7.8,3.8-7.8,8.4v0.1c0,4.6,3.2,8.5,7.8,8.5c2.5,0,4.2-0.8,5.9-2.1
		c0.5-0.4,1.1-0.7,1.8-0.7c1.5,0,2.8,1.2,2.8,2.7c0,0.9-0.5,1.7-1,2.1c-2.4,2.1-5.3,3.4-9.6,3.4C245,50.7,239,44.6,239,36.8z"/>
	<path d="M268.7,25.9c0-1.7,1.3-3,3-3s3,1.3,3,3v8h11v-8c0-1.7,1.3-3,3-3s3,1.3,3,3v21.5c0,1.7-1.3,3-3,3s-3-1.3-3-3v-8.1h-11v8.1
		c0,1.7-1.3,3-3,3s-3-1.3-3-3V25.9z"/>
	<path d="M298.4,25.9c0-1.7,1.3-3,3-3c1.7,0,3,1.3,3,3v21.5c0,1.7-1.3,3-3,3c-1.7,0-3-1.3-3-3V25.9z"/>
	<path d="M311.1,26c0-1.7,1.3-3,3-3h0.6c1.4,0,2.3,0.7,3.1,1.7l11.5,15.1V25.9c0-1.6,1.3-2.9,2.9-2.9s2.9,1.3,2.9,2.9v21.5
		c0,1.7-1.3,3-3,3h-0.2c-1.4,0-2.3-0.7-3.1-1.7l-11.9-15.6v14.5c0,1.6-1.3,2.9-2.9,2.9c-1.6,0-2.9-1.3-2.9-2.9V26z"/>
	<path d="M340.4,36.8L340.4,36.8c0-7.8,6-14.1,14.2-14.1c4.1,0,6.8,0.9,9.2,2.6c0.6,0.4,1.2,1.2,1.2,2.4c0,1.6-1.3,2.9-2.9,2.9
		c-0.8,0-1.4-0.3-1.8-0.6c-1.6-1.2-3.4-1.9-5.9-1.9c-4.3,0-7.8,3.8-7.8,8.4v0.1c0,4.9,3.4,8.6,8.2,8.6c2.2,0,4.1-0.5,5.6-1.6v-3.9
		h-4c-1.4,0-2.6-1.1-2.6-2.5c0-1.4,1.2-2.6,2.6-2.6h6.8c1.7,0,3,1.3,3,3v6.6c0,1.7-0.7,2.9-2.1,3.8c-2.2,1.3-5.4,2.7-9.5,2.7
		C346.2,50.7,340.4,44.8,340.4,36.8z"/>
	<path d="M371.8,47.3V26.2c0-1.7,1.3-3,3-3h15c1.5,0,2.7,1.2,2.7,2.7s-1.2,2.6-2.7,2.6h-12V34h10.3c1.5,0,2.7,1.2,2.7,2.7
		c0,1.5-1.2,2.6-2.7,2.6h-10.3v5.7H390c1.5,0,2.7,1.2,2.7,2.7s-1.2,2.6-2.7,2.6h-15.2C373.2,50.2,371.8,48.9,371.8,47.3z"/>
	<path d="M397.7,26.2c0-1.7,1.3-3,3-3h9.4c3.4,0,6.1,1,7.9,2.7c1.5,1.5,2.3,3.6,2.3,6.2v0.1c0,4.2-2.1,6.9-5.4,8.2l4.1,5
		c0.6,0.7,1,1.4,1,2.3c0,1.7-1.4,2.7-2.8,2.7c-1.3,0-2.2-0.7-2.9-1.5l-5.8-7.3h-4.7v5.9c0,1.7-1.3,3-3,3s-3-1.3-3-3V26.2z
		 M409.7,36.3c2.9,0,4.6-1.5,4.6-3.8v-0.1c0-2.5-1.8-3.9-4.7-3.9h-5.9v7.8H409.7z"/>
	<path d="M437.2,26.2c0-1.7,1.3-3,3-3h9.4c3.4,0,6.1,1,7.9,2.7c1.5,1.5,2.3,3.6,2.3,6.2v0.1c0,4.2-2.1,6.9-5.4,8.2l4.1,5
		c0.6,0.7,1,1.4,1,2.3c0,1.7-1.4,2.7-2.8,2.7c-1.3,0-2.2-0.7-2.9-1.5l-5.8-7.3h-4.7v5.9c0,1.7-1.3,3-3,3s-3-1.3-3-3V26.2z
		 M449.2,36.3c2.9,0,4.6-1.5,4.6-3.8v-0.1c0-2.5-1.8-3.9-4.7-3.9h-5.9v7.8H449.2z"/>
	<path d="M465.1,47.3V26.2c0-1.7,1.3-3,3-3h15c1.5,0,2.7,1.2,2.7,2.7s-1.2,2.6-2.7,2.6h-12V34h10.3c1.5,0,2.7,1.2,2.7,2.7
		c0,1.5-1.2,2.6-2.7,2.6H471v5.7h12.2c1.5,0,2.7,1.2,2.7,2.7s-1.2,2.6-2.7,2.6h-15.2C466.4,50.2,465.1,48.9,465.1,47.3z"/>
	<path d="M491,26.2c0-1.7,1.3-3,3-3h8.1c6.4,0,10.3,3.8,10.3,9.3v0.1c0,6.3-4.9,9.5-10.9,9.5H497v5.4c0,1.7-1.3,3-3,3s-3-1.3-3-3
		V26.2z M501.7,36.8c3,0,4.7-1.8,4.7-4.1v-0.1c0-2.7-1.9-4.1-4.8-4.1H497v8.3H501.7z"/>
	<path d="M515.6,36.8L515.6,36.8c0-7.8,6.1-14.1,14.4-14.1c8.3,0,14.3,6.2,14.3,13.9v0.1c0,7.7-6.1,14-14.4,14
		C521.6,50.7,515.6,44.5,515.6,36.8z M538.1,36.8L538.1,36.8c0-4.7-3.4-8.6-8.2-8.6s-8.1,3.8-8.1,8.4v0.1c0,4.6,3.4,8.5,8.2,8.5
		S538.1,41.4,538.1,36.8z"/>
	<path d="M549.6,26.2c0-1.7,1.3-3,3-3h9.4c3.4,0,6.1,1,7.9,2.7c1.5,1.5,2.3,3.6,2.3,6.2v0.1c0,4.2-2.1,6.9-5.4,8.2l4.1,5
		c0.6,0.7,1,1.4,1,2.3c0,1.7-1.4,2.7-2.8,2.7c-1.3,0-2.2-0.7-2.9-1.5l-5.8-7.3h-4.7v5.9c0,1.7-1.3,3-3,3s-3-1.3-3-3V26.2z
		 M561.6,36.3c2.9,0,4.6-1.5,4.6-3.8v-0.1c0-2.5-1.8-3.9-4.7-3.9h-5.9v7.8H561.6z"/>
	<path d="M583.8,28.7h-5.7c-1.5,0-2.7-1.2-2.7-2.7c0-1.5,1.2-2.7,2.7-2.7h17.4c1.5,0,2.7,1.2,2.7,2.7c0,1.5-1.2,2.7-2.7,2.7h-5.7
		v18.8c0,1.7-1.3,3-3,3s-3-1.3-3-3V28.7z"/>
</g>
<g>
</g>
<g>
</g>
<g>
</g>
<g>
</g>
<g>
</g>
<g>
</g>
</svg>
