<?xml version="1.0" encoding="utf-8"?>
<!-- Generator: Adobe Illustrator 18.0.0, SVG Export Plug-In . SVG Version: 6.00 Build 0)  -->
<!DOCTYPE svg PUBLIC "-//W3C//DTD SVG 1.1//EN" "http://www.w3.org/Graphics/SVG/1.1/DTD/svg11.dtd">
<svg version="1.1" id="Layer_1" xmlns="http://www.w3.org/2000/svg" xmlns:xlink="http://www.w3.org/1999/xlink" x="0px" y="0px"
	 viewBox="0 0 53.6 53.5" style="enable-background:new 0 0 53.6 53.5;" xml:space="preserve">
<style type="text/css">
	.st0{fill:#FFFFFF;}
	.st1{fill:none;stroke:#FFFFFF;stroke-width:1.314;}
</style>
<g>
	<path class="st0" d="M33.3,33.2c-7.2,0-13-5.9-13-13c0-7.2,5.9-13,13-13s13,5.9,13,13C46.4,27.4,40.5,33.2,33.3,33.2 M33.3,0.6
		c-10.8,0-19.6,8.8-19.6,19.6c0,3.9,1.1,7.4,3,10.4L2,45.4c-1.7,1.7-1.7,4.5,0,6.2c0.8,0.8,1.9,1.3,3.1,1.3c1.1,0,2.2-0.4,3.1-1.3
		l14.7-14.8c3,1.9,6.6,3,10.4,3c10.8,0,19.6-8.8,19.6-19.6C52.9,9.4,44.1,0.6,33.3,0.6"/>
	<path class="st1" d="M33.3,33.2c-7.2,0-13-5.9-13-13c0-7.2,5.9-13,13-13s13,5.9,13,13C46.4,27.4,40.5,33.2,33.3,33.2z M33.3,0.6
		c-10.8,0-19.6,8.8-19.6,19.6c0,3.9,1.1,7.4,3,10.4L2,45.4c-1.7,1.7-1.7,4.5,0,6.2c0.8,0.8,1.9,1.3,3.1,1.3c1.1,0,2.2-0.4,3.1-1.3
		l14.7-14.8c3,1.9,6.6,3,10.4,3c10.8,0,19.6-8.8,19.6-19.6C52.9,9.4,44.1,0.6,33.3,0.6z"/>
</g>
<g>
</g>
<g>
</g>
<g>
</g>
<g>
</g>
<g>
</g>
<g>
</g>
</svg>
