<?xml version="1.0" encoding="utf-8"?>
<!-- Generator: Adobe Illustrator 18.0.0, SVG Export Plug-In . SVG Version: 6.00 Build 0)  -->
<!DOCTYPE svg PUBLIC "-//W3C//DTD SVG 1.1//EN" "http://www.w3.org/Graphics/SVG/1.1/DTD/svg11.dtd">
<svg version="1.1" id="Layer_1" xmlns="http://www.w3.org/2000/svg" xmlns:xlink="http://www.w3.org/1999/xlink" x="0px" y="0px"
	 viewBox="0 0 27.6 27.5" style="enable-background:new 0 0 27.6 27.5;" xml:space="preserve">
<style type="text/css">
	.st0{fill:#231F20;}
</style>
<path class="st0" d="M24.7,6.9c0,0.3-0.3,0.6-0.6,0.6h-3.5c-0.3,0-0.6-0.3-0.6-0.6V3.5c0-0.3,0.3-0.6,0.6-0.6h3.5
	c0.3,0,0.6,0.3,0.6,0.6V6.9z M24.7,24.2c0,0.3-0.3,0.6-0.6,0.6H3.4c-0.3,0-0.6-0.3-0.6-0.6V12.1h3.1c-0.1,0.6-0.2,1.1-0.2,1.7
	c0,4.5,3.6,8,8.1,8c4.4,0,8-3.6,8-8c0-0.6-0.1-1.2-0.2-1.7h3.1V24.2z M13.8,8.6c2.9,0,5.2,2.3,5.2,5.2c0,2.9-2.3,5.2-5.2,5.2
	c-2.9,0-5.2-2.3-5.2-5.2C8.6,10.9,10.9,8.6,13.8,8.6 M23.6,0H4C1.8,0,0,1.8,0,4v19.5c0,2.2,1.8,4,4,4h19.6c2.2,0,4-1.8,4-4V4
	C27.6,1.8,25.8,0,23.6,0"/>
</svg>
