<?xml version="1.0" encoding="utf-8"?>
<!-- Generator: Adobe Illustrator 18.0.0, SVG Export Plug-In . SVG Version: 6.00 Build 0)  -->
<!DOCTYPE svg PUBLIC "-//W3C//DTD SVG 1.1//EN" "http://www.w3.org/Graphics/SVG/1.1/DTD/svg11.dtd">
<svg version="1.1" id="Layer_1" xmlns="http://www.w3.org/2000/svg" xmlns:xlink="http://www.w3.org/1999/xlink" x="0px" y="0px"
	 viewBox="134.8 137.3 29 24.9" style="enable-background:new 134.8 137.3 29 24.9;" xml:space="preserve">
<style type="text/css">
	.st0{fill:#FFFFFF;}
</style>
<path class="st0" d="M163.7,140.2c-1.1,0.5-2.2,0.9-3.4,1c1.2-0.8,2.2-2,2.6-3.5c-1.1,0.7-2.4,1.2-3.8,1.5c-1.1-1.2-2.7-2-4.4-2
	c-3.3,0-5.9,2.8-5.9,6.3c0,0.5,0,1,0.1,1.5c-4.9-0.3-9.3-2.7-12.2-6.5c-0.5,0.9-0.8,1.9-0.8,3.1c0,2.2,1,4.1,2.7,5.2
	c-1,0-1.9-0.3-2.7-0.8v0.1c0,3.1,2.1,5.6,4.8,6.2c-0.5,0.2-1,0.2-1.6,0.2c-0.4,0-0.7,0-1.1-0.1c0.7,2.5,3,4.3,5.5,4.4
	c-2,1.7-4.6,3-7.4,3c-0.5,0-0.9,0-1.4-0.1c2.6,1.8,5.8,2.6,9.1,2.6c10.9,0,16.9-9.6,16.9-17.9v-0.8
	C161.9,142.6,162.9,141.5,163.7,140.2"/>
</svg>
