<?xml version="1.0" encoding="utf-8"?>
<!-- Generator: Adobe Illustrator 18.0.0, SVG Export Plug-In . SVG Version: 6.00 Build 0)  -->
<!DOCTYPE svg PUBLIC "-//W3C//DTD SVG 1.1//EN" "http://www.w3.org/Graphics/SVG/1.1/DTD/svg11.dtd">
<svg version="1.1" id="Layer_1" xmlns="http://www.w3.org/2000/svg" xmlns:xlink="http://www.w3.org/1999/xlink" x="0px" y="0px"
	 viewBox="0 0 58.3 58.7" style="enable-background:new 0 0 58.3 58.7;" xml:space="preserve">
<style type="text/css">
	.st0{fill:none;stroke:#000000;stroke-width:1.796;}
</style>
<circle class="st0" cx="29.3" cy="29.4" r="28.2"/>
<path d="M40.1,24c0,0.3-0.3,0.6-0.6,0.6h-3.5c-0.3,0-0.6-0.3-0.6-0.6v-3.5c0-0.3,0.3-0.6,0.6-0.6h3.5c0.3,0,0.6,0.3,0.6,0.6V24z
	 M40.1,41.3c0,0.3-0.3,0.6-0.6,0.6H18.8c-0.3,0-0.6-0.3-0.6-0.6V29.2h3.1c-0.1,0.6-0.2,1.1-0.2,1.7c0,4.5,3.6,8,8.1,8
	c4.4,0,8-3.6,8-8c0-0.6-0.1-1.2-0.2-1.7h3.1V41.3z M29.2,25.8c2.9,0,5.2,2.3,5.2,5.2c0,2.9-2.3,5.2-5.2,5.2c-2.9,0-5.2-2.3-5.2-5.2
	C24,28.1,26.3,25.8,29.2,25.8 M39,17.1H19.4c-2.2,0-4,1.8-4,4v19.5c0,2.2,1.8,4,4,4H39c2.2,0,4-1.8,4-4V21.2
	C43,18.9,41.2,17.1,39,17.1"/>
</svg>
