<?xml version="1.0" encoding="utf-8"?>
<!-- Generator: Adobe Illustrator 18.0.0, SVG Export Plug-In . SVG Version: 6.00 Build 0)  -->
<!DOCTYPE svg PUBLIC "-//W3C//DTD SVG 1.1//EN" "http://www.w3.org/Graphics/SVG/1.1/DTD/svg11.dtd">
<svg version="1.1" id="Layer_1" xmlns="http://www.w3.org/2000/svg" xmlns:xlink="http://www.w3.org/1999/xlink" x="0px" y="0px"
	 viewBox="0 0 58.3 58.7" style="enable-background:new 0 0 58.3 58.7;" xml:space="preserve">
<style type="text/css">
	.st0{fill:none;stroke:#000000;stroke-width:1.796;}
</style>
<circle class="st0" cx="29.3" cy="29.4" r="28.2"/>
<path d="M35,40.9c0-8.7-7.1-15.8-15.8-15.8c-0.3,0-0.5,0.2-0.5,0.5V29c0,0.3,0.2,0.5,0.5,0.5c6.3,0,11.4,5.1,11.4,11.4
	c0,0.3,0.2,0.5,0.5,0.5h3.5C34.7,41.4,35,41.2,35,40.9 M42.4,40.9c0-12.8-10.4-23.2-23.2-23.2c-0.3,0-0.5,0.2-0.5,0.5v3.5
	c0,0.3,0.2,0.5,0.5,0.5c10.4,0,18.8,8.4,18.8,18.8c0,0.3,0.2,0.5,0.5,0.5h3.5C42.2,41.4,42.4,41.2,42.4,40.9 M26.1,37.7
	c0-2-1.7-3.7-3.7-3.7c-2.1,0-3.7,1.7-3.7,3.7c0,2.1,1.6,3.7,3.7,3.7C24.4,41.4,26.1,39.7,26.1,37.7"/>
</svg>
